<svg xmlns="http://www.w3.org/2000/svg" viewBox="0 0 720 720" xmlns:v="https://vecta.io/nano"><style><![CDATA[.D{fill:#765320}.E{fill:#948028}.F{fill:#3d1114}]]></style><path d="M0 0h720v720H0z"/><path d="M383.83 519.14l.39 6.56.67 10.12.59 7.12.09 1.23.13 2.41.53 10.2c0 21.12.85 42.27 0 63.36-1.27 30.1-3.77 60.15-5.72 90.22-.2 3.21-.2 6.43-.3 9.64h-5.55l1.69-19c.36-4.47.53-8.95.84-13.42.23-3.2.74-6.4.76-9.6a83.78 83.78 0 0 0-.59-11.76c-.87-6.36-2.18-12.65-3.22-19-.78-4.75-1.5-9.51-2.11-14.28-.46-3.64-.54-7.33-1.13-10.93-.18-1.08-1.54-2-2.35-2.93-.84 1.22-2.16 2.36-2.4 3.69-.37 2 .1 4.14.06 6.21a18.35 18.35 0 0 1-.54 3.09h-1.07c-.39-2.31-1.13-4.62-1.09-6.91.11-6.08.87-12.15.78-18.22s-1.13-11.92-1.38-17.89l-1.6-45c-.1-2.3-1.18-4.55-1.81-6.83q-1.24-17.22-2.5-34.54c1-3.48 3.82-1.48 5.79-2 1.39.61 2.81 1.79 4.17 1.74 4.46-.19 8.9-.82 13.35-1.28a1.48 1.48 0 0 1 .23.53l.5.75.05.09.54.77a62.6 62.6 0 0 1 1.65 6.95c.41 2.92.4 5.92.55 8.91z" class="E"/><path d="M359.47 537.32c.63 2.28 1.71 4.53 1.81 6.83l1.6 45c.25 6 1.29 11.92 1.38 17.89s-.67 12.14-.78 18.22c0 2.29.7 4.6 1.09 6.91h1.07a18.35 18.35 0 0 0 .54-3.09c0-2.07-.43-4.21-.06-6.21.24-1.33 1.56-2.47 2.4-3.69.81 1 2.17 1.85 2.35 2.93.59 3.6.67 7.29 1.13 10.93.61 4.77 1.33 9.53 2.11 14.28 1 6.33 2.35 12.62 3.22 19a83.78 83.78 0 0 1 .59 11.76c0 3.2-.53 6.4-.76 9.6l-.84 13.42-1.69 19H353.1l3.26-42.16 4.57-69.19a520.5 520.5 0 0 0-1.54-70.3 6 6 0 0 1 .08-1.13z" class="D"/><path d="M383.83 519.14l-.52-8.94a62.6 62.6 0 0 0-1.65-6.95l-.54-.77-.05-.09-.5-.75a1.48 1.48 0 0 0-.23-.53l1.55-4.92 1.07-4.05c-1.53.08-3.28-.3-4.55.32-5.28 2.57-10.41 5.43-15.59 8.19-2 .55-4.84-1.45-5.79 2l-6.73-.76c-3-2.08-6.72-3.62-9-6.35-6.27-7.64-14.4-10.63-23.89-7.86a17.84 17.84 0 0 1-3.05.66c-2.45.25-3.88-.31-3.76-3.39a14.26 14.26 0 0 0-1.41-6.94c-3-5.79-13.56-9.93-20-8.52a11.89 11.89 0 0 1-6.1 0c-2.38-.81-3.26-.1-4.26 1.88-3.13 6.17-3.56 6.33-10.07 5.65-.25 0-.53.31-.81.49a9.91 9.91 0 0 0 15.05.68c1.51-1.64 2.95-2.39 4.59-.47a56.8 56.8 0 0 1 5.74 7.35c2.36 3.92 1.37 6.11-3 7.64l-8.82 3-17.2 1.84-.24-1.75a25.2 25.2 0 0 0 5-1 7.81 7.81 0 0 0 3.57-2.75c.39-.62-.35-2.77-1.11-3.15-3.52-1.76-6.67-4.76-11.19-3.69-2.09.5-3.53-.18-3.75-2.77-.05-.67-1.54-1.46-2.51-1.75s-2 .19-3 0l-13.42-2.38-.3-3.16 1.34-2.56c.64.07 1.55.44 1.87.16 1.63-1.44 3.1-3.06 4.63-4.61s3.83-1.37 3.89.67c.13 4.53 2.81 3.48 5.66 3.54 3.54.08 5.66-1 6.47-4.5.1-.42.54-.75.74-1.17l6-12.56c-4-.71-5.34-3.25-6.28-6.06-2-5.88-3.63-7.05-9.26-6.42.33-4.82.79-9.63.94-14.45a56.1 56.1 0 0 0-.68-7.16c3.76-.46 7.24-1.5 9.75-4.62a11.58 11.58 0 0 0 3.25-9.27 5.56 5.56 0 0 1 .42-.54s.29 0 .29.08c.39 3.65 1.23 7.33 1 10.95-.4 7.26-1.58 8.18-8.94 8.92a9.24 9.24 0 0 0-1.37.2c-2.2.58-3 2-1.55 3.82a8.22 8.22 0 0 0 4.06 2.81c3.57.9 6.81-.24 9.65-2.61l9.65-7.8c4.32-3.49 4.52-3.5 9.45-.72a14.15 14.15 0 0 0 2 .77l.81-1.07c-3.35-2.82-6.47-6-10.15-8.33a10.64 10.64 0 0 1-4.5-5.28 46.05 46.05 0 0 0-3.94-6.28q-2.47-5-5-10.07l-1.83-5.12 4.62.66c-.22-1.84.1-4-.78-5.45-2.47-4-4.31-8.09-4.12-12.94 0-1-.77-1.95-1.19-2.92-.86.66-2 1.15-2.53 2-2.08 3.48-4.7 5.79-9.06 5.91a4 4 0 0 0-2.74 2.66c-.27 1.6.36 3.4.78 5.07.46 1.85 1.63 2.81 3.6 2 1.8-.75 3.54-1.64 5.32-2.43s3.64-1.21 4.23 1.54a8.54 8.54 0 0 0-6.4 6 11.88 11.88 0 0 1-3.57 5.38c-4.27 3.49-5.64 8-5.36 13.15.18 3.53.61 7.05.93 10.58l-20.68-10.26a15.37 15.37 0 0 0-6.17-1.45 15.29 15.29 0 0 1-13.2-8.76c-3.85-8.62-4.34-17.86-5.46-27a3.85 3.85 0 0 1 .8-2.88c3.44-3.18 7-6.18 10.59-9.24l5 1.26-8.63 9.68-2.79 1.92.69 1.18 6.69-3.14 1.61-.53c1.29-.42 2.59-.79 3.86-1.27 3.44-1.29 6.78-3 10.32-3.85 4.35-1.08 7.27.56 9.58 4.39.6 1 1.35 1.88 2.23 3.09 1.59-2.38 1.63-5.28 5.2-5 1.73.16 3.75-1.06 5.38-2.07a16.73 16.73 0 0 0 4.32-3.9c.74-.95 1.44-2.77 1-3.65-1.26-2.6-.39-4.47 1.61-5.67a48.46 48.46 0 0 1 7.77-3.39c.38-.14 1.12.6 1.66 1a62.77 62.77 0 0 1 2.21 1.54l-.72 1.47-.39.61-.3 2.05c-3.74 4-4.08 9.2-4.44 14.14-.61 8.31 4.67 14.57 12 15 9.76.63 15.45-4 16.61-13.06.49-3.83 1.71-7.57 2.6-11.35l.48 20.71c0 .72-.87 2-1.44 2.08-4.07.46-3.94 3.08-3.37 6l-3.18-.79a26.58 26.58 0 0 0-.61 3.51q-.27 6.17-.32 12.34a6.25 6.25 0 0 0 .7 2.25A27.66 27.66 0 0 0 297 402c.61-.33.58-2.47.28-3.64-.94-3.76-2.14-7.46-3.24-11.18a44.07 44.07 0 0 1 3.46 4.82c1 1.81 1.38 3.9 2.32 5.73.46.89 1.56 1.45 2.37 2.15a13.78 13.78 0 0 0 2-2.88 6 6 0 0 0 .16-3.08c-.84-4.82 1.46-8.31 4.75-11.71a11.2 11.2 0 0 0 1.66 1.7c1 .62 2.52 1.78 3 1.46 1.95-1.24.91-2.82-.31-4-1.74-1.68-3.88-3-5.35-4.87-1-1.22-1.95-3.73-1.36-4.64 2.93-4.52 6-9.22 12.49-9a14.93 14.93 0 0 0 2.76-.1c2.66-.38 3.29-1.91 1.65-4.06a17.14 17.14 0 0 0-2-1.87c-4.23-4-4.31-5.56-.78-10.21 2-2.66 2-5.33.25-8.31-3.53-5.88-8.17-9.56-15.41-8.89l3.95-1.95h1.82c6.76 2.45 11.21 7.76 15.6 13.15l1.07-.27.95-16.14 2.92 4.08a56.33 56.33 0 0 0 9.45 20.95c.87 1.18 2.77 1.62 4.19 2.4l1.62 1.27c2.16 1.66 2.09 3.9-.14 6.54-1.68 2-2.95.87-4.72-.14a136.29 136.29 0 0 0-13.7-6.93c-1-.42-2.91.45-3.87 1.31-.46.41-.07 2.78.64 3.29a133.71 133.71 0 0 0 14 9.32c1.49.83 4.06.05 6-.42a6.58 6.58 0 0 0 2.43-1.63c.88 3.7 1.88 7.35 2.57 11.05.23 1.24.11 3.32-.63 3.8-2.43 1.57-6-.67-6.25-3.63-.59-6.34-.59-6.34-6.67-5.49-.34.05-.81-.06-1 .13-1 .91-2.7 1.84-2.79 2.87a13.11 13.11 0 0 0 1 6.12c.9 2.1.82 3.34-1.16 4.65-3.19 2.11-5.93 2.41-7.94-1.89-.62.92-1 1.25-1.07 1.63l-2 12.83c-.07.46.25 1.32.56 1.41a2.42 2.42 0 0 0 1.91-.19c1.73-1.28 3.34-2.72 5.61-4.61 0 3.58 1.18 7.55-.3 9.53-1.89 2.56-3.66 4.18-2.63 7.67.26.89-1.75 2.46-2.71 3.71-.63-1.05-1.68-2.06-1.81-3.17-.43-3.83-2.91-6.41-5.06-9.34-.19 3.12.48 6 .58 8.92.08 2.16.82 3.22 2.47 4.71s2.3 4.54 2.89 7c.08.35-2.77 1.14-3.93 2.13a16.41 16.41 0 0 0-2.45 3.53c1.09.42 2.3 1.37 3.25 1.16 2.59-.59 5.36-2.35 5.47 2.45 0 .29.6.72 1 .83 2.2.6 4.44 1.07 6.64 1.69 1.26.36 2.47.9 3.7 1.36-1 1-1.91 2-2.84 3-.13.14-.11.41-.25 1 2.09.12 4.21-.09 6.1.46a6 6 0 0 1 3.39 2.85c.31.62-.94 2.38-1.88 3.14a63.81 63.81 0 0 1-5.84 3.83l.36 1.06 12.24-2.63a7.5 7.5 0 0 0-.23-1.64c-1.33-4.55-1.1-5.1 3.47-5.78 1.33-.2 2.78.46 4.17.73-.56 1.16-1.08 2.33-1.69 3.46-.27.5-.87.85-1.05 1.37a14.49 14.49 0 0 0-.47 2.48 7 7 0 0 0 2.59.19c1.42-.45 2.67-1.56 4.09-1.8s3 .25 4.47.42a26.61 26.61 0 0 1-1.12 4.3c-.92 2.07-2.12 4-3.2 6l1.12 1.14c4-2.63 7.45-6.82 13.17-5.7a8.6 8.6 0 0 0-2.27-3.26c-2.56-1.89-2.37-3.66-.12-5.59.52-.45.82-1.21 1.39-1.53a34.85 34.85 0 0 1 3.46-1.57 14.92 14.92 0 0 1 1 3.74c0 1.83-.8 3.69-.66 5.49.1 1.36 1.15 3.76 1.76 3.75a6.84 6.84 0 0 0 4.58-1.87c1.81-2 2.9-4.63 4.59-6.76 1.48-1.88 1.38-3-.85-3.93-.86-.35-1.75-.62-2.57-1-4.63-2.42-4.74-3.05-1.46-7a5.75 5.75 0 0 0 .57-1.17c-3.68-3-4.39-2.86-6.89.87a9.6 9.6 0 0 1-1.49 1.34c-1.94 1.85-4 3.62-5.76 5.59a18.56 18.56 0 0 0-2.09 3.2 68.92 68.92 0 0 1-7.75-3.88 6.29 6.29 0 0 1-2.49-3.8c-.1-.63 1.92-1.91 3.17-2.35 1.56-.55 3.39-1.08 4.28 1.41a3.23 3.23 0 0 0 2.49 1.12c2.78-2.82 6-5.48 7.91-8.84 2.82-4.94 4.39-10.58 7.08-15.61 2.39-4.47 2.59-6.17-.81-10-.52-.59-1.25-1.3-1.27-2-.07-3.94 0-7.88.1-11.82 0-2.76-.51-5.11-3-7-2.1-1.6-3.25-3.8-1.57-6.68a3.9 3.9 0 0 0-.42-3.4 63.26 63.26 0 0 0-4.57-5.15c-.58-.66-1.55-1.54-1.43-2.14.76-3.95-2.8-5.38-4.11-8.44-1 .91-1.5 1.48-2.1 2-.9.75-1.84 1.45-2.76 2.18-.32-1.25-1.07-2.57-.87-3.73.86-5 2-9.89 3-14.83l5.64-7.17c4.82-4.62 5.71-11.41 1.83-17.7-1.89-3.07-1.71-5.52.36-8.22 2.21-2.88 8.95-5.62 12.34-4.52.88.29 1.64 1.91 1.89 3l2.85 14.48c.21.92 1.25 1.66 2 2.65a11.39 11.39 0 0 0 1.22-1.45c4.18-7.9 8.51-15.67 16.85-20.08.17-.09.22-.4.32-.6l3-1.67c3.61 1.2 7.18 2.53 10.84 3.55 2.49.69 3.41 2.15 3.14 4.56l-1.13 9.62-10.43 15.45c-3.9 1.42-7.74 3-11.71 4.21s-4.66 3.67-3.59 6.91c1.72 5.25 3.76 10.41 5.81 15.55 1.65 4.19 3.25 8.43 7.24 11.17.62.42.73 1.59 1.07 2.42-3 2.54-1 5.56-.8 8.41-1.07.81-2.11 2.26-3.21 2.3-2.61.12-3.93 1.34-4.21 3.68-.37 3.18-.37 6.41-.74 9.6-.12 1-.72 2.48-1.48 2.78-5.87 2.33-8.53 6.86-9.54 12.7 4.91 2.45 8.52 1.31 8.9-3 .25-2.79.11-5.28 3.64-5.87.39-.07.7-.87 1-1.37q4.32-8.82 8.61-17.65l6.41-3.1c.68-3 1.22-6.12 2.1-9.1.71-2.43 1.32-5.2 2.9-7a12.27 12.27 0 0 0 2.85-11.52 73.67 73.67 0 0 0-2.34-7.15l1.74-2a27.12 27.12 0 0 1 1.39 3.59c1.86 8.3 3.4 16.69 5.57 24.91a147.43 147.43 0 0 0 6.71 20.29c1.36 3.22 3.6 6.92 8.39 6.42l1.39-.17c1.52 4 1.12 7.12-2.88 9.78-3.72 2.47-4.14 5.2-2.51 8.54a16.42 16.42 0 0 0-2.16 10.93 76.94 76.94 0 0 1 .57 12.71c0 1.07-1.08 2.9-1.93 3.07-4.29.9-6.25-.62-6.88-4.94-.31-2.15-1.31-2.79-3.33-2-4.5 1.68-10.14 10.29-9.77 15 .15 2 1.27 2.66 2.7 1.32 3.79-3.54 7.8-1.08 13-1.11-1.59 2.46-2.42 4.3-3.74 5.67-2.45 2.53-5.17 4.8-7.81 7.15-4.25 3.8-6.08 9-8.93 14.45 4.37.36 7.83 0 10.95-2.21l7.57 12.23a32.06 32.06 0 0 1 1.87 4.69 46.15 46.15 0 0 0-3.94-4.73 4 4 0 0 0-2.72-.46c-1.35 3.66-2.5 7.38-3.68 11.1 0 .1 0 .23.06.34q2.26 10.24 4.54 20.49l.33 2.09.4.66c.1-.16.21-.31.32-.47l1.52-3.76c.78 8.16-2.76 10.52-8.74 9.57-6.7-1.06-12.7-3.77-18.86-6.19-1.34-.52-2.4-1.72-3.59-2.61l9 2.39c-.7-1.43-.78-2-1.08-2.18l-11-7.75a3.65 3.65 0 0 0-2.26-.71 10.21 10.21 0 0 0-2.62 1.19 7.22 7.22 0 0 0 1.22 2.23c1.77 1.46 3.68 2.74 5.54 4.09l-12.61-7.28c-1.14-.65-2.34-1.17-3.52-1.75a21.24 21.24 0 0 0-1.46 3.55 37.43 37.43 0 0 0-.39 4.81zm8-125.92l2.34-4 3.9-4.22c.42-.72 1.22-1.47 1.2-2.18-.18-4.42-.55-8.83-.85-13.3-5.52-.89-8.11-4.59-7.19-10.56l.88-.93 1.24-1.12 2.28-4.95a18.61 18.61 0 0 0-.05-4.16c-.35-1.42-1.41-2.66-1.86-4.07-2.31-7.33-8.31-11.67-13.65-16.37-3.28-2.89-5.82-1.4-6.86 2.92-.47 1.95-.84 4.26-2.09 5.63-3.46 3.75-3.79 4.94-.92 9.12l7.2 11.25 1.4 7.38a5.33 5.33 0 0 0 .93 2.12c1.67 2.13 3.42 4.18 5.14 6.27l1.08 2.16 2 8.31.05 1.48-2.83 16.75c-.12.86.72 1.87 1.11 2.81a10.77 10.77 0 0 0 2.9-1.73c.51-.58.28-1.77.53-2.64.56-1.94 1.21-3.85 1.82-5.77zm35.95-18.91L426.6 371a17 17 0 0 0-1.42 2.65l-5 17.89c-.59 2.32-.45 4.74 2.63 6.24.65-2.12 1.32-3.94 1.76-5.81l2.91-13.12a23.17 23.17 0 0 0 .71 3.35c1.8 4.92-1.55 10.51 2.64 15.34 2 2.32 6.47 7.11 9.8 7 .58 0 1.72-1.34 1.62-1.54-.7-1.3-1.44-3.16-2.59-3.53-2.2-.72-3.31-1.86-3.63-4l-1.06-6.81c-.76-4.18-1.46-8.38-2.47-12.5-.62-2.44-2.3-3.39-4.72-1.85zm-12.08 62.16a47.78 47.78 0 0 0 3.14-4.41 25.78 25.78 0 0 0 1.9-4.68c.42-1.3 1.29-3.17.75-3.9a5 5 0 0 0-4-1.82c-2.17.39-4.11 1.85-6.23 2.65s-2 1.89-1 3.45q2.37 3.8 4.7 7.59c-1 0-2.07-.11-3.11-.1-3.25 0-3.51 2.71-3.74 4.86-.06.59 2.19 1.51 3.45 2.14a20.87 20.87 0 0 0 4.23 1.72c.93.23 2.62.23 2.92-.27 3.59-6.23 10.16-7.7 16.07-9.94 4.83-1.82 5.12-1.92 3.58-7.18-.75-2.55-1.45-5.44-1-7.94.76-3.88-1.31-5.73-3.95-7.21-1.12-.63-2.91-.09-4.39-.09l.4 7.25c0 .31.37.58.51.9a61.43 61.43 0 0 1 2.71 6.25c.38 1.16.08 2.54.09 3.83-1.31-.12-2.89.21-3.87-.42-3.19-2-4.93-.46-6.44 2.1-1 1.68-1.74 3.53-2.87 5.1s-2.55 2.26-3.85.12zM258.3 436c4.65 4.91 7.47 9.94 13.57 11a3.54 3.54 0 0 1 2.33 1.37 3.66 3.66 0 0 1 .2 3.05c-1.68 2.57-3.66 5-5.57 7.38-1.78 2.25-3.05 5-1 7.22 2.32 2.52 4.69.22 6.65-1.31 1.6-1.25 2.53-1 4.15.22a6.64 6.64 0 0 0 5.25.87c6.83-2.37 13.68-1.41 20.57-.84a14.46 14.46 0 0 0 3.71.1c3.49-.67 5.77.24 6.81 3.49a50.55 50.55 0 0 1 2 9.09c.5 3.89 1.67 5.11 5.59 4.71 3.65-.38 7.3-.81 10.92-1.41.74-.12 1.87-1.08 1.91-1.72.22-3.14-2.05-4.83-5.12-4-1.45.39-2.9 1.2-4.33 1.15s-3.7-.45-4.38-1.49-.6-3.72.26-4.59c1.78-1.79 4.25-2.91 6.5-4.21a29.49 29.49 0 0 1 3.2-1.4 4.23 4.23 0 0 0-2.46-1.72c-3.65-1-7.37-1.76-10.92-3-1.42-.51-2.46-2.08-3.67-3.17a21.57 21.57 0 0 1 3.52-3.5c3.15-2 3.42-2.93.7-5.35a12.51 12.51 0 0 0-3.74-2.44c-3.47-1.3-5.85.31-6.37 3.95-.42 3-.88 6-1.54 8.88-.73 3.19-2.55 3.92-5.38 2.35a48.42 48.42 0 0 1-5.93-3.55 8.17 8.17 0 0 1-2.22-3.31c-1.15-2.71-1.9-5.6-3.18-8.24-1-2.09-.67-3.25 1.58-3.23s4.78.59 7.18.77a3.63 3.63 0 0 0 2.48-.57c.37-.32.23-1.53 0-2.22a9.26 9.26 0 0 0-14-4.52c-2.09 1.45-2.86 3.11-1.43 5.61.56 1 .62 3.36.25 3.51-1.31.54-3.21 1-4.34.39-2.84-1.48-5.24-3.8-8.07-5.31a76.65 76.65 0 0 0-10.62-4.56c-1.14-.45-2.7.24-5.06.55zm141.22 15.15c-.59.2-1 .21-1.2.43-1.23 1.37-2.35 2.84-3.61 4.18-.5.53-1.35 1.21-1.88 1.09s-1-1.07-1.32-1.75-.2-1.38-.43-2c-.75-2-1.84-2.57-3.52-.78-2.78 3-2.93 4.82-.51 7.89 2.65 3.35 2.68 4.73 0 8.23-1.82 2.4-3.9 4.62-5.51 7.13a3.68 3.68 0 0 0 .14 3.51 34.1 34.1 0 0 0 6.74 5.36c3.87 2.26 4.64 5 2.23 8.71-.76 1.19-.87 2.81-1.27 4.23a28.91 28.91 0 0 0 5.32 1.2c2.61.1 5.25-.46 7.86-.37 2.4.07 4.77.81 7.17.91 2.81.11 3.35 1.18 3.09 3.94a30.08 30.08 0 0 0 .63 9.88c.73 3 3.55 3.67 6.08 2.09 5.15-3.22 6.33-9.55 1.8-13.45-4-3.47-9-5.87-13.47-8.79-1.19-.77-2.23-1.76-3.34-2.64 1.15-1 2.15-2.63 3.47-3 2.87-.72 4.55-2.31 5-5.05a18.62 18.62 0 0 0-.26-4.38 32.32 32.32 0 0 0-4.3 1c-4.38 1.62-8.59 4-13.09 4.88-3.59.72-5.74-2.49-4.3-5.88 2.56-6.06 5.06-12.25 8.56-17.76 2.26-3.54 1.18-5.85-.08-8.82zM230 389.29c-.89 1-1 1.21-1.2 1.3-1.15.54-2.32 1-3.47 1.57-2.7 1.25-2.85 2.45-.74 4.63a21.56 21.56 0 0 1 2.16 3c.73 1.09 1.42 2.21 2.13 3.32 1.29-.87 3.16-1.47 3.74-2.68.88-1.86.88-4.15 1.25-6.25l3.71-21.06c.85-5.06-1.77-7.77-6.82-7.16-3.57.43-7.75 4.79-8.06 8.45-.18 2.19.08 4.48-.49 6.55-.85 3.13.57 4.45 3.13 5.54a38.67 38.67 0 0 1 4.66 2.79zm163-66.74c.58 1.55.72 3.59 1.81 4.56 2.66 2.36 5.53.53 8-.72 2.92-1.47 6.42-2.88 6.79-6.7.3-3.17-7.3-7.86-10-6.12-3.14 2-6.49 4.25-6.6 8.98zm25 146.5c1.1-1.6 2.72-3.77 4.12-6.09a2.72 2.72 0 0 0-.28-2.26c-1.44-2.5-3-4.93-4.56-7.35s-2.74-1.68-3.73.4a40.19 40.19 0 0 0-2.72 6.35 4.43 4.43 0 0 0 .72 3.63c1.59 1.8 3.7 3.18 6.36 5.32zm-52.38 18.63l-.84-1.67c-4.2 2.87-8 1.55-11.93-.18-2.17-1-4.18.35-3.65 2.5.74 3 2.49 5.75 4 8.51a2.28 2.28 0 0 0 2.18.15c3.39-2.99 6.75-6.19 10.15-9.31zm-25.34-11.78c.88 1.64 1.44 3.48 2.66 4.6.55.5 2.91 0 3.61-.83a70.22 70.22 0 0 0 6.82-9.09c1.37-2.2.12-3.93-2.27-3.1a41.85 41.85 0 0 0-8.81 4.56c-.96.62-1.24 2.3-2.01 3.86zm64.93-43c-.3-.71-.89-3.39-1.55-3.41a9.15 9.15 0 0 0-5.24 1.79c-2.53 1.84-2.06 4.27-.29 6.52.8 1 1.68 2 2.53 2.94a34.07 34.07 0 0 0 4.08-3.87c.54-.64.26-1.95.47-3.93zM347 495.62c.15-.67.54-1.36.34-1.67-2.2-3.44-4.22-7.08-6.94-10.06-.78-.85-3.69.18-5.59.55-.17 0-.41 1.92-.05 2.2 3.95 3.03 8.01 5.9 12.24 8.98zm29.91-4.8l-.28-1.21c-.94-.19-2.05-.8-2.81-.5-3.5 1.36-6.92 2.95-10.35 4.51a2 2 0 0 0-1 .95 19 19 0 0 0-.6 2.5c.85.17 1.84.72 2.5.44a67.49 67.49 0 0 0 6.49-3.22c2.07-1.1 4.06-2.29 6.06-3.47zM326 379.25a7.72 7.72 0 0 0 1.38-10.59c-3.38 2.66-3.91 6.51-1.38 10.59zM307.59 406l-1.12.89c1.32 2.34 2.52 4.76 4 7a2.71 2.71 0 0 0 2.62.46c.64-.35 1.36-1.95 1.07-2.42a12.9 12.9 0 0 0-6.57-5.93zm95.35 12.56c-.42-.44-1.13-1.82-2-1.94-1.88-.25-4.42 3.26-3.57 4.93.58 1.16 2.05 1.86 3.13 2.77a28.61 28.61 0 0 0 1.94-2.85 13 13 0 0 0 .5-2.88zm-18.79 17.65c1.41 1.5 2.26 3.15 3.07 3.13 2.93-.08 2.42-2.82 2.7-4.66.08-.55-1.74-2-1.92-1.89a32.86 32.86 0 0 0-3.85 3.45zm6.33-17.5c-1.42 1.48-3.07 2.57-2.91 3.15.44 1.59 1.65 3 2.56 4.42 1-1.39 2.24-2.69 2.78-4.24.21-.57-1.25-1.75-2.43-3.3zm-61.53 18c-.31.39-.7.77-.65.84.22.33.55.73.88.78s.53-.5.79-.77z" class="F"/><path d="M410.24 299.18l-3 1.67-2.67-1.61c-4.31-2.27-8.41-5.6-13-6.53-9.09-1.86-17.77.15-24.62 7-3.69 3.68-4.16 10.54-1.51 15 2.09 3.54 2.46 7.15.2 10.81a7.54 7.54 0 0 0-1 2.2c-1.15 5.38-4.74 7.27-9.88 7.11a9.13 9.13 0 0 0-2.24.5l.3 1.29 9.74-2.42c1.65-.38 3.33-.64 5-1l-5.64 7.17c-1 .76-1.95 1.5-2.9 2.28-4.17 3.4-7.6 7.89-13.33 9-1.42-.78-3.32-1.22-4.19-2.4a56.33 56.33 0 0 1-9.5-20.93l.71-6.19 1-.2c.62.73 1.27 1.44 1.84 2.21 1.56 2.1 3 4.26 4.62 6.34a33.08 33.08 0 0 0 2.73 3.07c.6.61 1.45 1.64 1.95 1.51.88-.23 2.22-1.19 2.21-1.83a5.72 5.72 0 0 0-1.35-3.75l-19.47-18.44c-.11-.1-.43 0-.56 0-1.62 3.72-1.49 8.82-6.22 10.08a12.23 12.23 0 0 0-8 6.34h-1.81c-6-3.43-7.55-3.23-12.21 1-1.92 1.76-4.19 3.14-6.18 4.83a6.1 6.1 0 0 0-2.2 2.83l-4.18 22.78c-1 5.22-1.83 10.45-5.91 14.46-2.86 2.81-6 2.37-7.67-1.3-2.25-4.81-1.52-9.67-.37-14.57.34-1.44.47-2.92.69-4.39l.3-2.05.39-.61.72-1.46c1.82-1.67 1.48-3.2-.37-4.52s-3.7-2.49-5.49-3.68c1.55-.08 3.37-.27 5.18-.24s3.65.38 5.47.4 3.84.29 4.28-2.3l.61-1.69a26.88 26.88 0 0 1 .8-3.71c1.56-4.32 2.51-9.09 5-12.76A57.11 57.11 0 0 1 299.93 309c8-6.42 17-7.41 26.78-4.12 4.62 1.56 9.59 2.2 14.46 2.88 1.91.26 3.78-.81 3.3-3.35-1.49-8-2.85-16.12-4.69-24.08-1.07-4.6-.89-8.73 2-12.48a77.24 77.24 0 0 1 5.52-6.21c2-2 3.93-1.65 5.63.41 1.09 1.33 1.78 3.22 3.14 4.08 5.45 3.44 9.49 8.69 16.15 10.73 4.7 1.44 8.68 5.18 13.06 7.77 3.05 1.81 6.24 3.4 9.37 5.09 3.32.67 6.62 1.52 10 2 4.41.59 8.86.85 13.29 1.25l1.75 1.17zm-64.67-.24c-.13 7 .58 7.81 6.61 9.07a51.77 51.77 0 0 1 5.28 1.61c2.55.83 3.73-.24 3.88-2.76.18-3-2.08-5.31-6.06-6.54a47.12 47.12 0 0 1-5.58-2.4c-.95-.43-2.36-1.58-2.68-1.32a6.29 6.29 0 0 0-1.45 2.34z" class="E"/><path d="M394.69 289.74c-3.13-1.69-6.32-3.28-9.37-5.09-4.38-2.59-8.36-6.33-13.06-7.77-6.66-2-10.7-7.29-16.15-10.73-1.36-.86-2.05-2.75-3.14-4.08-1.7-2.06-3.67-2.42-5.63-.41a77.24 77.24 0 0 0-5.52 6.21c-2.93 3.75-3.11 7.88-2 12.48 1.84 8 3.2 16 4.69 24.08.48 2.54-1.39 3.61-3.3 3.35-4.87-.68-9.84-1.32-14.46-2.88-9.78-3.29-18.78-2.3-26.78 4.12a57.11 57.11 0 0 0-11.35 11.58c-2.53 3.67-3.48 8.44-5 12.76a26.88 26.88 0 0 0-.8 3.71c-2.05-4.74-4.38-9.37-6.11-14.22a113.11 113.11 0 0 1-4.94-56.61c.8-5 3.84-9.71 5.85-14.55 1.26-.35 2.57-1.12 3.78-1a43 43 0 0 1 9.91 1.81c3.94 1.44 7.41 4.42 11.41 5.37 6.34 1.49 10 5.69 13.64 10.41a24.33 24.33 0 0 0 3 2.8l.38-.44-1.32-2.39c1.19 1 2.68 1.86 3.54 3.12l15.46 22.88a16.21 16.21 0 0 0 3.1 2.7c.41-1.42 1.34-2.93 1.13-4.25a51.14 51.14 0 0 0-2.7-11.41c-2.41-5.84-.74-10.66 2.77-15.13a29 29 0 0 1 6.48-6.18 5.35 5.35 0 0 1 4.87.19c3.89 2.65 7.28 6 11.16 8.69l27.88 18.68a34 34 0 0 1 2.58 2.2z" class="D"/><path d="M412.65 332.36l10.42-15.45 4.7-9.4 1.25.7.54.78.57.65.62.65 1 1.25c1.55 2.93 3.48 5.72 4.57 8.81 1.59 4.53.38 7.27-3.59 10.12-.65.47-1.38.85-2 1.38-3.51 3-5.1 5.54.15 9.38 6.46 4.73 12 10.7 18 16.12 10.5 9.56 13.42 22.26 14.74 35.61l1 10.68a71.76 71.76 0 0 0-2.87 8.07 72.92 72.92 0 0 1-9.2 23c-.41.66-1.22 1.07-2.63 2.24l1.64-26.21-.86-.25c-.72 1.09-1.39 2.23-2.17 3.28-1 1.34-2.1 2.6-3.16 3.89-1.63-3.34-1.21-6.07 2.51-8.54 4-2.66 4.4-5.79 2.88-9.77-.35-4.36-.45-8.64-4.61-11.72-1.54-1.14-2.23-3.69-2.87-5.73l-7.09-23.43c-.5-1.58-1.64-3-2.68-4.76l4.12 16.35c1.36 5.44 2.49 10.94 4.17 16.28.69 2.21 2.59 4 3.8 6.08 1.34 2.31 2.52 4.72 3.77 7.09-4.79.5-7-3.2-8.39-6.42a147.43 147.43 0 0 1-6.71-20.29c-2.17-8.22-3.71-16.61-5.57-24.91a27.12 27.12 0 0 0-1.39-3.59l-1.74 2a16.1 16.1 0 0 0-2.22.9c-2.91 1.76-5.25 3.21-9.23 1-3.3-1.82-4.16-3.36-3.45-6.56l1.98-9.28z" class="E"/><path d="M445.31 417.68l3.16-3.89c.78-1.05 1.45-2.19 2.17-3.28l.86.25-1.64 26.21c1.41-1.17 2.22-1.58 2.63-2.24a72.92 72.92 0 0 0 9.2-23 71.76 71.76 0 0 1 2.87-8.07c8.81 8.36 17.09 17.15 22.5 28.22.2.42.37.85.59 1.26.92 1.64 3 3.93 2.55 4.77a11.62 11.62 0 0 1-5.36 4.67 122.48 122.48 0 0 1-15.4 5.13c-9 2.38-18.2 4.28-27.23 6.68a6.11 6.11 0 0 0-3.37 3.64c-1.7 5.16-2.94 10.49-7.46 14.14l-2.67 3.13-.69 2.37c-3.12 2.24-6.58 2.57-10.95 2.21 2.85-5.44 4.68-10.65 8.93-14.45 2.64-2.35 5.36-4.62 7.81-7.15 1.32-1.37 2.15-3.21 3.74-5.67-5.24 0-9.25-2.43-13 1.11-1.43 1.34-2.55.65-2.7-1.32-.37-4.67 5.27-13.28 9.77-15 2-.76 3-.12 3.33 2 .63 4.32 2.59 5.84 6.88 4.94.85-.17 1.91-2 1.93-3.07a76.94 76.94 0 0 0-.57-12.71 16.42 16.42 0 0 1 2.12-10.88zm-163.78 77.99l8.82-3c4.36-1.53 5.35-3.72 3-7.64a56.8 56.8 0 0 0-5.74-7.35c-1.64-1.92-3.08-1.17-4.59.47a9.91 9.91 0 0 1-15.05-.68c.28-.18.56-.51.81-.49 6.51.68 6.94.52 10.07-5.65 1-2 1.88-2.69 4.26-1.88a11.89 11.89 0 0 0 6.1 0c6.47-1.41 17 2.73 20 8.52a14.26 14.26 0 0 1 1.41 6.94c-.12 3.08 1.31 3.64 3.76 3.39a17.84 17.84 0 0 0 3.05-.66c9.49-2.77 17.62.22 23.89 7.86 2.24 2.73 5.93 4.27 9 6.35-12 6.46-24 5.61-35.7-.49-3.63-1.89-6.66-4.92-10.24-7a13.4 13.4 0 0 0-6.44-1.47c-2.13 0-4.26.92-6.38 1.44L290 495l-3.86.82h-.12l-3.85.77-.57-.9zm.6-156.91c-.44 2.59-2.49 2.32-4.28 2.3s-3.64-.37-5.47-.4-3.63.16-5.18.24l5.49 3.68c1.81 1.3 2.19 2.85.37 4.52l-2.21-1.55c-.54-.36-1.28-1.1-1.66-1a48.46 48.46 0 0 0-7.77 3.39c-2 1.2-2.87 3.07-1.61 5.67.42.88-.28 2.7-1 3.65a16.73 16.73 0 0 1-4.32 3.9c-1.63 1-3.65 2.23-5.38 2.07-3.57-.33-3.61 2.57-5.2 5l-2.23-3.09c-2.31-3.83-5.23-5.47-9.58-4.39-3.54.87-6.88 2.56-10.32 3.85-1.27.48-2.57.85-3.86 1.27a30.24 30.24 0 0 1 3.27-2.84c1.53-1 3.72-1.38 4.73-2.71 2.44-3.21 5.56-3.63 9.17-3.69a6.73 6.73 0 0 0 4.55-1.7c2.82-3.19 5.21-6.76 7.94-10.4-1.74-.44-3.81-1.71-5.17-1.17a100.78 100.78 0 0 0-14.19 6.86c-2.9 1.71-5.26 4.33-7.87 6.54l-5-1.26 20.05-10.76c12.45-6.75 25.94-7 39.59-6.64 2.37.05 4.76-.87 7.14-1.34zM237.31 475.1l.3 3.16 13.42 2.38c1 .16 2.12-.31 3 0s2.46 1.08 2.51 1.75c.22 2.59 1.66 3.27 3.75 2.77 4.52-1.07 7.67 1.93 11.19 3.69.76.38 1.5 2.53 1.11 3.15a7.81 7.81 0 0 1-3.57 2.75 25.2 25.2 0 0 1-5 1l.24 1.75 17.2-1.84h.05l.15 1-1.43.42-2 .45c-13.82 3.79-27.23 2.33-40.26-3.3-5.88-2.54-6.07-2.68-4.6-9 .91-3.46 2.63-6.75 3.94-10.13zM239 491l1.59 1.66.66-.73-1.81-1.39a37.14 37.14 0 0 0-1.45-4.2c-.28-.59-1.1-.92-1.68-1.37-.45.6-1.21 1.16-1.3 1.8-.44 2.97 1.11 4.23 3.99 4.23zm26.74-105.18l1.83 5.12c-2.54 1.84-1.6 4.31-1.18 6.66l4.21 22.85a17.28 17.28 0 0 0 1.7 3.73 30.43 30.43 0 0 0 3.17-3.67c.44-.68.17-1.8.28-2.72.77-6-1.34-11.34-3.22-16.78a46.05 46.05 0 0 1 3.94 6.28 10.64 10.64 0 0 0 4.5 5.28c3.68 2.29 6.8 5.51 10.15 8.33l-.81 1.07a14.15 14.15 0 0 1-2-.77c-4.93-2.78-5.13-2.77-9.45.72l-9.65 7.8c-2.84 2.37-6.08 3.51-9.65 2.61a8.22 8.22 0 0 1-4.06-2.81c-1.43-1.78-.65-3.24 1.55-3.82a9.24 9.24 0 0 1 1.37-.2c7.36-.74 8.54-1.66 8.94-8.92.2-3.62-.64-7.3-1-10.95 0 0-.25-.12-.29-.08a5.56 5.56 0 0 0-.42.54c-2-5.43-2-5.43-7.79-4.6a7 7 0 0 1-1 .09c-2.51-.07-3.39 1.45-3.69 3.66-.76 5.53 1.54 10.4 9.26 10.12-2.51 3.12-6 4.16-9.75 4.62l-3.12-2.9c-.32-3.53-.75-7.05-.93-10.58-.28-5.18 1.09-9.66 5.36-13.15a11.88 11.88 0 0 0 3.57-5.38 8.54 8.54 0 0 1 6.4-6l.34 1.91 1.32 1.51a3.82 3.82 0 0 0 .12.43zm-13.41 55.77c5.63-.63 7.27.54 9.26 6.42.94 2.81 2.28 5.35 6.28 6.06l-6 12.56c-.2.42-.64.75-.74 1.17-.81 3.47-2.93 4.58-6.47 4.5-2.85-.06-5.53 1-5.66-3.54-.06-2-2.3-2.3-3.89-.67s-3 3.17-4.63 4.61c-.32.28-1.23-.09-1.87-.16a20.13 20.13 0 0 1 9.73-11.54c6.27-3.4 6.61-4.49 4.56-11.29l-.59-2c0-.23 0-.47-.05-.71z" class="D"/><path d="M318.35 268.27l1.32 2.39-.38.44a24.33 24.33 0 0 1-3-2.8c-3.6-4.72-7.3-8.92-13.64-10.41-4-.95-7.47-3.93-11.41-5.37a43 43 0 0 0-9.91-1.81c-1.21-.14-2.52.63-3.78 1 1-2.86 3.52-4 7-3.87 10.33.37 18.88 4.65 26.34 11.5l1.22 1.43 1.44 1.48.09.07 1.26 1.26.08.09 1.22 1.66v.24l.22.07z" class="E"/><path d="M431.72 521.31q-2.27-10.24-4.54-20.49c0-.11-.09-.24-.06-.34 1.18-3.72 2.33-7.44 3.68-11.1a4 4 0 0 1 2.72.46 46.15 46.15 0 0 1 3.94 4.73l.39 5.57c-.84.46-2.25.78-2.41 1.42-1.16 4.52-2.13 9.09-3 13.67-.44 2-.5 4.05-.72 6.08zM429 308.21l-1.25-.7-4.7 9.4 1.14-9.62c.27-2.41-.65-3.87-3.14-4.56-3.66-1-7.23-2.35-10.84-3.55l9.47-5.06L418 293c5-.12 6.93 1.27 8.24 5.79l2.76 9.42z" class="D"/><path d="M431.72 521.31l.69-6.08c.9-4.58 1.87-9.15 3-13.67.16-.64 1.57-1 2.41-1.42l-.06 1.19-.57 4.51q-1.35 6.44-2.72 12.88l-.21 1.11-1.52 3.76-.72-.19z" class="E"/><path d="M401.9 519.86l-5.54-4.09a7.22 7.22 0 0 1-1.22-2.23 10.21 10.21 0 0 1 2.62-1.19 3.65 3.65 0 0 1 2.26.71 481.28 481.28 0 0 1 11 7.75c.3.22.38.75 1.08 2.18l-9-2.39z" class="D"/><path d="M434.5 518.72q1.37-6.44 2.72-12.88a2.66 2.66 0 0 0 .55.16c.03 4.53.05 9.06-3.27 12.72zm-49.61 17.1l-.67-10.12q.34 5.07.67 10.12zm1.34 20.96l-.53-10.2.53 10.2z" class="F"/><path d="M437.77 506a2.66 2.66 0 0 1-.55-.16l.57-4.51-.02 4.67z" class="D"/><path d="M428.71,475.28l2.67-3.13Z" class="F"/><path d="M312.13 260.75l-1.22-1.43z" class="D"/><path d="M290 495l1.56-.56zm-11.67 2.57l2-.45z" class="F"/><path d="M431.73 311.54l-1-1.25 1 1.25z" class="D"/><path d="M385.57,544.17l-.09-1.23Z" class="F"/><path d="M316.43 265.63l-.22-.08.01-.24.26.05-.05.27z" class="D"/><path d="M281.73,496.7l-.15-1,.57.9-.2.1Z" class="F"/><path d="M430.13 309.64l-.57-.65zM313.66 262.3l-.09-.07.12-.06-.03.13zm1.34 1.35l-.08-.09.13-.03-.05.12z" class="D"/><path d="M252.26 447c0 .24 0 .48.05.71zM286 495.84h.12z" class="F"/><path d="M362.82 500.65c5.18-2.76 10.31-5.62 15.59-8.19 1.27-.62 3-.24 4.55-.32l-1.07 4.05a132.86 132.86 0 0 1-1.55 4.92c-4.45.46-8.89 1.09-13.35 1.28-1.36.05-2.78-1.13-4.17-1.74zm17.75.99l.5.75zm.55.84l.54.77zm-35.45-150.81c5.73-1.08 9.16-5.57 13.33-9 .95-.78 1.94-1.52 2.9-2.28-1 4.94-2.18 9.86-3 14.83-.2 1.16.55 2.48.87 3.73l2.76-2.18c.6-.5 1.14-1.07 2.1-2 1.31 3.06 4.87 4.49 4.11 8.44-.12.6.85 1.48 1.43 2.14a63.26 63.26 0 0 1 4.57 5.15 3.9 3.9 0 0 1 .42 3.4c-1.68 2.88-.53 5.08 1.57 6.68 2.45 1.88 3 4.23 3 7l-.1 11.82c0 .66.75 1.37 1.27 2 3.4 3.78 3.2 5.48.81 10-2.69 5-4.26 10.67-7.08 15.61-1.93 3.36-5.13 6-7.91 8.84a3.23 3.23 0 0 1-2.49-1.12c-.89-2.49-2.72-2-4.28-1.41-1.25.44-3.27 1.72-3.17 2.35a6.29 6.29 0 0 0 2.49 3.8 68.92 68.92 0 0 0 7.75 3.88 18.56 18.56 0 0 1 2.09-3.2c1.8-2 3.82-3.74 5.76-5.59a9.6 9.6 0 0 0 1.49-1.34c2.5-3.73 3.21-3.85 6.89-.87a5.75 5.75 0 0 1-.57 1.17c-3.28 4-3.17 4.59 1.46 7 .82.43 1.71.7 2.57 1 2.23.89 2.33 2.05.85 3.93-1.69 2.13-2.78 4.77-4.59 6.76a6.84 6.84 0 0 1-4.58 1.87c-.61 0-1.66-2.39-1.76-3.75-.14-1.8.65-3.66.66-5.49a14.92 14.92 0 0 0-1-3.74 34.85 34.85 0 0 0-3.46 1.57c-.57.32-.87 1.08-1.39 1.53-2.25 1.93-2.44 3.7.12 5.59a8.6 8.6 0 0 1 2.27 3.26c-5.72-1.12-9.13 3.07-13.17 5.7l-1.12-1.14c1.08-2 2.28-3.93 3.2-6a26.61 26.61 0 0 0 1.12-4.3c-1.49-.17-3-.66-4.47-.42s-2.67 1.35-4.09 1.8a7 7 0 0 1-2.59-.19 14.49 14.49 0 0 1 .47-2.48c.18-.52.78-.87 1.05-1.37.61-1.13 1.13-2.3 1.69-3.46-1.39-.27-2.84-.93-4.17-.73-4.57.68-4.8 1.23-3.47 5.78a7.5 7.5 0 0 1 .23 1.64l-12.24 2.63-.36-1.06a63.81 63.81 0 0 0 5.84-3.83c.94-.76 2.19-2.52 1.88-3.14a6 6 0 0 0-3.39-2.85c-1.89-.55-4-.34-6.1-.46.14-.6.12-.87.25-1l2.84-3c-1.23-.46-2.44-1-3.7-1.36-2.2-.62-4.44-1.09-6.64-1.69-.39-.11-1-.54-1-.83-.11-4.8-2.88-3-5.47-2.45-.95.21-2.16-.74-3.25-1.16a16.41 16.41 0 0 1 2.45-3.53c1.16-1 4-1.78 3.93-2.13-.59-2.48-1.17-5.47-2.89-7s-2.39-2.55-2.47-4.71c-.1-2.91-.77-5.8-.58-8.92 2.15 2.93 4.63 5.51 5.06 9.34.13 1.11 1.18 2.12 1.81 3.17 1-1.25 3-2.82 2.71-3.71-1-3.49.74-5.11 2.63-7.67 1.48-2 .3-5.95.3-9.53-2.27 1.89-3.88 3.33-5.61 4.61a2.42 2.42 0 0 1-1.91.19c-.31-.09-.63-.95-.56-1.41l2-12.83c.06-.38.45-.71 1.07-1.63 2 4.3 4.75 4 7.94 1.89 2-1.31 2.06-2.55 1.16-4.65a13.11 13.11 0 0 1-1-6.12c.09-1 1.77-2 2.79-2.87.2-.19.67-.08 1-.13 6.08-.85 6.08-.85 6.67 5.49.27 3 3.82 5.2 6.25 3.63.74-.48.86-2.56.63-3.8-.69-3.7-1.69-7.35-2.57-11.05a6.58 6.58 0 0 1-2.43 1.63c-2 .47-4.54 1.25-6 .42a133.71 133.71 0 0 1-14-9.32c-.71-.51-1.1-2.88-.64-3.29 1-.86 2.9-1.73 3.87-1.31a136.29 136.29 0 0 1 13.7 6.93c1.77 1 3 2.15 4.72.14 2.23-2.64 2.3-4.88.14-6.54-.6-.45-1.13-.88-1.67-1.3zm11.41 61.11c-.2 4.93 3.78 5.87 7.65 6.92l-.45.93-8.74 1.73c.27 3.27 1.58 4.35 5.24 4.36a36.36 36.36 0 0 1 6.76.45c3.45.66 5.87-.53 6.33-4 .2-1.5-.64-3.12-1-4.86-.44.35-.85.5-.91.74-1.32 5.11-1.32 5.11-6.32 5.08h0c1.94-3 4.2-5.93 5.75-9.16 1.79-3.76 1.63-7.35-.78-11.37-3.29-5.48-6.54-10.24-13.5-11.05-.93-.11-2-1.51-2.41-2.54a2.79 2.79 0 0 1 1.27-2.49 4.3 4.3 0 0 1 3.19.69c2 1.36 4.12.43 4.14-1.05 0-1.7-1.58-3.64-2.92-5a3.91 3.91 0 0 0-3.59-.66 17.49 17.49 0 0 0-5.54 4.07c-1.86 2.18-3.84 3.1-6.64 2.69-2-.28-3.72.07-4 2.69.4.3.74.6 1.12.85 4 2.7 4 3 2.41 7.44a6.13 6.13 0 0 0 .37 4.22c2.13 4.49 6.23 5.86 10.82 6.25zm6.59-36.87c1.17 1.09 2.82 3.33 3.41 3.07 2.05-.87 3.74-2.61 5.56-4-1.2-1.39-2.16-3.52-3.64-4-2.12-.64-4.74 2.19-5.33 4.93zm1.53-9.74l-.77-.69-9 6.55a5.52 5.52 0 0 0-1.93 1.91 8.59 8.59 0 0 0-.19 2.85c.94-.12 2.15.08 2.75-.43q3.94-3.35 7.55-7.06a11.5 11.5 0 0 0 1.59-3.13zm9.42 23.08c.5-.74 2.19-2.09 2.15-3.39-.11-3.16-3.4-2.33-5.35-3.15a4.92 4.92 0 0 0-1.38 2.46c-.04 2.19.47 4.21 4.58 4.08z" class="D"/><path d="M258.3 436c2.36-.3 3.92-1 5.09-.56A76.65 76.65 0 0 1 274 440c2.83 1.51 5.23 3.83 8.07 5.31 1.13.59 3 .15 4.34-.39.37-.15.31-2.55-.25-3.51-1.43-2.5-.66-4.16 1.43-5.61a9.26 9.26 0 0 1 14 4.52c.26.69.4 1.9 0 2.22a3.63 3.63 0 0 1-2.48.57c-2.4-.18-4.79-.76-7.18-.77s-2.6 1.14-1.58 3.23c1.28 2.64 2 5.53 3.18 8.24a8.17 8.17 0 0 0 2.22 3.31 48.42 48.42 0 0 0 5.93 3.55c2.83 1.57 4.65.84 5.38-2.35.66-2.92 1.12-5.9 1.54-8.88.52-3.64 2.9-5.25 6.37-3.95a12.51 12.51 0 0 1 3.74 2.44c2.72 2.42 2.45 3.36-.7 5.35a21.57 21.57 0 0 0-3.52 3.5c1.21 1.09 2.25 2.66 3.67 3.17 3.55 1.26 7.27 2 10.92 3a4.23 4.23 0 0 1 2.46 1.72 29.49 29.49 0 0 0-3.2 1.4c-2.25 1.3-4.72 2.42-6.5 4.21-.86.87-1 3.51-.26 4.59s2.85 1.44 4.38 1.49 2.88-.76 4.33-1.15c3.07-.81 5.34.88 5.12 4 0 .64-1.17 1.6-1.91 1.72-3.62.6-7.27 1-10.92 1.41-3.92.4-5.09-.82-5.59-4.71a50.55 50.55 0 0 0-2-9.09c-1-3.25-3.32-4.16-6.81-3.49a14.46 14.46 0 0 1-3.71-.1c-6.89-.57-13.74-1.53-20.57.84a6.64 6.64 0 0 1-5.25-.87c-1.62-1.17-2.55-1.47-4.15-.22-2 1.53-4.33 3.83-6.65 1.31-2.09-2.26-.82-5 1-7.22 1.91-2.42 3.89-4.81 5.57-7.38a3.66 3.66 0 0 0-.2-3.05 3.54 3.54 0 0 0-2.33-1.37c-6.12-1.06-8.89-6.09-13.59-10.99zm35.7-49.2c-.57-2.94-.7-5.56 3.37-6 .57-.06 1.45-1.36 1.44-2.08l-.48-20.7v-4.6l-1.89-10.51c-.14-.72-.61-1.92-.39-2.06a3.4 3.4 0 0 1 2.44-.6c2.42.71 4.73 1.83 7.16 2.5a13.33 13.33 0 0 0 3.77-.09 16.84 16.84 0 0 0-1.56-3.12c-2.35-3-5.61-5.73-2.15-10v-.07c7.24-.67 11.88 3 15.41 8.89 1.79 3 1.77 5.65-.25 8.31-3.53 4.65-3.45 6.22.78 10.21a17.14 17.14 0 0 1 2 1.87c1.64 2.15 1 3.68-1.65 4.06a14.93 14.93 0 0 1-2.76.1c-6.48-.26-9.56 4.44-12.49 9-.59.91.4 3.42 1.36 4.64 1.47 1.87 3.61 3.19 5.35 4.87 1.22 1.18 2.26 2.76.31 4-.5.32-2.05-.84-3-1.46a11.2 11.2 0 0 1-1.66-1.7c-3.29 3.4-5.59 6.89-4.75 11.71a6 6 0 0 1-.16 3.08 13.78 13.78 0 0 1-2 2.88c-.81-.7-1.91-1.26-2.37-2.15-.94-1.83-1.36-3.92-2.32-5.73a44.07 44.07 0 0 0-3.42-4.83c-.03-.15-.04-.29-.09-.42zm105.52 64.34c1.26 3 2.34 5.28.11 8.81-3.5 5.51-6 11.7-8.56 17.76-1.44 3.39.71 6.6 4.3 5.88 4.5-.89 8.71-3.26 13.09-4.88a32.32 32.32 0 0 1 4.3-1 18.62 18.62 0 0 1 .26 4.38c-.46 2.74-2.14 4.33-5 5.05-1.32.33-2.32 1.93-3.47 3 1.11.88 2.15 1.87 3.34 2.64 4.5 2.92 9.44 5.32 13.47 8.79 4.53 3.9 3.35 10.23-1.8 13.45-2.53 1.58-5.35.91-6.08-2.09a30.08 30.08 0 0 1-.63-9.88c.26-2.76-.28-3.83-3.09-3.94-2.4-.1-4.77-.84-7.17-.91-2.61-.09-5.25.47-7.86.37a28.91 28.91 0 0 1-5.32-1.2c.4-1.42.51-3 1.27-4.23 2.41-3.74 1.64-6.45-2.23-8.71a34.1 34.1 0 0 1-6.74-5.36 3.68 3.68 0 0 1-.14-3.51c1.61-2.51 3.69-4.73 5.51-7.13 2.66-3.5 2.63-4.88 0-8.23-2.42-3.07-2.27-4.92.51-7.89 1.68-1.79 2.77-1.26 3.52.78.23.64.15 1.41.43 2s.77 1.63 1.32 1.75 1.38-.56 1.88-1.09c1.26-1.34 2.38-2.81 3.61-4.18.16-.22.58-.23 1.17-.43z"/><path d="M367.54 333.25l-5 1-9.74 2.42-.3-1.29a9.13 9.13 0 0 1 2.24-.5c5.14.16 8.73-1.73 9.88-7.11a7.54 7.54 0 0 1 1-2.2c2.26-3.66 1.89-7.27-.2-10.81-2.65-4.48-2.18-11.34 1.51-15 6.85-6.84 15.53-8.85 24.62-7 4.59.93 8.69 4.26 13 6.53.92.49 1.78 1.07 2.67 1.61-.1.2-.15.51-.32.6-8.34 4.41-12.67 12.18-16.85 20.08a11.39 11.39 0 0 1-1.22 1.45c-.78-1-1.82-1.73-2-2.65-1.05-4.81-1.81-9.67-2.85-14.48-.25-1.13-1-2.75-1.89-3-3.39-1.1-10.13 1.64-12.34 4.52-2.07 2.7-2.25 5.15-.36 8.22 3.86 6.2 2.97 12.99-1.85 17.61zm45.11-.89l-2 9.35c-.65 3.11.15 4.74 3.45 6.56 4 2.19 6.32.74 9.23-1a16.1 16.1 0 0 1 2.22-.9 73.67 73.67 0 0 1 2.34 7.15A12.27 12.27 0 0 1 425 365c-1.58 1.79-2.19 4.56-2.9 7-.88 3-1.42 6.06-2.1 9.1l-.75-6.41c-.38-3-2.25-3.7-4.89-3.07-1 .24-1.92.65-2.88 1-.35-.83-.46-2-1.08-2.42-4-2.74-5.59-7-7.24-11.17-2.05-5.14-4.09-10.3-5.81-15.55-1.07-3.24-.24-5.79 3.59-6.91s7.81-2.79 11.71-4.21zM298.37 353.4v4.6c-.89 3.77-2.11 7.51-2.6 11.34-1.16 9.07-6.85 13.69-16.61 13.06-7.28-.47-12.56-6.73-12-15 .36-4.94.7-10.15 4.44-14.14-.22 1.47-.35 2.95-.69 4.39-1.15 4.9-1.88 9.76.37 14.57 1.7 3.67 4.81 4.11 7.67 1.3 4.08-4 5-9.24 5.91-14.46l4.18-22.78a6.1 6.1 0 0 1 2.2-2.83c2-1.69 4.26-3.07 6.18-4.83 4.66-4.27 6.19-4.47 12.21-1l-4 1.95v.07c-3.36-.48-4.29 1.75-4.37 4.35-.1 2.88-1.47 3.83-4.12 3.73a10.69 10.69 0 0 0-4.09.26 5.05 5.05 0 0 0-2.7 2.54 29.55 29.55 0 0 0-1.23 6c-.27 1.71.24 3.2 2.29 2.89 3.59-.57 5.47 1.33 6.96 3.99z" class="D"/><path d="M230 389.29a38.67 38.67 0 0 0-4.66-2.79c-2.56-1.09-4-2.41-3.13-5.54.57-2.07.31-4.36.49-6.55.31-3.66 4.49-8 8.06-8.45 5.05-.61 7.67 2.1 6.82 7.16l-3.71 21.06c-.37 2.1-.37 4.39-1.25 6.25-.58 1.21-2.45 1.81-3.74 2.68l-2.13-3.32a21.56 21.56 0 0 0-2.16-3c-2.11-2.18-2-3.38.74-4.63 1.15-.54 2.32-1 3.47-1.57.2-.09.3-.33 1.2-1.3z"/><path d="M311.49 327.5a12.23 12.23 0 0 1 8-6.34c4.73-1.26 4.6-6.36 6.22-10.08.13 0 .45-.14.56 0l19.47 18.44a5.72 5.72 0 0 1 1.35 3.75c0 .64-1.33 1.6-2.21 1.83-.5.13-1.35-.9-1.95-1.51a33.08 33.08 0 0 1-2.73-3.07c-1.58-2.08-3.06-4.24-4.62-6.34-.57-.77-1.22-1.48-1.84-2.21l-1 .2-.71 6.19-2.92-4.08-.95 16.14-1.07.27c-4.39-5.43-8.84-10.69-15.6-13.19z" class="D"/><path d="M377.4 356.31l-7.2-11.25c.27-1.49.22-4.09.85-4.27 3.11-.88 3.37-2.88 3.22-5.51-.06-1 .54-2.13 1.11-4.21 2.09 2.31 4.08 3.82 5.12 5.82 3.46 6.69 8.95 11.21 15.13 15.1l-2.28 4.95-1.24 1.12-.88.93c-7.05 4-7.05 4-12.74-1.87a8.11 8.11 0 0 0-1.09-.81z" class="E"/><path d="M415.7 436.47c1.33 2.14 2.75 1.36 3.81-.12s1.88-3.42 2.87-5.1c1.51-2.56 3.25-4.14 6.44-2.1 1 .63 2.56.3 3.87.42 0-1.29.29-2.67-.09-3.83a61.43 61.43 0 0 0-2.71-6.25c-.14-.32-.49-.59-.51-.9l-.4-7.25c1.48 0 3.27-.54 4.39.09 2.64 1.48 4.71 3.33 3.95 7.21-.48 2.5.22 5.39 1 7.94 1.54 5.26 1.25 5.36-3.58 7.18-5.91 2.24-12.48 3.71-16.07 9.94-.3.5-2 .5-2.92.27a20.87 20.87 0 0 1-4.23-1.72c-1.26-.63-3.51-1.55-3.45-2.14.23-2.15.49-4.84 3.74-4.86 1 0 2.08.07 3.11.1z"/><path d="M395.63 352c-6.18-3.89-11.67-8.41-15.13-15.1-1-2-3-3.51-5.12-5.82-.57 2.08-1.17 3.16-1.11 4.21.15 2.63-.11 4.63-3.22 5.51-.63.18-.58 2.78-.85 4.27-2.87-4.18-2.54-5.37.92-9.12 1.25-1.37 1.62-3.68 2.09-5.63 1-4.32 3.58-5.81 6.86-2.92 5.34 4.7 11.34 9 13.65 16.37.45 1.41 1.51 2.65 1.86 4.07a18.61 18.61 0 0 1 .05 4.16z" class="D"/><path d="M220.33 358.75c2.61-2.21 5-4.83 7.87-6.54a100.78 100.78 0 0 1 14.19-6.86c1.36-.54 3.43.73 5.17 1.17-2.73 3.64-5.12 7.21-7.94 10.4a6.73 6.73 0 0 1-4.55 1.7c-3.61.06-6.73.48-9.17 3.69-1 1.33-3.2 1.7-4.73 2.71a30.24 30.24 0 0 0-3.27 2.84l-1.61.53h-4.59z" class="E"/><path d="M413.59,384.21q-4.3,8.82-8.61,17.65c-.25.5-.56,1.3-1,1.37-3.53.59-3.39,3.08-3.64,5.87-.38,4.3-4,5.44-8.9,3,1-5.84,3.67-10.37,9.54-12.7.76-.3,1.36-1.78,1.48-2.78.37-3.19.37-6.42.74-9.6.28-2.34,1.6-3.56,4.21-3.68,1.1,0,2.14-1.49,3.21-2.3Z" class="D"/><path d="M265.74 385.82a3.82 3.82 0 0 1-.21-.46l-1.32-1.51-.34-1.91c-.59-2.75-2.35-2.36-4.23-1.54l-5.32 2.43c-2 .81-3.14-.15-3.6-2-.42-1.67-1.05-3.47-.78-5.07a4 4 0 0 1 2.74-2.66c4.36-.12 7-2.43 9.06-5.91.52-.87 1.67-1.36 2.53-2 .42 1 1.23 2 1.19 2.92-.19 4.85 1.65 8.91 4.12 12.94.88 1.44.56 3.61.78 5.45z"/><path d="M377.4 356.31a8.11 8.11 0 0 1 1.09.81c5.69 5.86 5.69 5.86 12.74 1.87-.92 6 1.67 9.67 7.19 10.56l.85 13.3c0 .71-.78 1.46-1.2 2.18a49.65 49.65 0 0 0-1.41-6.69c-.44-1.28-1.56-3.1-2.59-3.26a8.27 8.27 0 0 1-6.26-3.72c-1.31-2-2.39-1.32-2.94.72l-5.14-6.27a5.33 5.33 0 0 1-.93-2.12c-.52-2.45-.94-4.92-1.4-7.38z" class="D"/><path d="M427.78 374.31c2.42-1.54 4.1-.59 4.7 1.86 1 4.12 1.71 8.32 2.47 12.5.42 2.26.73 4.54 1.06 6.81s1.43 3.32 3.63 4c1.15.37 1.89 2.23 2.59 3.53.1.2-1 1.53-1.62 1.54-3.33.06-7.8-4.73-9.8-7-4.19-4.83-.84-10.42-2.64-15.34a23.17 23.17 0 0 1-.71-3.35l.32-4.55z"/><path d="M272.53 401c1.88 5.44 4 10.83 3.22 16.78-.11.92.16 2-.28 2.72a30.43 30.43 0 0 1-3.17 3.67 17.28 17.28 0 0 1-1.7-3.73l-4.21-22.85c-.42-2.35-1.36-4.82 1.18-6.66Q270 396 272.53 401z" class="E"/><path d="M393 322.55c.16-4.73 3.51-7 6.62-9 2.69-1.74 10.29 2.95 10 6.12-.37 3.82-3.87 5.23-6.79 6.7-2.48 1.25-5.35 3.08-8 .72-1.16-.95-1.3-2.99-1.83-4.54z"/><path d="M262.34 415.36c-7.72.28-10-4.59-9.26-10.12.3-2.21 1.18-3.73 3.69-3.66a7 7 0 0 0 1-.09c5.79-.83 5.79-.83 7.79 4.6a11.58 11.58 0 0 1-3.22 9.27z" class="E"/><path d="M449.31 399.53l-3.77-7.09c-1.21-2.07-3.11-3.87-3.8-6.08-1.68-5.34-2.81-10.84-4.17-16.28l-4.12-16.35c1 1.8 2.18 3.18 2.68 4.76l7.09 23.43c.64 2 1.33 4.59 2.87 5.73 4.16 3.08 4.26 7.36 4.61 11.72z" class="D"/><path d="M384.87 372.08c.55-2 1.63-2.7 2.94-.72a8.27 8.27 0 0 0 6.26 3.72c1 .16 2.15 2 2.59 3.26a49.65 49.65 0 0 1 1.41 6.69l-3.9 4.22C390.7 389.18 389 387 388 384c0-.49-.05-1-.08-1.47 2.67-.79 3-2.19 1.18-4.26-1.1-1.27-2.1-2.68-3.1-4.03z" class="E"/><path d="M415.7 436.47l-.81-1.12q-2.34-3.8-4.7-7.59c-1-1.56-1-2.69 1-3.45s4.06-2.26 6.23-2.65a5 5 0 0 1 4 1.82c.54.73-.33 2.6-.75 3.9a25.78 25.78 0 0 1-1.9 4.68 47.78 47.78 0 0 1-3.07 4.41z" class="D"/><path d="M417.91 469.05c-2.66-2.14-4.77-3.52-6.45-5.32a4.43 4.43 0 0 1-.72-3.63 40.19 40.19 0 0 1 2.72-6.35c1-2.08 2.26-2.7 3.73-.4l4.56 7.35a2.72 2.72 0 0 1 .25 2.3c-1.37 2.28-3 4.45-4.09 6.05zm-52.38 18.63l-10.25 9.31a2.28 2.28 0 0 1-2.18-.15c-1.5-2.76-3.25-5.52-4-8.51-.53-2.15 1.48-3.46 3.65-2.5 3.91 1.73 7.73 3.05 11.93.18zm-25.25-11.78c.77-1.56 1.05-3.24 2-3.86a41.85 41.85 0 0 1 8.81-4.56c2.39-.83 3.64.9 2.27 3.1a70.22 70.22 0 0 1-6.82 9.09c-.7.8-3.06 1.33-3.61.83-1.21-1.12-1.77-2.96-2.65-4.6z"/><path d="M413.59 384.21l-2.92-3.21c-.17-2.85-2.16-5.87.8-8.41l2.89-1c2.64-.63 4.51.07 4.89 3.07l.75 6.41z" class="E"/><path d="M294 386.8v.4c1.1 3.72 2.3 7.42 3.24 11.18.3 1.17.33 3.31-.28 3.64a27.66 27.66 0 0 1-6.41 2.09 6.25 6.25 0 0 1-.7-2.25q0-6.17.32-12.34a26.58 26.58 0 0 1 .61-3.51zm133.78-12.49l-.32 4.54-2.91 13.12c-.44 1.87-1.11 3.69-1.76 5.81-3.08-1.5-3.22-3.92-2.63-6.24 1.53-6 3.3-11.94 5-17.89a17 17 0 0 1 1.44-2.65zM388 384c1 3 2.66 5.16 6.13 5.23l-2.34 4c-1.4-2.33-2.25-2.33-4.4.53l4.14-.31-1.82 5.77c-.25.87 0 2.06-.53 2.64a10.77 10.77 0 0 1-2.9 1.73c-.39-.94-1.23-1.95-1.11-2.81.83-5.61 1.9-11.18 2.83-16.78zm17.21 48.94c-.19 2 .07 3.29-.47 4a34.07 34.07 0 0 1-4.08 3.87l-2.53-2.94c-1.77-2.25-2.24-4.68.29-6.52a9.15 9.15 0 0 1 5.24-1.79c.66-.01 1.25 2.67 1.55 3.38zM347 495.62l-12.24-9c-.36-.28-.12-2.17.05-2.2 1.9-.37 4.81-1.4 5.59-.55 2.72 3 4.74 6.62 6.94 10.06.21.33-.18 1.07-.34 1.69zm29.92-4.8l-6 3.47a67.49 67.49 0 0 1-6.49 3.22c-.66.28-1.65-.27-2.5-.44a19 19 0 0 1 .6-2.5 2 2 0 0 1 1-.95c3.43-1.56 6.85-3.15 10.35-4.51.76-.3 1.87.31 2.81.5.05.39.14.81.23 1.21zM326 379.25c-2.53-4.08-2-7.93 1.38-10.59a7.72 7.72 0 0 1-1.38 10.59zM307.59 406a12.9 12.9 0 0 1 6.6 5.89c.29.47-.43 2.07-1.07 2.42a2.71 2.71 0 0 1-2.62-.46c-1.51-2.2-2.71-4.62-4-7zm95.35 12.59a13 13 0 0 1-.51 2.91 28.61 28.61 0 0 1-1.94 2.85c-1.08-.91-2.55-1.61-3.13-2.77-.85-1.67 1.69-5.18 3.57-4.93.88.12 1.59 1.5 2.01 1.94zm-18.79 17.65a32.86 32.86 0 0 1 3.85-3.42c.18-.12 2 1.34 1.92 1.89-.28 1.84.23 4.58-2.7 4.66-.81.02-1.66-1.63-3.07-3.13zm6.33-17.5c1.18 1.55 2.64 2.73 2.43 3.33-.54 1.55-1.81 2.85-2.78 4.24-.91-1.46-2.12-2.83-2.56-4.42-.16-.58 1.49-1.67 2.91-3.15zm-4.48-44.5l3.19 4.05c1.8 2.07 1.49 3.47-1.18 4.26zm-174.3-5.81h4.59l-6.69 3.14-.69-1.18zM329 436.74l1 .85c-.26.27-.56.8-.79.77s-.66-.45-.88-.78c-.08-.07.31-.45.67-.84zm63.11-78.68l1.24-1.12zm39.94 165.34l.72.19-.32.47zM272.34 350.56l-.39.61zm73.23-51.62a6.29 6.29 0 0 1 1.43-2.34c.32-.26 1.73.89 2.68 1.32a47.12 47.12 0 0 0 5.58 2.4c4 1.23 6.24 3.54 6.06 6.54-.15 2.52-1.33 3.59-3.88 2.76a51.77 51.77 0 0 0-5.28-1.61c-6.01-1.26-6.72-2.07-6.59-9.07z" class="D"/><g class="E"><path d="M239 491c-2.83 0-4.38-1.29-4-4.23.09-.64.85-1.2 1.3-1.8.58.45 1.4.78 1.68 1.37a37.14 37.14 0 0 1 1.45 4.2l-.43.46z"/><path d="M239.39 490.57l1.81 1.43-.66.73L239 491l.39-.43z"/></g><path d="M264.21,383.85l1.32,1.51Z" class="F"/><path d="M365.6 424.15c5 0 5 0 6.32-5.08.06-.24.47-.39.91-.74.4 1.74 1.24 3.36 1 4.86-.46 3.45-2.88 4.64-6.33 4a36.36 36.36 0 0 0-6.76-.45c-3.66 0-5-1.09-5.24-4.36l8.74-1.73.45-.93c-3.87-1.05-7.85-2-7.65-6.92 1 .47 2 1.39 3 1.32a29.32 29.32 0 0 0 5.26-1.31l-2.44-3.33c-.19-.24-.59-.31-.89-.46l-1.37-.52-3.54-.16-.65-.55-.31.56-.77 1.35c-4.59-.39-8.69-1.76-10.82-6.25a6.13 6.13 0 0 1-.37-4.22c1.58-4.4 1.59-4.74-2.41-7.44-.38-.25-.72-.55-1.12-.85.24-2.62 2-3 4-2.69 2.8.41 4.78-.51 6.64-2.69a17.49 17.49 0 0 1 5.54-4.07 3.91 3.91 0 0 1 3.59.66c1.34 1.4 2.94 3.34 2.92 5 0 1.48-2.14 2.41-4.14 1.05a4.3 4.3 0 0 0-3.19-.69 2.79 2.79 0 0 0-1.27 2.49c.37 1 1.48 2.43 2.41 2.54 7 .81 10.21 5.57 13.5 11.05 2.41 4 2.57 7.61.78 11.37-1.55 3.23-3.81 6.12-5.75 9.16zm-1.93-48.24c.59-2.74 3.21-5.57 5.33-4.93 1.48.46 2.44 2.59 3.64 4-1.82 1.41-3.51 3.15-5.56 4-.59.26-2.24-1.98-3.41-3.07z" class="E"/><path d="M362 409c.3.15.7.22.89.46l2.44 3.33a29.32 29.32 0 0 1-5.33 1.31c-1 .07-2-.85-3-1.32l-1.75-3.1.77-1.35h1l3.54.16z" class="F"/><path d="M365.2 366.17a11.5 11.5 0 0 1-1.58 3.13q-3.6 3.7-7.55 7.06c-.6.51-1.81.31-2.75.43a8.59 8.59 0 0 1 .19-2.85 5.52 5.52 0 0 1 1.93-1.91l9-6.55zm9.42 23.08c-4.11.13-4.66-1.89-4.58-4.08a4.92 4.92 0 0 1 1.38-2.46c1.95.82 5.24 0 5.35 3.15.04 1.3-1.65 2.65-2.15 3.39z" class="E"/><path d="M298.37,353.4c-1.49-2.66-3.35-4.56-6.84-4-2,.31-2.56-1.18-2.29-2.89a29.55,29.55,0,0,1,1.23-6,5.05,5.05,0,0,1,2.7-2.54,10.69,10.69,0,0,1,4.09-.26c2.65.1,4-.85,4.12-3.73.08-2.6,1-4.83,4.37-4.35-3.46,4.23-.2,7,2.15,10a16.84,16.84,0,0,1,1.56,3.12,13.33,13.33,0,0,1-3.77.09c-2.43-.67-4.74-1.79-7.16-2.5a3.4,3.4,0,0,0-2.44.6c-.22.14.25,1.34.39,2.06Z" class="F"/><path d="M391.57,393.44l-4.14.31c2.15-2.86,3-2.86,4.4-.53Z" class="E"/><path d="M357.06 408.32h-1l.31-.56zm4.94.68l-1.37-.52zm3.6 15.15h0z" class="D"/></svg>