<svg xmlns="http://www.w3.org/2000/svg" viewBox="0 0 720 720" xmlns:v="https://vecta.io/nano"><style><![CDATA[.D{fill:#9d2c43}.E{fill:#640f1e}.F{fill:#da877e}]]></style><path d="M0 0h720v720H0z"/><path d="M355.88 720l4.22-51.11c1.18-22.84 1.62-45.71 2.24-68.57a152 152 0 0 0-.49-15.24c-.12-1.73-1.13-3.4-1.73-5.09-.2-3.75 2.73-5.46 4.81-8.16a23.92 23.92 0 0 1 2.05 2.46 164.17 164.17 0 0 0 20.93 28.31 29.27 29.27 0 0 1 2.55 3.64c-.67 2.59-1.83 5.16-1.93 7.77-.39 9.91-.16 19.85-.68 29.76l-3.47 54.93-1.21 18a16.24 16.24 0 0 0 .49 3.34z" class="D"/><path d="M390.46 606.24a29.27 29.27 0 0 0-2.55-3.64A164.17 164.17 0 0 1 367 574.29a23.92 23.92 0 0 0-2.05-2.46c-2.08 2.7-5 4.41-4.81 8.16-3 2.48-6.38 4.63-8.94 7.5a131.14 131.14 0 0 1-27.77 23.72c-2.72 1.72-5.52 3.62-8.56 4.49-9.29 2.65-18.49 5.61-27.93 7.9-10.23 2.48-15.71-3.18-22-8.19-7.68-6.15-14.9-13-19.49-21.88a79.13 79.13 0 0 1-7.06-18.59 126.39 126.39 0 0 1-3-24c-.35-11.48 1.71-22.77 4.94-33.82a27.32 27.32 0 0 0 .36-4.68l-3.84 3c-7.22 6.47-14.13 13.33-21.7 19.35a64.93 64.93 0 0 1-25.82 12.18c-6.5 1.51-13.36 1.67-19.45-2.37a4.83 4.83 0 0 0-2.19-1c-6.8-.28-7.85-5.44-8.93-10.48-2.6-12.19-.49-23.83 4.35-35.1 2.13-5 4.46-9.86 6.67-14.8.73-1.64 1.34-3.35 2-5l-.57-1.06c-2.3.59-4.77.83-6.87 1.84-14.91 7.15-30.19 13.47-46.15 17.61-13.56 3.52-27.47 4.78-40.28-3.23a10.31 10.31 0 0 1-4-4.82c-4.72-12.79-5-25.95-2.89-39.31 1.23-7.75 1.67-15.64 3.23-23.31.75-3.7 3.22-7.06 5-10.53.57-1.12 1.47-2.08 2.14-3.15 1.1-1.77.92-3.16-1.39-3.54-11-1.72-14.35-10.29-17-19.44a41.44 41.44 0 0 0-2.36-6.83c-3.14-6.37-2.83-12.78-1.37-19.57 3-14 10.54-25.78 17.58-37.82 1.62-2.77 4.05-5.07 5.73-7.8 1-1.59 1.22-3.63 1.8-5.46l3.38 2.77a24.2 24.2 0 0 1-2.12 3.91 148 148 0 0 0-16.36 24.64c-3.81 7.12-7.94 14.06-8 22.47v11.24c9.27-1.47 5.94 6.61 9.41 10.17-4.08 1.09-4.52 4.05-3.44 6.43 1.68 3.7 3.69 7.71 6.7 10.24 3.73 3.15 9 4.67 13.66 2.11 2.56-1.4 4.51-4.45 6-7.16 1.65-3 3.46-5.16 7.11-5 4 .17 8.08.66 12.1.49 6.08-.26 12.29-.32 18.17-1.69 6.42-1.49 12.54-4.33 18.75-6.69 1.82-.7 2.71-2.31 1-3.76a57.1 57.1 0 0 0-7.32-5.07c-8.12-5-16.87-1.65-25.31-1.55-5.59.07-11.13 1.9-16.74 2.52a79.85 79.85 0 0 1-13 .26c-1.28-.07-3.24-1.6-3.46-2.74s1-3.1 2.11-3.94c1.72-1.27 4-1.71 5.88-2.85a26.45 26.45 0 0 0 3.79-3.49c-1.62-.82-3.22-1.69-4.88-2.43-1-.43-2.08-.52-3-1a16.33 16.33 0 0 1-3.53-2.23c-1.29-1.13-3-2.35-3.34-3.8-.28-1.26.79-3.2 1.83-4.3 1.48-1.56 3.49-2.62 5.26-3.92a6.41 6.41 0 0 0 2.59-7.61 65.62 65.62 0 0 1-2.09-9 4.45 4.45 0 0 1 1.37-3.59c2.09-1.52 4.75-2.24 6.83-3.77 3.65-2.7 7.64-2.94 11.88-2.56a23.09 23.09 0 0 0 3.42-.15l13.07-.77c2.78-.1 3.1 1.43 2 3.61-2.34 4.62-4.36 9.43-7.06 13.82-5.47 8.9-1.69 16.47 2.86 24a2.86 2.86 0 0 0 1.79.88l30.51 5.94c4.66.8 9.46.79 14.19 1.14l.2-1.38c-1.33-.27-2.68-.5-4-.83-1.15-.3-2.27-.72-3.4-1.09a16.72 16.72 0 0 1 2.28-3.57c.64-.63 1.95-.51 2.89-.9 3.24-1.34 6.5-2.67 9.65-4.2a19.39 19.39 0 0 0 4-2.81c.82-.71 2.15-2.24 2-2.45a35.56 35.56 0 0 0-5.83-6.67c-3-2.42-3.32-3.9-.08-6.06 2.59-1.72 5.3-3.27 7.94-4.93 4-2.53 7.07-5.72 7.22-11.84-3.23 1.7-6.19 2.74-8.52 4.58-6.32 5-12.17 10.57-18.57 15.43-7.86 5.95-16.53 9.87-26.85 8.69-2.52-.29-3.81-.74-4.41-3.59a17.76 17.76 0 0 1 2.33-13.3c1.4-2.35 2.09-4.53.82-7.44-2.37-5.46-3.16-11.05 1.06-16.31.71-.89.39-2.63.5-4 .62-7.52 1.43-13.9 10.25-16.2 2.76-.72 5.28-2.69 7.65-4.46 1.7-1.27.92-2.77-.87-3.36a69.89 69.89 0 0 0-9-2.46 28.12 28.12 0 0 0-7.16-.26 46.48 46.48 0 0 0-9.58 1.45c-2.25.68-4.11 2.59-6.31 3.56-1.23.54-2.8.28-4.22.39.19-1.51-.11-3.38.68-4.44 1.49-2 3.71-3.4 5.43-5.24a4.51 4.51 0 0 0 1.33-3.08c-.51-3.72 1.48-6.61 5.29-7.48s7.46-2 11.18-2.95c2.49 1.39 5.08 2.62 7.45 4.19l20.1 13.63 1.53.91 2.68 1.22c4.69 3.57 9.52 6.75 15.64 7.39a78.85 78.85 0 0 1 11.22 2c1.24.31 2.15 1.9 3.2 2.91 0 .46-.09.92-.13 1.38-.66 7.13-1.12 14.16 7.51 17.26a2.9 2.9 0 0 1 .8.66 52.18 52.18 0 0 0 18 10.09l1.7.62 7.47 1.24c1.9.37 3.83.61 5.68 1.14 5.93 1.68 11 1 14.86-4.44 2.89-4.08 6.45-7.79 8.71-12.18 2-3.83 1.31-8.45.56-12.7-.66-3.74-1.7-7.41-2.71-11.71l-4.89 10.8C254.91 303.48 244.89 307 234 308c-2.64.26-5.32.09-8 .11 1.61-1.49 3.78-2.69 4.71-4.52 3.26-6.43 5.72-13.31 12.42-17.26a14.76 14.76 0 0 0 2.55-2.34 6.94 6.94 0 0 0 1.76-7.91c-.37-1.05-1-2.46-.62-3.24 1.39-2.76 0-4.81-1-7.16-.54-1.25-.08-2.93-.08-4.42 1 1.77 2.56 3.43 2.94 5.33.65 3.27 2.92 3.85 5.47 4.73 3.44 1.17 6.73 2.76 10.08 4.16A5.08 5.08 0 0 0 265 277c3 3 6 6 9.22 8.81 2 1.77 4.57 4.68 6.58 4.45 6.12-.69 11.09-4.41 15.61-8.54.16-.14.2-.41.3-.62 1.33-2.75 2.27-5.81 4.11-8.17a8.93 8.93 0 0 0 2.3-6.56 5.17 5.17 0 0 1 .37-2.7c1.65-3-.44-3.68-2.46-3.72-3.8-.08-7.6.3-11.4.5l-8.72-1.58c-.12-4.26 1.59-6.85 5.33-8.65a10.69 10.69 0 0 0 3.76-2.88c2.13-2.7 3.87-5.71 6-8.43 1.57-2 3.7-4.23 6.31-2 2.85 2.4 3.69.53 4.82-1.48l2.83-4.94-.41 3.88a11.85 11.85 0 0 0-.9 2c-1.51 6.54-.62 12.9 1.64 19.13-.94 2.58-2.61 5.15-2.64 7.74-.07 4.81-1.66 8.33-5.6 11-.86.58-1.08 2.1-1.59 3.19a31.24 31.24 0 0 0 .26 3.76c1.48 7.8 1.5 7.79-5.48 11.23a2.44 2.44 0 0 0-.51.46c-.9.5-1.85.94-2.7 1.53-5.69 3.88-10.3 8.83-10.43 16-.13 7.32.91 14.65 1.44 22-2.63-2.5-5.87-1.89-8.62-.93-7.69 2.68-15.16.45-22.42-1.1s-14.49 1.09-17.21 8.07c-1.21 3.11-3 6-4.31 9.07-1.83 4.2-3.54 8.46-5.21 12.73-1 2.49-.16 3.83 2.64 4.31 2.59.45 3.53 2.08 1.85 4.54-1.55 2.29-3 4.66-4.64 6.87-1.16 1.55-1.39 3.2.66 3.36a29.76 29.76 0 0 0 8.37-.89c2.95-.64 5.81-1.72 8.7-2.61a30.1 30.1 0 0 1-3.43 2.24l-19.16 8.94a12.23 12.23 0 0 1-14.79-3.34 9.43 9.43 0 0 1-2.39-6.93 388.78 388.78 0 0 0 0-18.39c-.11-5.33 1.49-9.68 6.05-12.77 1.89-1.29 4.48-2.58 5.09-4.41s-1.09-4.14-1.77-6.25c0-.11-.07-.22-.1-.33-1.23-4.16-3.73-4.77-6.7-1.49-2.4 2.65-4.58 5.5-6.89 8.23a40 40 0 0 0-9.26 24.48 32 32 0 0 0 8.37 22.89c1.49 1.69 2.14 4.13 3.17 6.23-.91-.41-2.05-.59-2.69-1.26-2.26-2.38-4.49-2.46-7-.5-1.09.84-2.47 1.32-3.52 2.19-5.52 4.56-10.18 9.06-8 17.68 1.14 4.52 2.69 9.93-.41 14.81-.26.4.89 2.36 1.73 2.66a8.28 8.28 0 0 0 4.74.34c6.06-1.69 12.16-3.37 18-5.63a180 180 0 0 0 18.23-8.29c3.94-2 7.43-4.9 11.22-7.25q7.72-4.79 15.6-9.33c2.69-1.54 5.52-2.83 8.29-4.23l-.39-1.33h-8.64c-1.58-5 .7-8 4.94-10.37a11.17 11.17 0 0 0 3.84-3.8c2-3.18 3.75-6.54 5.5-9.88.72-1.38 1.19-2.9 2.09-5.14l-6 1.32a19.48 19.48 0 0 1 3.31-2.76c8.67-4.57 15.6-11.1 21.59-18.73 2.21-2.82 3.57-5.87 2.37-9.55 1 .68 2.08 1.28 3 2.05l7.52 6.43.59.39 1.43 1 .68.55h0c.16 2.91-2.34 3-4.13 3.87-4.51 2.08-9.16 4-10.23 9.69-3 6.33-4.13 12.95-2.17 19.72 1.33 4.59 3.33 9 5 13.46-1.78-1-3.54-2-5.35-2.86-1.44-.69-3.35-2.12-4.35-1.67a38.87 38.87 0 0 0-9.56 5.74c-4 3.42-7.39 7.5-11.11 11.22-1.13 1.12-2.9 1.73-3.7 3-3.28 5.17-6.18 10.64-6.69 16.83-.18 2.15 1 4.62 2.13 6.63 1.89 3.37 4.44 6.36 6.32 9.72 2.2 3.93 5.4 5.59 9.42 3.51 3.48-1.8 6.53-4.42 9.77-6.68l2.46-1.69c-1 1.78-1.63 3.89-3 5.28-12.76 12.82-28.2 21.82-43.91 30.42-2.6 1.42-3.6 0-3.85-2.45-.39-3.88-.89-7.75-1.1-11.64s-.61-7.76 0-11.49a13.79 13.79 0 0 0-1.77-9.94c-1.86-3.09-5-3.19-7-.17-5.41 8.21-6.48 17-3.36 26.37 1.47 4.4 4.31 7.76 7 11.39 2.07 2.82 4 3.39 7 2.41 11.75-3.84 23.67-7.28 34.4-13.67a19.15 19.15 0 0 0 4.95-4.56c5.91-7.44 11.12-15.55 17.7-22.34 5.07-5.24 3.08-10.91 4.18-16.4l-.9-.44-3.6 3.91a12.06 12.06 0 0 1 .18-3.08c2.52-7.82 5.1-15.62 4-24a28.18 28.18 0 0 1-.06-3.05l7 9.68a4.45 4.45 0 0 0 2.7 1.72c6.1.52 12.21.83 18.32 1.22l15.8-4.45a3.76 3.76 0 0 0 2-1.81 5.31 5.31 0 0 0 .66-3.31 16.17 16.17 0 0 1 2.15-14.15c3.46-5.15 3.26-13.55-.53-18.49-1-1.31-2.66-2.13-4.5-3.56l-.51 5.75c-1.85-2.18-3.35-5.63-5.62-6.26a22.78 22.78 0 0 0-11.82 0c-7 2-10 8.33-12.79 14.42a12.27 12.27 0 0 0-1.21 6c.6 6.28 6.73 11.13 13.26 10.66a9 9 0 0 0 3.93-1.7c3.49-2.31 6.87-4.76 10.3-7.16-1.25 2-2.05 4.58-3.82 5.77-5.78 3.89-11.91 7.26-17.91 10.83-2.94-2.35-5.84-4.77-8.85-7a25 25 0 0 0-3.78-2l.24-3.61a15.9 15.9 0 0 0 1.61-3.59c1.08-6.16 2.1-12.26 5.55-17.72 2.43-3.86 4.19-8.14 6.57-12 1.48-2.41 3.67-4.05 6.93-3.51 2.38.4 4.84.31 7.24.59 5.5.65 8.28-.87 10.78-6A11.25 11.25 0 0 1 333 341c6.22-6.93 4.5-15.41 5.09-23.79l-13.52 8.12a4.45 4.45 0 0 1-1.13.77l-26.11 7.05c-8.19 2.07-8.22 2-10.65-6.19l9.5-8.9c6.7-6 13.72-11.82 11.12-22.49-.53-2.19.79-3.44 3-3.69l14.43 7.12c1.41 1.57 2.76 3.2 4.25 4.68 2.88 2.86 8.28 2.34 10.89-.79 6.34-7.59 7.44-17.09 9.7-26.17 0-.88 0-1.76.07-2.64h-.05 1.09l2.62 3.06c-3.37 3.7-3.34 8-2.61 12.64a69.79 69.79 0 0 1 .39 7.94l-1.67 6.7-4.05 15.61a6.93 6.93 0 0 0-.29 3.71c2 5.34 4.64 10.21 9.4 13.73 5 3.69 10 7.42 12 13.74.45 4.1 1.46 8.25 1.19 12.31a46.44 46.44 0 0 1-2.87 13.34c-1.67 4.35-1.84 6.15 1.53 9.43 1.69 1.63 3.29 3.36 4.92 5-4.25-.85-11.39-8.19-11.88-12.38a6.53 6.53 0 0 1 .44-3c1.5-3.87 3-7.73 4.7-11.52 2.46-5.57 1.69-11.28-2.59-15.44a42.17 42.17 0 0 0-8.45-6.8c-4.28-2.38-6.41-6.16-8.42-10.2-.31-.62-.36-1.46-.82-1.89a14.28 14.28 0 0 0-2.49-1.55 10.41 10.41 0 0 0-1.14 2.29c-.93 4.13-2.19 8.24-2.5 12.43s-2.38 8.56 1.55 12.25a2.84 2.84 0 0 1 0 2.77c-3 3.06-1 5.5.82 7.88 3.08 3.93 5.1 8.12 4.45 13.32a17.49 17.49 0 0 0 .08 6.21c.35 1.37 1.75 3.29 2.9 3.47 3.46.51 7 .2 10.56.41a20.3 20.3 0 0 1 3.94 1c-1.19 1-2.3 2.69-3.57 2.8a31.09 31.09 0 0 0-18.27 8.13c-5.33 4.79-8.26 11.11-11.18 17.58-3.07 6.8-2.94 13.7-2.43 20.7a12.74 12.74 0 0 0 2.58 6.31c3.87 5.09 8.56 9.48 14.5 12 3.51 1.46 7.63 2.72 10.92-.65 6.58-6.72 12-14.19 14.77-23.39 1.18-3.92 3.11-7.61 4.73-11.38 2.14-4.94 3.32-9.87 0-14.78-1.11-1.61-2.17-3.28-3.42-4.79-2.28-2.77-4.68-5.44-7.11-8.24 5.31-1.22 9 1.6 12.52 4.53 4 3.3 5.24 8 6 12.87.15 1 1.1 1.85 1.68 2.77a12.13 12.13 0 0 0 2.24-1.88c1.84-2.49 3.21-5.44 5.4-7.54 2.65-2.53 3.64-4.87 1.66-8.1l12-4.57a80.3 80.3 0 0 1 6.37-5.47c2.09-1.46 2.46-3.26 2.43-5.6-.06-5.37-.09-10.7-2.38-15.7l.38-3.17c.43-.79.83-1.61 1.31-2.38.72-1.16 1.25-2.79 2.31-3.31 1.89-.93 3.33.32 4.6 1.93 2.47 3.13 5.29 5.75 9.8 5.48 2-.12 4.12.31 6.18.33 10.9.13 22 1.57 31.73-5.4 2.1-1.51 3.88-2.87 3.71-5.69-.84-4.27-.85-8.41 1.65-12.23l5.58-8.6 1.12-1.42a2.31 2.31 0 0 1 .25-.61c7.77-3 14.42-7.58 19.38-14.4l.11-.12 1.68-2.38.48-1.11 15.68-5 3.46-.54c1 1.54 1.89 1.46 2.75-.12l4.24-.79-1.75 2.53a3.15 3.15 0 0 0 .33.64 5.21 5.21 0 0 0 .89 1c4.07 3.64 4.48 6.53 1.23 11a34.75 34.75 0 0 1-4.1 4.13c-2.64 2.56-2.84 4.52-.19 6.66a32.33 32.33 0 0 1 9.71 13 15.7 15.7 0 0 1-3-1.42l-15.67-12.11c-.24-.51-.34-1.18-.73-1.51-4.36-3.62-8-7.64-7.26-14.41a12.76 12.76 0 0 0-2.71 1.55c-2.85 3.15-5.76 6.25-8.37 9.59-2 2.58-3.62 5.48-5.37 8.26-1.29 2.05-2.38 4.25-3.81 6.2-2.06 2.81-1 10.13 2 11.08a74 74 0 0 0 10.34 2.55c3.63.61 6.6 2.44 7.83 5.58a19.61 19.61 0 0 1 1 9.38c-.43 3.32-3.86 2-6.06 2.51-3.75.88-5.7 3-4.76 5.95 1.34 4.23 3.11 8.34 4.8 12.46 1.13 2.76 2.72 5.37 3.54 8.21a4.91 4.91 0 0 1-1.37 4.09c-1.36 1.23-3.47 1.57-5.08 2.59a16.3 16.3 0 0 0-2.77 2.85c-8.16-4.88-14.35-11.73-19.48-19.62l-.48-.7-.09-.14c-1.2-2.73-2.3-5.51-3.63-8.18a51.72 51.72 0 0 0-4.51-7.95c-1.23-1.66-2.79-1.19-4.28.52-4.07 4.65-8.44 9.05-12.51 13.7a3.86 3.86 0 0 0-.55 3.41c1 2.18 1.55 4 .66 6.54-1.26 3.49.23 6.08 3.62 7.8 4.17 2.12 8.22 4.5 12.51 6.33 3.27 1.39 6.84 2.09 10.27 3.1l30.2 7.07c5 1.14 5 1.06 6.36-3.59a13.37 13.37 0 0 1 1.46-2.7 58.35 58.35 0 0 0 3.38-6c4.39-10.39 4.41-21 1.47-31.78l-3.57-6.87c-1-2-1.84-4.16-2.75-6.25l23.29-2.75c-1 2.29-3.08 4.73-2.77 6.82.64 4.33-1.52 7-3.72 10-.63.85-1.29 1.67-2.38 3.06 7.91-.28 14.32 2 20.74 4.71 3.6 1.54 7.71 1.89 11.59 2.77l4 .4 3 .24 25.07 1.74c3.74.21 7.68-1.57 11.13 1.37.4.35 1.34.14 2 .08q10.25-.81 20.5-1.66c-.51.55-1.06 1.6-1.54 1.57-6.12-.36-11.81 3.87-18.12 1.63-1-.34-2.22.09-3.64.19-.57 4.93-1.34 9.58-1.53 14.25a5.82 5.82 0 0 0 2.26 4.53c5.23 2.91 7.87 7.26 8.68 13a19 19 0 0 0 4.74 10.1c3 3.48 5 7.85 7.13 12 .59 1.13.07 2.83.06 4.27-1.37-.34-2.76-.65-4.12-1.05a24.43 24.43 0 0 1-2.55-1.09c-.86 6.33 5 8.8 7.08 13.39-1 .19-1.4.3-1.84.35-5.8.7-10.9-3.2-17.11-1.95a13.22 13.22 0 0 1-11.24-3.46 3.57 3.57 0 0 0-5.3-.14c-.55.51-2 .44-2.86.15-3.59-1.22-7.07-2.78-10.7-3.9-2.12-.65-4.49-.87-6 2.05l12.68 4a9.49 9.49 0 0 1 6.62 8.46 2.17 2.17 0 0 1-.73 1.76c-3.07 1.5-6.11 3.31-9.37 4.15-4.64 1.19-5.55 2.44-4 7 .95 2.88 1.51 5.89 2.37 9.34a17.57 17.57 0 0 0-2.07-.52c-4.47-.26-7.34 2-6.79 5.17a17.9 17.9 0 0 1-.2 4.05 19.27 19.27 0 0 1-3.68-1.17c-4.23-2.29-8.1-1.34-9.31 2.79-1.13 3.86-1.6 7.92-2.51 11.85a81.92 81.92 0 0 1-3.07 11.56c-1.32 3.37-2.06 6.42-.76 10a22.79 22.79 0 0 1 1 7.15c.14 6 0 12 .11 17.94a3.54 3.54 0 0 0 1.09 2.64 2.86 2.86 0 0 0 2.72-.53 38.15 38.15 0 0 0 5.07-6.77c1.73-3.23 2.94-6.74 4.39-10.19l4 2.75c-1.46 1.45-3.49 2.65-4.3 4.41-3.27 7.1-6.54 14.08-13.7 18.23a6.45 6.45 0 0 0-1.4 1.53c-2.23 2.6-4.76 2.87-7.61 1.06l-15-9.22c-4.18-2.42-5.43-1.78-6.32 2.92l-4.5 24.16c-3 14.69-8.4 28-19.22 39.17-7.47 7.7-16.32 12.69-25.68 17.11-1.81.86-4.65.53-6.65-.22-5.7-2.14-11.24-4.72-16.78-7.27a31.33 31.33 0 0 1-4.45-3c6.71 2.15 13.56 4 20.09 6.6a10.63 10.63 0 0 0 7.42.59c6.22-1.59 12-4.1 16.7-8.25a84.31 84.31 0 0 0 13.9-15.35 91.82 91.82 0 0 0 9.44-19c2-5.33 2.76-11.16 4-16.78l2.83-13.6c.56-2.93 1-5.89 1.35-8.85.25-1.86 1.2-2.44 2.87-1.73 3.25 1.38 6.42 2.94 9.72 4.19a24 24 0 0 0 4.77.83 33 33 0 0 0-1.9-4.39c-2-3.33-4.59-6.37-6.24-9.86a158.14 158.14 0 0 1-7.99-19.04c-3.14-9.73-5.64-19.67-8.29-29.55-.67-2.53-.86-5.19-1.28-7.79a7.53 7.53 0 0 0-2.54 3.65l-3.82 13.12c-.56 1.88-1.34 3.7-1.79 5.61s-.41 3.77 2.64 3.23c2.47-.44 3.43 1.24 4 3.35a47.85 47.85 0 0 0 2.05 6.48l6.75 15c.44 1 0 2.45 0 3.68a17.17 17.17 0 0 1-3.49-1.72c-2.79-2.24-5.31-4.82-8.2-6.9-1.05-.76-2.85-.46-4.31-.64.2 1.34 0 2.95.67 4 2.39 3.58 4.52 7.39 8.56 9.67 1.09.61 1.26 2.84 1.85 4.33l-3.94.38a4.18 4.18 0 0 0-.85.46c.07 1 .18 2.11.21 3.22 0 2.08.35 4.23-2.23 5.27-2.41 1-4.23 2.34-7-.42-4.58-4.62-11.2-2.25-12.3 4.18-.83 4.82-.88 9.77-1.36 14.65q-.58 6-1.4 12c-1 7.14-1.89 14.3-3.17 21.39-.43 2.4-1.88 4.62-2.86 6.92l-1.13-.24v-11a87.57 87.57 0 0 1-5.78 7.21c-2.9 2.89-6 5.53-9.14 8.19-2.92 2.52-8.2 1.67-10.26-1.49-1.8-2.77-3.68-5.5-5.55-8.22-1.52-2.22-3.21-4.34-4.58-6.65-1-1.62-1.71-2-3.12-.56-3.08 3.19-6.24 6.25-10.15 10.19-1.94-2.29-3.61-4.16-5.17-6.13-2.78-3.53-5.59-7-8.2-10.69-4.47-6.25-9.6-12.09-12.05-19.61-.71-2.18-2-4.15-2.74-6.33-1.1-3.43-2.71-7-2.68-10.43.06-6.3 1.15-12.59 1.84-18.88.13-1.26.66-2.56.45-3.75-.12-.71-1.42-1.82-2-1.72-2.25.35-5.2 4.88-5 7.16a49.81 49.81 0 0 1 .32 7.61c-1 12 3 22.91 6.85 33.89 1 2.81.95 6.31 2.67 8.48 2.94 3.71 6.91 6.6 10.41 9.88a37.62 37.62 0 0 1 2.49 2.85l-.81.94-8.92-2.92a8.73 8.73 0 0 0 3.3 4.35c5.69 3.23 11.51 6.25 17.33 9.26s12.6 4 16.71 9.74c-4-1.6-8.09-3.09-12.05-4.83-11.9-5.22-23-11.69-32.86-20.33a87 87 0 0 0-7.36-5.3zm14-155.26l10.41 7.83c2.69 1.92 5.82 3.31 8.24 5.5 1.89 1.72 3.25 1.79 5.06.4a31.48 31.48 0 0 1 3-2.33c14.19-8.4 19.76-21.82 21.79-37.3.47-4.49.46-8.92-1.1-12.13-2.92-.72-5-.91-6.84-1.76-2.62-1.24-3.78-.5-5.09 2-2.36 4.43-2.1 8.84-1 13.41q-.58 6.76-1.16 13.53a14 14 0 0 0-3.71-.07c-7.58 1.91-15.73 1.09-23 4.69a54.41 54.41 0 0 1-3.71-5.31c-2.07-3.84-3.92-7.79-5.86-11.7l-.17-4.43a9.54 9.54 0 0 1 1.67 2.42 9.59 9.59 0 0 0 12.33 6.24 54.19 54.19 0 0 1 10-2.21c5.51-.7 10.45-4.07 9.71-10.23-.53-4.42-1.44-8.87-1.3-13.29.17-5.61-.78-10.28-6-13.3a2.46 2.46 0 0 1-.79-2c.05-.45.88-1 1.47-1.18 2.83-.94 4.95-3.89 4.68-6.52a14.42 14.42 0 0 0 3.22-1.79c2.23-2.11 4.3-4.4 6.39-6.65.66-.72 1.21-1.54 1.81-2.32-1-.4-1.95-1.13-2.94-1.15-6.7-.1-13.41 0-20.12-.07-6.06 0-6.06-.05-6 6.15v1c0 2.85 1.45 4.27 4.29 4.23s5.79-.21 8.67-.07c.82 0 1.59.94 2.39 1.45-.63.86-1.06 2.13-1.9 2.52-3.92 1.79-8 3.24-11.93 5-5.14 2.3-9.52 5.58-12.34 10.62-1 1.79-1.93 3.61-2.89 5.42l-1.29-4a24 24 0 0 0-3 3 18.92 18.92 0 0 0-1.24 3.21c-.95 2.16-2 4.3-3 6.43a11.68 11.68 0 0 0-1.17 2.08c-1.43 5.84-4.28 11.6-1.3 17.76-1-1.17-2.36-2.2-2.94-3.56-1.33-3.11-2.28-6.39-3.66-10.38l-.65 3c-1.9 7.81-3.07 15.89-5.93 23.34-2.6 6.79-7 12.93-10.68 19.29-2.13 3.67-5 7-6.61 10.85-2.9 6.89 1.55 15.29 8.7 18a77.42 77.42 0 0 1 12.86 5.77c2.39 1.44 4.5 2.5 7.3 2.42a17.06 17.06 0 0 1 4 .84c6.14 1.44 9.61-.25 11.68-4.58 2.17-4.54 3.78-9.08 3.73-14.16v-21.17a9.89 9.89 0 0 1 .58-4.05c.89-1.91.09-2.85-1.14-4.18a58.41 58.41 0 0 1-4.37-6zm-128.24 169.5c.91-1.2 1.14-1.45 1.32-1.75.86-1.43 1.41-3.69 2.62-4.13 2.37-.86 3.92 1 5.11 3.09.39.69 1.82 1 2.82 1.11 8.77 1.3 16.48-3.32 24.79-4.61a6.25 6.25 0 0 0 2.58-1.64c1.94-1.6 3.73-4.52 5.73-4.66 4.54-.32 7-3.64 9.89-5.87a139.53 139.53 0 0 0 17-15.51c2.73-2.92 7.3-6 3.94-11.44-.23-.37 0-1.15.22-1.65 1.26-2.79 2.44-5.64 3.91-8.32s2.72-5.35 1-8.12c-.63-1-3.23-2.09-3.73-1.67-3.9 3.18-8.31 6.19-11 10.27-4.21 6.33-7.05 13.54-10.77 20.22a64.92 64.92 0 0 1-6.87 9.86c-1.63 2-3.72 4.14-6.74 1.44-.37-.33-1.91.5-2.82 1-1.18.6-2.58 2.21-3.36 1.92-4.51-1.66-7.11 1.12-10 3.58a34.24 34.24 0 0 1-7 4.88c-2.27 1.08-3.84-.5-3.36-3 .16-.86 1-1.62 1.1-2.48.32-2.82.81-5.72.4-8.46-.14-1-2.62-1.72-4.13-2.37-1.68-.71-2.34-1.63-1.63-3.48 2.67-6.93 2.81-14-1.2-20.27-2.93-4.54-3.24-9.69-4.54-14.45-1.14-4.17.78-9.17 1.38-13.79.17-1.35 1.06-3 .59-4-2.41-5.09-2.65-10.45-2.71-15.9a6.47 6.47 0 0 0-1.06-3.26c-1.85-2.78-1.7-5.65-.89-8.66.3-1.11.37-2.27.57-3.41l2.52-14.17 3.14-15.17c.27-1.5-.33-3.62-2.45-2-2.65 2-5.43 4.21-7.09 7a66.41 66.41 0 0 0-5.5 12.56c-2.09 6.09-3.74 12.34-5.72 18.47a6.36 6.36 0 0 1-2.13 2.76c-1.67 1.34-3.54 2.42-5.31 3.64-3.12 2.16-6.24 4.69-10.34 3.19-3.08-1.13-4.62-.39-5.12 2.92-.57 3.73-1.35 7.43-2 11.16-.69 4.18-2.11 8.43-1.81 12.55.57 7.75-1 15.65 2.09 23.27 2.7 6.65 4.32 13.74 7 20.39 3.16 7.86 9.81 13.09 15.81 18.63 4.13 3.85 9.03 6.85 13.75 10.33zm176.41-169.77l.64.05a73 73 0 0 0 .05 8c.73 6.48 1.47 13 2.66 19.39 1 5.16 2 10.47 4.1 15.23a31.18 31.18 0 0 0 8 11 17.27 17.27 0 0 0 10.61 3.7c3.88-.07 8.21-9.06 7.51-13.15-.6-3.48-.82-7-1.26-10.53-.56-4.43-.51-9.08-1.91-13.23a72 72 0 0 1-3.73-23.69c0-4.43 1-8.13 3.82-11.47a6.36 6.36 0 0 0 1.68-3.32c.35-5.25-2.58-15.13-9.56-17.25-4.3-1.32-8.53-2.9-12.77-4.43-3.1-1.12-5 .18-5.35 3.54-.41 3.87-1 7.71-1.52 11.58q-1.49 12.29-2.97 24.58zm-114.95 33.76c0-4.83-2.89-5.81-5-7.49-3.34-2.67-7.18-5-9.7-8.34-2.65-3.5-4.22-7.9-5.83-12.07-1.23-3.17-1.58-6.66-2.78-9.85-.32-.85-2.58-1.81-3.45-1.47a20.67 20.67 0 0 0-6.69 4 82.79 82.79 0 0 0-9.82 11.11 33 33 0 0 0-4.18 9.53c-.82 2.7-.63 5.68-1.2 8.48-1.13 5.45.72 10.48 5.4 13.53a35.45 35.45 0 0 1 11.71 12.89c1.91 3.46 4.93 4 8 1.6 1.36-1.07 2.81-2 4.24-3 5.4-3.68 12.63-5.13 15.1-12.4.14-.41.64-.68.87-1.06 1.35-2.13 2.65-4.32 3.33-5.46zm86.81-14.12l-1.93 16.55c-.59 5.44-.89 10.75-1.64 16.08-.52 3.71-1.56 7.36-2.41 11-1.44 6.21.93 10.61 6.91 12.6a26.39 26.39 0 0 0 5 1.19c.74.1 2.07-.31 2.27-.83 1.36-3.41 3.5-6.92 3.45-10.37-.08-5.71 2.32-10.08 4.83-14.75a7.35 7.35 0 0 0 0-5.71c-3.18-6.87-6.84-13.5-10.15-20.3-1.3-2.69-2.75-4.98-6.33-5.46zm-255.74-24.78c-2.58-3-5.25-2.14-7.68-1.65-7.55 1.52-15 3.47-22.62 4.74a52.59 52.59 0 0 1-12.1.24c-3.67-.24-4.34-1.79-2.6-5 1.19-2.23 2.67-4.31 3.8-6.57.42-.85.64-2.66.21-3-3-2-1.23-3.82.21-5.44s1.72-2.87.19-4.49c-1.69-1.81-1.19-3.64.28-5.26 2.52-2.77 5.41-5.25 7.6-8.25 2-2.75 3.29-6 4.76-8.84l-8.28 1.23c-.32 2.93-2.09 5.29-5.88 5.85a3.78 3.78 0 0 0-1.92 1.41c-5.47 6.46-10.1 13.46-9.72 22.29.24 5.73 1.38 11.43 2.29 17.11a3.38 3.38 0 0 0 1.8 2.32c3.16 1 6.44 2.42 9.63 2.31a123.33 123.33 0 0 0 17.71-2.21 119.31 119.31 0 0 0 12.81-3.45c3.01-.91 5.96-2.09 9.51-3.34zM328.66 411c-.26-.22-.53-.43-.8-.64-1.76 1.3-4.05 2.25-5.18 4a39.77 39.77 0 0 0-6.62 23.16c.24 7 2.58 14.23 5.1 20.94 2.75 7.31 8.22 13 14 18.3 2.13 2 4 1.8 6.22.32 1.62-1.1 3.32-2.08 5-3.09 4.8-2.93 10.14-5.25 14.26-8.92 4.4-3.93 7.72-9.08 11.3-13.85.52-.69.09-2.39-.39-3.39-.18-.37-2.1-.44-2.67 0-2.56 2.1-5.51 4.08-7.23 6.79-4.28 6.71-10.61 11-16.78 15.56a3.67 3.67 0 0 1-2.78.28c-8.65-2.55-13.68-8.49-16-17.07a62.8 62.8 0 0 1-2.18-22.26c.47-5.46 1.29-10.66 3.71-15.6a21 21 0 0 0 1.04-4.53zM162.05 539.46l1.49.4c1.54-3.14 4.13-6.19 4.42-9.44a62 62 0 0 1 6-22.4c2.33-4.73 5.39-9.21 4.89-14.89a7.66 7.66 0 0 1 .65-2.31 98.84 98.84 0 0 0 2.61-9.9 11.85 11.85 0 0 0-.69-5.73c-1-2.77-3-3.36-5-1.26-1.61 1.71-2.56 4.13-3.51 6.36l-9.6 23.27c-1.46 3.84-3.13 7.95-3.11 11.94.04 7.99 1.17 15.98 1.85 23.96zm219.19 14.77l1.15-1c-.72-1.16-1.37-2.38-2.18-3.47s-1.85-2-2.68-3.09a127.7 127.7 0 0 1-10.06-14.29c-3.66-6.32-8.29-12.09-10.59-19.16-.92-2.81-1.54-5.72-2.49-8.52a12.93 12.93 0 0 0-2-2.89 16.86 16.86 0 0 0-2 3.21c-.38 1 0 2.37-.34 3.4-3.14 8.64.53 16.16 4.29 23.35 3.43 6.55 7.8 12.61 15 16 4.06 1.85 7.93 4.23 11.9 6.46zm-60.7-144.87c-3.71-2.42-7.31-.61-11.06.06-4.19.75-5.78 3.41-7.08 7a52.36 52.36 0 0 1-4.23 8.09c-1.51 2.62-.81 5 1.89 6.65a34.53 34.53 0 0 1 6.32 4.55c2.27 2.22 3.89 2.29 5.22-.67.88-2 1.09-4.19 1.84-6.22 2.29-6.28 2.59-13.32 7.13-18.75.1-.15-.01-.46-.03-.71zm223 23.65c-1.54-3.39-2.84-6.81-4.57-10-2.68-4.89-5.71-9.5-11.31-11.7-3.17-1.24-5.79-.14-6.38 3.27a8.58 8.58 0 0 0 .24 4.45c2.63 6.62 6.36 12.62 12.27 16.74 2 1.35 4.9 1.55 7.41 1.6.64.02 1.35-2.5 2.31-4.37zm-256 18.4l-.59-.83a24.06 24.06 0 0 0-3.72 1.55l-23.8 15a23.13 23.13 0 0 0-3.55 2.12c-.61.57-.64 1.75-.93 2.66.84.08 1.83.48 2.51.18 3.52-1.56 6.82-.68 10.07.69 5.1 2.14 7.16 1.71 10.22-3 2.88-4.43 5.53-9 8.12-13.62a27.21 27.21 0 0 0 1.67-4.75zM300.81 330c2.1-.59 4-1 5.81-1.68 6.25-2.28 12.53-4.51 18.67-7.08 1.13-.47 2.48-2.52 2.3-3.61-.57-3.57-7.51-6.13-10.89-4.63a53.36 53.36 0 0 0-17.17 12.56 13.81 13.81 0 0 0-1.67 3.11zm186.73 64.2c1.37-.83 3.17-1.38 3.94-2.6.4-.63-.81-2.63-1.7-3.64a69.21 69.21 0 0 0-6.86-6.84c-3.83-3.21-4.39-5.06-2.27-9.56a22.06 22.06 0 0 0 1.4-3.16c.69-2.49-1.24-5.47-3.86-6.15-1.84-.48-5.47 1.7-5.46 3.74a30 30 0 0 0 1.12 9.08c1.47 4.48 3.7 8.7 5.49 13.07 1.2 2.95 4.66 5.47 8.2 6.06zM227.83 519.56l-.58-1c-3 .79-6.41 1-8.95 2.52-3.48 2.14-6.27 5.38-9.41 8.08s-6.49 5.42-9.74 8.12c-.53.44-1.34.76-1.54 1.31a11.89 11.89 0 0 0-.32 2.88 15.39 15.39 0 0 0 2.56-.6c.71-.29 1.25-1.07 2-1.28 10-2.89 16.93-10.12 24.26-16.8.81-.79 1.15-2.15 1.72-3.23zm220.5-23.82c-2.05 3.57 12 21.17 18.22 23.2a60 60 0 0 0-.43-7.19c-.14-.87-1.23-1.72-2.08-2.3-1.05-.74-2.53-.95-3.44-1.79-4.14-3.87-8.14-7.88-12.27-11.92zM530 450.38l-.8 1.24a16 16 0 0 0 3.45 2q16.65 4.61 33.36 9c.82.21 2.51-.18 2.66-.65a7.77 7.77 0 0 0 .13-2.92c-2.54.25-4.49.81-6.33.55-4.41-.62-8.88-1.09-12.61-4.14-1.21-1-3.2-1.06-4.85-1.47l-9.06-2.15z" class="E"/><path d="M280.87 258.89l8.72 1.58c1 2.41 2.57 4.88-1.14 6.56-.46.21-.29 1.56-.71 2.18a33.2 33.2 0 0 1-3.34 4.21c-.6.63-1.68.78-2.39 1.33a12 12 0 0 1-10.4 2.19l-7.4-1.43c-3.35-1.4-6.64-3-10.08-4.16-2.55-.88-4.82-1.46-5.47-4.73-.38-1.9-1.92-3.56-2.94-5.33-.05-.29-.11-.58-.17-.86l-.79-2-6.43-19.8c1.29-1.56 2.71-3 3.84-4.69 2.1-3.1 4.35-5.95 8-7.35s7.42-3.09 11.24-4.28c2.15-.68 2.85-1.52 2.1-3.68a49.3 49.3 0 0 1-1.66-6l-5.69-26.64a2.66 2.66 0 0 1 1.06-2.12l15.55-10.3c-2.71-1.53-5.09-3.8-7.74-4.2-6.56-1-13.25-1.12-19.89-1.52a26.29 26.29 0 0 0-4.13.48l3.34 6.66c2.21 4.41.34 7.35-4.53 7.11l-9.58-.51-4.29-8.1-3.6-4.11a1.7 1.7 0 0 0-.39-.27q-1.08-2.09-2.14-4.17-1.87-3-3.73-6.06a35.28 35.28 0 0 0-1.24-3.85l-14.87-32.79c-.39-.86-.35-2.75.16-3.06 4.18-2.56 8.28-5.69 12.88-7.09 15.53-4.72 30.88-.6 46.18 2.14a3.59 3.59 0 0 1 2 2.87c-1.43 8.26 3.4 13.57 12 13-.52-6.62-1.35-13.24-1.48-19.87-.14-7.38.35-14.77.57-22.15l-.05-4.46-.64-1.68-.75-2.55c0-.09.15-.19.14-.27a2.91 2.91 0 0 0-.15-.58c.25-3.13 2.45-4.69 4.86-6.07l5.57-.92 2.53-.55.95-.25 13.68-.17 1.68.39 3.9 1.19h0l3.28 1.23c.67.39 1.38.75 2 1.19 5.39 3.6 10.89 7.06 16.09 10.93 1.21.91 1.51 3.19 1.91 4.92.11.44-.9 1.56-1.53 1.69-5.05 1-7.83 7.58-5 12.63a14.83 14.83 0 0 0 2-1.79c3.18-4 5.81-8.85 12.32-7.1.35.1.81-.19.48-.1l-4.33-10.6c-1.08-9.55 4.44-16.81 13.8-18.19a45.31 45.31 0 0 0 5.42-1.12c3.86-1.07 7.45-.45 11.17.89a35.28 35.28 0 0 0 9.39 1.89c5.28.36 10.41 2.91 16.68 9.31l2.36-5.75c3.14-7.89 7.46-10.49 15.86-9.62 12.7 1.31 22.28 8.23 30.78 17.1a8.14 8.14 0 0 1 1.12 1.33c2.74 4.65 5.95 5.27 11.16 3.11 5.9-2.44 12.4-2.49 18 1.86a5.78 5.78 0 0 0 2.16 1.08l21.09 4.61c8.05 1.62 12.28 7.77 16.62 13.77 1.74 2.43 2.63 6.16 4.91 7.32s5.68-.77 8.55-.6c5.82.34 11.82.46 17.37 2 6.85 1.91 10 8.14 12.85 14.2a11.56 11.56 0 0 1 1.06 2.93c.86 5 2.68 8.48 8.29 10.5 5.2 1.88 6.84 8.08 9.17 13 1.23 2.58 2.37 5.19 3.56 7.79-.74 1.7-1.84 3.34-2.15 5.11-1.1 6.4-2.72 12.83-8.45 16.34-4.47 2.74-10 3.79-14.93 5.8-1.65.66-3.65 1.61-4.43 3-1.6 2.87-2.49 6.14-3.67 9.25l-7.13 12.9a1.84 1.84 0 0 0 .06 1.59c1.86 2.66 3.81 5.25 5.73 7.87-.18 1.41 0 3-.61 4.21-1.32 2.76-3 5.35-4.53 8l-4.09 11.72-10.8 4.25-13 11.25c-2.68.19-5.46 0-8 .65-3.05.78-4.85.16-6-2.82a46.55 46.55 0 0 0-2.59-5.07l-1.26.16c.16 2.48.14 5 .52 7.43a42.91 42.91 0 0 0 1.62 5.64c.87 2.86-.43 4.09-3.11 5a101.58 101.58 0 0 0-12.78 5.27c-2.13 1.07-3.2 1.05-5-.71-4.18-4.16-7.48-9.57-13.95-10.85-.34-.07-.59-.61-.85-.89.17-.35.22-.7.36-.74l27.43-7.17-4.91-8c-.38-.63-.64-1.34-1-2a6.79 6.79 0 0 1 2.07-.93c2-.12 4.06 0 6.35 0l-.56-3.71c6.51 1.37 13 1.48 19.36-.7 2-.69 4.1-1.15 6.16-1.71l11.74-6.27-.24-1.07c-4.71-1.72-6.68-5-7.31-9.91-.84-6.67-4.21-8.6-10.68-6.65-2.84.85-5.39 2.66-8.38 4.19l-1-4.49c3.22-4.17 7.79-6 12.65-7.34 7.54-.89 15.43-.21 21.68-6.14 3.09-2.93 3.69-5.88.78-9.17-4.66-5.29-10.84-6.3-17.11-2.78l-11.44 6.46c-2.22 1.22-4.38 1.3-6.35-.65a7.81 7.81 0 0 0-2.52-1.81c-4.94-1.91-7.33-5.56-6.92-10.72.34-4.38.31-9.36 5-11.67a91.56 91.56 0 0 1 14.09-5.39c4.56-1.36 4.74-1.21 3.68-5.68-.13-.55 0-1.17-.12-1.72l-4.16-17.76c-.11-.46-.68-.81-.78-.91-1.55 3.87-2.94 7.76-4.66 11.5-.9 1.95-2.55 3.55-3.55 5.47-1.14 2.16-2.41 2.92-4.67 1.55-1.89-1.15-2.94-.45-3.39 1.7-.64 3-1.35 6.07-2.24 9.05-.78 2.56-1.84 5-2.78 7.56l-1.06-.14a16.25 16.25 0 0 0-.6-3.15c-.33-.85-1.33-2.28-1.56-2.2a6.65 6.65 0 0 0-3.19 2.08c-.54.83-.23 2.24-.23 3.39 0 5.26-.58 10.38-3.67 14.88-.88 1.28-1.69 2.61-2.49 3.84.41.44.54.69.73.76a3.67 3.67 0 0 0 1.32.3c5.29-.31 9.75 1.44 14.28 4.27 2.7 1.68 3.11 3 2.49 5.55-.34 1.67-.73 3.34-1 5q-2 11.77-4 23.57c-2.83.47-5.72 1.54-8.48 1.26a31.7 31.7 0 0 1-10.56-2.92c-1.85-.9-2.81-3.56-4.27-5.35s-1.21-3 .83-4.1a91.9 91.9 0 0 0 8.87-5.39 75.82 75.82 0 0 0 6.22-5.52c-3.12-1.17-5.75-1.51-7.4-2.95-1.83-1.61-2.89-1.3-4.79-.47a57.83 57.83 0 0 1-8 2.25l.39-2.61c3.69-5 3.53-6.41-1.06-9.47-.08 0-.11-.19-.16-.29l9.61-10.44a43.28 43.28 0 0 0 3.47-6.22c2.76-7.52 1.62-9.24-6.3-10.18-6.77-.8-11.54 1.37-13.55 6.18q-2.24 5.4-4.48 10.79l-1-5.5c.83-10.55 6.08-18.58 14.25-24.94 4-1.19 8.08-2.29 12.05-3.65a2.78 2.78 0 0 0 1.4-2.31c-1.12-4.92-2.36-9.83-3.87-14.64a4.09 4.09 0 0 0-3-2.08 13.86 13.86 0 0 0-4.71.89c-9.15 2.55-13.76 10.28-19.25 17l-1.73 5.51c-1 1.64-2.33 3.17-2.92 4.94a37.46 37.46 0 0 1-9.64 15.33c-1 1-2.45 1.38-3.69 2a23.55 23.55 0 0 1-1.68-4.67c-.11-.77.84-1.77 1.44-2.56 1.33-1.73 2.86-3.31 4.1-5.1 2.57-3.72-1.46-5.21-2.75-7.61-1.09-2-2.56-1.21-4.13-.52-1.39.62-3.26 1.69-3.93-.83-.84-3.09-1.42-6.25-2.07-9.38-.21-1-.29-2-.42-3l-1.18-.26q-3.5 6.45-7 12.91-2 3.85-3.91 7.71c-.91-.93-2.28-1.71-2.63-2.82-2.14-6.77-.17-12.88 3.45-18.65l5.65-9.14c1.69-2.86.58-4.68-2.64-4.79a121.33 121.33 0 0 1-12.65-.79 10.12 10.12 0 0 1-4.89-2.56c-3.64-3.19-7-6.7-10.61-9.94a4.09 4.09 0 0 0-3.07-.84c-.48.08-1 1.7-.94 2.61a19.08 19.08 0 0 0 .8 5c2 6.41 1.22 8.72-4.35 11.08-3.76-9.22 1.29-18 1.14-27.49-3 4-6.24 6.67-5.27 12.56 1.05 6.32.81 12.83-3.9 18.93-2.94 3.82-5.09 7.12-10.1 7.06-4.44 0-8.89-.37-13.33-.72-.66-.06-1.3-.89-1.86-1.45-2.1-2.14-4.06-4.45-6.29-6.44-1.36-1.21-3-3-5-.8-.54.6.42 8.28.91 9 2.89 4 6.15 7.8 8.49 12.09 2.22 4.08.19 6.83-4.5 6.42-2.5-.21-3.73 1-5.36 2.34-2.67 2.24-5.63 4.14-8.47 6.18-4 2.88-9.11 4.72-9.63 10.85-.21 2.59-.26 6-1.83 7.54-5.38 5.46-10.86 11.2-19.75 10.48-1.43-.12-3 1.31-4.49 2 .64 1.26 1 2.83 2 3.7a70.06 70.06 0 0 0 6.41 4.63l10 5.2c-.15 2.24-1.13 3.17-3.38 2.17-1.46-.65-3-1.15-4.4-1.91-3.89-2.12-5.05-1.68-5.84 2.65-.57 3.11-.39 6.45-1.46 9.34a64.51 64.51 0 0 1-5.57 10.63c-1.5 2.49-3.76 4.19-6.9 3.71-3.84-.59-7.65-1.4-11.47-2.11l-.8-.55.83.52c.31.46.53 1.08 1 1.37 7.43 4.81 15.2 8.59 24.07 9.81zm11.35-100.21l1-.15c-1-2.68-1.62-5.59-3.08-8a122 122 0 0 0-8.65-12.3c-1.44-1.82-4-2.62-5.81-.81-.88.9-.51 3.32-.24 5 .22 1.3 1.41 2.42 1.72 3.73 1.68 7.16 3.51 14.3 4.68 21.55.62 3.81 1.92 5.71 5.89 6.16 3.67.42 4.38.29 4.5-3.4.1-3.93-.01-7.86-.01-11.78zm22.16-13.15c0-2.7-.11-5.05 0-7.38.21-3.54 1.9-7.77.51-10.42s-5.78-3.66-8.88-5.35a12.89 12.89 0 0 0-2.54-1.07c-3.38-1-5.12.08-5.35 3.61-.19 2.87-.46 5.89.2 8.63s1.79 6 3.83 7.37c3.36 2.19 7.62 2.97 12.23 4.61zM438.86 94l-20.65 34.36 1.25 1.19c1.74-1.37 3.85-2.46 5.12-4.17a39.5 39.5 0 0 0 4-7.64L438.86 94zm80.49 55.8c-3.36 5.2-4.07 11.15-5.22 17.45l5.73-.44c-4.23-6.06-1.8-11.48-.51-17.03zm-80.65-4.11c1-3.23 2-5.92 2.73-8.67a2.43 2.43 0 0 0-.91-2.17 11.5 11.5 0 0 0-4-.5 2.48 2.48 0 0 0-.51 1.79c.79 3.05 1.71 6.08 2.69 9.53z" class="F"/><path d="M517.63 252.65l10.81-4.25c6.44-1.71 12.33.06 17.9 3.12 3.08 1.69 5-.32 5.84-2.28.58-1.3-.51-4.81-1.51-5.1-3.77-1.12-7.32-3.79-11.72-2.3-3.62 1.22-4.62.41-5.4-3.48a5.86 5.86 0 0 0-1-1.68c1.53-2.66 3.21-5.25 4.53-8 .58-1.22.43-2.8.61-4.21 1.61-1.94 2.92-4.32 4.9-5.74 4.38-3.14 3.88-7.48 4.12-11.94.16-2.89-1.41-4.11-3.33-4.93-1.2-.5-2.88.13-4.35.25 1.18-3.11 2.07-6.38 3.67-9.25.78-1.41 2.78-2.36 4.43-3 5-2 10.46-3.06 14.93-5.8 5.73-3.51 7.35-9.94 8.45-16.34.31-1.77 1.41-3.41 2.15-5.11 7.36 1.21 15 1.37 21.41 6 4 2.91 7.82 6 11.64 9.17 3.39 2.77 6.52 5.89 10.06 8.46 5.81 4.22 6.45 7.9 1.86 13.55-2.52 3.11-2.5 5.24.55 7.7 3.55 2.86 5.46 11.55 3.33 15.51-2.74 5.1-2.09 6 3.54 7 9.63 1.73 17.16 7 23.69 14 6.21 6.61 11.55 13.8 15 22.29a10.08 10.08 0 0 0 3 3.73c2.13 1.76 2.22 3.57.87 5.76a29.07 29.07 0 0 1-12.2 10.94c-3.11 1.54-6.05 3.42-9.07 5.15.3-1.43 1.16-3 .8-4.27a43.25 43.25 0 0 0-11.43-19.86c-8.49-8.2-17.84-14.33-30.16-14.14-1.35 0-3.73.75-3.86 1.47-.93 5.15-5.42 7.31-8.42 10.68-1.08 1.21-2 2.15-.65 3.81s.77 2.87-1.09 3.82a20.65 20.65 0 0 0-4.33 2.82c-2.08 1.82-1.51 3.63.73 5.11a8.78 8.78 0 0 1 3.25 4.31c1.3 4 2.08 8.21 3.17 12.3.55 2.08 1.3 4.11 1.84 5.79-3.24 4.81-7.89 5.09-12.68 4.24a55.79 55.79 0 0 1-8.29-2.46c-2.43-.83-4.4-1.23-4.39 2.41 0 .63-.88 1.23-1.26 1.9-1.19 2.06-2.19 4.24-3.51 6.21-2 3 .13 4.66 1.65 6.68a4.1 4.1 0 0 1 .65 2.27c0 2 1.1 2.74 2.89 2.51 4.09-.53 8.24-.87 12.26-1.79 12.07-2.77 22.72-8.93 33.65-14.43 2.35-1.18 4.49-2.17 2.11-5.48 3.32-1.5 6.44-2.69 9.35-4.27 5.26-2.85 10.39-5.93 15.58-8.92-.42 1.9-1.33 3.86-1.13 5.69.29 2.55-.39 3.71-2.86 4l-13 1.84c-2.31.38-5 .48-5.52 3.69s1.54 4.53 4 5.67c10.11 4.67 19.72 10.23 27.7 18.08A84.77 84.77 0 0 1 675 365.71c3.91 11.81 4 23.86 2.7 36-.42 3.95-.14 7.45 1.79 11a108.26 108.26 0 0 1 12.69 43.53c.26 3.33.06 6.69.27 10 .59 9.38-5.54 14.85-11.67 20.34l-1.92 1.25-.2.11-1.16.69a1.43 1.43 0 0 1-.63.24 17.49 17.49 0 0 0-11.14 6.69l-.13.14a27.39 27.39 0 0 0-5.39 1.2c-7.21 3.14-14.58 5.5-22.53 5.62-3.37 0-6.62 0-9.22-2.85a20.2 20.2 0 0 0-5.37-3.86c-1.91-1.05-4.07-1.65-6.08-2.52l-17.43-7.51a4.78 4.78 0 0 0-.45 1.12 3 3 0 0 0 .08 1.37 46.17 46.17 0 0 1 2.77 19.41c-.58 8.13-.07 16.35-1 24.42a72.88 72.88 0 0 1-4.75 19.68c-3.48 8.29-4.08 8-12.13 4.85a2.13 2.13 0 0 1-.32-.26l-2.41-1.13-3.85-2.36-1.26-.86-5.75-3.43a.25.25 0 0 0-.28-.18l-1.85-.67-4-2.75c-1.45 3.45-2.66 7-4.39 10.19a38.15 38.15 0 0 1-5.07 6.83 2.86 2.86 0 0 1-2.72.53 3.54 3.54 0 0 1-1.09-2.64l-.11-17.94a22.79 22.79 0 0 0-1-7.15c-1.3-3.58-.56-6.63.76-10a81.92 81.92 0 0 0 3.07-11.56c.91-3.93 1.38-8 2.51-11.85 1.21-4.13 5.08-5.08 9.31-2.79a19.27 19.27 0 0 0 3.68 1.17 17.9 17.9 0 0 0 .2-4.05c-.55-3.15 2.32-5.43 6.79-5.17a17.57 17.57 0 0 1 2.07.52c-.86-3.45-1.42-6.46-2.37-9.34-1.5-4.58-.59-5.83 4-7 3.26-.84 6.3-2.65 9.37-4.15a2.17 2.17 0 0 0 .73-1.76 9.49 9.49 0 0 0-6.62-8.46l-12.68-4c1.48-2.92 3.85-2.7 6-2.05 3.63 1.12 7.11 2.68 10.7 3.9.87.29 2.31.36 2.86-.15a3.57 3.57 0 0 1 5.3.14 13.22 13.22 0 0 0 11.24 3.46c6.21-1.25 11.31 2.65 17.11 1.95.44-.05.88-.16 1.84-.35-2.06-4.59-7.94-7.06-7.08-13.39a24.43 24.43 0 0 0 2.55 1.09c1.36.4 2.75.71 4.12 1.05 0-1.44.53-3.14-.06-4.27-2.13-4.15-4.14-8.52-7.13-12a19 19 0 0 1-4.74-10.1c-.81-5.74-3.45-10.09-8.68-13a5.82 5.82 0 0 1-2.26-4.53c.19-4.67 1-9.32 1.53-14.25 1.42-.1 2.67-.53 3.64-.19 6.31 2.24 12-2 18.12-1.63.48 0 1-1 1.54-1.57 7.46-1.45 14.89-3.78 22.4-4.06 5.53-.2 5.65-2.66 6.24-6.66a39.76 39.76 0 0 0-1.26-18.12 76.59 76.59 0 0 0-12.67-24.12c-2.64-3.4-5.07-7.17-10.22-8.35a15 15 0 0 0 0 3.18c.68 2.88-.49 4.49-3.26 5a35.57 35.57 0 0 1-5.14.64c-2.89.12-5.79-.07-8.68.12s-4.05 2.28-2.55 4.85a15.39 15.39 0 0 0 2.23 2.63l14.63 15.6c2 2.22 3.1 4.74.58 7.71s-4.74 2.78-7.58 1c-1.63-1-3.28-1.63-5 .11s-3 1.27-3.65-1.1c-.34-1.23-.94-2.39-1.15-3.63-1.63-9.29-6.34-16.93-12.69-23.64-1.16-1.23-2.93-1.89-4.52-2.88-.39.9-.64 1.21-.64 1.51a11.2 11.2 0 0 0 .25 1.71c1 5.3 2.33 10.57 2.81 15.92.26 2.78-.86 5.75-1.62 8.56-.49 1.76-1.59 3.33-2.21 5.06-2.15 6-4.25 6.74-9.39 3.13-2.88-2-5.6-4.25-8.78-6.69v3.62c-2.55.71-5.69.2-6.37 3.8-.53 2.8-2.41 4.21-5.16 4.94-3.2.84-4.35 5.16-2.36 8-3.88-.88-8-1.23-11.59-2.77-6.42-2.73-12.83-5-20.74-4.71l2.38-3.06c2.2-3 4.36-5.67 3.72-10-.31-2.09 1.77-4.53 2.77-6.82 3.41-.91 6.8-2 10.26-2.68 2.81-.56 5.5-.76 5.59-4.63 0-1 .9-2.08 1.42-3.1 5.39-10.48 4.09-22.7-5.53-31.11-.63-.55-1.75-.55-2.64-.8a24.94 24.94 0 0 0-.74 2.79c-.3 1.79-.07 3.81-.83 5.36-2.28 4.66-3.74 9.32-2.69 14.61a65.56 65.56 0 0 1 .63 8.06c-4.2.81-6.33-2.67-9.37-3.83a32.33 32.33 0 0 0-9.71-13c-2.65-2.14-2.45-4.1.19-6.66a34.75 34.75 0 0 0 4.1-4.13c3.25-4.44 2.84-7.33-1.23-11a5.21 5.21 0 0 1-.89-1 3.15 3.15 0 0 1-.33-.64l1.75-2.53a10 10 0 0 0 2.66.44c2.1-.19 4.84.14 6.15-1 7.24-6.59 14.13-13.59 21.17-20.41a24.54 24.54 0 0 1 4.43-3.75c1.84-1.08 2.65-1.65 1-3.84-2.68-3.55-.89-8.28 2.9-10.34 3.63-2 6.87-4.63 10.35-6.89a57.38 57.38 0 0 1 7.07-4.19c9-4.16 16.93-9.42 21.39-18.81a7 7 0 0 1 3.94-3.28c8.21-2.35 15.38-15 10.12-23.62a37.88 37.88 0 0 0-9.45-10.34c-8.15-6.1-17.77-8.15-27.82-8.08-4.32 0-8.86.47-11.43 4.52-1.49 2.35-2.08 5.31-2.81 8.07-.47 1.78-1.08 2.85-3.15 2.94s-4.32.31-3.78 3.54c.09.54-.91 1.47-1.6 1.91l-12.35 7.59c-3.85 2.39-3.88 7.2.16 9a21.27 21.27 0 0 0 13.66 1.27l10.09-2.56c5.08-1.25 8.56 2 7.72 7.28-.43 2.74-1.13 5.46-1.3 8.21-.44 7.28-3.18 12.39-11.22 13.06-.11 0-.21.1-.32.12-5.06 1.25-10.22 3.25-14.46-1.87a1.43 1.43 0 0 0-.6-.34l-3.09-1a12.39 12.39 0 0 0 .06 3.11c.87 3.22 0 5.52-2.56 6.16-5.44 1.37-6.23 2.9-4 8.22 1.16 2.85 2.51 5.62 3.77 8.43l-.46 1.18q-10.87-1.18-21.75-2.38c-.16 0-.29-.32-.44-.5-.36-1.19-.78-2.37-1-3.59-.54-2.56-.38-5.48-1.59-7.65a19.46 19.46 0 0 1-2.01-14.63zm91.76-68.83l.44 2 .55-.22-1-1.76c-1-.49-2-1.41-3-1.37-3.44.12-6.87.54-10.29.93a14.87 14.87 0 0 0-2.55.76l.29 1.18zm-465.18 78.36c-3.72 1-7.42 2.09-11.18 2.95s-5.8 3.76-5.29 7.48a4.51 4.51 0 0 1-1.33 3.08c-1.72 1.84-3.94 3.26-5.43 5.24-.79 1.06-.49 2.93-.68 4.44 1.42-.11 3 .15 4.22-.39 2.2-1 4.06-2.88 6.31-3.56a46.48 46.48 0 0 1 9.58-1.45 28.12 28.12 0 0 1 7.16.26 69.89 69.89 0 0 1 9 2.46c1.79.59 2.57 2.09.87 3.36-2.37 1.77-4.89 3.74-7.65 4.46-8.82 2.3-9.63 8.68-10.25 16.2-.11 1.35.21 3.09-.5 4-4.22 5.26-3.43 10.85-1.06 16.31 1.27 2.91.58 5.09-.82 7.44a17.76 17.76 0 0 0-2.33 13.3c.6 2.85 1.89 3.3 4.41 3.59 10.32 1.18 19-2.74 26.85-8.69 6.4-4.86 12.25-10.45 18.57-15.43 2.33-1.84 5.29-2.88 8.52-4.58-.15 6.12-3.19 9.31-7.22 11.84-2.64 1.66-5.35 3.21-7.94 4.93-3.24 2.16-3 3.64.08 6.06a35.56 35.56 0 0 1 5.83 6.67c.16.21-1.17 1.74-2 2.45a19.39 19.39 0 0 1-4 2.81c-3.15 1.53-6.41 2.86-9.65 4.2-.94.39-2.25.27-2.89.9a16.72 16.72 0 0 0-2.28 3.57c1.13.37 2.25.79 3.4 1.09 1.31.33 2.66.56 4 .83l-.2 1.38c-4.73-.35-9.53-.34-14.19-1.14-10.21-1.75-20.35-3.91-30.51-5.94a2.86 2.86 0 0 1-1.79-.88c-4.55-7.55-8.33-15.12-2.86-24 2.7-4.39 4.72-9.2 7.06-13.82 1.11-2.18.79-3.71-2-3.61-4.36.16-8.72.51-13.07.77a23.09 23.09 0 0 1-3.42.15c-4.24-.38-8.23-.14-11.88 2.56-2.08 1.53-4.74 2.25-6.83 3.77a4.45 4.45 0 0 0-1.37 3.59 65.62 65.62 0 0 0 2.09 9 6.41 6.41 0 0 1-2.54 7.6c-1.77 1.3-3.78 2.36-5.26 3.92-1 1.1-2.11 3-1.83 4.3.33 1.45 2 2.67 3.34 3.8a16.33 16.33 0 0 0 3.53 2.23c.94.47 2.06.56 3 1 1.66.74 3.26 1.61 4.88 2.43a26.45 26.45 0 0 1-3.79 3.49c-1.85 1.14-4.16 1.58-5.88 2.85-1.14.84-2.34 2.77-2.11 3.94s2.18 2.67 3.46 2.74a79.85 79.85 0 0 0 13-.26c5.61-.62 11.15-2.45 16.74-2.52 8.44-.1 17.19-3.44 25.31 1.55a57.1 57.1 0 0 1 7.32 5.07c1.68 1.45.79 3.06-1 3.76-6.21 2.36-12.33 5.2-18.75 6.69-5.88 1.37-12.09 1.43-18.17 1.69-4 .17-8.07-.32-12.1-.49-3.65-.15-5.46 2-7.11 5-1.47 2.71-3.42 5.76-6 7.16-4.68 2.56-9.93 1-13.66-2.11-3-2.53-5-6.54-6.7-10.24-1.08-2.38-.64-5.34 3.44-6.43-3.47-3.56-.14-11.64-9.41-10.17v-11.24c.06-8.41 4.19-15.35 8-22.47a148 148 0 0 1 16.36-24.64 24.2 24.2 0 0 0 2.12-3.91l-3.38-2.77-.22-.14-4.64-2.66-.73-.35c-1.37-.82-2.69-1.77-4.13-2.45-3.86-1.83-4.32-3-2.56-6.9A67.67 67.67 0 0 1 90.5 275c3.88-3.24 8-6.22 11.83-9.48 1.56-1.32 2.62-3.22 4.14-4.59 2.77-2.5 2.16-3.8-.77-6-4.64-3.45-9.28-7.23-12.79-11.75s-4.71-10.44-4-16.42c3.85.74 7.94.91 11.5 2.37a49.46 49.46 0 0 1 10.59 6.68c5.21 3.94 10.13 8.27 15.25 12.35l17.96 14.02zm86.02-80.55l9.58.51c4.87.24 6.74-2.7 4.53-7.11l-3.34-6.66a26.29 26.29 0 0 1 4.13-.48c6.64.4 13.33.55 19.89 1.52 2.65.4 5 2.67 7.74 4.2l-15.55 10.3a2.66 2.66 0 0 0-1.06 2.12l5.69 26.64a49.3 49.3 0 0 0 1.66 6c.75 2.16.05 3-2.1 3.68-3.82 1.19-7.5 2.85-11.24 4.28s-5.89 4.25-8 7.35c-1.13 1.66-2.55 3.13-3.84 4.69l6.44 19.8.78 2c.06.28.12.57.17.86 0 1.49-.46 3.17.08 4.42 1 2.35 2.39 4.4 1 7.16-.4.78.25 2.19.62 3.24a6.94 6.94 0 0 1-1.76 7.91 14.76 14.76 0 0 1-2.55 2.34c-6.7 3.95-9.16 10.83-12.42 17.26-.93 1.83-3.1 3-4.71 4.52h-7.19c1.15-2.49 1.79-4.07 2.6-5.56l5.14-9.11c.75-1.38 1-3.09 1.91-4.3 1.95-2.54 1.95-4.86-.15-7.16-1.48-1.62-2.67-3.11-1.4-5.5.26-.51-.66-1.64-1-2.48l3.31-3.58c-4.57-4.75-9-9.63-13.77-14.06-1.2-1.11-3.76-.74-5.69-1 0 1.79-.41 3.78.22 5.33 1 2.43 3.35 4.4 3.95 6.85 1.13 4.55 4.14 6.66 8.07 8.12-6.11 4.05-11.42 8.82-14.19 15.88a19.71 19.71 0 0 1-1.73 2.87c-1.05-1-2-2.6-3.2-2.91a78.85 78.85 0 0 0-11.22-2c-6.12-.64-11-3.82-15.64-7.39 4.27-1.57 8.6-3 12.8-4.76 4-1.67 5.77-5.8 5-10.1-.93-5-3.93-7.61-8.84-8.36-1.66-.26-3.27-.8-5.23-1.29 1.57-6 2.73-11.51 8.65-14.55a4.86 4.86 0 0 0 2-4c-.21-1.57-1.56-3.1-2.71-4.4-.7-.8-2.43-.89-2.84-1.72-1.46-3-2.83-5.76-7-4.28a1.23 1.23 0 0 1-.93-.38l-8.17-8.35c-4.61-4.69-9.11-9.52-13.94-14-1.38-1.28-3.05-1.73-.54-4a37 37 0 0 1-5.38-.7c-1.21-.35-2.81-.93-3.31-1.9-1.92-3.67-5.39-5.22-8.62-7.21-1.12-.69-1.85-2-2.76-3.06a6.1 6.1 0 0 0-4.5-.7c-2.64.56-5.19 1.54-7.77 2.34a33.48 33.48 0 0 1 13-14c4.2-2.51 4.42-3.71 1.54-7.61-5.23-7.11-5.21-7.09.92-13.73 8.93-9.66 20.39-13.93 33.08-15.71 8.17-1.15 16.3-1.79 24.5-.25 2.9.54 3.49-1.17 2.67-3.55l-5.39-15.3c5-3.36 9.95-7 15.25-10.12 2.29-1.33 5.3-1.36 7.95-2.09 11.6-3.21 23.33-3 35.12-1.49 4.08.52 4.58 0 3.43-4-2.75-9.49-1.18-11.6 8.74-11.81 1.62 0 3.24-.34 4.85-.25a4.58 4.58 0 0 0 4.71-2.71c-.22 7.38-.71 14.77-.57 22.15.13 6.63 1 13.25 1.48 19.87-8.61.6-13.44-4.71-12-13a3.59 3.59 0 0 0-2-2.87c-15.3-2.74-30.65-6.86-46.18-2.14-4.6 1.4-8.7 4.53-12.88 7.09-.51.31-.55 2.2-.16 3.06l14.87 32.79a35.28 35.28 0 0 1 1.24 3.85c-1.72-2.83-3.31-5.74-5.18-8.46s-4.15-4.73-8.85-4.5l3.09 9c.88 2.8 3.77 5.47 2 9-4.69-.54-9.4-1.6-14.07-1.47a83 83 0 0 0-16.05 2.2c-6.28 1.44-12.62 3.09-17.52 7.82a2.6 2.6 0 0 1-2.12.63c-2.77-.76-5.51-1.63-8.19-2.66-3.17-1.22-6.26-2.64-10.25-4.34.47 2.44.37 4.52 1.27 6a83.28 83.28 0 0 0 7.49 10.75c6.85 8.17 13.82 16.25 21 24.14 5.59 6.14 11.46 12 17.43 17.81 1.42 1.37 3.76 1.78 5.67 2.64 1.21.54 2.81.78 3.56 1.71 2.83 3.48 5.2 7.35 8.1 10.76 4.49 5.28 8 11.62 15.4 13.85 2.76.84 3.89.37 4.46-2.27a13.6 13.6 0 0 1 .86-3c.83-1.79.2-2.87-1.48-3.56a28.89 28.89 0 0 0-3.55-1.37c-3.59-.94-5.8-3.47-7.73-6.39-1.23-1.86-3.84-4-3.48-5.41.46-1.84 3.41-2.93 5-4.59 3.49-3.55 7.28-4.56 11.9-2.3a14.81 14.81 0 0 0 5 1.24c1.23.11 3.3 0 3.62-.68.59-1.25.77-3.39.05-4.42a29 29 0 0 0-5.47-5.3 15.74 15.74 0 0 0-3.31-1.65l1.14-1.78a39 39 0 0 1 5.26-.41c6.21.35 6.51-.5 9.91-5.36 2.12-3 3.53-5.28 2.08-8.79-.2-.48.23-1.38.61-1.91 1.26-1.8.48-2.85-1.24-3.39-3-.93-6-1.69-9-2.53z" class="D"/><path d="M121.9 190.72l7.77-2.34a6.1 6.1 0 0 1 4.5.7c.91 1 1.64 2.37 2.76 3.06 3.23 2 6.7 3.54 8.62 7.21.5 1 2.1 1.55 3.31 1.9a37 37 0 0 0 5.38.7c-2.51 2.3-.84 2.75.54 4 4.83 4.46 9.33 9.29 13.94 14l8.17 8.35a1.23 1.23 0 0 0 .93.38c4.15-1.48 5.52 1.26 7 4.28.41.83 2.14.92 2.84 1.72 1.15 1.3 2.5 2.83 2.71 4.4a4.86 4.86 0 0 1-2 4c-5.92 3-7.08 8.6-8.65 14.55 2 .49 3.57 1 5.23 1.29 4.91.75 7.91 3.37 8.84 8.36.8 4.3-1 8.43-5 10.1-4.2 1.76-8.53 3.19-12.8 4.76l-2.68-1.22-1.53-.91-20.1-13.63c-2.37-1.57-5-2.8-7.45-4.19l-17.93-14c-5.12-4.08-10-8.41-15.25-12.35a49.46 49.46 0 0 0-10.64-6.65c-3.56-1.46-7.65-1.63-11.5-2.37-.32-2-1.42-4.24-.8-5.86C89.66 216.81 92 213 94 209l.94-.77 1.86-2 .49-.61 1-1.31.65-.61 4.17-3 .15-.12 1.82-1.25a.53.53 0 0 0 .34-.21l2.38-1.24 1.2-.67.55-.38 2.14-1.1 2.65-.93a.42.42 0 0 0 .41-.28l1.42-.69zm25.81 43.54l-.17-.63-6.54 2.43 2.94 6c0 .1.13.24.22.26 1 .27 2.41 1.07 3.09.68 3.29-1.89 6.41-4.07 9.53-6.24a2.14 2.14 0 0 0 .52-1.75c-.06-.32-.89-.72-1.38-.73-2.72-.06-5.47-.02-8.21-.02zm496.44 58.27l-15.58 8.92c-2.91 1.58-6 2.77-9.35 4.27 2.38 3.31.24 4.3-2.11 5.48-10.93 5.5-21.58 11.66-33.65 14.43-4 .92-8.17 1.26-12.26 1.79-1.79.23-2.86-.52-2.89-2.51a4.1 4.1 0 0 0-.65-2.27c-1.52-2-3.62-3.73-1.65-6.68 1.32-2 2.32-4.15 3.51-6.21.38-.67 1.26-1.27 1.26-1.9 0-3.64 2-3.24 4.39-2.41a55.79 55.79 0 0 0 8.29 2.46c4.79.85 9.44.57 12.68-4.24-.54-1.68-1.29-3.71-1.84-5.79-1.09-4.09-1.87-8.28-3.17-12.3a8.78 8.78 0 0 0-3.25-4.31c-2.24-1.48-2.81-3.29-.73-5.11a20.65 20.65 0 0 1 4.33-2.82c1.86-.95 2.46-2.18 1.09-3.82s-.43-2.6.65-3.81c3-3.37 7.49-5.53 8.42-10.68.13-.72 2.51-1.45 3.86-1.47 12.32-.19 21.67 5.94 30.16 14.14a43.25 43.25 0 0 1 11.43 19.86c.36 1.25-.5 2.84-.8 4.27z" class="F"/><path d="M584.06 556.65c8.05 3.18 8.65 3.44 12.13-4.85a72.88 72.88 0 0 0 4.75-19.68c.93-8.07.42-16.29 1-24.42a46.17 46.17 0 0 0-2.77-19.41 3 3 0 0 1-.08-1.37 4.78 4.78 0 0 1 .45-1.12l17.43 7.51c2 .87 4.17 1.47 6.08 2.52a20.2 20.2 0 0 1 5.37 3.86c2.6 2.89 5.85 2.9 9.22 2.85 8-.12 15.32-2.48 22.53-5.62a27.39 27.39 0 0 1 5.39-1.2c-4.19 2-8.24 4.44-12.59 6a51.92 51.92 0 0 1-22.2 2.44c-7.47-.64-15-1.06-22.46-1.53-2.69-.16-4.07 1-3.92 3.9a133 133 0 0 1-4.19 39.14 76.32 76.32 0 0 1-4.51 12.69c-1.71 3.78-4.26 4.18-7.53 1.72-1.42-1.08-2.74-2.28-4.1-3.43zM94 209c-2 3.95-4.36 7.79-5.93 11.91-.62 1.62.48 3.88.8 5.86-.69 6 .46 11.85 4 16.42s8.15 8.3 12.79 11.75c2.93 2.18 3.54 3.48.77 6-1.52 1.37-2.58 3.27-4.14 4.59-3.86 3.26-8 6.24-11.83 9.48a67.67 67.67 0 0 0-18.43 24.31c-1.76 3.88-1.3 5.07 2.56 6.9 1.44.68 2.76 1.63 4.13 2.45-2.59-.91-5.34-1.53-7.68-2.88-.85-.49-1.2-2.85-.9-4.14a40.21 40.21 0 0 1 10.6-19.11c6-6.07 12.21-11.89 18.54-17.58 2.42-2.17 2.57-3.63.66-6.34-3.63-5.15-7.45-10.39-9.87-16.15A40 40 0 0 1 88 216.2c.88-3.1 1.88-6.59 6-7.2z" class="E"/><path d="M331.28 85.18l4.33 10.6c.33-.09-.13.2-.48.1-6.51-1.75-9.13 3.12-12.32 7.12a14.83 14.83 0 0 1-2 1.79c-2.79-5 0-11.63 5-12.63.63-.13 1.64-1.25 1.53-1.69-.4-1.73-.7-4-1.91-4.92-5.2-3.87-10.7-7.33-16.09-10.93-.66-.44-1.37-.8-2-1.19 4.29 2 8.74 3.78 12.81 6.18 3.51 2.07 6.58 4.89 10 7.47z" class="D"/><path d="M665.69 495.58a17.49 17.49 0 0 1 11.14-6.69zM103.08 200.67l-4.17 3c.25-2.55 2.01-3.05 4.17-3z" class="E"/><path d="M281.27,71.56l-5.57.92Z" class="D"/><path d="M79.49 309l4.64 2.64zm34.82-114.23l-2.65.93zm-6.54 3.08l-2.38 1.24zm-10.95 8.38l-1.86 2zm484.51 349.03l2.41 1.13z" class="E"/><path d="M300.11 71l-1.68-.39zM271.6 82l.64 1.68z" class="D"/><path d="M105.05 199.3l-1.82 1.25zm573.77 288.55l1.92-1.25z" class="E"/><path d="M270.84 78.55a2.91 2.91 0 0 1 .15.58c0 .08-.09.18-.14.27-.13-.1-.27-.18-.4-.27zm13.91-7.8l-.95.25z" class="D"/><path d="M98.26 204.31l-1 1.31zM576.22 552l1.26.86zM116.14 193.8l-1.42.69zm561.32 294.85l1.16-.69z" class="E"/><path d="M304.03 72.18l-.02-.01.07-.2-.05.21z" class="D"/><path d="M570.19 548.43a.25.25 0 0 1 .28.18h-.23zM109.52 196.8l-.55.38z" class="E"/><path d="M522.2 278.45c.15.18.28.48.44.5q10.88 1.21 21.75 2.38l.46-1.18-3.77-8.43c-2.18-5.32-1.39-6.85 4-8.22 2.55-.64 3.43-2.94 2.56-6.16a12.39 12.39 0 0 1-.06-3.11l3.09 1a1.43 1.43 0 0 1 .6.34c4.24 5.12 9.4 3.12 14.46 1.87.11 0 .21-.11.32-.12 8-.67 10.78-5.78 11.22-13.06.17-2.75.87-5.47 1.3-8.21.84-5.25-2.64-8.53-7.72-7.28l-10.09 2.56a21.27 21.27 0 0 1-13.66-1.27c-4-1.79-4-6.6-.16-9l12.35-7.59c.69-.44 1.69-1.37 1.6-1.91-.54-3.23 1.71-3.46 3.78-3.54s2.68-1.16 3.15-2.94c.73-2.76 1.32-5.72 2.81-8.07 2.57-4.05 7.11-4.49 11.43-4.52 10-.07 19.67 2 27.82 8.08a37.88 37.88 0 0 1 9.5 10.43c5.26 8.6-1.91 21.27-10.12 23.62a7 7 0 0 0-3.94 3.28c-4.46 9.39-12.38 14.65-21.39 18.81a57.38 57.38 0 0 0-7.07 4.19c-3.48 2.26-6.72 4.93-10.35 6.89-3.79 2.06-5.58 6.79-2.9 10.34 1.65 2.19.84 2.76-1 3.84a24.54 24.54 0 0 0-4.43 3.75l-21.17 20.41c-1.31 1.18-4 .85-6.15 1a10 10 0 0 1-2.66-.44l-4.24.79-2.75.12-3.47.54c-3.25-.94-5.49-2.11-5.44-6.48 0-2.09-3.1-4.31-5-6.25a2.75 2.75 0 0 0-2.66.32c-1.14 1.93-2.45 4-2.66 6.17-.37 3.72 0 7.51.12 11.27l-.48 1.11-1.68 2.38-.11.12c-1 .51-2 1-2.89 1.54-4 2.57-8.11 5-11.94 7.85-1.79 1.31-3.05 3.32-4.55 5a2.31 2.31 0 0 0-.25.61c-.38.47-.75 1-1.12 1.42l-5.58 8.6c-2.5 3.82-2.49 8-1.65 12.23-3.34 2.16-6.55 4.57-10.05 6.45-7.25 3.87-14.7.42-22.06.14-1 0-2-1.08-2.91-1.74-2.81-2-5.42-4.31-8.43-5.89-2.39-1.25-3.31-2.53-2.62-5.14a6.81 6.81 0 0 0-1.73-7 8.41 8.41 0 0 1-1.35-10.46l7.6-12.74a24.83 24.83 0 0 0 1.35-3.4c-.86-.14-1.25-.34-1.51-.23-7.44 3.2-12.85.32-15.84-6.73-.61-1.44-2.39-3.16-3.81-3.33-4-.49-6.59-2.19-7.57-6.15l1.59-2.79 6.9-11.87c1.88-3.94 4.56-7.72 2.24-12.42 1.19.43 3.05.51 3.46 1.33 3.46 6.86 9.91 10.81 15.19 15.87.75.72 3 .61 4.13.07 3.83-1.78 2.14-5.17 2.13-8.18s-1.28-4-4-3.54l-7.14 1.17c-2.47-1.95-4.87-3.66-7-5.65a5.15 5.15 0 0 1-1.67-3.32 17.39 17.39 0 0 1 1.16-5c.66-2.15 1.28-4.15-.57-6.16-.37-.41.05-2.32.65-2.72a10.69 10.69 0 0 1 4.47-1.69c3.25-.36 5.28-1.46 4.21-5.28.83-.14 1.58 0 1.9-.35 1.56-1.61 3-3.34 4.51-5-2 0-4.1-.19-6.13-.05a23.74 23.74 0 0 0-4 1c2.53-4.44 6.86-3.59 10.87-3.7l1.79 1.6c0 .47.07.94.1 1.41-.71 4.49 1.68 6.53 5.7 6.79a39.82 39.82 0 0 0-.61 5.51c0 .63 1.27 1.85 1.53 1.75 4.18-1.65 8.29-3.48 13.32-5.65-2.49-1.71-4.2-2.52-5.36-3.82-.72-.8-.59-2.35-.85-3.56a12.71 12.71 0 0 1 2.87.94 12.87 12.87 0 0 1 2.2 2.11l3.76 4c-.59 2.23-1 4.51-1.8 6.67-.88 2.4-2.09 4.26-5.4 3.1-2.17-.75-4.64-.63-7.69-1 1.05 2.07 2.16 3.48 2.51 5.07.75 3.29 2 6.86 1.38 10-.86 4.11-3.39 7.86-5.11 11.81a17.55 17.55 0 0 0-.72 3.28l-.25 1.13-.48 3.2a8.43 8.43 0 0 0-.61 2.34c.08 4-1.55 6-5.81 5.24a7.47 7.47 0 0 0-2.41.46c.11 1 .55 1.95.23 2.48-2.14 3.58-.47 6.68 1.09 9.77 6.09 12.07 15.08 21.81 24.81 31 .91 1.89 2.55 4.57 4.33 2.51 2.66-3.09 5.15-7.07 5.79-11 1.15-7 1.55-14.13 4.91-20.63 1.55-3 .58-5.53-2.19-7-2-1.07-4.29-1.47-6.46-2.17l-1.12-.24c-.18-1.13-.25-2.28-.54-3.39-.84-3.31-1.13-6.35 2.49-8.43.51-.29.6-1.86.41-2.73-.67-3-1.55-6-2.58-9.95 2.47 1.06 4.07 1.61 5.54 2.41l19.1 10.37a19.17 19.17 0 0 0 4.34 1.09c.41-1.72 1-3.42 1.2-5.17.4-2.93.68-5.88.87-8.83.09-1.46.28-3.17-.34-4.37-1.25-2.47-.4-3.34 1.92-3.1a6.94 6.94 0 0 1 3.61 1.58c1.9 1.63 3.2 1.65 4.19-.79z" class="F"/><path d="M276.22 620.48c-4.72-3.49-9.62-6.5-13.78-10.33-6-5.54-12.65-10.77-15.81-18.63-2.67-6.65-4.29-13.74-7-20.39-3.09-7.62-1.52-15.52-2.09-23.27-.3-4.12 1.12-8.37 1.81-12.55l2-11.16c.5-3.31 2-4 5.12-2.92 4.1 1.5 7.22-1 10.34-3.19 1.77-1.22 3.64-2.3 5.31-3.64a6.36 6.36 0 0 0 2.13-2.76c2-6.13 3.63-12.38 5.72-18.47a66.41 66.41 0 0 1 5.42-12.63c1.66-2.76 4.44-5 7.09-7 2.12-1.59 2.72.53 2.45 2-.91 5.08-2.14 10.11-3.14 15.17-.92 4.71-1.69 9.45-2.52 14.17-.2 1.14-.27 2.3-.57 3.41-.81 3-1 5.88.89 8.66a6.47 6.47 0 0 1 1.06 3.26c.06 5.45.3 10.81 2.71 15.9.47 1-.42 2.61-.59 4-.6 4.62-2.52 9.62-1.38 13.79 1.3 4.76 1.61 9.91 4.54 14.45 4 6.24 3.87 13.34 1.2 20.27-.71 1.85-.05 2.77 1.63 3.48 1.51.65 4 1.39 4.13 2.37.41 2.74-.08 5.64-.4 8.46-.09.86-.94 1.62-1.1 2.48-.48 2.51 1.09 4.09 3.36 3a34.24 34.24 0 0 0 7-4.88c2.93-2.46 5.53-5.24 10-3.58.78.29 2.18-1.32 3.36-1.92.91-.46 2.45-1.29 2.82-1 3 2.7 5.11.52 6.74-1.44a64.92 64.92 0 0 0 6.87-9.86c3.72-6.68 6.56-13.89 10.77-20.22 2.71-4.08 7.12-7.09 11-10.27.5-.42 3.1.66 3.73 1.67 1.74 2.77.48 5.47-1 8.12s-2.65 5.53-3.91 8.32c-.22.5-.45 1.28-.22 1.65 3.36 5.41-1.21 8.52-3.94 11.44a139.53 139.53 0 0 1-17 15.51c-2.91 2.23-5.35 5.55-9.89 5.87-2 .14-3.79 3.06-5.73 4.66a6.25 6.25 0 0 1-2.58 1.64c-8.31 1.29-16 5.91-24.79 4.61-1-.15-2.43-.42-2.82-1.11-1.19-2.12-2.74-4-5.11-3.09-1.21.44-1.76 2.7-2.62 4.13-.07.34-.3.62-1.21 1.82z" class="D"/><path d="M309.49 234.36l.41-3.88.56-5.74.9-3 4.9-4.52c1.05-.47 2.07-1.3 3.14-1.35 4.91-.23 6.09-3.39 7.18-7.52 1.5-5.73 3.89-11.21 5.89-16.8q1.3-2.62 2.59-5.25l6.75-10.92 8.87-1.19c3 2.72 5.16 2.94 6.44.5 2-3.87 4.34-7.67 5.74-11.76 2.09-6.12 7-9.17 11.87-12.47a2.17 2.17 0 0 1 1.91-.23c2.62 1.85 5.6 3.46 7.6 5.87 5.54 6.65 7.09 14.68 6.12 23.08-.16 1.41-2.79 3.72-4 3.57-3.2-.38-6.25-2-9.39-3a37 37 0 0 0-7.26-2c-4.41-.43-5.59 1.19-4.44 5.51a14.46 14.46 0 0 0 1.22 3.21c1.73 3.18.27 5.9-.8 8.75-2.95-1-9.25 3.77-8 6.06 2.84 5 .08 6.55-3.46 8.29-.1 0-.15.17-.21.27-2.73 4-5.61 7.85-9.88 10.49a4.11 4.11 0 0 0-1.29 3.67c1.63 4.93-.06 7.9-5.25 9.17a34.19 34.19 0 0 0-6.32 2.69c-2.13 1-1.8 2.92-.46 3.91 2.9 2.14 6.14 3.8 9.24 5.66l8.29 3.55c-1.65 2.1-9.13 4.53-12.1 4l-10-1.68c1.85 4.85 2.05 8.79-.78 12.49a35.13 35.13 0 0 1-12.91 10.75 68.27 68.27 0 0 0 10.8 1c3.66 0 7.32-.42 11-.65l13.84-1.3 1.47.48c0 .88-.05 1.76-.07 2.64-3.53.39-4.4 3.35-5.63 5.91-2 4.25-3.69 8.77-7.69 11.68-2.63 1.9-5.45 3.56-8.5 5.53l-3-.84-14.41-7.13c-4.4-2.09-6.35-5.9-7.55-10.37-.39-1.45-1.56-2.69-2.37-4 .51-1.09.73-2.61 1.59-3.19 3.94-2.7 5.53-6.22 5.6-11 0-2.59 1.7-5.16 2.64-7.74.49-.48.95-1 1.47-1.43 2.59-2.19 5-4.83 2.93-8.22-1.66-2.7-.27-6.66-3.88-8.49-.8-.42-.91-2.02-1.31-3.06z" class="F"/><path d="M442.66 636.65c-4.11-5.76-11-6.77-16.71-9.74s-11.64-6-17.33-9.26a8.73 8.73 0 0 1-3.3-4.35l8.92 2.92.81-.94a37.62 37.62 0 0 0-2.49-2.85c-3.5-3.28-7.47-6.17-10.41-9.88-1.72-2.17-1.68-5.67-2.67-8.48-3.89-11-7.88-21.9-6.85-33.89a49.81 49.81 0 0 0-.32-7.61c-.16-2.28 2.79-6.81 5-7.16.61-.1 1.91 1 2 1.72.21 1.19-.32 2.49-.45 3.75-.69 6.29-1.78 12.58-1.84 18.88 0 3.47 1.58 7 2.68 10.43.7 2.18 2 4.15 2.74 6.33 2.45 7.52 7.58 13.36 12.05 19.61 2.61 3.65 5.42 7.16 8.2 10.69 1.56 2 3.23 3.84 5.17 6.13l10.16-10.13c1.41-1.44 2.16-1.06 3.12.56 1.37 2.31 3.06 4.43 4.58 6.65l5.55 8.22c2.06 3.16 7.34 4 10.26 1.49 3.1-2.66 6.24-5.3 9.14-8.19a87.57 87.57 0 0 0 5.78-7.21v11l1.13.24c1-2.3 2.43-4.52 2.86-6.92 1.28-7.09 2.19-14.25 3.17-21.39q.81-6 1.4-12c.48-4.88.53-9.83 1.36-14.65 1.1-6.43 7.72-8.8 12.3-4.18 2.74 2.76 4.56 1.4 7 .42 2.58-1 2.27-3.19 2.23-5.27 0-1.11-.14-2.23-.21-3.22a4.18 4.18 0 0 1 .85-.46l3.94-.38c-.59-1.49-.76-3.72-1.85-4.33-4-2.28-6.17-6.09-8.56-9.67-.68-1-.47-2.63-.67-4 1.46.18 3.26-.12 4.31.64 2.89 2.08 5.41 4.66 8.2 6.9a17.17 17.17 0 0 0 3.49 1.72c0-1.23.45-2.64 0-3.68-2.13-5.06-4.58-10-6.75-15a47.85 47.85 0 0 1-2.05-6.48c-.56-2.11-1.52-3.79-4-3.35-3.05.54-3.13-1.17-2.64-3.23s1.23-3.73 1.79-5.61l3.82-13.12a7.53 7.53 0 0 1 2.54-3.65c.42 2.6.61 5.26 1.28 7.79 2.65 9.88 5.15 19.82 8.29 29.55a158.14 158.14 0 0 0 7.93 19.05c1.65 3.49 4.22 6.53 6.24 9.86a33 33 0 0 1 1.9 4.39 24 24 0 0 1-4.77-.83c-3.3-1.25-6.47-2.81-9.72-4.19-1.67-.71-2.62-.13-2.87 1.73-.39 3-.79 5.92-1.35 8.85-.87 4.55-1.83 9.08-2.83 13.6-1.24 5.62-2 11.45-4 16.78a91.82 91.82 0 0 1-9.44 19 84.31 84.31 0 0 1-13.9 15.35c-4.67 4.15-10.48 6.66-16.7 8.25a10.63 10.63 0 0 1-7.42-.59c-6.53-2.62-13.38-4.45-20.09-6.6z" class="D"/><path d="M393.37 397.58c2 3.23 1 5.57-1.66 8.1-2.19 2.1-3.56 5.05-5.4 7.54a12.13 12.13 0 0 1-2.24 1.88c-.58-.92-1.53-1.78-1.68-2.77-.75-4.9-2-9.57-6-12.87-3.53-2.93-7.21-5.75-12.52-4.53l7.11 8.24c1.25 1.51 2.31 3.18 3.42 4.79 3.37 4.91 2.19 9.84 0 14.78-1.62 3.77-3.55 7.46-4.73 11.38-2.78 9.2-8.19 16.67-14.77 23.39-3.29 3.37-7.41 2.11-10.92.65-5.94-2.49-10.63-6.88-14.5-12a12.74 12.74 0 0 1-2.58-6.31c-.51-7-.64-13.9 2.43-20.7 2.92-6.47 5.85-12.79 11.18-17.58a31.09 31.09 0 0 1 18.27-8.13c1.27-.11 2.38-1.82 3.57-2.8a20.3 20.3 0 0 0-3.94-1c-3.52-.21-7.1.1-10.56-.41-1.15-.18-2.55-2.1-2.9-3.47a17.49 17.49 0 0 1-.08-6.21c.65-5.2-1.37-9.39-4.45-13.32-1.86-2.38-3.83-4.82-.82-7.88a2.84 2.84 0 0 0 0-2.77c-3.93-3.69-1.85-8.19-1.55-12.25s1.57-8.3 2.5-12.43a10.41 10.41 0 0 1 1.14-2.29 14.28 14.28 0 0 1 2.49 1.55c.46.43.51 1.27.82 1.89 2 4 4.14 7.82 8.42 10.2a42.17 42.17 0 0 1 8.45 6.8c4.28 4.16 5.05 9.87 2.59 15.44-1.67 3.79-3.2 7.65-4.7 11.52a6.53 6.53 0 0 0-.44 3c.49 4.19 7.63 11.53 11.88 12.38l1.91.9 1.69 1.13 5.18 2.05 1.71.7 1.27.69.58.12z"/><path d="M561.68 388.3c-2-2.84-.84-7.16 2.36-8 2.75-.73 4.63-2.14 5.16-4.94.68-3.6 3.82-3.09 6.37-3.8v-3.62c3.18 2.44 5.9 4.68 8.78 6.69 5.14 3.61 7.24 2.83 9.39-3.13.62-1.73 1.72-3.3 2.21-5.06.76-2.81 1.88-5.78 1.62-8.56-.48-5.35-1.83-10.62-2.81-15.92a11.2 11.2 0 0 1-.25-1.71c0-.3.25-.61.64-1.51 1.59 1 3.36 1.65 4.52 2.88 6.35 6.71 11.06 14.35 12.69 23.64.21 1.24.81 2.4 1.15 3.63.64 2.37 1.89 2.9 3.65 1.1s3.37-1.15 5-.11c2.84 1.81 5.17 1.87 7.58-1s1.4-5.49-.58-7.71c-4.75-5.31-9.75-10.4-14.63-15.6a15.39 15.39 0 0 1-2.23-2.57c-1.5-2.57-.44-4.64 2.55-4.85s5.79 0 8.68-.12a35.57 35.57 0 0 0 5.14-.64c2.77-.53 3.94-2.14 3.26-5a15 15 0 0 1 0-3.18c5.15 1.18 7.58 4.95 10.22 8.35a76.59 76.59 0 0 1 12.67 24.12 39.76 39.76 0 0 1 1.18 18.07c-.59 4-.71 6.46-6.24 6.66-7.51.28-14.94 2.61-22.4 4.06q-10.24.84-20.5 1.66c-.69.06-1.63.27-2-.08-3.45-2.94-7.39-1.16-11.13-1.37l-25.07-1.73-3-.25zm-210.6-90.51a69.79 69.79 0 0 0-.39-7.94c-.73-4.6-.76-8.94 2.61-12.64 3.86-2 4-2.35 1.66-5.88-1.57-2.39-3.28-4.7-4.92-7l2.77-5.9q2.42-5 4.84-10c2.42-1.25 1.57-3.38 1.42-5.33l3.54.38c1.18.14 2.26.73 3.07.38 3.09-1.34 6.05-3 8-4l12.09 11.93 1.44-4.94c1.42.85 2.78 1.82 4.26 2.52a17.25 17.25 0 0 0 3.75 1.12 13.08 13.08 0 0 0 2.43.1l2.74 10.19c2.25.55 5.69-2.86 6.52 2l2.52-.51-1.23 8.54 1.3 7.67c-1.1.39-2.57.45-3.25 1.22-4.38 4.92-9.84 4.08-12.23-2.29-1.15-3.09-2.69-3.81-5.37-2.21-2.23 1.34-3.4.84-3.72-1.73l.89-2.77c1.88-1.55 4.14-9.07 3.15-11a2.36 2.36 0 0 0-1.78-1.16c-6.32.56-11.88 6.68-11.1 12.15l-1.32 10.59L365 277a13.31 13.31 0 0 0-2.58-.93c-3-.47-6.38 1.34-6.21 3.41.18 2.28.91 4.51 1.2 6.79a17.61 17.61 0 0 1 0 4.81c-.34 2.26-2.64 4.32-.63 6.81l5.22 10.74c.88 1.89 1.8 1.68 3.51.9a110.72 110.72 0 0 1 13.7-5.53c5.26-1.63 11-2 15.43-5.71 1-1.3 1.86-2.67 2.9-3.9s2.34-2.47 3.52-3.69l.88.68.44 3c-2.85 3.64-6.25 7-5.86 12.21A12 12 0 0 0 395 309c-1.3 4-2.11 8.26-3.8 12.11-1.47 3.35-1.4 8-6.15 9.21-4.65-.46-8.76 1.06-12.68 3.35a4 4 0 0 0-1.28.42c-4.16 3-4.64 3-8.33-.61a16.51 16.51 0 0 1-3-3.34c-2.16-3.84-6.76-6-7.39-10.91-.06-.5-.88-1.09-1.47-1.3-2-.71-1.44-1.78-1.21-3.48.76-5.45.96-11.09 1.39-16.66zm20-42.68l2.68-1.9-4.24-3.9c-.61.77-1.62 1.47-1.75 2.31-.33 2.11.8 3.21 3.31 3.49z" class="F"/><path d="M403.74 451.45a58.41 58.41 0 0 0 4.37 6c1.23 1.33 2 2.27 1.14 4.18a9.89 9.89 0 0 0-.58 4.05v21.17c0 5.08-1.56 9.62-3.73 14.16-2.07 4.33-5.54 6-11.68 4.58a17.06 17.06 0 0 0-4-.84c-2.8.08-4.91-1-7.3-2.42a77.42 77.42 0 0 0-12.86-5.77c-7.15-2.69-11.6-11.09-8.7-18 1.63-3.86 4.48-7.18 6.61-10.85 3.7-6.36 8.08-12.5 10.68-19.29 2.86-7.45 4-15.53 5.93-23.34.18-.72.32-1.46.65-3 1.38 4 2.33 7.27 3.66 10.38.58 1.36 1.94 2.39 2.94 3.56.11.12.22.24.31.36L392 438l1.54 2.07c-.26 2 .2 3.5 2.65 3.41l.1.09 1.29 1.3.45.59.86.89.34.62 3.24 3.38 1.16.27.11.09zm48.89-.74q1.5-12.29 3-24.56l1.52-11.58c.36-3.36 2.25-4.66 5.35-3.54 4.24 1.53 8.47 3.11 12.77 4.43 7 2.12 9.91 12 9.56 17.25a6.36 6.36 0 0 1-1.68 3.32c-2.84 3.34-3.8 7-3.82 11.47a72 72 0 0 0 3.73 23.69c1.4 4.15 1.35 8.8 1.91 13.23.44 3.51.66 7.05 1.26 10.53.7 4.09-3.63 13.08-7.51 13.15a17.27 17.27 0 0 1-10.61-3.7 31.18 31.18 0 0 1-8-11c-2.1-4.76-3.14-10.07-4.1-15.23-1.19-6.41-1.93-12.91-2.66-19.39a73 73 0 0 1-.05-8zm-209.84-74.87l-8.7 2.61a29.76 29.76 0 0 1-8.37.89c-2.05-.16-1.82-1.81-.66-3.36l4.64-6.87c1.68-2.46.74-4.09-1.85-4.54-2.8-.48-3.61-1.82-2.64-4.31 1.67-4.27 3.38-8.53 5.21-12.73 1.34-3.07 3.1-6 4.31-9.07 2.72-7 9.84-9.65 17.21-8.07s14.73 3.78 22.42 1.1c2.75-1 6-1.57 8.62.93l2.77 3.47c1.2 3.68-.16 6.73-2.37 9.55-6 7.63-12.92 14.16-21.59 18.73a19.48 19.48 0 0 0-3.31 2.76l-.09.05-2 1.4v.05l-.72.59h-.07l-.72.46q-6.05 3.19-12.09 6.36zm94.89 108.63l-3.3 5.5c-.23.38-.73.65-.87 1.06-2.47 7.27-9.7 8.72-15.1 12.4-1.43 1-2.88 1.91-4.24 3-3.11 2.43-6.13 1.86-8-1.6a35.45 35.45 0 0 0-11.71-12.89c-4.68-3.05-6.53-8.08-5.4-13.53.57-2.8.38-5.78 1.2-8.48a33 33 0 0 1 4.18-9.53 82.79 82.79 0 0 1 9.82-11.11 20.67 20.67 0 0 1 6.69-4c.87-.34 3.13.62 3.45 1.47 1.2 3.19 1.55 6.68 2.78 9.85 1.61 4.17 3.18 8.57 5.83 12.07 2.52 3.33 6.36 5.67 9.7 8.34 2.08 1.64 4.98 2.62 4.97 7.45zm-89.53-89.67h8.64l.39 1.33-8.29 4.23q-7.87 4.54-15.6 9.33c-3.79 2.35-7.28 5.21-11.22 7.25a180 180 0 0 1-18.23 8.29c-5.86 2.26-12 3.94-18 5.63a8.28 8.28 0 0 1-4.74-.34c-.84-.3-2-2.26-1.73-2.66 3.1-4.88 1.55-10.29.41-14.81-2.17-8.62 2.49-13.12 8-17.68 1-.87 2.43-1.35 3.52-2.19 2.53-2 4.76-1.88 7 .5.64.67 1.78.85 2.69 1.26l2 .92 9.89-.14 2.64-.06 10.55.11 6.06-.28 11.22-.29 1.36-.12zm39.49-1.5a28.18 28.18 0 0 0 .06 3.05c1.11 8.43-1.47 16.23-4 24a12.06 12.06 0 0 0-.18 3.08l-2.69 4.81-1.14 2.22c-.08.18-.15.36-.22.54l-1.06 2.31-.17.68-1.17 2.11c-.09.21-.17.43-.24.65l-2.46 1.69c-3.24 2.26-6.29 4.88-9.77 6.68-4 2.08-7.22.42-9.42-3.51-1.88-3.36-4.43-6.35-6.32-9.72-1.13-2-2.31-4.48-2.13-6.63.51-6.19 3.41-11.66 6.69-16.83.8-1.27 2.57-1.88 3.7-3 3.72-3.72 7.13-7.8 11.11-11.22a38.87 38.87 0 0 1 9.56-5.74c1-.45 2.91 1 4.35 1.67 1.81.89 3.57 1.9 5.35 2.86zm114.15 14.26l2.89-5.42c2.82-5 7.2-8.32 12.34-10.62 3.94-1.76 8-3.21 11.93-5 .84-.39 1.27-1.66 1.9-2.52-.8-.51-1.57-1.41-2.39-1.45-2.88-.14-5.78 0-8.67.07s-4.28-1.38-4.29-4.23v-1c-.08-6.2-.08-6.18 6-6.15l20.12.07c1 0 2 .75 2.94 1.15-.6.78-1.15 1.6-1.81 2.32-2.09 2.25-4.16 4.54-6.39 6.65a14.42 14.42 0 0 1-3.22 1.79c.27 2.63-1.85 5.58-4.68 6.52-.59.2-1.42.73-1.47 1.18a2.46 2.46 0 0 0 .79 2c5.23 3 6.18 7.69 6 13.3-.14 4.42.77 8.87 1.3 13.29.74 6.16-4.2 9.53-9.71 10.23a54.19 54.19 0 0 0-10 2.21 9.59 9.59 0 0 1-12.37-6.26 9.54 9.54 0 0 0-1.67-2.42l-.27-2.59.5-11.18c.09-.65.16-1.29.23-1.94zm22.4-16.07c0-.07-.06-.19-.12-.22s-.16 0-.25.06l.21.35z"/><path d="M496.85 409a16.3 16.3 0 0 1 2.77-2.85c1.61-1 3.72-1.36 5.08-2.59a4.91 4.91 0 0 0 1.37-4.09c-.82-2.84-2.41-5.45-3.54-8.21-1.69-4.12-3.46-8.23-4.8-12.46-.94-2.94 1-5.07 4.76-5.95 2.2-.52 5.63.81 6.06-2.51a19.61 19.61 0 0 0-1-9.38c-1.23-3.14-4.2-5-7.83-5.58a74 74 0 0 1-10.34-2.55c-2.95-.95-4-8.27-2-11.08 1.43-1.95 2.52-4.15 3.81-6.2 1.75-2.78 3.36-5.68 5.37-8.26 2.61-3.34 5.52-6.44 8.37-9.59a12.76 12.76 0 0 1 2.71-1.55c-.7 6.77 2.9 10.79 7.26 14.41.39.33.49 1 .73 1.51v4.6c0 1.33.58 3 0 3.91-3.17 4.6-3.13 10-4.21 15.11s-.82 5.59 3.5 8c.91 2.09 1.76 4.21 2.75 6.25 1.13 2.32 2.38 4.58 3.57 6.87l-3.65 6.26c-1.88 1.29-4.71 2.16-5.23 3.78-1.49 4.64-2.93 9.61-2.73 14.39s-2.35 7-5.4 9.4-5.42 1.22-7.38-1.64zM203 395.86l-2-.92c-1-2.1-1.68-4.54-3.17-6.23a32 32 0 0 1-8.37-22.89 40 40 0 0 1 9.26-24.48c2.31-2.73 4.49-5.58 6.89-8.23 3-3.28 5.47-2.67 6.7 1.49 0 .11.06.22.1.33.68 2.11 2.33 4.55 1.77 6.25s-3.2 3.12-5.09 4.41c-4.56 3.09-6.16 7.44-6.05 12.77a450.97 450.97 0 0 1 0 18.39 9.43 9.43 0 0 0 2.39 6.93A12.23 12.23 0 0 0 220.2 387l19.16-8.94a30.1 30.1 0 0 0 3.43-2.24q6-3.16 12.1-6.32l.72-.46h.08l.71-.59v-.05l2-1.4.09-.05 6-1.32c-.9 2.24-1.37 3.76-2.09 5.14-1.75 3.34-3.49 6.7-5.5 9.88a11.17 11.17 0 0 1-3.84 3.8c-4.24 2.34-6.52 5.37-4.94 10.37l-3.41.28-1.36.12-11.22.29c.3-.32.56-.82.92-.91 2-.51 3.58-1.64 3-3.82-.64-2.48-2.93-2.27-4.88-1.94l-23.64 4.25c-1.35.26-2.49 1.55-3.73 2.37z" class="D"/><path d="M225.86,274c.37.84,1.29,2,1,2.48-1.27,2.39-.08,3.88,1.4,5.5,2.1,2.3,2.1,4.62.15,7.16-.93,1.21-1.16,2.92-1.91,4.3-1.65,3.07-3.47,6-5.14,9.11-.81,1.49-1.45,3.07-2.6,5.56H226c2.66,0,5.34.15,8-.11,10.93-1,20.95-4.55,29.62-11.49.22.47.73,1.22.61,1.35-4.29,4.25-4.13,10.31-6.42,15.25-1.68,3.63-6.31,6-9.81,8.65a59.73,59.73,0,0,1-6.59,3.85l-7.47-1.24-1.7-.62a52.18,52.18,0,0,1-18-10.09,2.9,2.9,0,0,0-.8-.66c-8.63-3.1-8.17-10.13-7.51-17.26,0-.46.09-.92.13-1.38a19.71,19.71,0,0,0,1.73-2.87c2.77-7.06,8.08-11.83,14.19-15.88Z" class="F"/><path d="M385 330.34c4.75-1.23 4.68-5.86 6.15-9.21 1.69-3.85 2.5-8.08 3.8-12.11a12 12 0 0 1 1.54-2.48c1.07-.86 2.43-1.52 3.15-2.6a63.06 63.06 0 0 0 3.22-6.16c1 4 3.55 5.66 7.57 6.15 1.42.17 3.2 1.89 3.81 3.33 3 7.05 8.4 9.93 15.84 6.73.26-.11.65.09 1.51.23a24.83 24.83 0 0 1-1.35 3.4l-7.6 12.74a8.41 8.41 0 0 0 1.36 10.46 6.81 6.81 0 0 1 1.73 7c-.69 2.61.23 3.89 2.62 5.14 3 1.58 5.62 3.92 8.43 5.89.93.66 1.92 1.71 2.91 1.74 7.36.28 14.81 3.73 22.06-.14 3.5-1.88 6.71-4.29 10.05-6.45.17 2.82-1.61 4.18-3.71 5.69-9.74 7-20.83 5.53-31.73 5.4-2.06 0-4.14-.45-6.18-.33-4.51.27-7.33-2.35-9.8-5.48-1.27-1.61-2.71-2.86-4.6-1.93-1.06.52-1.59 2.15-2.31 3.31-.48.77-.88 1.59-1.31 2.38l-4.81-.59a99.77 99.77 0 0 1 1.4-11A5.35 5.35 0 0 1 412 348c3.51-.68 3.79-3 4.25-5.76.66-4 .28-8.31 3.58-11.69 1-1.07.87-3.31 1.51-6.09-6.15 2.55-9.44-.34-12.59-3.89a37 37 0 0 0-6.36-5.83 7.75 7.75 0 0 0-5-1.29c-.78.11-1.56 2.31-1.84 3.66a43.62 43.62 0 0 0-.82 7.22c-.28 7.62-1.85 8.75-9.16 6.37a2.14 2.14 0 0 1-.57-.36z" class="D"/><path d="M514.93 363.69c-4.32-2.4-4.57-2.87-3.5-8s1-10.51 4.21-15.11c.62-.89.05-2.58 0-3.91v-4.6l15.67 12.11a15.7 15.7 0 0 0 3 1.42c3 1.16 5.17 4.64 9.37 3.83a65.56 65.56 0 0 0-.63-8.06c-1-5.29.41-9.95 2.69-14.61.76-1.55.53-3.57.83-5.36a24.94 24.94 0 0 1 .74-2.79c.89.25 2 .25 2.64.8 9.62 8.41 10.92 20.63 5.53 31.11-.52 1-1.4 2.06-1.42 3.1-.09 3.87-2.78 4.07-5.59 4.63-3.46.68-6.85 1.77-10.26 2.68zm-229.18-27.8l-2.75-3.47c-.53-7.33-1.57-14.66-1.44-22 .13-7.14 4.74-12.09 10.43-16 .85-.59 1.8-1 2.7-1.53l-.7 4.57a7.55 7.55 0 0 0 1.32.77 6.94 6.94 0 0 1 3.39 10.93c-2.57 3.36-5.49 6.45-8.07 9.8-1.81 2.36-4.83 4.22-3.91 8 2.43 8.15 2.46 8.26 10.65 6.19 8.73-2.22 17.41-4.67 26.11-7.05a4.45 4.45 0 0 0 1.13-.77c1.29.34 3.68.64 3.69 1a49.21 49.21 0 0 1-.49 10.72c-.33 1.8-2.3 3.25-3.21 5-1.83 3.56-4.22 6.08-8.58 5.71l-17-1.51h0l-.68-.55-1.43-1-.59-.39-7.52-6.43c-.97-.71-2.04-1.31-3.05-1.99z" class="F"/><path d="M279.48 431.05l.22-.54 1.14-2.22 2.69-4.81 3.6-3.91.9.44c-1.1 5.49.89 11.16-4.18 16.4-6.58 6.79-11.79 14.9-17.7 22.34a19.15 19.15 0 0 1-4.95 4.56c-10.73 6.39-22.65 9.83-34.4 13.67-3 1-4.88.41-7-2.41-2.67-3.63-5.51-7-7-11.39-3.12-9.38-2.05-18.16 3.36-26.37 2-3 5.12-2.92 7 .17a13.79 13.79 0 0 1 1.77 9.94c-.62 3.73-.21 7.66 0 11.49s.71 7.76 1.1 11.64c.25 2.42 1.25 3.87 3.85 2.45 15.71-8.6 31.15-17.6 43.91-30.42 1.38-1.39 2-3.5 3-5.28.07-.22.15-.44.24-.65l1.17-2.11a13.53 13.53 0 0 0 .16-.68z" class="D"/><path d="M496.85 409c2 2.85 4.33 4 7.39 1.63s5.61-4.56 5.4-9.4 1.24-9.75 2.73-14.39c.52-1.62 3.35-2.49 5.23-3.78l3.65-6.26c2.94 10.75 2.92 21.39-1.47 31.78a58.35 58.35 0 0 1-3.38 6 13.37 13.37 0 0 0-1.46 2.7c-1.39 4.65-1.37 4.73-6.36 3.59l-30.2-7.07c-5.33-3.71-5.36-3.85-2.59-10.2.18-.42.24-1 .54-1.25 3.92-3.62 1.93-7.18.1-10.87-.37-.74.22-2 .37-2.95l.09.14.48.7c5.13 7.91 11.32 14.76 19.48 19.63z" class="F"/><path d="M424.49 470.35c3.58.48 5 2.77 6.36 5.49 3.31 6.8 7 13.43 10.15 20.3a7.35 7.35 0 0 1 0 5.71c-2.51 4.67-4.91 9-4.83 14.75.05 3.45-2.09 7-3.45 10.37-.2.52-1.53.93-2.27.83a26.39 26.39 0 0 1-5-1.19c-6-2-8.35-6.39-6.91-12.6.85-3.67 1.89-7.32 2.41-11 .75-5.33 1.07-10.72 1.64-16.08l1.9-16.58z"/><path d="M452.92 425.08c-2 15.48-7.6 28.9-21.79 37.3a31.48 31.48 0 0 0-3 2.33c-1.81 1.39-3.17 1.32-5.06-.4-2.42-2.19-5.55-3.58-8.24-5.5-3.53-2.52-6.94-5.21-10.41-7.83l-.67-.29-.11-.09-1.05-1.39-.92-.94c.46-2 .44-4.3 1.5-5.89 1.54-2.3.84-3.93-.11-6.05a63.69 63.69 0 0 1-2.67-8.08 7.93 7.93 0 0 1 1.15-.55l5.86 11.7a54.41 54.41 0 0 0 3.71 5.31c3.23 6 6.93 7.74 13.51 5.91 2.78-.78 5.44-2 8.15-3 4.55-1.73 5.22-2.75 5-7.52q.59-6.76 1.16-13.53c1.39-.67 2.76-1.83 4.18-1.9 3.26-.15 6.54.24 9.81.41zm-137.23-19.16l-18.32-1.22a4.45 4.45 0 0 1-2.7-1.72c-2.43-3.16-4.7-6.44-7-9.68l-.14-.25c-1.69-4.48-3.69-8.87-5-13.46-2-6.77-.83-13.39 2.17-19.72 2.4-1.1 4.78-2.58 7.44-.77 3.21 2.2 3.22 5 2.51 8.7-1.14 5.93-1.31 12-1.89 18.08l-.24 3.61c.1 1.16-.21 2.64.39 3.42 1.49 1.94 3.54 3.43 5.1 5.33 2.39 2.92 4.68 2.7 7.14.23 6-3.57 12.13-6.94 17.91-10.83 1.77-1.19 2.57-3.81 3.82-5.77l2.09-2.09 1.43-1.32 1.62-1.79.89.4c-.69 2.46-1.31 4.95-2.09 7.38-.69 2.14-1.73 4.18-2.3 6.34-1.73 6.64-3.69 13-11.91 14.16-.38.05-.61.63-.92.97z" class="F"/><path d="M476.8 388.55c-.15 1-.74 2.21-.37 2.95 1.83 3.69 3.82 7.25-.1 10.87-.3.28-.36.83-.54 1.25-2.77 6.35-2.74 6.49 2.59 10.2-3.43-1-7-1.71-10.27-3.1-4.29-1.83-8.34-4.21-12.51-6.33-3.39-1.72-4.88-4.31-3.62-7.8.89-2.5.33-4.36-.66-6.54a3.86 3.86 0 0 1 .55-3.41c4.07-4.65 8.44-9.05 12.51-13.7 1.49-1.71 3.05-2.18 4.28-.52a51.72 51.72 0 0 1 4.51 7.95c1.33 2.63 2.43 5.45 3.63 8.18z" class="D"/><path d="M328.92 379.78l-2.09 2.09-10.3 7.16a9 9 0 0 1-3.93 1.7c-6.53.47-12.66-4.38-13.26-10.66a12.27 12.27 0 0 1 1.21-6c2.78-6.09 5.81-12.41 12.79-14.42a22.78 22.78 0 0 1 11.82 0c2.27.63 3.77 4.08 5.62 6.26 0 2.46-.09 4.91-.14 7.36l-1.31 4.86-.41 1.65z"/><path d="M310.46 224.75l-.56 5.73-2.83 4.94c-1.13 2-2 3.88-4.82 1.48-2.61-2.2-4.74 0-6.31 2-2.11 2.72-3.85 5.73-6 8.43a10.69 10.69 0 0 1-3.76 2.88c-3.74 1.8-5.45 4.39-5.33 8.65-8.84-1.22-16.64-5-24-9.79-.44-.29-.66-.91-1-1.37h0c3.82.71 7.63 1.52 11.47 2.11 3.14.48 5.4-1.22 6.9-3.71a64.51 64.51 0 0 0 5.57-10.63c1.07-2.89.89-6.23 1.46-9.34.79-4.33 1.95-4.77 5.84-2.65 1.4.76 2.94 1.26 4.4 1.91 2.25 1 3.23.07 3.39-2.17z" class="D"/><path d="M407.37 362.48l4.81.59-.38 3.17c-.94 2.81-2.62 5.61-2.66 8.43-.09 6.42-.84 12.56-3.76 18.34l-12 4.57-9.76-.59-.58-.12-1.27-.69-1.71-.7-5.18-2.05-1.69-1.13-1.91-.9c-1.63-1.68-3.23-3.41-4.92-5-3.37-3.28-3.2-5.08-1.53-9.43a46.44 46.44 0 0 0 2.87-13.34c.27-4.06-.74-8.21-1.19-12.31 3.49-3.23 4.29-3.13 5.72.75.29 3.88.29 7.82.93 11.64 1.23 7.38 3.06 14.61 7.72 20.74l.11.2c1.25 2.39 2.22 5 3.81 7.12 3.27 4.39 5.54 4.14 8.81-.59l.11-.11 1.72-1.64 2.45-3.11.49-.92q3.17-7.86 6.34-15.7l2.65-7.22z" class="F"/><path d="M168.75 445.57c-3.55 1.25-6.5 2.42-9.52 3.34a119.31 119.31 0 0 1-12.81 3.45 123.33 123.33 0 0 1-17.71 2.21c-3.19.11-6.47-1.31-9.63-2.31a3.38 3.38 0 0 1-1.8-2.32c-.91-5.68-2-11.38-2.29-17.11-.37-8.85 4.26-15.82 9.73-22.27a3.78 3.78 0 0 1 1.92-1.41c3.79-.56 5.56-2.92 5.88-5.85l8.28-1.23c-1.47 2.81-2.76 6.09-4.76 8.84-2.19 3-5.08 5.48-7.6 8.25-1.47 1.62-2 3.45-.28 5.26 1.53 1.62 1.22 2.93-.19 4.49s-3.17 3.4-.21 5.44c.43.3.21 2.11-.21 3-1.13 2.26-2.61 4.34-3.8 6.57-1.74 3.23-1.07 4.78 2.6 5a52.59 52.59 0 0 0 12.1-.24c7.59-1.27 15.07-3.22 22.62-4.74 2.43-.51 5.1-1.33 7.68 1.63zM328.66 411a21 21 0 0 1-1.11 4.53c-2.42 4.94-3.24 10.14-3.71 15.6a62.8 62.8 0 0 0 2.16 22.25c2.35 8.58 7.38 14.52 16 17.07a3.67 3.67 0 0 0 2.78-.28c6.17-4.55 12.5-8.85 16.78-15.56 1.72-2.71 4.67-4.69 7.23-6.79.57-.47 2.49-.4 2.67 0 .48 1 .91 2.7.39 3.39C368.32 456 365 461.1 360.6 465c-4.12 3.67-9.46 6-14.26 8.92-1.67 1-3.37 2-5 3.09-2.19 1.48-4.09 1.64-6.22-.32-5.75-5.29-11.22-11-14-18.3-2.52-6.71-4.86-13.9-5.1-20.94a39.77 39.77 0 0 1 6.62-23.16c1.13-1.72 3.42-2.67 5.18-4 .31.27.58.48.84.71zM162.05 539.46c-.68-8-1.81-16-1.84-24 0-4 1.65-8.1 3.11-11.94 3-7.84 6.31-15.55 9.6-23.27 1-2.23 1.9-4.65 3.51-6.36 2-2.1 4-1.51 5 1.26a11.85 11.85 0 0 1 .69 5.73 98.84 98.84 0 0 1-2.61 9.9 7.66 7.66 0 0 0-.65 2.31c.5 5.68-2.56 10.16-4.89 14.89a62 62 0 0 0-6 22.4c-.29 3.25-2.88 6.3-4.42 9.44zm130.66-153.58c.58-6 .75-12.15 1.89-18.08.71-3.68.7-6.5-2.51-8.7-2.66-1.81-5-.33-7.44.77 1.07-5.7 5.72-7.61 10.23-9.69 1.79-.83 4.29-1 4.13-3.87l17 1.51c4.36.37 6.75-2.15 8.58-5.71.91-1.77 2.88-3.22 3.21-5a49.21 49.21 0 0 0 .49-10.72c0-.39-2.4-.69-3.69-1l13.52-8.12c-.59 8.38 1.13 16.86-5.09 23.79a11.25 11.25 0 0 0-1.63 2.63c-2.5 5.11-5.28 6.63-10.78 6-2.4-.28-4.86-.19-7.24-.59-3.26-.54-5.45 1.1-6.93 3.51-2.38 3.89-4.14 8.17-6.57 12-3.45 5.46-4.47 11.56-5.55 17.72a15.9 15.9 0 0 1-1.62 3.55zm-28.5-110.37l7.4 1.43a12 12 0 0 0 10.4-2.19c.71-.55 1.79-.7 2.39-1.33a33.2 33.2 0 0 0 3.34-4.21c.42-.62.25-2 .71-2.18 3.71-1.68 2.16-4.15 1.14-6.56 3.8-.2 7.6-.58 11.4-.5 2 0 4.11.76 2.46 3.72a5.17 5.17 0 0 0-.37 2.7 8.93 8.93 0 0 1-2.3 6.56c-1.84 2.36-2.78 5.42-4.11 8.17-.1.21-.14.48-.3.62-4.52 4.13-9.49 7.85-15.61 8.54-2 .23-4.55-2.68-6.58-4.45C271 283 268 280 265 277a5.08 5.08 0 0 1-.79-1.49zm117.03 278.72c-4-2.19-7.84-4.61-11.94-6.54-7.16-3.35-11.53-9.41-15-16-3.76-7.19-7.43-14.71-4.29-23.35.38-1 0-2.37.34-3.4a16.86 16.86 0 0 1 2-3.21 12.93 12.93 0 0 1 2 2.89c.95 2.8 1.57 5.71 2.49 8.52 2.3 7.07 6.93 12.84 10.59 19.16a127.7 127.7 0 0 0 10.06 14.29c.83 1.07 1.87 2 2.68 3.09s1.46 2.31 2.18 3.47zM372.22 352c-1.43-3.88-2.23-4-5.72-.75-2-6.32-7.05-10-12-13.74-4.76-3.52-7.44-8.39-9.4-13.73a6.93 6.93 0 0 1 .29-3.71l4.05-15.61 1.67-6.7c-.43 5.57-.63 11.16-1.4 16.68-.23 1.7-.79 2.77 1.21 3.48.59.21 1.41.8 1.47 1.3.63 4.89 5.23 7.07 7.39 10.91a16.51 16.51 0 0 0 3 3.34c3.69 3.64 4.17 3.65 8.33.61a4 4 0 0 1 1.29-.42c2.41 6.16 2.69 12.28-.18 18.34zm-130.85-26.36a59.73 59.73 0 0 0 6.59-3.85c3.5-2.68 8.13-5 9.81-8.65 2.29-4.94 2.13-11 6.42-15.25.12-.13-.39-.88-.61-1.35l4.89-10.79c1 4.3 2 8 2.71 11.71.75 4.25 1.41 8.87-.56 12.7-2.26 4.39-5.82 8.1-8.71 12.18-3.82 5.4-8.93 6.12-14.86 4.44-1.85-.53-3.78-.78-5.68-1.14z" class="D"/><path d="M320.54 409.36c0 .25.13.56 0 .69-4.54 5.43-4.84 12.47-7.13 18.75-.75 2-1 4.26-1.84 6.22-1.33 3-3 2.89-5.22.67a34.53 34.53 0 0 0-6.32-4.55c-2.7-1.65-3.4-4-1.89-6.65a52.36 52.36 0 0 0 4.23-8.09c1.3-3.57 2.89-6.23 7.08-7 3.78-.65 7.38-2.46 11.09-.04z"/><path d="M401.53 427.7a7.93 7.93 0 0 0-1.15.55 63.69 63.69 0 0 0 2.67 8.08c.95 2.12 1.65 3.75.11 6.05-1.06 1.59-1 3.9-1.5 5.89l-2.43-1.27-.34-.62-.86-.89-.45-.58-1.29-1.31-.09-.09-2.66-3.41L392 438l-.85-1.54c-.09-.12-.2-.24-.31-.36-3-6.16-.13-11.92 1.3-17.76a11.68 11.68 0 0 1 1.17-2.08l3-6.43a18.92 18.92 0 0 1 1.24-3.21 24 24 0 0 1 3-3l1.29 4-.2 1.94c-2.49 3.63-1.6 7.4-.5 11.18l.27 2.59c0 1.41.06 2.89.12 4.37z" class="D"/><path d="M543.51 433c-1 1.86-1.67 4.38-2.34 4.37-2.51-.05-5.46-.25-7.41-1.6-5.91-4.12-9.64-10.12-12.27-16.74a8.58 8.58 0 0 1-.24-4.45c.59-3.41 3.21-4.51 6.38-3.27 5.6 2.2 8.63 6.81 11.31 11.7 1.73 3.19 3.06 6.61 4.57 9.99zm-255.97 18.41a27.21 27.21 0 0 1-1.67 4.8c-2.59 4.61-5.24 9.19-8.12 13.62-3.06 4.7-5.12 5.13-10.22 3-3.25-1.37-6.55-2.25-10.07-.69-.68.3-1.67-.1-2.51-.18.29-.91.32-2.09.93-2.66a23.13 23.13 0 0 1 3.55-2.12l23.8-15a24.06 24.06 0 0 1 3.72-1.55z"/><path d="M286.7 327c-.92-3.74 2.1-5.6 3.91-8 2.58-3.35 5.5-6.44 8.07-9.8a6.94 6.94 0 0 0-3.39-10.93 7.55 7.55 0 0 1-1.32-.77l.7-4.57a2.44 2.44 0 0 1 .51-.46c7-3.44 7-3.43 5.48-11.23a31.24 31.24 0 0 1-.26-3.76c.81 1.34 2 2.58 2.37 4 1.2 4.47 3.15 8.28 7.55 10.37-2.21.25-3.53 1.5-3 3.69 2.6 10.67-4.42 16.47-11.12 22.49l-9.5 8.97zm43.94 46.26l.14-7.36.51-5.75c1.84 1.43 3.49 2.25 4.5 3.56 3.79 4.94 4 13.34.53 18.49a16.17 16.17 0 0 0-2.15 14.15 5.31 5.31 0 0 1-.66 3.31 3.76 3.76 0 0 1-2 1.81c-5.24 1.57-10.53 3-15.8 4.45.29-.34.54-.92.87-1 8.22-1.17 10.18-7.52 11.91-14.16.57-2.16 1.61-4.2 2.3-6.34.78-2.43 1.4-4.92 2.09-7.38l-.89-.4-1.62 1.79-.33-.32z" class="D"/><path d="M300.81 330l-2.95-1.33a13.81 13.81 0 0 1 1.67-3.11A53.36 53.36 0 0 1 316.7 313c3.38-1.5 10.32 1.06 10.89 4.63.18 1.09-1.17 3.14-2.3 3.61-6.14 2.57-12.42 4.8-18.67 7.08-1.81.68-3.71 1.09-5.81 1.68zm186.73 64.2c-3.55-.59-7-3.11-8.2-6.06-1.79-4.37-4-8.59-5.49-13.07a30 30 0 0 1-1.12-9.08c0-2 3.62-4.22 5.46-3.74 2.62.68 4.55 3.66 3.86 6.15a22.06 22.06 0 0 1-1.4 3.16c-2.12 4.5-1.56 6.35 2.27 9.56a69.21 69.21 0 0 1 6.86 6.84c.89 1 2.1 3 1.7 3.64-.77 1.22-2.57 1.77-3.94 2.6z"/><path d="M324.73 299l3 .84c3.05-2 5.87-3.63 8.5-5.53 4-2.91 5.66-7.43 7.69-11.68 1.23-2.56 2.1-5.52 5.63-5.91-2.26 9.08-3.36 18.58-9.7 26.17-2.61 3.13-8 3.65-10.89.79-1.47-1.46-2.82-3.09-4.23-4.68zm-96.9 220.56c-.57 1.08-.91 2.43-1.76 3.21-7.33 6.68-14.29 13.91-24.26 16.8-.71.21-1.25 1-2 1.28a15.39 15.39 0 0 1-2.56.6 11.89 11.89 0 0 1 .32-2.88c.2-.55 1-.87 1.54-1.31l9.74-8.12c3.21-2.75 5.93-5.94 9.41-8.08 2.54-1.56 5.93-1.73 8.95-2.52zm209.94-79.47c.21 4.77-.46 5.79-5 7.52l-8.15 3c-6.58 1.83-10.28.13-13.51-5.91 7.23-3.6 15.38-2.78 23-4.69a14 14 0 0 1 3.66.08zm15.15-15.01l-9.81-.42c-1.42.07-2.79 1.23-4.18 1.9-1.14-4.57-1.4-9 1-13.41 1.31-2.46 2.47-3.2 5.09-2 1.81.85 3.92 1 6.84 1.76 1.52 3.25 1.53 7.68 1.06 12.17zm49.15-111.92c-.08-3.76-.49-7.55-.12-11.27.21-2.14 1.52-4.24 2.66-6.17a2.75 2.75 0 0 1 2.66-.32c1.93 1.94 5.06 4.16 5 6.25 0 4.37 2.19 5.54 5.44 6.48zm-53.74 182.58l12.27 11.92c.91.84 2.39 1 3.44 1.79.85.58 1.94 1.43 2.08 2.3a60 60 0 0 1 .43 7.19c-6.19-2.03-20.27-19.63-18.22-23.2zM530 450.38l5.95 1.43 9.06 2.15c1.65.41 3.64.48 4.85 1.47 3.73 3.05 8.2 3.52 12.61 4.14 1.84.26 3.79-.3 6.33-.55a7.77 7.77 0 0 1-.13 2.92c-.15.47-1.84.86-2.66.65q-16.71-4.36-33.36-9a16 16 0 0 1-3.45-2zM405.38 393c2.92-5.78 3.67-11.92 3.76-18.34 0-2.82 1.72-5.62 2.66-8.43 2.29 5 2.32 10.33 2.38 15.7 0 2.34-.34 4.14-2.43 5.6a80.3 80.3 0 0 0-6.37 5.47zm-95.89-158.64c.4 1 .52 2.65 1.26 3 3.61 1.83 2.22 5.79 3.88 8.49 2.09 3.39-.34 6-2.93 8.22-.52.44-1 1-1.47 1.43-2.26-6.23-3.15-12.59-1.64-19.13a11.85 11.85 0 0 1 .9-2.01zm-4.39 164.11c-2.46 2.47-4.75 2.69-7.14-.23-1.56-1.9-3.61-3.39-5.1-5.33-.6-.78-.29-2.26-.39-3.42a25 25 0 0 1 3.78 2c3.01 2.21 5.91 4.63 8.85 6.98zm175.32-67.3c1.5-1.69 2.76-3.7 4.55-5 3.83-2.81 7.93-5.28 11.94-7.85.92-.59 1.92-1 2.89-1.54-4.96 6.81-11.61 11.35-19.38 14.39zM350 264.29l4.92 7c2.33 3.53 2.2 3.86-1.66 5.88l-2.62-3.06h-1.09.05l-1.47-.48c1.56-2.06 2.54-4.15 1.2-6.82-.26-.58.46-1.67.67-2.52zm171.21 43.3l2.75-.12c-.86 1.58-1.77 1.66-2.75.12zm44.46 81.11l3 .25zm-65.76-72.05l1.68-2.38zm-20.86 16.55l1.12-1.42zm-246.85-9.42l1.7.62zM171.76 280l1.53.91z" class="D"/><path d="M349.59,274.14h0Z" class="F"/><path d="M298.3 345.72l.68.55zm-2.02-1.35l.59.39zm107.46 106.32l.67.29-.67.47zm73.63-61.3l-.48-.7zm-90.13-142.6l-1.44 4.94-12.09-11.93-8 4c-.81.35-2-.25-3.07-.38l-3.54-.38c-4.37.28-8.77.61-10.3-5.2l-8.71 7.68c-3.1-1.86-6.34-3.52-9.24-5.66-1.34-1-1.67-2.89.46-3.91a34.19 34.19 0 0 1 6.32-2.69c5.19-1.27 6.88-4.24 5.25-9.17a4.11 4.11 0 0 1 1.29-3.67c4.27-2.64 7.15-6.46 9.88-10.49.06-.1.11-.23.21-.27 3.54-1.74 6.3-3.26 3.46-8.29-1.29-2.29 5-7 8-6.06 1.07-2.85 2.53-5.57.8-8.75a14.46 14.46 0 0 1-1.22-3.21c-1.15-4.32 0-5.94 4.44-5.51a37 37 0 0 1 7.26 2c3.14 1 6.19 2.58 9.39 3 1.25.15 3.88-2.16 4-3.57 1-8.4-.58-16.43-6.12-23.08-2-2.41-5-4-7.6-5.87a2.17 2.17 0 0 0-1.91.23c-4.83 3.3-9.78 6.35-11.87 12.47-1.4 4.09-3.71 7.89-5.74 11.76-1.28 2.44-3.47 2.22-6.44-.5a49.09 49.09 0 0 1-2.76-6.17c-2.16-7.25-3.59-7.48-9.72-3.35-3.85 2.6-4.94 5.39-4.29 9.66.61 4 .79 8 1.15 12q-1.29 2.63-2.59 5.25c-.54-2-1-4-1.68-5.91-.41-1.08-1.17-2.52-2.06-2.77a3.62 3.62 0 0 0-3.16 1.3c-2.05 3.39-5.91 6.29-3.6 11.15.22.47-.07 1.7-.38 1.8a3 3 0 0 1-2.17-.24 14.82 14.82 0 0 1-2.43-1.93c-1.94-1.61-3.37-1.08-4.36 1.06-.48 1.05-.83 2.15-1.27 3.22-.86 2.11-1.16 5-2.73 6.17-3.86 2.9-7.77 5.93-13.08 6.34-4.38.35-8.78 1.46-10.69 6.35a70.06 70.06 0 0 1-6.41-4.63c-1-.87-1.33-2.44-2-3.7 1.5-.72 3.06-2.15 4.49-2 8.89.72 14.37-5 19.75-10.48 1.57-1.59 1.62-5 1.83-7.54.52-6.13 5.61-8 9.63-10.85 2.84-2 5.8-3.94 8.47-6.18 1.63-1.37 2.86-2.55 5.36-2.34 4.69.41 6.72-2.34 4.5-6.42-2.34-4.29-5.6-8.1-8.49-12.09-.49-.68-1.45-8.36-.91-9 2-2.18 3.67-.41 5 .8 2.23 2 4.19 4.3 6.29 6.44.56.56 1.2 1.39 1.86 1.45 4.44.35 8.89.68 13.33.72 5 .06 7.16-3.24 10.1-7.06 4.71-6.1 4.95-12.61 3.9-18.93-1-5.89 2.3-8.55 5.27-12.56.15 9.49-4.9 18.27-1.14 27.49 5.57-2.36 6.34-4.67 4.35-11.08a19.08 19.08 0 0 1-.8-5c0-.91.46-2.53.94-2.61a4.09 4.09 0 0 1 3.07.84c3.6 3.24 7 6.75 10.61 9.94a10.12 10.12 0 0 0 4.89 2.56 121.33 121.33 0 0 0 12.65.79c3.22.11 4.33 1.93 2.64 4.79-1.82 3.08-3.74 6.11-5.65 9.14-3.62 5.77-5.59 11.88-3.45 18.65.35 1.11 1.72 1.89 2.63 2.82-.68 4.44-1.14 8.92-2.15 13.28-.34 1.48-2.12 2.6-3.16 3.94s-2.8 2.76-2.73 4.06c.2 3.94-2.27 6.16-4.51 8.59-.52.57-1.77 1.17-2.21.92a3.18 3.18 0 0 1-1.17-2.28 7.7 7.7 0 0 1 .58-2.68c.94-3.41-.08-5.47-3.5-6.15-1.8-.36-3.73 0-5.6 0l1.72 4.88c-2.21.83-5.25 1.19-7 2.87-2 1.84-2.76 4.92-4.28 7.89l3.81 1.22 2.16 6.49a28.49 28.49 0 0 0 1.36 3.5c1.16 2.17 1.39 6.07 5.12 4.63s1.36-4.55.83-6.92-1.44-4.56-2.19-6.83c1.94 1.36 3.8 2.86 5.85 4a26.5 26.5 0 0 0 4.56 1.62c.28 1.3.28 2.76.9 3.86a14.17 14.17 0 0 0 2.88 2.79c.53-1 1.47-1.88 1.55-2.87.43-5.23.59-5.48 5.77-5.71l.69 5.79a41.79 41.79 0 0 0-2.43 4.11c-2.17 4.78-2.12 4.8-6.64 2.05-.16-.1-.45 0-.67 0l1.3 1.33-5 2.53c1.45 2.05 3.69 3.88 4 6 .45 3.06 1.55 3.86 4.38 3.8 1 0 2 1.22 3 1.88a15.88 15.88 0 0 1-2.61 2.69 4.91 4.91 0 0 1-2.7.32c-2.38-.22-3.14.77-2.27 3.02zm-39-17.9c2.89-3.69 6.76-6.31 7.4-11.46-6.09 1.83-10.21 7.98-7.39 11.46zm22.14 4.52l1.22.52a43.51 43.51 0 0 0 4.53-3.4 10.86 10.86 0 0 0 1.62-3.08 36.26 36.26 0 0 0-5.43-1.52c-.55-.07-1.75 1.12-1.85 1.84a39.27 39.27 0 0 0-.08 5.64zm135.04 41.72c-1 2.44-2.29 2.42-4.19.79a6.94 6.94 0 0 0-3.61-1.58c-2.32-.24-3.17.63-1.92 3.1.62 1.2.43 2.91.34 4.37l-.87 8.83c-.24 1.75-.79 3.45-1.2 5.17a19.17 19.17 0 0 1-4.34-1.09l-19.1-10.37c-1.47-.8-3.07-1.35-5.54-2.41 1 3.91 1.91 6.91 2.58 9.95.19.87.1 2.44-.41 2.73-3.62 2.08-3.33 5.12-2.49 8.43a32.28 32.28 0 0 1 .53 3.39c-1.36.19-3.16-.11-4 .65-3.79 3.37-7 .09-10.68-.11l4.61-16.9c1.1-3.73.16-6.63-3.65-9.24a24.59 24.59 0 0 1-1.78 2.83c-1.83 2.2-2.81 5.37-6.31 5.75a17.55 17.55 0 0 1 .72-3.28c1.72-3.95 4.25-7.7 5.11-11.81.64-3.1-.63-6.67-1.38-10-.35-1.59-1.46-3-2.51-5.07 3.05.35 5.52.23 7.69 1 3.31 1.16 4.52-.7 5.4-3.1.78-2.16 1.21-4.44 1.8-6.67l2.81 4.26c3.21-2.67 3-4.64 1.52-6.61s-3.29-4.1-5-6.08a22.1 22.1 0 0 0-2.77-2.19l-.3 6.59a12.87 12.87 0 0 0-2.2-2.11 12.71 12.71 0 0 0-2.87-.94c.26 1.21.13 2.76.85 3.56 1.16 1.3 2.87 2.11 5.36 3.82l-13.32 5.65c-.26.1-1.51-1.12-1.53-1.75a39.82 39.82 0 0 1 .61-5.51c-4-.26-6.41-2.3-5.69-6.8 3.53 1.45 5.81-.37 7.79-3a29.3 29.3 0 0 1 4.29-.92c3.22-.23 3.78-2 3-4.71-.57-2.09-1.06-4.2-1.59-6.3 3.23-.48 1.66-2.88 1.78-4.55.19-2.64.25-5.29.36-7.93a57.83 57.83 0 0 0 8-2.25c1.9-.83 3-1.14 4.79.47 1.65 1.44 4.28 1.78 7.4 2.95a75.82 75.82 0 0 1-6.22 5.52 91.9 91.9 0 0 1-8.87 5.39c-2 1.13-2.29 2.32-.83 4.1s2.42 4.45 4.27 5.35a31.7 31.7 0 0 0 10.56 2.92c2.76.28 5.65-.79 8.48-1.26-1.57 3 0 5 2.12 6.89l.56 3.71c-2.29 0-4.33-.08-6.35 0a6.79 6.79 0 0 0-2.07.93c.32.67.58 1.38 1 2l4.91 8-27.43 7.17c-.14 0-.19.39-.36.74.26.28.51.82.85.89 6.47 1.28 9.77 6.69 13.95 10.85 1.77 1.76 2.84 1.78 5 .71a101.58 101.58 0 0 1 12.75-5.23c2.68-.91 4-2.14 3.11-5a42.91 42.91 0 0 1-1.62-5.64c-.38-2.45-.36-4.95-.52-7.43l1.26-.16a46.55 46.55 0 0 1 2.59 5.07c1.13 3 2.93 3.6 6 2.82 2.56-.65 5.34-.46 8-.65l-1.49 3.44c-2.43 5.28-2.44 5.28 2.26 7.86z" class="D"/><path d="M453.33 215l-.36 7.93c-.12 1.67 1.45 4.07-1.78 4.55-1.33-5.16-1.9-5.91-6.52-4.6-3 .84-5.61 3.12-8.4 4.76l-1.53 3.59.3 4.88.72 3.29c-4 .11-8.34-.74-10.87 3.7h-2-.15l-2.47-1.21 1.54-2.34c.8-.62 2-1.08 2.33-1.9 1.17-2.79 3.06-4.13 6.16-3.53-2.07-7.56-4.93-8.91-10.08-7.44a19.39 19.39 0 0 1-3.06.38c-1.32-4.6-1.8-4.75-5.77-2a6 6 0 0 1-1.89.52c.09-3.35 2-7-1.49-9.79l-.41-1.79c.75-.09 1.62-.45 2.24-.2a19.52 19.52 0 0 1 3.12 1.87l1.44 2c.16.36.32.71.5 1.06l.29-.12-.35-.8c-.09-4.26-2.19-8.6.5-12.76 4.79 1.16 8.77 5.07 14.17 4.19.19 0 .41.18.63.27l-.36 4-7.32 9.49c6.06.4 15.19-4.3 13.25-14.24-.37-1.89-.43-3.93-1.18-5.66-1.95-4.51-4.21-8.9-6.35-13.33 1.51-2.9 3.48-5.66 4.42-8.73a139.15 139.15 0 0 0 3.22-14.66 11.2 11.2 0 0 0-.41-3.34l1.73-5.51c3.56-.69 7.09-1.5 10.67-2 2.08-.3 3.25.83 3.88 3 .41 1.41 1.84 2.52 2.82 3.77-8.17 6.36-13.42 14.39-14.25 25-3.61 4.89-3.09 11.4 1.87 13l-.88-7.54q2.25-5.4 4.48-10.79c2.85-.48 6-3 8.51-.4 3 3.15 5.28 7.05 7.87 10.62l-9.61 10.44-9.45 4.65 10.67 5.11z" class="E"/><path d="M485.9 209.6c.62-2.51.21-3.87-2.49-5.55-4.53-2.83-9-4.58-14.28-4.27a3.67 3.67 0 0 1-1.32-.3c-.19-.07-.32-.32-.73-.76l2.49-3.84c3.09-4.5 3.64-9.62 3.67-14.88 0-1.15-.31-2.56.23-3.39a6.65 6.65 0 0 1 3.19-2.08c.23-.08 1.23 1.35 1.56 2.2a16.25 16.25 0 0 1 .6 3.15l1.06.14c.94-2.52 2-5 2.78-7.56.89-3 1.6-6 2.24-9.05.45-2.15 1.5-2.85 3.39-1.7 2.26 1.37 3.53.61 4.67-1.55 1-1.92 2.65-3.52 3.55-5.47 1.72-3.74 3.11-7.63 4.66-11.5.1.1.67.45.78.91l4.16 17.76c.13.55 0 1.17.12 1.72 1.06 4.47.88 4.32-3.68 5.68a91.56 91.56 0 0 0-14.09 5.39c-4.69 2.31-4.66 7.29-5 11.67-.41 5.16 2 8.81 6.92 10.72a7.81 7.81 0 0 1 2.52 1.81c2 2 4.13 1.87 6.35.65l11.44-6.46c6.27-3.52 12.45-2.51 17.11 2.78 2.91 3.29 2.31 6.24-.78 9.17-6.25 5.93-14.14 5.25-21.68 6.14.11-.8.19-1.6.32-2.39.64-4.1-1.5-6.27-5.54-5.37-1.41.31-2.64 1.33-4 1.92l-10.22 4.31z" class="D"/><path d="M396.18 213.16c-5.18.23-5.34.48-5.77 5.71-.08 1-1 1.92-1.55 2.87A14.17 14.17 0 0 1 386 219c-.62-1.1-.62-2.56-.9-3.86.1-3.39-2.29-5.17-4.61-6.88-4.23-3.12-10.43-2.88-13.08.36l-3.81-1.22c1.52-3 2.32-6 4.28-7.89 1.79-1.68 4.83-2 7-2.87l-1.72-4.88c1.87 0 3.8-.38 5.6 0 3.42.68 4.44 2.74 3.5 6.15a7.7 7.7 0 0 0-.58 2.68 3.18 3.18 0 0 0 1.17 2.28c.44.25 1.69-.35 2.21-.92 2.24-2.43 4.71-4.65 4.51-8.59-.07-1.3 1.71-2.74 2.73-4.06s2.82-2.46 3.16-3.94c1-4.36 1.47-8.84 2.15-13.28q2-3.85 3.91-7.71a36 36 0 0 1 .82 5.32c.06 4.38 1.09 8.16 5.12 10.63a3.9 3.9 0 0 1 1.5 2.16l3.47 13.49-.8.7c-5.17 2.11-6.5 6.11-4.81 14.39l-2.33 2zm-111.32 4.92c1.91-4.89 6.31-6 10.69-6.35 5.31-.41 9.22-3.44 13.08-6.34 1.57-1.19 1.87-4.06 2.73-6.17.44-1.07.79-2.17 1.27-3.22 1-2.14 2.42-2.67 4.36-1.06a14.82 14.82 0 0 0 2.43 1.93 3 3 0 0 0 2.17.24c.31-.1.6-1.33.38-1.8-2.31-4.86 1.55-7.76 3.6-11.15a3.62 3.62 0 0 1 3.16-1.3c.89.25 1.65 1.69 2.06 2.77.73 1.91 1.14 3.93 1.68 5.91-2 5.59-4.39 11.07-5.89 16.8-1.09 4.13-2.27 7.29-7.18 7.52-1.07 0-2.09.88-3.14 1.35l-4.9 4.52-.9 3-15.57-1.46z" class="E"/><path d="M412.45 195.9l-3.47-13.49a3.9 3.9 0 0 0-1.5-2.16c-4-2.47-5.06-6.25-5.12-10.63a36 36 0 0 0-.82-5.32q3.49-6.47 7-12.91l1.18.26c.13 1 .21 2 .42 3 .65 3.13 1.23 6.29 2.07 9.38.67 2.52 2.54 1.45 3.93.83 1.57-.69 3-1.49 4.13.52 1.29 2.4 5.32 3.89 2.75 7.61-1.24 1.79-2.77 3.37-4.1 5.1-.6.79-1.55 1.79-1.44 2.56a23.55 23.55 0 0 0 1.68 4.67c1.24-.66 2.71-1.09 3.69-2a37.46 37.46 0 0 0 9.64-15.32c.59-1.77 1.92-3.3 2.92-4.94a11.2 11.2 0 0 1 .41 3.34 139.15 139.15 0 0 1-3.22 14.66c-.94 3.07-2.91 5.83-4.42 8.73a22.33 22.33 0 0 0-4.53.93c-3.78 1.6-7.47 3.43-11.2 5.18z" class="D"/><path d="M485.9 209.6l10.21-4.31c1.37-.59 2.6-1.61 4-1.92 4-.9 6.18 1.27 5.54 5.37l-.32 2.39c-4.86 1.33-9.43 3.17-12.65 7.34-5.12 3.31-3.13 8.39-3.77 13.35a49.77 49.77 0 0 0 5.21-1.23c4.9-1.75 6.63-.77 7.56 4.45.83 4.67 2.43 6.16 7 6.46h0c0 .4-.07.8-.1 1.19-2.06.56-4.15 1-6.16 1.71-6.4 2.18-12.85 2.07-19.36.7-2.14-1.86-3.69-3.9-2.12-6.89q2-11.79 4-23.57c.23-1.7.62-3.37.96-5.04z" class="E"/><path d="M508.68 241.5c-4.56-.3-6.16-1.79-7-6.46-.93-5.22-2.66-6.2-7.56-4.45a49.77 49.77 0 0 1-5.21 1.23c.64-5-1.35-10 3.77-13.35l1 4.49c3-1.53 5.54-3.34 8.38-4.19 6.47-2 9.84 0 10.68 6.65.63 4.91 2.6 8.19 7.31 9.91l.24 1.07-11.74 6.27c0-.39.07-.79.1-1.19zm-54.17-79.18c-1-1.25-2.41-2.36-2.82-3.77-.63-2.18-1.8-3.31-3.88-3-3.58.5-7.11 1.31-10.67 2 5.49-6.73 10.1-14.46 19.25-17a13.86 13.86 0 0 1 4.71-.89 4.09 4.09 0 0 1 3 2.08c1.51 4.81 2.75 9.72 3.87 14.64a2.78 2.78 0 0 1-1.4 2.31c-3.98 1.31-8.03 2.44-12.06 3.63zm-162.29-3.64v11.76c-.12 3.69-.83 3.82-4.5 3.4-4-.45-5.27-2.35-5.89-6.16-1.17-7.25-3-14.39-4.68-21.55-.31-1.31-1.5-2.43-1.72-3.73-.27-1.65-.64-4.07.24-5 1.77-1.81 4.37-1 5.81.81a122 122 0 0 1 8.65 12.3c1.46 2.4 2.08 5.31 3.08 8zm22.16-13.15c-4.61-1.64-8.87-2.42-12.21-4.61-2-1.34-3.19-4.7-3.83-7.37s-.39-5.76-.2-8.63c.23-3.53 2-4.6 5.35-3.61a12.89 12.89 0 0 1 2.54 1.07c3.1 1.69 7.51 2.73 8.88 5.35s-.3 6.88-.51 10.42c-.13 2.33-.02 4.68-.02 7.38z" class="D"/><path d="M505.42 275.13c-4.7-2.58-4.69-2.58-2.31-7.79l1.49-3.44 13-11.25a19.46 19.46 0 0 0 1.94 14.56c1.21 2.17 1 5.09 1.59 7.65.26 1.22.68 2.4 1 3.59z" class="E"/><path d="M219.81 165q1.06 2.09 2.14 4.17c-1.7 1.14-2.64 2.57-1.78 4.66l2.84 6.65 4.52 9.45a16.64 16.64 0 0 1-4.1.09c-1.28-.29-3.13-.91-3.52-1.88-2.83-6.9-6.63-13-12.51-17.74-2.51-2-2.87-4.06 0-6.12 2.94.43 5.86 1 8.81 1.23a15.42 15.42 0 0 0 3.6-.51z" class="D"/><path d="M539 202.1c1.47-.12 3.15-.75 4.35-.25 1.92.82 3.49 2 3.33 4.93-.24 4.46.26 8.8-4.12 11.94-2 1.42-3.29 3.8-4.9 5.74l-5.73-7.87a1.84 1.84 0 0 1-.06-1.59l7.13-12.9zm-6.48 34.58a5.86 5.86 0 0 1 1 1.68c.78 3.89 1.78 4.7 5.4 3.48 4.4-1.49 7.95 1.18 11.72 2.3 1 .29 2.09 3.8 1.51 5.1-.88 2-2.76 4-5.84 2.28-5.57-3.06-11.46-4.83-17.9-3.12z" class="E"/><path d="M462.11 192.19c-2.59-3.57-4.84-7.47-7.87-10.62-2.49-2.57-5.66-.08-8.51.4 2-4.81 6.78-7 13.55-6.18 7.92.94 9.06 2.66 6.3 10.18a43.28 43.28 0 0 1-3.47 6.22z" class="D"/><path d="M219.81 165a15.42 15.42 0 0 1-3.64.51l-8.81-1.23a.58.58 0 0 1-.23-.26c1.78-3.54-1.09-6.07-2-9l-3.09-9c4.7-.23 7 1.84 8.85 4.5s3.46 5.63 5.18 8.46q1.87 3.02 3.74 6.02zm7.72 24.91l-4.52-9.45-2.84-6.65s.08-3.52 1.78-4.66a1.7 1.7 0 0 1 .39.27l3.6 4.11 4.29 8.1 3.33 8.39z" class="E"/><path d="M438.86 94l-10.24 23.74a39.5 39.5 0 0 1-4 7.64c-1.27 1.71-3.38 2.8-5.12 4.17l-1.25-1.19L438.86 94zm14.86 118.39l-10.67-5.11 9.45-4.65c.05.1.08.24.16.29 4.59 3.08 4.75 4.46 1.06 9.47zm65.63-62.61c-1.29 5.55-3.72 11 .51 17l-5.73.44c1.15-6.29 1.87-12.22 5.22-17.44zm-80.65-4.11l-2.67-9.55a2.48 2.48 0 0 1 .51-1.79 11.5 11.5 0 0 1 4 .5 2.43 2.43 0 0 1 .91 2.17l-2.75 8.67zm2.55 47.09l.88 7.54c-5-1.63-5.48-8.14-1.87-13zm-215.31-19.23l-3.6-4.11zm29.95 74.2l-.83-.52.8.55z" class="D"/><path d="M245.55,260.43l-.78-2Z" class="E"/><g class="F"><path d="M609.39,183.82l-15.59,1.53-.29-1.18a14.87,14.87,0,0,1,2.55-.76c3.42-.39,6.85-.81,10.29-.93,1,0,2,.88,3,1.37Z"/><path d="M609.37 183.85l1 1.76-.55.22-.44-2zm-381.84 6.06l6 .11 9 2.53c1.72.54 2.5 1.59 1.24 3.39-.38.53-.81 1.43-.61 1.91 1.45 3.51 0 5.76-2.08 8.79-3.4 4.86-3.7 5.71-9.91 5.36a39 39 0 0 0-5.26.41l-1.14 1.78a15.74 15.74 0 0 1 3.31 1.65 29 29 0 0 1 5.47 5.3c.72 1 .54 3.17-.05 4.42-.32.67-2.39.79-3.62.68a14.81 14.81 0 0 1-5-1.24c-4.62-2.26-8.41-1.25-11.9 2.3-1.63 1.66-4.58 2.75-5 4.59-.36 1.41 2.25 3.55 3.48 5.41 1.93 2.92 4.14 5.45 7.73 6.39a28.89 28.89 0 0 1 3.55 1.37c1.68.69 2.31 1.77 1.48 3.56a13.6 13.6 0 0 0-.86 3c-.57 2.64-1.7 3.11-4.46 2.27-7.41-2.23-10.91-8.57-15.4-13.85-2.9-3.41-5.27-7.28-8.1-10.76-.75-.93-2.35-1.17-3.56-1.71-1.91-.86-4.25-1.27-5.67-2.64-6-5.77-11.84-11.67-17.43-17.81-7.17-7.89-14.14-16-21-24.14a83.28 83.28 0 0 1-7.49-10.75c-.9-1.49-.8-3.57-1.27-6l10.25 4.34c2.68 1 5.42 1.9 8.19 2.66a2.6 2.6 0 0 0 2.12-.63c4.9-4.73 11.24-6.38 17.52-7.82a83 83 0 0 1 16.05-2.2c4.67-.13 9.38.93 14.07 1.47a.58.58 0 0 0 .23.26c-2.83 2.06-2.47 4.11 0 6.12 5.88 4.71 9.68 10.84 12.51 17.74.39 1 2.24 1.59 3.52 1.88a16.64 16.64 0 0 0 4.09-.14zm-25.1 3.34c-4.94-1.05-9.34-2.32-13.83-2.76-1.92-.19-4.21 1-6 2.18-2.12 1.39-1.73 3 .62 4.1 6.23 2.98 13.14 1.92 19.21-3.52z"/></g><path d="M225.86,274,222,275.64c-3.93-1.46-6.94-3.57-8.07-8.12-.6-2.45-3-4.42-3.95-6.85-.63-1.55-.18-3.54-.22-5.33,1.93.31,4.49-.06,5.69,1,4.81,4.43,9.2,9.31,13.77,14.06Z" class="E"/><path d="M147.71 234.26h8.23c.49 0 1.32.41 1.38.73a2.14 2.14 0 0 1-.52 1.75c-3.12 2.17-6.24 4.35-9.53 6.24-.68.39-2-.41-3.09-.68-.09 0-.17-.16-.22-.26l-2.94-6 6.52-2.43z" class="D"/><path d="M443.38,289.42c3.5-.38,4.48-3.55,6.31-5.75a24.59,24.59,0,0,0,1.78-2.83c3.81,2.61,4.75,5.51,3.65,9.24-1.62,5.46-3,11-4.61,16.9,3.65.2,6.89,3.48,10.68.11.85-.76,2.65-.46,4-.65l1.13.24c.1,4.54-2.32,7.83-5.35,10.83-3.64,3.6-5.23,8.41-3.07,12.67,2.51,5,1.94,9.82,2,14.82-9.73-9.15-18.72-18.89-24.81-31-1.56-3.09-3.23-6.19-1.09-9.77.32-.53-.12-1.51-.23-2.48a7.47,7.47,0,0,1,2.41-.46c4.26.75,5.89-1.21,5.81-5.24a8.43,8.43,0,0,1,.61-2.34l.48-3.2Z" class="E"/><path d="M422.9 243.05h2a23.74 23.74 0 0 1 4-1c2-.14 4.08 0 6.13.05l-4.51 5c-.32.33-1.07.21-1.9.35 1.07 3.82-1 4.92-4.21 5.28a10.69 10.69 0 0 0-4.47 1.69c-.6.4-1 2.31-.65 2.72 1.85 2 1.23 4 .57 6.16a17.39 17.39 0 0 0-1.16 5 5.15 5.15 0 0 0 1.67 3.32c2.16 2 4.56 3.7 7 5.65l7.14-1.17c2.72-.41 4 .5 4 3.54s1.7 6.4-2.13 8.18c-1.16.54-3.38.65-4.13-.07-5.28-5.06-11.73-9-15.19-15.87-.41-.82-2.27-.9-3.46-1.33l-5.38.09 1.22-8.54-2.52.51c-.83-4.9-4.27-1.49-6.52-2l-2.74-10.19 4.54 5c1.08.59 2.79.53 4.49.42 2.67-.17 4.65-2.47 3.7-4.89a93.15 93.15 0 0 0-4.6-8.91l3 .51 3.62 2.2c-1.62 2.91.34 4.32 2.5 5.32a3.56 3.56 0 0 0 3.17-.17 43.79 43.79 0 0 0 4.18-5.25l-5.53-1.25 3.55-1.63 2.47 1.21zM460 345c-.1-5 .47-9.85-2-14.82-2.16-4.26-.57-9.07 3.07-12.67 3-3 5.45-6.29 5.35-10.83 2.17.7 4.5 1.1 6.46 2.17 2.77 1.51 3.74 4.06 2.19 7-3.36 6.5-3.76 13.6-4.91 20.63-.64 3.92-3.13 7.9-5.79 11-1.87 2.09-3.51-.59-4.37-2.48zm-75-71.55c.32 2.57 1.49 3.07 3.72 1.73 2.68-1.6 4.22-.88 5.37 2.21 2.39 6.37 7.85 7.21 12.23 2.29.68-.77 2.15-.83 3.25-1.22l1.85 4.66-6.94 11.88-2.1-.66-.44-3-.88-.68c-1.18 1.22-2.42 2.4-3.52 3.69s-1.94 2.6-2.9 3.9l1.95-8.69-1.4-3.6c-1.61.12-3.31.21-5 .4-2.28.25-4.62 1-6.79.7-1.36-.2-3.69-2.5-3.48-3.08a109.55 109.55 0 0 1 5.08-10.53z" class="D"/><path d="M445.45 239.41c-2 2.62-4.26 4.44-7.79 3 0-.46-.08-.93-.11-1.4l-.75-7.94 1.17-2.7 1.71-2.22.12-.1 7.87 5.82zm11 7.07l.3-6.59a22.1 22.1 0 0 1 2.77 2.19l5 6.08c1.57 2.08 1.69 3.94-1.52 6.61l-2.81-4.26-3.74-4.03zm-45.07 36.64l-1.85-4.66-1.3-7.67 5.39-.09c2.32 4.7-.36 8.48-2.24 12.42zm-9 11.21l2.1.66-1.59 2.79a63.06 63.06 0 0 1-3.22 6.16c-.72 1.08-2.08 1.74-3.15 2.6-.39-5.2 3.01-8.54 5.86-12.21z" class="E"/><path d="M436.8 233.06l.75 7.94-1.79-1.6-.72-3.29 1.76-3.05zm6.33 57.49l-.48 3.2zm-85.48-42.2q-2.41 5-4.84 10c-.49-1.79-1.49-2.69-3.27-1.56l-5.94 4.07c-5.09 3.36-7.46 8.5-9.27 14-3.66.23-7.32.64-11 .65a68.27 68.27 0 0 1-10.8-1 35.13 35.13 0 0 0 12.91-10.75c2.83-3.7 2.63-7.64.78-12.49l10 1.68c3 .54 10.45-1.89 12.1-4z" class="D"/><path d="M335.06 186.29c-.36-4-.54-8-1.15-12-.65-4.27.44-7.06 4.29-9.66 6.13-4.13 7.56-3.9 9.72 3.35a49.09 49.09 0 0 0 2.76 6.17l-8.87 1.19zm-.73 88.63c1.81-5.52 4.18-10.66 9.27-14 2-1.32 3.91-2.79 5.94-4.07 1.78-1.13 2.78-.23 3.27 1.56l-2.77 5.9c-.25.85-1 1.94-.67 2.51 1.34 2.67.36 4.76-1.2 6.82zm23.32-26.57l-9.3.7-8.29-3.55 8.71-7.68c1.53 5.81 5.93 5.48 10.3 5.2.15 1.98 1 4.08-1.42 5.33z" class="E"/><path d="M311.36,221.73l4.9-4.52Z" class="D"/><path d="M380.05 395.48l1.71.7zm-6.87-3.18l1.69 1.13zm9.82 4.57l.58.12zM372.22 352c2.87-6.09 2.59-12.21.14-18.34 3.91-2.29 8-3.81 12.67-3.35a2.14 2.14 0 0 0 .56.4c7.31 2.38 8.88 1.25 9.16-6.37a43.62 43.62 0 0 1 .82-7.22c.28-1.35 1.06-3.55 1.84-3.66a7.75 7.75 0 0 1 5 1.29 37 37 0 0 1 6.36 5.83c3.15 3.55 6.44 6.44 12.59 3.89-.64 2.78-.47 5-1.51 6.09-3.3 3.38-2.92 7.68-3.58 11.69-.46 2.77-.74 5.08-4.25 5.76a5.35 5.35 0 0 0-3.26 3.48 99.77 99.77 0 0 0-1.4 11l-2.66 7.17a25 25 0 0 1-.25-3.44c.23-3.85.1-7.68-2.08-11-1.42-2.16-3-4.52-5.09-5.86-2.77-1.77-6.16-2.54-9.21-3.88-2.48-1.1-4.23-.25-5.74 1.68s-3.45 3.81-4.61 6a17.54 17.54 0 0 0-2.11 7 36.07 36.07 0 0 0 1 8.48c.49 2.54 1.29 5 2 7.52l2.27 8.21c-4.66-6.13-6.49-13.36-7.72-20.74-.65-3.78-.65-7.72-.94-11.63zM385 273.45a109.55 109.55 0 0 0-5 10.56c-.21.58 2.12 2.88 3.48 3.08 2.17.33 4.51-.45 6.79-.7l5-.4 1.4 3.6-1.95 8.69c-4.47 3.75-10.17 4.08-15.43 5.71a110.72 110.72 0 0 0-13.68 5.56c-1.71.78-2.63 1-3.51-.9-1.67-3.61-3.47-7.17-5.22-10.74 1.44-.58 3.47-.74 4.2-1.79 3.94-5.75 7.39-11.76 4-19.1l9.81 4.26 1.32-10.59c2.73-1.8 4.65-5 8.42-5.2l1.31 5.19c-.38.92-.68 1.85-.94 2.77zm23.79-30.79l-3-.51a93.15 93.15 0 0 1 4.6 8.91c.95 2.42-1 4.72-3.7 4.89-1.7.11-3.41.17-4.49-.42l-4.54-5a13.08 13.08 0 0 1-2.43-.1 17.25 17.25 0 0 1-3.75-1.12c-1.48-.7-2.84-1.67-4.26-2.52-.87-2.25-.11-3.24 2.31-3.11a4.91 4.91 0 0 0 2.7-.32 15.88 15.88 0 0 0 2.61-2.69c-1-.66-2-1.9-3-1.88-2.83.06-3.93-.74-4.38-3.8-.32-2.11-2.56-3.94-4-6l5-2.53-1.3-1.33c.22 0 .51-.13.67 0 4.52 2.75 4.47 2.73 6.64-2.05a41.79 41.79 0 0 1 2.43-4.11l2-1.25 2 .34c4.37 1.14 4.6 1.8 2.9 6.05a18.64 18.64 0 0 0-.66 4.35l-2.57 2.41c-2.33.26-4.24-3.54-6.67-1.24 1.45 2.15 3.22 3.82 3.79 5.84.82 2.85 2.32 3.53 5 3.48 3.19-.06 3.37-2.16 3.57-4.43a17.78 17.78 0 0 1 2.4 3.84c.39 1.31.1 2.86.13 4.3z" class="E"/><path d="M365 277c3.4 7.34-.05 13.35-4 19.1-.73 1.05-2.76 1.21-4.2 1.79-2-2.49.29-4.55.63-6.81a17.61 17.61 0 0 0 0-4.81c-.29-2.28-1-4.51-1.2-6.79-.17-2.07 3.22-3.88 6.21-3.41a13.31 13.31 0 0 1 2.56.93zm20.85-6.32l-1.31-5.19c-3.77.21-5.69 3.4-8.42 5.2-.78-5.47 4.78-11.59 11.1-12.15a2.36 2.36 0 0 1 1.78 1.16c1 1.91-1.27 9.43-3.15 10.98zm-14.77-15.57c-2.51-.28-3.64-1.38-3.31-3.49.13-.84 1.14-1.54 1.75-2.31l4.24 3.9z" class="D"/><path d="M393.54 440.05l2.66 3.41c-2.46.09-2.92-1.38-2.66-3.41zm5.69 6.95l2.43 1.32.92.94c0 .38-.07.75-.11 1.12z" class="E"/><path d="M402.47,450.33c0-.37.07-.74.11-1.12l1.05,1.39Z" class="D"/><path d="M391.15 436.44l.85 1.54zm5.14 7.11l1.29 1.31zm1.71 1.89l.86.89zM258.39 367l-2 1.4zm-2.78 2.06l-.72.46zm.79-.63l-.71.59z" class="E"/><path d="M203.85,395.44c1.24-.82,2.38-2.11,3.73-2.37,7.85-1.56,15.75-2.91,23.64-4.25,1.95-.33,4.24-.54,4.88,1.94.56,2.18-1,3.31-3,3.82-.36.09-.62.59-.92.91l-6.07.28-10.54-.11-2.64.06Z" class="F"/><path d="M215.55 395.66l10.54.11zm-11.7-.22l9.06.28-9.89.14zm39.53-.24l1.36-.12zm36.1 35.85l-1.07 2.31 1.07-2.31zm-1.23 2.95l-1.17 2.11zm2.59-5.71l-1.14 2.22zm120.25-7.61c-1.1-3.78-2-7.55.5-11.18l-.5 11.18zm23.1-29.19l-.16.19-.21-.35c.09 0 .19-.09.25-.06s.08.15.12.22z" class="E"/><path d="M328.92 379.78l.41-1.66.34.05h.35l.33.32z" class="D"/><path d="M330 378.14h-.35l-.34-.05 1.31-4.86-.62 4.91z" class="E"/><path d="M380.87 384.41l-2.27-8.21-2-7.52a36.07 36.07 0 0 1-1-8.48 17.54 17.54 0 0 1 2.11-7c1.16-2.21 3-4 4.61-6s3.26-2.78 5.74-1.68c3.05 1.34 6.44 2.11 9.21 3.88 2.1 1.34 3.67 3.7 5.09 5.86 2.18 3.3 2.31 7.13 2.08 11a25 25 0 0 0 .25 3.44q-3.16 7.86-6.34 15.7l-.49.93-2.45 3.11-1.7 1.56-.11.11a13.2 13.2 0 0 0-3-.52c-3.46.23-6.35-.18-7.29-4.33-.16-.7-1.52-1.12-2.33-1.68z"/><g class="E"><path d="M381 384.61c.81.56 2.17 1 2.33 1.68.94 4.15 3.83 4.56 7.29 4.33a13.2 13.2 0 0 1 3 .52c-3.27 4.73-5.54 5-8.81.59-1.61-2.13-2.58-4.73-3.81-7.12z"/><path d="M393.71 391l1.72-1.64zm4.17-4.72l.49-.93-.49.93z"/></g><path d="M367.39,208.57c2.65-3.24,8.85-3.48,13.08-.36,2.32,1.71,4.71,3.49,4.61,6.88a26.5,26.5,0,0,1-4.56-1.62c-2-1.17-3.91-2.67-5.85-4-3.64.1-5.34,2-5.12,5.61Z" class="F"/><path d="M369.55 215.06c-.22-3.63 1.48-5.51 5.12-5.61a71.19 71.19 0 0 1 2.19 6.82c.53 2.37 2.77 5.53-.83 6.92s-4-2.46-5.12-4.63a28.49 28.49 0 0 1-1.36-3.5zm-21.3 13.83c-2.82-3.48 1.3-9.63 7.4-11.46-.65 5.15-4.51 7.77-7.4 11.46z" class="E"/><path d="M398.83 217.7l-2 1.25-.69-5.79 8.33-.2 3.08 1 .43 1.79-5.24.74c-1.3.32-2.59.82-3.91 1.21z" class="F"/><path d="M370.39,233.41a39.27,39.27,0,0,1,.09-5.64c.1-.72,1.3-1.91,1.85-1.84a36.26,36.26,0,0,1,5.43,1.52,10.86,10.86,0,0,1-1.62,3.08,43.51,43.51,0,0,1-4.53,3.4Z" class="E"/><path d="M436.8 233.06l-1.76 3.05-.3-4.87 1.53-3.6c2.79-1.64 5.39-3.92 8.4-4.76 4.62-1.31 5.19-.56 6.52 4.6l1.59 6.3c.74 2.73.18 4.48-3 4.71a29.3 29.3 0 0 0-4.29.92l2.22-5.55c1.91-2.56 1.89-5.19-.3-7.42-1.74-1.8-4.93-1-7.57 1.6l-.12.1-1.72 2.22zm-24.35-37.16c3.73-1.75 7.42-3.58 11.2-5.19a22.33 22.33 0 0 1 4.53-.93c2.14 4.43 4.4 8.82 6.35 13.33.75 1.73.81 3.77 1.18 5.67-1.45 1.55-2.85 3.14-4.37 4.62-.29.28-1 .09-1.56.13l.36-4c.61-4.23-1.31-6.26-5.19-8.16-5.35-2.6-8.07-2.06-9.61 3.7-2.69 4.16-.59 8.5-.5 12.76a.36.36 0 0 0-.44-.14l-1.44-2-1.66-13.35a36.89 36.89 0 0 1 .35-5.73z" class="F"/><path d="M408.79 242.66c0-1.44.26-3-.17-4.32a17.78 17.78 0 0 0-2.4-3.84l-5.69-3.65 2.57-2.41 1.36-.29 1.63-.79 1.31-.39 1.48-1.11a3.52 3.52 0 0 0 .63-.27 6 6 0 0 0 1.89-.52c4-2.77 4.45-2.62 5.77 2-5.58 3.58-6.86 6.11-4.73 9.37 2.65-5.51 3.9-6.7 8.09-7.66 2.75-.63 3.72.25 3.16 3.05-.53 2.6-1.24 5.16-1.87 7.74l-1.54 2.34-3.55 1.63-2.11 2.23-2.21-.88-3.62-2.23z"/><path d="M415.34 205.09c1.54-5.76 4.26-6.3 9.61-3.7 3.88 1.9 5.8 3.93 5.19 8.16-.22-.09-.44-.3-.63-.27-5.4.88-9.38-3.03-14.17-4.19zm6.48 34.45l1.87-7.74c.56-2.8-.41-3.68-3.16-3.05-4.19 1-5.44 2.15-8.09 7.66-2.13-3.26-.85-5.79 4.73-9.37a18.28 18.28 0 0 0 3.06-.37c5.15-1.47 8-.12 10.08 7.44-3.1-.6-5 .74-6.16 3.53-.34.82-1.53 1.28-2.33 1.9zm-10.17-42.94a36.89 36.89 0 0 0-.35 5.73c.42 4.46 1.09 8.9 1.66 13.35a19.52 19.52 0 0 0-3.12-1.87c-.62-.25-1.49.11-2.24.2l-3.09-1 2.33-2c-1.69-8.3-.36-12.3 4.81-14.41zm18.13 16.93c.53 0 1.27.15 1.56-.13l4.37-4.62c1.94 9.93-7.19 14.63-13.25 14.23zM407.4 227l-1.31.38-1.63.8-1.36.29a18.64 18.64 0 0 1 .66-4.35c1.7-4.25 1.47-4.91-2.9-6.05-.66-.17-1.35-.23-2-.34l3.95-1.16c1.73-.34 3.49-.5 5.24-.74 3.49 2.81 1.58 6.44 1.49 9.79a2.89 2.89 0 0 1-.63.26zm28.87.64l-1.53 3.6zm-21.87-9.93a.36.36 0 0 1 .44.14l.35.8-.29.12-.5-1.06z" class="D"/><path d="M422.9 243.05h-.15z" class="F"/><path d="M508.68 241.5h0z" class="E"/><path d="M202.43 193.25c-6.07 5.44-13 6.5-19.17 3.52-2.35-1.12-2.74-2.71-.62-4.1 1.75-1.15 4-2.37 6-2.18 4.45.44 8.85 1.71 13.79 2.76z" class="D"/><path d="M412.41 244.86l2.21.88 2.11-2.23 5.53 1.25a43.79 43.79 0 0 1-4.18 5.25 3.56 3.56 0 0 1-3.17.17c-2.16-1-4.12-2.41-2.5-5.32z" class="E"/><g class="D"><path d="M439.8,228c2.64-2.57,5.83-3.4,7.57-1.6,2.19,2.23,2.21,4.86.3,7.42Z"/><path d="M438 230.36l1.71-2.22zm-37.47.49l5.69 3.65c-.2 2.27-.38 4.37-3.57 4.43-2.68 0-4.18-.63-5-3.48-.57-2-2.34-3.69-3.79-5.84 2.43-2.3 4.34 1.5 6.67 1.24z"/></g><path d="M407.4 227l1.48-1.12zm-2.94 1.15l1.63-.8z" class="E"/></svg>