<svg xmlns="http://www.w3.org/2000/svg" viewBox="0 0 720 720" xmlns:v="https://vecta.io/nano"><style><![CDATA[.D{fill:#9f7b2f}.E{fill:#341012}.F{fill:#792330}]]></style><path d="M0 0h720v720H0z"/><path d="M401.08 511.55a.58.58 0 0 1-.52-.27l-.93-.66-23.15-18.15c-.64-.5-1.16-1.16-1.83-1.59-2.28-1.45-3.49-.88-3.43 1.8.1 4.16.4 8.32.68 12.47l4.26 62c1.63 26.71.49 53.41-1.16 80.08l-4.48 68.87a17.68 17.68 0 0 0 .64 4h-27.78l1.87-21 4.21-58.15c3.21-42.13 1.57-84.16-2.12-126.17l-3-37.35c-.31-4-1.61-5.56-4.75-4.31-8.71 3.45-17.44 2.8-26.28 1l-1.89-.14-5.95 1.88v.32h.53c.48-2.75-1-4.38-3.08-5.93-5.45-4.13-10.39-8.76-13.56-15-2-4-3-4.17-6.93-1.84-1.23.72-3.33 1.89-3.92 1.43-3.16-2.48-6.17-1.69-9.44-.58a4.85 4.85 0 0 1-3.37-.28c-1.09-.53-2.75-1.88-2.6-2.52a6.8 6.8 0 0 1 2.6-3.5c.94-.69 2.46-.55 3.55-1.1.56-.29.74-1.3 1.09-2-.67-.32-1.37-1-2-.91-2.85.29-5.85.31-8.48 1.29-5.9 2.21-11.6 4.94-17.39 7.43a8.69 8.69 0 0 1-1.47.33l-.37-.53 3.35-3.65 10.09-5.16 13.83-2.79c1.85-.41 3.63-1.14 5.45-1.73l-.28-1.16-3.84.2-4-.31 11.11-12.77a6.07 6.07 0 0 1 7.08-2c6 1.91 8.58 6.38 10 12.06a125.72 125.72 0 0 0 3.63 12.84 5.26 5.26 0 0 0 3.46 2.84c2.31.4 4.76 0 7.16-.12l.47-.51a22.4 22.4 0 0 0 2.57.9c7.11 1.46 13 4.28 17.31 10.83 2.41 3.68 6.77 6.13 10.43 8.91.85.64 2.47.56 3.67.4 2.84-.39 5.67-.92 8.46-1.57 6.57-1.55 12.34-4.28 16.43-10.09 1.3-1.83 3.7-3 5.74-4.16a2.55 2.55 0 0 1 2.45.35 3.05 3.05 0 0 1 .18 2.55c-1.53 4.23-3.24 8.39-4.81 12.61a8.34 8.34 0 0 0-.77 3.64c.46 3.64 1.21 7.24 1.64 9.7 2.52 1.63 4.48 2.71 6.23 4.07s3.58 3.24 5.41 4.82c4 3.48 8.23 6.73 12 10.44 2.35 2.3 4.02 5.27 6 7.94z" class="D"/><path d="M307.67 450.72c-2.4.08-4.85.52-7.16.12a5.26 5.26 0 0 1-3.46-2.84 125.72 125.72 0 0 1-3.71-12.84c-1.39-5.68-4-10.15-10-12.06a6.07 6.07 0 0 0-7.08 2l-11.11 12.77 4 .31-15.41 2.82-3.48-.12h-1.32c-14.17.09-27.39-4-40.38-9.13a68 68 0 0 1-7-3c-2.35-1.24-2.89-3.41-2.3-5.94 2.65-11.31 8.4-20.14 19.31-25.23 2.35-1.1 4.08-3.53 6.09-5.35 1.7-3.91 5.16-5.16 9-5.9a4 4 0 0 0 1-.37c2-1 3-2.45 1-4.27-1.67-1.51-3.48-3.19-5.54-3.89-5.37-1.81-8-6.7-11.95-10-3.71-3.16-6.64-7.23-10-10.79-.65-.67-1.85-.82-2.79-1.22-1.46-3.61-2.78-7.3-4.42-10.83-1.53-3.31-2.81-6.4-1.36-10.22 1-2.65-1.37-3.38-3.43-4.15-6-2.26-12.15-4.21-17.11-8.7a41.73 41.73 0 0 1-12.2-20.53 77.67 77.67 0 0 1-1.7-31c.42-3.2.1-6.54.8-9.66a11.48 11.48 0 0 1 3.38-6.08 101.12 101.12 0 0 1 30-16.24c8-2.85 16.39-4.58 24.78-2.08 5.79 1.73 9.83 6.18 13.55 10.85l14.64 17.86a64.32 64.32 0 0 0 5.71 6.49 12 12 0 0 0 5.36 3.14 27.86 27.86 0 0 0 8.25-.12c2.95-.34 4.14-2.36 3.57-5.22-1.29-6.45-3-12.83-4-19.33-1.84-12.56-3.76-25.14-4.64-37.79-.37-5.19 1.54-10.66 3-15.83 1-3.53 3.32-3.93 6.93-2.87 12.34 3.63 21.14 11.86 28.66 21.77 7.26 9.56 14 19.39 18.69 30.58 1.76 4.21 4.56 8 7.09 11.88 2.13 3.23 4.55 2.93 7.21-.05 4.3-4.83 8.73-9.56 13.41-14 3.77-3.59 6.64-3.68 11.11-.71 2.72 1.81 5.13 4.11 7.67 6.18l-2.26-.24 7.89 8.57 3.76-15.08-1.21-.41-4.42 6.54c2.91-7.88 5.59-15.67 6.75-24.2.95-7 4.88-13.57 7.71-20.24 1.26-3 3.24-5.59 4.61-8.51 8-17 22-26.51 39.4-31.77 3.64-1.1 7.39-1.9 11.12-2.67 3.15-.66 5.6.11 7.88 2.87 12.7 15.44 16 33.22 12.88 52.38-1.15 7-3.83 13.71-6.24 20.41-1 2.86-3.15 5.32-4.77 7.95-.35 0-.83-.13-1 .05-5.06 4.87-10.62 9.35-15 14.78-5.63 7-10.35 14.69-15.36 22.15-1.66 2.48-3.56 3.52-6.66 3.07-2.31-.34-4.75.23-7.13.39v1.27l15.29 3.52a13.82 13.82 0 0 0 6.16.15 6.82 6.82 0 0 1 7.26 1.66l.91 3v-.09c2.7 3.15 6 3.08 9.74 2.21 5-1.16 10.06-2 15.09-2.95 1 1.84 8.73 4.61 11 3.7 3.71-1.48 7.32-3.2 11-4.82-.05-.28-.09-.57-.14-.86h-6.74c6.21-.24 12.41-.74 18.61-.63 3.6.06 5 2 3.53 5.41a147.56 147.56 0 0 1-8.99 17.91c-2.86 4.84-6.53 9.21-9.85 13.79a13.32 13.32 0 0 0-2.77 1.14l-13.93 10c-.54.4-1.31.86-1.43 1.42-1.09 4.91-2.58 9.81-2.91 14.79-.34 5.35.45 10.77.75 16.16-1.77.9-4.39 2.32-4.14-1.11.4-5.61-2.75-9.63-5-14-2.71-5.24-2.75-5.71 2.5-8.95.69-.42 1.61-.68 2-1.28a3.88 3.88 0 0 0 .8-2.66c-.76-3.1 1.75-6.88 5-7.18l4.44-.4-7.42-8.36 2.47-1.16 13.74-6.46c3.54-1.59 4.59-4.76 5.22-8.07s-1.78-5.49-4.21-6.93c-.88-.53-3.08.6-4.37 1.44-3.37 2.2-6.59 4.51-8.37 8.48-1.12 2.51-3.57 2.45-5.31.35-3.17-3.82-6.25-7.73-9.58-11.42-1.1-1.21-2.86-1.83-4.32-2.72-.75 1.5-1.82 2.94-2.16 4.53-.67 3.12-2 3.76-4.85 2.21-3.06-1.65-5.22-3.56-5.88-7.39s-5.05-5-8.11-2.76c-2.24 1.65-3.16.72-4.68-1.15a26.38 26.38 0 0 0-6.94-5.9c-1.11-.66-3.44-.19-4.74.58a87.92 87.92 0 0 0-8.51 6c-1.22.92-2.31 2-3.46 3 1.36.92 2.67 1.91 4.08 2.72 2.54 1.46 5.37 2.52 7.68 4.28 3 2.27 2.74 3.94-.27 6.67a16.72 16.72 0 0 0-.81-3.52c-1.7-3.59-13.08-4.16-16.82-1.12l-9.07-7.81a24.27 24.27 0 0 1 2.17-1.26c4.51-1.93 5-4.39 1.46-7.8q-4.82-4.69-9.63-9.39c-2.65-2.6-2.65-3.1.64-5.08 2.59-1.55 4-3.77 2.19-6.25a14.72 14.72 0 0 0-6.1-4.57c-1.56-.65-3.7.11-5.59.24v-6c-5.07 2.31-7.49 1.7-10.42-3-1.86-3-4.51-3.31-7.21-2.17-2.13.9-3.72 3.1-5.85 4-4.67 2-4.9 6.12-5.08 10.12-.06 1.21 1.16 2.92 2.29 3.65 4.08 2.65 8.5 3.42 13.17 1.36a25 25 0 0 1 4.11-.95 54.12 54.12 0 0 1-.94 6.12c-1.08 4 .79 6.93 4.93 7.3a46 46 0 0 0 4.84 0v.07l-.71 2.71c-4.1.87-9-1.26-12.19 3.08 1.41-4.42-1-7.25-4.08-9.78-2.59-2.16-3.55-1.88-5.46.92-.77 1.13-2.06 2.67-3.14 2.7-7 .18-13.93 0-20.89-.06 3-2.24 5.78-4.88 9-6.64 5.76-3.12 6.17-4.13 6.49-10.48a18.26 18.26 0 0 0-4.8-13.8 60.24 60.24 0 0 1-3.64-5.1l-1.06.39a29.16 29.16 0 0 0-.35 3.21c0 5 .4 10 .06 14.9-.15 2.18-1.48 4.4-2.67 6.36-2.13 3.52-4.63 6.81-6.82 10.3-.61 1-1.29 2.6 1.15 2.45 1.55.73 3.17 1.36 4.64 2.24a30.18 30.18 0 0 1 3.24 2.57c-1.06.36-2.65.42-3.05 1.15a21.06 21.06 0 0 0-1.67 5.38 2.69 2.69 0 0 0 1.27.69c1.23-1.34 2.36-2.76 3.52-4.17.23 2 .54 4 .68 6.06.11 1.45 0 2.81 2.18 2.51 4.05-.55 8.12-1 12.18-1.42 2-.23 2.71.81 2.42 2.7-2.77.09-5.62-.18-8.28.41a10 10 0 0 0-5.26 3.18c-.63.77.44 2.94.74 4.48a19.89 19.89 0 0 1-3.86-2.63c-.81-.86-.81-2.43-1.54-3.41-1.4-1.91-2.94-3.95-5.84-2.86-2.16.82-4.22 1.94-6.43 2.59-2.93.86-6 1.4-9 2.08l-2.05.13-.92.33-2.41-.07c-.22-1.28-1.08-3.18-.55-3.72 3.54-3.61 7.05-7.4 11.21-10.18 3.72-2.49 4.26-2.69 1.18-5.88.66-1.27 1.32-2.61 2.07-3.91 3.33-5.77 7.22-11.29 9.9-17.35 3.86-8.76 2.24-17.68-1.52-26.14-2.53-5.7-7.5-9.11-12.74-12.15-4.11-2.38-4.48-2.15-5.74 2.62-1.2 4.54-2.36 8.91-7.64 11.15-4 1.7-7.52 4.74-10.93 7.58a9.23 9.23 0 0 0-3.62 8.88 15.69 15.69 0 0 1-.69 5.76c-.86 3.53.23 6 3.47 7.53 3 1.34 4 4 4.48 6.94.24 1.48.55 2.95.67 4.44a25.42 25.42 0 0 1-.15 3.25 14.11 14.11 0 0 1-3.29-1.08q-6.57-4.14-13-8.51c-1.86-1.27-2.87-.64-3.86 1.07-1.11 1.89-2 4.14-3.68 5.42-3.42 2.67-3.91 5.81-3.27 9.79.3 1.84-.66 3.89-1.05 5.84l-1.43-.07a11.33 11.33 0 0 1-1.18-3c-.39-4.81-.66-9.63-.9-14.45-.09-1.72.15-3.46 0-5.18-.19-2.7-1.7-4.12-4.46-4.38-2.52-.24-5-1-7.53-1-1.39 0-3.37.49-4.08 1.48-1.6 2.25-3.45 2.19-5.77 1.93l-23.74-2.44c-6.8-.9-11.24 1.4-13.8 7.89-.83 2.12-3.59 3.53-4.27 5.65-1.46 4.56-1.91 9.27 1.6 13.46 5.08 6.07 6.78 13.52 8.2 21 .89 4.73 2.18 5.83 6.81 5a128.28 128.28 0 0 0 28.07-8.45 12.26 12.26 0 0 1 3.25-.42c0 1 .45 2.27 0 2.85-2.76 3.5-.36 4 2.38 4.45 3.66.54 6.5 1.66 5.87 6.31-.13 1 .8 2.11 1.38 3.09 1.29 2.19 2.79 4.27 4 6.52a15.48 15.48 0 0 1 .88 3.74l-1.06.35a79.1 79.1 0 0 0-6.07-5.52c-8-6-17.62-5.62-26.94-5.94-1.31-.05-3.23 1.81-3.92 3.25a23.15 23.15 0 0 0-2.15 7.9c-.13 1.55.69 4 1.87 4.68a23.42 23.42 0 0 0 8.63 3.09 32.3 32.3 0 0 0 16.7-1.93 2.66 2.66 0 0 1 2.43.43 2.47 2.47 0 0 1-.09 2.41c-2.5 2.88-5 5.72-9.22 6.29-6 .81-8.46 5.55-4.52 10a30.25 30.25 0 0 0 12 8.33c3.16 1.12 7.84.14 11-1.53 3.83-2 6.26-.67 9.12 1.1a31.89 31.89 0 0 0-4.26 1.32 3.85 3.85 0 0 0-1.72 1.9c-.16.37.41 1.28.89 1.64a5 5 0 0 0 7.39-1.93c3.41-.82 3.11-3.4 1.84-5.35-.94-1.43-3-2.39-4.81-2.92-2.73-.82-3-2.18-1.7-4.34.41-.69 1-1.29 1.35-2 2.13-4.59 6.95-8.65 2.9-14.54-.08-.13 1.44-1.95 2.07-1.87a33.25 33.25 0 0 1 5.29 1.57c2.26.68 2.92 1.83 1.09 3.67-1.33 1.34-2 2.73-.07 4 2.63 1.74 2.53 4.12 2 6.75-.48 2.21-.8 4.46-1.19 6.69l-2 8.89c-.81 1.2-2.06 2.31-2.34 3.62-.54 2.49-2 2.38-3.57 1.61-4.14-2-7.49-1.16-10.37 2.35A4.46 4.46 0 0 1 251 392c-3.38.76-6.76 1.54-10.19 2-6.65.92-12.76 2.83-17.94 7.46-1.93 1.73-2.2 3-1.48 5.31a41.59 41.59 0 0 1 1.24 8c.18 1.71-.12 3.48.12 5.17.58 3.88 1.68 4.75 5.39 3.3 7.38-2.88 15.18-5 21.2-10.67a29.06 29.06 0 0 1 3.28-2.55c2-1.42 4-.77 4.31 1.67a8 8 0 0 1-.66 4.69 65.58 65.58 0 0 1-5.7 8.62c-1.69 2.15-1.65 3.94.17 5.81 2.72 2.78 6.25 5.12 9.85 3.83 4.34-1.57 9.63-2.52 10.73-8.92.68-4 3-7.65 4.57-11.47l7-.56a52.33 52.33 0 0 0 7.32-.76c3.57-.86 4.09-.59 3.86 3.06-.16 2.64-.64 5.34 2.79 6.65.72.28 1.17 1.92 1.29 3l1.94 17.91a20.12 20.12 0 0 0 .88 2.89c1.21-1.81 1.93-3.06 2.82-4.19a60.74 60.74 0 0 1 6-7.3c2.76-2.59 3.46-9 .55-11.58-1.92-1.68-2.4-3.59-.57-4.95 4.11-3 8.3-6.7 13.91-5.77 4 .65 6.73-.36 9-3.49.95-1.3 2.19-2.38 3.23-3.62 2.06-2.44 1.42-4.24-1.69-4.83-4.45-.86-7.82 1.93-7.92 6.39a9 9 0 0 1-1 2.73l-2.24-1.29c-.86-.48-2-1.56-2.56-1.34-5.93 2.27-8.8-4.89-14.37-4.39 2.1-2 4.55-3 6.46-4.63 1.62-1.4 3.43-3.43 3.62-5.34.12-1.26-2.39-2.86-3.84-4.19a17.49 17.49 0 0 0-3-1.69l4.5-2.08-1.9-2.55a6.61 6.61 0 0 0 1.4-.84c1.05-1.15 2-2.36 3.05-3.55-1.52-.78-3-2.13-4.57-2.17-1.79-.06-3.6 1-5.57 1.69a5.17 5.17 0 0 0-.52-1.61c-.83-1-1.79-1.95-2.7-2.92a18.16 18.16 0 0 0-2.72 3.42c-.44 1 0 2.31-.17 3.43-.38 2-1 3.92-1.47 5.88h-1.17c.26-4.26-.89-7.67-4.86-9.63-.32-.15-.18-2.22.37-2.89s1.87-.76 2.87-1c7.2-2.08 7.2-2.08 6.78-9.49 0-.17.25-.36.66-.91l4.69 1.47c-.07.74-.48 1.85-.14 2.16 2.3 2.18 1.22 4.39.34 6.66-.3.77-.47 1.6-.84 2.91 5.22-4.62 6.17-7.33 4.24-11.2 2.21-1.2 3.82-2.86 2.9-5.53s-3.19-1.86-5.28-1.75a58.21 58.21 0 0 1-6.84-.39l4.08-6.88c3.42 0 3.91-2.89 5.09-5.1v10c3.63-.22 5.52-3.16 4.64-8.1 3.54-1.6 7.31-2.86 10.55-4.93 2-1.29 1-4-1.47-4.59a46.7 46.7 0 0 0-6.17-.58 6.88 6.88 0 0 1 2.06-1.19c3.26-.52 3.68-2.52 3.13-5.3-.35-1.8-.4-3.65-.59-5.47 3.41-.15 6.83-.45 10.25-.4 4.28.06 4.55.47 4.54 4.86a6.1 6.1 0 0 0-2 .61c-.38.29-.25 1.27-.63 1.55-3.95 2.93-4.5 5 .59 7.7 2.72 1.45 1.77 4.18-1.5 5.54-1.87-3.49-3.45-3-5 .42-.44 1-1.67 1.55-2.52 2.34l-3.85 3.64.35.93a16 16 0 0 0 3.53-.05c2-.48 3.92-1.37 5.93-1.82a3.15 3.15 0 0 1 2.68.54 2.93 2.93 0 0 1-.32 2.67 9.36 9.36 0 0 1-2.76 2l-5.52 3.29c-2.61 1.58-4.69 4.85-8.49 2.41l-1.95 5.3-2.26 5.9c2.42-.3 3.94-.54 5.47-.66 1.08-.08 2.18 0 3.27 0-.06 1.1-.07 2.21-.2 3.29s-.39 2-.59 3l1.57 1.11a9 9 0 0 1 1.44-2.72 3.26 3.26 0 0 1 2.64-.76 25.15 25.15 0 0 1 5.28 2.54 15.51 15.51 0 0 1 2.55 2.57 32.69 32.69 0 0 1-2.78 2.23c-1.29.82-2.68 1.48-4 2.21l.41.91c1.93 0 4-.37 5.75.12a5.9 5.9 0 0 1 3.65 2.89c.29.73-1.42 2.49-2.51 3.47a55.42 55.42 0 0 1-4.94 3.62l.58 1.11a47.82 47.82 0 0 1 5.23-1.13c1.84-.19 3.72 0 6.19 0-.25-1.21-.9-2.73-.77-4.17s.88-3.61 1.71-3.78c2.16-.46 4.52 0 6.81.11-.18.93-.09 2-.58 2.75-1.05 1.51-2.51 2.73-3.56 4.24a2.43 2.43 0 0 0 0 2.31 2.7 2.7 0 0 0 2.42.26c1.12-.52 1.95-1.63 3.05-2.25 2.27-1.29 4.75-1.66 6.74.3s1 4.25-.37 6.27c-1.12 1.62-2.27 3.22-3.28 4.9a7.37 7.37 0 0 0-.53 2.09l.89.78c1.82-1.59 3.7-3.1 5.43-4.77 2.25-2.19 4.35-2.92 7.31-.91s6.37 3.46 9.68 5.2a13.12 13.12 0 0 0 .74-1.52c1.2-4 2.18-8.1 6.57-10.07.5-.23.73-1.3.89-2 .43-2.06.75-4.14 1.14-6.21.23-1.17.5-2.33.76-3.49-1.1-.22-2.41-.9-3.25-.53a6.18 6.18 0 0 0-2.5 2.8 11.72 11.72 0 0 0-.62 3.34c-2.81.47-4.28-.58-5.34-2.94-1.72-3.84 3-2.22 3.39-4.19-2.57-3-4.11-3.48-7.65-3.19-1.16.1-3-.47-3.48-1.31-.76-1.48-.67-3.41-.89-4.81l-5.52-2.74-.79-4.37 5-.59c2 3.24 3.78 6.74 6.23 9.65s4.67 2.87 7 0c1.39-1.7 1.36-4.57 2-6.92l2.68 1.37a69.54 69.54 0 0 0 1.26 8.74c.23.89 2 1.37 3 2 .43-.82 1.41-1.8 1.22-2.44-1.36-4.73-.55-10-3.71-14.27l2-2c2.41 1.2 4.82 3.3 7.25 3.32 1.95 0 4-2.35 5.83-3.92a2.75 2.75 0 0 0 .21-2.72c-1.8-2.34-3.58-4.9-7.06-4.9l6.95-4.43 1.34 5.49c2 3.7 2 7.15-1.24 10.23-.08.07.09.42.34 1.42l4.47-1.15 3.09-.88q1.15 2.44 2.32 4.89c-3.11.49-7.42 7.31-6 9.94.35.66 2.64 1.14 3.24.67a17.58 17.58 0 0 0 3.81-4.57 4.32 4.32 0 0 0 .16-2.84 18.62 18.62 0 0 0-1.15-3.18c1.25-.25 3.52-.36 3.58-.77.3-2.32 2.66-5.06-.75-7l3.28-2.31 1 .73a62.84 62.84 0 0 0-1.12 6.63c-.17 2.55 0 5.13.08 7.7a34.27 34.27 0 0 0-2.72 2.67c-2.15 2.62 0 4.89 1.09 6.93.36.65 2.94.56 4.25.1 3.26-1.14 3.1-6.67-.16-9.88 2.51-.63 6.34.14 4.86-4.72-.15-.49.74-1.36 1.25-2a37.08 37.08 0 0 1 4.66-5.31 12 12 0 0 1 5.64-2.72c.78-.11 2.18 2.29 2.81 3.75a59.7 59.7 0 0 1 2.42 7.58c.26 1 .58 2.37.1 3-2.87 3.65-2.11 7.88-2.28 12-.08 2 .19 4.95-2.43 4.91-1.57 0-3.26-2.31-4.62-3.83-.71-.8-.68-2.2-1.23-3.2-1-1.92-2.25-3.76-3.4-5.63l-1.25.31c-.25 2.45-.57 4.89-.73 7.35-.11 1.6.21 3.24 0 4.82-.35 2.64-4 5.81-7.06 5.49-1.31-.14-2.52-2.42-3.55-3.89s-1.79-3.52-3-5-3-1.87-4.29.08c-1.91 3 .92 9.13 4.38 9.95 1.5.36 3 .93 3.64 1.15l-3.34 16.92-1.77 3.12 6.69 7.88c-4.63 5.84-9.13 11.79-14 17.45-2.24 2.61-5.5 2.59-8.71 1.68a23.21 23.21 0 0 0-4.69-1c-4.06-.29-4.43-.87-2.48-4.65l7.81-15.06c1.94-3.76 4.41-7.35 5.68-11.33 1.52-4.73 2-9.8 3-14.83-4.27-2-5.74-1.83-8.3 2.07-1.76 2.66-2.86 5.76-4.24 8.67-.49 1-.94 2.11-1.41 3.17l-1-.21v-3.17a37.87 37.87 0 0 0 0-6.21c-.39-2.46-2.36-3.18-4.39-1.92-3.8 2.36-6.84 9.64-1.67 13.17a12.54 12.54 0 0 1 2 2.37c1.5 1.77.92 2.86-.54 4.65a39.28 39.28 0 0 0-6.07 10.16c-1.15 2.89-2.33 4.24-5.5 3.69-4.55-.79-9.25-1-13.7-2.14-6.91-1.79-12.23 1-16.79 5.41s-4.46 17.11 0 21.89a3.54 3.54 0 0 0 3.39.49 28.47 28.47 0 0 0 5.87-5.3c3.29-4 6.3-8.23 9.39-12.39 1.5-2 3-2.53 5.19-.78a41.91 41.91 0 0 0 5.83 3.31l1-4.09c3.58 2.44 7 4.39 9.85 6.91a4.86 4.86 0 0 1 .66 4.66c-3 4.71-6.4 9.12-9.64 13.65a29 29 0 0 0-2.47 3.76c-.86 1.73-.23 3 1.75 3.2a72.58 72.58 0 0 0 8.17.68c5.05 0 9.68-1.1 12.34-6.07h0l4.24-2.73 1.13-.34 3.13.9-2.56 4.63c-3.74 1.29-4.06 4.7-4.61 7.8-1.61 9 .27 17.41 4.27 25.5 2.15 4.34 6.39 5.63 10.37 2.86 1.12-.79 2.09-1.81 3.14-2.72 4-3.53 7.76-3.62 12.63-1.28 2.53 1.22 6.32 2.62 8.28 1.57 2.77-1.49 1.23-5.35.19-7.94-3.25-8.13-6.47-16.31-10.39-24.13-2.16-4.3-5.07-8.61-10.44-9.89h0a15.78 15.78 0 0 0-2.61-2.62c-2.61-1.62-3.32-3.27-1.53-6.18a119.16 119.16 0 0 0 5.3-10.68l.85-1.33c2.74-3.49 5.69-6.85 8.18-10.52 2.28-3.37 4.66-6.28 9-6.91a11.12 11.12 0 0 0 2.68-1.22c-3.57-5.12-4.74-5.61-9.84-4a25.75 25.75 0 0 1 2.82-15.86c1-1.75 1.84-3.54 2.76-5.32a4 4 0 0 1 3.27-1.52 60.29 60.29 0 0 1 6.27.55c-.42 1.92-.46 4-1.33 5.72-3.51 6.82-4.23 17.64 2.6 22.06-.68 1.45-1.46 2.86-2 4.35-1.35 3.72-3.33 6.48-7.82 6.58a7.06 7.06 0 0 0-4.14 1.49c-4 3.39-7.67 7.13-11.66 10.53-2.7 2.31-2.8 5.4-3.07 8.44-.24 2.87 3.6 5.71 5.91 4.55l14 17.47c5 6.39 6.21 14.16 6.43 21.8.23 8.37-.86 16.8-1.55 25.19-.27 3.3-2.25 4.62-5.64 3.72a71.5 71.5 0 0 1-23-10.9c-3.09-2.18-6.06-4.52-9.08-6.79-2-2.67-3.65-5.64-6-7.94-3.78-3.71-8-7-12-10.44-1.83-1.58-3.51-3.34-5.41-4.82s-3.71-2.44-6.23-4.07c-.43-2.46-1.18-6.06-1.64-9.7a8.34 8.34 0 0 1 .77-3.64l4.81-12.61a3.05 3.05 0 0 0-.18-2.55 2.55 2.55 0 0 0-2.45-.35c-2 1.2-4.44 2.33-5.74 4.16-4.09 5.81-9.86 8.54-16.43 10.09-2.79.65-5.62 1.18-8.46 1.57-1.2.16-2.82.24-3.67-.4-3.66-2.78-8-5.23-10.43-8.91-4.27-6.55-10.2-9.37-17.31-10.83a22.4 22.4 0 0 1-2.57-.9l17.45-11.1a18.47 18.47 0 0 1 4.49-2.06 2.34 2.34 0 0 1 2.11.58 2.79 2.79 0 0 1 0 2.53 13 13 0 0 1-3.52 2.65c-1.09.6-2.84.53-3.46 1.37-1 1.34-1.25 3.19-1.82 4.82 1.21.39 2.49 1.25 3.61 1.08a12.36 12.36 0 0 0 10.77-12 4.17 4.17 0 0 1 .77-2.47c3.76-4.3 7.77-8.39 11.41-12.8 2.84-3.44 1.41-6.41-3.1-6.93-2.18-.25-4.4-.14-6.57-.4-6.08-.73-10.4 3.27-9.87 9.28.12 1.39.3 2.77.48 4.14.38 2.87-.62 4.28-3.75 4.34-4.66.08-9.35.38-11.79 5.48-.32.67-1.27 1-1.83 1.57l-9.12 9.46zm117.66-190.48c12.41-3.1 14.13-5.37 16.08-15.23a46.66 46.66 0 0 1 1.41-5.71c2.58-7.78.21-13.48-7.21-17.06l-2.8-1.38c-3.65-1.68-6.95-1.74-10.25 1.16-3.75 3.29-7.26 1.9-8.13-3.06-.4-2.25-.16-4.62-.42-6.91-.42-3.61-2.78-4.77-5.47-2.34a148.45 148.45 0 0 0-11.92 12.14c-2.87 3.28-5.18 7-7.81 10.52-5.25 7-9.14 14.31-8.15 23.53a87 87 0 0 1 .39 15.47c-.41 5.61.71 7.57 6.25 8.76a45.56 45.56 0 0 1 6.05 2.17c-5.18-1.19-10.32-3-15.34-2l8.68 13.29a9.26 9.26 0 0 0 .38-1.37c.2-1.88.33-4 2.93-3.79s2.9 2.18 2.87 4.3c0 1.2.1 2.4.2 4.45l11.69-6a33.42 33.42 0 0 0-2.85-2.72l-8.36-6c3.28 0 6.61.44 9.85.06 5.48-.63 6.08-2 3.68-6.94a10.62 10.62 0 0 1-1.23-2.45 5.43 5.43 0 0 1 .1-3.23c3.45-6.66 10.17-8.41 16.54-10.57.76-.25 1.88.57 2.84.9-2.07-.25-4-.13-5.23 1.64l.57 1.15zm-224.19 74.87a19.62 19.62 0 0 0 2 0l25.34-3.26a73.48 73.48 0 0 0 7.84-2.07c-7.9-3.87-29.11-.52-35.18 5.33zm206.09 47.22c-2.19-.14-4.72-.8-7-.3-1.54.34-3.72 2.19-3.89 3.58-.72 5.94 3.14 9.72 9.94 9.95a38 38 0 0 1-.52-6 56.08 56.08 0 0 1 1.47-7.23zm-53 33.21c6.43 5.33 9.75 5 12.16-1.18.58-1.49.13-3.37.15-5.08-2.06.15-4.46-.31-6.1.6-2.34 1.3-4.08 3.61-6.25 5.66zM244 381.84c-1 4.33-5.91 4-7.53 7.29 3.75.21 7.4.52 11.05.55 1.31 0 3.73-.65 3.75-1.07a28.5 28.5 0 0 0-.86-7.34c-.05-.24-2.33 0-3.57.07-1.07.09-2.08.35-2.84.5zm102.82 84.92l.18 1.14c1.88-.13 4 .26 5.6-.49a68.71 68.71 0 0 0 10.07-6c1.56-1.1 2.57-3 3.83-4.48l-.65-1.07c-1.21.26-2.62.21-3.59.85-4.62 3-8.39 7.37-14 8.78-.63.14-1.02.84-1.49 1.27zm59-95.84c-1.7-1.22-2.49-2.24-3.41-2.37-2.09-.28-5.72 2.49-5.84 4.11-.14 2.11 2.75 6.28 3.58 5.5 1.99-1.89 3.46-4.37 5.64-7.24zm-88.33 16.54l9.55 1.23c-1.92-3.31-5.04-3.76-9.58-1.23zm114.29 18.39l-1.16-.28-2.44 7.69 1 .29c1.44-2.36 3.82-4.45 2.57-7.7zm-21.4-135.56l1.18.33.63-2.46a10.59 10.59 0 0 0-1.18-.26c-.29.78-.46 1.59-.66 2.39zm6.74-6.3a4 4 0 0 0 .16-.49s-.2-.14-.25-.11a2.64 2.64 0 0 0-.4.35z" class="F"/><path d="M244 448.85l-3.35 3.65.37.53a8.69 8.69 0 0 0 1.52-.39c5.79-2.49 11.49-5.22 17.39-7.43 2.63-1 5.63-1 8.48-1.29.63-.06 1.33.59 2 .91-.35.68-.53 1.69-1.09 2-1.09.55-2.61.41-3.55 1.1a6.8 6.8 0 0 0-2.6 3.5c-.15.64 1.51 2 2.6 2.52a4.85 4.85 0 0 0 3.37.28c3.27-1.11 6.28-1.9 9.44.58.59.46 2.69-.71 3.92-1.43 4-2.33 4.89-2.16 6.93 1.84 3.17 6.23 8.11 10.86 13.56 15 2 1.55 3.56 3.18 3.08 5.93l-4.52 1.68-16.73 2.62-28.16 5.11a13.3 13.3 0 0 1-9.83-2.17 21.26 21.26 0 0 1 6.52-.45 44.06 44.06 0 0 0 6.8-.07 3.1 3.1 0 0 0 2-2.24c.06-3.44-3.88-6-7.29-5.08a38.27 38.27 0 0 1-5.25.61l.69-3.14-5.62-3.51a3.5 3.5 0 0 0-1.56-.64h-13l-.52-3.13c2.37-6.81 7-11.89 12.45-16.37.43-.44 1.25-.37 1.95-.52z" class="E"/><path d="M419.89 461.06c-2.31 1.16-6.15-1.68-5.91-4.55.27-3 .37-6.13 3.07-8.44 4-3.4 7.67-7.14 11.66-10.53a7.06 7.06 0 0 1 4.14-1.49c4.49-.1 6.47-2.86 7.82-6.58.55-1.49 1.33-2.9 2-4.35 6.79 2.69 13 .72 19.1-2.33 2.25-1 4.47-2.16 6.77-3.09 1.85-.75 3.8-1.28 5.71-1.9q4.41 11.1 8.81 22.2v-.09l-.5 3.2a10.92 10.92 0 0 0-3.23.46l-17.8 8.62c-1.8-3.35-14.07-10.13-17.75-9.8-3.28.3-4.64 2.94-3.15 5.86.56 1.09.61 2.43 1.15 3.53.77 1.58 1.78 3.05 2.69 4.57l-.17 2.19-11.62.62h0l-4.42-.53-4.28-.81-3.69-.13-.82.48c.11.96.27 1.93.42 2.89zm40.97-89.15c-.3-5.39-1.09-10.81-.75-16.16.33-5 1.82-9.88 2.91-14.79.12-.56.89-1 1.43-1.42l13.93-10a13.32 13.32 0 0 1 2.77-1.14c.94 1.95 1.61 4.09 2.86 5.81 4 5.43 5.59 11.11 2.7 17.54l-5.72 12.62c-2.16 4.51-1.78 5.81 2.95 7.46 3.92 1.36 6.74 3.51 7 8l-12.66-7c-5.67-2.93-11.51-2.52-17.42-.92zM437 291.85a6.82 6.82 0 0 0-7.26-1.66 13.82 13.82 0 0 1-6.16-.15c-5.13-1-10.2-2.33-15.29-3.52v-1.27c2.38-.16 4.82-.73 7.13-.39 3.1.45 5-.59 6.66-3.07 5-7.46 9.73-15.17 15.36-22.15 4.38-5.43 9.94-9.91 15-14.78.18-.18.66 0 1-.05-2.77 13.25-7.69 25.73-13.33 38a93.26 93.26 0 0 0-3.11 9.04z" class="D"/><path d="M478.26 372.9l12.66 7 1.29 2a1.33 1.33 0 0 1-.18-.31l6.91 6.26c3.09 3 3.46 4.8.46 7.59-6.21 5.76-12.84 11.05-19.24 16.61-2.06 1.79-3.94 3.82-5.9 5.73-1.91.62-3.86 1.15-5.71 1.9-2.3.93-4.52 2.05-6.77 3.09.52-.74.88-1.84 1.58-2.14 3.61-1.57 4.78-4.82 6-8.09.32-.86.41-2 1-2.54 3.48-3.21 1.59-5.68-.92-8.15a7.08 7.08 0 0 1-1.62-1.77 8.88 8.88 0 0 1-.36-2.55 9.63 9.63 0 0 1 2.25-.21c1.59.22 3.16.82 4.75.88 5.53.22 10.9-.12 14.71-5 1.64-2.12 1.39-3.79-.37-5.8-4.42-5-10.2-7.46-16.38-9.45-2.45-.78-4.58-2.52-7.53-4.21a10.82 10.82 0 0 1 2.29-.88l11.08.04z" class="F"/><path d="M229.57 465.68l.52 3.13h13a3.5 3.5 0 0 1 1.56.64l5.62 3.51-.69 3.14a38.27 38.27 0 0 0 5.25-.61c3.41-.88 7.35 1.64 7.29 5.08a3.1 3.1 0 0 1-2 2.24 44.06 44.06 0 0 1-6.8.07 21.26 21.26 0 0 0-6.52.45 13.3 13.3 0 0 0 9.83 2.17c9.41-1.54 18.76-3.45 28.16-5.11 5.56-1 11.16-1.77 16.73-2.62-.8.12-1.59.14-2.35.31l-39.4 9c-9.95 2.05-19.45-.85-28.8-4-.65-.22-1.3-.47-2-.67-5.55-1.66-5.55-1.66-4.26-7.16l.15-.06-.08-.15.76-1.8.43-1.6a.84.84 0 0 0 .18-.52l.71-1.43a.74.74 0 0 0 .26-.43l.74-1.22.58-.8.86-1.24a.48.48 0 0 0 .27-.32z" class="D"/><path d="M205.36 355.84c.94.4 2.14.55 2.79 1.22 3.39 3.56 6.32 7.63 10 10.79 3.95 3.35 6.58 8.24 11.95 10 2.06.7 3.87 2.38 5.54 3.89 2 1.82.93 3.25-1 4.27a4 4 0 0 1-1 .37c-3.79.74-7.25 2-9 5.9-3.67-4.72-7.62-9.25-10.94-14.21-4.43-6.67-8.57-13.67-8.34-22.23z" class="E"/><path d="M461.52 452.19l17.8-8.62a10.92 10.92 0 0 1 3.23-.46 28.65 28.65 0 0 1-14.28 9.89c-4.07 1.24-8.25 2.11-12.38 3.15h0z" class="F"/><path d="M477.81 292h6.74l.14.86c-3.65 1.62-7.26 3.34-11 4.82-2.28.91-10.05-1.86-11-3.7l1.29-.21 3.34-.88zm-103.68-43.41l4.42-6.54 1.21.41-3.76 15.08-7.89-8.54 2.26.24h.06l.92.63h1.58l1-.77a.64.64 0 0 1 .2-.51z" class="D"/><path d="M253.74 441l15.47-2.83 3.84-.2.28 1.16-5.45 1.73c-4.59 1-9.22 1.87-13.83 2.79-.05-.85-.21-1.73-.31-2.65z" class="E"/><path d="M444.29 458.54l.17-2.19 11.41-.29h0zm-20.36-.72l4.28.81zm43.41-164.93l-3.34.88zm-47.92 165.28l.82-.48z" class="F"/><path d="M227.89 468.09l-.74 1.22zm1.44-2.04l-.86 1.24zM248.94 441h1.32zm-22.05 28.74l-.71 1.43.71-1.43zm-.89 1.95l-.43 1.6.43-1.6zm85.45 2.22l1.89.14z" class="E"/><path d="M399.63,510.62l.93.66Z" class="F"/><path d="M492,381.61a1.33,1.33,0,0,0,.18.31l.65-.56Z" class="D"/><path d="M483.05 439.91v.09-.09zm-111.7-190.06l-.92-.63z" class="F"/><path d="M224.81 475.09l.08.15-.15.06.07-.21z" class="E"/><path d="M432.63,459.16h0Z" class="F"/><path d="M437.88 294.72l.04.09.11-.13-.15.04z" class="D"/><path d="M373.9,249.05l-1,.77Z" class="F"/><path d="M301.7 310.93l9-2.08c2.21-.65 4.27-1.77 6.43-2.59 2.9-1.09 4.44.95 5.84 2.86.73 1 .73 2.55 1.54 3.41a19.89 19.89 0 0 0 3.86 2.63l6.39.94 5.73 6.35c2.08 1.93 4.7 3.67 7 5.58 1.66 1.38 2.85 3.46.91 5-1.1.86-3.48.24-5.25 0a22.46 22.46 0 0 1-4-1.26l-.49-3.38c0-4.39-.26-4.8-4.54-4.86-3.42-.05-6.84.25-10.25.4l-.37-1.44c-.49-1-1-2-1.45-3.06l-1.32.21v4.63 1c-1.83 1.8-3.78 3.5-5.43 5.45a22.69 22.69 0 0 0-2.23 4.13l4.3 1.17 1.92-.09a46.7 46.7 0 0 1 6.17.58c2.51.55 3.49 3.3 1.47 4.59-3.24 2.07-7 3.33-10.55 4.93l-2.51-3.78-2.1-2.67-1 .7.91 2.05.09 1.78c-1.18 2.21-1.67 5.12-5.09 5.11h0c-1.85-1.6-3.61-3.32-5.6-4.73a3 3 0 0 0-2.46.64c-.48 3.77-.73 7.57-1 11.37v.76c.55 2.1 1.45 1.46 2.42.31l2.58-1.46a60.74 60.74 0 0 0 6.85.38c2.09-.11 4.36-.92 5.28 1.75s-.69 4.33-2.89 5.53l-3.61-.53-4.69-1.47c-.41.55-.67.74-.66.91.42 7.41.42 7.41-6.78 9.49-1 .28-2.32.36-2.87 1s-.69 2.74-.37 2.89c4 2 5.12 5.37 4.86 9.63h1.17c.5-2 1.09-3.9 1.47-5.88.21-1.12-.27-2.47.17-3.43a18.16 18.16 0 0 1 2.72-3.42c.91 1 1.87 1.89 2.7 2.92a5.17 5.17 0 0 1 .52 1.61c2-.65 3.78-1.75 5.57-1.69 1.54 0 3 1.39 4.57 2.17-1 1.19-2 2.4-3.05 3.55a6.61 6.61 0 0 1-1.4.84l1.9 2.55-4.5 2.08a17.49 17.49 0 0 1 3 1.69c1.45 1.33 4 2.93 3.84 4.19-.19 1.91-2 3.94-3.62 5.34-1.91 1.64-4.36 2.65-6.46 4.63 5.57-.5 8.44 6.66 14.37 4.39.6-.22 1.7.86 2.56 1.34l2.24 1.29a9 9 0 0 0 1-2.73c.1-4.46 3.47-7.25 7.92-6.39 3.11.59 3.75 2.39 1.69 4.83-1 1.24-2.28 2.32-3.23 3.62-2.29 3.13-5.06 4.14-9 3.49-5.61-.93-9.8 2.73-13.91 5.77-1.83 1.36-1.35 3.27.57 4.95 2.91 2.57 2.21 9-.55 11.58a60.74 60.74 0 0 0-6 7.3c-.89 1.13-1.61 2.38-2.82 4.19a20.12 20.12 0 0 1-.88-2.89l-1.94-17.91c-.12-1.07-.57-2.71-1.29-3-3.43-1.31-2.95-4-2.79-6.65.23-3.65-.29-3.92-3.86-3.06a52.33 52.33 0 0 1-7.32.76l2.46-3.8a20 20 0 0 0-4.25-.28c-5 .86-8.53-1.93-8.7-7-.07-2-.27-4-.41-6l-1.07-.69c-2.21 1.51-5.24 2.55-6.4 4.64-1.29 2.31-2.15 2.47-4.17 1.58-1.33-.59-2.77-.94-4.39-1.47a9.64 9.64 0 0 0-.09 1.8 7.88 7.88 0 0 0 .54 1.64 54.87 54.87 0 0 1 5.24 18.84 5.69 5.69 0 0 0 1.49 3.39 5.08 5.08 0 0 0 3.51 1.52c.85-.1 1.92-1.57 2.22-2.62a51.49 51.49 0 0 0 1.06-6.48c.52-3.42 2.29-5.21 5.94-4.51-1.58 3.82-3.89 7.5-4.57 11.47-1.1 6.4-6.39 7.35-10.73 8.92-3.6 1.29-7.13-1.05-9.85-3.83-1.82-1.87-1.86-3.66-.17-5.81a65.58 65.58 0 0 0 5.7-8.62 8 8 0 0 0 .66-4.69c-.32-2.44-2.27-3.09-4.31-1.67a29.06 29.06 0 0 0-3.28 2.55c-6 5.64-13.82 7.79-21.2 10.67-3.71 1.45-4.81.58-5.39-3.3-.24-1.69.06-3.46-.12-5.17a41.59 41.59 0 0 0-1.24-8c-.72-2.33-.45-3.58 1.48-5.31 5.18-4.63 11.29-6.54 17.94-7.46 3.43-.48 6.81-1.26 10.19-2a4.46 4.46 0 0 0 2.32-1.32c2.88-3.51 6.23-4.34 10.37-2.35 1.59.77 3 .88 3.57-1.61.28-1.31 1.53-2.42 2.34-3.62-.11 1.15-.52 2.39-.22 3.42.2.65 2.07 1.48 2.13 1.4 2.42-3.14 6.26-2.66 9.42-3.86 1.06-.4 2.53-1.35 2.67-2.23a41.84 41.84 0 0 0 .13-6.89c-3.28-.35-5.57 2.91-8.82.35l4.51-3.9c1 .28 2.41 1.12 2.93.73 3.81-2.82 7.66-5.69 7.3-11.34a4.89 4.89 0 0 1 1.63-3.12c1.73-1.66 1.24-2.86-.54-3.79a29.19 29.19 0 0 0-5.42-2.27 19 19 0 0 0-4.22-.27c.3 1.38.27 2.95 1 4.09 2.75 4.53 1.68 11.88-2.46 15.4.2-1.23.47-2.46.58-3.69.16-1.82.72-3.82.15-5.4s-2.32-2.46-3.55-3.66c-.46 1.3-1 2.59-1.37 3.9l-3.79 12.24c.39-2.23.71-4.48 1.19-6.69.56-2.63.66-5-2-6.75-1.93-1.26-1.26-2.65.07-4 1.83-1.84 1.17-3-1.09-3.67a33.25 33.25 0 0 0-5.29-1.57c-.63-.08-2.15 1.74-2.07 1.87 4.05 5.89-.77 9.95-2.9 14.54-.34.72-.94 1.32-1.35 2-1.28 2.16-1 3.52 1.7 4.34 1.77.53 3.87 1.49 4.81 2.92 1.27 1.95 1.57 4.53-1.84 5.35l-2.3-2.93c-2.86-1.77-5.29-3.14-9.12-1.1-3.14 1.67-7.82 2.65-11 1.53a30.25 30.25 0 0 1-12-8.33c-3.94-4.44-1.48-9.18 4.52-10 4.18-.57 6.72-3.41 9.22-6.29a2.47 2.47 0 0 0 .09-2.41 2.66 2.66 0 0 0-2.43-.43 32.3 32.3 0 0 1-16.7 1.93 23.42 23.42 0 0 1-8.63-3.09c-1.18-.69-2-3.13-1.87-4.68a23.15 23.15 0 0 1 2.15-7.9c.69-1.44 2.61-3.3 3.92-3.25 9.32.32 18.9-.06 26.94 5.94a79.1 79.1 0 0 1 6.07 5.52l1.06-.35a15.48 15.48 0 0 0-1-3.74c-1.17-2.25-2.67-4.33-4-6.52-.58-1-1.51-2.13-1.38-3.09.63-4.65-2.21-5.77-5.87-6.31-2.74-.4-5.14-.95-2.38-4.45.46-.58 0-1.88 0-2.85a12.26 12.26 0 0 0-3.25.42 128.28 128.28 0 0 1-28.07 8.45c-4.63.79-5.92-.31-6.81-5-1.42-7.52-3.12-15-8.2-21-3.51-4.19-3.06-8.9-1.6-13.46.68-2.12 3.44-3.53 4.27-5.65 2.56-6.49 7-8.79 13.8-7.89 7.88 1 15.83 1.56 23.74 2.44 2.32.26 4.17.32 5.77-1.93.71-1 2.69-1.5 4.08-1.48 2.51.05 5 .77 7.53 1 2.76.26 4.27 1.68 4.46 4.38.11 1.72-.13 3.46 0 5.18l.9 14.45a11.33 11.33 0 0 0 1.18 3l1.43.07c.39-1.95 1.35-4 1.05-5.84-.64-4-.15-7.12 3.27-9.79 1.65-1.28 2.57-3.53 3.68-5.42 1-1.71 2-2.34 3.86-1.07q6.4 4.38 13 8.51a14.11 14.11 0 0 0 3.29 1.08 25.42 25.42 0 0 0 .15-3.25c-.12-1.49-.43-3-.67-4.44-.49-2.95-1.5-5.6-4.48-6.94-3.24-1.48-4.33-4-3.47-7.53a15.69 15.69 0 0 0 .69-5.76 9.23 9.23 0 0 1 3.62-8.88c3.41-2.84 6.93-5.88 10.93-7.58 5.28-2.24 6.44-6.61 7.64-11.15 1.26-4.77 1.63-5 5.74-2.62 5.24 3 10.21 6.45 12.74 12.15 3.76 8.46 5.38 17.38 1.52 26.14-2.68 6.06-6.57 11.58-9.9 17.35-.75 1.3-1.41 2.64-2.07 3.91 3.08 3.19 2.54 3.39-1.18 5.88-4.16 2.78-7.67 6.57-11.21 10.18-.53.54.33 2.44.55 3.72-4.48.57-5.63-.82-4-4.92a12.45 12.45 0 0 1 1.38-2.39l6.61-9.25c2.11-2.88 4.52-5.57 6.38-8.6a100.54 100.54 0 0 0 6.22-11.8c.59-1.31.16-3.18-.14-4.74-.14-.73-1-1.78-1.63-1.83s-1.47.83-2.1 1.42c-1.55 1.44-2.79 3.48-4.6 4.29a29.42 29.42 0 0 1-8.35 2c-3.92.5-4.24.92-3.31 4.81.9 3.72 1.4 7.46-.69 11.08a53.27 53.27 0 0 0-2.94 6.2c-1 2.35-1.69 4.81-2.73 7.12-1.37 3-2.85 3.15-5.48 1.3a3.79 3.79 0 0 0-3.51-.09c-4.63 3.44-10.44 5.6-13 11.43a6.71 6.71 0 0 1-1.95 2.79c-.76.53-2.59.85-2.93.44-1.82-2.22-3.26-4.74-4.95-7.06a20.1 20.1 0 0 0-2.55-2.5 22 22 0 0 0-1.05 4c-.13 1.45.85 3.39.2 4.34-3.76 5.45-.28 8 3.78 10.46a5.57 5.57 0 0 1 1 .92c2.25 2.25 4.15 1.89 6-.57 3.79-4.93 7.57-9.88 11.61-14.6 1.66-1.93 4-3.3 6.65-5.45l1.06 5.07c-3.39-1.69-4-1.37-4.41 2.41l-.21.76-1.38 2-.4 1c-1 .67-2.5 1.1-3 2.05-2.44 4.4-4.82 8.86-6.83 13.47-1.41 3.25-.51 4.39 3.1 5.23-.43.67-.91 1.31-1.28 2-.73 1.36-1.39 2.76-2.07 4.15 1.62.73 3.21 1.56 4.88 2.14a3.36 3.36 0 0 0 2.38-.12c4.37-2.28 9-1.51 13.56-1.22a13.08 13.08 0 0 0 2.42-.1c2.58-.3 3.52-2.12 3.52-4.38 0-2.42-2-2.16-3.71-2.64-1.85-.54-4-1.36-5.13-2.76-1.39-1.73-2.41-2.53-4.55-1.6a10.08 10.08 0 0 1-3.05.3 50.82 50.82 0 0 1 4.42-3.64c3.25-2.13 5.07-1.46 6.74 2 .49 1 1.3 2.54 2.17 2.7 9.28 1.7 16.77-3.58 16.68-13.88l-.14-4.84c0-1.88-.88-3.59-2.82-2.72-3.67 1.66-8.14 2.9-9.54 7.18-1.09 3.34-2.8 3.66-5.56 2.81l-.08-.31-.92-1.71v-.25c-.26-.36-.53-.71-.8-1.07l-2-5.59c5.5 4 9.93 0 14.62-2 1.06-.45 2.12-.92 3.16-1.43 2.41-1.21 4.2-.87 5.21 1.88s3.09 3.17 5.63 2.27c1.2-.42 2.62-.61 3.53-1.38a39.79 39.79 0 0 0 3.92-4.36c-1.68-.63-3.31-1.63-5-1.82-4.2-.51-8.45-.62-12.69-.88zm-8.7 94.46c2.3-3.26 2.87-13.47.44-16.9a3.67 3.67 0 0 0-2.26-1.45 67.7 67.7 0 0 0-9.63-.62c-2.89.1-3.7 1.83-2.55 4.57a13.41 13.41 0 0 1 1.35 4.93c0 4.28 1.33 5.88 5.53 6.77 2.26.48 4.4 1.65 7.12 2.7zm-40.29-2.23l.87-.49c-1.05-1.54-1.76-3.74-3.22-4.5a14.86 14.86 0 0 0-13.67 0c-1.36.66-2.29 3-2.58 4.75-.16 1 1.14 2.6 2.2 3.33a29.54 29.54 0 0 0 6.17 3.12c1.66.65 3.92 1.69 5.16 1.06 2.71-1.37 6.1-2.93 5.05-7.27zm-3.05-52.37l-6.22 21.06c-.17.65 1.87 1.89 2.89 2.85 1.31-1.47 3.06-2.74 3.84-4.46 1.22-2.66 1.63-5.69 2.67-8.45a9.83 9.83 0 0 0-3.2-11zm3.7-43.5c-.14.15-.36.29-.36.44a.49.49 0 0 0 .36.37.53.53 0 0 0 .38-.37c0-.12-.24-.27-.4-.44zm224.9 65.61c-3.69 0-7.38-.07-11.07-.06a10.82 10.82 0 0 0-2.29.88c3 1.69 5.08 3.43 7.53 4.21 6.18 2 12 4.41 16.38 9.45 1.76 2 2 3.68.37 5.8-3.81 4.92-9.18 5.26-14.71 5-1.59-.06-3.16-.66-4.75-.88a9.63 9.63 0 0 0-2.25.21 8.88 8.88 0 0 0 .36 2.55 7.08 7.08 0 0 0 1.62 1.77c2.51 2.47 4.4 4.94.92 8.15-.61.55-.7 1.68-1 2.54-1.21 3.27-2.38 6.52-6 8.09-.7.3-1.06 1.4-1.58 2.14-6.09 3-12.31 5-19.1 2.33-6.83-4.42-6.11-15.24-2.6-22.06.87-1.69.91-3.8 1.33-5.72a60.29 60.29 0 0 0-6.27-.55 4 4 0 0 0-3.27 1.52l-2.76 5.32a25.75 25.75 0 0 0-2.82 15.86c5.1-1.59 6.27-1.1 9.84 4a11.12 11.12 0 0 1-2.68 1.22c-4.33.63-6.71 3.54-9 6.91-2.49 3.67-5.44 7-8.18 10.52l2.39-4.46c1.83-3.67 4.88-7.27 5.12-11 .34-5.5-1.22-11.16-2.29-16.68-.25-1.29-1.78-2.34-2.72-3.5a47.76 47.76 0 0 0-2.84 4c-.37.65-.05 1.67-.37 2.36a23 23 0 0 1-1.93 3l3.34-16.92c-.69-.22-2.14-.79-3.64-1.15-3.46-.82-6.29-7-4.38-9.95 1.25-2 3-1.7 4.29-.08s1.87 3.44 3 5 2.24 3.75 3.55 3.89c3.1.32 6.71-2.85 7.06-5.49.21-1.58-.11-3.22 0-4.82.16-2.46.48-4.9.73-7.35l1.25-.31c1.15 1.87 2.36 3.71 3.4 5.63.55 1 .52 2.4 1.23 3.2 1.36 1.52 3.05 3.82 4.62 3.83 2.62 0 2.35-2.87 2.43-4.91.17-4.1-.59-8.33 2.28-12 .48-.61.16-2-.1-3a59.7 59.7 0 0 0-2.42-7.58c-.63-1.46-2-3.86-2.81-3.75a12 12 0 0 0-5.64 2.72 37.08 37.08 0 0 0-4.66 5.31c-.51.62-1.4 1.49-1.25 2 1.48 4.86-2.35 4.09-4.86 4.72l-2.46.18c0-2.57-.25-5.15-.08-7.7a62.84 62.84 0 0 1 1.12-6.63l-1-.73-3.28 2.3-2 .93-2.58 1.78a2 2 0 0 1-.55.14l-3.09.88-4.47 1.15c-.25-1-.42-1.35-.34-1.42 3.27-3.08 3.25-6.53 1.23-10.24l3.62.93 2.75.57a26.56 26.56 0 0 1-.14-3.56c.13-1.44.5-2.86.76-4.29 1.78.34 4.73.17 5.13 1.1 2.43 5.6 8.44 6.14 12.42 9.44a2.64 2.64 0 0 0 2.51.12 2.92 2.92 0 0 0 .5-2.46c-.7-2.9-1.5-5.79-2.47-8.61-1.75-5.07-.51-6.92 4.76-6.76.46 0 .92.07 1.38.11l3.35 1.44a43.27 43.27 0 0 0 1.7 6.25c.33.76 1.78 1 2.72 1.54.34-1 1.23-2.19.93-2.92a14.24 14.24 0 0 1-.26-10.41 2.42 2.42 0 0 0-.12-1.69c-1.71-3.75-3.4-7.52-5.33-11.16a2.87 2.87 0 0 0-2.65-.89c-3.38 1.79-4.05-.11-4.29-2.84 1 .12 2.26.67 3 .27 2.72-1.46 4.19.25 5.53 2 3.45 4.46 7.05 8.86 8.28 14.6.49 2.29 2.12 2.72 3.94 1.91a16.67 16.67 0 0 0 4.24-2.89c1.61-1.47 1.13-2.59-.73-3.74-3.32-2.06-6.51-4.35-9.62-6.73-1-.77-1.53-2.13-2.28-3.21l.67-.8c3.68 1.9 7.31 4.4 12.25 1.12-5.88-5.05-8.78-13.39-18.49-12.26a13 13 0 0 1-4.48-.27c-3.38-.84-5.12.29-5.24 3.79-4.32-6.8-12.21-8.86-18.21-13.7 1 3 2.79 5.32 4.12 7.88a20.58 20.58 0 0 1 2.11 6.65c.1.67-2 2.48-2.72 2.28-3.19-.93-3.28 1-3.42 3.11a15.64 15.64 0 0 1-.13 3.44 17.45 17.45 0 0 1-1.9 3.34c-1.13-.81-2.59-1.39-3.3-2.47-2.32-3.52-1-7.09.38-10.57l1-.73.79-.18h0c3-2.73 3.25-4.4.27-6.67-2.31-1.76-5.14-2.82-7.68-4.28-1.41-.81-2.72-1.8-4.08-2.72 1.15-1 2.24-2.09 3.46-3a87.92 87.92 0 0 1 8.51-6c1.3-.77 3.63-1.24 4.74-.58a26.38 26.38 0 0 1 6.94 5.9c1.52 1.87 2.44 2.8 4.68 1.15 3.06-2.26 7.48-1 8.11 2.76s2.82 5.74 5.88 7.39c2.87 1.55 4.18.91 4.85-2.21.34-1.59 1.41-3 2.16-4.53 1.46.89 3.22 1.51 4.32 2.72 3.33 3.69 6.41 7.6 9.58 11.42 1.74 2.1 4.19 2.16 5.31-.35 1.78-4 5-6.28 8.37-8.48 1.29-.84 3.49-2 4.37-1.44 2.43 1.44 4.85 3.55 4.21 6.93s-1.68 6.48-5.22 8.07c-4.62 2.07-9.17 4.3-13.74 6.46l-2.47 1.16 7.42 8.36-4.44.4c-3.25.3-5.76 4.08-5 7.18a3.88 3.88 0 0 1-.8 2.66c-.42.6-1.34.86-2 1.28-5.25 3.24-5.21 3.71-2.5 8.95 2.27 4.4 5.42 8.42 5 14-.25 3.43 2.37 2 4.14 1.11 5.76-1.53 11.6-1.94 17.25 1.06zm-19 14c-.62-1-1.12-2.72-2.07-3s-2.44.81-3.35 1.66a7.81 7.81 0 0 0-1.94 3.22l-8.55 27c-.3 1 .39 2.29.62 3.45 1.13-.31 2.52-.3 3.35-1 5.72-4.7 7.82-11.23 8.44-18.26.32-3.68-.16-7.42 2.65-10.46.52-.46.53-1.42.89-2.58zm-5.84-14.82a49.3 49.3 0 0 0-1.62-4.69c-2.86-6.19-6.92-11.38-13.12-14.52a4.44 4.44 0 0 0-3.69 0 3.52 3.52 0 0 0-1 3.25c.26.8 1.82 1.24 2.88 1.67s3 .35 3.29 1.06c2.62 5.47 4.91 11.09 7.37 16.64a27.44 27.44 0 0 0 1.78 3c1-.71 2.28-1.22 2.89-2.17.74-1.11.8-2.59 1.26-4.21z" class="E"/><path d="M338.65 328.33l.49 3.38c1 3.17 4.87 6 8.19 5.48 2.47-.37 3.66 0 4.64 2.6.56 1.47 2.88 2.28 4.47 3.3.06 0 1.21-1.08 1.1-1.42-.6-1.89-1.43-3.7-2.2-5.54 0-.07-.2-.1-.31-.14-2.68-1-3.53-3.19-3.63-5.76-.09-2.27-.55-4-3.19-4.62-.88-.19-1.55-1.29-3-2.55l5.51-1.25c2.93-1 3.45-2.64 1.68-5q-1.16-2.43-2.29-4.87c.82-1.29 1.39-2.85 2.5-3.81a5.86 5.86 0 0 0 0-9 21.6 21.6 0 0 1-2.22-2.44l1.51-2.69c3.23-4.34 8.09-2.21 12.19-3.08l-1.67 3.72c-.34.31-.82.55-1 .93-.7 1.5-1.32 3.05-2 4.58 1.61.68 3.2 1.45 4.86 2s3.57.86 5.32 1.41c2 .62 2.33 1.74.7 3.22a7.93 7.93 0 0 0-1.72 1.7c-.77 1.34-1.33 2.79-2 4.2a19.12 19.12 0 0 0 4.17 1.62c4.26.57 8 4.8 7.41 8.65l-2.47 1.32c-4.13 1.43-4.1 1.74-1.28 5.07a44.1 44.1 0 0 1 4.69 7.18 2.77 2.77 0 0 1-.68 2.55c-3.68 3-7.75 1.31-8.61-3.31a24.09 24.09 0 0 0-.9-2.93l-.49-2.85-1.67-2.26a1.12 1.12 0 0 1-.15-.5l-1.14-5.41-2-5.68-1-1.09c-4.65.66-5.45 4.37-6.34 8-1.65 3-1.38 4.13 1.59 4.63 2.12.36 2.68 1.28 3 3.35a11.18 11.18 0 0 0 2.81 5.56c1.47 1.5 1.6 2.52.12 3.64-2.62 2-5.4 3.77-8.73 6.07.79 2.29 1.15 5.5 2.84 7.69 2.67 3.46 6.23 6.23 9.41 9.3 0 1.07.07 2.15.1 3.22l-5 .59c-3.46-1.4-6.87-3.69-10.59-.6l.05-.06 8.15 5.4h.15l3-.39 5.52 2.74c.22 1.4.13 3.33.89 4.81.44.84 2.32 1.41 3.48 1.31 3.54-.29 5.08.18 7.65 3.19-.37 2-5.11.35-3.39 4.19 1.06 2.36 2.53 3.41 5.34 2.94a11.72 11.72 0 0 1 .62-3.34 6.18 6.18 0 0 1 2.5-2.8c.84-.37 2.15.31 3.25.53l-.76 3.49-1.14 6.21c-.16.72-.39 1.79-.89 2-4.39 2-5.37 6.08-6.57 10.07a13.12 13.12 0 0 1-.74 1.52c-3.31-1.74-6.7-3.17-9.68-5.2s-5.06-1.28-7.31.91c-1.73 1.67-3.61 3.18-5.43 4.77l-.89-.78a7.37 7.37 0 0 1 .53-2.09c1-1.68 2.16-3.28 3.28-4.9 1.39-2 2.44-4.23.37-6.27s-4.47-1.59-6.74-.3c-1.1.62-1.93 1.73-3.05 2.25a2.7 2.7 0 0 1-2.42-.26 2.43 2.43 0 0 1 0-2.31c1.05-1.51 2.51-2.73 3.56-4.24.49-.71.4-1.82.58-2.75-2.29-.1-4.65-.57-6.81-.11-.83.17-1.58 2.42-1.71 3.78s.52 3 .77 4.17c-2.47 0-4.35-.15-6.19 0a47.82 47.82 0 0 0-5.23 1.13l-.58-1.11a55.42 55.42 0 0 0 4.94-3.62c1.09-1 2.8-2.74 2.51-3.47a5.9 5.9 0 0 0-3.65-2.89c-1.79-.49-3.82-.12-5.75-.12l-.41-.91c1.35-.73 2.74-1.39 4-2.21a32.69 32.69 0 0 0 2.78-2.23 15.51 15.51 0 0 0-2.55-2.57 25.15 25.15 0 0 0-5.28-2.54 3.26 3.26 0 0 0-2.64.76 9 9 0 0 0-1.44 2.72l-1.57-1.11c.2-1 .46-2 .59-3s.14-2.19.2-3.29c-1.09 0-2.19-.11-3.27 0-1.53.12-3.05.36-5.47.66l2.26-5.9 1.95-5.3c3.8 2.44 5.88-.83 8.49-2.41l5.52-3.29a9.36 9.36 0 0 0 2.76-2 2.93 2.93 0 0 0 .32-2.67 3.15 3.15 0 0 0-2.68-.54c-2 .45-3.92 1.34-5.93 1.82a16 16 0 0 1-3.53.05l-.35-.93 3.85-3.64c.85-.79 2.08-1.38 2.52-2.34 1.53-3.38 3.11-3.91 5-.42 3.27-1.36 4.22-4.09 1.5-5.54-5.09-2.72-4.54-4.77-.59-7.7.38-.28.25-1.26.63-1.55a6.1 6.1 0 0 1 2.11-.48zm33.42 74.82a78.79 78.79 0 0 0 1.38-8.74c.05-1.1-1.18-3.23-1.7-3.19a5.74 5.74 0 0 0-3.86 1.89c-.79 1.05-1.3 3.14-.77 4.19.99 1.93 2.82 3.44 4.95 5.85zm-46.44-40.87l-3.07 2.3c1 .86 2 1.78 3.14 2.55a3.56 3.56 0 0 0 2.19.91c1-.19 2.41-.72 2.72-1.49.97-2.32-.92-4.28-4.98-4.27zm37.28 31l3.34-7.73c-5.07.7-6.37 3.29-3.34 7.72z" class="D"/><path d="M425.33 260.24c-1-.33-2.08-1.15-2.84-.9-6.37 2.16-13.09 3.91-16.54 10.57a5.43 5.43 0 0 0-.1 3.23 10.62 10.62 0 0 0 1.23 2.45c2.4 4.94 1.8 6.31-3.68 6.94-3.24.38-6.57 0-9.85-.06l-.21-.17a44.93 44.93 0 0 0-6-2.17c-5.54-1.19-6.66-3.15-6.25-8.76a87 87 0 0 0-.39-15.47c-1-9.22 2.9-16.56 8.15-23.53 2.63-3.49 4.94-7.24 7.81-10.52a148.45 148.45 0 0 1 11.92-12.14c2.69-2.43 5-1.27 5.47 2.34.26 2.29 0 4.66.42 6.91.87 5 4.38 6.35 8.13 3.06 3.3-2.9 6.6-2.84 10.25-1.16.94.44 1.86.92 2.8 1.38 7.42 3.58 9.79 9.28 7.21 17.06a46.66 46.66 0 0 0-1.41 5.71c-2 9.86-3.67 12.13-16.08 15.23zm-58 106.29l-.09-3.22a9.6 9.6 0 0 0 .14-1.68c-.48-4.8.55-5.59 4.72-4 .36-2.68-.26-6.49 1.32-8 3.37-3.17 6.53-6.21 8.07-10.66 0-.09.18-.14.26-.22 2.23-1.89 2.12-3.37-.35-5.18-3.1-2.26-5.72-5.05-5.66-9.33l2.47-1.32c5-3.51 5-4.67.29-8.29-1.45-1.11-2.58-2.66-4.06-3.7-1.9-1.34-2.29-2.78-1.75-5a4.62 4.62 0 0 0-1.17-3.77c-1.64-1.56-3.83-2.51-5.63-3.93a34.68 34.68 0 0 1-3.47-3.59l1.67-3.72.71-2.71c.72.86 1.75 1.62 2.09 2.62.42 1.27.08 2.78.43 4.09.64 2.41 3.1 3.39 4.39 1.6 1.82-2.51 3.79-2.51 6.29-1.76.53.16 1.22-.25 2.76-.61l-12.74-12c-1.67-1.49-2.9-2.49-.07-4a2.31 2.31 0 0 0 .88-2.11 2.82 2.82 0 0 0-2.06-1.45 26.54 26.54 0 0 0-5.76.56c-3.68.78-4.61 2.12-2.77 5.26 1.67 2.85 4.31 5.14 6.52 7.67a46 46 0 0 1-4.84 0c-4.14-.37-6-3.33-4.93-7.3a54.12 54.12 0 0 0 .94-6.12 25 25 0 0 0-4.11.95c-4.67 2.06-9.09 1.29-13.17-1.36-1.13-.73-2.35-2.44-2.29-3.65.18-4 .41-8.1 5.08-10.12 2.13-.92 3.72-3.12 5.85-4 2.7-1.14 5.35-.8 7.21 2.17 2.93 4.67 5.35 5.28 10.42 3v6c1.89-.13 4-.89 5.59-.24a14.72 14.72 0 0 1 6.1 4.57c1.79 2.48.4 4.7-2.19 6.25-3.29 2-3.29 2.48-.64 5.08q4.8 4.71 9.63 9.39c3.51 3.41 3 5.87-1.46 7.8a24.27 24.27 0 0 0-2.17 1.26l9.07 7.81 4.45 5.9c-1.16 1.35-2.11 3-3.52 4-2.14 1.49-2.37 2.93-.86 4.87l1.66 2.22 1.05 4.1c-2 .53-4.36.72-4 3.77q-.18 4.08-.35 8.16c-3.88 1.86-1.55 3.94-.22 6l-1.42 5a20.67 20.67 0 0 0-3.49 2.12c-.47.43-.33 1.53-.47 2.32.84.11 1.83.54 2.48.24s1.17-1.34 1.73-2.05c3.65 1.41 4.4.89 4.19-2.79-.08-1.38-.06-2.77-.09-4.15l2.41-3.28.69-.25 1.1-.25.88-.42c2.39-.2 3.45-1.24 2.78-3.81a23.16 23.16 0 0 1-.31-4.35l5.17-2c1.06.88 2.8 1.64 3 2.68s-1.26 2.29-1.91 3.5a11.57 11.57 0 0 0-1.58 3.48 17.57 17.57 0 0 0 .3 4.12l-.34 1.28-6.94 4.43-6.24 8.32-2 1.95c-2.08.95-5.59.49-4.49 4.57-.6 2.35-.57 5.22-2 6.92-2.35 2.88-4.65 2.82-7 0s-4.14-6.4-6.18-9.64zM359 267.77l-15.63-2.94c-.62-.09-1.77 1.09-2.06 1.9-.18.49.66 1.74 1.32 2.07a37.54 37.54 0 0 0 7 2.92c3.37.92 6.17-.56 9.37-3.95zm35.89 200.99c-2.66 5-7.29 6.06-12.34 6.07a72.58 72.58 0 0 1-8.17-.68c-2-.23-2.61-1.47-1.75-3.2a29 29 0 0 1 2.47-3.76c3.24-4.53 6.68-8.94 9.64-13.65a4.86 4.86 0 0 0-.66-4.66c-2.89-2.52-6.27-4.47-9.85-6.91l-1 4.09a41.91 41.91 0 0 1-5.83-3.31c-2.2-1.75-3.69-1.24-5.19.78-3.09 4.16-6.1 8.39-9.39 12.39a28.47 28.47 0 0 1-5.87 5.3 3.54 3.54 0 0 1-3.39-.49c-4.45-4.78-4.62-17.4 0-21.89s9.88-7.2 16.79-5.41c4.45 1.15 9.15 1.35 13.7 2.14 3.17.55 4.35-.8 5.5-3.69a39.28 39.28 0 0 1 6.07-10.16c1.46-1.79 2-2.88.54-4.65a12.54 12.54 0 0 0-2-2.37c-5.17-3.53-2.13-10.81 1.67-13.17 2-1.26 4-.54 4.39 1.92a37.87 37.87 0 0 1 0 6.21v3.17l1 .21 1.41-3.17c1.38-2.91 2.48-6 4.24-8.67 2.56-3.9 4-4 8.3-2.07-1 5-1.46 10.1-3 14.83-1.27 4-3.74 7.57-5.68 11.33l-7.81 15.06c-2 3.78-1.58 4.36 2.48 4.65a23.21 23.21 0 0 1 4.69 1c3.21.91 6.47.93 8.71-1.68 4.83-5.66 9.33-11.61 14-17.45 2 1.65.3 2.77-.56 4.05-2 2.92-4.26 5.69-5.74 8.84-3.57 7.61-7.78 14.16-17.33 14.63a7.46 7.46 0 0 0-2.54 1c-4.73 2.24-6.43 7-9.11 11a18.17 18.17 0 0 0-1.51 3.89 36.08 36.08 0 0 0 4.91.71c1 0 1.95-.62 2.95-.89 1.74-.48 3.5-.9 5.26-1.34zm5.67-58.48l-1.56-2.86a14.13 14.13 0 0 0-2.53 2.8c-.71 1.41-.76 3.15-1.47 4.56-1.6 3.17-5.31 5.17-5.12 9.41 0 .54-.94 1.38-1.62 1.68-5.36 2.33-5.86 8-8.33 12.23a3.1 3.1 0 0 0-.05 2.66 25.54 25.54 0 0 0 3.08 3.53c.9-.91 2.12-1.67 2.68-2.76l13.83-27.5a26.92 26.92 0 0 0 1.09-3.75z" class="E"/><path d="M301.7 310.93c4.24.26 8.49.37 12.7.85 1.72.19 3.35 1.19 5 1.82a39.79 39.79 0 0 1-3.92 4.36c-.91.77-2.33 1-3.53 1.38-2.54.9-4.61.52-5.63-2.27s-2.8-3.09-5.21-1.88c-1 .51-2.1 1-3.16 1.43-4.69 2-9.12 5.95-14.62 2l-1.59-1.74-.52-.56-.15-.17.3-.91-1.06-5.07c-2.67 2.15-5 3.52-6.65 5.45-4 4.72-7.82 9.67-11.61 14.6-1.89 2.46-3.79 2.82-6 .57a5.57 5.57 0 0 0-1-.92c-4.06-2.47-7.54-5-3.78-10.46.65-.95-.33-2.89-.2-4.34a22 22 0 0 1 1.05-4 20.1 20.1 0 0 1 2.55 2.5c1.69 2.32 3.13 4.84 4.95 7.06.34.41 2.17.09 2.93-.44a6.71 6.71 0 0 0 1.95-2.79c2.56-5.83 8.37-8 13-11.43a3.79 3.79 0 0 1 3.5.03c2.63 1.85 4.11 1.71 5.48-1.3 1-2.31 1.75-4.77 2.73-7.12a53.27 53.27 0 0 1 2.94-6.2c2.09-3.62 1.59-7.36.69-11.08-.93-3.89-.61-4.31 3.31-4.81a29.42 29.42 0 0 0 8.35-2c1.81-.81 3-2.85 4.6-4.29.63-.59 1.44-1.47 2.1-1.42s1.49 1.1 1.63 1.83c.3 1.56.73 3.43.14 4.74a100.54 100.54 0 0 1-6.22 11.8c-1.86 3-4.27 5.72-6.38 8.6l-6.61 9.25a12.45 12.45 0 0 0-1.38 2.39c-1.66 4.1-.51 5.49 4 4.92l2.41.07.92-.33zm93.19 157.83l-5.26 1.33c-1 .27-2 .91-2.95.89a36.08 36.08 0 0 1-4.91-.71 18.17 18.17 0 0 1 1.51-3.89c2.68-3.95 4.38-8.74 9.11-11a7.46 7.46 0 0 1 2.54-1c9.55-.47 13.76-7 17.33-14.63 1.48-3.15 3.77-5.92 5.74-8.84.86-1.28 2.52-2.4.56-4.05l-6.69-7.86 1.77-3.12a23 23 0 0 0 1.93-3c.32-.69 0-1.71.37-2.36a47.76 47.76 0 0 1 2.84-4c.94 1.16 2.47 2.21 2.72 3.5 1.07 5.52 2.63 11.18 2.29 16.68-.24 3.77-3.29 7.37-5.12 11-.75 1.51-1.59 3-2.39 4.46l-.85 1.33c-1.57 1.92-3.44 3.68-4.65 5.81-2.13 3.73-5 5.79-9.36 6-1.51.08-3 .9-5.13 1.59l14.12 4.69c1.29.43 2.58.91 3.86 1.37h0c.45.78.86 1.6 1.36 2.35 2.42 3.62 5.06 7.11 7.23 10.87 2 3.5.82 6-3.16 6.35a57.89 57.89 0 0 1-9.29-.36c-5.18-.34-8.37 2.88-7.83 7.94a5.47 5.47 0 0 1 .16 2.38 8.72 8.72 0 0 1-1.85 2.07c-.59-.6-1.41-1.11-1.7-1.84A6.08 6.08 0 0 1 399 490l1.83-18.8 2.56-4.63c0-.58.07-1.16.11-1.74l-3.24.84-1.13.34-4.24 2.73z"/><path d="M400.84 471.2l-1.83 18.8a6.08 6.08 0 0 0 .19 2.73c.29.73 1.11 1.24 1.7 1.84a8.72 8.72 0 0 0 1.85-2.07 5.47 5.47 0 0 0-.16-2.38c-.54-5.06 2.65-8.28 7.83-7.94a57.89 57.89 0 0 0 9.29.36c4-.39 5.19-2.85 3.16-6.35-2.17-3.76-4.81-7.25-7.23-10.87-.5-.75-.91-1.57-1.36-2.35 5.37 1.28 8.28 5.59 10.44 9.89 3.92 7.82 7.14 16 10.39 24.13 1 2.59 2.58 6.45-.19 7.94-2 1.05-5.75-.35-8.28-1.57-4.87-2.34-8.6-2.25-12.63 1.28-1.05.91-2 1.93-3.14 2.72-4 2.77-8.22 1.48-10.37-2.86-4-8.09-5.88-16.52-4.27-25.5.55-3.1.87-6.51 4.61-7.8zM351.9 294l-1.53 2.75c-2.61.59-3.48 1.87-2 4.43a3.2 3.2 0 0 1 .06 2.59c-2.27 4.79-2.31 4.78 1.73 8.2q1.14 2.44 2.29 4.87a25.41 25.41 0 0 1-3.88 1.33c-3.11.55-6.22.8-8-2.74v-2.08l.56-2.11v-4.16c.29-1.89-.38-2.93-2.42-2.7l-12.18 1.42c-2.19.3-2.07-1.06-2.18-2.51l-.68-6.05-.07-3.06a30.18 30.18 0 0 0-3.24-2.57c-1.47-.88-3.09-1.51-4.64-2.24l2.61-1.59 20.89.06c1.08 0 2.37-1.57 3.14-2.7 1.91-2.8 2.87-3.08 5.46-.92 3.05 2.54 5.49 5.37 4.08 9.78zm-44.23 156.72l-3.31-.83 9.12-9.46c.56-.58 1.51-.9 1.83-1.57 2.44-5.1 7.13-5.4 11.79-5.48 3.13-.06 4.13-1.47 3.75-4.34-.18-1.37-.36-2.75-.48-4.14-.53-6 3.79-10 9.87-9.28 2.17.26 4.39.15 6.57.4 4.51.52 5.94 3.49 3.1 6.93-3.64 4.41-7.65 8.5-11.41 12.8a4.17 4.17 0 0 0-.77 2.47 12.36 12.36 0 0 1-10.77 12c-1.12.17-2.4-.69-3.61-1.08.57-1.63.85-3.48 1.82-4.82.62-.84 2.37-.77 3.46-1.37a13 13 0 0 0 3.52-2.65 2.79 2.79 0 0 0 0-2.53 2.34 2.34 0 0 0-2.11-.58 18.47 18.47 0 0 0-4.42 1.91l-17.45 11.1z" class="E"/><path d="M275.93 414.22c-3.65-.7-5.42 1.09-5.94 4.51a51.49 51.49 0 0 1-1.06 6.48c-.3 1.05-1.37 2.52-2.22 2.62a5.08 5.08 0 0 1-3.51-1.52 5.69 5.69 0 0 1-1.49-3.39 54.87 54.87 0 0 0-5.24-18.84 7.88 7.88 0 0 1-.54-1.64 9.64 9.64 0 0 1 .09-1.8l4.39 1.47c2 .89 2.88.73 4.17-1.58 1.16-2.09 4.19-3.13 6.4-4.64l1.07.69.41 6c.17 5.09 3.68 7.88 8.7 7a20 20 0 0 1 4.25.28l-2.46 3.8z"/><path d="M318.33 287.79l-2.61 1.59c-2.44.15-1.76-1.47-1.15-2.45 2.19-3.49 4.69-6.78 6.82-10.3 1.19-2 2.52-4.18 2.67-6.36.34-4.94 0-9.93-.06-14.9a29.16 29.16 0 0 1 .35-3.21l1.06-.39a60.24 60.24 0 0 0 3.64 5.1 18.26 18.26 0 0 1 4.8 13.8c-.32 6.35-.73 7.36-6.49 10.48-3.25 1.76-6.04 4.4-9.03 6.64z" class="D"/><path d="M271.66 374.18l3.79-12.24 1.37-3.9c1.23 1.2 3 2.2 3.55 3.66s0 3.58-.15 5.4c-.11 1.23-.38 2.46-.58 3.69q-.08.29-.18.57l-4.51 3.9c3.25 2.56 5.54-.7 8.82-.35a41.84 41.84 0 0 1-.13 6.89c-.14.88-1.61 1.83-2.67 2.23-3.16 1.2-7 .72-9.42 3.86-.06.08-1.93-.75-2.13-1.4-.3-1 .11-2.27.22-3.42l2.02-8.89z"/><path d="M393.55 282.47l8.36 6a33.42 33.42 0 0 1 2.85 2.72l-11.69 6-.2-4.45c0-2.12-.25-4.13-2.87-4.3s-2.73 1.91-2.93 3.79a9.26 9.26 0 0 1-.38 1.37L378 280.26c5-.93 10.16.85 15.34 2zm-192.41 52.64c6.07-5.85 27.28-9.2 35.18-5.34a73.48 73.48 0 0 1-7.84 2.07l-25.34 3.26a19.62 19.62 0 0 1-2 .01zm206.09 47.22a56.08 56.08 0 0 0-1.46 7.19 38 38 0 0 0 .52 6c-6.8-.23-10.66-4-9.94-9.95.17-1.39 2.35-3.24 3.89-3.58 2.27-.46 4.76.2 6.99.34zm-13.93-66.79l-4.45-5.9c3.74-3 15.12-2.47 16.82 1.12a16.72 16.72 0 0 1 .81 3.52h0l-.79.18-1 .73c-3.69 2.36-7.46 3.81-11.39.35zm-4.3 47.19l6.24-8.22c3.47 0 5.25 2.56 7 4.9a2.75 2.75 0 0 1-.21 2.72c-1.79 1.57-3.88 3.94-5.83 3.92-2.39-.05-4.8-2.12-7.2-3.32zm-48.41-49.37v2.08l-5.86.66-6.39-.94c-.3-1.54-1.37-3.71-.74-4.48a10 10 0 0 1 5.26-3.18c2.66-.59 5.51-.32 8.28-.41v4.17c-.14.74-.37 1.4-.55 2.1z" class="D"/><path d="M354.19 415.54c2.17-2.05 3.91-4.36 6.21-5.66 1.64-.91 4-.45 6.1-.6 0 1.71.43 3.59-.15 5.08-2.41 6.17-5.73 6.51-12.16 1.18z" class="E"/><path d="M244 381.84l2.84-.5c1.24-.11 3.52-.31 3.57-.07a28.5 28.5 0 0 1 .86 7.34c0 .42-2.44 1.08-3.75 1.07-3.65 0-7.3-.34-11.05-.55 1.53-3.33 6.53-2.96 7.53-7.29z" class="D"/><path d="M346.77,466.76c.47-.43.86-1.13,1.4-1.26,5.65-1.41,9.42-5.76,14-8.78,1-.64,2.38-.59,3.59-.85l.65,1.07c-1.26,1.51-2.27,3.38-3.83,4.48a68.71,68.71,0,0,1-10.07,6c-1.58.75-3.72.36-5.6.49Z" class="E"/><path d="M382.54,369.25c-1.1-4.08,2.41-3.62,4.49-4.57,3.16,4.25,2.35,9.55,3.71,14.28.19.64-.79,1.62-1.22,2.44-1.06-.67-2.81-1.15-3-2a69.54,69.54,0,0,1-1.26-8.74Z" class="D"/><path d="M414.27 463l-3.86-1.37-14.12-4.69c2.14-.69 3.62-1.51 5.13-1.59 4.35-.23 7.23-2.29 9.36-6 1.21-2.13 3.08-3.89 4.65-5.81a119.16 119.16 0 0 1-5.3 10.68c-1.79 2.91-1.08 4.56 1.53 6.18a15.78 15.78 0 0 1 2.61 2.6z" class="E"/><path d="M418.59 375.1l2.46-.18c3.26 3.21 3.42 8.74.16 9.88-1.31.46-3.89.55-4.25-.1-1.12-2-3.24-4.31-1.09-6.93a34.27 34.27 0 0 1 2.72-2.67zm-12.8-4.18c-2.18 2.87-3.65 5.35-5.67 7.24-.83.78-3.72-3.39-3.58-5.5.12-1.62 3.75-4.39 5.84-4.11.92.13 1.71 1.15 3.41 2.37z" class="D"/><path d="M412.51 370.1a18.62 18.62 0 0 1 1.15 3.18 4.32 4.32 0 0 1-.16 2.84 17.58 17.58 0 0 1-3.81 4.57c-.6.47-2.89 0-3.24-.67-1.38-2.63 2.93-9.45 6-9.94zm-60.8-3.58c3.72-3.09 7.13-.8 10.59.6l.8 4.37-3 .39h-.15l-8.15-5.4z" class="E"/><path d="M412.51 370.1h0l-2.31-4.89a1.86 1.86 0 0 0 .56-.15l2.57-1.77 2-.93c3.41 1.93 1.05 4.67.75 7-.08.38-2.32.49-3.57.74zm-93.25-34.27l-1.92.09 3.36-10.75v-1l2.76-1.77.37 1.44.59 5.47c.55 2.78.13 4.78-3.13 5.3a6.88 6.88 0 0 0-2.03 1.22zm-58.64 43.78l2.3 2.93a5 5 0 0 1-7.39 1.93c-.48-.36-1.05-1.27-.89-1.64a3.85 3.85 0 0 1 1.72-1.9 31.89 31.89 0 0 1 4.26-1.32zM311.71 344l-.09-1.78 2.22-.08 2.51 3.78c.88 4.94-1 7.88-4.64 8.1zm-14.18 13.15v-.76a47 47 0 0 0 3.28-5.8c.72-1.85 1.43-2.79 3.49-1.88a9.31 9.31 0 0 0 2.33.4h0l-4.09 6.89-2.6 1.47zm10.63 5.98l3.61.53c1.92 3.87 1 6.58-4.25 11.2.37-1.31.54-2.14.84-2.91.88-2.27 2-4.48-.34-6.66-.34-.29.07-1.42.14-2.16zm94.01-13.05l.34-1.28a5.92 5.92 0 0 1 4.61 7.69l-3.62-.93q-.66-2.73-1.33-5.48zm-78.57-55.89l.07 3.06-3.52 4.16a2.69 2.69 0 0 1-1.27-.69 21.06 21.06 0 0 1 1.67-5.38c.45-.73 1.99-.79 3.05-1.15zm-6.14 93.27c4.56-2.53 7.66-2.08 9.55 1.23zm114.29 18.39c1.22 3.25-1.13 5.34-2.64 7.7l-1-.29 2.44-7.69z" class="D"/><path d="M425.33 260.24l-4.66 2.76-.57-1.15c1.25-1.77 3.16-1.89 5.23-1.64zm-14.98 10.05l.63-2.39a10.59 10.59 0 0 1 1.18.26l-.63 2.46zM394.9 468.74l4.24-2.73zm5.37-3.07l3.24-.84c0 .58-.07 1.16-.11 1.74zM417.09 264l-.49-.25a2.64 2.64 0 0 1 .4-.35.65.65 0 0 1 .25.11 4 4 0 0 1-.16.49zm-117.44 47.06l-.92.33zm156.22 145l-11.41.29-2.69-4.57c-.54-1.1-.59-2.44-1.15-3.53-1.49-2.92-.13-5.56 3.15-5.86 3.68-.33 16 6.45 17.75 9.8z" class="E"/><path d="M268.24 342.08c-3.61-.84-4.51-2-3.1-5.23 2-4.61 4.39-9.07 6.83-13.47.53-.95 2-1.38 3-2.05l-3.27 7.24.9.36c5.79-6.15 10.55-.27 16.08 1.68l-1.54-3.09c2.76.85 4.47.53 5.56-2.81 1.4-4.28 5.87-5.52 9.54-7.18 1.94-.87 2.8.84 2.82 2.72-2.91 1.53-2.05 4-1.87 6.95l2-2.11c.09 10.3-7.4 15.58-16.68 13.88-.87-.16-1.68-1.66-2.17-2.7-1.67-3.51-3.49-4.18-6.74-2a50.82 50.82 0 0 0-4.42 3.64h0l-2.69 1.44h0l-1.56 1.17a2.41 2.41 0 0 0-.54.16l-2.1 1.36zM293 405.39c-2.7-1.05-4.84-2.22-7.12-2.7-4.2-.89-5.53-2.49-5.53-6.77A13.41 13.41 0 0 0 279 391c-1.15-2.74-.34-4.47 2.55-4.57a67.7 67.7 0 0 1 9.63.62 3.67 3.67 0 0 1 2.26 1.45c2.41 3.42 1.84 13.63-.44 16.89z" class="F"/><path d="M270.36 340.69a2 2 0 0 1 .54-.15l1.56-1.18h0l2.69-1.44h0a10.08 10.08 0 0 0 3.05-.3c2.14-.93 3.16-.13 4.55 1.6 1.13 1.4 3.28 2.22 5.13 2.76 1.67.48 3.72.22 3.71 2.64 0 2.26-.94 4.08-3.52 4.38a13.08 13.08 0 0 1-2.42.1c-4.58-.29-9.19-1.06-13.56 1.22a3.36 3.36 0 0 1-2.38.12c-1.67-.58-3.26-1.41-4.88-2.14l2.07-4.15c.37-.7.85-1.34 1.28-2h0zm-17.67 62.47c1.05 4.34-2.34 5.9-5.07 7.29-1.24.63-3.5-.41-5.16-1.06a29.54 29.54 0 0 1-6.17-3.12c-1.06-.73-2.36-2.34-2.2-3.33.29-1.73 1.22-4.09 2.58-4.75a14.86 14.86 0 0 1 13.67 0c1.46.76 2.17 3 3.22 4.5z"/><path d="M334.72 316.1l5.86-.66c1.74 3.54 4.85 3.29 8 2.74a25.41 25.41 0 0 0 3.88-1.33c1.77 2.32 1.25 4-1.68 5-1.47.49-3 .71-5.51 1.25 1.43 1.26 2.1 2.36 3 2.55 2.64.58 3.1 2.35 3.19 4.62.1 2.57 1 4.77 3.63 5.76.11 0 .28.07.31.14l2.2 5.54c.11.34-1 1.46-1.1 1.42-1.59-1-3.91-1.83-4.47-3.3-1-2.58-2.17-3-4.64-2.6-3.32.5-7.17-2.31-8.19-5.48a22.46 22.46 0 0 0 4 1.26c1.77.25 4.15.87 5.25 0 1.94-1.49.75-3.57-.91-5l-7-5.58c-2.18-2.03-3.92-4.2-5.82-6.33zm-55.26 55.26q.1-.28.18-.57c4.14-3.52 5.21-10.87 2.46-15.4-.69-1.14-.66-2.71-1-4.09a19 19 0 0 1 4.22.27 29.19 29.19 0 0 1 5.42 2.27c1.78.93 2.27 2.13.54 3.79a4.89 4.89 0 0 0-1.63 3.12c.36 5.65-3.49 8.52-7.3 11.34-.48.39-1.89-.45-2.89-.73z" class="F"/><path d="M249.64 350.79a9.83 9.83 0 0 1 3.18 11c-1 2.76-1.45 5.79-2.67 8.45-.78 1.72-2.53 3-3.84 4.46-1-1-3.06-2.2-2.89-2.85 1.83-6.94 4.01-13.79 6.22-21.06z"/><path d="M287.16 327.52l1.54 3.09c-5.53-1.95-10.29-7.83-16.08-1.68l-.9-.36 3.27-7.24a18.87 18.87 0 0 0 .41-1c.47-.66.93-1.31 1.38-2l.21-.76 4.11-1.5.15.17.52.56 1.59 1.74 2 5.59.8 1.07v.25l.92 1.71z" class="D"/><path d="M306.58 349.11a9.31 9.31 0 0 1-2.33-.4c-2.06-.91-2.77 0-3.49 1.88a47 47 0 0 1-3.28 5.8l1-11.37a3 3 0 0 1 2.46-.64c2.06 1.41 3.79 3.13 5.64 4.73zm14.12-23.94l-3.36 10.75-4.3-1.17a22.69 22.69 0 0 1 2.23-4.13c1.65-1.95 3.6-3.62 5.43-5.45z" class="F"/><path d="M305.22 325.09l-2 2.11c-.18-2.94-1-5.42 1.87-6.95l.13 4.84z" class="D"/><path d="M323.49 322.43l-2.76 1.77v-4.62l1.32-.21 1.44 3.06zm-42.39-6.31l-4.11 1.5c.43-3.78 1-4.1 4.41-2.41zm32.74 26.03l-2.22.08-.91-2.05 1-.7z" class="F"/><path d="M253.34 307.29c.16.17.4.32.38.44a.53.53 0 0 1-.38.37.54.54 0 0 1-.36-.37c0-.13.22-.29.36-.44z"/><path d="M297.53 357.15l2.41.31c-.94 1.15-1.86 1.79-2.41-.31zm-10.45-29.94l-.92-1.71zm-10.3-8.83l-1.38 2zm9.36 6.87l-.8-1.07.8 1.07zm120.98 31.24a5.92 5.92 0 0 0-4.61-7.69 17.57 17.57 0 0 1-.3-4.12 11.57 11.57 0 0 1 1.58-3.48c.65-1.21 2.09-2.49 1.91-3.5s-1.94-1.8-3-2.68c1.41-4-.81-7.28-3.27-9.43s-6.06-1-8.85 1l-1.66-2.22c-1.51-1.94-1.28-3.38.86-4.87 1.41-1 2.36-2.61 3.52-4 3.93 3.43 7.71 2 11.47-.34-1.38 3.48-2.7 7.05-.38 10.57.71 1.08 2.17 1.66 3.3 2.47a17.45 17.45 0 0 0 1.9-3.34 15.64 15.64 0 0 0 .13-3.44c.14-2.08.23-4 3.42-3.11.68.2 2.82-1.61 2.72-2.28a20.58 20.58 0 0 0-2.11-6.65c-1.33-2.56-3.14-4.88-4.12-7.88 6 4.84 13.89 6.9 18.22 13.7l.13.1 1.21 1.4 1.58 4.73c.24 2.73.91 4.63 4.29 2.84a2.87 2.87 0 0 1 2.65.89c1.93 3.64 3.62 7.41 5.33 11.16a2.42 2.42 0 0 1 .12 1.69 14.24 14.24 0 0 0 .26 10.41c.3.73-.59 1.94-.93 2.92-.94-.5-2.39-.78-2.72-1.54a42 42 0 0 1-1.69-6.25c.43-.5 1.25-1 1.23-1.52-.17-4.28.14-8.7-2.72-12.9-.65 2.61-1.36 4.77-1.68 7a47.72 47.72 0 0 0-.19 6c-.46 0-.92-.1-1.38-.11-5.27-.16-6.51 1.69-4.76 6.76 1 2.82 1.77 5.71 2.47 8.61a2.92 2.92 0 0 1-.5 2.46 2.64 2.64 0 0 1-2.51-.12c-4-3.3-10-3.84-12.42-9.44-.4-.93-3.35-.76-5.13-1.1-.26 1.43-.63 2.85-.76 4.29a26.56 26.56 0 0 0 .14 3.56zM431 336.74h0c2.81-2.46 2.72-4.55-.28-6.06h-1.91l-2.26-1.69c.69-.93 2-1.86 2-2.78 0-4.24-5.68-10.19-10.65-11l.4 8.66 3.06-.17 1.57 5.44c-1.16.68-3.08 1.14-3.33 2.07a111 111 0 0 0-2.49 12.68 2.88 2.88 0 0 0 1.66 2.23 3.19 3.19 0 0 0 2.66-.86 39.7 39.7 0 0 0 3.27-4.39l2-1.61c2.09.39 3.64-.26 4.3-2.52zm-19.29-7.17c-3.73 7.08-3.34 11.18 0 11.77z" class="F"/><path d="M430.77 321.47l-1.58-4.73-1.21-1.4-.13-.1c.11-3.5 1.85-4.63 5.23-3.79a13 13 0 0 0 4.48.27c9.71-1.13 12.61 7.21 18.49 12.26-4.94 3.28-8.57.78-12.25-1.12l-.67.8c.75 1.08 1.29 2.44 2.28 3.21 3.11 2.38 6.3 4.67 9.62 6.73 1.86 1.15 2.34 2.27.73 3.74a16.67 16.67 0 0 1-4.24 2.89c-1.82.81-3.45.38-3.94-1.91-1.23-5.74-4.83-10.14-8.28-14.6-1.34-1.73-2.81-3.44-5.53-2-.77.42-1.98-.13-3-.25zm28.53 65.46c-.36 1.16-.37 2.12-.85 2.65-2.81 3-2.33 6.78-2.65 10.46-.62 7-2.72 13.56-8.44 18.26-.83.68-2.22.67-3.35 1-.23-1.16-.92-2.46-.62-3.45l8.55-27a7.81 7.81 0 0 1 1.94-3.22c.91-.85 2.46-1.93 3.35-1.66s1.45 2.03 2.07 2.96zm-5.84-14.82c-.43 1.62-.52 3.1-1.21 4.2-.61.95-1.9 1.46-2.89 2.17a27.44 27.44 0 0 1-1.78-3l-7.37-16.64c-.33-.71-2.2-.62-3.29-1.06s-2.62-.87-2.88-1.67a3.52 3.52 0 0 1 1-3.25 4.44 4.44 0 0 1 3.69 0c6.2 3.14 10.26 8.33 13.12 14.52a49.3 49.3 0 0 1 1.61 4.73z"/><path d="M434.72,342.15a47.72,47.72,0,0,1,.19-6c.32-2.22,1-4.38,1.68-7,2.86,4.2,2.55,8.62,2.72,12.9,0,.49-.8,1-1.23,1.52Z" class="D"/><path d="M413.3 363.27l-2.57 1.73zm-7.58-48.8l.79-.18zm-29.98 9.81c-.06 4.28 2.56 7.07 5.66 9.33 2.47 1.81 2.58 3.29.35 5.18-.08.08-.23.13-.26.22-1.54 4.45-4.7 7.49-8.07 10.66-1.58 1.49-1 5.3-1.32 8-4.17-1.61-5.2-.82-4.72 4a9.6 9.6 0 0 1-.14 1.68c-3.19-3.07-6.75-5.84-9.42-9.3-1.69-2.19-2.05-5.4-2.84-7.69 3.33-2.3 6.11-4.09 8.73-6.07 1.48-1.12 1.35-2.14-.12-3.64a11.18 11.18 0 0 1-2.81-5.56c-.36-2.07-.92-3-3-3.35-3-.5-3.24-1.59-1.59-4.63 1.32.36 2.82.44 3.92 1.14s2.34 1.94 2.36 3c.13 5 1.2 6.08 6.53 5.66a24.09 24.09 0 0 1 .9 2.93c.86 4.62 4.93 6.27 8.61 3.31a2.77 2.77 0 0 0 .68-2.55 44.1 44.1 0 0 0-4.69-7.18c-2.86-3.42-2.89-3.71 1.24-5.14zm-13.32-29.63a34.68 34.68 0 0 0 3.47 3.59c1.8 1.42 4 2.37 5.63 3.93a4.62 4.62 0 0 1 1.17 3.77c-.54 2.25-.15 3.69 1.75 5 1.48 1 2.61 2.59 4.06 3.7 4.71 3.62 4.7 4.78-.29 8.29.6-3.85-3.15-8.08-7.41-8.65a19.12 19.12 0 0 1-4.17-1.62c.65-1.41 1.21-2.86 2-4.2a7.93 7.93 0 0 1 1.72-1.7c1.63-1.48 1.32-2.6-.7-3.22-1.75-.55-3.58-.83-5.32-1.41s-3.25-1.32-4.86-2c.64-1.53 1.26-3.08 2-4.58.13-.35.61-.55.95-.9z" class="F"/><path d="M369 332.84c-5.33.42-6.4-.66-6.53-5.66 0-1-1.32-2.32-2.36-3s-2.6-.78-3.92-1.14c.89-3.65 1.69-7.36 6.34-8l1 1.09 2 5.68 1.14 5.41a1.12 1.12 0 0 0 .15.5l1.67 2.26c.15.96.31 1.91.51 2.86z" class="E"/><path d="M350.13 312c-4-3.42-4-3.41-1.73-8.2a3.2 3.2 0 0 0-.06-2.59c-1.45-2.56-.58-3.84 2-4.43a21.6 21.6 0 0 0 2.22 2.44 5.86 5.86 0 0 1 0 9c-1.04.91-1.56 2.47-2.43 3.78zm21.94 91.15c-2.13-2.41-4-3.92-4.95-5.85-.53-1.05 0-3.14.77-4.19a5.74 5.74 0 0 1 3.86-1.89c.52 0 1.75 2.09 1.7 3.19a78.79 78.79 0 0 1-1.38 8.74zm-46.44-40.87c4.06 0 5.95 2 5 4.27-.31.77-1.73 1.3-2.72 1.49a3.56 3.56 0 0 1-2.19-.91c-1.1-.77-2.1-1.69-3.14-2.55zm37.28 30.99c-3-4.43-1.73-7 3.34-7.73zm3.74-66.04l-1.14-5.41zm1.82 2.77l-1.67-2.26zm-4.99-13.86l-1-1.09zm-3.57 55.72h.15z" class="F"/><path d="M351.76,366.46l-.05.06Z" class="E"/><path d="M364.76,288.15c-2.21-2.53-4.85-4.82-6.52-7.67-1.84-3.14-.91-4.48,2.77-5.26a26.54,26.54,0,0,1,5.76-.56,2.82,2.82,0,0,1,2.06,1.45,2.31,2.31,0,0,1-.88,2.11c-2.83,1.48-1.6,2.48.07,4,4.17,3.72,8.16,7.64,12.74,12-1.54.36-2.23.77-2.76.61-2.5-.75-4.47-.75-6.29,1.76-1.29,1.79-3.75.81-4.39-1.6-.35-1.31,0-2.82-.43-4.09-.34-1-1.37-1.76-2.09-2.62Z"/><path d="M390.58,326.59c2.79-2,6.32-3.22,8.85-1s4.68,5.43,3.27,9.43l-5.17,2a24.82,24.82,0,0,0-2.29,4.23,14.19,14.19,0,0,0-.18,3.93l-.88.42-1.1.25-.69.25-5.12-3.44q.17-4.07.35-8.15a30.12,30.12,0,0,0,2.72,2.35,13.69,13.69,0,0,0,2.49,1.12c.31-1.1,1-2.3.81-3.29a16.37,16.37,0,0,0-2-3.95Z" class="D"/><path d="M359 267.77c-3.24 3.39-6 4.87-9.4 4a37.54 37.54 0 0 1-7-2.92c-.66-.33-1.5-1.58-1.32-2.07.29-.81 1.44-2 2.06-1.9 5.03.73 9.95 1.77 15.66 2.89z"/><path d="M390 349.33l.09 4.15c.21 3.68-.54 4.2-4.19 2.79l-.25-2.63 1.42-5z" class="D"/><path d="M391.63 330.69a16.37 16.37 0 0 1 2 3.95c.22 1-.5 2.19-.81 3.29a13.69 13.69 0 0 1-2.49-1.12 30.12 30.12 0 0 1-2.72-2.35c-.34-3.05 2-3.24 4.02-3.77zM390 349.33l-2.93-.72c-1.33-2.05-3.66-4.13.22-6l5.12 3.43-2.41 3.29zm5.06-4.2a14.19 14.19 0 0 1 .18-3.93 24.82 24.82 0 0 1 2.29-4.23 23.16 23.16 0 0 0 .31 4.35c.67 2.57-.39 3.61-2.78 3.81zm-9.43 8.51l.25 2.63c-.56.71-1 1.71-1.73 2.05s-1.64-.13-2.48-.24c.14-.79 0-1.89.47-2.32a20.67 20.67 0 0 1 3.49-2.12zm7.45-7.84l1.1-.25z" class="F"/><path d="M400.56 410.28a26.92 26.92 0 0 1-1.11 3.75l-13.83 27.5c-.56 1.09-1.78 1.85-2.68 2.76a25.54 25.54 0 0 1-3.08-3.53 3.1 3.1 0 0 1 .05-2.66c2.47-4.27 3-9.9 8.33-12.23.68-.3 1.64-1.14 1.62-1.68-.19-4.24 3.52-6.24 5.12-9.41.71-1.41.76-3.15 1.47-4.56a14.13 14.13 0 0 1 2.53-2.8z"/><path d="M281.77 316.85l-.52-.56zm58.82-3.49l.56-2.1z" class="F"/><path d="M275.18 337.9l-2.69 1.44zm-4.82 2.79l-2.1 1.37zm2.1-1.33l-1.56 1.18z" class="E"/><path d="M426.63 339.21l-2 1.61c-4.6 1.08-4.6 1.08-4.41-3.08.28-6 .28-6 6.89-6.74a13.93 13.93 0 0 0 1.67-.39h1.91q.15 3 .28 6.06h0z"/><path d="M422.88 329.09l-1.57-5.44-3.06.17-.4-8.66c5 .79 10.65 6.74 10.65 11 0 .92-1.27 1.85-2 2.78z" class="D"/><path d="M422.88 329.09l3.66-.17 2.26 1.69a13.93 13.93 0 0 1-1.67.39c-6.61.76-6.61.76-6.89 6.74-.19 4.16-.19 4.16 4.41 3.08a39.7 39.7 0 0 1-3.27 4.39 3.19 3.19 0 0 1-2.66.86 2.88 2.88 0 0 1-1.66-2.23 111 111 0 0 1 2.49-12.68c.25-.93 2.17-1.39 3.33-2.07z" class="E"/><path d="M411.66 329.57v11.77c-3.34-.59-3.73-4.69 0-11.77z" class="D"/><path d="M431 336.7q-.14-3-.28-6.06c2.99 1.51 3.08 3.6.28 6.06zm-4.37 2.51l4.32-2.47c-.61 2.26-2.16 2.91-4.32 2.47zm1.37-23.87l1.21 1.4z" class="E"/></svg>