<svg xmlns="http://www.w3.org/2000/svg" viewBox="0 0 720 720" xmlns:v="https://vecta.io/nano"><style><![CDATA[.E{fill:#761a29}.F{fill:#a23748}.G{fill:#3a0d11}.H{fill:#977c35}]]></style><path d="M0 0h720v720H0z"/><g class="H"><path d="M366.57 713.94A47.6 47.6 0 0 0 367 720h-27.79c.36-3.53.82-7 1.07-10.59l4.89-69.17a670.66 670.66 0 0 0-1-105.3l-4.33-55.62c-.24-3.09-.62-6.18-.74-9.28a3.63 3.63 0 0 0-1.05-2.9l4.7-5.07c.69 0 1.65-.59 3.39-1.72l2.14.17c4.71 1 9.46 1.94 14.1 3.21 1.43.4 3.26 1.57 3.7 2.82a80.71 80.71 0 0 1 2.66 10.72c.35 1.7 1.22 3.86-2 4-.38 0-1 1.19-1 1.83 0 1.94.23 3.88.38 5.82s.17 3.82.26 5.71l.28 2.29.74 7.83.17 2.4c2.71 36 6.37 71.93 4.59 108.08l-5.59 98.71z"/><path d="M342.76 462.07l-4.7 5.07a4 4 0 0 0-3.15-.44c-5.2.79-10.45 1.27-15.68 1.79a14.79 14.79 0 0 1-3.08-.32l-4.24-.38-2 .17c-5.23-2.56-10.53-5-13.63-10.39a23.11 23.11 0 0 0-1.46-2.95c-1.42-2.1-3.06-4-4.36-6.2-.52-.84-.36-2.1-.51-3.16a22.1 22.1 0 0 1 3.54-.09c.61.08 1.11.9 1.74 1.06 2.22.56 4.6 1.64 6.71 1.28 2.73-.48 5.32-2 7.87-3.32 2.27-1.14 4.42-2.55 7.11-4.13a86.36 86.36 0 0 0 .09 9.13c.18 1.55.82 3.54 2 4.42 3.21 2.47 8.72 1.19 11.34-2.22a2.64 2.64 0 0 0 .44-.23c2.29-.84 4.22-1.15 5 2.08.21.93 1.56 1.57 2.31 2.43a14.19 14.19 0 0 1 2.47 3.21c.91 2.17 1.34 3.17 2.19 3.19z"/></g><path d="M487.28 185.51c4.7 21.59 1.5 41.31-14.42 57.61-4.61 4.73-10.29 8.39-15.41 12.63-1.82 1.51-3.42 3.28-5.12 4.94l-1.35-8.8-1.41.05c1.13 11.42-3.36 22.33-3.16 33.66l1.11.45 5.51-3.69c-1.66 2.92-3.19 5.93-5.1 8.68-.41.58-2.78.72-3.31.16-3.57-3.72-7.79-2.94-12.26-2.69-5.52.3-10.9-.83-14.84-5.4a14.54 14.54 0 0 1 3.2.86c5.38 1.74 10.73 2.18 15.54-1.41 1.08-.81 1.43-2.6 2.11-3.94-1.45-.47-3.13-1.65-4.29-1.26-3.17 1.06-5.36 0-7.39-2.18-4.14-4.45-8.92-6.45-14.91-3.92a5.53 5.53 0 0 1-1.37.22c.23-1.29.09-3.45.75-3.73 4.43-1.89 8.48-6.09 14-2.27 2.64 1.81 5.1 1.19 6.72-2.12a28.74 28.74 0 0 1 4.55-6.47c2.57-2.85 5.43-5.42 8.16-8.11a12.48 12.48 0 0 0-5.48.41l-14.88 4.15c1.2-1 2.25-2.33 3.62-2.83 3.94-1.45 6.4-3.94 7.18-8.13 1.15-6.24 2.63-12.43 3.5-18.71a34.92 34.92 0 0 0-.07-11c-.73-3.92-5.44-5.56-7.65-3-2.6 3.07-5.44 6.25-6.94 9.89-3.52 8.58-8.72 16-14.47 23.08-.59.73-1.87 1.7-2.42 1.49a3.5 3.5 0 0 1-2-2.43c0-2.95.45-5.9.56-8.86a20.29 20.29 0 0 0-.54-3.76c-1.16.7-2.73 1.13-3.42 2.14a114.39 114.39 0 0 0-7.08 11.52c-1.23 2.38-1.68 5.16-2.49 7.76h0l-4.8 1.25-9.1 3.66a47 47 0 0 0-.66-5.84c-.94-4-2.7-4.77-6.6-3.46-2.29.77-4.64 1.32-7 2-3.14.87-6.3 1.57-7.29 5.49a3.5 3.5 0 0 1-2.59 2.13c-.78 0-1.54-1.55-2.31-2.42 3.55-.87 4.24-3 2.65-6.09 5.75-1.2 8.11-6.11 11-10.33.64-.95 0-2.73 0-4.13-1.27.26-2.7.23-3.78.84-3.6 2-5.31 2-8.37-.8-1.2-1.09-2.19-2.67-3.59-3.19s-4.45-.7-4.83 0c-2.08 3.91-5.3 3.94-9 4.1-2.69.11-3.29-.92-4.06-3-.67-1.82-2.05-3.4-3.16-5.06-.76-1.13-1.61-2.21-2.38-3.34-1-1.43-1.57-3.48-2.9-4.22-4.19-2.33-6.44-6.13-8.86-9.93a3.07 3.07 0 0 0-2.93-.47c-2.22 2.17-3 .85-4-1.13a119.13 119.13 0 0 0-6.45-12.28c-2.34-3.63-4.32-8-10.27-9 .62 2.4 1.23 4.3 1.58 6.25a29.64 29.64 0 0 1 .9 7.13c-.44 6.56-1.32 13.08-1.85 19.63-.23 2.82-1.5 5-4.19 5.13-4.86.19-8.34 3-12.24 5.21-3 1.67-3.93 4-3.34 7.23a36.1 36.1 0 0 1 .91 6.15c0 6.1 2.27 11.47 5.31 16.54 1.51 2.53 2.77 4.86 2.43 8a11 11 0 0 0 1.27 6c2.63 4.92 1 9-1.74 13.12-2.26 3.46-6.67 6.24-4 11.45a14.05 14.05 0 0 0-3-2.33c-1.59-.67-3.7-1.73-5-1.18a65.53 65.53 0 0 0-9.43 5.54c-.48.31-.69 1.16-.88 1.8l-2.45 8.56c1-3.74 1.16-8 3.19-11 1.76-2.62 5.47-4.16 8.6-5.56 5.23-2.35 6.29-3.91 6.69-9.75.62-9-3.87-15.48-10.28-20.88-4-3.35-8.43-6-13.86-6.46-2.43-.2-3.95.77-3.72 3.3.36 4.12 1 8.22 1.47 12.33.44 3.58 2.89 5.33 6.08 5.68a95.59 95.59 0 0 0 12.09.35c3.23-.07 4 .8 2.69 3.77-2 4.69-5.49 6.46-10.41 4.64-3.65-1.35-7-3.53-10.53-5.18-4.08-1.91-6.19-1-8 3a14.67 14.67 0 0 1-1.95 2.63c-.83-.72-2-1.27-2.45-2.18-3.47-7.12-10-10.83-16.43-14.4-7.69-4.28-15.81-7.78-23.75-11.62-2.65-1.28-4.53-.68-6 2-.76 1.36-2.14 2.91-3.52 3.26-3.27.81-4.62 2.74-4.09 5.75a18 18 0 0 0 2.42 6.69c4.86 7.41 10 14.68 15.05 21.94 3.28 4.69 6.57 8.56 13.63 6.26a10.78 10.78 0 0 1 10.76 3.16c1.94 2 4 4 6.08 5.83 1.2 1.08 2.67 1.84 3.84 2.93 3.34 3.14 6.65 6.31 9.84 9.6a42.54 42.54 0 0 1 3.36 4.48 92.56 92.56 0 0 1-9.34-4.54c-1.93-1-4.17-1.39-6-2.55-5.52-3.56-11.62-4.44-17.93-4.2-4 .15-12.71 7.14-12.84 11-.16 4.49-2.26 7.81-4.05 11.52-.54 1.12 0 3.89.92 4.37a60.42 60.42 0 0 0 11.43 4.87c4.72 1.42 9.61 2.22 15.36 3.5a11.35 11.35 0 0 0-2.28.66c-1.63 1.08-4.64 2.37-4.54 3.31a8.5 8.5 0 0 0 3.33 5.49c2 1.36 4.71 1.71 7.16 2.26 2.13.49 4.49.25 6.49 1 6.31 2.39 12.49 3.79 19.19 1.23 1-.4 3.11 2 4.7 3.06-1.23.77-2.38 2-3.7 2.19-1.63.26-3.38-.33-5.09-.5-1-.1-2.34-.54-2.92-.07-4.77 3.87-10.45 3.62-16.08 4.12a66.72 66.72 0 0 0-11.42 2.48c-4.19 1.15-5.88 4.5-6.75 8.45-1.11 5.07.51 8.87 4.6 12.14 6.61 5.29 7.23 8.36 4 16.08-.92 2.21-.28 2.91 2 2.91s4.52.39 6.78.61c-18 3.93-36.29 4.93-54.89 4.51l4.69 2.71a97.62 97.62 0 0 1-9.42-3.22c-2.66-1.2-3.77-3.44-3-6.59 1.12-4.34 1.61-8.87 3-13.13 2.48-7.86 8.64-13.13 14.67-18 6.67-5.43 14.07-10 21.41-14.55 2.89-1.78 3.46-3.4 2.41-6.42a21.27 21.27 0 0 0-9.44-11.42 196 196 0 0 1-20.65-15c-6.21-5.16-7.21-12.69-6.71-20.26.09-1.35 2.33-2.67 3.76-3.78a54.54 54.54 0 0 1 4.72-3c-1.43-1.24-2.68-2.88-4.33-3.68-19.07-9.19-28.29-24.71-30.52-45.4-1.25-11.48.31-22.57 1.92-33.77.59-4.08 2.49-7 6.51-8.63 1.74-.7 3.09-2.34 4.67-3.47s3-2 4.5-3l-6.8 8.63c-.88-.61-.61-.25-.36.12 1 1.41 2.79 2.91 2.66 4.21-.26 2.51-2.74 2.31-4.88 2.65a6 6 0 0 0-3.8 3.18c-4.78 11-3.19 22.46-2.28 33.83a33.73 33.73 0 0 0 2.76 10.61 75.12 75.12 0 0 0 6.92 12.3c3.92 5.72 8.13 11.34 14.64 14.43 1.39.67 4.32 1 4.61.51a7.8 7.8 0 0 0 .76-5.39c-2-7-7.54-12.8-7.32-20.64 0-.21-.17-.42-.25-.64l-4.54-12.32c-2.41-7.16-.66-11.6 5.69-15.59a6.88 6.88 0 0 0 2.63-3.27c.93-2.61 2.5-2.94 4.88-2.27 1.87.53 4 1.34 5.72 1a34.82 34.82 0 0 1 15.37.43c1 .24 3.18-.78 3.3-1.47.53-3.24 2.6-4.34 5.51-4.59a85 85 0 0 0-1.64-9 9.68 9.68 0 0 0-2.87-4.56c-2.21-1.85-2.82-3.6-.48-5.27a7.64 7.64 0 0 1 5.64-1.14c5.88 1.53 11.85 2.86 16.51 7.48 2.67 2.64 5.19 1.82 7.7-1.1a29.86 29.86 0 0 1 3.94-3.17 15.07 15.07 0 0 0 2.73-2.48c1.17-1.63 2.1-3.43 3.43-5.67a46.44 46.44 0 0 1-3.92-2.6c-3-2.4-6-4.91-8.95-7.38l12 5.72c1.44.72 2.63 1.92 4.06 2.64.84.42 2.2.74 2.84.34s.88-1.83.73-2.71c-.49-3-1.15-5.9-1.9-8.8-3.51-13.48-4.72-27.13-2.17-40.86 1.4-7.56 6.16-13.35 12.17-18a5.48 5.48 0 0 1 3.53-1.17c6.4.59 13.17.29 19.1 2.36 26.33 9.22 45.21 26.93 56.09 52.65 2.39 5.62 2.75 12.09 4.21 18.14.31 1.29 1.33 2.42 2 3.63 1-.84 2.34-1.47 3-2.53 3.44-5.47 6.69-11.06 10-16.6 2.74-4.54 5.75-8.43 12.12-7.09 1.12.24 3.39-1.15 3.89-2.32a112.87 112.87 0 0 1 15.56-26.53c5.59-7 11.41-14 18.09-19.86 4.25-3.75 10-6.17 15.51-8a95 95 0 0 1 29.6-5.07c6.58-.06 10.46 3.84 14.73 7.29 7.9 6.4 12.56 15.24 16.91 24.22a6.59 6.59 0 0 1 .31 2c-1.27-2.18-2.47-4.39-3.81-6.52-4.79-7.62-10.13-14.49-17.63-20-4.7-3.46-9-5.39-14.59-5.24a79.55 79.55 0 0 0-37 10.34c-3.92 2.19-7.28 5.64-10.36 9s-5.23 7.33-8 10.83c-8.55 10.62-16.21 21.69-19 35.89a10 10 0 0 0-1.15-2.19 26.08 26.08 0 0 0-2.51-2 11 11 0 0 0 0 3.09c.68 2.2 1.91 4.25 2.42 6.48 1.84 8 3.35 16.09 7.41 23.37a15.55 15.55 0 0 0 2.36 2.6c.38-1.08 1.29-2.3 1.05-3.21-1.76-6.53-3.9-13-5.61-19.51-.64-2.43-1.15-5.28-.47-7.58 1.11-3.78 4.42-4.85 9.61-3.43 3.61 1 6.25-.22 9.41-1.83a25.8 25.8 0 0 0 11.05-10.4c.65-1.14 2-1.85 3.05-2.78 2-1.87 4.42-3.49 6-5.69a131 131 0 0 0 8.27-13c5.31-9.5 13.84-15.68 22.21-22a33.55 33.55 0 0 1 4.7-2.52l.69.7a35.64 35.64 0 0 1-2 3.25c-1.83 2.46-3.8 4.81-5.63 7.27-5.1 6.88-3.91 14.85-3.7 22.59.05 1.73 1.1 3.53 2 5.12 1.77 3.13 3.38 3.07 5.24 0 .78-1.28 1.73-2.46 2.47-3.75a60 60 0 0 0 3.65-6.78c1.54-3.68 2.79-7.48 4.4-11.89l.49 8.85h.92l1.88-2.22 1.09.12c0 1.55.12 3.11 0 4.65-.58 6.65-2.22 13.39-1.52 19.89.47 4.42-.4 8.3-.66 12.45-.22 3.57.1 8.22 2.19 10.68 4.5 5.27 5.94 10.42 3.63 16.81-.31.85-.81 2-.53 2.66 2.07 5.22-1.22 9.35-2.51 13.91-.47 1.67-.8 4.33.11 5.22 1.85 1.83 4.17.51 5.75-1.19 2-2.19 3.52-5 5.8-6.83 5.53-4.48 7.41-11.2 9.84-17.13a51.87 51.87 0 0 0 3.59-23.46c-.27-4.22.58-8.51.86-12.76zM270 258.15c2-1.51 1.64-3.39.1-4.65-1.72-1.42-3.9-2.27-5.88-3.36-.22-2.95.13-6.09-.79-8.79a92 92 0 0 0-5.72-12.15c-.45-.87-1.53-1.42-2.31-2.12a11.79 11.79 0 0 0-2 2.95c-.61 1.95-.39 4.24-1.29 6-2.25 4.37-1.58 7.87 2 11.09a10.69 10.69 0 0 1 1.66 2.93l-6-1.83c4.73 3.93 10.07 6.86 14.27 11s7.4 9.48 11.11 14.4a12.63 12.63 0 0 0 .46-1.77c.44-3.51-2.78-6.85-.51-10.55.15-.25-1.26-1.7-2.15-2.25a10.46 10.46 0 0 0-2.95-.9zM281.07 159l1.12-1.18 5.27 2.13c1.61.6 3.23 1.49 4.89 1.59 3.22.19 4.85 1.66 6.09 4.63a15.38 15.38 0 0 0 9.82 9.11c2.5.78 5 1.71 7.49 2.33 1 .23 2.54.16 3.07-.44a3.17 3.17 0 0 0 0-3.06c-4.17-4.78-8-10.11-12.92-13.92-11.52-8.87-24.37-15.12-39.22-16.4-3.82-.33-5.34.64-6.45 4.07a4.21 4.21 0 0 1-3.07 2.43c-4.3 0-6.67 2.36-8.14 5.87a45.08 45.08 0 0 0-3.23 23.34c.86 6.75 1.89 13.48 3.13 20.16.8 4.3 2 8.52 3.21 12.73.83 2.94 2.86 3.36 4.85 1.3a9.9 9.9 0 0 0 2.07-4.72c.35-1.64 0-3.42.12-5.13.12-2.34.29-4.69.54-7 .15-1.43 0-3.64.85-4.11 3.77-2.16 3-4.54 1.56-7.8-1.86-4.26.63-10.18 4.1-11.24 4.51-1.37 9-3 13.54-4.05 1.52-.36 3.37.37 5 .86a18.52 18.52 0 0 1 3.28 1.75l1-1q-4.04-6.14-7.97-12.25zm-69.49 212a32 32 0 0 0-5.23 1.58c-12 6.23-22 15.09-31.1 25-2.57 2.8-4.48 6.26-3.91 10.4.34 2.45 2 3.36 3.44 1.76a55.11 55.11 0 0 0 4.7-6.64 21.39 21.39 0 0 1 2.23-3.37c2.46-2.41 5.18-4.54 7.63-7 6.64-6.56 14.42-11.41 22.67-15.63 1.43-.73 2.42-2.32 3.61-3.51zM191 310.42v1.51h29.55c-10.07-4.2-19.77-4.16-29.55-1.51zm309.18 19.45c2 2.48 1.48 4.38-.44 7-3.82 5.18-7 10.86-10.38 16.33-1.66 2.15-1.13 3.57 1.45 4.32 1 .29 2 .73 3 .94 6.89 1.46 12.6 5.16 17.71 9.74 7.73 7 13 15.8 18.29 24.65a3.17 3.17 0 0 1-.24 3c-3 2.63-6.24 5-9.4 7.45-7.6-.2-13.29 5.5-20.47 6.61-.1 0-.17.15-.27.22l-13.54 10.51 5-.68-12.75 5.67c-2.4-.44-2.45.9-2 2.65q1.68 6.82 3.32 13.66c-1.36 1-2.68 2.11-4.11 3a83.77 83.77 0 0 1-9.38 5.63c-2.75 1.28-4.76.41-6.15-2.87-.91-2.14-3.27-4.58-5.41-5.09-3.7-.89-7.74-.52-11.64-.44-3.71.09-4.13 1.51-2.56 4.9 1.3 2.82 1.8 6 2.66 9a73.41 73.41 0 0 1-7.45-.76 35.26 35.26 0 0 1-5.49-2l-.49-.55c.6-1.1 1.85-2.33 1.67-3.28-.88-4.44 2.14-6.37 4.88-8.66 3.31-2.75 5.59-6.21 7.17-11.61-3.22.49-6 .19-7.87 1.34a92 92 0 0 0-11.39 8.74c-2.36 2-3.34 4.7-1.59 7.74a17.74 17.74 0 0 1-2.31-.58c-4.95-1.88-5.38-3.79-2-7.75a32.34 32.34 0 0 0 2.79-4.7l3.28-2.16c2.06 3.43 3.92.59 5.73-.25 3.11-1.46 6.11-3.14 9.19-4.64.91-.45 2.3-.33 2.89-1 2.76-3.07 5.77-5.18 10.15-4 6.59 1.41 13.22 2.07 19.9.61 4.07-.89 5.29-3.07 4.17-7.11-1-3.56-2.05-7.11-2.9-10.7-.73-3.08.69-4.41 3.75-3.72a10.65 10.65 0 0 1 2.64.81c2.64 1.4 4.78.8 6.91-1.17 4-3.67 8-7.32 12.18-10.69 1.7-1.36 3.58-2.3 2.91-4.86s-2.87-2.82-5-2.77c-3 .08-4.85-1.23-5.44-4.18-1-4.86-4.2-8.27-7.85-11.09-3.18-2.45-7-3.75-10.89-1-2.17 1.51-4.22 3.18-6.32 4.77l-3 2.23-.86-.64 2.28-7.71.22-.21c3-1.88 6.11-3.62 9-5.7 1.34-1 3-2.61 3-3.94 0-1.12-2.05-2.75-3.51-3.26-4.82-1.69-9.63-3.18-12.9-7.55a6.3 6.3 0 0 0-3.32-2.35c-5.65-1.15-5.29-6.39-7.11-10.11-.22-.44.27-1.31.58-1.89 2.75-5.1 1.22-7.88-4.57-8.62-.91-.12-2.36-1.28-2.38-2a42.12 42.12 0 0 1 .64-7.92c.36-2.25 1.59-3.06 3.57-1.29-.6.82-1.71 1.63-1.71 2.44 0 2.45-.47 5.91.89 7.11 2 1.79 5.44 2.06 8.31 2.79.5.13 1.24-.62 1.87-1 2.58.94 4.39-.15 6.08-2a22 22 0 0 1 4.31-3.88c6.19-4 12.85-7.17 18.05-12.67 4.25-4.5 8.91-8.5 4.83-15.45a1.12 1.12 0 0 1-.11-.68c.48-3.41-1.67-4.44-4.44-4.91-6.13-1.05-5.36-5.64-2.32-8.82 1.2-1.24 2.75-2.19 3.76-3.55.74-1 .85-2.43 1.25-3.67-1.28-.32-2.55-.71-3.85-.93a4.52 4.52 0 0 0-1.68.35l-24.43 6.29c-5.41.17-6.3-.69-6.11-5.95a10.41 10.41 0 0 1 .22-1.36 7.59 7.59 0 0 0 .57 1.6c.73 1.18 1.45 3.14 2.36 3.25a5.14 5.14 0 0 0 4.06-1.76A59.32 59.32 0 0 1 481 248.65c7.51-3.8 15.28-6.49 23.8-6.26 1.54.05 3.06.81 4.59 1.24a6.18 6.18 0 0 0-.36.53 37.51 37.51 0 0 0-5.85-.52c-16.19 1-28.79 8.86-39.29 20.67a10.85 10.85 0 0 0-.91 2.29 49.54 49.54 0 0 0 4.75-1.63 37.42 37.42 0 0 1 16.78-3.59 29.58 29.58 0 0 0 8.46-1.53l20.59-6.13a12.34 12.34 0 0 1 3.22 0l.06.91-3.89 2.86-.3.95c5-.38 6.27 2.58 6.82 6.88a2.44 2.44 0 0 0 1.4-1.76c.54-3.39 1.64-6.87 1.26-10.17-.21-1.83-2.9-3.39-4.48-5.07l.65-.46a33.21 33.21 0 0 1 5.39 3 4.59 4.59 0 0 1 1.57 3.49 28.07 28.07 0 0 1-2.13 8.66c-5.85 11.87-13.89 22.25-22.67 32.08-2.38 1.93-4.91 3.7-7.09 5.83-4.52 4.41-8.45 9.52-13.36 13.41-5.91 4.67-12.57 8.4-18.93 12.49-1.76 1.13-4.1 1.92-1.74 4.57-.18 1.69-1 3.64-.37 5s2.42 2.47 3.94 3.2c.58.28 2.28-.54 2.66-1.28 2-3.84 3.75-7.81 5.59-11.74l4.87-.33-.42 4.08a22.43 22.43 0 0 0 3.93 0 19 19 0 0 0 5.29-1.52 11.52 11.52 0 0 1 12.16.53c.82.52 2.11.37 3.19.54zm-1.88 7.43l-1.24-1.09-8.68 6.8a3 3 0 0 0-.95 1.79 27.63 27.63 0 0 0-.07 3.53c1.27-.28 3.06-.13 3.69-.91 2.61-3.22 4.87-6.72 7.25-10.12z" class="E"/><path d="M487.28 185.51c-.31 4.25-1.13 8.54-.82 12.74a51.87 51.87 0 0 1-3.59 23.46c-2.43 5.93-4.31 12.65-9.84 17.13-2.28 1.85-3.77 4.64-5.8 6.83-1.58 1.7-3.9 3-5.75 1.19-.91-.89-.58-3.55-.11-5.22 1.29-4.56 4.58-8.69 2.51-13.91-.28-.71.22-1.81.53-2.66 2.31-6.39.87-11.54-3.63-16.81-2.09-2.46-2.41-7.11-2.19-10.68.26-4.15 1.13-8 .66-12.45-.7-6.5.94-13.24 1.52-19.89.14-1.54 0-3.1 0-4.65l-1.09-.12-1.88 2.22h-.92l-.49-8.85c-1.61 4.41-2.86 8.21-4.4 11.89a60 60 0 0 1-3.65 6.78c-.74 1.29-1.69 2.47-2.47 3.75-1.86 3-3.47 3.09-5.24 0-.9-1.59-1.95-3.39-2-5.12-.21-7.74-1.4-15.71 3.7-22.59 1.83-2.46 3.8-4.81 5.63-7.27a35.64 35.64 0 0 0 2-3.25l-.69-.7a33.55 33.55 0 0 0-4.7 2.52c-8.37 6.35-16.9 12.53-22.21 22a131 131 0 0 1-8.27 13c-1.59 2.2-4 3.82-6 5.69-1 .93-2.4 1.64-3.05 2.78a25.8 25.8 0 0 1-11.1 10.36c-3.16 1.61-5.8 2.81-9.41 1.83-5.19-1.42-8.5-.35-9.61 3.43-.68 2.3-.17 5.15.47 7.58 1.71 6.54 3.85 13 5.61 19.51.24.91-.67 2.13-1.05 3.21a15.55 15.55 0 0 1-2.36-2.6c-4.06-7.28-5.57-15.37-7.41-23.37-.51-2.23-1.74-4.28-2.42-6.48a11 11 0 0 1 0-3.09 26.08 26.08 0 0 1 2.51 2 10 10 0 0 1 1.15 2.19c2.83-14.2 10.49-25.27 19-35.89 2.82-3.5 5-7.53 8-10.83s6.44-6.81 10.36-9a79.55 79.55 0 0 1 37-10.34c5.63-.15 9.89 1.78 14.59 5.24 7.5 5.53 12.84 12.4 17.63 20 1.34 2.13 2.54 4.34 3.81 6.52l5.16 15.1v.07zM229.44 204.2l8.95 7.38a46.44 46.44 0 0 0 3.92 2.6l-3.43 5.67a15.07 15.07 0 0 1-2.73 2.48 29.86 29.86 0 0 0-3.94 3.17c-2.51 2.92-5 3.74-7.7 1.1-4.66-4.62-10.63-5.95-16.51-7.48a7.64 7.64 0 0 0-5.64 1.14c-2.34 1.67-1.73 3.42.48 5.27a9.68 9.68 0 0 1 2.87 4.56 85 85 0 0 1 1.64 9c-2.91.25-5 1.35-5.51 4.59-.12.69-2.33 1.71-3.3 1.47a34.82 34.82 0 0 0-15.37-.43c-1.77.36-3.85-.45-5.72-1-2.38-.67-3.95-.34-4.88 2.27a6.88 6.88 0 0 1-2.63 3.27c-6.35 4-8.1 8.43-5.69 15.59 1.4 4.14 3 8.21 4.54 12.32.08.22.25.43.25.64-.22 7.84 5.33 13.61 7.32 20.64a7.8 7.8 0 0 1-.76 5.39c-.29.54-3.22.16-4.61-.51-6.51-3.09-10.72-8.71-14.64-14.43a75.12 75.12 0 0 1-6.92-12.3 33.73 33.73 0 0 1-2.76-10.6c-.91-11.37-2.5-22.87 2.28-33.83a6 6 0 0 1 3.8-3.18c2.14-.34 4.62-.14 4.88-2.65.13-1.3-1.7-2.8-2.66-4.21-.25-.37-.52-.73.36-.12l6.83-8.64a1.42 1.42 0 0 1 .53-.2l5-2.43 1-.47 10.75-3.91L181 206l18.11-5.3c.46-.14.78-.79 1.16-1.2 10.27-1.91 19.91.23 29.17 4.7z" class="F"/><path d="M366.16 488.94l-.38-5.82c0-.64.61-1.81 1-1.83 3.2-.16 2.33-2.32 2-4a80.71 80.71 0 0 0-2.66-10.72c-.44-1.25-2.27-2.42-3.7-2.82-4.64-1.27-9.39-2.17-14.1-3.21 4.09-1.55 8.23-3 12.24-4.73.93-.4 1.43-1.81 2.13-2.75a12.61 12.61 0 0 0-3.07-.94 14.38 14.38 0 0 0-3 .57 27.81 27.81 0 0 1-4.78.56c-2.15 0-2.88-1.08-1.76-3.19a27.09 27.09 0 0 0 1.38-3.82c.1-.21.2-.41.29-.62 2.93-2.68 6-5.26 8.78-8.05 4.19-4.15 10-4 14.06.6-3.18-.78-6.25-1.52-8.7 1.83-.58.79-2.31.81-3.53 1.07-5.24 1.12-8.82 4.91-9.73 11l4.54-1.82c5.32-2.32 9.61-7.47 16.38-5.9.49.12 1.22-.54 1.76-.93 3.43-2.52 5.56-2.42 8.95.18a13.87 13.87 0 0 0 3.28 1.35c0 4.83-2.45 8.25-6.16 11-3.15 2.32-6.44 4.48-9.47 6.95-.89.73-1.12 2.27-1.66 3.44 1 .33 2.09 1 3.06.91 2.66-.31 5.27-1 8.54-1.62-1 2.7-1.82 4.9-2.51 7.15-1.91 6.23-1.37 12.54-.51 18.85-.68 1.1-1.86 2.15-1.94 3.28-.66 9.14 2.22 17.46 7.48 24.65a50.07 50.07 0 0 0 20.5 16.44c7.9 3.45 15.6 7.36 23.45 11 1.08.49 2.46.33 3.71.48l.49-1.24a27.67 27.67 0 0 0-3.95-2.67c-9.31-4.23-16.55-11.37-24.22-17.75A157.46 157.46 0 0 1 385.74 507c-2.86-3.35-4.18-8-6.19-12.11q4.44 5.5 8.89 11c5 6.24 11.83 6.93 18.86 5.31 2.13-.5 3.84-3.27 5.46-5.23.75-.9.73-2.4 1.19-3.59 1-2.55 2.61-3 5.24-2 5.4 2 11.41 2.55 16 6.63a2.85 2.85 0 0 0 1.31.4c2.94.49 4.48-1 3.92-3.94a86.77 86.77 0 0 0-2-8.75c-1.39-4.64-3-9.2-4.49-13.82q-3.11-9.87-6.08-19.79c-.24-.8-.4-2.15 0-2.5a4.5 4.5 0 0 1 2.78-.55 5.83 5.83 0 0 1 1.92.76l1.06.23.48 3.35v-.12l13.67 35.11c5.29 12.82 5.67 25.86 2.53 39.13-1 4.26-2.55 8.39-3.88 12.57a3.77 3.77 0 0 1-4.93 2.71c-8.34-2.21-16.9-4-24.87-7.13-12.27-4.91-24-11.28-32.4-21.86a38.43 38.43 0 0 1-8.52-20.43c-.55-5.86-1.13-11.81-5.27-16.55-.83-1-1.86-1.72-3.48-3.19a172.35 172.35 0 0 0-.78 6.3z" class="E"/><path d="M296.29 457.57c3.1 5.36 8.4 7.83 13.63 10.39-3.59 2-7 4.69-10.8 5.77-12.44 3.5-25 6.46-37.59 9.49-11 2.64-21.57.1-32-3-2.3-.68-4.5-1.69-6.75-2.55l23.7 4.86c6.08 1.25 11.91.09 17.71-1.79-10.45 1-20.77 1.22-30.54-3.42 1.59-.81 3.14-1.71 4.77-2.42 2.58-1.1 4.45-3.95 3.74-6.33-.93-3.14-3.3-1.49-5.2-1.35a5 5 0 0 1-1.37.12c-2.11-.49-5.16-.91-4.52-3.62a29.33 29.33 0 0 1 4.55-9.44c1.38-2 3.78-3.34 5.67-5 5.06-4.51 11.27-6.62 17.6-8.41 5.05-1.43 10.17-2.63 15.27-3.9a10.56 10.56 0 0 1 1.87-.13l1.35 1.59-3.66 1.75c-3.6 1.78-7.24 3.49-10.77 5.4-1 .53-1.58 1.7-2.35 2.57a20.37 20.37 0 0 0 3.08 1.58 2.57 2.57 0 0 0 2-.26c3.93-2.66 8.47-1.9 12.76-2.26 8.86-.76 8.79-.6 13.68 6.65.98 1.48 2.75 2.48 4.17 3.71z" class="G"/><path d="M296.29 457.57c-1.42-1.23-3.19-2.23-4.21-3.74-4.89-7.25-4.82-7.41-13.68-6.65-4.29.36-8.83-.4-12.76 2.26a2.57 2.57 0 0 1-2 .26 20.37 20.37 0 0 1-3.08-1.58c.77-.87 1.39-2 2.35-2.57 3.53-1.91 7.17-3.62 10.77-5.4l3.66-1.75-1.34-1.59a10.56 10.56 0 0 0-1.87.13l-15.27 3.9c-6.33 1.79-12.54 3.9-17.6 8.41-1.89 1.68-4.29 3-5.67 5a29.33 29.33 0 0 0-4.55 9.44c-.64 2.71 2.41 3.13 4.52 3.62a5 5 0 0 0 1.37-.12c1.9-.14 4.27-1.79 5.2 1.35.71 2.38-1.16 5.23-3.74 6.33-1.63.71-3.18 1.61-4.77 2.42l-3.95-2.29a13 13 0 0 0 2.55-2.65 3.28 3.28 0 0 0 .1-2.89c-.79-1-2.16-1.58-3.29-2.34-.24-.39-.49-.77-.74-1.16l-1.87-.21c4.68-6.27 9-12.88 14.21-18.65 2.47-2.72 6.55-4.3 10.19-5.53 5.57-1.89 11.41-2.93 17.08-4.55a18.52 18.52 0 0 0 5.79-2.81 3.76 3.76 0 0 0 .88-3.34c-.19-.68-1.84-1.39-2.8-1.35-2.53.11-5 .67-7.55 1-12.37 1.49-24.74 3.94-37.14 4.14-10.61.16-21.27-2.26-31.91-3.53l8.56.59c4.45.27 8.91.61 13.37.65.79 0 2.27-1.31 2.26-2-.09-4.61 1-5.89 5.71-6.18a37 37 0 0 0 5.5-.29 17.5 17.5 0 0 0 4-2l-.34-1-4.13-1.42a80.18 80.18 0 0 1 8.65-2.84c5.55-1.2 10.49-3.38 14.5-7.47 3.44.54 1.81 2.58 1 4-1.58 2.93-3.51 5.68-5.07 8.62-.56 1.06-.45 2.48-.65 3.73 1.3.2 2.7.83 3.87.53a101.38 101.38 0 0 0 10.89-3.35c3.3-1.21 5.25-3.32 4.82-7.36-.21-2 1.07-4.15 1.41-6.27.31-1.91.84-4.09.22-5.76-.85-2.3-.35-3.22 1.75-3.78l9-2.38c3.26-.93 3.62-.67 3.26 2.73l-.26 2.06a5.33 5.33 0 0 0-6.64-2.21 32.25 32.25 0 0 0-3.6 1.75c.8 1 1.37 2.46 2.42 3a32.2 32.2 0 0 1 10.8 9.52c.75 1.06 1.57 2.06 2.36 3.09l1-.36-1.16-9.38c.92.67 2.5 1.22 2.65 2 1.52 8.12 2.77 16.3 4.18 24.45a8.22 8.22 0 0 0 1.18 2.27 8.87 8.87 0 0 0 2.19-1.84c1.61-2.66 2.86-5.54 4.57-8.12 3.76-5.68 3.83-6.48 0-12.3-1.67-2.55-2.46-5.07.85-7.07 6.83 1.54 8 3.2 6.79 9.76a10.94 10.94 0 0 0-.44 2.72 11.34 11.34 0 0 0 .92 2.72 9.26 9.26 0 0 0 2.22-1.68 44.1 44.1 0 0 0 2.39-4.34l10.47 10.15c-3.78 1.85-7.88 3.25-11.26 5.67-4.54 3.24-8.89 7-11 12.5l.07.07c7-1.51 12.11-5.88 16.5-11.23 2.25-2.75 5-4.12 8.49-3.19a3.23 3.23 0 0 1 2.1 1.9 3 3 0 0 1-1.28 2.48 21.47 21.47 0 0 1-5.7 2.36 6.52 6.52 0 0 0-5.33 4.83 29.37 29.37 0 0 0-1 7.46c0 3.87 1.72 4.89 5.65 3.8l6.34-1.36c-2.62 3.41-8.13 4.69-11.34 2.22-1.13-.88-1.77-2.87-2-4.42a86.36 86.36 0 0 1-.09-9.13c-2.69 1.58-4.84 3-7.11 4.13-2.55 1.28-5.14 2.84-7.87 3.32-2.11.36-4.49-.72-6.71-1.28-.63-.16-1.13-1-1.74-1.06a22.1 22.1 0 0 0-3.54.09c.15 1.06 0 2.32.51 3.16 1.3 2.16 2.94 4.1 4.36 6.2a23.11 23.11 0 0 1 1.6 2.98zM255.67 430l.15 1 5.57-.89c3.41-.6 6.79-1.41 10.23-1.74 1.34-.14 3.35.32 4.09 1.26 4.12 5.28 10.79 5.95 16 9.2.5.31 1.41 0 2.85-.09-.95-1.36-1.34-2.43-2.1-2.91-6.47-4-7.83-10.05-7.1-17.13.39-3.84-4.12-8.21-8.47-8.69-2.46-.28-4.33 2.3-4.93 6.81 0 .23 0 .51-.07.68-1.09 1.76-1.81 4.07-3.37 5.13-4.09 2.73-8.52 4.92-12.85 7.37zm-30 2.39l.21-.16-.18-.2-.3.29zm274.51-102.52c-1.08-.17-2.37 0-3.23-.55a11.52 11.52 0 0 0-12.16-.53 19 19 0 0 1-5.29 1.52 22.43 22.43 0 0 1-3.93 0l.42-4.08-4.87.33-11.82 4.81c-2.36-2.65 0-3.44 1.74-4.57 6.36-4.09 13-7.82 18.93-12.49 4.91-3.89 8.84-9 13.36-13.41 2.18-2.13 4.71-3.9 7.09-5.83l-1.55 2.9c-.12.26-.25.51-.37.77l-5.78 8.92c-1.84 2.74-3.78 5.42-6.12 8.75 6.82 2.59 14.78 3.78 13.58 13.46z" class="H"/><path d="M230.12 419.39l4.13 1.42.34 1a17.5 17.5 0 0 1-4 2 37 37 0 0 1-5.5.29c-4.75.29-5.8 1.57-5.71 6.18 0 .69-1.47 2-2.26 2-4.46 0-8.92-.38-13.37-.65l-8.56-.59-8.27-1.69-1.93-.62-1.66-.5-2.61-.86-1.39-.5-.15-.05a1.28 1.28 0 0 1-.5-.16l-4.69-2.71c18.6.42 36.87-.58 54.89-4.51z" class="F"/><path d="M442.77 456.12c-.86-3-1.36-6.2-2.66-9-1.57-3.39-1.15-4.81 2.56-4.9 3.9-.08 7.94-.45 11.64.44 2.14.51 4.5 2.95 5.41 5.09 1.39 3.28 3.4 4.15 6.15 2.87a83.77 83.77 0 0 0 9.38-5.63c1.43-.91 2.75-2 4.12-3a.6.6 0 0 1 .27.42l-.74.7.1-.11-.83.74.1-.09-.78.81.09-.09-.72.85.09-.09-.86.78.1-.12c-3.84 2.22-7.47 5.07-11.58 6.52-6.18 2.18-12.7 3.43-19.1 5a11.72 11.72 0 0 1-3.41-.23zm77.37-52.81c3.16-2.45 6.39-4.82 9.4-7.45a3.17 3.17 0 0 0 .24-3c-5.24-8.85-10.56-17.69-18.29-24.65-5.11-4.58-10.82-8.28-17.71-9.74-1-.21-2-.65-3-.94-2.58-.75-3.11-2.17-1.45-4.32 2.81 1.65 5.44 3.86 8.47 4.86a41.49 41.49 0 0 1 20.2 14.5c4.82 6.28 8.89 13.14 13.3 19.74 1.29 1.94 1.82 4-.3 5.53-5.06 3.61-10.27 7-15.46 10.45a5.55 5.55 0 0 1-2 .38z" class="G"/><path d="M452.49 264a10.41 10.41 0 0 0-.22 1.36c-.19 5.26.7 6.12 6.11 5.95q-2 4.09-4 8.2l-.7 1.61-.61 1.25-5.51 3.69-1.11-.45c-.2-11.33 4.29-22.24 3.16-33.66l1.41-.05 1.35 8.8c.01 1.09.06 2.19.12 3.3zM229 467.1c1.13.76 2.5 1.32 3.29 2.34a3.28 3.28 0 0 1-.1 2.89 13 13 0 0 1-2.55 2.65l3.93 2.33c9.77 4.64 20.09 4.4 30.54 3.42-5.8 1.88-11.63 3-17.71 1.79l-23.7-4.86c-.09-.94-.51-2-.21-2.79 1.18-3.09 2.58-6.1 3.9-9.14l1.87.21a9.81 9.81 0 0 1 .74 1.16zm291.14-63.79l-6.63 5.36-.21.22a.47.47 0 0 0-.55.21.58.58 0 0 0-.37.19l-3.18 2.1-.62.33-4.77 2.57-.77.14-4.12 2.62-8.1 2.91-5 .69 13.54-10.51c.1-.07.17-.2.27-.22 7.22-1.11 12.91-6.81 20.51-6.61zm-40.5 39.06a.6.6 0 0 0-.27-.42l-3.33-13.66c-.42-1.75-.37-3.09 2-2.65.96 4.13 1.7 8.36 2.96 12.36.61 2.06.43 3.32-1.36 4.37zm-36.87 13.75l-.68.9-8.52 2-1.06-.23-2.68-5.45a35.26 35.26 0 0 0 5.49 2 73.41 73.41 0 0 0 7.45.78z" class="F"/><path d="M200.25 199.46c-.38.41-.7 1.06-1.16 1.2l-18.11 5.3zm-20.81 6.91l-10.75 3.91zm329.91 37.26l8.91 4.19-.64.45-8.62-4.11a6.18 6.18 0 0 1 .35-.53zm-341.68-32.88l-5 2.43z" class="E"/><path d="M503.81 414.29l4.77-2.57zm-4.89 2.76l4.12-2.62z" class="G"/><path d="M367.61 507.17l-.17-2.4.17 2.4z" class="E"/><path d="M509.2,411.39l3.18-2.1Z" class="G"/><path d="M366.7 496.94l-.28-2.29.28 2.29zm-186-69.53l2.61.86z" class="E"/><path d="M311.91,467.79l4.24.38Z" class="G"/><path d="M185 428.77l1.93.62zm313.5-130.03l.37-.77-.37.77zM179.16 426.86l.15.05z" class="E"/><path d="M478.99 442.98l-.09.09.19.11-.1-.2zm-.73.65l-.1.09.2.12-.1-.21zm-.69.72l-.09.09.2.12-.11-.21zm-.63.76l-.09.08.17.1-.08-.18zm-.76.66l-.1.12.15.18.16-.18z" class="F"/><path d="M487,178.82v0Z" class="E"/><path d="M434 462.24v.12l.15-.12z" class="F"/><path d="M512.75 409.1a.47.47 0 0 1 .55-.21.5.5 0 0 1-.55.21z" class="G"/><path d="M346.15 460.35c-3.9 2.52-3.88 2.47-5.65-1.47a14.19 14.19 0 0 0-2.47-3.21c-.75-.86-2.1-1.5-2.31-2.43-.75-3.23-2.68-2.92-5-2.08l5.63-6.93c3.25-2.58 4.18-10.09 1.89-13.74-.72-1.15-1.59-3.14-1.09-3.93 2-3.23 4.56-6.14 6.91-9.16l.5 2.17a11.25 11.25 0 0 0 3-1.39c2.27-2.06 4.28-4.1 7.86-2.56 2.68 1.15 6.39.86 8.34 2.63 5.76 5.24 13.1 3.38 16.51-2.92 2.21-4.09 3.45-8.69 7.83-11.24.41-.24.5-1 .74-1.53 1.67 1.77 1.13 3.23-.48 4.74a15.88 15.88 0 0 0-3.07 3.69c-1.94 3.53-3.67 7.17-5.45 10.78-1 2-2.41 3.13-4.72 2.55l-13.4-3.45c-4.1-1-8.2-1.49-12.14.68-1.79 1-3.53 2-5.38 2.88-2.24 1-3.14 2.59-2.59 5l1.94 8.69-.52 1.8-1.03 2.26v5.55c-1.07 5.01 2.69 8.44 4.15 12.62z" class="E"/><path d="M336.38 444.23l-5.63 6.93a2.64 2.64 0 0 1-.44.23l-6.31 1.36c-1.31-1-3.31-1.78-3.79-3.1-1.88-5.1 1.83-10 7.31-10.09 1.27 0 2.55.08 3.82 0 3.44-.35 5.26 1.04 5.04 4.67z"/><path d="M346.15 460.35c-1.46-4.18-5.22-7.61-4.13-12.62l2.65 4.44 6.71-5.95A25.86 25.86 0 0 1 350 450c-1.12 2.11-.39 3.15 1.76 3.19a27.81 27.81 0 0 0 4.78-.56 14.38 14.38 0 0 1 3-.57 12.61 12.61 0 0 1 3.07.94c-.7.94-1.2 2.35-2.13 2.75-4 1.74-8.15 3.18-12.24 4.73zm-116.03-40.96l-1.26.09-6.78-.61c-2.26 0-3-.7-2-2.91 3.23-7.72 2.61-10.79-4-16.08-4.09-3.27-5.71-7.07-4.6-12.14.87-3.95 2.56-7.3 6.75-8.45a66.72 66.72 0 0 1 11.42-2.48c5.63-.5 11.31-.25 16.08-4.12.58-.47 1.93 0 2.92.07 1.71.17 3.46.76 5.09.5 1.32-.21 2.47-1.42 3.7-2.19-1.59-1.09-3.67-3.46-4.7-3.06-6.7 2.56-12.88 1.16-19.19-1.23-2-.76-4.36-.52-6.49-1-2.45-.55-5.18-.9-7.16-2.26a8.5 8.5 0 0 1-3.33-5.49c-.1-.94 2.91-2.23 4.54-3.31a11.35 11.35 0 0 1 2.28-.66c-5.75-1.28-10.64-2.08-15.36-3.5a60.42 60.42 0 0 1-11.37-4.81c-.89-.48-1.46-3.25-.92-4.37 1.79-3.71 3.89-7 4.05-11.52.13-3.89 8.82-10.88 12.84-11 6.31-.24 12.41.64 17.93 4.2 1.79 1.16 4 1.57 6 2.55a92.56 92.56 0 0 0 9.34 4.54 42.54 42.54 0 0 0-3.36-4.48c-3.19-3.29-6.5-6.46-9.84-9.6-1.17-1.09-2.64-1.85-3.84-2.93-2.09-1.87-4.14-3.8-6.08-5.83a10.78 10.78 0 0 0-10.76-3.16c-7.06 2.3-10.35-1.57-13.63-6.26l-15.05-21.94a18 18 0 0 1-2.42-6.69c-.53-3 .82-4.94 4.09-5.75 1.38-.35 2.76-1.9 3.52-3.26 1.5-2.68 3.38-3.28 6-2 7.94 3.84 16.06 7.34 23.75 11.62 6.4 3.57 13 7.28 16.43 14.4.44.91 1.62 1.46 2.45 2.18a14.67 14.67 0 0 0 1.95-2.63c1.77-4 3.88-4.95 8-3 3.55 1.65 6.88 3.83 10.53 5.18 4.92 1.82 8.38.05 10.41-4.64 1.29-3 .54-3.84-2.69-3.77a95.59 95.59 0 0 1-12.09-.35c-3.19-.35-5.64-2.1-6.08-5.68-.5-4.11-1.11-8.21-1.47-12.33-.23-2.53 1.29-3.5 3.72-3.3 5.43.43 9.88 3.11 13.86 6.46 6.41 5.4 10.9 11.84 10.28 20.88-.4 5.84-1.46 7.4-6.69 9.75-3.13 1.4-6.84 2.94-8.6 5.56-2 3-2.21 7.3-3.19 11q-.19 3.15-.4 6.29c-.31 1.91-.08 3.52 2.41 2.65a63 63 0 0 0 8-3.34c2.79-1.42 2.92-3.34.64-5.59a19.14 19.14 0 0 1-1.45-3.08c-.61-2.26 1.59-5.52 3.41-4.84 3.84 1.44 8.39 1.77 10.81 5.88-.55 3.95 1.41 6.9 4.1 9.33.85.77 3 1.26 3.76.74a74.39 74.39 0 0 0 7.25-5.84c2.48-2.9 5.22-5.62 7.32-8.77 1.09-1.64 1.07-4 1.68-6.6l-4.89 1.43 3.67-3.14c.8 1.15 2.2 2.25 2.29 3.44.31 4.3.17 8.64.22 13 0 1.71.05 3.42.08 5.13l1.63.21a18.19 18.19 0 0 0 1.64-3.82c1-5.48 3.33-9.87 8.45-12.71 2.91-1.61 3.09-3.95 1.32-6.77a7 7 0 0 0-6.3-3.57c-4.38 0-8.76-.13-13.14-.21l-.31-1.56.21-.1c4-.47 7.95-.84 11.88-1.49.64-.11 1.44-1.41 1.53-2.22.31-2.84.33-5.71.46-8.56l.79-.17.92.11c1.4.52 2.83 1 4.19 1.56 2.22 1 3.3.18 3.44-2.08a15.73 15.73 0 0 0-.17-3.43c-.43-2.75-1.86-3.48-4.38-2.11-1.3.7-2.73 1.16-4.11 1.74l2.94-5.28 1.31-.18.78-.47h0l.75-.58 1.19-.27a27.19 27.19 0 0 0 4-.94c1.91-.74 3.67-1.9 5.61-2.56 5.51-1.87 11.08-3.58 16.63-5.34l6.59-2.07h0c.77.87 1.53 2.41 2.31 2.42a3.5 3.5 0 0 0 2.59-2.13c1-3.92 4.15-4.62 7.29-5.49 2.33-.65 4.68-1.2 7-2 3.9-1.31 5.66-.53 6.6 3.46a47 47 0 0 1 .66 5.84l-4.3 4.01c-2.3 2.5 1 3.57 1.59 5.13 2.53 6.26 7.78 9 14.31 9.5l3.81 3c-1.53 1-3 2.56-4.62 2.87-3.33.63-6.79.58-10.69.84 1.57 1 2.86 2.36 4.37 2.64 4.61.89 7.41 4 10.09 7.37l6 7.61c-1.14 3-3.05 3.7-7.24 3-3-.54-6.11-.78-9.16-1.15-2.61-2.41-5.08-5.18-9.23-3.49l-4.39-3.21 4.5-3.19c2.17-1.61 2.59-3.42-.19-4.63a74 74 0 0 0-7.71-2.38c-1.33-.42-2.64-.92-4-1.38a17.59 17.59 0 0 1 1.48-3.68 23.72 23.72 0 0 1 3-2.86c.91-.92 1.73-1.93 2.64-2.94-7.61-5.16-13.66-4.85-20.3.52-2.24 1.81-1.81 2.95.29 4.47a63.19 63.19 0 0 1 5.31 4.8l-4.86 3.92-1.71.45a.3.3 0 0 0-.09.46l.52 1.59 1.11 1.32.41.54 1.19 1.44a15.74 15.74 0 0 1 .28.59c0 .46-.1.92-.12 1.38-.07 2-.71 3.64-3.07 3.83-2.18.17-3.84-.47-4.55-2.78a14.19 14.19 0 0 0-1.06-2.14l-.06-5.86c.03-1.95-.78-2.94-2.9-2.81s-4.35 0-6.53 0C326 284.25 325 285 323 291c-.58 1.72-.2 2.61 1.51 3.06l7 1.92c-.12 1-.28 2-.35 3.06-.41 5.5-.83 5.88-6.46 5.74-.45 0-.91-.06-1.37-.1l-.38-.64-.31-.64-2.42-3.5-.72 4.61c-4 2.06-8.55 3.53-8.91 9.12-.45 2.87.67 4.81 3.65 4.1 5.15-1.22 9.95-.3 14.74 1.38q-1.43 3.33-2.86 6.68l-1.16.29c-3.65-1.16-5.79 1.12-7.9 3.47l-6.21-9.11-.84.44v1.66c-.09 4.37-1.76 5.54-6 4.16-1.53-.5-3-1.07-4.55-1.61-3.65-2.29-3.73-2.27-5.1 1.53-1.17 3.26-2.88 5.95-6.8 6.23l-8.22-1.93c-.07-.17-.18-.21-.33-.13l-2.48.15c-.33.94-1.06 2-.91 2.82.79 4.49 1.81 8.94 2.76 13.41l-.66 2.57-.54 1.56-.32 2.1-1.4 3-1.46 2.37-1-.4a51.39 51.39 0 0 0 .56-7.39c-.09-1.36-1.21-2.67-1.86-4-1.11.65-2.65 1-3.22 2-1.22 2-1.87 4.41-2.87 6.59a34.62 34.62 0 0 1-2 3.35c.53-2.92.95-5.86 1.63-8.75.61-2.59.33-4.29-2.82-4.52a12.19 12.19 0 0 1-4.36-1c-1-.49-2.34-1.63-2.37-2.52a3.65 3.65 0 0 1 2.16-2.69 29.7 29.7 0 0 1 6.07-.85c1.34-.14 2.7-.18 4-.27-.53-1.14-1.08-1.63-1.68-1.71a92.16 92.16 0 0 0-11.24-1.08c-1 0-3 2-2.91 3 .21 3.83-.3 7.94 2.54 11.21l.2 4.16c-1.73 3.48-2.64 6.84.94 9.87.64.54.69 1.77 1.32 2.35 1.47 1.38 3.14 2.57 4.72 3.83.08 4 .29 7.94.12 11.9 0 .91-1.56 2.62-2.07 2.5-5.38-1.26-10.67-2.9-16-4.22-1.42-.35-3 .06-4.55.12l1.39 3.87.37 1a51.36 51.36 0 0 0-6.19 4.49 3.63 3.63 0 0 0-.36 3.49c2.83 4.16 6.34 7.89 8.89 12.2 2.43 4.12 5.54 4.23 9.38 3.14l.57.61c-4 4.09-9 6.27-14.5 7.47a80.18 80.18 0 0 0-8.74 2.87zM333.34 266h0a62 62 0 0 0-8.3.12c-1.08.15-2.73 1.62-2.8 2.58a44.47 44.47 0 0 0 .52 8.61c.35 2.68 1.79 4.58 4.78 4.47 4.38-.15 8.77-.34 13.14-.76 1.21-.12 2.33-1.1 3.5-1.69-.88-1-1.57-2.34-2.66-3.06-2.73-1.85-2.89-3.55-.22-5.65.45-.36 1.06-.58 1.38-1 .51-.69 1.29-1.65 1.12-2.26a2.8 2.8 0 0 0-2.14-1.29c-2.76-.2-5.54-.07-8.32-.07zM284 328.8l.47 1.18c1.3-1.16 2.93-2.13 3.76-3.57.52-.89.26-3.19-.42-3.61a9.91 9.91 0 0 0-4.75-.92c-1.11 0-2.21.63-3.34.77-2.33.29-3.95-.34-4.49-3.06-.67-3.36-2.47-4.1-5-1.7-4.28 4-8.19 8.42-12.15 12.75-1.05 1.15-1.25 2.44.71 3.24 4 1.62 7.57.68 10.73-2.27a11.25 11.25 0 0 1 5.64-2.69c2.84-.45 5.84-.12 8.84-.12zm-32.62 20.41c-1.35-3.78-2.39-7.13-3.82-10.31a3.43 3.43 0 0 0-3-1.28c-2.4.59-4.32 4.72-4.25 7.19a47.49 47.49 0 0 1-.61 9.07c-.39 2.36-.64 4.87 1.83 5.56 1.73.48 4.79-.08 5.75-1.33 1.85-2.48 2.72-5.76 4.08-8.9zm202.96-69.71q2-4.11 4-8.2l24.47-6.3a4.52 4.52 0 0 1 1.68-.35c1.3.22 2.57.61 3.85.93-.4 1.24-.51 2.68-1.25 3.67-1 1.36-2.56 2.31-3.76 3.55-3 3.18-3.81 7.77 2.32 8.82 2.77.47 4.92 1.5 4.44 4.91a1.12 1.12 0 0 0 .11.68c4.08 6.95-.58 10.95-4.83 15.45-5.2 5.5-11.86 8.7-18.05 12.67a22 22 0 0 0-4.31 3.88c-1.69 1.89-3.5 3-6.08 2l-8-10.33-.64-.58-.68-.46c-2-1.77-3.21-1-3.57 1.29a42.12 42.12 0 0 0-.64 7.92c0 .71 1.47 1.87 2.38 2 5.79.74 7.32 3.52 4.57 8.62-.31.58-.8 1.45-.58 1.89 1.82 3.72 1.46 9 7.11 10.11a6.3 6.3 0 0 1 3.32 2.35c3.27 4.37 8.08 5.86 12.9 7.55 1.46.51 3.51 2.14 3.51 3.26 0 1.33-1.69 3-3 3.94-2.86 2.08-6 3.82-9 5.7-.41-2.41 0-5.52-1.41-7.08-2.42-2.73-4.59-5.37-5.68-8.88a10.19 10.19 0 0 0-1.64-2.61l-7.52-10.55a36 36 0 0 0-1.89-3.28c-.5-.58-1.54-.7-2.33-1-.27.71-.81 1.43-.75 2.11.11 1.37.72 2.69.8 4.05a6.83 6.83 0 0 1-.54 3.55c-1.82 3.32-1.88 3.32 1.89 3.88q-.72 2.58-1.42 5.15h0l-4.7 2.84c-2.94 1.83-3.36 4-2.06 7.37 1.91 4.92 3 10.15 4.65 15.18a84.13 84.13 0 0 0 3.58 7.91c1.05-1.84 1.7-2.54 1.85-3.33.62-3.17 1.5-6.37 1.51-9.56 0-8-.4-15.92-.64-23.88.69 2.13 1.29 4.3 2.07 6.4 1.89 5.13 3.58 10.24 1.68 15.81a12.33 12.33 0 0 0-.22 4.13c0 2.38 1.2 4.07 3.56 4.46s2.74-1.79 3.61-3.41c1.64-3.09 3.57-6 5.38-9l-2.28 7.71.86.64 3-2.23c2.1-1.59 4.15-3.26 6.32-4.77 3.88-2.71 7.71-1.41 10.89 1 3.65 2.82 6.88 6.23 7.85 11.09.59 2.95 2.42 4.26 5.44 4.18 2.12-.05 4.31.19 5 2.77s-1.21 3.5-2.91 4.86c-4.21 3.37-8.21 7-12.18 10.69-2.13 2-4.27 2.57-6.91 1.17a10.65 10.65 0 0 0-2.64-.81c-3.06-.69-4.48.64-3.75 3.72.85 3.59 1.92 7.14 2.9 10.7 1.12 4-.1 6.22-4.17 7.11-6.68 1.46-13.31.8-19.9-.61 1.16-1.77 2.57-3.85.71-5.57-1.29-1.2-3.48-1.51-5.33-2a10.76 10.76 0 0 0-3.08.16c-5.33-.64-8.33 1-10.62 5.91l-.05.07-1.26 1.48-.27.68-1.12 1.39-4.21 4.42-1.35 1.66c-.09.13-.18.27-.26.41a.51.51 0 0 0-.34.37l-.24.25-.47.58-.1.14-3.28 2.1-.51-.48c2.47-3.19 5.27-6.19 7.31-9.63a19 19 0 0 0 2.58-8.28 56.27 56.27 0 0 0-.82-12.42 26.92 26.92 0 0 0-3-7.62c-.27-.54-2.82-.62-2.87-.48-1.2 4-2.6 8-3.07 12.17-.2 1.72 1.64 3.67 2.55 5.52l-.48.42-3.24-3.31c-.35-1.78-1.24-3.65-1-5.32a121.52 121.52 0 0 1 3.19-13.41c1-3.48 2-7.07 6.62-7.82 4.8-.77 6.07-3.88 3.87-8.51l-.51-4.34c2.2-3.74 2.07-6.7-.37-8.65a44.89 44.89 0 0 0-5.86-1.89c-2.79-.52-3.25-2.23-2.81-4.54.16-.89.88-1.69 1-2.57.23-2.1.24-4.23.34-6.34l-5.55.85a3.86 3.86 0 0 0-.64.25c-3.26.24-6.11 1.28-8 4.15h-5.19l4-4.77-.13-1.85-.9-1-1.22-1.13-.11-.09 1.5-1.68 1.12.1 2.36.76 5.62 2.34-3.42-9.13c2.7-2.93 7.18-3.79 9.8-1.73 4.15 3.25 8.23 6.58 12.29 9.93 2.33 1.92 3.6 1.6 4.67-1.32l-2.71-16.84c-.09-.49-1.39-.75-2.13-1.12l-1.21-.11c1.46-1 2.95-2 4.36-3.09a5.87 5.87 0 0 0 1.77-1.95c.15-.31-.47-1.35-.95-1.54a70.35 70.35 0 0 0-8.17-2.81c-3.08-.76-5.2 1.47-4.68 4.59.68 4.1 1.81 4.82 7.6 4.84a47.58 47.58 0 0 1-4.89 4.34c-1.28.87-3 1.16-4.47 1.72a27.12 27.12 0 0 1-1.44-5.07c-.19-2.14.44-4.36.18-6.48-.31-2.59.24-4.3 2.93-4.92 3.75-1.76 7.51-2.86 11.67-1.2 2.21.88 2.72-.57 2.26-2.39-2.16-8.44-7.72-13.88-15.53-17.22-.74-.32-1.73 0-3.08 0a15.37 15.37 0 0 1 1.77 3.27c.66 2.86 1.56 5.79 1.49 8.67-.07 3.2-2 3.86-4.7 2-1.48-1-2.81-2.27-4.81-3.92l-.94 11.45c-1.1-.21-2.47-.08-3.25-.7-3.31-2.61-5.41-10.57-4.09-14.69a1 1 0 0 1 .44-.38l1.92-.76c4.13-3.16 4.38-3.85.07-6.81-3.43-2.36-7.54-3.74-11.39-5.47-3.26-1.46-3.49-2.28-1.09-4.76 2.7-.58 5.52-.85 8.06-1.85 2.07-.82 3.78-2.51 5.66-3.82v-3.63a5.53 5.53 0 0 0 1.37-.22c6-2.53 10.77-.53 14.91 3.92 2 2.17 4.22 3.24 7.39 2.18 1.16-.39 2.84.79 4.29 1.26-.68 1.34-1 3.13-2.11 3.94-4.81 3.59-10.16 3.15-15.54 1.41a14.54 14.54 0 0 0-3.2-.86c3.94 4.57 9.32 5.7 14.84 5.4 4.47-.25 8.69-1 12.26 2.69.53.56 2.9.42 3.31-.16 1.91-2.75 3.44-5.76 5.1-8.68l.61-1.25c.2-.42.47-1.16.7-1.66zM453 382.71l-6.37 22.69c-.2.78 1.33 2.89 1.85 2.83 2.11-.29 5.37-.62 6-1.94a94.46 94.46 0 0 0 5.13-15.47c.41-1.6-.52-3.62-1.1-5.35a3.39 3.39 0 0 0-1.81-1.72 25.1 25.1 0 0 0-3.7-1.04zm-12.44 5.06a75.88 75.88 0 0 0-8 2.32c-1 .39-2.39 2.47-2.22 2.68 3 3.74 1.5 8.32 2.6 12.36a12.6 12.6 0 0 0 1.95 3.11c1.64-1.68 6.09 1.23 5.84-3.39s1-8.4 4.47-11.47a4.46 4.46 0 0 0 1-1.79c.79-2.13 4.35-4 2.12-6.21-1.5-1.48-4.8-1.17-7.3-1.58-.36-.06-.8.31-1.27.51zm-17.67-84.54c-1.26-3-1.85-5.51-3.28-7.4-1.73-2.28-3-4.23-1.87-7.2.27-.7-.42-2-1-2.74a36.69 36.69 0 0 0-3.6-4.19c-.6-.61-1.56-1.46-2.22-1.35-4 .66-7.89 1.57-11.85 2.4 2.81 1.38 5.36 2.39 7.66 3.8a22.44 22.44 0 0 1 10 12c.71 2.1 1.88 4.5 6.12 4.68zm12.82 72.06c.09 4.27 1.86 6.91 4.32 6.77.65 0 1.86-1.57 1.77-1.7-1.52-2.2-3.2-4.28-4.84-6.39l-1.29 1.32zm-160-78.14c-2.64-5.21 1.77-8 4-11.45 2.7-4.14 4.37-8.2 1.74-13.12a11 11 0 0 1-1.27-6c.34-3.18-.92-5.51-2.43-8-3-5.07-5.26-10.44-5.31-16.54a36.1 36.1 0 0 0-.91-6.15c-.59-3.22.35-5.56 3.34-7.23 3.9-2.18 7.38-5 12.24-5.21 2.69-.1 4-2.31 4.19-5.13l1.85-19.63a29.64 29.64 0 0 0-.9-7.13c-.35-1.95-1-3.85-1.58-6.25 5.95 1 7.93 5.39 10.27 9a119.13 119.13 0 0 1 6.41 12.28c1 2 1.8 3.3 4 1.13a3.07 3.07 0 0 1 2.93.47c2.42 3.8 4.67 7.6 8.86 9.93 1.33.74 1.93 2.79 2.9 4.22.77 1.13 1.62 2.21 2.38 3.34 1.11 1.66 2.49 3.24 3.16 5.06.77 2.09 1.37 3.12 4.06 3 3.74-.16 7-.19 9-4.1.38-.71 3.35-.56 4.83 0s2.39 2.1 3.59 3.19c3.06 2.77 4.77 2.83 8.37.8 1.08-.61 2.51-.58 3.78-.84 0 1.4.65 3.18 0 4.13-2.85 4.22-5.21 9.13-10.95 10.33-1.05-.47-2.13-.88-3.13-1.43-6.27-3.52-12.3-3.12-18.1 1.07-2 1.42-3.92 2.85-5.78 4.38l-12.19 10.16-10.76 9v.08l-.62 1-9.2 9.91-.78.8-4.08.9c-2.43-.67-4.18-.16-5.1 2.5a7.82 7.82 0 0 1-2.16 3c-2.93 2.6-4.95 5.6-5 9.66a5.36 5.36 0 0 1-.69.06l-.05-.08a22.16 22.16 0 0 0-.85-1z" class="G"/><path d="M281.07 159q4 6.14 8 12.25l-1 1a18.52 18.52 0 0 0-3.28-1.75c-1.61-.49-3.46-1.22-5-.86-4.57 1.1-9 2.68-13.54 4.05-3.47 1.06-6 7-4.1 11.24 1.41 3.26 2.21 5.64-1.56 7.8-.81.47-.7 2.68-.85 4.11-.25 2.33-.42 4.68-.54 7-.09 1.71.23 3.49-.12 5.13a9.9 9.9 0 0 1-2.07 4.72c-2 2.06-4 1.64-4.85-1.3-1.19-4.21-2.41-8.43-3.21-12.73-1.24-6.68-2.27-13.41-3.13-20.16a45.08 45.08 0 0 1 3.18-23.36c1.47-3.51 3.84-5.91 8.14-5.87a4.21 4.21 0 0 0 3.07-2.43c1.11-3.43 2.63-4.4 6.45-4.07 14.85 1.28 27.7 7.53 39.22 16.4 5 3.81 8.75 9.14 12.92 13.92a3.17 3.17 0 0 1 0 3.06c-.53.6-2.09.67-3.07.44-2.53-.62-5-1.55-7.49-2.33a15.38 15.38 0 0 1-9.82-9.11c-1.24-3-2.87-4.44-6.09-4.63-1.66-.1-3.28-1-4.89-1.59-1.77-.67-3.51-1.42-5.27-2.13zm115.61 121.78c-2.4 2.48-2.17 3.3 1.09 4.76 3.85 1.73 8 3.11 11.39 5.47 4.31 3 4.06 3.65-.06 6.81l-1.93.76a1 1 0 0 0-.44.38c-4.85 2.55-5.09 4.15-1.94 8.4 1.67 2.25 2.68 5 4.06 7.48 1.5 2.72.62 4.3-2.25 5l-1.51.36a.72.72 0 0 0-.53.25l-.29.15a1 1 0 0 0-.57.31l-.77.33c-4.47 1.43-5 2.31-3.94 6.63.21.88.31 1.8.45 2.69l-5 2.52c-3 1-2.05 3.55-2.4 5.67a26.25 26.25 0 0 1-1.56 4.4l-3.25-.09-1.23 1.85-3.92-2a38 38 0 0 0 2.41-3c1.13-1.69 2.61-3.35 3-5.23.53-2.27 0-4.78.18-7.15a34.6 34.6 0 0 1 1.31-5.09l1.9-7.3c1.57.49 4 3.48 4.23-.59.13-2.08-1.93-4.31-3-6.47h-.17c-1.91-3.44-1.7-3.77 2.1-4a8.78 8.78 0 0 0 4-.81c1.89-1.14 3.31-2.76.79-4.81l-6-7.61c-2.68-3.38-5.48-6.48-10.09-7.37-1.51-.28-2.8-1.65-4.37-2.64 3.9-.26 7.36-.21 10.69-.84 1.66-.31 3.09-1.87 4.62-2.87l-3.81-3c-4.68-2.77-8.95-5.88-11.61-10.91-.82-1.56-2.83-2.5-4.29-3.72l4.12-4.07 9.1-3.66 4.8-1.25h0c6.08-2.71 9.27.54 11.64 5.58.53 1.14 1.39 2.15 1.83 3.32 1 2.57 2.46 2.46 4.56 1.32 4.69-2.56 9.47-5 14.21-7.44l14.88-4.15a12.48 12.48 0 0 1 5.48-.41c-2.73 2.69-5.59 5.26-8.16 8.11a28.74 28.74 0 0 0-4.55 6.47c-1.62 3.31-4.08 3.93-6.72 2.12-5.54-3.82-9.59.38-14 2.27-.66.28-.52 2.44-.75 3.73v3.63c-1-.26-2.19-1-2.82-.69-3.72 2.01-7.29 4.25-10.91 6.4z" class="F"/><path d="M424.25 253.34l-14.21 7.44c-2.1 1.14-3.59 1.25-4.56-1.32-.44-1.17-1.3-2.18-1.83-3.32-2.37-5-5.56-8.29-11.64-5.58.81-2.6 1.26-5.38 2.49-7.76a114.39 114.39 0 0 1 7.08-11.52c.69-1 2.26-1.44 3.42-2.14a20.29 20.29 0 0 1 .54 3.76c-.11 3-.6 5.91-.56 8.86a3.5 3.5 0 0 0 2 2.43c.55.21 1.83-.76 2.42-1.49 5.75-7.1 10.95-14.5 14.47-23.08 1.5-3.64 4.34-6.82 6.94-9.89 2.21-2.61 6.92-1 7.65 3a34.92 34.92 0 0 1 .07 11c-.87 6.28-2.35 12.47-3.5 18.71-.78 4.19-3.24 6.68-7.18 8.13-1.35.43-2.4 1.81-3.6 2.77z" class="G"/><path d="M211.58 371l4 2.6c-1.19 1.19-2.18 2.78-3.61 3.51-8.25 4.22-16 9.07-22.67 15.63-2.45 2.42-5.17 4.55-7.63 7a21.39 21.39 0 0 0-2.23 3.37 55.11 55.11 0 0 1-4.7 6.64c-1.46 1.6-3.1.69-3.44-1.76-.57-4.14 1.34-7.6 3.91-10.4 9.08-9.88 19.06-18.74 31.1-25a32 32 0 0 1 5.27-1.59z" class="F"/><path d="M303.74 271.56l.62-1v-.08l10.76-9 12.19-10.16 5.78-4.38c5.8-4.19 11.83-4.59 18.1-1.07 1 .55 2.08 1 3.13 1.43 1.58 3.11.89 5.22-2.66 6.09h0c-2.24-5.33-5.3-6.15-9.73-2.72a7.53 7.53 0 0 1-3.14 1.34c-8.2 1.58-14 7.07-19.92 12.29l-1.19.26-.75.59h0l-.78.47-1.31.18-4.69 2.53-6.41 3.23zm-25.36 35.95c-2.42-4.11-7-4.44-10.81-5.88-1.82-.68-4 2.58-3.41 4.84a19.14 19.14 0 0 0 1.45 3.08 17.57 17.57 0 0 1-11 6.28q.21-3.13.4-6.29l2.45-8.56c.19-.64.4-1.49.88-1.8a65.53 65.53 0 0 1 9.43-5.54c1.28-.55 3.39.51 5 1.18a14.05 14.05 0 0 1 3 2.33l.15.17c.28.34.57.68.85 1l.05.08.58.73h0l.94 2.23.65 1 1.49 1.95 1.92.23c.48 1.8 3.16 3.59.8 5.28-.72.56-3.2-1.44-4.82-2.31z" class="H"/><path d="M255.71,250a10.69,10.69,0,0,0-1.66-2.93c-3.58-3.22-4.25-6.72-2-11.09.9-1.75.68-4,1.29-6a11.79,11.79,0,0,1,2-2.95c.78.7,1.86,1.25,2.31,2.12a92,92,0,0,1,5.72,12.15c.92,2.7.57,5.84.79,8.79q1.38,2.91,2.74,5.83Z" class="G"/><path d="M255.71 250l11.22 6 2.34 1.76a.19.19 0 0 0 .29.16.93.93 0 0 1 .41.26 10.46 10.46 0 0 1 2.91.85c.89.55 2.3 2 2.15 2.25-2.27 3.7 1 7 .51 10.55a12.63 12.63 0 0 1-.46 1.77c-3.71-4.92-6.84-10.24-11.11-14.4s-9.54-7-14.27-11zM191 310.42c9.8-2.65 19.5-2.69 29.51 1.51h-29.57z" class="F"/><path d="M269.27,257.73,266.93,256q-1.37-2.92-2.74-5.83c2,1.09,4.16,1.94,5.88,3.36,1.54,1.26,1.93,3.14-.1,4.65a1,1,0,0,0-.4-.26l-.09-.19Z"/><path d="M392 250.53l-4.8 1.25zm37.83 202.8l2.68 5.45a5.83 5.83 0 0 0-1.92-.76 4.5 4.5 0 0 0-2.78.55c-.42.35-.26 1.7 0 2.5q3 9.92 6.08 19.79l4.49 13.82a86.77 86.77 0 0 1 2 8.75c.56 2.95-1 4.43-3.92 3.94a2.85 2.85 0 0 1-1.31-.4c-4.57-4.08-10.58-4.6-16-6.63-2.63-1-4.25-.51-5.24 2-.46 1.19-.44 2.69-1.19 3.59-1.62 2-3.33 4.73-5.46 5.23-7 1.62-13.84.93-18.86-5.31q-4.44-5.52-8.89-11l-.79-3.32c-.86-6.31-1.4-12.62.51-18.85.69-2.25 1.55-4.45 2.51-7.15-3.27.65-5.88 1.31-8.54 1.62-1 .12-2-.58-3.06-.91.54-1.17.77-2.71 1.66-3.44 3-2.47 6.32-4.63 9.47-6.95 3.71-2.72 6.21-6.14 6.16-11 0-.86 0-1.72-.05-2.58 1.81-3.35 4.68-4.47 8.36-4.18 7.34.6 13-2.55 16.07-9 2.21-4.64 5.63-7.61 9.4-10.64.92-.74.89-2.67 1.3-4l-.21-1.26.48-.42c2.29 3.61 1.54 5.48-1.3 9.11-5 6.37-9.41 13.18-14 19.82l.32.89c1.5-.63 3.23-1 4.45-1.94 2.76-2.21 5.28-4.74 7.89-7.14l.51.48a32.34 32.34 0 0 1-2.79 4.7c-3.33 4-2.9 5.87 2 7.75a17.74 17.74 0 0 0 2.31.58l1.2 1.18.08.06 5.85 4.49zm-37.28 4.36c0 .44.12.72 0 .88a5.82 5.82 0 0 1-1 1.37c-3.63 3.23-7.28 6.46-8.64 11.39-.39 1.4-1.08 3.94-.74 4.11 1.83.89 4.37 2.18 5.89 1.53a49.78 49.78 0 0 1 19.75-4.25c6.63 0 8.38-3.41 5.22-9.27a8.62 8.62 0 0 0-1.33-2c-3.64-3.7-7.16-7.54-11-11a7.87 7.87 0 0 0-11.84 1.27c-1.82 2.78-1 4.76 2.24 5.5.49.13 1 .33 1.45.47zm34.36-2.49a5.14 5.14 0 0 0 .65-.31 4.59 4.59 0 0 0-.34-.79c-.18.08-.52.17-.52.26a3.13 3.13 0 0 0 .21.84z" class="G"/><path d="M509 244.16l8.63 4.11c1.57 1.69 4.26 3.25 4.47 5.08.38 3.3-.72 6.78-1.26 10.17a2.44 2.44 0 0 1-1.4 1.76c-.55-4.3-1.83-7.26-6.82-6.88l.3-.95 3.89-2.86-.06-.91a12.34 12.34 0 0 0-3.22 0l-20.59 6.13a29.58 29.58 0 0 1-8.46 1.53 37.42 37.42 0 0 0-16.79 3.66 49.54 49.54 0 0 1-4.75 1.63 10.85 10.85 0 0 1 .91-2.29c10.5-11.81 23.1-19.7 39.29-20.67a37.51 37.51 0 0 1 5.86.49z" class="F"/><path d="M429.34 452.78l-5.85-4.49-.08-.06-1.2-1.18c-1.75-3-.77-5.71 1.59-7.74a92 92 0 0 1 11.39-8.74c1.88-1.15 4.65-.85 7.87-1.34-1.58 5.4-3.86 8.86-7.17 11.61-2.74 2.29-5.76 4.22-4.88 8.66.18.95-1.07 2.18-1.67 3.28zm2.66-30.13l.27-.68 1.23-1.39.05-.07 10.62-5.91a10.76 10.76 0 0 1 3.08-.16c1.85.46 4 .77 5.33 2 1.86 1.72.45 3.8-.71 5.57-4.38-1.17-7.39.94-10.15 4-.59.65-2 .53-2.89 1l-9.19 4.64c-1.81.84-3.67 3.68-5.73.25l.1-.13.47-.58.24-.25a.49.49 0 0 0 .34-.37c.08-.14.17-.28.26-.41l1.35-1.66 4.21-4.42c.38-.5.75-.97 1.12-1.43zm27.3-91.28l11.82-4.81c-1.84 3.93-3.58 7.9-5.59 11.74-.38.74-2.08 1.56-2.66 1.28-1.52-.73-3.34-1.8-3.94-3.2s.19-3.32.37-5.01z" class="H"/><path d="M447.57 309.89l.68.46.64.58 8 10.33c-.63.35-1.37 1.1-1.87 1-2.87-.73-6.29-1-8.31-2.79-1.36-1.2-.9-4.66-.89-7.11.04-.84 1.18-1.65 1.75-2.47zm50.73 27.41c-2.38 3.4-4.64 6.9-7.25 10.12-.63.78-2.42.63-3.69.91a27.63 27.63 0 0 1 .07-3.53 3 3 0 0 1 .95-1.79c2.85-2.32 5.78-4.55 8.68-6.8z" class="F"/><path d="M343.57 438.12l-1.94-8.69c-.55-2.41.35-4 2.59-5 1.85-.84 3.59-1.9 5.38-2.88 3.94-2.17 8-1.68 12.14-.68l13.4 3.45c2.31.58 3.74-.58 4.72-2.55 1.78-3.61 3.51-7.25 5.45-10.78a15.88 15.88 0 0 1 3.07-3.69c1.61-1.51 2.15-3 .48-4.74-2.23-2.89-5.2-5.39-4.86-9.57.82-1.24 1.43-2.74 2.53-3.65a20.39 20.39 0 0 1 4.34-2.14c.57 1.39 1.64 2.77 1.62 4.15 0 2.74-.75 5.47-1 8.23-.06.73.55 2 1.1 2.15a2.69 2.69 0 0 0 2.24-1 14.56 14.56 0 0 0 1.26-3.17q1.74-4.29 3.53-8.55l2.3-5.35a2 2 0 0 1 .24-.26c3.69.74 4.93 3.23 5.21 6.75.64 8.21-2.65 15.38-5.92 22.49-1.81 3.94-4.37 7.52-6.54 11.3l-9.2 16.21-6.46-4-4.76 2c-4.11-4.58-9.87-4.75-14.06-.6-2.82 2.79-5.85 5.37-8.78 8.05 1-1.63 2.18-3.2 3-4.91a74.75 74.75 0 0 0 4.75-10.45c.89-2.81-1-4.27-3.86-3.79a52.66 52.66 0 0 1-5.46.59c-4 .25-4.94 1.22-5.29 5.2a45.12 45.12 0 0 1-1.22 5.88zM404.1 389l-1.25-.14a11.63 11.63 0 0 0-1 1.65l-5.1 12.71c-.86 2-2.48 3.72-3.06 5.77a7.61 7.61 0 0 1-5 5.59 7.64 7.64 0 0 0-3.53 3 44 44 0 0 0-3.58 7.49c-1 2.73-1.59 5.59.36 8.27s3.87 2.64 5.38-.14c5.9-10.77 13.51-20.74 16.67-32.81.9-3.59.11-7.6.11-11.39z" class="G"/><path d="M378.76 491.56l.79 3.32c2 4.08 3.33 8.76 6.19 12.11a157.46 157.46 0 0 0 18.61 18.81c7.67 6.38 14.91 13.52 24.22 17.75a27.67 27.67 0 0 1 3.95 2.67 45.67 45.67 0 0 0-.49 1.24c-1.25-.15-2.63 0-3.71-.48l-23.45-11a50.07 50.07 0 0 1-20.57-16.54c-5.26-7.19-8.14-15.51-7.48-24.65.08-1.08 1.26-2.13 1.94-3.23z" class="F"/><path d="M343.57 438.12a45.12 45.12 0 0 0 1.29-5.88c.35-4 1.24-4.95 5.29-5.2a52.66 52.66 0 0 0 5.46-.59c2.87-.48 4.75 1 3.86 3.79a74.75 74.75 0 0 1-4.75 10.45c-.86 1.71-2 3.28-3 4.91l-.29.62-6.72 5.95-2.71-4.44v-5.55l1.08-2.26.49-1.8z"/><path d="M374.52 438.15l4.76-2 6.46 4 1.68 2.21.05 2.58a13.87 13.87 0 0 1-3.28-1.35c-3.39-2.6-5.52-2.7-8.95-.18-.54.39-1.27 1.05-1.76.93-6.77-1.57-11.06 3.58-16.38 5.9-1.39.61-2.81 1.13-4.54 1.82.91-6.07 4.49-9.86 9.73-11 1.22-.26 2.95-.28 3.53-1.07 2.45-3.36 5.52-2.62 8.7-1.84z" class="F"/><path d="M304.33 406.77c-3.31 2-2.52 4.52-.85 7.07 3.82 5.82 3.75 6.62 0 12.3-1.71 2.58-3 5.46-4.57 8.12a8.87 8.87 0 0 1-2.19 1.84 8.22 8.22 0 0 1-1.18-2.27l-4.18-24.45c-.15-.82-1.73-1.37-2.65-2-4.74-.16-5.16-.61-5.15-5.45l.26-2.06c.36-3.4 0-3.66-3.26-2.73-3 .86-6 1.58-9 2.38-2.1.56-2.6 1.48-1.75 3.78.62 1.67.09 3.85-.22 5.76-.34 2.12-1.62 4.26-1.41 6.27.43 4-1.52 6.15-4.82 7.36a101.38 101.38 0 0 1-10.92 3.31c-1.17.3-2.57-.33-3.87-.53.2-1.25.09-2.67.65-3.73 1.56-2.94 3.49-5.69 5.07-8.62.79-1.46 2.42-3.5-1-4l-.57-.61L258 395a8.06 8.06 0 0 1 1 2.11c.43 3.31.64 6.66 1.15 10a18.62 18.62 0 0 0 1.6 5.21 3.3 3.3 0 0 0 2.44 1.34c.39 0 1.19-1.34 1.26-2.12a74.22 74.22 0 0 0 .18-7.61 4.83 4.83 0 0 1 3.29-5.09 52.8 52.8 0 0 0 5-2.64c-2.05-3.72-4.58-6.62-5.18-9.87-.66-3.57.22-7.52.84-11.23.81-4.86 1.5-5.24 6.41-5.08.13 5.52 3.13 9.35 7.67 11.88 4.39 2.44 5.48 4.39 4.08 9.24-.23.78-.34 1.59-.7 3.31 1.26-1.07 2.06-1.4 2.19-1.91 1.18-4.68 2.41-9.36 3.27-14.11.41-2.27-1.46-2.85-3.4-2.89l.09-2.08c1.46-3.19.88-3.74-3.54-3.35l-6.12.18-.84-.6c.7-1.76 1.92-3.5 2-5.29.48-8.1.67-8.38 8.09-11.38a8.64 8.64 0 0 0 3.91-3.56c.46-.8-.5-2.42-.82-3.66-1 .42-1.93.81-2.86 1.28-1.61.83-3.19 1.72-4.79 2.58 1.37-1.7 2.63-3.5 4.13-5.08s1.56-3-.47-4.09c-1-.55-2.05-1-3.07-1.48l-.35-.94.51-1.33 2.48-2c3.37.5 6.65 1.1 7.15 5.42 0 .14.59.21.9.31h1.28l2.11-1.65 2-1.26c1.73 1.94 3.61 3.25 6.24 1.53l3-.59c3.18 2.9 3.22 3.47.48 6.91h-1.25l-.75.09-5.08-1.11c-2.1-.62-4.78-1.56-4.61 2a9.1 9.1 0 0 1-2.72 6.94l-5.14 1.46c-2.53.6-2.3 2.74-1.51 4.08 1.34 2.3 3.34 4.22 5.06 6.29l.27 2.65h.93c1.12-3.39 2.47-6.7 1.47-10.5a10 10 0 0 1 .23-3.28l6.79.79c.75 1.74-1.46 4.46 1.77 5.39a34.76 34.76 0 0 1 5.47-.28 3.27 3.27 0 0 1 2.17 1.81c.24.56-.46 2.18-.86 2.23-4.78.54-3.58 5.42-6.26 7.75a13.65 13.65 0 0 0 1.93.8c7.44 1.65 7.63 2 4.59 8.79l-6.62 4-3.73 2.37c2.37 1.65 4.15 2.79 5.8 4.08 1.41 1.09 2.66 2.39 4 3.56l3.64 3.07zm32.05 37.46c.22-3.63-1.6-5-5.07-4.7-1.27.11-2.55 0-3.82 0-5.48.11-9.19 5-7.31 10.09.48 1.32 2.48 2.08 3.79 3.1-3.93 1.09-5.64.07-5.65-3.8a29.37 29.37 0 0 1 1-7.46 6.52 6.52 0 0 1 5.33-4.83 21.47 21.47 0 0 0 5.7-2.36 3 3 0 0 0 1.28-2.48 3.23 3.23 0 0 0-2.1-1.9c-3.51-.93-6.24.44-8.49 3.19-4.39 5.35-9.48 9.72-16.5 11.23l-.07-.07c2.09-5.54 6.44-9.26 11-12.5 3.38-2.42 7.48-3.82 11.26-5.67 3.27.21 4.31-1.43 3.83-4.48l-2.12-14c.71-4.41 3.82-6.69 7.73-7.26 2.69-.4 5.6.66 8.42 1 6.58.86 7.33 1.89 5.74 8.06l-.67.82-1.26 1.39-4.26 5.71c-2.35 3-4.88 5.93-6.91 9.16-.5.79.37 2.78 1.09 3.93 2.24 3.74 1.31 11.25-1.94 13.83z" class="G"/><path d="M328.39 407.65l2.12 14c.48 3.05-.56 4.69-3.83 4.48L316.21 416a44.1 44.1 0 0 1-2.39 4.34 9.26 9.26 0 0 1-2.22 1.66 11.34 11.34 0 0 1-.92-2.72 10.94 10.94 0 0 1 .44-2.72c1.19-6.56 0-8.22-6.79-9.76l11.91-8.41c5.72 0 10.69 1.07 11.42 8.12.05.38.48.75.73 1.14z" class="F"/><path d="M255.67 430c4.3-2.41 8.76-4.6 12.84-7.34 1.56-1.06 2.28-3.37 3.37-5.13.11-.17 0-.45.07-.68.6-4.51 2.47-7.09 4.93-6.81 4.35.48 8.86 4.85 8.47 8.69-.73 7.08.63 13.09 7.1 17.13.76.48 1.15 1.55 2.1 2.91-1.44.07-2.35.4-2.85.09-5.2-3.25-11.87-3.92-16-9.2-.74-.94-2.75-1.4-4.09-1.26-3.44.33-6.82 1.14-10.23 1.74l-5.57.89zm27.88-28.11c0 4.84.41 5.29 5.15 5.45l1.16 9.38-1 .36-2.36-3.09a32.2 32.2 0 0 0-10.74-9.52c-1.05-.58-1.62-2-2.42-3a32.25 32.25 0 0 1 3.6-1.75 5.33 5.33 0 0 1 6.61 2.17z" class="E"/><path d="M225.68,432.35l-.27-.07.3-.29.18.2Z" class="F"/><path d="M229 467.1l-.74-1.16a10.7 10.7 0 0 1 .74 1.16zm75.51-22.76l-.07-.07z" class="G"/><path d="M454.34 279.5l-.7 1.61.7-1.61z" class="E"/><path d="M349.61 410.3l.66-.82c3-2.31 5.47-5.62 9.92-5.08l1.36.84c1.6-.13 3.83.35 4.68-.52 2.14-2.22 5.35-4.34 3.61-8.36L370 395l7.06-2.68c-3.86-3.88-12.07-3.8-15.27-.34-1.33 1.44-2.43 3.1-3.74 4.55-5.29 5.83-7.7 5.68-12.27-.71-2.55-3.57-4.5-3.92-8.59-2.11-1.35.6-3.07.37-4.62.52l1.34-2 9-8.61c-1.6-.71-2.3-1.29-3-1.28-3.06.07-6.22-.1-9.17.56-4.32 1-5.17.57-5.18-3.94v-.7c.06-5.09-.1-5.18-5-5.92-3.16-.47-6.29-1.21-9.43-1.83l.05-.75 5.92-1.92-3.38-2.37c5-.81 7.73-3.33 8.85-7.71.77-3 .52-3.41-2.56-3.3-2.83.09-5.68-.25-9.93-.47l-4 6.15c-3.23-.93-1-3.65-1.77-5.39l-.77-10.37 5.08 1.1.75-.09h1.25c1.62-.42 4.29-.45 4.63-1.36a8.08 8.08 0 0 0-.57-5.64c-.26-.55-3 0-4.54.09l-3 .59a34.87 34.87 0 0 0 .43-4.53c0-1.17-.17-2.69-.9-3.39s-2.25-.53-4.35-.91l2.39 3.75-3.81 3.55-2 1.26-2.11 1.65h-1.28c-.11-2.17-.39-4.35-.32-6.52.11-3.53 1-6.74 4.23-8.84l4.56 1.61c4.22 1.38 5.89.21 6-4.16v-1.66l.84-.44 6.21 9.11c.65 1.68 1.87 2.53 3.37 1.31a50.1 50.1 0 0 0 4.53-4.78l1.16-.29c1.53-.94 3.45-1.58 4.47-2.9 1.12-1.48 1.38-3.57-1.61-3.78-4.79-1.68-9.59-2.6-14.74-1.38-3 .71-4.1-1.23-3.65-4.1 2.55-2 5.18-4 7.6-6.18.73-.65.89-1.94 1.31-2.94l.72-4.61 2.42 3.49c.1.22.2.43.31.65l.38.64c.26 2.17.77 4.34 3.56 4 4.05-.47 8.06-1.26 12.09-1.91l1.66 9.07c.15 2.56 1.69 4 4 4.68a55 55 0 0 1 5.34 1.39 5.5 5.5 0 0 1 2.26 2.34 18.86 18.86 0 0 1 1.91 4.4 21.43 21.43 0 0 1 .36 4c-1.19-.05-2.57.28-3.53-.21-4.88-2.5-9.65-5.22-14.47-7.84-.1-.05-.37.22-.56.34a11.53 11.53 0 0 0 11.41 10 16.9 16.9 0 0 1 0 2.36c-.4 2.69.27 6.19-4.51 5.63-.42-.05-2.05 3.3-1.6 3.87A10.24 10.24 0 0 0 346 350c2.25.71 3.7 1.35 3.54 4.16-.07 1.17 1.07 3.35 1.84 3.43 1.35.15 2.84-1 4.27-1.54.76.61 1.47 1.28 2.28 1.81a8.72 8.72 0 0 0 3.1 1.7c3.37.49 6.78.68 9.79.95 1.17 1.29 2.79 3.47 3.06 3.31 2.37-1.38 6 1.49 7.63-2.23.2-.44 1.46-.4 2.23-.59.45.8 1.35 1.64 1.27 2.38-.4 4 2.08 4.82 5.18 5.32 1 .16 1.83 1 2.81 1.26a8.51 8.51 0 0 0 2.26 0l.17-.87c-.75-.38-1.5-1.1-2.25-1.1-3.55 0-4.74-2.2-5.26-5.21a17.57 17.57 0 0 0-.88-2.59c-.66-1.48-1-3.31-2.05-4.36-3.29-3.18-3.25-4.08 1.05-6.23 1-.5 2.09-.87 3.14-1.31 2.71 4.66 6.78 8.83 5.31 15 0 .09.05.22.08.33.73 2.45 2.66 2.89 4.67 2.26 2.58-.82 1.08-2.51.42-3.88-1.32-2.78-3.91-5.52.63-8.52l-9.33-5c1.19-1.42 2.2-2.5 3.05-3.68s1.49-2.61 2.38-3.81c2.16-2.92 3.91-3 6.51-.58.91.86 1.92 1.62 2.88 2.42l.11.09 1.26 1.17.89 1 .14 1.85-4 4.77h5.19c2 4.84.1 8.85-2.66 12.69h-.06l1.42 1.76 4.87 1.58-1.93 6.47v1.08l.47 1.46.18 2.89c-1.4 3.88-1.81 3.95-5.7 2.79-1.07-.32-2.5.54-3.76.86a2 2 0 0 0-.24.26l-5.76 5.55c-2.17-5-.14-8.52 4.73-11.62-1-.61-1.61-1-2.23-1.31l-4.62-2.26c-.65 1.76-1.36 3.5-1.94 5.28-.16.51.27 1.27 0 1.69-.59 1-1.21 2.46-2.17 2.82-4.34 1.62-6.18 4.23-6 9.21-.34 4.18 2.63 6.68 4.86 9.57-.24.52-.33 1.29-.74 1.53-4.38 2.55-5.62 7.15-7.83 11.24-3.41 6.3-10.75 8.16-16.51 2.92-1.95-1.77-5.66-1.48-8.34-2.63-3.58-1.54-5.59.5-7.86 2.56a11.25 11.25 0 0 1-3 1.39l-.5-2.17 4.26-5.71zm4-15.85c2-3.2 3.54-5.46 4.82-7.88.53-1 .9-3.19.62-3.33a13.91 13.91 0 0 0-5.44-1.55c-.82 0-2.28 1.44-2.43 2.4-.51 3.44.51 6.63 2.47 10.36zm-30.52-32.72l.92.86 3.52 5 6-4.06c-1.68-1.67-3.12-4.17-5.11-4.73-1.35-.43-3.49 1.84-5.29 2.93zm4.57 17.79l.9.52a61.35 61.35 0 0 0 5.44-3.54c.57-.46 1-2.23.69-2.46a6.18 6.18 0 0 0-3.56-1.65 3.81 3.81 0 0 0-2.66 2.16 20.72 20.72 0 0 0-.77 4.97zm-4-32a34.44 34.44 0 0 0 4.67 2.55c1 .35 2.74.58 3.22 0a3.52 3.52 0 0 0 .14-3.27 3.46 3.46 0 0 0-2.89-1.11c-1.51.23-2.94 1.03-5.13 1.83zm-.93-14l-5.79 4c1.46 1.13 3.57 3.52 4.25 3.16 1.78-.92 3-3 4.25-4.77.06-.03-1.37-1.19-2.7-2.38z" class="F"/><path d="M343.05,439.92,342,442.18Z" class="G"/><path d="M276 370c-4.91-.16-5.6.22-6.41 5.08-.62 3.71-1.5 7.66-.84 11.23.6 3.25 3.13 6.15 5.18 9.87a52.8 52.8 0 0 1-5 2.64 4.83 4.83 0 0 0-3.29 5.09 74.22 74.22 0 0 1-.18 7.61c-.07.78-.87 2.14-1.26 2.12a3.3 3.3 0 0 1-2.44-1.34 18.62 18.62 0 0 1-1.6-5.21c-.51-3.3-.72-6.65-1.15-10a8.06 8.06 0 0 0-1-2.11l-5.29 13.45c-3.84 1.09-6.95 1-9.38-3.14-2.55-4.31-6.06-8-8.89-12.2a3.63 3.63 0 0 1 .36-3.49 51.36 51.36 0 0 1 6.19-4.49c-.07-.21-.22-.62-.37-1l-1.39-3.87c1.52-.06 3.13-.47 4.55-.12 5.37 1.32 10.66 3 16 4.22.51.12 2-1.59 2.07-2.5.17-4 0-7.93-.12-11.9l.12-1.27.79-3 .93-6.77a34.62 34.62 0 0 0 2-3.35c1-2.18 1.65-4.55 2.87-6.59.57-1 2.11-1.35 3.22-2 .65 1.33 1.77 2.64 1.86 4a51.39 51.39 0 0 1-.56 7.39l1 .4 1.42-2.34 1.94-.46 1.35-1.23 5.51-5.1 4.79-2.58c.93-.47 1.9-.86 2.86-1.28.32 1.24 1.28 2.86.82 3.66a8.64 8.64 0 0 1-3.91 3.56c-7.42 3-7.61 3.28-8.09 11.38-.1 1.79-1.32 3.53-2 5.29z"/><path d="M349.22 290.63l-.41-.54-1.11-1.32-.52-1.59a.72.72 0 0 0 .09-.46l1.71-.45c2.69 2.08 5.17 2.13 6.55.14 2.61-3.74 2.83-8.36-.11-10.19a15.5 15.5 0 0 1-.06 3.53 10.57 10.57 0 0 1-1.53 2.59 63.19 63.19 0 0 0-5.31-4.8c-2.1-1.52-2.53-2.66-.29-4.47 6.64-5.37 12.69-5.68 20.3-.52-.91 1-1.73 2-2.64 2.94a23.72 23.72 0 0 0-3 2.86 17.59 17.59 0 0 0-1.48 3.68c1.33.46 2.64 1 4 1.38a74 74 0 0 1 7.71 2.38c2.78 1.21 2.36 3 .19 4.63-1.47 1.1-3 2.13-4.5 3.19l-4.72 3.67c-1.32.87-3.18 1.45-3.83 2.68-1.33 2.52-2 5.39-3 8.12.8 3.85 4.15 2 6.31 2.82-1 4.36-1.19 8.32 3.7 10.78.54.27.09 2.49.11 3.8l-4.27 2.91c-2.52 1.83-4.48 1.26-5-1.85-.84-4.8-4.38-7.59-7.43-10.78 0-.54-.07-1.07-.1-1.61q-1.12-2.47-2.24-4.95l-4.19-3.32-.64-.59-2.85-2.29-9.17-7-7-1.92c-1.71-.45-2.09-1.34-1.51-3.06 2-6 3-6.77 9.38-6.72 2.18 0 4.36.11 6.53 0s2.94.79 2.9 2.81 0 3.91.06 5.86c-.26 6.17.76 7.66 6 7.8 2.13.05 4.28-.63 6.42-1q-1.78-3.57-3.58-7.12a15.74 15.74 0 0 0-.28-.59z" class="F"/><path d="M277.45 298.37c0-4.06 2-7.06 5-9.66a7.82 7.82 0 0 0 2.16-3c.92-2.66 2.67-3.17 5.1-2.5l-1.78 3.67-1.14 1.3-.15.22-.31.95c-.1.31-.33.64-.5 1l-.62.59-1.21 4.4 1 .52 2.88-1.61.65-.59h.12c3.14-.24 5.87-1.22 7.6-4.08l1.24-.23 13.14.21a7 7 0 0 1 6.3 3.57c1.77 2.82 1.59 5.16-1.32 6.77-5.12 2.84-7.45 7.23-8.45 12.71a18.19 18.19 0 0 1-1.64 3.82l-1.63-.21c0-1.71-.07-3.42-.08-5.13 0-4.32.09-8.66-.22-13-.09-1.19-1.49-2.29-2.29-3.44l-3.67 3.14h0c-1.76.47-3.5 1-5.26 1.4-4.78 1.14-9.55 4.65-14.36.08a1.28 1.28 0 0 0-.61-.09h0c-.02-.29.01-.55.05-.81z"/><path d="M373.2,296.82c4.15-1.69,6.62,1.08,9.23,3.49l2.73,4.44-8.42,6.18c-.22.38-.71.92-.6,1.12,1.67,3.07,2.63,6.76,6.59,7.91,2,.58,3.19,1.76,3,4l-4.15,1.69c-.61.81-1.63,1.57-1.75,2.45-.6,4.41-1.3,5-5.54,3.75l-9.93-34.2Z" class="F"/><path d="M333.34 266l8.32.06a2.8 2.8 0 0 1 2.14 1.29c.17.61-.61 1.57-1.12 2.26-.32.45-.93.67-1.38 1-2.67 2.1-2.51 3.8.22 5.65 1.09.72 1.78 2 2.66 3.06-1.17.59-2.29 1.57-3.5 1.69-4.37.42-8.76.61-13.14.76-3 .11-4.43-1.79-4.78-4.47a44.47 44.47 0 0 1-.52-8.61c.07-1 1.72-2.43 2.8-2.58a62 62 0 0 1 8.3-.12zM284 328.8c-3 0-6-.33-8.86.12a11.25 11.25 0 0 0-5.64 2.69c-3.16 2.95-6.74 3.89-10.73 2.27-2-.8-1.76-2.09-.71-3.24 4-4.33 7.87-8.74 12.15-12.75 2.55-2.4 4.35-1.66 5 1.7.54 2.72 2.16 3.35 4.49 3.06 1.13-.14 2.23-.79 3.34-.77a9.91 9.91 0 0 1 4.75.92c.68.42.94 2.72.42 3.61-.83 1.44-2.46 2.41-3.76 3.57zm-32.64 20.41c-1.37 3.14-2.23 6.42-4.12 8.9-1 1.25-4 1.81-5.75 1.33-2.47-.69-2.22-3.2-1.83-5.56a47.49 47.49 0 0 0 .61-9.07c-.07-2.47 1.85-6.6 4.25-7.19a3.43 3.43 0 0 1 3 1.28c1.48 3.18 2.48 6.53 3.84 10.31z"/><path d="M311.91 271c1.38-.58 2.81-1 4.11-1.74 2.52-1.37 4-.64 4.38 2.11a15.73 15.73 0 0 1 .17 3.43c-.14 2.26-1.22 3.08-3.44 2.08-1.36-.6-2.79-1-4.19-1.56l-.92-.11-.79.17-5.49 4.62-8.38 7.65-.21.1-3.15 1.46-.64.31-5 .27 5.41-7.52.77-.8a9 9 0 0 0 2.22-.72l15.15-9.75z" class="F"/><path d="M263.6 358.92l-.93 6.77-1.48.29c0-4.34.19-8.68.09-13-.1-4.64-1.92-6.53-6.7-7.21v4c-2.84-3.27-2.33-7.38-2.54-11.21 0-1 1.89-3 2.91-3a92.16 92.16 0 0 1 11.33 1.07c.6.08 1.15.57 1.68 1.71-1.35.09-2.71.13-4 .27a29.7 29.7 0 0 0-6.07.85 3.65 3.65 0 0 0-2.16 2.69c0 .89 1.36 2 2.37 2.52a12.19 12.19 0 0 0 4.36 1c3.15.23 3.43 1.93 2.82 4.52-.73 2.87-1.15 5.81-1.68 8.73z" class="H"/><path d="M318.91 264.22c5.95-5.22 11.72-10.71 19.92-12.29a7.53 7.53 0 0 0 3.14-1.34c4.43-3.43 7.49-2.61 9.73 2.72l-6.59 2.07-16.63 5.34c-1.94.66-3.7 1.82-5.61 2.56a27.19 27.19 0 0 1-3.96.94z" class="E"/><path d="M284.5 338.05l.35.94 2 4.18-10 10.25.32-2.1.54-1.56.65-2.57 2.91-6.19c1.06-2.01.68-3.34-.87-4.89a45 45 0 0 1-3.88-5.15l2.47-.15a.53.53 0 0 0 .34.13l8.22 1.93-.07 1.87-2.48 2z" class="F"/><path d="M254.58,349.74v-4c4.78.68,6.6,2.57,6.7,7.21.1,4.34,0,8.68-.1,13,0,.51-.09,1-.14,1.54A41.18,41.18,0,0,1,257.5,362a82.41,82.41,0,0,1-2.72-8.08Z" class="H"/><path d="M297.6 297.8l4.89-1.43c-.61 2.58-.59 5-1.68 6.6-2.1 3.15-4.84 5.87-7.32 8.77l-7 3.54 2.51-10.81h.07c2-.59 4.14-.89 5.91-1.88 1.12-.63 1.66-2.29 2.45-3.49l.17-1.3z" class="F"/><g class="E"><path d="M289 304.47l-2.53 10.81 7-3.54a74.39 74.39 0 0 1-7.25 5.84c-.8.52-2.91 0-3.76-.74-2.69-2.43-4.65-5.38-4.1-9.33 1.64.87 4.1 2.87 4.78 2.39 2.36-1.69-.32-3.48-.8-5.28 2.21-.91 4.39-2.07 6.66-.15zm42.49-8.47l9.17 7-1.7 3.8c-4 .65-8 1.44-12.09 1.91-2.79.32-3.3-1.85-3.56-4 .46 0 .92.09 1.37.1 5.63.14 6.05-.24 6.46-5.74.07-1.07.23-2.07.35-3.07zm-34.13-8.34l8.38-7.65 5.49-4.62-.46 8.56c-.09.81-.89 2.11-1.53 2.22-3.93.65-7.91 1.02-11.88 1.49zM311.91 271l-15.16 9.74a9 9 0 0 1-2.22.72l9.21-9.91 6.42-3.3 4.69-2.53zm73.25 33.75l-2.73-4.44 9.16 1.15c4.19.74 6.1.06 7.24-3 2.52 2.05 1.1 3.67-.79 4.81a8.78 8.78 0 0 1-4 .81c-3.8.19-4 .52-2.09 4zm-97.67 29.99l.07-1.87c3.92-.28 5.63-3 6.8-6.23 1.37-3.8 1.45-3.82 5.1-1.53-3.19 2.1-4.13 5.31-4.24 8.84-.07 2.17.21 4.35.32 6.52-.31-.1-.89-.17-.9-.31-.5-4.32-3.78-4.92-7.15-5.42zM374 259.51c1.46 1.22 3.47 2.16 4.29 3.72 2.66 5 6.93 8.14 11.61 10.91-6.53-.51-11.78-3.24-14.31-9.5-.59-1.56-3.89-2.64-1.59-5.13zm-23.31 33.15q1.8 3.55 3.58 7.12c-2.14.34-4.29 1-6.42 1-5.2-.14-6.22-1.63-6-7.8a14.19 14.19 0 0 1 1.06 2.14c.71 2.31 2.37 3 4.55 2.78 2.36-.19 3-1.79 3.07-3.83l.16-1.41zm-73.83 60.76l10-10.25-2-4.18 3.07 1.48c2 1.12 2.07 2.41.47 4.09s-2.76 3.38-4.13 5.08l-5.51 5.1-1.36 1.26-1.94.46 1.4-3.04zm-.33-22.42a45 45 0 0 0 3.88 5.15c1.55 1.55 1.89 3 .87 4.89s-1.94 4.12-2.91 6.19c-.94-4.47-2-8.92-2.75-13.41-.15-.9.58-1.92.91-2.82zm-21.92-15.17a17.57 17.57 0 0 0 11-6.28c2.28 2.25 2.15 4.17-.64 5.59a63 63 0 0 1-8 3.34c-2.44.87-2.67-.74-2.36-2.65zm99.22-33.49a10.57 10.57 0 0 0 1.53-2.59 15.5 15.5 0 0 0 .06-3.53c2.94 1.83 2.72 6.45.11 10.19-1.38 2-3.86 1.94-6.55-.14zm-99.05 71.56a82.41 82.41 0 0 0 2.72 8.1 41.18 41.18 0 0 0 3.54 5.54l.84 1.16-.12 1.27-4.72-3.83c-.63-.58-.68-1.81-1.32-2.35-3.58-3.05-2.67-6.41-.94-9.89zm64.7-49.37c-.42 1-.58 2.29-1.31 2.94-2.42 2.19-5.05 4.14-7.6 6.18.36-5.59 4.94-7.06 8.91-9.12zm5.46 21.57a50.1 50.1 0 0 1-4.53 4.78c-1.5 1.22-2.72.37-3.37-1.31 2.11-2.35 4.25-4.63 7.9-3.47zm48.26-29.28l-8.84.82a.31.31 0 0 1-.27-.36l4.72-3.67z"/><path d="M329 319.13c3 .21 2.73 2.3 1.61 3.78-1 1.32-2.94 2-4.47 2.9q1.4-3.35 2.86-6.68zm-35-29.92l3.19-1.45.31 1.56-1.24.23zm-16.28 60.55l-.54 1.56zm71.5-59.13l1.19 1.44zm-1.52-1.86l1.11 1.32zm-30.7-23.7l.75-.59zm-.84.48l.78-.47zm-4.16 9.67l.92.11zm35.27 11.5a.72.72 0 0 1-.09.46.3.3 0 0 1 .09-.46zm-67.93 44.22a.53.53 0 0 1-.34-.13.22.22 0 0 1 .34.13zm43.59-26.88l-.31-.65.31.65zm79.26 79.31c1.26-.32 2.69-1.18 3.76-.86 3.89 1.16 4.3 1.09 5.7-2.79l2.56 3.4a4 4 0 0 1-.59 1.24c-4.05 3.87-4.26 9.08-4.79 14.11-.32 3 2.34 5.53 5.77 5.6 3.13.07 2.66-2.54 3-4.48.82-4.35 0-9.12 3.45-12.8.36-.39-.05-1.49-.11-2.27-.78-2.9-1.21-6-2.42-8.67-2.08-4.68-3.74-4.88-7.54-1.56l1.93-6.47 2.31-.7c2.22 3.95 4.66 7.78 6.58 11.87 1.45 3.12 2.44 3.81 5.75 2.93 3.82-1 3.67-4.21 4.24-7.07 2.2 4.63.93 7.74-3.87 8.51-4.62.75-5.6 4.34-6.62 7.82a121.52 121.52 0 0 0-3.19 13.41c-.28 1.67.61 3.54 1 5.32-2.76.62-6.1.47-8.18 2-4.85 3.62-9.12 8-13.56 12.16a4.22 4.22 0 0 0-1.46 5.06c.74-.15 1.67-.07 2.19-.5 2.33-1.88 4.57-3.87 6.79-5.88 1.26-1.15 2.32-1.78 3.72-.07 1.56 1.93 3.32 1.41 3.92-.67 1.19-4.13 3.73-6.13 7.92-6.42.73-.05 1.41-.73 2.11-1.12-.41 1.38-.38 3.31-1.3 4-3.77 3-7.19 6-9.4 10.64-3.06 6.43-8.73 9.58-16.07 9-3.68-.29-6.55.83-8.36 4.18l-1.68-2.21 9.2-16.21c2.17-3.78 4.73-7.36 6.54-11.3 3.27-7.11 6.56-14.28 5.92-22.49-.29-3.48-1.53-5.97-5.22-6.71zm4.41-63.51c2.87-.72 3.75-2.3 2.25-5-1.38-2.49-2.39-5.23-4.06-7.48-3.15-4.25-2.91-5.85 1.94-8.4-1.32 4.12.78 12.08 4.09 14.69.78.62 2.15.49 3.25.7a25.86 25.86 0 0 1-.67 2.66c-2.27 6.15-1.41 7.46 4.82 7.27.09 0 .18-.14.33-.28a2.85 2.85 0 0 0 .05-.93c-2.25-8.16-1.84-8.77 6.3-9.25l1-.08c-2.69.62-3.24 2.33-2.93 4.92.26 2.12-.37 4.34-.18 6.48a27.12 27.12 0 0 0 1.44 5.07c1.51-.56 3.19-.85 4.47-1.72a47.58 47.58 0 0 0 4.89-4.34h.07l1.21.11c1.28 2.25-.42 3.36-1.79 4.54-2.32 2-2.72 4.55-.89 6.69 2.16 2.53 5 4.51 7.52 6.73-1.07 2.92-2.34 3.24-4.67 1.32l-12.29-9.93c-2.62-2.06-7.1-1.2-9.8 1.73-1.37-2-2.57-4.31-5.56-4.19a5.68 5.68 0 0 1 .2-6.7c1.32-1.9 1.02-3.47-.99-4.61z"/></g><path d="M445.5 344.68c-3.77-.56-3.71-.56-1.89-3.88a6.83 6.83 0 0 0 .54-3.55c-.08-1.36-.69-2.68-.8-4.05-.06-.68.48-1.4.75-2.11.79.32 1.83.44 2.33 1a36 36 0 0 1 1.89 3.28l7.52 10.55a10.19 10.19 0 0 1 1.64 2.61c1.09 3.51 3.26 6.15 5.68 8.88 1.38 1.56 1 4.67 1.41 7.08l-.22.21c-1.81 3-3.74 5.94-5.38 9-.87 1.62-1.1 3.82-3.61 3.41s-3.52-2.08-3.56-4.46a12.33 12.33 0 0 1 .22-4.13c1.9-5.57.21-10.68-1.68-15.81-.78-2.1-1.38-4.27-2.07-6.4zm-25.37 88.86c-2.61 2.4-5.13 4.93-7.89 7.14-1.22 1-2.95 1.31-4.45 1.94-.25-.69-.36-.84-.32-.89 4.64-6.64 9.07-13.45 14-19.82 2.84-3.63 3.59-5.5 1.3-9.11-.91-1.85-2.75-3.8-2.55-5.52.47-4.13 1.87-8.16 3.07-12.17.05-.14 2.6-.06 2.87.48a26.92 26.92 0 0 1 3 7.62 56.27 56.27 0 0 1 .82 12.42 19 19 0 0 1-2.58 8.28c-2 3.44-4.8 6.44-7.27 9.63z"/><path d="M431.82 374.85c-.57 2.86-.42 6.06-4.24 7.07-3.31.88-4.3.19-5.75-2.93-1.92-4.09-4.36-7.92-6.58-11.87-1.31-1.51-.87-2.63.74-3.58a29.93 29.93 0 0 0 2.45-1.78c2.54-2.68 0-4.36-1.3-6.19-1-1.5-3.22-2.78-3.27-4.2 0-1.21 2.26-2.5 3.52-3.75a3.86 3.86 0 0 1 .64-.25l5.55-.85c-.1 2.11-.11 4.24-.34 6.34-.09.88-.81 1.68-1 2.57-.44 2.31 0 4 2.81 4.54a44.27 44.27 0 0 1 5.85 1.89l.38 8.65zm-5.88-61.11l-1 .08c-8.14.48-8.55 1.09-6.3 9.25a2.85 2.85 0 0 1-.05.93c-.15.14-.24.28-.33.28-6.23.19-7.09-1.12-4.82-7.27a25.86 25.86 0 0 0 .67-2.66l.94-11.45c2 1.65 3.33 2.89 4.81 3.92 2.7 1.87 4.63 1.21 4.7-2 .07-2.88-.83-5.81-1.49-8.67a15.37 15.37 0 0 0-1.77-3.27c1.35 0 2.34-.28 3.08 0 7.81 3.34 13.37 8.78 15.53 17.22.46 1.82-.05 3.27-2.26 2.39-4.2-1.61-7.96-.49-11.71 1.25zm1.18-8.34c3.62.67 4.19.11 4.1-3.5z" class="F"/><path d="M453 382.71a25.1 25.1 0 0 1 3.67 1 3.39 3.39 0 0 1 1.81 1.72c.58 1.73 1.51 3.75 1.1 5.35a94.46 94.46 0 0 1-5.13 15.47c-.6 1.32-3.86 1.65-6 1.94-.52.06-2.05-2.05-1.85-2.83 1.97-7.59 4.21-15.15 6.4-22.65z"/><path d="M440.52 387.77l-.8-3.46c.47-.2.91-.57 1.27-.51 2.5.41 5.8.1 7.3 1.58 2.23 2.21-1.33 4.08-2.12 6.21a4.46 4.46 0 0 1-1 1.79c-3.47 3.07-4.71 6.9-4.47 11.47s-4.2 1.71-5.84 3.39a12.6 12.6 0 0 1-1.95-3.11c-1.1-4 .36-8.62-2.6-12.36-.17-.21 1.23-2.29 2.22-2.68a75.88 75.88 0 0 1 7.99-2.32zm2.72 1.34c-4.63 1.32-8.38 9.95-6 14.39l6-14.39zm2.26-44.43l2.77 1.68.64 23.88c0 3.19-.89 6.39-1.51 9.56-.15.79-.8 1.49-1.85 3.33a84.13 84.13 0 0 1-3.58-7.91c-1.65-5-2.74-10.26-4.65-15.18-1.3-3.34-.88-5.54 2.06-7.37 1.56-1 3.14-1.89 4.7-2.84-1.13 2.43-3.33 4.92-3.18 7.28.37 6.15 1.76 12.24 2.77 18.36 0 .15.35.25 1.24.87a23.69 23.69 0 0 0 1.21-4.77c.21-6.23.16-12.47.34-18.69.05-1.84-.48-2.89-2.38-3.05q.71-2.56 1.42-5.15z" class="E"/><path d="M422.55,414.48c-.7.39-1.38,1.07-2.11,1.12-4.19.29-6.73,2.29-7.92,6.42-.6,2.08-2.36,2.6-3.92.67-1.4-1.71-2.46-1.08-3.72.07-2.22,2-4.46,4-6.79,5.88-.52.43-1.45.35-2.19.5a4.22,4.22,0,0,1,1.46-5.06c4.44-4.14,8.71-8.54,13.56-12.16,2.08-1.54,5.42-1.39,8.18-2l3.24,3.31Z" class="F"/><path d="M405.82 342.86l-2.88-2.42c-2.6-2.45-4.35-2.34-6.51.58-.89 1.2-1.51 2.59-2.38 3.81s-1.86 2.26-3.05 3.68l9.33 5c-4.54 3-1.95 5.74-.63 8.52.66 1.37 2.16 3.06-.42 3.88-2 .63-3.94.19-4.67-2.26 0-.11-.11-.24-.08-.33 1.47-6.14-2.6-10.31-5.31-15l1.24-5.19a26.25 26.25 0 0 0 1.56-4.4c.35-2.12-.63-4.71 2.4-5.67.34 5.38 1.4 6 6.29 3.75 2-.91 3.81-2 5.71-3 0 .88.27 2.22-.18 2.56-3.36 2.53-.88 3.57 1.08 4.8z" class="E"/><path d="M422.85 303.23c-4.24-.18-5.41-2.58-6.14-4.69a22.44 22.44 0 0 0-10-12c-2.3-1.41-4.85-2.42-7.66-3.8 4-.83 7.89-1.74 11.85-2.4.66-.11 1.62.74 2.22 1.35a36.69 36.69 0 0 1 3.6 4.19c.56.78 1.25 2 1 2.74-1.16 3 .14 4.92 1.87 7.2 1.41 1.9 2 4.44 3.26 7.41zm10.78 20.92c-5.79 0-6.92-.74-7.6-4.84-.52-3.12 1.6-5.35 4.68-4.59a70.35 70.35 0 0 1 8.17 2.81c.48.19 1.1 1.23.95 1.54a5.87 5.87 0 0 1-1.77 1.95l-4.36 3.09z"/><path d="M407.32 341.18c-2-1.23-4.44-2.27-1.08-4.8.45-.34.14-1.68.18-2.56l1-2.71c3-.12 4.19 2.15 5.56 4.19l3.43 9.08-5.61-2.38-2.36-.76zm32.43 1c-2.54-2.22-5.36-4.2-7.52-6.73-1.83-2.14-1.43-4.7.89-6.69 1.37-1.18 3.07-2.29 1.79-4.54.74.37 2 .63 2.13 1.12 1.01 5.59 1.84 11.22 2.71 16.84z" class="F"/><path d="M417.39 347.62c-1.26 1.25-3.55 2.54-3.52 3.75.05 1.42 2.24 2.7 3.27 4.2 1.27 1.83 3.84 3.51 1.3 6.19a25.4 25.4 0 0 0-2.39-4.43c-.68-.85-2-1.19-3-1.75a11.55 11.55 0 0 0-1.17 3.28c-.13 4.11-1 5.11-5.14 5.6 2.76-3.84 4.69-7.85 2.66-12.69 1.88-2.87 4.73-3.91 7.99-4.15zm-20.71-66.84c3.62-2.15 7.19-4.39 10.9-6.36.63-.34 1.86.43 2.82.69-1.88 1.31-3.59 3-5.66 3.82-2.54 1-5.36 1.27-8.06 1.85z" class="E"/><path d="M435.67 375.29l1.25-1.32 4.84 6.39c.09.13-1.12 1.66-1.77 1.7-2.46.14-4.23-2.5-4.32-6.77z"/><g class="E"><path d="M444.18 414.6l-10.62 5.91c2.29-4.88 5.29-6.51 10.62-5.91zm-12.87-44.09l-.38-8.65c2.45 1.95 2.58 4.91.38 8.65zm-22.87-29.23l2.36.76zm-1.27-42.7l1.93-.76zm1.05 48.42l-.14-1.85.14 1.85zm18.46 81.46l-1.35 1.66zm-19.49-84.34l-1.26-1.12zm26.32 76.46l-1.23 1.42z"/><path d="M432 422.65l-1.12 1.39 1.12-1.39zm-6.93 7.88a.49.49 0 0 1-.34.37.51.51 0 0 1 .34-.37z"/><path d="M424.49 431.15l-.47.58zm24.4-120.22l-.64-.58zm-155.13-28.66l-5.41 7.52 5-.27-4.7 4.11h-.12l-.65.59-2.88 1.64-1-.52 1.21-4.48.62-.59.5-1c.16-.36.2-.63.31-.95l.14-.22 1.15-1.3 1.78-3.67zm-17.05 16.08l-.85-1 .85 1z"/><path d="M304.4 270.44v.08zm-26.95 27.93c0 .26-.07.52-.11.79l-.58-.73a5.36 5.36 0 0 0 .69-.06z"/></g><path d="M390.46 343.17l-1.24 5.19-3.14 1.3c-4.3 2.15-4.34 3-1.05 6.23 1.07 1.05 1.39 2.88 2.05 4.36l-3.3.77c-.77.19-2 .15-2.23.59-1.65 3.72-5.26.85-7.63 2.23-.27.16-1.89-2-3.06-3.31l-9.79-.95a8.72 8.72 0 0 1-3.1-1.7 28.13 28.13 0 0 1-2.27-1.81l-.39-2.78a7.51 7.51 0 0 1 2.57.13c4.09 1.75 7.59.4 11.22-1.78-1.81-3.81-2.59-7.93-6.63-10.28-2.18-1.27-2.54-6.16-.82-7.82 2.38-2.3 4.39-.87 6.23 1a3.42 3.42 0 0 0 .58.38c2.21 2 3.34-.37 4.85-1.2h2.05c6.91-.41 7.63-1.34 6.22-8.05l4.15-1.69c.72-.73 2.13-1.56 2-2.16a6.08 6.08 0 0 0-1.9-3.3c-2.95-2.62-6.08-5.05-9.13-7.56l8.42-6.18 6.83 3.33h.16q-.63 3.54-1.24 7.06l-1.9 7.3a34.6 34.6 0 0 0-1.31 5.09c-.22 2.37.35 4.88-.18 7.15-.44 1.88-1.92 3.54-3 5.23a38 38 0 0 1-2.41 3l3.92 2 1.23-1.83zm16.97-12.06l-1 2.71-5.71 3c-4.89 2.29-5.95 1.63-6.29-3.75l5-2.51c2.37-.26 3.31-1.17 2.69-3.86-.38-1.68.49-3.64.8-5.47l.77-.33a.69.69 0 0 0 .57-.31l.29-.15a.69.69 0 0 0 .53-.25l1.51-.36c2 1.14 2.31 2.71 1 4.55a5.68 5.68 0 0 0-.16 6.73z" class="G"/><path d="M402.93 321.26c-.31 1.83-1.18 3.79-.8 5.47.62 2.69-.32 3.6-2.69 3.86l-.45-2.7c-.99-4.32-.53-5.2 3.94-6.63zm-12.02-6.09q.61-3.53 1.24-7.06c1.06 2.16 3.12 4.39 3 6.47-.28 4.07-2.67 1.08-4.24.59zm-3.7 27.91l-1.21 1.83zm17.06-22.46a.69.69 0 0 1-.57.31 1 1 0 0 1 .57-.31zm.82-.4a.69.69 0 0 1-.53.25.72.72 0 0 1 .53-.25z" class="E"/><path d="M289 304.47c-2.26-1.92-4.44-.76-6.63.15l-1.92-.23-1.45-1.95-.65-1-.33-2.14c4.81 4.57 9.58 1.06 14.36-.08 1.76-.42 3.5-.93 5.26-1.4l-.17 1.3-8.36 5.37z" class="G"/><path d="M279 302.44l1.49 1.95zm-1-3.16l.33 2.14-.94-2.23a1.28 1.28 0 0 1 .61.09zm-8.73-41.55h.21l.09.19c-.17.08-.27-.03-.3-.19z" class="E"/><path d="M392.55 457.69l-1.48-.46c-3.25-.74-4.06-2.72-2.24-5.5a7.87 7.87 0 0 1 11.84-1.27c3.88 3.43 7.4 7.27 11 11a8.62 8.62 0 0 1 1.33 2c3.16 5.86 1.41 9.23-5.22 9.27a49.78 49.78 0 0 0-19.71 4.27c-1.52.65-4.06-.64-5.89-1.53-.34-.17.35-2.71.74-4.11 1.36-4.93 5-8.16 8.64-11.39a5.82 5.82 0 0 0 1-1.37c.11-.19.01-.47-.01-.91z"/><path d="M426.91 455.2a3.13 3.13 0 0 1-.21-.84c0-.09.34-.18.52-.26a4.59 4.59 0 0 1 .34.79 5.14 5.14 0 0 1-.65.31zm-3.5-6.97l.08.06z" class="E"/><path d="M404.1,389c0,3.81.79,7.82-.14,11.39-3.16,12.07-10.77,22-16.67,32.81-1.51,2.78-3.53,2.68-5.38.14s-1.39-5.54-.36-8.27a44,44,0,0,1,3.58-7.49,7.64,7.64,0,0,1,3.53-3,7.61,7.61,0,0,0,5-5.59c.58-2.05,2.2-3.77,3.06-5.77,1.8-4.19,3.39-8.48,5.1-12.71a11.63,11.63,0,0,1,1-1.65Z"/><path d="M384 393c-.19-5 1.65-7.59 6-9.21 1-.36 1.58-1.78 2.17-2.82.24-.42-.19-1.18 0-1.69.58-1.78 1.29-3.52 1.94-5.28l4.62 2.26c.62.31 1.2.7 2.23 1.31-4.87 3.1-6.9 6.58-4.73 11.62l5.76-5.55-2.3 5.35q-1.78 4.26-3.53 8.55a14.56 14.56 0 0 1-1.26 3.17 2.69 2.69 0 0 1-2.24 1c-.55-.15-1.16-1.42-1.1-2.15.22-2.76.94-5.49 1-8.23 0-1.38-1.05-2.76-1.62-4.15a20.39 20.39 0 0 0-4.34 2.14c-1.17.93-1.78 2.43-2.6 3.68zm-51.47 1.24c1.55-.15 3.27.08 4.62-.52 4.09-1.81 6-1.46 8.59 2.11 4.57 6.39 7 6.54 12.27.71 1.31-1.45 2.41-3.11 3.74-4.55 3.2-3.46 11.41-3.54 15.27.34L370 395c-5.41-2-6.74-1.57-11 3-1.58 1.72-2.25 3.11 0 4.73a6.72 6.72 0 0 1 1.23 1.62c-4.45-.54-6.93 2.77-9.92 5.08 1.6-6.17.85-7.2-5.73-8.06-2.82-.37-5.73-1.43-8.42-1-3.91.57-7 2.85-7.73 7.26-.25-.39-.68-.76-.73-1.17-.73-7.05-5.7-8.1-11.42-8.12-1.21-1-2.45-2-3.64-3.07-1.35-1.17-2.6-2.47-4-3.56-1.65-1.29-3.43-2.43-5.8-4.08l3.73-2.37a41.19 41.19 0 0 1 4.42-.24c1.3.07 3 0 3.79.78 3.08 2.76 8 3.71 8.93 8.65 0 .22.57.35.86.52 2.94 3.14 5.48 1.52 7.96-.73zm-26.43-34.11l4-6.15 9.93.47c3.08-.11 3.33.28 2.56 3.3-1.12 4.38-3.83 6.9-8.85 7.71l3.38 2.37-5.92 1.92-.05.75c3.14.62 6.27 1.36 9.43 1.83 4.86.74 5 .83 5 5.92v.7c0 4.51.86 4.92 5.18 3.94 2.95-.66 6.11-.49 9.17-.56.69 0 1.39.57 3 1.28l-9 8.61c-.46-4.71-1.29-5.54-5.84-5.66-1.24 0-2.5.05-3.75.08l-3.29-9.1-7.85 3.69c3-6.78 2.85-7.14-4.59-8.79a13.65 13.65 0 0 1-1.93-.8c2.68-2.33 1.48-7.21 6.26-7.75.4-.05 1.1-1.67.86-2.23a3.27 3.27 0 0 0-2.17-1.81 34.76 34.76 0 0 0-5.53.28zM276 370l2.7-.33.84.6c.5.8.82 2 1.53 2.33 2.61 1.14 5.35 2 8 2.92 1.94 0 3.81.62 3.4 2.89-.86 4.75-2.09 9.43-3.27 14.11-.13.51-.93.84-2.19 1.91.36-1.72.47-2.53.7-3.31 1.4-4.85.31-6.8-4.08-9.24-4.49-2.53-7.49-6.36-7.63-11.88z" class="E"/><path d="M313.14 381.23l7.85-3.69 3.29 9.1.24 8.35c-.29-.17-.81-.3-.86-.52-1-4.94-5.85-5.89-8.93-8.65-.83-.75-2.49-.71-3.79-.78a41.19 41.19 0 0 0-4.42.24zm-22.05-26.51l5.14-1.46 1.31.69a10 10 0 0 0-.23 3.28c1 3.8-.35 7.11-1.47 10.5h-.93l-.27-2.65c.67-3.47.89-6.77-2.8-8.9-.4-.18-.51-.96-.75-1.46z" class="F"/><path d="M297.54 354l-1.31-.69a9.1 9.1 0 0 0 2.72-6.94c-.17-3.52 2.51-2.58 4.61-2l.77 10.38zm3.4-16.43l3.81-3.55-2.39-3.75c2.1.38 3.63.23 4.35.91s.86 2.22.9 3.39a34.87 34.87 0 0 1-.43 4.53c-2.63 1.72-4.51.41-6.24-1.53zm-9.85 17.15c.24.5.35 1.24.75 1.47 3.69 2.13 3.47 5.43 2.8 8.9-1.72-2.07-3.72-4-5.06-6.29-.79-1.34-1.02-3.48 1.51-4.08z" class="E"/><path d="M289.12 375.52l-8-2.92c-.71-.31-1-1.53-1.53-2.33l6.12-.19 3.54 3.36z" class="F"/><path d="M310.16 338.51c1.58-.06 4.28-.64 4.54-.09a8.08 8.08 0 0 1 .57 5.64c-.34.91-3 .94-4.63 1.36 2.74-3.42 2.7-4.01-.48-6.91zm-20.95 34.93l-3.54-3.36c4.42-.38 5 .17 3.54 3.36zm7.61-32.96l2.11-1.65zm-12.32-2.43l.51-1.33zm24.89 7.33l-.75.09zm40.22 64.92l-1.26 1.39zm18.85-75.39a3.42 3.42 0 0 1-.58-.38c-1.84-1.86-3.85-3.29-6.23-1-1.72 1.66-1.36 6.55.82 7.82 4 2.35 4.82 6.47 6.63 10.28-3.63 2.18-7.13 3.53-11.22 1.78a7.51 7.51 0 0 0-2.57-.13l.39 2.78c-1.44.58-2.93 1.69-4.28 1.54-.77-.08-1.91-2.26-1.84-3.43.16-2.81-1.29-3.45-3.54-4.16a10.24 10.24 0 0 1-4.85-3.15c-.45-.57 1.18-3.92 1.6-3.87 4.78.56 4.11-2.94 4.51-5.63a16.9 16.9 0 0 0 0-2.36 11.53 11.53 0 0 1-11.41-10c.19-.12.46-.39.56-.34l14.47 7.84c1 .49 2.34.16 3.53.21a21.43 21.43 0 0 0-.36-4 18.86 18.86 0 0 0-1.91-4.4 5.5 5.5 0 0 0-2.26-2.34 55 55 0 0 0-5.34-1.39c-2.29-.69-3.83-2.12-4-4.68 3.37.74 6.76 2.92 10.08-.12 3.05 3.19 6.59 6 7.43 10.78.54 3.11 2.5 3.68 5 1.85 1.39-1 2.84-1.94 4.27-2.91l4.95 6.3h-3.7c-.02 1.2-.09 2.13-.15 3.11z" class="E"/><path d="M360.19 404.4a6.72 6.72 0 0 0-1.23-1.62c-2.24-1.62-1.57-3 0-4.73 4.25-4.61 5.58-5.05 11-3l-.12 1.35c-2.44 3.26-3.23 8.06-8.29 8.88zm-9.49-88.64c-3.32 3-6.71.86-10.08.12l-1.66-9.07 1.7-3.8 2.86 2.28.65.59 4.18 3.33c-.85 2.37-.15 4 2.25 4.94l.1 1.61zm63.51 67.36l-2.56-3.4-.18-2.89-.47-1.46v-1.08c3.8-3.32 5.46-3.12 7.54 1.56 1.21 2.71 1.64 5.77 2.42 8.67zM324.52 395l-.24-8.35 3.75-.08c4.55.12 5.38.95 5.84 5.66l-1.34 2c-2.48 2.26-5.02 3.88-8.01.77z" class="G"/><path d="M353.65 394.45c-2-3.73-3-6.92-2.43-10.36.15-1 1.61-2.43 2.43-2.4a13.91 13.91 0 0 1 5.44 1.55c.28.14-.09 2.33-.62 3.33-1.28 2.43-2.83 4.68-4.82 7.88z" class="E"/><path d="M406.71,364.46c4.19-.49,5-1.49,5.14-5.6a11.55,11.55,0,0,1,1.17-3.28c1,.56,2.35.9,3,1.75a25.4,25.4,0,0,1,2.39,4.43,29.93,29.93,0,0,1-2.45,1.78c-1.61.95-2.05,2.07-.74,3.58l-2.31.7-4.87-1.58-1.42-1.76Z" class="G"/><path d="M323.13 361.73c1.8-1.09 3.94-3.36 5.33-3 2 .56 3.43 3.06 5.11 4.73l-6 4.06-3.52-5zm4.57 17.79a20.72 20.72 0 0 1 .78-5 3.81 3.81 0 0 1 2.66-2.16 6.18 6.18 0 0 1 3.56 1.64c.28.23-.12 2-.69 2.46a61.35 61.35 0 0 1-5.41 3.54zM383.78 361l3.3-.77a17.57 17.57 0 0 1 .88 2.59c.52 3 1.71 5.2 5.26 5.21.75 0 1.5.72 2.25 1.1l-.17.87a8.51 8.51 0 0 1-2.26 0c-1-.29-1.84-1.1-2.81-1.26-3.1-.5-5.58-1.35-5.18-5.32.08-.76-.82-1.6-1.27-2.42zm-60.11-13.48c2.19-.8 3.62-1.6 5.14-1.79a3.46 3.46 0 0 1 2.89 1.11 3.52 3.52 0 0 1-.14 3.27c-.48.54-2.21.31-3.22 0a34.44 34.44 0 0 1-4.67-2.59zm-.93-13.99l2.71 2.43c-1.28 1.74-2.47 3.85-4.25 4.77-.68.36-2.79-2-4.25-3.16zm38.81 71.71c5.06-.82 5.85-5.62 8.29-8.88 1.74 4-1.47 6.14-3.61 8.36-.85.87-3.08.39-4.68.52zm45.1-40.76l1.42 1.76zm4.35 10.89l.47 1.46z" class="E"/><path d="M261.88 368.68l-.84-1.16c0-.51.1-1 .14-1.54l1.49-.29-.79 2.99zM277.4 356l1.35-1.23zm94.97-24.22l-4.95-6.3c0-1.31.43-3.53-.11-3.8-4.89-2.46-4.74-6.42-3.7-10.78-.63-.73-1.12-1.81-1.91-2.1a21.85 21.85 0 0 0-4.4-.72c.95-2.73 1.63-5.6 3-8.12.65-1.23 2.51-1.81 3.83-2.68a.31.31 0 0 0 .27.36l9.93 34.19-1.16.25z" class="G"/><path d="M357.3 308.08a21.85 21.85 0 0 1 4.4.72c.79.29 1.28 1.37 1.91 2.1-2.16-.81-5.51 1.03-6.31-2.82zm-6.7 6.07c-2.4-.9-3.1-2.57-2.25-4.94zm-6.43-8.27l-.65-.59z" class="E"/><path d="M288.62 293.63l4.7-4.11.64-.31 2.26.34c-1.73 2.86-4.46 3.84-7.6 4.08zm-2.01-5.27l-.31.95.31-.95zm1.29-1.52l-1.15 1.3 1.15-1.3zm-2.1 3.43l-.62.59zm2.05 3.98l.65-.59z" class="G"/><path d="M376.74 310.93c3.05 2.51 6.18 4.94 9.13 7.56a6.08 6.08 0 0 1 1.9 3.3c.09.6-1.32 1.43-2 2.16.19-2.23-1-3.41-3-4-4-1.15-4.92-4.84-6.59-7.91-.18-.19.34-.73.56-1.11zm-3.61 21.15l1.16-.25c4.24 1.22 4.94.67 5.54-3.74.12-.88 1.14-1.64 1.75-2.45 1.41 6.71.69 7.64-6.22 8.05h-2.06l-.17-1.61zm-84.07-27.61l8.36-5.37c-.79 1.2-1.33 2.86-2.45 3.49-1.77.99-3.92 1.29-5.91 1.88z" class="E"/><path d="M414.21 383.12l6.76 1.4c.06.78.47 1.88.11 2.27-3.44 3.68-2.63 8.45-3.45 12.8-.37 1.94.1 4.55-3 4.48-3.43-.07-6.09-2.56-5.77-5.6.53-5 .74-10.24 4.79-14.11a4 4 0 0 0 .56-1.24z" class="F"/><path d="M427.12 305.4l4.1-3.5c.09 3.61-.48 4.17-4.1 3.5z" class="E"/><path d="M443.24 389.11l-6 14.39c-2.38-4.44 1.37-13.07 6-14.39zm.84-39.28c1.9.16 2.43 1.21 2.38 3.05l-.34 18.69a23.69 23.69 0 0 1-1.21 4.77c-.89-.62-1.21-.72-1.24-.87-1-6.12-2.4-12.21-2.77-18.36-.15-2.36 2.05-4.85 3.18-7.28zm-70.95-17.75l.17 1.63c-1.5.83-2.63 3.21-4.84 1.2l.21-3.13h3.7z" class="F"/><path d="M338.06 467.14l-.95 1.03m6.48-7l-.83.9" class="H"/></svg>