<svg xmlns="http://www.w3.org/2000/svg" viewBox="0 0 720 720" xmlns:v="https://vecta.io/nano"><style><![CDATA[.E{fill:#7e172c}.F{fill:#460c12}.G{fill:#a92646}.H{fill:#977c35}]]></style><path d="M0 0h720v720H0z"/><path d="M338.51 720a82.52 82.52 0 0 0 1.46-8.33l4.6-65c1.67-28.84 3.33-57.69 1.05-86.6l-3.05-47-3.29-37.64c-.21-2.51-1.48-3.82-3.89-4l-14.85-1.15c-2.06-.18-4.1-.59-6.14-.89l-8.73-1.82c1.52-3.76-.86-2.94-2.93-2.5l-4.74-4.24v-2.77c-.13-3 .52-5.25 3.74-6.82 2.68-1.31 4.71-3.94 7-6l7-7.23 2.49.55-.41 1.36-.77 1.46-.7 2.07-1.06 4.6-.89 3.1c0 5.3-.09 10.62.16 15.91 0 .64 2.12 1.93 2.84 1.68 3.63-1.24 7.13-2.88 10.67-4.38l1.27-.86.63-.6 2.2-2.57a7.49 7.49 0 0 0 6.07 4c3.49.46 4.88 2.64 4.2 6 3.15-.37 4.09-2.37 4.44-5.21.56-4.55 3-5.81 7.19-4.44a40.93 40.93 0 0 0 8.06 1.67c3.87.42 4.71 1.17 4.91 5.18.11 2.06.34 4.12.52 6.18l-1.9 6.24c-5.11 11.27-8.65 22.79-4.25 35.14 2.2 6.18 4.95 12.18 7.6 18.2.38.88 1.6 1.39 2.44 2.07l-.44 3.43c-.37 2-1.24 4-1.06 5.86a594.87 594.87 0 0 1 .88 95.51l-4.09 69.51-.45 10.27z" class="H"/><path d="M157.34 296.29a67.39 67.39 0 0 1-5.94-5.76c-9.11-11.19-13.75-23.95-14.63-38.48-.68-11.47.72-22.6 2.56-33.79.7-4.25 2.44-7.7 6.87-9.2a4.9 4.9 0 0 0 2-1.32c4.29-4.91 10.19-7.26 16-9.41 8.65-3.2 17.51-5.88 26.37-8.47 10-2.94 20.18-2 29.63 1.67s18 8.79 27 13.22a37.81 37.81 0 0 0 4.63 1.62c.08-1.72.55-3.53.17-5.13-3.35-14-6.45-28-6.44-42.43a69.74 69.74 0 0 1 2.55-17.73c2.09-7.78 10.94-13.57 19-13.92 9.8-.44 18.45 2.59 27.22 6.74 14.14 6.69 25.05 17 34.24 29.1 8.53 11.21 14.51 23.89 16.49 38.15.25 1.78 1.45 3.43 2.21 5.14 1.33-1.43 3.08-2.65 3.93-4.33 2.68-5.35 4.73-11 7.6-16.25a38.42 38.42 0 0 1 7.35-9.42c2.88-2.69 6.44-4 10.34-1 2.2 1.71 4 0 5.11-1.86 1.56-2.57 2.73-5.37 4.32-7.91 6.82-10.94 15.31-20.57 24.21-29.81 6.11-6.34 14.11-9.61 22.56-11.45 7-1.52 14.09-2.3 21.13-3.44 8.74-1.42 15.3 2.8 21.55 8.08 7.32 6.19 11.64 14.51 16.47 22.51 5.68 9.41 7.38 19.82 8.27 30.5.25 3 .9 5.95 1.18 8.94 1 10.53-1.76 20.36-5.59 30-.73 1.84-.62 4-.9 6l-.27.27c-2.36-1.61-2.93-3.62-1.64-6.27s2.37-5.25 3.37-7.94c3.42-9.27 2.86-18.91 2.42-28.5-.53-11.6-1.6-23.08-8.17-33.27-4.56-7.09-8.3-14.75-15-20.17-1.7-1.37-4.11-2.05-5.39-3.67-3.49-4.41-8.06-4.94-13.19-5.29-7.25-.49-13.89 2.13-20.83 3-7.55 1-13.24 5.65-19.85 8.45a3.09 3.09 0 0 0-.8.66c-2.53 2.52-5 5.13-7.6 7.54a99.74 99.74 0 0 0-22.5 30 27.12 27.12 0 0 1-5.73 8.1c-1.31 1.24-1.92 1.84-1.62 3.24.76 3.73 1.77 7.42 2.32 11.17l3.81 28.35a10.85 10.85 0 0 0 .57 3.05c.34.73 1.2 1.21 1.83 1.81.56-.65 1.44-1.23 1.59-1.95a13.36 13.36 0 0 0 .1-4.14l-2.76-22.32c-.14-1.28.69-2.66 1.07-4 .91.85 1.83 1.69 2.7 2.57.69.7 1.28 2 2 2s1.5-1.09 2.21-1.76c2.23-2.11 4.3-5.84 6.68-6 5.58-.47 7.34-3.16 9.78-7.83 3-5.84 8.66-10.34 13.22-15.37a5.54 5.54 0 0 1 2.09-1.16c6.77-2.61 10.93-7.88 14.05-14 1.54-3 4.06-5.4 6.13-4.48 3.14 1.38 1.87 4 1.37 6.33-1 4.8.75 8 5.52 9.59 5.77 1.94 9.06.15 10.6-5.75.22-.85.54-1.67 1-3l1.85 3.19 3.2-1.78-2.63 19.41c-.51 3.27-.73 6.89-2.32 9.63-3.18 5.47-2.82 11.07-2.13 16.84.27 2.27 1.66 3.52 4.09 3.2s3.5.9 4.6 2.84c2.85 5.05 1.41 10.61 1.9 15.89.3 3.29-1.85 6.74-1.89 10.13 0 4.9-2.65 8-6 10.74-1.24 1-2.93 1.49-4.41 2.21a39 39 0 0 1-.86-4.74c-.28-4.6-.42-9.22-.62-13.83l-1.36.06c0 1.57.09 3.15 0 4.72-.52 7.29-1.8 14.38-5.08 21.06-2 4-3.41 8.27-5 12.44a7.18 7.18 0 0 0-.22 1.69c-.39 2.77-.62 5.57-1.23 8.28-.57 2.53.2 3.42 3 2.94q-1.5 4.94-3 9.86c-4.48-1.67-8.89-3.6-13.48-4.88-2.23-.62-3.63.66-2.77 3.5a76 76 0 0 1 1.48 8.09l-1.27-.07c-1.36-3.12-2.83-6.2-4-9.39a3.35 3.35 0 0 1 1-2.72c.56-.56 1.78-.38 2.6-.77a21.42 21.42 0 0 0 2.68-1.73c-.58-.79-1-1.88-1.76-2.32-1.9-1.09-4-1.77-5.94-2.83a25.82 25.82 0 0 1-3.38-2.66l.55-.93c2.29 0 4.59.11 6.88 0 7.76-.45 14.91-7 15.84-14.57.16-1.26-.31-3.24-1.21-3.88-2.81-2-2.77-4.46-1.59-7 1.45-3.14 3.33-6.08 4.86-9.18a10.78 10.78 0 0 0 .53-3.16c-1.16 0-2.5-.31-3.45.15a32.55 32.55 0 0 0-4.51 3.14l8.23-11.56-8.55 3c1.18-2.36 2.2-4.82 3.57-7.07 2.73-4.48 1.67-8.4-3.34-11.55-3.2-2-5.73-.9-8.5 3.64a57.48 57.48 0 0 1-4 6c-2.43 3-5.28 5.78-7.55 8.93-4.66 6.45-5.11 6.72-12.55 4.4-1.53-.15-3.19-.74-4.59-.37a58.3 58.3 0 0 0-23.26 12.78c-1.91-1.63-3.58-3.87-5.78-4.7s-4.82-.18-8.07-.18l2.34-2.9c3.86-4.92 7.79-9.83 9-16.23.68-3.73-.3-4.9-4-5.17-4.92-.36-5.85-1.13-6-6-.11-3.69.44-7.4.27-11.08-.07-1.5-.94-3.73-2.05-4.2s-3.56.56-4.26 1.67a17.86 17.86 0 0 0-2.91 7.59c-.51 6-.39 11.95 2.42 17.65.79 1.61-.08 4.05-.19 6.11a37.79 37.79 0 0 1-4.72-2.83c-2.57-2.09-4.84-4.57-7.46-6.58-1.94-1.49-3.63-1-5.21 1.2-3 4.14-5.65 4.13-8.93.21-4.08-4.87-8.1-9.8-12-14.81a64 64 0 0 1-5.18-7.7c-1.46-2.59-2.42-5.59-6.33-2.63l-10-17.36a14.38 14.38 0 0 0-3.32-3.91 3.56 3.56 0 0 0-3.12-.28c-.57.26-.9 1.81-.77 2.7.34 2.39 1.32 4.72 1.42 7.11.29 6.75.35 13.52.31 20.28 0 3.06-.48 6.39-3.77 7.62-4.06 1.52-6.94 4.16-9.81 7.27a15.61 15.61 0 0 0-4.5 12.25 31.45 31.45 0 0 1 .28 4.83c-.56 6-.5 11.71 2.6 17.2 1.25 2.2 1.43 5 2.1 7.54l-1 .41-4.17-2-.72.79c1.21 2.18 2.49 4.31 3.6 6.54 1.19 2.39 2.16 4.86-.74 7.58a25.14 25.14 0 0 0-1.09-3.11c-1.44-2.74-2.44-6-4.56-8a90.71 90.71 0 0 0-12.79-10A183.34 183.34 0 0 0 241.15 244c-3.16-1.61-6.93-2-10.66-3-.39 4 1.68 6.06 3.58 8.21 2.78 3.16 2.81 5.91.23 8.17-3.1 2.7-2.94 4.87.09 7.54 8.41 7.4 18.35 11.3 29.2 13.37 1.15.22 2.07 1.63 3.1 2.49-1 1-1.89 2.54-3.06 2.79-4.69 1-9.09-.46-13.42-2.27-3.35-1.4-6.84-2.5-10.26-3.73a41.35 41.35 0 0 1-5.42-2c-1.92-1-3.54-1.65-5.23.31-1.52 1.76-2.86 1.48-4.18-.4a119.43 119.43 0 0 0-8.2-11.19 35 35 0 0 0-14.56-10 101.61 101.61 0 0 1-9.7-4.23c-2.51-1.19-4.79-1.31-7.2.28a14.5 14.5 0 0 1-4.61 2.16c-5.16 1.17-7.19 3.72-5.16 8.7a116.35 116.35 0 0 0 9.31 18.05c3 4.75 7.12 8.76 10.52 13.27 2.75 3.66 5.38 7.09 10.5 7.54a4.24 4.24 0 0 1 3.91 4.22 4.38 4.38 0 0 0 2.07 2.82c5.35 2.94 10.88 5.55 16.15 8.61 1.3.76 1.88 2.77 2.79 4.2l-.13.13-11.74-3c-.78-1.24-1.26-3-2.38-3.62a36.65 36.65 0 0 0-15.62-3.83 28.52 28.52 0 0 1-4.41-.9l.1-.93 5.43-.58a6.42 6.42 0 0 0-3.93-2.22c-3.22-.28-6.59-.82-9.67-.17-5.44 1.16-9 .61-12.72-4.59-4.27-6-9.27-11.29-12.18-18.2a23.05 23.05 0 0 0-4.61-6.31c-1.56-1.67-2-3.45-.44-4.85 4.21-3.7 2.39-7.65 1.06-11.76-1.21-3.72-2.34-7.49-3.18-11.31a4.53 4.53 0 0 1 1-3.72c2.35-2.1 5.1-3.75 7.6-5.69a3.53 3.53 0 0 0 1.3-2.15c.31-3.65.9-4 4.66-3.32 2.46.45 5.15 1.05 7.48.49 4-1 7.66-1.1 11.5.51 2.7 1.12 4.26 0 5.58-2.82 1.43-3.11 3.31-5.81 2.27-9.5-.16-.57.93-1.79 1.72-2.29 2.27-1.46 1.7-2.69 0-4-.56-.42-1.15-.78-1.74-1.15-2.41-1.49-1.93-3 .19-4.1a5.92 5.92 0 0 1 3.92-.67c6.5 2 13.19 3.57 18.57 8.18a6.18 6.18 0 0 0 7.13.93c2.47-1.19 4.95-2.39 7.51-3.38 4.87-1.87 7.12-9.1 3-12-4.87-3.49-10.66-5.77-16.22-8.19-2.59-1.12-6-.66-8.31-2.12-5.33-3.39-11.16-2.94-16.44-1.83a295 295 0 0 0-32 9c-4.3 1.44-8.73 3.82-10.19 9.09a25.21 25.21 0 0 1-2 4.29l-3.05 9.24-3.23-2.5c-1.25 2.47-2 5-3.51 6.68-4.15 4.58-4.4 10-4.08 15.6l1.26 17.56a33.27 33.27 0 0 0 .55 4.8A54.09 54.09 0 0 0 154.08 290c2.42 2.58 4.74 5.24 7.11 7.87zm132.82-135.74a21.67 21.67 0 0 0-1.24-3l-6.74-11.69c-.37-.66-.12-1.67-.16-2.51.86 0 1.91-.29 2.54.1 3.05 1.85 7.16 2.42 8.23 6.77.18.75 1.26 1.29 2 1.88a32.22 32.22 0 0 1 10.05 14.22c1.57 4.41 4.1 8.5 6.47 12.57.44.76 2.71 1.42 3.25 1 2.91-2.28 4.52-.46 6.51 1.36 1.15 1 3.16 2.35 4.22 2s1.83-2.58 2.57-4 1.47-3.22 2.1-4.86c.47-1.21 1.46-2.86 1-3.65a81.85 81.85 0 0 0-7.45-11.74c-1.61-2-4.86-2.71-6.38-4.74-7.77-10.35-18.66-16.3-30.17-20.83-6.27-2.47-13.46-2.66-20.26-3.65-1.83-.27-3.85.26-4.1 2.74s-1.6 2.94-3.75 3.13c-4.08.36-7.36 2.36-8.84 6.26-2.78 7.37-3.36 15.09-2.8 22.88.77 10.86 2.18 21.58 6.13 31.87 1.86 4.83 3.19 9.87 4.7 14.83.85 2.82 2.48 4 5.45 3.09 3.28-1 4.58-2.94 4-6.16l-3.59-21.51a8.18 8.18 0 0 1 .9-5.2c1.77-2.69 1.44-5.12.59-7.9a17.5 17.5 0 0 1-.91-6.39c.23-2.86 2.38-4 5-2.75 2.36 1.16 4.08.86 5.87-1a6.27 6.27 0 0 1 3.25-1.82c3.58-.57 7.23-.85 11.56-1.3zm-20.37 92.32c-.3-1.12-.43-1.92-.72-2.67l-8.39-21.88a22.82 22.82 0 0 0-2.57-3.95l-3.37 3.57c-.38.42-.64 1-1 1.4-3.7 4.38-4.19 7-.45 11.42 4 4.8 8.87 9 13.43 13.32a2.41 2.41 0 0 0 2.12.51c.52-.24.71-1.25.95-1.72z" class="E"/><path d="M316.35 443.46l.7-2.07.77-1.46c.25-.46.27-.91.41-1.36l12.23-7.5c-3.15-2.46-6.28-2.09-9.18.85l-5.54 6.1-7 7.23c-5.15-1.74-7.73 3.91-12.38 4.09 1.22-1.62 2.85-2.76 4.15-4.19.94-1 2.16-2.56 2-3.65s-1.87-2.23-3.13-2.64c-5.8-1.87-6-2.1-4.79-8.05 2.84 1.15 4.44-.33 5.42-2.72 1.7-4.16 2.37-8.39.92-12.85-.77-2.34-1.8-4.89.47-7.11 1.67 2.55 3.6 4.67 6.73 5.65.8.25 1.77 2.51 1.44 3.39-1.43 3.85-3.53 7.46-4.94 11.32s.46 6.35 4.59 5.21a36.93 36.93 0 0 0 11.22-5.05c2.2-1.54 4-2.27 6.56-2 1.86.19 4.06.74 5-1.87l-3.06-17.9c.44-4.7 3.53-7.06 7.74-7.51 2.89-.31 5.92.55 8.88.94 7.15.94 8.12 2.38 6.3 9.18q-3.8 4.88-7.58 9.76c-2 1.32-4 2.6-3.52 5.9 3.55-1.24 6.83-2.49 10.18-3.5 2.28-.68 4.74-1.63 7-1.38 5.82.65 11.6 1.8 17.36 2.94 5.12 1 6.36.23 7.77-4.63a24 24 0 0 1 8.53-13.06c1.33-1 2.41-2 .71-3.6l-5.31-7.67c.64-2.44.78-5.19 2.08-7.21.91-1.4 3.39-1.8 5.17-2.64a22.18 22.18 0 0 1 1.85 4.77c.19 1.28-.49 2.68-.78 4a39.52 39.52 0 0 0-1 5.42c0 .8.79 1.66 1.22 2.48.65-.56 1.64-1 1.88-1.7 1.48-4.23 2.79-8.52 4.16-12.79l1.06-1.39 1-1.39 1.13-1.37 8-.41 1.66-.4c2.05-2.42 1.48-4.95.31-7.51l-.15-2.73c2.09-3.31 4.77-3.05 7.71-1.28l.48 1.24 3 5.58.19 1.5.63 1.14 1 1.64a40.8 40.8 0 0 0 5.54-.3c2.94-.52 4.51-2.19 3.58-5.4l.75-3.55a25.08 25.08 0 0 0 2.07 3c1.32 1.44 2.58 3.26 4.26 4 3.17 1.35 4.33.11 3.56-3.24a25.94 25.94 0 0 1-1.08-5c-.09-6-2.16-11.29-5.12-16.31-1.07-1.8-1.85-3.29-.36-5.35.45-.62-.05-2.43-.69-3.26-2.75-3.53-5.66-7-8.64-10.31a8.37 8.37 0 0 0-3.57-2.58c-1.29-.35-3.3-.22-4.14.58s-.88 2.75-.69 4.11c.39 3 3.05 3 5.26 3.57-1.84.8-3.72 1.52-5.5 2.43-2.53 1.29-5 2.73-7.46 4.11l-1.72.79h-2.25c-.19-.63-.66-1.3-.55-1.87.45-2.26 1.08-4.48 1.79-7.32h3.71l4.07 1.89.86-.75q-1.77-5.07-3.56-10.14c.44-3.07 2-2.7 4.45-2 1.79.56 3.95-.08 5.95-.19l-1.45-3.88-.25-1.31a19.16 19.16 0 0 0-2.59-14.47l8 .3c4 .34 8.09.25 11.95 1.13 5.41 1.23 5.33 1.55 4.66 7.06 0 .15.25.33.52.64 1.3-.64 2.61-1.37 4-1.94 2.91-1.2 8.08-.14 9.24 2 1.81 3.3.05 5.66-2.23 7.92-.85.84-2.09 2.34-1.83 3.07 1.37 3.87 2.62 8 5 11.24 2.2 3 5.64 5.23 8.71 7.57a10.52 10.52 0 0 0 4.13 1.48c2.7.59 5.45 1 8.16 1.52.61.12 1.58.68 1.57 1a3.07 3.07 0 0 1-1 1.95 14.93 14.93 0 0 1-2.53 1.82c-5.8 3.69-9.82 9-13.52 14.66a17.42 17.42 0 0 0-1.34 3.2 120.34 120.34 0 0 0 14.56-8.43c4.9-3.18 7.83-2.93 12.2.61a51.76 51.76 0 0 0 9.34 6.53c4.65 2.29 6.64 5.63 6.65 10.7a5 5 0 0 0 2.37 3.42c2.06 1.21 4.54 1.7 6.69 2.8 3.4 1.73 3.49 5 .19 6.92a24.14 24.14 0 0 1-4.89 1.69c-4.8 1.52-8.66 4.22-9.63 9.42-1 5.5.44 10.12 6.12 12.54.43.18.7.76 1.17 1.3-3.06 1.64-5.71 3.67-8.7 4.52a55.66 55.66 0 0 1-11.95 1.72c-4.82.27-9.67-.07-14.49.13-1.33.06-2.61 1.14-3.91 1.74 1.23.81 2.38 2.11 3.7 2.33a41.93 41.93 0 0 0 6.91 0c6.92.05 13.88.55 20.76 0 6.11-.49 12.13-2.14 18.19-3.27l-.06 1.15c-4.19 1.1-8.33 2.74-12.6 3.16-6.15.6-12.39.2-18.59.49a76.22 76.22 0 0 0-8.44 1.31 16.09 16.09 0 0 0-3-1.41l-20.3-4.75c-1.3-.33-2.41-1.45-3.61-2.2l3.25-2.57c.36-.28 1.05-.31 1.19-.63.6-1.34 1.54-2.79 1.43-4.11-.17-1.89-1.77-2-3.44-1.45a17.24 17.24 0 0 1-3.06.45h-3c-7.37-1.21-11.41 4.49-16.3 8.13-3.37 2.5-6.17 5.8-9.1 8.87a34.15 34.15 0 0 0-5 6.12c-1.15 1.95-1.16 4.07 2.14 4.23 1.83.09 3.64.43 5.46.65l11.16 8.83a10 10 0 0 0 2.44 1l.34.38c.47 1.73.52 3.75 1.48 5.15 7.55 11.07 11.17 23.71 14.52 36.41 1.19 4.51 1.32 9.29 1.94 13.95a17.9 17.9 0 0 1-1.18-2.8c-1.4-5.83-2.39-11.77-4.13-17.49-2.7-8.87-4.34-18.31-11.43-25.19-.92-.89-2.41-1.19-3.64-1.76a17.16 17.16 0 0 0-1.33 4c-.16 2.27.31 4.58.12 6.85-.29 3.41-1.55 6.84-1.26 10.16.36 4.2 1.85 8.31 2.89 12.45l6.4 25.87c1.33 6-.79 10.86-6.52 13.72a11.11 11.11 0 0 1-11.78-.59 6.51 6.51 0 0 0-4-.84c-4.51.47-7.51-1.54-9.7-5.25-.7-1.19-1.57-2.29-2.31-3.46-1.15-1.81-2.35-2.15-4.26-.81-7.14 5-7.06 5.16-14.55-1.79-1.15-1.06-1.74-2.7-2.65-4-2.78-4.1-5.38-8.34-8.42-12.24a70.05 70.05 0 0 1-11.78-23.68c-1.6-5.43-1.32-5.51-6.24-4.05l1.9-6.23a12.59 12.59 0 0 0 .85-3.25c-.06-4.27 1.79-6.77 5.66-8.93 5-2.78 10-6.1 13.75-10.32 5.12-5.76 10.13-11.15 17.82-13.24a5.27 5.27 0 0 0 2.22-.93c2.89-2.74 6.49-5.15 8.3-8.5a20.11 20.11 0 0 1 6.54-7.25c1.39-1 2.67-2.12 4-3.19 1.64-2.31.47-4.29-.73-6.27 1.11 1.33 2.75 2.49 3.22 4 1 3.39-.55 6.16-3.38 8-4.33 2.85-7.26 6.88-10.57 10.75a38.48 38.48 0 0 1-13.29 10c-4.71 2.08-9.3 3.61-12.51 8-1.48 2-3.73 3.43-5.51 5.24-1.19 1.22-2.16 2.65-3.24 4a34.73 34.73 0 0 1-3.47 4.14c-2.78 2.5-2.72 9.84.38 10.52a175.17 175.17 0 0 0 18.05 3c3.88.42 7.88-.26 11.17 2.66.53.47 1.52.41 2.3.59a61.43 61.43 0 0 0 7.51 1.65c2.28.24 5.41.72 6.72-.48 1.09-1 .09-4.29 0-6.56 0-.31-.3-.62-.5-.9l-14.37-20.31c-1.43-2-1.66-3.17.89-4.18 3.71-1.46 3.78-1.71 1.14-4.92-1.6-2-1.63-3.2.71-4.69 5.5-3.51 11.24-6.82 16.07-11.13a19.58 19.58 0 0 0 6.13-10.48c1-6.07.38-12.43.21-18.66a7.47 7.47 0 0 0-1.69-4c-1.35-1.74-2.82-1.88-3.88.52-1.72 3.88-3.85 7.63-3.43 12.1l-1.39.56c-3.26-.72-6.54-1.31-9.76-2.17-4.71-1.26-5.42-.7-6.36 4.14a15.61 15.61 0 0 1-2.75 5.7c-2.65 3.71-5.51 7.28-8.39 10.83-1.87 2.31-3.85 4.55-5.91 6.71s-4.35 3.89-7 .29c-1.13 7.23-1.13 7.23-5.06 7l-1.32-.26c-2.38-1.6-4.62-3.53-7.21-4.65a5.22 5.22 0 0 0-4.61.87c-4.6 4.32-8.94 8.94-13.29 13.52-1.94 2-3.88 3.94-6.82 2-2.18-1.42-2.09-5.77 0-8.31a22.88 22.88 0 0 0 .19 3.11c.52 2.6 2.37 3.31 4.22 1.45 5.27-5.27 10-10.91 11.49-18.57.53-2.82-.94-4.5-3.79-4.27l-7.22.57c-2.41.18-3.29 1.17-2.84 3.64a30.78 30.78 0 0 1 .56 7.22c-.06 1.11-1.29 2.16-2 3.23.09-3.55.5-7.18-2.41-10.19a14.94 14.94 0 0 0-1.72 5.86 29.66 29.66 0 0 1-4.14 13.76c-1.46 2.59-3.28 5-4.94 7.48l-2.2 2.57-.63.6-1.27.86-9.89-1.51c-2.1-.28-2.94-1.47-3.07-3.47-.18-2.75-.47-5.49-.71-8.23l.89-3.1 1.05-4.53zm126.17-120.88h0c-4.05.3-6.17 3.18-8.25 6.15-2.19 3.13-1.94 4.18 1.72 5.52 2.84 1 5.6 2 7.15 5 .48.93 1.78 1.42 2.71 2.11l.81-3.43c-.31-3.18-.73-6.36-.9-9.56-.11-2.07.12-4.17.21-6.25.81-2.89-1.39-3.1-3.22-3.64.81-.64 1.95-1.12 2.34-1.95s.32-2.62-.13-2.84c-4-2-8.15-4.74-12.74-3.24-5.61 1.82-.35 5.83-1 8.82-.43 1.91 1.25 3.12 3.47 2.27 1.29-.49 2.56-1.05 3.85-1.55s2.36-.85 3.54-1.27zm-1.93 86.06c1.16-.87 2.75-1.49 3.39-2.64 1.66-2.95 2.9-6.14 4.31-9.24 1.18-.8 2.87-1.33 3.44-2.44 1.86-3.63 2.79-7.83 5-11.14 2.51-3.67 3.3-6.78.53-10.41 2.37 1.4 5.07 2.24 6.78-.42 1.81-2.81 5.62-5.51 3.3-9.44-1.75-3-3.2-5.74-3.41-9.23-.06-.92-1.41-1.76-2.18-2.64a21.69 21.69 0 0 0-1.72 3c-.6 1.56-1 3.2-1.45 4.8l-.57-1.39 1.44-10c.12-1 .64-2.22.25-3a8.32 8.32 0 0 0-2.8-2.66c-.3-.2-1.68.47-1.66.67a14.64 14.64 0 0 0 .74 2.93c.16.54.36 1.08.55 1.61l-1 1.27-1.3 1.14-1.94 1.1a33.93 33.93 0 0 0-5.51 2.8 3.35 3.35 0 0 0-.81 3.13 43.88 43.88 0 0 1 4.31 18.37c.08 2.67.13 5.45 4.54 5.27-.82 1.22-1.63 2.28-2.57 2.4-2.35.31-2.69 1.3-1.84 3.29a12.42 12.42 0 0 1 .5 2.69L445 390a34.86 34.86 0 0 0-4.1.32c-1.94.37-3 1.45-2.73 3.67.45 3.75.64 7.54 1.12 11.3a13.9 13.9 0 0 0 1.3 3.35zm-13.52-24.07l-7.66-2.14a7.64 7.64 0 0 0-6.1 7.06 49.92 49.92 0 0 1-1.25 5c-1.65 7-1.3 7.74 5.1 10.8 4.06 1.95 4.57 1.68 5.76-2.57l4.8-16.72c.11-.37-.42-.94-.65-1.43zm35.24 20.37c-.5 5.09 1.76 9.19 4.86 12.88 2.21 2.63 6.86 3.49 8.29 1.35a78.25 78.25 0 0 0 6.91-12.64c1.38-3.24-2.46-4.88-3.41-7.42-1.89-5-6-5.29-10.15-5.34-3.91 0-5.62 1.78-6 5.66l-.5 5.51zm-53.13-9l-2.91-4.54c-1.29 1.38-2.64 2.72-3.84 4.17-.42.49-.41 1.31-.7 1.94-1.79 3.85-4 7.56-5.26 11.58-.89 2.85-1.94 5-4.59 6.48-5.25 2.87-7.16 8.13-8.36 13.4-.41 1.78 1.67 4.13 2.62 6.22 1.52-.94 3.62-1.53 4.47-2.89 4.54-7.22 9-14.5 13-22 2.28-4.3 3.6-9.18 5.57-14.3zM328 439.33h-1c-5.28.11-5.72.43-7.4 5.38-.18.54-.39 1.08-.61 1.61-2 4.87-1.42 6.7 3.38 8.89a26.13 26.13 0 0 0 6.57 2 4.06 4.06 0 0 0 3.26-1.18 27.68 27.68 0 0 0 3.94-6.46c3.28-8.22 1.56-10.57-8.14-10.24zm122-114.11l-1 .55c0 4.49-.12 9 .05 13.48.1 2.55 2.14 3.58 4.06 2a7.41 7.41 0 0 0 2.54-4.53c.35-4.94-3.65-7.72-5.65-11.5z" class="F"/><path d="M483.59 431a41.93 41.93 0 0 1-6.91 0c-1.32-.22-2.47-1.52-3.7-2.33 1.3-.6 2.58-1.68 3.91-1.74 4.82-.2 9.67.14 14.49-.13a55.66 55.66 0 0 0 11.95-1.72c3-.85 5.64-2.88 8.7-4.52-.47-.54-.74-1.12-1.17-1.3-5.68-2.42-7.15-7-6.12-12.54 1-5.2 4.83-7.9 9.63-9.42a24.14 24.14 0 0 0 4.89-1.69c3.3-1.91 3.21-5.19-.19-6.92-2.15-1.1-4.63-1.59-6.69-2.8a5 5 0 0 1-2.37-3.42c0-5.07-2-8.41-6.65-10.7a51.76 51.76 0 0 1-9.34-6.53c-4.37-3.54-7.3-3.79-12.2-.61a120.34 120.34 0 0 1-14.56 8.43 17.42 17.42 0 0 1 1.34-3.2c3.7-5.62 7.72-11 13.52-14.66a14.93 14.93 0 0 0 2.53-1.82 3.07 3.07 0 0 0 1-1.95c0-.35-1-.91-1.57-1-2.71-.56-5.46-.93-8.16-1.52a10.52 10.52 0 0 1-4.13-1.48c-3.07-2.34-6.51-4.53-8.71-7.57-2.35-3.26-3.6-7.37-5-11.24-.26-.73 1-2.23 1.83-3.07 2.28-2.26 4-4.62 2.23-7.92-1.16-2.13-6.33-3.19-9.24-2-1.37.57-2.68 1.3-4 1.94-.27-.31-.54-.49-.52-.64.67-5.51.75-5.83-4.66-7.06-3.86-.88-8-.79-11.95-1.12 4.47-1.74 8.84-4.15 13.84-1.44.34.18 2.31-1.4 2.39-2.26a48.24 48.24 0 0 0-.31-7.19c.63 3.39 3.13 4.7 6.11 5.5-.34 2.13-.78 4.25-1 6.4s1.2 2.92 3.2 3.24c3.73.62 7.41 1.54 11.13 2.21a15.47 15.47 0 0 0 3.25-.1c3.71 4.34 4 4.38 8.67 1a18 18 0 0 0 2.25-2.11q3.51-3.57 7-7.17c4.13-4.29 8.4-8.48 12.28-13 .84-1 .3-3.14.39-4.76-1.4-.05-2.88-.43-4.18-.11-5.62 1.38-10.74 5.12-17 3.47-.6-.16-1.35.25-2 .4a5.43 5.43 0 0 1-6.61-6.68 15.21 15.21 0 0 1 2.4-4.92 53.22 53.22 0 0 1 5.27-6.42c6.18-6.4 12.33-12.85 20.76-16.44a15.41 15.41 0 0 0 3-2.27l-.45-1.22a19.1 19.1 0 0 0-4.34.67l-27.89 11.37c-2.7 1.11-5.56 2.61-8.12.24s-4.54-2.15-6.4.78c-.33.52-1.11.77-1.68 1.14 1.08-3.77 2-7.59 3.32-11.28.66-1.86 1.62-4.23 3.15-5 3.54-1.87 7.58-2.73 11.27-4.34 7.75-3.37 15-2.76 22 1.9a8 8 0 0 0 5.51 1.16c5.5-1.16 10.89-2.8 16.3-4.31 2.81-.78 5.58-1.67 8.37-2.51l.61 1a24.14 24.14 0 0 1-2.66 2.6c-2.14 1.57-4.5 2.87-6.56 4.53a85.58 85.58 0 0 0-7.68 6.94 3.82 3.82 0 0 0-.67 3.16 2.9 2.9 0 0 0 2.51 1.21c4.71-1 9.4-2 14-3.34 1.09-.3 2-1.54 2.82-2.46 1.95-2.13 3.75-4.39 5.75-6.47.45-.47 1.42-.43 2.15-.63.18.73.65 1.55.46 2.16a17.33 17.33 0 0 1-2 4.39c-3.8 5.64-7.94 11.06-11.47 16.85-1.34 2.19-1 5.37-2.14 7.74s-3.63 4-4.86 6.34c-2.94 5.59-5.13 11.61-10.31 15.72a6.49 6.49 0 0 0-2.15 2.22c-.47 1.15-1 2.93-.4 3.69a3.81 3.81 0 0 0 3.59.92c2.78-1.33 5.9-2.66 7.82-4.91 8.9-10.42 18-20.79 22.75-34 2.23-6.16 4.75-12.26 6.27-18.59.69-2.85-.08-6.5-1.34-9.26-2.62-5.72-7.82-9.33-12.8-12.85a16.12 16.12 0 0 0-7.59-3.11c-6.77-.53-13.6-.31-20.4-.51a32.8 32.8 0 0 1-5-.86l.27-.27c7.95 0 15.93-.41 23.83.19 10.3.77 17.45 7.69 23.76 14.85 2 2.29 2.09 7.43 1.32 10.88C539 273.88 530 292.69 514 307.7c-2.43 2.28-4.77 4.65-7.14 7a36.85 36.85 0 0 0-5.26 1.48c-3.9 1.72-7.8 3.49-11.52 5.56-4.21 2.34-8.21 5-12.33 7.56-2.16 1.33-2.51 3.05-.85 4.87 1.93 2.11 3.45.75 4.84-.91 4-4.83 9.1-8 15.44-8.31 5.73-.28 11.49 0 17.24.09h5.83l.32-1.55-9.4-3.49c4.54-.42 8.51.69 11.56 4.29 2.74 4.07 2.77 4.86-.77 8.13a67.22 67.22 0 0 1-7.29 5.75c-4.38 3-6.9 7.88-6.39 12l4.94-4.55v.34c-4.63 6.32-4.66 6.49 2.47 10.05 12 6 20.12 16.08 27.1 27 4.25 6.66 7.3 14.1 11 21.16 1.42 2.74 1.28 4.8-1.45 6.84-4.59 3.42-8.57 7.76-13.43 10.68-5.07 3.05-10.87 4.88-16.35 7.25l.06-1.16c8-3.55 16.34-6.6 22.64-13.36a9.27 9.27 0 0 0-3.77.32c-4.8 1.62-9.53 3.5-14.38 5-5.38 1.64-11.2 2.25-16.24 4.59-6.31 2.92-12.82 3.48-19.46 4.29-2.72.29-5.25 1.57-7.82 2.38zm7.23-88.66l8.62-.66a8.29 8.29 0 0 0 2.6-.9c3-1.44 3.22-2.61.72-4.66-1.83-1.51-2.57-3.18-1.78-5.45 1-2.93-.57-3.67-3.11-3.79-6.93-.33-14.88 4.71-17.72 11.21-.75 1.71-.39 2.73 1.41 3 3.44.56 6.83.96 9.26 1.28zm-196.24 88.47c-1.23 5.95-1 6.18 4.78 8.05 1.26.41 2.95 1.59 3.13 2.64s-1 2.62-2 3.65c-1.3 1.43-2.93 2.57-4.15 4.19 4.65-.18 7.23-5.83 12.38-4.09-2.32 2.05-4.35 4.68-7 6-3.22 1.57-3.87 3.79-3.74 6.82v2.77c-5-3.51-6.34-9.05-8.17-14.35-2.24-6.48-5.38-12.14-12.76-13.85l-1.35-3.34-.67-.53-.14-.07-2.17-.09a18.21 18.21 0 0 0-12.32 2.93l-.78.41-1.43.27-3.3.52-2.29.76c-16.28 3.78-32.8 5.12-49.47 5.8a181.72 181.72 0 0 1-41.44-2.58c-4.81-.91-9.46-3-14-5-1.38-.61-3-2.82-2.93-4.19.44-7.25.69-14.62 4.27-21.25a29.83 29.83 0 0 1 3.08-4.58c6.82-8.44 13.23-17.32 22.08-23.81 5.29-3.88 11.07-7.07 16.56-10.68a16.71 16.71 0 0 0 2.68-2.87 15.6 15.6 0 0 0-2.42-2.45c-1.71-1.1-3.57-2-5.36-2.92a49.13 49.13 0 0 0 5.1.68 6.71 6.71 0 0 0 2.35-.88c-.4-.61-.68-1.58-1.23-1.77-7.28-2.51-10.88-9.44-16.65-13.75a26 26 0 0 1-4.12-4.2c-2.27-2.72-2.83-7.45-.73-8.85a9 9 0 0 0 4.48-6.92c.09-.84 1.23-1.56 1.86-2.37a7.6 7.6 0 0 0 1.52-2.21c1.63-5.47 2.82-6.24 8.55-5.67l20.32 1.91a17.23 17.23 0 0 1 3.51 1.12c-6.39.35-8.51 4.8-9.88 10.11a6.35 6.35 0 0 1-1.89 2.78c-3.46 3.19-7.12 6.18-10.51 9.45-4.37 4.23-4 8.77.66 12.75 1.22 1 2.42 2.12 3.6 3.21 4.62 4.29 9.32 8.27 16.36 7.32a44.17 44.17 0 0 1 8-.07 16.46 16.46 0 0 1 5.73.88c1 .43 2.31 2.7 2 3.28-2 3.5-2.84 8-7.32 9.68a11.5 11.5 0 0 0-2.26 1.55l-8.85 6.26c-1.88 1.29-4.45 2.09-5.58 3.84-3.38 5.21-7.15 9.76-12.87 12.54a14 14 0 0 0-4.13 3.63c-1.37 1.56-.79 2.8 1.22 3.2a9.83 9.83 0 0 0 3.1.17c6.17-.9 11.21 2.4 16.41 4.66 1.84.81 3.47 3.48 4 5.59a11 11 0 0 1-1.77 9.88c-1.81 2.33-1.19 3.93 1.45 4.11a142 142 0 0 0 15.56.48 171.39 171.39 0 0 0 17.93-1.78c3.17-.47 6.82-.4 8.88-3.75l2-.09c4.27 3.86-3 3.39-1.94 6.9 3.42-2.45 6.69-4.61 9.76-7 2.51-2 4.72-4.36 7.2-6.39 2.71-2.23 5.59-4.25 8.39-6.37L290 425.8c-.38-3.55-.9-6.89-1-10.24-.1-2.63-1.17-3.65-3.76-3.77a27.33 27.33 0 0 1-5.11-1.17c4.74-.48 9.55-.81 12.12-5.81l2.35-2 .32 3.31-.48 1.18-1.09 1.49v.05c-.59 1.67-1.76 3.38-1.66 5 .26 4.42-1.33 9.22 2.14 13.13zm-99.23-56.13c-.71-.77-1.15-1.68-1.74-1.79a16.32 16.32 0 0 0-5.32-.45c-7.46 1.1-12.23 6.63-17.46 11.23a65.66 65.66 0 0 0-8.05 8.92q-6.81 8.66-13.18 17.66c-.57.79-.33 2.52.14 3.54a2.78 2.78 0 0 0 2.63.79c3.26-1.66 6.89-3.08 9.43-5.57 6-5.83 11.28-12.34 17.09-18.34 4.56-4.7 9.49-9 14.24-13.56.72-.69 1.35-1.48 2.22-2.43zM365.66 480c4.92-1.46 4.64-1.38 6.24 4.05a70.05 70.05 0 0 0 11.78 23.68c3 3.9 5.64 8.14 8.42 12.24.91 1.33 1.5 3 2.65 4 7.49 7 7.41 6.77 14.55 1.79 1.91-1.34 3.11-1 4.26.81.74 1.17 1.61 2.27 2.31 3.46 2.19 3.71 5.19 5.72 9.7 5.25a6.51 6.51 0 0 1 4 .84 11.11 11.11 0 0 0 11.78.59c5.73-2.86 7.85-7.68 6.52-13.72-1.92-8.67-4.26-17.25-6.4-25.87-1-4.14-2.53-8.25-2.89-12.45-.29-3.32 1-6.75 1.26-10.16.19-2.27-.28-4.58-.12-6.85a17.16 17.16 0 0 1 1.33-4c1.23.57 2.72.87 3.64 1.76 7.09 6.88 8.73 16.32 11.43 25.19 1.74 5.72 2.73 11.66 4.13 17.49a17.9 17.9 0 0 0 1.18 2.8l.26 2.13c1 6.36 2.26 12.69 2.81 19.09.37 4.42-.27 8.92-.46 13.38l-.37 1.46-.66 2.66c-.11.31-.23.62-.35.93a14.67 14.67 0 0 0-1.63 3c-2.36 8.38-7.19 15.44-12 22.53h-1.66l-1.81-.52-1.43-.45c-2.36-.79-4.76-1.49-7.08-2.4l-16.69-6.75c4 1.17 7.92 2.47 11.94 3.47a26.81 26.81 0 0 0 5.25.31c-.27-1.53-.62-2.15-1.15-2.51-11.24-7.64-20.25-17.78-30.22-26.86-2.8-2.56-5-5.6-9.62-5.93a16.91 16.91 0 0 1-9.5-4.51 50.21 50.21 0 0 1-8.72-11.49c-2.82-4.87-4.89-10.17-7.26-15.3l-3.56-7.83c-3.5 2.74-6.73 5.21-5.92 9.76a94.82 94.82 0 0 0 3.44 13.38c1.79 5.35 4.05 10.54 6.11 15.8l.28 1.14c-.84-.68-2.06-1.19-2.44-2.07-2.65-6-5.4-12-7.6-18.2-4.39-12.32-.84-23.84 4.27-35.12zm90.45 20.88L455 501a14.56 14.56 0 0 0-.61 1.87c-.79 3.95-1.75 7.88-2.22 11.87a25.26 25.26 0 0 0 .26 8.05c1.69 7.95 4.68 15.64 3.06 24.1-.56 3 .36 6.19.6 9.3h1a16.34 16.34 0 0 0 1.22-2.71c1.09-4.6 1.93-9.27 3.17-13.82a28.3 28.3 0 0 0 .17-15.33c-1.53-5.61-2.22-11.44-3.44-17.14a56.49 56.49 0 0 0-2.1-6.3zm-8.42 62.89l-3.86-4.21-3.57 3.63c1.3 1.22 2.46 2.69 4 3.5.4.23 1.87-1.56 3.43-2.91z" class="E"/><path d="M275.69 429.29l1.35 3.34c7.38 1.71 10.52 7.37 12.76 13.85 1.83 5.3 3.2 10.84 8.17 14.35l4.77 4.17 2.93 2.5 8.73 1.82c-10.59-.76-19.46 5.24-29.3 7.48-11.4 2.58-22.62 6-34.48 5.42a76.13 76.13 0 0 1-25.17-5.89 38.59 38.59 0 0 1 4.4.78c9.58 2.79 19.27 5.06 29.32 3.73 6.43-.85 12.79-2.29 19.18-3.46l-.22-1.18c-2.78.52-5.58.94-8.33 1.58-9.35 2.2-18.72 2.77-28.07.14a31.51 31.51 0 0 1-5.25-2.5 54.58 54.58 0 0 0 5.24-5.94c.31-.46-.79-2.68-1.6-2.92-2.35-.71-4.93-.64-7.31-1.28-1-.27-1.76-1.54-2.63-2.36l.16-.13.47-1.34c-.06-.16-.13-.33-.2-.49 5.74-13.07 15.49-21.18 29.55-24 3.62-.72 7.21-1.56 10.8-2.41 2.74-.68 4.46-2.33 4.73-5.26z" class="F"/><path d="M455.3 417.21a17.24 17.24 0 0 0 3.06-.45c1.67-.56 3.27-.44 3.44 1.45.11 1.32-.83 2.77-1.43 4.11-.14.32-.83.35-1.19.63l-3.25 2.57c1.2.75 2.31 1.87 3.61 2.2l20.3 4.75a16.09 16.09 0 0 1 3 1.41c-.53 2.21.23 5.05-2.92 6l-6.92 5.48-.86.43-.14.08-2.59 1.38-.11.08-2 .85-4.3-.18c.47-2 1.63-4 1.05-4.87-3.26-4.83-6.55-9.77-12.15-12.35l7.21-.41c-2.26-1-4.84-1.89-7-1.25-6.73 2-13.67 3.52-19.35 8.35-2.7 2.3-4.37 4.24-3.26 7.77-1.82-.22-3.63-.56-5.46-.65-3.3-.16-3.29-2.28-2.14-4.23a34.15 34.15 0 0 1 5-6.12c2.93-3.07 5.73-6.37 9.1-8.87 4.89-3.64 8.93-9.34 16.3-8.13l-12.28 7.52a23.48 23.48 0 0 0-8.75 9.28c1.84-.73 2.78-1 3.62-1.45l17.19-9.5c2.23-1.3 3.92-2.95 3.22-5.88z" class="H"/><path d="M451.9 430.73c5.6 2.58 8.89 7.52 12.15 12.35.58.87-.58 2.91-1.05 4.87l4.29.23-15.25 4.81c-2.84.87-5.71 1.62-8.57 2.43l-.34-.38 1.42-2.13c-1.07-.74-2-1.27-2.75-1.94-2.85-2.39-3.31-7-1.06-9.57 2.47-2.85 4.77-5.86 7.36-8.6.9-1 2.51-1.4 3.8-2.07z" class="F"/><path d="M511.17,320l9.41,3.51-.32,1.55h-5.83c-5.75,0-11.51-.37-17.24-.09-6.34.31-11.41,3.48-15.44,8.31-1.39,1.66-2.91,3-4.84.91-1.66-1.82-1.31-3.54.85-4.87,4.12-2.51,8.12-5.22,12.33-7.56,3.72-2.07,7.62-3.84,11.52-5.56a36.85,36.85,0,0,1,5.26-1.48Z" class="H"/><path d="M371.45 535.42l-.28-1.14c5.13 5.09 9.93 10.59 15.46 15.2 9.85 8.19 22.18 11.63 33.75 16.51l16.69 6.75c2.32.91 4.72 1.61 7.08 2.4-3.73-.62-7.71-.61-11.14-2-13.5-5.4-27-10.93-40.13-17.08-4.79-2.23-8.79-6.23-13-9.59-3.05-2.41-5.9-5.08-8.84-7.64l.41-3.41z" class="F"/><path d="M230.18 462.92c.87.82 1.62 2.09 2.63 2.36 2.38.64 5 .57 7.31 1.28.81.24 1.91 2.46 1.6 2.92a54.58 54.58 0 0 1-5.24 5.94 31.51 31.51 0 0 0 5.25 2.5c9.35 2.63 18.72 2.06 28.07-.14 2.75-.64 5.55-1.06 8.33-1.58l.22 1.18c-6.39 1.17-12.75 2.61-19.18 3.46-10.05 1.33-19.74-.94-29.32-3.73a38.59 38.59 0 0 0-4.4-.78l-1.38-1.12 1.75-2.17c1.67 1.86 3.46 3.36 6.34 2.76-1-2-2.63-3.75-2.24-4.76 1-2.53 0-4.22-1.23-6.05a.91.91 0 0 0-.26-.29l1.18-2a1.46 1.46 0 0 0 .57.22zM154.66 326.2c0-3.46-.18-6.93-.11-10.39.06-2.8 1.3-4.83 4.29-5.47l12.47-2.79 3.64-.14c-2.12 1-4.16 2.52-6.37 2.79-4.89.6-6.94 5.06-10.69 7.12-.29.16-.38.84-.4 1.29-.32 5.92-.47 11.76 3.31 16.95 2.3 3.14 4.21 6.57 6.29 9.88-1.73-1.8-3.84-3.37-5.1-5.45-2.68-4.46-4.91-9.18-7.33-13.79z" class="E"/><path d="M513.22 345.6l-4.94 4.55c-.51-4.14 2-9 6.39-12a67.22 67.22 0 0 0 7.29-5.75c3.54-3.27 3.51-4.06.77-8.13l.67.34 1.88 1.72c2.69 3.11 2.66 3.35-1 6.9h-.2v.2l-.63.63h-.22v.21l-.65 1h0l-.74.75-.52.59-.68.89-2.89 3.5-1.15 1.25-1.7 1.58z" class="G"/><path d="M154.66 326.2c2.42 4.61 4.65 9.33 7.33 13.79 1.26 2.08 3.37 3.65 5.1 5.45A54.64 54.64 0 0 0 185.66 359c1.79 1 3.65 1.82 5.36 2.92a15.6 15.6 0 0 1 2.42 2.45c-5.51-2.66-11.51-4.62-16.41-8.13-7.77-5.56-15.14-11.91-19.7-20.6-1.49-2.83-1.82-6.28-2.67-9.44zm294.39 249.88c4.77-7.09 9.6-14.15 12-22.53a14.67 14.67 0 0 1 1.63-3c-.59 2.56-.79 5.3-1.86 7.64a162.71 162.71 0 0 1-7.67 14.7c-.84 1.41-2.72 2.11-4.1 3.19zM175 307.41l-3.64.14c-.16-2.93-2.54-3.47-4.65-4.37-3.63-1.57-7.62-2.7-9.32-6.89l3.85 1.53c1.66 1 3.38 1.88 4.95 3 2.94 2.12 5.81 4.38 8.81 6.59zm289 238.12c.19-4.46.83-9 .46-13.38-.55-6.4-1.84-12.73-2.81-19.09.63.81 1.67 1.55 1.81 2.43 1.54 9.98 3.62 19.97.54 30.04z" class="F"/><path d="M228.69 465c1.27 1.83 2.18 3.52 1.23 6.05-.39 1 1.25 2.79 2.24 4.76-2.88.6-4.67-.9-6.34-2.76q1-2.93 1.93-5.84c0-.31.05-.62.08-.93s.35-.85.52-1.27h.17z" class="G"/><path d="M260.39 431.53a18.21 18.21 0 0 1 12.32-2.93zM473 445.36l6.93-5.52zM227.75 467.2q-1 2.91-1.93 5.84l-1.75 2.17 3.42-9z" class="F"/><path d="M517.75 341l2.87-3.43zm-2.85 2.81l1.7-1.58zm10.38-17.5l-1.88-1.72z" class="E"/><path d="M463 549.65l.66-2.66zM252.59 433.49l2.29-.76zm192.99 142.1l1.81.52z" class="F"/><path d="M521.3,336.66l.52-.59Z" class="E"/><path d="M258.18,432.21l1.43-.27Z" class="F"/><path d="M227.75 467.2l-.26-1a.26.26 0 0 1 .34 0l-.08 1zm296.36-133.76l-.01-.2.2-.03.05.23h-.24z" class="E"/><path d="M230.18 462.92a1.46 1.46 0 0 1-.57-.18l.51-1.22.25.24v1z" class="F"/><path d="M523.25 334.32l.01-.21.22-.04.03.27-.26-.02z" class="E"/><path d="M230.12 461.52l.49-.56.21.49-.45.31zM472 445.87l.14-.08zM228.69 465l-.17.05h-.17v-.18l.13-.12a.91.91 0 0 1 .21.25z" class="F"/><path d="M522.56 335.32h0z" class="E"/><path d="M274.88 428.69l.14.07zm194.42 18.64l.11-.08z" class="F"/><path d="M344.76 447.05c-2.09 2.54-2.18 6.89 0 8.31 2.94 1.93 4.88 0 6.82-2 4.35-4.58 8.69-9.2 13.29-13.52a5.22 5.22 0 0 1 4.61-.87c2.59 1.12 4.83 3.05 7.21 4.65-3.57 1.17-7.07 2.6-10.71 3.45a9.6 9.6 0 0 0-7.59 7.18l20.95-8.25-1.34-2.13c3.93.2 3.93.2 5.06-7 2.62 3.6 4.89 1.89 7-.29s4-4.4 5.91-6.71c2.88-3.55 5.74-7.12 8.39-10.83a15.61 15.61 0 0 0 2.75-5.7c.94-4.84 1.65-5.4 6.36-4.14 3.22.86 6.5 1.45 9.76 2.17-2.84 1.15-6 1.83-8.45 3.55a143.45 143.45 0 0 0-13.08 10.68c-1.15 1-1.49 3-2.2 4.5l1.05.81c2.56-1.81 5.06-3.73 7.72-5.38 1.18-.73 3.09-1.69 4-1.22 2.87 1.49 4.1-.16 5.28-2.09 2.14-3.52 5.3-4.53 9.17-4.05-1.34 1.07-2.62 2.2-4 3.19a20.11 20.11 0 0 0-6.54 7.25c-1.81 3.35-5.41 5.76-8.3 8.5a5.27 5.27 0 0 1-2.22.93c-7.69 2.09-12.7 7.48-17.82 13.24-3.74 4.22-8.77 7.54-13.75 10.32-3.87 2.16-5.72 4.66-5.66 8.93a12.59 12.59 0 0 1-.85 3.25l-.52-6.19c-.2-4-1-4.76-4.91-5.18a40.93 40.93 0 0 1-8.06-1.67c-4.22-1.37-6.63-.11-7.19 4.44-.35 2.84-1.29 4.84-4.44 5.21.68-3.39-.71-5.57-4.2-6a7.49 7.49 0 0 1-6.07-4c1.66-2.49 3.48-4.89 4.94-7.48a29.66 29.66 0 0 0 4.14-13.76 14.94 14.94 0 0 1 1.72-5.86c2.91 3 2.5 6.64 2.41 10.19l-.64 3.57zm-30.36 4.11l.71 8.23c.13 2 1 3.19 3.07 3.47 3.31.44 6.59 1 9.89 1.51-3.54 1.5-7 3.14-10.67 4.38-.72.25-2.81-1-2.84-1.68-.25-5.29-.15-10.61-.16-15.91zm1.34-13.16l5.54-6.1c2.9-2.94 6-3.31 9.18-.85l-12.23 7.5zm-10.07 29.5l-2.93-2.5c2.07-.44 4.45-1.26 2.93 2.5zm10.68-24.04l-1.06 4.6 1.06-4.6zm1.47-3.53l-.77 1.46zm11.52 23.58l.63-.6z" class="E"/><path d="M250.42 425.86c-2.06 3.35-5.71 3.28-8.88 3.75a171.39 171.39 0 0 1-17.93 1.78 142 142 0 0 1-15.56-.48c-2.64-.18-3.26-1.78-1.45-4.11a11 11 0 0 0 1.77-9.88c-.54-2.11-2.17-4.78-4-5.59-5.2-2.26-10.24-5.56-16.41-4.66a9.83 9.83 0 0 1-3.1-.17c-2-.4-2.59-1.64-1.22-3.2a14 14 0 0 1 4.13-3.63c5.72-2.78 9.49-7.33 12.87-12.54 1.13-1.75 3.7-2.55 5.58-3.84l8.85-6.26a11.5 11.5 0 0 1 2.26-1.55c4.48-1.68 5.3-6.18 7.32-9.68.33-.58-1-2.85-2-3.28a16.46 16.46 0 0 0-5.73-.88 44.17 44.17 0 0 0-8 .07c-7 1-11.74-3-16.36-7.32-1.18-1.09-2.38-2.17-3.6-3.21-4.7-4-5-8.52-.66-12.75 3.39-3.27 7-6.26 10.51-9.45a6.35 6.35 0 0 0 1.89-2.78c1.37-5.31 3.49-9.76 9.88-10.11l8.44 1 11.74 3 .6.29-.47-.42c-.91-1.43-1.49-3.44-2.79-4.2-5.27-3.06-10.8-5.67-16.15-8.61a4.38 4.38 0 0 1-2.09-2.82 4.24 4.24 0 0 0-3.91-4.22c-5.12-.45-7.75-3.88-10.5-7.54C192.09 288 188 284 185 279.25a116.35 116.35 0 0 1-9.28-18.12c-2-5 0-7.53 5.16-8.7a14.5 14.5 0 0 0 4.61-2.16c2.41-1.59 4.69-1.47 7.2-.28a101.61 101.61 0 0 0 9.7 4.23 35 35 0 0 1 14.56 10 119.43 119.43 0 0 1 8.2 11.19c1.32 1.88 2.66 2.16 4.18.4 1.69-2 3.31-1.34 5.23-.31a41.35 41.35 0 0 0 5.42 2c3.42 1.23 6.91 2.33 10.26 3.73 4.33 1.81 8.73 3.25 13.42 2.27 1.17-.25 2.05-1.83 3.06-2.79-1-.86-1.95-2.27-3.1-2.49-10.85-2.07-20.79-6-29.2-13.37-3-2.67-3.19-4.84-.09-7.54 2.58-2.26 2.55-5-.23-8.17-1.9-2.15-4-4.18-3.58-8.21 3.73 1 7.5 1.41 10.66 3A183.34 183.34 0 0 1 259 254.55a90.71 90.71 0 0 1 12.79 10c2.12 2 3.12 5.28 4.56 8a25.14 25.14 0 0 1 1.09 3.11c2.9-2.72 1.93-5.19.74-7.58-1.11-2.23-2.39-4.36-3.6-6.54l.72-.79 4.17 2 1-.41c-.67-2.53-.85-5.34-2.1-7.54-3.1-5.49-3.16-11.24-2.6-17.2a31.45 31.45 0 0 0-.28-4.83 15.61 15.61 0 0 1 4.5-12.25c2.87-3.11 5.75-5.75 9.81-7.27 3.29-1.23 3.75-4.56 3.77-7.62 0-6.76 0-13.53-.31-20.28-.1-2.39-1.08-4.72-1.42-7.11-.13-.89.2-2.44.77-2.7a3.56 3.56 0 0 1 3.12.28 14.38 14.38 0 0 1 3.32 3.91l10 17.36c3.91-3 4.87 0 6.33 2.63a64 64 0 0 0 5.18 7.7c3.91 5 7.93 9.94 12 14.81 3.28 3.92 5.93 3.93 8.93-.21 1.58-2.19 3.27-2.69 5.21-1.2 2.62 2 4.89 4.49 7.46 6.58a37.79 37.79 0 0 0 4.72 2.83c.11-2.06 1-4.5.19-6.11-2.81-5.7-2.93-11.67-2.42-17.65a17.86 17.86 0 0 1 2.91-7.59c.7-1.11 3.2-2.11 4.26-1.67s2 2.7 2.05 4.2c.17 3.68-.38 7.39-.27 11.08.14 4.89 1.07 5.66 6 6 3.69.27 4.67 1.44 4 5.17-1.17 6.4-5.1 11.31-9 16.23-.55.71-1.12 1.4-2.34 2.9 3.25 0 5.93-.63 8.07.18s3.87 3.07 5.78 4.7l-.07.07c-2.25.81-4.23 2.18-3.37 4.76a52.68 52.68 0 0 0 4.14 8.56 5.53 5.53 0 0 0 2.49 2.27c3.91 1.66 7.93 3.08 11.86 4.71a10.25 10.25 0 0 1 2.3 1.91l-8.29 4.38c-2.67-.58-5.33-1.22-8-1.68-.48-.08-1.09.57-1.65.88a16.69 16.69 0 0 0-2.81-1.1 18.07 18.07 0 0 0-3-.13c.22 1.14.08 2.6.74 3.36.94 1.08 2.58 1.51 3.72 2.46 2.32 1.92 5.48 3.5 3.62 7.56-.21.45.65 1.9 1.29 2.14a41.54 41.54 0 0 0 8.24 2.48c1.62.25 3.41-.62 5.13-1-.36-1.47-.42-3.13-1.18-4.36s-2.35-2.16-3.44-3.32-2-2.43-3-3.65l7.18 4.12c.1.1.2.2.29.31a.56.56 0 0 0 .34.33l.34.32 4.64 6a51.1 51.1 0 0 0 3.42 4.16c1.35 1.35 1.39 2.47-.05 3.67l-4.47.21c-5.25.13-10.59.81-15.34-2.36-2-2.4-4.39-3.39-7.54-2.27a14 14 0 0 1-3.69.26l-1-3.45c.6-.53 1.26-1 1.81-1.6 1.36-1.42 2.68-2.88 4-4.32l-6.24-3.83c-.36-.21-.91-.07-1.37-.12-4.16-.39-5.17-2.52-2.62-5.95 1-1.36 2.57-2.3 3.72-3.58a16.12 16.12 0 0 0 1.65-2.83 14.63 14.63 0 0 0-2.57-1.4c-2.31-.72-4.77-1.05-7-2-5.39-2.22-10.54.58-14.13 6.21l.88 1.35 1.36.65 4 2.65.13.11c.32 3.51-1.14 5.44-4.8 5.73-1.61.13-3.35.66-1 2.57l1.64 3a.77.77 0 0 0 .44.41l1.25 2.11.46 2c.92 3.5-.19 4.64-3.71 4.21-2.95-.37-4.2-2.35-5.25-4.69l-.83-11 .51-1.38a25.53 25.53 0 0 0 2.37-3c-1.75-1.83-3.73-3.43-5.79-5.2a5.84 5.84 0 0 0 .95-1.19c.76-1.65 1.44-3.34 2.15-5a23 23 0 0 0-4.59-1.6c-4.44-.57-8.93-.8-13.38-1.29-2.47-.27-4.23.69-3.77 3.12.62 3.32 2 6.5 3 9.73 1 2.91 3.14 3.55 6 3.55 3.42 0 6.85.49 10.28.76a34.42 34.42 0 0 1-4.36.8c-2.75.17-5.54 0-8.29.24-3.13.28-7.14 4.71-6.77 7.75s3.5 2.37 5.53 2.94c4.64 1.3 8.91 2.6 10.48 8.19 1 3.57 1.24 4.48-2.24 4.74s-6.89-.12-10.33-.21q-1.23-2.88-2.44-5.76l-1.37-1.16-.4 2.41-.26 1.48c-6.29 3.4-11.76 7.22-10.67 15.77.32 2.56-.5 5.26-.79 7.89l-6.38-1.56-1.21-.67c-5.43-3.07-5.38-2.94-8.91 2.22a8 8 0 0 1-4.84 3.28c-3.12.38-6.37-.2-9.56-.42-4.22-.31-5.31.85-4.42 4.94 1.15 5.29 2.29 10.52 1.59 16.05-.22 1.74 1.13 3.68 1.76 5.53l-2.63 1.75a10.32 10.32 0 0 1-1.48-2.92c-.47-3.07-2.45-5.37-5.11-5-1.64.21-3.08 3.14-4.29 5.06-.55.87-.19 2.27-.47 3.37a38.33 38.33 0 0 1-1.41 3.78 48.11 48.11 0 0 1 .13-7.11c.42-2.61-.22-3.77-2.94-3.43l2.54-4.52-3.83-3.67c2.54.45 5.07 1 7.62 1.34a21 21 0 0 0 3 0c-.44-.94-.65-2.25-1.39-2.76-1.29-.87-2.95-1.19-4.4-1.86-1.2-.55-2.31-1.28-3.46-1.93a25.07 25.07 0 0 1 4.78.46c3.18.94 4.63.07 5.26-3.32 1.06-5.79 3.21-7.26 9.15-7.15a44.52 44.52 0 0 0 5.54 0c1.32-.15 3.18-.42 3.75-1.31 1-1.56 2-3.87 1.58-5.44-.69-2.4-3-1.3-4.71-.58l-10.52 4.58-.8-4.23c-.32-2.11-1.41-2.85-3.38-1.9a8.89 8.89 0 0 0-2.95 1.77 32.35 32.35 0 0 1-13.09 8.75c-4.17 1.58-7.35 3.52-5.79 8.75l-3.48 2.26c-.27-3.57-2.86-5.57-5.13-7.88-4.81-4.88-10.92-6.65-17.38-7.38-3.26-.36-3.91 1.28-3.72 4.5a31.5 31.5 0 0 1-.92 10.71c-1.1 3.7-3.2 7.16-5.2 10.52-5.43 9.12-1.48 10.62 6.09 11 7.74.39 14.45 1.46 19.86 7.46.73.81 3.25.91 4.3.28 1.24-.74 2-2.57 2.55-4.08.34-1-.14-2.26-.25-3.4 3.47 3.49 3.5 6.28.15 9.66a4.69 4.69 0 0 0-.6 1.23c-8.28 2.94-16.94 4.73-23.81 11.11-4.08 3.8-4.27 9.11-.22 12.8a26.93 26.93 0 0 1 7.53 11.45c1.57 5.17 1.26 10.92 1.75 16.42.41 4.57 2.82 7 7.36 6.81 3.16-.16 6.29-1 9.44-1.55 1.65-.05 3.22-.23 4.78-.44zm45.34-133.43c.68-1.28 1.4-2.54 2-3.86.36-.77 1-1.88.71-2.37a2.82 2.82 0 0 0-2.37-.85c-3.86.56-7.29 2-9.7 5.32-1.38 1.87-2.64 3-5 .73-.87-.85-3.34-.77-4.65-.17-.83.38-1 2.49-1.18 3.86a16 16 0 0 0 .25 3.36c-2.54-2.88-4.81-6.08-7.69-8.57a9.42 9.42 0 0 0-11.71-.92c-3.18 1.26-6.43 2.38-9.51 3.84a4.23 4.23 0 0 0-2.28 2.78c-.2 4.9 0 9.82 0 14.73.12 4 1.13 5.61 4.88 5.64 2.63 0 5.31-1.07 7.87-1.94 2.24-.77 2.79-2.35 1.13-4.29-2.21-2.58-1.93-5.27-.49-8.07.74-1.44 1.42-2.91 2.12-4.36l10.74 3.71a12.89 12.89 0 0 1 4.17 8c.61 4.84 2.86 5.86 7.63 4.5 2.67-.76 5.45-1.16 8-2.13 1.79-.67 4.34-1.77 4.7-3.16.48-1.83-.86-4.13-1.41-6.24 1.17-5.5 1.17-5.5 6.42-5.74l.55-7zM292.9 280c3.71.17 6.21-1.85 8.53-4.46 3.21-3.63 5.14-8.49 10-10.52l1.37.14.75.39c4.12 1.57 5.18.81 4.68-3.55a28.78 28.78 0 0 0-1.27-4.52 27.44 27.44 0 0 0 4.25-1.27 69 69 0 0 0 9.64-5.07c3-2.08 4.39-1.08 6 1.58 2.19 3.66 3.17 3.62 5.67.31 2.18-2.88 7.69-3.9 11.06-2.25.68.34 2.43.07 2.58-.34a36.58 36.58 0 0 0 1.22-5.36c-.89-8.15-6.87-11.47-13.47-14.24-5.23-2.19-8.5 1.09-11.9 4.1-.52.46-1.07.88-1.55 1.38l-16.14 17-25.29 25.35c-1.59 1.65-2.18 4.28-3.57 7.16 1.4-.36 1.81-.35 2-.54l5.44-5.29zm25.83 10.52a35.45 35.45 0 0 1-4.2-3.17c-1.8-1.81-6.34-2.87-9.28-1.82s-2 3.5-2.16 5.58c-.39 5.81 2.91 11.51.52 17.4a1.85 1.85 0 0 0 .85 1.63c.66.17 1.92 0 2.13-.43.84-1.69 2-3.55 1.9-5.31-.13-3.9 1.16-6.64 4.59-8.5a18.88 18.88 0 0 0 3.34-2.43 24.24 24.24 0 0 0 2.31-2.99zm-53.26 20.13c2.95.18 5.09-1.36 5.27-3.78.16-2.15-3.53-5.86-5.91-5.94-2.55-.09-5.74 2.87-5.85 5.42s2.36 4.02 6.49 4.26z" class="F"/><path d="M494.48 227.21a32.8 32.8 0 0 0 5 .86c6.8.2 13.63 0 20.4.51a16.12 16.12 0 0 1 7.59 3.11c5 3.52 10.18 7.13 12.8 12.85 1.26 2.76 2 6.41 1.34 9.26-1.52 6.33-4 12.43-6.27 18.59-4.77 13.2-13.85 23.57-22.75 34-1.92 2.25-5 3.58-7.82 4.91a3.81 3.81 0 0 1-3.59-.92c-.55-.76-.07-2.54.4-3.69a6.49 6.49 0 0 1 2.15-2.22c5.18-4.11 7.37-10.13 10.31-15.72 1.23-2.32 3.7-4 4.86-6.34s.8-5.55 2.14-7.74c3.53-5.79 7.67-11.21 11.47-16.85a17.33 17.33 0 0 0 2-4.39c.19-.61-.28-1.43-.46-2.16-.73.2-1.7.16-2.15.63-2 2.08-3.8 4.34-5.75 6.47-.85.92-1.73 2.16-2.82 2.46-4.62 1.3-9.31 2.39-14 3.34a2.9 2.9 0 0 1-2.51-1.21 3.82 3.82 0 0 1 .67-3.16 85.58 85.58 0 0 1 7.68-6.94c2.06-1.66 4.42-3 6.56-4.53a24.14 24.14 0 0 0 2.66-2.6c-.21-.33-.41-.67-.61-1l-8.37 2.51c-5.41 1.51-10.8 3.15-16.3 4.31a8 8 0 0 1-5.51-1.16c-7.07-4.66-14.29-5.27-22-1.9-3.69 1.61-7.73 2.47-11.27 4.34-1.53.8-2.49 3.17-3.15 5-1.31 3.69-2.24 7.51-3.32 11.28q-2.52 5.94-5.05 11.87c-2.79.48-3.56-.41-3-2.94.61-2.71.84-5.51 1.23-8.28a7.18 7.18 0 0 1 .22-1.69c1.63-4.17 3.07-8.44 5-12.44 3.28-6.68 4.56-13.77 5.08-21.06.11-1.57 0-3.15 0-4.72l1.36-.06.62 13.83a39 39 0 0 0 .86 4.74c1.48-.72 3.17-1.19 4.41-2.21 3.35-2.76 6-5.84 6-10.74 0-3.39 2.19-6.84 1.89-10.13-.49-5.28.95-10.84-1.9-15.89-1.1-1.94-2.28-3.13-4.6-2.84s-3.82-.93-4.09-3.2c-.69-5.77-1.05-11.37 2.13-16.84 1.59-2.74 1.81-6.36 2.32-9.63 1-6.11 1.68-12.26 2.63-19.41l-3.2 1.78-1.85-3.19c-.45 1.34-.77 2.16-1 3-1.54 5.9-4.83 7.69-10.6 5.75-4.77-1.6-6.56-4.79-5.52-9.59.5-2.29 1.77-4.95-1.37-6.33-2.07-.92-4.59 1.44-6.13 4.48-3.12 6.17-7.28 11.44-14.05 14a5.54 5.54 0 0 0-2.09 1.16c-4.56 5-10.18 9.53-13.22 15.37-2.44 4.67-4.2 7.36-9.78 7.83-2.38.2-4.45 3.93-6.68 6-.71.67-1.51 1.81-2.21 1.76s-1.29-1.32-2-2c-.87-.88-1.79-1.72-2.7-2.57-.38 1.33-1.21 2.71-1.07 4 .8 7.45 1.86 14.88 2.76 22.32a13.36 13.36 0 0 1-.1 4.14c-.15.72-1 1.3-1.59 1.95-.63-.6-1.49-1.08-1.83-1.81a10.85 10.85 0 0 1-.57-3.05l-3.81-28.35c-.55-3.75-1.56-7.44-2.32-11.17-.3-1.44.31-2.07 1.52-3.18a27.12 27.12 0 0 0 5.73-8.1 99.74 99.74 0 0 1 22.5-30c2.62-2.41 5.07-5 7.6-7.54a3.09 3.09 0 0 1 .8-.66c6.61-2.8 12.3-7.49 19.85-8.45 6.94-.89 13.58-3.51 20.83-3 5.13.35 9.7.88 13.19 5.29 1.28 1.62 3.69 2.3 5.39 3.67 6.75 5.42 10.49 13.08 15 20.17 6.57 10.19 7.64 21.67 8.17 33.27.44 9.59 1 19.23-2.42 28.5-1 2.69-2.12 5.36-3.37 7.94s-.71 4.74 1.65 6.35zm35.16 16.68l-.22-.76-2.26.65.23.77zm-310.58 73.18l-8.44-1a17.23 17.23 0 0 0-3.51-1.12l-20.32-1.91c-5.73-.57-6.92.2-8.55 5.67a7.6 7.6 0 0 1-1.52 2.21c-.63.81-1.77 1.53-1.86 2.37a9 9 0 0 1-4.48 6.92c-2.1 1.4-1.54 6.13.73 8.85a26 26 0 0 0 4.12 4.2c5.77 4.31 9.37 11.24 16.65 13.75.55.19.83 1.16 1.23 1.77a6.71 6.71 0 0 1-2.35.88 49.13 49.13 0 0 1-5.1-.68 54.64 54.64 0 0 1-18.57-13.56c-2.08-3.31-4-6.74-6.29-9.88-3.78-5.19-3.63-11-3.31-16.95 0-.45.11-1.13.4-1.29 3.75-2.06 5.8-6.52 10.69-7.12 2.21-.27 4.25-1.82 6.37-2.79l-8.81-6.6c-1.57-1.11-3.29-2-4.95-3l-7.11-7.87A54.09 54.09 0 0 1 141 264.71a33.27 33.27 0 0 1-.55-4.8l-1.26-17.56c-.32-5.61-.07-11 4.08-15.6 1.56-1.71 2.26-4.21 3.51-6.68l3.23 2.5 3.05-9.24a25.21 25.21 0 0 0 2-4.29c1.46-5.27 5.89-7.65 10.19-9.09a295 295 0 0 1 32-9c5.28-1.11 11.11-1.56 16.44 1.83 2.29 1.46 5.72 1 8.31 2.12 5.56 2.42 11.35 4.7 16.22 8.19 4.09 2.92 1.84 10.15-3 12-2.56 1-5 2.19-7.51 3.38a6.18 6.18 0 0 1-7.13-.93c-5.38-4.61-12.07-6.2-18.57-8.18a5.92 5.92 0 0 0-3.92.67c-2.12 1.09-2.6 2.61-.19 4.1.59.37 1.18.73 1.74 1.15 1.75 1.29 2.32 2.52 0 4-.79.5-1.88 1.72-1.72 2.29 1 3.69-.84 6.39-2.27 9.5-1.32 2.84-2.88 3.94-5.58 2.82-3.84-1.61-7.51-1.47-11.5-.51-2.33.56-5 0-7.48-.49-3.76-.69-4.35-.33-4.66 3.32a3.53 3.53 0 0 1-1.3 2.15c-2.5 1.94-5.25 3.59-7.6 5.69a4.53 4.53 0 0 0-1 3.72c.84 3.82 2 7.59 3.18 11.31 1.33 4.11 3.15 8.06-1.06 11.76-1.59 1.4-1.12 3.18.44 4.85a23.05 23.05 0 0 1 4.61 6.31c2.91 6.91 7.91 12.25 12.18 18.2 3.74 5.2 7.28 5.75 12.72 4.59 3.08-.65 6.45-.11 9.67.17a6.42 6.42 0 0 1 3.93 2.22l-5.43.58-.1.93a28.52 28.52 0 0 0 4.41.9 36.65 36.65 0 0 1 15.62 3.83c1.1.58 1.58 2.41 2.36 3.65zm71.1-156.52c-4.33.46-8 .73-11.57 1.3a6.27 6.27 0 0 0-3.25 1.82c-1.79 1.88-3.51 2.18-5.87 1-2.58-1.25-4.73-.11-5 2.75a17.5 17.5 0 0 0 .91 6.39c.85 2.78 1.18 5.21-.59 7.9a8.18 8.18 0 0 0-.9 5.2c1 7.19 2.38 14.34 3.59 21.51.55 3.22-.75 5.12-4 6.16-3 1-4.6-.27-5.45-3.09-1.51-5-2.84-10-4.7-14.83-4-10.29-5.36-21-6.13-31.87-.56-7.79 0-15.51 2.8-22.88 1.48-3.9 4.76-5.9 8.84-6.26 2.15-.19 3.52-.78 3.75-3.13s2.27-3 4.1-2.74c6.8 1 14 1.18 20.26 3.65 11.51 4.53 22.4 10.48 30.17 20.83 1.52 2 4.77 2.74 6.38 4.74a81.85 81.85 0 0 1 7.43 11.59c.44.79-.55 2.44-1 3.65-.63 1.64-1.31 3.28-2.1 4.86s-1.38 3.63-2.57 4-3.07-.93-4.22-2c-2-1.82-3.6-3.64-6.51-1.36-.54.43-2.81-.23-3.25-1-2.37-4.07-4.9-8.16-6.47-12.57a32.22 32.22 0 0 0-10.05-14.22c-.7-.59-1.78-1.13-2-1.88-1.07-4.35-5.18-4.92-8.23-6.77-.63-.39-1.68-.09-2.54-.1 0 .84-.21 1.85.16 2.51 2.18 3.94 4.53 7.77 6.74 11.69a21.67 21.67 0 0 1 1.27 3.15z" class="G"/><path d="M448.67 281q2.54-5.94 5.05-11.87c.57-.37 1.35-.62 1.68-1.14 1.86-2.93 3.71-3.27 6.4-.78s5.42.87 8.12-.24l27.89-11.37a19.1 19.1 0 0 1 4.34-.67l.45 1.22a15.41 15.41 0 0 1-3 2.27c-8.43 3.59-14.58 10-20.76 16.44a53.22 53.22 0 0 0-5.27 6.42 15.21 15.21 0 0 0-2.4 4.92 5.43 5.43 0 0 0 6.61 6.68c.68-.15 1.43-.56 2-.4 6.26 1.65 11.38-2.09 17-3.47 1.3-.32 2.78.06 4.18.11-.09 1.62.45 3.79-.39 4.76-3.88 4.51-8.15 8.7-12.28 13q-3.49 3.6-7 7.17a18 18 0 0 1-2.27 2.11c-4.7 3.36-5 3.32-8.67-1l-2.1-2.16-1.33-1.18-2.93-2.9-5.44-3.92-.65-.35-2.58-1.65-1.5.31c-3-.8-5.48-2.11-6.11-5.51l-2-7q1.45-4.88 2.96-9.8zm40.61 19.87l-.53.19c.08.19.17.54.23.54a2.7 2.7 0 0 0 .7-.26c-.13-.16-.26-.34-.4-.47z" class="F"/><path d="M387.29 274.43l8.29-4.38 3.33-1.34c-1.7-1.44-1.94-1.81-2.22-1.84-5.77-.61-9.4-5-13.86-7.89a4.52 4.52 0 0 1-1.6-2.14c-1.1-3-2.06-6-3.07-9l.07-.07A58.3 58.3 0 0 1 401.49 235c1.4-.37 3.06.22 4.59.37l6 13.43c1.83-1.5 3-2.64 4.33-3.51l22-14.25 8.55-3-8.23 11.56-1.68 2.55-.94 1.71q-2.32 6.76-4.66 13.54c-1.77 0-3.62.47-5.27.05-2.51-.64-4.82-2.06-7.32-2.76-1.26-.35-3.63-.29-4 .36-.6 1.19-.05 2.95 0 4.48l-.56 7.79-.17 1.18-.56 1.12c-1.24.19-2.71 0-3.67.64-5.42 3.5-11.71 3.7-17.72 4.89-1.44.33-3.18-.44-4.89-.72z" class="G"/><path d="M431.53 257.42q2.33-6.78 4.66-13.54l.94-1.71 1.68-2.55a32.55 32.55 0 0 1 4.51-3.14c.95-.46 2.29-.13 3.45-.15a10.78 10.78 0 0 1-.53 3.16c-1.53 3.1-3.41 6-4.86 9.18-1.18 2.58-1.22 5 1.59 7 .9.64 1.37 2.62 1.21 3.88-.93 7.62-8.08 14.12-15.84 14.57-2.29.13-4.59 0-6.88 0l-.55.93a25.82 25.82 0 0 0 3.38 2.66c1.91 1.06 4 1.74 5.94 2.83.77.44 1.18 1.53 1.76 2.32a21.42 21.42 0 0 1-2.68 1.73c-.82.39-2 .21-2.6.77a3.35 3.35 0 0 0-1 2.72c1.16 3.19 2.63 6.27 4 9.39l-.53.51c-2.43-3.45-5-6.83-7.21-10.39-.44-.68.24-2.07.43-3.13s.94-2.62.51-3.08a62 62 0 0 0-7.34-6.68c-.6-.46-2.25 0-3.16.46-2.53 1.4-4.41 3.33-3.84 6.61-3.72-1.87-8.49-1.43-12.44-5.53 2.95-.45 5-.57 6.92-1.09 4-1.06 8.64-.79 10.67-5.57l.56-1.12c.05-.39.11-.79.17-1.18l.56-7.79c1.22 4.52 1.61 4.62 6.12 3.06a8.31 8.31 0 0 1 4.29-.13c4.78 1.13 6.18.06 6.11-5zm6.96-26.42l-22 14.25c-1.34.87-2.5 2-4.33 3.51l-6-13.43c7.44 2.32 7.89 2 12.55-4.4 2.27-3.15 5.12-5.89 7.55-8.93a57.48 57.48 0 0 0 4-6c2.77-4.54 5.3-5.66 8.5-3.64 5 3.15 6.07 7.07 3.34 11.55-1.41 2.3-2.43 4.76-3.61 7.09z" class="F"/><path d="M445.66 290.86l2 7A48.43 48.43 0 0 1 448 305c-.08.86-2 2.44-2.39 2.26-5-2.71-9.37-.3-13.84 1.44q-4-.17-8-.3c-.52.35-1.54.86-1.49 1.05 1.29 4.49 2.7 8.95 4.08 13.41l.25 1.31-3.33 2.29-2.19-3.79.79-2.17c-5.06-.11-5.56-.87-4.66-5.88.54-3 .84-6.14 1.25-9.2h0c1.52-3.19 3.46-3.14 6.17-1.21a7.32 7.32 0 0 0 8.05.28l-1.72-6.92a76 76 0 0 0-1.55-8.12c-.86-2.84.54-4.12 2.77-3.5 4.58 1.31 8.99 3.24 13.47 4.91z" class="G"/><path d="M269.79 252.87c-.24.47-.43 1.48-1 1.72a2.41 2.41 0 0 1-2.12-.51c-4.56-4.36-9.38-8.52-13.43-13.32-3.74-4.45-3.25-7 .45-11.42.37-.44.63-1 1-1.4 1.1-1.21 2.25-2.38 3.37-3.57a22.82 22.82 0 0 1 2.57 3.95l8.39 21.88c.34.8.47 1.55.77 2.67zM431 297.6l1.72 6.92a7.32 7.32 0 0 1-8.05-.28c-2.71-1.93-4.65-2-6.17 1.21a5.89 5.89 0 0 1-.27-1.68l.88-5.15A35 35 0 0 0 423 301c1.69.75 3.51 1.23 5.27 1.83l.94-4.75.53-.51z" class="F"/><path d="M302.33 321.18l6.38 1.56c3.47-.5 1.58-4.1 3.26-5.63l5.07 7c1.15 4.19 4.81 4.16 7.68 1.18a22.66 22.66 0 0 1 4.48-3.55c2.92-1.79 6-3.35 9-5 .12-.06.06-.42.15-1.21l-7.68-.7a29.71 29.71 0 0 0-15.71-1.45 29.26 29.26 0 0 1-4.09.19c1-1.9 1.76-4 3.13-5.63 2.37-2.77 6.49-4.23 6.2-8.86l.26-1.48 1.77-1.25q1.21 2.88 2.44 5.76c1.26 4.86 1.94 5.32 6.73 4.05 3.22-.85 6.39-1.87 9.58-2.81l-.11 8.27c1.37 4.94 5.32 6.31 9.72 6.74 2.75.26 4.26 1.08 4.1 4.17-.05 1.06.91 2.17 1.38 3.27l1.69 4.16-4 1.91c-.81-1.07-1.41-2.58-2.49-3.12-4.24-2.13-8.64-3.95-13.71-6.21 2.07 2.87 2.48 6.18 5.6 8.1 1.27.78 2.17 2.16 3.25 3.27a27 27 0 0 1-3.85 3 33.73 33.73 0 0 1-5.14 1.79c.73 4.21 5 8.32-.48 12.49 1.43.28 2 .43 2.52.49 5.18.56 5.62 1.23 4.69 6.28-.19 1 .33 2.18.62 3.83l7.18-5c1.54-1.11 2.93-1.64 4.69-.18.44.37 1.85-.4 2.81-.65l4 1.1c-.67.4-1.65.65-1.93 1.24-.83 1.71-2.39 4.06-1.8 5.24 1.14 2.28 3.5 1.56 5.16-.14 2.06-2.11 4-4.33 6-6.5l3.23 1.13c1.05 1.29 1.76 3.57 4 1.34l2.19-.05c.78.17 2 .76 2.28.46 2.9-2.91 3.8-.78 4.71 1.68a5.19 5.19 0 0 0 1.2 2 2.4 2.4 0 0 0 1.85.41 1.56 1.56 0 0 0 .71-1.35c-1.24-4 1.11-9.22-3.85-12.15-.58-.34-.6-1.63-.87-2.49l2.21-2.46a83.08 83.08 0 0 1 6.9 4.95 6.83 6.83 0 0 1 2 3.74c.37 2.11-.06 4.38.37 6.47.57 2.76 2.94 2.74 5 2.08 2.46-.79 1.22-2.43.46-3.86-.64-1.22-1.2-2.49-1.81-3.72-.92-1.89-.67-3.41 1.48-4.12 2.81-.93 5.67-1.75 8.5-2.61h2.25c-.36 3.93-.2 7.95-3.35 11.11-1.06 1.05-1.41 2.55 1 2.72l1.15.46 1.13.77 3 .83q-1 3.54-2 7.08l.15 2.73-.31 7.51-1.66.39-5.87-3.63-2.13 4-1.13 1.37-1 1.39-1.06 1.39c-2.51-1.14-2.65-3.13-1.47-5.15s2.84-4 4.66-6.53c-.5-.28-1-.58-1.52-.84l-6.3-3c-.51 2.23-1.35 4.45-1.45 6.7s-.49 3.65-3.26 4.17c-4.92.92-7.81 8.19-5.2 12.26l5.26 7.65c-.53.61-.93 1.52-1.6 1.78-3.67 1.42-5.41 4.28-6.8 7.78a7.47 7.47 0 0 1-6.81 5.16c-.83 0-2.25.9-2.32 1.51-.49 4.17-3.46 3.53-5.18 2-4-3.6-8.89-2.67-13.42-3.58a8.64 8.64 0 0 0-7.76 1.83c-.95.8-2.74.59-4.14.85q3.78-4.89 7.57-9.76c3-2.36 5.25-6.23 10-4.69l.94.76c2.31 2.64 3.11 0 4.29-1.23l.22-.25 6.54-8.64a35 35 0 0 1 3.94-4.05 12.74 12.74 0 0 1 2.64-1.37c-5.3-5.22-16.27-2.27-19.68 4.81l-.15.21-2.74 2.22-.91.48c-3.16 1.68-4.43 1-5.17-2.52a28.84 28.84 0 0 0-1-4.36c-1-2.73-2.86-3.82-5.71-2.39a82.53 82.53 0 0 1-7.46 3.61c-.93.36-2.24-.27-3.38-.44l5.84-6.35a23 23 0 0 0 3.63-3c1.18-1.42.8-3.34-1.11-3.27-3.41.14-6.8 1-10.19 1.6-6.39.83-6.68.57-6.46-5.83 0-.23 0-.46.05-.68 3.68-1.17 1 3.32 4.07 3.53l8-5.56c1.87-1.33 1.18-2.75-.1-4-1.77-1.78-8.23-2.07-10.41-.79a11.54 11.54 0 0 1-4.36 1.42 55.5 55.5 0 0 1-6.19.19l-4.89-.94.08-1.17 4.46-1.33 3.28-.33-3.19-4.15 2.88-1 1.27-1.81.24-.77c2.25-1.45 3.15-3.4 2.33-6.33a27.87 27.87 0 0 1-3.87.67c-1.93 0-4.28.55-5.71-.34-2.91-1.78-3.62-.14-4.49 1.92l-4.64 4.36-.42-3.07q-.58-6.78-1.18-13.57l7.14.7c3.24 1.12 5.91 1 7.18-2.91.59-1.79 1.88-2.39 3.46-1 3 2.54 5.14 1 7-1.42 1.29-1.68 2.3-3.59 3.71-5.83a18.82 18.82 0 0 0 2.46 2.77 9.84 9.84 0 0 0 2.6 1 55.6 55.6 0 0 0 1.11-5.55 3.82 3.82 0 0 0-2.4-.81 47.43 47.43 0 0 0-5.67 1.51l-19.08 5.77-4.51.88c.82-2.14 2-4.23 2.33-6.44a5.23 5.23 0 0 0-1.7-4c-.6-.51-2.37.32-4.18.66 3.72 3.62 3.72 3.61.36 6-.47.33-.88.75-1.31 1.12l-4.19 2.77c-3.05-4.5-.3-12.86 4.86-14.89zm52.58 70.48l1.07.08c2-3.18 4.1-6.31 6-9.55 2-3.46 1.38-5-2.61-5.11-3.57-.13-7.17.53-10.75.94-.38.05-1 .89-.94 1.2a2.91 2.91 0 0 0 1.18 1.84c2.8 1.17 3.78 3.53 4.52 6.16.42 1.51 1.02 2.96 1.53 4.44zm-30.16-33.6l.65.93c.63 1.31 1.19 2.66 1.92 3.91.29.5 1.27 1.19 1.38 1.11 1.51-1.22 2.92-2.55 4.36-3.86-1.14-1.09-2.13-2.8-3.45-3.1-1.47-.33-3.23.62-4.86 1.01zm41.79 13.68l2.81-7.05c-4.67 1.44-5.19 2.71-2.81 7.05z" class="G"/><path d="M424.6 410.78c-.42-4.47 1.71-8.22 3.43-12.1 1.06-2.4 2.53-2.26 3.88-.52a7.47 7.47 0 0 1 1.69 4c.17 6.23.8 12.59-.21 18.66a19.58 19.58 0 0 1-6.13 10.48c-4.83 4.31-10.57 7.62-16.07 11.13-2.34 1.49-2.31 2.74-.71 4.69 2.64 3.21 2.57 3.46-1.14 4.92-2.55 1-2.32 2.22-.89 4.18l14.37 20.31c.2.28.49.59.5.9.13 2.27 1.13 5.56 0 6.56-1.31 1.2-4.44.72-6.72.48a61.43 61.43 0 0 1-7.51-1.65c-.78-.18-1.77-.12-2.3-.59-3.29-2.92-7.29-2.24-11.17-2.66a175.17 175.17 0 0 1-18.05-3c-3.1-.68-3.16-8-.38-10.52a34.73 34.73 0 0 0 3.47-4.14c1.08-1.33 2.05-2.76 3.24-4 1.78-1.81 4-3.24 5.51-5.24 3.21-4.36 7.8-5.89 12.51-8a38.48 38.48 0 0 0 13.29-10c3.31-3.87 6.24-7.9 10.57-10.75 2.83-1.87 4.42-4.64 3.38-8-.47-1.52-2.11-2.68-3.22-4zm-130.16-3.47l.48-1.18c4.38-5.41 3.53-10.5-2.24-14.29a6.78 6.78 0 0 1-1.95-3 25.18 25.18 0 0 1-1-3.58l.3-2.06c1.05-2.3 1.79-4.8 3.2-6.85 3.47-5.07 3.45-11 4.5-16.65l3.41-3.58c1.1 4.06 2.89 7.39 2.6 10.54s-.19 5 2.29 6.84 2.82 3.92.41 6.32c-1 1-1.38 2.54-2.05 3.84l-1.33.94a11.78 11.78 0 0 0-1.87.86c-4.53 3.1-4.44 5.77.3 8.42.9.5 1.89.83 2.82 1.29a4.51 4.51 0 0 1 2.08 6.63c-.55 1-1.22 1.92-1.84 2.88l-.1.09-1.37 1.14-.17.16-1.15 1.33-.41.7c-2.27 2.22-1.24 4.77-.47 7.11 1.45 4.46.78 8.69-.92 12.85-1 2.39-2.58 3.87-5.42 2.72l-.78-3.82-.48-18.14v-.05z"/><path d="M301.38 408.13l.41-.7 1.15-1.33.17-.16 1.37-1.14.1-.09 2.49-.59 10.11 7.08a.63.63 0 0 0 .34.08c6.64.3 9.29 4.9 11.37 10.32.48 1.26 2 2.12 3.05 3.16-.9 2.61-3.1 2.06-5 1.87-2.54-.25-4.36.48-6.56 2a36.93 36.93 0 0 1-11.22 5.05c-4.13 1.14-6.06-1.2-4.59-5.21s3.51-7.47 4.94-11.32c.33-.88-.64-3.14-1.44-3.39-3.07-.96-5.02-3.08-6.69-5.63z" class="E"/><path d="M437.4 372l-.75 3.54c-2 3.49-5.61 4.55-9.12 5.71l-1-1.63-.63-1.15-.19-1.5c.44-2.64-.72-4.42-3-5.58l-.47-1.24-3.52-6.46 4-4.75c1-3-.11-5-3.7-6.83l-.13-.06-3.59-4.38c2.48-1.38 4.93-2.82 7.46-4.11 1.78-.91 3.66-1.63 5.5-2.43l1.16-.08c.46 3.81.5 7.51-1.72 11-1.13 1.75-1.53 3.8 1 4.82a22.49 22.49 0 0 0 4.23.85l1.34-.07 2.12 1a1.72 1.72 0 0 0 .37.28 28.94 28.94 0 0 0-.32 4c.13 2.37.46 4.72.7 7.08.11.61.18 1.29.26 1.99z" class="G"/><path d="M462.31 404.94l.51-5.51c.37-3.88 2.08-5.69 6-5.66 4.18.05 8.26.32 10.15 5.34 1 2.54 4.79 4.18 3.41 7.42a78.25 78.25 0 0 1-6.91 12.64c-1.43 2.14-6.08 1.28-8.29-1.35-3.11-3.69-5.37-7.82-4.87-12.88zM429.42 341l-1.16.08c-2.21-.53-4.87-.61-5.26-3.57-.19-1.36-.13-3.32.69-4.11s2.85-.93 4.14-.58a8.37 8.37 0 0 1 3.57 2.58c3 3.35 5.89 6.78 8.64 10.31.64.83 1.14 2.64.69 3.26-1.49 2.06-.71 3.55.36 5.35 3 5 5 10.34 5.12 16.31a25.94 25.94 0 0 0 1.08 5c.77 3.35-.39 4.59-3.56 3.24-1.68-.72-2.94-2.54-4.26-4a25.08 25.08 0 0 1-2.07-3l-.23-2a55.3 55.3 0 0 0 2-8.08c.1-.92-1.52-2-2.35-3.05a1.72 1.72 0 0 1-.37-.28l-2.12-1-1.34.07a9.16 9.16 0 0 1-1.4-7.83 15 15 0 0 0 .28-5.82c-.22-.97-1.61-1.88-2.45-2.88zm-20.24 55c-2 5.17-3.29 10-5.57 14.33-4 7.53-8.46 14.81-13 22-.85 1.36-2.95 1.95-4.47 2.89-.95-2.09-3-4.44-2.62-6.22 1.2-5.27 3.11-10.53 8.36-13.4 2.65-1.45 3.7-3.63 4.59-6.48 1.25-4 3.47-7.73 5.26-11.58.29-.63.28-1.45.7-1.94 1.2-1.45 2.55-2.79 3.84-4.17z"/><path d="M361.84,404.78c-4.8-1.54-7.07,2.33-10,4.69,1.83-6.8.86-8.24-6.29-9.18-3-.39-6-1.25-8.88-.94-4.21.45-7.3,2.81-7.74,7.51-1.25-3-1.21-6.95-5.67-7.51.73-.7,1.43-2,2.19-2,4.14-.17,6.22-3.26,8.77-5.72,1.14.17,2.45.8,3.38.44a82.53,82.53,0,0,0,7.46-3.61c2.85-1.43,4.69-.34,5.71,2.39a28.84,28.84,0,0,1,1,4.36c.74,3.57,2,4.2,5.17,2.52Z" class="E"/><path d="M483.59 431c2.57-.84 5.1-2.12 7.74-2.44 6.64-.81 13.15-1.37 19.46-4.29 5-2.34 10.86-2.95 16.24-4.59 4.85-1.48 9.58-3.36 14.38-5a9.27 9.27 0 0 1 3.77-.32c-6.3 6.76-14.62 9.81-22.64 13.36-6.06 1.13-12.08 2.78-18.19 3.27-6.88.59-13.84.09-20.76.01z" class="G"/><path d="M328,439.33c9.75-.38,11.47,2,8.1,10.24a27.68,27.68,0,0,1-3.94,6.46,4.06,4.06,0,0,1-3.26,1.18,26.13,26.13,0,0,1-6.57-2c-4.8-2.19-5.4-4-3.38-8.89.22-.53.43-1.07.61-1.61,1.68-4.95,2.12-5.27,7.4-5.38Z"/><path d="M323.21 399.35c4.46.56 4.42 4.53 5.67 7.51l3.06 17.9c-1.05-1-2.57-1.9-3.05-3.16-2.08-5.42-4.73-10-11.37-10.32a.63.63 0 0 1-.34-.08l-10.11-7.08c5.18-2.27 9.35-7.97 16.14-4.77z" class="G"/><path d="M411.33 348.42l-8.5 2.61c-2.15.71-2.4 2.23-1.48 4.12l1.81 3.72c.76 1.43 2 3.07-.46 3.86-2 .66-4.41.68-5-2.08-.43-2.09 0-4.36-.37-6.47a6.83 6.83 0 0 0-2-3.74 83.08 83.08 0 0 0-6.9-4.95 31 31 0 0 0-3.64-2.75c-2.84-1.59-3-3.51-.45-5.77l-.23 3.45 3.14-.9a4.48 4.48 0 0 1 1.3.09c.69 4.72 1.62 5.16 5.73 2.79.69-.39 1.45-.64 2.17-1-.41 3.42 4 7.6 7.53 7.13 1.91-.25 5.78-5.45 5-7-1.61-3.05-3.41-6.07-7.33-6.64.92-.62 1.87-1.21 2.77-1.86l6.24-4.52c-.47 1.88-.63 3.93-1.5 5.61-1 2-.07 2.38 1.43 2.9 1.91.66 3.78 1.44 5.67 2.18h-3.71c-.71 2.84-1.34 5.06-1.79 7.32-.09.6.38 1.27.57 1.9z" class="E"/><path d="M344.76 447.05l.62-3.62c.7-1.07 1.93-2.12 2-3.23a30.78 30.78 0 0 0-.56-7.22c-.45-2.47.55-3.47 2.84-3.64l7.22-.57c2.85-.23 4.32 1.45 3.79 4.27-1.45 7.66-6.22 13.3-11.49 18.57-1.85 1.86-3.7 1.15-4.22-1.45a22.88 22.88 0 0 1-.2-3.11z"/><path d="M457.31 372.77c2.77 3.63 2 6.74-.53 10.41-2.26 3.31-3.19 7.51-5 11.14-.57 1.11-2.26 1.64-3.44 2.45a44 44 0 0 0 2.66-5c.36-1 0-2.17 0-3.27a12.42 12.42 0 0 0-.5-2.69c-.85-2-.51-3 1.84-3.29.94-.12 1.75-1.18 2.57-2.4-4.41.18-4.46-2.6-4.54-5.27a43.88 43.88 0 0 0-4.37-18.4 3.35 3.35 0 0 1 .81-3.13 33.93 33.93 0 0 1 5.51-2.8c-.33 1.89-1 3.79-.94 5.67.18 6 .62 12 1 17.95l.06.06c1.07-1.76 2.56-3.4 3.13-5.32 1.1-3.73 1.69-7.62 2.48-11.44l.58 1.38-.3 4.13-1 7.08z" class="E"/><path d="M451.9 430.73c-1.29.67-2.86 1.07-3.8 2.07-2.59 2.74-4.89 5.75-7.36 8.6-2.25 2.6-1.79 7.18 1.06 9.57.78.67 1.68 1.2 2.75 1.94l-1.42 2.13a10 10 0 0 1-2.44-1l-11.16-8.83c-1.11-3.53.56-5.47 3.26-7.77 5.68-4.83 12.62-6.32 19.35-8.35 2.13-.64 4.71.25 7 1.25z" class="G"/><path d="M344.22 419.23c1.4-.26 3.19-.05 4.14-.85a8.64 8.64 0 0 1 7.76-1.83c4.53.91 9.41 0 13.42 3.58 1.72 1.53 4.69 2.17 5.18-2 .07-.61 1.49-1.47 2.32-1.51a7.47 7.47 0 0 0 6.81-5.16c1.39-3.5 3.13-6.36 6.8-7.78.67-.26 1.07-1.17 1.6-1.78 1.7 1.58.62 2.61-.71 3.6a24 24 0 0 0-8.54 13.06c-1.41 4.86-2.65 5.65-7.77 4.63-5.76-1.14-11.54-2.29-17.36-2.94-2.26-.25-4.72.7-7 1.38-3.35 1-6.63 2.26-10.18 3.5-.51-3.3 1.54-4.58 3.53-5.9z" class="E"/><path d="M424.6 410.78l1.4 1.12c1.2 2 2.37 4 .73 6.27-3.87-.48-7 .53-9.17 4.05-1.18 1.93-2.41 3.58-5.28 2.09-.9-.47-2.81.49-4 1.22-2.66 1.65-5.16 3.57-7.72 5.38l-1.05-.81c.71-1.52 1.05-3.46 2.2-4.5a143.45 143.45 0 0 1 13.06-10.71c2.45-1.72 5.61-2.4 8.45-3.55z" class="G"/><path d="M387 394.25c-2.61-4.07.28-11.34 5.2-12.26 2.77-.52 3.15-1.78 3.26-4.17s.94-4.47 1.45-6.7l6.3 3c.53.26 1 .56 1.52.84-1.82 2.51-3.43 4.41-4.66 6.53s-1 4 1.47 5.15l-4.16 12.79c-.24.7-1.23 1.14-1.88 1.7-.43-.82-1.27-1.68-1.22-2.48a39.52 39.52 0 0 1 1-5.42c.29-1.35 1-2.75.78-4a22.18 22.18 0 0 0-1.85-4.77c-1.78.84-4.26 1.24-5.17 2.64-1.27 1.96-1.41 4.71-2.04 7.15z" class="E"/><path d="M419.41 382.43l7.65 2.14c-4 2.82-4.72 7-4.79 11.47 0 1.23-.11 2.83-.85 3.61a6.47 6.47 0 0 1-4.12 2.12c-1.22 0-3.41-1.44-3.47-2.36-.32-4.94 0-9.89 3.39-14 .78-.95 1.46-1.99 2.19-2.98z" class="G"/><path d="M458.33 363l.3-4.13 1.45-4.8a21.69 21.69 0 0 1 1.72-3c.77.88 2.12 1.72 2.18 2.64.21 3.49 1.66 6.28 3.41 9.23 2.32 3.93-1.49 6.63-3.3 9.44-1.71 2.66-4.41 1.82-6.78.42v-2.74l1.02-7.06zM442 318.73l-3.54 1.27-3.85 1.55c-2.22.85-3.9-.36-3.47-2.27.68-3-4.58-7 1-8.82C436.8 309 441 311.7 445 313.7c.45.22.51 2.05.13 2.84s-1.53 1.31-2.34 1.95z"/><path d="M452.38 374.14l-1-17.95c-.05-1.88.61-3.78.94-5.67l1.94-1.1 1.3-1.14 1-1.27 2.92.41-1.44 10c-.8 3.82-1.39 7.71-2.49 11.44-.57 1.92-2.06 3.56-3.13 5.32z" class="G"/><path d="M419.41 382.43l-2.19 3c-3.42 4.12-3.71 9.07-3.39 14 .06.92 2.25 2.35 3.47 2.36a6.47 6.47 0 0 0 4.12-2.12c.74-.78.83-2.38.85-3.61.07-4.49.79-8.65 4.79-11.47.24.49.77 1.06.66 1.46l-4.8 16.72c-1.19 4.25-1.7 4.52-5.76 2.57-6.4-3.06-6.75-3.78-5.1-10.8a49.92 49.92 0 0 0 1.25-5 7.64 7.64 0 0 1 6.1-7.11z" class="E"/><path d="M451 388.47c0 1.1.33 2.31 0 3.27a44 44 0 0 1-2.66 5c-1.41 3.09-2.65 6.28-4.31 9.23-.64 1.15-2.23 1.77-3.38 2.64l3.07-17.05c.11-.59.84-1.06 1.29-1.58zm4.3 28.74c.72 2.93-1 4.58-3.22 5.83l-17.19 9.5c-.84.46-1.78.72-3.62 1.45a23.48 23.48 0 0 1 8.75-9.28l12.28-7.52zm-39.02-77.98l-5.67-2.18c-1.5-.52-2.45-.91-1.43-2.9.87-1.68 1-3.73 1.5-5.61l1.43-1.73 5.54 3.42q1.78 5.07 3.56 10.14l-.86.75z" class="G"/><path d="M450,325.22c2,3.76,6,6.56,5.63,11.46a7.41,7.41,0,0,1-2.54,4.53c-1.92,1.62-4,.59-4.06-2-.17-4.49-.05-9-.05-13.48Z"/><path d="M446.65 337.94l-.81 3.43c-.93-.69-2.23-1.18-2.71-2.11-1.55-3-4.31-3.93-7.15-5-3.66-1.34-3.91-2.39-1.72-5.52 2.08-3 4.2-5.85 8.25-6.15-1.23 1.78-2.77 3.43-3.58 5.39-.41 1 .25 3.51.86 3.67 3.49.95 4.93 3.85 6.86 6.29z" class="E"/><path d="M378 443.87l1.33 2.13-20.95 8.24a9.6 9.6 0 0 1 7.59-7.18c3.64-.85 7.14-2.28 10.71-3.45zm68.65-105.93c-1.93-2.44-3.37-5.34-6.86-6.26-.61-.16-1.27-2.67-.86-3.67.81-2 2.35-3.61 3.58-5.39h0l3.43-.45-.21 6.25.92 9.52z" class="G"/><path d="M445 390c-.45.52-1.18 1-1.29 1.58l-3.07 17.05a13.53 13.53 0 0 1-1.35-3.34c-.48-3.76-.67-7.55-1.12-11.3-.26-2.22.79-3.3 2.73-3.67a34.86 34.86 0 0 1 4.1-.32zm-29.7-42.35l3.59 4.38c-2.1-.09-3.9.57-3.5 3 .63 3.73-1.15 5.78-4.18 7.25-2.39-.17-2-1.67-1-2.72 3.15-3.16 3-7.18 3.35-11.11zm2.35-17.42l-5.54-3.42c.39-.74.62-1.95 1.19-2.13 2.54-.82 5.18-1.35 7.78-2l2.19 3.79 3.33-2.29 1.45 3.88c-2 .11-4.16.75-5.95.19-2.41-.72-4.01-1.09-4.45 1.98zm8.7-7.34l-4.08-13.41c0-.19 1-.7 1.49-1.05a19.12 19.12 0 0 1 2.59 14.46zm-7.65 40.78l3.52 6.46c-3-1.77-5.63-2-7.72 1.28q1-3.54 2-7.08zm40.8-16.25l-2.92-.41-.55-1.61a14.64 14.64 0 0 1-.74-2.93c0-.2 1.36-.87 1.66-.67a8.32 8.32 0 0 1 2.8 2.66c.39.74-.13 1.96-.25 2.96zm-31.97 33.81c3.51-1.16 7.08-2.22 9.12-5.71.93 3.22-.64 4.89-3.58 5.41a40.8 40.8 0 0 1-5.54.3zm-22.85 1.23l2.13-4 5.87 3.63zM446 322.13l-3.43.45-.49-3.85.7-.24c1.79.51 3.99.75 3.22 3.64zm-31.66 59.52l.31-7.51c1.17 2.56 1.74 5.09-.31 7.51zm8.35-10.28c2.3 1.16 3.46 2.94 3 5.58zm3.21 7.08l.63 1.15zm-23.31 6.77l1-1.39zm53.01-36.94l-1.3 1.14z" class="E"/><path d="M490.82 342.37l-9.26-1.24c-1.8-.28-2.16-1.3-1.41-3 2.84-6.5 10.79-11.54 17.72-11.21 2.54.12 4.11.86 3.11 3.79-.79 2.27-.05 3.94 1.78 5.45 2.5 2.05 2.26 3.22-.72 4.66a8.29 8.29 0 0 1-2.6.9c-2.52.28-5.05.39-8.62.65z" class="F"/><path d="M453.82 303.34l1.5-.31 2.58 1.61.65.35 5.44 3.95 2.93 2.9 1.33 1.18 2.11 2.11a15.47 15.47 0 0 1-3.25.1c-3.72-.67-7.4-1.59-11.13-2.21-2-.34-3.35-1.11-3.14-3.28s.64-4.27.98-6.4z" class="G"/><path d="M261.35 358.13a38.33 38.33 0 0 0 1.41-3.78c.28-1.1-.08-2.5.47-3.37 1.21-1.92 2.65-4.85 4.29-5.06 2.66-.35 4.64 1.95 5.11 5a10.32 10.32 0 0 0 1.48 2.92l2.63-1.75.15-.13c2.33.25 2.81 1.66 2.94 3.83.31 5.13-1.74 9.11-5.29 12.53l-1.85.12c-3.07-.69-4.8.66-5.63 3.57-1.93 6.7-1.78 13.16 1.87 19.35 2.39 4.06 2.16 4.87-1.93 7.33-2.5 1.5-3 3-1.27 5.6a5.06 5.06 0 0 1 .35 4.35 46.91 46.91 0 0 1-5.41 8c-2.59 3.18-5.47 6.11-8.23 9.15l-2 .09-4.69.65c-3.15.52-6.28 1.39-9.44 1.55-4.54.23-6.95-2.24-7.36-6.81-.49-5.5-.18-11.25-1.75-16.42a26.93 26.93 0 0 0-7.53-11.45c-4.05-3.69-3.86-9 .22-12.8 6.87-6.38 15.53-8.17 23.81-11.11l6.62 6.17 5.6 2.95c1.4-3.71 2.67-6.51 3.49-9.43s1.2-6 1.77-9l.17-2.05z"/><path d="M252.44 425.77c2.76-3 5.64-6 8.23-9.15a46.91 46.91 0 0 0 5.41-8 5.06 5.06 0 0 0-.35-4.35c-1.75-2.58-1.23-4.1 1.27-5.6 4.09-2.46 4.32-3.27 1.93-7.33-3.65-6.19-3.8-12.65-1.87-19.35.83-2.91 2.56-4.26 5.63-3.57-1.43 1.87-1 3.62.29 5.38a20.87 20.87 0 0 1 2.83 4.3c1.93 4.88 5.5 7.51 10.55 8.36 2.15 2.45 2.33-.62 3.4-1.21a25.18 25.18 0 0 0 1 3.58 6.78 6.78 0 0 0 1.95 3c5.77 3.79 6.62 8.88 2.24 14.29l-.32-3.31-2.35 2a20 20 0 0 1-.29-2c-.26-5.07-3-7.14-7.48-4.82-2.41 1.25-4 4.07-6 6.18-.53-1.42-1.16-4.09-1.58-4.06a41.88 41.88 0 0 0-7 1.65c.67 1.56 1.24 3.17 2 4.66 1.21 2.21 2.59 4.34 3.89 6.5-2.8 2.12-5.68 4.14-8.39 6.37-2.48 2-4.69 4.4-7.2 6.39-3.07 2.42-6.34 4.58-9.76 7-1.04-3.52 6.24-3.05 1.97-6.91z" class="F"/><path d="M195.35 374.68l-2.22 2.43c-4.75 4.52-9.68 8.86-14.24 13.56-5.81 6-11.11 12.51-17.09 18.34-2.54 2.49-6.17 3.91-9.43 5.57a2.78 2.78 0 0 1-2.63-.79c-.47-1-.71-2.75-.14-3.54q6.39-9 13.18-17.66a65.66 65.66 0 0 1 8.05-8.92c5.23-4.6 10-10.13 17.46-11.23a16.32 16.32 0 0 1 5.32.45c.59.11 1.03 1.02 1.74 1.79zm80.5 38.2l-3.89-6.5c-.81-1.49-1.38-3.1-2-4.66a41.88 41.88 0 0 1 7-1.65c.42 0 1.05 2.64 1.58 4.06l-.21 4.6 1 1.15.81.74a27.33 27.33 0 0 0 5.11 1.17c2.59.12 3.66 1.14 3.76 3.77.13 3.35.65 6.69 1 10.24z" class="G"/><path d="M278.31,408.73l.21-4.6c2-2.11,3.55-4.93,6-6.18,4.48-2.32,7.22-.25,7.48,4.82a20,20,0,0,0,.29,2c-2.57,5-7.38,5.33-12.12,5.81l-.81-.74Z"/><path d="M293.31 408.85l.48 18.14c-3.47-3.91-1.88-8.71-2.14-13.13-.1-1.63 1.07-3.34 1.66-5.01zm1.13-1.54l-1.1 1.49z" class="F"/><path d="M420.38 566c-11.57-4.88-23.9-8.32-33.75-16.51-5.53-4.61-10.33-10.11-15.46-15.2-2.06-5.26-4.32-10.45-6.11-15.8a94.82 94.82 0 0 1-3.44-13.38c-.81-4.55 2.42-7 5.92-9.76l3.56 7.83c2.37 5.13 4.44 10.43 7.26 15.3a50.21 50.21 0 0 0 8.72 11.52 16.91 16.91 0 0 0 9.5 4.51c4.64.33 6.82 3.37 9.62 5.93 10 9.08 19 19.22 30.22 26.86.53.36.88 1 1.15 2.51a26.81 26.81 0 0 1-5.25-.31c-4.02-1.04-7.97-2.34-11.94-3.5zm35.73-65.11a56.49 56.49 0 0 1 2.16 6.39c1.22 5.7 1.91 11.53 3.44 17.14a28.3 28.3 0 0 1-.17 15.33c-1.24 4.55-2.08 9.22-3.17 13.82a16.34 16.34 0 0 1-1.22 2.71h-1c-.24-3.11-1.16-6.35-.6-9.3 1.62-8.46-1.37-16.15-3.06-24.1a25.26 25.26 0 0 1-.26-8.05c.47-4 1.43-7.92 2.22-11.87A14.56 14.56 0 0 1 455 501zm-8.42 62.89c-1.56 1.35-3 3.14-3.45 2.92-1.52-.81-2.68-2.28-4-3.5l3.57-3.63z" class="G"/><path d="M230.37,461.76l.45-.31-.48,1.34Z" class="E"/><path d="M244.13,358.58c.11,1.14.59,2.41.25,3.4-.52,1.51-1.31,3.34-2.55,4.08-1.05.63-3.57.53-4.3-.28-5.41-6-12.12-7.07-19.86-7.46-7.57-.38-11.52-1.88-6.09-11,2-3.36,4.1-6.82,5.2-10.52a31.5,31.5,0,0,0,.92-10.71c-.19-3.22.46-4.86,3.72-4.5,6.46.73,12.57,2.5,17.38,7.38,2.27,2.31,4.86,4.31,5.12,7.88l-.3.26c-3.13.74-4.19,2.88-4,5.88l-.26.81c-2.44,2.53-1.15,3.92,1.49,4.9l.52.88.86,2,.18.91,1.15,3.34Z"/><path d="M348.27 270c3.59-5.63 8.74-8.43 14.13-6.21 2.22.91 4.68 1.24 7 2a14.63 14.63 0 0 1 2.57 1.4 16.12 16.12 0 0 1-1.65 2.83c-1.15 1.28-2.71 2.22-3.72 3.58-2.55 3.43-1.54 5.56 2.62 5.95.46.05 1-.09 1.37.12 2.1 1.23 4.17 2.55 6.24 3.83l-4 4.32c-.55.58-1.21 1.07-1.81 1.6l-5 3.51c-1.36 1.2-3.1 2.17-4 3.65-1.22 2.06-1.78 4.49-2.63 6.77-2.26 3.25-1.8 4.21 2 4.71a26.38 26.38 0 0 1 4.38 1.37l-.84 3c-3.14 3.05 0 4.48 1.55 6.43.72.89 1.63 2.72 1.28 3.16a8.72 8.72 0 0 1-4.07 2.78c-.77.22-2.29-.9-2.94-1.79a41.61 41.61 0 0 1-4.38-7.22 29.14 29.14 0 0 1-1.71-6.79 52.64 52.64 0 0 1-.41-5.34l-.94.83c-2.53-1.31-5.12-2.53-7.56-4-.63-.37-.8-1.51-1.18-2.3a8.49 8.49 0 0 1 2.72-.83c2.39.12 4.77.69 7.16.74 1.9 0 3.3-1 2.1-3.09s-2.87-4.25-4.33-6.36l-1.25-2.11a.92.92 0 0 0-.44-.41l-1.64-3a33.15 33.15 0 0 0 5.75-.54c1.3-.33 3.15-1.25 3.4-2.25.3-1.24-.65-2.9-1.34-4.23-.31-.61-1.31-.88-2-1.29l-.13-.11-4-2.65-1.36-.65zm40.34 69.61a4.48 4.48 0 0 0-1.3-.09c-1.06.24-2.09.59-3.14.9l.23-3.45 1.49-.39 3-2.62q.87-5.28 1.75-10.57l1.8-.9.42-8.58c.18-1.65.78-3.25 3.19-2 .47.25 2.36-1 2.32-1.13-.78-2.73-.39-6.11-3.73-7.57l3.87-3.19 4.53-3.05c1.44-1.2 1.4-2.32.05-3.67a51.1 51.1 0 0 1-3.42-4.16l-4.64-6-.34-.32a.56.56 0 0 0-.34-.33l-.28-.31c-.85-3.09 1.31-2.86 2.91-2.24 5.51 2.15 10.92 4.55 16.38 6.85l1 .54 1.7 1.34.25 1.48a65.86 65.86 0 0 0-7.26 4.58c-3.49 2.86-3.42 4-.45 7.2.47.51 1.11 1 1.32 1.58 1.22 3.43 2.81 6.85 3.14 10.39.08.9-4 2.19-6.12 3.29a10.14 10.14 0 0 1-1 .39l-1.46 1-.62.26c-.7 1-2 2-2 3 0 1.62.84 3.23 1.32 4.85l-7.23 3.81-.85 2v5.42l-1.06 1.62zM317 257.44a28.78 28.78 0 0 1 1.27 4.52c.5 4.36-.56 5.12-4.68 3.55l-.75-.39-1.37-.14c-3.23-2.71-4.44-2.37-6.74.9-1.89 2.69-4.33 5-6.47 7.51l-5.35 6.57-5.42 5.31c-.2.19-.61.18-2 .54 1.39-2.88 2-5.51 3.57-7.16 8.3-8.58 16.91-16.85 25.29-25.35 5.49-5.57 10.76-11.35 16.14-17 .48-.5 1-.92 1.55-1.38 3.4-3 6.67-6.29 11.9-4.1 6.6 2.77 12.58 6.09 13.47 14.24-1.52-1.24-3.14-2.37-4.55-3.72-4-3.85-4-3.82-8.79-1.32a37.58 37.58 0 0 1-6.29 2.53c-2.2.68-5 .4-6.67 1.65-4.71 3.46-9 7.49-13.42 11.36-.46.37-.48 1.24-.69 1.88z" class="G"/><path d="M352.17 288.6l4.33 6.36c1.27 2.22-.2 3.12-2.1 3.09-2.39-.05-4.77-.62-7.16-.74a8.49 8.49 0 0 0-2.72.83c.38.79.55 1.93 1.18 2.3 2.44 1.47 5 2.69 7.56 4l.94-.83a52.64 52.64 0 0 0 .41 5.34 29.14 29.14 0 0 0 1.71 6.79 41.61 41.61 0 0 0 4.38 7.26c.65.89 2.17 2 2.94 1.79a8.72 8.72 0 0 0 4.07-2.78c.35-.44-.56-2.27-1.28-3.16-1.57-1.95-4.69-3.38-1.55-6.43l4 4.67c2.52 2.54 2.56 3.72-.05 6.19-1.24 1.18-2.8 2.18-3.63 3.6-1.79 3.07-4.18 4.06-7.5 3.12l-1.69-4.16c-.47-1.1-1.43-2.21-1.38-3.27.16-3.09-1.35-3.91-4.1-4.17-4.4-.43-8.35-1.8-9.72-6.74 1.22.79 2.34 1.9 3.68 2.31a67.1 67.1 0 0 0 7.11 1.37l.19-5.39a4.34 4.34 0 0 0-.31-1.34c-1.16-3.71-7.57-8.74-11.17-8.54l.61 3.32c-3.19.94-6.36 2-9.58 2.81-4.79 1.27-5.47.81-6.73-4.05 3.44.09 6.91.46 10.33.21s3.25-1.17 2.24-4.74c-1.57-5.59-5.84-6.89-10.48-8.19-2-.57-5.14.23-5.53-2.94s3.64-7.47 6.77-7.75c2.75-.25 5.54-.07 8.29-.24a34.42 34.42 0 0 0 4.36-.8l2.73.11-.51 1.38c-3.33.18-6.77-.11-10 .66a21.15 21.15 0 0 0-8.05 4c-2.11 1.7-1.43 3.48 1.23 4.19 2.11.56 4.36.58 6.45 1.2 2.65.79 4.69.65 5.75-3.45l4.66 7.31.75-3c1.05 2.34 2.3 4.32 5.25 4.69 3.52.43 4.63-.71 3.71-4.21a27.68 27.68 0 0 0-.39-1.98zm-112.78 55.2l.25-.81 4-5.88.3-.26 3.49-2.26 11.18-.38 3.46 1.93c1.45.67 3.11 1 4.4 1.86.74.51.95 1.82 1.39 2.76a21 21 0 0 1-3 0l-7.62-1.34-2-.14c-2.7-2-5.15-.57-7.11 1-1.07.87-2.08 3.58-1.55 4.29 1.11 1.5 3.26 2.23 5 3.28l7-.27c2.72-.34 3.36.82 2.94 3.43a48.11 48.11 0 0 0-.13 7.11l-.19 2-2 3.11c-2.53 4.43-4 9.6-8.84 12.4l-6.62-6.17a4.69 4.69 0 0 1 .6-1.23c3.35-3.38 3.32-6.17-.15-9.66l-.54-2.75-1.15-3.34-.18-.91-.86-2-.52-.88c-.56-1.62-1.05-3.26-1.55-4.89zm3.83 3.32l-1.1.63 7.56 17.7c.52 1.15 2.07 1.82 3.15 2.72.67-1.47 1.69-2.89 1.9-4.42.16-1.25-.55-2.67-1.06-3.94-.74-1.82-1.86-3.5-2.42-5.36-1.25-4.13-4.43-5.94-8.03-7.33z" class="E"/><path d="M372 292.84a14 14 0 0 0 3.69-.26c3.15-1.12 5.52-.13 7.54 2.27a16.39 16.39 0 0 0 2.36 3.12c1.6 1.3 1.58 2.53.42 4a6 6 0 0 1-.46.42l-.08.08-.7.48-.23.14q-1.92 1.14-3.82 2.3c-2.58 1.32-2.83 3.25-1 5.26s4.16 3.82 6.09 5.88a30.19 30.19 0 0 1 2.73 4l-4.21 1.84c-2.42.46-4.63 1-2.94 4.36.36.71-.2 1.88-.34 2.84l-3.65.21-.44-.66-1.92-5.08c-.73-1.66-2-3.33-2.45-5.13l-5.77-24z" class="G"/><path d="M258.59 334.21l-11.18.38c-1.56-5.23 1.62-7.17 5.79-8.75a32.35 32.35 0 0 0 13.09-8.75 8.89 8.89 0 0 1 2.95-1.77c2-.95 3.06-.21 3.38 1.9.2 1.31.48 2.6.8 4.23l10.52-4.58c1.71-.72 4-1.82 4.71.58.45 1.57-.57 3.88-1.58 5.44-.57.89-2.43 1.16-3.75 1.31a44.52 44.52 0 0 1-5.54 0c-5.94-.11-8.09 1.36-9.15 7.15-.63 3.39-2.08 4.26-5.26 3.32a25.07 25.07 0 0 0-4.78-.46z"/><path d="M270.88,301l-10.69-3.72c-3.65.9-4.49,3.94-4.87,7-.35,2.79-1.76,4.48-4.26,5.14a51.83,51.83,0,0,1-6.38.9c0-4.91-.19-9.83,0-14.73A4.23,4.23,0,0,1,247,292.8c3.08-1.46,6.33-2.58,9.51-3.84,7.35-3.94,19.63,7.55,19.59,14.37Z" class="G"/><path d="M343.35 277.77l-2.73-.11c-3.43-.27-6.86-.75-10.28-.76-2.86 0-5-.64-6-3.55-1.07-3.23-2.43-6.41-3-9.73-.46-2.43 1.3-3.39 3.77-3.12 4.45.49 8.94.72 13.38 1.29a23 23 0 0 1 4.59 1.6l-2.15 5a5.84 5.84 0 0 1-.95 1.19c2.06 1.77 4 3.37 5.79 5.2a25.53 25.53 0 0 1-2.42 2.99z"/><path d="M317 257.44c.22-.64.24-1.51.68-1.9 4.4-3.87 8.71-7.9 13.42-11.36 1.7-1.25 4.47-1 6.67-1.65a37.58 37.58 0 0 0 6.29-2.53c4.83-2.5 4.77-2.53 8.79 1.32 1.41 1.35 3 2.48 4.55 3.72a36.58 36.58 0 0 1-1.22 5.36c-.15.41-1.9.68-2.58.34-3.37-1.65-8.88-.63-11.06 2.25-2.5 3.31-3.48 3.35-5.67-.31-1.59-2.66-3-3.66-6-1.58a69 69 0 0 1-9.64 5.07 27.44 27.44 0 0 1-4.23 1.27zM270.88 301l5.19 2.32c0-6.82-12.24-18.31-19.59-14.37a9.42 9.42 0 0 1 11.71.92c2.88 2.49 5.15 5.69 7.69 8.57a1.91 1.91 0 0 1 .23.6l2.42 3 .2.17c2.25 2 2.71-.25 3.59-1.49a3.64 3.64 0 0 1 .59-.3l6.8-1.35-3.17 5.89.68.57L294 302c.55 2.11 1.89 4.41 1.41 6.24-.36 1.39-2.91 2.49-4.7 3.16-2.58 1-5.36 1.37-8 2.13-4.77 1.36-7 .34-7.63-4.5a12.89 12.89 0 0 0-4.2-8.03zm31.45 20.18c-5.16 2-7.91 10.39-4.91 15-2 1.55-2.34 0-2.56-1.43-.43-2.8-2.42-4.08-4.81-4.71a29.35 29.35 0 0 0-5.08-.46c-2.24-.86-4.42-2.15-6.73-2.46-1.94-.27-2.32 1.47-1 2.77 2.81 2.8 2.21 5.57.86 8.86-1.1 2.68-1.27 5.74-2 9.43 6.93-4.16 8.35-7.72 6.21-13.49a20.61 20.61 0 0 1 2.17 1c3.68 2.23 3.88 3.32 1 6.58-1.84 2.05-4 3.84-5.82 5.88a34.58 34.58 0 0 0-2.76 3.85l-.16.13c-.63-1.85-2-3.79-1.76-5.53.7-5.53-.44-10.76-1.59-16.05-.89-4.09.2-5.25 4.42-4.94 3.19.22 6.44.8 9.56.42a8 8 0 0 0 4.84-3.28c3.53-5.16 3.48-5.29 8.91-2.22z" class="E"/><path d="M318.73 290.48a24.24 24.24 0 0 1-2.31 2.95 18.88 18.88 0 0 1-3.34 2.43c-3.43 1.86-4.72 4.6-4.59 8.5.06 1.76-1.06 3.62-1.9 5.31-.21.43-1.47.6-2.13.43a1.85 1.85 0 0 1-.85-1.63c2.39-5.89-.91-11.59-.52-17.4.14-2.08-.69-4.57 2.16-5.58s7.48 0 9.28 1.82a35.45 35.45 0 0 0 4.2 3.17zm68.18-12.4l3 3.65c1.11 1.14 2.63 2 3.44 3.32s.82 2.89 1.18 4.36c-1.72.37-3.51 1.24-5.13 1a41.54 41.54 0 0 1-8.24-2.48c-.64-.24-1.5-1.69-1.29-2.14 1.86-4.06-1.3-5.64-3.62-7.56-1.14-1-2.78-1.38-3.72-2.46-.66-.76-.52-2.22-.74-3.36a18.07 18.07 0 0 1 3 .13 16.69 16.69 0 0 1 2.81 1.1l2 1.27.59.4.26.11 6.18 2.47zm-110.8 20.97a1.91 1.91 0 0 0-.23-.6 16 16 0 0 1-.25-3.36c.18-1.37.35-3.48 1.18-3.86 1.31-.6 3.78-.68 4.65.17 2.32 2.26 3.58 1.14 5-.73 2.41-3.29 5.84-4.76 9.7-5.32a2.82 2.82 0 0 1 2.37.85c.29.49-.35 1.6-.71 2.37-.62 1.32-1.34 2.58-2 3.86h-.1l-2.14 1.29h0l-10.63 6.65a6.54 6.54 0 0 0-.59.3l-3.59 1.5-.2-.17z"/><path d="M343.67 290.1l-.75 3-4.66-7.31c-1.06 4.1-3.1 4.24-5.75 3.45-2.09-.62-4.34-.64-6.45-1.2-2.66-.71-3.34-2.49-1.23-4.19a21.15 21.15 0 0 1 8.05-4c3.19-.77 6.63-.48 10-.66l.79 10.91z" class="G"/><path d="M379.6 274.9l-2-1.27c.56-.31 1.17-1 1.65-.88l8 1.68c1.68.28 3.45 1.05 5 .74 6-1.19 12.3-1.39 17.72-4.89 1-.62 2.43-.45 3.67-.64-2 4.78-6.72 4.51-10.67 5.57-1.93.52-4 .64-6.92 1.09 3.95 4.1 8.72 3.66 12.44 5.53h.09l.71.57.55.3 1.36 1.27 2 1.5.26 1.13-.15.2-16.38-6.85c-1.6-.62-3.76-.85-2.91 2.24q-3.6-2.06-7.19-4.12l-.28-.2-6.18-2.47-.26-.11zm-1.44-27.06l3.07 9a4.52 4.52 0 0 0 1.6 2.14c4.46 2.89 8.09 7.28 13.86 7.89.28 0 .52.4 2.22 1.84l-3.33 1.34a10.25 10.25 0 0 0-2.3-1.91c-3.93-1.63-7.95-3.05-11.86-4.71a5.53 5.53 0 0 1-2.49-2.27 52.68 52.68 0 0 1-4.14-8.56c-.86-2.6 1.12-3.95 3.37-4.76zm-133.48 62.47a51.83 51.83 0 0 0 6.38-.9c2.5-.66 3.91-2.35 4.26-5.14.38-3 1.22-6.08 4.87-7l-2.12 4.36c-1.44 2.8-1.72 5.49.49 8.07 1.66 1.94 1.11 3.52-1.13 4.29-2.56.87-5.24 2-7.87 1.94-3.75-.01-4.76-1.6-4.88-5.62z" class="E"/><path d="M265.47 310.61c-4.13-.24-6.6-1.88-6.49-4.3s3.3-5.51 5.85-5.42c2.38.08 6.07 3.79 5.91 5.94-.18 2.42-2.32 3.96-5.27 3.78zm-6.93 36.98l-7 .27-1-2.56c-1.52-4.1-1.1-4.83 3.3-5.72l1.33-.32 2 .14 3.83 3.67z"/><path d="M294 302l-6.78 3.48-.68-.57 3.17-5.89 3.83-5.31h0l2.14-1.29h.1l5.21-3.14-.55 7c-5.27.24-5.27.24-6.44 5.72z" class="G"/><g class="E"><path d="M292.9 280l5.35-6.57 6.47-7.51c2.3-3.27 3.51-3.61 6.74-.9-4.89 2-6.82 6.89-10 10.52-2.35 2.57-4.85 4.59-8.56 4.46zm93.1 22c1.16-1.47 1.18-2.7-.42-4a16.39 16.39 0 0 1-2.36-3.12c4.75 3.17 10.09 2.49 15.34 2.36 1.49 0 3-.14 4.47-.21-1.52 1-3.07 2-4.53 3.05s-2.58 2.12-3.87 3.19zm-74 15.11c-1.68 1.53.21 5.13-3.26 5.63.29-2.63 1.11-5.33.79-7.89-1.09-8.55 4.38-12.37 10.67-15.77.29 4.63-3.83 6.09-6.2 8.86-1.37 1.59-2.11 3.73-3.13 5.63.34 1.18.72 2.36 1.13 3.54zm42.66-42.34c.68.41 1.68.68 2 1.29.69 1.33 1.64 3 1.34 4.23-.25 1-2.1 1.92-3.4 2.25a33.15 33.15 0 0 1-5.75.54c-2.33-1.92-.59-2.45 1-2.58 3.67-.29 5.15-2.22 4.81-5.73z"/><path d="M372 292.84l-5.19 2.06-.87-2 5-3.51 1.06 3.45zm23.06-9.68l4.64 6zM350.51 272l4 2.65zm-28.31 24.35l-1.77 1.25.4-2.41zM348.27 270l.88 1.35zm-117.34 49.91l.47.42-.6-.29zm119.55-33.83a.92.92 0 0 1 .44.41.77.77 0 0 1-.44-.41zm43.9-3.57a.56.56 0 0 1 .34.33.56.56 0 0 1-.34-.33zm-81.55-17.39l.75.39zm216.81-21.23l-2.25.66-.23-.77 2.26-.65zM464 308.94l-5.45-3.94zm25.28-8.08l.4.48a2.7 2.7 0 0 1-.7.26c-.06 0-.15-.35-.23-.54zm-31.38 3.78l-2.58-1.64zm10.35 8.36l-1.33-1.18zm-36.72-55.58c.07 5.06-1.33 6.13-6.13 5.06a8.31 8.31 0 0 0-4.29.13c-4.51 1.56-4.9 1.46-6.12-3.06-.06-1.53-.61-3.29 0-4.48.33-.65 2.7-.71 4-.36 2.5.7 4.81 2.12 7.32 2.76 1.6.42 3.45-.01 5.22-.05zm-17.1 9.92l-.17 1.18.17-1.18zm22.7-25.17l-.94 1.71z"/></g><path d="M409.9 282.71l-.55-.3-.71-.57h-.09c-.57-3.28 1.31-5.21 3.84-6.61.91-.5 2.56-.92 3.16-.46a62 62 0 0 1 7.34 6.68c.43.46-.33 2-.51 3.08s-.87 2.45-.43 3.13c2.25 3.56 4.78 6.94 7.21 10.39l-.94 4.75c-1.76-.6-3.58-1.08-5.27-1.83a35 35 0 0 1-3.88-2.34c-.3 1.71-.65 3.42-.88 5.15a5.89 5.89 0 0 0 .27 1.68h0c-1.07.23-2.83 1-3.1.63-1.84-2.44-3.93-5-4.71-7.79-.35-1.27 2.14-3.32 3.36-5l2.34-3.11-.25-1.48-1.37-1.91-.41-.28-1-1-2-1.51z"/><g class="F"><path d="M416.35 290.17l-2.34 3.11c-1.22 1.69-3.71 3.74-3.36 5 .78 2.83 2.87 5.35 4.71 7.79.27.36 2-.4 3.1-.63l-1.25 9.2c-.9 5-.4 5.77 4.66 5.88l-.79 2.17-7.78 2c-.57.18-.8 1.39-1.19 2.13l-1.43 1.73-6.24 4.52-2.77 1.86-5.16 6.52c-.72.32-1.48.57-2.17 1-4.11 2.37-5 1.93-5.73-2.79l5.52-.05 1.06-1.62v-5.42l.85-2 7.22-3.81.46-3 .19-4.89.62-.26 1.46-1a10.14 10.14 0 0 0 1-.39c2.16-1.1 6.2-2.39 6.12-3.29-.33-3.54-1.92-7-3.14-10.39-.21-.61-.85-1.07-1.32-1.58-3-3.23-3-4.34.45-7.2a65.86 65.86 0 0 1 7.25-4.59z"/><path d="M366 292.9l.87 2 5.77 24c.45 1.8 1.69 3.39 2.45 5.13s1.29 3.38 1.92 5.08a29.12 29.12 0 0 0-4.38-.83c-1 0-2.68.25-2.85.78a4.18 4.18 0 0 0 .5 3.41c.44.57 2.18.68 3 .29a26.48 26.48 0 0 0 4.16-3l3.65-.2c2.43.42 3.41-.86 3.46-3.07l-.18-4.14 4.2-1.84c2.93-1 3.54-3.13 1.25-5.22a32.61 32.61 0 0 0-5.16-3.48c-2.45-1.48-4.05-3.4-3.89-6.43l3.81-2.3.24-.14.7-.48.08-.08a6 6 0 0 0 .4-.38l8.63 1.27c3.34 1.46 2.95 4.84 3.73 7.57 0 .17-1.85 1.38-2.32 1.13-2.41-1.28-3 .32-3.19 2-.32 2.84-.3 5.72-.42 8.58l-1.8.9q-.87 5.28-1.75 10.57l-3 2.62-1.49.39c-2.59 2.26-2.39 4.18.45 5.77a31 31 0 0 1 3.64 2.75l-2.2 2.45c-2.61 0-2.52 1.13-1.33 3 2.19 3.43 1.81 4.73-1.7 6.79l-3 1.63h-2.19l-4-1.33-3.23-1.13-7.45.16-4-1.1h-.13l-1.66-2.54c-1.91-.85-3-1.91-1.91-4.27 2.27-4.71 2.9-9.08-2.45-12.53-2-1.3-.91-3.29.46-4.78l4-1.91c3.32.94 5.71 0 7.5-3.12.83-1.42 2.39-2.42 3.63-3.6 2.61-2.47 2.57-3.65.05-6.19-1.45-1.46-2.69-3.11-4-4.67l.84-3c1.07-2.31.26-3.53-2.15-4.17a26.76 26.76 0 0 1-4.2-1.91c.85-2.28 1.41-4.71 2.63-6.77.88-1.49 2.62-2.46 4.01-3.66zm-42.79 106.45c-6.79-3.2-11 2.5-16.14 4.77l-2.49.59c.62-1 1.29-1.88 1.84-2.88a4.51 4.51 0 0 0-2.08-6.63c-.93-.46-1.92-.79-2.82-1.29-4.74-2.65-4.83-5.32-.3-8.42a11.78 11.78 0 0 1 1.87-.86c2.94 2.34 5.77 4.84 8.89 6.93.93.63 2.63.15 4 .11l6.46-.3 1.42 1.57 1.08-.33c-.51-3.9-.43-8-1.65-11.66-1.69-5-3.28-5.13-7.94-2.45-3.06 1.77-6.36 3.14-9.55 4.69l.12-.07-1.48.57c.67-1.3 1.07-2.86 2.05-3.84 2.41-2.4 2.17-4.45-.41-6.32s-2.57-3.81-2.29-6.84-1.5-6.48-2.6-10.54l-3.41 3.58-.64-.52c.1-1.9.62-3.9.17-5.65s-1-3.2.92-3.56a6.65 6.65 0 0 1 4.41 1.26c.89.61 1.14 2.14 1.68 3.26l.42 3.08 4.64-4.36a67.17 67.17 0 0 0 6.94.33c2.82-.13 4.67.61 4.8 3.75l-.24.77-1.27 1.81-2.87 1-2.65 1.64 2.55 2.84-4.46 1.33-.08 1.17 4.89.94 9 5.24c0 .22 0 .45-.05.68-.22 6.4.07 6.66 6.46 5.83l7.67 4.66-5.84 6.35c-2.55 2.46-4.63 5.55-8.77 5.72-.82.07-1.52 1.35-2.25 2.05z"/><path d="M285 329.54a29.35 29.35 0 0 1 5.08.46c2.39.63 4.38 1.91 4.81 4.71.22 1.45.59 3 2.56 1.43l4.19-2.77 4.5 2.64 4.51-.87 3.23 3.2-3.59 3.32-7.14-.7c-2.44-1-3.87-.28-3.93 2.42s-1.48 4.13-3.93 5a34 34 0 0 0-7.5 3.5c-1.06.72-2.08 3.25-1.6 4.14a59.14 59.14 0 0 0 6.15 8.77c1.21 1.5 2.55 1.55 3.2-.72l1.61-4.89.64.52c-1.05 5.67-1 11.58-4.5 16.65-1.41 2.05-2.15 4.55-3.2 6.85l-.34-3.67a19.41 19.41 0 0 0 .14-4.09c0-.26-1.85-.24-2.84-.35l-1-3.7 2.31-3.31-.62-.86-4.74 1.29-8.12.94c-.13-.37-.25-.74-.37-1.11 3.55-3.42 5.6-7.4 5.29-12.53-.13-2.17-.61-3.58-2.94-3.83a36 36 0 0 1 2.7-3.83c1.86-2 4-3.83 5.82-5.88 2.91-3.26 2.71-4.35-1-6.58a20.61 20.61 0 0 0-2.17-1l1.23-4 1.34-1z"/></g><path d="M353.75 331.87c-1.37 1.49-2.47 3.48-.46 4.78 5.35 3.45 4.72 7.82 2.45 12.53-1.14 2.36 0 3.42 1.9 4.27l1.67 2.54h.13c-1 .25-2.37 1-2.81.65-1.76-1.46-3.15-.93-4.69.18l-7.18 5c-.29-1.65-.81-2.81-.62-3.83.93-5.05.49-5.72-4.69-6.28-.55-.06-1.09-.21-2.52-.49 5.45-4.17 1.21-8.28.48-12.49a33.73 33.73 0 0 0 5.14-1.79 27 27 0 0 0 3.85-3c-1.08-1.11-2-2.49-3.25-3.27-3.12-1.92-3.53-5.23-5.6-8.1 5.07 2.26 9.47 4.08 13.71 6.21 1.08.51 1.68 2.02 2.49 3.09zm-56.63 27.34l-1.61 4.89c-.65 2.27-2 2.22-3.2.72a59.14 59.14 0 0 1-6.15-8.77c-.48-.89.54-3.42 1.6-4.14a34 34 0 0 1 7.5-3.5c2.45-.9 3.87-2.31 3.93-5s1.49-3.44 3.93-2.42q.58 6.78 1.18 13.57c-.54-1.13-.79-2.66-1.68-3.27a6.65 6.65 0 0 0-4.41-1.26c-1.88.36-1.34 1.92-.92 3.56s-.07 3.72-.17 5.62zm13.14-17.55l3.59-3.32-3.23-3.2q9.54-2.89 19.08-5.78a47.43 47.43 0 0 1 5.67-1.51 3.82 3.82 0 0 1 2.4.81 55.6 55.6 0 0 1-1.11 5.55 9.84 9.84 0 0 1-2.6-1 18.82 18.82 0 0 1-2.46-2.77l-3.71 5.83c-1.85 2.41-4 4-7 1.42-1.58-1.36-2.87-.76-3.46 1-1.26 3.96-3.93 4.09-7.17 2.97z" class="E"/><path d="M312 317.11l-1.13-3.54a29.26 29.26 0 0 0 4.09-.19 29.71 29.71 0 0 1 15.71 1.45c0 3.54-2.4 5.25-5.26 6.4l-8.34 2.92zm29-13.76l-.61-3.32c3.6-.2 10 4.83 11.17 8.54a4.34 4.34 0 0 1 .31 1.34c0 1.8-.12 3.59-.19 5.39a67.1 67.1 0 0 1-7.11-1.37c-1.34-.41-2.46-1.52-3.68-2.31-.01-2.76.02-5.52.11-8.27z" class="F"/><path d="M325.93 374.1l-9-5.24a55.5 55.5 0 0 0 6.19-.19 11.54 11.54 0 0 0 4.36-1.42c2.18-1.28 8.64-1 10.41.79 1.28 1.28 2 2.7.1 4l-8 5.56c-3.05-.18-.38-4.67-4.06-3.5zm28.98 17.56l-1.53-4.44c-.74-2.63-1.72-5-4.52-6.16a2.91 2.91 0 0 1-1.18-1.84c-.09-.31.56-1.15.94-1.2 3.58-.41 7.18-1.07 10.75-.94 4 .14 4.64 1.65 2.61 5.11-1.9 3.24-4 6.37-6 9.55zm5.82 3.15c3.41-7.08 14.38-10 19.68-4.81a12.74 12.74 0 0 0-2.64 1.37 35 35 0 0 0-3.94 4.05c-2.25 2.82-4.37 5.76-6.54 8.64l2.63-6.24c1.18-2.94-.05-4.81-3.22-4.52a37.57 37.57 0 0 0-5.97 1.51z" class="E"/><path d="M360.73 394.81a37.57 37.57 0 0 1 6-1.51c3.17-.29 4.4 1.58 3.22 4.52l-2.63 6.24-.21.25-4.3 1.23-.94-.76-4.91-7.06.9-.48 2.75-2.22z" class="F"/><path d="M380.25 359.36l3-1.63c3.51-2.06 3.89-3.36 1.7-6.79-1.19-1.86-1.28-3 1.33-3 .27.86.29 2.15.87 2.49 5 2.93 2.61 8.11 3.85 12.15a1.56 1.56 0 0 1-.71 1.35 2.4 2.4 0 0 1-1.85-.41 5.19 5.19 0 0 1-1.2-2c-.91-2.46-1.81-4.59-4.71-1.68-.3.28-1.53-.31-2.28-.48zM317 324.15l8.34-2.92c2.73-1.1 5.23-2.86 5.26-6.4l7.68.7c-.09.79 0 1.15-.15 1.21-3 1.69-6.05 3.25-9 5a22.66 22.66 0 0 0-4.48 3.55c-2.8 3.02-6.46 3.05-7.65-1.14z" class="E"/><path d="M418.7,363.67l-2.23.66-3-.83-1.13-.77-1.15-.46c3-1.47,4.82-3.52,4.19-7.25-.4-2.42,1.4-3.08,3.5-3l.13.06,3.7,6.83Z" class="F"/><path d="M363.4 357.1l7.45-.16-6 6.5c-1.66 1.7-4 2.42-5.16.14-.59-1.18 1-3.53 1.8-5.24.26-.59 1.24-.84 1.91-1.24zm-38.65.96c1.63-.39 3.39-1.34 4.86-1 1.32.3 2.31 2 3.45 3.1l-4.36 3.86c-.11.08-1.09-.61-1.38-1.11-.73-1.25-1.29-2.6-1.92-3.91zM340 385.27l-7.67-4.66c3.39-.57 6.78-1.46 10.19-1.6 1.91-.07 2.29 1.85 1.11 3.27a23 23 0 0 1-3.63 2.99zM306.11 336l-4.5-2.64 1.31-1.12c3.36-2.38 3.36-2.37-.36-6 1.81-.34 3.58-1.17 4.18-.66a5.23 5.23 0 0 1 1.7 4c-.33 2.2-1.51 4.29-2.33 6.42zm14.99 21.32c-.13-3.14-2-3.88-4.8-3.75a67.17 67.17 0 0 1-6.94-.33c.87-2.06 1.58-3.7 4.49-1.92 1.43.89 3.78.39 5.71.34a27.87 27.87 0 0 0 3.87-.67c.82 2.93-.08 4.88-2.33 6.33zm45.44 14.42c-2.38-4.34-1.86-5.61 2.81-7.05l-2.81 7.05zm-49.92-6.32l-2.55-2.84 2.65-1.64 3.18 4.15zm57.46-7.35l4 1.33c-2.24 2.24-2.95-.04-4-1.33zm-11.3 47.47l4.3-1.23c-1.19 1.27-1.99 3.87-4.3 1.23zm-2.2-10.54l-2.75 2.22zm-40.99-35.1l1.27-1.81-1.27 1.81zm92.76 2.83l1.13.77z" class="E"/><path d="M274.91 369.45l8.12-.94 3 2.91 1 3.69q1.37 2.22 2.71 4.45l.34 3.67-.3 2.06c-1.07.59-1.25 3.66-3.4 1.21.58-8.07-1.32-11.27-8.61-14.8a16.23 16.23 0 0 1-2.86-2.25z" class="G"/><path d="M322.42 391.37l-6.46.3c-1.35 0-3 .52-4-.11-3.12-2.09-6-4.59-8.89-6.93l1.33-.94 1.48-.56a.29.29 0 0 1-.09.45c.6.28 1.34.95 1.77.79 3.32-1.27 6.1-1.09 8.25 2.19.31.48 1.47.52 2.25.56 2.74.16 4.25 1.48 4.36 4.25z" class="E"/><path d="M302.94 406.1l-1.15 1.33 1.15-1.33zm1.54-1.3l-1.37 1.14zM429.42 341c.84 1 2.23 1.88 2.42 3a15 15 0 0 1-.28 5.82 9.16 9.16 0 0 0 1.4 7.83 22.49 22.49 0 0 1-4.23-.85c-2.56-1-2.16-3.07-1-4.82 2.19-3.44 2.15-7.14 1.69-10.98zm7.37 17.82c.83 1 2.45 2.13 2.35 3.05a55.3 55.3 0 0 1-2 8.08l-.7-7.09a28.94 28.94 0 0 1 .35-4.04z" class="F"/><path d="M422.72 358.92l-3.7-6.83c3.59 1.79 4.7 3.85 3.7 6.83z" class="E"/><path d="M434.3,357.59l2.12,1Z" class="F"/><path d="M396.51 341.44l5.16-6.52c3.92.57 5.72 3.59 7.33 6.64.82 1.56-3.05 6.76-5 7-3.49.44-7.9-3.7-7.49-7.12z" class="G"/><path d="M458.33 363l-1 7.08 1-7.08z" class="F"/><path d="M452.44,374.2l-.06-.06Z" class="G"/><path d="M274.91 369.45a16.23 16.23 0 0 0 2.84 2.25c7.29 3.53 9.19 6.73 8.61 14.8-5.05-.85-8.62-3.48-10.55-8.36a20.87 20.87 0 0 0-2.83-4.3c-1.28-1.76-1.72-3.51-.29-5.38l1.85-.12.37 1.11z" class="E"/><path d="M250.3 375.64c4.82-2.8 6.31-8 8.84-12.4.61-1.07 1.35-2.07 2-3.11-.57 3-.94 6.08-1.77 9s-2.09 5.72-3.49 9.43zm28.01 33.09l1 1.15zm-34.69-71.62l-4 5.88c-.19-2.99.87-5.14 4-5.88zm-4.23 6.69l1.49 4.9c-2.64-.98-3.88-2.37-1.49-4.9zm3.05 8.69l1.15 3.34zm-1.04-2.91l.86 2z" class="F"/><path d="M359.37 303.32a26.76 26.76 0 0 0 4.2 1.91c2.41.64 3.22 1.86 2.15 4.17a26.38 26.38 0 0 0-4.38-1.37c-3.77-.5-4.23-1.46-1.97-4.71zm44.57 15.5l-.19 4.89c-.07 1-.3 2-.46 3-.47-1.62-1.31-3.23-1.31-4.85.02-1.04 1.26-2.04 1.96-3.04zm-18.05 17.76l3-2.62z" class="E"/><path d="M414.73 286.78l1.37 1.91-1.7-1.33z" class="F"/><path d="M395.19 337.94l-1.06 1.62zm.88-7.46l-.85 2 .85-2zm-5.4-7.09l1.8-.9zM406 317.6l-1.46 1zm8.73-30.82l-.33.58-1-.55.15-.2.78-.11z" class="E"/><path d="M243.22,347.12c3.6,1.39,6.77,3.2,8,7.33.56,1.86,1.68,3.54,2.42,5.36.51,1.27,1.22,2.69,1.06,3.94-.21,1.53-1.23,2.95-1.9,4.42-1.08-.9-2.63-1.57-3.15-2.72-2.67-5.83-5.07-11.79-7.56-17.7Z" class="G"/><path d="M255.26 339.26l-1.33.32c-4.4.89-4.82 1.62-3.3 5.72l1 2.56c-1.73-1.05-3.88-1.78-5-3.28-.53-.71.48-3.42 1.55-4.29 1.93-1.6 4.38-3.02 7.08-1.03z" class="F"/><path d="M380.75 305.39c-.16 3 1.44 4.95 3.89 6.43a32.61 32.61 0 0 1 5.16 3.48c2.29 2.09 1.68 4.23-1.25 5.22a29.2 29.2 0 0 0-2.72-4c-1.93-2.06-4.2-3.79-6.09-5.88s-1.57-3.93 1.01-5.25zm-3.33 24.38a26.48 26.48 0 0 1-4.16 3c-.83.39-2.57.28-3-.29a4.18 4.18 0 0 1-.5-3.41c.17-.53 1.86-.83 2.85-.78a29.12 29.12 0 0 1 4.38.83zm6.93-7.41l.18 4.14c0 2.21-1 3.49-3.46 3.07.14-1 .7-2.14.34-2.85-1.69-3.39.52-3.9 2.94-4.36zm.45-19.36l-.24.14zm.78-.61l-.08.08z" class="E"/><path d="M293.54 293.73l-3.83 5.27-6.8 1.35zm-14.81 8.45l3.59-1.5c-.88 1.25-1.32 3.52-3.59 1.5zm-2.62-3.13l2.42 3-2.42-3z" class="F"/><path d="M283.5,330.63l-1.23,4c2.14,5.77.72,9.33-6.21,13.49.75-3.69.92-6.75,2-9.43,1.35-3.29,1.95-6.06-.86-8.86-1.3-1.3-.92-3,1-2.77,2.31.31,4.49,1.6,6.73,2.46l-.13.13Z" class="G"/><path d="M380.45 275.41l6.18 2.47zm-.85-.51l.59.4zm-83.94 17.56l-2.14 1.29zm114.24-9.75l1.36 1.27zm4.42 3.79l-.78.11-.26-1.13zm-5.68-4.66l.71.57z" class="F"/><path d="M359.31 356l-1.67-2.54 1.67 2.54zm-36.89 35.37c-.11-2.77-1.62-4.09-4.34-4.25-.78 0-1.94-.08-2.25-.56-2.15-3.28-4.93-3.46-8.25-2.19-.43.16-1.17-.51-1.77-.79a.74.74 0 0 1 0-.39c3.19-1.55 6.49-2.92 9.55-4.69 4.66-2.68 6.25-2.57 7.94 2.45 1.22 3.66 1.14 7.76 1.65 11.66l-1.08.33z" class="G"/><path d="M305.78,383.19a.74.74,0,0,0,0,.39.29.29,0,0,0,.09-.45Z"/><path d="M286 371.42l-3-2.91 4.67-1.26.62.86zm3.72 8.14q-1.35-2.24-2.71-4.45c1 .12 2.81.1 2.85.36a19.41 19.41 0 0 1-.14 4.09zm-6.22-48.93l1.34-1z" class="E"/></svg>