<svg xmlns="http://www.w3.org/2000/svg" viewBox="0 0 720 720" xmlns:v="https://vecta.io/nano"><style><![CDATA[.D{fill:#9e2a43}.E{fill:#610e1c}.F{fill:#d9877e}]]></style><path d="M0 0h720v720H0z"/><path d="M389.68 606.9c-.47 2.21-1.38 4.43-1.35 6.63.41 32.72-3.19 65.23-5.13 97.82-.17 2.88-.16 5.77-.24 8.65h-27.78a28.46 28.46 0 0 0 1-4.28l4.36-62.88c1-21.2 1.07-42.44 1.29-63.67 0-4.19-1.14-8.39-1.75-12.59.07-2.53.09-5.09 3.21-6.31a25.22 25.22 0 0 1 1.64 2.28 139.51 139.51 0 0 0 21.74 29.37c1.33 1.34 2.02 3.3 3.01 4.98z" class="D"/><path d="M389.68 606.9c-1-1.68-1.69-3.64-3-5a139.51 139.51 0 0 1-21.74-29.37 25.22 25.22 0 0 0-1.64-2.28c-3.12 1.22-3.14 3.78-3.21 6.31-3.71 3-7.81 5.69-11.05 9.15-9.31 9.95-19.31 19.25-31.52 25.13-9.56 4.61-19.71 8.58-30.58 9.63a13.36 13.36 0 0 0-4.42.76c-4.85 2.3-8.48-.15-12-2.89-4.85-3.81-9.84-7.5-14.28-11.76a62.37 62.37 0 0 1-16.67-26.24c-2.23-7.08-2.94-14.63-4.54-21.93-2.65-12.11-.22-23.81 2.57-35.51l2.73-11.36a6.48 6.48 0 0 0-.5-2.43 7.78 7.78 0 0 0-2 .9c-8.15 7-15.81 14.58-24.5 20.75a67.83 67.83 0 0 1-31.94 12.41c-3.48.38-7.22-1.05-10.75-2-2.21-.58-4.17-2.25-6.38-2.62-4-.66-5.42-3-6.43-6.58-2.58-9.21-1.85-18.26 0-27.45 1.73-8.47 5.25-16.19 9-23.86a36.31 36.31 0 0 0 1.3-3.88c-3 .69-5.21.9-7.19 1.74-9.88 4.15-19.5 9-29.57 12.6-12.41 4.47-25.28 8.27-38.62 6.18-5.94-.93-11.56-4.29-17.12-7-1.36-.66-2.47-2.94-2.7-4.62-1.19-8.44-3.11-17-2.8-25.38.53-14.25.92-28.74 6.38-42.27 1.53-3.78 4.37-7 6.53-10.54a34.85 34.85 0 0 0 1.79-3.87c-1.84-.39-3.16-.8-4.51-.94-8-.82-12.57-5.89-15.38-12.79-2.41-5.95-4.66-12-6.51-18.15-2.08-6.88.16-13.51 2.32-20C66 336.35 74.84 323 85.33 310.71c1-1.22 1.32-3.07 2-4.63 3.92 2.44 4 2.52 1 5.68a117.87 117.87 0 0 0-19.39 28c-4 7.91-8.78 15.74-7.64 25.38.56 4.69.21 4.58 5 5 1.48.12 4.12 1.4 4.09 2.05-.12 2.88-.39 6.1-1.79 8.5-1.79 3.08-2.2 8.24-.09 11.14 3.08 4.24 5.86 8.71 12.17 7.86.2 0 .42.18.64.26 6.6 2.29 15.82-.28 18.7-6.44 2-4.19 3.86-4.73 8-4.25 5.9.67 12 .16 17.93.13.69 0 1.37-.21 2-.27l11.62-1c.67-.05 2 .59 2 .93a3.63 3.63 0 0 1-1 2.3c-3.33 3.51-6.73 6.94-10.14 10.37-12 12.11-15.24 26.41-10.43 42.61.35 1.21 1.48 3 2.44 3.09 5 .69 9.66 2.8 15.23 2a220.18 220.18 0 0 0 22.33-4.55c2.23-.58 4.56-.78 6.78-1.38 7.25-1.93 15.81-1.25 19.83-10.14-.5-.16-1.25-.68-1.83-.54-4.68 1.19-9.35 2.44-14 3.79-2 .58-3.82 1.69-5.82 2.12-5.4 1.14-10.87 1.94-16.26 3.08a28.54 28.54 0 0 1-15.3-.8c-4.42-1.47-5.07-2.68-2.48-6.66 3.72-5.69 8-11.05 11.53-16.83a9.34 9.34 0 0 0 1.11-6.81c-1.13-3.68.2-6 2.08-8.89s3.23-6.48 4.64-9.82 2.43-7 4.1-10.33c1.89-3.73 4.43-7.12 6.39-10.82.39-.72-.38-3-.93-3.14a64.47 64.47 0 0 0-11.13-1.59c-2.8-.1-5.63.74-8.46 1.05-2.29.25-4.62.2-6.9.51l-36.3 5.14c-4.34.7-7.08-1.65-10.55-3.48 2.35-4 5.84-5.21 9.5-6.47 1.37-.48 2.31-2.17 3.45-3.31a40.33 40.33 0 0 0-3.63-2.5 4 4 0 0 0-2-.07c-3.36.3-7.25-2.38-8.33-5.8-.82-2.59.78-5.24 4.31-7 .82-.41 1.76-.57 2.61-.93 2.68-1.11 4.68-3.06 4.35-6a29.55 29.55 0 0 0-2.41-9.25c-2-4.25-1.48-7 2.9-8.64 5.6-2.14 11.21-4.32 17.45-3.57a24.71 24.71 0 0 0 4.81-.39c3.79-.33 7.58-.8 11.38-.91 2.59-.08 3.34 1.41 2.14 3.55-2.1 3.71-4.08 7.48-6.28 11.12-5.26 8.7-2.85 16.72 2.05 24.53a3 3 0 0 0 1.71 1.05l38 8.11c2.85.58 5.82.49 9.58.78-2-1.5-3.35-2.14-4-3.21-.35-.54.38-2.63.87-2.72 6.83-1.28 11.5-6.06 16.64-10.07.51-.4.72-2.26.38-2.51-2.73-2-1.87-4.34-1.12-6.87s-.48-3.8-3-3.35c-.74.13-1.46.38-2.18.58l-.48-.75a10.4 10.4 0 0 1 1.89-1.46c4.14-2 8.33-3.81 12.46-5.79a2.19 2.19 0 0 0 1.1-1.54c.1-3.32.05-6.64.05-10.8-3 1.26-6.43 2-9 4-7.73 5.82-15.07 12.16-22.66 18.17-2.86 2.27-6 4.17-9 6.23l-3.29 1.23c-1.69-2.22-3.61-2.77-6.37-1.67a8.12 8.12 0 0 1-5.7.3c-1.57-.69-3.6-2.92-3.5-4.35.23-3.48.87-7.31 2.63-10.22 2.46-4 1.93-7.53.42-11.42s-1.82-7.32 1.45-10.54c1-.95 1.3-2.56 1.91-3.83-3.32-1.93-4.31-9.7-1.63-11.92a43.82 43.82 0 0 1 6.7-4.19c2.5-1.41 5.21-2.48 7.62-4 2.84-1.81 2.54-3.36-.26-5.05-5.74-3.47-12.15-3-18.16-2.3-4.45.52-8.59 3.51-12.94 5.22-1.1.44-3 .73-3.57.14a3.71 3.71 0 0 1-.3-3.61 21.92 21.92 0 0 1 5.23-4.6c1.73-1.12 3.85-1.55 3.73-4.32-.19-4.2 1-5.77 5.18-6.83 2.11-.54 4.54-.42 6.35-1.44 2.79-1.57 5.05-1.08 7.43.47 4.24 2.76 8.31 5.83 12.73 8.26 6.86 3.77 14 7 20.93 10.65 4.89 2.58 9 6.54 15 7 5.37.39 10.66 1.77 16 2.72l-.9 14.64c0 .52.6 1.19 1.09 1.61l10.48 9c5.26 4.34 10.62 8.54 18 8.16a16.23 16.23 0 0 0 3.25 1.58c4.6 1.08 9.21 2.12 13.86 3a22 22 0 0 0 6.17.22 4.85 4.85 0 0 0 3.12-1.8c2.83-4 5.47-8.22 8.11-12.4.53-.84 1.24-2 1.06-2.78-1.2-5.72-2.47-11.42-4-17.05-.87-3.2-2.29-6.25-3.51-9.48l-3.16 9.21a24.49 24.49 0 0 1-2.08 2.23c-8 6.8-17.42 9.56-27.7 10 .81-5.83 4.81-9.88 8.38-14a27.84 27.84 0 0 1 8.83-6.75c2.8-1.33 4.67-2.23 5.31-5.73 1-5.32 3.62-6.23 8.17-3.2a44.32 44.32 0 0 1 7.54 6.55c4.54 4.8 6.8 5.47 11.76 3.19 10.68-4.92 18.22-12.37 20-24.92H300.9l-14.1-4c1.47-1 3.4-1.72 4.33-3.1 2.93-4.37 6.2-8.22 10.92-10.78a14.87 14.87 0 0 0 3.89-3.71c1.61-1.91 3.13-3.57 5.73-1.48 1.63 1.31 2.72.3 3.14-1.15.85-2.92 3-3.88 5.64-4.27l-1.05 6.79c-1.23 3.59-3 7.1-3.54 10.79-.44 2.86-.06 6.3 3.85 7.38a16 16 0 0 0-1.23 3.84c-.21 3.18-1.34 6.08-4.06 7.47-3.9 2-4.47 5.08-4.2 8.8a48 48 0 0 0-.28 5.6c.16 2.64-.53 4.3-3.31 5.17a53.64 53.64 0 0 0-7.11 3.38c-8.52 6.76-10.59 15.81-9.55 26.11.21 2-.56 4.14-.78 6.23-.1 1-.38 2.4.13 3 4.29 5.19 8.75 10.24 13.15 15.33-1.06 1-2.09 2-3.2 2.87l-8.62 6.89a26.94 26.94 0 0 0-4.53 15.66c.41 10.35 5.28 18.88 11.06 27 .91 1.28 1.93 3.09 3.2 3.39 6.17 1.48 12.23 4 18.8 2.85l3.08.06 6.13.23-4.15 6.23a3 3 0 0 1-.08-1c1.19-3.87 1.14-4.11-2.88-4-5.14.17-10.27.56-15.39 1a3.47 3.47 0 0 0-2.24 1.82c-1.27 2.65-2.31 5.42-3.41 8.15-1.34 3.3-2.46 6.7-4 9.87-1.41 2.83-.87 4.75 1.95 6.41 2.13 1.25 3.82 3.28 6 4.4s5.07 2.62 7.46 2.35c2.66-.3 4.09-2.94 4.13-6 0-1 1.24-2 1.92-3-.1 3.09-.67 6.25-.21 9.25 1.48 9.61 4.3 18.79 10.19 26.77l4.58 6.39c-.93-.36-2.09-.48-2.75-1.12-5.46-5.35-8.84-11.94-11-19.22-.72-2.42-1.31-4.88-2-7.3s-2.28-2.83-4.2-1.43c-3.29 2.41-6.5 4.93-9.69 7.47-11.94 9.49-15.41 22.39-14.64 36.91a6.33 6.33 0 0 0 4.94 6.31 13.66 13.66 0 0 1 5.23 3.64c3.07 3.07 5.94 6.35 8.82 9.61 2.23 2.52 4.35 2 6.61.05 1.31-1.11 2.64-2.65 4.17-3 4.86-.95 7.67-4.9 10.41-7.95 4.75-5.3 9-11.43 9.07-19.24a33.41 33.41 0 0 0 5.21-1.45c2.81-1.3 5.51-2.86 8.23-4.37 10.58-5.89 18.95-13.75 22.5-25.77a11.8 11.8 0 0 0 0-3.41c-1.2.48-2.77.62-3.54 1.48a101.8 101.8 0 0 0-8.13 10.08c-3.56 5.21-7.56 9.82-13.07 13.07-3.51 2.08-7.22 2.11-10.51-.25a25.9 25.9 0 0 1-9.92-13.91c-2.6-8.27-1.49-16.7-1-25.07.11-2.06 1.63-4.05 2.51-6.08a30.93 30.93 0 0 1-.56 5.81 25.27 25.27 0 0 0 1.66 18.15c2.84 5.92 7.92 10.06 14.12 12.62 5.15 2.14 9.84 1 12.88-3.48 3.27-4.85 6.71-9.67 9.32-14.88a115.28 115.28 0 0 0 7.17-17.9c2-6.64-2.64-17.27-8.46-21.1-2.23-1.47-4.39-3-6.69-4.63.61-.55.76-.79.95-.83 10.23-2.38 20 8.77 19.68 16.22a17.23 17.23 0 0 0 .31 5.52c2.42 8.34.27 16.21-1.95 24.17-.67 2.39-.18 5.1-.28 7.66a4.82 4.82 0 0 1-.48 2.19c-1.39 2.24-3 4.36-4.38 6.61l-6.51 10.91-3.34 5.55c-.95 1.55-2.37 3-2.76 4.63a21.89 21.89 0 0 0-.08 6.57c.48 5.94 5.39 10.3 11.08 11.39a27.27 27.27 0 0 1 11 4.64c4 3 8.44 4.2 13.12 4.83a10 10 0 0 0 10.1-4.8c2.86-4.82 5-10 4.68-16a111 111 0 0 1 .24-15.58c.47-5.35 4.61-10.67-.3-15.91-.05-.06 0-.22 0-.34l7.87 4.79 4.1 16.06c1.77-4.85 1.05-9.77-.77-14.62.73.36 1.67.53 2.13 1.1 3 3.59 5.65 2.56 8.34-.31a6.32 6.32 0 0 1 1.38-1c12.75-7.39 18.63-18.92 20-33.17l1.2-.14c-.31 3.84-.53 7.68-1 11.5a124.21 124.21 0 0 0 5 50.32c.63 2.06.7 4.37 1.65 6.25 1.36 2.7 3.41 5.05 5 7.67 2.63 4.42 6.76 5 11.13 4.1 3.55-.71 4.74-3.67 5-7.05a7.69 7.69 0 0 1 .64-2 34.68 34.68 0 0 0 .52-22.69c-.45-1.42-.95-2.82-1.28-4.26l-3.53-16c-1.13-4.91-2.52-9.66-1.75-14.91.81-5.52.72-11.19.88-16.8a3.5 3.5 0 0 0-1.17-2.43c-4.24-3.4-7.63-8-13.37-9.28-2.93-.66-4.29.24-4.68 3.3-.43 3.4-1 6.79-1.58 10.16-.1.51-.89.89-1.36 1.34-.51-4.66-.87-9.34-1.57-14a5.29 5.29 0 0 0-4.38-4.69c-7.31-1.72-7.46-1.73-9.44 5.41a16.58 16.58 0 0 0-.59 1.62c-.7 4.54-1 9 1.3 13.3l-.25 7.57-.74 3.62-.26 2.59-.67.65-12.16 2.62c-3.49.65-7 1.06-10.54 1.57-5.43-6.68-10.36-13.65-12.69-22.11a35.89 35.89 0 0 1-.42-5.44c.22-3.31.73-6.59 1.12-9.88l1.48 16.1a7.07 7.07 0 0 0 5.9 6.48c6.61.94 13.38.79 19.8-1.49 3.8-1.36 5.26-4.05 4.9-8.1-.44-4.9-.74-9.83-1.59-14.66-.59-3.32-1.24-7.16-3.29-9.53s-6-4.65-8.88-4.36c-6.77.7-12 4.8-15.54 10.86a12.46 12.46 0 0 1-2.21 2.27c.58-1.8 1.29-4.07-1.11-4.56-1.1-.23-2.78 1.64-3.94 2.81a3.91 3.91 0 0 0-.81 2.58c0 3.51-1.72 6.1-3.95 8.55a7.36 7.36 0 0 0-1.72 2.9c-1.16 4.32-3.85 8.38-2.36 13.17-5.37-3.61-4.71-16.22-.8-21.23 2.33-3 4.84-5.8 7.12-8.81.69-.92 1.39-2.4 1.1-3.3-.23-.7-2-1.33-3.07-1.26-9.76.62-18.32-2.65-26.15-8.09-1.39-1-2.08-2.94-3.09-4.45l4.09 1.91.14.14c1.11 3.29 4 3.88 6.86 4.58a.53.53 0 0 1 .29.2.37.37 0 0 0 .49.31l5.44 2.2c9.09 3.81 17.68 2.57 25.88-2.57 3.62-2.5 7.17-5.12 6.89-10.18-.21-3.9-.69-7.78-1.06-11.67l1.56-4.65c1 .36 2.16.48 2.86 1.13 3 2.78 6.5 3.26 10.32 3 4.6-.26 9.27-1 13.81-.58 9.35.89 17.17-2.8 24.83-7.23.8-.47 1.1-1.8 1.63-2.73 2-1.84 2.36-4.16 2.3-6.76a41.67 41.67 0 0 1 .59-5.64q1.78-4 3.55-7.95l.61-.62a3.26 3.26 0 0 0 1-.16c8.58-4.56 15.35-11.23 21.45-18.64.36-.43.19-1.3.26-2l.36-1.06c1.25.07 2.72.6 3.72.12a25 25 0 0 1 13.25-2.52 97.7 97.7 0 0 1 11.46 1.55c.86.18 1.87 2.07 1.91 3.2.19 4.75-2.16 8.35-6 11-2.5 1.72-3 3.47-1 5.65 3.9 4.24 7.35 8.75 9.44 14.17-8-3.15-14.41-8.39-20.32-14.42-3.26-4.42-8.67-7.81-6.44-15-1 .33-1.52.35-1.76.63q-6.69 7.76-13.29 15.57c-.34.41-.35 1.09-.57 1.63-.93 2.27-1.59 4.72-2.89 6.76-3.06 4.82-1.53 9.29 3.91 10.83 3.63 1 7.48 1.68 10.75 3.41 5.11 2.7 6.41 9.53 2.78 12.59-1.17 1-2.86 1.36-4.34 2a6.22 6.22 0 0 0-3.43 8.53l9.49 18.67c1 2 .78 3-1.36 4a62.82 62.82 0 0 0-6.75 4.23A71.14 71.14 0 0 1 474.06 383q-1.56-5.16-3.13-10.3c1.95 3 4.39 5.83 5.74 9.09a18.91 18.91 0 0 0 8.86 9.88 3.28 3.28 0 0 0 2.32.36 7.31 7.31 0 0 0 3.35-2.1c.37-.52-.27-2.25-.95-3-2.54-2.66-5.24-5.19-8-7.66s-3.72-5.69-2.3-9.32c.25-.64.87-1.28.81-1.87-.18-1.86 0-4.68-1.06-5.32a9.52 9.52 0 0 0-6.49-.66c-1 .22-1.64 2.65-2 4.19a29.15 29.15 0 0 0-.35 5.14L467 364l-7.36 9.1c-2.91 3.38-5.63 7.08-9.08 9.82-2.9 2.31-3.74 2.75-1.12 5.45 1.95 2 2 3.57 1.21 6.05-1.26 4 1 7.51 5 8.88 1.19.4 2.3 1.1 3.51 1.44l18.51 5.05q16.82 3 33.64 5.94c1.91.33 2.89-.4 3.26-2.53.28-1.65 1.43-3.17 2.27-4.7.67-1.2 1.58-2.27 2.16-3.51a48 48 0 0 0 4.33-21.77l14.09 1.18 15.07 1.48 1.5.49 1.27.2 38.88.88c2.31 2.27 3.77 4.88 3.42 8.25 0 .21.19.43.22.65.33 2.92 1.37 6 .82 8.73-1 5.22 1.31 8.4 5 11.22.55.42 1.36.59 1.74 1.1a9.86 9.86 0 0 1 1 2.35 14.74 14.74 0 0 1-2.12.56c-1.14.14-2.31.14-3.46.2l-.4 1.05c1.37 1.07 2.79 2.09 4.1 3.24s2.8 2.15 3.54 3.57c2.46 4.76 5 9.36 9.32 12.75 1.91 1.49 1.68 6-.11 6.19-4 .35-2.82 2.68-2.35 4.95.25 1.2.75 3.28.33 3.51-2 1.14-4.52 2.73-6.51 2.36-2.66-.5-5.16-2.45-7.45-4.16-4.21-3.16-5.86-3.12-10 .13-1.55 1.21-3.79 2.51-5.53 2.29a40.79 40.79 0 0 1-10.89-3c-5.21-2.25-7.11-2-10.72 2.3-.64.76-2 1.71-2.69 1.51-4.76-1.35-9.44-3-14.13-4.53a25.08 25.08 0 0 0-3.18-1.27c-4.88-.87-9.78-1.62-14.68-2.38a25.18 25.18 0 0 0-3 0c1.37 1.1 1.88 1.83 2.55 2l33.74 8.86c2.1.56 3.24 0 3.72-2.28.13-.62 1.89-1.48 2.67-1.28 4.11 1 8.15 2.33 12.22 3.56 3.58 1.08 7.16 5.83 6.92 9.46a2.68 2.68 0 0 1-1.48 1.94 97.91 97.91 0 0 1-10.19 2.94c-3.13.67-4.57 2.76-3.44 5.79.4 1.08 1.15 2 1.45 3.14.94 3.36 1.83 6.77.57 9.46-2.38-.55-4.44-1.73-5.92-1.22-2.43.84-1.29 3.19-.85 5.1a6.28 6.28 0 0 1-.48 2.39c-.94-.25-2.13-.21-2.78-.78a7 7 0 0 0-11.63 4.42c-1.05 6.54.19 13.76-4.21 19.63-.31.41-.22 1.12-.27 1.69-.39 4.3-1.82 8.5-.45 12.94a57 57 0 0 1 1.43 8.7 9.52 9.52 0 0 1 .1 2.38c-.35 3.41-.93 6.81-1 10.22 0 1.2 1 2.43 1.63 3.64 1.29-.77 3.11-1.25 3.77-2.39 2.23-3.85 4-8 6.06-11.92.39-.75 1.43-1.93 1.83-1.81 3 .92 6.94-.34 8.82 3.43-8.19-3.23-7.53-2.27-10.26 4.45-3.19 7.86-9.1 13.25-15.55 18.12-1.2.9-4.07.6-5.64-.2-4.61-2.36-8.9-5.35-13.44-7.87-1.61-.89-3.8-1.89-5.32-1.45-1 .3-1.86 3-1.89 4.69-.22 10.06-3.53 19.46-5.69 29.13a76.31 76.31 0 0 1-8.94 22.4c-1 1.72-2.67 3.07-4 4.6l-.31-.3c5.47-7.75 8.75-16.45 11.05-25.56.48-1.89.86-3.81 1.25-5.73l4-20.28c.65-3.78.87-7.63 1.37-12.3l16.48 7.09 1-1a119 119 0 0 1-18.66-32.94c-4.25-11.88-7.11-24.25-10.23-35.21l-5.4 18.3a4.69 4.69 0 0 0 .2 3.23c3.07 5.41 6.45 10.64 9.46 16.08a81.1 81.1 0 0 1 4.43 10c.32.85-.26 2.05-.43 3.1a14.42 14.42 0 0 1-2.84-1.48c-2.54-2.14-4.87-4.58-7.53-6.56-.85-.64-2.49-.23-3.76-.29.12 1.24-.17 2.78.46 3.66a85.86 85.86 0 0 0 6.41 7.6c1 1.1 2.5 1.78 3.39 2.94a3.64 3.64 0 0 1 .45 3c-.19.51-1.65.7-2.56.78a8.32 8.32 0 0 1-2.38-.65c-.13 1.84-.3 3.38-.36 4.94-.17 5-4.07 7.25-8.18 4.78a18.32 18.32 0 0 0-3.46-1.58c-4.13-1.41-6.2-1-8 2.91-1.42 3.09-1.78 6.74-2.17 10.2s-.1 7-.39 10.54c-.17 2-1.44 4.09-1.25 6 .81 8.29-1.59 16-3.79 23.75-.81 2.88-2 5.66-2.95 8.48l-1-.27a33.25 33.25 0 0 0 .5-4.63 41.45 41.45 0 0 0-.89-5.24 36.71 36.71 0 0 1-3.05 3.56c-3.61 3.08-7.42 5.93-10.91 9.14-3.7 3.41-6.21 3.56-9.28-.3-2.24-2.81-4-6-6.33-8.74s-5-5-7.75-7.72a7.22 7.22 0 0 0-1.44.85 57.5 57.5 0 0 0-6.6 5.93c-2.37 2.79-4 1.39-5.56-.53-2.81-3.49-5.33-7.22-8.19-10.66-6.74-8.1-13.05-16.4-16-26.79-.74-2.57-3.27-4.81-3.43-7.31a137.58 137.58 0 0 1 .06-21c.4-4.53 2.26-8.93 3.45-13.3-1.43.88-3.14 1.79-4.71 2.92-2.62 1.89-4.4 4.08-4.08 7.78.29 3.42-.49 6.91-.43 10.36A65.51 65.51 0 0 0 391 572c1 4.8 2.62 9.46 4 14.17.51 1.77 1 3.55 1.63 5.29 1.9 5.54 2.81 11.59 8.36 15.19 1.95 1.26 3.52 3.1 5.46 4.39 1.66 1.1 3.45 1.85 2.25 4.79L401.45 610l-.75 1.28a37.31 37.31 0 0 0 4.25 3.83c4 2.69 8.05 5.36 12.26 7.68 5.43 3 11 5.63 16.56 8.43 3.68 1.87 7.27 3.89 11 5.58 5.54 2.51 11.14 4.9 16.8 7.11 1.74.69 4 1.28 5.65.79a39.83 39.83 0 0 0 10.54-4.47c5.77-3.76 11.15-8.12 16.69-12.23l.29.28c-.53 1.12-.78 2.54-1.62 3.32a65 65 0 0 1-25.36 14.81 9.37 9.37 0 0 1-5.66-.48c-7.47-3-14.93-6-22.21-9.4-9.67-4.53-19.37-9.08-28.67-14.3-6-3.35-11.23-7.92-16.81-12zM239.05 389.74l10.81-.61c-.81-4.84 1-7.62 4.93-9.66a19.81 19.81 0 0 0 5.21-4.17 25.44 25.44 0 0 0 3.65-5.43c1.51-2.85 2.77-5.84 4.13-8.77l-.94-1a20.22 20.22 0 0 0-3.51 1.34c-4.72 2.86-9.23 6.11-14.09 8.71-7.81 4.17-15.63 8.46-23.83 11.74-9.27 3.72-16.08-.56-16.41-11.18a192 192 0 0 1 .59-19.63c.17-2.42.7-5.46 2.27-7 2.61-2.57 6.06-4.39 9.39-6.07 2.9-1.47 3.38-3.19 1-5.41a6.45 6.45 0 0 1-1.79-2.76c-.78-2.75-2.41-3.36-5.3-2.43 1 2.68-.21 3.47-2.73 3.82a8.69 8.69 0 0 0-4.37 2.53 41.07 41.07 0 0 0-10.61 18.93 29.81 29.81 0 0 0 1.63 21.31c2.49 5.24 6 10 9.1 14.92.17.27.84.22 1.28.31zm-9.53 20.55c2.89-2.85 5.45-6.17 8.75-8.42 5.45-3.73 11.37-6.77 17.09-10.1a3.67 3.67 0 0 0-2.74-1c-2.94.38-5.85 1.21-8.79 1.28-8.1.19-16.2.25-24.29.05-5-.13-10-.8-15-1.28-2.61-.26-5.15.35-5.12 3.21a41.51 41.51 0 0 0 1.82 10.36c1 3.66 2.56 7.09.89 11-1.23 2.89-.08 4.48 3 4.57a13.18 13.18 0 0 0 4.44-.46 108.88 108.88 0 0 0 11.21-4.24c3.05-1.4 5.86-3.31 8.78-5l-3.42 4.85c-1.27 1.75-2.9 3.31-3.8 5.22-1.52 3.23-2.61 6.66-3.84 10-3.71 10.16-4.75 20.26 1.22 30 1.56 2.54 3.86 4.63 5.37 7.19 1.32 2.25 2.72 2.72 5.11 1.95 5.28-1.71 10.68-3 15.91-4.84s10.46-4.19 15.69-6.31c3.09-1.26 3.69-4.43 5.43-6.76 5.38-7.19 11.45-13.87 17-20.94A39.12 39.12 0 0 0 290 421c1.23-3.16 1.28-6.78 1.85-10.19.28-1.69.86-3.4.72-5.06-.1-1.25-1.11-2.43-1.72-3.64-1 1.05-2.05 2.05-2.95 3.18a20.66 20.66 0 0 0-1.6 2.71l.12-14.54a4.92 4.92 0 0 1 .65-2.26c1.71-3 .7-7.76-2.21-9.27-.53-.27-2.34.52-2.37.91-.31 3.85-3.63 4-6.08 5.14-1.64.77-3.62 1-5.06 1.95a70.59 70.59 0 0 0-7.58 6.22c-2.94 2.7-6.09 5.29-8.45 8.44-2.59 3.45-4.45 7.47-6.49 11.32a3.08 3.08 0 0 0 0 2.57c2.66 4.29 5.44 8.51 8.26 12.7a74.37 74.37 0 0 0 4.68 6.33c.66.78 2.16 1.87 2.67 1.61 3.53-1.79 7.46-3.34 10.16-6.06 2.53-2.57 3.67-6.5 5.5-9.79a37.14 37.14 0 0 1 2.26-3.21 28.71 28.71 0 0 1-9.36 18.45c-6.71 5.9-14.11 11-21.33 16.32-2.38 1.75-5.36 2.7-7.67 4.51-4.15 3.24-13.43.53-14.24-4.77-.64-4.12 0-8.43 0-12.66s-.12-8.58.16-12.85a31.17 31.17 0 0 1 1.62-8.93c1.66-4.34 4-8.44 6-12.64l-.91-.89-4 2.06c-.94.55-2.03 1.08-3.11 1.63zm88.38 182.16c-2.6.21-4.7.33-6.78.58a4.64 4.64 0 0 0-2.21.82q-4 3.06-7.78 6.31c-1.91 1.65-3.6 3.58-5.59 5.11-1.1.85-2.63 1.13-4 1.66a18.29 18.29 0 0 1-.86-4.18 29.68 29.68 0 0 1 .82-6.51c.67-2.7-.24-3.73-2.9-4.24-3.9-.75-4.93-2.79-3.75-6.57.38-1.21.91-2.38 1.38-3.56 2.6-6.51 1.23-12.07-3.73-17a5.26 5.26 0 0 1-1.52-3.94c.93-4.93-.56-9.05-3.27-13a3.45 3.45 0 0 1-.42-2.55c.92-3.21 2.18-6.32 3-9.54.42-1.62.94-3.89.17-5-2.26-3.3-2.23-6.92-2.71-10.57-1.35-10.22-2.34-20.34 1.45-30.37a29.88 29.88 0 0 0 1.47-9.81c0-1-1.79-2.83-2.92-3s-2.91 1.06-3.67 2.18a44.68 44.68 0 0 0-3.3 6.73 77.83 77.83 0 0 0-3.7 8.45c-2.21 7-3.44 14.46-11 18.19-.87.42-1.44 1.47-2.12 2.26-2.22 2.6-4.71 3-7.67 1.26-3.18-1.87-4.94-1-5.63 2.7l-1.88 9.41c-.79 4.15-2.08 8.3-2.19 12.47a164 164 0 0 0 .65 22.83c1.57 13.74 6.75 26.25 16 36.55 5.13 5.68 11.39 10.36 17.27 15.33 1.48 1.25 3.49 1.86 5.25 2.76.29-1.87.72-3.74.83-5.62s.49-3.58 2.8-3.58c1.9 0 3.81.29 5.8.47l-1.51 7c4.18-.75 7.84-2.39 11-1.72 3.47.72 6-.31 8.89-1.35 1.83-.66 3.71-1.17 5.48-2 3.75-1.64 7.72-3 11.08-5.24A129.18 129.18 0 0 0 333.07 596c5.65-4.91 11.12-10 16.65-15.08 2.11-1.93 2.74-3.84.35-6.19a3.66 3.66 0 0 1-.49-3.35c1.37-2.76 3.22-5.29 4.73-8 .67-1.18 1.61-2.73 1.31-3.8a12.18 12.18 0 0 0-3-5.07c-.41-.42-2.69.27-3.5 1.07-4.61 4.52-9.68 8.72-11.82 15.19-.42 1.28-1.37 2.48-1.48 3.76-.33 4-3.41 6.09-5.45 8.92-2.28 3.16-4.27 6.56-6.85 9.44s-3.93 2.34-5.62-.44zM230.45 373.7a3.86 3.86 0 0 0 2 .35c4.27-1.18 8.87-1.84 12.64-4 8.19-4.6 15.81-10.22 23.93-14.94 6.67-3.88 10.48-10 13.93-16.36 2.36-4.36-.74-7.78-5.71-7.62a42.55 42.55 0 0 1-11.55-1.13c-6.07-1.48-12-2.37-17.66.93a17.43 17.43 0 0 0-4.9 4.93c-1.6 2.21-2.69 4.78-4.09 7.14-2 3.32-4.19 6.5-5.94 9.92a11.82 11.82 0 0 0-1.42 6.22c.08.74 3.14 1.13 4.83 1.72 3.09 1.08 3.14 2 .82 4.55s-4.53 5.43-6.88 8.29zm-70.1 161c3.56-3.46 6.81-6.54 5.53-11.84-.2-.83.64-1.9 1-2.88.54-1.74.94-3.53 1.58-5.23a139.2 139.2 0 0 1 5.2-13c2.3-4.59 5.33-8.8 7.82-13.29 1.58-2.87 2.2-6.43 4.23-8.85 3.85-4.6 4.73-9.25 2.6-14.73-1.42-3.63-3.63-4.3-6.46-1.54-3.2 3.11-6.21 6.41-9.28 9.64-1.15 1.21-2.77 2.27-3.27 3.71-2.13 6-3.32 12.46-6 18.22-3.37 7.31-5.29 14.68-4.67 22.66.42 5.55 1.1 11.11 1.72 17.13zm266.16-67.08h-1.33a25.15 25.15 0 0 0-1.27 4.39c-.54 5.12-.59 10.31-1.4 15.38-1.55 9.67-3.58 19.27-5.19 28.94-.26 1.55 0 4.13 1 4.79a69.58 69.58 0 0 0 10.85 5.61c.6.27 2.4-.69 2.67-1.44 1-2.79 2.49-5.8 2.28-8.61-.47-6.08 2.33-10.58 5.71-15 2-2.63 2.9-5.2.91-8.2-2.7-4.06-3.34-9.38-7.65-12.47a2.3 2.3 0 0 1-.54-.88q-3-6.21-6.04-12.51zm-43.45 81.28c-.92-1.25-1.39-2-2-2.66-3-3.46-6.67-6.55-9-10.43-4.81-8.06-8.77-16.63-13.4-24.81a22.82 22.82 0 0 1-3-11.46c-.05-4.29-1-8.57-1.6-13-4.19 2.48-6.4 18.57-4 29.38 3.63 15.96 17.11 30.71 33 32.98zM526 405.84c-5.67 1.33-7.93 5.53-5.71 10.41a75.26 75.26 0 0 0 7.3 13.23 35.14 35.14 0 0 0 8.61 7.76c2.72 1.9 5.08-.57 7-2.15.91-.75 1.53-3.35 1-4.16-4.24-5.87-6.75-13.06-13.17-17.32-2.69-1.73-5.76-3.43-5.03-7.77zm-101.61-25l.06-.4c3.06.41 6.23.47 9.15 1.34 2.23.67 3.72.47 5.28-1.11 2.68-2.72 5.47-5.32 8.16-8a32.3 32.3 0 0 0 2.19-2.73c-1.22-.43-2.43-1.2-3.66-1.23l-25-.27c-1.16 0-3.23.92-3.33 1.64a32.27 32.27 0 0 0-.19 9.85c.12.66 4.09.65 6.28.94a9 9 0 0 0 1.04-.01zm-137.53 66.37a10.06 10.06 0 0 0-2.69.69c-7.17 4.77-14 10.17-22.3 13-.88.3-1.32 1.91-2 2.92a33.34 33.34 0 0 0 3.39.8c2 .26 4.35-.2 6 .67 4.87 2.57 5 2.73 8.56-1.41.61-.7 1.33-1.3 1.88-2 3.19-4.26 6.65-8.34 7.16-14.67zm-214.52 5.88l1.48.55c2.51-5 6.28-9.8 7.23-15.1 1.33-7.43 2.83-15.25.08-23.11-2.1 3.15-4.14 6.35-4.87 9.83-.89 4.2-.6 8.64-1 13a63.07 63.07 0 0 1-1.09 7.1c-.5 2.58-1.17 5.15-1.83 7.73zm395 64.56c-.71-3.43-1.23-6.56-2.06-9.6-.19-.71-1.45-1.1-2.17-1.69a21.83 21.83 0 0 1-3-2.62c-.63-.75-.68-2.16-1.4-2.65-3.64-2.45-7.42-4.69-11.17-7-.73 4.19 13.46 21.28 19.76 23.56zm-45.77-41.81h-.17v7.89h.17z" class="E"/><path d="M286.8 256.27l14.1 4c0 1.41.64 3.66 0 4.09-3.46 2.35-7 4.77-10.93 6.15-3 1.07-6.56.95-9.84.78-4.07-.2-8.58-.06-12-1.79a21.14 21.14 0 0 1-8.55-8.6c-2.22-4.11-2.89-9.06-4.17-13.66-.79-2.83-1.47-5.7-2.2-8.55-1.55-1.66-.52-2.89.68-4.08.73-.27 1.79-.31 2.15-.84 4.27-6.19 10.44-9.27 17.51-10.92 1.83-.43 2.22-1.4 2-3.27-.85-8.49-.47-17.26-2.56-25.42-1.68-6.61 1.5-8 5.77-10.71s8.37-4.24 13.29-4a62.52 62.52 0 0 0 8 0 3.5 3.5 0 0 0 2.49-2c1.93-6.72 3.61-13.52 5.45-20.26 1.28-4.68 1.36-4.69 6.2-3.32 2.12.6 3.16.53 3.56-2.26a152.91 152.91 0 0 1 3.49-16.35c1.34-5.18 1.24-5.8-3.68-7.81a25.14 25.14 0 0 0-4.93-1.61 6 6 0 0 0-2.79.69 22.41 22.41 0 0 0-4.25 1.77c-1 .6-2.34 1.78-2.25 2.55a18.59 18.59 0 0 0 1.86 6.56c2.57 4.8 2.06 9.26-.68 13.72-2.18 3.54-2.95 3.48-5.77.33a76.79 76.79 0 0 0-8.15-7.88c-.66-.55-3.08-.27-3.45.36-1.15 1.93-2.11 4.15 0 6.34a6.52 6.52 0 0 1 1.84 3.25c.86 7 1.66 13.93 2.2 20.92.24 3.09-1.54 4.25-4.4 3.27-2.61-.89-5.09-2.24-7.76-2.86-4.78-1.11-9.65-1.83-14.48-2.69a13.31 13.31 0 0 0-3.06-.35c-1.82.12-4.48-.18-5.21.83s-.13 3.6.31 5.38a38.12 38.12 0 0 0 2.34 5.51l-9.33 1.73c-6 1-9.32-1.63-11.86-7.29-2.34-5.21-6.57-9.57-9.93-14.32-9.18-13-13.82-28.08-19.43-42.7a3.56 3.56 0 0 1 .73-3.22 33.51 33.51 0 0 1 15.25-7c7-1.11 13.91-1.43 20.92.5 5.38 1.48 11 2 16.51 3.18a38.76 38.76 0 0 1 5.85 2.27c-4.7 4.23-4.7 4.32-1.4 8.93a6.82 6.82 0 0 1 .59 1.25c1.6 3.53 10 8.17 14.35 7.78a7.87 7.87 0 0 0-.28-2c-3.45-8.22-3.26-16.89-3.64-25.58-.45-10.35 2.64-20.63.24-31 .4-1 .8-1.92 1.21-2.88h.14l-.07-.13a65.44 65.44 0 0 1 6.13-3.25c1.46-.59 3.21-.42 4.72-.92 6.39-2.13 12.48-.83 18.52 1.36l.08.2.2-.07 2.64 1 1.18.57.7.47 3.28 1.13.56.4 2.1 1.21 1.68 1v-.12l1.37 1.17.09.27h.29a.79.79 0 0 1 .35.3c2.59 2.54 5.29 5 7.75 7.64 2.81 3.06 3.54 7.5 1.41 9-5.26 3.57-5.2 8.82-4.79 14.17.08 1.07 1.1 2.08 1.68 3.11a18.75 18.75 0 0 0 2.89-2.13c1.25-1.32 2.31-2.82 3.43-4.25.9-1.16 2.12-2.21 2.59-3.52 2.08-5.77-.7-11.06-1.9-16.5a.71.71 0 0 0 .15-.36l.17-.08-.1-.16 1.95-6.25.37-.77 6-5.7h0l10-2.51 1.07-.2 1.56-.31.77-.22 7.6-1.76 1.44.12 6.22-.41 5.63.44 8.81 4.48v.16h.17l1.76 2.48c.13.48.25 1 .38 1.42l-.15 4.43a13.11 13.11 0 0 0-2.29 9.95l4.65-3.19a31.65 31.65 0 0 0 1.94-5.42c.51-2.89.47-5.88.9-8.78.94-6.34 6.21-10.14 12.55-9.61 9.39.8 17.25 5.23 23.8 11.32 5.19 4.82 8.95 11.19 13.41 17 5.73-2.24 12-5.29 18.47-2.6 5.08 2.14 8.78.19 12.88-1.69l3.19-.23c3.81 1.29 7.55 3.31 11.46 3.73 8.42.89 13.71 5.69 17.56 12.5 2.57 4.53 4.59 9.37 6.79 14 9-2.45 18.41-4.64 26.77 1.83 8.1 6.27 10 15.65 9.91 25.67 4-1.61 6.4.12 8.58 2.5 1.47 1.6 2.85 3.3 4.39 4.82l13.11 12.68a14.26 14.26 0 0 1-3.2 1.42c-1.8.37-3.67.37-5.5.58-2.82.32-4.42 1.41-4.75 4.73-1.08 10.84-7.35 19.29-17.73 20.44-1 .11-1.86.9-2.84 1.24-1.4.48-2.94 1.34-4.25 1.1-1.08-.2-1.9-1.78-3.05-3-.5 1.15-1.1 2.36-1.54 3.61L529 210.96a23.94 23.94 0 0 0-2.58 4.32c-.64 1.86-2.29 3.66-.25 6 1.56 1.76 2.39 4.16 3.55 6.28.91 1.95 1.53 3.65.27 6-1.69 3.14-2.58 6.71-3.81 10.1l-1.95 6c-1.26.56-2.55 1-3.76 1.68-4.58 2.44-9.9 3.72-13.08 8.35l-6.26 7.71a50.77 50.77 0 0 0-5.67.4c-2.58.47-5.63 1.23-6.75-1.61-2.27-5.78-3.84-11.83-5.7-17.77 6.89 1.67 13.39.23 19.73-2.46 5.8-1.94 11.08-4.73 14.78-8.36-2.59-4.19-5.41-7.65-7-11.6-1.4-3.52-3.56-5-6.91-5.12-2.81-.09-5.63.3-8.68.5l-.4-3 .87-.49 2.47-1.08 2.5-.87 5.47-.76a19.06 19.06 0 0 0 11.38-6.05c2.75-3.08 3.76-6.9 1.91-10.61a7.31 7.31 0 0 0-8.63-3.59 45.73 45.73 0 0 0-11.3 4.68c-7.08 4.08-6.36 4.57-12.38-.59a18.3 18.3 0 0 0-1.74-1.68 8.42 8.42 0 0 0-3.27-1.67c-2.28-.23-2.81-1.46-3-3.45-.25-3.45-.56-6.91-1.15-10.31-.3-1.7-.86-3.92-2.08-4.75s-3.41-.18-5.82-.18a40 40 0 0 1 2.78-5.66c3.88-5.6 3.94-6.71-.07-12.18a12.55 12.55 0 0 1-1.27-2.44c-1.59-3.57-3-7.23-4.81-10.69a4.48 4.48 0 0 0-3.2-2.2c-3.31 0-6.88-.07-9.86 1.1-7.7 3-12.23 9.45-15.76 16.63l-2.14 6.73c-2.15 4.14-4.14 8.38-6.48 12.41a77 77 0 0 1-6.55 9.56c-1.34 1.66-3.59 2.74-5.24.3-1.35-2-1.26-4 1.12-5.65 1.66-1.15 3.88-2.69 4.16-4.35.42-2.48-.63-5.22-1.06-7.85-1.65.32-3.52.26-4.89 1.05-2.74 1.6-4 .22-4.65-2-1-3.35-1.64-6.8-2.43-10.21l-.88-.44-6.43 12.16-3.26 10.43-3.84-10.4q3.41-7.49 6.79-15l7.45-8.94a2.43 2.43 0 0 0 0-1.87c-1.11-3.09-3.28-3.67-6.36-3-5 1.14-10 2.07-13.78-3a39.18 39.18 0 0 0-6.77-6.85 6.87 6.87 0 0 0-4.62-1c-.47 0-.9 2.35-1 3.65a13.43 13.43 0 0 0 .31 3.78c1.07 5.48 1 5.31-3.59 8.17-1.85 1.16-2.9.68-3.65-.75a9.19 9.19 0 0 1-1.24-4.55c.45-6.06 1.17-12.11 1.86-18.15.26-2.27.74-4.5 1.11-6.75a35 35 0 0 0-6.56 6.89c-.74 1-1.42 2.8-1 3.85 3.33 9.29-.62 17.4-4.07 25.52a6 6 0 0 1-4.11 3.1c-4.68.46-9.42.27-14.13.37a9 9 0 0 1-7.82-3.6c-1.1-1.42-2.48-2.8-4.18-.67-1.32 1.66-3.15 3.13-.7 5.55 4.15 4.1 8 8.49 12 12.76l2.1 6.68c-4.11 2.9-5.13 2.72-7.74-1.28a16.25 16.25 0 0 0-1.63-2.22c-2.61-2.82-3.35-2.58-5.84.46s-5.32 5.6-7.94 8.43c-.63.68-1.62 1.93-1.4 2.33 1.63 2.88-.63 3.9-2.21 5.34-1.26 1.16-2.81 2.26-3.49 3.73-2.69 5.84-8 8.72-13.18 11.41-2.39 1.24-5.79.69-8.73.69-1.27 0-2.54-.68-4.46-1.25 2.91 5 5.42 9.36 10.28 11.69l.92 1.08.78.66a3.59 3.59 0 0 1 .47.12l3.12 2.35.24.2 1.72.74h.08l1.05 3-.6.64c-1.52-.83-3-1.69-4.58-2.46-3.79-1.88-7.27-.58-7.38 3.51-.12 4.35-2 7.69-4 11.07-3 5.07-5.08 11.62-13.61 9.67v1.34zm216.54-111.52c-1.4 4.18 1.41 9-2.19 12.88-3 3.22-5.59 6.77-8.1 9.85l-9.86-4-3.52 18c1.94-1.29 3.1-2 4.19-2.8 5-3.68 10.89-5.1 16.83-5.84 7-.88 10.51-5.5 8.29-12.22-1.77-5.31-3.74-10.56-5.64-15.87zm-91 1.79c2.84-1.52 5.92-3 8.85-4.83a6.21 6.21 0 0 0 2.12-2.79l12.58-29.22c1.82-4.18 3.9-8.26 3.65-13.42l-5.15 9.63-2.41 4.57c-1.53 2.9-3 5.83-4.63 8.68-2.93 5.13-7.33 9.49-8 15.79a6 6 0 0 1-1 2.58c-1.88 3.06-3.96 6.06-5.97 9.01zm79.25-.56l15.53-21.6a132 132 0 0 0-13.12 7.46 5.38 5.38 0 0 0-2.24 3.44c-.34 3.31-.13 6.66-.13 10.72zm-59.95-4.11l5.4 15.12c.85-3.56 1.54-6.17 2-8.81a2.22 2.22 0 0 0-.84-1.73c-1.93-1.45-4.03-2.88-6.52-4.58z" class="F"/><path d="M571.12 548.94c-1.88-3.77-5.8-2.51-8.82-3.43-.4-.12-1.44 1.06-1.83 1.81-2.05 4-3.83 8.07-6.06 11.92-.66 1.14-2.48 1.62-3.77 2.39-.58-1.21-1.67-2.44-1.63-3.64.1-3.41.68-6.81 1-10.22a9.52 9.52 0 0 0-.1-2.38 57 57 0 0 0-1.43-8.7c-1.37-4.44.06-8.64.45-12.94 0-.57 0-1.28.27-1.69 4.4-5.87 3.16-13.09 4.21-19.63a7 7 0 0 1 11.66-4.43c.65.57 1.84.53 2.78.78a6.28 6.28 0 0 0 .48-2.39c-.44-1.91-1.58-4.26.85-5.1 1.48-.51 3.54.67 5.92 1.22 1.26-2.69.37-6.1-.57-9.46-.3-1.1-1-2.06-1.45-3.14-1.13-3 .31-5.12 3.44-5.79a97.91 97.91 0 0 0 10.19-2.94 2.68 2.68 0 0 0 1.48-1.94c.24-3.63-3.34-8.38-6.92-9.46-4.07-1.23-8.11-2.54-12.22-3.56-.78-.2-2.54.66-2.67 1.28-.48 2.31-1.62 2.84-3.72 2.28l-33.74-8.86c-.67-.18-1.18-.91-2.55-2a25.18 25.18 0 0 1 3 0l14.68 2.38a25.08 25.08 0 0 1 3.18 1.27c4.69 1.57 9.37 3.18 14.13 4.53.71.2 2-.75 2.69-1.51 3.61-4.32 5.51-4.55 10.72-2.3a40.79 40.79 0 0 0 10.89 3c1.74.22 4-1.08 5.53-2.29 4.14-3.25 5.79-3.29 10-.13 2.29 1.71 4.79 3.66 7.45 4.16 2 .37 4.47-1.22 6.51-2.36.42-.23-.08-2.31-.33-3.51-.47-2.27-1.62-4.6 2.35-4.95 1.79-.16 2-4.7.11-6.19-4.36-3.39-6.86-8-9.32-12.75-.74-1.42-2.27-2.46-3.54-3.57s-2.73-2.17-4.1-3.24l.4-1.05c1.15-.06 2.32-.06 3.46-.2a14.74 14.74 0 0 0 2.12-.56 9.86 9.86 0 0 0-1-2.35c-.38-.51-1.19-.68-1.74-1.1-3.7-2.82-6.05-6-5-11.22.55-2.75-.49-5.81-.82-8.73 0-.22-.25-.44-.22-.65.35-3.37-1.11-6-3.42-8.25.88.12 2.13-.1 2.6.4 2.28 2.45 5.25 2.47 8.08 2.21l36.83-3.73c3.48-.37 6.93-1 9.88-1.51 2.46-10.11 2.33-19.69-2.1-29-4.21-8.8-8.08-17.79-17.8-23.68l.86 4.48c.52 2.43 2.2 5.38-.43 7-1.52.94-4.21 0-6.36-.14a4 4 0 0 1-.67-.2c-2.13-.66-3.62.23-3.74 2.31-.19 3.53-.21 7 2.3 10.12 2.28 2.84 3.9 6.21 5.82 9.33 1.43 2.31-.27 3.85-1.63 5.06-.71.64-2.53.58-3.61.18a39.49 39.49 0 0 1-6.51-3.24c-1.7-1-3-1.42-4.47.41-1 1.29-2.65 1.87-3.49-.31-1.36-3.52-2.32-7.21-3.84-10.66a87.28 87.28 0 0 0-6-11.57c-1.33-2.1-3.59-3.62-5.43-5.41l-1 .47c0 1.07-.08 2.16 0 3.23l1.27 14a7 7 0 0 1-.65 3l-4.67 11.1c-1.17 2.89-3.48 4.19-6 2.86-4.24-2.27-8.35-4.76-12.52-7.16-1.13.27-2.53.94-3.88.85-3.16-.19-4.27 1.42-4.82 4.19-.27 1.37-1 3.53-1.92 3.73-5.52 1.24-6.3 5.87-7.81 10.05l-15.07-1.48-14.09-1.18q-.66-2.48-1.3-4.94c2.8 2.45 5.37.55 6.84-1.28 2.06-2.57 5.38-5.14 4.12-9.12-.86-2.68-.63-4.53 2-5.6 2.38-1 1.69-2.26.69-3.73 3.36-1.14 6.77-2.16 10.05-3.49a7.07 7.07 0 0 0 3.09-2.62c.9-1.39 1.15-3.2 2-4.65 4.23-7.23 3.8-19.07-1.25-25.48-1.72-2.19-3.89-4.1-6.27-4.05l-1.76 9.35c-.26 1.23-1 2.4-1 3.62-.21 5-.46 10.06-.26 15.08.1 2.77-.89 3.13-3 2.17-1.86-.87-3.6-2-5.4-3-2.09-5.42-5.54-9.93-9.44-14.17-2-2.18-1.5-3.93 1-5.65 3.81-2.62 6.16-6.22 6-11 0-1.13-1-3-1.91-3.2a97.7 97.7 0 0 0-11.43-1.45 25 25 0 0 0-13.28 2.64c-1 .48-2.47-.05-3.72-.12-.09-3.45 0-6.91-.31-10.34-.47-4.92 1.64-8.43 5.61-11.81-.19 4.64 1.26 7.84 4.92 10.06.94.57 1.41 2.3 1.63 3.57.42 2.46 1.46 3.57 4.14 3.49 5.51-.16 11 0 16.54 0a4.18 4.18 0 0 0 2.47-1 97.11 97.11 0 0 0 7.4-6.79c5.39-5.7 10.48-11.69 16-17.23 1.62-1.62 2.43-2.22.74-4.27a4.78 4.78 0 0 1 .93-6.88c4.25-2.51 8.39-5.2 12.54-7.87 1.74-1.12 3.24-2.76 5.12-3.49 10.23-4 18.83-9.71 23-20.45a5.71 5.71 0 0 1 4.16-3.6 18.06 18.06 0 0 0 11.8-23.79c-.31-.86-.46-1.78-.69-2.67 3 4.61 4.68 9.36 1.88 14.73-2.47 4.75-2.06 5.76 3.26 6.33 6.54.7 12.91 2.05 18.37 5.68a66.83 66.83 0 0 1 24.27 28.27 22.55 22.55 0 0 0 3.5 5.06 5 5 0 0 1 .65 6.32c-3.69 6.6-9.58 10.13-16.57 12.19-4.85 1.42-6.75 4.05-6.16 9.07.26 2.16-.77 2.91-2.62 3.25-4.55.84-9.12 1.59-13.61 2.68a34.57 34.57 0 0 0-7.38 2.82c-3 1.53-3.12 3.08-.17 5a89.31 89.31 0 0 0 9.43 5.12c17.83 8.6 31.56 21.53 40.41 39.24 2.91 5.82 4.41 12.35 6.56 18.55l.72 4.9.33 2.75q0 8.21 0 16.41l-.37 2.82-.78 3.51v1.55l.2 2.08a6.36 6.36 0 0 0 .26.44l4 9 7.48 17.7.42 2.05a23 23 0 0 0 0 2.35l2.61 22.82c.28 2.64.22 5.3.31 7.95v2.25c-.77 0-1.77-.31-2.27.06a22.75 22.75 0 0 0-3.44 3.36 11.59 11.59 0 0 0-1.07 2.11c-1.17 2.14-1.86 5-3.66 6.26a165.58 165.58 0 0 1-18.48 11.21c-4.14 2.12-9.18 2.52-13.26 4.73-5.77 3.13-11.76 2.51-17.77 2.49a5.48 5.48 0 0 1-5.22-3.31c-.61-1.23-2.36-2-3.76-2.68l-22.54-9.81c-.78-.34-1.63-.53-3-1 .13 1.74.13 3 .33 4.17.93 5.39 3.49 10.31 2.72 16.25a166.56 166.56 0 0 0-1.13 25.47c.19 8-2.35 15.14-5 22.37-1.68 4.61-2.63 5-7.27 3.76l-3.35-.86-.25-.2-5.43-3.13-.74-.46-1.35-.89-.78-.42-1.36-.88zM564.19 328c2.7 0 6.08.54 9.22-.09 14.69-2.94 27.8-9.87 40.85-16.84.77-.42 1.84-1.83 1.64-2.25-1.39-3 1.31-3.48 2.72-4.25 7.6-4.13 15.29-8.08 23-12 1.84-.94 2.48-2.06 1.91-4.15-2-7.36-5.12-14-10.77-19.4-8.14-7.78-16.72-14.28-28.81-13.57-3.33.2-6.71.06-6.73 4.83 0 .5-.54 1-.85 1.48-1.5 2.32-3.92 4.48-4.32 7-.75 4.64-3.32 7.6-6.71 10.21-1.85 1.42-2.43 2.68-1 4.93.75 1.15.55 3.1.37 4.65-.59 5.13 0 9.81 3.76 13.81a5.11 5.11 0 0 1 1.13 3.73 3.22 3.22 0 0 1-4.08 2.78 157.74 157.74 0 0 1-15.77-3.35c-4-1.21-4-1.54-4.53 2.53-.12.9-1.06 1.66-1.44 2.57-1 2.33-1.88 4.7-2.72 7.09a2.87 2.87 0 0 0 .19 1.66l2.94 8.63zm-404.3 15.44c3-2.06 6.16-4 9-6.23l22.66-18.17c2.58-1.94 6-2.69 9-4l-.05 10.8a2.19 2.19 0 0 1-1.1 1.54c-4.13 2-8.32 3.84-12.46 5.79a10.4 10.4 0 0 0-1.89 1.46l.48.75c.72-.2 1.44-.45 2.18-.58 2.56-.45 3.8.81 3 3.35s-1.61 4.87 1.12 6.87c.34.25.13 2.11-.38 2.51-5.14 4-9.81 8.79-16.64 10.07-.49.09-1.22 2.18-.87 2.72.69 1.07 2.05 1.71 4 3.21-3.76-.29-6.73-.2-9.58-.78l-38-8.11a3 3 0 0 1-1.71-1.05c-4.9-7.81-7.31-15.83-2.05-24.53 2.2-3.64 4.18-7.41 6.28-11.12 1.2-2.14.45-3.63-2.14-3.55-3.8.11-7.59.58-11.38.91a24.71 24.71 0 0 1-4.81.39c-6.24-.75-11.85 1.43-17.45 3.57-4.38 1.68-4.9 4.39-2.9 8.64a29.55 29.55 0 0 1 2.37 9.31c.33 3-1.67 4.91-4.35 6-.85.36-1.79.52-2.61.93-3.53 1.77-5.13 4.42-4.31 7 1.08 3.42 5 6.1 8.33 5.8a4 4 0 0 1 2 .07 40.33 40.33 0 0 1 3.63 2.5c-1.14 1.14-2.08 2.83-3.45 3.31-3.66 1.26-7.15 2.51-9.5 6.47 3.47 1.83 6.21 4.18 10.55 3.48 12.07-1.93 24.19-3.49 36.3-5.14 2.28-.31 4.61-.26 6.9-.51 2.83-.31 5.66-1.15 8.46-1.05a64.47 64.47 0 0 1 11.13 1.59c.55.12 1.32 2.42.93 3.14-2 3.7-4.5 7.09-6.39 10.82-1.67 3.29-2.66 6.92-4.1 10.33s-2.66 6.84-4.64 9.82-3.21 5.21-2.08 8.89a9.34 9.34 0 0 1-1.11 6.81c-3.57 5.78-7.81 11.14-11.53 16.83-2.59 4-1.94 5.19 2.48 6.66a28.54 28.54 0 0 0 15.28.76c5.39-1.14 10.86-1.94 16.26-3.08 2-.43 3.84-1.54 5.82-2.12 4.64-1.35 9.31-2.6 14-3.79.58-.14 1.33.38 1.83.54-4 8.89-12.58 8.21-19.83 10.14-2.22.6-4.55.8-6.78 1.38a220.18 220.18 0 0 1-22.26 4.44c-5.57.84-10.19-1.27-15.23-2-1-.13-2.09-1.88-2.44-3.09-4.81-16.2-1.6-30.5 10.43-42.61l10.14-10.37a3.63 3.63 0 0 0 1-2.3c0-.34-1.28-1-2-.93-3.88.24-7.75.63-11.62 1-.68.06-1.36.27-2 .27-6 0-12 .54-17.93-.13-4.19-.48-6.09.06-8 4.25-2.88 6.16-12.1 8.73-18.7 6.44-.22-.08-.44-.29-.64-.26-6.31.85-9.09-3.62-12.17-7.86-2.11-2.9-1.7-8.06.09-11.14 1.4-2.4 1.67-5.62 1.79-8.5 0-.65-2.61-1.93-4.09-2.05-4.77-.38-4.42-.27-5-5-1.14-9.64 3.66-17.47 7.64-25.38a117.87 117.87 0 0 1 19.39-28c3-3.16 2.9-3.24-1-5.68L82.77 303a61.23 61.23 0 0 0-5.65-3.73c-1.94-1-2.5-2.3-1.67-4.22 1.47-3.37 2.34-7.27 4.61-10 5.15-6.15 10.9-11.82 16.62-17.48 2-2 4.88-3.11 6.91-5.09s4.4-4.3 2.24-7.49c-2.45-3.61-5.18-7-7.84-10.51a35.24 35.24 0 0 1-7.35-25.52c4.1 1 6.64 3.75 8.48 7.44 1.57 3.15 3.41 3.25 6.29 1.36 1.16-.75 3.34-1.19 4.41-.61a100.07 100.07 0 0 1 14 8.61c7.83 6.09 15.27 12.68 22.86 19.08a5.38 5.38 0 0 0 6.34.93 5.29 5.29 0 0 1 4.28.65c10.56 6.81 18.19 18 31.25 21a17.52 17.52 0 0 0 5.39.44 9.25 9.25 0 0 0 4.2-1.44c3.48-2.33 8.41-2.73 9.75-8 1.29-5.08-.94-9.07-3.55-12.78-1-1.46-3.59-1.83-5.42-2.68-.24-.81-.21-2.25-.86-2.69-3.19-2.17-1.43-3.95.38-5.51 2.62-2.25 5.43-4.28 8.15-6.4-2-4.41-3.65-6-7.81-8.33-1.06-.59-1.67-2-2.48-3a11.73 11.73 0 0 1 2.9-2.07c4-1.27 7.22.13 9.38 3.62 1.52 2.45 3.17 4.81 4.78 7.2l9.21 13.7-8.14 2.57c.12.23.59 1.18 1.12 2.11 1.08 1.89 3.43 4.1 3 5.57-.82 3 1 5 1.33 7.42a48.27 48.27 0 0 0 .44 4.85c.59 2.4.37 5.52 4 5.83l-6.93 11c-5.33-1-10.62-2.33-16-2.72-6.06-.44-10.15-4.4-15-7-6.93-3.64-14.07-6.88-20.93-10.65-4.42-2.43-8.49-5.5-12.73-8.26-2.38-1.55-4.64-2-7.43-.47-1.81 1-4.24.9-6.35 1.44-4.14 1.06-5.37 2.63-5.18 6.83.12 2.77-2 3.2-3.73 4.32a21.92 21.92 0 0 0-5.23 4.6 3.71 3.71 0 0 0 .3 3.61c.54.59 2.47.3 3.57-.14 4.35-1.71 8.49-4.7 12.94-5.22 6-.7 12.42-1.17 18.16 2.3 2.8 1.69 3.1 3.24.26 5.05-2.41 1.54-5.12 2.61-7.62 4a43.82 43.82 0 0 0-6.7 4.19c-2.68 2.22-1.69 10 1.63 11.92-.61 1.27-.94 2.88-1.91 3.83-3.27 3.22-2.9 6.8-1.45 10.54s2 7.39-.42 11.42c-1.76 2.91-2.4 6.74-2.63 10.22-.1 1.43 1.93 3.66 3.5 4.35a8.12 8.12 0 0 0 5.7-.3c2.76-1.1 4.68-.55 6.37 1.67l-7.25 4.11.44 1.07a57.91 57.91 0 0 0 7.38-.93 83.39 83.39 0 0 0 9.71-3.29c.58-.23.78-1.44 1.15-2.2a7.52 7.52 0 0 0-2.37-.7c-1.84.42-3.76.77-5.68 1.02zm93.29-104.75l2.2 8.55c1.28 4.6 1.95 9.55 4.17 13.66a21.14 21.14 0 0 0 8.55 8.6c3.46 1.73 8 1.59 12 1.79 3.28.17 6.83.29 9.84-.78 3.9-1.38 7.47-3.8 10.93-6.15.63-.43 0-2.68 0-4.09h10.41c-1.78 12.55-9.32 20-20 24.92-5 2.28-7.22 1.61-11.76-3.19a44.32 44.32 0 0 0-7.54-6.55c-4.55-3-7.19-2.12-8.17 3.2-.64 3.5-2.51 4.4-5.31 5.73a27.84 27.84 0 0 0-8.83 6.75c-3.57 4.11-7.57 8.16-8.38 14-5.08.31-10.22 1-15.12-2a41.61 41.61 0 0 1 2.44-4.07c5.4-6.95 5.22-14.17-.72-20.45-.62-.66-1.81-.78-2.73-1.16 3.81-2.23 7.58-4.56 11.46-6.66 2.85-1.54 2.69-2 .54-4.32-4.85-5.14-9.34-10.63-14-16a83.59 83.59 0 0 1 7.67 4.22c2.25 1.55 5.65 1.29 6.82-1.16a44.57 44.57 0 0 0 2.63-7 2.76 2.76 0 0 0-1-2.26 10.53 10.53 0 0 0-3.71-1.82c-5.49-1.3-9.11-5.25-12.85-9-.72-.72-1.21-2.74-.74-3.42 5-7.29 8.57-8.3 16.6-4.63 2.45 1.11 4.13.44 4.61-1.7a10.22 10.22 0 0 0-.79-5.76c-.74-1.79-2.28-3.25-3.93-5.46 2.59 0 4.41-.14 6.21 0 4.54.42 10.95-5.21 11.21-9.81.13-2.26.56-4.51.91-7.25-3.06-2.82-10-4.67-15.5-4.42-3 .13-6.1-.65-9.1-1.27-.61-.12-1.28-1.3-1.44-2.09-1-4.92-4-8.62-6.67-12.67-1.57-2.38-5.62-4.77-2.43-9-4.15-.91-8-2.08-12-2.56-15.28-1.83-30.21-1.88-42.05 10.4-.55.56-1.59.75-1.94 1.38-.68 1.22-1.84 3-1.4 3.91 3.86 7.77 7.42 15.82 12.29 22.95 4.58 6.72 10.64 12.42 16 18.59.85 1 1.58 2.07 3.06 4-4.86 0-8.62 1.35-12.34-1s-7.53-4.41-11.22-6.73c-1-.64-2.58-1.9-2.44-2.59.62-3.19-1.26-4-3.6-4.87-1-.38-1.73-1.49-2.68-2.12-1.87-1.24-3.68-2.77-5.75-3.48-3.75-1.29-4-1.4-2.22-5.5a16.19 16.19 0 0 1-3.77-.23c-2-.63-4.74-1-5.8-2.49-3.09-4.24-6.75-7-12-7.67-.69-.09-1.31-.76-2-1.18-.89-.58-1.76-1.19-2.64-1.79 1.84-8.6 8.35-12.37 15.77-15.18q7 8.26 14 16.55l8 9.7c.15-1.54.34-2 .2-2.18l-8.78-13c-.49-.73-1.29-1.58-1.23-2.32.27-3.19-1.55-5.15-3.67-7l-12-10.64a9.94 9.94 0 0 0-1.15-.76l.1.08-.73-.63c-2.35-1.32-3.81-3.11-1.47-5.45 9.92-9.93 21.42-16.87 35.79-17.68 7.41-.42 14.85-.29 22.28-.24a65.69 65.69 0 0 1 7.37.83l.72-1.13-7.87-22.37a16.07 16.07 0 0 0 2.86-1.34c3.2-2.18 6.28-4.54 9.48-6.72 1.69-1.15 3.41-2.53 5.32-3 13-3.55 26-5.2 39.27-1 4.52 1.45 5.26.51 4-3.89q-3.24-11.52 8.9-12.1c2.66-.13 5.32-.17 8-.25s3.65-1.39 3.12-4.1a31.26 31.26 0 0 1-.19-5c2.4 10.34-.69 20.62-.24 31 .38 8.69.19 17.36 3.64 25.58a7.87 7.87 0 0 1 .28 2c-4.32.39-12.75-4.25-14.35-7.78a6.82 6.82 0 0 0-.59-1.25c-3.3-4.61-3.3-4.7 1.4-8.93a38.76 38.76 0 0 0-5.85-2.27c-5.49-1.16-11.13-1.7-16.51-3.18-7-1.93-13.91-1.61-20.92-.5a33.51 33.51 0 0 0-15.25 7 3.56 3.56 0 0 0-.73 3.22c5.61 14.62 10.25 29.7 19.43 42.7 3.36 4.75 7.59 9.11 9.93 14.32 2.54 5.66 5.81 8.28 11.86 7.29 2.88-.48 5.74-1.06 9.33-1.73a38.12 38.12 0 0 1-2.34-5.51c-.44-1.78-1.14-4.24-.31-5.38s3.39-.71 5.21-.83a13.31 13.31 0 0 1 3.06.35c4.83.86 9.7 1.58 14.48 2.69 2.67.62 5.15 2 7.76 2.86 2.86 1 4.64-.18 4.4-3.27-.54-7-1.34-14-2.2-20.92a6.52 6.52 0 0 0-1.84-3.25c-2.07-2.19-1.11-4.41 0-6.34.37-.63 2.79-.91 3.45-.36a76.79 76.79 0 0 1 8.15 7.88c2.82 3.15 3.59 3.21 5.77-.33 2.74-4.46 3.25-8.92.68-13.72a18.59 18.59 0 0 1-1.86-6.56c-.09-.77 1.29-1.95 2.25-2.55a22.41 22.41 0 0 1 4.25-1.77 6 6 0 0 1 2.79-.69 25.14 25.14 0 0 1 4.93 1.61c4.92 2 5 2.63 3.68 7.81a152.91 152.91 0 0 0-3.49 16.35c-.4 2.79-1.44 2.86-3.56 2.26-4.84-1.37-4.92-1.36-6.2 3.32l-5.45 20.26a3.5 3.5 0 0 1-2.49 2 62.52 62.52 0 0 1-8 0c-4.92-.22-9.06 1.36-13.29 4s-7.45 4.1-5.77 10.71c2.09 8.16 1.71 16.93 2.56 25.42.19 1.87-.2 2.84-2 3.27-7.07 1.65-13.24 4.73-17.51 10.92-.36.53-1.42.57-2.15.84-2.23-.85-4.44-1.77-6.71-2.5-1-.31-2.69-.69-3-.24a22.42 22.42 0 0 0-3 5.53c-.14.35 1.24 1.88 1.91 1.87 3.57-.11 6.95-.46 10.34-.68z" class="D"/><path d="M615 209.26l.69 2.67a18.06 18.06 0 0 1-11.8 23.79 5.71 5.71 0 0 0-4.16 3.6c-4.17 10.74-12.77 16.46-23 20.45-1.88.73-3.38 2.37-5.12 3.49l-12.54 7.87a4.78 4.78 0 0 0-.93 6.88c1.69 2.05.88 2.65-.74 4.27-5.55 5.54-10.64 11.53-16 17.23a97.11 97.11 0 0 1-7.4 6.79 4.18 4.18 0 0 1-2.47 1c-5.51.06-11-.14-16.54 0-2.68.08-3.72-1-4.14-3.49-.22-1.27-.69-3-1.63-3.57-3.66-2.22-5.11-5.42-4.92-10.06-4 3.38-6.08 6.89-5.61 11.81.33 3.43.22 6.89.31 10.34l-.36 1.06c-4.09 3.29-7.85 7.21-12.38 9.7-4.86 2.67-7.43 6.9-10.35 11.07l-.6.62c-3.72 1.52-3.34 4.87-3.56 7.95a41.67 41.67 0 0 0-.59 5.64c.06 2.6-.31 4.92-2.3 6.76a8.62 8.62 0 0 0-1.6.64c-7.14 4.87-15.55 5-23.42 4.52-7.46-.5-14.08-4.88-19.31-10.58a3.2 3.2 0 0 1-.12-3c2.9-4.14 1.79-7.63-.9-11.39-1.09-1.52-1.9-4.27-1.26-5.79a71 71 0 0 1 7-12.84c1.58-2.29 1.79-3.87.55-5.56-1.86 1.28-3.38 3.07-5.17 3.42a8.61 8.61 0 0 1-10.17-5.67c-1.69-5-5.55-7.45-9.54-10-2.28-1.44-4-1.07-4.77 1.65-1.31 4.55-2.65 9.1-3.73 13.7-.38 1.62 0 3.41 0 5.12l-.29 3.36-4.9 6.33h-13.17l-1.48.43-4.58 3.16c-3.37 1-5.09-.7-6.36-3.62-.61-1.42-2-2.52-2.85-3.84-1.35-2-3.45-3.92-3.69-6.05-.41-3.64-2.1-4.93-5.33-5.18-.13 0-.23-.37-.48-.82a15.66 15.66 0 0 0 1.67-2.77c1.64-4.37 3-8.79.39-13.3.9-4.9 2.55-9.71 0-14.75-.67-1.3.37-3.47.63-5.24 3.78 0 2.89 3.16 3.57 5.23 1.25 3.75 2.39 7.54 3.57 11.32l5.54 11.31c4.17-1.43 7.57-2.88 11.11-3.74 5-1.22 10.15-1.8 15.13-3.08 1.6-.41 2.85-2.15 4.27-3.29 8.38-5.88 13.15-13.69 12.84-24.77a12.68 12.68 0 0 1 2.26 1.29l15.78 14.2a4.31 4.31 0 0 0 2.74 1.18c3.32-.21 5.57-4.1 4.68-8.41-.69-3.38-3.34-1.27-5.08-1.24s-3.35.76-5 1c-1 .13-2.29.24-2.88-.29A43.36 43.36 0 0 1 419 272c-.7-.89-1.34-2.55-1-3.43 1.51-3.63 2-7-1-10.19 4.78-1.94 9-4.9 13.37-5 3.34-.1 6-1.61 9-1.86.5 1.9 1.13 3.78 1.47 5.71.45 2.59 1.53 3.76 4.17 2.43l8.22-4.15c2.36-1.25 1.22-2.37-.07-3.59s-2.63-2.7-3.94-4.06l.84-.88 4.77 3.06 4 4.65-1.83 4.48c-1.57 4-5.09 5.57-9.17 4.08a39.62 39.62 0 0 0-4-.95c.82 2.06 1.23 3.31 1.81 4.48 2.34 4.71 1.44 11.82-1.91 16a12.86 12.86 0 0 0-2.79 11c-1 5.76-1 5.76-6.73 5.86-.22 0-.45.07-.68.1-4.14 1.77-4.46 5-.55 10.61 6 10 14.6 17.68 22.8 25.72l6.88 6.92c5.79-4.46 8.6-9.6 9.2-16.47.4-4.67 2.56-9.18 4-14.08a13.34 13.34 0 0 0-8.55-6.91 57.38 57.38 0 0 0-6.15-.94c-4.18-.53-5.58-2.42-4.12-6.28 1.24-3.27 1-5.63-2.65-6.61l3.29-12.78c3 1.76 6.71 4.18 10.63 6.1 7.11 3.48 14.36 6.68 21.58 9.95.55.25 1.64.35 1.85.06a3.36 3.36 0 0 0 .46-2.16c-.12-1.7-.9-3.49-.54-5 .94-4 2.35-7.9 3.76-12.43a17.28 17.28 0 0 0 3.8 1.59c1 .18 2.18-.39 3.28-.63l10.5 2.79c9.17 2.17 18.38 3.35 28.48 1.83l-4.79-8.85c-2.3-4.32-1.18-6.87 3.51-8 3.28-.78 4.19-2.81 2.74-5.92a20.74 20.74 0 0 1-.87-2.94l1-.78a39.53 39.53 0 0 1 5 3.78c4.32 4.45 10 5.07 14.66 2.59 3.15-1.67 6.35-3.09 9.58-4.56a3.8 3.8 0 0 0 1.46-2.55c1-5.66 2.08-11.32 2.78-17 .18-1.44-.68-3.15-1.42-4.54-1.64-3.06-4.49-2.73-7.28-2.13-7.89 1.69-15.77 3.85-23.85 1-1.17-.41-2.92-1.14-3.09-2a5.08 5.08 0 0 1 1.19-4 63 63 0 0 1 6.49-5.18c2-1.55 5.3-2.83 5.7-4.72.77-3.73 3.69-3.55 5.82-5s5.26-3 6-5.13a12.2 12.2 0 0 1 9.44-8.29c14-3.11 26.61-.9 36.61 10.37a7.86 7.86 0 0 0 2 1.2z" class="F"/><path d="M614.1 208.45a7.86 7.86 0 0 1-2-1.2c-10-11.27-22.64-13.48-36.61-10.37a12.2 12.2 0 0 0-9.44 8.29c-.78 2.16-3.82 3.65-6 5.13s-5 1.24-5.82 5c-.4 1.89-3.71 3.17-5.7 4.72a63 63 0 0 0-6.49 5.18 5.08 5.08 0 0 0-1.19 4c.17.86 1.92 1.59 3.09 2 8.08 2.81 16 .65 23.85-1 2.79-.6 5.64-.93 7.28 2.13.74 1.39 1.6 3.1 1.42 4.54-.7 5.71-1.75 11.37-2.78 17a3.8 3.8 0 0 1-1.46 2.55c-3.23 1.47-6.43 2.89-9.58 4.56-4.67 2.48-10.34 1.86-14.66-2.59a39.53 39.53 0 0 0-5-3.78l-1 .78a20.74 20.74 0 0 0 .87 2.94c1.45 3.11.54 5.14-2.74 5.92-4.69 1.1-5.81 3.65-3.51 8l4.79 8.85c-10.1 1.52-19.31.34-28.48-1.83 0-3.61 1.56-7.2-1.08-10.77-1.32-1.8-1.15-4.63-2-6.85-.32-.84-1.65-1.28-2.52-1.91 3.18-4.63 8.5-5.91 13.08-8.35 1.21-.64 2.5-1.12 3.75-1.68a37.48 37.48 0 0 1 18.46 3.45 3.66 3.66 0 0 0 3.4-.84c1.36-1.82 3.43-4.46 2.91-6s-3.67-2.54-5.82-3.4a10.16 10.16 0 0 0-4.4-.48c-4.2.32-8.39.83-12.59 1.26 1.23-3.39 2.12-7 3.81-10.1 1.26-2.34.64-4-.27-6 1.26-.22 2.86 0 3.75-.71 6.2-4.81 12.25-9.82 17.68-14.22-.12-2-.84-4.14-.17-4.77a17 17 0 0 1 5.56-2.94c2.29-.89 4.87-1.17 7-2.31 1.57-.84 1.66-2.87-.46-3.3-3.81-.77-7.71-2.25-11.57.29a3.25 3.25 0 0 1-3-.57c-3.06-3.35-4.68-3.19-7.86.3-3.69 4-7.72 7.79-11.61 11.67l5.74-16.26c.44-1.25 1-2.46 1.54-3.61 1.15 1.18 2 2.76 3.05 3 1.31.24 2.85-.62 4.25-1.1 1-.34 1.86-1.13 2.84-1.24 10.38-1.15 16.65-9.6 17.73-20.44.33-3.32 1.93-4.41 4.75-4.73 1.83-.21 3.7-.21 5.5-.58a14.26 14.26 0 0 0 3.19-1.46h.91c2.56.65 5.14 1.22 7.67 2 8.93 2.63 15.68 8.56 22.28 14.73a97.87 97.87 0 0 0 7.56 6.54c4.48 3.39 5 6.32 1.7 10.81a34.21 34.21 0 0 1-3.26 3.56c-2.02 1.9-2.35 3.96-.34 6.19zm-4.17-23.26c-5.13-3.44-10.27-.09-15.48-.37v1.08z" class="D"/><path d="M583.93 556.73l3.35.86c4.64 1.25 5.59.85 7.27-3.76 2.63-7.23 5.17-14.39 5-22.37a166.56 166.56 0 0 1 1.11-25.46c.77-5.94-1.79-10.86-2.72-16.25-.2-1.2-.2-2.43-.33-4.17 1.33.43 2.18.62 3 1l22.54 9.81c1.4.63 3.15 1.45 3.76 2.68a5.48 5.48 0 0 0 5.22 3.31c6 0 12 .64 17.77-2.49 4.08-2.21 9.12-2.61 13.26-4.73a165.58 165.58 0 0 0 18.44-11.26c1.8-1.25 2.49-4.12 3.66-6.26a11.59 11.59 0 0 1 1.07-2.11 22.75 22.75 0 0 1 3.44-3.36c.5-.37 1.5-.06 2.27-.06-.26 1.23-.18 2.69-.83 3.65-8.63 12.76-21.57 19.38-35.39 24.85-12.73 5-25.78 4.49-39 3.1-3.33-.35-6.69-.4-10-.61-2.51-.16-3.63 1.12-3.66 3.51l-.13 11.8c-.28 12.91-2.29 25.51-7.29 37.49-2.53 6.1-5.5 8.19-11.81.83zM145.08 169.9c-7.42 2.81-13.93 6.58-15.77 15.18-9.81 3.55-19.94 6.74-27.72 14-5.21 4.86-10.67 10.07-10.89 18.15v.69 1.27a35.24 35.24 0 0 0 7.35 25.52c2.66 3.47 5.39 6.9 7.84 10.51 2.16 3.19-.26 5.56-2.24 7.49s-4.9 3.1-6.91 5.09c-5.72 5.66-11.47 11.33-16.62 17.48-2.27 2.71-3.14 6.61-4.61 10-.83 1.92-.27 3.21 1.67 4.22a61.23 61.23 0 0 1 5.65 3.73 59.12 59.12 0 0 1-7.6-3.3c-1.06-.64-2.33-2.76-2-3.62 2.52-6.4 4.51-13.19 9.7-18.13 5.76-5.48 11.66-10.83 17.6-16.11 3.82-3.4 4.11-4 1.41-8.4a89.74 89.74 0 0 0-5.35-7.67c-6.46-8.3-8.13-17.85-7.48-28 .15-2.42-.18-5.06.7-7.2 1.18-2.88 3.25-5.42 5.06-8 .58-.82 1.75-1.24 2.31-2.07 4.8-7.13 13.36-8.18 19.88-12.49 3.47-2.28 7.15-4.69 9.64-7.9a36.15 36.15 0 0 1 11.33-9.4c2.31-1.29 5.76-2.28 4-6.33zm242.27-98.26l-8.8-4.48-5.64-.44-6.21.41-1.45-.13-7.6 1.76-.77.22-1.55.31-1.08.2-10 2.51h0l-6 5.7a8 8 0 0 1 6.63-7.53 47.39 47.39 0 0 0 4.71-1c9.38-2.38 18.83-4.59 28.54-3.11 4.7.71 9.57 2 12.34 6.7.3.52 1.16 1.25 1.44 1.14a3.2 3.2 0 0 0 1.52-1.58c3.75-9.36 8.32-11.33 18.47-9.79 7.32 1.11 12.45 5.69 18.29 9.19 6.07 3.63 9.3 9.88 13.31 15.36 1.22 1.67 2.12 2.61 4.49 1.82 5.46-1.82 10.94-3.27 16.84-1 1.9.73 4.46-.26 6.71-.46l4.36-.4c-4.17 1.96-7.9 3.88-12.9 1.74-6.42-2.69-12.74.36-18.47 2.6-4.46-5.77-8.22-12.14-13.41-17-6.55-6.09-14.41-10.52-23.8-11.32-6.34-.53-11.61 3.27-12.55 9.61-.43 2.9-.39 5.89-.9 8.78a31.65 31.65 0 0 1-1.94 5.42c-3.25.19-4-1.34-2.92-4.19a18.36 18.36 0 0 0 .56-2.57l.15-4.42-.38-1.43-1.76-2.48v-.16zm191.15 92.89h-.91l-13.11-12.68c-1.54-1.52-2.92-3.22-4.39-4.82-2.18-2.38-4.61-4.11-8.58-2.5.07-10-1.81-19.4-9.91-25.67-8.36-6.47-17.77-4.28-26.77-1.83-2.2-4.58-4.22-9.42-6.79-14-3.85-6.81-9.14-11.61-17.56-12.5-3.91-.42-7.65-2.44-11.46-3.73 8 .92 16.17 2.2 22.75 6.9 4.41 3.15 8.67 7.25 10.31 13.08a17.83 17.83 0 0 0 3 6.46 5.21 5.21 0 0 0 4.55 1.15c5.22-1.63 10.29-.46 15.43 0 5.44.54 9.2 3.9 12 8 3.23 4.74 5.68 10 6 16 .09 1.65 2 3.43 3.4 4.74l21.06 18.83c.59.63.67 1.73.98 2.57z" class="E"/><path d="M335.65,85.35c1.2,5.44,4,10.73,1.9,16.5-.47,1.31-1.69,2.36-2.59,3.52-1.12,1.43-2.18,2.93-3.43,4.25a18.75,18.75,0,0,1-2.89,2.13c-.58-1-1.6-2-1.68-3.11-.41-5.35-.47-10.6,4.79-14.17,2.13-1.45,1.4-5.89-1.41-9-2.46-2.66-5.16-5.1-7.75-7.64l6.14,3.43Z" class="D"/><path d="M145.08 169.9l-3.08-5.34-1.52-4.34a9.94 9.94 0 0 1 1.15.76l12 10.64c2.12 1.88 3.94 3.84 3.67 7-.06.74.74 1.59 1.23 2.32l8.78 13c.14.21-.05.64-.2 2.18l-8-9.7q-7-8.27-14.03-16.52z" class="F"/><path d="M692 469.86l-.31-7.95-2.61-22.82a23 23 0 0 1 0-2.35c1 4.2 2.43 8.35 3 12.62.71 5.47.82 11 1 16.55.05 1.31-.68 2.64-1.08 3.95zm-3.33-35.17l-7.48-17.7-4-9c2.5 4.57 5.32 9 7.39 13.73 1.81 4.13 2.76 8.63 4.09 12.97zM335.65 85.35l-6.92-4c3.91 1.9 6.72.25 9.09-2.81l-1.95 6.25-.07.24a.71.71 0 0 1-.15.32zM677.92 397.6q0-8.21 0-16.41 0 8.21 0 16.41zM499 624.18c-.21 2.61-1.94 3.65-4.22 4.12l-.29-.28q2.11-2.06 4.22-4.12zm79.25-70.78l5.43 3.13zm99.32-174.96l-.72-4.9zm-.8 25.49l.78-3.51z" class="E"/><path d="M316.17 73.7l-3.28-1.13zm2.66 1.61l-2.1-1.21z" class="D"/><path d="M676.93 407.56l-.2-2.08.2 2.08zM574 550.75l1.36.88zm2.16 1.3l1.35.89zm-75.79 70.76l-1.37 1.37-.29-.28 1.37-1.39z" class="E"/><path d="M312.19,72.1,311,71.53Z" class="D"/><path d="M139.87,159.67l.73.63Z" class="F"/><path d="M308.37 70.51l-.2.07-.08-.2.22-.1.06.23zm12.12 5.63v.12-.12zm1.75 1.44H322l-.09-.27zm-43.52-4.39l.07.13-.14-.01-.1-.14.17.02z" class="D"/><path d="M410 450.57c0 .12-.06.28 0 .34 4.91 5.24.77 10.56.3 15.91a111 111 0 0 0-.24 15.58c.33 6-1.82 11.19-4.68 16a10 10 0 0 1-10.1 4.8c-4.68-.63-9.08-1.8-13.12-4.83a27.27 27.27 0 0 0-11-4.64c-5.69-1.09-10.6-5.45-11.08-11.39a21.89 21.89 0 0 1 .08-6.57c.39-1.66 1.81-3.08 2.76-4.63l3.34-5.55 6.51-10.91c1.39-2.25 3-4.37 4.38-6.61a4.82 4.82 0 0 0 .48-2.19c.1-2.56-.39-5.27.28-7.66 2.22-8 4.37-15.83 1.95-24.17a17.23 17.23 0 0 1-.31-5.52c.32-7.45-9.45-18.6-19.68-16.22-.19 0-.34.28-.95.83l6.69 4.63c5.82 3.83 10.49 14.46 8.46 21.1a115.28 115.28 0 0 1-7.17 17.9c-2.61 5.21-6.05 10-9.32 14.88-3 4.51-7.73 5.62-12.88 3.48-6.2-2.56-11.28-6.7-14.12-12.62a25.27 25.27 0 0 1-1.58-18.14 30.93 30.93 0 0 0 .56-5.81 1.88 1.88 0 0 0 .17-.47 20 20 0 0 0 1.76-2.38c2.23-4.17 4.1-8.56 6.64-12.52 3.27-5.12 7.71-9.09 13.73-10.92l12.29-3.84c.43-.14.72-.74 1.75-1.86-2.54-.22-4.29-.51-6-.49-2.88 0-5.75.28-8.63.38-2.27.08-3.43-1.12-3.49-3.35-.06-2.54.57-5.31-.22-7.58-1.23-3.51-3.42-6.68-5.19-10l-.26-1.12-.67-.78q-1.16-2.31-2.29-4.64c.68-.93 1.19-2.44 2.07-2.69 2.3-.65 2.38-1.62 1.37-3.48-3-5.51-3-11.24-1.14-17.12a17.55 17.55 0 0 0 .39-3.36c0-.42.05-.85.08-1.28a25.55 25.55 0 0 0 1.08-15.29l1.1-5.54 5-14.51c.87-2.47 1.68-5 2.68-7.38.23-.56 1.09-.86 1.66-1.28a9.23 9.23 0 0 1 .41 2l-.4 10.8V301c-.09.33-.17.66-.25 1s-.05.87-.08 1.3a33.5 33.5 0 0 0-1.45 3.18c-1.12 3.34-1.84 6.85-3.32 10-1.64 3.52-.71 16.28 2.16 19.32 4.39 4.66 9.08 9 13.48 13.71 2.56 2.71 3.82 6.2 2.62 9.81a109.22 109.22 0 0 1-5.32 12.7c-1.7 3.57-.95 6.35 2.77 8.47l.78.79c1 1.51 1.7 3.49 3.09 4.45 7.83 5.44 16.39 8.71 26.15 8.09 1.05-.07 2.84.56 3.07 1.26.29.9-.41 2.38-1.1 3.3-2.28 3-4.79 5.84-7.12 8.81-3.91 5-4.57 17.62.8 21.23 3.49 6.07 6.93 12.18 13.12 16l.1.1 2.9 2.38z"/><path d="M317.9 592.45c1.69 2.78 3.14 3.18 5.58.45s4.57-6.28 6.85-9.44c2-2.83 5.12-5 5.45-8.92.11-1.28 1.06-2.48 1.48-3.76 2.14-6.47 7.21-10.67 11.82-15.19.81-.8 3.09-1.49 3.5-1.07a12.18 12.18 0 0 1 3 5.07c.3 1.07-.64 2.62-1.31 3.8-1.51 2.7-3.36 5.23-4.73 8a3.66 3.66 0 0 0 .49 3.35c2.39 2.35 1.76 4.26-.35 6.19l-16.65 15.08a129.18 129.18 0 0 1-12.86 10.3c-3.36 2.25-7.33 3.6-11.08 5.24-1.77.78-3.65 1.29-5.48 2-2.86 1-5.42 2.07-8.89 1.35-3.19-.67-6.85 1-11 1.72l1.51-7c-2-.18-3.9-.48-5.8-.47-2.31 0-2.67 1.65-2.8 3.58s-.54 3.75-.83 5.62c-1.76-.9-3.77-1.51-5.25-2.76-5.88-5-12.14-9.65-17.27-15.33-9.29-10.3-14.47-22.81-16-36.55a164 164 0 0 1-.65-22.83c.11-4.17 1.4-8.32 2.19-12.47l1.88-9.41c.69-3.71 2.45-4.57 5.63-2.7 3 1.76 5.45 1.34 7.67-1.26.68-.79 1.25-1.84 2.12-2.26 7.6-3.73 8.83-11.21 11-18.19a77.83 77.83 0 0 1 3.7-8.45 44.68 44.68 0 0 1 3.3-6.73c.76-1.12 2.52-2.31 3.67-2.18s2.94 1.94 2.92 3a29.88 29.88 0 0 1-1.47 9.81c-3.79 10-2.8 20.15-1.45 30.37.48 3.65.45 7.27 2.71 10.57.77 1.12.25 3.39-.17 5-.84 3.22-2.1 6.33-3 9.54a3.45 3.45 0 0 0 .42 2.55c2.71 3.95 4.2 8.07 3.27 13a5.26 5.26 0 0 0 1.52 3.94c5 4.92 6.33 10.48 3.73 17-.47 1.18-1 2.35-1.38 3.56-1.18 3.78-.15 5.82 3.75 6.57 2.66.51 3.57 1.54 2.9 4.24a29.68 29.68 0 0 0-.82 6.51 18.29 18.29 0 0 0 .86 4.18c1.34-.53 2.87-.81 4-1.66 2-1.53 3.68-3.46 5.59-5.11q3.81-3.25 7.78-6.31a4.64 4.64 0 0 1 2.21-.82c2.04-.39 4.14-.51 6.74-.72zm182.16 30.06l-1.37 1.39q-2.1 2.07-4.22 4.12c-5.54 4.11-10.92 8.47-16.69 12.23a39.83 39.83 0 0 1-10.54 4.47c-1.68.49-3.91-.1-5.65-.79-5.66-2.21-11.26-4.6-16.8-7.11-3.75-1.69-7.34-3.71-11-5.58-5.52-2.8-11.13-5.44-16.56-8.43-4.21-2.32-8.25-5-12.26-7.68a37.31 37.31 0 0 1-4.25-3.83l.75-1.28 11.26 5.82c1.2-2.94-.59-3.69-2.25-4.79-1.94-1.29-3.51-3.13-5.46-4.39-5.55-3.6-6.46-9.65-8.36-15.19-.6-1.74-1.12-3.52-1.63-5.29-1.38-4.71-3-9.37-4-14.17a65.51 65.51 0 0 1-1-11.65c-.06-3.45.72-6.94.43-10.36-.32-3.7 1.46-5.89 4.08-7.78 1.57-1.13 3.28-2 4.71-2.92-1.19 4.37-3.05 8.77-3.45 13.3a137.58 137.58 0 0 0-.06 21c.16 2.5 2.69 4.74 3.43 7.31 3 10.39 9.27 18.69 16 26.79 2.86 3.44 5.38 7.17 8.19 10.66 1.56 1.92 3.19 3.32 5.56.53a57.5 57.5 0 0 1 6.6-5.93 7.22 7.22 0 0 1 1.44-.85c2.8 2.76 5.49 5.06 7.75 7.72s4.09 5.93 6.33 8.74c3.07 3.86 5.58 3.71 9.28.3 3.49-3.21 7.3-6.06 10.91-9.14a36.71 36.71 0 0 0 3.05-3.56 41.45 41.45 0 0 1 .89 5.24 33.25 33.25 0 0 1-.5 4.63l1 .27c1-2.82 2.14-5.6 2.95-8.48 2.2-7.75 4.6-15.46 3.79-23.75-.19-2 1.08-4 1.25-6 .29-3.5 0-7.06.39-10.54s.75-7.11 2.17-10.2c1.82-3.94 3.89-4.32 8-2.91a18.32 18.32 0 0 1 3.46 1.58c4.11 2.47 8 .2 8.18-4.78.06-1.56.23-3.1.36-4.94a8.32 8.32 0 0 0 2.38.65c.91-.08 2.37-.27 2.56-.78a3.64 3.64 0 0 0-.45-3c-.89-1.16-2.38-1.84-3.39-2.94a85.86 85.86 0 0 1-6.41-7.6c-.63-.88-.34-2.42-.46-3.66 1.27.06 2.91-.35 3.76.29 2.66 2 5 4.42 7.53 6.56a14.42 14.42 0 0 0 2.84 1.48c.17-1 .75-2.25.43-3.1a81.1 81.1 0 0 0-4.43-10c-3-5.44-6.39-10.67-9.46-16.08a4.69 4.69 0 0 1-.2-3.23l5.4-18.3c3.12 11 6 23.33 10.23 35.21a119 119 0 0 0 18.66 32.94l-1 1-16.48-7.09c-.5 4.67-.72 8.52-1.37 12.3-1.19 6.78-2.63 13.53-4 20.28-.39 1.92-.77 3.84-1.25 5.73-2.3 9.11-5.58 17.81-11.05 25.56z" class="D"/><path d="M319.4 238.57l1.05-6.79a.28.28 0 0 0 0-.38c1.63-5.25 5.88-7.87 10.28-10.39.93-.53 2.22-1.32 2.37-2.17 1.17-6.75 4.26-12.74 7.14-18.82l3.86-4.91c1.19-1.39 3-2.6 3.46-4.2 1.77-5.95 6-6.42 11.06-5.69a17 17 0 0 0 3.22-2.4c4.18-5 8.08-10.16 12.37-15 3.25-3.68 7.07-5.76 11.38-1.19l7.66 8.91c.53 2.7 1.39 5.39 1.51 8.11.23 5.58-2.76 7.48-8.24 5.94-4.65-1.3-9.37-2.36-14.11-3.28-2.89-.56-4.19.92-3.49 3.78.52 2.11 1.61 4.1 2 6.22.55 2.77.68 5.62 1 8.43l-.91.37c-3.69-3.56-5.39.61-7.69 1.88-.69.38-.85 2.66-.47 3.83 1 3 .27 4.85-2.86 5.77a6 6 0 0 0-1.88 1.48 75.77 75.77 0 0 1-6.37 5.55c-3.85 2.68-4.05 3.78-.61 7.48l.52 2c.49 6.31.49 6.31-9.62 8.29 3.54 5.91 9.63 8.26 14.83 12.46h-19.23c1.17 6.64-3.07 11.25-8.2 16.26 8.68 2.54 16.54 1.34 24.48.33l-1.47 4.43h0c-.79.4-1.82.62-2.31 1.25-1.71 2.26-3 4.84-4.89 7-2.47 2.81-5.33 5.28-8 7.95-1.72 1.74-3.35 3.58-5 5.38l-12.47-7.84a14.45 14.45 0 0 1-7.2-7c-.82-1.55-1.59-3.13-2.38-4.7-.27-3.72.3-6.8 4.2-8.8 2.72-1.39 3.85-4.29 4.06-7.47a16.45 16.45 0 0 1 1.22-3.84c1.44-2.39 3.82-4.67 2.09-7.75a16.87 16.87 0 0 1-2.36-10.48zm233.07 147.26c1.51-4.18 2.29-8.81 7.81-10.05.9-.2 1.65-2.36 1.92-3.73.55-2.77 1.66-4.38 4.82-4.19 1.35.09 2.75-.58 3.88-.85l12.52 7.16c2.49 1.33 4.8 0 6-2.86l4.67-11.1a7 7 0 0 0 .65-3c-.35-4.69-.86-9.36-1.27-14-.1-1.07 0-2.16 0-3.23l1-.47c1.84 1.79 4.1 3.31 5.43 5.41a87.28 87.28 0 0 1 6 11.57c1.52 3.45 2.48 7.14 3.84 10.66.84 2.18 2.45 1.6 3.49.31 1.49-1.83 2.77-1.43 4.47-.41a39.49 39.49 0 0 0 6.51 3.24c1.08.4 2.9.46 3.61-.18 1.36-1.21 3.06-2.75 1.63-5.06-1.92-3.12-3.54-6.49-5.82-9.33-2.51-3.13-2.49-6.59-2.3-10.12.12-2.08 1.61-3 3.74-2.31a4 4 0 0 0 .67.2c2.15.12 4.84 1.08 6.36.14 2.63-1.62 1-4.57.43-7-.26-1.19-.46-2.39-.86-4.48 9.72 5.89 13.59 14.88 17.8 23.68 4.43 9.28 4.56 18.86 2.1 29-3 .46-6.4 1.14-9.88 1.51l-36.83 3.73c-2.83.26-5.8.24-8.08-2.21-.47-.5-1.72-.28-2.6-.4l-38.88-.88-.75-.82-.52.62z" class="F"/><path d="M454.33 422.54c.47-.45 1.26-.83 1.36-1.34.61-3.37 1.15-6.76 1.58-10.16.39-3.06 1.75-4 4.68-3.3 5.74 1.3 9.13 5.88 13.37 9.28a3.5 3.5 0 0 1 1.17 2.43c-.16 5.61-.07 11.28-.88 16.8-.77 5.25.62 10 1.75 14.91l3.53 16c.33 1.44.83 2.84 1.28 4.26a34.68 34.68 0 0 1-.52 22.69 7.69 7.69 0 0 0-.64 2c-.25 3.38-1.44 6.34-5 7.05-4.37.88-8.5.32-11.13-4.1-1.56-2.62-3.61-5-5-7.67-.95-1.88-1-4.19-1.65-6.25a124.21 124.21 0 0 1-5-50.32c.43-3.82.65-7.66 1-11.5zM337.2 474.08c0 7.81-4.32 13.94-9.07 19.24-2.74 3.05-5.55 7-10.41 7.95-1.53.3-2.86 1.84-4.17 3-2.26 1.92-4.38 2.47-6.61-.05-2.88-3.26-5.75-6.54-8.82-9.61a13.66 13.66 0 0 0-5.23-3.64 6.33 6.33 0 0 1-4.94-6.31c-.77-14.52 2.7-27.42 14.64-36.91 3.19-2.54 6.4-5.06 9.69-7.47 1.92-1.4 3.5-1 4.2 1.43l2 7.3c2.14 7.28 5.52 13.87 11 19.22.66.64 1.82.76 2.75 1.12zM230.45 373.7c2.35-2.86 4.48-5.7 6.88-8.31s2.27-3.47-.82-4.55c-1.69-.59-4.75-1-4.83-1.72a11.82 11.82 0 0 1 1.42-6.22c1.75-3.42 4-6.6 5.94-9.92 1.4-2.36 2.49-4.93 4.09-7.14a17.43 17.43 0 0 1 4.9-4.93c5.64-3.3 11.59-2.41 17.66-.93a42.55 42.55 0 0 0 11.52 1.19c5-.16 8.07 3.26 5.71 7.62-3.45 6.36-7.26 12.48-13.93 16.36-8.12 4.72-15.74 10.34-23.93 14.94-3.77 2.12-8.37 2.78-12.64 4a3.86 3.86 0 0 1-1.97-.39z"/><path d="M337.2 474.08l-5-4.78-4.58-6.39c-5.89-8-8.71-17.16-10.19-26.77-.46-3 .11-6.16.21-9.25l.23-2.78.6-4 .44-2 5-10.6a7.21 7.21 0 0 1 .27-.64l4.15-6.23-6.13-.23-3.08-.06a18.42 18.42 0 0 1 2.87-1.53c3.73-1.24 7.06-3.72 7.79-7.24a61 61 0 0 1 5.6-15.82c.8-1.54 1.58-4-1.68-4.4v-15.7l5.31 3.33 2.28 4.64.68.78c.09.37.17.75.25 1.12a21 21 0 0 1-.85 14.77 13.38 13.38 0 0 0-.87 4c-.28 2.67.24 4.8 3.5 5.3 1.06.16 2 1.1 3.23 1.82a12.12 12.12 0 0 1-1.91 1.79c-8.5 4.58-11.18 13.37-15.23 21.14-.54 1-.33 2.46-.47 3.7a1.88 1.88 0 0 1-.17.47c-.88 2-2.4 4-2.51 6.08-.45 8.37-1.56 16.8 1 25.07a25.9 25.9 0 0 0 9.85 13.75c3.29 2.36 7 2.33 10.51.25 5.51-3.25 9.51-7.86 13.07-13.07a101.8 101.8 0 0 1 8.13-10.08c.77-.86 2.34-1 3.54-1.48a11.8 11.8 0 0 1 0 3.41c-3.55 12-11.92 19.88-22.5 25.77-2.72 1.51-5.42 3.07-8.23 4.37a33.41 33.41 0 0 1-5.11 1.49z" class="D"/><path d="M282.35 420.05a37.14 37.14 0 0 0-2.26 3.21c-1.83 3.29-3 7.22-5.5 9.79-2.7 2.72-6.63 4.27-10.16 6.06-.51.26-2-.83-2.67-1.61a74.37 74.37 0 0 1-4.68-6.33c-2.82-4.19-5.6-8.41-8.26-12.7a3.08 3.08 0 0 1 0-2.57c2-3.85 3.9-7.87 6.49-11.32 2.36-3.15 5.51-5.74 8.45-8.44a70.59 70.59 0 0 1 7.58-6.22c1.44-1 3.42-1.18 5.06-1.95 2.45-1.14 5.77-1.29 6.08-5.14 0-.39 1.84-1.18 2.37-.91 2.91 1.51 3.92 6.3 2.21 9.27a4.92 4.92 0 0 0-.65 2.26l-.12 14.54-.05.09-2.18 6.57-.46 2.5-.89 1.67-.36 1.23z"/><path d="M497.55 404.82a62.82 62.82 0 0 1 6.75-4.23c2.14-1 2.41-2 1.36-4l-9.49-18.67a6.22 6.22 0 0 1 3.43-8.53c1.48-.61 3.17-1 4.34-2 3.63-3.06 2.33-9.89-2.78-12.59-3.27-1.73-7.12-2.39-10.75-3.41-5.44-1.54-7-6-3.91-10.83 1.3-2 2-4.49 2.89-6.76.22-.54.23-1.22.57-1.63q6.63-7.83 13.36-15.57c.24-.28.79-.3 1.76-.63-2.23 7.16 3.18 10.55 6.44 15l.35 3.7c.15 2.2 1.18 5.05.19 6.47-2.39 3.39-2.6 6.9-2.8 10.72-.26 4.78 1.81 8.55 6.45 10.57q2.82 6 5.66 12.07c-1.21 2.1-2 5.28-3.74 6.06-2.78 1.2-5.17 2.6-5.92 5.27a39.15 39.15 0 0 0-1.66 11.59c.13 4.15-2.06 6.28-4.9 8.36s-5.34 1.52-7.6-.96zm-215.2 15.23l.37-1.23.89-1.67.46-2.5c2.82-1.49 2.59-4 2.18-6.57l.05-.09a20.66 20.66 0 0 1 1.55-2.67c.9-1.13 2-2.13 2.95-3.18.61 1.21 1.62 2.39 1.72 3.64.14 1.66-.44 3.37-.72 5.06-.57 3.41-.62 7-1.85 10.19a39.12 39.12 0 0 1-5.78 9.63c-5.54 7.07-11.61 13.75-17 20.94-1.74 2.33-2.34 5.5-5.43 6.76-5.23 2.12-10.38 4.44-15.69 6.31s-10.63 3.13-15.91 4.84c-2.39.77-3.79.3-5.11-1.95-1.51-2.56-3.81-4.65-5.37-7.19-6-9.72-4.93-19.82-1.22-30 1.23-3.36 2.32-6.79 3.84-10 .9-1.91 2.53-3.47 3.8-5.22l3.42-4.85h0l3.24-1.63 4-2.06.91.89c-2 4.2-4.35 8.3-6 12.64a31.17 31.17 0 0 0-1.62 8.93c-.28 4.27-.11 8.57-.16 12.85s-.67 8.54 0 12.66c.81 5.3 10.09 8 14.24 4.77 2.31-1.81 5.29-2.76 7.67-4.51 7.22-5.29 14.62-10.42 21.33-16.32a28.71 28.71 0 0 0 9.24-18.47zm-72.89-30.87c-.44-.09-1.11 0-1.28-.31-3.1-4.93-6.61-9.68-9.1-14.92a29.81 29.81 0 0 1-1.63-21.22 41.07 41.07 0 0 1 10.61-18.93 8.69 8.69 0 0 1 4.37-2.53c2.52-.35 3.72-1.14 2.73-3.82 2.89-.93 4.52-.32 5.3 2.43a6.45 6.45 0 0 0 1.79 2.76c2.36 2.22 1.88 3.94-1 5.41-3.33 1.68-6.78 3.5-9.39 6.07-1.57 1.54-2.1 4.58-2.27 7a192 192 0 0 0-.59 19.63c.33 10.62 7.14 14.9 16.41 11.18 8.2-3.28 16-7.57 23.83-11.74 4.86-2.6 9.37-5.85 14.09-8.71a20.22 20.22 0 0 1 3.51-1.34l.94 1c-1.36 2.93-2.62 5.92-4.13 8.77a25.44 25.44 0 0 1-3.65 5.39 19.81 19.81 0 0 1-5.19 4.17c-4 2-5.74 4.82-4.93 9.66l-10.81.61c.34-.29.9-.53 1-.89.43-1.54.72-3.11 1.06-4.67a17.71 17.71 0 0 0-3.44-.36 127.44 127.44 0 0 0-12.69 1.49c-5.22 1.04-10.36 2.56-15.54 3.87zm186.95-69.8c0-1.71-.37-3.5 0-5.12 1.08-4.6 2.42-9.15 3.73-13.7.78-2.72 2.49-3.09 4.77-1.65 4 2.54 7.85 5 9.54 10a8.61 8.61 0 0 0 10.17 5.67c1.79-.35 3.31-2.14 5.17-3.42 1.24 1.69 1 3.27-.55 5.56a71 71 0 0 0-7 12.84c-.64 1.52.17 4.27 1.26 5.79 2.69 3.76 3.8 7.25.9 11.39a3.2 3.2 0 0 0 .12 3c5.23 5.7 11.85 10.08 19.31 10.58 7.87.52 16.28.35 23.42-4.52a8.62 8.62 0 0 1 1.6-.64c-.53.93-.83 2.26-1.63 2.73-7.66 4.43-15.48 8.12-24.83 7.23-4.54-.43-9.21.32-13.81.58-3.82.22-7.36-.26-10.32-3-.7-.65-1.89-.77-2.86-1.13.23-2.14-.13-3.9-2.83-4.18l-2.37 1.75c-.31-6.21-.7-12.36 2.74-18.09a67.69 67.69 0 0 0 4.17-9.35c1-2.51.34-4.24-2.2-5.65a64.3 64.3 0 0 1-8.3-5.75c-2.64-2.07-5.07-4.41-8-6.94z" class="D"/><path d="M403.61 403a12.46 12.46 0 0 0 2.21-2.27c3.5-6.06 8.77-10.16 15.54-10.86 2.86-.29 6.84 2 8.88 4.36s2.7 6.21 3.29 9.53c.85 4.83 1.15 9.76 1.59 14.66.36 4.05-1.1 6.74-4.9 8.1-6.42 2.28-13.19 2.43-19.8 1.49a7.07 7.07 0 0 1-5.9-6.48l-1.48-16.1.22-1.31.25-.86z"/><path d="M225.18 277.44c.93.38 2.12.5 2.74 1.16 5.94 6.28 6.12 13.5.72 20.45a41.61 41.61 0 0 0-2.44 4.07c4.9 3 10 2.31 15.12 2 10.28-.4 19.72-3.16 27.7-10a24.49 24.49 0 0 0 2.08-2.23c-.31 1.5-.13 3.43-1 4.4-1.85 2-2.19 4.27-2.77 6.8-.93 4.12-1.35 8.45-5.19 11.68-4.74 4-9.63 6.78-15.92 6.66-7.41.38-12.77-3.82-18-8.16-3.54-2.93-7-5.94-10.48-9-.49-.42-1.12-1.09-1.09-1.61.23-4.88.58-9.76.9-14.64l6.93-11zm290.53 84.99c-4.64-2-6.71-5.79-6.45-10.57.2-3.82.41-7.33 2.8-10.72 1-1.42 0-4.27-.19-6.47-.08-1.23-.23-2.47-.35-3.7 5.91 6 12.37 11.27 20.32 14.42 1.8 1 3.54 2.17 5.4 3 2.08 1 3.07.6 3-2.17-.2-5 0-10.06.26-15.08.06-1.22.79-2.39 1-3.62.61-2.95 1.12-5.92 1.76-9.35 2.38 0 4.55 1.86 6.27 4.05 5.05 6.41 5.48 18.25 1.25 25.48-.84 1.45-1.09 3.26-2 4.65a7.07 7.07 0 0 1-3.09 2.62c-3.28 1.33-6.69 2.35-10.05 3.49a20.62 20.62 0 0 1-3.17 1.12l-16.76 2.85zm-213.23-20.75l-13.16-15.32c-.51-.62-.23-2-.13-3 .22-2.09 1-4.2.78-6.23-1-10.3 1-19.35 9.55-26.11a75.88 75.88 0 0 0 5 6c3.15 3.12 3.21 5.19.38 8.77-3.69 4.65-7.15 9.49-10.7 14.25l.46 3c1.22 6.92 1.24 7 8.07 5.55a41.24 41.24 0 0 0 6.06-2.28l4.67-.17 16.67-5.06c.66 2.35 2.14 4.82 1.8 7-.55 3.6-2.21 7-3.53 10.49-1.63 4.24-5.41 5.1-9.33 5.67l-9.13-.78z" class="F"/><path d="M229.51,410.3c-2.92,1.69-5.73,3.6-8.78,5a108.88,108.88,0,0,1-11.21,4.24,13.18,13.18,0,0,1-4.44.46c-3.07-.09-4.22-1.68-3-4.57,1.67-3.93.11-7.36-.89-11a41.51,41.51,0,0,1-1.82-10.36c0-2.86,2.51-3.47,5.12-3.21,5,.48,10,1.15,15,1.28,8.09.2,16.19.14,24.29-.05,2.94-.07,5.85-.9,8.79-1.28a3.67,3.67,0,0,1,2.74,1c-5.72,3.33-11.64,6.37-17.09,10.1-3.3,2.25-5.86,5.57-8.75,8.42Z"/><path d="M160.35 534.7l-1.74-17.16c-.62-8 1.3-15.35 4.67-22.66 2.65-5.76 3.84-12.19 6-18.22.5-1.44 2.12-2.5 3.27-3.71 3.07-3.23 6.08-6.53 9.28-9.64 2.83-2.76 5-2.09 6.46 1.54 2.13 5.48 1.25 10.13-2.6 14.73-2 2.42-2.65 6-4.23 8.85-2.49 4.49-5.52 8.7-7.82 13.29a139.2 139.2 0 0 0-5.2 13c-.64 1.7-1 3.49-1.58 5.23-.31 1-1.15 2-1 2.88 1.3 5.33-1.95 8.41-5.51 11.87z" class="D"/><path d="M497.55 404.82c2.26 2.48 4.76 3 7.6 1s5-4.21 4.9-8.36a39.15 39.15 0 0 1 1.66-11.59c.75-2.67 3.14-4.07 5.92-5.27 1.79-.78 2.53-4 3.74-6.06l.64 3.73q.65 2.46 1.3 4.94a48 48 0 0 1-4.31 21.73c-.58 1.24-1.49 2.31-2.16 3.51-.84 1.53-2 3.05-2.27 4.7-.37 2.13-1.35 2.86-3.26 2.53q-16.83-2.93-33.64-5.94c-1.39-1.09-3.86-2.12-3.94-3.31a17.9 17.9 0 0 1 1.29-8.86c2-4 1.95-7.29-.5-10.91-.61-.9-.32-2.41-.44-3.64a71.14 71.14 0 0 0 23.47 21.8z" class="F"/><path d="M426.51 467.62q3 6.3 6.08 12.58a2.3 2.3 0 0 0 .54.88c4.31 3.09 4.95 8.41 7.65 12.47 2 3 1.13 5.57-.91 8.2-3.38 4.38-6.18 8.88-5.71 15 .21 2.81-1.25 5.82-2.28 8.61-.27.75-2.07 1.71-2.67 1.44a69.58 69.58 0 0 1-10.85-5.61c-1-.66-1.3-3.24-1-4.79l5.19-28.94c.81-5.07.86-10.26 1.4-15.38a25.15 25.15 0 0 1 1.27-4.39z"/><path d="M474.06 383c.12 1.23-.17 2.74.44 3.64 2.45 3.62 2.46 6.92.5 10.91a17.9 17.9 0 0 0-1.29 8.86c.08 1.19 2.55 2.22 3.94 3.31l-18.51-5.05c-1.21-.34-2.32-1-3.51-1.44-4-1.37-6.26-4.92-5-8.88.78-2.48.74-4.05-1.21-6.05-2.62-2.7-1.78-3.14 1.12-5.45 3.45-2.74 6.17-6.44 9.08-9.82 2.46-2.86 4.75-5.86 7.36-9.1l3.9 7.54c0 .41 0 .82.05 1.23q1.56 5.16 3.13 10.3z" class="D"/><path d="M333.76 371.38c3.26.42 2.48 2.86 1.68 4.4a61 61 0 0 0-5.6 15.82c-.73 3.52-4.06 6-7.79 7.24a18.42 18.42 0 0 0-2.87 1.53c-6.57 1.16-12.63-1.37-18.8-2.85-1.27-.3-2.29-2.11-3.2-3.39-5.78-8.14-10.65-16.67-11.06-27a26.94 26.94 0 0 1 4.53-15.66 44.47 44.47 0 0 0 5.14 2.73c2.76 1.07 3.67 2.5 3 5.67-1 5.14-1.31 10.43-1.91 15.66-1.38 4.08-1.46 8.1.57 12 3.09 7.51 6.43 8.72 12.07 4.4 5.63-3.24 11.45-6.2 16.82-9.82a16.81 16.81 0 0 0 7.42-10.73zm76.45-12.27l2.37-1.75c2.7.28 3.06 2 2.83 4.18l-1.56 4.65a27 27 0 0 0-1.39 3.47l-4.44 18.38c-8.2 5.14-16.79 6.38-25.88 2.57l-5.43-2.19-.5-.32a.54.54 0 0 0-.28-.2l-6.87-4.58-.14-.14c-.42-2.23-1.87-5-1.06-6.59a22.49 22.49 0 0 0 2.47-10.09c0-2.54-.4-5.08-.63-7.62q-.65-4.85-1.3-9.69l2.92-2 2.06 3.21a13.16 13.16 0 0 1 .68 1.53l.94 5.33c1.28 11.13 7.33 20.17 13.06 29.29 2.23 3.56 3.84 3.36 6.91.66 5.52-4.86 9-11 11.36-17.83l1.07-2.8h0zm-.21 91.46l-4.16-3.63-2.9-2.39-.1-.1 1.41-5.66a9.26 9.26 0 0 0-.58-8.22 23.61 23.61 0 0 1-2.07-6.87c-.18-.91.47-2 .74-3 2.33 8.46 7.26 15.43 12.69 22.11a54.59 54.59 0 0 0 4.12 5.05c1.27 1.23 2.81 2.7 4.42 3 7.54 1.34 14-3.87 14.82-11.55a.49.49 0 0 0-.05-.48l.06-.85.26-2.59.74-3.62.25-7.57c1.57-2.45 3.88-3 6.61-2.67a8.17 8.17 0 0 0 3.66-.24c2.28-.88 2.95.15 3.12 2.12-1.37 14.25-7.25 25.78-20 33.17a6.32 6.32 0 0 0-1.38 1c-2.69 2.87-5.37 3.9-8.34.31-.46-.57-1.4-.74-2.13-1.1l-3.32-1.45z" class="F"/><path d="M324.24 406.89l-.27.64c-4.41 2.65-6.06 6.14-5 10.6l-.44 2c-2.14 1-1.83 2.46-.6 4l-.23 2.78c-.68 1-1.91 2-1.92 3 0 3.09-1.47 5.73-4.13 6-2.39.27-5.14-1.15-7.46-2.35s-3.87-3.15-6-4.4c-2.82-1.66-3.36-3.58-1.95-6.41 1.58-3.17 2.7-6.57 4-9.87 1.1-2.73 2.14-5.5 3.41-8.15a3.47 3.47 0 0 1 2.24-1.82c5.12-.48 10.25-.87 15.39-1 4-.13 4.07.11 2.88 4a3 3 0 0 0 .08.98z"/><path d="M383.06 548.9c-15.89-2.27-29.37-17-32.93-32.95-2.41-10.81-.2-26.9 4-29.38.58 4.4 1.55 8.68 1.6 13a22.82 22.82 0 0 0 3 11.46c4.63 8.18 8.59 16.75 13.4 24.81 2.31 3.88 6 7 9 10.43.54.63 1.01 1.38 1.93 2.63zm-62.58-317.5a.28.28 0 0 1 0 .38c-2.65.39-4.79 1.35-5.64 4.27-.42 1.45-1.51 2.46-3.14 1.15-2.6-2.09-4.12-.43-5.73 1.48a14.87 14.87 0 0 1-3.89 3.71c-4.72 2.56-8 6.41-10.92 10.78-.93 1.38-2.86 2.08-4.33 3.1l-11.95-5.49v-1.34c8.53 1.95 10.57-4.6 13.61-9.67 2-3.38 3.88-6.72 4-11.07.11-4.09 3.59-5.39 7.38-3.51 1.55.77 3.06 1.63 4.58 2.46l.6-.64L304 224c4.23 1 8.44 2.2 12.71 3.07 2.49.51 3.98 1.57 3.77 4.33zm-74.27 91.07c6.29.12 11.18-2.68 15.92-6.66 3.84-3.23 4.26-7.56 5.19-11.68.58-2.53.92-4.76 2.77-6.8.88-1 .7-2.9 1-4.4l3.16-9.21c1.22 3.23 2.64 6.28 3.51 9.48 1.54 5.63 2.81 11.33 4 17.05.18.82-.53 1.94-1.06 2.78-2.64 4.18-5.28 8.36-8.11 12.4a4.85 4.85 0 0 1-3.12 1.8 22 22 0 0 1-6.17-.22c-4.65-.84-9.26-1.88-13.86-3a16.23 16.23 0 0 1-3.23-1.54zm156.13 98.24c-.27 1-.92 2.08-.74 3a23.61 23.61 0 0 0 2.07 6.87 9.26 9.26 0 0 1 .58 8.22c-.64 1.83-.95 3.77-1.41 5.66-6.19-3.86-9.63-10-13.12-16-1.49-4.79 1.2-8.85 2.36-13.17a7.36 7.36 0 0 1 1.72-2.9c2.23-2.45 4-5 3.95-8.55a3.91 3.91 0 0 1 .81-2.58c1.16-1.17 2.84-3 3.94-2.81 2.4.49 1.69 2.76 1.11 4.56l-.09.26c-.09.28-.17.57-.26.86s-.14.87-.22 1.31c-.39 3.29-.9 6.57-1.12 9.88a35.89 35.89 0 0 0 .42 5.39z" class="D"/><path d="M526 405.84c-.71 4.34 2.36 6 5 7.77 6.42 4.26 8.93 11.45 13.17 17.32.58.81 0 3.41-1 4.16-1.92 1.58-4.28 4.05-7 2.15a35.14 35.14 0 0 1-8.61-7.76 75.26 75.26 0 0 1-7.3-13.23c-2.21-4.88.05-9.08 5.74-10.41zm-101.63-24.98a9 9 0 0 1-1 0c-2.19-.29-6.16-.28-6.28-.94a32.27 32.27 0 0 1 .19-9.85c.1-.72 2.17-1.63 3.33-1.64 8.33-.05 16.66.07 25 .27 1.23 0 2.44.8 3.66 1.23a32.3 32.3 0 0 1-2.19 2.73l-8.16 8c-1.56 1.58-3.05 1.78-5.28 1.11-2.92-.87-6.09-.93-9.15-1.34z"/><path d="M294.2 320l10.7-14.25c2.83-3.58 2.77-5.65-.38-8.77a75.88 75.88 0 0 1-5-6 53.64 53.64 0 0 1 7.11-3.38c2.78-.87 3.47-2.53 3.31-5.17a48 48 0 0 1 .28-5.6l2.38 4.7a14.45 14.45 0 0 0 7.2 7c-2.21 2.93-5.62 5.46-3.22 9.93.18.35-.32 1.05-.5 1.58a22.25 22.25 0 0 1-8.08 11.21c-3.59 2.67-7 5.57-10.63 8.2-.81.55-2.11.39-3.17.55zM453 423.41c-.17-2-.84-3-3.12-2.12a8.17 8.17 0 0 1-3.66.24c-2.73-.31-5 .22-6.61 2.67-2.26-4.26-2-8.76-1.3-13.3a16.58 16.58 0 0 1 .59-1.62c2-7.14 2.13-7.13 9.44-5.41a5.29 5.29 0 0 1 4.38 4.69c.7 4.64 1.06 9.32 1.57 14l-.09.73z" class="D"/><path d="M470.93 372.72l-.05-1.23a29.15 29.15 0 0 1 .35-5.14c.37-1.54 1-4 2-4.19a9.52 9.52 0 0 1 6.49.66c1 .64.88 3.46 1.06 5.32.06.59-.56 1.23-.81 1.87-1.42 3.63-.58 6.71 2.3 9.32s5.43 5 8 7.66c.68.71 1.32 2.44.95 3a7.31 7.31 0 0 1-3.35 2.1 3.28 3.28 0 0 1-2.32-.36 18.91 18.91 0 0 1-8.86-9.88c-1.37-3.3-3.81-6.12-5.76-9.13z"/><path d="M296.91 375.51c.6-5.23.88-10.52 1.91-15.66.64-3.17-.27-4.6-3-5.67a44.47 44.47 0 0 1-5.14-2.73l8.62-6.89c1.11-.91 2.14-1.91 3.2-2.87l7.47 1.76c1.24 3.44-1.35 5.78-2.51 8.5-1.59 3.69-3.45 7.27-5.09 10.95-1.24 2.78-2.29 5.66-3.47 8.47-.63 1.41-1.34 2.76-1.99 4.14z" class="D"/><path d="M286.86 447.21c-.51 6.33-4 10.41-7.12 14.62-.55.74-1.27 1.34-1.88 2-3.59 4.14-3.69 4-8.56 1.41-1.66-.87-4-.41-6-.67a33.34 33.34 0 0 1-3.39-.8c.65-1 1.09-2.62 2-2.92 8.34-2.82 15.13-8.22 22.3-13a10.06 10.06 0 0 1 2.65-.64z"/><path d="M438.39 439.31c-.79 7.68-7.28 12.89-14.82 11.55-1.61-.29-3.15-1.76-4.42-3a54.59 54.59 0 0 1-4.12-5.05c3.52-.51 7.05-.92 10.54-1.57 4.08-.76 8.11-1.74 12.16-2.62l.29.24a5.07 5.07 0 0 0 .37.45zM72.34 453.09l1.86-7.76a63.07 63.07 0 0 0 1.09-7.1c.37-4.33.08-8.77 1-13 .73-3.48 2.77-6.68 4.87-9.83 2.75 7.86 1.25 15.68-.08 23.11-1 5.3-4.72 10.08-7.23 15.1zm394.96 64.56c-6.31-2.28-20.49-19.37-19.76-23.58 3.75 2.33 7.53 4.57 11.17 7 .72.49.77 1.9 1.4 2.65a21.83 21.83 0 0 0 3 2.62c.72.59 2 1 2.17 1.69.79 3.06 1.31 6.19 2.02 9.62z" class="D"/><path d="M209.46,389.18c5.18-1.31,10.32-2.83,15.55-3.87a127.44,127.44,0,0,1,12.66-1.49,17.71,17.71,0,0,1,3.44.36c-.34,1.56-.63,3.13-1.06,4.67-.1.36-.66.6-1,.89Z" class="F"/><path d="M475.91 334.2c2.92-4.17 5.49-8.4 10.35-11.07 4.53-2.49 8.29-6.41 12.38-9.7-.07.67.1 1.54-.26 2-6.1 7.41-12.87 14.08-21.45 18.64a3.26 3.26 0 0 1-1.02.13zM369.7 358.88l.63 7.62a22.49 22.49 0 0 1-2.47 10.09c-.81 1.62.64 4.36 1.06 6.59l-4.09-1.91-.78-.79c-.55-7.84 2.3-14.78 5.65-21.6zm-50.3-120.31a16.87 16.87 0 0 0 2.39 10.43c1.73 3.08-.65 5.36-2.09 7.75-3.9-1.08-4.28-4.52-3.84-7.38.57-3.7 2.31-7.21 3.54-10.8z" class="D"/><path d="M159.89 343.44l5.77-.71a7.52 7.52 0 0 1 2.37.7c-.37.76-.57 2-1.15 2.2a83.39 83.39 0 0 1-9.71 3.29 57.91 57.91 0 0 1-7.38.93l-.44-1.07 7.25-4.11z" class="F"/><g class="D"><path d="M408 388l4.44-18.38a27 27 0 0 1 1.39-3.47c.37 3.89.85 7.77 1.06 11.67.3 5.1-3.25 7.72-6.89 10.18zm9.87 67.36l3.32 1.45c1.82 4.85 2.54 9.77.77 14.62zm-48.81-72.04l6.87 4.58c-2.85-.7-5.76-1.29-6.87-4.58zm102.69-40.55c.22-3.08-.16-6.43 3.56-7.95z"/><path d="M421.53 475.84v7.84h-.17v-7.89zm17.87-44.07l-.74 3.62.74-3.62zM554 386.32l.52-.62.75.82zm-177.79 1.78l.5.32a.38.38 0 0 1-.5-.32zM438.4 438l-.06.85h-.32l-.29-.24z"/></g><path d="M435.49 168.27l2.14-6.73c.5 2.56 2.47 1.81 3.79 1.36 4.19-1.45 7.54.94 8.87 5.63a39.25 39.25 0 0 0 2.14 5l-4 3.55-1 1.17q-2.85 4.51-5.69 9c-4.72 6.27-5 18.93-.25 21.88l1.8-15.67a1.24 1.24 0 0 1 .25-.43l1.15-1.63 1.25-2.09c1.73.33 4.28.05 5.05 1.09 2.55 3.47 4.46 7.41 6.62 11.17q-3.33 4-6.65 7.94l-10.54 4.77c2.63.56 4.53.85 6.34 1.41.87.27 2.17 1 2.24 1.64.53 5.09.81 10.22 1.17 15.33-1.65-4.26-5.38-4.36-8.61-3.25-2.34.8-4.08 3.34-6.1 5.11l-.69 1.64-.25 3.13c-.08 1.04-.11 2.19-.17 3.37l-14.64 3.6 3.12-5.5c3.18.27 3.61-2.87 4.73-4.53.88-1.31-.16-3.9-.33-5.78 2.1-1.73 4.75-3.29 6.49-5.55 1.25-1.63 1.27-4.2 1.84-6.34 1-3.46.07-6.55-1.75-9.49-1.68-2.72-3.27-5.52-5.13-8.13a3 3 0 0 0-2.73-.85c-4.62 1.7-9.15 3.63-13.71 5.49-1.19 1.74-3.15 3.38-3.41 5.26-.68 4.95 2.64 8.17 6.1 11.11l.72.74.78 1.92.79-.46-1-1.43 1.44-10.39c4.13 2.2 8.38 3.77 13.17 2.79l-1.27 10.48-2.74 1.4 1.61-3c1.69-3.12.58-5.13-3-5.36-.92-.06-1.85 0-2.77 0-2 0-3.81.3-4.15 2.68s.71 4.36 3.16 5a31.89 31.89 0 0 0 5.1.64l-12.31 7a22.92 22.92 0 0 0 .39-2.32c.08-.94 0-1.89.06-2.84-.91.27-1.84.48-2.72.82-2.41.93-4.87 1.79-7.19 2.94a19 19 0 0 0-3.37 2.7c-6.12-1.81-7.36-4.79-3.42-9.21a7.48 7.48 0 0 1 5.6-2.3c2.62.35 2.22 3 1.87 5.12a4.17 4.17 0 0 0 .17 1.13 4.79 4.79 0 0 0 5.49-3c1.52-3.29-.67-5.09-2.67-7-.88-.45-1.74-1.24-2.65-1.29-2.81-.15-5.63 0-8.44 0l-.69-1.08a5.85 5.85 0 0 1 2-.48c3.38.42 4.64-1.12 4.28-4.34a12.92 12.92 0 0 1 .08-1.38c0-1.2-.08-2.41-.13-3.62-1.67.08-3.93-.51-4.92.35-2.62 2.31-6.72 2.55-8.29 6.41-.74 1.79-2.66 3.1-4.05 4.63-1.43-.73-2.89-1.41-4.29-2.2-5.37-3-5.36-3.06-10 .74-1.28-.44-2.95-.55-2-2.68l4-9.39 5.34-1.53-4-4.34a20.86 20.86 0 0 1 13.67 3l-4.75 8.83c1.41-.18 2.53 0 3.08-.44 3.12-2.71 6.18-5.35 7.29-9.79.86-3.4-.18-7.82 4.15-9.88.34-.16.47-1 .49-1.58.05-2.08 0-4.15 0-6.23l3.26-10.43a38 38 0 0 1 1.8 3.89c.64 1.92.88 4 1.66 5.86 1.71 4.11 3.77 8.07 5.46 12.19 1.36 3.29 3.95 4.74 7.07 3.19a30.94 30.94 0 0 0 13.61-12.45c3.39-5.76 5.11-11.25 3.79-17.69z" class="E"/><path d="M450.23 232.66l-1.17-15.33c-.07-.63-1.37-1.37-2.24-1.64-1.81-.56-3.71-.85-6.34-1.41l10.52-4.77c4.11 3-.62 6-.1 9.47a30.12 30.12 0 0 1 3.83-1.64 9.52 9.52 0 0 1 4.26-.57c2.21.47 4.25 1.65 6.43 2.3s2.75 1.87 1 3.36a81.23 81.23 0 0 1-9.81 7.58c-5.57 3.46-5.69 3.27-1 7.94 5.37 5.33 14.56 7.12 20.66 4 .13 2.64 1.23 4.52 3.93 5.27a22.3 22.3 0 0 1 2.78 1.15c1.86 5.94 3.43 12 5.7 17.77 1.12 2.84 4.17 2.08 6.75 1.61a50.77 50.77 0 0 1 5.67-.4 21 21 0 0 1-1.56 3.36c-1.78 2.62-1.27 4.17 1.88 4.82.4.08.73.51 1.09.78-1.1.24-2.26.81-3.28.63a17.28 17.28 0 0 1-3.8-1.59c-1.41 4.53-2.82 8.43-3.76 12.43-.36 1.55.42 3.34.54 5a3.36 3.36 0 0 1-.46 2.16c-.21.29-1.3.19-1.85-.06l-21.58-9.95c-3.92-1.92-7.59-4.34-10.63-6.1l-3.29 12.78c3.67 1 3.89 3.34 2.65 6.61-1.46 3.86-.06 5.75 4.12 6.28a57.38 57.38 0 0 1 6.15.94 13.34 13.34 0 0 1 8.55 6.91c-1.47 4.9-3.63 9.41-4 14.08-.6 6.87-3.41 12-9.2 16.47l-6.88-6.9c.28-1 1.09-2.28.76-3-2.18-4.87-.36-13.95 3.81-17.36 2.91-2.37 4.21-5.32 3.93-9.79-2 .36-4.1.24-5.64 1.08-3.75 2.05-7.17 1.66-11-.31a91.83 91.83 0 0 0 2.59-9 113.05 113.05 0 0 0 1.3-11.47 2.25 2.25 0 0 0-1.23-1.79 2.38 2.38 0 0 0-1.94.91c-1.32 1.73-2.31 3.71-3.7 5.37a26.27 26.27 0 0 1-3.74 3.11 12.86 12.86 0 0 1 2.79-11c3.35-4.15 4.25-11.26 1.91-16-.58-1.17-1-2.42-1.81-4.48a39.62 39.62 0 0 1 4 .95c4.08 1.49 7.6-.06 9.17-4.08l1.83-4.48 4.18 1.37c.35-1.15 1.3-2.54.95-3.4-1.59-3.87-4.62-6.42-8.46-8.75l-.64 6.13-4.76-3.01-.84.88c1.31 1.36 2.57 2.76 3.94 4.06s2.43 2.34.07 3.59c-3.63-2.9-7-6.23-12.08-6.95l4.59-3.59a10.76 10.76 0 0 1 2.7-.4c4.4.52 5.36-.74 3.86-5-.78-2.32-1.4-4.59-2.1-6.93zm29.23 30.27c-.43.16-.77.41-1 .36-8.69-1.74-16.25 2.59-24.24 4.56a2.32 2.32 0 0 0-1.52 1.53c0 .55.77 1.32 1.39 1.66 1 .56 2.23.68 3.18 1.28a17.8 17.8 0 0 1 3.26 2.75c2.19 2.29 4.23 4.72 6.47 6.94.34.34 1.53 0 2.21-.25l14-5.91c1.76-.7 2.84-1.26 2-3.45-2-5.46-3.91-10.89-3.72-17 .1-3.1-3.44-4.15-6.66-2.42zm-80.56-79.25v6.23c0 .55-.15 1.42-.49 1.58-4.33 2.06-3.29 6.48-4.15 9.88-1.11 4.44-4.17 7.08-7.29 9.79-.55.47-1.67.26-3.08.44l4.75-8.83a20.86 20.86 0 0 0-13.67-3l4 4.34-5.34 1.53-4 9.39c-.92 2.13.75 2.24 2 2.68 0 2-1.56 4.35 1.38 5.6 1 2.93 2.44 5.48.83 9-1.36 3-1.16 6.87 1.06 10.8 1.09-1.55 1.69-2.6 2.47-3.5s2-1.88 3-2.88c2.95-3.16 6.82-2.36 8.28 1.79.42 1.18.66 2.42 1 3.63l.52-.69c2 1.07 5.34 1.75 5.79 3.27 1.21 4.16-2.76 4.07-5 4.43.94 1 1.8 2 2.82 2.87a39 39 0 0 0 3.27 2.28c-2.31.93-4.59 2-7 2.7a2.88 2.88 0 0 1-2.22-1l-10.36-11.51-9.25 4.83c2.1 1 3.32 1.53 4.42 2.22a10.14 10.14 0 0 1 2.23 2c.11.13-.49 1.24-.79 1.26-1.19.05-2.78.29-3.51-.35-1.25-1.09-1.92-2.82-2.9-4.23l-4.12-5.73c-1.78 3.75-3.54 6.75-4.64 10-1.26 3.66-5.85 7.6.11 11.27.08.05.11.2.14.31 1.05 4.4 4.16 7 8 8.92a8.61 8.61 0 0 0-.21 2.4c1.14 5.95-.68 11.17-3.77 16.12l-3.57-11.32c-.68-2.07.21-5.26-3.57-5.23v-5l-3.49 2.79 1.47-4.43c-7.94 1-15.8 2.21-24.48-.33 5.13-5 9.37-9.62 8.2-16.26h19.28c-5.2-4.2-11.29-6.55-14.83-12.46 10.11-2 10.11-2 9.62-8.29 1.5-.44 3.38-.45 4.44-1.39 3-2.67 5.65-5.72 8.79-9-6.14.74-9.65 5.05-13.75 8.36-3.44-3.7-3.24-4.8.61-7.48a75.77 75.77 0 0 0 6.37-5.55 6 6 0 0 1 1.88-1.48c3.13-.92 3.84-2.74 2.86-5.77-.38-1.17-.22-3.45.47-3.83 2.3-1.27 4-5.44 7.69-1.88l.91-.37c-.31-2.81-.44-5.66-1-8.43-.42-2.12-1.51-4.11-2-6.22-.7-2.86.6-4.34 3.49-3.78a188.6 188.6 0 0 1 14.11 3.28c5.48 1.54 8.47-.36 8.24-5.94-.12-2.72-1-5.41-1.51-8.11l1.75-2.24zm53.53-10.19a39.25 39.25 0 0 1-2.14-5c-1.33-4.69-4.68-7.08-8.87-5.63-1.32.45-3.29 1.2-3.79-1.36 3.53-7.18 8.06-13.59 15.76-16.63 3-1.17 6.55-1.07 9.86-1.1a4.48 4.48 0 0 1 3.2 2.2c1.8 3.46 3.22 7.12 4.81 10.69a12.55 12.55 0 0 0 1.27 2.44c4 5.47 4 6.58.07 12.18a40 40 0 0 0-2.78 5.66c2.41 0 4.61-.63 5.82.18s1.78 3.05 2.08 4.75c.59 3.4.9 6.86 1.15 10.31.15 2 .68 3.22 3 3.45a8.42 8.42 0 0 1 3.27 1.67 18.3 18.3 0 0 1 1.74 1.68c6 5.16 5.3 4.67 12.38.59a45.73 45.73 0 0 1 11.3-4.68 7.31 7.31 0 0 1 8.63 3.59c1.85 3.71.84 7.53-1.91 10.61a19.06 19.06 0 0 1-11.38 6.05c-1.82.3-3.65.51-5.47.76a9.09 9.09 0 0 0 .45-2c0-2.15.72-4.92-.34-6.31-1.78-2.33-4.72-1.81-7.21-.2l-10.38 6.63c-1.38.88-2.78 1.82-4.28.2-.54-1.1-.8-2.8-1.66-3.18a53.58 53.58 0 0 0-9.73-3.36c-2.66-.61-3.27-1.74-2.24-4.08 1.1-2.51 3.16-5 3.12-7.53-.12-7.89-1.06-15.76-1.62-23.64-.18-2.55-1.72-2.75-3.61-2.2l-10.5 3.26zm-66.81-6.88c-4.31-4.57-8.13-2.49-11.38 1.19-4.29 4.86-8.19 10-12.37 15a17 17 0 0 1-3.22 2.4c.53-1.89.74-3.61-1.67-4.5a2 2 0 0 1-.87-1.68c.62-2.73-1.32-3.23-3.13-4.09-2.6-1.22-6.14-2-3.75-6.28-2.57-1.11-4.41-1.11-5.78 1.43a13.83 13.83 0 0 1-2.59 2.72c-4-4.27-7.84-8.66-12-12.76-2.45-2.42-.62-3.89.7-5.55 1.7-2.13 3.08-.75 4.18.67a9 9 0 0 0 7.82 3.6c4.71-.1 9.45.09 14.13-.37a6 6 0 0 0 4.11-3.1c3.45-8.12 7.4-16.23 4.07-25.52-.38-1 .3-2.81 1-3.85a35 35 0 0 1 6.56-6.89c-.37 2.25-.85 4.48-1.11 6.75l-1.86 18.15a9.19 9.19 0 0 0 1.24 4.55c.75 1.43 1.8 1.91 3.65.75 4.58-2.86 4.66-2.69 3.59-8.17a13.43 13.43 0 0 1-.31-3.78c.12-1.3.55-3.6 1-3.65a6.87 6.87 0 0 1 4.62 1 39.18 39.18 0 0 1 6.77 6.85c3.82 5.11 8.79 4.18 13.78 3 3.08-.7 5.25-.12 6.36 3a2.43 2.43 0 0 1 0 1.87c-2.42 3-4.95 6-7.45 8.94-.42-2.69-1.45-4.92-4.12-5.88-.37 1.73-.19 3.76-1.11 4.65-3.35 3.4-7.17 6.4-10.86 9.55zm-41.49 28.5l-3.86 4.91c-.84-3.89-1.51-7.83-2.59-11.64-.74-2.62-2.62-3-4.83-1.42a9.83 9.83 0 0 0-2.52 13.65c.69 1 1.45 2.84 1 3.64s-2.34 1-3.57 1.48a40.6 40.6 0 0 0-5.24 2.38c-3.21 1.93-6.06 4.77-9.5 5.9-4 1.32-8.54 1.36-12.85 1.68-2.21.16-3.55.74-3.55 3.14-4.86-2.33-7.37-6.69-10.28-11.69 1.92.57 3.19 1.25 4.46 1.25 2.94 0 6.34.55 8.73-.69 5.18-2.69 10.49-5.57 13.18-11.41.68-1.47 2.23-2.57 3.49-3.73 1.58-1.44 3.84-2.46 2.21-5.34-.22-.4.77-1.65 1.4-2.33 2.62-2.83 5.51-5.45 7.94-8.43s3.23-3.28 5.84-.46a16.25 16.25 0 0 1 1.63 2.22c2.61 4 3.63 4.18 7.74 1.28l.88 9.58c.16 2 .16 4.02.29 6.03z" class="D"/><path d="M296.62 218.83c0-2.4 1.34-3 3.55-3.14 4.31-.32 8.81-.36 12.85-1.68 3.44-1.13 6.29-4 9.5-5.9a40.6 40.6 0 0 1 5.24-2.38c1.23-.52 3.08-.6 3.57-1.48s-.31-2.59-1-3.64a9.83 9.83 0 0 1 2.52-13.61c2.21-1.6 4.09-1.2 4.83 1.42 1.08 3.81 1.75 7.75 2.59 11.64-2.88 6.08-6 12.07-7.14 18.82-.15.85-1.44 1.64-2.37 2.17-4.4 2.52-8.65 5.14-10.28 10.39.21-2.76-1.28-3.82-3.82-4.33-4.27-.87-8.48-2-12.71-3.07h-.08l-1.72-.74-.24-.2-3.12-2.35a3.59 3.59 0 0 0-.47-.12l-.78-.66zm182.01-4.58c1.5 1.62 2.9.68 4.28-.2l10.38-6.63c2.49-1.61 5.43-2.13 7.21.2 1.06 1.39.35 4.16.34 6.31a9.09 9.09 0 0 1-.45 2l-2.5.87-2.47 1.08-.87.49c-5.92 2-9.67 8.79-8.93 16.39 1.55-.33 3.11-.6 4.63-1 5.08-1.28 5.75-.6 7.5 4.26 1 2.85 3.29 5.26 5 7.88-6.34 2.69-12.84 4.13-19.73 2.46a22.3 22.3 0 0 0-2.78-1.15c-2.7-.75-3.8-2.63-3.93-5.27.27-1.93.64-3.85.78-5.78l1.54-21.91zM529 211c3.89-3.88 7.92-7.62 11.61-11.67 3.18-3.49 4.8-3.65 7.86-.3a3.25 3.25 0 0 0 3 .57c3.86-2.54 7.76-1.06 11.57-.29 2.12.43 2 2.46.46 3.3-2.13 1.14-4.71 1.42-7 2.31a17 17 0 0 0-5.56 2.94c-.67.63 0 2.74.17 4.77l-17.68 14.22c-.89.7-2.49.49-3.75.71-1.16-2.12-2-4.52-3.55-6.28-2-2.3-.39-4.1.25-6A23.94 23.94 0 0 1 529 211z" class="E"/><path d="M435.49 168.27c1.32 6.44-.4 11.93-3.73 17.66a30.94 30.94 0 0 1-13.61 12.45c-3.12 1.55-5.71.1-7.07-3.19-1.69-4.12-3.75-8.08-5.46-12.19-.78-1.86-1-3.94-1.66-5.86a38 38 0 0 0-1.8-3.89l6.43-12.16.88.44c.79 3.41 1.44 6.86 2.43 10.21.66 2.22 1.91 3.6 4.65 2 1.37-.79 3.24-.73 4.89-1.05.43 2.63 1.48 5.37 1.06 7.85-.28 1.66-2.5 3.2-4.16 4.35-2.38 1.64-2.47 3.66-1.12 5.65 1.65 2.44 3.9 1.36 5.24-.3a77 77 0 0 0 6.55-9.56c2.34-4.03 4.33-8.27 6.48-12.41zm67.25 77.66c-1.7-2.62-3.95-5-5-7.88-1.75-4.86-2.42-5.54-7.5-4.26l-4.63 1c-.74-7.6 3-14.42 8.93-16.39l.4 3c3.05-.2 5.87-.59 8.68-.5 3.35.11 5.51 1.6 6.91 5.12 1.57 3.95 4.39 7.41 7 11.6-3.71 3.58-8.99 6.38-14.79 8.31zm.6-101.18l5.64 15.87c2.22 6.72-1.26 11.34-8.29 12.22-5.94.74-11.82 2.16-16.83 5.84-1.09.8-2.25 1.51-4.19 2.8l3.52-18 9.86 4c2.51-3.08 5.13-6.63 8.1-9.85 3.6-3.9.79-8.7 2.19-12.88z" class="D"/><path d="M344.13 195.11l-.29-6-.88-9.58-2.1-6.68a13.83 13.83 0 0 0 2.59-2.72c1.37-2.54 3.21-2.54 5.78-1.43-2.39 4.28 1.15 5.06 3.75 6.28 1.81.86 3.75 1.36 3.13 4.09a2 2 0 0 0 .87 1.68c2.41.89 2.2 2.61 1.67 4.5-5-.73-9.29-.26-11.06 5.69-.47 1.57-2.27 2.78-3.46 4.17z" class="E"/><path d="M412.38 146.54l6.08-9a6 6 0 0 0 1-2.58c.65-6.3 5-10.66 8-15.79 1.62-2.85 3.1-5.78 4.63-8.68l2.41-4.57 5.15-9.63c.25 5.16-1.83 9.24-3.65 13.42l-12.58 29.22a6.21 6.21 0 0 1-2.12 2.79c-3 1.78-6.08 3.28-8.92 4.82z" class="D"/><path d="M526.18 243.65l12.59-1.26a10.16 10.16 0 0 1 4.4.48c2.15.86 5.26 1.77 5.82 3.4s-1.55 4.15-2.91 6a3.66 3.66 0 0 1-3.4.84 37.48 37.48 0 0 0-18.46-3.45l1.96-6.01zm-23.64 32.68c-.36-.27-.69-.7-1.09-.78-3.15-.65-3.66-2.2-1.88-4.82a21 21 0 0 0 1.56-3.36l6.26-7.71c.87.63 2.2 1.07 2.52 1.91.86 2.22.69 5.05 2 6.85 2.64 3.57 1.09 7.16 1.08 10.77zM385.62 166.61c3.69-3.15 7.51-6.15 11-9.53.92-.89.74-2.92 1.11-4.65 2.67 1 3.7 3.19 4.12 5.88q-3.39 7.49-6.79 15l-1.75 2.24z" class="E"/><path d="M491.63,146c0-4-.21-7.39.1-10.7a5.38,5.38,0,0,1,2.24-3.44,132,132,0,0,1,13.19-7.46Z" class="D"/><path d="M253.18 238.69c-3.39.22-6.77.57-10.16.58-.67 0-2.05-1.52-1.91-1.87a22.42 22.42 0 0 1 3-5.53c.35-.45 2.06-.07 3 .24 2.27.73 4.48 1.65 6.71 2.5-1.16 1.19-2.19 2.39-.64 4.08z" class="E"/><path d="M431.68 141.87l6.6 4.58a2.22 2.22 0 0 1 .84 1.73l-2 8.81-5.44-15.12zm-42.16-61.72a18.36 18.36 0 0 1-.56 2.57c-1 2.85-.33 4.38 2.92 4.19l-4.65 3.19a13.11 13.11 0 0 1 2.29-9.95zm-16.61-13.43l5.64.44zm-74.12 153.97l3.12 2.35zM365.25 67l1.45.12zm24.04 7.3l.38 1.43zm106.13 143.59l2.47-1.08zm-193.27 5.35l1.72.74zm52.1-153.74l1.08-.2zm2.63-.5l.77-.22zm-12.66 3h0zm43.13-.36l.16.02.02.16-.17-.02-.01-.16zM335.8 84.99l.07-.24.1.16-.17.08zm-38.26 134.92l.78.66z" class="D"/><path d="M564.19 328l-2.92-8.67a2.87 2.87 0 0 1-.19-1.66l2.72-7.09c.38-.91 1.32-1.67 1.44-2.57.54-4.07.51-3.74 4.53-2.53a157.74 157.74 0 0 0 15.77 3.35 3.22 3.22 0 0 0 4.08-2.78 5.11 5.11 0 0 0-1.13-3.73c-3.71-4-4.35-8.68-3.76-13.81.18-1.55.38-3.5-.37-4.65-1.46-2.25-.88-3.51 1-4.93 3.39-2.61 6-5.57 6.71-10.21.4-2.49 2.82-4.65 4.32-7 .31-.48.85-1 .85-1.48 0-4.77 3.4-4.63 6.73-4.83 12.09-.71 20.67 5.79 28.81 13.57 5.65 5.41 8.75 12 10.77 19.4.57 2.09-.07 3.21-1.91 4.15l-23 12c-1.41.77-4.11 1.25-2.72 4.25.2.42-.87 1.83-1.64 2.25-13 7-26.16 13.9-40.85 16.84-3.16.67-6.54.13-9.24.13z" class="F"/><path d="M522 378.23l-.64-3.73q-2.83-6-5.66-12.07l16.79-2.81a20.62 20.62 0 0 0 3.17-1.12c1 1.47 1.69 2.77-.69 3.73-2.64 1.07-2.87 2.92-2 5.6 1.26 4-2.06 6.55-4.12 9.12-1.47 1.83-4.04 3.73-6.85 1.28z" class="E"/><path d="M90.74 219.17v-1.27c.06-.07.2-.16.19-.21a3 3 0 0 0-.22-.48c.22-8.08 5.68-13.29 10.89-18.15 7.78-7.24 17.91-10.43 27.72-14l2.64 1.79c.64.42 1.26 1.09 2 1.18 5.26.64 8.92 3.43 12 7.67 1.06 1.47 3.76 1.86 5.8 2.49a16.19 16.19 0 0 0 3.77.23c-1.76 4.1-1.53 4.21 2.22 5.5 2.07.71 3.88 2.24 5.75 3.48 1 .63 1.67 1.74 2.68 2.12 2.34.87 4.22 1.68 3.6 4.87-.14.69 1.43 2 2.44 2.59 3.69 2.32 7.51 4.43 11.22 6.73s7.48.93 12.34 1c-1.48-2-2.21-3.05-3.06-4-5.39-6.17-11.45-11.87-16-18.59-4.87-7.13-8.43-15.18-12.29-22.95-.44-.88.72-2.69 1.4-3.91.35-.63 1.39-.82 1.94-1.38 11.84-12.28 26.77-12.23 42.05-10.4 4 .48 7.83 1.65 12 2.56-3.19 4.28.86 6.67 2.43 9 2.66 4.05 5.7 7.75 6.67 12.67.16.79.83 2 1.44 2.09 3 .62 6.08 1.4 9.1 1.27 5.49-.25 12.44 1.6 15.5 4.42-.35 2.74-.78 5-.91 7.25-.26 4.6-6.67 10.23-11.21 9.81-1.8-.16-3.62 0-6.21 0 1.65 2.21 3.19 3.67 3.93 5.46a10.22 10.22 0 0 1 .79 5.76c-.48 2.14-2.16 2.81-4.61 1.7-8-3.67-11.56-2.66-16.6 4.63-.47.68 0 2.7.74 3.42 3.74 3.72 7.36 7.67 12.85 9a10.53 10.53 0 0 1 3.71 1.82 2.76 2.76 0 0 1 1 2.26 44.57 44.57 0 0 1-2.63 7c-1.17 2.45-4.57 2.71-6.82 1.16a83.59 83.59 0 0 0-7.67-4.22l-.59-.72-9.21-13.7c-1.61-2.39-3.26-4.75-4.78-7.2-2.16-3.49-5.43-4.89-9.38-3.62a11.73 11.73 0 0 0-2.9 2.07c.81 1 1.42 2.42 2.48 3 4.16 2.35 5.8 3.92 7.81 8.33-2.72 2.12-5.53 4.15-8.15 6.4-1.81 1.56-3.57 3.34-.38 5.51.65.44.62 1.88.86 2.69 1.83.85 4.39 1.22 5.42 2.68 2.61 3.71 4.84 7.7 3.55 12.78-1.34 5.23-6.27 5.63-9.75 8a9.25 9.25 0 0 1-4.2 1.44 17.52 17.52 0 0 1-5.39-.44c-13.06-3.08-20.69-14.23-31.25-21a5.29 5.29 0 0 0-4.28-.65 5.38 5.38 0 0 1-6.34-.93c-7.59-6.4-15-13-22.86-19.08a100.07 100.07 0 0 0-14-8.61c-1.07-.58-3.25-.14-4.41.61-2.88 1.89-4.72 1.79-6.29-1.36-1.9-3.82-4.44-6.54-8.54-7.57zm122.2-25a32.34 32.34 0 0 1-4.33-1.81c-3.17-1.93-6-.9-8.66.9-1.64 1.11-1.29 3.28.63 3.6 4.29.69 8.7 1.34 12.36-2.72z" class="F"/><path d="M222.63,249.76l.59.72c4.63,5.35,9.12,10.84,14,16,2.15,2.28,2.31,2.78-.54,4.32-3.88,2.1-7.65,4.43-11.46,6.66l-.75.68c-3.67-.32-3.45-3.44-4-5.84a48.27,48.27,0,0,1-.44-4.85c-.34-2.45-2.15-4.43-1.33-7.42.41-1.47-1.94-3.68-3-5.57-.53-.93-1-1.88-1.12-2.11Z" class="E"/><path d="M419.77 246.26l14.64-3.6.17-3.37 1.55.08 3.27 12.15c-3 .25-5.69 1.76-9 1.86-4.34.11-8.59 3.07-13.37 5 3 3.15 2.53 6.56 1 10.19-.37.88.27 2.54 1 3.43a43.36 43.36 0 0 0 5.42 5.75c.59.53 1.93.42 2.88.29 1.7-.23 3.36-1 5-1s4.39-2.14 5.08 1.24c.89 4.31-1.36 8.2-4.68 8.41a4.31 4.31 0 0 1-2.74-1.18l-15.78-14.2A12.68 12.68 0 0 0 412 270c.31 11.08-4.46 18.89-12.84 24.77a26.1 26.1 0 0 1 .49-4c1-3.62.37-4.67-3.44-4.73-2.06 0-4.14.55-6.19.41a10.71 10.71 0 0 1-4.6-1.42c-3.72-2.22-2.48-5.1-1.11-8.27 1.2-2.79 1.69-5.89 2.49-8.85l-1.32-.63a25.21 25.21 0 0 1-3.5 3 28.55 28.55 0 0 1-4.43 1.75 10 10 0 0 1 4.31-9c1.95-1.47 5.36-1 8.13-1.38a46.4 46.4 0 0 1-.79 6.49c-.7 2.66-1.85 5.21-3.09 8.59 1.92-.53 2.89-.58 3.61-1 2.87-1.78 5-2.06 6.9 1.58.92 1.76 2.56 4.07 5.55 2.93 3.87-1.46 6.18-4.11 5.82-7.27-.4-3.47-1.09-6.92-1.68-10.57l-5.23.35-1.48-8.48 4 5.48c2.59-1 6.29-1.64 6.63-5l-3.73-8.7 1.93-.32 5.41 3.91c-.06.92-.5 2.07-.11 2.72 1.6 2.66 3.82 2.43 5.72 0 1-1.28 2.58-2.09 3.91-3.1.76 1 1.51 2.09 2.29 3.12.12.16.38.22.13.09a35 35 0 0 0 5.39-2.4 29.06 29.06 0 0 0 3.92-3.7l-.82-1.31a41.27 41.27 0 0 0-4.12 1.34c-1.45.63-2.8 2.14-4.17 2.12-2.57 0-5.12-.91-7.68-1.44z" class="D"/><path d="M410.21 359.11l-2.79 7.47c-.56-3.84-.89-7.73-1.76-11.49a20.09 20.09 0 0 0-3-6.78 38.88 38.88 0 0 0-7-7.91c-1.64-1.33-4.83-2.52-6.38-1.79a21.33 21.33 0 0 0-7.91 6.6c-2.62 3.66-4.29 8-6.36 12.05l-.94-5.33c1.14-4.59 2.7-9.44-.93-13.43a5.12 5.12 0 0 1-1.17-5.87l4.62-3.13 1.48-.43h13.16c1.4 2.11 3.36 2 4.22.05s.5-4.23.68-6.38l.29-3.36 2.25-6.05c2.89 2.53 5.32 4.87 8 6.94a64.3 64.3 0 0 0 8.3 5.75c2.54 1.41 3.24 3.14 2.2 5.65A67.69 67.69 0 0 1 413 341c-3.49 5.75-3.1 11.9-2.79 18.11zm-57.77-84.25l3.49-2.79v5c-.26 1.77-1.3 3.94-.63 5.24 2.56 5 .91 9.85 0 14.75l-1.87 2.85.4-10.8a9.23 9.23 0 0 0-.41-2c-.57.42-1.43.72-1.66 1.28-1 2.42-1.81 4.91-2.68 7.38l-5 14.51c-2-.73-3.13-.32-3.71 2a7.15 7.15 0 0 1-2.38 3.62c-2.47 1.93-5.2 3.52-7.83 5.25l-16.67 5.06c.38-.67.59-1.73 1.16-2 3.58-1.51 7.38-2.56 10.83-4.31a17.82 17.82 0 0 0 6.45-5.14c1.83-2.57.42-5.65-1.63-7.51a6.4 6.4 0 0 0-5.53-1.07 38.4 38.4 0 0 0-9 5.48 89.43 89.43 0 0 0-7.77 7.45c-1.69 1.7-3.28 3.5-5.6 6l6.4 1.23a41.24 41.24 0 0 1-6.06 2.28c-6.83 1.46-6.85 1.37-8.07-5.55-.18-1-.31-2-.46-3 1.06-.17 2.36 0 3.13-.56 3.62-2.63 7-5.53 10.63-8.2a22.25 22.25 0 0 0 8.12-11.18c.18-.53.68-1.23.5-1.58-2.4-4.47 1-7 3.22-9.93l12.47 7.84c1.36 1.35 2.82 2.63 4.06 4.09 1.52 1.78 2.56 1.33 4.27 0 8.4-6.54 9.16-16.5 11.84-25.62zm25.07-2.78a28.55 28.55 0 0 0 4.43-1.75 25.21 25.21 0 0 0 3.5-3l1.32.63c-.8 3-1.29 6.06-2.49 8.85-1.37 3.17-2.61 6.05 1.11 8.27a10.71 10.71 0 0 0 4.6 1.42c2 .14 4.13-.44 6.19-.41 3.81.06 4.44 1.11 3.44 4.73a26.1 26.1 0 0 0-.49 4c-1.42 1.14-2.67 2.88-4.27 3.29-5 1.28-10.14 1.86-15.13 3.08-3.54.86-6.94 2.31-11.11 3.74l-5.54-11.31c3.09-4.95 4.91-10.17 3.77-16.12a9 9 0 0 1 .2-2.4l9.83 4.48.64-7.5zM441 293.75a26.27 26.27 0 0 0 3.74-3.11c1.39-1.66 2.38-3.64 3.7-5.37a2.38 2.38 0 0 1 1.94-.91 2.25 2.25 0 0 1 1.23 1.79 113.05 113.05 0 0 1-1.3 11.47 91.83 91.83 0 0 1-2.59 9c3.81 2 7.23 2.36 11 .31 1.54-.84 3.61-.72 5.64-1.08.28 4.47-1 7.42-3.93 9.79-4.17 3.41-6 12.49-3.81 17.36.33.74-.48 2-.76 3-8.2-8-16.78-15.75-22.8-25.72.21-1.65-.11-3.67.74-4.88 1.53-2.19 1.28-3.86-.19-5.73.23 0 .46-.09.68-.1 5.71-.06 5.71-.06 6.71-5.82z" class="E"/><path d="M353.44,299.9l1.87-2.85c2.65,4.51,1.25,8.93-.39,13.3a15.66,15.66,0,0,1-1.67,2.77c.25.45.35.81.48.82,3.23.25,4.92,1.54,5.33,5.18.24,2.13,2.34,4.08,3.69,6.05.9,1.32,2.24,2.42,2.85,3.84,1.27,2.92,3,4.6,6.36,3.62a5.12,5.12,0,0,0,1.17,5.87c3.63,4,2.07,8.84.93,13.43a13.16,13.16,0,0,0-.68-1.53c-.66-1.09-1.37-2.14-2.06-3.21l-2.92,2c-.8-2.47-1.09-5.31-2.52-7.35a179.69,179.69,0,0,0-13.16-17.13c-3.24-3.63-3.29-6.65-1.45-10.89,1.38-3.18,1.28-7,1.84-10.54,0-.43.06-.86.08-1.3s.16-.65.25-1Z" class="D"/><path d="M439.4 251.52l-3.27-12.15c.38-1.2.4-2.83 1.21-3.52 1.82-1.53 4-3.5 6.1-3.61 2.71-.14 4.2 3.12 3.7 6.66-.3 2-.9 4-1.37 6.07l-4.59 3.59c5.07.72 8.45 4.05 12.08 6.95l-8.26 4.15c-2.64 1.33-3.72.16-4.17-2.43-.3-1.93-.93-3.81-1.43-5.71zm15.46-1.52l.64-6.13c3.84 2.33 6.87 4.88 8.46 8.75.35.86-.6 2.25-.95 3.4l-4.18-1.37z" class="E"/><path d="M433.54 299.71c1.47 1.87 1.72 3.54.19 5.73-.85 1.21-.53 3.23-.74 4.88-3.91-5.64-3.59-8.84.55-10.61zm-37.42 23.03c-.18 2.15.15 4.53-.68 6.38s-2.82 2.06-4.22-.05zm-18.06 6.33l-1.48.43z" class="D"/><path d="M609.93 185.19l-15.45.71v-1.08c5.18.28 10.32-3.07 15.45.37z" class="F"/><path d="M90.7,217.21a3,3,0,0,1,.22.48c0,.05-.13.14-.19.21Z" class="D"/><path d="M296.91 375.51l2-4.14 3.47-8.47c1.64-3.68 3.5-7.26 5.09-10.95 1.16-2.72 3.75-5.06 2.51-8.5l9.13.78c1.32.3 2.66.55 4 .92 5.27 1.51 8.82-.09 11.55-5.07 1.63-3 4.73-5.19 7.18-7.74a17.55 17.55 0 0 1-.39 3.36c-1.85 5.88-1.85 11.61 1.14 17.12 1 1.86.93 2.83-1.37 3.48-.88.25-1.39 1.76-2.07 2.69l-5.31-3.33v15.72a16.81 16.81 0 0 1-7.39 10.73c-5.37 3.62-11.19 6.58-16.82 9.82-1.73-.47-3.51-.81-5.18-1.43-2.34-.88-4.6-2-6.89-3-2.11-3.89-2.03-7.91-.65-11.99zm35.45-9.85c.83-3.88-1.11-7.23-4.82-9.23s-14.67 1.74-17.05 5.23a71.11 71.11 0 0 1-4.49 6c-2.58 3.06-3.73 8.65-2.23 11.64 2.59 5.16 5 6.67 10.71 5.93 2.08-.27 4-1.56 6-2.35 8.02-3.06 11.89-8.49 11.88-17.22zm20.75-62.38c-.56 3.54-.46 7.36-1.84 10.54-1.84 4.24-1.79 7.26 1.45 10.89a179.69 179.69 0 0 1 13.16 17.13c1.43 2 1.72 4.88 2.52 7.35q.66 4.85 1.3 9.69c-3.35 6.82-6.2 13.76-5.65 21.6-3.72-2.12-4.47-4.9-2.77-8.47a109.22 109.22 0 0 0 5.32-12.7c1.2-3.61-.06-7.1-2.62-9.81-4.4-4.66-9.09-9.05-13.48-13.71-2.87-3-3.8-15.8-2.16-19.32 1.48-3.16 2.2-6.67 3.32-10a33.5 33.5 0 0 1 1.45-3.19z" class="E"/><path d="M341.76 332.34c-2.45 2.55-5.55 4.74-7.18 7.74-2.73 5-6.28 6.58-11.55 5.07-1.3-.37-2.64-.62-4-.92 3.92-.57 7.7-1.43 9.33-5.67 1.32-3.46 3-6.89 3.53-10.49.34-2.19-1.14-4.66-1.8-7 2.63-1.73 5.36-3.32 7.83-5.25a7.15 7.15 0 0 0 2.38-3.62c.58-2.28 1.73-2.69 3.71-2l-1.1 5.54-1.11 15.29c.01.46-.02.89-.04 1.31z" class="D"/><path d="M329.68 418.09c.14-1.24-.07-2.67.47-3.7 4.05-7.77 6.73-16.56 15.23-21.14a12.12 12.12 0 0 0 1.91-1.79c-1.23-.72-2.17-1.66-3.23-1.82-3.26-.5-3.78-2.63-3.5-5.3a13.38 13.38 0 0 1 .87-4 21 21 0 0 0 .85-14.77c1.78 3.32 4 6.49 5.2 10 .79 2.27.16 5 .22 7.58.06 2.23 1.22 3.43 3.49 3.35 2.88-.1 5.75-.35 8.63-.38 1.74 0 3.49.27 6 .49-1 1.12-1.32 1.72-1.75 1.86l-12.29 3.84c-6 1.83-10.46 5.8-13.73 10.92-2.54 4-4.41 8.35-6.64 12.52a20 20 0 0 1-1.73 2.34zm12.16-87.03l1.16-15.29a25.55 25.55 0 0 1-1.16 15.29z" class="E"/><path d="M402.94,444.55l2.9,2.39Z" class="D"/><path d="M342 364.41l-.68-.78zM353.44 301l-.25 1 .25-1z" class="E"/><path d="M352.44 274.86c-2.68 9.12-3.44 19.08-11.84 25.62-1.71 1.34-2.75 1.79-4.27 0-1.24-1.46-2.7-2.74-4.06-4.09l5-5.38c2.63-2.67 5.49-5.14 8-7.95 1.86-2.12 3.18-4.7 4.89-7 .46-.58 1.49-.8 2.28-1.2z" class="D"/><path d="M351.18 231.08c4.1-3.31 7.61-7.62 13.75-8.36-3.14 3.26-5.8 6.31-8.79 9-1.06.94-2.94 1-4.44 1.39l-.52-2.03zm-32.25 187.05c-1-4.46.63-7.95 5-10.6zm-1.04 5.98c-1.23-1.55-1.54-3 .6-4zm-31.64-16.03c.41 2.57.64 5.08-2.18 6.57l2.18-6.57zm-2.64 9.07l-.89 1.67zm119.65-13.07l.26-.86-.26.86z" class="E"/><path d="M308.79 326.29l-6.4-1.23 5.6-6a89.43 89.43 0 0 1 7.77-7.45 38.4 38.4 0 0 1 9-5.48 6.4 6.4 0 0 1 5.53 1.07c2.05 1.86 3.46 4.94 1.63 7.51a17.82 17.82 0 0 1-6.45 5.14c-3.45 1.75-7.25 2.8-10.83 4.31-.57.23-.78 1.29-1.16 2z"/><path d="M297.48 387.53l6.89 3c1.67.62 3.45 1 5.18 1.43-5.64 4.29-8.98 3.04-12.07-4.43z" class="D"/><path d="M375 357.26c2.07-4.05 3.74-8.39 6.36-12.05a21.33 21.33 0 0 1 7.91-6.6c1.55-.73 4.74.46 6.38 1.79a38.88 38.88 0 0 1 7 7.91 20.09 20.09 0 0 1 3 6.78c.87 3.76 1.2 7.65 1.76 11.49h0l-1.07 2.8c-2.36 6.86-5.84 13-11.36 17.83-3.07 2.7-4.68 2.9-6.91-.66-5.74-9.12-11.79-18.16-13.07-29.29z"/><path d="M406.33 369.38l1.07-2.8-1.07 2.8zM438 438.87h.32a.49.49 0 0 1 .05.48 5.07 5.07 0 0 1-.37-.48z" class="E"/><path d="M478.63 214.25l-1.55 21.94c-.14 1.93-.51 3.85-.78 5.78-6.1 3.1-15.29 1.31-20.66-4-4.69-4.67-4.57-4.48 1-7.94a81.23 81.23 0 0 0 9.81-7.58c1.74-1.49 1.26-2.7-1-3.36s-4.22-1.83-6.43-2.3a9.52 9.52 0 0 0-4.26.57 30.12 30.12 0 0 0-3.83 1.64c-.52-3.51 4.21-6.47.1-9.47l6.64-7.94 5-12.64a2.33 2.33 0 0 0-.57-1.88c-3.83-4.23-13.35-2.87-16.07 2.26l-1.25 2.09-1.18 1.58a1.24 1.24 0 0 0-.25.43q-.78-3.11-1.55-6.21 2.83-4.53 5.69-9l1-1.17 4-3.55 10.46-3.23c1.89-.55 3.43-.35 3.61 2.2.56 7.88 1.5 15.75 1.62 23.64 0 2.49-2 5-3.12 7.53-1 2.34-.42 3.47 2.24 4.08a53.58 53.58 0 0 1 9.73 3.36c.8.37 1.06 2.07 1.6 3.17z" class="F"/><path d="M408.69 220c2 1.9 4.19 3.7 2.67 7a4.79 4.79 0 0 1-5.49 3 4.17 4.17 0 0 1-.17-1.13c.35-2.12.75-4.77-1.87-5.12a7.48 7.48 0 0 0-5.6 2.3c-3.94 4.42-2.7 7.4 3.42 9.21l5.85 3.29c0 2.91-1 4.74-4.31 5.05s-4.1-1.53-4.49-4.25c-.43-3.07-2.2-4.16-5.16-2.52-.7-1.36-1.58-2.42-1.79-3.6-.67-3.77-2.82-5.18-6.54-5a3.49 3.49 0 0 1-2.77-1.5c-1.09-2.48-1.77-5.14-2.61-7.73l7.6 3.51c.7 1.88 1.22 4 4.31 4 .1-1.29.54-2.58.24-3.65-.94-3.31.86-4.53 3.56-5.24h1.37l.69 1.08c.62 1.25 1.17 3.51 1.87 3.56a40 40 0 0 0 8.29-.63c.38-.06.63-1.08.93-1.63z" class="D"/><path d="M417.67 212.33l-1.44 10.39a.49.49 0 0 0-.52 0L415 222l-.36-3-2.33-13.32 13.71-5.49a3 3 0 0 1 2.73.85c1.86 2.61 3.45 5.41 5.13 8.13 1.82 2.94 2.78 6 1.75 9.49a13.34 13.34 0 0 1-1.28 2l-4.77 5 1.27-10.48c-.6-1-1-2.43-1.86-3a39 39 0 0 0-5.6-2.57c-3.19-1.48-4.31-.93-5.72 2.72z" class="F"/><path d="M407.5 238.56l-5.85-3.29a19 19 0 0 1 3.37-2.7c2.32-1.15 4.78-2 7.19-2.94.88-.34 1.81-.55 2.72-.82l-.06 2.84a22.92 22.92 0 0 1-.39 2.32 2.05 2.05 0 0 0-.34.57L413 236l-.66 2.69.85.54c2.17-4.89 6.41-5.7 11.69-6.6l-2 8.17-3.12 5.5-1.47.8c-2 0-1.46 4.34-4.46 2.61l-5.41-3.91a10.68 10.68 0 0 1 .76-2.89c1.36-2.32.58-3.58-1.68-4.35z"/><path d="M446 189.31c2.72-5.13 12.24-6.49 16.07-2.26a2.33 2.33 0 0 1 .57 1.88c-1.59 4.24-3.3 8.43-5 12.64-2.15-3.76-4.06-7.7-6.61-11.17-.75-1.04-3.3-.76-5.03-1.09z" class="D"/><path d="M445.77 245l1.37-6.07c.5-3.54-1-6.8-3.7-6.66-2.12.11-4.28 2.08-6.1 3.61-.81.69-.83 2.32-1.21 3.52l-1.55-.08.25-3.13.69-1.64c2-1.77 3.76-4.31 6.1-5.11 3.23-1.11 7-1 8.61 3.25l2.1 6.88c1.5 4.29.54 5.55-3.86 5a10.76 10.76 0 0 0-2.7.43z" class="F"/><path d="M396.91 217.61h-1.37l-9.54 1.67-.16-.1c1.39-1.53 3.31-2.84 4.05-4.63 1.57-3.86 5.67-4.1 8.29-6.41 1-.86 3.25-.27 4.92-.35 0 1.21.11 2.42.13 3.62a12.92 12.92 0 0 0-.08 1.38c.36 3.22-.9 4.76-4.28 4.34a5.85 5.85 0 0 0-1.96.48z"/><path d="M422.89 240.76l2-8.17c-5.28.9-9.52 1.71-11.69 6.6l-.85-.54.65-2.65 1.14-1.42a2.05 2.05 0 0 1 .34-.57l12.31-7h0l2.75-1.38 4.77-5a13.34 13.34 0 0 0 1.28-2c-.57 2.14-.59 4.71-1.84 6.34-1.74 2.26-4.39 3.82-6.49 5.55.17 1.88 1.21 4.47.33 5.78-1.09 1.59-1.52 4.7-4.7 4.46z" class="D"/><path d="M426.79 227a31.89 31.89 0 0 1-5.1-.64c-2.45-.68-3.5-2.56-3.16-5s2.18-2.69 4.15-2.68h2.77c3.56.23 4.67 2.24 3 5.36l-1.61 3z"/><path d="M441.8 187.25q.76 3.1 1.55 6.21l-1.8 15.67c-4.74-2.95-4.47-15.61.25-21.88z" class="D"/><path d="M387.43 222.54l-7.6-3.51c-3.63-3-5.36-2.45-6.34 1.95l-.52 2.34c-2.94-1.25-1.41-3.61-1.38-5.6 4.6-3.8 4.59-3.78 10-.74 1.4.79 2.86 1.47 4.29 2.2l.16.1c.43 1.09.96 2.18 1.39 3.26z" class="F"/><path d="M417.67 212.33c1.41-3.65 2.53-4.2 5.71-2.79a39 39 0 0 1 5.6 2.57c.9.58 1.26 2 1.86 3-4.79.99-9.04-.58-13.17-2.78zm-5.37-6.75l2.33 13.32.36 3c-3.46-2.94-6.78-6.16-6.1-11.11.26-1.79 2.22-3.47 3.41-5.21z" class="D"/><path d="M408.69 220c-.3.57-.55 1.59-.93 1.64a40 40 0 0 1-8.29.63c-.7-.05-1.25-2.31-1.87-3.56h8.44c.96.03 1.77.82 2.65 1.29z" class="F"/><path d="M415.71 222.69a.49.49 0 0 1 .52 0l1 1.43-.79.46zM443.6 193l1.15-1.63zm-8.08 41.52l-.69 1.64zM448.45 177l-1 1.17z" class="D"/><path d="M479.46 262.93L474.8 253c3.22-1.73 6.76-.68 6.66 2.42-.19 6.08 1.69 11.51 3.72 17 .82 2.19-.26 2.75-2 3.45-4.7 1.86-9.31 4-14 5.91-.68.28-1.87.59-2.21.25-2.24-2.22-4.28-4.65-6.47-6.94a17.8 17.8 0 0 0-3.26-2.75c-1-.6-2.19-.72-3.18-1.28-.62-.34-1.41-1.11-1.39-1.66a2.32 2.32 0 0 1 1.52-1.53c8-2 15.55-6.3 24.24-4.56.26.03.57-.22 1.03-.38zm-101.95 9.15l-.64 7.49-9.87-4.48c-3.79-1.95-6.9-4.52-8-8.92 0-.11-.06-.26-.14-.31-6-3.67-1.37-7.61-.11-11.27 1.1-3.24 2.86-6.24 4.64-10l4.12 5.73c1 1.41 1.65 3.14 2.9 4.23.73.64 2.32.4 3.51.35.3 0 .9-1.13.79-1.26a10.14 10.14 0 0 0-2.23-2c-1.1-.69-2.32-1.18-4.42-2.22l9.25-4.83 10.36 11.51a2.88 2.88 0 0 0 2.22 1c2.38-.74 4.66-1.77 7-2.7l2.61-.05 1.48 8.48 5.23-.35c.59 3.65 1.28 7.1 1.68 10.57.36 3.16-1.95 5.81-5.82 7.27-3 1.14-4.63-1.17-5.55-2.93-1.89-3.64-4-3.36-6.9-1.58-.72.45-1.69.5-3.61 1 1.24-3.38 2.39-5.93 3.09-8.59a46.4 46.4 0 0 0 .79-6.49c-2.77.39-6.18-.09-8.13 1.38a10 10 0 0 0-4.25 8.97z" class="F"/><path d="M399.56 254.31l-2.61.05a39 39 0 0 1-3.27-2.28c-1-.86-1.88-1.9-2.82-2.87 2.24-.36 6.21-.27 5-4.43-.45-1.52-3.78-2.2-5.79-3.27l-.52.69-1-3.63c-1.46-4.15-5.33-4.95-8.28-1.79-.94 1-2.05 1.85-3 2.88s-1.38 2-2.47 3.5c-2.22-3.93-2.42-7.78-1.06-10.8 1.61-3.56.15-6.11-.83-9l.52-2.34c1-4.4 2.71-4.93 6.34-1.95.84 2.59 1.52 5.25 2.61 7.73a3.49 3.49 0 0 0 2.77 1.5c3.72-.2 5.87 1.21 6.54 5 .21 1.18 1.09 2.24 1.79 3.6 3-1.64 4.73-.55 5.16 2.52.39 2.72 1.14 4.56 4.49 4.25s4.31-2.14 4.31-5.05c2.26.77 3 2 1.69 4.31a10.68 10.68 0 0 0-.76 2.89l-1.93.32 3.73 8.7c-.34 3.37-4 4-6.63 5z" class="E"/><path d="M212.94 194.14c-3.66 4.06-8.07 3.41-12.36 2.69-1.92-.32-2.27-2.49-.63-3.6 2.66-1.8 5.49-2.83 8.66-.9a32.34 32.34 0 0 0 4.33 1.81z" class="D"/><path d="M413.84 249.67c3 1.73 2.46-2.62 4.46-2.61 2.56.53 5.11 1.4 7.68 1.44 1.37 0 2.72-1.49 4.17-2.12a41.27 41.27 0 0 1 4.12-1.34l.82 1.31a29.06 29.06 0 0 1-3.92 3.7 35 35 0 0 1-5.39 2.4c.25.13 0 .07-.13-.09l-2.29-3.12c-1.33 1-2.94 1.82-3.91 3.1-1.9 2.48-4.12 2.71-5.72 0-.39-.6.05-1.75.11-2.67z" class="E"/><path d="M332.36 365.66c0 8.73-3.86 14.16-11.83 17.23-2 .79-4 2.08-6 2.35-5.71.74-8.12-.77-10.71-5.93-1.5-3-.35-8.58 2.23-11.64a71.11 71.11 0 0 0 4.49-6c2.38-3.49 13.38-7.22 17.05-5.23s5.6 5.34 4.77 9.22z"/><path d="M387.43 222.54l-1.43-3.26 9.54-1.64c-2.7.71-4.5 1.93-3.56 5.24.3 1.07-.14 2.36-.24 3.65-3.09-.04-3.61-2.11-4.31-3.99zm26.71 12L413 236z" class="E"/></svg>