<svg xmlns="http://www.w3.org/2000/svg" viewBox="0 0 720 720" xmlns:v="https://vecta.io/nano"><style><![CDATA[.E{fill:#991e3e}.F{fill:#cb656c}.G{fill:#580d19}]]></style><path d="M0 0h720v720H0z"/><path d="M348.24 720l3.57-46 3.65-63c.47-16.26-.51-32.57-.85-48.85.41-2 1.47-4.1 1.08-5.9-1-4.48-2.56-8.82-4-13.2-.81-2.54-3.17-3.55-5.41-2.09-2.41 1.56-5.16 3.07-6.74 5.32-4.63 6.64-11.65 10.43-17.69 15.29-8.83 7.09-19.32 11.19-30.33 13.68-4 .9-8.15 1.11-10.39-3.68a13.11 13.11 0 0 0-2.26-2.61 51.12 51.12 0 0 1-12.76-26.72c-2.06-14 .22-27.81 2.65-41.63.82-4.64 4.1-8.93 2.32-14l.16-1.44 4.14-12a15 15 0 0 1 1.21-3.07c1.25-2 2.74-3.82 4-5.79.73-1.14 1-2.6 1.87-3.6 2.18-2.54 4.52-4.95 6.91-7.29.84-.83 2.57-2.1 2.94-1.83a7.08 7.08 0 0 1 2.42 3.42c1.42 4.33 2.6 8.74 3.83 13.13a10.69 10.69 0 0 1 .41 2.38c.39 9-3 17.09-6.43 25.05-1.78 4.12-.72 7.15 3.57 7.86a3.85 3.85 0 0 1 2.59 2.48c.63 3.94.53 8 1.27 11.91 1.08 5.73 2.83 11.34 4 17.06.76 3.82.85 7.77 1.44 11.63q1.47 9.61 10.08 4.77a17.11 17.11 0 0 0 4.58-3.65l19.78-23.72a3.09 3.09 0 0 1 1.68-1.1c2.71-.42 3.73-2.35 4.64-4.6 2.19-5.41 4.55-6.27 9.54-3.45 2 1.13 3.47 1 4.72-1 1.51-2.32 2.88-4.74 4.59-6.91a26.71 26.71 0 0 1 4.34-3.93c.08-.06 1.58 1.16 1.47 1.45-.65 1.83-1.22 3.88-2.47 5.28-4.66 5.24-6.59 11.58-7.54 18.24-.47 3.24 1.06 3.86 4.39 3.87a9.22 9.22 0 0 1 5.63 2.26c2.13 1.93 3.84 2.85 6.2.62.35-.33 1-.35 2.38-.78a80.1 80.1 0 0 0 .07 9.22 31.47 31.47 0 0 0 2.19 9.33c1.73 3.7 4.86 3.52 7.25.23 2.15-3 1.47-6.18.41-8.95-3.22-8.4-7.1-16.54-10.29-25-1.15-3-1.15-6.53-1.49-9.84a2.15 2.15 0 0 1 1.2-1.75 2.56 2.56 0 0 1 2 1c.84 1.09 1.29 2.48 2.16 3.53a16.79 16.79 0 0 0 2.75 2.24 19.58 19.58 0 0 0 1.51-2.86c.7-2 1.23-4.07 1.83-6.11l1.21-.11a23.79 23.79 0 0 1 1.56 3.75c2.16 9.69 4.65 19.32 6.22 29.1 1.55 9.61 7.29 17.11 11.73 25.16 3.82 6.93 8.19 13.79 14.52 19.06 2.13 1.77 4.46 4.26 5 6.78 2.56 11.82 11.2 17 21.45 20.2 6.14 1.9 8.62-.48 8.61-7 0-3.21.79-5.86 3.47-7.88a3.69 3.69 0 0 0 1.3-2.6c0-3.69-.17-7.38-.39-11.07-.15-2.41-1.17-5-.61-7.19a59.68 59.68 0 0 0 1.92-16.42c-.16-6.63.2-13.36 2.95-20 2.09-5 1.89-11 2.52-16.57.52-4.64 1.54-5.71 6.09-5 1.65.26 3.16 1.39 4.81 1.72 1.33.27 3.17.44 4.08-.26s1-2.5 1.28-3.86a22.46 22.46 0 0 0 .14-3.39 19.28 19.28 0 0 1 3.89 1.56c3.72 2.46 4.8 6.44 4.74 10.46-.18 12 .18 24-1.44 35.81-1.21 8.84-.82 18.21-5.21 26.49-.15.28 0 .71-.12 1-1.64 4.74-2.7 9.8-5.06 14.15A76.25 76.25 0 0 1 466 621.14c-3.25 2.74-6.31 5.77-9.85 8.07-1.24.81-3.67-.05-5.51-.37-.72-.12-1.29-1.15-2-1.25l-16.21-2.08c-14.5-5.77-29.18-11.19-42-20.49-2-1.46-4.47-2.29-6.73-3.41-7.93-9.74-17.43-18.24-23.39-29.64a7 7 0 0 0 .81 4c3.07 4.57 5.86 9.45 9.58 13.44 4.68 5 6.09 9.81 4.75 16.85-1.68 8.85-1.15 18.13-1.55 27.22l-1.18 29.37c-.07 5.17-.26 10.63 1.26 15.44 1.57 5 1.31 9.8 1 14.67-.58 9-1.59 18-2.41 27z" class="E"/><path d="M372.55 720l2.41-27c.31-4.87.57-9.66-1-14.67-1.52-4.81-1.33-10.27-1.26-15.44.15-9.79.75-19.58 1.18-29.37.4-9.09-.13-18.37 1.55-27.22 1.34-7-.07-11.84-4.75-16.85-3.72-4-6.51-8.87-9.58-13.44a7 7 0 0 1-.81-4c6 11.4 15.46 19.9 23.39 29.64-.75 1.49-2.09 2.95-2.18 4.47-.45 8.54-.44 17.11-.9 25.65l-2.5 39.83-2.94 45.34A10.24 10.24 0 0 0 376 720z" fill="#977c35"/><path d="M385 89.42c3-2.26 5.71-5 9-6.69 6-3.19 12.69-3.15 19.33-2.72 4.27.28 8.55.44 12.82.55 7.21.19 11.8 4.37 11.8 11.64 0 3.84-1.17 7.69-1.85 11.53-.34 1.93-.88 3.82-1.09 5.76a2.36 2.36 0 0 0 1.05 1.94c.44.21 1.46-.32 2-.79l24.75-23.73a28.43 28.43 0 0 1 20.92-7.6c4.15.17 8.32 0 12.47.34a34.15 34.15 0 0 1 19 7.14c6.63 5.07 13.4 9.86 18.33 16.67 8 11.09 15.31 22.56 17.39 36.54.64 4.34 1.73 8.62 2.75 12.89 2.8 11.67 1 23.21-1 34.74-.7 4.07-.33 4.77 3.68 3.77a48.45 48.45 0 0 0 9.68-3.56c9.41-4.66 19.22-.27 24.64 6.78 4.1 5.34 7.12 11.52 10.67 17.3a16.24 16.24 0 0 0 2.14 2.68c13.1 13.4 17.14 29.19 13.27 47.4-2.42 11.4-9.16 20-17 28-.56.58-1.21 1.08-1.72 1.71-3.28 4.1-2.84 6.19 2.14 7.87 18 6.08 29.58 19.39 39.63 34.6 6.75 10.22 9.76 21.56 11.34 33.47.82 6.27-2.4 9.63-8.62 9a34.57 34.57 0 0 0-7.61.08c-1.47.18-3.34.83-4.08 1.91-.47.7.54 2.77 1.35 3.88 4.67 6.46 9.79 12.61 14.17 19.25 8.89 13.48 13.53 28.54 15 44.54.63 7 .45 14.06.59 21.09a3.52 3.52 0 0 1-.54 1.93c-11.36 17.07-27.14 26.87-47.8 26.28-12.66-.37-24.6-5-35.63-11.52-7.11-4.2-8-3.74-9.33 4.31-.24 1.49-.41 3-.61 4.47l-.28 2c0 .41 0 .82.06 1.25-.2.47-.42.94-.64 1.41l-.59 3.6a.59.59 0 0 0-.29.55l-.19.27c-.1.19-.2.39-.31.58l-.33.75-6.27 6.72c-.5-4.5-.05-8.83-1.56-12.31-2.34-5.38-1.48-10.4-.22-15.5.32-1.3 2.42-2.79 3.9-3.06 5.06-.9 6.53-2.57 5.7-7.72a37.82 37.82 0 0 0-1.21-5.41c-1.48-4.69-.73-5.74 4.31-5.8a50 50 0 0 0 7.25-.32c1.08-.17 2-1.36 3-2.08-.73-.92-1.29-2.12-2.24-2.69a39.59 39.59 0 0 0-4.77-2l-12.61-5.64a76 76 0 0 1-6.85-3.76c-1.2-.73-3.11-1.68-3.18-2.64-.28-3.94-3-3.86-5.77-4.51-5.6-1.3-11.11-3-16.62-4.64-2.16-.65-4.19-1.77-6.31-2.61-1.79-.71-3.62-1.32-5.44-2l.21-1.26 3.16-.58a95.15 95.15 0 0 0 9.54-1.69c2.6-.71 4.32-2.3 2.37-5.4-1.59-2.53-.51-4.53 1.91-5.67 1.63-.77 3.55-.9 5.23-1.58.84-.35 1.44-1.29 2.15-2-2.47-1.84-4.89-3.77-7.5-5.37-.27-.17-2.46 1.57-2.52 2.51-.21 3.5-2.25 4.45-5.21 4.81a33.52 33.52 0 0 0-4.35 1.13l-20.4 5.29c-3.06.73-4.21-.73-3.09-3.63.43-1.1 1.55-1.92 2.19-3a10.53 10.53 0 0 0 1.37-3c.34-1.34 0-3.67.64-3.94 1.26-.54 3-.11 4.53.23 4.14 1 8.2 2.37 12.38 3 3.88.63 4.92-1 3.59-4.73-.63-1.77-1.6-3.72 1.79-3.73 2.26 0 2.05-1.51 1.19-2.87-2.33-3.7-5-6.94-9.85-7.41a15.51 15.51 0 0 1-4.29-1.31c-6.34-2.6-12.61-5.42-19.53-1.6-.91.5-2.33.07-4.6.07 1.35-1.59 1.83-2.53 2.6-3 4.68-2.89 10.05-4.27 15.23-3.18 7.26 1.52 14.31 4.15 21.33 6.62 1.69.6 2.93 2.47 4.37 3.75.85.76 1.65 1.6 2.57 2.28 5.74 4.26 11.89 8.08 17.2 12.83 9.07 8.14 18.67 15.31 29.9 20.19 2 .87 4.06 1.74 5.69-.26s2.52-3.92 1-6.64a26.22 26.22 0 0 1-2.85-8.08c-1.05-5.88-1.68-11.84-2.5-17.76-.69-4.93-3.12-8.68-7.74-10.71l-19.24-8.24c-1.17-.52-2-1.77-3-2.68 1.26-.74 2.45-2 3.77-2.12 3.09-.35 6.24-.06 9.36-.26 2.15-.15 3.06-1.45 1.47-3.24-1.73-2-3.85-3.57-5.69-5.44-2.58-2.63-5.11-5.31-7.53-8.1-.47-.54-.29-1.65-.41-2.5a13.41 13.41 0 0 1 2.79.27c1.61.5 3.11 1.33 4.72 1.81 3.42 1 6.87 1.95 10.33 2.84 6.24 1.59 12.43 3.51 18.77 4.48 2.36.36 5.13-1.45 7.59-2.55.37-.17.48-2.23 0-2.82-1.92-2.28-4.29-4.19-6.17-6.5a46.58 46.58 0 0 1-3.92-6.25c-1-1.66-1.35-3.91-2.72-5a40.59 40.59 0 0 0-24.15-9.13 6 6 0 0 1-3-1.05c-2.22-1.6-4.24-3.52-6.5-5.06a3.35 3.35 0 0 0-2.8.05q-9.45 4.61-18.76 9.5c-.58.3-.66 1.55-1 2.36l-11.87 2.48 2.28-3.2c-2.48-3.42-3.27-3.58-6.39-1.34l-3.06 2.28c-3.91 2.9-5 2.79-8.6-.59-3.36-3.17-6.64-6.46-10.21-9.37-4.47-3.64-6-9.16-3.58-15.24l3.21 4.12c-.07.44-.37 1.05-.19 1.29 3.83 5 8.09 9.38 14.76 10.58 1.56.28 3.11 1.65 4.25 2.89 1.53 1.67 3.15 2.25 4.79.81a44.88 44.88 0 0 0 5.63-6.06c3.07-3.88 5.87-8 9-11.82 1.39-1.73 1.41-2.84-.33-4.32a42.33 42.33 0 0 1-4-4.58 33.15 33.15 0 0 0 5.41.94c10.5.09 20.6-1.69 30-6.78l11.48-6.13a11 11 0 0 1-1.27 2c-2.25 2.31-4.83 4.38-4.83 8.07a2.41 2.41 0 0 1-.79 1.51c-2.89 2.77-6 5.37-8.7 8.3a84 84 0 0 0-5.49 7.28c7.58-1.14 31.07-27.93 32-35l-3.38 1.62c-1.17-.63-2.31-1.75-3.51-1.81l-37.93-1.42c-.93 0-2.43-.21-2.63-.73a3.28 3.28 0 0 1 .62-2.8 30.79 30.79 0 0 1 5.46-5.25c4.6-3.16 9.57-5.51 15.35-5.69.87 0 1.7-1.17 2.55-1.79-.77-.6-1.45-1.55-2.3-1.74a19.32 19.32 0 0 0-6.16-.62c-2.42.28-4.1.07-5.64-2.16a4.41 4.41 0 0 0-4.09-1.13c-4.73 2.22-9.8 4.09-11.75 9.9-.56 1.66-2.49 3-4 4.14a3 3 0 0 1-2.72.19c-2-1.26-3.52-.64-5.48.2-2.78 1.21-5.84 2.37-8.8 2.4-2.75 0-5.51-1.42-8.27-2.22l-4.64-1.92c.5-3.14 2-4.19 5.1-2.77a10.42 10.42 0 0 0 3.38.57c8.26.79 15.56-2.12 22-6.75 3.84-2.76 7-6.58 10.06-10.27 2-2.43 1.3-4.92-1.06-5.12-7-.6-14-1.37-20.94-1.3-5.84.05-11.58 1.45-15.08 7-1 1.54-1.54 3.36-2.53 4.9s-2.06 2.26-3.88.54c-1.23-1.17-3.18-1.56-4.81-2.29a113.2 113.2 0 0 1 2-11.83 5.64 5.64 0 0 1 3.65-3.26c4.59-1 9.24-1.83 14-.43 1.92.55 4.13.1 6.21.06l14.17-.32a8.8 8.8 0 0 0 3.86-1.01c1.86-1.11 2.39-.39 2.91 1.29a14.47 14.47 0 0 0 1.8 3.76c1.13 1.67 2.49 3.19 3.9 5 .36-.7 1.45-1.77 1.3-2.62-.74-4 2.18-5.3 4.7-6.7a37 37 0 0 0 16.07-17.53 4.21 4.21 0 0 1 2.26-2.23c3.57-.95 7.2-1.69 10.84-2.33l21.14-3.51a39.82 39.82 0 0 0-11.49-20 13.49 13.49 0 0 0-13.73-3.38c-5.07 1.41-9.92 3.13-15.29 3.76-5.84.69-11.51 3.19-17.13 5.25-5.37 2-10.57 4.39-15.85 6.61l-.68-.57q2.67-5.35 5.36-10.69l-1-.64c-3.66 5.08-6.67 10.83-11.13 15.06S504 214.59 498.63 218l-1.06-1 3.36-8.34c.95-.1 2.16.12 2.8-.38a69.51 69.51 0 0 0 9-7.59c3.44-3.75 7.5-7.61 4.69-13.64q-3.57-7.64-7.15-15.24c-1.13-2.4-2.84-2.53-5.16-1.68s-4.71 1.08-7 1.79c-.59.18-.95 1.12-1.42 1.71-1.36-1.41-2.82-2.73-4-4.25-3.5-4.36-3.35-4.2-8.35-1.5S473.78 173 467.59 176c1-7.07.71-13.58 4.42-18.89 8.35-11.91 9.77-24.69 6.5-38.55-1.71-7.28-7.44-10.73-12.52-14.92a2.4 2.4 0 0 0-1.65-.38c-4.77.47-9.31 1.35-12.93 5a49.13 49.13 0 0 0-10.08 15.58c-1.58 3.72-3.8 7.16-5.73 10.73l-1.27-.34v-22.06c-1 1.08-1.34 1.31-1.35 1.54-.19 5.41-.55 10.83-.41 16.23.1 4.17.61 8.17-2 12-2.74 4-5 8.25-7.41 12.4l-2.61 4.52a9.16 9.16 0 0 1-.13-4.6c1.06-6.51.75-13-3.59-18.15-4.66-5.54-6-6.91-12.16-1a108.76 108.76 0 0 0-23.31 32.44c-.76 1.61-1.67 3.16-2.8 5.28l-6-8.34c3.33-2 3.89-5.39 1-8.26a18.47 18.47 0 0 1-5.45-10.23c-.29-1.72-1.7-3.26-3-5.66l-2 3.86c-2.7 5.13-4.85 5.27-8.25.48a23.77 23.77 0 0 1-1.46-2.36 8.07 8.07 0 0 0-8.69-4.05c-2.69.52-3.82 2-2.9 4.72l1.81 5.23 5.42 14.16c-.5 1.28-.89 2.6-1.5 3.82-4.37 8.7-8.44 17.5-10.12 27.19-1 5.45.22 6.61 5.75 6.11 1.1-.09 3 .29 3.3 1 1.85 4.2 4.71 5.74 9.13 4.41a2.73 2.73 0 0 1 1.7.22c3.88 1.72 6.36-.12 8.46-3.18l5.65-8h1l2.17 8.61 1.12.94c1.12-1.54 2.16-3.15 3.38-4.61 2.73-3.23 5.47-6.46 8.37-9.53.65-.69 2-.71 3-1a11.2 11.2 0 0 1 .41 3.44 61.39 61.39 0 0 1-2.16 8.33 8.28 8.28 0 0 1-2.43 3.82c-3.93 3-8.18 5.62-12.07 8.67-1.22 1-2.63 3.07-2.34 4.27.67 2.86 2.27 5.51 3.61 8.19.17.32 1.1.44 1.63.35 4.16-.65 7.38 1 10 4l2.3 3c-.92.41-1.37.81-1.72.73-6.92-1.58-14.64-.6-19.86-7.43-2.07-2.72-2.89-4.73-1.24-7.65a14.32 14.32 0 0 0 .7-2.53c-1.77 1.27-2.8 2.12-3.95 2.8-2.35 1.39-4.41 2-5.6-1.58a3.87 3.87 0 0 0-3.05-2.08c-3.62.34-7.2 1.19-10.79 1.85-1.72-1.34-3.38-2.76-5.17-4-5.61-3.9-12.31-4.18-18.71-5.31-1.12-.19-2.76 1.48-3.82 2.6-.72.76-.86 2.08-1.25 3.15-2.35-.08-4.87.67-6.6-1.87s-3.65-5-5.62-7.42a8.44 8.44 0 0 0-2.51-1.45 9.47 9.47 0 0 0-1.2 2.57c-.14 1 .45 2.1.28 3.07a4.06 4.06 0 0 1-1.46 2.44c-.34.24-1.58-.49-2.19-1l-8.18-7.36c-.55-.47-2.11-.74-2.33-.44-2.75 3.65-5.84 2-9.05.91-4.37-1.51-7.05-.34-9.68 3.56-1.29 1.9-3 3.48-4.24 5.42-.71 1.14-1.43 3.08-.93 4a37.64 37.64 0 0 0 5.77 8c2.8 2.88 6.13 5.22 9.18 7.85 5.12 4.42 11.34 6.14 17.8 6.89 4.31.49 5.82-1.1 6.37-5.44.34-2.63.51-5.28.86-7.91a23.61 23.61 0 0 1 .89-3.24l1.41.09c.37 3.7.84 7.4 1.05 11.11a17.61 17.61 0 0 1-.75 4.17c1.55-.07 3.11-.07 4.66-.23a7.75 7.75 0 0 0 1.93-.74 5.75 5.75 0 0 0 .4 2c.68 1.06 1.43 2.48 2.46 2.82s2.48-.32 3.63-.81c5.95-2.53 12.09-4.67 17.56-8.23.34-.22 1.15.07 1.32-.18a15.64 15.64 0 0 0 1.19-2.43c.28-.78.87-1.62.75-2.34a15.36 15.36 0 0 0-1.33-3.32 16.82 16.82 0 0 0 2.81 1.61c1.83.64 3.76 1.49 5.58 1.35.79-.06 1.4-2.37 2.1-3.66.34 2.26.75 4.5 1 6.77.22 2 .27 4 .39 5.95-1.55 3.38-1.19 4.65 2.22 5.67a62.51 62.51 0 0 0 7.66 1.32c4.63.79 4.57.8 4.62-4 0-2.19-.66-5.46 2.64-5.32 3 .13 1.92 3.35 2.19 5.36s.44 3.91.65 5.86l-1.39 2c-2.15.42-4.33 1.29-6.44 1.15-4.42-.28-8.82-1.67-13.19-1.54s-6.1-1.19-4.41-5.29a4.49 4.49 0 0 0-1.79-6c-1.09-.67-3.62-.15-4.84.74a77 77 0 0 1-18.68 10.19c-4.37 1.64-6.14 1.07-8-3.19a22.68 22.68 0 0 0-1.69-2.29c-1 3.79-2.23 6.68-2.34 9.6-.09 2.56 1.1 5.16 1.73 7.74-.21 3.66-.64 7.33-.53 11a6.36 6.36 0 0 0 2.07 4.3c.6.5 2.62-.47 3.88-1.05 2.41-1.12 4.73-2.44 7.09-3.68l1.45 1.2 1.57 1.4 1.13-1.47-.56-10.18c1.46 1.39 3 2.71 4.36 4.21s2.95 2.12 4.77.65l2 3.5-1.24 2.85c1.89-.37 3.17-.53 4.4-.88l14.42-4.17c3.11-.81 4.24-2.22 3.76-5.47l-.72-5.15 1.23-.66c2.2 2.22 4.32 4.52 6.62 6.64a28.57 28.57 0 0 0 3.8 2.54v4l3.66-.26a30.1 30.1 0 0 0-3.46 4.15c-.69 1.2-.75 2.76-1.09 4.15l3.56-1.73a3.3 3.3 0 0 1 .63-.2l1.11-1.11 3.44 4.94c-3.58.46-7.2.75-10.72 1.47-1 .2-1.67 1.69-2.49 2.59a22.27 22.27 0 0 1-2.27-3.73 13.9 13.9 0 0 1-.36-3.68l2.54-3.22c-1.23-.61-2.4-1.57-3.7-1.76-9.15-1.37-17.39 2.71-26 4.65-.67.15-1 1.84-1.47 2.82l-3.23 1.55.71-5.3c-3.3 1-6.12 1.68-8.84 2.66-2.43.88-3.28 2.75-2.48 5.28a10.36 10.36 0 0 0-8.22.8c-5.44-3.75-2.69-9.48-3.47-14.51a20.87 20.87 0 0 0-2 5c-1.57 5-4.54 9.17-9.53 10.61-4.55 1.32-9.49 1.54-14.27 1.7-5.5.18-7.76-2.09-8.71-7.7l12.17 3.59a4.16 4.16 0 0 0 2.68 0c4-2 7.86-4.08 11.78-6.15 2.15-1.14 2.59-2.76 1.39-4.86.77-.25 1.55-.45 2.31-.75 2.27-.89 2.07-2.1.48-3.58-2.07-1.95-4.12-3.93-6.11-6-2.95-3-6.45-4.59-10.65-3.61-3.2.75-2.69 3.94-3.51 6.22-.93-.66-2.25-1.14-2.7-2-.63-1.29-1.18-3.09-.77-4.33.7-2.12.4-5.46 3.67-5.61a33.18 33.18 0 0 1 8.12 1c1.89.39 3.73 1.82 5.53 1.71a7.57 7.57 0 0 0 4.77-2.6c.8-.95 1.11-3.53.43-4.3a20.7 20.7 0 0 0-6.8-5.41c-5.45-2.33-11.14-1-16.7.17a52.42 52.42 0 0 0-4.2-5.44c-4-4-8.14-7.94-12.31-11.81a18.46 18.46 0 0 0-3.29-2 14.91 14.91 0 0 0-1.8 3.44 47.46 47.46 0 0 0-.48 6.27c-1.6-1.78-2.26-2.95-3.27-3.51a12.05 12.05 0 0 0-3.58-.73l-.19 3.08v2.69c-3.46-2-6.28-3.83-9.22-5.39-6-3.19-12.74-3.58-18.36 2.27-2.71 2.82-2 6.77 1.74 8a15.49 15.49 0 0 0 4.41.83c8.32.21 16.56.71 24.56 3.48 3.6 1.25 6.83 7.91 5 11.3-2.08 3.82-9.82 7.46-14.27 7.12a119.19 119.19 0 0 0-12.82-.2c-3.24.1-6.6 3.22-6.88 5.89-.37 3.57 2.47 4.83 4.84 5.37 5.25 1.21 10.66 1.77 16 2.48 5 .67 8.9-1.47 12.34-5 4.72-4.79 4.78-4.72 7.89 1.08.27.51.65.95 1 1.44 3.16 5.17.71 13.07-4.84 15.29-7.68 3.09-15.43 5.95-21.59 11.89-2.06 2-4.64 1.2-6.26-1.29 2.94-1.5 3.38-2.79 1.34-5.25-1.89-2.29-4.15-4.27-6.18-6.44l-17.57-18.65c-.88-.91-2.67-.94-4-1.38-1.61-1.89-3.73-3.57-4.61-5.75-.48-1.19 1.39-3.19 1.73-4.91a4.45 4.45 0 0 0-.8-3.38c-2.91-3.25-6.11-6.24-9.07-9.44a53.36 53.36 0 0 1-3.63-4.89c2-1 2-2 .35-3.59a16.53 16.53 0 0 1-5-9.13 79.42 79.42 0 0 1 2.75 1.91c4.81 3.49 6.11 3 8.89-2 1.39-2.52 3.35-5.79 5.7-6.47a36.68 36.68 0 0 1 14.18-1.16c5.32.63 10.46 2.7 15.67 4.19 1.81.52 3.59 1.17 6.11 2-2-8.61-5.86-15.24-12-20.31-5.35-4.42-12.08-5.89-18.72-7.42a63.37 63.37 0 0 0-22.67-1.21c-1.63-.84-3.48-1.43-4.83-2.6-1.6-1.39-2.74-3.29-4.12-4.94s-3-3.2-4.23-4.94c-1.74-2.39-3.12-5.08-5-7.34-.83-1-2.56-1.23-3.88-1.8-.64 1.61-1.86 3.26-1.78 4.84a31.5 31.5 0 0 0 1.82 7.35c1.47 4.68 1.52 4.67-3.33 4.83l.33 6.8c.16 5.36-.88 10.91 2.74 15.69.45.61.43 1.55.75 2.29a59.09 59.09 0 0 0 3 6.41c5.14 8.68 14.74 13.91 18.2 24.06 1.61 4.72 4.74 8.92 7.12 13.39.9 1.68 1.79 4.15-.86 4.38s-6.4-.11-8.45-1.73c-6.12-4.8-11.6-10.41-17.43-15.58a87.77 87.77 0 0 1-18.37-23.56l-12.24-22a20.72 20.72 0 0 1-.17-.76l-.93-3.44-.49-3.54-.36-32.84c-.23-4.6 1.58-7.66 5.91-9.85 3.49-1.76 6.07-5.47 9.63-6.94 7.09-2.91 14.56-4.87 21.88-7.23l2.75-1.12.67-.29 2.13-1 2.65-.49 4.78-1.11 1.49-.24 3.43-1.07 5.63-.28 17.31 1.3 1.47.26 5.46 1.15 1.5.46 1.13.36h1l20 8.56a6.26 6.26 0 0 1 2.11 1.84c.85 1 1.3 2.64 2.36 3.21 4 2.19 8.81 2.66 12.57 5.82 2.09 1.76 4.15.32 3.8-2.47a86.23 86.23 0 0 0-2.4-13.19c-1.83-6.37-4.42-12.52-6.31-18.87-4.1-13.76-4.76-27.66-.9-41.62l.1-.21a29 29 0 0 1 13.87-11.6c1-.45 1.63-2 2.43-3l.22-.15 3.76-1.12a10.68 10.68 0 0 1 2.17-.82l14.84-.9 1.54.17 2 1.12-3.85 2.09c1.08 1.09 2 2.69 3.29 3.16 5.46 1.95 9.56 5.77 13.93 9.3 3.93 3.19 8 6.17 12.1 9.17 2.21 1.63 5.49 2.64 6.57 4.79a21.19 21.19 0 0 1 2.06 14.65c-1.76 7.51-3.26 15.09-4.72 22.66a28.71 28.71 0 0 0-.05 5.33l1 .07c.25-.36.65-.68.73-1.07l4.59-23.38c.75-3.44 2.54-6.69 3-10.14a108 108 0 0 0 .85-15.78c0-1.22-1.73-2.56-2.87-3.61a16.77 16.77 0 0 0-3.65-2.39l-12.22-6.19c-3.41-1.78-6.73-3.72-10.09-5.59l5.91 1.28.26.1 9.4 4a2.09 2.09 0 0 1 .35.13l13.57 8.29.24.09c2.49 4.17 6.93 3.63 10.75 4.17 6.29.88 12.49 1.74 17.89 5.45a9.72 9.72 0 0 0 2.22.85l.23.28a.57.57 0 0 0 .48.4l.25.12 11.74 11.54.15.22.43.49.22.22c.85 1.52 1.76 2.82 3.44.8l.11-.29zM248.86 218.71a6.55 6.55 0 0 0 .39-1.59l-5.46-29.28c-.63-3.58-1.86-6.57-4.89-8.74-3.84-2.76-7.43-5.88-11.39-8.43-12.21-7.86-24.61-15.41-39.27-17.92-.84-.14-2.22-.27-2.48.14a3.42 3.42 0 0 0-.29 2.85c2.09 4.36 3.8 9.09 6.76 12.8a105.49 105.49 0 0 0 13.57 13.66c5.65 4.91 11.95 9.08 17.6 14 6.7 5.84 12.95 12.19 19.5 18.21a60.41 60.41 0 0 0 5.96 4.3zm280.43-33.9l1.11.65c2.43-2 5-3.89 7.26-6.09 3-3 5.8-6.21 8.74-9.28 3.47-3.64 4.44-7.82 3.46-12.74s-1.51-10-2.34-15c-.6-3.61-.75-7.47-2.2-10.73a187.13 187.13 0 0 0-11-21.14c-2.54-4.17-6.3-7.6-9.59-11.29-1.35-1.52-3.37-2.09-4.31-.06-1.47 3.17-3.66 7-3 9.94 1.19 5.14 0 9.86-.35 14.72-.19 2.88.52 4.4 3.38 5.47 5.92 2.2 11.73 4.76 17.49 7.38 3.57 1.62 4.68 5.49 3.59 9.07a107.6 107.6 0 0 0-2.37 11.34c-.37 2-.47 4.1-.88 6.12a77.88 77.88 0 0 1-1.93 7.69 34.66 34.66 0 0 1-2.41 5.92c-1.38 2.78-3.07 5.38-4.65 8.03zm117.57 177.61c-.45-1.84-1.22-3.48-1.2-5.12a30 30 0 0 0-6-18c-5.17-7.2-8.84-15.6-16.36-21-3.2-2.31-6.07-5.09-9.23-7.46a5.57 5.57 0 0 0-3.25-.68c-4.88.08-9.2 2-13.29 4.42s-3.89 5.65.35 7.74c1.85.91 4.05 1.12 5.86 2.08a59.21 59.21 0 0 1 7.13 4.64c1.37 1 2.47 2.34 3.79 3.42 6.24 5.1 11.78 10.62 13.56 19a6.89 6.89 0 0 0 3.4 3.92c4.92 2.48 10.01 4.62 15.24 7.04zM321.35 158.31l-1.65.33c0 2.19-.09 4.38 0 6.57.13 2.56-.24 4.37-3.36 5-3.94.77-4.52 2.39-1.79 5.44 3.69 4.11 7.75 7.89 11.78 11.69 3.61 3.4 4.91 6.94 2.32 11.69-.83 1.51-.22 3.81-.27 5.75 1.54-1.48 4.16-2.79 4.43-4.47 1.18-7.38 1.68-14.87 2.4-22.31a3.45 3.45 0 0 0-.29-1.35c-2.46-7.71-9.09-12.2-13.57-18.34zM614.12 242l.76-.14c-1.69-5.1-3.12-10.3-5.17-15.24-.93-2.24-3.57-4.1-6-2.77-1.38.77-1.68 3.56-2.36 5.48-.51 1.44-.48 3.21-1.33 4.35-2.2 2.93-2.13 5.57.69 8.26l10 9.53a9.81 9.81 0 0 0 2.93 1.24 12.36 12.36 0 0 0 .87-3.15c.05-2.56-.22-5.05-.39-7.56zm-324.46-94.34l-8-23c-2.53 8.54-1.41 42.6 1.18 46.14l.86-28.3 1.45-.48zm-5.72 28.6l-.32-.47a2.78 2.78 0 0 0-.22.54c0 .07.09.18.14.28z" class="E"/><path d="M270.08 276.14c.95 5.61 3.21 7.88 8.71 7.7 4.78-.16 9.72-.38 14.27-1.7 5-1.44 8-5.63 9.53-10.61a20.87 20.87 0 0 1 2-5c.78 5-2 10.76 3.47 14.51-1.31.87-2.69 1.66-3.91 2.65-1.41 1.14-2.68 2.45-4 3.68-2.29 2.21-3.34 7.93-2.38 10.74 1.55 4.55 2.79 9.21 4.16 13.83a16.18 16.18 0 0 0 1.25 3.92c.31.53 1.65.44 2.52.63l-2.49 4.44c-1.16-.9-1.34-1.3-1.45-1.72l-4.42-17a8.73 8.73 0 0 0-12.13-5.21c-3.2 1.61-6.45 3.11-9.56 4.88-1.19.67-2 1.93-3.32 3.19 6 2 9.24 1.12 13.26-2.2.92-.76 3.17.06 4.8.23.19 0 .32.58.49.88 2.26 4.07 1 16.46-2 20-6 7-6.16 8.07-1.92 15.95 1.26 2.34.66 3.66-2 3.54a24.47 24.47 0 0 0-13.08 2.59c-2.27 1.21-4.36 2.76-6.68 3.85-3.86 1.8-7.8 3.45-11.78 5-3.15 1.21-4.33 3.38-3.62 6.53.81 3.6 1.81 7.17 2.79 10.73 1.7 6.12 5.24 7.88 11.23 5.62a9.81 9.81 0 0 0 1.88-.89c5.05-3.2 10.26-6.18 15.06-9.71 3.55-2.61 6.47-6 7.21-10.68.23-1.47.25-3 .38-4.47l1.12-.09a30.2 30.2 0 0 1 1 4.8c.39 9-2.53 17-7.4 24.35-1.9 2.88-3 5.52-1.24 9a5.8 5.8 0 0 1-.32 4.81c-1.67 2.76-.55 3.73 1.9 4.47 1.32.4 2.63.86 3.92 1.36 3 1.19 6 2.34 7.54 5.66.31.67 1.85 1.47 2.38 1.23a34 34 0 0 0 7.71-4.2c2.83-2.31 5.13-5.26 7.7-7.89 1.45-1.48 3.08-2.8 4.48-4.33s1.09-2.66-1.13-3a17.06 17.06 0 0 1-4.67-1c-7.33-3.52-10.62-10.52-14.41-17.08 4.49.47 5.9 4.33 8.12 7.32 2.56 3.45 5.18 6.33 10.17 6.73s10.16 2.2 15.67 3.49a6.59 6.59 0 0 0-.2-2.68 15.4 15.4 0 0 1-1.34-10.75 20.19 20.19 0 0 0 .24-6.21c-.07-.78-1.38-2.19-1.85-2.08-5.22 1.19-10.38 2.63-15.55 4l-2.86.43c-4.3-6.41-3.93-13-.54-19.58.8-1.53.86-2.59-1-3.2.79-1 1.62-1.91 2.37-2.91s2.5-2.84 2.22-3.27a11 11 0 0 0-3.78-3c-.63-.38-1.71 0-2.32-.41a7.39 7.39 0 0 1-2.94-2.78c-.22-.51 1.42-1.8 2.22-2.74.59.69 1.1 1.87 1.77 2a62 62 0 0 0 6.69.27h2.95c.79.73 1.52 2 2.4 2.11 4.12.57 6.63 2.84 8.07 6.6.21.56 1 .9 1.46 1.34q1.19 2.12 2.36 4.23 1.17 2.11 2.53 4.52l1.25-.61-.63-2.23-.68-5c.46-2 .8-4 1.44-6 .44-1.36 1.47-3.76 1.92-3.69 3.67.58 4.14-2.78 5.79-4.45 2.27-2.29 5.67-3.74 8.28-2.1 3.94 2.47 7.13 5.8 8.13 10.66l-8.83 11.16c-1.2 1.46-2.65 2.73-4 4.08a10.28 10.28 0 0 0 1.36 1.36c3.36 2.32 6.89 4.43 10.08 6.95 1.93 1.53 2.27 3.74 1.23 6.28-1.94 4.72-3.87 9.36-7.91 12.77a24.58 24.58 0 0 0-2.47 3.06 56.87 56.87 0 0 1 6.92.95 18.54 18.54 0 0 1 5 2.25c5.41 3.41 10.29 7.87 17.39 7.52 4.66-.23 5.73-1.9 3.49-6.09-.16-.3-.38-.58-.56-.87-2.67-4.18-4.67-8.47-2.93-13.63a16.6 16.6 0 0 0 .44-3.62c-1.67 2.27-2.39 4.69-3.44 6.95-1.32 2.84-2.68 3.06-5.09 1.07-5.74-4.74-7.74-10.67-5.69-17.91a8.78 8.78 0 0 0 0-2.35 1.31 1.31 0 0 1 .34-.24l1.64-.7 3.44-.08c1.45.22 3 .9 4.33.58C380.39 358 386.52 357 393 359c6.09 1.87 7.25 3.55 4.62 9.31a23.88 23.88 0 0 1-1.44 3.51c-2.13 3.15-4.42 6.2-6.64 9.28l2.62-6.65c2.42-6.29.62-8.84-6.12-8.66-3.43.09-4.05 1.22-3.55 4.53.46 3.07.1 6.26.37 9.36a26.1 26.1 0 0 0 1.33 4.79l3.5-1.25c.53-.19 1-.46 1.53-.69-.83 1.85-1.75 3.67-2.47 5.56s-2 4.59 1 5.54c3.37 1.05 7 2 10.47 1.79 8.26-.55 16.47-1.84 24.7-2.79 2.35-.27 3.43-1.24 2.36-3.66l-1.36-6.09c-1.17-5.86.69-8 7.53-7.24a8 8 0 0 0 4.41-.69c5.48-2.88 10.83-6 16.7-9.3l-3.15-5 .94-4c.85-4.11 2.56-7.61 6.31-9.91s3.67-3.36-.12-6.08l-2.23-2.88c.6-5.22.36-10.63 3.24-16.26 3.38 6.23 6.95 11.45 7 18.09l.45 6 .43 12.08c.12 4.03.6 4.32 4.58 3.7a23.19 23.19 0 0 1 3.65.91c2.49 1 4.48.81 6.43-1.31 3.81-4.14 7.93-8 11.72-12.16a4.82 4.82 0 0 0 .75-3.72 32.64 32.64 0 0 0-2.15-5.45c-1.67-3.92-4.42-6.36-8.85-6.69a36.32 36.32 0 0 1-4.31-.91c1.87-4.52 3.26-8.69 5.28-12.52 1.2-2.26 1.06-3.63-.84-5.06 5.37-8.16 4.24-10.9-3.43-15.1-.2-.11-.42-.2-.61-.32-2-1.26-3.4-1.29-3.74 1.62a13.09 13.09 0 0 1-1.44 3.39q-.67-7.73-1.34-15.44c2 2 3.64 4.5 6 5.9a86.09 86.09 0 0 0 12 5.61c3.52 1.44 4.41.76 5.18-3.25 3.6-8.15 3.66-16.91 4.44-25.55 2.76.8 5.52 2.26 8.27 2.22 3 0 6-1.19 8.8-2.4 2-.84 3.49-1.46 5.48-.2a3 3 0 0 0 2.72-.19c1.53-1.18 3.46-2.48 4-4.14 2-5.81 7-7.68 11.75-9.9a4.41 4.41 0 0 1 4.09 1.13c1.54 2.23 3.22 2.44 5.64 2.16a19.32 19.32 0 0 1 6.16.62c.85.19 1.53 1.14 2.3 1.74-.85.62-1.68 1.76-2.55 1.79-5.78.18-10.75 2.53-15.35 5.69a30.79 30.79 0 0 0-5.46 5.25 3.28 3.28 0 0 0-.62 2.8c.2.52 1.7.69 2.63.73l37.93 1.42c1.2.06 2.34 1.18 3.51 1.81l-7.5 6.23-11.48 6.13c-9.35 5.09-19.45 6.87-30 6.78a33.15 33.15 0 0 1-5.41-.94c-6-4.17-12.45-4.78-19.37-3-4.63 1.22-10.23 8.64-9.64 12.42l4.54-4 5.34-1.36 1.93-.14.68 8.79a34.48 34.48 0 0 1-17.29-1.55l-3.21-4.12c-2.45 6.08-.89 11.6 3.58 15.24 3.57 2.91 6.85 6.2 10.21 9.37 3.58 3.38 4.69 3.49 8.6.59l3.06-2.28c3.12-2.24 3.91-2.08 6.39 1.34l-2.28 3.2a1.6 1.6 0 0 1-.4.23 31.1 31.1 0 0 0-4.29 2.55c-5.14 4.28-5.1 4.32-9.79-.3-.11-.11-.43 0-.63 0-1.08 1.77-2.48 3.39-3.13 5.27-1 2.93-3.35 6.28-.75 9.1 4 4.37 4.1 9.53 4.3 14.83a51.83 51.83 0 0 0 .53 7.9c.19 1 2 2.59 2.6 2.4a86.67 86.67 0 0 0 8.73-3.6 67 67 0 0 0 7-2.84l24.09-13.31c2.18-1.18 4.34-1.92 3.89-5.15-.34-2.42.82-5.49-.28-7.29-4.48-7.36-10.92-12.11-20-12.25.31-.81.39-2.06 1-2.36q9.3-4.9 18.76-9.5a3.35 3.35 0 0 1 2.8-.05c2.26 1.54 4.28 3.46 6.5 5.06a6 6 0 0 0 3 1.05 40.59 40.59 0 0 1 24.15 9.13c1.37 1.11 1.77 3.36 2.72 5a46.58 46.58 0 0 0 3.92 6.25c1.88 2.31 4.25 4.22 6.17 6.5.48.59.37 2.65 0 2.82-2.46 1.1-5.23 2.91-7.59 2.55-6.34-1-12.53-2.89-18.77-4.48-3.46-.89-6.91-1.82-10.33-2.84-1.61-.48-3.11-1.31-4.72-1.81a13.41 13.41 0 0 0-2.79-.27c.12.85-.06 2 .41 2.5 2.42 2.79 5 5.47 7.53 8.1 1.84 1.87 4 3.48 5.69 5.44 1.59 1.79.68 3.09-1.47 3.24-3.12.2-6.27-.09-9.36.26-1.32.15-2.51 1.38-3.77 2.12 1 .91 1.84 2.16 3 2.68l19.24 8.24c4.62 2 7 5.78 7.74 10.71.82 5.92 1.45 11.88 2.5 17.76a26.22 26.22 0 0 0 2.85 8.08c1.53 2.72.55 4.75-1 6.64s-3.67 1.13-5.69.26c-11.23-4.88-20.83-12-29.9-20.19-5.31-4.75-11.46-8.57-17.2-12.83-.92-.68-1.72-1.52-2.57-2.28-1.44-1.28-2.68-3.15-4.37-3.75-7-2.47-14.07-5.1-21.33-6.62-5.18-1.09-10.55.29-15.23 3.18-.77.48-1.25 1.42-2.6 3 2.27 0 3.69.43 4.6-.07 6.92-3.82 13.19-1 19.53 1.6a15.51 15.51 0 0 0 4.29 1.31c4.84.47 7.52 3.71 9.85 7.41.86 1.36 1.07 2.86-1.19 2.87-3.39 0-2.42 2-1.79 3.73 1.33 3.7.29 5.36-3.59 4.73-4.18-.67-8.24-2.08-12.38-3-1.49-.34-3.27-.77-4.53-.23-.64.27-.3 2.6-.64 3.94a10.53 10.53 0 0 1-1.37 3c-.64 1-1.76 1.86-2.19 3-1.12 2.9 0 4.36 3.09 3.63 6.83-1.61 13.6-3.5 20.4-5.29a33.52 33.52 0 0 1 4.35-1.13c3-.36 5-1.31 5.21-4.81.06-.94 2.25-2.68 2.52-2.51 2.61 1.6 5 3.53 7.5 5.37-.71.67-1.31 1.61-2.15 2-1.68.68-3.6.81-5.23 1.58-2.42 1.14-3.5 3.14-1.91 5.67 1.95 3.1.23 4.69-2.37 5.4a95.15 95.15 0 0 1-9.54 1.69l-3.16.58-.21 1.26c1.82.65 3.65 1.26 5.44 2 2.12.84 4.15 2 6.31 2.61 5.51 1.68 11 3.34 16.62 4.64 2.78.65 5.49.57 5.77 4.51.07 1 2 1.91 3.18 2.64a76 76 0 0 0 6.85 3.76c4.16 2 8.39 3.79 12.61 5.64a39.59 39.59 0 0 1 4.77 2c.95.57 1.51 1.77 2.24 2.69-1 .72-1.89 1.91-3 2.08a50 50 0 0 1-7.25.32c-5 .06-5.79 1.11-4.31 5.8a37.82 37.82 0 0 1 1.21 5.41c.83 5.15-.64 6.82-5.7 7.72-1.48.27-3.58 1.76-3.9 3.06-1.26 5.1-2.12 10.12.22 15.5 1.51 3.48 1.06 7.81 1.56 12.31l6.26-6.74c-1.72 2.72-3.19 5.68-5.32 8-.67.75-3.43.44-4.71-.3q-17.64-10.25-35.06-20.88c-4.54-2.78-6.26-2.52-8.63 2.21-1.19 2.37-2.55 4.65-3.67 7.05s-2.93 3.27-5.61 2.62a60.22 60.22 0 0 0-6.17-.85c1.78-.57 3.73-1.91 5.31-1.55 3.48.77 4.57-1.09 5.55-3.63l1.52-3.82 4.58-5.07c1.68-1.92 3.13-1.8 5.35-.4l35.27 21.69c.13.08.42-.09 1.09-.26a22 22 0 0 0-.32-3.85c-.65-2.57-1.7-5-2.28-7.63-1.64-7.41-3.36-14.81-4.6-22.3-1.55-9.41-5.5-18-8.81-26.79a33.72 33.72 0 0 0-5.68-9c-2-2.47-7.31-2.21-8.94.26a32.53 32.53 0 0 0-3.77 7.32c-.46 1.34.14 3.14.59 4.64.11.33 1.61.5 2.39.34 3.5-.73 5.59 1.26 5.2 5.11-4.24.37-4.42.67-3.16 4.9.33 1.11.48 2.27.64 3.05-3.54-1-6.7-2-9.94-2.56-.75-.13-2.44 1.25-2.57 2.11-.42 2.83-.21 5.75-.46 8.61a89 89 0 0 1-1.41 11.2c-.66 3-2.07 5.76-3.14 8.63-.92.78-2.24 1.37-2.69 2.35-1.4 3.06-3.75 2.83-6.1 1.9a10.16 10.16 0 0 1-3.78-2.88l-17.49-21.41c-2.43-3.15-4.09-6.89-6.1-10.37 1.36 1.15 2.79 2.23 4.06 3.47 2.53 2.48 4.88 5.15 7.49 7.53a3.54 3.54 0 0 0 3.09.57c2.73-1.19 3.77-6.86 2.22-9.35a104.64 104.64 0 0 1-6.63-11.87c-1.25-2.77-2.42-6-2.22-8.93.73-10.58-3.76-18-13.85-21.43-2.1-.72-4.61-.8-4.91 2-.36 3.52-.77 7.4.32 10.63 2.68 7.94 6.22 15.59 9.36 23.39a29.59 29.59 0 0 1 1 3.89 11 11 0 0 1-2.17-2.56l-10.09-24.17c-.66-1.52-2-2.77-3-4.14a48.56 48.56 0 0 0-2.5 5.26 4.28 4.28 0 0 0 .42 2.69c1.61 3.93 3.47 7.77 4.94 11.75a19.45 19.45 0 0 1 1.27 6.68c0 3.71 1.73 6.12 4.17 8.64a88.82 88.82 0 0 1 8.62 10.68c.7 1 .27 2.76.36 4.17l-4.55-.76a58.15 58.15 0 0 0-6.91-1c-.45 0-1.57 1.82-1.35 2.41.6 1.57 1.43 3.49 2.75 4.26 4.65 2.74 9.51 5.14 14.37 7.51 5.79 2.82 11.66 5.46 17.5 8.19.44 5.62 1.14 11.24 1.26 16.87.15 7.82.21 15.68-.32 23.47-.75 11-2 22.06-3.18 33.06-1 9.25-3.08 18.34-7.84 26.38a109.77 109.77 0 0 1-22.61 26.79c-4.83 4.22-8.82 7.45-15.57 3.46-3.74-2.22-8.55-2.59-12.83-4a10.73 10.73 0 0 1-2.67-1.88l16.21 2.08c.71.1 1.28 1.13 2 1.25 1.84.32 4.27 1.18 5.51.37 3.54-2.3 6.6-5.33 9.85-8.07a76.25 76.25 0 0 0 17.68-22.27c2.36-4.35 3.42-9.41 5.06-14.15.11-.32 0-.75.12-1 4.39-8.28 4-17.65 5.21-26.49 1.62-11.78 1.26-23.86 1.44-35.81.06-4-1-8-4.74-10.46a19.28 19.28 0 0 0-3.89-1.56 22.46 22.46 0 0 1-.14 3.39c-.25 1.36-.38 3.18-1.28 3.86s-2.75.53-4.08.26c-1.65-.33-3.16-1.46-4.81-1.72-4.55-.72-5.57.35-6.09 5-.63 5.58-.43 11.56-2.52 16.57-2.75 6.6-3.11 13.33-2.95 20a59.68 59.68 0 0 1-1.89 16.62c-.56 2.2.46 4.78.61 7.19.22 3.69.4 7.38.39 11.07a3.69 3.69 0 0 1-1.3 2.6c-2.68 2-3.47 4.67-3.47 7.88 0 6.48-2.47 8.86-8.61 7-10.25-3.16-18.89-8.38-21.45-20.2-.55-2.52-2.88-5-5-6.78-6.33-5.27-10.7-12.13-14.52-19.06-4.44-8.05-10.18-15.55-11.73-25.16-1.57-9.78-4.06-19.41-6.22-29.1a23.79 23.79 0 0 0-1.56-3.75l-1.21.11c-.6 2-1.13 4.11-1.83 6.11a19.58 19.58 0 0 1-1.51 2.86 16.79 16.79 0 0 1-2.75-2.24c-.87-1.05-1.32-2.44-2.16-3.53a2.56 2.56 0 0 0-2-1 2.15 2.15 0 0 0-1.2 1.75c.34 3.31.34 6.8 1.49 9.84 3.19 8.41 7.07 16.55 10.29 25 1.06 2.77 1.74 6-.41 8.95-2.39 3.29-5.52 3.47-7.25-.23a31.47 31.47 0 0 1-2.19-9.33 80.1 80.1 0 0 1-.07-9.22c-1.37.43-2 .45-2.38.78-2.36 2.23-4.07 1.31-6.2-.62a9.22 9.22 0 0 0-5.63-2.26c-3.33 0-4.86-.63-4.39-3.87 1-6.66 2.88-13 7.54-18.24 1.25-1.4 1.82-3.45 2.47-5.28.11-.29-1.39-1.51-1.47-1.45A26.71 26.71 0 0 0 365 507c-1.71 2.17-3.08 4.59-4.59 6.91-1.25 1.93-2.72 2.08-4.72 1-5-2.82-7.35-2-9.54 3.45-.91 2.25-1.93 4.18-4.64 4.6a3.09 3.09 0 0 0-1.68 1.1l-19.78 23.72a17.11 17.11 0 0 1-4.58 3.65q-8.6 4.86-10.08-4.77c-.59-3.86-.68-7.81-1.44-11.63-1.14-5.72-2.89-11.33-4-17.06-.74-3.91-.64-8-1.27-11.91a3.85 3.85 0 0 0-2.59-2.48c-4.29-.71-5.35-3.74-3.57-7.86 3.46-8 6.82-16.06 6.43-25.05a10.69 10.69 0 0 0-.41-2.38c-1.23-4.39-2.41-8.8-3.83-13.13a7.08 7.08 0 0 0-2.42-3.42c-.37-.27-2.1 1-2.94 1.83-2.39 2.34-4.73 4.75-6.91 7.29-.86 1-1.14 2.46-1.87 3.6-1.27 2-2.76 3.81-4 5.79a15 15 0 0 0-1.21 3.07l-4.14 12a96 96 0 0 1 2.18-9.56c1.57-4.79.92-5.69-4-6.58-7.06-1.3-13.47 1.06-19.87 3.11-8.2 2.64-16.44 1.19-24.67 1-.57 0-1.13-.7-1.69-1.07l8.47.52c13.58.67 25.9-3.53 37.63-9.86.75-.4 1.19-1.37 2.05-2.44a7.47 7.47 0 0 0-1.95-.37c-8 1.69-15.89 3.91-23.95 5-5.23.68-10.7-.17-16-.71-.9-.09-1.78-2-2.36-3.2-1.42-2.94-2.4-6.12-4.06-8.91-.94-1.59-1.58-2.64-1-4.65a5.92 5.92 0 0 0-1-5c-3.93-3.91-2.91-8.3.08-12.2A66.3 66.3 0 0 1 240 413.79c3.4-2 6.51-4.54 10.19-7.15-1.16-.47-1.75-1-2.17-.84-5.37 1.57-11 2.64-16 5.05-4.35 2.11-8.06 5.63-11.87 8.76-4.53 3.72-9 7.55-11.29 13.27-1 2.42-2.93 4.48-3.69 6.93-1.63 5.33-7.13 9.29-4.41 16.36a13.77 13.77 0 0 0 5.44 7.24 91.81 91.81 0 0 1 7.34 6.06 12.77 12.77 0 0 1-3.21-.77c-3.36-1.81-6.62-3.8-9.93-5.69-2.13-1.22-3.13-2.74-2.55-5.41.7-3.14-.37-4-3.62-3.16-7.47 2-14.82 4.54-22.37 6.21-14 3.11-28.17 5.45-42.6 4-6.64-.69-13.42-1.37-19.74-3.34-7.72-2.4-14.37-7.11-20.8-12.14-4.94-3.87-6.23-8.54-7-14.47-1.72-12.9.47-24.9 5.28-36.64 1.83-4.48 3.88-8.87 5.85-13.29 3.88-8.66 10.9-14.09 18.92-18.55 2.66-1.48 5.15-3.28 7.72-4.94l-.12-1.17c-3.19-.42-6.38-1-9.58-1.22a43.23 43.23 0 0 1-17.87-5 23.11 23.11 0 0 1-11-13.29c-1.48-4.34-2.43-8.86-3.55-13.32-.58-2.35-.69-4.87-1.58-7.08-2-5.06-.62-9.48 2.52-13.24 8-9.54 18-16.33 29.12-21.89 12-6 25-5.83 37.8-7.33a368.36 368.36 0 0 1 46.37-2.21 24.24 24.24 0 0 0 4.83-.94l.25-1.12c-2.47-1.8-4.82-3.78-7.42-5.34a148.1 148.1 0 0 1-30.13-24A116.13 116.13 0 0 1 141.38 220c-3.21-5.72-5.68-11.87-8.36-17.87a15.43 15.43 0 0 1-.69-3.7l12.24 22A87.77 87.77 0 0 0 162.94 244c5.83 5.17 11.31 10.78 17.43 15.58 2 1.62 5.65 2 8.45 1.73s1.76-2.7.86-4.38c-2.38-4.47-5.51-8.67-7.12-13.39-3.46-10.15-13.06-15.38-18.2-24.06a59.09 59.09 0 0 1-3-6.41c-.32-.74-.3-1.68-.75-2.29-3.62-4.78-2.58-10.33-2.74-15.69-.07-2.27-.22-4.54-.33-6.8 4.85-.16 4.8-.15 3.33-4.83a31.5 31.5 0 0 1-1.82-7.35c-.08-1.58 1.14-3.23 1.78-4.84 1.32.57 3 .81 3.88 1.8 1.89 2.26 3.27 4.95 5 7.34 1.28 1.74 2.83 3.28 4.23 4.94s2.52 3.55 4.12 4.94c1.35 1.17 3.2 1.76 4.83 2.6-6.17 1.68-12.29 3.39-17.29 7.78-1.3 1.14-2 1.79-.65 3.19.6 2.82-1.87 7.3 3.94 7.31l.15.28 1 1.83.93 1.19 3.43 4.94a54.67 54.67 0 0 0 3.75 5.87c3.05 3.7 6.32 7.21 9.5 10.8a53.36 53.36 0 0 0 3.63 4.89c3 3.2 6.16 6.19 9.07 9.44a4.45 4.45 0 0 1 .8 3.38c-.34 1.72-2.21 3.72-1.73 4.91.88 2.18 3 3.86 4.61 5.75a18.75 18.75 0 0 0 1.78 3.72l17.81 22.5c1.84 2.21 4.55 3.69 6.86 5.5 1.62 2.49 4.2 3.28 6.26 1.29 6.16-5.94 13.91-8.8 21.59-11.89 5.55-2.22 8-10.12 4.84-15.29-.3-.49-.68-.93-1-1.44-3.11-5.8-3.17-5.87-7.89-1.08-3.44 3.5-7.33 5.64-12.34 5-5.36-.71-10.77-1.27-16-2.48-2.37-.54-5.21-1.8-4.84-5.37.28-2.67 3.64-5.79 6.88-5.89a119.19 119.19 0 0 1 12.82.2c4.45.34 12.19-3.3 14.27-7.12 1.85-3.39-1.38-10.05-5-11.3-8-2.77-16.24-3.27-24.56-3.48a15.49 15.49 0 0 1-4.41-.83c-3.72-1.2-4.45-5.15-1.74-8 5.62-5.85 12.33-5.46 18.36-2.27 2.94 1.56 5.76 3.36 9.22 5.39v-2.69c0-1 .12-2 .19-3.08a12.05 12.05 0 0 1 3.58.73c1 .56 1.67 1.73 3.27 3.51a47.46 47.46 0 0 1 .48-6.27 14.91 14.91 0 0 1 1.8-3.44 18.46 18.46 0 0 1 3.29 2c4.17 3.87 8.31 7.77 12.31 11.81a52.42 52.42 0 0 1 4.2 5.44c-2.95 1.88-5.81 3.9-8.86 5.59a4.1 4.1 0 0 0-2.37 4.79c1.68 8.75 1.76 17.78 5.25 26.14zm-8.18 33.49l2.3 4.36c2.38 7.26 7.32 12.7 12.8 17.69 1.37 1.25 2.06.18 2.61-1.32a68.14 68.14 0 0 1 3.77-8.68c1.73-3.25 4-6.23 5.65-9.49.6-1.17.37-2.84.24-4.25 0-.27-1.35-.66-2-.6l-19.6 1.65-4-.91-2.67-2.56-1 .81zm196.76 83.28c-4.91 3.21-4.94 3.23-1.57 8.31 2.79 4.2 4.74 8.62 4.43 13.82a14.85 14.85 0 0 0 .62 3.33c3.15-1.59 5.69-3.17 8.44-4.21 6.29-2.38 6.88-3.38 4.64-9.58a20.61 20.61 0 0 1-1.19-2.86 8 8 0 0 1-.08-3.61 74.48 74.48 0 0 1 3.22-9.59c1.06-2.42 0-3.11-2-3.58 1.71-1.07 3.48-2.06 5.11-3.25a23.91 23.91 0 0 0 2.68-2.61c-2.87-.28-5.07-.4-7.23-.75-1.24-.2-2.43-1.14-3.61-1.09s-3.29.56-3.69 1.44c-2.21 4.94-5.88 8.53-10 11.7-1.61 1.21-.71 1.77.23 2.53zm-159.73 40.78c-.07 5.78 3.8 9.66 6.89 13.85.46.63 2.15.67 3.19.5a61.43 61.43 0 0 0 8-1.8c6.34-2 12.73-3.84 18.89-6.28 3.05-1.21 4.9-3.78 4.75-7.68-.1-2.71 1-5.49 1.71-8.18 1.49-5.3 3.36-10.5 4.56-15.86.48-2.16-.37-4.62-.67-7.49-1.12 5.8-1.83 10.85-3.17 15.73-.51 1.87-2.45 3.35-3.74 5a27.93 27.93 0 0 1 1.69-4.36 16.65 16.65 0 0 0 1.81-13.32c-1.24-4.4-4.39-6.6-9.05-6.47-.21 0-.42-.17-.64-.23-6.82-1.92-13-1-18 4.34-5.43 5.79-7.74 12.87-8 20.72-.11 3 1.47 4.61 3.94 5.87a52.71 52.71 0 0 1 6.18 3.68c2.7 1.88 5.69 3.3 8.68 1.66 2.54-1.39 4.53-3.78 6.74-5.76l6.63-6.08c-.55 1.26-.81 2.78-1.69 3.73-3.93 4.2-7.69 8.69-12.18 12.22-6.21 4.89-14.48 4-19.94-1.35a3.37 3.37 0 0 1-.93-1.79c-1-7.36-1.79-14.71 1.48-21.81a38.88 38.88 0 0 0 1.52-4.95l-1.32-.89a19.87 19.87 0 0 0-.79 1.92c-1.05 3.47-3.48 5.14-6.92 6.05-1.16.3-2 2-2.86 3.14a23.6 23.6 0 0 0-1.6 2.88c-.09-1.9-.53-3.87-.18-5.69.61-3.25-.83-5.68-4.11-6.14-1.36-.2-2.7-.49-4.05-.74a115.38 115.38 0 0 0-11.42-2.05 53.51 53.51 0 0 0-12.46.08c-4.37.66-9 1.58-12.75 3.8s-6.78 6.21-10 9.56c-2 2.1-1.1 3.9 1.33 4.81a41.21 41.21 0 0 0 8.25 2.49c3.79.58 5.56 2.84 7.32 6 2.38 4.25 4.86 8.93 10.05 10.39 9.45 2.67 18.31 1.19 26.18-4.86 2.18-1.68 2.56-3.85 1.86-6.79s-.09-6.29-.05-9.46l2 3.3zm73.62-6.83a48.58 48.58 0 0 1-1.31-4.68 41.87 41.87 0 0 1-.35-4.63l-.94-.07c-.2 7.3-3.85 12.69-8.93 17.41a3 3 0 0 0 .06 2.92c2.86 3.11 5.62 6.48 9.05 8.86a133.44 133.44 0 0 0 16.43 9.52 8 8 0 0 0 5.94-.14 98.25 98.25 0 0 0 9.93-5.37c-.3 2.86-1.8 4.53-4.61 5.4a4.76 4.76 0 0 0-2.85 2.63 37.3 37.3 0 0 0-1.57 8.81 127.05 127.05 0 0 0 .05 17.67 61.34 61.34 0 0 0 3.47 13.6c.83 2.42 2.38 4.6 5.56 5.08 1.18.18 2.1 2 3.16 3a48.45 48.45 0 0 0 5.12 4.72c2.05 1.46 4.43 2.47 6.61 3.76 2.6 1.54 4.14.89 4.48-2.13.76-6.62 1.11-13.31 2.23-19.86s2.31-13.25 4.74-19.38a31.15 31.15 0 0 0 2.2-9.5c.13-1.62.61-3.78 1.74-4.64 4.63-3.52 4.49-8.17 4-13.14-.41-4.28-.49-8.59-.86-12.87a3 3 0 0 0-1.2-2.19 63.21 63.21 0 0 0-8.7-3.05q-6.35-1.6-12.82-2.62c-2.13-.34-4.72-1.26-6 1.73-4.4-1.1-4.9-.76-5.6 3.71-.63 4-.92 8.06-2 11.89-2 6.8-9 10.54-14 7.33A19.06 19.06 0 0 1 376.8 438c2.73 2.08 5.24 4.57 8.24 6.13 5.3 2.75 13.09-.14 13.6-5.06.61-5.92 1.49-12.21-1.44-17.69-1.9-3.57-2.95-8.39-8.45-9.08-1.79-.22-4.32-1.16-2.82-4.28.11-.23-1.31-1.67-2.13-1.8a8.4 8.4 0 0 0-9.53 6.68c-.94 4.57-1.18 9.29-1.72 13.96zm-186.47 26l-.38-.87h-13.47l-30.76.43c-1 0-3-1.06-3-1.57.19-5-3.53-7.55-6.44-10.6s-3.23-6.51-1.15-10.43c.62-1.17.23-2.88.25-4.35 0-1.13-.54-2.76 0-3.33 2.72-2.78 5.5-5.53 9.77-6.06a18.65 18.65 0 0 0 5.84-2 3.54 3.54 0 0 0 1.6-5.32c-2.32-3.56-1.27-6.89.12-10.14 1.11-2.62-.21-3-2.07-2.79-2.41.22-4.77.88-7.17 1.17-.85.1-2.5-.28-2.54-.59-.41-3.34-3.26-6.28-1.48-10 .41-.87-.09-2.55-.73-3.46-2.41-3.46-2.72-5.31.52-8.27 4.14-3.78 8.4-7.86 13.37-10.21 7.67-3.63 16-5.85 24-8.78a13.55 13.55 0 0 1 10.11.42 53.21 53.21 0 0 0 21.59 4.16c3.22-.12 5-1.59 6-4.67a7 7 0 0 1 3.46-3.66c2.93-1.29 6.24-1.71 9.19-3 4.91-2.1 10.5-3.42 12.83-9.14a7.82 7.82 0 0 0 .12-2.53 9 9 0 0 0-2.27.05c-3 .81-5.92 2-9 2.54a122.49 122.49 0 0 1-15.34 2.14c-6.9.38-13.83.21-20.74.13-2.11 0-3.78-.95-3.92-3.5-.22-3.9-.52-7.8-.87-11.68-.55-6.14 2.69-10.62 8.45-12.57 3.91-1.32 8.14-2.71 11.19-5.29 4.17-3.55 8.18-6.9 13.59-8.3.93-.24 1.6-1.45 2.39-2.2a12 12 0 0 0-2.16-2.06c-6.34-3.6-13.62-3.78-20.44-4.1-7.1-.33-14.32 1.74-21.47 2.89-2.14.34-4.2 1.25-6.34 1.56-.67.09-2.21-1.07-2.15-1.48.5-3.34 1.27-6.64 2-9.95.32-1.45 1.15-2.92 1-4.29-.11-1-1.37-2.62-2.22-2.69a58 58 0 0 0-10 .07c-6.84.64-13.66 2-20.5 2.17a64.53 64.53 0 0 0-19.23 3.68c-4.43 1.47-8.47 4.09-12.85 5.76-5.56 2.13-10.8 4.59-15 9-3.43 3.58-7.12 6.92-10.47 10.58s-2.78 10.14 1.39 12.7c6.65 4.09 13.62 7.71 20.63 11.15 3 1.49 6.47 2.17 9.79 3 .76.18 1.76-.65 2.65-1-.48-.85-.92-1.73-1.47-2.54s-1.21-1.54-1.82-2.31c.92-.59 1.77-1.54 2.76-1.73 6.8-1.27 12.72-4.32 18.57-7.93 2.49-1.53 6.16-1.26 9.32-1.49.5 0 1.69 1.76 1.57 2.57a22.1 22.1 0 0 1-1.91 7.33c-2.26 4.22-1.39 6.34 3.94 9.2 4 2.13 7.92 4.31 11.81 6.58 2.36 1.38 2.33 2.71-.26 3.85a14.25 14.25 0 0 1-5.95 1.4c-8.51-.27-17-.66-25.5-1.37a65.54 65.54 0 0 1-11.1-2.3 87.26 87.26 0 0 1-9.86-3.21c-3.09-1.22-6.39-2.36-8.95-4.36-2.25-1.75-4.35-2.93-7.13-2.71-1.27.1-3.32.24-3.59.93a5.68 5.68 0 0 0 .16 4.53c5.56 8.39 12.52 14.51 23.48 14.43 4.79 0 9.6.85 14.39 1.4a10.69 10.69 0 0 1 2.62 1.28c-1.35 1.41-2.25 2.77-3.5 3.58-4.56 2.94-9.44 5.41-13.79 8.62a32.63 32.63 0 0 0-8.4 8.5c-3.33 5.35-5.73 11.28-8.55 17a63.19 63.19 0 0 0-7 28.51 41.65 41.65 0 0 0 1.85 10.48c.29 1.09 1.94 2.6 2.91 2.56 3.37-.12 3.27 1.84 3.53 4.23s.53 5.19 2 6.5c3.61 3.26 7.57 6.6 12 8.38a77.73 77.73 0 0 0 30.35 5.69c6.77-.1 13.53-.95 20.3-1.47a3.84 3.84 0 0 0 .68-.09l26-6.86a13 13 0 0 0 2.85-1.86zm142.3 26.56h-.61a49.61 49.61 0 0 0 .56 7.93c.27 1.21 2.42 3.19 2.82 3 4.1-2 4.71 1.12 5.82 3.61.38.84.69 1.72 1.12 2.54 1.51 2.88 2.9 3.09 4.78.53 1.14-1.56 1.7-3.58 2.91-5.06 5-6.08 8.61-13.45 15.76-17.61 1.57-.91 3.16-2.25 4.84-2.43 4.47-.47 7.3-3.22 10-6.24a7.75 7.75 0 0 0-.89-11.68c-3-2.38-6.54-4.23-9.16-7A159.86 159.86 0 0 1 355 433.32c-2.06-2.71-3-2.86-5.25-.23-1.5 1.73-3.24 3.26-4.88 4.87-5.67 5.54-13.85 5.84-20.39 9.75-4.92 2.94-5.55 3-2.71 8.11.55 1 1.5 1.76 2.11 2.72 1.28 2 3.19 4 3.53 6.16.76 4.86.7 9.84.97 14.76zM262.54 334l.11.46c2.26-.59 5.64-.53 6.46-1.95s-.78-4.37-1.38-6.63c-.08-.29-.51-.48-.67-.77-3.62-6.59-8.95-12.44-8.52-20.73.14-2.76-1.66-3.41-3.94-2.54-4.62 1.77-9.48 3.18-13.69 5.67-7.47 4.42-15.82 5.2-24 6.95-5 1.09-10.45 1.28-12.1 7.73-.32 1.28-1.42 2.35-2.13 3.54-1.32 2.21.3 11.6 2.38 13a4.94 4.94 0 0 0 3 .64c3.41-.33 6.83-.72 10.2-1.34 5.18-.95 10.51-1.57 15.43-3.31 5.14-1.82 9.93-4.7 14.78-7.29s6.71-1.88 7.27 3.57c.23 2.21 1.26 3.07 3.33 3h3.47zm1.51 53.72c1.17-.9 2-1.62 2.84-2.18 4.75-3 9.57-6 12.52-11 .62-1.06.63-2.47.92-3.73-1.17.37-2.62.42-3.45 1.16-7 6.25-15.13 10.85-24.48 11.05-11.6.24-14.66.68-16.89-8.43-.78-3.2-1.38-7-.38-9.94.93-2.78 3.82-5.13 6.3-7.11 4.33-3.48 9.07-6.44 13.5-9.8 3.8-2.88 7.39-6 11.08-9.06-.06-.07-.19-.35-.36-.38a16.28 16.28 0 0 0-2.4-.25c-5.95-.1-11.26 1.56-16.68 4.28-4.73 2.38-8.26 5.67-11.79 9.25-7.25 7.37-9.07 17.2-11.94 26.54-.75 2.43.48 4.08 2.51 5.1 4.64 2.32 9.12 5.37 14.05 6.57 9.25 2.24 18.75 3.52 28.19 4.88 2.3.33 4.78-.61 7.18-1l.28-1.63zm80.78 3.42a17.08 17.08 0 0 0 .67 2.29 31.37 31.37 0 0 1 3.21 19.29c-.82 5.42 2.14 8.09 6.11 10.38 2.87 1.66 5 1.17 6.84-1.55 2.66-4 4.91-8.16 8.71-11.41 3.42-2.94 2.63-5.09-1.48-6.81-3-1.27-6.85-2-8.82-4.3-4.02-4.68-9.14-6.23-15.24-7.91zm45.4 6.67c1.68 2.69 3.73 4.71 4.23 7 1.15 5.44 4.91 8.4 9.11 11a4.8 4.8 0 0 0 4.09.12c5.51-3 11.28-5.92 13.68-12.4.8-2.17 1.42-4.4 2.12-6.6-2.28-.37-4.6-1.18-6.86-1-6.63.42-13.23 1.26-19.85 1.83-2.15.18-4.32.03-6.52.03zm-58.51-18.11c.79 2.46 1.33 5.21 2.53 7.63 1.57 3.19 8.14 4.74 8.68 2.37 1.14-5.06 5.22-7.29 8.72-9.85 3.12-2.29 3.76-7.19 1.36-9.8a47.9 47.9 0 0 0-9.15-7.66c-2.31-1.48-4.45-.9-6.84 1.57-4.39 4.55-3.25 10.31-5.3 15.74zm127.37 32.16l-.58-.08a7.56 7.56 0 0 0-.61 1.07c-1.68 4-3.17 8.16-5 12.09s-4.47 4.52-7.4 2.27c-5.18-4-10.45-7.82-15.47-12-2.14-1.77-3.35-1.3-4.77.64-1.14 1.57-2.42 3.06-3.7 4.53-.84 1-1.81 1.81-2.72 2.71a29.92 29.92 0 0 0 3.26 2.39 11.63 11.63 0 0 0 3 .94l22.79 5.7c2.74.68 5.13-.25 6.18-2.61 2-4.48 3.52-9.19 5.06-13.86.29-1.13-.04-2.51-.04-3.79zm-147.16-44.48l16.17-3.66c2.37-.57 3.14-2.38 2.51-4.55a58.51 58.51 0 0 0-2.84-7.79 3.34 3.34 0 0 0-5.47-1.22q-6.36 6.06-12.34 12.51a4 4 0 0 0-.66 3.39c.25.71 1.84.94 2.63 1.32zm137.64 51.34l-.64-.25v-.69c.08-8.21-2.17-14.93-11.14-17.28-1.14-.3-2.33-.43-3.49-.64-.12 1.33-.73 2.87-.26 4a184.28 184.28 0 0 0 7.96 16.79c.94 1.7 3.55 2.48 5.39 3.69l2.18-5.62zm-20.34-27.24a24.63 24.63 0 0 0 2-2.66c2.12-3.75 5.09-4 8.87-2.72 1.53.51 3.43 2.7 5.2.16 1.17-1.69 2.4-3.35 3.46-5.11a14.91 14.91 0 0 0 .76-2.64c1.21-3.5.3-4.72-3.43-4.37a9.22 9.22 0 0 0-3.26 1l-12.46 6.61c-4.19 2.13-4.89 5.34-1.14 9.73zm66-4.11l-5.57 3.2c1.14 1.85 1.85 4.46 3.5 5.38a71.17 71.17 0 0 0 13.21 5.62c3.32 1.05 4.78-.95 3.67-4.29-1.45-4.47-8.79-9.15-14.78-9.91zm-158.89-38a30.19 30.19 0 0 0 .48 5.81c.21.82 1.81 2 2.54 1.87 7.07-1.47 10.48-10.81 6.38-17-1.63-2.45-3.46-2.69-5.79-1-3.57 2.71-3.58 6.5-3.58 10.36z" class="G"/><path d="M213.57 469.47a91.81 91.81 0 0 0-7.34-6.06 13.77 13.77 0 0 1-5.44-7.24c-2.72-7.07 2.78-11 4.41-16.36.76-2.45 2.72-4.51 3.69-6.93 2.3-5.72 6.76-9.55 11.29-13.27 3.81-3.13 7.52-6.65 11.87-8.76 5-2.41 10.61-3.48 16-5.05.42-.12 1 .37 2.17.84-3.68 2.61-6.79 5.11-10.19 7.15a66.3 66.3 0 0 0-18.92 16.55c-3 3.9-4 8.29-.08 12.2a5.92 5.92 0 0 1 1 5c-.55 2 .09 3.06 1 4.65 1.66 2.79 2.64 6 4.06 8.91.58 1.21 1.46 3.11 2.36 3.2 5.32.54 10.79 1.39 16 .71 8.06-1.05 16-3.27 23.95-5a7.47 7.47 0 0 1 1.95.37c-.86 1.07-1.3 2-2.05 2.44-11.73 6.33-24 10.53-37.63 9.86l-8.47-.52-1.47.1c-1.56-2.72-4.23-2.74-6.87-2.84z" class="E"/><g class="G"><path d="M271.12 486.67c1.78 5.07-1.5 9.36-2.32 14-2.43 13.82-4.71 27.6-2.65 41.63a51.12 51.12 0 0 0 12.76 26.7 13.11 13.11 0 0 1 2.26 2.61c2.24 4.79 6.43 4.58 10.39 3.68 11-2.49 21.5-6.59 30.33-13.68 6-4.86 13.06-8.65 17.69-15.29 1.58-2.25 4.33-3.76 6.74-5.32 2.24-1.46 4.6-.45 5.41 2.09 1.4 4.38 3 8.72 4 13.2.39 1.8-.67 3.92-1.08 5.9-1.22-4.77-2.29-9.6-3.73-14.3s-2.83-4.85-6.45-1.8c-7.31 6.15-14.31 12.81-22.27 18a99.52 99.52 0 0 1-27.54 12.67c-7.4 2.07-12.18.84-16.69-5-7.09-9.25-12.57-19.14-13.44-31-1.2-16.26.78-32.29 4.15-48.16.4-2.05 1.6-3.95 2.44-5.93zM250.38 75c-3.86 14-3.2 27.86.9 41.62 1.89 6.35 4.48 12.5 6.31 18.87a86.23 86.23 0 0 1 2.4 13.19c.35 2.79-1.71 4.23-3.8 2.47-3.76-3.16-8.53-3.63-12.57-5.82-1.06-.57-1.51-2.18-2.36-3.21a6.26 6.26 0 0 0-2.11-1.84l-20-8.56c1.32 0 2.79-.28 3.93.19 9.77 4 20.16 6.75 28.87 13.13a4.07 4.07 0 0 0 1.51.82c1 .17 2.28.52 2.9.06s.63-1.9.39-2.77c-1.44-5.34-3.35-10.57-4.49-16-2.19-10.35-4.66-20.73-5.67-31.23-.58-6.12 1.38-12.5 2.31-18.75.15-.73.98-1.41 1.48-2.17zm112.19 11a9.72 9.72 0 0 1-2.22-.85c-5.4-3.71-11.6-4.57-17.89-5.45-3.82-.54-8.26 0-10.75-4.17 4.65 1.06 9.34 1.94 13.92 3.23 4.82 1.35 9.57 3 14.27 4.71 1.1.37 1.79 1.64 2.67 2.53zm-95.79-25.79c-.8 1-1.38 2.56-2.43 3a29 29 0 0 0-13.87 11.6c1.12-2.19 1.71-5 3.46-6.41 3.98-3.11 8.52-5.51 12.84-8.19z"/><path d="M287.77 57.22l-14.84.9a10.68 10.68 0 0 0-2.17.82L267 60.06c1.74-1 3.43-2.82 5.22-2.94 5.16-.33 10.36.02 15.55.1zM130.38 157.88l.36 32.84c-.57-6.17-1.48-12.34-1.61-18.51-.13-4.77.79-9.56 1.25-14.33zm78.26-28.37l-17.31-1.3c.34-.29.72-.85 1-.81l16.31 2.11zm122.83-54.09l-13.57-8.29c5.53 1.12 9.89 4.16 13.57 8.29zm43.8 22.9l-11.74-11.54c5.18 2.56 8.8 6.71 11.74 11.54zM214.9 469.42c2.64.1 5.31.12 6.87 2.84-2.77.14-5.33-.08-6.87-2.84zm92.99-406.56L302 61.58l-.94-.3-4.13-2.34zM385 89.42l-5.36 10.34c.67-4.01 1.36-8.04 5.36-10.34zM317.55 67l-9.4-4z"/></g><path d="M296.9 58.94l4.1 2.35-8.37-2.06 2.73-.57z" class="E"/><g class="G"><path d="M295.39 58.66l-2.73.57-1.38-.72-2-1.12zm-79.82 72.26l-5.46-1.15zm-34.79-1.12l-4.78 1.11zm198.73-29.75c-1.68 2-2.59.72-3.44-.8zM185.7 128.49l-3.43 1.07zm-54.47 65.77l.93 3.44zm39.32-61.52l-2.75 1.12zm2.8-1.34l-2.13 1zm44.85.34l-1.13-.36zm349.53 363.15l.29-2-.29 2zM375.85 99l-.43-.49zm190.43 402.7a.59.59 0 0 1 .29-.55z"/><path d="M565.78 502.55l.31-.58c-.09.2-.2.39-.31.58zM363.28 86.66a.57.57 0 0 1-.48-.4.53.53 0 0 1 .48.4z"/></g><path d="M387.1 229.43c-2.63-3.1-5.85-4.7-10-4.05-.53.09-1.46 0-1.63-.35-1.34-2.68-2.94-5.33-3.61-8.19-.29-1.2 1.12-3.31 2.34-4.27 3.89-3 8.14-5.66 12.07-8.67a8.28 8.28 0 0 0 2.43-3.82 61.39 61.39 0 0 0 2.16-8.33 11.2 11.2 0 0 0-.41-3.44c-1 .33-2.38.35-3 1-2.9 3.07-5.64 6.3-8.37 9.53-1.22 1.46-2.26 3.07-3.38 4.61l-1.12-.94-2.17-8.61h-1l-5.65 8c-2.1 3.06-4.58 4.9-8.46 3.18a2.73 2.73 0 0 0-1.7-.22c-4.42 1.33-7.28-.21-9.13-4.41-.31-.7-2.2-1.08-3.3-1-5.53.5-6.7-.66-5.75-6.11 1.68-9.69 5.75-18.49 10.12-27.19.61-1.22 1-2.54 1.5-3.82a53.68 53.68 0 0 1 3.07-4.85 3.31 3.31 0 0 1 2.43-1.34c6.65 1.33 13.5 2.34 18.07 8.24l6 8.34 2.8-5.28A108.76 108.76 0 0 1 404.66 135c6.16-5.87 7.5-4.5 12.16 1 4.34 5.15 4.65 11.64 3.59 18.15a9.16 9.16 0 0 0 .13 4.6l2.61-4.52c2.45-4.15 4.67-8.45 7.41-12.4 2.62-3.8 2.11-7.8 2-12-.14-5.4.22-10.82.41-16.23 0-.23.38-.46 1.35-1.54v22.12l1.27.34c1.93-3.57 4.15-7 5.73-10.73a49.13 49.13 0 0 1 10.08-15.58c3.62-3.68 8.16-4.56 12.93-5a2.4 2.4 0 0 1 1.65.38c5.08 4.19 10.81 7.64 12.52 14.92 3.27 13.86 1.85 26.64-6.5 38.55-3.71 5.31-3.39 11.82-4.42 18.89 6.19-3 11.54-5.34 16.66-8.11s4.85-2.86 8.35 1.5c1.22 1.52 2.68 2.84 4 4.25.53 1.15 1.1 2.29 1.58 3.47a50.71 50.71 0 0 1 2.71 31.56l-3.31 8.38 1.06 1c5.33-3.44 11.28-6.23 15.81-10.52s7.47-10 11.13-15.06l1 .64q-2.68 5.34-5.36 10.69l.68.57c5.28-2.22 10.48-4.64 15.85-6.61 5.62-2.06 11.29-4.56 17.13-5.25 5.37-.63 10.22-2.35 15.29-3.76a13.49 13.49 0 0 1 13.73 3.38 39.82 39.82 0 0 1 11.49 20l-21.14 3.51c-3.64.64-7.27 1.38-10.84 2.33a4.21 4.21 0 0 0-2.26 2.23 37 37 0 0 1-16.07 17.53c-2.52 1.4-5.44 2.72-4.7 6.7.15.85-.94 1.92-1.3 2.62-1.41-1.78-2.77-3.3-3.9-5a14.47 14.47 0 0 1-1.8-3.76c-.52-1.68-1-2.4-2.91-1.29a8.8 8.8 0 0 1-4.06 1.07c-4.72.21-9.44.24-14.17.32-2.08 0-4.29.49-6.21-.06-4.78-1.4-9.43-.56-14 .43a5.64 5.64 0 0 0-3.65 3.26 113.2 113.2 0 0 0-2 11.83l-1.59 3.42c-4.77 2.86-9.41 6-15.29 6.31-.43 0-.8 1.41-1.2 2.17l1.3 4.88c.12 3.35-1.77 4.86-4.86 4.88-3.32 0-1.36-2.69-1.91-4.12l.3-1.36c-.07-1.87.42-4.08-.42-5.49-.6-1-3-.89-4.61-1.27l-2.9.41-3.31.71-1.09.66h-.93v-2.71q1.5-4.35 3-8.68c3.73-.93 6.4 1 8.79 3.41 4.65 4.71 7.61 5.3 13.81 2.58 3.31-1.7 6.72-4 6-7.94-.56-3-3.24-5.61-5-8.4l-1.44.53v7.79c-3.95-.58-7.55-.57-9.31-4.06-1.65-3.25-2.83-6.74-4.21-10.13l2.84-1.5c4.4-.7 8.78-1.75 13.21-2 7-.43 9.23-2.22 10.12-8.27a45.51 45.51 0 0 1-3.67-4.85c-1.29-2.35-2.29-4.87-3.42-7.32-.77-1.66-1.45-3.36-2.35-4.94s-1.66-3.41-3-4.27a100 100 0 0 0-11.23-5.78c-3.74-1.73-6.69.39-6.07 4.45a42.79 42.79 0 0 0 2.46 7.91c1 2.84.42 4.67-2.55 5.09-1.9.27-4-.58-6-.84-2.56-.33-5.13-.6-7.7-.83a17.23 17.23 0 0 0-2.5.16c.4-2.25.86-4.11 1.07-6a36.44 36.44 0 0 1 9.46-20.59c3.47-3.87 7.29-7.23 8.4-12.77.49-2.5.06-3.63-2-4.69a39.51 39.51 0 0 1-4.31-2.72l-6.7-4.69-6.48-4.36c-1-.67-1.94-1.38-2.91-2.07-.34 1.24-1.18 2.6-.93 3.7 1.08 4.62-.85 8.33-3.09 12-.89 1.49-1.79 3-2.58 4.51-1.06 2.06-1.91 4.14-4.71 4.61-.69.12-1.64 2-1.53 3 .62 5.49 1.52 10.95 2.33 16.42q0 4.32.08 8.64l-3.22 2.41c-.79-1.54-1.64-3.06-2.37-4.64-.59-1.25-.82-2.74-1.61-3.84-3.53-4.92-7.38-9.63-10.72-14.68-1.25-1.88-2.48-3.4-4.53-2.57a5.39 5.39 0 0 0-2.66 3.7 28.85 28.85 0 0 0 2.37 16.54 30.93 30.93 0 0 1 1.06 3.08c-5 1.13-5 1.19-3 5q1 6.31 2.08 12.63c-.25.13-.29.31-.13.55l-.56 2.09-4.5.6.09-10.74c-.88-.69-1.91-2.1-2.62-2a59.4 59.4 0 0 0-10.05 2.95c-.69.28-.65 2.39-.95 3.66.19 1.79.44 3.54.68 5.3z" class="F"/><path d="M475.44 259.67c-6.2 2.72-9.16 2.13-13.81-2.58-2.39-2.43-5.06-4.34-8.79-3.41-2.94 0-4.09 1.37-3.53 4.29.28 1.44.35 2.92.52 4.39v2.71l-4.69 6.91c-1.29-3.71-4.41-4.58-9.45-2.52q1.06 2.64 2.14 5.28l-1.07.13-1.76-1.95c-1.22-3.24-3.23-5.3-7-4.72l-1.31-.48c1.29-.46 2.55-1.25 3.86-1.32 2.93-.16 5.89.16 8.83 0a11.59 11.59 0 0 0 3.33-1.22l-1.71-3.41-3.25-5.45a43.8 43.8 0 0 0 5.38 2.91 4.17 4.17 0 0 0 2.84-.52c.1-3.9 3.08-7.73.41-11.69-.71-1.06-1.57-2.94-2.27-2.9-1.25.08-2.58 1.17-3.61 2.12-2.92 2.69-2.94 6.31-2.86 9.92-1.63-1.43-3.31-2.82-4.88-4.32-1.05-1-1.77-2.5-3-3.18a73 73 0 0 0-7.22-3.21c-1.53-.23-3.42-1.1-4.49-.5s-1.52 2.66-1.53 4.1c0 3.41.36 6.83.58 10.24l-7.1-3.75a53.44 53.44 0 0 0-6.62-1c-5.29-.17-6.23.91-5.91 6.28l.66 9.21-1.22-.11-2-.18-1.53-.13-1.6-3.24-1.14-12.64c-.15-2.24-1.29-2.59-3.21-2.45l-14.74.88a7.4 7.4 0 0 0-2.92 1c-3.85 2.19-7.39 2.12-10.66-1.12a13.56 13.56 0 0 0-2-1.33c-2-1.39-3.46-1-5 1-1.09 1.41-2.78 2.35-4.2 3.5l-.56-.63 2.38-5.67-6.89-.2c-1.41-.06-3.33.32-4.09-.44s-.54-2.7-.45-4.1c.12-2 .53-3.9.92-6.53-7.21 1.93-11.36 6.75-16.88 10.59a38.47 38.47 0 0 1 3.78 3c1.68 1.76 3.2 3.67 4.79 5.52l-.62.21c-2.06-1.55-4-3.25-6.21-4.61-1.53-1-3.5-1.24-5-2.26-2.42-1.66-4.59-1.52-6.45.49-2 2.16-3.69 4.61-5.51 6.93-.63-2.58-1.82-5.18-1.73-7.74.11-2.92 1.36-5.81 2.34-9.6a22.68 22.68 0 0 1 1.69 2.29c1.89 4.26 3.66 4.83 8 3.19a77 77 0 0 0 18.68-10.19c1.22-.89 3.75-1.41 4.84-.74a4.49 4.49 0 0 1 1.79 6c-1.69 4.1.07 5.42 4.41 5.29s8.77 1.26 13.19 1.54c2.11.14 4.29-.73 6.44-1.15l-3.81 4c1 0 1.94.07 2.82 0l12.28-1.19c2.3-.18 4.62 0 6.93-.14.8 0 2-.51 2.24-1.09s-.35-1.7-.84-2.39c-1.24-1.77-2.34-3.83-4-5a25.93 25.93 0 0 0-7.6-3.57c-.59-.17-1.83 2-2.85 3.06a5.64 5.64 0 0 1-1.48.79c-.78-3.77-1.43-7.58-2.44-11.29-.26-1-1.72-2.29-2.56-2.24a15.5 15.5 0 0 0-6.07 1.57c-3.83 2-7.46 4.4-11.18 6.63-.12-2-.17-4-.39-5.95-.25-2.27-.66-4.51-1-6.77q-1.5-3.12-3-6.24c3.59-.66 7.17-1.51 10.79-1.85a3.87 3.87 0 0 1 3.05 2.08c1.19 3.57 3.25 3 5.6 1.58 1.15-.68 2.18-1.53 3.95-2.8a14.32 14.32 0 0 1-.7 2.53c-1.65 2.92-.83 4.93 1.24 7.65 5.22 6.83 12.94 5.85 19.86 7.43.35.08.8-.32 1.72-.73l-2.3-3-.73-5.25 13.7-4.7q0 5.37-.08 10.74a15.78 15.78 0 0 0-1.8 3.25 7.34 7.34 0 0 0 .31 2.77c.95-.24 2.33-.17 2.76-.78a56 56 0 0 0 3.22-5.84l.56-2.09a.69.69 0 0 0 .13-.55q-1-6.32-2.08-12.63a32.24 32.24 0 0 1 4.75-.71c1.42 0 3.21 0 4.18.83 1.4 1.17 2.69 2.82 1.39 5.13-3.35 6-2.3 11.38 2.48 16.24 2.81 2.86 6.15 2.86 9.07.21 1.06-1 2.88-1.12 4.36-1.64l-.63 6.19-4.94 3.67c6.65 3.52 15.41-.56 16-7.06l-1.71-9.81 13.65 1.75a5.49 5.49 0 0 0 2.59-.51c1.67-.7 3.2-1.92 4.92-2.25s3.82.08 5.74.17l-1.79 5.09a6.46 6.46 0 0 1-.36.8l1.63 3.47-2.84 1.5a13.11 13.11 0 0 0-8.12 5.59c3.38 3.23 6.59 6.13 9.61 9.21 2.36 2.41 4.89 4.14 8.45 3.75 2.64-.29 4.19.75 3.99 3.66zm-76-9l.33-.33c0-.52 0-1 .05-1.55l1.7-6.64h1.52l3.3 10.34c4.4-2.41 5-6.83 6.26-10.83-4.19-2.81-15.1-3.33-19.66-1-4.11 1.28-4.74 2.51-1.83 5.15 2.36 2.11 5.55 3.29 8.36 4.89z" class="G"/><path d="M165 203.85c-1.33-1.4-.65-2 .65-3.19 5-4.39 11.12-6.1 17.29-7.78a63.37 63.37 0 0 1 22.67 1.21c6.64 1.53 13.37 3 18.72 7.42 6.15 5.07 10 11.7 12 20.31-2.52-.84-4.3-1.49-6.11-2-5.21-1.49-10.35-3.56-15.67-4.19a36.68 36.68 0 0 0-14.18 1.16c-2.35.68-4.31 3.95-5.7 6.47-2.78 5-4.08 5.5-8.89 2-.62-.45-1.26-.88-2.75-1.91a16.53 16.53 0 0 0 5 9.13c1.69 1.58 1.69 2.57-.35 3.59-3.18-3.59-6.45-7.1-9.5-10.8a54.67 54.67 0 0 1-3.75-5.87l-3.43-4.94-.93-1.19-1-1.83-.15-.28z" class="F"/><path d="M248.86 218.71a60.41 60.41 0 0 1-6-4.3c-6.55-6-12.8-12.37-19.5-18.21-5.65-4.92-12-9.09-17.6-14a105.49 105.49 0 0 1-13.57-13.66c-3-3.71-4.67-8.44-6.76-12.8a3.42 3.42 0 0 1 .29-2.85c.26-.41 1.64-.28 2.48-.14 14.66 2.51 27.06 10.06 39.27 17.92 4 2.55 7.55 5.67 11.39 8.43 3 2.17 4.26 5.16 4.89 8.74l5.46 29.28a6.55 6.55 0 0 1-.35 1.59zm61.54 17.2a7.75 7.75 0 0 1-1.93.74c-1.55.16-3.11.16-4.66.23a17.61 17.61 0 0 0 .75-4.17c-.21-3.71-.68-7.41-1.05-11.11l-1.41-.09a23.61 23.61 0 0 0-.89 3.24c-.35 2.63-.52 5.28-.86 7.91-.55 4.34-2.06 5.93-6.37 5.44-6.46-.75-12.68-2.47-17.8-6.89-3.05-2.63-6.38-5-9.18-7.85a37.64 37.64 0 0 1-5.77-8c-.5-.91.22-2.85.93-4 1.19-1.94 2.95-3.52 4.24-5.42 2.63-3.9 5.31-5.07 9.68-3.56 3.21 1.1 6.3 2.74 9.05-.91.22-.3 1.78 0 2.33.44 2.79 2.38 5.42 4.94 8.18 7.36.61.53 1.85 1.26 2.19 1a4.06 4.06 0 0 0 1.46-2.44c.17-1-.42-2.07-.28-3.07a9.47 9.47 0 0 1 1.2-2.57 8.44 8.44 0 0 1 2.51 1.45c2 2.38 3.87 4.85 5.62 7.42s4.25 1.79 6.6 1.87q-2.26 11.49-4.54 22.98zm-11.28-9.21c-.76-1.35-1.42-4.11-2.93-4.7s-3.92.85-5.84 1.64c-2.38 1-4.68 2.2-7 3.39-.83.44-2.09 1.06-2.16 1.71-.13 1.09.21 3 .9 3.31a116.19 116.19 0 0 0 12.19 4.35 3.14 3.14 0 0 0 2.8-1.23 78.12 78.12 0 0 0 2.04-8.47zm185.67 30.6l1.59-3.42c1.63.73 3.58 1.12 4.81 2.29 1.82 1.72 2.91 1 3.88-.54s1.55-3.36 2.53-4.9c3.5-5.53 9.24-6.93 15.08-7 7-.07 14 .7 20.94 1.3 2.36.2 3.07 2.69 1.06 5.12-3.06 3.69-6.22 7.51-10.06 10.27-6.45 4.63-13.75 7.54-22 6.75a10.42 10.42 0 0 1-3.38-.57c-3.07-1.42-4.6-.37-5.1 2.77l-6.46-.73c-4.49-.18-11.43 7.29-10.64 11.7.19 1.06 1.53 1.9 2.33 2.85l1-3.82 2.5-3.42c6 2 7.93 4.26 4.93 9.12-3.52 4.14-8.63 5.63-13.21 3.86-.89-1.15-1.69-2.37-2.68-3.42-1.57-1.67-3.21-2-4.69.19l-2.46 1.15-4.49.09-1.87.43c-1.39.64-3 2.74-4-.26a54.22 54.22 0 0 1-1.39-6.4c4.85-1 9.35-1.39 13.54-2.76s4.53-2.77 3-7.31l-1.31-4.88c5.21.1 9.79-1.83 13.92-4.75 1.22-.79 1.84-2.44 2.63-3.71zm18.12 7.08c5.41 0 7.57-1.17 7.37-3.85a14.83 14.83 0 0 0-4.81-10.38c-2.3-2.05-5.57-.84-6.42 2.23a15.71 15.71 0 0 1-1.66 4.43c-3.21 4.86-2.28 5.38 3 7.36a6.76 6.76 0 0 0 2.52.21z" class="G"/><path d="M529.29 184.81l4.71-8a34.66 34.66 0 0 0 2.41-5.92 77.88 77.88 0 0 0 1.93-7.69c.41-2 .51-4.1.88-6.12a107.6 107.6 0 0 1 2.37-11.34c1.09-3.58 0-7.45-3.59-9.07-5.76-2.62-11.57-5.18-17.49-7.38-2.86-1.07-3.57-2.59-3.38-5.47.32-4.86 1.54-9.58.35-14.72-.68-3 1.51-6.77 3-9.94.94-2 3-1.46 4.31.06 3.29 3.69 7.05 7.12 9.59 11.29a187.13 187.13 0 0 1 11 21.14c1.45 3.26 1.6 7.12 2.2 10.73.83 5 1.35 10 2.34 15s0 9.1-3.46 12.74c-2.94 3.07-5.7 6.32-8.74 9.28-2.26 2.2-4.83 4.07-7.26 6.09zm117.57 177.61c-5.23-2.4-10.32-4.56-15.22-7.1a6.89 6.89 0 0 1-3.4-3.92c-1.78-8.37-7.32-13.89-13.56-19-1.32-1.08-2.42-2.43-3.79-3.42a59.21 59.21 0 0 0-7.13-4.64c-1.81-1-4-1.17-5.86-2.08-4.24-2.09-4.38-5.37-.35-7.74s8.41-4.34 13.29-4.42a5.57 5.57 0 0 1 3.25.68c3.16 2.37 6 5.15 9.23 7.46 7.52 5.42 11.19 13.82 16.36 21a30 30 0 0 1 6 18c-.04 1.7.73 3.34 1.18 5.18zm-130.97-27.6a1.6 1.6 0 0 0 .4-.23l11.87-2.48c9.08.14 15.52 4.89 20 12.25 1.1 1.8-.06 4.87.28 7.29.45 3.23-1.71 4-3.89 5.15l-24.09 13.31a67 67 0 0 1-7 2.84c-.65-1.44-1.89-2.9-1.85-4.31a90.05 90.05 0 0 0-2.4-22.44c-.07-.31.63-.79 1-1.19l11.73 3.93a26.58 26.58 0 0 0 12.8 1c-5.63-6.77-9.76-14.13-20.3-11.83zm-245.81-58.68c-3.49-8.36-3.57-17.39-5.14-26.13a4.1 4.1 0 0 1 2.37-4.79c3.05-1.69 5.91-3.71 8.86-5.59 5.56-1.19 11.25-2.5 16.7-.17a20.7 20.7 0 0 1 6.8 5.41c.68.77.37 3.35-.43 4.3a7.57 7.57 0 0 1-4.77 2.6c-1.8.11-3.64-1.32-5.53-1.71a33.18 33.18 0 0 0-8.12-1c-3.27.15-3 3.49-3.67 5.61-.41 1.24.14 3 .77 4.33.45.9 1.77 1.38 2.7 2a25 25 0 0 0 17.48 7.68c1.2 2.1.76 3.72-1.39 4.86l-11.78 6.15a4.16 4.16 0 0 1-2.68 0c-4.08-1.1-8.12-2.34-12.17-3.55zm40.32-40.23q2.27-11.49 4.54-23c.39-1.07.53-2.39 1.25-3.15 1.06-1.12 2.7-2.79 3.82-2.6 6.4 1.13 13.1 1.41 18.71 5.31 1.79 1.24 3.45 2.66 5.17 4q1.49 3.12 3 6.24c-.7 1.29-1.31 3.6-2.1 3.66-1.82.14-3.75-.71-5.58-1.35a16.82 16.82 0 0 1-2.81-1.61 2.76 2.76 0 0 0-.2-.47c-1.35-1.27-2.61-3.4-4.07-3.56s-3.42 1.43-4.59 2.74c-.32.36 1.4 2.53 2.19 3.86l7.25 3.09a15.64 15.64 0 0 1-1.19 2.43c-.17.25-1 0-1.32.18-5.47 3.56-11.61 5.7-17.56 8.23-1.15.49-2.62 1.14-3.63.81s-1.78-1.76-2.46-2.82a5.75 5.75 0 0 1-.42-1.99zm16.44 41.7l3.23-1.55 9.67 6c.69 1.95 2.06 4.21 4 2.41 3.9-3.61 7.17-7.9 10.7-11.91l2.81.44.59.33.84.26a13.9 13.9 0 0 0 .36 3.68 22.27 22.27 0 0 0 2.27 3.73l.94 4.29c-.51 1.48.08 3.38-2.59 3.8-3.52.56-6.93 1.85-10.87 3 2.46 2.62 4.56 4.7 6.47 6.94 2.08 2.44 1.69 3.49-1.05 5.08-2.57 1.5-4.92 3.35-7.44 4.95-1.34.85-2.82 1.48-4.24 2.22-.23-1.62-.56-3.23-.66-4.85a10.74 10.74 0 0 1 .51-2.36c.62-3.44 1.2-6.86-1-10.06a3.69 3.69 0 0 1-.39-2c0-3-3.42-6.92-7.37-7.74.65 3.24 1.44 6.22 1.77 9.24.15 1.43-.56 2.95-.88 4.42a26.41 26.41 0 0 1-4-1.85 5.94 5.94 0 0 1-1.83-2.43c-.88-2-1.89-2.43-3.68-.95a8.68 8.68 0 0 1-2.64 1 18.22 18.22 0 0 1-.33-3.27 29.5 29.5 0 0 1 .78-3.78q2.06-4.53 4.03-9.04zm172.44 27.9l-4.54 4c-.59-3.78 5-11.2 9.64-12.42 6.92-1.82 13.4-1.21 19.37 3a42.33 42.33 0 0 0 4 4.58c1.74 1.48 1.72 2.59.33 4.32-3.08 3.86-5.88 7.94-9 11.82a44.88 44.88 0 0 1-5.63 6.06c-1.64 1.44-3.26.86-4.79-.81-1.14-1.24-2.69-2.61-4.25-2.89-6.67-1.2-10.93-5.55-14.76-10.58-.18-.24.12-.85.19-1.29a34.48 34.48 0 0 0 17.29 1.55c1.77-.73 3.5-1.57 5.32-2.15 2.45-.8 2.5-2.49 1.72-4.38-1.59-3.88-4.88-2.39-7.72-2.26l-1.93.14zm-208-247l1.38.72 8.34 2.06.94.29 10.1 5.59c4 2.13 8.16 4.09 12.22 6.19a16.77 16.77 0 0 1 3.65 2.39c1.14 1 2.86 2.39 2.87 3.61a108 108 0 0 1-.78 15.78c-.48 3.45-2.27 6.7-3 10.14-1.67 7.76-3.06 15.59-4.59 23.38-.08.39-.48.71-.73 1.07l-1-.07a28.71 28.71 0 0 1 .05-5.33l4.72-22.66A21.19 21.19 0 0 0 323.32 87c-1.08-2.15-4.36-3.16-6.57-4.79-4.07-3-8.17-6-12.1-9.17-4.37-3.53-8.47-7.35-13.93-9.3-1.31-.47-2.21-2.07-3.29-3.16zm56.66 196.65c1.42-1.16 3.11-2.1 4.2-3.51 1.52-2 3-2.34 5-1a13.56 13.56 0 0 1 2 1.33c3.27 3.24 6.81 3.31 10.66 1.12a7.4 7.4 0 0 1 2.92-1l14.74-.88c1.92-.14 3.06.21 3.21 2.45.27 4.22.74 8.43 1.14 12.64-.67-.84-1.41-1.62-2-2.51-1.44-2.2-2.81-4.44-4.59-7.26a15.72 15.72 0 0 0-1.06 2.2c-1.44 6.45-1.43 6.45-7.29 4.24a3 3 0 0 0-.68-.09l-4.17-2.26c-4-2.09-4.28-2-5.35 2.31a28.57 28.57 0 0 1-3.8-2.54c-2.3-2.12-4.42-4.42-6.62-6.64l-1.23.66.72 5.15c.48 3.25-.65 4.66-3.76 5.47-4.84 1.26-9.61 2.8-14.42 4.17-1.23.35-2.51.51-4.4.88l1.24-2.85z" class="F"/><path d="M500.93 208.7a50.71 50.71 0 0 0-2.71-31.56l-1.58-3.47c.47-.59.83-1.53 1.42-1.71l7-1.79c2.25-.79 4-.72 5.16 1.68q3.57 7.62 7.15 15.24c2.81 6-1.25 9.89-4.69 13.64a69.51 69.51 0 0 1-9 7.59c-.59.5-1.8.28-2.75.38zm-128.39-44.28c-4.57-5.9-11.42-6.91-18.07-8.24a3.31 3.31 0 0 0-2.43 1.34 53.68 53.68 0 0 0-3.07 4.85l-5.42-14.16c-.65-1.73-1.22-3.48-1.81-5.23-.92-2.73.21-4.2 2.9-4.72a8.07 8.07 0 0 1 8.69 4.05 23.77 23.77 0 0 0 1.46 2.36c3.4 4.79 5.55 4.65 8.25-.48l2-3.86c1.34 2.4 2.75 3.94 3 5.66a18.47 18.47 0 0 0 5.48 10.17c2.91 2.84 2.35 6.29-.98 8.26zm-51.19-6.11c4.48 6.14 11.11 10.63 13.59 18.33a3.45 3.45 0 0 1 .29 1.35c-.72 7.44-1.22 14.93-2.4 22.31-.27 1.68-2.89 3-4.43 4.47.05-1.94-.56-4.24.27-5.75 2.59-4.75 1.29-8.29-2.32-11.69-4-3.8-8.09-7.58-11.78-11.69-2.73-3-2.15-4.67 1.79-5.44 3.12-.62 3.49-2.43 3.36-5-.11-2.19 0-4.38 0-6.57z" class="G"/><path d="M614.12 242l.44 7.56a12.36 12.36 0 0 1-.87 3.15 9.81 9.81 0 0 1-2.93-1.24c-3.41-3.1-6.68-6.35-10-9.53-2.82-2.69-2.89-5.33-.69-8.26.85-1.14.82-2.91 1.33-4.35.68-1.92 1-4.71 2.36-5.48 2.4-1.33 5 .53 6 2.77 2 4.94 3.48 10.14 5.17 15.24zm-314.04 45.38l4-3.68c1.22-1 2.6-1.78 3.91-2.65a10.36 10.36 0 0 1 8.22-.8l4.41 5.57a10.66 10.66 0 0 1-2.85.72c-3.8-.1-7.6-.36-11.4-.55l-.28 1.2c3.33 3.59 5.54 8.62 12.22 8.49a142.12 142.12 0 0 1-12.64 11.78c-.23.2-2.23-.87-2.37-1.56-1.19-6.14-2.17-12.34-3.22-18.52zm7.09-29.94l5.51-6.93c1.86-2 4-2.15 6.45-.49 1.48 1 3.45 1.3 5 2.26 2.18 1.36 4.15 3.06 6.21 4.61l.73 1 .14.22.36.6.12.22.33 2 .4 2.91c-1.82 1.47-3.3 1-4.77-.65s-2.9-2.82-4.36-4.21l-1.25-2-1.08-1.81-3.8-.79-2.33 2.39 4.85 11.23-7.09 3.68c-1.26.58-3.28 1.55-3.88 1.05a6.36 6.36 0 0 1-2.07-4.3c-.11-3.66.36-7.33.53-10.99zm180.5 11.22l6.46.73 4.64 1.92c-.78 8.64-.84 17.4-4.43 25.55-2.14-1.16-4.16-2.72-6.45-3.36-2.59-.71-5.42-.64-8.15-.83-2.52-.18-4.34-1.22-5.14-3.72 4.58 1.77 9.69.28 13.21-3.86a10.55 10.55 0 0 0 5.76-8 4.2 4.2 0 0 0-1.6-3.26c-2.4-1.63-7.15-.33-9.09 2.17l-2.5 3.42c-2.56-.92-1.13-2.53-.29-3.43 2.39-2.59 5.03-4.91 7.58-7.33zm-139.41-33.21c3.72-2.23 7.35-4.62 11.18-6.63a15.5 15.5 0 0 1 6.07-1.57c.84-.05 2.3 1.29 2.56 2.24 1 3.71 1.66 7.52 2.45 11.29l-1.72 2.87-.39.45-.17.22-.65-5.86c-.27-1.95.78-5.23-2.19-5.36-3.3-.14-2.62 3.13-2.64 5.32-.05 4.82 0 4.81-4.62 4a62.51 62.51 0 0 1-7.66-1.32c-3.41-1-3.77-2.27-2.22-5.65zm-117.73 60.71c-2.31-1.81-5-3.29-6.86-5.5-6.12-7.35-11.95-14.94-17.81-22.5a18.75 18.75 0 0 1-1.78-3.72c1.37.44 3.16.47 4 1.38 6 6.11 11.72 12.42 17.57 18.65 2 2.17 4.29 4.15 6.18 6.44 2.08 2.46 1.64 3.75-1.3 5.25z" class="F"/><path d="M339.74 282l-9.67-6c.48-1 .8-2.67 1.47-2.82 8.59-1.94 16.83-6 26-4.65 1.3.19 2.47 1.15 3.7 1.76l-2.54 3.22-.84-.26-.59-.33-2.81-.44c-2.88-2-3.8.91-5.39 2.17z" class="G"/><path d="M570.59 288.07l7.5-6.23 3.38-1.62c-.89 7.11-24.38 33.9-32 35A84 84 0 0 1 555 308c2.72-2.93 5.81-5.53 8.7-8.3a2.41 2.41 0 0 0 .79-1.51c0-3.69 2.58-5.76 4.83-8.07a11 11 0 0 0 1.27-2.05z" class="F"/><path d="M368.8 243.65l1.72-2.87A5.74 5.74 0 0 0 372 240c1-1 2.26-3.23 2.85-3.06a25.93 25.93 0 0 1 7.6 3.57c1.69 1.2 2.79 3.26 4 5 .49.69 1.07 1.78.84 2.39s-1.44 1-2.24 1.09l-6.93.14c-4.1.31-8.19.81-12.28 1.19-.88.08-1.78 0-2.82 0l3.81-4 1.39-2 .17-.22z"/><path d="M298.1 268.72a25 25 0 0 1-17.48-7.72c.82-2.28.31-5.47 3.51-6.22 4.2-1 7.7.59 10.65 3.61l6.11 6c1.59 1.48 1.79 2.69-.48 3.58-.76.3-1.54.5-2.31.75z" class="G"/><path d="M289.66 147.66l-4.55-5.66-1.45.48-.86 28.3c-2.59-3.54-3.71-37.6-1.18-46.14z" class="F"/><path d="M320.64 285.82l-4.41-5.57c-.8-2.53 0-4.4 2.48-5.28 2.72-1 5.54-1.68 8.84-2.66l-.71 5.3q-2 4.5-3.95 9zm-.96-17.82l-4.87-11.29 2.33-2.39 3.8.78 1.08 1.82 1.25 2 .56 10.18-2.7.07zm46.99-5c1.07-4.27 1.36-4.4 5.35-2.31l4.17 2.26a40.3 40.3 0 0 1 4.46 4.5c.65.88 1 3.15.59 3.42A9.51 9.51 0 0 1 377 272c-.49 0-1.07-.72-1.61-1.12-.51-2.2-.31-4.91-3.68-5l-1 .59a2.76 2.76 0 0 1-.39.28l-3.66.26zm-4.42 22.27l-.94-4.29c.82-.9 1.52-2.39 2.49-2.59 3.52-.72 7.14-1 10.72-1.47l.63.66.93 1.36-.81 1.62c-4.05 2.36-7.62 6.06-13.02 4.71z" class="G"/><path d="M375.15 277.58l-.63-.66-3.44-4.92-1.08 1.09a3.3 3.3 0 0 0-.63.2l-3.59 1.71c.34-1.39.4-2.95 1.09-4.15a30.1 30.1 0 0 1 3.46-4.15 2.76 2.76 0 0 0 .39-.28l1-.59c3.37.09 3.17 2.8 3.68 5l-.25 6.75z" class="F"/><path d="M332.4 263.8l-.4-2.91.41-.71c2.19 1.79 4.06 1.07 6.17-.41 2.8-1.95 5.86-3.52 8.8-5.25l.56.63-13.54 12.15-2-3.5zm3.78-40.8a2.76 2.76 0 0 1 .2.47 15.36 15.36 0 0 1 1.33 3.32c.12.72-.47 1.56-.75 2.34L329.7 226c.71-4.1 3.9-2.92 6.48-3z" class="G"/><path d="M283.94 176.26l-.4.35c-.05-.1-.16-.21-.14-.28a2.78 2.78 0 0 1 .22-.54zm37.19 92.93l2.7-.07-1.13 1.47z" class="F"/><path d="M567.16 497.55l.64-1.41-.64 1.41z" class="G"/><path d="M186.08 452.9a13 13 0 0 1-3 1.75l-26 6.86a3.84 3.84 0 0 1-.68.09c-6.77.52-13.53 1.37-20.3 1.47a77.73 77.73 0 0 1-30.35-5.69c-4.42-1.78-8.38-5.12-12-8.38-1.46-1.31-1.74-4.24-2-6.5s-.16-4.35-3.53-4.23c-1 0-2.62-1.47-2.91-2.56a41.65 41.65 0 0 1-1.85-10.48 63.19 63.19 0 0 1 7-28.51c2.82-5.67 5.22-11.6 8.55-17a32.63 32.63 0 0 1 8.4-8.5c4.35-3.21 9.23-5.68 13.79-8.62 1.25-.81 2.15-2.17 3.5-3.58a10.69 10.69 0 0 0-2.62-1.28c-4.79-.55-9.6-1.44-14.39-1.4-11 .08-17.92-6-23.48-14.43a5.68 5.68 0 0 1-.16-4.53c.27-.69 2.32-.83 3.59-.93 2.78-.22 4.88 1 7.13 2.71 2.56 2 5.86 3.14 8.95 4.36a87.26 87.26 0 0 0 9.86 3.21 65.54 65.54 0 0 0 11.1 2.3c8.48.71 17 1.1 25.5 1.37a14.25 14.25 0 0 0 5.95-1.4c2.59-1.14 2.62-2.47.26-3.85-3.89-2.27-7.84-4.45-11.81-6.58-5.33-2.86-6.2-5-3.94-9.2a22.1 22.1 0 0 0 1.91-7.33c.12-.81-1.07-2.6-1.57-2.57-3.16.23-6.83 0-9.32 1.49-5.85 3.61-11.77 6.66-18.57 7.93-1 .19-1.84 1.14-2.76 1.73.61.77 1.27 1.5 1.82 2.31s1 1.69 1.47 2.54c-.89.37-1.89 1.2-2.65 1-3.32-.8-6.77-1.48-9.79-3-7-3.44-14-7.06-20.63-11.15-4.17-2.56-4.67-9.12-1.39-12.7s7-7 10.47-10.58c4.2-4.38 9.44-6.84 15-9 4.38-1.67 8.42-4.29 12.85-5.76a64.53 64.53 0 0 1 19.23-3.68c6.84-.14 13.66-1.53 20.5-2.17a58 58 0 0 1 10-.07c.85.07 2.11 1.68 2.22 2.69.15 1.37-.68 2.84-1 4.29-.72 3.31-1.49 6.61-2 9.95-.06.41 1.48 1.57 2.15 1.48 2.14-.31 4.2-1.22 6.34-1.56 7.15-1.15 14.37-3.22 21.47-2.89 6.82.32 14.1.5 20.44 4.1a12 12 0 0 1 2.16 2.06c-.79.75-1.46 2-2.39 2.2-5.41 1.4-9.42 4.75-13.59 8.3-3 2.58-7.28 4-11.19 5.29-5.76 2-9 6.43-8.45 12.57l.87 11.68c.14 2.55 1.81 3.48 3.92 3.5 6.91.08 13.84.25 20.74-.13a122.49 122.49 0 0 0 15.44-2.15c3-.56 6-1.73 9-2.54a9 9 0 0 1 2.27-.05 7.82 7.82 0 0 1-.12 2.53c-2.33 5.72-7.92 7-12.83 9.14-3 1.26-6.26 1.68-9.19 3a7 7 0 0 0-3.46 3.66c-1 3.08-2.79 4.55-6 4.67a53.21 53.21 0 0 1-21.59-4.16 13.55 13.55 0 0 0-10.11-.42c-8 2.93-16.34 5.15-24 8.78-5 2.35-9.23 6.43-13.37 10.21-3.24 3-2.93 4.81-.52 8.27.64.91 1.14 2.59.73 3.46-1.78 3.75 1.07 6.69 1.48 10 0 .31 1.69.69 2.54.59 2.4-.29 4.76-.95 7.17-1.17 1.86-.18 3.18.17 2.07 2.79-1.39 3.25-2.44 6.58-.12 10.14a3.54 3.54 0 0 1-1.6 5.32 18.65 18.65 0 0 1-5.84 2c-4.27.53-7.05 3.28-9.77 6.06-.56.57 0 2.2 0 3.33 0 1.47.37 3.18-.25 4.35-2.08 3.92-1.9 7.23 1.15 10.43s6.63 5.55 6.44 10.6c0 .51 1.94 1.58 3 1.57l30.76-.43h13.47z" class="E"/><path d="M305.6 332.42c-.79.94-2.43 2.23-2.21 2.74a7.39 7.39 0 0 0 2.94 2.78c.61.39 1.69 0 2.32.41a11 11 0 0 1 3.78 3c.28.43-1.39 2.17-2.22 3.27l-2.37 2.91c-2.95 2.11-3.59 5.25-4.17 8.59a74.93 74.93 0 0 1-2.51 8.63l-.54.54-.82.77-1 1-1.86 3c3.78 6.56 7.07 13.56 14.4 17.08a17.06 17.06 0 0 0 4.67 1c2.22.37 2.57 1.46 1.13 3s-3 2.85-4.48 4.33c-2.57 2.63-4.87 5.58-7.7 7.89a34 34 0 0 1-7.71 4.2c-.53.24-2.07-.56-2.38-1.23-1.51-3.32-4.52-4.47-7.54-5.66-1.29-.5-2.6-1-3.92-1.36-2.45-.74-3.57-1.71-1.9-4.47a5.8 5.8 0 0 0 .32-4.81c-1.76-3.47-.66-6.11 1.24-9 4.87-7.36 7.79-15.39 7.4-24.35a30.2 30.2 0 0 0-1-4.8l-1.12.09c-.13 1.49-.15 3-.38 4.47-.74 4.67-3.66 8.07-7.21 10.68-4.8 3.53-10 6.51-15.06 9.71a9.81 9.81 0 0 1-1.88.89c-6 2.26-9.53.5-11.23-5.62-1-3.56-2-7.13-2.79-10.73-.71-3.15.47-5.32 3.62-6.53 4-1.53 7.92-3.18 11.78-5 2.32-1.09 4.41-2.64 6.68-3.85a24.47 24.47 0 0 1 13.12-2.51c2.65.12 3.25-1.2 2-3.54-4.24-7.88-4.12-8.94 1.92-15.95 3-3.51 4.27-15.9 2-20-.17-.3-.3-.86-.49-.88-1.63-.17-3.88-1-4.8-.23-4 3.32-7.22 4.21-13.26 2.2 1.28-1.26 2.13-2.52 3.32-3.19 3.11-1.77 6.36-3.27 9.56-4.88a8.73 8.73 0 0 1 12.06 5.17c1.61 5.63 3 11.34 4.42 17 .11.42.29.82 1.45 1.72l2.49-4.44 1.73-2.79c3.29-2.41 7-3.16 11-3.23 3.91-.07 7.81-.88 12.08-1.4-1.71 4.86-5.58 6-8.78 7.88-1.95 1.18-5 2.11-5.52 3.8-1.43 4.39-5 6.73-7.67 9.91zm101.58 95.25c1.29-3 3.88-2.07 6-1.73q6.46 1 12.82 2.62a63.21 63.21 0 0 1 8.7 3.05 3 3 0 0 1 1.2 2.19c.37 4.28.45 8.59.86 12.87.48 5 .62 9.62-4 13.14-1.13.86-1.61 3-1.74 4.64a31.15 31.15 0 0 1-2.2 9.5c-2.43 6.13-3.63 12.82-4.74 19.38s-1.47 13.24-2.23 19.86c-.34 3-1.88 3.67-4.48 2.13-2.18-1.29-4.56-2.3-6.61-3.76a48.45 48.45 0 0 1-5.12-4.72c-1.06-1-2-2.79-3.16-3-3.18-.48-4.73-2.66-5.56-5.08a61.34 61.34 0 0 1-3.47-13.6 127.05 127.05 0 0 1-.05-17.67 37.3 37.3 0 0 1 1.57-8.81 4.76 4.76 0 0 1 2.85-2.63c2.81-.87 4.31-2.54 4.61-5.4l4.44-6.29 1.31-1.88.28-5.09-1.06-5.62-.22-4.1zm-78.8 51.79c-.27-4.92-.21-9.9-1-14.76-.34-2.18-2.25-4.14-3.53-6.16-.61-1-1.56-1.73-2.11-2.72-2.84-5.15-2.21-5.17 2.71-8.11 6.54-3.91 14.72-4.21 20.39-9.75 1.64-1.61 3.38-3.14 4.88-4.87 2.27-2.63 3.19-2.48 5.25.23a159.86 159.86 0 0 0 11.35 13.79c2.62 2.74 6.14 4.59 9.16 7a7.75 7.75 0 0 1 .89 11.68c-2.73 3-5.56 5.77-10 6.24-1.68.18-3.27 1.52-4.84 2.43-7.15 4.16-10.75 11.53-15.76 17.61-1.21 1.48-1.77 3.5-2.91 5.06-1.88 2.56-3.27 2.35-4.78-.53-.43-.82-.74-1.7-1.12-2.54-1.11-2.49-1.72-5.62-5.82-3.61-.4.19-2.55-1.79-2.82-3a49.61 49.61 0 0 1-.56-7.93z"/><path d="M508.69 492.21c1.07-2.87 2.48-5.67 3.14-8.63a89 89 0 0 0 1.41-11.2c.25-2.86 0-5.78.46-8.61.13-.86 1.82-2.24 2.57-2.11 3.24.56 6.4 1.6 9.94 2.56-.16-.78-.31-1.94-.64-3.05-1.26-4.23-1.08-4.53 3.16-4.9.39-3.85-1.7-5.84-5.2-5.11-.78.16-2.28 0-2.39-.34-.45-1.5-1-3.3-.59-4.64a32.53 32.53 0 0 1 3.77-7.32c1.63-2.47 6.95-2.73 8.94-.26a33.72 33.72 0 0 1 5.68 9c3.31 8.79 7.26 17.38 8.81 26.79 1.24 7.49 3 14.89 4.6 22.3.58 2.59 1.63 5.06 2.28 7.63a22 22 0 0 1 .32 3.85c-.67.17-1 .34-1.09.26l-35.27-21.69c-2.22-1.4-3.67-1.52-5.35.4l-4.58 5.07z" class="E"/><path d="M294.11 422.07c0 3.17-.66 6.47.05 9.46s.32 5.11-1.86 6.79c-7.87 6.05-16.73 7.53-26.18 4.86-5.19-1.46-7.67-6.14-10.05-10.39-1.76-3.15-3.53-5.41-7.32-6a41.21 41.21 0 0 1-8.25-2.49c-2.43-.91-3.32-2.71-1.33-4.81 3.18-3.35 6.11-7.26 10-9.56s8.38-3.14 12.75-3.8a53.51 53.51 0 0 1 12.46-.08 115.38 115.38 0 0 1 11.42 2.05c1.35.25 2.69.54 4.05.74 3.28.46 4.72 2.89 4.11 6.14-.35 1.82.09 3.79.18 5.69-.03.47-.03.94-.03 1.4zM262.54 334h-3.47c-2.07 0-3.1-.82-3.33-3-.56-5.45-2.34-6.19-7.27-3.57s-9.64 5.47-14.78 7.29c-4.92 1.74-10.25 2.36-15.43 3.31-3.37.62-6.79 1-10.2 1.34a4.94 4.94 0 0 1-3-.64c-2.08-1.38-3.7-10.77-2.38-13 .71-1.19 1.81-2.26 2.13-3.54 1.65-6.45 7.05-6.64 12.1-7.73 8.14-1.75 16.49-2.53 24-6.95 4.21-2.49 9.07-3.9 13.69-5.67 2.28-.87 4.08-.22 3.94 2.54-.43 8.29 4.9 14.14 8.52 20.73.16.29.59.48.67.77.6 2.26 2.23 5.17 1.38 6.63s-4.2 1.36-6.46 1.95z"/><path d="M449.46 360.67l3.15 5-16.7 9.3a8 8 0 0 1-4.41.69c-6.84-.77-8.7 1.38-7.53 7.24.41 2 .91 4.06 1.37 6.08-4.38 1-8.71 2.41-13.15 2.91-5.86.65-11.82.58-17.32-2.08-.89-.42-2-2-1.81-2.72a56.31 56.31 0 0 1 3.56-9.22c2-4 5.11-7.49 4-12.5-.13-.58.93-1.42 1.44-2.14l4.26 5.59 12.53 11.21.86-.4a56 56 0 0 0-.35-5.67c-.47-2.82-1.18-5.59-1.79-8.38l3.62.82c3.59 2 3.6-1.2 4-3 1-4.28 1.62-8.64 2.4-13a40.08 40.08 0 0 0 5.77 2.7 3.24 3.24 0 0 0 2.9-.94c2.56-4.19 4.91-8.49 4.29-13.75-.26-2.19.95-2.62 2.8-1.69l3.85 1.92.86-.69-2.74-5.82.52-.79a36.33 36.33 0 0 1 3.9 2.35c1.61 1.25 3.07 2.7 4.59 4.06l2.23 2.88c-.35.67-.52 1.57-1.06 2-2.79 2.11-5.71 4-8.49 6.16a2.49 2.49 0 0 0-1 2c1.08 3.34 2.3 6.6 3.45 9.88z" class="F"/><path d="M454.36 337.76l-4.59-4.06a36.33 36.33 0 0 0-3.9-2.35l-.52.79 2.74 5.82-.86.69-3.85-1.92c-1.85-.93-3.06-.5-2.8 1.69.62 5.26-1.73 9.56-4.29 13.75a3.24 3.24 0 0 1-2.9.94 40.08 40.08 0 0 1-5.77-2.7c-.78 4.34-1.42 8.7-2.4 13-.42 1.83-.43 5-4 3l3.81-13.94c.16-.63-.69-2.17-1-2.16-3.05.15-6.52-.26-9 1.08-3.13 1.68-5.45 4.85-8.12 7.38-.2-4.26 5.53-10.85 10.87-11.38s10.62-2.24 15.84.31c1.26-.31 3.46-.37 3.63-1 1.16-4.2 1.89-8.52 2.76-12.8l-1.2-.55-7.31 6c-2.06-2.06-1.13-3.95.78-5.14 3.12-2 6.49-3.52 9.75-5.24.73-.43 2.09-.85 2.09-1.28 0-4.46-.16-8.91-.3-13.37-.09-2.6-1.25-3.75-4-4-1.63-.12-3.14-1.66-4.7-2.56 1.59.2 3.19.53 4.79.59 5.3.16 5.59.3 6 5.62.2 2.4-.09 4.83-.07 7.25a56.14 56.14 0 0 0 .31 6.87c.11.82 1.12 2.18 1.63 2.14a4 4 0 0 0 2.61-1.61c2.92-4.37 5.58-8.9 8.55-13.23 1.29-1.89 2.12-3.51.46-5.51 0-.33.26-.8.11-1-2.74-3.29-6.33-6-6.74-10.85-.05-.64-2-1.12-3.09-1.67-.51 1-1.37 2-1.45 3.08a20 20 0 0 0 .58 4.43c-.81-1.68-1.57-3.38-2.45-5-.58-1.11-1.33-2.13-2-3.19l-6.73-6.45a5.68 5.68 0 0 1 .13-.71q1.19-3.69 2.39-7.36l-6.19-1.08-.34-.08a11.17 11.17 0 0 0 2.16-2.06 14.66 14.66 0 0 0 1.09-3.13l1.07-.13 2.06 2.13 3.05 1.4-.86 3.89 3.4.33-4.34 7c2.18.88 3.74 2 5.36 2 1.88.1 4.27-.12 5.57-1.23.94-.8 1-3.41.55-5a73.17 73.17 0 0 0-4.11-10.59c-.49-1-2-1.58-3.07-2.35a.39.39 0 0 1-.3-.41l4.69-6.91h.94l3.02 6.06c-2.64 3.18-2 5.67 1.59 6.28a6 6 0 0 0 4.3-1.34c1.33-1.14 2.06-3 3-4.51.55 1.43-1.41 4.14 1.91 4.12 3.09 0 5-1.53 4.86-4.88 1.5 4.54 1.23 5.93-3 7.31s-8.69 1.81-13.54 2.76a54.22 54.22 0 0 0 1.39 6.4c1 3 2.6.9 4 .26l9.29 4-11.15 11.5.13 1.3c2.64.81 5.26 1.69 7.92 2.39 3.23.86 5.22 2.58 5.34 6.2 0 .82 1.09 1.73 1.87 2.36a19.08 19.08 0 0 0 3.32 1.61l-13.69 5c2.3 3 4.31 5.35 6.05 7.91s3.11 5.32 4.81 7.88c.5.76 1.64 1.73 2.35 1.63 4.33-.62 6.65 2.26 10.06 5.54-5 0-9.11-.06-13.24 0-3.69.08-6.21-1.26-6.9-5.13 0-6.64-3.59-11.86-7-18.09-2.85 5.63-2.57 11.04-3.21 16.26zm-147-24.05l-1.73 2.79c-.87-.19-2.21-.1-2.52-.63a16.18 16.18 0 0 1-1.25-3.92c-1.37-4.62-2.61-9.28-4.16-13.83-1-2.81.09-8.53 2.38-10.74l3.24 18.52c.14.69 2.14 1.76 2.37 1.56a142.12 142.12 0 0 0 12.64-11.78c-6.68.13-8.89-4.9-12.22-8.49l.28-1.2 11.4.55a10.66 10.66 0 0 0 2.85-.72l2.25.81a29.5 29.5 0 0 0-.78 3.78 18.22 18.22 0 0 0 .33 3.27 8.68 8.68 0 0 0 2.64-1c1.79-1.48 2.8-1 3.68.95a5.94 5.94 0 0 0 1.83 2.43 26.41 26.41 0 0 0 4 1.85c.32-1.47 1-3 .88-4.42-.33-3-1.12-6-1.77-9.24 4 .82 7.36 4.73 7.37 7.74a3.69 3.69 0 0 0 .39 2c2.17 3.2 1.59 6.62 1 10.06a10.74 10.74 0 0 0-.51 2.36c.1 1.62.43 3.23.66 4.85 1.42-.74 2.9-1.37 4.24-2.22 2.52-1.6 4.87-3.45 7.44-4.95 2.74-1.59 3.13-2.64 1.05-5.08-1.91-2.24-4-4.32-6.47-6.94 3.94-1.12 7.35-2.41 10.87-3 2.67-.42 2.08-2.32 2.59-3.8 5.4 1.35 9-2.35 13-4.71-1.95 1.95-3.58 4.8-5.93 5.65-3 1.09-3.71 2.22-3.18 5.17 1 5.74-.7 8.83-5.8 11.46a25.8 25.8 0 0 0-3.06 2.34 50.85 50.85 0 0 0 6 1.71c6.34.95 7.27 2.29 6.67 8.63-.17 1.78.86 3.67 1.34 5.51l-.81 7.12 3.79-3.26c.3 2.09 1.4 3.15 3.56 2.54a4 4 0 0 1 5.12 2.42c1 2.18 2 2.94 4.49 1.87 2.08-.91 3.48.72 2.52 2.46-2 3.51-4.58 6.66-6.92 10 .4-2.44.73-4.86-2.3-6l-11.44-4.28c-.83-3.93 2.39-8.92-2.38-11.25l-1.78-7.79-5.13 2a13.48 13.48 0 0 0 1.65-3.34c.2-1.07.18-2.73-.48-3.35-5.4-5.07-7.22-4.95-12.65.44l-1.71 1.71c-3.49 3.66-3.49 3.67-6.85 0-2.3-2.65-4.16.89-6.3.46 1.06-1.19 2.57-2.22 3.07-3.6.74-2 .77-4.32 1.1-6.49-1.7.25-3.4.46-5.09.78-.66.12-1.27.66-1.93.72-3.24.29-6.58 2.29-9.51-1.41-.75-.94-4.32-1.12-5.13-.26-3.35 3.48-6.02 7.42-8.9 11.19zm-43.31 73.99l11 4.35-.28 1.63c-2.4.36-4.88 1.3-7.18 1-9.44-1.36-18.94-2.64-28.19-4.88-4.93-1.2-9.41-4.25-14.05-6.57-2-1-3.26-2.67-2.51-5.1 2.87-9.34 4.69-19.17 11.94-26.54 3.53-3.58 7.06-6.87 11.79-9.25 5.42-2.72 10.73-4.38 16.68-4.28a16.28 16.28 0 0 1 2.4.25c.17 0 .3.31.36.38-3.69 3-7.28 6.18-11.08 9.06-4.43 3.36-9.17 6.32-13.5 9.8-2.48 2-5.37 4.33-6.3 7.11-1 3-.4 6.74.38 9.94 2.23 9.11 5.29 8.67 16.89 8.43 9.35-.2 17.44-4.8 24.48-11.05.83-.74 2.28-.79 3.45-1.16-.29 1.26-.3 2.67-.92 3.73-3 5-7.77 8-12.52 11-.89.53-1.67 1.25-2.84 2.15z" class="E"/><path d="M339.33 421.53l-6.63 6.08c-2.23 2-4.2 4.37-6.74 5.76-3 1.64-6 .22-8.68-1.66a52.71 52.71 0 0 0-6.18-3.71c-2.47-1.26-4.05-2.85-3.94-5.87.29-7.85 2.6-14.93 8-20.72 5-5.31 11.18-6.26 18-4.34.22.06.43.24.64.23 4.66-.13 7.81 2.07 9.05 6.47a16.65 16.65 0 0 1-1.81 13.32 27.93 27.93 0 0 0-1.69 4.36z"/><path d="M464.57 339.59c.69 3.87 3.21 5.21 6.9 5.13 4.13-.08 8.25 0 13.24 0-3.41-3.28-5.73-6.16-10.06-5.54-.71.1-1.85-.87-2.35-1.63-1.7-2.56-3.08-5.34-4.81-7.88s-3.75-4.94-6.05-7.91l13.69-5a19.08 19.08 0 0 1-3.32-1.61c-.78-.63-1.85-1.54-1.87-2.36-.12-3.62-2.11-5.34-5.34-6.2-2.66-.7-5.28-1.58-7.92-2.39l-.13-1.3 11.15-11.55-9.29-4 1.87-.43 4.49-.09 2.45-1.15c2.87-1.17 3.59.6 3.93 2.88q.68 7.72 1.34 15.44l.18 6 1.41 1.5.27.17 2.4 1.31c1.24 1.94 2.95 2.18 5 1.38 1.9 1.43 2 2.8.84 5.06-2 3.83-3.41 8-5.28 12.52a36.32 36.32 0 0 0 4.31.91c4.43.33 7.18 2.77 8.85 6.69a32.64 32.64 0 0 1 2.15 5.45 4.82 4.82 0 0 1-.75 3.72c-3.79 4.16-7.91 8-11.72 12.16-1.95 2.12-3.94 2.33-6.43 1.31a23.19 23.19 0 0 0-3.65-.91l-.89-10.18c-.28-2.63-1.19-4.88-4.12-5.6z" class="F"/><path d="M372.55 426.86c.54-4.67.78-9.39 1.72-14a8.4 8.4 0 0 1 9.53-6.68c.82.13 2.24 1.57 2.13 1.8-1.5 3.12 1 4.06 2.82 4.28 5.5.69 6.55 5.51 8.45 9.08 2.93 5.48 2.05 11.77 1.44 17.69-.51 4.92-8.3 7.81-13.6 5.06-3-1.56-5.51-4.05-8.24-6.13h0l-2.69-5.48-.25-1.33-.93-2.32z"/><path d="M508.66 492.19l-1.52 3.82c-1 2.54-2.07 4.4-5.55 3.63-1.58-.36-3.53 1-5.31 1.55l-.13.12-17.5-8.19c-4.86-2.37-9.72-4.77-14.37-7.51-1.32-.77-2.15-2.69-2.75-4.26-.22-.59.9-2.43 1.35-2.41a58.15 58.15 0 0 1 6.91 1l4.55.76c-.09-1.41.34-3.18-.36-4.17a88.82 88.82 0 0 0-8.54-10.66c-2.44-2.52-4.22-4.93-4.17-8.64a19.45 19.45 0 0 0-1.27-6.68c-1.47-4-3.33-7.82-4.94-11.75a4.28 4.28 0 0 1-.42-2.69 48.56 48.56 0 0 1 2.5-5.26c1 1.37 2.33 2.62 3 4.14l10.09 24.17a11 11 0 0 0 2.17 2.56l.05.08c2 3.48 3.68 7.22 6.11 10.37 5.62 7.3 11.57 14.35 17.49 21.41a10.16 10.16 0 0 0 3.86 2.86c2.35.93 4.7 1.16 6.1-1.9.45-1 1.77-1.57 2.69-2.35z" class="E"/><path d="M472.39,461.74a29.59,29.59,0,0,0-1-3.89c-3.14-7.8-6.68-15.45-9.36-23.39-1.09-3.23-.68-7.11-.32-10.63.3-2.82,2.81-2.74,4.91-2,10.09,3.42,14.58,10.85,13.85,21.43-.2,2.93,1,6.16,2.22,8.93A104.64,104.64,0,0,0,489.31,464c1.55,2.49.51,8.16-2.22,9.35a3.54,3.54,0,0,1-3.09-.57c-2.61-2.38-5-5.05-7.49-7.53-1.27-1.24-2.7-2.32-4.06-3.47Z"/><path d="M515.89 334.82l-1.48 3.28c10.54-2.3 14.67 5.06 20.3 11.83a26.58 26.58 0 0 1-12.8-1c-1-1.7-1.6-4.26-3.06-4.92-2.76-1.25-6.22-2.93-8.67 1-.34.4-1 .88-1 1.19a90.05 90.05 0 0 1 2.4 22.44c0 1.41 1.2 2.87 1.85 4.31a86.67 86.67 0 0 1-8.73 3.6c-.6.19-2.41-1.42-2.6-2.4a51.83 51.83 0 0 1-.53-7.9c-.2-5.3-.28-10.46-4.3-14.83-2.6-2.82-.26-6.17.75-9.1.65-1.88 2.05-3.5 3.13-5.27.2 0 .52-.09.63 0 4.69 4.62 4.65 4.58 9.79.3a31.1 31.1 0 0 1 4.32-2.53zm-142.06 96.32l.25 1.33c-.72 2.62.5 4.29 2.69 5.48h0a19.06 19.06 0 0 0 8.78 12.62c4.93 3.21 11.95-.53 14-7.33 1.12-3.83 1.41-7.91 2-11.89.7-4.47 1.2-4.81 5.6-3.71l.22 4.13c-1.34 2.19-1.11 4.09 1.06 5.62l-.28 5.09-1.31 1.88-4.44 6.29a98.25 98.25 0 0 1-9.93 5.37 8 8 0 0 1-5.94.14 133.44 133.44 0 0 1-16.43-9.52c-3.43-2.38-6.19-5.75-9.05-8.86a3 3 0 0 1-.06-2.92c5.08-4.72 8.73-10.11 8.93-17.41l.94.07a41.87 41.87 0 0 0 .35 4.63 48.58 48.58 0 0 0 1.31 4.68l.34 2c.35.76.66 1.53.97 2.31zm-9.5-71.14a8.39 8.39 0 0 1 0 2.35c-2.05 7.24-.05 13.17 5.69 17.91 2.41 2 3.77 1.77 5.09-1.07 1.05-2.26 1.77-4.68 3.44-6.95a16.6 16.6 0 0 1-.44 3.62c-1.74 5.16.26 9.45 2.93 13.63.18.29.4.57.56.87 2.24 4.19 1.17 5.86-3.49 6.09-7.1.35-12-4.11-17.39-7.52a18.54 18.54 0 0 0-5-2.25 56.87 56.87 0 0 0-6.92-.95 24.58 24.58 0 0 1 2.47-3.06c4-3.41 6-8.05 7.91-12.77 1-2.54.7-4.75-1.23-6.28-3.19-2.52-6.72-4.63-10.08-6.95a10.28 10.28 0 0 1-1.36-1.36c4.93-1.67 9.14-.78 12.07 3.74 1.69 2.57 3.42 3.13 5.75.95zm-70.22 62.07v-1.39a23.6 23.6 0 0 1 1.6-2.88c.85-1.16 1.7-2.84 2.86-3.14 3.44-.91 5.87-2.58 6.92-6.05a19.87 19.87 0 0 1 .79-1.92l1.32.89a38.88 38.88 0 0 1-1.52 4.95c-3.27 7.1-2.5 14.45-1.48 21.81a3.37 3.37 0 0 0 .93 1.79c5.46 5.34 13.73 6.24 19.94 1.35 4.49-3.53 8.25-8 12.18-12.22.88-.95 1.14-2.47 1.69-3.73h.05c1.29-1.65 3.23-3.13 3.74-5 1.34-4.88 2.05-9.93 3.17-15.73.3 2.87 1.15 5.33.67 7.49-1.2 5.36-3.07 10.56-4.56 15.86-.75 2.69-1.81 5.47-1.71 8.18.15 3.9-1.7 6.47-4.75 7.68-6.16 2.44-12.55 4.32-18.89 6.28a61.43 61.43 0 0 1-8 1.8c-1 .17-2.73.13-3.19-.5-3.09-4.19-7-8.07-6.9-13.85l3.95 5.83c-.51-4.87-.84-9.8-1.63-14.66-.29-1.77-1.57-4.71-2.58-4.79-3.13-.25-2 2.79-2.43 4.63l-.15.67z" class="E"/><path d="M344.83 391.12c6.1 1.68 11.22 3.23 15.24 7.89 2 2.28 5.78 3 8.82 4.3 4.11 1.72 4.9 3.87 1.48 6.81-3.8 3.25-6.05 7.43-8.71 11.41-1.82 2.72-4 3.21-6.84 1.55-4-2.29-6.93-5-6.11-10.38a31.37 31.37 0 0 0-3.21-19.29 17.08 17.08 0 0 1-.67-2.29zm130.36-6.18c2 .47 3 1.16 2 3.58a74.48 74.48 0 0 0-3.22 9.59 8 8 0 0 0 .08 3.61 20.61 20.61 0 0 0 1.19 2.86c2.24 6.2 1.65 7.2-4.64 9.58-2.75 1-5.29 2.62-8.44 4.21a14.85 14.85 0 0 1-.62-3.33c.31-5.2-1.64-9.62-4.43-13.82-3.37-5.08-3.34-5.1 1.57-8.31l2.71-.91 1.51-.93 10.26-4.73.67-.45zm-84.96 12.85h6.52l19.85-1.83c2.26-.14 4.58.67 6.86 1l-2.12 6.6c-2.4 6.48-8.17 9.36-13.68 12.4a4.8 4.8 0 0 1-4.09-.12c-4.2-2.61-8-5.57-9.11-11-.46-2.34-2.55-4.36-4.23-7.05z"/><path d="M402.07 363.25c-.51.72-1.57 1.56-1.44 2.14 1.1 5-2 8.53-4 12.5a56.31 56.31 0 0 0-3.56 9.22c-.21.7.92 2.3 1.81 2.72 5.5 2.66 11.46 2.73 17.32 2.08 4.44-.5 8.77-1.91 13.15-2.91 1.06 2.43 0 3.4-2.37 3.67-8.23.95-16.44 2.24-24.7 2.79-3.45.23-7.1-.74-10.47-1.79-3.05-.95-1.78-3.52-1-5.54s1.64-3.71 2.47-5.56l.32-1.43 6.64-9.28a23.88 23.88 0 0 0 1.44-3.51c2.63-5.76 1.47-7.44-4.62-9.31-6.51-2-12.64-1-18.94.51-1.32.32-2.88-.36-4.33-.58 2.16-.26 2.89-1.55 3.44-3.62.59-2.22 2.05-4.21 3.14-6.3l3 .16-1.54 4.4a8.43 8.43 0 0 0 2.54.24c5.07-1.26 10.09-2.27 15 .69a2.05 2.05 0 0 0 1.37.1c4.22-1 6.69 1.59 9.06 4.4a4.36 4.36 0 0 0-3.73 4.21z" class="E"/><path d="M331.72 379.7c2-5.43.91-11.19 5.3-15.74 2.39-2.47 4.53-3 6.84-1.57a47.9 47.9 0 0 1 9.15 7.66c2.4 2.61 1.76 7.51-1.36 9.8-3.5 2.56-7.58 4.79-8.72 9.85-.54 2.37-7.11.82-8.68-2.37-1.2-2.42-1.74-5.17-2.53-7.63z"/><path d="M299.8 366l.82-.77.54-.54a74.93 74.93 0 0 0 2.51-8.63c.58-3.34 1.22-6.48 4.17-8.59 1.83.61 1.77 1.67 1 3.2-3.39 6.6-3.76 13.17.54 19.58 1.68 7.6 9.91 13.08 16.7 11.13.55-5.68-6.4-11.33-13.84-11.56l15.55-4c.47-.11 1.78 1.3 1.85 2.08a20.19 20.19 0 0 1-.24 6.21 15.4 15.4 0 0 0 1.34 10.75 6.59 6.59 0 0 1 .2 2.68c-5.51-1.29-10.53-3.08-15.67-3.49s-7.61-3.28-10.17-6.73c-2.22-3-3.63-6.85-8.12-7.32l1.87-3c.29-.3.62-.63.95-1zm59.54-25.94c-1-4.86-4.19-8.19-8.13-10.66-2.61-1.64-6-.19-8.28 2.1-1.65 1.67-2.12 5-5.79 4.45-.45-.07-1.48 2.33-1.92 3.69-.64 1.94-1 4-1.44 6q-2.14-5.06-4.28-10.12c0-.49.07-1 .11-1.47l1.29-.2.52-.12h.07c5.09-.46 5.83-1.56 4.59-6.81l3.57 6.27 5.35-7.69c1.11-1.54 1.28-2.91-.19-4.27l4.6 2.29c1.09.77 2.09 2 3.28 2.21a24.72 24.72 0 0 0 6.2.05c3.33-.26 5.27.63 6.1 4.35.68 3 2.64 5.8 4 8.68.73 3.1 1.92 5.72 5.6 6.33.76.12 1.37 1.22 2 1.87-3.07.71-6.13 1.52-9.23 2.09-1 .18-2.89 0-3.05-.53a50.19 50.19 0 0 1-1.69-7.42 22.91 22.91 0 0 1 0-3.53zM267.62 309l19.6-1.65c.7-.06 2 .33 2 .6.13 1.41.36 3.08-.24 4.25-1.69 3.26-3.92 6.24-5.65 9.49a68.14 68.14 0 0 0-3.77 8.68c-.55 1.5-1.24 2.57-2.61 1.32-5.48-5-10.42-10.43-12.8-17.69 1.44 1.72 2.82 3.51 4.38 5.12a3.1 3.1 0 0 0 2.33.84c.4-.05.88-1.28.91-2 .23-3.69-.36-7.11-4.15-8.96zm191.47 102.86c0 1.28.33 2.66 0 3.81-1.54 4.67-3.07 9.38-5.06 13.86-1.05 2.36-3.44 3.29-6.18 2.61l-22.79-5.7a11.63 11.63 0 0 1-3-.94 29.92 29.92 0 0 1-3.26-2.39c.91-.9 1.88-1.75 2.72-2.71 1.28-1.47 2.56-3 3.7-4.53 1.42-1.94 2.63-2.41 4.77-.64 5 4.16 10.29 8 15.47 12 2.93 2.25 5.54 1.59 7.4-2.27s3.37-8.06 5-12.09a7.56 7.56 0 0 1 .61-1.07z" class="E"/><path d="M359.34 340.06l3.33-2.49a22.91 22.91 0 0 0 0 3.53 50.19 50.19 0 0 0 1.69 7.42c.16.49 2.05.71 3.05.53l9.23-2.09-.33 2.09c-1.09 2.09-2.55 4.08-3.14 6.3-.55 2.07-1.28 3.36-3.44 3.62l-3.44.08-1.64.7a1.31 1.31 0 0 0-.34.24c-2.33 2.19-4.07 1.63-5.75-.95-2.93-4.52-7.14-5.41-12.07-3.74 1.34-1.35 2.79-2.62 4-4.08 3.02-3.67 5.91-7.44 8.85-11.16z" class="F"/><path d="M311.93 367.38c-.79-.37-2.38-.61-2.63-1.32a4 4 0 0 1 .66-3.39q6-6.44 12.34-12.51a3.34 3.34 0 0 1 5.47 1.22 58.51 58.51 0 0 1 2.84 7.79c.63 2.17-.14 4-2.51 4.55-5.25 1.28-10.53 2.39-16.17 3.66zm137.64 51.34l-2.23 5.62c-1.84-1.21-4.45-2-5.39-3.69a184.28 184.28 0 0 1-7.95-16.83c-.47-1.09.14-2.63.26-4l3.49.64c9 2.35 11.22 9.07 11.14 17.28v.69zm-20.34-27.24c-3.75-4.39-3.1-7.54 1.19-9.73s8.28-4.46 12.46-6.61a9.22 9.22 0 0 1 3.26-1c3.73-.35 4.64.87 3.43 4.37a14.91 14.91 0 0 1-.76 2.64c-1.06 1.76-2.29 3.42-3.46 5.11-1.77 2.54-3.67.35-5.2-.16-3.78-1.26-6.75-1-8.87 2.72a24.63 24.63 0 0 1-2.05 2.66zm66.03-4.11c6 .76 13.33 5.44 14.81 9.91 1.11 3.34-.35 5.34-3.67 4.29a71.17 71.17 0 0 1-13.21-5.57c-1.65-.92-2.36-3.53-3.5-5.38zm-158.89-37.96c0-3.86 0-7.65 3.61-10.27 2.33-1.7 4.16-1.46 5.79 1 4.1 6.15.69 15.49-6.38 17-.73.15-2.33-1-2.54-1.87a30.19 30.19 0 0 1-.48-5.86zm136.3-39.32l-.18-6a13.09 13.09 0 0 0 1.44-3.39c.34-2.91 1.71-2.88 3.74-1.62.19.12.41.21.61.32 7.67 4.2 8.8 6.94 3.43 15.1-2 .8-3.72.56-5-1.38l-2.4-1.31-.28-.17zm-83.1 71.05l-.32 1.43-1.53.69-3.5 1.25a26.1 26.1 0 0 1-1.33-4.79c-.27-3.1.09-6.29-.37-9.36-.5-3.31.12-4.44 3.55-4.53 6.74-.18 8.54 2.37 6.12 8.66l-2.62 6.65z"/><path d="M475.19 384.94l-1.38.95-.67.45-10.26 4.73-1.51.93-2.71.91c-.94-.76-1.84-1.32-.25-2.53 4.16-3.17 7.83-6.76 10-11.7.4-.88 2.4-1.38 3.69-1.44s2.37.89 3.61 1.09c2.16.35 4.36.47 7.23.75a23.91 23.91 0 0 1-2.68 2.61c-1.59 1.19-3.36 2.18-5.07 3.25z" class="E"/><path d="M312.21,369.86c7.44.23,14.39,5.88,13.84,11.56-6.79,1.95-15-3.53-16.7-11.13Z" class="F"/><path d="M449.46 360.67c-1.15-3.28-2.37-6.54-3.38-9.86a2.49 2.49 0 0 1 1-2c2.78-2.12 5.7-4 8.49-6.16.54-.41.71-1.31 1.06-2 3.79 2.72 3.86 3.78.12 6.08s-5.46 5.8-6.31 9.91l-.98 4.03zm21.69-72.07c-.34-2.28-1.06-4.05-3.93-2.88 1.49-2.16 3.13-1.86 4.7-.19 1 1.05 1.79 2.27 2.68 3.42.8 2.5 2.62 3.54 5.14 3.72 2.73.19 5.56.12 8.15.83 2.29.64 4.31 2.2 6.45 3.36-.78 4-1.67 4.69-5.19 3.25a86.09 86.09 0 0 1-12-5.61c-2.36-1.4-4.03-3.9-6-5.9z" class="E"/><path d="M296.08 425.37l.15-.67c.39-1.84-.7-4.88 2.43-4.63 1 .08 2.29 3 2.58 4.79.79 4.86 1.12 9.79 1.63 14.66l-3.95-5.83-2.84-8.32zM267.62 309c3.79 1.86 4.34 5.28 4.2 9 0 .72-.51 1.95-.91 2a3.1 3.1 0 0 1-2.33-.84c-1.56-1.61-2.94-3.4-4.38-5.12l-2.3-4.36 1.71-1.55zM317 334.7h-2.95l-3.88-2.21 1.09-1.87 1.52-.62 7-1.93 4 3.22h.33l.29-.17.28 2.77zm12.5.8q2.13 5.07 4.28 10.12l.68 5-3.15-1.62q-1.17-2.12-2.36-4.23l-1.4-9.12z" class="F"/><path d="M465 345.58c2.93.72 3.84 3 4.12 5.6.36 3.38.6 6.79.89 10.18-4 .62-4.47.22-4.58-3.7l-.43-12.08zM506.55 304c2.84-.13 6.13-1.62 7.72 2.26.78 1.89.73 3.58-1.72 4.38-1.82.58-3.55 1.42-5.32 2.15q-.33-4.39-.68-8.79zm-179 31.63l1.4 9.12c-.5-.44-1.25-.78-1.46-1.34-1.44-3.76-3.95-6-8.07-6.6-.88-.12-1.61-1.38-2.4-2.11l7.64-.83.76-.12zm-16.27-5.05l-1.09 1.87 3.88 2.21a62 62 0 0 1-6.69-.27c-.67-.1-1.18-1.28-1.77-2l2.9-1.75zM165 203.85l3.94 7.31c-5.81-.01-3.34-4.49-3.94-7.31zM331.31 349l3.15 1.68.63 2.23-1.25.61q-1.26-2.28-2.53-4.52zm-67.7-40.92l-1.71 1.55-2-3.3 1-.81zM171 214.46l3.43 4.94zm328.28 91.05l5.34-1.36zm-330.19-94.07l1 1.83zm195.59 148.31l1.64-.7zM464.32 236l-1.63-3.47a6.46 6.46 0 0 0 .36-.8l1.79-5.09c-1.92-.09-3.91-.53-5.74-.17s-3.25 1.55-4.92 2.25a5.49 5.49 0 0 1-2.59.51l-13.65-1.75-8.32-10.15c.35-.29.82-.5 1-.87q5.76-10.38 11.41-20.81a13.66 13.66 0 0 0 .85-3.12 14.78 14.78 0 0 0-3.55-.2c-.81.14-1.51 1-2.24 1.48l-9.36 6.95-2.33-16.42c-.11-1 .84-2.83 1.53-3 2.8-.47 3.65-2.55 4.71-4.61l2.58-4.51c2.24-3.7 4.17-7.41 3.09-12-.25-1.1.59-2.46.93-3.7l2.91 2.07 6.48 4.36 6.7 4.69a39.51 39.51 0 0 0 4.31 2.72c2 1.06 2.47 2.19 2 4.69-1.11 5.54-4.93 8.9-8.4 12.77a36.44 36.44 0 0 0-9.46 20.59c-.21 1.9-.67 3.76-1.07 6a17.23 17.23 0 0 1 2.5-.16c2.57.23 5.14.5 7.7.83 2 .26 4.06 1.11 6 .84 3-.42 3.59-2.25 2.55-5.09a42.79 42.79 0 0 1-2.46-7.91c-.62-4.06 2.33-6.18 6.07-4.45a100 100 0 0 1 11.15 5.83c1.37.86 2.16 2.74 3 4.27s1.58 3.28 2.35 4.94c1.13 2.45 2.13 5 3.42 7.32a45.51 45.51 0 0 0 3.67 4.85c-.89 6.05-3.14 7.84-10.12 8.27-4.44.26-8.82 1.31-13.22 2.05zm-35.08-1.55c-1.48.52-3.3.67-4.36 1.64-2.92 2.65-6.26 2.65-9.07-.21-4.81-4.88-5.81-10.24-2.48-16.24 1.3-2.31 0-4-1.39-5.13-1-.81-2.76-.84-4.18-.83a32.24 32.24 0 0 0-4.75.71c-2-3.81-2-3.87 3-5a30.93 30.93 0 0 0-1.06-3.08 28.85 28.85 0 0 1-2.27-16.57 5.39 5.39 0 0 1 2.66-3.7c2.05-.83 3.28.69 4.53 2.57 3.34 5 7.19 9.76 10.72 14.68.79 1.1 1 2.59 1.61 3.84.73 1.58 1.58 3.1 2.37 4.64l3.22-2.41-.39 5.6-5.3 1.57a11.43 11.43 0 0 0-7.54 10.47 17.46 17.46 0 0 0 2-1.34c3.19-2.92 4.37-2.71 6.75.79.93 1.39 2.52 2.32 3.53 3.67a33.7 33.7 0 0 1 2.4 4.33zm46.2 25.22c.2-2.91-1.35-4-4-3.66-3.56.39-6.09-1.34-8.45-3.75-3-3.08-6.23-6-9.61-9.21a13.11 13.11 0 0 1 8.12-5.59c1.38 3.39 2.56 6.88 4.21 10.13 1.76 3.49 5.36 3.48 9.31 4.06v-7.79l1.44-.53c1.74 2.79 4.42 5.39 5 8.4.7 3.92-2.71 6.27-6.02 7.94z" class="E"/><path d="M427.44 215l.39-5.6q0-4.32-.08-8.64l9.36-6.95c.73-.53 1.43-1.34 2.24-1.48a14.78 14.78 0 0 1 3.55.2 13.66 13.66 0 0 1-.85 3.12q-5.62 10.45-11.41 20.81c-.2.37-.67.58-1 .87zm35.39 56.42c-1 1.54-1.71 3.37-3 4.51a6 6 0 0 1-4.3 1.34c-3.61-.61-4.23-3.1-1.59-6.28l-3.09-5.92 1.08-.65 3.31-.71 2.9-.41 5 6.76z" class="G"/><path d="M400 219.52l-13.62 4.65c.3-1.27.26-3.38.95-3.66a59.4 59.4 0 0 1 10.05-2.95c.7-.14 1.73 1.27 2.62 1.96zm84.79 37.78c-.84 1.27-1.41 2.92-2.57 3.73-4.13 2.92-8.71 4.85-13.92 4.75.4-.76.77-2.15 1.2-2.17 5.88-.28 10.5-3.45 15.29-6.31zm-80.39-27.64a56 56 0 0 1-3.22 5.84c-.43.61-1.81.54-2.76.78a7.34 7.34 0 0 1-.31-2.77 15.78 15.78 0 0 1 1.8-3.25zm58.73 40.4l-5-6.76c1.6.38 4 .28 4.61 1.27.81 1.43.32 3.62.39 5.49zm-13.3-7.7l-.52-4.39c-.56-2.92.59-4.32 3.53-4.29q-1.51 4.32-3.01 8.68zm5.37 1.35l-3.31.71zM405.09 227a.69.69 0 0 1-.13.55c-.16-.22-.12-.4.13-.55z" class="E"/><path d="M347.38 254.52c-2.94 1.73-6 3.3-8.8 5.25-2.11 1.48-4 2.2-6.17.41l-.74-1.27-.12-.22-.36-.6-.13-.22-.12-1.19c-1.59-1.85-3.11-3.76-4.79-5.52a38.47 38.47 0 0 0-3.78-3c5.52-3.84 9.67-8.66 16.88-10.59-.39 2.63-.8 4.57-.92 6.53-.09 1.4-.31 3.33.45 4.1s2.68.38 4.09.44l6.89.2z"/><path d="M427.44 215l2.18 2.33 8.32 10.15 1.71 9.81c-1.36.26-2.9.22-4 .87a21.92 21.92 0 0 0-3.81 3.37c-1.53 1.43-2.58 1.14-3.18-.85l.63-6.19a33.7 33.7 0 0 0-2.41-4.38c-1-1.35-2.6-2.28-3.53-3.67-2.38-3.5-3.56-3.71-6.75-.79a17.46 17.46 0 0 1-2 1.34 11.43 11.43 0 0 1 7.58-10.42l5.26-1.57zm-4.9 30.45a73 73 0 0 1 7.22 3.21c1.2.68 1.92 2.18 3 3.18l4.88 4.32.11.16 3.24 5.45c-.59.79-1.1 2.18-1.78 2.27-4.12.52-8.27.75-13.09 1.13a83.91 83.91 0 0 0 2.31-8.08 4.59 4.59 0 0 0-1-3.32c-.27-.33-2.06.27-2.91.83a61.88 61.88 0 0 0-5 4.13l-.51-9.15c-.24-2.68.63-4.22 3.53-4.13z" class="F"/><path d="M422.54 245.45c-2.9-.09-3.83 1.43-3.6 4.13l.51 9.15a61.88 61.88 0 0 1 5-4.13c.85-.56 2.64-1.16 2.91-.83a4.59 4.59 0 0 1 1 3.32 83.91 83.91 0 0 1-2.31 8.08c4.82-.38 9-.61 13.09-1.13.68-.09 1.19-1.48 1.78-2.27l1.76 3.44a11.59 11.59 0 0 1-3.33 1.22c-2.94.13-5.9-.19-8.83 0-1.31.07-2.57.86-3.86 1.32l-6.09-1.39c.27 3.14 1.48 4.16 3.92 3.65-.52 3.09-1.5 5.86-4.86 7l.05-3.54-.84-4.82-.15-1.11-1.69-2.8c1-1.79 3-3.56.14-5.45-.22-3.41-.62-6.83-.58-10.24 0-1.44.54-3.55 1.53-4.1s2.91.27 4.45.5zm-47.39 32.13l.22-6.74c.54.41 1.12 1.18 1.61 1.13a9.51 9.51 0 0 0 4.26-1.1c.42-.27.06-2.54-.59-3.42a40.3 40.3 0 0 0-4.46-4.5 3 3 0 0 1 .68.09c5.86 2.21 5.85 2.21 7.29-4.24a15.72 15.72 0 0 1 1.06-2.2l4.59 7.26c.59.89 1.33 1.67 2 2.51l1.6 3.24c-2.13-.26-4 .57-3.71 2.72.18 1.25 2.12 2.35 3.42 3.32A13.93 13.93 0 0 0 396 277c-2.26 2.11-4.5 4.28-7.93 2.22-.44-.79-1-1.56-1.33-2.38-1.9-4.16-4.61-4.53-7.68-1l-3 3.19z" class="E"/><path d="M417.1 259.29c2.83 1.89.85 3.66-.14 5.45l-2 1.55-3.55 2.55-.68-6.66-7.21 4.38-.74.49c-4.36.39-3.54-3.09-3.75-5.4-.4-4.39.87-5.53 5.24-5.62 1.92 0 3.84-.32 5.76-.49zM393 240.65c4.56-2.29 15.47-1.77 19.66 1-1.28 4-1.86 8.42-6.26 10.83l-3.3-10.34h-1.52l-1.71 6.63c-4.6-.77-5.71-4.47-6.87-8.12zM424.53 270c-2.44.51-3.65-.51-3.92-3.65l6.09 1.39 1.31.48 7 4.72 1.78 1.95a14.66 14.66 0 0 1-1.09 3.13 11.17 11.17 0 0 1-2.16 2.06l-.21.06-7.66 1 .39-8.51c-.01-.91-.99-1.78-1.53-2.63z" class="F"/><path d="M437.61,256.16c-.08-3.61-.06-7.23,2.86-9.92,1-1,2.36-2,3.61-2.12.7,0,1.56,1.84,2.27,2.9,2.67,4-.31,7.79-.41,11.69a4.17,4.17,0,0,1-2.84.52,43.8,43.8,0,0,1-5.38-2.91Z"/><path d="M396 277a13.93 13.93 0 0 1-2.91-1.3c-1.3-1-3.24-2.07-3.42-3.32-.31-2.15 1.58-3 3.71-2.72l1.53.13 2 .18 1.22.12q2 2.23 3.88 4.49l-1.95 3.73-3.71.62z" class="F"/><path d="M428.61,240.64c.6,2,1.65,2.28,3.18.85a21.92,21.92,0,0,1,3.81-3.37c1.15-.65,2.69-.61,4-.87-.57,6.5-9.33,10.58-16,7.06Z" class="E"/><path d="M439.93,276.87l-2.06-2.13q-1.08-2.64-2.14-5.28c5-2.06,8.16-1.19,9.45,2.52a.39.39,0,0,0,.3.41l-1,1.82a.31.31,0,0,0-.47,0l-.53,1.38a5.68,5.68,0,0,0-.28.55Z"/><g class="E"><path d="M402 274.52l-3.86-4.52-.66-9.22c-.32-5.37.62-6.45 5.91-6.28a53.44 53.44 0 0 1 6.62 1l-5.76.49c-4.37.09-5.64 1.23-5.24 5.62.21 2.31-.61 5.79 3.76 5.4 1.23 2.67 1.15 5.18-.77 7.51zm-9-33.87c1.19 3.65 2.3 7.36 6.87 8.16v1.56l-.33.33c-2.81-1.6-6-2.78-8.33-4.9-2.98-2.64-2.35-3.87 1.79-5.15zm42 32.27l-7-4.72c3.79-.58 5.8 1.48 7 4.72zm-38.08-3l-2-.18z"/><path d="M330.94 256.68l.12 1.19-.74-1zm68.86-6.31l-.33.33z"/></g><path d="M299.12 226.7a78.12 78.12 0 0 1-2 8.47 3.14 3.14 0 0 1-2.8 1.23 116.19 116.19 0 0 1-12.19-4.35c-.69-.3-1-2.22-.9-3.31.07-.65 1.33-1.27 2.16-1.71l7-3.39c1.92-.79 4.33-2.23 5.84-1.64s2.13 3.35 2.89 4.7zm203.79 37.68a6.76 6.76 0 0 1-2.54-.21c-5.26-2-6.19-2.5-3-7.36a15.71 15.71 0 0 0 1.66-4.43c.85-3.07 4.12-4.28 6.42-2.23a14.83 14.83 0 0 1 4.81 10.38c.22 2.68-1.94 3.85-7.35 3.85z"/><path d="M482.88 276c1.94-2.5 6.69-3.8 9.09-2.17a4.2 4.2 0 0 1 1.6 3.26 10.55 10.55 0 0 1-5.76 8c3-4.86 1.06-7.09-4.93-9.09zm4.79-7.34c-2.55 2.42-5.19 4.74-7.58 7.3-.84.9-2.27 2.51.29 3.43l-1 3.82c-.8-.95-2.14-1.79-2.33-2.85-.81-4.36 6.13-11.88 10.62-11.7zm-22.9 18.21l-4.49.09z" class="E"/><path d="M510.18,345c2.45-3.92,5.91-2.24,8.67-1,1.46.66,2.07,3.22,3.06,4.92Z" class="G"/><path d="M336.18 223c-2.58.12-5.77-1.06-6.48 3-.78-1.33-2.5-3.5-2.18-3.86 1.17-1.31 3.11-2.9 4.59-2.74s2.72 2.29 4.07 3.6zm3.56 59l9.31-7.33c1.59-1.26 2.51-4.13 5.39-2.17-3.53 4-6.8 8.3-10.7 11.91-1.94 1.84-3.31-.41-4-2.41zm17.51-9l.59.33zm-40.11-18.69l-2.33 2.39zm4.86 2.6l-1.08-1.82zm9.67 2l.74 1.27-.41.71zm-.48-.82l.36.6zm37.61-14.44l-.39.45zm2.89 22.2l-1 .59z" class="E"/><path d="M376.08 278.94l3-3.19c3.07-3.49 5.78-3.12 7.68 1 .38.82.89 1.59 1.33 2.38l.07 1.76a6.22 6.22 0 0 1-5.38 3.72 14 14 0 0 0-5.55 1.79 4 4 0 0 0-1.52 3.38c.95 3.68.43 5.79-2.66 7.88l-3 1.95c3.72 2.24 6.13.75 8.59-1.25 1-.78 2.73-1.84 3.46-1.47a71.28 71.28 0 0 1 7.55 5l.15.24a38.74 38.74 0 0 1-2.53 6c-1.06 1.68-2.1 3.1-.79 5.67l7.52-10.09 9.34 2.56-1.33 5.54c-2.07 1.27-5.14 2.2-5.26 3.41-.34 3.5.52 7.11 1 11.51 1.7-2.17 2.81-3.47 3.79-4.86 2.5-3.52 5.94-6.31 7-11 .55-2.48 2.72-4.61 4.16-6.9 5.49-1.44 5.49-1.42 8.26 3.63.88 1.6 1.93 3.1 2.9 4.64-1.59 1.28-5.51-.45-4.87 3.74v2.43l.56 1.34 1.23 9.22 1.3.16 2.17-9.06 2-7.69-1.74-5.23c2.8.53 5 .45 6.63 1.37 2.5 1.42 4.49 3.69 6.89 5.31 3.15 2.12 3.73 3.45 1.64 6.74-1.33 2.1-1.24 3.8.23 5.63.72.9 1.38 1.84 2.07 2.76-3.27 1.72-6.64 3.28-9.76 5.24-1.91 1.19-2.84 3.08-.78 5.15l2.12 8.32c-5.22-2.55-10.62-.84-15.84-.31s-11.07 7.12-10.88 11.38l-1.08.26c-2.37-2.81-4.84-5.39-9.06-4.4a2.05 2.05 0 0 1-1.37-.1c-4.88-3-9.9-2-15-.69a8.43 8.43 0 0 1-2.54-.24l1.54-4.4 3.66-5.06c2.34-3.31 5-6.46 6.92-10 1-1.74-.44-3.37-2.52-2.46-2.45 1.07-3.45.31-4.49-1.87a4 4 0 0 0-5.12-2.42c-2.16.61-3.26-.45-3.56-2.54l5.93-5.77c1.09-1.29 3.35-3.3 3.07-3.75a44.71 44.71 0 0 0-6-7.3c-.29-.3-1.73.5-2.63.78q-1.58 6.16-3.31 12.22c-.48-1.84-1.51-3.73-1.34-5.51.6-6.34-.33-7.68-6.67-8.63a50.85 50.85 0 0 1-6-1.71 25.8 25.8 0 0 1 3.06-2.34c5.1-2.63 6.84-5.72 5.8-11.46-.53-2.95.17-4.08 3.18-5.17 2.35-.85 4-3.7 5.93-5.65zm27.54 66.91c.88-.46 1.43-.56 1.59-.86 1.84-3.59 3.69-7.18 5.36-10.85a3.19 3.19 0 0 0-.36-2.55c-2.37-3.66-8.83-3.8-11.55-.34-1.67 2.13-.65 4.64 1.82 6a8.39 8.39 0 0 1 3 3.94c.52 1.19.14 2.71.14 4.66z" class="F"/><path d="M311.28 330.58l-2.77.09c2.68-3.18 6.24-5.52 7.67-9.91.55-1.69 3.57-2.62 5.52-3.8 3.2-1.92 7.07-3 8.78-7.88-4.27.52-8.17 1.33-12.08 1.4-4.07.07-7.75.82-11 3.23 2.88-3.77 5.55-7.75 8.8-11.17.81-.86 4.38-.68 5.13.26 2.93 3.7 6.27 1.7 9.51 1.41.66-.06 1.27-.6 1.93-.72 1.69-.32 3.39-.53 5.09-.78-.33 2.17-.36 4.46-1.1 6.49-.5 1.38-2 2.41-3.07 3.6l-.66.42-4.16 2.12-.89.58c-3.2 1.13-6.71 1.84-7.13 6.25-.07.73-1 1.43-1.68 2l-6.32 5.75zM299.8 366l-1 1a11.79 11.79 0 0 0 1-1zm1.36-1.27l-.54.54zm107.3 72.69c-2.17-1.53-2.4-3.43-1.06-5.62l1.06 5.62zm-1.59 6.97l1.31-1.88-1.31 1.88zM405.76 359l1.08-.26c2.68-2.53 5-5.7 8.13-7.38 2.5-1.34 6-.93 9-1.08.33 0 1.18 1.53 1 2.16-1.16 4.67-2.52 9.3-3.81 13.94l-3.62-.82c-1.22-.11-2.59-.63-3.63-.25-2.62.95-5.09 2.3-7.62 3.49l-4.26-5.59a4.36 4.36 0 0 1 3.73-4.21z" class="G"/><path d="M406.33 368.84l7.62-3.49c1-.38 2.41.14 3.63.25l1.79 8.38a56 56 0 0 1 .35 5.67l-.86.4z" class="E"/><path d="M423.8 312.28l-2.9-4.64c-2.77-5.05-2.77-5.07-8.26-3.63l-2.16.38-7.17 1.88-9.31-2.56-4.13-1.56-.15-.24c.62-.83 1.72-1.63 1.76-2.49a16.35 16.35 0 0 0-.69-5.87c-.19-.55-2.16-.52-3.81-.86v-4.59l6.12 2.69.89-1-3.2-3.83-.09-1.49-2.5-3.57-.07-1.76c3.43 2.06 5.67-.11 7.93-2.22l.32 1.93c-.18.87-.83 2.11-.48 2.56a38 38 0 0 0 5.73 6.15c.73.59 2.52-.13 3.82-.25a11.59 11.59 0 0 0-1-3.36c-1.31-2-2.91-3.83-4.39-5.72l1.95-3.73c1.9-2.34 1.94-4.85.75-7.48l.73-.49a36.11 36.11 0 0 0 4.25 2.16 49.71 49.71 0 0 0 5 1.29c-.48.59-.87 1.58-1.44 1.7-2.25.47-2.07 2-1.91 3.63-1.61.61-2.18 1.54-1.11 3.15a65.48 65.48 0 0 0 3.71 5.79c2.42 2.94 3.51 5.67.1 8.61-.21.18 0 .81 0 1.49a6.21 6.21 0 0 0 2.07-.47l19-13.14c.14-.1.12-.43.17-.65l.21-.06.34.08 6.19 1.08q-1.2 3.67-2.39 7.36a5.68 5.68 0 0 0-.13.71l6.72 6.46-6.45 2.18c-1.09-2.48-.58-5.86-4-7.06l-.45-.76-.85-2c-2.34-2.65-3.8-1.34-5 1.12l-1.92 2.43-1 1.33-2 2.59.93 4a21.27 21.27 0 0 0 .85 2.39c.23.58.39 1.45.82 1.62a1.94 1.94 0 0 0 1.82-.38 2.7 2.7 0 0 0 0-2.07c-.52-1.38-1.24-2.69-1.88-4l9.14 3.87c-1.42 2.4-3.58 4.24-.24 5.81l.95 1c1.56.9 3.07 2.44 4.7 2.56 2.79.22 3.95 1.37 4 4l.3 13.37c0 .43-1.36.85-2.09 1.28l-2.06-2.76c-1.47-1.83-1.56-3.53-.23-5.63 2.09-3.29 1.51-4.62-1.64-6.74-2.4-1.62-4.39-3.89-6.89-5.31-1.63-.92-3.83-.84-6.63-1.37l1.74 5.23zm-6.72-15.43l-5.64-.46-5.32-.35 2.66-6.88c-5.42 1.12-5.79 1.42-7.76 4.84a19 19 0 0 1-2 2.37l-2.59 3.18 4.19 2.4a7.85 7.85 0 0 0 1.33.35c5.92 1.86 10.33.45 15.13-5.45z" class="G"/><path d="M437.83 297.94l6.45-2.19 2 3.18 2.46 5 1.66 1.65 4 3.06 4.95 1.28c1.66 2 .83 3.62-.46 5.51-3 4.33-5.63 8.86-8.55 13.23a4 4 0 0 1-2.61 1.61c-.51 0-1.52-1.32-1.63-2.14a56.14 56.14 0 0 1-.31-6.87c0-2.42.27-4.85.07-7.25-.44-5.32-.73-5.46-6-5.62-1.6-.06-3.2-.39-4.79-.59l-.94-1a17.92 17.92 0 0 1 .81-3.38c.81-1.88 1.9-3.66 2.89-5.48zm6.63-23.73l1-1.82c1 .77 2.58 1.31 3.07 2.35a73.17 73.17 0 0 1 4.11 10.59c.45 1.55.39 4.16-.55 5-1.3 1.11-3.69 1.33-5.57 1.23-1.62-.09-3.18-1.17-5.36-2l4.34-7-3.4-.33.87-3.89.7-1.43.79-2.7z" class="F"/><path d="M433.56 347.71l-2.12-8.32q3.65-3 7.31-6l1.2.55c-.87 4.28-1.6 8.6-2.76 12.8-.19.6-2.37.66-3.63.97zm16.85-42.11l-1.66-1.6a19.47 19.47 0 0 1-.59-4.43c.08-1.06.94-2.06 1.45-3.08 1.08.55 3 1 3.09 1.67.41 4.85 4 7.56 6.74 10.85.15.18-.07.65-.11 1l-4.94-1.28zm-6.72-28.76l-.7 1.43-3.06-1.4 3.25-.77zm-94.28 46.63l-4.6-2.29-9-.43 4.1-8.41c3.36 3.65 3.36 3.64 6.85 0l1.71-1.71c5.43-5.39 7.25-5.51 12.65-.44.66.62.68 2.28.48 3.35a13.48 13.48 0 0 1-1.65 3.34l-6.89 4.21-3.45 2.15z" class="G"/><path d="M353.1 321.07l6.89-4.21 5.13-2 1.78 7.79c4.77 2.33 1.55 7.32 2.38 11.25l-.25 4.88c-1.4-2.88-3.36-5.64-4-8.68-.83-3.72-2.77-4.61-6.1-4.35a24.72 24.72 0 0 1-6.2-.05c-1.19-.21-2.19-1.44-3.28-2.21l.24-.24zm-13.1-8.73l-4.1 8.41 9 .43c1.47 1.36 1.3 2.73.19 4.27l-5.35 7.69-3.57-6.27a9.72 9.72 0 0 0-7.37-8.26l-.77-2.69.88-.58 4.17-2.12.66-.42c2.05.43 3.91-3.11 6.26-.46z" class="F"/><path d="M369 338.76l.25-4.88 11.44 4.28c3 1.13 2.7 3.55 2.3 6l-3.66 5.06-3-.16.33-2.09c-.67-.65-1.28-1.75-2-1.87-3.66-.62-4.9-3.24-5.66-6.34zm11.18-19.64l-5.93 5.77-3.79 3.26.81-7.12q1.68-6.09 3.38-12.18c.55 3 1.18 5.85 4 7.69.78.46 1.04 1.7 1.53 2.58zm94.17-7.36l2.4 1.31zm-1.68-1.67l1.4 1.5zM376.77 438c-2.19-1.19-3.41-2.86-2.69-5.48l2.69 5.48zm-2.94-6.86l-.94-2.32.94 2.32zM461.37 392l1.51-.93zm11.77-5.66l.67-.45zm-144.43-67.73a9.72 9.72 0 0 1 7.37 8.26c1.24 5.25.5 6.35-4.59 6.81 2.27-4.69 1.61-7.19-2.28-8.78-2.15-.88-3.51-.59-3.82 2a32.29 32.29 0 0 1-1 4.16l-.29.17h-.33v-4.45c-.2-3.84.66-7.02 4.94-8.17z" class="G"/><path d="M324.38 331.1a32.29 32.29 0 0 0 1-4.16c.31-2.63 1.67-2.92 3.82-2 3.89 1.59 4.55 4.09 2.28 8.78h-.07a.55.55 0 0 0-.52.12l-1.29.2-4.19-.28-.76.12-.27-2.78z"/><path d="M325.42 333.75l4.19.28c0 .49-.08 1-.11 1.47l-1.95.13zm5.48.08a.55.55 0 0 1 .52-.12z" class="G"/><path d="M328.71 318.61c-4.28 1.15-5.14 4.33-4.94 8.2.08 1.48 0 3 0 4.45l-4-3.23-7 1.93 6.33-5.76c.65-.6 1.61-1.3 1.68-2 .42-4.41 3.93-5.12 7.13-6.25l.8 2.66z" class="E"/><path d="M409.41 275.34c-.16-1.63-.34-3.16 1.91-3.63.57-.12 1-1.11 1.44-1.7l2.8-2.87 3.17.33.15 1.11.84 4.82-.05 3.54a30.82 30.82 0 0 1-4.6.1 19.85 19.85 0 0 1-3.78-1.23z"/><path d="M411.29 275.81a19.85 19.85 0 0 0 3.78 1.23 30.82 30.82 0 0 0 4.6-.1c3.36-1.1 4.34-3.87 4.86-7 .54.87 1.52 1.74 1.54 2.62.06 2.83-.24 5.67-.39 8.51l-4 2-7.68-4.13-2.71-3.13zm8.43-2.41l-.84-4.82zm-.99-5.93l-3.17-.33-.62-.85 2-1.55z" class="G"/><path d="M414.94 266.29l.62.85-2.8 2.87a49.71 49.71 0 0 1-5-1.29 36.11 36.11 0 0 1-4.25-2.16l7.21-4.38.68 6.66zm6.77 16.78l4-2 7.66-1c0 .22 0 .55-.17.65l-19 13.14a6.21 6.21 0 0 1-2.07.47c0-.68-.18-1.31 0-1.49 3.41-2.94 2.32-5.67-.1-8.61a65.48 65.48 0 0 1-3.71-5.79c-1.07-1.61-.5-2.54 1.11-3.15l1.88.47 2.71 3.13-2.16 1c.84 1 1.57 2.69 2.53 2.83 2.7.41 2.78 1.84 2.4 3.92a13.52 13.52 0 0 0 .22 2.85l4.66-3.16c1.66-1.01 1.16-2.12.04-3.26zm-21.64-4.81l4.39 5.72a11.59 11.59 0 0 1 1 3.36c-1.3.12-3.09.84-3.82.25a38 38 0 0 1-5.73-6.15c-.35-.45.3-1.69.48-2.56zm43.62-1.42l-.51-.74a5.68 5.68 0 0 1 .28-.55l.53-1.38a.31.31 0 0 1 .47 0l-.77 2.67z" class="E"/><path d="M444,274.17l-.53,1.38Z" class="G"/><path d="M388.17 280.93l2.5 3.57-2.43 1.17 2.52.32 3.2 3.83-.89 1-6.07-2.72v4.59c1.65.34 3.62.31 3.81.86a16.35 16.35 0 0 1 .69 5.87c0 .86-1.14 1.66-1.76 2.49a71.28 71.28 0 0 0-7.55-5c-.73-.37-2.49.69-3.46 1.47-2.46 2-4.87 3.49-8.59 1.25l3-1.95c3.09-2.09 3.61-4.2 2.66-7.88a4 4 0 0 1 1.52-3.38 14 14 0 0 1 5.55-1.79 6.22 6.22 0 0 0 5.3-3.7zm15.14 25.34l7.17-1.88c.71-.18 1.44-.25 2.16-.38-1.44 2.29-3.61 4.42-4.16 6.9-1 4.65-4.48 7.44-7 11-1 1.39-2.09 2.69-3.79 4.86-.47-4.4-1.33-8-1-11.51.12-1.21 3.19-2.14 5.26-3.41.36-1.39.86-3.49 1.36-5.58zm.31 39.58c0-2 .39-3.47-.09-4.62a8.39 8.39 0 0 0-3-3.94c-2.47-1.4-3.49-3.91-1.82-6 2.72-3.46 9.18-3.32 11.55.34a3.19 3.19 0 0 1 .36 2.55c-1.67 3.67-3.52 7.26-5.36 10.85-.21.26-.76.36-1.64.82zm-23.44-26.73c-.49-.88-.75-2.1-1.49-2.58-2.86-1.84-3.49-4.71-4-7.69.9-.28 2.34-1.08 2.63-.78a44.71 44.71 0 0 1 6 7.3c.21.45-2.05 2.46-3.14 3.75z" class="E"/><path d="M419 318.45v-2.43l5.29 4.09-2.17 9.06-1.3-.16-1.23-9.21a7.91 7.91 0 0 1-.59-1.35z" class="G"/><path d="M424.22 320.11l-5.29-4.11c-.64-4.19 3.28-2.46 4.87-3.74l2.46.14zm-34.38-17.96l4.13 1.56-7.45 10.09c-1.31-2.57-.27-4 .79-5.67a38.74 38.74 0 0 0 2.53-5.98zm29.16 16.3l.56 1.35c-.22-.45-.41-.9-.56-1.35zm-86-5.23l-4.17 2.12z" class="E"/><path d="M417.08 296.85c-4.8 5.9-9.21 7.31-15.09 5.45a7.85 7.85 0 0 1-1.33-.35c-1.41-.77-2.8-1.59-4.19-2.4l2.59-3.18a19 19 0 0 0 2-2.37c2-3.42 2.34-3.72 7.76-4.84l-2.7 6.84 5.32.35z"/><path d="M433.41 290.11l.45.76a28.77 28.77 0 0 1 1.13 4.57c.15 1.64-.51 3.29-2.56 2.25-2.7-1.35-5.2-3.14-7.78-4.74l1-1.33 1.93-2.43c1.21-2.46 2.67-3.77 5-1.12z" class="F"/><path d="M424.65 293l7.78 4.74c2.05 1 2.71-.61 2.56-2.25a28.77 28.77 0 0 0-1.13-4.57c3.39 1.2 2.88 4.58 4 7.06l-2.94 5.5a17.92 17.92 0 0 0-.81 3.38c-3.35-1.57-1.19-3.41.23-5.81l-9.14-3.87-2.53-1.59z" class="E"/><path d="M422.64 295.54l2.53 1.59 1.88 4a2.7 2.7 0 0 1 0 2.07 1.94 1.94 0 0 1-1.82.38c-.43-.17-.59-1-.82-1.62a21.27 21.27 0 0 1-.85-2.39l-.92-4.03zM390.76 286l-2.52-.32 2.43-1.17z" class="F"/><path d="M427.55 289.19l-1.93 2.43zm5.86.92l-.85-2 .85 2zm17 15.49l4 3.06zm-97.31 15.47l-3.45 2.16z" class="E"/><path d="M421.71 283.07c1.12 1.14 1.62 2.25-.06 3.35l-4.66 3.16a13.52 13.52 0 0 1-.22-2.85c.38-2.08.3-3.51-2.4-3.92-1-.14-1.69-1.84-2.53-2.83l2.16-1z" class="F"/></svg>