<?xml version="1.0" standalone="no"?>
<!DOCTYPE svg PUBLIC "-//W3C//DTD SVG 20010904//EN"
 "http://www.w3.org/TR/2001/REC-SVG-20010904/DTD/svg10.dtd">
<svg version="1.0" xmlns="http://www.w3.org/2000/svg"
 width="450.000000pt" height="253.000000pt" viewBox="0 0 450.000000 253.000000"
 preserveAspectRatio="xMidYMid meet">
<metadata>
Created by potrace 1.16, written by Peter Selinger 2001-2019
</metadata>
<g transform="translate(0.000000,253.000000) scale(0.100000,-0.100000)"
fill="#000000" stroke="none">
<path d="M0 1265 l0 -1265 2250 0 2250 0 0 1265 0 1265 -2250 0 -2250 0 0
-1265z m2690 666 c0 -5 12 -7 27 -5 15 3 50 0 77 -7 66 -15 196 -69 196 -81 0
-5 4 -7 8 -4 5 3 33 -15 63 -39 30 -24 58 -44 62 -45 5 0 21 -13 37 -30 15
-16 29 -27 32 -25 5 6 8 -13 9 -64 1 -34 -33 -82 -48 -68 -4 4 3 14 15 23 45
31 11 62 -58 52 -17 -3 -30 -1 -30 4 0 5 -13 7 -30 6 -16 -1 -30 -5 -30 -8 0
-4 -6 -7 -12 -7 -7 0 -41 -3 -74 -7 -42 -5 -64 -4 -69 3 -3 6 -10 9 -15 6 -5
-3 -12 -1 -15 5 -5 8 -11 8 -20 0 -9 -8 -14 -6 -19 5 -3 8 -13 15 -21 15 -10
0 -13 5 -9 13 4 6 4 9 -1 5 -4 -4 -15 -2 -23 5 -13 10 -14 9 -7 -3 6 -12 5
-13 -5 -3 -9 8 -19 9 -31 2 -23 -12 -76 -7 -106 10 -18 9 -23 9 -23 -1 0 -6
-7 -3 -16 8 -8 10 -12 13 -8 5 5 -9 -2 -8 -19 5 -29 21 -32 29 -17 39 16 10
12 71 -5 85 -9 8 -13 21 -10 34 4 12 3 17 -2 11 -13 -16 -33 -16 -33 1 0 8 5
12 10 9 6 -3 10 -1 10 5 0 6 5 8 10 5 6 -3 10 -2 10 4 0 10 70 26 108 25 12
-1 22 3 22 7 0 5 14 9 30 9 17 0 30 -4 30 -9z m-570 -38 c0 -5 14 -9 30 -10
17 -1 30 1 30 6 0 12 34 10 42 -3 5 -7 8 -7 8 2 0 7 4 11 8 8 5 -3 27 -6 50
-7 23 -2 42 -7 42 -12 0 -5 11 -6 24 -3 35 9 45 -14 16 -33 -13 -9 -46 -23
-74 -31 -50 -15 -51 -16 -48 -52 3 -33 1 -36 -30 -41 -18 -3 -37 -1 -42 3 -5
5 -25 -3 -45 -18 -20 -15 -31 -20 -25 -12 8 10 9 23 3 38 l-9 24 -35 -21 c-19
-11 -35 -18 -35 -16 0 9 38 43 44 39 4 -2 2 1 -3 8 -6 6 -24 11 -41 10 -19 0
-28 3 -24 10 9 14 -17 29 -38 22 -12 -4 -15 0 -11 16 3 11 0 20 -6 20 -6 0
-11 7 -11 15 0 10 -15 17 -42 22 l-43 7 35 7 c50 9 230 10 230 2z m-268 -27
c17 -12 42 -65 35 -72 -2 -2 -23 0 -48 4 -34 6 -43 12 -41 25 2 10 -4 17 -14
17 -16 0 -16 2 1 20 21 23 43 25 67 6z m582 -22 c-11 -9 -13 -13 -6 -9 6 3 12
1 12 -5 0 -6 5 -8 12 -4 7 4 8 3 4 -5 -4 -6 -12 -9 -17 -6 -5 4 -9 2 -9 -4 0
-5 4 -11 9 -13 16 -5 17 -32 1 -33 -9 0 -16 -11 -17 -25 l-2 -25 9 25 9 25 -2
-25 c-2 -27 -22 -33 -46 -16 -11 8 -13 8 -7 -1 4 -8 1 -13 -8 -13 -10 0 -16 9
-16 23 1 30 55 133 69 130 6 -2 11 3 12 10 0 9 2 9 6 -1 3 -7 -3 -20 -13 -28z
m-680 -79 c10 14 12 13 11 -9 -2 -31 -5 -35 -33 -39 -12 -2 -29 -12 -37 -23
-26 -34 -16 4 12 49 21 32 28 38 31 24 3 -17 5 -17 16 -2z m121 -31 c-10 -7
-22 -11 -26 -8 -4 2 -7 -5 -6 -16 2 -25 7 -25 51 0 25 16 36 18 42 9 4 -8 3
-9 -4 -5 -7 4 -12 2 -12 -3 0 -6 -6 -11 -14 -11 -8 0 -17 -7 -20 -16 -5 -14
-1 -16 23 -11 35 7 44 0 30 -25 -8 -15 -13 -17 -24 -8 -8 7 -19 9 -25 5 -6 -4
-16 -3 -23 3 -29 22 -176 8 -153 -15 3 -4 1 -12 -5 -20 -9 -11 0 -12 52 -8 62
5 63 5 30 -8 -37 -14 -53 -37 -27 -37 9 0 16 -5 16 -11 0 -5 -5 -7 -12 -3 -7
4 -8 3 -4 -4 4 -6 13 -9 20 -6 8 3 17 0 21 -7 6 -9 -1 -10 -26 -6 -19 3 -43 2
-54 -2 -16 -7 -13 -9 17 -15 21 -4 40 -12 44 -18 5 -7 2 -8 -7 -3 -10 6 -11 5
-4 -4 6 -6 9 -27 7 -47 -3 -21 -8 -31 -12 -24 -5 8 -10 3 -14 -14 -4 -17 -11
-23 -22 -19 -9 3 -14 0 -12 -8 2 -8 -8 -14 -25 -15 -15 -2 -25 1 -22 6 3 4 -8
3 -24 -3 -25 -9 -28 -14 -18 -27 11 -13 10 -13 -6 -1 -10 8 -14 18 -9 25 5 6
6 25 4 41 -13 81 -7 161 18 222 13 34 28 59 32 56 5 -2 16 1 24 8 12 10 17 10
23 1 6 -10 15 -10 42 0 19 6 36 14 39 17 20 25 74 60 82 55 7 -5 4 -12 -7 -20z
m125 6 c0 -5 -2 -10 -4 -10 -3 0 -8 5 -11 10 -3 6 -1 10 4 10 6 0 11 -4 11
-10z m0 -161 c0 -11 -4 -18 -10 -14 -5 3 -7 12 -3 20 7 21 13 19 13 -6z m-40
-25 c0 -8 -5 -12 -10 -9 -6 4 -8 11 -5 16 9 14 15 11 15 -7z m1014 -52 c3 -5
-1 -9 -9 -9 -8 0 -12 4 -9 9 3 4 7 8 9 8 2 0 6 -4 9 -8z"/>
<path d="M2775 1761 c33 -10 74 -24 90 -30 l30 -12 -25 24 c-19 19 -39 26 -90
30 l-65 6 60 -18z"/>
<path d="M2050 1872 c0 -4 9 -8 19 -8 11 0 17 4 15 8 -3 4 -12 8 -20 8 -8 0
-14 -4 -14 -8z"/>
<path d="M2248 1873 c7 -3 16 -2 19 1 4 3 -2 6 -13 5 -11 0 -14 -3 -6 -6z"/>
<path d="M2156 1838 c3 -5 10 -6 15 -3 13 9 11 12 -6 12 -8 0 -12 -4 -9 -9z"/>
<path d="M1732 1465 c-9 -19 -9 -23 2 -19 15 6 29 44 17 44 -4 0 -13 -11 -19
-25z"/>
</g>
</svg>
