<?xml version="1.0" standalone="no"?>
<!DOCTYPE svg PUBLIC "-//W3C//DTD SVG 20010904//EN"
 "http://www.w3.org/TR/2001/REC-SVG-20010904/DTD/svg10.dtd">
<svg version="1.0" xmlns="http://www.w3.org/2000/svg"
 width="450.000000pt" height="253.000000pt" viewBox="0 0 450.000000 253.000000"
 preserveAspectRatio="xMidYMid meet">
<metadata>
Created by potrace 1.16, written by Peter Selinger 2001-2019
</metadata>
<g transform="translate(0.000000,253.000000) scale(0.100000,-0.100000)"
fill="#000000" stroke="none">
<path d="M0 1265 l0 -1265 2250 0 2250 0 0 1265 0 1265 -2250 0 -2250 0 0
-1265z m2683 1147 c9 -8 41 -10 98 -6 72 4 94 2 144 -17 85 -32 153 -105 200
-218 21 -47 42 -91 49 -97 6 -7 37 -19 69 -28 l58 -17 30 25 c55 47 156 43
260 -9 27 -14 72 -34 100 -46 69 -27 105 -53 133 -98 19 -31 22 -44 16 -92 -7
-66 -7 -66 -120 -182 -104 -108 -131 -127 -242 -162 l-87 -28 28 -41 c56 -84
74 -143 75 -246 0 -106 -14 -147 -62 -177 -15 -10 -31 -23 -37 -29 -27 -29
-158 -60 -265 -63 -91 -3 -351 61 -392 97 -16 13 -20 13 -35 0 -10 -9 -28 -19
-41 -22 -22 -7 -39 -31 -48 -64 -22 -90 -32 -115 -35 -93 -4 23 -5 22 -49 -16
-66 -57 -162 -93 -247 -93 -58 0 -147 35 -176 70 -43 50 -90 178 -92 245 -2
90 6 111 39 107 20 -3 26 0 21 8 -5 7 -21 9 -46 5 -38 -7 -49 1 -29 21 6 6
-26 10 -88 12 -107 3 -146 11 -242 49 -105 42 -180 98 -196 148 -4 11 -11 23
-17 26 -5 4 -12 40 -14 81 l-4 74 43 59 c48 66 76 89 185 156 40 24 73 49 73
55 0 6 -10 16 -23 23 -41 22 -121 122 -151 189 -54 124 -46 222 22 255 75 36
134 47 252 47 88 0 134 -5 191 -21 96 -27 236 -27 259 0 34 40 115 96 163 113
58 21 205 21 230 0z"/>
<path d="M2580 2011 c0 -7 -4 -10 -9 -7 -4 3 -6 -7 -3 -22 l5 -27 8 29 c5 17
6 32 4 35 -3 2 -5 -1 -5 -8z"/>
<path d="M2594 1896 c-4 -9 0 -35 9 -57 14 -35 14 -41 1 -54 -9 -8 -22 -15
-31 -15 -10 0 -14 -6 -10 -20 3 -11 2 -20 -3 -20 -4 0 -10 -13 -13 -30 -8 -36
27 -97 60 -106 12 -3 24 -12 27 -20 3 -9 1 -12 -4 -9 -6 3 -10 -1 -10 -9 0 -9
5 -16 10 -16 7 0 9 -13 5 -32 -6 -33 -6 -33 32 -33 47 0 66 16 57 49 -5 20 0
27 25 40 16 9 36 16 44 16 18 0 37 22 42 50 2 12 9 28 14 34 7 9 7 16 -1 24
-17 17 -65 -12 -72 -46 -8 -34 -40 -55 -69 -46 -28 9 -68 40 -61 47 3 3 -4 8
-15 12 -24 7 -45 40 -35 56 3 6 18 15 32 20 21 8 23 12 12 19 -8 5 -18 6 -23
3 -5 -3 -7 0 -5 8 3 8 11 13 17 12 14 -4 14 11 -3 76 -17 61 -23 70 -32 47z"/>
<path d="M2820 1888 c0 -6 3 -8 7 -5 3 4 12 2 19 -4 7 -6 19 -7 25 -3 9 5 7
10 -7 15 -29 11 -44 10 -44 -3z"/>
<path d="M2376 1793 c-3 -3 -1 -14 5 -25 10 -19 11 -19 24 -1 8 10 15 20 15
23 0 8 -37 10 -44 3z"/>
<path d="M2318 1725 c-10 -10 5 -56 22 -68 9 -7 19 -18 21 -25 3 -9 12 -5 28
12 18 19 20 26 10 26 -18 0 -60 45 -52 54 4 3 0 6 -9 6 -8 0 -17 -2 -20 -5z"/>
<path d="M1999 1685 c-1 -3 -2 -8 -3 -12 -1 -5 -5 -15 -10 -23 -7 -12 -6 -13
4 -3 13 12 23 43 14 43 -2 0 -5 -2 -5 -5z"/>
<path d="M1535 1611 c3 -6 2 -11 -4 -11 -6 0 -8 -7 -4 -15 3 -9 -2 -24 -12
-35 -10 -11 -15 -28 -12 -40 3 -11 1 -20 -4 -20 -5 0 -9 -7 -9 -15 0 -22 18
-18 43 9 14 15 22 36 21 53 -1 15 2 35 7 44 5 10 1 19 -13 28 -11 7 -17 8 -13
2z"/>
<path d="M2515 1589 c-4 -5 -22 -8 -40 -6 -38 5 -57 -18 -24 -28 15 -5 17 -10
9 -20 -9 -10 -3 -16 24 -25 20 -6 40 -9 45 -5 6 3 14 -3 20 -13 8 -16 6 -18
-17 -15 -26 3 -61 -11 -52 -21 3 -2 17 -7 32 -11 19 -5 32 -1 46 13 11 11 23
18 26 15 11 -11 18 28 7 40 -8 10 -7 19 3 32 12 17 11 21 -13 33 -35 19 -59
23 -66 11z"/>
<path d="M1860 1579 c0 -5 -4 -8 -9 -4 -5 3 -13 0 -17 -7 -4 -7 -4 -10 1 -6 4
4 14 3 22 -3 10 -9 13 -7 13 10 0 11 -2 21 -5 21 -3 0 -5 -5 -5 -11z"/>
<path d="M1883 1569 c-2 -23 3 -25 10 -4 4 8 3 16 -1 19 -4 3 -9 -4 -9 -15z"/>
<path d="M1906 1565 c-3 -8 -1 -16 4 -16 6 -1 16 -2 23 -3 6 -1 11 -9 9 -19
-2 -9 3 -17 11 -17 22 0 28 12 14 28 -8 11 -8 14 0 9 6 -4 15 -2 19 5 4 7 4
10 -1 6 -4 -4 -14 0 -22 10 -12 15 -12 15 -7 0 4 -13 1 -15 -15 -11 -11 3 -18
9 -15 14 3 5 1 9 -4 9 -6 0 -12 -7 -16 -15z"/>
<path d="M2363 1556 c0 -18 3 -24 9 -18 7 7 7 16 0 28 -8 14 -9 13 -9 -10z"/>
<path d="M2246 1481 c-4 -5 -2 -12 3 -15 5 -4 12 -2 15 3 4 5 2 12 -3 15 -5 4
-12 2 -15 -3z"/>
<path d="M2370 1475 c-16 -9 -19 -14 -9 -15 8 0 24 7 35 15 24 18 7 19 -26 0z"/>
<path d="M2271 1450 c-18 -4 -37 -13 -41 -20 -6 -9 -9 -9 -12 1 -3 10 -9 7
-17 -9 -16 -31 -10 -36 23 -18 19 10 37 11 57 6 16 -5 29 -6 29 -2 0 4 5 -1
11 -10 5 -10 15 -18 21 -18 6 0 3 9 -8 21 -15 17 -16 23 -6 40 14 22 4 23 -57
9z"/>
<path d="M2029 1441 c-1 -4 -1 -10 0 -15 4 -18 -11 -46 -24 -46 -9 0 -12 -6
-9 -15 10 -24 52 -18 70 10 9 14 25 25 36 25 11 0 26 7 34 15 13 12 12 15 -6
25 -20 11 -99 11 -101 1z"/>
<path d="M2435 1412 c-3 -8 -2 -18 2 -21 22 -16 11 -30 -20 -25 l-32 5 28 -16
c15 -8 27 -20 27 -25 0 -12 -56 8 -71 26 -15 18 -30 18 -65 -1 -16 -8 -38 -15
-49 -15 -19 -1 -19 -1 -1 -11 13 -8 25 -8 43 0 21 10 28 9 39 -6 7 -10 14 -24
14 -30 0 -7 6 -13 13 -13 9 0 8 -3 -2 -9 -7 -5 -11 -14 -7 -20 4 -5 -2 -19
-13 -30 -26 -26 -30 -54 -8 -59 10 -2 17 3 17 11 0 8 8 17 18 19 10 3 31 30
46 60 l27 54 67 -2 c54 -3 63 -1 45 8 -30 15 -39 45 -19 67 21 23 20 26 -6 27
-13 1 -37 6 -55 12 -26 8 -33 7 -38 -6z"/>
<path d="M2690 1365 c-6 -19 -9 -41 -7 -48 3 -6 6 -3 6 8 1 17 3 18 12 5 8
-12 9 -12 7 5 -4 24 17 27 53 7 28 -16 63 -10 57 9 -3 8 -86 43 -115 49 -1 0
-7 -16 -13 -35z"/>
<path d="M2584 1355 c-4 -9 0 -23 8 -32 14 -13 16 -12 21 6 7 27 -20 51 -29
26z"/>
<path d="M2694 1232 c6 -10 -16 -46 -31 -49 -8 -2 -13 7 -13 22 0 34 -18 32
-26 -2 -11 -53 -13 -55 -39 -49 -17 4 -25 2 -25 -7 0 -22 109 -7 130 19 7 7
16 12 20 9 4 -3 18 3 30 13 29 24 18 52 -22 52 -16 0 -27 -3 -24 -8z"/>
<path d="M3326 1132 c-12 -23 -12 -32 -1 -60 20 -46 45 -33 45 24 0 24 -5 44
-11 44 -5 0 -7 5 -4 10 3 6 2 10 -4 10 -6 0 -17 -12 -25 -28z"/>
<path d="M2331 1091 c-9 -6 -10 -11 -2 -15 13 -8 31 1 31 15 0 11 -11 11 -29
0z"/>
<path d="M2580 940 c-9 -6 -10 -10 -3 -10 6 0 15 5 18 10 8 12 4 12 -15 0z"/>
</g>
</svg>
