<?xml version="1.0" standalone="no"?>
<!DOCTYPE svg PUBLIC "-//W3C//DTD SVG 20010904//EN"
 "http://www.w3.org/TR/2001/REC-SVG-20010904/DTD/svg10.dtd">
<svg version="1.0" xmlns="http://www.w3.org/2000/svg"
 width="450.000000pt" height="253.000000pt" viewBox="0 0 450.000000 253.000000"
 preserveAspectRatio="xMidYMid meet">
<metadata>
Created by potrace 1.16, written by Peter Selinger 2001-2019
</metadata>
<g transform="translate(0.000000,253.000000) scale(0.100000,-0.100000)"
fill="#000000" stroke="none">
<path d="M0 1265 l0 -1265 2250 0 2250 0 0 1265 0 1265 -2250 0 -2250 0 0
-1265z m2885 661 c28 -7 63 -21 79 -29 16 -9 34 -13 40 -10 6 3 8 2 3 -2 -4
-5 8 -18 27 -29 81 -50 115 -77 169 -135 31 -34 57 -71 57 -82 0 -45 -54 -110
-79 -94 -5 3 -11 1 -13 -5 -2 -6 -9 0 -17 12 -12 20 -12 22 0 12 21 -15 44
-11 41 8 -1 10 5 18 17 20 17 3 18 5 6 22 -13 17 -17 17 -32 5 -11 -9 -14 -10
-9 -1 4 7 2 12 -6 12 -8 0 -20 -6 -27 -12 -10 -11 -12 -10 -9 1 2 7 -3 16 -11
19 -8 3 -11 0 -7 -7 4 -6 1 -11 -6 -12 -7 0 -22 -3 -33 -6 -34 -8 -210 -3
-210 7 0 1 -13 3 -28 4 -16 1 -32 8 -37 16 -7 11 -10 12 -10 2 0 -7 -5 -10
-10 -7 -8 5 -7 12 2 23 11 13 11 14 0 8 -7 -4 -20 -2 -28 5 -8 6 -17 9 -21 5
-3 -3 -1 -6 6 -6 7 0 9 -5 5 -12 -4 -7 -3 -8 4 -4 18 11 14 0 -5 -15 -12 -10
-14 -10 -9 -1 8 13 -2 19 -51 26 -18 2 -34 -1 -36 -7 -1 -5 -11 -11 -20 -13
-9 -1 -14 2 -11 8 3 5 -2 8 -12 6 -13 -2 -18 2 -16 14 2 11 -9 23 -28 33 -31
16 -38 33 -19 52 7 7 5 15 -6 27 -15 14 -13 20 6 18 3 -1 6 5 6 13 0 8 -4 12
-8 10 -10 -7 -18 32 -8 42 5 5 1 9 -10 9 -15 0 -18 -7 -17 -36 0 -19 4 -40 9
-47 4 -6 1 -18 -7 -26 -8 -8 -12 -18 -8 -23 4 -5 -4 0 -17 11 -15 12 -21 14
-16 5 14 -22 15 -39 3 -47 -7 -3 -8 -1 -4 5 5 8 0 12 -13 12 -12 0 -21 -4 -21
-10 0 -5 -7 -7 -15 -4 -9 4 -15 0 -15 -7 -1 -9 -4 -8 -11 4 -7 12 -6 25 5 45
8 15 23 42 33 60 28 53 121 102 238 125 37 8 169 -3 220 -17z m-535 -36 c27 0
32 -3 20 -11 -11 -8 -7 -9 17 -4 30 6 53 -7 34 -19 -5 -4 -12 -2 -16 4 -4 6
-11 8 -16 4 -5 -3 -7 -10 -4 -15 8 -12 -35 -28 -54 -21 -10 4 -12 1 -6 -9 8
-12 6 -12 -8 0 -18 15 -23 26 -7 16 6 -3 10 0 10 8 0 7 -6 14 -14 14 -9 0 -13
-8 -10 -24 3 -18 0 -23 -16 -23 -11 0 -20 -7 -20 -15 0 -8 4 -15 9 -15 4 0 6
-11 4 -24 -6 -30 -60 -47 -74 -25 -5 8 -9 9 -9 4 0 -6 -14 -16 -30 -22 -28
-11 -30 -10 -25 8 8 25 -16 34 -47 18 -21 -11 -22 -11 -10 4 18 21 7 37 -24
37 -14 0 -23 4 -19 10 4 6 -7 13 -24 16 -18 4 -28 11 -25 19 3 7 -2 15 -10 18
-9 4 -13 13 -10 22 5 11 -1 15 -19 15 -14 0 -29 5 -33 11 -4 8 52 9 197 5 112
-3 220 -5 239 -6z m-468 -24 c10 -7 15 -16 12 -19 -3 -3 -1 -15 6 -26 10 -19
8 -21 -17 -20 -41 1 -58 11 -61 38 -4 38 28 52 60 27z m115 -72 c-3 -3 -12 -4
-19 -1 -8 3 -5 6 6 6 11 1 17 -2 13 -5z m-199 -40 c-3 -17 -68 -61 -68 -46 0
4 12 25 26 46 26 38 50 38 42 0z m98 -11 c-2 -10 -8 -18 -14 -18 -6 0 -14 -4
-19 -9 -5 -5 -3 -6 5 -2 8 5 12 1 12 -11 0 -14 2 -15 9 -4 7 11 11 10 22 -7
10 -16 20 -19 42 -15 25 5 28 3 25 -13 -4 -22 -45 -23 -136 -4 -45 9 -57 9
-78 -5 -14 -9 -22 -20 -19 -25 3 -5 1 -19 -5 -30 -6 -11 -7 -20 -1 -20 5 0 11
6 14 14 3 8 24 15 51 18 52 4 62 -7 16 -17 -16 -4 -30 -11 -30 -17 0 -13 26
-38 41 -38 7 0 9 -3 5 -7 -4 -4 -23 -6 -43 -4 -23 2 -33 -1 -29 -8 4 -6 16
-11 26 -11 25 0 33 -15 21 -38 -6 -11 -6 -24 1 -36 8 -14 8 -17 -2 -11 -10 6
-11 1 -7 -21 3 -16 4 -24 1 -17 -4 9 -12 6 -27 -8 -21 -20 -59 -39 -78 -39 -5
0 -15 12 -21 26 -11 23 -13 24 -19 7 -15 -36 -1 173 14 212 25 68 40 95 48 90
4 -3 15 3 25 12 17 17 18 17 11 1 -8 -22 -8 -22 45 1 24 10 53 30 65 45 27 31
32 32 29 9z m71 -15 c-3 -8 -6 -5 -6 6 -1 11 2 17 5 13 3 -3 4 -12 1 -19z m63
1 c0 -6 -4 -7 -10 -4 -5 3 -10 11 -10 16 0 6 5 7 10 4 6 -3 10 -11 10 -16z
m-95 -19 c-3 -5 -11 -10 -16 -10 -6 0 -7 5 -4 10 3 6 11 10 16 10 6 0 7 -4 4
-10z m65 -150 c0 -5 -5 -10 -11 -10 -5 0 -7 5 -4 10 3 6 8 10 11 10 2 0 4 -4
4 -10z m1094 -51 c-7 -12 -96 -50 -102 -44 -3 3 -16 -2 -30 -11 -13 -8 -26
-14 -28 -11 -8 7 61 47 82 47 11 0 27 6 36 14 19 14 50 18 42 5z m-1427 -181
c-3 -8 -6 -5 -6 6 -1 11 2 17 5 13 3 -3 4 -12 1 -19z m6 -57 c-2 -6 1 -11 6
-11 8 0 7 -42 -2 -127 -6 -51 -12 -26 -12 45 0 42 -4 80 -10 84 -6 5 -4 8 5 8
13 0 13 1 0 11 -13 9 -13 10 0 6 8 -2 14 -10 13 -16z m0 -221 c-3 -12 -8 -19
-11 -16 -5 6 5 36 12 36 2 0 2 -9 -1 -20z m5 -55 c-3 -3 -9 2 -12 12 -6 14 -5
15 5 6 7 -7 10 -15 7 -18z m-4 -141 c3 -8 2 -12 -4 -9 -6 3 -10 10 -10 16 0
14 7 11 14 -7z"/>
<path d="M2760 1808 c0 -4 8 -9 18 -9 55 -4 80 -8 105 -18 44 -17 55 -13 22 8
-30 19 -145 34 -145 19z"/>
<path d="M2631 1664 c0 -11 3 -14 6 -6 3 7 2 16 -1 19 -3 4 -6 -2 -5 -13z"/>
<path d="M2231 1853 c-1 -12 16 -26 34 -29 6 -1 12 8 13 20 1 16 -1 18 -8 6
-9 -13 -10 -13 -10 0 0 12 -2 13 -9 1 -7 -11 -9 -11 -14 0 -3 9 -6 10 -6 2z"/>
<path d="M1781 1764 c0 -11 3 -14 6 -6 3 7 2 16 -1 19 -3 4 -6 -2 -5 -13z"/>
<path d="M1783 1488 c-21 -27 -22 -36 -8 -42 8 -3 14 -2 13 2 -1 4 3 17 10 30
13 23 1 31 -15 10z"/>
</g>
</svg>
