<?xml version="1.0" standalone="no"?>
<!DOCTYPE svg PUBLIC "-//W3C//DTD SVG 20010904//EN"
 "http://www.w3.org/TR/2001/REC-SVG-20010904/DTD/svg10.dtd">
<svg version="1.0" xmlns="http://www.w3.org/2000/svg"
 width="450.000000pt" height="253.000000pt" viewBox="0 0 450.000000 253.000000"
 preserveAspectRatio="xMidYMid meet">
<metadata>
Created by potrace 1.16, written by Peter Selinger 2001-2019
</metadata>
<g transform="translate(0.000000,253.000000) scale(0.100000,-0.100000)"
fill="#000000" stroke="none">
<path d="M0 1265 l0 -1265 2250 0 2250 0 0 1265 0 1265 -792 -1 c-618 0 -789
-3 -774 -12 49 -30 105 -91 128 -139 30 -62 44 -122 53 -235 l7 -81 63 -17
c62 -17 64 -17 86 4 28 26 74 35 152 28 114 -9 347 -136 347 -188 0 -11 6 -22
13 -25 19 -7 10 -121 -14 -159 -23 -39 -175 -186 -225 -218 -21 -14 -74 -35
-116 -47 -43 -13 -78 -26 -78 -30 0 -3 11 -16 24 -27 56 -49 83 -114 111 -272
18 -98 13 -135 -21 -157 -13 -9 -24 -22 -24 -28 0 -6 -12 -17 -27 -23 -16 -7
-35 -16 -43 -21 -26 -16 -108 -32 -198 -38 -140 -10 -360 32 -447 86 -38 24
-61 26 -68 6 -3 -8 -9 -52 -13 -98 -9 -114 -18 -115 -11 -1 4 57 3 93 -3 93
-6 0 -10 -6 -10 -13 0 -7 -18 -30 -40 -52 -21 -21 -42 -52 -46 -69 -8 -38
-103 -137 -159 -167 -121 -64 -208 -73 -291 -31 -60 31 -80 59 -124 175 -37
99 -40 115 -40 207 0 82 -3 100 -15 100 -18 0 -20 21 -4 37 13 13 17 12 -114
37 -70 14 -223 75 -237 94 -3 5 -18 17 -35 29 -52 36 -113 182 -102 246 8 49
71 140 120 174 23 15 44 30 47 33 3 4 22 16 43 29 20 12 37 26 37 31 0 5 -26
35 -58 67 -31 32 -67 72 -79 89 -62 89 -101 253 -72 305 7 13 12 30 11 37 -2
6 6 12 17 12 11 0 21 5 23 11 6 18 125 39 226 39 95 0 221 -22 257 -46 22 -14
235 -17 235 -3 0 13 119 127 167 159 26 18 67 40 92 50 45 19 24 19 -1216 19
l-1263 1 0 -1265z m2627 -577 c-3 -8 -6 -5 -6 6 -1 11 2 17 5 13 3 -3 4 -12 1
-19z m0 -50 c-3 -7 -5 -2 -5 12 0 14 2 19 5 13 2 -7 2 -19 0 -25z m-10 -125
c-2 -16 -4 -3 -4 27 0 30 2 43 4 28 2 -16 2 -40 0 -55z m-7 -78 c-6 -30 -8
-33 -9 -13 -1 25 8 62 14 56 2 -2 -1 -21 -5 -43z"/>
<path d="M2287 2019 c3 -11 8 -19 12 -20 39 -5 51 -4 51 3 0 4 -7 8 -15 8 -8
0 -15 4 -15 9 0 5 -8 11 -19 14 -14 3 -17 0 -14 -14z"/>
<path d="M2251 2004 c0 -11 3 -14 6 -6 3 7 2 16 -1 19 -3 4 -6 -2 -5 -13z"/>
<path d="M2380 2000 c0 -5 5 -10 11 -10 5 0 7 5 4 10 -3 6 -8 10 -11 10 -2 0
-4 -4 -4 -10z"/>
<path d="M2430 1770 c-7 -10 -17 -17 -22 -14 -4 3 -8 0 -8 -5 0 -6 5 -11 11
-11 5 0 7 -4 4 -10 -3 -5 0 -10 8 -10 9 0 17 13 20 33 6 40 5 41 -13 17z"/>
<path d="M2392 1698 c3 -65 44 -120 91 -123 11 0 27 -28 21 -37 -3 -5 -9 -6
-14 -3 -5 3 -9 -7 -8 -22 1 -15 -2 -36 -7 -46 -7 -16 -2 -18 41 -16 50 1 104
18 104 31 0 5 -4 8 -10 8 -14 0 -13 47 1 56 16 10 -10 24 -44 24 -15 0 -35 6
-43 13 -44 35 -84 78 -98 105 -23 45 -37 49 -34 10z"/>
<path d="M2211 1654 c0 -11 3 -14 6 -6 3 7 2 16 -1 19 -3 4 -6 -2 -5 -13z"/>
<path d="M2710 1661 c0 -6 -13 -18 -30 -28 -16 -9 -30 -25 -30 -35 0 -21 12
-29 29 -19 17 11 53 91 41 91 -6 0 -10 -4 -10 -9z"/>
<path d="M1753 1648 c-17 -8 -22 -19 -21 -47 1 -20 3 -30 6 -23 2 6 8 12 13
12 6 0 7 -4 4 -10 -3 -5 3 -10 14 -10 27 0 27 -17 2 -25 -29 -9 -14 -35 20
-35 23 0 32 6 40 26 5 15 7 29 5 31 -3 3 -1 15 4 27 18 47 -35 80 -87 54z"/>
<path d="M1505 1600 c-4 -6 -3 -16 3 -22 6 -6 12 -6 17 2 4 6 3 16 -3 22 -6 6
-12 6 -17 -2z"/>
<path d="M2390 1561 c11 -22 1 -33 -45 -49 -23 -8 -26 -11 -10 -12 44 -5 116
14 115 29 -1 3 -16 16 -36 28 -30 20 -33 20 -24 4z"/>
<path d="M1510 1550 c0 -5 -7 -6 -17 -3 -11 4 -14 3 -9 -5 10 -17 33 -15 40 3
3 8 1 15 -4 15 -6 0 -10 -4 -10 -10z"/>
<path d="M1480 1510 c0 -5 7 -7 15 -4 8 4 15 8 15 10 0 2 -7 4 -15 4 -8 0 -15
-4 -15 -10z"/>
<path d="M1459 1473 c-13 -16 -12 -17 4 -4 9 7 17 15 17 17 0 8 -8 3 -21 -13z"/>
<path d="M2150 1435 c-7 -8 -23 -15 -36 -15 -32 0 -31 -16 1 -23 17 -3 30 1
38 13 7 9 21 22 32 28 20 11 20 11 -1 12 -12 0 -27 -7 -34 -15z"/>
<path d="M2346 1429 c-14 -11 -26 -25 -26 -30 0 -17 37 -9 64 15 24 20 25 24
11 30 -22 8 -19 9 -49 -15z"/>
<path d="M1909 1416 c10 -11 7 -19 -10 -35 -13 -12 -18 -21 -11 -21 6 0 23 11
38 25 16 15 35 23 43 20 11 -3 9 0 -3 10 -11 8 -31 15 -44 15 -20 0 -22 -3
-13 -14z"/>
<path d="M2330 1342 c-21 -10 -26 -61 -6 -68 23 -9 66 4 73 22 6 16 -23 54
-41 53 -6 0 -18 -3 -26 -7z"/>
<path d="M2620 1340 c0 -5 10 -15 23 -21 22 -12 22 -12 3 10 -21 23 -26 26
-26 11z"/>
<path d="M2155 1310 c-13 -6 -15 -9 -5 -9 8 0 22 4 30 9 18 12 2 12 -25 0z"/>
<path d="M2440 1280 c0 -5 5 -10 11 -10 5 0 7 5 4 10 -3 6 -8 10 -11 10 -2 0
-4 -4 -4 -10z"/>
<path d="M2254 1265 c-10 -8 -14 -15 -7 -15 6 0 13 -8 15 -17 2 -13 6 -10 15
10 15 31 3 42 -23 22z"/>
<path d="M2213 1175 c-28 -20 -31 -25 -18 -35 12 -10 15 -10 15 1 0 8 10 19
22 24 21 10 38 36 21 34 -4 0 -23 -11 -40 -24z"/>
<path d="M2600 1187 c0 -22 -45 -57 -73 -57 -27 0 -36 13 -17 25 15 9 12 25
-5 25 -8 0 -15 -4 -15 -9 0 -5 -9 -11 -20 -14 -11 -3 -20 -14 -20 -24 0 -10
-5 -24 -12 -31 -9 -9 -9 -12 0 -12 7 0 12 4 12 8 0 4 15 8 33 8 57 2 62 4 90
29 15 14 27 20 27 13 0 -6 7 -3 16 8 8 10 12 12 8 4 -5 -12 -4 -13 6 -3 11 10
11 15 0 28 -15 19 -30 20 -30 2z"/>
<path d="M3297 1162 c-23 -52 -22 -53 19 -101 27 -31 40 -39 49 -31 9 8 14 7
18 -2 3 -7 2 7 0 32 -3 25 -12 53 -21 63 -8 9 -11 17 -6 17 5 0 3 4 -4 9 -7 4
-15 16 -16 26 -5 33 -21 27 -39 -13z"/>
<path d="M2684 1168 c-4 -7 -3 -8 4 -4 7 4 12 3 12 -2 0 -6 8 -13 17 -16 15
-6 15 -4 -2 14 -21 23 -22 24 -31 8z"/>
<path d="M2210 1045 c-11 -13 -9 -15 14 -13 14 1 25 7 23 12 -6 17 -23 17 -37
1z"/>
</g>
</svg>
