<?xml version="1.0" standalone="no"?>
<!DOCTYPE svg PUBLIC "-//W3C//DTD SVG 20010904//EN"
 "http://www.w3.org/TR/2001/REC-SVG-20010904/DTD/svg10.dtd">
<svg version="1.0" xmlns="http://www.w3.org/2000/svg"
 width="450.000000pt" height="253.000000pt" viewBox="0 0 450.000000 253.000000"
 preserveAspectRatio="xMidYMid meet">
<metadata>
Created by potrace 1.16, written by Peter Selinger 2001-2019
</metadata>
<g transform="translate(0.000000,253.000000) scale(0.100000,-0.100000)"
fill="#000000" stroke="none">
<path d="M0 1265 l0 -1265 2250 0 2250 0 0 1265 0 1265 -2250 0 -2250 0 0
-1265z m2947 700 c141 -26 278 -116 376 -246 46 -61 47 -67 21 -119 -21 -41
-84 -114 -84 -96 0 4 -12 -1 -27 -12 -35 -24 -100 -57 -133 -67 -23 -7 -23 -5
8 24 18 17 40 31 48 31 20 0 94 48 94 61 0 5 5 7 10 4 6 -3 10 -2 10 4 0 5 -9
9 -20 8 -11 -1 -20 -6 -20 -11 0 -5 -6 -2 -13 9 -9 11 -19 15 -28 11 -10 -6
-10 -4 1 6 15 13 25 38 14 38 -3 0 -12 -6 -19 -14 -13 -13 -24 -13 -167 -5
-26 1 -49 8 -52 15 -5 13 -30 13 -42 1 -4 -3 3 -5 15 -2 11 2 21 0 21 -6 0 -9
-24 -13 -75 -10 -16 1 -38 2 -47 2 -9 0 -19 7 -22 16 -6 14 -8 14 -21 -3 -11
-14 -14 -15 -9 -3 4 13 -1 16 -25 14 -17 -1 -31 1 -31 5 0 8 -37 6 -46 -3 -4
-4 -12 -7 -18 -7 -6 0 -4 5 4 10 13 8 13 10 1 10 -8 0 -26 10 -40 23 l-26 22
23 -26 c12 -14 22 -29 22 -35 0 -5 -5 -1 -11 9 -6 9 -15 14 -21 11 -6 -4 -8
-2 -4 4 3 6 2 13 -3 17 -6 3 -8 12 -4 21 3 8 -2 23 -12 34 -14 16 -16 25 -7
47 6 16 10 39 8 53 -1 14 3 36 10 50 6 14 10 30 7 36 -8 23 148 81 229 83 14
1 62 -6 105 -14z m-736 -54 c-9 -6 -5 -8 14 -8 16 0 22 3 15 7 -7 4 9 7 36 6
37 -1 48 -5 50 -19 1 -11 -6 -19 -24 -23 -59 -13 -66 -20 -26 -27 25 -4 44
-16 44 -28 0 -6 -5 -7 -10 -4 -7 4 -8 -7 -4 -33 6 -36 4 -40 -19 -44 -14 -3
-32 -1 -40 4 -9 5 -18 4 -22 -2 -9 -14 -35 -12 -35 3 0 12 -59 52 -72 49 -4
-1 -12 7 -18 18 -6 11 -17 20 -25 20 -7 0 -16 6 -18 13 -4 9 -8 8 -16 -3 -8
-11 -9 -7 -5 18 6 31 5 34 -17 32 -43 -4 -56 -1 -40 9 7 5 56 9 109 10 53 1
98 4 101 7 2 2 11 4 20 4 13 0 13 -2 2 -9z m229 -11 c0 5 5 10 11 10 5 0 7 -4
4 -10 -3 -5 0 -10 7 -11 7 0 4 -4 -7 -9 -19 -8 -19 -9 0 -9 29 -1 6 -19 -35
-26 -28 -5 -33 -4 -22 6 13 14 17 33 4 25 -4 -2 -14 -1 -22 5 -12 7 -10 9 8 9
14 0 21 4 16 11 -4 8 0 8 15 0 14 -8 21 -8 21 -1z m73 -15 c1 -5 -6 -11 -15
-13 -11 -2 -18 3 -18 13 0 17 30 18 33 0z m-554 -17 c-1 -13 1 -30 5 -39 6
-14 0 -17 -32 -21 l-39 -3 8 34 c11 50 60 74 58 29z m635 7 c3 -8 2 -14 -2
-13 -14 4 -72 -33 -67 -42 4 -6 3 -10 -2 -11 -4 0 -16 -2 -27 -4 -16 -3 -15 0
5 22 19 20 77 63 85 63 1 0 4 -7 8 -15z m-214 -35 c0 -5 -8 -10 -17 -10 -15 0
-16 2 -3 10 19 12 20 12 20 0z m-320 -30 c0 -5 -5 -10 -11 -10 -5 0 -7 5 -4
10 3 6 8 10 11 10 2 0 4 -4 4 -10z m457 -27 c0 -15 -32 -27 -48 -17 -7 4 -9 3
-5 -4 3 -6 -2 -15 -11 -21 -10 -6 -14 -11 -10 -11 5 0 5 -5 2 -10 -13 -21 -23
2 -14 30 13 37 86 66 86 33z m-656 -54 c-9 -22 -10 -22 -10 -3 -1 11 2 24 6
27 12 12 14 0 4 -24z m176 -3 c-7 -18 -42 -22 -52 -6 -4 6 -3 10 2 9 28 -5 42
2 36 19 -5 13 -3 15 7 5 7 -6 10 -19 7 -27z m63 13 c0 -11 -4 -17 -10 -14 -5
3 -10 13 -10 21 0 8 5 14 10 14 6 0 10 -9 10 -21z m-115 -44 c6 -6 24 -11 40
-11 24 1 31 -4 33 -21 3 -19 -1 -23 -25 -23 -15 0 -41 7 -57 15 -61 32 -126
23 -132 -17 -1 -9 -5 -25 -8 -36 -6 -17 -3 -19 14 -15 14 4 18 8 10 13 -18 11
15 20 68 19 30 -1 37 -4 19 -6 -15 -2 -25 -9 -22 -14 3 -5 -1 -6 -10 -2 -19 7
-40 -18 -24 -28 18 -11 -3 -39 -30 -40 -23 -2 -24 -2 -3 -6 12 -2 22 -9 22
-16 0 -6 -10 -22 -22 -35 l-23 -25 23 6 c22 5 23 3 17 -21 -7 -30 -42 -82 -55
-82 -5 0 -17 9 -27 19 -35 38 -21 251 15 244 8 -2 12 11 12 33 0 28 3 35 18
32 9 -2 37 6 62 18 45 22 66 21 85 -1z m1063 -287 c-4 -12 -38 -21 -38 -9 0
12 12 21 28 21 7 0 12 -5 10 -12z m-342 -25 c-8 -8 -36 5 -36 17 0 7 6 7 21 0
11 -7 18 -14 15 -17z"/>
<path d="M2875 1609 c-4 -6 -5 -12 -2 -15 2 -3 7 2 10 11 7 17 1 20 -8 4z"/>
<path d="M3076 1612 c-3 -5 1 -9 9 -9 8 0 12 4 9 9 -3 4 -7 8 -9 8 -2 0 -6 -4
-9 -8z"/>
<path d="M3220 1615 c-1 -5 -3 -18 -5 -28 -3 -15 -1 -16 12 -5 13 11 17 11 21
0 3 -10 8 -8 19 5 8 10 11 12 7 4 -5 -10 -3 -12 7 -5 8 5 22 7 33 5 11 -2 17
2 14 11 -5 15 -26 18 -49 7 -9 -5 -21 -3 -29 4 -10 9 -11 9 -6 0 4 -7 3 -13
-3 -13 -5 0 -12 6 -14 13 -3 6 -6 8 -7 2z"/>
<path d="M2260 1905 c0 -8 29 -12 39 -5 9 5 4 8 -13 8 -14 0 -26 -2 -26 -3z"/>
<path d="M2276 1824 c-17 -12 -17 -14 -4 -14 9 0 20 5 23 11 11 17 2 18 -19 3z"/>
<path d="M2210 1805 c0 -7 30 -13 34 -7 3 4 -4 9 -15 9 -10 1 -19 0 -19 -2z"/>
</g>
</svg>
