<?xml version="1.0" standalone="no"?>
<!DOCTYPE svg PUBLIC "-//W3C//DTD SVG 20010904//EN"
 "http://www.w3.org/TR/2001/REC-SVG-20010904/DTD/svg10.dtd">
<svg version="1.0" xmlns="http://www.w3.org/2000/svg"
 width="450.000000pt" height="253.000000pt" viewBox="0 0 450.000000 253.000000"
 preserveAspectRatio="xMidYMid meet">
<metadata>
Created by potrace 1.16, written by Peter Selinger 2001-2019
</metadata>
<g transform="translate(0.000000,253.000000) scale(0.100000,-0.100000)"
fill="#000000" stroke="none">
<path d="M0 1265 l0 -1265 2250 0 2250 0 0 1265 0 1265 -2250 0 -2250 0 0
-1265z m3303 764 c114 -18 169 -42 197 -88 14 -22 35 -44 48 -50 12 -6 37 -31
54 -56 26 -37 42 -48 83 -61 37 -10 66 -29 103 -64 l51 -50 -33 -57 c-27 -49
-39 -61 -81 -78 -28 -11 -56 -26 -63 -33 -21 -19 -94 -50 -127 -54 -24 -2 -34
-12 -52 -48 -13 -26 -19 -48 -14 -55 5 -5 21 -39 35 -74 32 -80 42 -173 24
-222 -31 -84 -110 -136 -165 -109 -15 7 -32 14 -38 14 -5 1 -29 5 -53 10 -23
4 -52 9 -65 11 -12 2 -31 6 -42 8 -11 3 -44 8 -74 12 -69 9 -171 73 -227 141
-59 71 -59 74 -14 58 21 -8 59 -17 82 -20 39 -7 42 -6 29 9 -7 9 -18 14 -25
10 -6 -4 -4 2 4 12 9 11 10 16 3 11 -8 -4 -13 -2 -14 6 0 10 -2 10 -6 -1 -4
-10 -7 -10 -13 -1 -4 7 -38 13 -81 15 -86 4 -114 13 -150 49 -41 41 -139 270
-126 293 3 4 8 40 12 78 3 39 13 81 20 95 8 14 19 36 25 50 6 13 16 28 23 32
24 14 -4 20 -50 10 -26 -6 -65 -14 -86 -17 -21 -3 -35 -10 -33 -14 3 -4 -6
-14 -19 -21 -14 -7 -25 -19 -25 -26 0 -14 -36 -29 -62 -25 -18 2 -35 -39 -25
-56 3 -5 2 -15 -3 -23 -8 -13 -14 -13 -40 2 -18 10 -30 13 -30 6 0 -6 -8 -4
-18 5 -10 10 -24 17 -31 17 -8 0 -6 8 6 24 17 23 18 23 26 4 4 -11 4 -25 1
-30 -4 -6 -1 -9 7 -6 10 3 13 19 12 54 -2 39 -8 54 -30 73 -25 22 -26 25 -12
49 8 15 25 29 39 33 14 4 21 8 15 9 -5 1 1 6 15 10 31 10 190 11 292 2 60 -6
74 -5 66 5 -15 18 25 69 65 82 55 18 160 38 207 40 24 1 46 4 49 7 9 9 265 4
334 -7z m-1096 -401 c-3 -8 -6 -5 -6 6 -1 11 2 17 5 13 3 -3 4 -12 1 -19z m83
-25 c0 -7 -6 -13 -12 -12 -32 4 -38 -1 -27 -19 8 -13 21 -17 43 -15 28 4 29 3
13 -10 -9 -8 -38 -15 -62 -15 -43 -1 -45 0 -45 28 0 20 5 30 15 30 8 0 15 4
15 10 0 5 -7 7 -15 4 -8 -4 -15 -4 -15 0 0 8 63 24 78 18 6 -2 12 -11 12 -19z
m-60 -92 c0 -6 -4 -13 -10 -16 -5 -3 -15 -16 -21 -28 l-12 -22 24 20 c13 11
28 25 32 30 5 6 6 1 2 -10 -4 -11 -7 -28 -7 -37 0 -10 -3 -20 -8 -23 -5 -3 -6
-13 -3 -22 5 -12 3 -14 -7 -8 -8 5 -11 4 -6 -3 5 -9 -36 -62 -49 -62 -8 0 3
98 14 118 6 11 11 32 11 46 0 19 5 26 20 26 11 0 20 -4 20 -9z m33 -971 c0
-105 -3 -194 -7 -197 -3 -4 -6 85 -6 197 0 112 3 200 7 197 3 -4 6 -93 6 -197z"/>
<path d="M3414 1911 c3 -5 15 -7 26 -4 28 7 25 13 -6 13 -14 0 -23 -4 -20 -9z"/>
<path d="M3100 1902 c0 -5 9 -19 19 -31 14 -16 21 -18 24 -9 4 9 6 7 6 -4 1
-9 5 -20 11 -23 6 -4 7 1 3 10 -5 15 -3 15 16 4 11 -8 21 -18 22 -24 4 -53 4
-63 -3 -59 -4 3 -8 13 -8 22 0 12 -3 13 -12 4 -7 -7 -22 -12 -35 -12 -13 0
-23 -4 -23 -10 0 -10 26 -14 62 -11 9 1 19 -3 23 -9 3 -6 11 -8 16 -4 5 3 6
10 3 16 -11 18 -13 58 -3 58 5 0 9 -4 9 -8 0 -4 10 -8 22 -9 11 -1 24 -6 27
-11 12 -18 48 -23 60 -8 11 13 8 16 -13 22 -14 3 -26 10 -26 16 0 5 -4 7 -8 4
-5 -3 -15 5 -22 19 -9 16 -25 26 -51 30 -22 4 -39 10 -39 14 0 4 -8 7 -17 7
-10 0 -28 4 -40 8 -13 4 -23 3 -23 -2z m161 -59 c13 -16 12 -17 -3 -4 -17 13
-22 21 -14 21 2 0 10 -8 17 -17z"/>
<path d="M3220 1789 c0 -15 18 -19 23 -6 3 8 -1 14 -9 14 -8 0 -14 -4 -14 -8z"/>
<path d="M2292 1739 c3 -50 21 -59 26 -13 2 19 -3 36 -13 44 -15 12 -16 9 -13
-31z"/>
<path d="M3187 1729 c-9 -5 -30 -7 -48 -4 -31 6 -32 5 -17 -16 16 -25 75 -40
63 -17 -4 7 -1 6 7 -3 7 -8 23 -18 36 -21 18 -5 21 -4 12 6 -5 8 -9 24 -8 36
3 25 -18 34 -45 19z"/>
<path d="M3317 1714 c-23 -13 -26 -18 -16 -30 10 -12 9 -13 -7 -7 -17 6 -18 5
-5 -11 13 -16 16 -15 37 11 16 19 24 23 24 13 1 -10 4 -9 10 5 6 13 9 15 9 5
1 -8 -13 -31 -29 -50 -16 -19 -30 -41 -30 -47 0 -7 0 -16 0 -20 0 -4 11 -8 26
-10 19 -3 27 1 31 17 4 17 8 18 14 8 7 -10 9 -10 9 0 0 7 -7 15 -15 18 -8 4
-15 11 -15 16 0 6 11 3 25 -6 14 -9 25 -14 25 -10 0 4 8 0 18 -7 9 -7 7 -2 -5
12 -23 25 -30 41 -15 37 4 -2 7 2 7 7 0 6 -5 9 -11 7 -6 -1 -15 5 -18 14 -8
21 9 41 19 23 5 -8 4 -10 -3 -5 -7 4 -12 3 -12 -3 0 -17 16 -21 31 -8 8 7 12
11 10 10 -2 -2 -10 5 -16 14 -11 14 -16 15 -28 5 -10 -9 -17 -10 -22 -2 -8 13
-14 12 -48 -6z m83 -79 c14 -19 14 -19 -2 -6 -10 7 -18 18 -18 24 0 6 1 8 3 6
1 -2 9 -13 17 -24z"/>
<path d="M3013 1653 c-7 -2 -13 -14 -13 -25 0 -14 -5 -18 -17 -14 -25 8 -45
-7 -37 -27 9 -23 54 -25 98 -4 21 10 46 17 56 14 12 -3 17 1 16 10 -2 14 -29
35 -51 39 -5 1 -17 4 -25 7 -8 3 -21 3 -27 0z"/>
<path d="M3143 1628 c0 -13 1 -17 4 -10 3 6 8 10 12 8 4 -3 8 1 8 9 0 24 -23
17 -24 -7z"/>
<path d="M3075 1569 c-12 -18 88 -42 107 -26 7 7 12 11 9 10 -2 -1 -20 4 -40
12 -39 14 -69 16 -76 4z"/>
<path d="M3255 1570 c-3 -5 -2 -10 4 -10 5 0 13 5 16 10 3 6 2 10 -4 10 -5 0
-13 -4 -16 -10z"/>
<path d="M3010 1530 c0 -5 5 -10 11 -10 5 0 7 5 4 10 -3 6 -8 10 -11 10 -2 0
-4 -4 -4 -10z"/>
<path d="M3056 1493 c-3 -10 -20 -33 -36 -51 -29 -30 -30 -32 -8 -28 13 3 26
5 29 5 4 1 9 11 12 23 l6 22 24 -22 c20 -19 28 -21 51 -12 35 13 23 34 -15 26
-28 -5 -40 6 -19 19 8 5 7 11 -1 21 -16 19 -36 18 -43 -3z"/>
<path d="M3080 1370 c0 -5 9 -15 20 -22 31 -20 24 -31 -15 -24 -31 6 -35 4
-35 -14 0 -11 -4 -20 -9 -20 -5 0 -13 -9 -16 -21 -5 -15 -13 -19 -27 -16 -18
5 -19 4 -4 -12 17 -18 59 -22 73 -7 4 5 2 6 -4 2 -7 -4 -13 -2 -13 4 0 6 -5 8
-12 4 -7 -4 -8 -3 -4 4 5 8 13 8 31 0 21 -9 23 -14 12 -27 -11 -14 -10 -14 6
-2 10 8 16 20 13 28 -3 8 -1 11 4 8 6 -3 10 -1 10 6 0 7 3 9 7 6 3 -4 17 0 30
8 18 12 28 13 44 4 21 -11 21 -11 3 14 -11 14 -20 24 -22 22 -2 -2 -15 8 -30
22 -35 32 -62 47 -62 33z"/>
<path d="M3250 1278 c0 -9 5 -20 10 -23 13 -8 13 5 0 25 -8 13 -10 13 -10 -2z"/>
<path d="M3125 1250 c-3 -6 1 -7 9 -4 18 7 21 14 7 14 -6 0 -13 -4 -16 -10z"/>
<path d="M3116 1222 c-3 -5 1 -9 9 -9 8 0 12 4 9 9 -3 4 -7 8 -9 8 -2 0 -6 -4
-9 -8z"/>
<path d="M3015 1149 c42 -13 95 -18 95 -9 0 10 -53 20 -94 19 l-31 -1 30 -9z"/>
</g>
</svg>
