<?xml version="1.0" standalone="no"?>
<!DOCTYPE svg PUBLIC "-//W3C//DTD SVG 20010904//EN"
 "http://www.w3.org/TR/2001/REC-SVG-20010904/DTD/svg10.dtd">
<svg version="1.0" xmlns="http://www.w3.org/2000/svg"
 width="450.000000pt" height="253.000000pt" viewBox="0 0 450.000000 253.000000"
 preserveAspectRatio="xMidYMid meet">
<metadata>
Created by potrace 1.16, written by Peter Selinger 2001-2019
</metadata>
<g transform="translate(0.000000,253.000000) scale(0.100000,-0.100000)"
fill="#000000" stroke="none">
<path d="M0 1265 l0 -1265 2250 0 2250 0 0 1265 0 1265 -2250 0 -2250 0 0
-1265z m2233 618 c-7 -2 -19 -2 -25 0 -7 3 -2 5 12 5 14 0 19 -2 13 -5z m307
3 c0 -2 -9 -6 -20 -9 -11 -3 -18 -1 -14 4 5 9 34 13 34 5z m111 -12 c110 -22
284 -88 274 -104 -3 -4 8 -10 24 -13 16 -4 43 -20 61 -37 17 -16 34 -30 37
-30 15 0 43 -35 43 -54 -1 -23 -26 -63 -35 -54 -3 3 1 11 10 18 21 17 19 30
-5 25 -11 -2 -20 0 -20 5 0 4 -8 7 -17 6 -10 -2 -21 2 -25 8 -5 7 -8 7 -8 -3
0 -10 -3 -11 -14 -2 -9 8 -16 8 -20 2 -8 -12 -36 -3 -36 11 0 6 8 4 18 -3 16
-13 16 -12 3 4 -12 16 -17 16 -25 5 -6 -7 -17 -13 -24 -13 -17 0 -33 26 -24
40 3 5 -2 4 -12 -4 -15 -13 -20 -11 -46 17 -16 18 -25 32 -19 32 15 0 48 -38
41 -47 -4 -4 -3 -4 3 0 11 9 15 58 4 51 -4 -2 -10 0 -14 5 -4 7 -15 7 -32 0
-20 -7 -28 -6 -40 8 -14 17 -14 17 -9 1 3 -10 9 -24 12 -32 4 -10 -1 -14 -19
-12 -13 2 -29 6 -36 10 -7 5 -33 9 -59 10 -26 2 -57 6 -69 9 -14 3 -29 0 -38
-9 -8 -8 -17 -15 -20 -14 -20 1 -26 -1 -21 -8 2 -4 -4 -8 -15 -8 -24 0 -24 11
0 35 18 18 18 20 3 34 -9 8 -25 17 -34 20 -11 4 -15 12 -12 22 4 9 9 14 11 11
3 -3 12 1 20 9 17 17 37 20 27 4 -4 -7 1 -7 16 1 12 7 33 10 45 7 28 -5 58 11
36 20 -11 5 -11 7 0 15 10 7 8 8 -8 5 -13 -3 -25 -2 -28 2 -7 12 23 10 96 -5z
m-532 1 c-5 -5 -43 -13 -67 -14 -7 -1 -10 -6 -6 -12 3 -6 24 -9 45 -7 34 3 39
1 39 -17 0 -16 2 -17 9 -5 6 8 7 19 4 25 -4 5 -2 7 2 2 5 -4 17 0 27 10 10 9
18 12 18 7 0 -11 -20 -42 -20 -31 0 5 -6 5 -12 0 -19 -11 40 -20 79 -12 21 4
34 3 37 -5 2 -6 4 -2 3 10 -1 18 -6 20 -39 17 -25 -3 -38 -1 -38 7 0 7 13 11
33 10 17 -1 43 -1 57 0 23 1 24 2 5 11 -14 6 -1 7 40 3 33 -3 72 -6 87 -7 26
-2 29 -17 2 -17 -8 0 -14 -5 -14 -10 0 -10 -48 -35 -62 -32 -5 1 -8 -3 -8 -9
0 -6 -9 -9 -19 -6 -15 4 -18 1 -14 -12 4 -9 3 -13 -2 -9 -4 4 -15 3 -22 -4
-11 -9 -17 -9 -23 3 -7 10 -9 4 -7 -18 1 -17 5 -29 10 -26 4 2 7 -5 7 -16 0
-16 -6 -21 -26 -21 -22 0 -25 2 -14 15 18 22 4 18 -30 -7 -25 -18 -32 -20 -43
-8 -9 10 -9 12 1 6 6 -4 12 -3 12 2 0 10 -49 26 -57 19 -2 -3 -16 6 -29 18
-14 13 -32 21 -40 18 -24 -9 -16 27 9 37 17 8 10 9 -28 5 -27 -2 -44 -2 -37 1
6 3 10 10 6 15 -3 5 -1 9 4 9 5 0 9 7 9 15 0 8 -6 15 -13 15 -8 0 -11 -6 -8
-15 4 -10 0 -15 -11 -15 -12 0 -15 5 -10 20 4 11 2 21 -4 21 -26 3 -30 4 -37
12 -4 4 39 7 96 7 57 0 101 -2 99 -5z m-279 -15 c0 -5 -6 -10 -14 -10 -9 0
-12 -8 -9 -24 3 -13 -1 -27 -8 -31 -8 -6 -10 -4 -4 6 5 8 -1 6 -13 -4 -11 -11
-28 -34 -37 -53 -14 -30 -32 -40 -66 -36 -4 1 -15 -8 -25 -20 -19 -21 -19 -21
6 -16 20 3 26 0 26 -14 0 -10 -7 -18 -14 -18 -8 0 -12 -6 -9 -12 5 -15 -6 -51
-15 -46 -10 5 -48 -34 -42 -43 3 -5 -2 -9 -10 -9 -9 0 -16 -2 -16 -4 0 -2 -3
-11 -6 -20 -11 -28 13 -17 54 23 40 40 112 79 112 60 0 -5 -7 -9 -15 -9 -8 0
-15 -2 -15 -4 0 -2 -3 -12 -7 -22 -4 -11 -3 -15 5 -10 7 4 10 -1 9 -13 -1 -16
-8 -19 -35 -17 -23 2 -36 -3 -43 -15 -13 -24 -11 -33 4 -21 6 5 26 12 42 14
34 3 33 4 19 -102 l-7 -55 -14 33 c-9 23 -10 38 -3 52 5 10 10 25 9 32 0 7 -5
3 -11 -9 -6 -13 -15 -23 -20 -23 -4 0 -8 -7 -8 -15 0 -8 6 -15 13 -15 8 0 8
-3 -2 -9 -8 -5 -24 -6 -37 -1 -12 5 -25 6 -28 2 -11 -10 -36 -11 -30 0 4 6 10
26 14 45 7 28 5 33 -6 29 -19 -7 -19 45 0 107 28 95 148 257 189 257 17 0 19
2 8 9 -11 7 -7 12 15 25 34 18 44 20 44 6z m30 -19 c0 -12 -20 -25 -27 -18 -7
7 6 27 18 27 5 0 9 -4 9 -9z m-1 -54 c0 -9 -2 -9 -5 0 -3 7 -13 9 -22 6 -14
-4 -14 -3 -2 5 16 12 30 7 29 -11z m961 -62 c7 -9 8 -15 2 -15 -5 0 -12 7 -16
15 -3 8 -4 15 -2 15 2 0 9 -7 16 -15z m-270 -15 c0 -5 -2 -10 -4 -10 -3 0 -8
5 -11 10 -3 6 -1 10 4 10 6 0 11 -4 11 -10z m53 -25 c-3 -9 -8 -14 -10 -11 -3
3 -2 9 2 15 9 16 15 13 8 -4z m-826 -21 c-3 -3 -12 -4 -19 -1 -8 3 -5 6 6 6
11 1 17 -2 13 -5z m-40 -10 c-3 -3 -12 -4 -19 -1 -8 3 -5 6 6 6 11 1 17 -2 13
-5z m1027 -20 c3 -8 2 -12 -4 -9 -6 3 -10 10 -10 16 0 14 7 11 14 -7z m38 1
c3 0 9 -3 13 -7 4 -3 0 -5 -9 -4 -9 1 -22 8 -29 16 -10 10 -9 11 3 4 8 -5 18
-9 22 -9z m-1026 -124 c-3 -5 -15 -7 -26 -4 -28 7 -25 13 6 13 14 0 23 -4 20
-9z m-69 -453 c-3 -8 -6 -5 -6 6 -1 11 2 17 5 13 3 -3 4 -12 1 -19z m7 -108
c4 -47 9 -112 12 -145 5 -62 -2 -73 -10 -14 -8 57 -18 254 -13 249 3 -3 8 -43
11 -90z m23 -352 c-3 -8 -6 -5 -6 6 -1 11 2 17 5 13 3 -3 4 -12 1 -19z"/>
<path d="M2613 1853 c4 -3 -1 -12 -11 -20 -9 -8 -11 -12 -4 -8 6 3 12 0 13 -7
0 -7 4 -4 9 7 12 28 12 35 -2 35 -6 0 -8 -3 -5 -7z"/>
<path d="M2690 1825 c-7 -9 -10 -18 -6 -22 3 -3 6 -1 6 6 0 6 10 16 23 21 15
6 17 9 6 9 -9 1 -22 -6 -29 -14z"/>
<path d="M2731 1814 c-1 -6 5 -17 12 -23 10 -8 14 -7 14 4 0 8 -4 12 -8 9 -4
-2 -10 2 -12 8 -4 8 -6 9 -6 2z"/>
<path d="M2866 1713 c-6 -14 -5 -15 5 -6 7 7 10 15 7 18 -3 3 -9 -2 -12 -12z"/>
<path d="M2298 1843 c10 -4 10 -8 0 -21 -11 -15 -11 -15 3 -5 9 7 20 9 25 5 4
-4 2 1 -5 11 -7 9 -19 17 -25 16 -6 0 -6 -3 2 -6z"/>
<path d="M1636 1625 c-11 -8 -14 -15 -8 -15 20 0 26 4 28 18 3 15 3 15 -20 -3z"/>
</g>
</svg>
