<?xml version="1.0" standalone="no"?>
<!DOCTYPE svg PUBLIC "-//W3C//DTD SVG 20010904//EN"
 "http://www.w3.org/TR/2001/REC-SVG-20010904/DTD/svg10.dtd">
<svg version="1.0" xmlns="http://www.w3.org/2000/svg"
 width="450.000000pt" height="253.000000pt" viewBox="0 0 450.000000 253.000000"
 preserveAspectRatio="xMidYMid meet">
<metadata>
Created by potrace 1.16, written by Peter Selinger 2001-2019
</metadata>
<g transform="translate(0.000000,253.000000) scale(0.100000,-0.100000)"
fill="#000000" stroke="none">
<path d="M0 1265 l0 -1265 2250 0 2250 0 0 1265 0 1265 -2250 0 -2250 0 0
-1265z m2677 1174 c15 -6 76 -12 134 -13 94 -2 110 -5 151 -29 82 -48 143
-138 173 -257 1 -3 4 -12 8 -20 3 -8 7 -24 9 -35 3 -15 19 -25 71 -39 l67 -20
30 29 c27 26 35 28 98 27 75 -2 81 -3 192 -55 41 -19 86 -38 99 -42 30 -9 101
-73 101 -91 0 -8 6 -17 13 -20 10 -3 11 -18 6 -57 -9 -73 -14 -84 -88 -162
-94 -99 -172 -161 -228 -178 -26 -8 -67 -20 -90 -27 -24 -7 -43 -15 -43 -16 0
-2 14 -23 30 -48 53 -78 70 -129 77 -229 7 -109 -6 -160 -45 -184 -15 -9 -32
-21 -37 -27 -22 -23 -79 -46 -140 -57 -64 -11 -243 -8 -300 5 -140 32 -195 51
-238 79 -24 16 -28 16 -33 2 -3 -8 -13 -15 -22 -15 -9 0 -26 -10 -39 -22 -19
-18 -23 -32 -23 -80 0 -32 -4 -58 -9 -58 -4 0 -7 12 -5 26 l2 26 -26 -23 c-15
-13 -36 -34 -48 -46 -11 -12 -47 -34 -80 -49 -109 -50 -273 -32 -337 37 -10
11 -37 59 -59 106 -31 66 -41 101 -43 147 -3 55 -1 63 23 84 l27 23 -35 -6
c-60 -11 -65 -11 -62 7 3 21 -13 25 -118 31 -85 6 -219 52 -282 97 -39 29 -88
82 -88 97 0 5 -5 14 -12 21 -6 6 -13 22 -14 34 -1 13 -5 41 -9 64 -15 87 80
198 252 294 l42 23 -77 77 c-61 61 -83 91 -106 146 -56 132 -46 226 28 262 68
34 123 44 245 43 78 0 134 -6 171 -17 30 -9 102 -18 160 -21 l105 -4 53 49
c57 53 136 101 186 113 48 11 152 10 183 -2z m-192 -1738 c3 -5 2 -12 -3 -15
-5 -3 -9 1 -9 9 0 17 3 19 12 6z m111 -16 c-1 -8 -5 -17 -8 -21 -5 -4 -4 16 1
34 3 9 9 -1 7 -13z m-9 -82 c-3 -10 -5 -2 -5 17 0 19 2 27 5 18 2 -10 2 -26 0
-35z m0 -45 c-3 -8 -6 -5 -6 6 -1 11 2 17 5 13 3 -3 4 -12 1 -19z m-10 -135
c-3 -10 -5 -4 -5 12 0 17 2 24 5 18 2 -7 2 -21 0 -30z"/>
<path d="M2400 2032 c0 -6 -8 -8 -19 -5 -10 3 -22 0 -26 -6 -4 -8 9 -10 45 -7
47 3 77 12 48 13 -7 0 -21 4 -30 8 -10 4 -18 3 -18 -3z"/>
<path d="M2561 1891 c-13 -9 -12 -24 5 -80 5 -16 4 -22 -3 -18 -14 9 -47 -29
-40 -46 3 -8 0 -20 -6 -26 -20 -20 -18 -54 5 -78 13 -14 21 -27 18 -29 -3 -2
10 -14 29 -25 27 -16 31 -23 20 -29 -11 -7 -11 -12 -2 -21 7 -7 9 -24 7 -39
-6 -26 -5 -27 39 -26 25 1 43 4 40 9 -2 4 3 7 11 7 18 0 21 15 6 25 -15 9 0
35 31 51 16 8 31 13 33 12 8 -5 46 35 46 49 0 7 5 22 12 33 17 26 5 35 -34 24
-26 -8 -33 -15 -35 -38 -3 -44 -24 -59 -69 -51 -39 6 -102 55 -124 94 -9 18
-6 23 21 37 20 10 28 19 21 23 -8 5 -9 17 -3 39 5 18 6 32 2 32 -6 0 -11 25
-14 68 0 6 -1 12 -1 12 -1 0 -7 -4 -15 -9z"/>
<path d="M2794 1892 c4 -3 14 -7 22 -8 9 -1 13 0 10 4 -4 3 -14 7 -22 8 -9 1
-13 0 -10 -4z"/>
<path d="M2348 1793 c6 -3 10 -9 6 -14 -8 -14 2 -11 14 4 8 10 6 13 -11 14
-12 0 -16 -1 -9 -4z"/>
<path d="M2289 1730 c-9 -49 -7 -58 17 -81 18 -16 28 -20 31 -11 3 6 11 12 19
12 8 0 14 5 14 10 0 6 -9 10 -19 10 -11 0 -28 15 -40 33 -11 17 -21 30 -22 27z"/>
<path d="M2436 1712 c-3 -5 1 -9 9 -9 8 0 15 4 15 9 0 4 -4 8 -9 8 -6 0 -12
-4 -15 -8z"/>
<path d="M1957 1703 c-4 -3 -7 -12 -7 -20 0 -16 -36 -54 -44 -45 -6 5 -10 -23
-7 -41 1 -5 -3 -5 -9 -2 -6 4 -18 -1 -26 -11 -10 -13 -13 -15 -11 -4 2 8 2 12
0 7 -3 -4 -10 -4 -16 0 -6 3 -2 -5 9 -19 10 -14 22 -24 27 -21 4 2 7 -5 7 -17
0 -17 5 -21 28 -18 24 3 27 7 26 35 -1 18 1 31 5 29 3 -2 7 9 8 25 1 16 -2 29
-8 29 -6 0 -7 5 -4 11 4 6 10 8 13 5 7 -8 32 14 32 28 0 6 -5 4 -11 -4 -8 -12
-10 -9 -6 13 5 29 4 31 -6 20z"/>
<path d="M1525 1620 c-10 -11 -19 -30 -20 -43 -1 -12 -12 -27 -26 -34 -17 -9
-19 -13 -7 -13 19 0 18 -40 -1 -64 -8 -10 -9 -16 -1 -21 5 -3 10 -1 10 4 0 6
6 11 13 11 20 0 52 43 49 67 -2 12 2 31 8 43 9 16 8 25 0 35 -7 8 -9 19 -5 25
10 17 -1 11 -20 -10z"/>
<path d="M2393 1576 c-3 -5 2 -15 11 -22 10 -7 15 -17 12 -23 -9 -14 9 -22 57
-26 30 -2 43 -8 45 -20 3 -13 -1 -15 -17 -10 -21 6 -61 -9 -61 -24 0 -5 13
-11 29 -13 23 -3 35 2 58 28 23 26 26 34 15 44 -8 7 -10 15 -5 19 4 3 14 14
22 24 12 15 12 17 -1 12 -9 -4 -22 1 -31 9 -17 17 -124 18 -134 2z"/>
<path d="M2330 1469 c0 -5 5 -7 10 -4 6 3 10 8 10 11 0 2 -4 4 -10 4 -5 0 -10
-5 -10 -11z"/>
<path d="M2010 1439 c-14 -4 -19 -7 -12 -8 19 -2 -5 -42 -29 -48 -27 -8 -18
-27 14 -31 20 -3 34 5 53 27 14 17 29 29 34 26 8 -5 36 23 29 29 -9 9 -66 12
-89 5z"/>
<path d="M2216 1440 c-21 -4 -42 -13 -46 -21 -11 -18 -4 -25 12 -12 16 12 48
13 48 1 0 -15 38 -8 44 8 14 36 11 37 -58 24z"/>
<path d="M2410 1374 c10 -25 9 -26 -15 -22 -25 5 -25 5 -9 -13 26 -29 -4 -25
-50 6 -39 26 -56 31 -56 15 0 -5 -16 -12 -36 -16 -25 -4 -32 -10 -25 -17 7 -7
18 -7 35 1 20 9 27 7 45 -14 32 -37 34 -71 5 -96 -21 -19 -34 -68 -18 -68 7 0
69 61 70 69 0 3 10 23 23 43 20 33 26 37 64 36 84 -1 84 -1 58 23 -16 15 -21
28 -17 44 6 24 -13 35 -61 35 -20 0 -21 -3 -13 -26z"/>
<path d="M2654 1378 c-11 -18 -14 -57 -4 -63 5 -3 12 0 16 6 5 8 3 9 -6 4 -8
-5 -11 -3 -8 6 3 8 11 13 17 12 6 -2 11 5 11 15 0 14 2 14 9 3 5 -8 15 -16 23
-17 7 -1 21 -5 31 -9 10 -4 17 -3 17 4 0 7 -21 21 -46 31 -54 24 -51 23 -60 8z"/>
<path d="M2550 1336 c0 -13 5 -28 10 -31 6 -3 10 3 10 14 0 12 0 24 1 28 0 4
-4 9 -10 11 -6 2 -11 -8 -11 -22z"/>
<path d="M2659 1201 c-12 -28 -22 -39 -35 -37 -14 2 -18 10 -16 29 2 15 -1 27
-6 27 -10 0 -32 -44 -32 -65 0 -7 -6 -16 -12 -19 -7 -3 5 -3 26 0 50 7 136 50
136 67 0 16 -20 37 -34 37 -6 0 -18 -18 -27 -39z"/>
<path d="M3359 1203 c-1 -5 -1 -12 0 -17 1 -5 -6 -3 -15 5 -15 12 -17 12 -9 0
6 -10 4 -13 -7 -9 -10 4 -14 0 -14 -16 1 -12 -4 -20 -11 -19 -9 2 -12 -8 -8
-31 5 -43 26 -78 42 -72 7 3 10 -1 6 -10 -3 -9 1 -14 12 -14 9 0 13 5 10 10
-3 6 -1 10 5 10 6 0 9 4 6 9 -4 5 0 12 6 14 10 4 9 6 -1 6 -10 1 -11 4 -2 15
8 10 9 16 1 21 -5 3 -10 11 -10 16 0 6 6 7 13 3 9 -6 9 -4 1 7 -13 16 -15 51
-2 43 5 -3 6 -9 3 -14 -3 -5 0 -12 7 -16 7 -4 10 -4 6 1 -4 4 -3 14 4 22 6 8
7 13 2 12 -16 -4 -44 13 -38 22 3 5 3 9 0 9 -3 0 -7 -3 -7 -7z"/>
<path d="M2520 1135 c0 -8 2 -15 4 -15 2 0 6 7 10 15 3 8 1 15 -4 15 -6 0 -10
-7 -10 -15z"/>
<path d="M3095 1123 c11 -10 29 -25 40 -33 19 -15 19 -14 4 9 -8 13 -26 28
-40 33 -24 9 -24 9 -4 -9z"/>
<path d="M2295 1080 c-21 -23 -16 -32 19 -35 14 -2 27 3 30 12 5 11 1 13 -16
7 -20 -6 -21 -5 -10 9 19 23 -2 30 -23 7z"/>
<path d="M2840 1089 c0 -5 5 -7 10 -4 6 3 10 8 10 11 0 2 -4 4 -10 4 -5 0 -10
-5 -10 -11z"/>
<path d="M3290 986 c0 -2 8 -10 18 -17 15 -13 16 -12 3 4 -13 16 -21 21 -21
13z"/>
<path d="M2570 949 c-22 -40 -6 -51 23 -14 26 32 26 35 8 35 -11 0 -25 -9 -31
-21z"/>
</g>
</svg>
