<?xml version="1.0" standalone="no"?>
<!DOCTYPE svg PUBLIC "-//W3C//DTD SVG 20010904//EN"
 "http://www.w3.org/TR/2001/REC-SVG-20010904/DTD/svg10.dtd">
<svg version="1.0" xmlns="http://www.w3.org/2000/svg"
 width="450.000000pt" height="253.000000pt" viewBox="0 0 450.000000 253.000000"
 preserveAspectRatio="xMidYMid meet">
<metadata>
Created by potrace 1.16, written by Peter Selinger 2001-2019
</metadata>
<g transform="translate(0.000000,253.000000) scale(0.100000,-0.100000)"
fill="#000000" stroke="none">
<path d="M0 1265 l0 -1265 2250 0 2250 0 0 1265 0 1265 -2250 0 -2250 0 0
-1265z m3240 762 c94 -8 191 -31 240 -57 27 -15 60 -73 60 -107 0 -17 7 -36
15 -43 8 -7 15 -18 15 -24 0 -7 24 -20 53 -31 65 -23 110 -56 136 -101 l20
-34 -21 -37 c-32 -57 -57 -81 -92 -89 -17 -4 -43 -17 -58 -29 -15 -13 -44 -29
-65 -35 -21 -6 -44 -14 -52 -16 -11 -3 -8 -11 11 -32 65 -69 104 -165 102
-251 -1 -44 -6 -58 -28 -78 -15 -13 -23 -29 -20 -36 4 -7 4 -9 -1 -5 -4 4 -22
0 -39 -9 -17 -10 -35 -16 -41 -14 -5 2 -17 5 -25 6 -8 2 -15 4 -15 5 0 4 -54
12 -87 13 -21 1 -38 4 -38 7 0 3 -44 6 -99 7 -63 2 -120 10 -160 22 -33 10
-61 16 -61 12 0 -3 -4 -1 -8 4 -4 6 -26 23 -49 38 -24 15 -43 31 -44 35 0 4
-2 15 -4 25 -3 16 3 18 63 12 37 -3 77 -8 89 -10 56 -12 128 -16 113 -6 -13 9
-12 11 3 11 10 0 16 4 13 8 -2 4 -33 7 -68 7 -35 -1 -68 4 -74 10 -17 17 -23
42 -13 52 6 6 4 10 -5 10 -8 0 -14 -5 -13 -11 1 -6 -6 -10 -17 -8 -13 2 -16
-1 -10 -10 6 -10 4 -10 -9 1 -9 7 -17 9 -17 4 0 -12 -128 -7 -178 6 -79 22
-158 150 -165 269 0 6 -5 12 -10 12 -17 0 3 182 24 218 10 18 19 39 19 46 0 7
9 22 21 34 l20 23 -23 -5 c-13 -3 -54 -10 -93 -17 -105 -17 -117 -23 -134 -56
-22 -45 -82 -59 -107 -25 -12 15 -14 13 -16 -23 -1 -22 -2 -52 -1 -67 0 -21
-4 -25 -20 -22 -11 2 -28 11 -38 20 -14 13 -19 14 -19 4 0 -11 -3 -11 -12 -2
-8 8 -8 15 1 25 6 8 9 22 5 31 -3 9 -2 16 4 16 5 0 9 11 8 25 -1 17 -10 29
-28 38 -16 6 -28 16 -28 20 0 5 -4 6 -9 3 -16 -10 0 31 20 53 10 11 28 18 39
16 11 -2 23 1 26 7 5 7 2 8 -6 3 -9 -5 -11 -4 -6 4 6 8 59 10 199 7 106 -2
202 -6 215 -9 19 -5 22 -3 17 14 -6 18 0 29 36 57 24 18 154 49 232 55 38 3
71 7 73 10 5 5 149 1 234 -6z m-1047 -314 c-4 -11 -3 -14 5 -9 15 9 16 -6 1
-21 -6 -6 -20 -8 -30 -6 -20 5 -19 6 2 29 27 28 31 30 22 7z m-40 -118 c-2 -5
1 -3 9 6 17 20 50 31 72 23 27 -10 18 -21 -25 -28 -39 -6 -41 -8 -23 -21 10
-8 29 -15 41 -15 33 0 38 -20 6 -22 -95 -7 -103 -8 -75 -17 l24 -6 -26 -30
c-29 -34 -26 -47 5 -19 l22 19 -8 -30 c-5 -16 -9 -42 -10 -58 -1 -15 -5 -30
-10 -35 -5 -4 -5 0 -1 8 4 8 -1 4 -12 -10 -12 -14 -23 -22 -26 -19 -10 10 -9
81 3 140 11 58 19 109 21 144 l1 20 8 -20 c5 -11 6 -24 4 -30z m707 -406 c0
-6 -4 -7 -10 -4 -5 3 -10 11 -10 16 0 6 5 7 10 4 6 -3 10 -11 10 -16z"/>
<path d="M3183 1883 c-10 -3 -9 -11 2 -34 14 -25 25 -32 51 -28 4 0 10 -3 13
-8 11 -16 61 -43 61 -34 0 6 7 8 15 5 23 -9 18 9 -6 24 -17 11 -20 11 -14 0 5
-7 -2 -3 -15 10 -13 14 -28 21 -37 17 -13 -4 -14 -3 -4 9 8 9 8 16 2 20 -5 4
-12 2 -16 -4 -4 -6 -13 -5 -25 2 -14 9 -16 14 -7 20 13 8 -1 9 -20 1z"/>
<path d="M2235 1801 c-3 -5 0 -13 6 -16 5 -4 9 -21 8 -39 -4 -38 15 -76 30
-61 14 14 -3 86 -24 97 -8 5 -13 13 -10 19 4 5 4 9 1 9 -3 0 -7 -4 -11 -9z"/>
<path d="M3365 1735 c5 -15 3 -17 -6 -8 -14 14 -42 5 -32 -11 4 -6 -1 -5 -11
3 -15 13 -18 12 -23 -7 -3 -12 -9 -20 -13 -17 -4 3 -10 -2 -14 -10 -3 -8 2
-19 12 -24 13 -7 20 -3 32 17 21 35 65 39 65 5 0 -21 -1 -22 -12 -6 -12 15
-13 14 -13 -8 0 -17 -3 -20 -9 -10 -6 9 -11 10 -15 3 -4 -6 3 -16 14 -22 15
-8 20 -8 18 2 -2 6 3 13 10 14 6 1 15 3 20 4 4 1 11 2 15 1 5 -1 6 3 2 9 -3 6
-11 8 -16 5 -5 -4 -9 -1 -9 4 0 6 5 11 10 11 15 0 12 12 -11 40 -17 21 -20 21
-14 5z"/>
<path d="M3210 1680 c8 -5 20 -10 25 -10 6 0 3 5 -5 10 -8 5 -19 10 -25 10 -5
0 -3 -5 5 -10z"/>
<path d="M3070 1620 c-12 -8 -9 -9 12 -8 15 1 24 6 22 10 -7 10 -16 10 -34 -2z"/>
<path d="M3302 1613 c-15 -28 -3 -48 15 -26 8 10 11 12 7 4 -5 -10 -3 -12 5
-7 9 6 9 11 0 22 -13 16 2 19 18 3 8 -8 13 -7 18 2 5 7 4 10 -3 5 -6 -3 -13
-2 -17 4 -10 16 -33 12 -43 -7z"/>
<path d="M3250 1579 c0 -5 5 -7 10 -4 6 3 10 8 10 11 0 2 -4 4 -10 4 -5 0 -10
-5 -10 -11z"/>
<path d="M3263 1503 c-18 -26 -27 -117 -12 -107 5 2 6 11 3 18 -7 19 15 31 29
16 9 -10 8 -12 -6 -7 -10 4 -16 3 -13 -2 3 -5 15 -11 26 -14 11 -3 18 -1 15 3
-3 5 -1 12 5 15 6 4 10 3 9 -2 -4 -21 2 -34 13 -27 8 5 9 2 5 -9 -3 -10 -2
-17 4 -17 5 0 2 -11 -7 -24 -15 -24 -15 -25 5 -23 11 0 18 4 15 8 -7 12 7 39
17 33 5 -3 9 5 9 17 0 12 -3 20 -6 16 -3 -3 -18 5 -32 18 -14 13 -32 21 -40
17 -10 -3 -13 -1 -8 7 4 6 4 11 -1 10 -18 -3 -33 2 -33 11 0 5 6 7 13 5 8 -4
12 6 12 30 0 19 -1 35 -2 35 -1 0 -11 -12 -20 -27z"/>
<path d="M3086 1451 c9 -9 34 -9 34 -1 0 5 -9 8 -20 7 -10 -1 -17 -3 -14 -6z"/>
<path d="M3130 1341 c-8 -6 -17 -8 -21 -5 -11 6 -31 -24 -24 -36 8 -13 52 -13
61 1 3 6 15 8 26 6 19 -5 19 -4 -3 19 -12 13 -23 24 -23 24 -1 0 -8 -4 -16 -9z"/>
<path d="M3250 1286 c0 -8 5 -18 10 -21 6 -3 10 1 10 9 0 8 -4 18 -10 21 -5 3
-10 -1 -10 -9z"/>
<path d="M3015 1240 c3 -5 8 -10 11 -10 2 0 4 5 4 10 0 6 -5 10 -11 10 -5 0
-7 -4 -4 -10z"/>
</g>
</svg>
