<?xml version="1.0" standalone="no"?>
<!DOCTYPE svg PUBLIC "-//W3C//DTD SVG 20010904//EN"
 "http://www.w3.org/TR/2001/REC-SVG-20010904/DTD/svg10.dtd">
<svg version="1.0" xmlns="http://www.w3.org/2000/svg"
 width="450.000000pt" height="253.000000pt" viewBox="0 0 450.000000 253.000000"
 preserveAspectRatio="xMidYMid meet">
<metadata>
Created by potrace 1.16, written by Peter Selinger 2001-2019
</metadata>
<g transform="translate(0.000000,253.000000) scale(0.100000,-0.100000)"
fill="#000000" stroke="none">
<path d="M0 1265 l0 -1265 2250 0 2250 0 0 1265 0 1265 -780 0 -779 0 49 -46
c75 -70 130 -201 130 -308 0 -18 3 -36 7 -40 4 -3 7 -21 7 -38 1 -29 5 -33 58
-50 l57 -19 40 26 c37 25 47 27 118 23 62 -3 92 -10 146 -36 37 -17 71 -32 75
-32 5 0 36 -18 70 -39 72 -47 105 -101 105 -171 -1 -70 -17 -97 -121 -200
-105 -105 -160 -141 -237 -159 -27 -7 -61 -18 -75 -26 -22 -12 -23 -14 -8 -20
26 -10 83 -93 102 -147 8 -26 23 -90 32 -143 18 -105 10 -148 -27 -160 -10 -4
-19 -13 -19 -21 0 -8 -6 -14 -14 -14 -8 0 -22 -7 -31 -16 -24 -25 -158 -53
-250 -54 -160 0 -338 34 -413 80 -65 40 -85 23 -100 -85 l-11 -80 4 82 c5 87
-6 113 -27 67 -7 -15 -25 -40 -40 -55 -17 -17 -28 -38 -28 -56 0 -21 -16 -43
-63 -90 -127 -125 -291 -172 -397 -113 -54 30 -79 66 -120 173 -38 97 -47 160
-31 222 14 56 6 95 -20 95 -23 0 -24 8 -4 30 14 16 10 18 -62 30 -106 17 -198
50 -283 101 -67 39 -120 96 -120 126 0 7 -3 13 -8 13 -9 0 -32 94 -32 129 0
48 86 168 147 205 57 33 113 72 113 76 0 4 -21 26 -47 51 -74 70 -118 132
-148 206 -55 139 -41 243 39 276 115 46 299 47 434 1 60 -20 98 -26 172 -28
l95 -1 80 80 c52 52 104 93 150 117 l70 37 -1252 1 -1253 0 0 -1265z m2529
-580 c1 -28 -2 -45 -9 -45 -6 0 -8 5 -4 12 5 8 2 9 -11 4 -18 -6 -18 -6 1 15
10 12 14 19 7 16 -12 -8 -12 10 0 31 12 18 13 16 16 -33z m108 20 c0 -8 -4
-12 -9 -9 -5 3 -6 10 -3 15 9 13 12 11 12 -6z m-10 -87 c-2 -13 -4 -3 -4 22 0
25 2 35 4 23 2 -13 2 -33 0 -45z m-104 -3 c-3 -9 -8 -14 -10 -11 -3 3 -2 9 2
15 9 16 15 13 8 -4z m94 -122 c-2 -21 -4 -6 -4 32 0 39 2 55 4 38 2 -18 2 -50
0 -70z m-7 -108 c-7 -59 -7 -59 -9 -13 -1 40 7 85 14 76 1 -2 -2 -30 -5 -63z"/>
<path d="M2315 2009 c-4 -6 -5 -12 -2 -15 2 -3 7 2 10 11 7 17 1 20 -8 4z"/>
<path d="M2427 1765 c-8 -8 -17 -11 -21 -8 -3 4 -6 2 -6 -4 0 -6 8 -14 18 -18
15 -6 15 -8 1 -18 -25 -19 -30 -56 -11 -77 9 -10 25 -30 36 -45 12 -17 25 -25
36 -22 11 3 21 -2 24 -10 9 -23 7 -33 -6 -33 -8 0 -13 -16 -14 -43 -1 -39 1
-43 20 -41 11 1 38 3 59 3 22 1 36 5 32 11 -3 5 0 7 8 4 21 -8 30 11 12 26
-19 16 -19 35 0 53 13 14 9 17 -36 26 -56 12 -79 27 -129 84 -28 32 -31 41
-22 60 14 29 25 67 18 67 -2 0 -11 -7 -19 -15z"/>
<path d="M2709 1663 c-1 -5 -1 -11 0 -15 0 -5 -2 -7 -6 -6 -18 5 -53 -28 -53
-49 0 -41 45 -21 68 30 6 15 12 32 12 37 0 12 -19 14 -21 3z"/>
<path d="M1760 1643 c-17 -6 -30 -15 -30 -18 0 -3 16 -19 35 -36 19 -17 35
-36 35 -42 0 -6 -3 -7 -7 -4 -9 9 -34 -13 -27 -24 3 -5 16 -9 30 -9 18 0 24 5
24 22 0 12 7 30 17 40 9 10 12 18 6 18 -5 0 -9 15 -8 33 2 29 -1 33 -22 33
-13 0 -37 -6 -53 -13z m64 -4 c3 -3 -5 -5 -19 -5 -13 0 -22 3 -19 7 4 8 30 6
38 -2z"/>
<path d="M1498 1628 c-8 -19 17 -33 28 -16 4 6 3 8 -4 4 -6 -3 -12 2 -14 11
-3 16 -4 17 -10 1z"/>
<path d="M1495 1580 c4 -11 -1 -20 -11 -24 -16 -6 -15 -8 2 -21 16 -13 17 -14
1 -9 -13 5 -16 2 -11 -10 4 -11 -3 -27 -17 -44 -18 -21 -19 -23 -3 -9 11 9 24
14 27 10 4 -3 7 2 7 13 0 11 9 25 20 32 12 7 18 17 15 21 -3 5 -1 20 4 34 9
22 7 25 -15 25 -19 0 -23 -5 -19 -18z"/>
<path d="M1830 1549 c0 -5 5 -7 10 -4 6 3 10 8 10 11 0 2 -4 4 -10 4 -5 0 -10
-5 -10 -11z"/>
<path d="M2395 1541 c-3 -6 -11 -9 -16 -5 -5 3 -8 0 -7 -8 2 -7 -3 -12 -9 -10
-7 1 -13 -2 -13 -7 0 -5 -8 -12 -17 -15 -10 -2 5 -4 32 -3 28 0 58 5 68 11 18
11 24 36 8 36 -5 0 -16 3 -24 6 -8 3 -18 0 -22 -5z"/>
<path d="M2152 1430 c-18 -11 -44 -21 -57 -22 -13 -1 -22 -5 -19 -9 7 -12 68
-1 79 15 7 9 17 16 24 16 6 0 11 5 11 10 0 13 0 13 -38 -10z"/>
<path d="M2346 1419 c-26 -21 -27 -39 -1 -39 18 0 67 45 58 53 -11 12 -30 7
-57 -14z"/>
<path d="M1925 1411 c3 -6 14 -9 25 -8 24 2 15 17 -11 17 -11 0 -18 -4 -14 -9z"/>
<path d="M1893 1374 c-3 -8 0 -21 6 -27 9 -9 11 -8 6 6 -4 10 -2 17 4 17 6 0
11 5 11 10 0 16 -20 12 -27 -6z"/>
<path d="M2324 1317 c-14 -16 -25 -47 -16 -46 4 1 9 0 12 -1 19 -9 73 -5 77 6
14 37 -46 72 -73 41z"/>
<path d="M2536 1287 c3 -10 9 -15 12 -12 3 3 0 11 -7 18 -10 9 -11 8 -5 -6z"/>
<path d="M2262 1249 c2 -6 8 -10 13 -10 5 0 11 4 13 10 2 6 -4 11 -13 11 -9 0
-15 -5 -13 -11z"/>
<path d="M2234 1185 c-17 -17 -37 -29 -45 -26 -12 4 -12 2 0 -13 13 -15 15
-15 32 0 10 9 16 22 12 28 -4 6 0 5 9 -2 13 -11 16 -8 21 15 3 16 5 28 4 29
-1 1 -16 -13 -33 -31z"/>
<path d="M3307 1203 c-4 -3 -7 -14 -7 -24 0 -10 -6 -24 -14 -32 -12 -12 -12
-18 -2 -38 25 -49 41 -69 53 -69 7 0 13 -4 13 -8 0 -4 11 -8 24 -8 14 0 22 4
20 8 -3 4 1 8 8 8 10 0 11 2 0 8 -7 5 -10 16 -7 24 4 9 1 19 -4 23 -6 3 -8 11
-5 17 4 6 3 8 -2 5 -5 -3 -19 14 -30 38 -11 24 -16 41 -11 38 6 -3 7 -1 3 5
-8 13 -29 16 -39 5z"/>
<path d="M2610 1175 c-10 -13 -11 -18 -1 -28 10 -9 11 -8 5 6 -5 13 -2 16 10
11 12 -5 15 -2 10 10 -8 20 -8 20 -24 1z"/>
<path d="M2481 1154 c-28 -27 -35 -50 -15 -52 42 -5 73 0 101 18 16 10 15 10
-4 5 -13 -4 -32 -3 -44 0 -18 6 -19 9 -5 29 19 30 -1 30 -33 0z"/>
<path d="M2715 1150 c3 -5 11 -10 16 -10 6 0 7 5 4 10 -3 6 -11 10 -16 10 -6
0 -7 -4 -4 -10z"/>
<path d="M3110 1101 c0 -10 19 -25 25 -20 1 2 -3 10 -11 17 -8 7 -14 8 -14 3z"/>
<path d="M2221 1041 c-8 -6 -9 -11 -3 -15 6 -3 14 -1 17 5 9 14 2 20 -14 10z"/>
</g>
</svg>
