<?xml version="1.0" standalone="no"?>
<!DOCTYPE svg PUBLIC "-//W3C//DTD SVG 20010904//EN"
 "http://www.w3.org/TR/2001/REC-SVG-20010904/DTD/svg10.dtd">
<svg version="1.0" xmlns="http://www.w3.org/2000/svg"
 width="450.000000pt" height="253.000000pt" viewBox="0 0 450.000000 253.000000"
 preserveAspectRatio="xMidYMid meet">
<metadata>
Created by potrace 1.16, written by Peter Selinger 2001-2019
</metadata>
<g transform="translate(0.000000,253.000000) scale(0.100000,-0.100000)"
fill="#000000" stroke="none">
<path d="M0 1265 l0 -1265 2250 0 2250 0 0 1265 0 1265 -2250 0 -2250 0 0
-1265z m2810 1232 c41 -3 86 -9 100 -14 36 -12 100 -56 100 -69 0 -6 7 -17 16
-25 33 -27 62 -106 71 -194 13 -127 15 -133 42 -144 44 -17 101 -24 101 -12 0
26 62 43 144 39 74 -3 91 -8 196 -59 111 -53 170 -100 170 -134 0 -7 7 -16 16
-19 9 -3 12 -11 8 -18 -4 -7 -7 -30 -6 -53 2 -54 -19 -91 -108 -181 -102 -103
-157 -142 -237 -165 -37 -10 -74 -21 -82 -24 -10 -4 -4 -17 21 -48 54 -68 67
-93 82 -159 35 -151 29 -254 -13 -265 -11 -3 -21 -13 -24 -24 -3 -11 -14 -19
-25 -19 -12 0 -23 -4 -26 -9 -17 -28 -246 -52 -341 -36 -173 29 -279 57 -305
80 -24 22 -60 20 -60 -4 0 -14 -6 -17 -24 -14 -28 6 -67 -37 -59 -65 6 -25
-85 -118 -138 -138 -57 -23 -155 -24 -198 -2 -19 10 -39 18 -46 18 -6 0 -31
13 -56 28 -37 24 -53 45 -91 120 -26 50 -52 110 -58 132 -6 22 -16 40 -22 40
-6 0 -8 11 -5 29 8 38 0 43 -35 25 -33 -17 -55 -10 -37 12 6 8 10 17 7 19 -2
2 -37 9 -77 15 -79 11 -196 57 -248 96 -18 14 -33 21 -33 17 0 -4 -14 12 -30
37 -16 25 -30 52 -30 61 0 9 -7 20 -16 23 -8 3 -13 10 -9 16 3 5 -1 23 -10 39
-8 17 -15 44 -15 62 0 43 61 140 113 181 23 18 46 38 50 45 4 7 13 13 20 13 7
1 25 11 40 24 l28 23 -38 33 c-54 48 -120 135 -134 178 -6 20 -15 42 -19 47
-3 6 -12 35 -19 65 -15 66 -3 128 32 160 40 38 121 55 257 54 102 0 137 -4
188 -22 48 -17 89 -23 169 -24 l106 -2 26 31 c36 42 131 117 180 143 92 47
159 53 391 37z m-167 -1654 c-7 -91 -13 -93 -13 -5 0 40 4 72 9 72 5 0 7 -30
4 -67z m-36 -475 c-3 -8 -6 -5 -6 6 -1 11 2 17 5 13 3 -3 4 -12 1 -19z"/>
<path d="M2273 2039 c4 -13 1 -15 -15 -11 -16 4 -19 2 -13 -9 5 -8 -2 -5 -15
6 l-23 20 12 -23 c7 -13 20 -22 29 -21 9 1 22 0 27 -1 21 -4 97 -1 102 4 4 3
-5 6 -19 6 -14 0 -28 7 -32 15 -3 9 -12 12 -22 8 -9 -3 -20 0 -26 8 -8 11 -9
11 -5 -2z"/>
<path d="M2443 1852 c0 -12 5 -22 9 -22 11 0 10 12 -2 30 -7 12 -9 10 -7 -8z"/>
<path d="M2396 1785 c-4 -14 -4 -30 -1 -35 8 -13 25 -13 25 1 0 5 -5 7 -12 3
-7 -5 -8 -3 -3 5 5 9 11 9 17 3 14 -14 0 -33 -20 -30 -9 2 -16 -3 -14 -10 1
-9 -9 -11 -40 -6 -42 6 -43 6 -20 -11 13 -9 29 -14 37 -11 9 3 15 -1 15 -9 0
-8 10 -24 23 -36 12 -12 15 -18 7 -13 -13 7 -13 6 0 -15 8 -12 19 -22 23 -21
4 0 15 -6 23 -15 9 -8 19 -13 24 -10 4 3 10 -2 14 -10 4 -10 -1 -15 -15 -15
-16 0 -18 -3 -9 -19 6 -12 7 -29 1 -43 -9 -23 -7 -24 38 -23 25 1 56 7 68 13
19 11 21 15 11 32 -10 15 -9 23 6 39 18 20 18 20 -10 26 -56 13 -68 18 -87 36
-11 10 -25 16 -30 12 -6 -3 -7 -1 -4 4 4 6 0 16 -8 23 -8 7 -15 9 -15 4 0 -5
-7 4 -16 21 -14 28 -14 31 3 45 16 13 19 29 14 71 0 5 -6 7 -12 3 -6 -3 -15
-1 -19 6 -5 8 -10 3 -14 -15z"/>
<path d="M1860 1710 c0 -5 -10 -10 -22 -11 -13 0 -17 -3 -10 -6 6 -2 9 -10 6
-15 -4 -7 -2 -8 4 -4 8 5 12 -2 11 -21 -1 -17 -3 -21 -6 -10 -5 19 -63 25 -63
6 0 -5 -4 -8 -9 -5 -4 3 -16 -1 -27 -8 -15 -12 -16 -16 -5 -30 12 -14 9 -16
-23 -16 -20 0 -36 -5 -36 -11 0 -6 7 -8 16 -5 8 3 12 2 9 -4 -4 -6 7 -10 24
-10 18 0 31 5 31 12 0 9 3 9 12 0 9 -9 7 -16 -7 -32 -10 -11 -14 -21 -9 -21
42 -6 58 -2 68 16 6 11 15 23 19 26 5 3 8 9 8 13 -1 3 -1 7 0 9 10 32 20 137
13 137 -2 0 -4 -4 -4 -10z m-30 -70 c0 -5 -5 -10 -11 -10 -5 0 -7 5 -4 10 3 6
8 10 11 10 2 0 4 -4 4 -10z"/>
<path d="M2170 1683 c0 -5 11 -13 25 -20 27 -12 33 -5 13 15 -13 13 -38 16
-38 5z"/>
<path d="M2670 1650 c-35 -34 -39 -60 -10 -60 13 0 20 7 20 19 0 11 4 22 9 25
9 6 22 46 15 46 -2 0 -17 -13 -34 -30z"/>
<path d="M1680 1636 c0 -2 7 -7 16 -10 8 -3 12 -2 9 4 -6 10 -25 14 -25 6z"/>
<path d="M1490 1591 c-8 -17 -7 -20 9 -18 11 0 17 5 15 9 -3 4 0 8 5 8 6 0 11
5 11 10 0 18 -29 11 -40 -9z"/>
<path d="M2375 1566 c2 -14 6 -31 10 -38 4 -7 -2 -3 -12 8 -34 40 -83 54 -83
23 0 -6 4 -8 9 -4 5 3 13 1 16 -5 4 -6 16 -9 28 -6 13 3 11 1 -5 -6 -32 -13
-37 -28 -10 -29 9 0 24 -2 33 -4 20 -4 79 24 79 37 0 6 -9 12 -19 15 -11 3
-22 11 -25 19 -9 23 -23 16 -21 -10z"/>
<path d="M1463 1544 c-17 -12 -17 -13 0 -14 20 0 23 -30 5 -49 -11 -10 -8 -10
15 0 18 8 27 20 27 36 0 12 1 26 3 30 4 12 -32 11 -50 -3z"/>
<path d="M2148 1465 c3 -19 0 -25 -14 -27 -11 0 -24 -2 -29 -2 -15 -2 -61 -36
-50 -37 6 0 29 -2 53 -3 30 -3 42 0 42 10 0 7 11 21 25 30 26 17 26 17 6 35
-28 26 -39 24 -33 -6z"/>
<path d="M2338 1446 c-36 -27 -10 -48 37 -30 13 5 14 8 3 15 -10 7 -9 9 5 9 9
0 17 5 17 10 0 14 -42 12 -62 -4z"/>
<path d="M1911 1432 c-5 -2 -8 -9 -5 -17 3 -7 -6 -21 -20 -30 -32 -21 -33 -30
-4 -32 13 -1 34 8 48 21 14 13 34 26 44 28 36 6 28 26 -13 30 -22 2 -44 2 -50
0z"/>
<path d="M2230 1389 c0 -5 5 -7 10 -4 6 3 10 8 10 11 0 2 -4 4 -10 4 -5 0 -10
-5 -10 -11z"/>
<path d="M2255 1380 c-3 -5 3 -10 14 -10 25 0 45 -32 30 -47 -15 -15 27 -43
63 -43 31 0 34 10 17 58 -9 25 -15 30 -43 30 -19 0 -43 5 -54 11 -14 7 -23 8
-27 1z"/>
<path d="M2547 1360 c14 -15 77 -24 68 -10 -3 5 -13 8 -23 8 -9 0 -26 3 -37 7
-16 7 -18 6 -8 -5z"/>
<path d="M2138 1341 c-36 -21 -30 -35 13 -37 19 -1 39 -2 44 -4 6 -1 13 -2 16
-2 3 1 5 -10 3 -24 -1 -13 2 -22 7 -18 5 3 6 10 3 16 -4 6 2 5 15 -2 18 -9 21
-30 5 -30 -3 0 -2 5 1 10 3 6 1 10 -4 10 -6 0 -11 -7 -11 -16 0 -8 -4 -12 -10
-9 -5 3 -7 0 -4 -8 3 -8 -6 -21 -20 -30 -13 -9 -23 -24 -22 -34 3 -22 26 -30
26 -9 0 9 11 21 25 26 14 5 25 14 25 20 0 6 9 29 19 50 20 42 14 56 -19 45
-14 -5 -20 -2 -20 9 0 9 -5 16 -11 16 -5 0 -8 4 -4 9 14 24 -42 33 -77 12z"/>
<path d="M2436 1318 c-6 -24 6 -44 22 -34 11 6 4 56 -8 56 -4 0 -10 -10 -14
-22z"/>
<path d="M2167 1287 c4 -7 8 -16 8 -21 0 -5 6 -10 13 -12 7 -1 8 0 2 3 -8 3
-7 9 1 19 6 8 10 14 8 15 -34 7 -38 6 -32 -4z"/>
<path d="M2569 1196 c-6 -13 -22 -29 -36 -35 -24 -11 -25 -10 -21 17 4 25 1
28 -16 24 -27 -7 -53 -32 -58 -57 -2 -11 -11 -19 -21 -19 -17 2 -22 -7 -11
-19 4 -3 15 -2 25 4 11 5 19 6 19 1 0 -12 62 -2 80 13 8 8 27 16 42 20 33 9
50 27 42 48 -10 27 -34 28 -45 3z"/>
<path d="M3286 1191 c-9 -10 -16 -23 -16 -29 0 -7 -4 -12 -10 -12 -16 0 -12
-27 9 -69 22 -43 38 -58 66 -63 17 -2 20 3 21 37 1 22 -6 51 -14 65 -9 14 -15
37 -14 51 3 33 -20 44 -42 20z"/>
<path d="M2820 1191 c0 -5 5 -13 10 -16 6 -3 10 -2 10 4 0 5 -4 13 -10 16 -5
3 -10 2 -10 -4z"/>
<path d="M2682 1174 c10 -10 20 -15 24 -12 3 4 -5 12 -18 18 -22 12 -22 12 -6
-6z"/>
<path d="M2937 1174 c3 -8 8 -14 12 -15 3 0 14 -2 24 -4 28 -5 19 12 -12 23
-25 9 -29 8 -24 -4z"/>
<path d="M2916 1142 c-3 -5 1 -9 9 -9 8 0 12 4 9 9 -3 4 -7 8 -9 8 -2 0 -6 -4
-9 -8z"/>
<path d="M2860 1100 c5 -10 6 -20 2 -24 -3 -4 1 -4 11 0 13 4 15 10 7 19 -5 6
-8 14 -5 17 3 2 -2 5 -9 5 -11 0 -12 -5 -6 -17z"/>
<path d="M3090 1102 c0 -10 50 -35 57 -28 2 2 -5 7 -16 11 -12 3 -21 11 -21
16 0 5 -4 9 -10 9 -5 0 -10 -4 -10 -8z"/>
<path d="M2024 1075 c-17 -26 -14 -42 6 -30 6 4 9 13 6 21 -3 8 1 14 9 14 8 0
15 5 15 10 0 18 -19 10 -36 -15z"/>
<path d="M2188 1067 c-15 -12 -15 -14 3 -25 11 -7 25 -10 31 -6 7 4 8 3 4 -5
-4 -6 -1 -17 6 -25 7 -7 20 -23 28 -35 14 -20 50 -30 50 -13 0 15 -50 76 -73
89 -12 7 -16 12 -9 13 6 0 12 5 12 10 0 14 -32 12 -52 -3z"/>
<path d="M2375 960 c-3 -5 -1 -18 4 -27 9 -16 10 -15 11 6 0 24 0 24 16 5 14
-18 15 -18 4 4 -11 23 -25 28 -35 12z"/>
<path d="M2430 957 c0 -5 5 -17 10 -27 8 -16 8 -18 -5 -14 -11 5 -15 -1 -14
-22 0 -16 3 -23 6 -16 2 6 9 10 14 6 5 -3 8 -2 7 3 -1 4 3 18 10 30 8 14 9 24
2 28 -5 3 -10 3 -10 -2 0 -4 -5 -1 -10 7 -5 8 -10 11 -10 7z"/>
<path d="M2315 940 c-3 -5 -1 -10 5 -10 6 0 9 -4 5 -9 -9 -16 9 -20 29 -6 10
8 15 18 11 24 -8 14 -42 14 -50 1z"/>
<path d="M2541 931 c-18 -14 -22 -23 -16 -37 7 -16 9 -17 12 -3 2 9 15 22 28
29 14 7 25 17 25 22 0 14 -24 9 -49 -11z"/>
<path d="M2260 823 c1 -27 1 -27 15 -9 19 25 19 36 0 36 -10 0 -15 -10 -15
-27z"/>
</g>
</svg>
