<?xml version="1.0" standalone="no"?>
<!DOCTYPE svg PUBLIC "-//W3C//DTD SVG 20010904//EN"
 "http://www.w3.org/TR/2001/REC-SVG-20010904/DTD/svg10.dtd">
<svg version="1.0" xmlns="http://www.w3.org/2000/svg"
 width="450.000000pt" height="253.000000pt" viewBox="0 0 450.000000 253.000000"
 preserveAspectRatio="xMidYMid meet">
<metadata>
Created by potrace 1.16, written by Peter Selinger 2001-2019
</metadata>
<g transform="translate(0.000000,253.000000) scale(0.100000,-0.100000)"
fill="#000000" stroke="none">
<path d="M0 1265 l0 -1265 2250 0 2250 0 0 1265 0 1265 -2250 0 -2250 0 0
-1265z m2515 619 c-6 -1 -26 -5 -46 -8 -21 -4 -50 -20 -69 -37 -17 -17 -46
-37 -63 -44 -43 -18 -81 -51 -67 -60 14 -9 13 -21 -6 -40 -12 -12 -20 -13 -28
-5 -8 8 -7 13 4 20 8 5 11 10 6 10 -5 0 -24 -9 -42 -21 -32 -19 -46 -15 -25 7
6 5 -2 10 -22 11 -18 2 -50 12 -71 22 -21 11 -43 18 -48 15 -5 -3 -7 0 -6 8 2
7 12 19 23 26 17 11 14 12 -27 8 -37 -3 -45 -1 -41 10 3 8 12 14 21 14 27 0
-4 23 -56 42 l-47 16 105 0 c76 0 96 -2 70 -8 -19 -5 -39 -6 -44 -3 -5 3 -7 0
-4 -8 2 -8 20 -15 39 -17 60 -5 66 -11 34 -32 -17 -11 -25 -20 -20 -20 6 1 19
7 29 15 13 10 44 15 90 15 54 0 67 3 58 12 -7 7 -12 17 -12 23 0 5 5 3 10 -5
6 -10 10 -11 10 -2 0 6 7 12 16 12 8 0 13 4 9 9 -3 5 0 13 6 17 7 4 9 3 6 -2
-9 -15 155 -6 170 10 2 2 14 1 26 -2 12 -3 17 -7 12 -8z m-282 -1 c-7 -2 -19
-2 -25 0 -7 3 -2 5 12 5 14 0 19 -2 13 -5z m502 -25 c105 -38 233 -108 282
-155 40 -39 56 -73 33 -73 -5 0 -10 5 -10 10 0 6 -8 10 -17 11 -11 0 -13 3 -5
6 28 11 -1 19 -52 13 -31 -3 -56 -3 -56 1 0 4 -9 5 -19 2 -25 -6 -98 28 -140
66 -40 36 -54 41 -23 8 12 -13 22 -26 22 -29 0 -3 -26 -1 -57 4 -31 5 -69 7
-83 6 -21 -3 -18 -6 20 -18 25 -7 48 -13 53 -12 4 1 7 -3 7 -9 0 -7 -7 -8 -17
-3 -18 7 -43 8 -78 1 -11 -3 -27 -1 -36 4 -19 10 -44 -12 -31 -27 4 -4 -1 -2
-10 5 -15 11 -18 11 -18 0 0 -12 -2 -12 -9 -1 -4 8 -11 13 -15 12 -4 -1 -16 0
-28 3 l-21 6 22 36 c26 45 26 44 -4 55 -28 11 -32 27 -12 54 11 15 28 18 98
18 61 -1 79 2 66 9 -9 6 -27 12 -39 14 -11 3 -23 7 -27 11 -15 16 140 -6 204
-28z m-908 -5 c-17 -19 -7 -43 23 -56 8 -4 2 -5 -15 -4 -22 1 -37 -6 -57 -28
-15 -16 -28 -35 -28 -41 0 -7 -10 -14 -23 -18 -13 -3 -29 -16 -35 -30 -10 -23
-9 -24 21 -21 l32 4 -35 -11 c-19 -5 -41 -12 -49 -14 -11 -4 -11 -7 0 -22 12
-15 12 -16 -2 -5 -9 7 -20 9 -24 5 -5 -4 -5 -1 -1 6 4 6 2 12 -3 12 -11 0 -14
-11 -8 -27 1 -5 8 -7 15 -5 19 5 14 -22 -8 -35 -21 -14 -56 -73 -42 -73 5 0
25 16 45 35 20 19 48 40 62 45 23 9 25 8 15 -9 -13 -25 -13 -34 1 -25 7 4 10
1 7 -7 -3 -8 -17 -14 -32 -14 -27 0 -46 -18 -46 -44 0 -12 3 -12 18 1 19 16
61 18 62 3 2 -32 -14 -115 -22 -115 -5 0 -6 -6 -2 -12 4 -8 3 -10 -2 -5 -5 5
-10 13 -10 18 -1 5 -2 14 -3 20 0 5 -7 7 -13 4 -7 -4 -4 1 6 9 11 9 17 19 13
22 -3 3 -15 -3 -27 -14 -12 -11 -34 -22 -49 -24 -27 -4 -28 -3 -23 35 2 25 0
37 -6 33 -17 -10 -23 41 -11 91 26 106 144 268 233 320 30 18 41 16 23 -4z
m346 -8 c-10 -7 -21 -11 -26 -8 -5 3 0 11 10 18 10 7 21 11 26 8 5 -3 0 -11
-10 -18z m62 5 c-3 -5 -12 -7 -20 -3 -21 7 -19 13 6 13 11 0 18 -4 14 -10z
m-375 -15 c0 -18 -26 -20 -36 -3 -4 6 -3 8 4 4 6 -3 13 -2 17 4 9 14 15 12 15
-5z m130 1 c0 -2 -7 -7 -16 -10 -8 -3 -12 -2 -9 4 6 10 25 14 25 6z m100 -130
c0 -2 -7 -7 -16 -10 -8 -3 -12 -2 -9 4 6 10 25 14 25 6z m-383 -588 c-3 -7 -5
-2 -5 12 0 14 2 19 5 13 2 -7 2 -19 0 -25z m19 -268 c3 -69 4 -123 1 -120 -3
3 -9 59 -12 125 -4 66 -10 125 -13 130 -3 7 -1 7 6 0 6 -5 14 -66 18 -135z"/>
<path d="M1660 1685 c-14 -16 -10 -18 14 -9 9 3 16 10 16 15 0 14 -16 11 -30
-6z"/>
</g>
</svg>
