<?xml version="1.0" standalone="no"?>
<!DOCTYPE svg PUBLIC "-//W3C//DTD SVG 20010904//EN"
 "http://www.w3.org/TR/2001/REC-SVG-20010904/DTD/svg10.dtd">
<svg version="1.0" xmlns="http://www.w3.org/2000/svg"
 width="450.000000pt" height="253.000000pt" viewBox="0 0 450.000000 253.000000"
 preserveAspectRatio="xMidYMid meet">
<metadata>
Created by potrace 1.16, written by Peter Selinger 2001-2019
</metadata>
<g transform="translate(0.000000,253.000000) scale(0.100000,-0.100000)"
fill="#000000" stroke="none">
<path d="M0 1265 l0 -1265 2250 0 2250 0 0 1265 0 1265 -2250 0 -2250 0 0
-1265z m2560 675 c89 -15 108 -20 137 -32 16 -6 31 -12 35 -12 3 -1 10 -4 14
-8 4 -5 16 -8 26 -8 11 0 17 -4 13 -9 -3 -6 4 -8 15 -6 11 2 20 1 20 -3 0 -4
25 -21 55 -37 65 -34 82 -51 89 -89 6 -32 -26 -68 -83 -92 -42 -17 -45 -17
-29 0 7 8 15 13 16 11 9 -8 42 31 42 49 0 18 1 18 13 3 10 -15 12 -12 14 20 1
26 -1 33 -7 23 -6 -8 -10 -10 -10 -4 0 14 -39 26 -54 16 -21 -13 -44 -11 -50
3 -3 9 -12 12 -21 9 -17 -7 -59 29 -47 40 3 4 -1 4 -11 0 -16 -6 -25 -27 -9
-21 4 1 8 -1 10 -5 3 -11 -10 -8 -30 7 -10 6 -16 14 -13 17 3 2 -1 5 -9 5 -11
0 -12 -6 -5 -24 9 -25 13 -25 -144 -8 -32 4 -40 1 -44 -14 -3 -12 -11 -17 -19
-14 -8 3 -21 0 -29 -7 -22 -18 -30 -4 -16 27 10 22 10 28 -3 35 -14 8 -13 13
6 38 18 25 24 27 42 18 18 -9 19 -9 9 3 -9 12 -6 14 21 13 18 -1 39 -5 47 -9
8 -5 4 3 -9 17 -12 13 -19 28 -15 32 4 4 0 4 -10 0 -9 -3 -25 0 -34 7 -14 12
-16 12 -8 -1 7 -12 6 -13 -7 -3 -8 7 -18 10 -21 6 -4 -3 -7 -1 -7 5 0 14 46
15 120 2z m-150 -15 c-1 -5 -9 -8 -18 -6 -16 3 -15 1 1 -16 24 -28 22 -37 -20
-69 -21 -15 -40 -31 -43 -35 -3 -3 -15 -9 -27 -13 -25 -8 -37 -34 -24 -50 12
-14 -2 -39 -23 -42 -20 -3 -20 10 -1 30 9 9 11 17 5 21 -5 3 -10 2 -10 -3 0
-15 -59 -52 -74 -46 -9 3 -13 10 -10 15 3 5 2 9 -3 8 -12 -3 -46 13 -61 28 -7
7 -25 13 -38 13 -14 0 -23 4 -20 9 4 5 0 12 -6 14 -12 5 17 11 35 8 5 -1 6 2
3 7 -3 5 -18 7 -33 5 -20 -3 -31 1 -40 16 -11 17 -10 19 2 15 34 -13 12 8 -26
25 -30 14 -36 20 -24 25 28 10 46 7 76 -15 22 -15 40 -20 68 -16 29 3 38 1 34
-9 -2 -7 -11 -15 -19 -18 -8 -3 -14 -10 -14 -16 0 -5 9 -2 20 8 16 13 39 17
93 17 60 0 72 3 75 17 2 12 -2 16 -16 13 -11 -2 -19 2 -19 11 0 9 4 11 12 4 7
-5 15 -7 18 -3 12 11 8 21 -10 27 -15 4 -14 5 2 4 11 -1 31 4 45 10 19 8 28 7
36 -4 10 -12 12 -11 17 7 6 21 39 25 37 4z m-172 -22 c-10 -2 -28 -2 -40 0
-13 2 -5 4 17 4 22 1 32 -1 23 -4z m-128 -12 c0 -11 -60 -20 -80 -12 -9 3 4 9
30 12 25 3 46 7 48 7 1 1 2 -2 2 -7z m114 -16 c-7 -17 -32 -19 -54 -4 -12 9
-11 10 6 6 12 -2 28 -1 35 4 19 12 19 11 13 -6z m-391 -12 c-7 -2 -13 -11 -13
-19 0 -11 4 -12 19 -4 14 7 21 6 24 -3 3 -7 6 -4 6 6 1 10 6 15 11 12 8 -5 8
-11 0 -20 -6 -7 -8 -19 -5 -27 4 -11 -2 -17 -19 -20 -14 -3 -23 -1 -20 3 3 5
2 9 -3 9 -16 0 -30 -15 -47 -47 -9 -18 -21 -33 -26 -33 -5 0 -18 -9 -29 -21
-13 -14 -26 -19 -39 -15 -12 4 -24 2 -28 -5 -5 -9 -2 -10 9 -6 11 4 20 -1 27
-13 10 -19 4 -25 -21 -22 -4 1 -10 -14 -13 -33 -4 -19 -10 -35 -14 -35 -4 0
-15 -14 -24 -31 -11 -18 -22 -27 -29 -23 -8 4 -9 3 -5 -4 4 -7 2 -12 -3 -12
-6 0 -11 -5 -11 -10 0 -12 59 27 78 52 6 9 26 24 44 32 34 17 64 22 36 5 -10
-5 -23 -19 -29 -30 -10 -19 -9 -20 11 -9 19 10 20 10 8 -9 -8 -13 -23 -21 -41
-21 -16 0 -26 -4 -22 -10 3 -5 2 -10 -3 -10 -5 0 -9 -6 -9 -14 0 -13 4 -13 30
0 16 9 31 13 34 11 2 -3 0 -31 -6 -64 -6 -32 -12 -69 -15 -83 -2 -19 -4 -17
-5 9 -1 26 -5 32 -17 27 -8 -3 -12 -2 -9 4 3 5 -4 8 -15 7 -11 -1 -20 -5 -20
-10 0 -4 -4 -5 -10 -2 -5 3 -10 1 -10 -6 0 -29 -21 10 -22 41 -1 17 -7 34 -14
37 -8 3 -11 9 -8 14 3 5 1 9 -5 9 -7 0 -7 8 -1 25 5 14 6 25 3 25 -4 0 -2 5 5
12 7 7 12 20 12 30 0 17 52 119 75 145 30 36 35 43 35 50 1 11 100 108 100 97
0 -4 5 -3 12 4 7 7 19 12 28 11 10 0 11 -2 3 -6z m688 -116 c-10 -9 -11 -8 -5
6 3 10 9 15 12 12 3 -3 0 -11 -7 -18z m-421 -31 c0 -2 -7 -7 -16 -10 -8 -3
-12 -2 -9 4 6 10 25 14 25 6z m34 -44 c2 -4 -4 -8 -14 -8 -10 0 -16 4 -14 8 3
4 9 8 14 8 5 0 11 -4 14 -8z m-34 -33 c0 -3 -9 -9 -20 -12 -19 -5 -27 3 -15
15 8 7 35 6 35 -3z m-325 -118 c3 -5 1 -12 -5 -16 -5 -3 -10 1 -10 9 0 18 6
21 15 7z m-78 -313 c-2 -13 -4 -3 -4 22 0 25 2 35 4 23 2 -13 2 -33 0 -45z m8
-67 c0 -22 -3 -37 -7 -34 -14 8 -8 73 6 73 1 0 1 -18 1 -39z m2 -153 c-3 -8
-6 -5 -6 6 -1 11 2 17 5 13 3 -3 4 -12 1 -19z m12 -130 c1 -43 4 -87 6 -98 2
-11 0 -20 -6 -20 -5 0 -9 28 -9 63 0 34 -2 87 -5 117 -4 36 -3 48 3 35 5 -11
10 -55 11 -97z m8 -150 c-3 -8 -6 -5 -6 6 -1 11 2 17 5 13 3 -3 4 -12 1 -19z
m0 -40 c-3 -8 -6 -5 -6 6 -1 11 2 17 5 13 3 -3 4 -12 1 -19z"/>
<path d="M2306 1894 c-20 -19 -20 -21 -1 -21 8 0 13 3 10 5 -3 3 0 11 6 19 16
18 4 16 -15 -3z"/>
<path d="M1830 1818 c-12 -8 -12 -9 2 -5 9 3 19 1 22 -6 3 -9 5 -9 5 0 1 18
-13 23 -29 11z"/>
</g>
</svg>
