<?xml version="1.0" standalone="no"?>
<!DOCTYPE svg PUBLIC "-//W3C//DTD SVG 20010904//EN"
 "http://www.w3.org/TR/2001/REC-SVG-20010904/DTD/svg10.dtd">
<svg version="1.0" xmlns="http://www.w3.org/2000/svg"
 width="450.000000pt" height="253.000000pt" viewBox="0 0 450.000000 253.000000"
 preserveAspectRatio="xMidYMid meet">
<metadata>
Created by potrace 1.16, written by Peter Selinger 2001-2019
</metadata>
<g transform="translate(0.000000,253.000000) scale(0.100000,-0.100000)"
fill="#000000" stroke="none">
<path d="M0 1265 l0 -1265 2250 0 2250 0 0 1265 0 1265 -2250 0 -2250 0 0
-1265z m3065 690 c106 -36 228 -130 293 -224 47 -68 53 -108 22 -136 -11 -10
-20 -23 -20 -29 0 -22 -68 -84 -131 -118 -72 -41 -109 -54 -109 -40 0 11 65
63 83 66 7 2 26 8 42 15 27 11 28 14 12 22 -9 6 -16 13 -13 17 2 4 -12 7 -32
7 -21 -1 -48 5 -62 12 -15 8 -26 9 -28 3 -2 -5 -10 -3 -19 5 -13 13 -70 21
-113 16 -63 -7 -238 4 -280 18 -14 4 -33 7 -42 6 -11 -2 -21 8 -28 28 -9 26
-13 29 -20 17 -13 -20 -13 -4 0 19 7 14 5 23 -10 36 -21 19 -27 65 -9 65 6 0
9 8 6 18 -2 9 3 30 11 46 7 15 9 25 3 22 -6 -4 -11 -1 -12 6 0 10 -2 10 -6 1
-2 -7 -12 -13 -20 -13 -24 0 11 36 67 69 90 53 165 72 270 67 53 -2 117 -11
145 -21z m-687 -47 c8 -8 15 -8 26 1 10 9 26 10 48 5 18 -4 37 -7 41 -6 5 2 6
-2 3 -7 -3 -5 1 -12 10 -15 8 -3 13 -2 10 3 -7 11 22 23 35 15 18 -11 8 -32
-18 -37 -41 -8 -144 -36 -175 -48 -22 -9 -26 -16 -23 -40 4 -34 -4 -41 -53
-42 -20 0 -43 -5 -49 -10 -10 -7 -13 -4 -13 12 0 12 -6 21 -15 21 -8 0 -23 8
-33 18 -11 9 -29 25 -41 35 -22 18 -23 18 -16 -5 4 -13 14 -30 21 -39 17 -19
18 -52 2 -47 -7 3 -14 14 -16 27 -4 25 -91 123 -103 115 -4 -2 -6 -11 -3 -19
4 -8 11 -12 17 -8 6 4 7 1 3 -6 -5 -7 0 -21 10 -32 16 -17 16 -19 1 -19 -10 0
-17 6 -17 14 0 15 -28 15 -52 0 -7 -4 -8 -3 -4 4 11 19 -5 14 -20 -5 -11 -16
-12 -13 -5 17 11 49 30 82 43 74 5 -4 14 0 19 7 7 12 9 11 9 -1 1 -12 3 -12
13 2 15 19 54 23 222 26 73 1 115 -2 123 -10z m219 -93 c0 -8 -6 -15 -14 -15
-17 0 -17 17 0 23 6 3 12 6 13 6 0 1 1 -6 1 -14z m-521 -44 c-4 -5 -1 -11 6
-13 17 -6 2 -37 -23 -47 -16 -5 -19 -10 -10 -15 7 -5 15 -5 18 -2 10 9 44 -15
37 -26 -5 -8 -1 -9 11 -4 15 5 16 4 5 -9 -16 -19 -47 -19 -84 0 -15 8 -35 15
-43 15 -8 0 -11 5 -7 13 5 9 4 9 -6 0 -7 -6 -19 -9 -26 -6 -21 8 -44 -16 -44
-44 0 -20 4 -24 18 -18 36 14 109 18 117 6 4 -8 2 -11 -6 -10 -19 3 -88 -12
-93 -20 -9 -14 24 -43 44 -38 11 3 20 1 20 -4 0 -9 -3 -10 -58 -15 -35 -2 -58
-14 -29 -14 10 0 17 -7 17 -15 0 -8 -4 -15 -8 -15 -5 0 -14 -11 -20 -25 -13
-29 -10 -31 12 -9 15 14 16 14 16 -1 0 -46 -51 -118 -66 -94 -5 8 -3 9 6 4 8
-5 11 -4 6 3 -4 6 -13 9 -21 5 -13 -4 -15 8 -14 73 1 90 20 180 36 177 7 -2
10 7 7 21 -2 13 3 29 11 36 8 7 15 10 15 6 0 -3 17 5 39 18 24 15 47 23 60 19
13 -3 21 -1 21 6 0 7 5 9 12 5 8 -5 9 -2 4 11 -4 11 -2 22 6 27 17 10 20 10
14 -1z m418 -6 c-4 -8 -14 -15 -23 -15 -14 1 -13 3 3 15 25 19 27 19 20 0z
m-562 -27 c-7 -7 -12 -8 -12 -2 0 6 3 14 7 17 3 4 9 5 12 2 2 -3 -1 -11 -7
-17z m108 18 c0 -2 -7 -7 -16 -10 -8 -3 -12 -2 -9 4 6 10 25 14 25 6z m645
-267 c10 -15 -1 -23 -20 -15 -9 3 -13 10 -10 16 8 13 22 13 30 -1z m394 -103
c10 -11 8 -16 -9 -21 -30 -9 -70 2 -70 20 0 20 63 20 79 1z m-282 -48 c17 -13
17 -28 1 -28 -22 0 -79 40 -73 50 6 10 50 -3 72 -22z m-944 -173 c4 -8 3 -16
-1 -19 -4 -3 -9 4 -9 15 -2 23 3 25 10 4z"/>
<path d="M3314 1599 c0 -12 7 -19 19 -19 12 0 17 6 15 17 -4 23 -34 25 -34 2z"/>
<path d="M2049 1877 c6 -8 8 -16 5 -19 -2 -3 1 -8 8 -11 9 -3 15 4 16 19 1 18
-3 24 -19 24 -17 0 -19 -3 -10 -13z"/>
<path d="M2370 1870 c-11 -8 -9 -9 13 -8 15 1 27 6 27 10 0 11 -22 10 -40 -2z"/>
</g>
</svg>
