<?xml version="1.0" standalone="no"?>
<!DOCTYPE svg PUBLIC "-//W3C//DTD SVG 20010904//EN"
 "http://www.w3.org/TR/2001/REC-SVG-20010904/DTD/svg10.dtd">
<svg version="1.0" xmlns="http://www.w3.org/2000/svg"
 width="450.000000pt" height="253.000000pt" viewBox="0 0 450.000000 253.000000"
 preserveAspectRatio="xMidYMid meet">
<metadata>
Created by potrace 1.16, written by Peter Selinger 2001-2019
</metadata>
<g transform="translate(0.000000,253.000000) scale(0.100000,-0.100000)"
fill="#000000" stroke="none">
<path d="M0 1265 l0 -1265 2250 0 2250 0 0 1265 0 1265 -2250 0 -2250 0 0
-1265z m2710 1200 c97 -8 134 -18 197 -55 54 -31 137 -122 176 -192 58 -106
84 -138 113 -138 14 0 37 -6 52 -13 15 -8 48 -20 74 -27 45 -12 49 -11 78 14
27 22 41 26 96 26 56 0 79 -6 176 -51 118 -54 174 -92 184 -124 4 -11 12 -23
18 -27 8 -5 8 -10 -1 -19 -6 -6 -9 -18 -6 -25 15 -39 -9 -84 -90 -167 -108
-111 -164 -152 -229 -167 -52 -13 -118 -37 -118 -44 0 -2 17 -39 37 -82 35
-75 37 -84 38 -184 0 -97 -2 -108 -28 -152 -15 -27 -32 -48 -38 -48 -5 0 -23
-13 -40 -30 -18 -16 -36 -27 -41 -24 -5 3 -15 -2 -22 -11 -11 -15 -30 -18
-127 -18 -135 1 -260 27 -360 77 -64 31 -67 32 -78 14 -7 -11 -28 -28 -47 -40
-19 -11 -36 -30 -39 -44 -3 -13 -7 -34 -10 -47 -6 -31 -102 -129 -142 -146
-18 -7 -30 -17 -27 -22 3 -5 -2 -6 -11 -3 -8 4 -25 -1 -38 -9 -33 -22 -153
-17 -192 7 -43 27 -78 78 -119 178 -41 98 -44 135 -17 194 10 23 22 54 25 71
l7 29 -103 1 c-130 2 -219 16 -329 53 -153 52 -224 112 -214 180 9 56 39 117
87 176 57 71 90 99 200 169 42 28 77 53 78 57 0 4 -12 14 -27 22 -48 25 -130
118 -165 186 -26 51 -33 77 -32 120 1 69 7 93 25 98 8 3 21 10 29 17 63 51
300 71 440 37 47 -12 101 -20 120 -18 19 2 43 4 53 5 9 0 17 6 17 12 0 29 73
119 122 151 70 46 75 48 128 43 25 -2 79 -7 120 -10z"/>
<path d="M2786 1982 c-2 -4 -1 -14 4 -22 7 -11 9 -9 7 8 -1 24 -3 26 -11 14z"/>
<path d="M2814 1940 c-26 -10 -34 -29 -23 -55 4 -11 8 -35 8 -53 1 -24 5 -31
14 -26 6 4 5 -1 -4 -12 -9 -10 -14 -26 -11 -34 5 -13 3 -13 -12 -1 -14 12 -16
12 -10 -3 3 -9 14 -21 24 -26 24 -13 53 -2 46 17 -3 8 -6 17 -6 19 0 3 -4 3
-8 0 -4 -2 -14 -1 -22 5 -11 6 -8 9 14 9 21 0 27 4 22 15 -3 8 -1 15 5 15 6 0
9 7 5 15 -3 8 4 21 17 31 l22 16 -22 -6 c-27 -8 -38 8 -18 27 12 12 12 17 1
26 -7 6 -17 7 -21 3 -5 -4 -5 1 -2 11 4 9 5 17 4 16 -1 0 -11 -4 -23 -9z"/>
<path d="M2970 1902 c0 -7 -3 -11 -7 -9 -8 2 -13 -6 -13 -22 0 -5 9 -11 20
-14 17 -4 19 -1 15 20 -4 27 -15 44 -15 25z"/>
<path d="M2990 1903 c0 -4 5 -15 10 -23 8 -13 10 -13 10 2 0 9 -4 20 -10 23
-5 3 -10 3 -10 -2z"/>
<path d="M3035 1890 c-18 -7 -18 -8 7 -15 28 -7 48 -1 48 16 0 11 -27 11 -55
-1z"/>
<path d="M3012 1838 c-7 -7 -22 -14 -32 -14 -11 -1 -27 -2 -35 -3 -11 -1 -14
-9 -11 -33 3 -18 3 -27 0 -20 -3 6 -16 12 -29 12 -18 0 -22 -4 -18 -20 8 -29
30 -43 58 -36 22 6 24 9 15 26 -9 18 -7 20 17 22 15 0 36 0 47 -1 15 -1 17 1
6 14 -7 8 -16 13 -20 10 -13 -8 -6 21 9 39 16 19 10 21 -7 4z"/>
<path d="M2615 1806 c-29 -8 -40 -17 -40 -31 0 -16 8 -21 38 -23 28 -2 37 0
37 12 0 9 4 16 8 16 4 0 8 9 8 20 0 23 2 22 -51 6z"/>
<path d="M3190 1808 c0 -4 4 -8 9 -8 6 0 12 4 15 8 3 5 -1 9 -9 9 -8 0 -15 -4
-15 -9z"/>
<path d="M2457 1769 c7 -7 15 -10 18 -7 3 3 -2 9 -12 12 -14 6 -15 5 -6 -5z"/>
<path d="M1878 1763 c-10 -2 -18 -9 -18 -14 0 -6 8 -5 20 1 11 6 20 13 20 15
0 3 -1 4 -2 4 -2 -1 -11 -3 -20 -6z"/>
<path d="M2490 1730 c0 -24 3 -27 22 -22 19 5 21 2 15 -26 -5 -25 -3 -30 9
-25 12 4 14 0 8 -22 -6 -24 -4 -27 10 -22 10 4 19 7 22 7 2 0 10 14 19 30 14
27 14 30 0 30 -8 0 -15 7 -15 16 0 8 -4 13 -9 10 -14 -9 -21 20 -8 35 10 11 9
11 -5 1 -9 -8 -19 -9 -22 -4 -3 5 -15 12 -26 15 -17 4 -20 0 -20 -23z"/>
<path d="M1812 1724 c-12 -8 -20 -20 -17 -25 3 -5 -1 -6 -10 -3 -25 10 -118
-84 -111 -112 4 -13 -2 -32 -12 -45 -23 -30 -67 -121 -64 -131 1 -5 -3 -8 -10
-8 -6 0 -8 -3 -5 -7 4 -3 1 -16 -7 -28 -21 -33 9 -62 45 -44 9 4 35 9 58 10
24 2 50 11 61 21 11 11 43 30 70 44 28 14 50 26 50 27 0 2 -18 1 -40 -1 -36
-4 -40 -2 -40 19 0 13 13 44 29 68 17 25 27 51 23 59 -4 11 -7 12 -10 4 -3 -9
-10 -5 -23 9 -18 20 -18 24 -4 43 9 12 25 36 36 54 12 17 26 32 31 32 6 0 5 6
-2 15 -16 19 -20 19 -48 -1z"/>
<path d="M3010 1729 c0 -5 -4 -8 -9 -5 -16 10 -62 -35 -56 -55 5 -14 -2 -22
-31 -34 -42 -17 -67 -14 -58 9 3 8 0 17 -7 22 -8 5 -10 3 -5 -7 4 -8 1 -6 -7
4 -8 9 -19 17 -24 17 -6 0 -13 8 -15 18 -9 34 -36 21 -42 -19 -7 -46 -2 -62
27 -75 12 -5 21 -15 20 -22 -2 -6 8 -14 22 -18 27 -7 32 -18 13 -30 -7 -5 -5
-11 7 -21 27 -19 44 -16 38 6 -5 20 21 51 43 51 30 0 74 43 74 71 0 15 6 34
13 41 21 20 28 58 11 58 -8 0 -14 -5 -14 -11z"/>
<path d="M2366 1642 c-3 -5 1 -9 9 -9 8 0 12 4 9 9 -3 4 -7 8 -9 8 -2 0 -6 -4
-9 -8z"/>
<path d="M2627 1605 c3 -9 16 -21 29 -26 25 -9 33 -29 12 -29 -6 0 -4 -8 6
-19 9 -10 14 -25 10 -35 -5 -13 0 -16 25 -16 28 0 30 -2 20 -19 -7 -11 -19
-16 -30 -14 -36 10 -69 -6 -69 -31 0 -23 -1 -23 -36 -11 -52 17 -63 42 -27 56
l28 12 -30 8 c-21 6 -40 4 -67 -9 -45 -20 -50 -42 -9 -42 29 0 45 -19 35 -43
-2 -7 4 -22 16 -32 28 -25 25 -69 -6 -111 -15 -19 -24 -40 -20 -50 8 -21 29
-6 23 17 -4 14 0 17 22 16 17 -1 26 3 27 13 1 8 2 22 3 31 1 10 9 16 24 15 13
-1 21 4 20 11 -2 7 0 12 5 11 4 -1 34 6 67 17 33 10 70 17 83 17 20 -2 21 0
10 21 -7 12 -17 25 -23 29 -14 10 -28 -3 -16 -15 17 -17 13 -27 -11 -27 -44 0
-49 13 -23 59 14 24 25 48 25 55 0 6 14 20 31 30 l31 18 -21 20 c-12 10 -19
23 -16 28 3 5 1 19 -6 31 -10 19 -17 21 -63 16 -28 -3 -59 -1 -69 4 -13 8 -15
6 -10 -6z"/>
<path d="M2502 1576 c-13 -31 -8 -46 9 -29 6 6 9 21 7 34 -4 24 -5 23 -16 -5z"/>
<path d="M2565 1580 c-3 -6 -3 -20 0 -31 l7 -21 15 21 c14 21 11 41 -7 41 -5
0 -12 -5 -15 -10z"/>
<path d="M2210 1521 c0 -12 8 -16 40 -24 19 -5 29 -1 38 13 11 19 9 20 -33 20
-25 0 -45 -4 -45 -9z"/>
<path d="M2460 1498 c0 -4 11 -8 25 -8 14 0 25 4 25 10 0 5 -11 9 -25 8 -14
-1 -25 -6 -25 -10z"/>
<path d="M2230 1445 c0 -8 5 -15 11 -15 7 0 5 -9 -4 -24 -13 -19 -13 -26 -4
-33 14 -11 18 -10 75 6 36 10 43 16 39 32 -3 10 -1 22 4 25 24 15 3 24 -56 24
-51 0 -65 -3 -65 -15z"/>
<path d="M2382 1438 c-14 -14 -16 -38 -4 -38 12 0 32 23 32 37 0 16 -12 17
-28 1z"/>
<path d="M2771 1434 c0 -11 3 -14 6 -6 3 7 2 16 -1 19 -3 4 -6 -2 -5 -13z"/>
<path d="M2855 1414 c-17 -42 -19 -64 -5 -64 18 0 60 23 60 33 0 6 10 1 23
-10 18 -17 24 -19 34 -8 6 7 9 16 5 20 -4 4 -8 11 -8 16 -1 5 -2 13 -3 17 0 4
-12 9 -27 10 -14 1 -34 6 -44 12 -17 9 -22 5 -35 -26z"/>
<path d="M2425 1361 c3 -6 14 -9 25 -8 24 2 15 17 -11 17 -11 0 -18 -4 -14 -9z"/>
<path d="M2360 1356 c0 -2 7 -9 15 -16 9 -7 15 -8 15 -2 0 5 -7 12 -15 16 -8
3 -15 4 -15 2z"/>
<path d="M2400 1312 c0 -5 7 -13 16 -16 10 -4 14 -1 12 6 -5 15 -28 23 -28 10z"/>
<path d="M2856 1277 c-16 -12 -16 -14 3 -31 13 -12 21 -14 21 -7 0 7 4 10 9 7
12 -8 34 21 26 34 -9 14 -38 13 -59 -3z"/>
<path d="M3110 1260 c0 -5 5 -10 11 -10 5 0 7 5 4 10 -3 6 -8 10 -11 10 -2 0
-4 -4 -4 -10z"/>
<path d="M2975 1230 c3 -5 8 -10 11 -10 2 0 4 5 4 10 0 6 -5 10 -11 10 -5 0
-7 -4 -4 -10z"/>
<path d="M2520 1147 c0 -8 7 -20 15 -27 12 -10 15 -10 15 3 0 8 -7 20 -15 27
-12 10 -15 10 -15 -3z"/>
<path d="M3355 1109 c-4 -13 -8 -29 -10 -34 -4 -18 33 -15 46 3 11 14 11 15
-1 5 -19 -18 -35 -16 -20 1 8 10 8 21 2 32 -8 14 -10 13 -17 -7z"/>
</g>
</svg>
