<?xml version="1.0" standalone="no"?>
<!DOCTYPE svg PUBLIC "-//W3C//DTD SVG 20010904//EN"
 "http://www.w3.org/TR/2001/REC-SVG-20010904/DTD/svg10.dtd">
<svg version="1.0" xmlns="http://www.w3.org/2000/svg"
 width="450.000000pt" height="253.000000pt" viewBox="0 0 450.000000 253.000000"
 preserveAspectRatio="xMidYMid meet">
<metadata>
Created by potrace 1.16, written by Peter Selinger 2001-2019
</metadata>
<g transform="translate(0.000000,253.000000) scale(0.100000,-0.100000)"
fill="#000000" stroke="none">
<path d="M0 1265 l0 -1265 2250 0 2250 0 0 1265 0 1265 -2250 0 -2250 0 0
-1265z m3309 774 c100 -18 144 -41 180 -93 23 -33 39 -46 56 -46 16 0 39 -17
72 -54 34 -38 58 -56 83 -61 73 -14 176 -108 150 -137 -6 -7 -19 -29 -28 -48
-12 -25 -34 -44 -77 -67 -120 -63 -171 -85 -212 -90 -27 -4 -40 -10 -37 -18 3
-7 -4 -28 -16 -48 -20 -34 -20 -37 -5 -61 27 -41 55 -147 55 -209 0 -66 -19
-120 -49 -139 -12 -7 -21 -18 -21 -25 0 -22 -61 -41 -95 -31 -79 25 -177 48
-250 58 -44 7 -91 20 -105 29 -14 9 -38 23 -53 31 -32 16 -97 74 -97 86 0 4
-10 19 -22 32 -21 23 -22 25 -3 18 11 -4 33 -10 49 -13 25 -5 28 -4 22 15 -6
16 -1 24 22 36 16 8 33 12 37 8 5 -4 5 -1 1 6 -4 7 -12 10 -17 7 -5 -4 -9 -1
-9 5 0 13 64 12 91 -1 11 -6 22 -2 34 11 11 12 31 20 52 20 18 0 33 5 33 11 0
6 7 9 15 5 27 -10 16 11 -27 53 -46 44 -89 58 -66 21 7 -11 19 -22 28 -24 8
-3 -2 -4 -22 -1 -35 3 -39 1 -54 -31 -9 -19 -21 -35 -28 -35 -23 -3 -51 3 -64
13 -17 14 -29 1 -14 -14 21 -21 13 -25 -40 -27 -29 0 -66 -5 -83 -9 -52 -15
-114 7 -146 51 -16 21 -31 49 -35 61 -4 11 -14 32 -24 46 -9 14 -28 55 -41 92
-21 61 -22 71 -11 125 7 33 12 72 12 89 0 33 32 109 58 137 16 18 15 18 -8 13
-14 -3 -47 -11 -74 -16 -35 -8 -58 -21 -85 -49 -20 -22 -47 -41 -61 -43 -23
-3 -25 -7 -24 -49 1 -42 -1 -46 -20 -41 -12 3 -27 12 -35 20 -11 11 -15 11
-22 0 -6 -9 -9 -9 -9 -1 0 6 5 15 10 18 6 4 8 16 4 28 -4 12 -6 37 -5 54 1 27
-3 34 -24 39 -26 6 -31 15 -17 28 4 4 8 12 8 17 1 5 2 13 3 18 0 5 12 12 26
15 14 4 23 11 20 16 -10 17 66 23 214 17 100 -4 140 -3 128 4 -16 10 -16 12
-1 39 10 15 29 34 43 40 44 21 130 40 179 41 26 0 67 4 92 8 70 13 286 12 359
0z m-1047 -344 c-5 -30 -8 -31 -23 -4 -7 13 -7 19 -1 15 6 -3 13 -2 17 4 10
16 13 12 7 -15z m52 -90 c4 -11 -2 -15 -26 -15 -26 0 -29 -2 -18 -15 7 -8 25
-15 41 -15 42 0 36 -18 -8 -25 -21 -3 -46 -8 -57 -10 -19 -4 -19 -2 -4 66 7
30 61 41 72 14z m-63 -111 c-12 -15 -21 -32 -21 -38 0 -6 9 0 21 14 l20 25 -4
-30 c-1 -16 -8 -40 -15 -52 -9 -17 -9 -22 4 -27 8 -3 12 -10 9 -16 -4 -6 -10
-8 -15 -5 -5 3 -11 1 -15 -5 -4 -6 -11 -8 -16 -5 -5 4 -9 -1 -9 -10 0 -9 -4
-14 -9 -11 -12 8 -2 85 15 119 9 16 13 31 10 35 -9 8 14 32 31 32 11 0 10 -6
-6 -26z m44 -949 c0 -85 -3 -155 -7 -155 -5 0 -8 70 -8 155 0 85 3 155 8 155
4 0 7 -70 7 -155z m-8 -212 c-3 -10 -5 -2 -5 17 0 19 2 27 5 18 2 -10 2 -26 0
-35z"/>
<path d="M3416 1932 c-3 -6 1 -13 10 -16 23 -9 28 -2 10 13 -8 7 -17 8 -20 3z"/>
<path d="M3050 1897 c0 -22 16 -29 64 -31 30 -1 51 -9 75 -28 18 -16 41 -28
50 -28 10 0 30 -9 44 -20 28 -22 61 -27 55 -8 -2 6 -13 16 -24 22 -10 6 -30
17 -44 25 -14 8 -34 16 -44 16 -11 1 -21 6 -23 12 -12 34 -32 46 -91 50 -51 4
-62 2 -62 -10z"/>
<path d="M3200 1879 c0 -5 9 -9 20 -9 11 0 20 2 20 4 0 2 -9 6 -20 9 -11 3
-20 1 -20 -4z"/>
<path d="M3428 1883 c-10 -2 -18 -9 -18 -14 0 -6 -5 -7 -12 -3 -7 4 -8 3 -4
-4 9 -16 22 -15 38 1 7 8 20 16 28 20 13 5 13 5 0 5 -8 0 -23 -2 -32 -5z"/>
<path d="M3196 1778 c10 -33 28 -41 37 -16 8 22 -5 38 -31 38 -9 0 -11 -7 -6
-22z"/>
<path d="M2310 1775 c2 -5 2 -21 1 -34 -1 -21 -3 -22 -18 -10 -15 11 -14 10 1
-9 11 -12 25 -22 31 -22 17 0 14 55 -3 72 -8 7 -13 9 -12 3z"/>
<path d="M3085 1769 c-24 -9 -24 -9 49 -15 45 -4 57 -3 54 8 -5 15 -72 20
-103 7z"/>
<path d="M3180 1729 c-14 -6 -35 -8 -47 -6 -26 5 -28 -1 -9 -25 7 -10 37 -23
66 -28 29 -6 60 -16 69 -22 9 -7 5 0 -8 14 -15 17 -22 35 -18 47 3 12 -1 22
-10 25 -8 3 -15 6 -16 5 -1 0 -13 -5 -27 -10z"/>
<path d="M3324 1716 c-35 -15 -50 -44 -33 -60 8 -8 15 -5 26 12 9 12 21 22 28
22 8 0 16 6 18 13 4 7 6 6 6 -5 1 -9 -10 -30 -24 -46 -26 -32 -52 -88 -35 -77
6 3 10 1 10 -5 0 -7 8 -9 23 -4 31 9 34 14 17 24 -11 7 -11 10 -2 10 8 0 10 8
6 26 -5 20 -4 25 5 19 8 -4 14 1 18 14 3 11 8 19 12 17 4 -3 8 4 8 16 1 14 -3
18 -13 14 -8 -3 -13 -2 -10 3 5 7 -17 23 -27 21 -1 -1 -16 -7 -33 -14z"/>
<path d="M2997 1652 c-13 -14 -14 -21 -5 -30 9 -9 1 -12 -35 -12 -47 0 -58 -9
-34 -28 28 -22 74 -23 112 -2 20 11 54 22 75 23 21 1 36 4 34 6 -2 2 6 12 17
22 11 10 16 20 10 23 -5 4 -19 -3 -30 -15 -18 -19 -24 -21 -47 -11 -14 7 -29
10 -34 7 -5 -3 -14 4 -20 15 -13 25 -22 25 -43 2z"/>
<path d="M3080 1574 c-14 -7 -22 -14 -17 -15 4 -1 10 -3 15 -4 4 -2 17 -6 30
-10 12 -4 22 -12 22 -17 0 -7 4 -7 13 -1 6 6 20 9 30 8 9 -2 17 -1 17 1 0 4
-78 55 -82 53 -2 -1 -14 -7 -28 -15z"/>
<path d="M3253 1574 c-15 -16 -16 -24 -4 -24 8 0 24 30 19 35 -2 2 -9 -3 -15
-11z"/>
<path d="M2952 1520 c-7 -13 -8 -20 -2 -20 6 0 13 6 16 14 4 11 12 12 39 3 46
-14 49 -28 13 -71 l-29 -36 26 0 c14 0 28 7 31 15 8 19 21 19 39 1 17 -16 76
-8 83 12 2 7 0 12 -5 11 -4 -1 -22 -1 -40 0 -26 1 -30 4 -26 21 3 12 -1 22
-11 26 -9 3 -16 14 -16 23 0 12 -2 13 -8 4 -6 -10 -12 -10 -28 2 -28 21 -67
19 -82 -5z"/>
<path d="M3199 1508 c-5 -9 -5 -48 -1 -43 6 6 11 45 5 45 -2 0 -4 -1 -4 -2z"/>
<path d="M3128 1493 c7 -3 16 -2 19 1 4 3 -2 6 -13 5 -11 0 -14 -3 -6 -6z"/>
<path d="M3165 1470 c3 -5 8 -10 11 -10 2 0 4 5 4 10 0 6 -5 10 -11 10 -5 0
-7 -4 -4 -10z"/>
<path d="M2892 1415 c1 -20 8 -41 15 -47 10 -8 13 -5 11 13 -2 15 2 24 12 25
8 1 21 2 28 3 6 0 12 5 12 11 0 5 -7 7 -15 4 -8 -3 -22 1 -30 10 -26 25 -36
19 -33 -19z"/>
<path d="M3281 1347 c2 -1 13 -9 24 -17 19 -14 19 -14 6 3 -7 9 -18 17 -24 17
-6 0 -8 -1 -6 -3z"/>
<path d="M3005 1120 c26 -11 65 -12 65 -2 0 4 -19 9 -42 10 -33 1 -38 -1 -23
-8z"/>
</g>
</svg>
