<?xml version="1.0" standalone="no"?>
<!DOCTYPE svg PUBLIC "-//W3C//DTD SVG 20010904//EN"
 "http://www.w3.org/TR/2001/REC-SVG-20010904/DTD/svg10.dtd">
<svg version="1.0" xmlns="http://www.w3.org/2000/svg"
 width="450.000000pt" height="253.000000pt" viewBox="0 0 450.000000 253.000000"
 preserveAspectRatio="xMidYMid meet">
<metadata>
Created by potrace 1.16, written by Peter Selinger 2001-2019
</metadata>
<g transform="translate(0.000000,253.000000) scale(0.100000,-0.100000)"
fill="#000000" stroke="none">
<path d="M0 1265 l0 -1265 2250 0 2250 0 0 1265 0 1265 -2250 0 -2250 0 0
-1265z m2875 665 c76 -20 172 -66 203 -96 7 -8 17 -14 22 -14 11 0 123 -110
144 -141 18 -29 14 -101 -8 -117 -16 -12 -66 -32 -66 -27 0 9 51 55 61 55 20
0 4 35 -16 36 -11 1 -28 5 -38 9 -34 14 -62 11 -78 -8 -12 -15 -18 -17 -24 -7
-6 9 -4 11 5 5 9 -6 11 -4 5 5 -6 10 -11 9 -22 -5 -8 -12 -13 -14 -13 -6 0 9
-4 10 -12 4 -22 -17 -154 -8 -184 12 -14 9 -23 12 -20 6 4 -6 1 -9 -7 -5 -8 3
-19 15 -25 28 -8 17 -17 22 -39 20 -15 -1 -29 -3 -30 -4 -2 -1 -7 -3 -12 -4
-5 0 -13 -4 -17 -9 -4 -4 -16 1 -27 10 -11 10 -17 12 -13 6 8 -15 -3 -17 -24
-3 -9 5 -19 5 -26 -1 -8 -7 -15 -6 -20 2 -5 8 -3 9 6 4 9 -5 11 -4 6 3 -4 7
-15 12 -25 12 -9 0 -25 6 -35 13 -15 11 -16 17 -7 35 6 12 7 23 2 26 -5 3 -7
15 -4 26 3 11 9 17 14 14 5 -3 9 -1 9 3 0 5 -10 14 -21 22 -18 10 -19 15 -8
22 12 7 12 9 -1 9 -8 0 -22 -5 -30 -10 -11 -7 -11 -10 -2 -10 7 0 11 -3 9 -7
-3 -5 -1 -17 3 -28 9 -23 -14 -75 -39 -90 -9 -5 -30 -10 -48 -11 -26 -2 -32 2
-35 19 -2 12 7 36 19 52 48 63 77 95 81 90 3 -3 15 3 26 13 66 58 227 77 361
42z m-719 -35 c299 -14 310 -17 220 -59 -30 -14 -59 -26 -64 -26 -13 0 -42
-45 -42 -65 0 -8 -9 -16 -20 -16 -59 -4 -77 -6 -93 -14 -10 -4 -17 -4 -16 1 5
28 -3 36 -30 32 -23 -3 -27 -1 -23 14 4 17 -6 23 -35 19 -12 -2 -18 12 -14 33
1 5 -5 6 -14 2 -9 -3 -21 -6 -26 -6 -6 0 -7 -4 -4 -10 3 -5 -1 -10 -9 -10 -22
0 -20 26 2 35 16 7 15 8 -3 15 -11 4 -20 13 -20 21 0 9 -15 16 -40 20 -36 5
-37 6 -15 12 27 7 101 14 111 10 3 -1 64 -5 135 -8z m-279 -21 c12 -3 20 -11
17 -18 -3 -7 7 -30 22 -51 14 -22 19 -33 10 -26 -9 7 -16 10 -16 5 0 -5 -5 -2
-10 6 -8 12 -13 13 -30 2 -12 -7 -20 -8 -20 -2 0 5 -6 10 -14 10 -18 0 -19 61
-2 72 13 9 15 9 43 2z m-74 -111 c-3 -10 -10 -23 -15 -30 -6 -7 -6 -18 -2 -25
6 -10 4 -10 -9 0 -9 8 -21 11 -27 7 -14 -9 -13 1 5 35 17 33 59 44 48 13z m95
-35 c-37 -30 -25 -36 25 -13 31 16 32 16 12 -2 -33 -31 -30 -45 9 -38 38 8 54
-6 30 -26 -11 -9 -17 -10 -23 -1 -4 7 -12 8 -21 2 -8 -5 -21 -5 -30 0 -29 16
-99 21 -121 10 -11 -7 -18 -14 -15 -17 3 -4 -2 -15 -11 -26 -18 -19 -17 -19
12 -13 71 14 94 15 100 6 4 -6 3 -9 -2 -8 -4 1 -23 -3 -41 -9 -29 -11 -32 -15
-23 -32 15 -28 14 -29 -16 -34 -27 -4 -27 -5 -6 -12 l22 -7 -27 -36 -27 -35
30 16 c30 15 30 15 31 -14 1 -16 -3 -29 -8 -29 -6 0 -8 -7 -4 -15 4 -10 -1
-15 -15 -15 -11 0 -22 -7 -25 -15 -4 -11 -15 -13 -38 -10 -22 4 -27 3 -16 -4
8 -5 19 -7 25 -4 6 4 6 2 -1 -6 -8 -9 -18 -9 -38 -1 -25 9 -27 14 -25 58 1 26
1 52 -1 57 -11 51 19 173 40 160 5 -3 10 -1 10 4 0 6 -6 11 -12 11 -9 1 -8 5
3 13 9 7 14 19 11 27 -3 8 -1 12 3 8 5 -4 15 -2 23 5 12 9 16 9 19 0 7 -19 72
11 104 47 16 17 36 28 49 27 20 -1 19 -4 -12 -29z m132 17 c0 -8 -4 -15 -10
-15 -5 0 -10 7 -10 15 0 8 5 15 10 15 6 0 10 -7 10 -15z m-63 -27 c-3 -8 -6
-5 -6 6 -1 11 2 17 5 13 3 -3 4 -12 1 -19z m674 -55 c13 -16 12 -17 -3 -4 -17
13 -22 21 -14 21 2 0 10 -8 17 -17z m129 11 c0 -8 -19 -13 -24 -6 -3 5 1 9 9
9 8 0 15 -2 15 -3z m23 -14 c3 -11 1 -18 -4 -14 -5 3 -9 12 -9 20 0 20 7 17
13 -6z m316 -155 c-2 -2 -13 -5 -24 -7 -11 -1 -24 -8 -30 -14 -5 -7 -23 -15
-40 -19 -29 -6 -29 -6 -11 14 10 11 21 20 25 19 18 -3 71 16 72 26 0 6 3 5 6
-2 3 -7 3 -15 2 -17z m-137 -57 c-5 -5 -19 -10 -33 -13 -21 -4 -22 -3 -7 9 19
14 54 18 40 4z"/>
<path d="M2790 1808 c0 -4 14 -8 30 -8 17 0 49 -9 70 -20 42 -22 56 -11 18 14
-26 16 -118 27 -118 14z"/>
</g>
</svg>
