<?xml version="1.0" standalone="no"?>
<!DOCTYPE svg PUBLIC "-//W3C//DTD SVG 20010904//EN"
 "http://www.w3.org/TR/2001/REC-SVG-20010904/DTD/svg10.dtd">
<svg version="1.0" xmlns="http://www.w3.org/2000/svg"
 width="450.000000pt" height="253.000000pt" viewBox="0 0 450.000000 253.000000"
 preserveAspectRatio="xMidYMid meet">
<metadata>
Created by potrace 1.16, written by Peter Selinger 2001-2019
</metadata>
<g transform="translate(0.000000,253.000000) scale(0.100000,-0.100000)"
fill="#000000" stroke="none">
<path d="M0 1265 l0 -1265 2250 0 2250 0 0 1265 0 1265 -2250 0 -2250 0 0
-1265z m2754 600 c135 -39 346 -156 346 -192 0 -7 6 -12 13 -11 32 7 14 -94
-20 -106 -9 -4 -6 5 7 22 l22 27 -54 7 c-127 15 -157 16 -169 2 -9 -11 -15
-11 -25 -3 -8 6 -33 9 -59 6 -25 -2 -48 0 -52 6 -4 6 -1 7 7 2 9 -6 11 -4 5 4
-5 8 -11 9 -17 3 -11 -11 -48 -4 -48 9 0 4 -10 6 -22 4 -16 -4 -19 -2 -10 7 7
7 12 16 12 21 0 5 -7 1 -16 -7 -19 -19 -45 -21 -63 -3 -11 10 -13 10 -7 0 4
-7 4 -13 -1 -14 -52 -5 -83 -4 -83 3 0 4 -3 7 -7 6 -16 -3 -63 15 -63 24 0 5
10 24 22 40 l21 31 -21 18 c-12 9 -28 19 -35 22 -8 3 -4 13 12 30 13 15 27 24
32 22 4 -3 10 -2 12 2 3 5 34 8 70 8 36 0 63 4 60 8 -3 5 -38 7 -79 5 -41 -2
-74 -1 -74 3 0 28 180 24 284 -6z m-676 0 c3 -3 -4 -5 -16 -5 -11 0 -24 -4
-27 -10 -4 -6 8 -10 30 -10 20 0 38 -6 41 -13 2 -7 17 -14 32 -15 70 -8 99 -6
99 4 0 6 -13 10 -29 9 -15 -1 -28 1 -28 6 0 5 -11 4 -24 -1 -19 -7 -29 -4 -48
12 l-23 20 75 -5 c41 -3 84 -9 94 -13 15 -6 18 -4 13 8 -5 14 0 15 26 11 18
-3 58 -6 89 -7 32 0 58 -4 58 -8 0 -5 -11 -8 -24 -8 -13 0 -26 -6 -29 -14 -3
-8 -27 -21 -54 -31 -91 -32 -118 -46 -104 -54 18 -11 5 -48 -19 -56 -26 -8
-47 4 -29 16 8 5 9 9 3 9 -6 0 -17 -7 -24 -15 -16 -19 -34 -19 -50 1 -21 25
-48 36 -56 22 -5 -7 -3 -8 6 -3 9 5 11 4 6 -3 -12 -20 -28 -13 -21 8 5 15 0
21 -19 26 -13 3 -27 12 -30 20 -3 8 -2 13 3 10 5 -3 14 1 20 8 10 12 5 13 -31
9 -42 -6 -43 -6 -25 14 19 22 22 33 6 33 -5 0 -7 -4 -4 -10 3 -5 -1 -10 -10
-10 -9 0 -15 7 -13 16 2 12 -9 21 -37 30 -37 11 -32 12 64 9 57 -2 106 -7 109
-10z m-245 -8 c17 -9 23 -18 17 -27 -4 -7 -6 -20 -2 -28 4 -12 -2 -14 -35 -9
-36 6 -42 4 -61 -23 -12 -16 -22 -35 -22 -42 0 -18 -48 -40 -53 -24 -2 6 -9 1
-16 -12 -11 -21 -11 -22 15 -16 19 5 25 4 20 -5 -10 -15 2 -14 58 5 35 12 51
13 59 5 8 -8 7 -11 -3 -11 -13 0 -13 -1 0 -9 9 -7 1 -9 -25 -6 -57 5 -115 -14
-115 -37 0 -10 1 -21 3 -24 1 -3 -6 -10 -16 -15 -9 -6 -15 -14 -12 -20 4 -5
-6 -14 -22 -20 -15 -6 -23 -13 -16 -16 17 -6 53 15 53 32 0 13 46 33 55 24 2
-2 6 -16 10 -31 6 -24 4 -27 -26 -30 -18 -2 -34 -8 -36 -14 -2 -7 8 -9 27 -6
61 9 62 5 35 -98 -2 -8 -4 -21 -4 -28 -1 -7 -6 -10 -11 -7 -6 4 -17 1 -25 -5
-12 -10 -19 -10 -32 1 -14 12 -16 12 -9 -1 6 -12 4 -11 -6 1 -7 9 -19 14 -27
11 -17 -6 -30 15 -26 40 2 10 0 18 -6 18 -13 0 -11 67 5 125 14 56 54 138 83
172 10 13 26 34 35 47 10 13 31 27 48 31 31 7 38 19 19 30 -6 5 -4 12 8 21 23
17 25 17 56 1z m17 -131 c0 -2 -7 -7 -16 -10 -8 -3 -12 -2 -9 4 6 10 25 14 25
6z m0 -61 c-7 -9 -15 -13 -19 -10 -3 3 1 10 9 15 21 14 24 12 10 -5z m-108
-77 c-9 -9 -15 -9 -24 0 -9 9 -7 12 12 12 19 0 21 -3 12 -12z m33 -68 c3 -5 1
-10 -4 -10 -6 0 -11 5 -11 10 0 6 2 10 4 10 3 0 8 -4 11 -10z m-62 -245 c-3
-9 -8 -14 -10 -11 -3 3 -2 9 2 15 9 16 15 13 8 -4z m37 -523 c7 -73 10 -136 6
-139 -3 -4 -7 7 -7 23 -1 16 -3 38 -4 49 -2 11 -6 61 -10 110 -4 50 -10 95
-13 100 -3 7 -1 7 6 0 5 -5 16 -70 22 -143z m12 -191 c2 -22 0 -37 -4 -35 -8
5 -11 74 -4 74 2 0 6 -18 8 -39z"/>
<path d="M2787 1722 c6 -23 5 -23 -58 -18 -44 4 -58 3 -44 -3 11 -5 30 -10 41
-10 12 -1 27 -8 34 -16 7 -8 16 -13 20 -10 4 3 24 -2 44 -10 49 -21 48 -19
-21 64 -21 25 -22 25 -16 3z"/>
<path d="M1807 1816 c-4 -10 -1 -13 8 -9 8 3 12 9 9 14 -7 12 -11 11 -17 -5z"/>
<path d="M1620 1610 c0 -5 5 -10 10 -10 6 0 10 5 10 10 0 6 -4 10 -10 10 -5 0
-10 -4 -10 -10z"/>
<path d="M1686 1438 l-19 -33 23 21 c12 12 21 27 19 33 -3 7 -13 -3 -23 -21z"/>
</g>
</svg>
