<?xml version="1.0" standalone="no"?>
<!DOCTYPE svg PUBLIC "-//W3C//DTD SVG 20010904//EN"
 "http://www.w3.org/TR/2001/REC-SVG-20010904/DTD/svg10.dtd">
<svg version="1.0" xmlns="http://www.w3.org/2000/svg"
 width="450.000000pt" height="253.000000pt" viewBox="0 0 450.000000 253.000000"
 preserveAspectRatio="xMidYMid meet">
<metadata>
Created by potrace 1.16, written by Peter Selinger 2001-2019
</metadata>
<g transform="translate(0.000000,253.000000) scale(0.100000,-0.100000)"
fill="#000000" stroke="none">
<path d="M0 1265 l0 -1265 2250 0 2250 0 0 1265 0 1265 -2250 0 -2250 0 0
-1265z m3275 750 c76 -8 159 -31 207 -57 43 -25 78 -90 61 -116 -19 -30 5 -60
67 -83 61 -22 111 -63 135 -110 14 -27 14 -31 0 -45 -8 -8 -15 -19 -15 -24 0
-21 -63 -80 -85 -80 -12 0 -28 -7 -36 -16 -7 -9 -30 -23 -51 -31 l-38 -15 29
-37 c70 -88 98 -214 58 -259 -9 -10 -17 -23 -17 -29 0 -11 -80 -53 -103 -53
-9 0 -19 5 -23 11 -3 6 -15 9 -25 6 -10 -3 -22 -1 -25 4 -3 5 -10 7 -15 4 -5
-4 -9 -1 -9 6 0 8 -4 8 -13 1 -7 -6 -18 -7 -27 -2 -7 4 -23 5 -34 0 -40 -15
-222 -1 -289 21 -77 27 -97 37 -97 50 0 6 5 7 10 4 6 -3 13 1 17 10 5 15 15
16 71 10 36 -4 76 -9 90 -11 17 -3 22 -1 16 8 -5 10 -4 11 7 1 7 -7 20 -13 28
-12 12 0 12 2 3 6 -10 4 -9 8 5 19 20 15 20 15 -67 19 -66 3 -70 4 -70 29 0
21 -5 24 -45 24 -35 1 -45 -2 -45 -15 0 -25 -162 -9 -216 22 -57 33 -139 164
-116 187 6 6 4 21 -6 41 -26 50 -26 180 -1 236 11 25 27 54 37 65 13 14 13 17
2 11 -8 -4 3 11 25 34 22 23 33 39 24 36 -11 -4 -18 1 -22 17 -14 50 90 97
253 114 36 3 67 8 69 10 5 5 199 -3 276 -11z m-633 -121 c29 -7 45 -32 25 -39
-6 -3 -58 -13 -115 -24 -100 -18 -142 -38 -142 -67 0 -18 -32 -34 -68 -34 -21
0 -32 7 -40 25 -6 14 -17 25 -24 24 -10 0 -10 -2 0 -6 6 -2 12 -20 12 -39 0
-21 -4 -33 -10 -29 -5 3 -10 16 -10 29 0 12 -13 38 -30 56 -21 24 -30 29 -30
17 0 -9 4 -17 9 -17 15 0 23 -52 9 -61 -16 -10 20 -52 39 -45 14 6 19 -39 6
-47 -13 -7 -64 19 -56 29 4 5 1 3 -7 -3 -21 -19 -29 -16 -25 9 3 15 1 18 -6
11 -6 -6 -19 -8 -30 -6 -15 4 -16 9 -8 24 5 10 14 19 20 19 6 0 7 -4 4 -10 -3
-5 -1 -10 4 -10 6 0 11 5 11 10 0 6 5 9 11 8 6 -2 13 5 14 15 2 9 -2 17 -8 17
-7 0 -6 4 2 9 12 8 11 13 -10 29 -15 13 -26 16 -30 10 -4 -6 -10 -1 -14 11 -8
26 18 71 40 71 8 0 15 4 15 9 0 5 12 12 28 15 35 6 378 -2 414 -10z m-476
-274 c27 11 77 3 69 -10 -2 -4 -23 -10 -46 -14 l-41 -6 23 -19 c12 -10 33 -17
46 -15 13 1 20 -2 17 -8 -3 -5 -12 -7 -20 -4 -7 3 -16 1 -20 -5 -3 -5 -19 -8
-35 -5 -16 2 -29 0 -29 -5 0 -5 7 -9 16 -9 13 0 12 -5 -5 -26 -27 -34 -27 -57
-1 -25 22 26 24 24 10 -14 -5 -14 -12 -37 -14 -50 -6 -35 -31 -58 -44 -42 -13
17 -5 117 19 224 9 39 15 50 21 39 7 -12 14 -13 34 -6z m-71 -349 c3 -5 2 -12
-3 -15 -5 -3 -9 1 -9 9 0 17 3 19 12 6z m897 -26 c3 0 9 -3 13 -7 4 -3 0 -5
-9 -4 -9 1 -22 8 -29 16 -10 10 -9 11 3 4 8 -5 18 -9 22 -9z m-805 -327 c-2
-13 -4 -5 -4 17 -1 22 1 32 4 23 2 -10 2 -28 0 -40z m0 -65 c-3 -10 -5 -4 -5
12 0 17 2 24 5 18 2 -7 2 -21 0 -30z m0 -100 c-2 -16 -4 -3 -4 27 0 30 2 43 4
28 2 -16 2 -40 0 -55z m0 -55 c-3 -8 -6 -5 -6 6 -1 11 2 17 5 13 3 -3 4 -12 1
-19z"/>
<path d="M3206 1862 c-3 -6 -1 -14 5 -17 15 -10 25 3 12 16 -7 7 -13 7 -17 1z"/>
<path d="M3254 1848 c14 -22 15 -28 5 -28 -9 -1 -4 -9 11 -21 14 -12 33 -19
47 -16 13 2 29 -3 38 -13 15 -17 14 -19 -7 -34 -12 -9 -28 -16 -35 -16 -20 0
-48 -49 -35 -62 7 -7 15 -1 26 21 12 21 21 28 33 24 12 -5 14 -3 8 8 -7 12 -6
12 7 1 9 -7 15 -22 13 -32 -2 -10 2 -26 9 -36 11 -15 13 -13 10 17 -3 29 -2
30 4 9 8 -24 9 -24 14 8 3 24 1 32 -8 28 -8 -3 -16 0 -20 6 -4 6 -3 8 3 5 6
-4 14 0 17 9 4 12 2 15 -9 10 -12 -4 -13 -2 -5 13 8 16 3 23 -31 46 -22 14
-47 24 -54 21 -8 -3 -17 3 -20 14 -3 10 -13 24 -22 32 -14 11 -14 9 1 -14z
m71 -48 c3 -6 -1 -7 -9 -4 -18 7 -21 14 -7 14 6 0 13 -4 16 -10z"/>
<path d="M3331 1670 c-12 -17 -19 -35 -16 -40 4 -6 1 -9 -7 -8 -7 2 -14 -7
-16 -19 -3 -18 1 -21 19 -18 13 3 27 -1 31 -8 6 -9 8 -9 8 1 0 7 4 10 10 7 6
-4 7 1 3 11 -4 11 -3 15 5 10 6 -3 14 -1 18 5 4 7 3 9 -3 6 -12 -8 -31 39 -27
66 3 23 1 22 -25 -13z m19 -30 c7 -14 8 -26 1 -38 -7 -11 -10 -13 -11 -3 0 10
-3 11 -14 2 -11 -9 -16 -9 -22 0 -4 7 -3 9 4 5 13 -8 36 30 27 44 -3 6 -4 10
-1 10 3 0 10 -9 16 -20z"/>
<path d="M3245 1591 c-3 -5 -1 -12 5 -16 5 -3 10 1 10 9 0 18 -6 21 -15 7z"/>
<path d="M3291 1547 c-1 -10 -5 -15 -11 -12 -5 3 -10 1 -10 -6 0 -7 -6 -20
-14 -28 -21 -25 -28 -67 -12 -80 12 -10 13 -8 9 8 -6 24 0 26 27 11 17 -9 19
-8 11 12 -5 13 -14 22 -20 21 -6 -2 -11 2 -11 8 0 6 6 9 14 6 9 -4 16 3 20 19
4 14 10 23 15 20 4 -3 8 1 8 9 0 8 -4 12 -8 9 -4 -2 -10 2 -12 8 -3 8 -6 6 -6
-5z"/>
<path d="M3300 1495 c-3 -27 -4 -25 15 -70 13 -35 14 -37 0 -21 -8 11 -15 15
-15 8 0 -6 10 -18 22 -27 20 -14 24 -14 34 0 6 8 14 12 17 8 4 -3 7 -1 7 6 0
7 5 9 10 6 6 -3 10 -4 10 -1 0 3 -10 10 -21 17 -17 9 -20 8 -14 -3 5 -7 4 -10
0 -5 -5 4 -10 15 -11 25 -1 9 -5 26 -8 37 -4 11 0 8 9 -7 21 -37 26 -35 12 2
-9 23 -16 29 -34 26 -12 -3 -24 1 -27 7 -2 7 -5 3 -6 -8z m33 -48 c-9 -15 -21
4 -15 25 5 21 6 21 12 2 4 -10 5 -22 3 -27z"/>
<path d="M3029 1348 c-7 -25 -4 -34 13 -34 17 0 17 2 4 12 -9 6 -13 14 -9 17
3 4 3 7 0 7 -4 0 -7 -1 -8 -2z"/>
<path d="M3125 1331 c-7 -13 -7 -13 28 -15 15 -1 26 3 24 9 -5 14 -44 19 -52
6z"/>
<path d="M3099 1278 c-6 -11 -5 -19 3 -24 7 -5 8 -3 3 6 -6 10 -1 12 19 8 19
-4 26 -1 26 11 0 22 -39 22 -51 -1z"/>
</g>
</svg>
