<?xml version="1.0" standalone="no"?>
<!DOCTYPE svg PUBLIC "-//W3C//DTD SVG 20010904//EN"
 "http://www.w3.org/TR/2001/REC-SVG-20010904/DTD/svg10.dtd">
<svg version="1.0" xmlns="http://www.w3.org/2000/svg"
 width="450.000000pt" height="253.000000pt" viewBox="0 0 450.000000 253.000000"
 preserveAspectRatio="xMidYMid meet">
<metadata>
Created by potrace 1.16, written by Peter Selinger 2001-2019
</metadata>
<g transform="translate(0.000000,253.000000) scale(0.100000,-0.100000)"
fill="#000000" stroke="none">
<path d="M0 1265 l0 -1265 2250 0 2250 0 0 1265 0 1265 -792 0 c-735 -1 -791
-2 -763 -17 40 -21 72 -57 112 -122 37 -61 53 -127 67 -285 5 -44 13 -51 77
-66 43 -11 49 -9 85 15 36 25 45 27 119 22 69 -4 94 -11 177 -50 172 -82 209
-119 213 -219 3 -65 -18 -105 -96 -185 -122 -126 -167 -156 -284 -189 -33 -10
-62 -19 -64 -21 -3 -2 11 -20 30 -41 66 -70 88 -126 110 -279 13 -97 7 -130
-26 -145 -14 -6 -25 -17 -25 -25 0 -7 -9 -13 -20 -13 -10 0 -23 -7 -28 -15
-12 -23 -124 -47 -232 -50 -158 -5 -328 27 -433 82 -16 8 -39 12 -52 9 -19 -5
-23 -15 -32 -93 l-11 -88 2 82 c0 46 -2 83 -6 83 -5 0 -8 -3 -8 -8 0 -4 -17
-26 -39 -49 -21 -24 -41 -55 -44 -70 -3 -16 -15 -37 -26 -48 -12 -11 -39 -38
-61 -61 -95 -97 -259 -140 -356 -95 -66 31 -88 62 -134 186 -40 106 -41 114
-38 211 3 93 2 101 -14 96 -23 -6 -24 23 -3 36 11 6 -16 15 -87 29 -181 35
-316 112 -360 204 -62 130 -64 169 -14 250 33 52 103 119 125 119 6 0 11 4 11
9 0 5 13 14 30 21 60 25 58 34 -17 114 -93 97 -144 200 -151 303 -4 56 -1 78
12 98 9 14 13 25 9 25 -4 0 8 9 28 19 95 51 339 55 459 8 56 -22 79 -25 167
-24 l103 2 22 33 c34 50 145 139 213 172 l60 29 -1257 0 -1258 1 0 -1265z
m2627 -652 c-3 -10 -5 -4 -5 12 0 17 2 24 5 18 2 -7 2 -21 0 -30z m-10 -105
c-2 -18 -4 -6 -4 27 0 33 2 48 4 33 2 -15 2 -42 0 -60z m-10 -110 c-2 -13 -4
-5 -4 17 -1 22 1 32 4 23 2 -10 2 -28 0 -40z m0 -50 c-3 -8 -6 -5 -6 6 -1 11
2 17 5 13 3 -3 4 -12 1 -19z"/>
<path d="M2300 2018 c0 -9 12 -14 33 -15 18 -1 23 1 12 4 -11 3 -26 10 -32 15
-9 8 -13 6 -13 -4z"/>
<path d="M2415 1760 c-16 -18 -17 -23 -5 -30 30 -19 45 -5 32 30 l-8 21 -19
-21z"/>
<path d="M2399 1718 c-10 -31 -8 -63 5 -70 9 -5 16 -15 16 -23 0 -20 42 -57
57 -51 7 3 17 -4 23 -14 10 -19 6 -24 -12 -21 -12 2 -10 -17 2 -24 7 -4 7 -12
0 -25 -18 -33 -11 -40 40 -40 30 0 50 4 50 11 0 6 9 9 20 6 13 -3 20 0 20 9 0
8 -4 14 -10 14 -14 0 -13 43 1 57 12 12 4 15 -58 28 -37 7 -120 86 -129 122
-5 18 -21 32 -25 21z"/>
<path d="M2210 1661 c0 -6 4 -13 10 -16 6 -3 7 1 4 9 -7 18 -14 21 -14 7z"/>
<path d="M2710 1661 c0 -6 -13 -18 -30 -28 -28 -16 -40 -46 -22 -57 14 -8 31
9 52 49 23 45 23 45 10 45 -5 0 -10 -4 -10 -9z"/>
<path d="M1758 1642 c-26 -15 -38 -42 -20 -42 4 -1 18 -10 32 -21 22 -19 23
-22 7 -30 -28 -16 -21 -39 13 -39 24 0 33 6 41 27 11 30 9 114 -3 107 -4 -3
-8 1 -8 8 0 9 -3 9 -10 -2 -6 -10 -10 -11 -10 -2 0 16 -9 15 -42 -6z"/>
<path d="M2393 1558 c3 -20 -1 -29 -14 -33 -9 -3 -22 -12 -28 -19 -8 -10 -4
-12 22 -9 37 5 77 23 77 35 0 4 -6 8 -14 8 -8 0 -22 10 -31 23 l-17 22 5 -27z"/>
<path d="M2146 1431 c-16 -11 -35 -17 -42 -14 -7 2 -20 1 -29 -4 -12 -7 -6
-10 25 -11 32 -2 49 4 72 23 35 29 16 33 -26 6z"/>
<path d="M2352 1427 c-38 -27 -41 -39 -7 -35 14 2 25 8 25 13 -1 6 9 12 21 15
18 5 19 7 7 17 -11 10 -21 8 -46 -10z"/>
<path d="M1922 1418 c6 -18 28 -21 28 -4 0 9 -7 16 -16 16 -9 0 -14 -5 -12
-12z"/>
<path d="M1886 1375 c-3 -8 -2 -15 3 -15 5 0 14 7 21 15 10 12 10 15 -3 15 -8
0 -17 -7 -21 -15z"/>
<path d="M2235 1370 c3 -5 8 -10 11 -10 2 0 4 5 4 10 0 6 -5 10 -11 10 -5 0
-7 -4 -4 -10z"/>
<path d="M2320 1325 c-6 -8 -9 -23 -5 -34 11 -34 69 -34 78 0 10 39 -47 66
-73 34z"/>
<path d="M2160 1310 c-9 -6 -10 -10 -3 -10 6 0 15 5 18 10 8 12 4 12 -15 0z"/>
<path d="M2445 1280 c3 -5 8 -10 11 -10 2 0 4 5 4 10 0 6 -5 10 -11 10 -5 0
-7 -4 -4 -10z"/>
<path d="M2254 1259 c-3 -6 0 -15 7 -20 14 -8 32 9 23 23 -7 11 -22 10 -30 -3z"/>
<path d="M2250 1215 c0 -8 -13 -23 -28 -33 -16 -9 -27 -23 -25 -29 4 -10 9
-10 25 1 26 18 50 64 37 71 -5 4 -9 -1 -9 -10z"/>
<path d="M2580 1162 c-18 -32 -26 -38 -47 -34 -20 4 -23 9 -19 28 4 16 2 24
-6 24 -23 -1 -51 -29 -53 -53 -3 -23 0 -24 47 -23 30 2 55 8 62 17 6 8 18 15
26 17 8 2 17 8 18 13 2 5 8 9 13 9 6 0 7 -5 3 -12 -4 -6 -3 -8 4 -5 11 8 11
25 -1 45 -13 20 -25 14 -47 -26z m11 -15 c-10 -9 -11 -8 -5 6 3 10 9 15 12 12
3 -3 0 -11 -7 -18z"/>
<path d="M3307 1193 c-4 -3 -7 -14 -7 -23 0 -10 -7 -23 -15 -30 -13 -11 -13
-16 3 -42 18 -31 70 -83 58 -58 -6 11 -4 11 6 -1 10 -12 16 -13 24 -5 13 14
10 46 -6 56 -6 3 -12 15 -14 26 -2 10 -9 31 -14 45 -6 15 -8 30 -5 33 4 3 0 6
-9 6 -8 0 -18 -3 -21 -7z m68 -122 c3 -5 2 -12 -3 -15 -5 -3 -9 1 -9 9 0 17 3
19 12 6z"/>
<path d="M2700 1160 c14 -10 27 -17 29 -14 6 5 -31 33 -44 33 -5 1 1 -8 15
-19z"/>
<path d="M2215 1050 c-14 -15 -15 -20 -4 -20 25 0 45 18 33 30 -7 7 -16 5 -29
-10z"/>
</g>
</svg>
