<?xml version="1.0" standalone="no"?>
<!DOCTYPE svg PUBLIC "-//W3C//DTD SVG 20010904//EN"
 "http://www.w3.org/TR/2001/REC-SVG-20010904/DTD/svg10.dtd">
<svg version="1.0" xmlns="http://www.w3.org/2000/svg"
 width="450.000000pt" height="253.000000pt" viewBox="0 0 450.000000 253.000000"
 preserveAspectRatio="xMidYMid meet">
<metadata>
Created by potrace 1.16, written by Peter Selinger 2001-2019
</metadata>
<g transform="translate(0.000000,253.000000) scale(0.100000,-0.100000)"
fill="#000000" stroke="none">
<path d="M0 1265 l0 -1265 2250 0 2250 0 0 1265 0 1265 -2250 0 -2250 0 0
-1265z m2838 645 c164 -46 365 -184 377 -258 4 -32 -32 -92 -56 -92 -14 0 -2
33 16 46 27 20 11 29 -50 29 -29 0 -51 3 -48 8 2 4 -1 7 -6 7 -6 0 -11 -4 -11
-9 0 -5 -11 -11 -25 -13 -14 -3 -25 -1 -25 5 0 6 -7 2 -16 -9 -8 -10 -13 -13
-9 -6 8 15 -31 17 -40 2 -4 -6 -12 -7 -18 -3 -7 4 -19 6 -29 5 -9 -2 -19 2
-23 8 -3 5 -14 10 -23 9 -14 0 -13 -2 3 -9 18 -8 17 -9 -5 -7 -14 2 -36 9 -49
16 -19 11 -22 11 -15 0 4 -7 -6 -3 -23 9 -17 12 -33 19 -37 15 -3 -3 -6 -1 -6
5 0 8 -7 9 -27 1 -14 -5 -32 -8 -40 -5 -7 3 -13 0 -13 -7 0 -8 -4 -6 -10 3 -9
14 -14 7 -11 -13 1 -5 -3 -6 -9 -2 -6 3 -8 11 -5 16 6 9 -3 12 -37 12 -10 0
-18 3 -18 8 0 5 -14 16 -31 24 -29 15 -30 18 -16 39 10 15 12 28 6 38 -6 11
-5 19 1 23 6 4 2 15 -10 27 -23 25 -26 38 -8 38 6 0 9 3 6 6 -3 3 -15 0 -26
-7 -17 -11 -18 -14 -5 -40 8 -16 12 -33 8 -39 -3 -5 -1 -10 5 -10 7 0 5 -7 -4
-16 -9 -8 -16 -20 -16 -25 0 -6 -5 -7 -12 -3 -8 5 -9 0 -5 -15 4 -18 3 -20 -9
-10 -11 9 -14 9 -14 -1 0 -9 -4 -9 -17 1 -10 8 -14 9 -10 2 4 -6 3 -15 -3 -18
-6 -4 -10 -3 -9 2 3 19 -2 34 -10 29 -16 -10 -5 38 20 88 22 43 31 51 93 77
38 16 71 28 73 26 2 -3 20 2 41 9 47 18 141 11 240 -16z m-721 -17 c-3 -5 10
-8 29 -8 19 0 34 2 34 5 0 3 30 5 68 4 94 -3 94 -3 87 -14 -4 -6 6 -7 25 -4
22 5 30 3 30 -8 0 -16 -94 -68 -123 -68 -13 0 -17 -8 -17 -34 0 -41 -9 -48
-58 -48 -20 0 -47 -6 -59 -14 -20 -13 -21 -12 -17 10 5 28 -21 43 -43 25 -7
-7 -16 -9 -20 -5 -3 3 -1 6 5 6 7 0 12 7 12 15 0 16 -43 31 -59 20 -8 -4 -8 1
-2 18 8 22 7 23 -20 19 -24 -3 -28 -1 -23 12 4 11 1 16 -10 16 -11 0 -16 7
-14 18 2 13 -6 18 -37 23 l-40 5 35 6 c56 8 222 9 217 1z m-272 -19 c18 -7 44
-54 39 -69 -2 -6 -24 -9 -47 -7 -41 4 -44 5 -39 29 4 20 2 24 -9 18 -8 -5 -5
1 5 13 21 24 26 25 51 16z m-100 -101 c-6 -26 -5 -26 8 -10 17 21 24 22 24 2
0 -8 -4 -12 -9 -9 -15 10 -8 -9 10 -23 16 -14 16 -14 0 -9 -12 3 -18 0 -18 -9
0 -8 -5 -15 -11 -15 -5 0 -7 5 -3 12 5 7 3 8 -7 2 -8 -5 -18 -9 -23 -9 -5 0
-16 -11 -24 -25 l-16 -25 23 20 c16 13 25 16 28 8 7 -18 62 5 106 44 21 18 42
31 48 28 13 -9 1 -25 -19 -25 -11 0 -18 -8 -19 -20 -2 -21 30 -29 42 -10 3 5
16 15 28 21 18 9 17 6 -5 -15 -35 -34 -35 -40 0 -33 40 8 58 -5 36 -27 -12
-13 -19 -14 -24 -5 -4 6 -13 8 -19 5 -6 -4 -17 -4 -23 1 -34 21 -126 20 -146
-2 -13 -13 -13 -16 -2 -11 8 4 6 0 -4 -8 -24 -20 -29 -46 -10 -46 9 0 13 4 10
9 -8 12 19 21 57 20 l32 -1 -32 -14 c-34 -14 -42 -29 -21 -36 7 -3 2 -13 -12
-26 l-24 -22 27 0 c21 0 27 -5 28 -22 1 -13 2 -30 3 -38 1 -8 -3 -21 -8 -27
-4 -7 -5 -13 -1 -13 4 0 -8 -15 -27 -33 -18 -18 -39 -31 -47 -29 -9 3 -12 1
-8 -5 4 -7 0 -10 -10 -8 -10 1 -24 -2 -30 -7 -21 -17 -27 18 -27 142 -1 101 2
120 23 160 32 62 95 170 98 170 2 0 1 -12 -2 -27z m255 -28 c7 -9 8 -15 2 -15
-5 0 -12 7 -16 15 -3 8 -4 15 -2 15 2 0 9 -7 16 -15z m587 -90 c0 -8 -4 -12
-9 -9 -5 3 -6 10 -3 15 9 13 12 11 12 -6z m153 -6 c0 -4 -6 -9 -13 -12 -8 -3
-14 0 -14 7 0 7 6 13 14 13 7 0 13 -4 13 -8z m-737 -64 c-3 -9 -8 -14 -10 -11
-3 3 -2 9 2 15 9 16 15 13 8 -4z m-33 -25 c0 -5 -5 -10 -11 -10 -5 0 -7 5 -4
10 3 6 8 10 11 10 2 0 4 -4 4 -10z m-160 -24 c0 -2 -7 -7 -16 -10 -8 -3 -12
-2 -9 4 6 10 25 14 25 6z"/>
<path d="M2730 1784 c0 -3 133 -44 144 -44 16 0 4 21 -16 29 -23 8 -128 21
-128 15z"/>
<path d="M2068 1873 c6 -2 18 -2 25 0 6 3 1 5 -13 5 -14 0 -19 -2 -12 -5z"/>
<path d="M1741 1473 c-23 -28 -21 -44 3 -24 12 10 29 51 21 51 -2 0 -13 -12
-24 -27z"/>
<path d="M1650 1356 c0 -2 7 -6 15 -10 8 -3 15 -1 15 4 0 6 -7 10 -15 10 -8 0
-15 -2 -15 -4z"/>
</g>
</svg>
