<?xml version="1.0" standalone="no"?>
<!DOCTYPE svg PUBLIC "-//W3C//DTD SVG 20010904//EN"
 "http://www.w3.org/TR/2001/REC-SVG-20010904/DTD/svg10.dtd">
<svg version="1.0" xmlns="http://www.w3.org/2000/svg"
 width="450.000000pt" height="253.000000pt" viewBox="0 0 450.000000 253.000000"
 preserveAspectRatio="xMidYMid meet">
<metadata>
Created by potrace 1.16, written by Peter Selinger 2001-2019
</metadata>
<g transform="translate(0.000000,253.000000) scale(0.100000,-0.100000)"
fill="#000000" stroke="none">
<path d="M0 1265 l0 -1265 2250 0 2250 0 0 1265 0 1265 -2250 0 -2250 0 0
-1265z m2815 640 c69 -17 224 -92 274 -133 19 -15 52 -45 74 -66 34 -34 38
-43 33 -74 -6 -39 -31 -72 -55 -72 -12 1 -11 5 7 19 26 23 29 48 5 55 -19 5
-101 9 -118 6 -5 -1 -13 -2 -17 -1 -5 0 -8 -3 -8 -9 0 -5 -7 -6 -17 -3 -12 5
-14 3 -8 -8 7 -11 6 -12 -6 -2 -21 17 -67 24 -75 11 -4 -6 -2 -8 4 -4 6 3 13
2 16 -3 4 -5 0 -8 -6 -7 -21 3 -38 16 -38 29 0 7 4 6 10 -3 5 -8 10 -10 10 -4
0 18 -12 24 -26 13 -7 -6 -19 -9 -26 -6 -7 2 -23 0 -35 -4 -13 -5 -25 -4 -28
1 -9 15 -27 12 -20 -2 4 -7 -1 -4 -9 6 -10 12 -16 15 -16 7 0 -8 -7 -4 -17 8
-15 17 -24 20 -48 13 -16 -4 -39 -7 -50 -6 -11 1 -35 4 -52 5 -18 2 -33 7 -33
11 0 5 -14 17 -30 27 -27 16 -29 20 -15 31 9 7 14 19 11 27 -3 7 -2 13 2 13 4
0 8 9 8 20 0 10 -2 17 -5 15 -7 -8 -41 37 -35 46 7 12 -17 11 -36 -1 -8 -5
-11 -10 -7 -10 4 0 3 -8 -2 -19 -9 -15 -7 -18 7 -17 11 1 18 -8 20 -25 3 -29
-23 -63 -41 -52 -7 4 -8 0 -4 -11 4 -10 3 -15 -3 -11 -6 3 -10 2 -10 -4 0 -5
-8 -8 -17 -7 -24 4 -29 51 -8 82 8 13 13 24 10 24 -19 0 42 56 78 72 107 49
222 56 352 23z m-711 -16 c-2 -4 12 -6 31 -5 19 0 35 3 35 6 0 10 145 -2 151
-12 4 -6 15 -8 25 -4 11 3 26 1 34 -4 21 -13 5 -26 -66 -55 -52 -21 -60 -28
-68 -59 -7 -26 -15 -36 -30 -37 -35 -1 -70 -7 -93 -14 -18 -6 -21 -4 -16 14 4
17 1 21 -20 21 -15 0 -32 -9 -41 -22 -9 -13 -16 -17 -16 -9 0 8 9 22 21 32 19
17 20 18 2 27 -10 5 -26 8 -35 7 -10 -2 -17 0 -17 3 3 22 -3 32 -20 32 -12 0
-25 12 -33 30 -21 47 -103 56 -91 10 3 -11 9 -20 13 -20 5 0 6 -9 3 -20 -3
-11 -9 -18 -12 -15 -4 2 -24 5 -44 7 -31 2 -34 4 -26 20 8 14 6 18 -8 18 -16
0 -16 1 0 17 9 10 27 18 40 19 12 1 29 4 37 7 32 13 252 18 244 6z m-368 -116
c-6 -25 -5 -26 7 -10 22 27 26 20 15 -24 -7 -24 -14 -36 -18 -29 -6 9 -9 9
-14 1 -4 -6 -11 -9 -15 -6 -5 2 -16 -4 -26 -15 -10 -11 -13 -20 -7 -20 6 0 14
5 17 10 3 6 11 10 16 10 6 0 7 -4 4 -10 -8 -13 -5 -13 45 5 24 8 49 23 57 33
13 14 14 15 10 1 -10 -31 14 -40 49 -18 21 12 35 16 39 9 3 -5 -2 -10 -13 -10
-10 0 -23 -10 -29 -22 -8 -19 -16 -21 -74 -19 -49 2 -69 -2 -78 -13 -8 -9 -10
-16 -6 -16 4 0 2 -7 -5 -15 -11 -14 -6 -15 46 -9 43 4 55 3 44 -5 -8 -6 -23
-11 -32 -11 -10 0 -18 -5 -18 -11 0 -14 25 -39 39 -39 6 0 11 -4 11 -10 0 -5
-18 -9 -40 -8 -22 1 -43 -2 -47 -5 -3 -4 5 -7 18 -7 13 0 29 -4 34 -8 11 -8
15 -64 5 -72 -4 -3 -12 -18 -17 -35 -6 -16 -16 -29 -22 -27 -6 1 -11 -3 -11
-9 0 -8 -14 -10 -40 -6 -37 5 -45 0 -42 -25 1 -3 -4 -8 -11 -11 -7 -3 -13 3
-13 14 0 11 4 19 8 19 4 0 8 5 8 11 0 5 -4 8 -8 5 -5 -3 -8 45 -8 107 l1 112
46 85 c71 133 87 155 75 103z m133 -40 c-6 -7 -15 -10 -20 -7 -13 8 -3 21 15
21 12 0 13 -4 5 -14z m64 -66 c3 -8 1 -20 -4 -28 -8 -12 -10 -12 -18 0 -5 8
-16 11 -25 8 -9 -4 -16 -2 -16 4 0 5 10 14 23 19 31 12 34 12 40 -3z m1046
-168 c-8 -5 -25 -9 -39 -9 -33 0 -10 15 26 17 19 1 23 -1 13 -8z"/>
<path d="M2770 1756 c25 -8 61 -19 80 -25 l34 -11 -20 21 c-15 15 -38 22 -80
25 l-59 4 45 -14z"/>
<path d="M2050 1870 c0 -5 7 -10 15 -10 8 0 15 5 15 10 0 6 -7 10 -15 10 -8 0
-15 -4 -15 -10z"/>
<path d="M2238 1873 c6 -2 18 -2 25 0 6 3 1 5 -13 5 -14 0 -19 -2 -12 -5z"/>
<path d="M2155 1839 c-3 -4 2 -6 10 -5 21 3 28 13 10 13 -9 0 -18 -4 -20 -8z"/>
<path d="M1732 1470 c-16 -26 -15 -31 3 -23 9 3 13 8 11 11 -3 3 -1 11 5 19 6
7 7 13 3 13 -5 0 -15 -9 -22 -20z"/>
</g>
</svg>
