<?xml version="1.0" standalone="no"?>
<!DOCTYPE svg PUBLIC "-//W3C//DTD SVG 20010904//EN"
 "http://www.w3.org/TR/2001/REC-SVG-20010904/DTD/svg10.dtd">
<svg version="1.0" xmlns="http://www.w3.org/2000/svg"
 width="450.000000pt" height="253.000000pt" viewBox="0 0 450.000000 253.000000"
 preserveAspectRatio="xMidYMid meet">
<metadata>
Created by potrace 1.16, written by Peter Selinger 2001-2019
</metadata>
<g transform="translate(0.000000,253.000000) scale(0.100000,-0.100000)"
fill="#000000" stroke="none">
<path d="M0 1265 l0 -1265 2250 0 2250 0 0 1265 0 1265 -802 0 c-734 0 -800
-1 -773 -16 17 -8 39 -24 51 -35 11 -10 24 -16 29 -12 4 5 5 3 1 -4 -4 -7 2
-17 15 -23 11 -7 18 -14 15 -17 -3 -3 3 -18 13 -32 33 -48 50 -109 62 -219
l12 -110 59 -17 58 -16 33 25 c29 22 44 26 104 26 78 0 109 -9 234 -68 130
-63 176 -117 178 -212 1 -61 -19 -95 -119 -196 -115 -118 -161 -145 -304 -179
-28 -7 -33 -15 -14 -26 18 -10 80 -93 92 -124 14 -35 36 -147 42 -217 7 -66 6
-68 -25 -97 -17 -16 -31 -34 -31 -40 0 -6 -8 -11 -19 -11 -10 0 -24 -6 -30
-14 -19 -23 -153 -47 -255 -47 -151 1 -344 41 -413 86 -12 8 -31 15 -41 15
-17 0 -21 -12 -30 -97 l-10 -98 2 83 c0 45 0 82 -1 82 0 0 -24 -22 -52 -49
-32 -31 -51 -58 -51 -73 -1 -40 -107 -143 -185 -179 -83 -39 -144 -46 -217
-25 -69 20 -120 70 -149 145 -59 153 -59 154 -59 253 0 92 -1 98 -20 98 -18 0
-19 3 -10 21 7 11 10 22 8 23 -2 1 -46 11 -98 20 -162 31 -321 127 -336 206
-4 16 -10 30 -15 30 -5 0 -9 8 -9 19 0 10 -7 35 -15 54 -20 48 -10 88 36 154
35 51 126 133 146 133 6 0 22 11 37 24 l28 23 -35 27 c-20 15 -55 53 -79 84
-24 31 -45 59 -48 62 -9 9 -52 114 -61 150 -23 92 2 167 64 194 106 46 309 47
432 3 57 -20 88 -25 165 -25 l95 0 60 62 c72 74 140 122 215 153 l55 23 -1267
0 -1268 0 0 -1265z m2627 -622 c-3 -10 -5 -2 -5 17 0 19 2 27 5 18 2 -10 2
-26 0 -35z m-10 -140 c-2 -16 -4 -3 -4 27 0 30 2 43 4 28 2 -16 2 -40 0 -55z
m-10 -100 c-2 -16 -4 -5 -4 22 0 28 2 40 4 28 2 -13 2 -35 0 -50z"/>
<path d="M2290 2022 c0 -11 17 -18 64 -26 16 -3 25 -2 22 1 -4 4 -19 9 -34 11
-14 2 -32 8 -39 14 -9 7 -13 7 -13 0z"/>
<path d="M2240 2006 c0 -2 7 -7 16 -10 8 -3 12 -2 9 4 -6 10 -25 14 -25 6z"/>
<path d="M2453 1845 c0 -8 4 -12 9 -9 5 3 6 10 3 15 -9 13 -12 11 -12 -6z"/>
<path d="M2417 1767 c-25 -19 -32 -100 -11 -134 23 -37 55 -62 71 -56 15 6 30
-26 17 -36 -5 -3 -10 -17 -10 -31 0 -14 -4 -32 -8 -41 -6 -13 2 -15 49 -15 30
0 55 3 55 8 0 4 7 8 15 8 18 0 18 2 4 34 -9 20 -9 29 1 41 10 12 8 16 -15 25
-14 5 -34 10 -44 10 -10 0 -24 7 -31 15 -7 8 -19 15 -26 15 -8 0 -14 7 -14 15
0 7 -6 18 -14 22 -8 4 -21 21 -30 37 -14 27 -13 31 2 42 9 7 21 10 27 6 5 -3
3 2 -5 13 -8 10 -13 20 -12 22 9 11 -6 11 -21 0z"/>
<path d="M2335 1710 c4 -6 11 -8 16 -5 14 9 11 15 -7 15 -8 0 -12 -5 -9 -10z"/>
<path d="M2177 1673 c5 -12 7 -12 14 -1 6 9 9 7 9 -9 0 -17 5 -22 20 -20 11 2
22 6 25 10 3 4 2 5 -2 2 -3 -3 -15 3 -25 12 -25 22 -48 26 -41 6z"/>
<path d="M2673 1642 c-36 -30 -44 -62 -15 -62 24 0 38 11 44 35 3 11 9 28 13
38 10 25 -5 21 -42 -11z"/>
<path d="M1758 1642 c-33 -20 -36 -38 -7 -47 17 -6 19 -9 8 -16 -10 -6 -8 -9
9 -9 26 0 29 -15 5 -29 -21 -12 -12 -23 21 -26 18 -2 26 3 30 21 4 13 11 24
17 24 6 0 5 8 -2 23 -12 21 -11 21 6 7 17 -14 17 -14 7 6 -6 12 -8 24 -5 28 6
6 -12 10 -30 7 -5 -1 -6 3 -2 8 3 6 13 7 22 4 11 -4 14 -3 9 5 -10 17 -57 14
-88 -6z m62 -92 c0 -5 -2 -10 -4 -10 -3 0 -8 5 -11 10 -3 6 -1 10 4 10 6 0 11
-4 11 -10z"/>
<path d="M2384 1556 c2 -14 0 -23 -4 -21 -5 3 -10 -1 -13 -9 -4 -9 -14 -12
-28 -9 -15 4 -20 3 -15 -5 9 -15 39 -15 89 -1 40 11 48 26 20 36 -10 3 -26 12
-35 20 -15 13 -16 12 -14 -11z"/>
<path d="M2313 1546 c2 -6 10 -11 18 -11 8 0 17 -4 21 -10 5 -6 8 -5 8 3 0 6
0 15 0 19 0 4 -11 8 -25 9 -15 0 -24 -4 -22 -10z"/>
<path d="M2154 1435 c-10 -8 -29 -15 -41 -15 -34 0 -28 -17 6 -18 18 0 37 8
52 24 25 26 14 33 -17 9z"/>
<path d="M2340 1432 c-13 -11 -20 -24 -16 -30 9 -15 36 -15 36 0 0 6 3 8 7 5
6 -7 32 21 33 36 0 14 -38 7 -60 -11z"/>
<path d="M1920 1414 c11 -12 11 -14 1 -12 -7 2 -20 -7 -28 -19 -14 -21 -14
-23 1 -23 10 0 16 9 17 23 0 12 3 16 6 10 3 -10 8 -10 19 1 20 21 17 36 -7 36
-18 0 -20 -2 -9 -16z"/>
<path d="M2326 1334 c-18 -17 -22 -53 -6 -55 52 -7 65 -3 68 19 7 44 -32 67
-62 36z"/>
<path d="M2576 1334 c-4 -11 -2 -12 12 -5 11 6 25 6 37 -1 15 -8 17 -8 9 1
-17 18 -52 21 -58 5z"/>
<path d="M2545 1310 c-4 -6 -11 -7 -17 -4 -7 4 -8 2 -4 -5 6 -9 11 -9 22 0 14
11 18 19 10 19 -3 0 -8 -5 -11 -10z"/>
<path d="M2445 1280 c-3 -5 -1 -10 4 -10 6 0 11 5 11 10 0 6 -2 10 -4 10 -3 0
-8 -4 -11 -10z"/>
<path d="M2267 1273 c-10 -9 -9 -23 1 -23 5 0 9 7 9 15 0 17 -1 18 -10 8z"/>
<path d="M2222 1184 c-12 -8 -22 -21 -22 -29 0 -9 9 -6 27 11 30 28 27 41 -5
18z"/>
<path d="M2585 1174 c-9 -14 -14 -28 -11 -32 3 -3 6 0 6 6 0 7 6 11 13 10 7
-2 11 5 9 16 -3 17 -2 18 12 7 14 -12 16 -11 10 3 -9 23 -19 20 -39 -10z"/>
<path d="M2477 1168 c-15 -11 -27 -27 -27 -37 0 -9 -6 -23 -12 -31 -11 -12
-10 -12 3 -2 8 6 25 10 37 7 12 -2 24 0 27 5 3 5 12 7 19 4 7 -3 18 2 25 10
11 13 9 15 -10 11 -26 -5 -43 13 -28 31 18 21 -5 23 -34 2z"/>
<path d="M3306 1174 c-9 -8 -13 -20 -10 -26 4 -6 2 -8 -3 -5 -20 13 -21 -18
-1 -60 19 -41 47 -61 68 -48 15 9 12 34 -10 91 -10 29 -16 54 -13 58 4 3 1 6
-5 6 -6 0 -18 -7 -26 -16z"/>
<path d="M2680 1173 c0 -4 11 -13 25 -20 14 -6 23 -7 19 -2 -8 13 -44 31 -44
22z"/>
<path d="M2213 1053 c-20 -8 -15 -22 7 -20 11 1 20 7 20 14 0 14 -6 15 -27 6z"/>
</g>
</svg>
