<?xml version="1.0" standalone="no"?>
<!DOCTYPE svg PUBLIC "-//W3C//DTD SVG 20010904//EN"
 "http://www.w3.org/TR/2001/REC-SVG-20010904/DTD/svg10.dtd">
<svg version="1.0" xmlns="http://www.w3.org/2000/svg"
 width="450.000000pt" height="253.000000pt" viewBox="0 0 450.000000 253.000000"
 preserveAspectRatio="xMidYMid meet">
<metadata>
Created by potrace 1.16, written by Peter Selinger 2001-2019
</metadata>
<g transform="translate(0.000000,253.000000) scale(0.100000,-0.100000)"
fill="#000000" stroke="none">
<path d="M0 1265 l0 -1265 2250 0 2250 0 0 1265 0 1265 -2250 0 -2250 0 0
-1265z m2974 685 c123 -35 244 -124 344 -255 25 -34 26 -40 11 -86 -19 -55
-102 -117 -208 -154 -50 -17 -70 -7 -29 15 18 10 36 16 41 13 4 -2 7 1 7 7 0
6 5 8 10 5 6 -3 10 -1 10 4 0 6 5 11 11 11 5 0 7 -6 3 -12 -4 -7 4 -3 17 8 13
12 31 19 39 16 8 -2 12 -1 7 3 -4 5 7 15 24 22 17 7 28 16 25 21 -3 5 4 16 16
26 23 20 15 33 -24 38 -15 2 -30 7 -34 11 -4 3 -12 3 -18 0 -6 -4 -35 -8 -65
-10 -31 -2 -58 -7 -61 -11 -3 -4 -18 -8 -35 -9 -16 -1 -54 -3 -82 -5 -29 -2
-53 1 -53 6 0 5 -6 3 -14 -3 -11 -10 -18 -8 -34 9 -10 11 -26 18 -34 15 -8 -3
-25 -1 -39 5 -22 10 -22 10 -2 6 13 -2 25 -1 28 3 2 4 -1 8 -8 9 -7 0 -25 3
-40 7 -22 4 -27 3 -21 -7 6 -10 5 -11 -8 -1 -8 7 -18 10 -22 6 -4 -4 -11 -1
-16 7 -6 9 -10 10 -10 3 0 -15 -42 -4 -56 15 -8 11 -13 12 -18 3 -4 -6 -12 -9
-17 -5 -5 3 -7 10 -4 15 4 5 -6 14 -20 19 -24 9 -25 11 -11 31 10 15 12 28 6
45 -6 15 -6 24 0 24 12 0 13 47 1 54 -21 14 -36 -33 -19 -60 4 -6 1 -19 -6
-30 -8 -10 -11 -25 -8 -34 3 -8 2 -12 -2 -9 -4 4 -9 17 -11 29 -3 13 -10 27
-16 31 -6 4 -8 12 -5 18 4 6 2 11 -3 11 -6 0 -11 -8 -12 -17 0 -13 -2 -14 -6
-4 -4 11 -7 11 -14 0 -4 -7 -11 -11 -14 -7 -18 18 127 120 215 151 65 23 199
22 284 -3z m-668 -49 c0 -1 1 -8 1 -16 0 -8 -9 -15 -21 -15 -12 0 -27 -4 -35
-9 -11 -7 -9 -11 9 -21 22 -12 22 -13 4 -23 -17 -10 -17 -12 10 -17 35 -6 41
-19 23 -44 -16 -22 -107 -31 -107 -10 0 16 -36 24 -50 10 -9 -8 -11 -7 -8 4 2
8 -7 19 -20 25 -12 5 -25 18 -28 27 -3 10 -11 15 -20 11 -8 -3 -14 1 -14 11 0
9 -4 16 -9 16 -5 0 -11 9 -14 20 -4 15 -14 20 -39 21 l-33 2 35 8 c25 5 308 5
316 0z m119 -4 c10 3 12 -2 8 -18 -4 -15 -3 -20 5 -15 7 4 12 4 12 1 0 -9 -71
-37 -78 -31 -2 3 3 8 12 12 20 8 21 24 1 24 -8 0 -15 5 -15 10 0 6 7 10 16 10
9 0 12 5 8 13 -5 9 -4 9 6 0 7 -6 18 -9 25 -6z m-482 -22 c4 -8 2 -17 -4 -20
-5 -4 -3 -15 6 -28 20 -29 19 -40 -4 -27 -11 5 -29 10 -41 10 -17 0 -20 5 -16
26 9 47 47 72 59 39z m547 5 c0 -5 -4 -10 -9 -10 -6 0 -13 5 -16 10 -3 6 1 10
9 10 9 0 16 -4 16 -10z m-452 -81 c-3 -8 -7 -3 -11 10 -4 17 -3 21 5 13 5 -5
8 -16 6 -23z m462 -25 c8 -8 9 -14 4 -13 -21 4 -45 -2 -40 -9 2 -4 -6 -9 -20
-10 -28 -2 -31 10 -8 32 20 20 48 20 64 0z m-510 -19 c8 -2 21 -4 28 -4 24 -2
7 -25 -24 -33 -25 -6 -27 -5 -11 6 9 7 17 15 17 18 0 6 -28 3 -57 -7 -30 -10
-29 -23 2 -31 14 -3 25 -10 25 -16 0 -5 15 -8 33 -6 27 2 33 -1 35 -19 3 -19
-1 -23 -23 -23 -15 0 -41 7 -58 15 -18 8 -52 16 -77 18 l-45 3 32 13 c17 7 42
28 55 47 15 22 28 32 38 28 8 -3 22 -7 30 -9z m90 -16 c0 -11 -4 -17 -10 -14
-5 3 -10 13 -10 21 0 8 5 14 10 14 6 0 10 -9 10 -21z m-230 3 c0 -13 -12 -22
-22 -16 -10 6 -1 24 13 24 5 0 9 -4 9 -8z m-31 -93 c-10 -6 -10 -9 -2 -9 9 0
10 -7 3 -26 -13 -33 -13 -34 5 -28 8 4 12 11 8 17 -4 6 0 8 10 4 10 -3 17 -2
17 3 0 6 19 10 43 9 42 -1 42 -1 9 -9 -41 -10 -45 -13 -47 -47 -1 -20 -7 -29
-25 -33 l-25 -6 24 -7 c23 -6 23 -7 8 -29 -9 -13 -22 -32 -29 -43 -10 -18 -10
-19 5 -6 28 22 33 -13 7 -49 -20 -28 -50 -44 -34 -17 6 9 4 9 -8 -1 -13 -10
-17 -10 -21 0 -3 7 -6 2 -7 -12 -1 -20 -3 -21 -8 -8 -11 28 -5 206 8 237 8 21
17 28 28 24 11 -5 14 -2 9 10 -4 10 -2 30 4 45 10 25 11 26 21 8 8 -14 7 -21
-3 -27z m856 8 c4 4 5 3 1 -4 -10 -18 -32 -6 -33 20 l-2 22 13 -23 c6 -12 16
-19 21 -15z m134 -48 c-16 -10 -23 -4 -14 10 3 6 11 8 17 5 6 -4 5 -9 -3 -15z
m61 11 c0 -5 -4 -10 -10 -10 -5 0 -10 5 -10 10 0 6 5 10 10 10 6 0 10 -4 10
-10z m160 -205 c-7 -8 -16 -12 -21 -9 -13 8 -1 24 18 24 13 0 13 -3 3 -15z"/>
<path d="M2545 1820 c3 -18 7 -35 10 -38 3 -3 4 9 2 26 -2 18 -6 35 -10 38 -3
3 -4 -8 -2 -26z"/>
<path d="M1990 1660 c-9 -6 -10 -10 -3 -10 6 0 15 5 18 10 8 12 4 12 -15 0z"/>
</g>
</svg>
