<?xml version="1.0" standalone="no"?>
<!DOCTYPE svg PUBLIC "-//W3C//DTD SVG 20010904//EN"
 "http://www.w3.org/TR/2001/REC-SVG-20010904/DTD/svg10.dtd">
<svg version="1.0" xmlns="http://www.w3.org/2000/svg"
 width="450.000000pt" height="253.000000pt" viewBox="0 0 450.000000 253.000000"
 preserveAspectRatio="xMidYMid meet">
<metadata>
Created by potrace 1.16, written by Peter Selinger 2001-2019
</metadata>
<g transform="translate(0.000000,253.000000) scale(0.100000,-0.100000)"
fill="#000000" stroke="none">
<path d="M0 1265 l0 -1265 2250 0 2250 0 0 1265 0 1265 -670 0 -669 0 19 -33
c25 -42 47 -145 49 -225 1 -35 6 -73 10 -85 9 -25 7 -82 -3 -113 -6 -18 -3
-21 18 -17 14 3 35 -2 48 -11 12 -9 32 -16 43 -16 11 -1 31 -7 45 -15 22 -12
27 -11 45 4 60 55 148 46 265 -28 25 -15 58 -31 72 -34 33 -9 98 -64 98 -83 0
-8 5 -14 10 -14 15 0 1 -77 -22 -123 -10 -20 -36 -48 -57 -62 -22 -13 -45 -32
-53 -42 -18 -25 -97 -87 -133 -106 -17 -8 -47 -18 -67 -22 -21 -4 -53 -13 -73
-19 -35 -12 -35 -13 -16 -30 25 -23 35 -65 22 -97 -6 -18 -5 -35 7 -59 11 -25
16 -68 16 -150 1 -98 -2 -119 -18 -145 -26 -40 -85 -95 -102 -95 -7 0 -16 -5
-20 -11 -7 -12 -84 -5 -174 16 -30 7 -82 18 -115 25 -33 8 -87 26 -119 42 -68
33 -77 28 -65 -35 13 -71 2 -97 -50 -120 -25 -11 -58 -20 -73 -19 -16 0 -28
-4 -28 -9 0 -24 -31 -2 -106 74 -45 45 -104 103 -131 128 -64 59 -78 95 -54
141 10 18 17 41 15 51 -3 21 12 22 32 3 11 -11 11 -16 1 -19 -7 -3 -4 -6 6 -6
10 -1 16 -5 13 -9 -2 -4 4 -8 14 -8 19 0 18 1 0 19 -24 22 -26 69 -4 102 14
22 15 25 1 31 -9 3 -36 -6 -61 -21 l-45 -26 -3 28 c-3 28 -3 28 -16 6 -10 -19
-9 -27 8 -55 26 -42 26 -68 1 -68 -20 0 -51 25 -51 41 0 5 -7 9 -15 9 -8 0
-15 4 -15 8 0 5 -20 22 -44 39 -40 28 -45 37 -58 95 -10 46 -11 77 -4 118 10
58 10 62 3 207 -3 63 -9 100 -21 117 -19 30 -21 48 -12 141 10 99 27 155 54
176 13 10 53 28 90 40 37 12 72 25 77 29 6 4 26 13 47 19 33 11 46 29 49 68 1
15 43 83 51 83 4 0 16 17 27 38 10 20 32 45 48 54 15 9 41 30 57 47 l30 31
-1362 0 -1362 0 0 -1265z m2416 -630 c-1 -8 -5 -17 -8 -21 -5 -4 -4 16 1 34 3
9 9 -1 7 -13z m-1 -64 c3 -5 2 -12 -3 -15 -5 -3 -9 1 -9 9 0 17 3 19 12 6z
m-7 -122 c-1 -39 -5 -63 -9 -53 -3 11 -5 26 -3 34 1 8 3 32 3 53 1 20 3 37 6
37 3 0 4 -32 3 -71z m-14 -189 c-6 -6 -10 -3 -10 10 0 13 4 16 10 10 7 -7 7
-13 0 -20z m3 -72 c-3 -8 -6 -5 -6 6 -1 11 2 17 5 13 3 -3 4 -12 1 -19z"/>
<path d="M2484 1937 c-43 -25 -70 -54 -96 -105 -15 -29 -22 -50 -15 -47 6 4 4
0 -6 -8 -12 -10 -14 -16 -7 -19 7 -2 13 -24 15 -48 1 -25 5 -52 9 -60 4 -11
-3 -21 -24 -34 -17 -10 -29 -20 -26 -24 3 -3 1 -11 -5 -18 -18 -22 45 13 66
36 10 11 24 20 31 20 9 0 12 9 8 28 -5 22 1 34 24 58 53 54 92 84 107 84 20 0
20 46 -1 54 -24 9 -8 23 36 30 39 6 40 7 23 25 -28 28 -63 45 -63 29 0 -10 -2
-10 -9 1 -6 9 -10 10 -16 2 -4 -8 -11 -9 -18 -2 -8 6 -19 5 -33 -2z"/>
<path d="M2796 1905 c4 -9 15 -15 28 -13 28 4 23 21 -9 25 -19 3 -23 0 -19
-12z"/>
<path d="M3020 1903 c0 -6 -11 -8 -25 -6 -23 5 -24 3 -20 -36 2 -22 0 -43 -5
-46 -19 -12 -11 -45 10 -45 13 0 20 7 20 18 0 27 11 34 29 20 9 -7 6 -1 -6 13
-27 30 -28 37 -6 61 9 10 13 21 10 25 -4 3 -7 2 -7 -4z"/>
<path d="M2696 1891 c-4 -5 1 -8 9 -7 21 3 31 16 12 16 -9 0 -18 -4 -21 -9z"/>
<path d="M3080 1889 c0 -4 5 -11 11 -15 8 -5 6 -10 -5 -16 -9 -5 -14 -14 -10
-19 4 -7 10 -7 18 0 7 6 17 6 26 1 11 -7 8 -11 -13 -19 -15 -6 -30 -18 -33
-26 -4 -9 -19 -15 -38 -15 -28 -1 -29 -2 -13 -14 9 -7 17 -18 17 -23 0 -6 12
-18 26 -28 21 -13 23 -19 13 -31 -10 -13 -10 -17 0 -24 11 -6 9 -10 -7 -19
-27 -14 -42 -14 -42 2 -1 19 -26 47 -46 51 -11 3 -27 7 -36 11 -13 5 -18 2
-18 -11 0 -11 -7 -28 -15 -38 -8 -10 -12 -23 -8 -29 3 -6 1 -7 -5 -3 -6 4 -9
13 -5 21 3 8 0 15 -7 15 -6 0 -9 4 -5 9 3 5 1 12 -5 16 -7 4 -6 13 1 27 6 11
7 18 2 15 -16 -10 -38 10 -26 25 11 14 26 68 19 68 -3 0 -16 -4 -29 -9 -51
-20 -85 -20 -90 -1 -3 13 -11 16 -30 13 -13 -3 -28 0 -31 6 -4 6 -19 11 -34
10 -24 0 -24 -1 -7 -8 11 -4 20 -17 20 -27 0 -13 6 -18 20 -17 22 3 74 -32 63
-42 -3 -4 -24 2 -47 13 -34 17 -42 18 -52 6 -6 -8 -16 -11 -22 -7 -6 3 -7 1
-3 -5 4 -7 20 -12 36 -12 16 0 36 -8 46 -17 10 -10 21 -18 25 -18 17 0 18 -14
3 -50 -8 -21 -22 -44 -30 -52 -8 -8 -19 -23 -24 -33 -8 -16 -6 -19 18 -23 l27
-3 -33 -13 c-25 -10 -31 -18 -27 -31 3 -10 1 -21 -5 -25 -19 -12 -10 -25 19
-25 20 0 34 -8 45 -25 17 -25 17 -26 -9 -19 -29 7 -29 7 -12 -36 16 -37 2
-120 -20 -120 -17 0 -17 -18 2 -36 16 -16 21 -64 7 -64 -5 0 -9 -7 -9 -15 0
-12 3 -12 16 -2 12 9 13 9 7 0 -4 -7 -3 -13 2 -13 5 0 14 -10 20 -22 6 -13 11
-18 11 -11 1 12 41 6 41 -7 0 -4 7 -11 16 -14 16 -6 94 29 94 42 0 4 -20 13
-45 20 -36 10 -45 16 -45 34 -1 21 -2 22 -14 6 -7 -10 -16 -18 -18 -18 -11 0
-35 46 -43 78 l-7 32 29 -12 c15 -6 34 -19 41 -27 11 -13 12 -13 12 1 0 9 -4
19 -9 22 -5 3 -13 19 -19 34 -9 27 -9 28 22 24 21 -2 27 -1 17 6 -16 12 1 25
22 16 10 -3 18 4 24 21 8 25 14 28 68 31 37 3 66 11 78 22 18 16 20 16 33 -2
12 -17 16 -17 30 -5 9 8 19 13 20 12 2 -1 11 0 19 3 21 8 9 43 -23 68 -17 14
-37 19 -64 17 -35 -2 -38 -1 -36 23 2 20 6 25 21 20 21 -7 50 14 40 29 -4 6 0
8 10 4 12 -5 17 -1 17 13 0 14 6 18 23 15 12 -2 33 -6 47 -8 36 -7 63 16 55
45 -5 19 -4 20 5 8 10 -12 11 -12 5 5 -11 32 -14 114 -5 120 5 3 7 12 3 20 -3
10 1 15 15 15 11 0 27 3 36 6 13 5 11 10 -11 27 -15 12 -34 22 -42 24 -9 1
-21 10 -29 20 -9 12 -27 18 -57 19 -25 0 -45 -3 -45 -7z m50 -5 c0 -8 -19 -13
-24 -6 -3 5 1 9 9 9 8 0 15 -2 15 -3z m34 -25 c-3 -5 -10 -7 -15 -3 -5 3 -7
10 -3 15 3 5 10 7 15 3 5 -3 7 -10 3 -15z m75 -23 c9 -11 9 -16 -1 -22 -7 -4
-10 -4 -6 1 4 4 3 14 -3 22 -6 7 -9 13 -6 13 2 0 10 -6 16 -14z m-492 -41 c0
-8 -4 -12 -9 -9 -5 3 -6 10 -3 15 9 13 12 11 12 -6z m393 -53 c0 -5 -7 -9 -15
-9 -8 0 -12 4 -9 9 3 4 9 8 15 8 5 0 9 -4 9 -8z m-300 -17 c0 -7 -39 -12 -49
-5 -7 4 1 7 18 8 17 0 31 -1 31 -3z m-10 -75 c28 -28 26 -44 -5 -36 -29 8 -34
-9 -6 -24 13 -7 17 -16 14 -31 -4 -16 -3 -20 6 -15 7 4 19 5 28 2 11 -5 13
-10 4 -20 -6 -7 -8 -15 -5 -19 3 -3 -12 -15 -35 -27 -29 -14 -41 -27 -42 -43
l0 -22 -12 24 c-9 19 -8 26 6 36 24 17 21 34 -8 41 -14 3 -26 11 -27 18 0 6
-2 18 -3 26 -1 8 8 25 19 38 11 12 16 22 12 22 -4 0 -4 6 1 13 4 6 8 15 9 20
3 15 4 17 14 17 6 0 19 -9 30 -20z m186 -83 c4 -4 -2 -7 -14 -7 -12 0 -22 4
-22 9 0 10 26 9 36 -2z m-300 -84 c-10 -10 -19 5 -10 18 6 11 8 11 12 0 2 -7
1 -15 -2 -18z m249 -62 c-15 -30 -35 -42 -35 -20 0 15 44 68 48 58 2 -4 -4
-21 -13 -38z m-60 24 c-16 -50 -16 -50 -25 -36 -5 9 -3 22 3 33 14 22 28 24
22 3z"/>
<path d="M2757 1584 c-9 -10 12 -34 30 -34 19 0 12 34 -8 38 -8 1 -18 0 -22
-4z"/>
<path d="M2607 1800 c-7 -27 -1 -39 12 -24 5 5 5 18 2 28 -7 18 -8 18 -14 -4z"/>
<path d="M2530 1720 c-11 -9 -23 -32 -26 -49 -4 -17 -11 -34 -15 -37 -5 -3 -9
-23 -9 -45 l0 -40 36 7 c27 5 35 4 30 -5 -4 -6 -13 -11 -20 -11 -7 0 -13 -6
-13 -13 0 -7 -3 -24 -6 -39 -4 -15 -3 -30 3 -33 5 -3 10 -14 10 -23 -1 -16 -1
-16 -10 0 -19 32 -165 62 -153 31 3 -8 8 -12 11 -9 2 3 17 -3 32 -14 16 -11
40 -21 53 -22 14 -1 25 -6 24 -11 -1 -5 13 -18 31 -28 42 -24 64 -46 87 -86
32 -55 85 -62 85 -10 0 19 -49 73 -85 93 -17 9 -17 11 -2 11 9 0 17 -4 17 -9
0 -13 27 -9 40 7 11 13 8 15 -19 15 -34 0 -41 19 -16 40 12 10 13 16 4 27 -7
7 -14 11 -17 9 -2 -3 -18 2 -34 10 l-30 16 23 16 c13 9 29 17 36 18 16 3 43
30 43 43 0 6 3 10 8 10 20 -3 21 3 6 26 -19 29 -29 31 -38 8 -11 -30 -31 -58
-43 -60 -9 -2 -10 4 -3 23 16 41 62 95 77 90 7 -3 13 -1 13 4 0 13 -23 13 -36
0 -8 -8 -18 -5 -35 9 -13 11 -18 20 -11 21 19 0 14 17 -8 23 -11 3 -28 -3 -40
-13z"/>
<path d="M2675 1649 c-10 -15 3 -25 16 -12 7 7 7 13 1 17 -6 3 -14 1 -17 -5z"/>
<path d="M2316 1533 c-4 -9 -1 -23 7 -30 12 -12 13 -9 9 17 -5 34 -7 37 -16
13z"/>
<path d="M2990 1313 c0 -11 5 -24 11 -30 15 -15 2 -34 -18 -26 -11 4 -14 2
-11 -8 6 -16 37 -13 55 4 6 7 13 26 15 42 3 26 0 30 -24 33 -22 3 -28 -1 -28
-15z"/>
<path d="M3087 1273 c-4 -3 -7 -13 -7 -21 0 -12 3 -12 15 -2 8 7 15 16 15 21
0 11 -14 12 -23 2z"/>
<path d="M2623 1208 l-22 -23 30 -14 c33 -14 48 -9 32 11 -6 7 -12 21 -14 31
-4 17 -6 17 -26 -5z"/>
</g>
</svg>
