<?xml version="1.0" standalone="no"?>
<!DOCTYPE svg PUBLIC "-//W3C//DTD SVG 20010904//EN"
 "http://www.w3.org/TR/2001/REC-SVG-20010904/DTD/svg10.dtd">
<svg version="1.0" xmlns="http://www.w3.org/2000/svg"
 width="450.000000pt" height="253.000000pt" viewBox="0 0 450.000000 253.000000"
 preserveAspectRatio="xMidYMid meet">
<metadata>
Created by potrace 1.16, written by Peter Selinger 2001-2019
</metadata>
<g transform="translate(0.000000,253.000000) scale(0.100000,-0.100000)"
fill="#000000" stroke="none">
<path d="M0 1265 l0 -1265 2250 0 2250 0 0 1265 0 1265 -2250 0 -2250 0 0
-1265z m2963 681 c125 -40 277 -157 330 -254 26 -47 26 -51 12 -86 -14 -33
-85 -96 -108 -96 -14 0 23 34 47 43 14 6 16 10 7 21 -9 11 -6 15 14 20 14 4
25 13 25 21 0 14 -6 16 -50 20 -8 0 -20 4 -26 7 -12 8 -96 -11 -90 -21 2 -3
-51 -7 -119 -9 -101 -3 -125 -1 -132 11 -8 15 -25 21 -51 18 -7 0 -11 -5 -7
-10 3 -5 1 -13 -5 -16 -6 -4 -9 -1 -8 7 2 7 -3 12 -11 10 -11 -2 -12 0 -4 10
22 27 11 44 -25 41 -19 -1 -37 -5 -40 -8 -3 -2 -12 1 -20 8 -13 10 -15 9 -9
-8 7 -20 7 -20 -8 -1 -11 15 -15 16 -16 5 0 -10 -2 -10 -6 -1 -2 6 -9 12 -14
12 -6 0 -7 -6 -3 -12 4 -8 3 -10 -2 -5 -5 5 -9 13 -9 18 0 5 -3 9 -8 9 -4 0
-21 7 -38 15 -23 13 -28 19 -19 30 14 17 22 93 9 101 -5 3 -7 14 -4 25 4 10 2
19 -3 19 -26 0 -48 -65 -29 -88 6 -7 6 -12 1 -11 -5 1 -12 0 -16 -1 -5 -1 -14
-3 -20 -4 -7 -1 -12 -10 -11 -20 1 -13 -4 -16 -18 -13 -10 3 -17 2 -14 -2 2
-5 -9 -8 -25 -9 -17 0 -30 2 -30 4 0 3 24 34 53 69 40 49 69 72 126 101 40 21
90 41 110 45 56 10 211 2 264 -15z m-659 -47 c-18 -7 -18 -8 0 -8 15 -1 16 -4
6 -16 -7 -8 -19 -15 -26 -15 -8 0 -14 -5 -14 -10 0 -6 8 -10 18 -8 13 2 17 -4
18 -27 1 -62 -34 -96 -86 -82 -11 3 -23 1 -26 -4 -9 -15 -34 -10 -28 5 6 15
-22 29 -39 19 -7 -3 -9 -3 -5 2 11 12 -11 35 -33 35 -10 0 -20 9 -24 19 -4 13
-12 17 -26 14 -14 -4 -18 -11 -14 -22 5 -13 4 -14 -6 -3 -10 9 -10 15 -1 24
16 16 15 28 -2 28 -8 0 -13 8 -12 18 1 13 -8 18 -37 20 -45 4 -56 -14 -34 -57
l15 -29 -37 5 c-44 7 -41 4 -44 39 -2 25 3 30 43 44 36 13 84 17 229 17 102 0
176 -4 165 -8z m69 4 c-7 -2 -21 -2 -30 0 -10 3 -4 5 12 5 17 0 24 -2 18 -5z
m97 -24 c0 -18 -2 -19 -15 -9 -15 12 -12 30 6 30 5 0 9 -10 9 -21z m-45 1 c3
-5 0 -10 -7 -10 -10 0 -10 -2 1 -9 10 -6 4 -11 -20 -19 -67 -20 -75 -20 -89 2
-10 17 -10 19 1 9 7 -7 26 -13 41 -13 21 0 28 5 28 19 0 15 -5 18 -22 14 -19
-4 -20 -3 -8 6 19 14 67 14 75 1z m-494 -123 c-6 -8 -8 -17 -4 -20 3 -4 1 -7
-5 -7 -15 0 -15 13 0 28 16 16 23 15 9 -1z m-102 -23 c-6 -8 -18 -14 -26 -14
-11 0 -11 4 -3 20 6 11 16 17 25 13 12 -4 13 -9 4 -19z m238 11 c9 -25 -4 -29
-17 -6 -7 15 -7 21 0 21 6 0 13 -7 17 -15z m-59 -7 c-2 -6 -15 -15 -28 -20
-25 -9 -25 -9 -5 11 22 22 39 27 33 9z m-59 -44 c15 -14 -26 -27 -79 -25 -37
1 -60 -2 -60 -8 0 -6 0 -13 0 -16 0 -3 -7 -20 -15 -38 -14 -27 -14 -29 -1 -13
11 13 31 20 68 22 l53 4 -34 -13 c-38 -15 -49 -31 -32 -51 14 -16 4 -26 -25
-26 -13 0 -26 -5 -30 -12 -4 -6 -3 -8 4 -5 5 4 17 4 26 1 13 -5 12 -11 -9 -38
-30 -40 -33 -56 -5 -31 18 16 20 16 20 2 0 -23 -43 -103 -48 -89 -2 7 -8 10
-13 6 -5 -3 -9 0 -9 5 0 13 -22 10 -32 -4 -12 -15 -9 -27 4 -19 7 4 8 3 4 -4
-14 -23 -25 -11 -22 23 2 20 6 38 9 41 3 3 1 19 -5 35 -11 33 -2 135 13 145 5
3 7 9 4 14 -3 4 5 10 16 13 17 5 20 11 17 32 -4 18 0 29 13 36 13 7 19 6 19
-1 0 -6 17 -1 38 10 33 18 95 20 111 4z m71 -29 c0 -16 -19 -30 -28 -20 -3 3
0 11 8 16 12 9 11 9 -5 4 -48 -17 -58 -18 -53 -4 5 15 46 28 66 21 6 -2 12
-10 12 -17z m835 -43 c-3 -3 -11 0 -18 7 -9 10 -8 11 6 5 10 -3 15 -9 12 -12z
m325 -113 c0 -11 -95 -56 -135 -63 -13 -3 -27 -1 -30 4 -3 4 3 7 12 6 19 -3
43 15 36 26 -2 4 3 5 11 2 10 -4 18 1 22 10 4 11 10 13 18 7 7 -6 20 -4 36 4
31 17 30 17 30 4z m-170 -80 c0 -5 -7 -9 -15 -9 -9 0 -12 6 -9 15 6 15 24 11
24 -6z m-1293 -261 c-3 -8 -6 -5 -6 6 -1 11 2 17 5 13 3 -3 4 -12 1 -19z"/>
<path d="M2474 1802 c3 -5 0 -13 -6 -15 -9 -4 -10 -6 -1 -6 17 -1 25 16 12 25
-7 4 -9 3 -5 -4z"/>
<path d="M2810 1658 c-10 -21 -10 -21 3 -6 8 10 18 14 22 10 5 -4 5 -1 1 6
-10 17 -14 15 -26 -10z"/>
</g>
</svg>
