<?xml version="1.0" standalone="no"?>
<!DOCTYPE svg PUBLIC "-//W3C//DTD SVG 20010904//EN"
 "http://www.w3.org/TR/2001/REC-SVG-20010904/DTD/svg10.dtd">
<svg version="1.0" xmlns="http://www.w3.org/2000/svg"
 width="450.000000pt" height="253.000000pt" viewBox="0 0 450.000000 253.000000"
 preserveAspectRatio="xMidYMid meet">
<metadata>
Created by potrace 1.16, written by Peter Selinger 2001-2019
</metadata>
<g transform="translate(0.000000,253.000000) scale(0.100000,-0.100000)"
fill="#000000" stroke="none">
<path d="M0 1265 l0 -1265 2250 0 2250 0 0 1265 0 1265 -2250 0 -2250 0 0
-1265z m2815 1240 c49 -1 92 -8 110 -18 45 -23 97 -77 127 -133 31 -57 35 -76
50 -199 6 -49 13 -93 17 -97 3 -4 17 -9 31 -12 14 -3 37 -9 52 -12 21 -5 35 0
58 20 18 14 44 27 58 27 15 1 34 2 42 3 33 3 114 -14 153 -32 182 -84 230
-117 243 -167 3 -14 9 -25 13 -25 4 0 6 -26 3 -57 -5 -70 -24 -101 -122 -201
-94 -95 -139 -128 -208 -147 -32 -9 -64 -19 -72 -22 -8 -3 -18 -7 -22 -7 -15
-2 -8 -17 27 -60 19 -24 35 -48 35 -55 0 -6 4 -11 8 -11 13 0 40 -126 48 -222
l7 -86 -39 -39 c-66 -66 -156 -93 -309 -93 -152 0 -357 42 -420 86 -27 19 -55
18 -55 -3 -1 -66 -13 -199 -19 -205 -3 -4 -4 37 -1 90 3 53 5 99 4 100 -2 2
-15 -2 -31 -10 -22 -10 -29 -21 -31 -50 -3 -30 -14 -47 -62 -91 -60 -56 -113
-78 -193 -80 -48 -1 -181 51 -216 85 -31 30 -121 201 -121 229 0 8 -6 24 -14
35 -9 11 -12 29 -9 43 6 23 4 24 -35 17 -39 -6 -64 5 -42 19 23 14 7 24 -47
30 -81 9 -168 39 -243 83 -63 37 -120 100 -120 132 0 10 -7 20 -15 24 -8 3
-12 11 -9 19 2 7 -2 27 -11 43 -8 16 -15 40 -15 55 0 34 43 118 81 157 33 34
114 92 128 92 4 0 16 8 25 19 16 17 15 20 -16 47 -79 69 -149 178 -172 264
-16 58 -18 128 -5 151 7 13 13 27 14 31 0 14 69 45 123 57 89 19 232 14 315
-11 45 -13 114 -24 182 -27 118 -6 109 -9 162 50 12 13 28 29 35 34 146 115
240 149 373 138 39 -3 106 -7 150 -8z m-188 -1867 c-2 -13 -4 -3 -4 22 0 25 2
35 4 23 2 -13 2 -33 0 -45z m-10 -125 c-3 -10 -5 -4 -5 12 0 17 2 24 5 18 2
-7 2 -21 0 -30z m-10 -145 c-2 -13 -4 -5 -4 17 -1 22 1 32 4 23 2 -10 2 -28 0
-40z"/>
<path d="M2276 2025 c19 -29 26 -32 17 -8 -5 12 -3 14 7 8 9 -5 11 -4 6 4 -4
6 -12 9 -17 6 -5 -4 -9 -1 -9 4 0 6 -5 11 -10 11 -6 0 -3 -11 6 -25z"/>
<path d="M2230 2021 c0 -6 4 -12 8 -15 5 -3 9 1 9 9 0 8 -4 15 -9 15 -4 0 -8
-4 -8 -9z"/>
<path d="M2440 1840 c0 -5 5 -10 10 -10 6 0 10 5 10 10 0 6 -4 10 -10 10 -5 0
-10 -4 -10 -10z"/>
<path d="M2404 1769 c-9 -10 -14 -22 -11 -26 4 -3 1 -16 -7 -27 -9 -14 -10
-28 -5 -41 22 -50 48 -81 75 -90 28 -9 44 -22 44 -37 0 -4 -7 -5 -16 -1 -14 5
-16 2 -10 -21 3 -14 2 -35 -4 -46 -10 -18 -7 -19 45 -19 30 1 55 5 55 10 0 5
7 9 15 9 18 0 18 5 4 31 -8 16 -7 25 6 39 15 16 14 18 -12 25 -30 9 -41 11
-61 13 -17 3 -112 101 -112 117 0 7 7 16 16 19 9 3 14 12 11 20 -3 7 -1 18 4
23 7 7 5 12 -4 16 -8 3 -23 -3 -33 -14z"/>
<path d="M2335 1704 c9 -9 18 -14 21 -11 9 9 -6 27 -22 27 -13 0 -13 -2 1 -16z"/>
<path d="M2181 1691 c-10 -7 -11 -13 -2 -27 6 -11 11 -14 11 -9 0 6 4 4 8 -3
6 -9 15 -10 33 -3 16 7 19 10 7 10 -9 1 -23 10 -30 20 -9 13 -19 17 -27 12z"/>
<path d="M2697 1665 c-4 -8 -11 -14 -16 -13 -16 5 -49 -42 -44 -63 5 -17 8
-18 25 -7 18 12 52 87 44 96 -2 1 -6 -4 -9 -13z"/>
<path d="M1768 1640 c-14 -10 -29 -16 -34 -12 -4 4 -1 -4 8 -18 l15 -25 -41 3
c-31 3 -38 1 -30 -8 10 -10 54 -16 79 -10 22 5 34 -1 29 -15 -4 -8 -13 -15
-21 -15 -8 0 -11 -4 -8 -10 3 -5 20 -10 36 -10 28 0 29 2 18 23 -11 19 -10 20
3 9 13 -10 15 -9 10 14 -3 19 -1 25 6 20 8 -5 10 -1 5 10 -5 13 -3 15 8 9 12
-7 11 -6 -1 9 -8 11 -16 14 -18 7 -2 -7 -8 -6 -18 3 -17 17 -19 30 -2 20 7 -4
8 -3 4 4 -10 17 -20 15 -48 -8z"/>
<path d="M1851 1644 c0 -11 3 -14 6 -6 3 7 2 16 -1 19 -3 4 -6 -2 -5 -13z"/>
<path d="M1493 1597 c-3 -5 1 -13 8 -18 12 -7 28 5 29 22 0 9 -30 6 -37 -4z"/>
<path d="M2381 1574 c11 -14 10 -18 -6 -30 -22 -16 -45 -18 -45 -4 0 5 7 7 15
4 18 -7 19 3 2 20 -7 7 -21 12 -31 10 -21 -3 -35 -14 -17 -14 7 0 9 -5 5 -12
-4 -7 -3 -8 4 -4 7 4 12 1 12 -8 0 -9 -8 -17 -17 -17 -10 -1 2 -5 27 -9 32 -6
54 -4 78 7 17 9 32 17 32 20 0 7 -54 52 -64 53 -5 0 -2 -7 5 -16z"/>
<path d="M1470 1545 c-20 -11 -21 -14 -7 -15 10 0 15 -4 12 -10 -3 -5 -2 -10
4 -10 7 0 7 -8 1 -26 -7 -16 -7 -23 0 -19 6 3 10 11 10 17 0 6 7 19 16 29 16
17 13 49 -3 49 -4 -1 -19 -7 -33 -15z"/>
<path d="M2150 1467 c0 -21 -7 -26 -45 -36 -28 -7 -45 -17 -45 -26 0 -17 25
-20 35 -5 4 6 15 6 30 0 22 -8 26 -6 31 15 3 14 12 25 19 25 24 0 24 15 -1 33
-24 18 -24 18 -24 -6z"/>
<path d="M2343 1450 c-34 -14 -29 -40 7 -40 26 0 50 21 50 44 0 9 -32 6 -57
-4z"/>
<path d="M1907 1424 c3 -8 -4 -25 -16 -38 -20 -21 -20 -24 -6 -30 23 -8 25 -8
25 8 0 8 19 21 41 30 47 19 43 31 -13 40 -31 5 -36 3 -31 -10z"/>
<path d="M2302 1333 c0 -37 17 -51 61 -51 31 1 31 0 16 51 -9 35 -13 37 -44
35 -30 -2 -33 -5 -33 -35z"/>
<path d="M2560 1356 c0 -2 7 -7 16 -10 8 -3 12 -2 9 4 -6 10 -25 14 -25 6z"/>
<path d="M2607 1349 c7 -7 15 -10 18 -7 3 3 -2 9 -12 12 -14 6 -15 5 -6 -5z"/>
<path d="M2127 1329 c-21 -17 -14 -25 17 -20 4 1 15 -4 24 -11 13 -11 15 -11
7 2 -6 12 -5 13 6 3 7 -7 21 -13 30 -13 22 0 33 -16 18 -26 -8 -5 -9 -3 -4 6
6 9 4 11 -5 5 -10 -6 -8 -12 9 -26 l22 -18 -39 -22 c-31 -18 -38 -27 -34 -46
2 -13 6 -23 7 -23 13 0 66 67 76 95 7 19 17 35 21 35 4 0 8 7 8 16 0 12 -7 15
-24 12 -26 -5 -50 5 -52 22 -1 5 -2 14 -3 19 -2 16 -61 9 -84 -10z"/>
<path d="M2441 1318 c-10 -27 6 -55 23 -38 7 7 7 13 -1 21 -6 6 -9 18 -6 25 3
8 2 14 -1 14 -4 0 -10 -10 -15 -22z"/>
<path d="M2570 1186 c-22 -43 -74 -47 -63 -6 4 14 0 20 -11 20 -9 0 -16 -4
-16 -10 0 -5 -6 -10 -14 -10 -8 0 -19 -13 -25 -30 -5 -17 -17 -30 -26 -30 -9
0 -13 -5 -10 -10 4 -6 10 -8 14 -6 4 3 29 6 55 7 26 2 50 7 53 12 3 5 25 17
50 28 32 14 44 24 41 36 -5 27 -33 26 -48 -1z"/>
<path d="M3296 1198 c-9 -5 -16 -15 -16 -23 0 -8 -7 -18 -16 -23 -14 -8 -15
-15 -5 -43 13 -39 55 -92 76 -95 8 -1 19 4 25 11 14 17 5 82 -14 105 -7 8 -12
29 -11 46 2 32 -10 38 -39 22z"/>
<path d="M2682 1174 c10 -10 20 -15 24 -12 3 4 -5 12 -18 18 -22 12 -22 12 -6
-6z"/>
<path d="M2918 1183 c6 -2 18 -2 25 0 6 3 1 5 -13 5 -14 0 -19 -2 -12 -5z"/>
<path d="M2861 1140 c-13 -11 -19 -20 -14 -20 6 0 18 9 28 20 23 25 17 25 -14
0z"/>
<path d="M3065 1112 c6 -5 33 -22 60 -37 28 -15 41 -20 30 -11 -11 8 -26 20
-32 26 -16 13 -71 34 -58 22z"/>
<path d="M2026 1069 c-13 -15 -15 -24 -7 -32 8 -8 11 -8 11 1 0 7 9 21 20 32
12 12 15 20 7 20 -7 0 -21 -10 -31 -21z"/>
<path d="M2196 1065 c-25 -19 -13 -33 24 -27 22 3 30 9 26 19 -3 8 -6 17 -6
19 0 9 -26 3 -44 -11z"/>
<path d="M2236 1011 c-3 -5 9 -23 27 -41 30 -30 32 -30 35 -10 6 36 -46 78
-62 51z"/>
<path d="M2329 951 c8 -14 8 -21 1 -21 -15 0 -12 -17 4 -23 11 -4 13 -1 9 10
-5 11 -3 14 6 8 10 -6 11 -3 2 13 -6 12 -16 24 -22 28 -8 4 -8 0 0 -15z"/>
<path d="M2570 943 c-30 -12 -49 -38 -40 -53 5 -8 10 -10 10 -4 0 6 12 23 26
38 15 14 25 26 23 25 -2 0 -11 -3 -19 -6z"/>
<path d="M2420 910 c0 -28 16 -32 27 -7 9 19 8 23 -8 24 -12 1 -19 -5 -19 -17z"/>
<path d="M2262 838 c-7 -7 -12 -23 -12 -36 l0 -25 20 26 c30 37 23 66 -8 35z"/>
</g>
</svg>
