<?xml version="1.0" standalone="no"?>
<!DOCTYPE svg PUBLIC "-//W3C//DTD SVG 20010904//EN"
 "http://www.w3.org/TR/2001/REC-SVG-20010904/DTD/svg10.dtd">
<svg version="1.0" xmlns="http://www.w3.org/2000/svg"
 width="450.000000pt" height="253.000000pt" viewBox="0 0 450.000000 253.000000"
 preserveAspectRatio="xMidYMid meet">
<metadata>
Created by potrace 1.16, written by Peter Selinger 2001-2019
</metadata>
<g transform="translate(0.000000,253.000000) scale(0.100000,-0.100000)"
fill="#000000" stroke="none">
<path d="M0 1265 l0 -1265 2250 0 2250 0 0 1265 0 1265 -2250 0 -2250 0 0
-1265z m3358 1035 c35 -28 56 -54 68 -87 l18 -46 -32 -28 c-17 -15 -38 -45
-47 -65 -8 -20 -23 -42 -32 -49 -15 -11 -13 -13 18 -20 19 -4 51 -16 71 -26
25 -13 39 -15 43 -8 4 6 14 8 22 5 8 -3 11 -1 8 4 -4 6 15 10 50 10 60 0 101
-16 152 -60 17 -15 53 -35 80 -44 73 -25 142 -96 122 -127 -5 -8 -9 -23 -9
-35 0 -25 -68 -99 -100 -109 -12 -4 -35 -19 -51 -34 -47 -46 -165 -101 -214
-101 -47 0 -63 -11 -42 -29 17 -14 13 -65 -8 -97 -11 -17 -13 -29 -7 -37 18
-22 42 -134 42 -196 0 -34 -8 -79 -17 -103 -16 -40 -75 -108 -95 -108 -4 0
-17 -5 -27 -12 -15 -9 -32 -8 -79 5 -33 9 -113 28 -177 42 -65 14 -123 29
-129 34 -6 4 -32 14 -58 21 -27 7 -48 15 -48 19 0 3 -13 12 -28 19 -16 6 -37
20 -48 30 -72 67 -148 122 -167 122 -13 0 -33 7 -45 16 -37 26 -163 308 -148
332 4 7 8 30 18 102 1 8 -2 39 -6 68 -9 52 -9 52 -32 37 -28 -18 -64 -20 -65
-2 0 6 -4 3 -9 -8 -5 -14 -3 -24 10 -35 21 -18 32 -47 20 -55 -12 -7 -41 6
-34 16 3 5 1 9 -5 9 -5 0 -12 -6 -14 -12 -3 -8 -6 -6 -6 5 -1 9 4 17 9 17 7 0
7 7 2 18 -5 9 -7 31 -5 49 2 25 -3 36 -24 52 -14 12 -21 21 -14 21 6 0 11 9
11 20 0 20 32 44 44 32 4 -3 4 1 1 10 -8 20 16 26 119 28 102 2 116 11 116 76
0 49 23 114 39 114 5 0 32 23 60 50 42 41 58 50 87 50 20 0 42 7 50 15 9 8 24
15 34 15 10 0 54 14 97 31 170 69 206 78 284 79 74 0 78 -1 127 -40z m-1048
-614 c0 -3 -4 -8 -10 -11 -5 -3 -10 -1 -10 4 0 6 5 11 10 11 6 0 10 -2 10 -4z
m36 -96 c-24 -4 -27 -7 -15 -17 8 -6 25 -13 38 -15 46 -6 36 -28 -13 -28 l-46
0 3 38 c2 44 14 55 41 39 20 -11 20 -11 -8 -17z m-26 -78 c0 -13 -12 -22 -22
-16 -10 6 -1 24 13 24 5 0 9 -4 9 -8z m12 -67 c-3 -28 -1 -45 6 -45 6 0 13 6
15 13 4 8 6 7 6 -4 1 -8 -6 -24 -15 -35 -8 -10 -13 -12 -9 -4 4 8 -1 6 -9 -4
-14 -18 -20 -15 -17 6 0 4 -6 5 -14 2 -8 -4 -13 -9 -11 -13 3 -4 1 -13 -5 -21
-6 -10 -9 2 -9 37 0 42 4 54 19 63 11 5 23 19 26 30 12 36 23 21 17 -25z m26
-870 c-3 -3 -9 2 -12 12 -6 14 -5 15 5 6 7 -7 10 -15 7 -18z m2 -70 c0 -8 -2
-15 -4 -15 -2 0 -6 7 -10 15 -3 8 -1 15 4 15 6 0 10 -7 10 -15z m-13 -197 c-3
-7 -5 -2 -5 12 0 14 2 19 5 13 2 -7 2 -19 0 -25z"/>
<path d="M3085 1910 c3 -5 1 -11 -5 -15 -11 -7 -4 -25 10 -25 5 0 7 7 4 15
-10 25 10 16 23 -10 6 -14 7 -23 2 -19 -5 3 -9 -1 -9 -8 0 -9 -3 -9 -10 2 -8
12 -10 12 -10 1 0 -11 -3 -11 -15 -1 -12 10 -16 8 -23 -10 -8 -20 -9 -21 -15
-6 -8 21 -1 36 17 36 16 0 17 28 0 34 -6 2 -20 -1 -29 -7 -13 -10 -14 -18 -6
-41 6 -15 9 -32 6 -37 -16 -24 -13 -49 4 -49 13 0 20 10 25 30 5 26 10 30 30
27 14 -1 28 -6 32 -9 7 -7 -23 -42 -38 -44 -4 -1 -11 -2 -14 -3 -4 0 -1 -8 6
-16 7 -8 9 -15 5 -15 -4 0 4 -13 18 -30 14 -16 24 -37 22 -47 -2 -10 -4 -21
-4 -25 -2 -17 -37 -7 -49 13 -8 12 -9 18 -3 14 6 -3 11 -4 11 -1 0 3 -18 14
-41 25 -37 18 -41 18 -46 3 -9 -24 -46 -80 -39 -60 3 11 1 17 -7 15 -7 -1 -12
9 -11 25 0 15 -3 25 -7 22 -4 -2 -9 3 -13 11 -3 8 -11 15 -17 15 -8 0 -9 -4 0
-13 6 -8 7 -18 3 -22 -4 -5 -2 -5 4 -2 7 4 14 0 18 -8 6 -17 -9 -21 -19 -5 -4
6 -10 8 -15 5 -12 -8 -33 23 -26 40 4 11 2 14 -6 9 -7 -4 -8 -3 -4 4 4 7 17
10 30 6 14 -3 27 1 35 10 8 9 10 16 6 16 -4 0 -2 6 4 14 17 20 -1 28 -34 16
-14 -5 -29 -9 -33 -9 -4 1 -18 1 -32 0 l-25 -2 23 -11 c12 -6 22 -18 20 -27
-1 -9 2 -30 6 -48 5 -23 12 -31 25 -28 12 2 22 -5 29 -20 9 -19 8 -24 -9 -28
-16 -4 -18 -10 -13 -34 4 -15 7 -37 7 -48 -1 -11 1 -14 4 -7 6 17 20 15 27 -3
4 -10 -3 -19 -18 -26 -13 -6 -30 -22 -37 -36 -13 -24 -13 -24 -21 -3 -9 24 -2
44 12 35 4 -3 6 4 3 14 -6 25 -22 31 -64 22 -27 -5 -34 -12 -40 -39 -6 -28 -4
-32 16 -32 14 0 26 -9 34 -26 13 -29 16 -28 -51 -7 -26 8 -22 -10 7 -37 19
-18 25 -34 25 -66 0 -35 4 -43 23 -48 12 -3 35 -17 51 -30 23 -20 39 -25 81
-25 30 1 58 -2 64 -6 6 -3 15 4 20 17 6 13 10 16 11 8 0 -10 3 -11 8 -4 9 15
43 21 59 11 7 -4 21 -3 31 2 14 7 25 6 43 -7 20 -14 19 -10 -9 25 -18 23 -41
45 -51 48 -11 3 -22 12 -25 20 -6 16 -56 21 -56 6 0 -22 13 -41 28 -41 8 0 13
-3 9 -6 -3 -4 -19 -2 -36 4 -28 10 -31 9 -49 -26 -15 -30 -23 -36 -52 -36 -26
0 -40 8 -66 39 -18 22 -30 43 -27 48 3 5 8 5 12 0 3 -6 15 -12 27 -15 18 -4
20 -2 16 20 -4 19 -2 23 9 16 24 -14 35 -12 36 7 1 12 -7 19 -25 22 -15 2 -2
5 29 6 39 1 64 7 82 21 27 22 47 26 47 10 0 -20 36 -29 63 -15 14 7 29 10 33
7 4 -4 4 -1 0 6 -4 7 -1 12 7 12 8 0 20 7 27 15 8 9 8 15 2 15 -6 0 -13 -6
-15 -12 -4 -10 -6 -10 -6 -1 -1 6 4 15 9 18 6 3 10 19 10 35 0 26 -2 28 -36
24 -20 -2 -35 -2 -33 -1 2 2 13 9 23 17 18 13 19 13 11 0 -5 -9 -4 -12 1 -7 4
4 9 18 9 30 0 17 5 21 23 19 15 -2 22 2 22 14 0 10 3 14 7 11 3 -4 12 -2 20 4
15 13 18 55 3 64 -18 11 -10 43 16 64 l27 21 -34 -6 -34 -6 23 19 c18 15 20
21 10 32 -7 8 2 3 20 -10 31 -22 33 -22 50 -5 15 16 15 18 1 13 -12 -4 -15 1
-13 19 1 13 -2 24 -7 24 -6 0 -7 5 -3 11 5 8 -1 10 -21 7 -18 -4 -33 0 -44 11
-24 24 -47 31 -59 19 -7 -7 -17 -3 -32 12 l-22 22 7 -22 c5 -15 4 -20 -4 -16
-6 4 -11 13 -11 20 0 8 -9 16 -20 19 -11 3 -18 1 -15 -3z m75 -80 c0 -4 -6
-10 -14 -13 -10 -4 -12 0 -9 14 5 18 23 18 23 -1z m-120 -160 c0 -5 -2 -10 -4
-10 -3 0 -8 5 -11 10 -3 6 -1 10 4 10 6 0 11 -4 11 -10z m120 -105 c0 -2 -6
-7 -12 -11 -7 -4 -10 -4 -6 1 4 4 0 14 -10 22 -15 13 -15 13 6 3 12 -6 22 -13
22 -15z m-114 0 c-18 -14 -18 -15 10 -26 16 -7 32 -12 37 -11 4 1 7 -3 7 -9 0
-5 6 -7 13 -3 6 4 5 -1 -5 -11 -21 -23 -64 -13 -71 16 -3 12 -10 18 -16 15 -5
-4 -13 -1 -17 5 -5 8 -3 9 6 4 10 -6 12 -4 7 8 -6 16 6 25 33 26 11 0 10 -3
-4 -14z m-112 -21 c3 -8 2 -12 -4 -9 -6 3 -10 10 -10 16 0 14 7 11 14 -7z
m-140 -49 c-4 -8 -10 -12 -15 -9 -14 8 -10 24 6 24 9 0 12 -6 9 -15z m144 -67
c-5 -10 -13 -18 -18 -18 -14 0 -12 26 2 50 12 18 13 19 19 2 4 -9 2 -25 -3
-34z m51 1 c-16 -23 -24 -28 -33 -19 -8 8 -5 16 14 30 37 29 44 24 19 -11z"/>
<path d="M3683 1893 c1 -18 4 -20 16 -10 12 10 14 9 9 -4 -5 -12 1 -15 23 -15
22 0 26 2 17 13 -12 15 -22 18 -13 3 3 -5 2 -10 -3 -10 -6 0 -13 7 -16 16 -3
8 -10 13 -15 10 -5 -4 -11 0 -14 6 -3 7 -4 3 -4 -9z"/>
<path d="M2743 1744 c-16 -12 -15 -13 16 -14 19 0 43 -7 53 -17 20 -18 25 -5
6 19 -18 22 -54 28 -75 12z"/>
<path d="M3000 1736 c0 -2 7 -6 15 -10 8 -3 15 -1 15 4 0 6 -7 10 -15 10 -8 0
-15 -2 -15 -4z"/>
<path d="M2860 1707 c0 -19 16 -31 24 -18 3 5 -1 14 -9 21 -12 10 -15 10 -15
-3z"/>
<path d="M3293 1694 c3 -4 2 -15 -3 -25 -7 -12 -7 -20 0 -24 6 -4 10 -3 9 2
-4 22 2 34 14 27 8 -5 8 -2 -2 9 -7 9 -16 17 -19 17 -3 0 -2 -3 1 -6z"/>
<path d="M2640 1669 c0 -5 -4 -8 -8 -5 -4 2 -9 -11 -10 -29 -2 -23 4 -41 18
-55 11 -11 19 -24 18 -29 -5 -16 22 -11 71 12 19 9 25 9 28 0 7 -19 50 -16 61
3 7 13 13 14 30 5 18 -10 21 -9 16 4 -4 8 -10 15 -15 15 -5 0 -8 8 -7 18 5 59
-25 66 -36 7 -9 -44 -32 -52 -58 -20 -16 20 -23 23 -34 14 -8 -6 -14 -20 -14
-30 0 -11 -4 -19 -10 -19 -19 0 -10 45 12 64 l22 19 -24 10 c-14 5 -33 13 -42
18 -12 6 -18 5 -18 -2z"/>
<path d="M2660 1415 c0 -17 22 -29 41 -23 6 2 0 12 -15 21 -23 15 -26 16 -26
2z"/>
<path d="M2670 1365 c0 -7 64 -64 68 -60 5 5 -31 46 -50 56 -10 5 -18 7 -18 4z"/>
<path d="M3270 1343 c0 -2 8 -13 18 -24 15 -15 19 -16 19 -4 0 8 -4 15 -9 15
-5 0 -7 4 -4 8 3 5 -1 9 -9 9 -8 0 -15 -2 -15 -4z"/>
<path d="M2958 1328 c5 -5 16 -8 23 -6 8 3 3 7 -10 11 -17 4 -21 3 -13 -5z"/>
<path d="M2757 1248 c29 -33 34 -44 27 -61 -7 -18 -34 -11 -34 8 0 7 -7 16
-16 19 -37 14 -36 3 0 -29 22 -19 43 -32 47 -29 4 2 11 -1 15 -7 4 -8 9 -7 15
2 7 11 9 11 9 1 0 -13 61 -44 93 -47 9 -1 17 4 17 10 0 7 10 17 23 23 17 8 18
11 5 11 -10 1 -18 5 -18 11 0 5 -7 7 -16 3 -27 -10 -91 17 -105 46 -21 42 -41
61 -62 61 l-20 0 20 -22z"/>
<path d="M3223 1229 c-1 -10 2 -19 8 -19 11 0 12 27 1 34 -4 2 -9 -4 -9 -15z"/>
</g>
</svg>
