<?xml version="1.0" standalone="no"?>
<!DOCTYPE svg PUBLIC "-//W3C//DTD SVG 20010904//EN"
 "http://www.w3.org/TR/2001/REC-SVG-20010904/DTD/svg10.dtd">
<svg version="1.0" xmlns="http://www.w3.org/2000/svg"
 width="450.000000pt" height="253.000000pt" viewBox="0 0 450.000000 253.000000"
 preserveAspectRatio="xMidYMid meet">
<metadata>
Created by potrace 1.16, written by Peter Selinger 2001-2019
</metadata>
<g transform="translate(0.000000,253.000000) scale(0.100000,-0.100000)"
fill="#000000" stroke="none">
<path d="M0 1265 l0 -1265 2250 0 2250 0 0 1265 0 1265 -2250 0 -2250 0 0
-1265z m2823 1233 c66 -1 85 -5 120 -28 48 -30 90 -76 116 -129 23 -46 32 -85
46 -218 6 -54 10 -62 33 -72 63 -24 93 -24 117 -1 31 29 74 37 152 29 83 -8
274 -99 321 -153 18 -20 30 -41 27 -46 -3 -4 1 -10 8 -13 19 -7 10 -113 -12
-150 -26 -41 -167 -183 -217 -218 -24 -16 -68 -37 -97 -45 -28 -8 -65 -20 -80
-26 l-28 -11 29 -31 c35 -38 66 -91 76 -131 4 -17 7 -30 6 -30 -1 0 3 -12 9
-26 5 -15 13 -67 16 -117 l7 -90 -40 -41 c-22 -22 -46 -41 -55 -41 -8 0 -20
-6 -26 -14 -13 -16 -56 -23 -186 -32 -148 -11 -346 23 -446 77 -59 31 -65 27
-73 -42 -3 -34 -6 -81 -6 -105 0 -23 -4 -45 -8 -48 -8 -5 -8 26 3 137 4 52 -4
58 -43 31 -14 -9 -22 -26 -22 -43 0 -33 -75 -118 -126 -144 -52 -26 -152 -32
-199 -11 -22 10 -49 19 -60 21 -50 8 -99 58 -146 148 -26 50 -53 109 -60 133
-6 23 -16 42 -21 42 -5 0 -6 16 -2 35 7 40 0 43 -45 18 -33 -19 -51 -12 -31
12 7 9 11 18 8 20 -2 2 -36 9 -75 15 -89 12 -173 43 -241 88 -50 33 -102 93
-102 118 0 6 -6 17 -14 24 -8 6 -13 17 -10 24 3 7 -2 26 -11 42 -22 43 -18 81
15 138 34 60 76 101 154 151 30 19 57 39 60 44 3 5 -11 24 -32 42 -76 66 -134
158 -168 269 -18 58 -18 99 1 142 18 45 45 62 133 83 92 23 248 16 342 -13 45
-14 97 -22 169 -23 102 -3 104 -2 123 24 27 37 134 120 193 149 90 45 171 58
265 45 30 -4 90 -8 133 -9z m-195 -1859 c-1 -22 -5 -42 -9 -45 -4 -2 -6 4 -4
13 2 10 4 30 4 46 1 15 3 27 6 27 3 0 5 -18 3 -41z m-11 -106 c-3 -10 -5 -2
-5 17 0 19 2 27 5 18 2 -10 2 -26 0 -35z m-7 -115 l-5 -63 -3 49 c-3 43 2 76
10 76 2 0 1 -28 -2 -62z m-13 -150 c-3 -8 -6 -5 -6 6 -1 11 2 17 5 13 3 -3 4
-12 1 -19z"/>
<path d="M2330 2040 c12 -22 12 -24 -2 -12 -22 17 -65 25 -73 12 -4 -6 -9 -8
-13 -6 -4 2 -13 -2 -19 -10 -7 -7 -9 -15 -4 -18 14 -9 131 -14 136 -6 2 4 16
6 30 5 14 -2 25 1 25 6 0 6 -13 8 -30 5 -20 -3 -30 0 -30 9 0 7 -7 19 -17 26
-15 13 -15 12 -3 -11z m-45 -10 c3 -5 1 -10 -4 -10 -6 0 -11 5 -11 10 0 6 2
10 4 10 3 0 8 -4 11 -10z"/>
<path d="M2664 1896 c11 -9 24 -16 30 -16 12 0 7 5 -24 19 -24 11 -24 11 -6
-3z"/>
<path d="M2443 1851 c4 -29 17 -39 17 -13 0 11 -5 24 -10 27 -6 4 -9 -2 -7
-14z"/>
<path d="M1850 1796 c0 -8 4 -17 9 -20 5 -4 7 3 4 14 -6 23 -13 26 -13 6z"/>
<path d="M2389 1732 c-6 -29 -8 -59 -5 -65 25 -50 46 -73 74 -81 34 -11 52
-36 26 -36 -12 0 -15 -6 -10 -25 4 -14 2 -34 -4 -45 -10 -18 -7 -20 42 -18 59
1 83 18 74 50 -3 13 1 29 11 40 14 16 13 18 -25 24 -42 6 -62 18 -112 65 -41
38 -56 69 -39 80 8 5 17 9 20 9 3 0 4 13 1 29 -3 21 -9 29 -23 28 -14 -1 -21
-14 -30 -55z"/>
<path d="M1828 1706 c-16 -12 -16 -14 7 -26 18 -10 22 -17 14 -26 -7 -8 -7
-14 1 -19 5 -3 11 -4 11 -1 5 22 4 33 -5 51 -6 11 -9 23 -8 28 3 10 0 9 -20
-7z"/>
<path d="M2330 1705 c14 -16 40 -20 40 -6 0 9 -24 21 -42 21 -6 0 -6 -6 2 -15z"/>
<path d="M2170 1686 c0 -16 26 -46 40 -46 5 0 16 3 25 6 14 6 14 8 -3 18 -11
6 -29 17 -41 24 -18 11 -21 10 -21 -2z"/>
<path d="M1810 1670 c0 -6 -8 -10 -17 -10 -10 -1 -29 -7 -43 -15 -22 -13 -23
-14 -5 -15 17 0 17 -2 5 -10 -8 -5 -11 -10 -6 -10 5 0 3 -7 -4 -15 -7 -8 -17
-12 -22 -8 -6 3 -9 0 -6 -8 5 -14 9 -15 50 -18 21 -1 21 -2 3 -14 -10 -8 -15
-19 -11 -25 12 -20 61 -14 82 10 12 13 13 18 4 13 -9 -5 -7 1 5 15 11 13 14
20 7 16 -11 -7 -11 -4 -1 12 10 17 10 23 0 36 -7 9 -18 13 -25 9 -6 -3 -6 0 2
8 16 17 15 26 -3 33 -8 3 -15 1 -15 -4z"/>
<path d="M2685 1658 c-33 -19 -47 -37 -50 -63 -5 -46 41 -17 60 38 7 20 12 37
11 37 0 0 -10 -6 -21 -12z"/>
<path d="M1497 1603 c-12 -11 -8 -23 7 -23 8 0 16 7 20 15 5 15 -14 21 -27 8z"/>
<path d="M1680 1579 c0 -5 5 -7 10 -4 6 3 10 8 10 11 0 2 -4 4 -10 4 -5 0 -10
-5 -10 -11z"/>
<path d="M2380 1575 c0 -17 -9 -19 -44 -6 -19 8 -28 6 -38 -6 -9 -12 -10 -15
0 -9 7 4 12 2 12 -4 0 -6 5 -8 10 -5 6 3 10 1 10 -5 0 -6 -8 -14 -17 -18 -14
-5 -9 -8 17 -12 39 -6 65 -1 95 18 15 10 17 14 6 19 -7 3 -22 14 -32 24 -15
15 -19 16 -19 4z m-10 -30 c0 -2 -7 -5 -15 -9 -9 -3 -15 0 -15 9 0 9 6 12 15
9 8 -4 15 -7 15 -9z"/>
<path d="M1483 1554 c-18 -8 -33 -17 -33 -20 0 -3 5 -2 10 1 9 6 14 -10 13
-42 -1 -20 11 -15 27 10 11 16 25 73 16 66 -1 0 -16 -7 -33 -15z"/>
<path d="M2148 1465 c3 -18 0 -25 -11 -25 -8 0 -22 -3 -30 -6 -10 -3 -18 2
-22 16 -4 12 -9 19 -12 17 -2 -3 0 -15 7 -26 10 -20 4 -26 -22 -22 -4 0 -5 -5
-2 -13 9 -23 81 -15 95 11 6 12 21 24 32 27 20 5 20 6 -5 26 -33 26 -36 25
-30 -5z"/>
<path d="M2336 1445 c-22 -17 -13 -35 18 -35 25 0 46 17 46 37 0 17 -40 16
-64 -2z"/>
<path d="M1922 1432 c-6 -2 -12 -9 -12 -16 0 -6 -13 -20 -30 -29 -16 -10 -30
-24 -30 -31 0 -21 52 -7 76 20 12 13 30 24 40 24 42 0 46 17 7 27 -21 5 -44 8
-51 5z"/>
<path d="M2230 1385 c7 -9 15 -13 17 -11 7 7 -7 26 -19 26 -6 0 -6 -6 2 -15z"/>
<path d="M2283 1368 c27 -26 19 -62 -16 -66 -17 -2 -25 -8 -21 -14 4 -7 2 -8
-4 -4 -7 4 -12 1 -12 -8 0 -8 4 -17 10 -21 5 -3 7 -12 3 -21 -3 -8 -7 -13 -10
-11 -10 11 -62 -50 -60 -71 0 -12 2 -22 3 -22 12 0 76 79 85 105 7 19 17 35
21 35 4 0 8 7 8 15 0 17 16 20 25 5 6 -10 61 -7 72 4 3 2 0 21 -7 40 -11 33
-14 36 -50 34 -22 -1 -45 3 -52 8 -8 5 -6 1 5 -8z"/>
<path d="M2549 1359 c-15 -9 -7 -12 34 -12 9 0 17 -4 17 -10 0 -6 3 -7 6 -4 4
3 16 1 28 -5 19 -9 20 -9 6 6 -21 22 -74 36 -91 25z"/>
<path d="M2123 1328 c-17 -19 -11 -23 30 -19 9 1 17 -4 17 -11 0 -9 3 -9 10 2
6 10 10 11 10 3 0 -7 10 -13 21 -13 18 0 19 2 9 15 -9 11 -10 15 -1 15 9 0 8
4 -1 14 -19 19 -76 15 -95 -6z"/>
<path d="M2438 1323 c-7 -25 1 -43 19 -43 11 0 13 5 8 18 -4 9 -8 23 -8 30 -1
18 -14 15 -19 -5z"/>
<path d="M2210 1273 c0 -6 8 -17 18 -24 16 -13 16 -13 2 6 -8 11 -16 22 -17
24 -2 2 -3 0 -3 -6z"/>
<path d="M2575 1208 c8 -19 -40 -62 -60 -54 -13 5 -14 10 -5 27 10 18 9 20
-12 17 -33 -4 -58 -29 -58 -56 0 -19 -4 -23 -20 -19 -11 3 -20 1 -20 -5 0 -19
113 -5 149 19 19 12 38 20 43 17 4 -3 8 0 8 6 0 7 7 10 15 7 8 -4 17 -1 21 6
4 7 4 9 -1 5 -5 -5 -13 2 -19 14 -13 25 -50 39 -41 16z"/>
<path d="M3293 1203 c-7 -2 -13 -13 -13 -24 0 -11 -7 -22 -15 -25 -8 -4 -15
-14 -15 -23 0 -19 55 -111 67 -112 5 0 16 -2 25 -4 9 -2 19 4 22 12 4 9 2 11
-6 7 -7 -5 -8 -3 -2 7 10 17 6 55 -10 89 -7 14 -12 32 -11 40 1 16 -13 41 -24
39 -3 0 -12 -3 -18 -6z"/>
<path d="M2820 1185 c7 -9 15 -13 17 -11 7 7 -7 26 -19 26 -6 0 -6 -6 2 -15z"/>
<path d="M2650 1186 c0 -3 14 -12 30 -21 31 -16 39 -12 18 8 -14 13 -48 22
-48 13z"/>
<path d="M2928 1183 c7 -3 16 -2 19 1 4 3 -2 6 -13 5 -11 0 -14 -3 -6 -6z"/>
<path d="M3077 1109 c6 -8 26 -23 45 -33 29 -17 31 -18 19 -2 -8 9 -28 24 -45
33 -24 12 -28 13 -19 2z"/>
<path d="M2034 1089 c-19 -22 -19 -22 6 -14 32 10 36 13 24 25 -7 7 -17 3 -30
-11z"/>
<path d="M2204 1080 c-5 -5 -22 -16 -39 -24 l-30 -16 52 0 c28 0 55 -4 58 -10
3 -5 1 -10 -5 -10 -6 0 1 -17 17 -39 28 -39 55 -45 46 -10 -3 10 -8 17 -12 14
-4 -2 -15 12 -26 31 -10 19 -22 34 -26 34 -5 0 -6 6 -3 14 6 16 -19 28 -32 16z"/>
<path d="M2730 1066 c0 -8 5 -18 10 -21 6 -3 10 3 10 14 0 12 -4 21 -10 21 -5
0 -10 -6 -10 -14z"/>
<path d="M2020 1049 c0 -5 5 -7 10 -4 6 3 10 8 10 11 0 2 -4 4 -10 4 -5 0 -10
-5 -10 -11z"/>
<path d="M2324 939 c-3 -6 2 -18 11 -27 10 -10 15 -12 11 -5 -3 6 -2 14 4 18
11 7 4 25 -10 25 -5 0 -12 -5 -16 -11z"/>
<path d="M2420 914 c0 -24 19 -45 21 -22 0 7 2 20 4 29 1 9 -4 16 -11 16 -8 0
-14 -10 -14 -23z"/>
<path d="M2536 921 c-10 -11 -13 -22 -8 -25 6 -3 13 1 16 9 3 9 16 20 28 25
22 8 22 9 2 9 -11 1 -29 -8 -38 -18z"/>
<path d="M2385 889 c-4 -6 -5 -12 -2 -15 2 -3 7 2 10 11 7 17 1 20 -8 4z"/>
<path d="M2266 842 c-10 -12 -16 -29 -14 -39 3 -15 6 -14 22 9 23 35 17 57 -8
30z"/>
</g>
</svg>
