<?xml version="1.0" standalone="no"?>
<!DOCTYPE svg PUBLIC "-//W3C//DTD SVG 20010904//EN"
 "http://www.w3.org/TR/2001/REC-SVG-20010904/DTD/svg10.dtd">
<svg version="1.0" xmlns="http://www.w3.org/2000/svg"
 width="450.000000pt" height="253.000000pt" viewBox="0 0 450.000000 253.000000"
 preserveAspectRatio="xMidYMid meet">
<metadata>
Created by potrace 1.16, written by Peter Selinger 2001-2019
</metadata>
<g transform="translate(0.000000,253.000000) scale(0.100000,-0.100000)"
fill="#000000" stroke="none">
<path d="M0 1265 l0 -1265 2250 0 2250 0 0 1265 0 1265 -2250 0 -2250 0 0
-1265z m2598 1126 c29 -15 52 -18 105 -15 80 5 141 -7 214 -43 54 -27 106 -77
196 -193 28 -36 53 -57 72 -61 17 -4 63 -17 103 -28 l73 -21 23 27 c22 26 29
27 97 26 68 -1 83 -5 190 -56 176 -85 194 -106 190 -207 -3 -64 -17 -86 -123
-191 -90 -90 -125 -112 -228 -145 -47 -14 -87 -28 -89 -30 -2 -2 13 -36 34
-76 33 -62 39 -85 43 -151 6 -109 -11 -179 -53 -220 -53 -50 -74 -67 -87 -67
-6 0 -19 -7 -28 -15 -23 -21 -185 -26 -290 -9 -107 17 -218 52 -248 78 l-24
21 -21 -26 c-12 -15 -32 -30 -44 -33 -11 -4 -27 -13 -33 -22 -11 -13 -14 -23
-19 -72 -1 -15 -125 -145 -135 -142 -4 1 -32 -9 -64 -21 -51 -20 -202 -42
-202 -29 0 3 -16 14 -35 24 -44 24 -74 70 -114 176 -36 92 -38 150 -6 212 8
17 15 44 15 59 0 15 6 30 13 33 6 3 1 2 -13 -2 -55 -16 -256 -2 -347 24 -128
37 -263 119 -263 160 0 7 -4 14 -10 14 -14 0 -12 88 4 131 14 39 75 121 115
154 39 32 130 95 139 95 4 0 26 13 49 29 l43 29 -28 18 c-45 29 -118 106 -145
154 -14 25 -33 71 -42 103 -15 50 -15 64 -4 103 7 24 18 44 23 44 5 0 17 6 25
14 9 8 45 24 81 36 86 30 268 30 380 2 102 -27 175 -22 202 14 31 39 59 64 93
81 70 37 120 41 173 14z m-81 -1793 c-3 -8 -6 -5 -6 6 -1 11 2 17 5 13 3 -3 4
-12 1 -19z"/>
<path d="M2736 1942 c-5 -8 0 -83 8 -123 4 -19 1 -29 -9 -33 -21 -7 -19 -43 3
-55 9 -5 19 -10 22 -12 3 -1 16 3 29 11 l24 13 -24 12 c-13 7 -28 11 -33 8 -5
-4 -6 -1 -2 6 5 7 14 10 22 7 8 -3 14 1 14 10 0 28 39 73 68 77 25 4 24 4 -5
6 -18 0 -33 -3 -33 -9 0 -5 -7 -10 -15 -10 -22 0 -18 28 5 40 26 14 17 30 -16
30 -18 0 -23 4 -18 13 5 8 2 8 -9 -2 -15 -12 -21 -9 -18 12 1 9 -6 9 -13 -1z"/>
<path d="M2888 1884 c5 -9 19 -21 32 -27 33 -17 30 -32 -9 -35 -27 -3 -31 -6
-20 -14 11 -7 11 -11 1 -15 -6 -2 -9 -10 -5 -16 5 -9 3 -9 -8 -1 -8 6 -25 8
-39 3 -14 -4 -19 -7 -12 -8 7 -1 12 -8 10 -17 -4 -23 57 -48 72 -29 8 10 7 16
-6 23 -11 6 -13 11 -5 16 6 4 11 4 11 0 0 -3 7 -1 15 6 8 7 15 9 16 4 0 -5 4
0 9 11 7 17 9 17 9 3 1 -10 6 -18 11 -18 7 0 7 6 0 20 -6 11 -16 20 -22 20 -7
0 -7 4 1 14 9 10 9 16 1 21 -8 5 -7 11 2 23 8 10 8 13 1 9 -6 -4 -13 -3 -15 2
-1 6 -15 12 -31 15 -22 4 -26 2 -19 -10z"/>
<path d="M2987 1893 c-4 -3 -2 -12 4 -19 8 -10 16 -10 35 -2 18 8 21 14 12 20
-16 9 -42 10 -51 1z"/>
<path d="M2552 1808 c-23 -5 -42 -15 -40 -21 1 -7 -1 -22 -5 -34 -8 -21 -10
-21 -42 -7 -19 8 -35 10 -35 5 0 -19 12 -41 21 -36 11 8 23 -41 13 -56 -4 -8
-3 -9 4 -5 20 12 33 -3 22 -24 -9 -17 -7 -17 20 -7 17 6 30 15 30 18 0 4 7 15
16 23 14 15 13 16 -8 16 -13 0 -31 9 -40 19 -15 18 -15 21 2 39 12 13 27 18
43 15 25 -5 57 26 57 54 0 15 1 14 -58 1z"/>
<path d="M2971 1748 c-1 -10 -11 -23 -23 -29 -33 -17 -54 -42 -50 -59 2 -10
-10 -20 -33 -29 -40 -14 -77 -7 -69 14 3 7 -3 16 -15 20 -12 3 -24 17 -27 29
-9 35 -48 29 -52 -8 -5 -45 5 -72 34 -85 16 -7 24 -17 20 -26 -3 -8 3 -16 14
-20 12 -4 19 -14 17 -26 -1 -14 8 -24 31 -34 18 -8 30 -10 27 -4 -8 12 13 79
26 80 12 2 28 6 34 9 3 1 8 3 13 5 32 9 42 20 42 48 0 17 6 38 14 46 11 12 12
25 6 51 -4 19 -8 27 -9 18z"/>
<path d="M1750 1730 c0 -5 9 -10 21 -10 11 0 17 5 14 10 -3 6 -13 10 -21 10
-8 0 -14 -4 -14 -10z"/>
<path d="M1700 1699 c-16 -10 -30 -22 -30 -27 0 -5 -18 -18 -40 -31 -22 -12
-39 -28 -38 -34 3 -17 -56 -140 -76 -156 -23 -19 -20 -28 16 -47 l32 -16 -25
-14 c-17 -9 -19 -13 -8 -14 9 0 22 7 29 15 7 8 9 15 5 15 -5 0 27 34 71 75 43
41 82 75 87 75 4 0 7 4 7 8 0 4 -16 6 -37 4 l-36 -5 22 32 c12 17 18 31 12 31
-24 0 -8 20 39 51 28 18 50 36 50 40 0 16 -51 15 -80 -2z"/>
<path d="M2575 1596 c10 -14 21 -26 26 -26 5 0 9 -8 9 -19 0 -10 7 -24 15 -31
11 -9 12 -16 5 -25 -14 -17 10 -36 38 -28 18 4 21 2 16 -11 -4 -11 -17 -15
-43 -14 -47 2 -61 -7 -61 -36 0 -23 0 -23 -46 -8 -49 16 -63 34 -45 56 15 18
-12 30 -37 17 -31 -17 -87 -36 -96 -33 -12 4 -36 -18 -36 -35 0 -11 6 -10 26
6 20 15 35 19 63 15 55 -8 63 -12 56 -33 -3 -10 1 -23 10 -31 8 -7 12 -16 9
-21 -3 -5 -1 -9 4 -9 15 0 19 -56 6 -75 -16 -21 -9 -40 14 -42 12 -1 21 9 28
30 5 18 14 32 19 31 6 0 19 8 30 18 22 21 34 24 116 33 l57 6 -11 35 c-6 19
-14 34 -19 34 -15 0 -21 -30 -8 -45 10 -13 9 -15 -11 -15 -49 0 -54 13 -29 74
13 31 26 54 28 51 8 -7 42 26 42 40 0 7 -6 15 -14 18 -10 4 -13 16 -10 36 4
23 0 32 -18 43 -13 7 -27 11 -31 10 -36 -10 -80 -11 -97 -2 -21 11 -21 11 -5
-14z m-9 -244 c-5 -4 -66 26 -66 33 0 3 16 -3 35 -12 19 -9 33 -18 31 -21z"/>
<path d="M2505 1571 c-8 -26 1 -42 21 -34 17 6 15 44 -3 50 -6 2 -14 -5 -18
-16z"/>
<path d="M2152 1521 c-10 -6 -5 -11 19 -20 31 -11 59 -2 59 18 0 10 -63 12
-78 2z"/>
<path d="M2396 1492 c-6 -10 30 -9 40 1 4 4 -2 7 -14 7 -11 0 -23 -4 -26 -8z"/>
<path d="M2190 1449 c-18 -8 -21 -12 -11 -18 8 -5 9 -11 3 -15 -12 -7 -13 -56
-1 -56 5 0 9 4 9 8 0 16 51 32 77 26 21 -6 25 -4 21 8 -4 8 -2 21 3 29 15 26
-52 38 -101 18z"/>
<path d="M2725 1430 c-3 -5 -1 -10 4 -10 6 0 11 5 11 10 0 6 -2 10 -4 10 -3 0
-8 -4 -11 -10z"/>
<path d="M2815 1413 c-4 -10 -11 -33 -15 -51 l-8 -33 35 21 c37 22 63 26 63
10 0 -13 23 -13 37 1 16 16 5 39 -18 39 -10 0 -19 4 -19 8 0 4 -8 8 -17 8 -10
1 -25 4 -34 8 -11 5 -19 1 -24 -11z"/>
<path d="M2370 1356 c11 -11 50 -16 50 -5 0 3 -14 9 -30 11 -21 3 -27 1 -20
-6z"/>
<path d="M2810 1257 c0 -17 52 -16 58 1 2 8 -8 12 -27 12 -19 0 -31 -5 -31
-13z"/>
<path d="M2458 1205 c-4 -16 -1 -25 8 -25 14 0 23 19 16 38 -7 20 -19 14 -24
-13z"/>
<path d="M2195 1130 c3 -5 8 -10 11 -10 2 0 4 5 4 10 0 6 -5 10 -11 10 -5 0
-7 -4 -4 -10z"/>
<path d="M3350 1131 c0 -4 5 -12 10 -19 7 -9 7 -9 -2 -2 -21 18 -32 11 -14 -9
13 -14 14 -21 5 -27 -8 -4 -10 -3 -5 4 4 7 2 12 -3 12 -16 0 -13 -15 4 -30 20
-16 31 -7 29 27 -1 15 2 33 7 38 5 7 0 11 -12 12 -10 1 -19 -2 -19 -6z"/>
<path d="M2486 1122 c-3 -6 -1 -14 5 -17 14 -9 20 -2 10 14 -6 8 -11 9 -15 3z"/>
</g>
</svg>
