<?xml version="1.0" standalone="no"?>
<!DOCTYPE svg PUBLIC "-//W3C//DTD SVG 20010904//EN"
 "http://www.w3.org/TR/2001/REC-SVG-20010904/DTD/svg10.dtd">
<svg version="1.0" xmlns="http://www.w3.org/2000/svg"
 width="450.000000pt" height="253.000000pt" viewBox="0 0 450.000000 253.000000"
 preserveAspectRatio="xMidYMid meet">
<metadata>
Created by potrace 1.16, written by Peter Selinger 2001-2019
</metadata>
<g transform="translate(0.000000,253.000000) scale(0.100000,-0.100000)"
fill="#000000" stroke="none">
<path d="M0 1265 l0 -1265 2250 0 2250 0 0 1265 0 1265 -2250 0 -2250 0 0
-1265z m3225 736 c156 -31 237 -53 259 -72 6 -5 20 -17 31 -25 11 -9 15 -13 8
-10 -6 4 -2 -12 10 -34 18 -34 20 -42 8 -49 -8 -5 -21 -7 -29 -4 -12 5 -12 2
-3 -15 7 -12 21 -22 33 -22 12 0 46 -15 76 -32 40 -25 60 -45 78 -80 13 -27
20 -48 14 -48 -5 0 -16 -15 -23 -32 -17 -40 -35 -55 -101 -88 -27 -14 -52 -30
-53 -35 -2 -6 8 -22 22 -37 14 -15 25 -32 25 -38 0 -5 5 -10 12 -10 6 0 9 -3
5 -6 -3 -4 0 -18 7 -33 20 -40 10 -131 -15 -131 -5 0 -9 -6 -9 -13 0 -7 -17
-22 -37 -34 -32 -17 -52 -19 -123 -16 -47 1 -89 4 -95 4 -5 1 -23 -1 -39 -5
-17 -3 -36 0 -43 6 -10 8 -13 7 -13 -2 0 -7 -7 -10 -15 -6 -8 3 -15 2 -15 -2
0 -16 -129 -3 -185 20 -89 35 -83 47 24 45 49 -1 89 2 88 7 -1 4 5 10 15 11 9
2 23 7 32 12 14 7 13 10 -4 21 -14 8 -21 9 -26 0 -5 -7 -2 -8 7 -3 8 5 11 4 6
0 -11 -12 -47 -14 -40 -2 4 7 -1 8 -13 4 -16 -6 -17 -5 -4 6 25 21 22 37 -10
48 -32 12 -41 29 -12 25 9 -2 20 2 24 8 12 17 9 28 -4 19 -7 -4 -16 -8 -20 -9
-5 -1 -11 -3 -15 -4 -5 -1 -16 -3 -25 -4 -10 0 -18 -4 -18 -8 0 -5 0 -12 0
-18 0 -5 13 -10 29 -10 16 0 35 -8 42 -17 11 -15 11 -16 -1 -5 -16 14 -44 17
-36 3 6 -9 -42 -6 -72 4 -9 4 -10 0 -2 -15 9 -16 7 -20 -7 -21 -10 -1 -21 -1
-26 0 -4 1 -41 3 -81 6 -110 7 -189 52 -226 130 -8 17 -19 33 -25 37 -5 4 -6
8 -1 8 5 0 3 7 -4 15 -10 12 -9 15 5 15 22 0 18 67 -7 94 -34 37 -8 218 35
247 5 3 8 9 8 13 -3 24 2 34 25 46 24 14 25 14 5 22 -18 6 -19 11 -10 32 14
29 58 49 160 70 41 9 88 20 104 25 40 12 214 7 290 -8z m-602 -107 c17 -4 27
-13 27 -24 0 -14 -18 -21 -97 -35 -118 -21 -149 -30 -146 -42 1 -5 -8 -22 -20
-37 -17 -20 -32 -28 -64 -30 -23 -2 -41 0 -40 3 2 9 -27 51 -36 51 -4 0 -3 -9
3 -20 10 -19 4 -70 -9 -70 -4 0 -8 14 -9 31 -3 32 -28 79 -44 79 -5 0 -4 -8 2
-19 13 -26 13 -61 -1 -61 -6 0 -3 -7 5 -16 9 -8 16 -20 16 -26 0 -5 6 -8 14
-5 17 7 27 -15 16 -33 -6 -10 -14 -9 -40 4 -38 19 -43 20 -35 6 3 -6 -1 -7
-10 -4 -9 4 -14 12 -12 18 3 8 -6 10 -29 8 -30 -4 -34 -8 -34 -32 0 -27 1 -28
38 -19 49 11 87 2 71 -17 -6 -7 -18 -13 -27 -12 -10 1 -25 0 -36 0 -28 -3 0
-32 30 -32 42 0 35 -19 -11 -25 -25 -4 -43 -11 -40 -15 3 -4 -4 -19 -15 -33
-11 -14 -20 -29 -20 -34 0 -4 5 0 11 10 15 25 30 21 24 -6 -6 -24 -13 -56 -14
-69 -1 -4 -14 -14 -31 -23 -30 -15 -30 -15 -31 12 -1 16 0 33 1 38 1 6 3 26 5
45 4 54 13 113 20 140 4 14 8 36 10 50 2 13 9 26 14 28 6 2 9 8 5 13 -3 5 2 9
11 9 8 0 18 7 21 15 9 21 25 19 17 -2 -5 -15 -3 -14 10 2 8 11 13 24 9 30 -3
5 1 4 10 -3 13 -10 15 -9 11 11 -6 31 -40 52 -59 36 -11 -9 -15 -8 -20 5 -9
24 14 72 43 92 14 9 23 11 19 5 -4 -5 6 -3 21 5 23 13 60 14 223 10 107 -3
207 -9 223 -12z m-273 -285 c0 -11 -4 -18 -10 -14 -5 3 -7 12 -3 20 7 21 13
19 13 -6z m-195 -188 c-4 -17 -11 -31 -16 -31 -12 0 -11 11 3 42 16 34 22 28
13 -11z"/>
<path d="M3234 1819 c-5 -9 30 -34 64 -44 25 -7 30 -35 6 -35 -8 0 -13 -4 -9
-10 3 -5 13 -6 22 -3 11 4 14 3 9 -5 -5 -8 -1 -10 10 -5 12 4 14 8 6 11 -10 3
-10 7 -1 18 9 11 4 20 -25 46 -35 31 -72 43 -82 27z"/>
<path d="M3380 1726 c0 -8 4 -17 9 -20 5 -4 7 3 4 14 -6 23 -13 26 -13 6z"/>
<path d="M3350 1676 c7 -7 13 -7 20 0 6 6 3 10 -10 10 -13 0 -16 -4 -10 -10z"/>
<path d="M3396 1678 c3 -5 10 -6 15 -3 13 9 11 12 -6 12 -8 0 -12 -4 -9 -9z"/>
<path d="M3278 1633 c-8 -10 -14 -24 -14 -32 1 -17 33 -24 43 -9 3 7 1 8 -5 4
-7 -4 -12 -1 -12 9 0 12 5 15 18 11 16 -6 16 -5 0 7 -10 8 -15 17 -11 20 3 4
4 7 1 7 -3 0 -12 -8 -20 -17z"/>
<path d="M3383 1637 c0 -8 6 -14 14 -14 9 0 10 4 2 14 -6 7 -12 13 -14 13 -1
0 -2 -6 -2 -13z"/>
<path d="M3226 1595 c4 -8 8 -15 10 -15 2 0 4 7 4 15 0 8 -4 15 -10 15 -5 0
-7 -7 -4 -15z"/>
<path d="M3247 1526 c-30 -34 -42 -68 -33 -91 13 -35 52 -12 71 41 8 21 14 31
15 22 0 -9 -4 -28 -10 -43 -6 -16 -6 -24 0 -20 5 3 12 21 16 40 4 25 1 40 -13
58 l-19 24 -27 -31z"/>
<path d="M3356 1423 c-6 -14 -5 -15 5 -6 7 7 10 15 7 18 -3 3 -9 -2 -12 -12z"/>
<path d="M3301 1351 c-10 -6 -10 -10 -1 -16 13 -8 24 -1 19 14 -3 6 -10 7 -18
2z"/>
<path d="M3116 1313 c-10 -11 5 -22 22 -17 14 5 14 4 3 -4 -8 -6 -16 -19 -17
-29 -2 -15 1 -14 17 6 11 13 18 29 16 34 -3 11 -33 18 -41 10z"/>
<path d="M2186 1875 c4 -8 8 -15 10 -15 2 0 4 7 4 15 0 8 -4 15 -10 15 -5 0
-7 -7 -4 -15z"/>
</g>
</svg>
