<?xml version="1.0" standalone="no"?>
<!DOCTYPE svg PUBLIC "-//W3C//DTD SVG 20010904//EN"
 "http://www.w3.org/TR/2001/REC-SVG-20010904/DTD/svg10.dtd">
<svg version="1.0" xmlns="http://www.w3.org/2000/svg"
 width="450.000000pt" height="253.000000pt" viewBox="0 0 450.000000 253.000000"
 preserveAspectRatio="xMidYMid meet">
<metadata>
Created by potrace 1.16, written by Peter Selinger 2001-2019
</metadata>
<g transform="translate(0.000000,253.000000) scale(0.100000,-0.100000)"
fill="#000000" stroke="none">
<path d="M0 1265 l0 -1265 2250 0 2250 0 0 1265 0 1265 -2250 0 -2250 0 0
-1265z m2815 1242 c84 -4 104 -11 170 -61 50 -37 102 -141 110 -218 3 -29 9
-69 12 -88 4 -19 7 -43 8 -52 2 -10 3 -22 4 -26 0 -4 26 -13 57 -20 54 -11 57
-10 91 15 30 23 44 26 101 25 75 -1 108 -11 235 -72 92 -44 143 -86 153 -126
3 -13 10 -24 14 -24 12 0 0 -111 -15 -140 -17 -33 -145 -165 -205 -212 -25
-20 -72 -44 -105 -53 -33 -10 -72 -22 -87 -27 l-28 -10 28 -32 c62 -71 83
-122 105 -250 17 -97 9 -153 -27 -181 -14 -11 -26 -26 -26 -33 0 -7 -8 -12
-17 -12 -9 0 -24 -6 -32 -13 -16 -14 -98 -30 -212 -43 -97 -11 -342 37 -428
83 -54 29 -71 29 -71 1 -1 -67 -14 -194 -21 -202 -4 -5 -6 0 -4 10 2 10 6 56
8 101 l5 81 -29 -10 c-35 -12 -44 -24 -41 -58 2 -19 -12 -40 -56 -82 -48 -47
-67 -59 -118 -72 -68 -18 -125 -21 -139 -8 -6 5 -38 19 -71 31 -34 13 -73 35
-87 49 -32 34 -115 194 -123 239 -3 18 -11 33 -16 33 -6 0 -8 13 -4 31 l6 30
-45 -7 c-43 -6 -61 5 -35 21 23 14 7 24 -47 29 -65 7 -132 27 -210 62 -64 30
-153 116 -153 148 0 13 -7 26 -15 30 -8 3 -12 11 -9 19 2 7 -2 27 -11 43 -21
41 -19 86 7 131 26 46 117 143 135 143 7 0 13 4 13 10 0 5 11 12 24 16 14 3
32 14 40 23 14 16 11 22 -44 74 -67 65 -98 113 -135 210 -76 203 13 286 295
275 83 -3 132 -10 177 -26 48 -17 85 -22 162 -22 103 0 110 2 143 48 19 26
126 106 176 131 73 37 141 51 227 46 44 -2 116 -6 160 -8z m-188 -1879 c-2
-18 -4 -4 -4 32 0 36 2 50 4 33 2 -18 2 -48 0 -65z m-12 -170 c-4 -68 -10
-126 -14 -130 -3 -4 -2 51 3 122 5 72 11 130 14 130 2 0 1 -55 -3 -122z m-18
-190 c-3 -8 -6 -5 -6 6 -1 11 2 17 5 13 3 -3 4 -12 1 -19z"/>
<path d="M2266 2029 c3 -5 9 -7 14 -4 4 3 11 0 13 -5 3 -6 4 -5 3 1 -1 7 -10
13 -19 15 -9 1 -15 -2 -11 -7z"/>
<path d="M2445 1840 c3 -5 8 -10 11 -10 2 0 4 5 4 10 0 6 -5 10 -11 10 -5 0
-7 -4 -4 -10z"/>
<path d="M2402 1784 c-2 -7 -3 -25 -4 -38 -1 -14 -6 -22 -10 -20 -4 3 -8 1 -8
-5 0 -5 -14 -8 -31 -6 -26 3 -28 1 -18 -11 6 -8 18 -13 26 -12 13 3 30 -20 52
-69 12 -26 47 -47 67 -39 8 3 14 1 14 -3 0 -5 3 -17 6 -25 5 -12 2 -15 -9 -10
-12 4 -15 -1 -14 -28 0 -18 -3 -42 -8 -52 -7 -15 -5 -17 6 -10 8 4 33 8 57 6
23 -1 42 3 42 8 0 6 7 10 15 10 18 0 18 5 4 31 -8 16 -7 25 6 39 16 18 16 19
-7 25 -23 6 -56 13 -69 14 -13 2 -87 77 -99 100 -11 21 -10 26 4 36 25 19 19
67 -10 72 -6 1 -11 -5 -12 -13z"/>
<path d="M2176 1691 c-4 -6 -2 -19 3 -28 8 -13 10 -14 11 -4 0 12 2 12 13 -1
8 -11 18 -13 32 -8 12 5 14 9 6 9 -8 1 -25 10 -37 22 -14 13 -24 17 -28 10z"/>
<path d="M2700 1666 c0 -9 -4 -15 -9 -12 -4 3 -21 -5 -36 -18 -23 -20 -25 -26
-16 -45 11 -20 13 -20 30 -4 21 22 46 81 37 90 -3 3 -6 -1 -6 -11z"/>
<path d="M1857 1664 c-3 -3 -3 -13 1 -22 5 -15 4 -15 -12 -3 -9 8 -16 10 -14
5 3 -9 -4 -14 -23 -14 -8 0 -8 4 1 15 10 12 8 14 -9 10 -40 -7 -81 -55 -48
-55 8 0 8 -3 -2 -9 -8 -5 -25 -7 -38 -5 -12 2 -23 0 -23 -6 0 -6 4 -9 8 -6 4
2 14 1 22 -4 7 -4 23 -5 35 0 36 14 51 -4 24 -29 l-23 -21 39 0 c21 0 35 3 32
7 -4 3 -1 13 6 21 8 11 8 14 0 9 -13 -8 -12 18 2 30 4 4 5 2 0 -6 -6 -10 -4
-12 4 -7 7 5 10 14 7 21 -3 8 1 19 9 25 7 6 13 20 12 31 -1 21 -1 21 -10 13z"/>
<path d="M1489 1594 c-16 -19 7 -27 25 -8 20 19 20 21 1 21 -8 0 -20 -6 -26
-13z"/>
<path d="M2375 1581 c-3 -6 -1 -11 6 -11 7 0 5 -8 -6 -20 -10 -11 -28 -20 -40
-20 -13 0 -25 -6 -28 -13 -6 -15 84 -13 114 3 20 11 26 30 9 30 -5 0 -18 9
-29 21 -12 13 -21 17 -26 10z"/>
<path d="M2304 1569 c-8 -13 1 -22 26 -26 29 -4 33 13 5 25 -16 8 -26 8 -31 1z"/>
<path d="M1464 1544 c-14 -12 -15 -14 -3 -11 13 4 16 -1 15 -24 -1 -16 0 -29
2 -29 11 0 31 37 32 58 0 26 -18 29 -46 6z"/>
<path d="M2147 1469 c5 -19 -6 -29 -45 -35 -15 -3 -33 -7 -41 -10 -26 -9 7
-29 50 -29 33 0 41 3 45 21 3 12 15 24 26 27 19 5 19 6 1 24 -23 24 -42 25
-36 2z"/>
<path d="M2220 1479 c0 -5 5 -7 10 -4 6 3 10 8 10 11 0 2 -4 4 -10 4 -5 0 -10
-5 -10 -11z"/>
<path d="M2342 1444 c-27 -19 -28 -30 -3 -37 22 -5 65 28 56 44 -9 13 -28 11
-53 -7z"/>
<path d="M1908 1424 c8 -14 4 -22 -15 -37 -22 -17 -23 -21 -9 -29 11 -6 22 -3
38 13 13 11 34 25 47 30 31 12 18 26 -33 34 -34 6 -37 5 -28 -11z"/>
<path d="M2299 1328 c1 -21 7 -36 11 -33 5 3 11 1 15 -5 6 -9 52 -7 62 4 3 2
-1 20 -8 39 -11 32 -16 35 -48 33 -35 -1 -36 -2 -32 -38z"/>
<path d="M2560 1351 c0 -5 7 -12 16 -15 10 -4 13 -2 8 6 -5 8 -2 9 9 5 10 -3
17 -2 17 3 0 6 -11 10 -25 10 -14 0 -25 -4 -25 -9z"/>
<path d="M2151 1337 c-38 -7 -42 -11 -29 -23 8 -8 31 -15 51 -16 20 -1 37 -5
37 -10 0 -4 4 -8 9 -8 11 0 1 47 -13 58 -6 5 -30 5 -55 -1z"/>
<path d="M2620 1340 c0 -12 28 -25 36 -17 3 3 -4 10 -15 17 -15 7 -21 7 -21 0z"/>
<path d="M2441 1319 c-10 -28 -6 -39 15 -39 11 0 13 7 8 28 -9 37 -12 39 -23
11z"/>
<path d="M2526 1302 c-3 -5 1 -9 9 -9 8 0 12 4 9 9 -3 4 -7 8 -9 8 -2 0 -6 -4
-9 -8z"/>
<path d="M2229 1280 c-12 -13 -13 -18 -2 -29 10 -9 13 -9 13 0 0 7 2 10 5 7
11 -10 -6 -34 -35 -52 -20 -11 -30 -25 -30 -42 0 -31 2 -30 40 7 28 29 63 90
64 114 1 16 -38 13 -55 -5z"/>
<path d="M2875 1220 c3 -5 8 -10 11 -10 2 0 4 5 4 10 0 6 -5 10 -11 10 -5 0
-7 -4 -4 -10z"/>
<path d="M2562 1180 c-13 -16 -31 -30 -42 -30 -17 0 -18 4 -10 25 11 28 6 30
-34 13 -17 -8 -29 -23 -33 -40 -4 -19 -12 -28 -24 -28 -11 0 -19 -4 -19 -9 0
-16 113 0 142 20 15 10 33 19 41 19 8 0 21 8 30 18 13 14 14 21 5 30 -19 19
-33 14 -56 -18z"/>
<path d="M3293 1193 c-7 -2 -13 -13 -13 -23 0 -11 -6 -23 -14 -27 -10 -6 -11
-15 -5 -31 5 -13 13 -21 19 -17 6 4 7 -1 3 -11 -4 -12 -3 -15 5 -10 7 4 10 2
7 -7 -7 -18 28 -49 47 -42 10 4 14 18 13 43 -3 58 -4 62 -16 62 -5 0 -7 -6 -3
-12 4 -7 3 -9 -1 -5 -12 10 -15 38 -4 31 14 -8 10 3 -7 20 -14 15 -14 16 3 16
15 0 16 2 3 10 -16 11 -19 11 -37 3z m42 -142 c3 -5 2 -12 -3 -15 -5 -3 -9 1
-9 9 0 17 3 19 12 6z"/>
<path d="M3091 1097 c2 -1 13 -9 24 -17 19 -14 19 -14 6 3 -7 9 -18 17 -24 17
-6 0 -8 -1 -6 -3z"/>
<path d="M2028 1065 c-20 -26 -22 -35 -10 -35 4 0 15 14 24 30 20 36 10 39
-14 5z"/>
<path d="M2198 1066 c-10 -7 -18 -16 -18 -18 0 -10 59 -15 72 -6 10 6 10 8 1
8 -7 0 -13 7 -13 15 0 18 -19 19 -42 1z"/>
<path d="M2236 1011 c-5 -8 11 -29 42 -56 l23 -19 -3 24 c-2 14 -7 30 -11 36
-8 14 -45 25 -51 15z m49 -21 c3 -5 1 -10 -4 -10 -6 0 -11 5 -11 10 0 6 2 10
4 10 3 0 8 -4 11 -10z"/>
<path d="M2340 940 c0 -5 5 -10 11 -10 5 0 7 5 4 10 -3 6 -8 10 -11 10 -2 0
-4 -4 -4 -10z"/>
<path d="M2540 915 c-13 -14 -19 -25 -14 -25 11 1 54 36 54 44 0 13 -18 5 -40
-19z"/>
<path d="M2420 908 c0 -10 5 -18 10 -18 6 0 10 6 10 14 0 8 6 16 13 19 6 3 2
4 -10 4 -15 -1 -23 -8 -23 -19z"/>
<path d="M2260 820 c0 -11 2 -20 5 -20 2 0 9 9 15 20 9 16 8 20 -5 20 -8 0
-15 -9 -15 -20z"/>
</g>
</svg>
