<?xml version="1.0" standalone="no"?>
<!DOCTYPE svg PUBLIC "-//W3C//DTD SVG 20010904//EN"
 "http://www.w3.org/TR/2001/REC-SVG-20010904/DTD/svg10.dtd">
<svg version="1.0" xmlns="http://www.w3.org/2000/svg"
 width="450.000000pt" height="253.000000pt" viewBox="0 0 450.000000 253.000000"
 preserveAspectRatio="xMidYMid meet">
<metadata>
Created by potrace 1.16, written by Peter Selinger 2001-2019
</metadata>
<g transform="translate(0.000000,253.000000) scale(0.100000,-0.100000)"
fill="#000000" stroke="none">
<path d="M0 1265 l0 -1265 2250 0 2250 0 0 1265 0 1265 -2250 0 -2250 0 0
-1265z m2613 668 c7 -4 14 -8 17 -8 54 -8 90 -19 90 -26 0 -5 3 -8 8 -8 21 4
42 -3 56 -17 9 -8 16 -12 16 -7 0 4 4 2 9 -5 4 -7 18 -14 29 -15 12 -1 22 -5
22 -9 0 -4 6 -8 13 -8 7 0 23 -9 35 -20 12 -11 26 -20 32 -20 6 0 8 -4 5 -10
-3 -5 -2 -10 3 -10 17 0 20 -49 5 -70 -8 -11 -27 -27 -44 -35 -25 -14 -29 -14
-29 -1 0 8 -5 18 -12 22 -7 5 -9 2 -5 -9 4 -12 1 -15 -14 -12 -16 3 -19 0 -13
-17 5 -18 4 -19 -8 -8 -11 11 -12 19 -4 36 10 20 12 21 18 6 5 -14 7 -14 8 -2
2 8 2 22 1 30 0 11 1 11 5 2 5 -10 11 -9 28 5 21 18 21 18 4 -2 -15 -18 -15
-21 0 -35 14 -13 15 -12 10 2 -9 22 2 30 20 15 13 -11 14 -9 2 13 -12 23 -12
24 3 11 10 -7 17 -12 18 -10 6 31 6 38 -2 34 -4 -3 -19 1 -33 10 -17 11 -26
13 -31 5 -5 -8 -11 -8 -19 -1 -7 6 -16 8 -20 4 -4 -4 -11 -1 -16 7 -8 13 -10
13 -10 1 0 -11 -4 -10 -16 5 -15 19 -16 19 -9 -1 6 -20 6 -20 -13 0 -11 11
-17 24 -14 29 3 5 0 6 -6 2 -6 -3 -9 -15 -7 -27 4 -20 4 -20 -24 0 -15 11 -34
27 -41 36 -17 20 -30 19 -30 -2 0 -15 2 -16 10 -3 8 13 10 12 10 -3 0 -10 5
-15 10 -12 6 3 10 2 10 -3 0 -6 -34 -9 -79 -9 -59 2 -77 5 -74 15 4 9 -1 10
-18 4 -36 -12 -99 1 -99 20 0 28 92 70 105 48 3 -5 12 -7 20 -4 11 5 12 9 2
19 -7 7 -16 10 -22 7 -5 -3 -4 1 3 10 14 17 1 35 -17 23 -5 -3 -12 -1 -15 4
-3 5 -27 8 -52 6 -31 -2 -42 0 -33 7 15 10 183 3 202 -9z m-228 -3 c3 -5 2
-10 -4 -10 -5 0 -13 5 -16 10 -3 6 -2 10 4 10 5 0 13 -4 16 -10z m-55 -21
l-25 -20 31 15 c26 12 35 13 49 2 28 -20 14 -46 -52 -100 -45 -38 -60 -56 -56
-70 3 -10 -1 -22 -8 -27 -24 -15 -33 -10 -15 10 14 15 15 21 4 27 -7 4 -10 4
-6 -1 5 -5 -1 -13 -11 -19 -10 -6 -29 -17 -41 -24 -18 -12 -22 -12 -18 -1 4
13 -89 60 -124 62 -9 1 -14 5 -12 9 10 15 114 59 136 58 50 -4 68 0 69 18 0
14 2 14 9 -3 8 -19 9 -19 9 3 1 12 8 25 16 28 8 4 15 12 15 20 0 13 27 33 45
33 6 1 -1 -9 -15 -20z m-107 -6 c-7 -2 -19 -2 -25 0 -7 3 -2 5 12 5 14 0 19
-2 13 -5z m-137 -16 c4 -4 -7 -7 -25 -7 -48 0 -33 -24 17 -28 52 -4 53 -15 4
-34 -37 -15 -89 -10 -63 6 19 12 -5 34 -45 42 -51 9 -41 23 19 26 69 4 85 3
93 -5z m108 -15 c3 -5 -1 -9 -9 -9 -8 0 -12 4 -9 9 3 4 7 8 9 8 2 0 6 -4 9 -8z
m46 4 c0 -2 -7 -6 -15 -10 -8 -3 -15 -1 -15 4 0 6 7 10 15 10 8 0 15 -2 15 -4z
m-407 -13 c-29 -11 -11 -24 25 -17 35 6 36 5 17 -9 -11 -8 -24 -13 -30 -10 -5
2 -2 -2 8 -10 17 -15 23 -28 10 -25 -13 2 -64 -14 -59 -19 2 -2 -18 -26 -45
-53 -50 -50 -64 -78 -31 -65 13 5 14 3 5 -6 -6 -6 -23 -11 -37 -11 -19 0 -26
-6 -26 -20 0 -10 -4 -17 -9 -14 -5 4 -7 -3 -4 -14 3 -11 0 -20 -6 -20 -6 0
-11 -6 -11 -14 0 -8 -12 -24 -26 -35 -19 -15 -22 -21 -11 -21 9 0 32 16 51 35
40 39 84 52 50 14 -19 -21 -19 -21 0 -18 10 2 21 -2 23 -8 3 -9 -7 -13 -30
-13 -23 0 -37 -6 -41 -16 -10 -26 4 -35 27 -19 31 22 39 19 33 -12 -2 -16 -7
-45 -11 -66 -3 -21 -10 -35 -16 -32 -5 4 -6 11 -3 17 5 7 2 8 -7 3 -7 -5 -26
-10 -43 -12 -16 -2 -36 -9 -45 -16 -14 -11 -15 -10 -1 7 14 18 13 19 -5 12
-16 -6 -18 -5 -7 5 14 15 16 33 3 25 -5 -4 -7 3 -4 14 3 12 0 20 -6 20 -13 0
-8 53 10 123 27 102 189 308 241 306 13 0 17 -3 11 -6z m627 -87 c0 -8 -11
-16 -25 -18 -14 -3 -25 -1 -25 3 0 5 7 9 15 9 8 0 15 7 15 16 0 8 5 12 10 9 6
-3 10 -12 10 -19z m70 -15 c0 -12 -20 -25 -27 -18 -7 7 6 27 18 27 5 0 9 -4 9
-9z m-393 -85 c0 -8 -6 -12 -15 -9 -11 5 -11 7 0 14 7 5 13 9 14 9 0 0 1 -6 1
-14z m-58 -47 c-16 -10 -23 -4 -14 10 3 6 11 8 17 5 6 -4 5 -9 -3 -15z m652
-32 c-10 -9 -11 -8 -5 6 3 10 9 15 12 12 3 -3 0 -11 -7 -18z m-31 -17 c0 -4
-8 -7 -17 -6 -10 2 -23 -4 -29 -12 -9 -12 -13 -12 -19 -2 -5 8 -4 11 2 7 6 -4
14 0 17 9 3 8 10 12 16 9 5 -3 10 -1 10 5 0 6 5 8 10 5 6 -3 10 -10 10 -15z
m-993 -432 c-3 -8 -6 -5 -6 6 -1 11 2 17 5 13 3 -3 4 -12 1 -19z m0 -40 c-3
-8 -6 -5 -6 6 -1 11 2 17 5 13 3 -3 4 -12 1 -19z m30 -530 c-3 -8 -6 -5 -6 6
-1 11 2 17 5 13 3 -3 4 -12 1 -19z"/>
<path d="M2593 1901 c1 -15 4 -17 14 -9 7 5 10 14 7 19 -10 16 -23 9 -21 -10z"/>
<path d="M2633 1873 c-7 -2 -13 -9 -13 -15 0 -7 5 -7 13 1 8 6 18 7 22 3 5 -4
5 -1 1 6 -4 6 -8 12 -9 11 -1 0 -8 -3 -14 -6z"/>
<path d="M2509 1847 c6 -8 7 -18 3 -22 -4 -5 -1 -5 6 -1 10 6 10 11 1 22 -6 8
-14 14 -16 14 -3 0 0 -6 6 -13z"/>
<path d="M2600 1817 c0 -2 6 -10 14 -16 11 -9 16 -9 22 1 4 7 4 10 -1 6 -4 -4
-14 -3 -22 3 -7 6 -13 9 -13 6z"/>
<path d="M2911 1773 c7 -12 15 -20 18 -17 3 2 -3 12 -13 22 -17 16 -18 16 -5
-5z"/>
</g>
</svg>
