<?xml version="1.0" standalone="no"?>
<!DOCTYPE svg PUBLIC "-//W3C//DTD SVG 20010904//EN"
 "http://www.w3.org/TR/2001/REC-SVG-20010904/DTD/svg10.dtd">
<svg version="1.0" xmlns="http://www.w3.org/2000/svg"
 width="450.000000pt" height="253.000000pt" viewBox="0 0 450.000000 253.000000"
 preserveAspectRatio="xMidYMid meet">
<metadata>
Created by potrace 1.16, written by Peter Selinger 2001-2019
</metadata>
<g transform="translate(0.000000,253.000000) scale(0.100000,-0.100000)"
fill="#000000" stroke="none">
<path d="M0 1265 l0 -1265 2250 0 2250 0 0 1265 0 1265 -831 0 -832 0 47 -25
c75 -40 114 -75 159 -145 34 -54 97 -171 102 -190 0 -3 11 -21 23 -40 12 -19
22 -38 22 -42 0 -5 11 -8 25 -8 15 0 39 -7 54 -14 15 -8 48 -20 73 -26 43 -11
47 -10 71 14 14 13 23 26 22 28 -2 2 29 2 68 1 62 -2 84 -9 164 -48 51 -25 98
-45 103 -45 15 0 90 -71 90 -85 0 -7 7 -18 15 -25 8 -7 12 -17 8 -24 -4 -6 -6
-21 -5 -33 5 -33 -24 -86 -71 -131 -23 -23 -62 -62 -87 -87 -57 -59 -107 -87
-197 -114 -40 -12 -75 -25 -77 -30 -3 -5 10 -39 29 -77 66 -131 67 -327 2
-395 -39 -41 -82 -74 -91 -71 -5 2 -16 -4 -26 -13 -20 -18 -74 -19 -180 -3
-96 14 -260 51 -260 59 0 4 -12 10 -27 14 -16 3 -39 14 -52 24 -25 19 -25 19
-51 -8 -14 -14 -36 -34 -48 -43 -15 -12 -22 -29 -22 -52 0 -53 -65 -126 -147
-167 -38 -19 -70 -37 -71 -42 -2 -4 -7 -5 -10 -3 -4 2 -34 0 -67 -4 -85 -10
-119 15 -193 141 -78 132 -88 196 -42 271 11 18 20 45 20 59 0 26 -2 27 -37
19 -64 -15 -267 8 -378 43 -92 29 -187 79 -202 109 -7 12 -13 36 -13 51 0 56
84 206 149 266 46 42 155 128 179 140 26 14 28 28 5 35 -10 4 -46 33 -81 66
-88 84 -137 186 -136 285 0 48 4 69 12 68 6 -2 28 6 47 17 20 11 43 20 51 20
8 0 25 5 37 11 26 14 61 18 192 19 105 1 114 0 157 -18 33 -13 136 -24 160
-16 10 3 18 12 18 20 0 8 11 32 25 54 14 22 25 43 25 48 0 11 112 122 122 122
4 0 8 5 8 10 0 7 -432 10 -1275 10 l-1275 0 0 -1265z m3031 1181 c-6 -7 -8
-16 -4 -19 3 -4 4 -7 1 -7 -3 0 -11 7 -18 16 -11 12 -11 15 1 12 8 -2 13 3 11
10 -1 8 2 11 8 7 8 -5 8 -11 1 -19z m-544 -1968 c-3 -8 -6 -5 -6 6 -1 11 2 17
5 13 3 -3 4 -12 1 -19z"/>
<path d="M2876 1961 c-4 -7 -5 -15 -2 -18 9 -9 19 4 14 18 -4 11 -6 11 -12 0z"/>
<path d="M2845 1920 c-3 -6 -3 -15 1 -22 10 -16 11 -108 2 -108 -5 0 -8 -4 -8
-8 0 -13 60 -1 62 12 5 41 4 66 -4 66 -5 0 -8 14 -6 31 2 27 -1 33 -19 35 -12
2 -25 -1 -28 -6z"/>
<path d="M3040 1901 c0 -7 -4 -10 -8 -7 -13 8 -35 -11 -27 -23 4 -8 11 -9 18
-3 7 5 20 8 30 7 15 -3 16 -1 5 13 -7 9 -14 19 -15 21 -2 2 -3 -1 -3 -8z"/>
<path d="M3095 1881 c-19 -8 -19 -8 4 -20 12 -7 25 -10 29 -7 3 3 -1 6 -8 6
-9 0 -7 5 6 15 21 16 4 20 -31 6z"/>
<path d="M3043 1854 c4 -7 -7 -18 -28 -28 -19 -9 -35 -21 -35 -27 0 -6 5 -7
12 -3 7 4 8 3 4 -4 -4 -7 -17 -12 -30 -12 -29 0 -35 -6 -29 -30 6 -23 35 -34
64 -25 15 5 17 10 9 20 -9 10 -4 15 20 20 17 4 34 4 38 0 11 -10 -14 -40 -37
-43 -25 -4 -44 -34 -35 -56 4 -11 -3 -19 -22 -26 -41 -16 -68 -17 -70 -2 -1 6
-2 17 -3 22 0 6 -7 10 -14 10 -7 0 -24 12 -36 26 -27 32 -34 26 -41 -34 l-5
-47 -37 2 c-21 1 -38 -3 -38 -8 0 -5 -12 -4 -26 2 -39 14 -41 3 -3 -20 30 -18
39 -36 40 -83 0 -9 7 -19 15 -22 24 -9 8 -23 -36 -30 -34 -5 -40 -10 -40 -30
0 -19 -4 -22 -25 -19 -41 8 -49 28 -21 51 26 20 25 32 -3 32 -9 0 -27 6 -41
13 -27 14 -60 11 -60 -5 0 -6 10 -8 25 -4 18 5 23 3 19 -8 -3 -7 -20 -17 -37
-20 -31 -7 -31 -8 -13 -21 11 -8 27 -15 37 -15 20 0 31 -24 18 -37 -6 -6 -2
-16 11 -28 21 -19 28 -79 10 -90 -6 -3 -19 -24 -29 -45 -18 -37 -18 -38 0 -43
18 -5 25 9 20 37 -1 4 9 6 23 2 22 -5 25 -3 28 26 2 19 9 33 16 33 14 0 33 25
27 35 -2 4 2 7 10 7 8 0 11 -5 8 -11 -4 -6 0 -5 9 1 8 7 17 11 20 8 3 -3 11 1
18 10 7 8 20 15 29 16 11 0 8 3 -7 9 l-23 10 46 84 c25 46 45 92 45 101 0 14
9 16 57 13 76 -5 130 23 149 78 7 21 10 42 7 47 -3 6 -1 7 4 4 6 -4 14 1 18
11 10 21 12 82 4 82 -11 0 -17 38 -8 49 5 6 6 9 3 6 -4 -3 -14 1 -22 8 -10 7
-13 8 -9 1z m-193 -254 c0 -5 -4 -10 -9 -10 -6 0 -13 5 -16 10 -3 6 1 10 9 10
9 0 16 -4 16 -10z"/>
<path d="M2641 1798 c-29 -6 -40 -13 -31 -18 14 -8 7 -40 -8 -40 -5 0 -25 11
-44 24 -22 15 -40 21 -49 16 -9 -6 -6 -12 14 -21 22 -10 27 -19 28 -48 0 -34
1 -34 10 -12 9 22 11 23 25 9 13 -12 14 -20 5 -37 -10 -17 -9 -20 4 -15 13 5
15 2 9 -20 -9 -37 22 -35 44 4 9 17 22 28 29 25 7 -2 15 1 19 7 4 7 3 8 -4 4
-7 -4 -12 -3 -12 1 0 5 -10 13 -22 18 -13 6 -23 19 -23 30 0 16 7 20 35 20 27
0 38 6 47 24 23 41 7 48 -76 29z"/>
<path d="M1921 1744 c-44 -20 -63 -38 -50 -51 16 -16 -17 -38 -35 -24 -17 14
-70 -24 -59 -42 4 -7 8 -20 9 -29 1 -10 2 -25 3 -33 1 -18 31 -20 31 -2 0 9 2
9 9 -1 4 -8 12 -13 17 -13 5 1 9 -6 9 -15 0 -9 -16 -21 -39 -29 -50 -17 -57
-30 -39 -67 14 -26 13 -31 -3 -49 -9 -10 -24 -19 -32 -19 -10 0 -13 -7 -9 -21
4 -17 3 -18 -9 -8 -12 10 -13 9 -8 -4 8 -23 121 -20 134 2 8 14 9 14 10 -2 0
-18 2 -17 33 2 19 11 38 17 42 13 5 -4 5 -1 1 6 -4 7 -11 10 -16 7 -5 -3 -11
-1 -14 3 -3 5 17 19 44 32 53 25 68 51 25 42 -18 -3 -25 0 -25 11 0 8 6 18 13
21 8 4 7 5 -3 5 -42 -3 -44 2 -10 33 26 25 30 34 18 36 -9 2 -19 14 -22 28 -4
13 -10 24 -15 24 -21 0 3 125 25 134 14 6 20 27 7 25 -5 0 -23 -7 -42 -15z
m-97 -370 c6 2 7 1 2 -2 -4 -2 -2 -8 5 -13 12 -7 11 -9 -1 -9 -13 0 -13 -1 0
-10 13 -8 12 -10 -3 -10 -11 0 -17 5 -14 13 2 6 -3 21 -12 32 -8 11 -9 15 -2
8 7 -6 19 -10 25 -9z m-26 -29 c-3 -3 -9 2 -12 12 -6 14 -5 15 5 6 7 -7 10
-15 7 -18z"/>
<path d="M2840 1750 c0 -10 19 -24 38 -26 6 -1 12 4 12 12 0 8 -3 14 -7 15 -5
0 -16 2 -25 4 -10 2 -18 -1 -18 -5z"/>
<path d="M2433 1653 c-18 -7 -16 -20 2 -20 8 0 15 6 15 14 0 7 -1 13 -2 12 -2
0 -9 -3 -15 -6z"/>
<path d="M2556 1586 c3 -8 1 -17 -5 -21 -16 -9 -14 -25 3 -25 19 0 35 22 27
40 -8 19 -32 25 -25 6z"/>
<path d="M2623 1574 c-8 -20 8 -36 26 -25 15 10 8 41 -9 41 -6 0 -13 -7 -17
-16z"/>
<path d="M2025 1560 c-3 -6 1 -7 9 -4 18 7 21 14 7 14 -6 0 -13 -4 -16 -10z"/>
<path d="M2342 1531 c-18 -3 -33 -9 -32 -13 0 -5 0 -12 0 -16 0 -4 11 -8 25
-8 14 0 25 6 25 13 0 6 8 17 18 22 19 11 14 12 -36 2z"/>
<path d="M2967 1483 c-4 -3 -20 -6 -37 -5 -25 1 -31 -4 -35 -26 -3 -15 -10
-43 -15 -61 -5 -19 -8 -36 -6 -38 1 -2 19 8 39 21 32 22 37 23 56 10 13 -10
21 -11 21 -4 0 6 6 8 13 4 6 -4 3 2 -7 14 -12 14 -14 22 -7 22 7 0 9 4 6 10
-3 5 -8 20 -10 31 -5 26 -9 31 -18 22z"/>
<path d="M2327 1463 c-13 -3 -17 -11 -13 -26 3 -11 1 -28 -4 -38 -7 -13 -5
-18 10 -22 13 -3 18 -1 13 5 -4 7 -1 8 8 3 7 -5 21 -10 30 -10 16 -1 70 -35
56 -35 -5 0 4 -11 19 -25 14 -13 31 -22 36 -19 11 7 -41 70 -63 77 -12 3 -15
12 -12 33 3 16 10 34 15 40 14 19 -47 30 -95 17z"/>
<path d="M2440 1440 c-6 -12 -9 -24 -7 -27 9 -8 48 18 44 30 -6 20 -25 19 -37
-3z"/>
<path d="M2811 1423 c1 -4 1 -10 -1 -13 -1 -3 -3 -16 -5 -30 -3 -22 1 -26 27
-28 l30 -2 -21 26 c-11 14 -18 30 -16 34 3 5 1 12 -5 15 -6 4 -10 3 -9 -2z"/>
<path d="M2475 1370 c3 -5 15 -10 26 -10 11 0 17 5 14 10 -3 6 -15 10 -26 10
-11 0 -17 -4 -14 -10z"/>
<path d="M2883 1294 c-14 -6 0 -54 19 -65 29 -18 74 23 62 55 -6 15 -53 21
-81 10z"/>
<path d="M2582 1153 c2 -9 11 -17 21 -19 18 -2 18 -2 1 17 -21 23 -26 24 -22
2z"/>
</g>
</svg>
