<?xml version="1.0" standalone="no"?>
<!DOCTYPE svg PUBLIC "-//W3C//DTD SVG 20010904//EN"
 "http://www.w3.org/TR/2001/REC-SVG-20010904/DTD/svg10.dtd">
<svg version="1.0" xmlns="http://www.w3.org/2000/svg"
 width="450.000000pt" height="253.000000pt" viewBox="0 0 450.000000 253.000000"
 preserveAspectRatio="xMidYMid meet">
<metadata>
Created by potrace 1.16, written by Peter Selinger 2001-2019
</metadata>
<g transform="translate(0.000000,253.000000) scale(0.100000,-0.100000)"
fill="#000000" stroke="none">
<path d="M0 1265 l0 -1265 2250 0 2250 0 0 1265 0 1265 -2250 0 -2250 0 0
-1265z m3116 730 c103 -18 255 -60 296 -81 56 -29 107 -84 114 -122 4 -21 18
-52 33 -70 14 -19 33 -47 42 -64 14 -28 14 -32 -10 -80 -13 -27 -32 -55 -42
-61 -17 -10 -16 -13 2 -48 10 -20 21 -55 25 -77 5 -32 2 -44 -15 -61 -12 -12
-20 -24 -19 -28 1 -5 -17 -21 -41 -37 -33 -22 -61 -31 -124 -38 -121 -14 -119
-13 -158 -27 -79 -26 -159 -17 -159 19 0 6 -4 9 -9 5 -5 -3 -12 -1 -16 5 -3 5
1 10 9 10 8 0 18 -5 21 -10 4 -6 12 -4 22 6 12 11 26 14 51 9 29 -5 32 -4 20
8 -7 8 -16 13 -20 10 -5 -2 -8 -2 -8 1 0 3 21 14 47 26 44 19 50 31 18 36 -8
1 -15 -5 -15 -14 0 -14 -2 -15 -9 -2 -6 8 -7 18 -4 24 3 5 1 6 -5 2 -19 -11
-14 9 9 38 13 17 16 26 7 24 -7 -2 -19 -12 -26 -23 -12 -19 -13 -19 -7 2 6 21
3 22 -32 18 -104 -12 -140 -41 -59 -47 14 -1 26 -6 26 -11 0 -5 8 -7 18 -5 11
3 19 0 19 -8 0 -7 -3 -12 -6 -11 -3 0 -28 -9 -56 -22 -44 -20 -57 -22 -112
-14 -35 5 -63 6 -63 2 0 -10 -80 11 -136 37 -29 13 -64 38 -78 56 -15 18 -31
39 -38 47 -15 18 -18 71 -4 68 14 -3 15 23 2 48 -6 11 -9 23 -8 28 1 4 -2 7
-8 7 -5 0 -10 7 -10 16 0 9 -5 12 -12 8 -10 -5 -10 -4 -2 5 6 7 9 36 7 69 -2
32 1 70 8 87 7 17 11 36 10 44 -1 7 2 10 8 6 6 -3 11 -1 11 4 0 6 -5 11 -11
11 -5 0 -7 5 -4 10 4 6 10 8 14 6 4 -3 8 4 8 15 2 19 -11 26 -21 11 -3 -5 -51
-17 -108 -27 -106 -20 -138 -37 -138 -75 0 -19 -44 -40 -56 -27 -4 3 -17 2
-30 -3 -19 -8 -24 -6 -24 7 0 21 -53 70 -58 54 -2 -7 1 -18 7 -24 15 -15 14
-50 -1 -44 -7 2 -14 9 -14 15 -1 7 -2 16 -3 21 -1 9 -59 71 -66 71 -8 0 13
-38 25 -45 14 -9 12 -58 -2 -74 -9 -10 -10 -12 -1 -7 7 4 17 -2 23 -13 6 -12
16 -18 25 -15 10 4 13 0 10 -16 -6 -31 -8 -32 -41 -19 -16 7 -36 13 -44 13 -8
1 -14 6 -13 12 1 7 -8 9 -22 6 -14 -2 -32 -1 -42 2 -15 6 -13 10 12 31 22 17
34 20 43 13 8 -7 12 -7 12 1 0 6 6 11 13 11 20 0 15 43 -8 62 -14 11 -24 13
-32 6 -9 -8 -15 -4 -22 13 -10 28 2 58 27 65 9 3 26 11 37 17 31 18 301 23
322 5 13 -10 17 -10 20 -1 3 9 17 11 41 8 20 -3 51 -7 67 -9 17 -1 40 -8 52
-14 28 -16 33 -15 33 3 0 22 36 41 136 75 165 55 190 57 320 35z m-1052 -373
c38 12 90 3 81 -13 -4 -5 -14 -9 -23 -8 -10 2 -27 -1 -40 -5 -19 -6 -21 -10
-11 -22 6 -8 22 -14 35 -14 13 0 24 -4 24 -9 0 -10 -34 -21 -70 -21 -16 0 -21
-3 -13 -8 10 -6 10 -12 -2 -28 -18 -24 -19 -40 -2 -25 11 8 14 4 14 -24 0 -20
-4 -32 -10 -28 -6 4 -8 -3 -5 -15 4 -12 2 -20 -2 -17 -5 3 -20 -9 -35 -27 -15
-18 -24 -28 -21 -21 4 6 2 14 -3 17 -9 6 -8 35 4 156 7 70 35 148 42 119 3
-14 9 -15 37 -7z m38 -202 c-2 -16 -8 -27 -13 -24 -5 3 -8 8 -6 12 2 4 7 15
10 25 10 26 14 20 9 -13z m1036 -85 c-3 -3 -9 2 -12 12 -6 14 -5 15 5 6 7 -7
10 -15 7 -18z"/>
<path d="M2136 1883 c5 -5 12 -12 16 -18 4 -6 8 -2 8 8 0 9 -7 17 -17 17 -9 0
-12 -3 -7 -7z"/>
<path d="M3316 1735 c4 -9 13 -14 22 -10 12 4 12 3 3 -9 -9 -11 -8 -15 4 -20
10 -3 13 -11 9 -18 -4 -7 -4 -10 1 -6 4 4 14 3 22 -4 8 -6 13 -7 12 -2 -1 5 0
11 1 14 7 18 7 39 0 35 -5 -3 -10 0 -12 6 -2 7 -13 13 -24 13 -11 1 -25 5 -32
9 -8 6 -10 3 -6 -8z m68 -47 c-3 -5 -12 -4 -20 3 -7 6 -11 15 -8 21 3 5 12 4
20 -3 7 -6 11 -15 8 -21z"/>
<path d="M3295 1609 c-24 -15 -29 -25 -27 -46 2 -16 9 -34 14 -40 6 -7 7 -13
4 -13 -4 0 -3 -8 3 -17 5 -11 5 -26 0 -41 -7 -18 -5 -31 5 -47 17 -26 47 -28
54 -3 2 10 8 18 11 18 4 0 7 10 5 23 -1 12 -3 22 -4 22 -1 0 -3 8 -5 18 -2 10
1 14 8 10 7 -4 8 0 3 13 -5 10 -9 24 -9 31 0 7 -5 9 -10 6 -6 -4 -8 0 -4 10 3
9 -1 24 -11 33 -19 20 -19 23 0 35 7 5 9 8 3 8 -5 0 -23 -9 -40 -20z m40 -38
c3 -5 2 -12 -3 -15 -5 -3 -9 1 -9 9 0 17 3 19 12 6z m-22 -126 c-3 -9 -8 -14
-10 -11 -3 3 -2 9 2 15 9 16 15 13 8 -4z m24 -40 c4 -4 3 -5 -4 -2 -6 4 -13 2
-15 -5 -3 -8 -6 -6 -10 4 -7 17 15 19 29 3z"/>
<path d="M3371 1486 c-8 -10 -9 -16 -1 -21 6 -3 8 -10 5 -15 -3 -5 0 -12 6
-16 7 -4 9 -3 5 4 -3 6 -2 14 4 17 8 5 8 11 1 19 -6 7 -8 16 -4 19 3 4 4 7 1
7 -3 0 -11 -6 -17 -14z"/>
</g>
</svg>
