<?xml version="1.0" standalone="no"?>
<!DOCTYPE svg PUBLIC "-//W3C//DTD SVG 20010904//EN"
 "http://www.w3.org/TR/2001/REC-SVG-20010904/DTD/svg10.dtd">
<svg version="1.0" xmlns="http://www.w3.org/2000/svg"
 width="450.000000pt" height="253.000000pt" viewBox="0 0 450.000000 253.000000"
 preserveAspectRatio="xMidYMid meet">
<metadata>
Created by potrace 1.16, written by Peter Selinger 2001-2019
</metadata>
<g transform="translate(0.000000,253.000000) scale(0.100000,-0.100000)"
fill="#000000" stroke="none">
<path d="M0 1265 l0 -1265 2250 0 2250 0 0 1265 0 1265 -782 0 -782 0 32 -24
c96 -71 128 -140 153 -336 5 -41 7 -80 5 -86 -6 -15 47 -37 89 -38 18 -1 31
-4 28 -8 -11 -20 16 -5 29 14 14 20 25 23 100 26 76 4 93 1 159 -26 150 -60
218 -106 254 -169 13 -24 20 -43 15 -43 -4 0 -6 -17 -3 -39 8 -56 -15 -94
-119 -200 -110 -112 -139 -131 -241 -161 -43 -13 -80 -26 -82 -31 -3 -4 11
-21 31 -38 45 -40 78 -114 99 -226 25 -135 23 -162 -14 -197 -17 -16 -31 -34
-31 -39 0 -6 -4 -8 -9 -5 -5 3 -19 -2 -32 -12 -54 -41 -252 -62 -401 -43 -100
13 -198 40 -264 73 -69 33 -80 23 -92 -85 l-11 -92 4 87 c4 84 -8 126 -20 75
-4 -13 -22 -38 -41 -56 -19 -19 -34 -42 -34 -55 0 -31 -105 -138 -173 -175
-72 -40 -160 -65 -205 -56 -111 21 -157 70 -212 227 -31 89 -32 98 -26 191 7
93 6 97 -14 97 -24 0 -26 18 -3 35 14 11 6 14 -55 25 -39 6 -73 11 -74 11 -8
-3 -148 49 -186 69 -56 30 -142 113 -142 138 0 11 -7 23 -16 26 -10 4 -14 12
-10 22 3 8 -1 28 -9 44 -23 44 -18 81 16 136 44 70 74 100 154 152 39 25 72
47 74 48 2 2 -25 35 -60 72 -85 91 -94 102 -124 167 -45 100 -56 179 -30 229
8 15 15 34 15 41 0 7 31 22 69 35 93 30 275 33 376 6 39 -10 75 -23 82 -28 7
-5 58 -10 115 -10 l103 -1 76 75 c47 46 105 92 150 117 l74 41 -1252 0 -1253
0 0 -1265z m2617 -752 c-3 -10 -5 -4 -5 12 0 17 2 24 5 18 2 -7 2 -21 0 -30z"/>
<path d="M2300 2020 c0 -10 19 -24 37 -26 6 -1 9 4 7 11 -6 15 -44 28 -44 15z"/>
<path d="M2246 2012 c-3 -5 1 -9 9 -9 8 0 12 4 9 9 -3 4 -7 8 -9 8 -2 0 -6 -4
-9 -8z"/>
<path d="M2396 1998 c3 -5 10 -6 15 -3 13 9 11 12 -6 12 -8 0 -12 -4 -9 -9z"/>
<path d="M2417 1762 c-22 -24 -33 -108 -15 -119 7 -4 19 -20 25 -35 8 -18 24
-30 45 -36 18 -4 34 -16 36 -25 2 -11 -1 -15 -10 -12 -10 4 -13 -8 -15 -45 0
-27 3 -48 7 -45 5 3 27 6 49 7 23 1 41 6 41 11 0 5 9 7 20 4 23 -6 24 -3 8 23
-10 16 -10 24 0 40 6 11 12 22 12 24 0 4 -47 17 -67 18 -32 2 -133 103 -133
132 0 10 4 15 9 12 7 -5 31 42 31 60 0 11 -29 1 -43 -14z"/>
<path d="M2199 1656 c20 -21 51 -26 51 -9 0 3 -6 3 -13 0 -7 -3 -19 4 -25 14
-7 10 -17 19 -24 19 -6 0 -1 -11 11 -24z"/>
<path d="M1761 1654 c-38 -16 -39 -35 -6 -60 29 -22 32 -39 9 -52 -25 -14 -7
-32 32 -32 31 0 39 8 35 33 0 4 3 7 8 7 10 0 5 75 -5 92 -5 7 -2 8 6 3 8 -5
11 -4 7 2 -11 17 -53 21 -86 7z"/>
<path d="M2710 1659 c0 -5 -4 -8 -9 -5 -14 9 -59 -53 -54 -74 4 -16 9 -17 28
-8 13 6 28 23 33 37 6 14 13 34 17 44 4 10 3 17 -4 17 -6 0 -11 -5 -11 -11z"/>
<path d="M2395 1549 c2 -11 1 -17 -4 -15 -4 3 -20 -6 -37 -19 l-29 -23 41 3
c42 3 84 20 84 33 0 4 -13 14 -29 24 -28 16 -29 15 -26 -3z"/>
<path d="M1495 1549 c-3 -4 2 -6 10 -5 21 3 28 13 10 13 -9 0 -18 -4 -20 -8z"/>
<path d="M2329 1558 c-6 -26 -4 -35 7 -35 16 0 19 23 4 32 -5 3 -10 5 -11 3z"/>
<path d="M1470 1526 c0 -2 8 -10 18 -17 15 -13 16 -12 3 4 -13 16 -21 21 -21
13z"/>
<path d="M2131 1425 c-43 -22 -43 -22 -17 -27 20 -4 31 0 39 13 7 11 17 19 24
19 7 0 13 5 13 10 0 13 -7 11 -59 -15z"/>
<path d="M2353 1429 c-37 -23 -41 -34 -17 -43 21 -8 49 -8 41 0 -3 4 3 14 15
24 12 9 18 22 14 28 -10 16 -16 15 -53 -9z"/>
<path d="M1920 1416 c0 -8 -12 -24 -27 -36 -22 -17 -25 -23 -13 -30 11 -7 17
-4 22 11 4 11 12 17 18 14 5 -3 10 -3 11 2 0 4 2 18 5 31 2 12 -1 22 -6 22 -6
0 -10 -6 -10 -14z"/>
<path d="M1956 1412 c-3 -5 1 -9 9 -9 8 0 12 4 9 9 -3 4 -7 8 -9 8 -2 0 -6 -4
-9 -8z"/>
<path d="M2230 1370 c0 -5 5 -10 11 -10 5 0 7 5 4 10 -3 6 -8 10 -11 10 -2 0
-4 -4 -4 -10z"/>
<path d="M2576 1341 c-3 -5 1 -11 9 -15 8 -3 15 -1 15 4 0 13 -18 22 -24 11z"/>
<path d="M2342 1333 c-7 -3 -19 -18 -28 -35 -9 -17 -11 -27 -6 -24 6 4 13 2
16 -3 4 -5 14 -8 24 -6 9 2 25 4 35 4 23 1 22 33 -1 54 -20 18 -20 18 -40 10z"/>
<path d="M2570 1309 c0 -5 -4 -8 -9 -5 -5 3 -15 -2 -22 -12 -12 -15 -12 -15 1
-5 8 6 19 11 25 11 5 0 11 5 13 11 2 6 1 11 -2 11 -3 0 -6 -5 -6 -11z"/>
<path d="M2440 1280 c0 -5 7 -10 16 -10 8 0 12 5 9 10 -3 6 -10 10 -16 10 -5
0 -9 -4 -9 -10z"/>
<path d="M2260 1251 c0 -17 18 -21 24 -6 3 9 0 15 -9 15 -8 0 -15 -4 -15 -9z"/>
<path d="M2238 1187 c-14 -12 -34 -27 -44 -33 -14 -8 -15 -12 -4 -19 9 -6 11
-4 5 5 -6 9 -4 12 7 8 8 -4 21 2 28 12 8 11 18 16 24 13 6 -3 8 -3 4 2 -4 4
-3 14 3 22 17 20 7 16 -23 -10z"/>
<path d="M2606 1191 c-9 -14 2 -33 15 -26 5 3 6 -2 3 -12 -5 -17 -5 -17 6 1
10 14 9 21 -3 33 -10 10 -17 11 -21 4z"/>
<path d="M3309 1196 c0 -1 -2 -9 -4 -20 -2 -10 -8 -23 -14 -29 -19 -19 -12
-43 23 -80 30 -33 57 -43 64 -24 5 14 -20 97 -30 97 -5 0 -7 4 -3 9 3 5 0 13
-6 16 -5 4 -8 13 -6 19 4 9 -17 19 -24 12z"/>
<path d="M2490 1170 c0 -5 -6 -10 -14 -10 -20 0 -28 -28 -15 -52 7 -13 16 -17
27 -13 9 4 28 9 42 11 36 7 46 21 12 16 -29 -4 -52 20 -32 33 15 9 12 25 -5
25 -8 0 -15 -4 -15 -10z"/>
<path d="M2704 1156 c11 -9 24 -16 30 -16 12 0 7 5 -24 19 -24 11 -24 11 -6
-3z"/>
<path d="M2595 1150 c3 -5 8 -10 11 -10 2 0 4 5 4 10 0 6 -5 10 -11 10 -5 0
-7 -4 -4 -10z"/>
<path d="M1960 1100 c-13 -8 -12 -10 3 -10 9 0 17 5 17 10 0 12 -1 12 -20 0z"/>
<path d="M2220 1045 c-13 -16 -3 -20 24 -9 9 3 13 10 10 15 -8 13 -20 11 -34
-6z"/>
</g>
</svg>
