<?xml version="1.0" standalone="no"?>
<!DOCTYPE svg PUBLIC "-//W3C//DTD SVG 20010904//EN"
 "http://www.w3.org/TR/2001/REC-SVG-20010904/DTD/svg10.dtd">
<svg version="1.0" xmlns="http://www.w3.org/2000/svg"
 width="450.000000pt" height="253.000000pt" viewBox="0 0 450.000000 253.000000"
 preserveAspectRatio="xMidYMid meet">
<metadata>
Created by potrace 1.16, written by Peter Selinger 2001-2019
</metadata>
<g transform="translate(0.000000,253.000000) scale(0.100000,-0.100000)"
fill="#000000" stroke="none">
<path d="M0 1265 l0 -1265 2250 0 2250 0 0 1265 0 1265 -642 0 c-610 0 -640
-1 -626 -17 38 -44 60 -107 60 -172 1 -132 -12 -267 -27 -292 -4 -6 -1 -9 6
-8 16 3 108 -24 139 -41 14 -8 25 -8 29 -2 12 18 70 42 103 42 35 0 129 -39
154 -65 8 -8 38 -22 67 -32 60 -21 154 -107 139 -127 -5 -6 -12 -28 -16 -49
-7 -36 -72 -117 -95 -117 -5 0 -26 -16 -47 -36 -71 -64 -141 -104 -202 -115
-82 -15 -85 -18 -62 -63 17 -34 18 -42 6 -70 -12 -28 -11 -42 6 -107 23 -91
22 -184 -4 -241 -20 -44 -81 -108 -103 -108 -8 0 -15 -5 -17 -12 -3 -8 -19 -9
-64 -1 -110 20 -290 62 -317 74 -30 14 -45 7 -30 -13 35 -45 20 -62 -68 -78
-47 -9 -56 -8 -93 14 -23 13 -67 50 -98 83 -32 32 -77 75 -102 96 -25 22 -51
51 -58 67 -6 15 -26 34 -42 42 -21 9 -36 26 -46 53 -36 92 -93 156 -107 120
-5 -13 -7 -14 -14 -3 -7 10 -9 11 -9 0 0 -7 -4 -11 -9 -8 -16 10 -4 83 18 105
23 23 27 41 10 41 -5 0 -7 5 -4 10 4 6 11 7 17 4 7 -4 7 0 0 12 -6 11 -7 39
-3 66 6 37 4 51 -8 63 -11 11 -16 36 -17 83 0 37 -2 72 -4 77 -6 17 12 59 35
83 13 12 28 41 34 65 15 60 44 103 90 131 28 18 43 36 50 61 5 19 19 48 30 64
12 16 21 34 21 41 0 26 31 68 60 80 18 7 36 24 41 37 5 13 21 29 36 35 16 7
61 38 102 70 l74 58 -1447 0 -1446 0 0 -1265z m2390 -609 c-5 -13 -7 -27 -4
-30 2 -3 -1 -2 -7 3 -8 6 -8 15 0 30 16 28 23 27 11 -3z m-3 -111 c-1 -29 -4
-40 -9 -30 -5 8 -7 27 -4 42 5 34 5 33 10 33 3 0 4 -20 3 -45z m-2 -134 c3 -5
2 -12 -3 -15 -5 -3 -9 1 -9 9 0 17 3 19 12 6z m-5 -46 c0 -8 -4 -15 -10 -15
-5 0 -7 7 -4 15 4 8 8 15 10 15 2 0 4 -7 4 -15z"/>
<path d="M3115 2520 c-3 -5 -1 -10 4 -10 6 0 11 5 11 10 0 6 -2 10 -4 10 -3 0
-8 -4 -11 -10z"/>
<path d="M2697 1940 c-3 -11 -3 -20 -1 -20 2 0 8 9 14 20 6 11 7 20 2 20 -6 0
-12 -9 -15 -20z"/>
<path d="M2523 1898 c-18 -11 -33 -27 -33 -36 -1 -21 -25 -54 -33 -46 -6 7
-23 -74 -19 -88 1 -5 -2 -8 -8 -8 -6 0 -6 -9 0 -26 6 -14 10 -39 10 -55 0 -32
3 -34 30 -19 15 8 18 17 14 38 -4 22 2 35 30 64 20 20 36 42 36 48 0 6 11 15
24 21 26 12 41 45 25 55 -15 9 1 24 26 24 29 0 39 14 21 29 -24 20 -88 20
-123 -1z"/>
<path d="M2826 1895 c7 -17 22 -19 42 -6 11 7 10 10 -3 15 -29 11 -45 7 -39
-9z"/>
<path d="M3112 1898 c2 -8 -4 -12 -14 -10 -10 2 -18 -2 -18 -8 0 -13 27 -13
35 0 4 6 11 7 17 4 5 -4 -2 -14 -18 -25 -15 -10 -33 -15 -38 -12 -6 4 -5 -1 2
-10 11 -13 17 -14 33 -4 14 9 21 9 31 -1 9 -9 7 -12 -10 -12 -12 0 -31 -9 -43
-21 -11 -11 -28 -21 -38 -22 -17 -1 -16 -5 7 -39 13 -21 28 -38 32 -38 11 0 7
-54 -5 -62 -19 -14 -35 -8 -41 17 -6 24 -14 29 -40 26 -6 -1 -17 6 -24 14 -12
14 -16 10 -36 -31 l-23 -48 -11 27 c-5 15 -14 39 -20 53 -8 19 -7 23 3 18 9
-6 9 -5 0 8 -7 8 -11 17 -8 19 2 3 7 20 10 38 5 31 4 33 -17 27 -13 -4 -39 -9
-58 -11 -19 -2 -27 -2 -17 1 14 4 16 9 7 19 -8 10 -18 11 -35 5 -15 -6 -29 -4
-43 6 -20 13 -21 13 -18 -13 1 -20 7 -27 19 -25 9 2 17 -1 17 -6 0 -5 9 -12
20 -15 11 -3 20 -12 20 -20 0 -13 -5 -13 -36 2 -29 14 -41 16 -59 7 -27 -12
-15 -25 25 -26 14 0 39 -12 55 -26 27 -22 28 -26 13 -35 -10 -5 -18 -16 -18
-23 0 -7 -14 -31 -31 -52 l-31 -39 26 -3 c30 -4 26 -22 -5 -22 -17 0 -24 -11
-20 -34 1 -4 -3 -14 -9 -20 -13 -16 -3 -26 26 -26 13 0 24 -8 27 -20 4 -17 1
-19 -19 -16 -29 6 -29 6 -4 -37 16 -27 19 -44 14 -76 -7 -46 -34 -58 -34 -15
0 18 -12 38 -37 60 -33 30 -34 34 -15 34 12 0 26 10 33 23 9 18 9 20 -2 10
-29 -28 -72 -8 -44 20 23 23 18 33 -17 43 -18 6 -33 16 -33 24 0 7 26 29 58
47 50 30 56 36 47 53 -17 31 -31 34 -48 9 -9 -13 -17 -27 -17 -31 0 -3 -3 -10
-7 -14 -5 -4 -8 5 -8 19 0 16 8 30 20 37 22 12 28 50 8 50 -7 0 -24 9 -38 20
-21 16 -22 20 -7 20 10 0 15 5 12 10 -14 23 -75 -30 -75 -64 0 -13 -7 -29 -15
-36 -8 -7 -15 -25 -15 -41 0 -28 1 -29 48 -24 34 4 41 3 26 -4 -23 -10 -38
-37 -28 -52 3 -5 -4 -9 -15 -9 -26 0 -28 -16 -3 -23 11 -2 22 -15 25 -28 l6
-24 -17 21 c-21 26 -58 39 -67 24 -4 -7 22 -40 61 -79 38 -37 81 -82 96 -100
25 -30 26 -34 13 -55 -8 -12 -13 -25 -11 -27 3 -2 -13 -3 -35 -1 -23 3 -46 -1
-52 -7 -8 -8 -1 -11 27 -11 27 0 35 -3 30 -12 -6 -10 -4 -10 7 0 17 15 53 16
43 0 -4 -6 -3 -8 3 -5 6 4 16 0 23 -8 7 -8 9 -15 6 -15 -4 0 -1 -6 6 -13 7 -8
19 -14 26 -14 12 0 11 3 -2 12 -9 7 -16 14 -16 16 0 8 50 3 57 -6 5 -4 1 -4
-7 0 -8 5 -2 -4 13 -20 32 -33 58 -42 51 -17 -5 14 -4 14 6 0 14 -22 49 -23
56 -3 4 8 9 13 13 11 3 -2 14 2 24 9 15 11 16 13 2 19 -8 3 -15 10 -15 16 0 6
4 9 8 6 4 -2 14 -1 22 5 13 7 12 9 -2 9 -9 0 -19 6 -21 13 -4 9 -6 9 -6 -1 -1
-7 -5 -10 -11 -7 -5 3 -10 -1 -10 -9 0 -9 -9 -16 -21 -16 -11 0 -18 4 -14 9 5
10 -40 5 -57 -5 -4 -3 -8 1 -8 10 0 8 -9 35 -20 60 -10 25 -15 46 -10 46 6 0
10 -5 10 -11 0 -5 5 -7 10 -4 6 3 10 1 10 -6 0 -7 3 -9 7 -6 3 4 15 -1 25 -10
10 -9 29 -18 41 -20 12 -2 18 0 12 4 -5 5 -25 27 -43 50 -33 43 -33 43 -7 33
37 -14 44 -13 40 9 -3 15 1 19 15 16 13 -2 21 4 26 18 8 28 22 37 56 37 34 0
59 10 53 20 -9 15 20 5 52 -18 30 -21 30 -21 48 -2 10 11 20 18 23 15 10 -10
31 33 34 70 1 25 -3 40 -14 46 -10 5 -14 17 -11 29 4 14 -1 21 -21 26 -14 3
-26 10 -26 15 0 6 7 6 18 1 34 -17 77 -12 106 11 28 22 28 24 13 53 -8 16 -14
50 -13 79 1 28 -3 56 -9 64 -7 11 -7 13 2 8 6 -4 13 -2 15 4 5 14 38 0 38 -16
0 -15 25 -27 35 -17 4 4 11 8 16 8 30 4 31 7 9 13 -15 4 -28 3 -33 -3 -4 -6
-5 1 -3 16 5 32 -23 59 -54 51 -14 -4 -22 2 -30 21 -8 22 -15 26 -37 23 -16
-2 -36 0 -46 5 -12 6 -17 5 -15 -4z m144 -70 c3 -4 -1 -5 -10 -4 -8 1 -18 5
-22 8 -3 4 1 5 10 4 8 -1 18 -5 22 -8z m-396 -183 c14 -17 5 -36 -15 -28 -20
7 -19 -11 0 -27 10 -8 12 -17 6 -23 -5 -5 -17 -1 -31 13 -18 18 -19 24 -8 38
7 9 8 13 1 9 -7 -5 -9 0 -6 13 6 23 35 26 53 5z m155 -75 c3 -5 1 -10 -4 -10
-6 0 -11 5 -11 10 0 6 2 10 4 10 3 0 8 -4 11 -10z m-150 -28 c41 3 53 1 43 -6
-8 -6 -17 -19 -21 -28 -3 -10 -13 -18 -20 -18 -8 0 -26 -12 -40 -26 -16 -16
-25 -20 -23 -10 1 8 13 24 26 35 24 19 24 20 5 27 -27 9 -55 35 -55 48 0 6 7
3 14 -7 11 -15 25 -18 71 -15z m180 -22 c4 -6 11 -8 16 -5 11 7 11 3 3 -19 -4
-12 -11 -13 -24 -6 -9 5 -20 6 -24 3 -3 -3 -6 0 -6 9 0 26 23 38 35 18z m64
-29 c7 -5 9 -11 5 -14 -5 -3 -15 1 -22 9 -14 16 -5 18 17 5z m-124 -50 c-10
-31 -36 -55 -45 -41 -4 6 4 24 19 39 30 31 36 31 26 2z m-65 -5 c0 -13 -7 -26
-15 -29 -19 -8 -24 3 -14 31 11 29 29 28 29 -2z m-183 -253 c-2 -30 -37 -32
-37 -3 0 11 -5 20 -11 20 -5 0 -8 4 -4 9 3 5 1 12 -5 16 -6 4 -5 11 3 20 10
11 16 9 34 -13 12 -15 21 -37 20 -49z"/>
<path d="M2980 1892 c0 -4 7 -18 16 -30 11 -15 12 -22 3 -22 -7 0 -10 -3 -7
-6 4 -3 2 -19 -2 -35 -7 -25 -6 -29 11 -29 10 0 19 7 19 15 0 8 5 15 10 15 6
0 10 9 10 21 0 13 4 18 12 13 7 -4 8 -3 4 4 -4 6 -13 9 -21 5 -9 -3 -15 1 -15
11 0 9 8 16 19 16 26 0 35 16 15 24 -22 9 -74 7 -74 -2z"/>
<path d="M2984 1738 c-4 -7 -4 -10 1 -6 4 4 15 2 24 -5 14 -11 14 -10 2 6 -16
20 -18 21 -27 5z"/>
<path d="M2680 1675 c0 -8 5 -15 10 -15 6 0 10 -7 10 -15 0 -8 7 -15 15 -15
22 0 18 20 -7 41 -26 23 -28 23 -28 4z"/>
<path d="M3006 1332 c-3 -5 4 -19 15 -31 24 -25 17 -46 -11 -31 -25 13 -43 13
-35 -1 4 -6 -3 -13 -14 -16 -12 -3 -20 -10 -18 -16 4 -13 37 -19 37 -7 0 5 15
10 32 12 60 6 77 88 20 96 -11 2 -23 -1 -26 -6z"/>
<path d="M3082 1282 c-14 -41 3 -58 31 -31 l21 19 -21 21 -20 21 -11 -30z"/>
</g>
</svg>
