<?xml version="1.0" standalone="no"?>
<!DOCTYPE svg PUBLIC "-//W3C//DTD SVG 20010904//EN"
 "http://www.w3.org/TR/2001/REC-SVG-20010904/DTD/svg10.dtd">
<svg version="1.0" xmlns="http://www.w3.org/2000/svg"
 width="450.000000pt" height="253.000000pt" viewBox="0 0 450.000000 253.000000"
 preserveAspectRatio="xMidYMid meet">
<metadata>
Created by potrace 1.16, written by Peter Selinger 2001-2019
</metadata>
<g transform="translate(0.000000,253.000000) scale(0.100000,-0.100000)"
fill="#000000" stroke="none">
<path d="M0 1265 l0 -1265 2250 0 2250 0 0 1265 0 1265 -787 0 -788 0 45 -29
c25 -16 49 -26 54 -23 5 3 6 0 3 -5 -4 -6 2 -22 13 -35 11 -14 17 -28 14 -30
-2 -3 2 -11 11 -18 8 -7 15 -21 15 -31 0 -10 5 -21 10 -24 6 -4 8 -11 5 -16
-4 -5 -2 -9 2 -9 8 0 13 -28 16 -77 0 -7 3 -13 6 -13 3 0 6 -36 6 -79 0 -44 3
-74 7 -68 5 8 8 8 8 1 0 -16 66 -34 79 -21 7 7 12 5 17 -6 8 -21 24 -22 24 -2
0 8 3 14 8 13 4 -1 18 4 31 11 17 9 50 12 110 9 78 -4 95 -9 191 -55 126 -61
151 -80 179 -134 17 -32 21 -56 19 -100 -1 -33 -7 -59 -12 -59 -5 0 -7 -3 -3
-6 3 -4 1 -12 -6 -19 -90 -95 -213 -218 -217 -218 -3 1 -21 -7 -40 -17 -19
-10 -50 -21 -69 -25 -19 -4 -50 -14 -70 -22 -35 -15 -35 -16 -16 -32 57 -47
99 -128 115 -225 28 -158 25 -200 -15 -218 -14 -6 -25 -17 -25 -25 0 -7 -5
-13 -12 -13 -6 0 -19 -7 -29 -16 -24 -22 -118 -43 -224 -50 -140 -9 -343 28
-448 83 -38 19 -77 10 -77 -20 -1 -43 -13 -142 -17 -147 -3 -3 -3 34 -1 83 4
73 3 85 -8 76 -8 -6 -14 -17 -14 -23 0 -7 -13 -22 -30 -34 -20 -15 -34 -37
-41 -67 -6 -25 -15 -45 -19 -45 -4 0 -27 -21 -51 -46 -107 -112 -274 -167
-365 -119 -16 8 -33 15 -38 15 -17 0 -58 53 -81 104 -59 131 -67 169 -63 275
4 93 3 101 -14 101 -22 0 -24 26 -2 38 12 7 -9 14 -77 27 -52 9 -120 27 -151
40 -32 13 -58 21 -58 17 0 -4 -4 -2 -8 4 -4 6 -21 18 -39 27 -17 9 -48 33 -70
54 -21 20 -40 36 -43 36 -3 -1 -7 10 -8 24 -1 14 -9 31 -17 37 -8 6 -13 20
-11 31 2 11 -1 23 -7 26 -9 6 -12 40 -8 96 0 12 7 28 14 35 6 7 18 25 26 40
22 42 64 81 141 129 38 24 70 47 70 51 0 4 -15 21 -32 37 -18 16 -42 38 -53
48 -25 22 -76 90 -76 100 0 5 -7 18 -15 31 -20 30 -42 104 -50 162 -4 33 0 59
15 95 11 28 20 46 20 41 1 -5 9 -2 19 6 62 54 380 55 484 2 18 -9 66 -15 133
-16 l106 -2 34 42 c18 24 64 66 102 95 37 28 71 56 75 62 4 5 8 6 8 1 0 -5 6
-3 14 3 8 7 27 16 43 21 16 5 -528 9 -1229 9 l-1258 1 0 -1265z m2532 -579 c6
4 6 -1 -1 -13 -6 -11 -8 -23 -5 -26 3 -3 2 -13 -3 -22 -6 -11 -9 0 -10 37 0
29 2 45 4 35 3 -9 9 -14 15 -11z m95 -58 c-3 -8 -6 -5 -6 6 -1 11 2 17 5 13 3
-3 4 -12 1 -19z m-110 -50 c-3 -8 -6 -5 -6 6 -1 11 2 17 5 13 3 -3 4 -12 1
-19z m100 -70 c-2 -13 -4 -3 -4 22 0 25 2 35 4 23 2 -13 2 -33 0 -45z"/>
<path d="M2304 2011 c1 -8 11 -15 23 -16 18 -1 20 1 11 12 -8 11 -13 11 -19 2
-5 -9 -8 -8 -11 2 -4 12 -5 12 -4 0z"/>
<path d="M2360 2006 c0 -2 7 -7 16 -10 8 -3 12 -2 9 4 -6 10 -25 14 -25 6z"/>
<path d="M2424 1772 c-20 -18 -23 -26 -30 -80 -3 -23 2 -39 16 -54 11 -12 20
-28 20 -35 0 -15 37 -36 50 -28 5 3 14 -4 20 -15 9 -18 7 -23 -10 -22 -3 0 -5
-20 -6 -44 l-1 -44 54 0 c29 0 53 4 53 10 0 5 7 7 15 4 9 -4 15 0 15 9 0 8 -6
17 -12 20 -10 3 -10 11 -2 35 11 30 11 31 -20 38 -17 4 -33 8 -36 9 -64 16
-162 140 -128 162 7 3 8 1 4 -5 -4 -7 -1 -12 8 -12 19 0 30 17 16 25 -8 5 -8
11 0 20 17 21 -5 27 -26 7z"/>
<path d="M2182 1673 c2 -10 10 -17 17 -15 8 2 11 -3 8 -12 -4 -10 -1 -13 8
-10 18 7 10 26 -16 42 -18 12 -20 11 -17 -5z"/>
<path d="M2710 1660 c0 -5 -6 -10 -13 -10 -24 0 -57 -44 -51 -67 5 -18 9 -20
28 -12 13 6 29 27 37 47 8 20 15 40 17 45 2 4 -1 7 -7 7 -6 0 -11 -4 -11 -10z"/>
<path d="M1758 1642 c-13 -8 -25 -17 -27 -19 -3 -2 10 -17 29 -35 l34 -31 -22
-17 c-11 -10 -18 -20 -15 -24 13 -13 61 -6 67 10 9 22 8 26 -6 18 -7 -4 -8 -3
-4 4 4 6 14 8 22 5 14 -5 15 -3 5 15 -9 17 -9 22 0 22 7 0 5 10 -6 26 -9 15
-12 23 -6 20 6 -4 11 -2 11 3 0 6 -6 11 -12 12 -7 0 -21 2 -30 4 -9 2 -27 -4
-40 -13z"/>
<path d="M1504 1624 c-10 -8 -12 -12 -4 -8 13 7 13 6 1 -10 -13 -15 -13 -19 0
-27 10 -6 11 -9 1 -9 -7 0 -10 -5 -7 -10 4 -6 1 -9 -7 -8 -9 2 -12 -6 -10 -26
2 -16 -4 -36 -14 -48 -14 -15 -15 -18 -2 -13 21 8 61 64 64 89 1 12 6 30 10
40 6 15 4 17 -6 11 -10 -6 -12 -3 -8 13 7 26 7 26 -18 6z"/>
<path d="M2315 1550 c-6 -10 -5 -11 17 -14 6 0 13 -7 16 -15 3 -8 0 -11 -6 -7
-6 3 -14 1 -18 -5 -4 -8 -3 -9 4 -5 7 4 12 3 12 -2 0 -11 66 -5 91 9 25 13 24
22 -5 35 -20 9 -27 8 -42 -9 l-17 -21 -15 22 c-16 24 -27 28 -37 12z"/>
<path d="M2163 1439 c-6 -6 -32 -16 -59 -24 l-49 -13 46 -1 c36 -1 50 4 69 24
22 24 16 37 -7 14z"/>
<path d="M2365 1438 c-47 -27 -55 -47 -20 -52 20 -3 68 41 60 55 -8 12 -15 11
-40 -3z"/>
<path d="M1915 1420 c-3 -5 0 -10 7 -10 7 0 0 -11 -17 -25 -16 -13 -24 -24
-17 -25 7 0 24 11 37 24 20 20 22 26 10 36 -9 7 -15 8 -20 0z"/>
<path d="M2580 1340 c0 -5 5 -10 11 -10 5 0 7 5 4 10 -3 6 -8 10 -11 10 -2 0
-4 -4 -4 -10z"/>
<path d="M2327 1322 c-21 -23 -21 -27 -3 -45 16 -16 62 -12 69 7 8 20 -12 56
-31 56 -10 0 -26 -8 -35 -18z"/>
<path d="M2536 1288 c3 -5 10 -6 15 -3 13 9 11 12 -6 12 -8 0 -12 -4 -9 -9z"/>
<path d="M2446 1282 c-3 -5 1 -9 9 -9 8 0 12 4 9 9 -3 4 -7 8 -9 8 -2 0 -6 -4
-9 -8z"/>
<path d="M2260 1250 c0 -5 4 -10 9 -10 6 0 13 5 16 10 3 6 -1 10 -9 10 -9 0
-16 -4 -16 -10z"/>
<path d="M2259 1225 c-1 -3 -2 -9 -3 -14 -1 -10 -51 -52 -57 -48 -3 1 -1 -2 3
-7 4 -5 14 -4 23 4 8 7 15 9 16 4 0 -10 20 33 25 54 2 11 -4 18 -7 7z"/>
<path d="M3305 1197 c-8 -12 -15 -30 -15 -40 0 -10 -4 -15 -10 -12 -24 15 2
-55 35 -93 63 -74 106 -31 59 59 -8 16 -12 29 -8 29 4 0 0 7 -7 17 -8 9 -13
18 -11 20 1 1 2 9 2 17 0 24 -29 26 -45 3z"/>
<path d="M2600 1186 c0 -8 -2 -20 -3 -28 -2 -7 -2 -9 1 -5 2 4 11 2 20 -5 13
-12 14 -10 3 9 -10 19 -9 22 4 17 22 -9 18 3 -5 16 -16 8 -20 8 -20 -4z"/>
<path d="M2478 1159 c-16 -11 -28 -27 -28 -34 0 -15 34 -38 42 -29 3 2 16 7
28 9 13 3 28 9 34 15 6 6 2 8 -12 5 -24 -4 -50 19 -32 30 12 7 14 25 3 25 -5
0 -20 -10 -35 -21z"/>
<path d="M3105 1100 c9 -15 45 -32 45 -22 0 5 -12 14 -26 20 -14 7 -23 8 -19
2z"/>
<path d="M2221 1046 c-10 -11 -9 -14 1 -12 14 2 23 15 15 22 -2 2 -10 -2 -16
-10z"/>
<path d="M3180 1046 c0 -2 7 -7 16 -10 8 -3 12 -2 9 4 -6 10 -25 14 -25 6z"/>
</g>
</svg>
