<?xml version="1.0" standalone="no"?>
<!DOCTYPE svg PUBLIC "-//W3C//DTD SVG 20010904//EN"
 "http://www.w3.org/TR/2001/REC-SVG-20010904/DTD/svg10.dtd">
<svg version="1.0" xmlns="http://www.w3.org/2000/svg"
 width="450.000000pt" height="253.000000pt" viewBox="0 0 450.000000 253.000000"
 preserveAspectRatio="xMidYMid meet">
<metadata>
Created by potrace 1.16, written by Peter Selinger 2001-2019
</metadata>
<g transform="translate(0.000000,253.000000) scale(0.100000,-0.100000)"
fill="#000000" stroke="none">
<path d="M0 1265 l0 -1265 2250 0 2250 0 0 1265 0 1265 -2250 0 -2250 0 0
-1265z m3265 740 c179 -33 238 -59 268 -121 22 -45 22 -46 2 -60 -28 -21 -11
-42 54 -65 57 -20 101 -54 131 -102 17 -27 17 -29 -9 -77 -17 -33 -37 -55 -61
-66 -19 -9 -42 -21 -50 -26 -8 -4 -29 -16 -47 -25 l-32 -16 28 -36 c44 -57 63
-100 68 -160 4 -47 2 -59 -16 -78 -12 -12 -21 -27 -21 -33 0 -5 -5 -10 -12
-10 -6 0 -19 -7 -29 -16 -10 -9 -33 -16 -51 -15 -75 3 -103 6 -109 13 -6 10
-38 10 -109 2 -94 -11 -186 -7 -242 11 -61 21 -103 45 -76 45 9 0 18 5 20 10
4 12 44 14 116 4 33 -4 52 -3 52 4 0 5 9 12 20 15 39 10 19 23 -32 22 -29 -1
-57 1 -63 4 -5 3 -17 6 -25 6 -8 0 -15 9 -15 19 0 16 -8 20 -45 22 -34 2 -41
0 -27 -7 47 -27 -12 -32 -151 -14 -70 9 -126 52 -167 128 -24 46 -37 111 -15
77 17 -26 11 6 -10 62 -13 34 -20 77 -20 121 0 56 5 76 30 120 17 30 28 56 24
59 -3 3 9 16 27 29 30 21 31 23 11 30 -29 11 -18 44 24 69 18 12 84 32 146 45
97 21 132 24 248 20 74 -2 149 -7 165 -10z m-775 -102 c0 -5 33 -8 74 -9 40 0
82 -4 92 -8 18 -7 18 -9 -5 -27 -13 -10 -37 -19 -55 -20 -17 0 -64 -8 -104
-17 -75 -17 -73 -16 -109 -81 -5 -9 -83 -18 -83 -9 0 5 -12 21 -26 36 -22 23
-24 23 -15 5 14 -28 15 -85 1 -63 -5 8 -10 24 -10 36 0 11 -13 33 -30 49 -24
23 -30 25 -30 12 0 -10 7 -20 15 -23 8 -4 15 -17 15 -31 0 -20 -4 -24 -17 -18
-10 4 -23 8 -30 8 -7 0 -10 4 -7 9 3 5 10 6 15 3 5 -4 9 1 9 9 0 17 -36 40
-49 32 -11 -7 -21 29 -14 54 5 18 34 37 83 53 24 9 280 8 280 0z m150 -87 c0
-2 -7 -7 -16 -10 -8 -3 -12 -2 -9 4 6 10 25 14 25 6z m-480 -116 c5 0 13 8 19
18 8 14 12 15 22 5 7 -7 10 -13 6 -13 -4 0 3 -10 14 -21 15 -15 23 -18 29 -9
8 14 19 -17 13 -37 -5 -14 -63 3 -63 18 0 5 -4 9 -10 9 -5 0 -6 -8 -3 -17 6
-16 5 -16 -10 -4 -9 7 -15 16 -12 20 2 4 -12 7 -31 6 -18 -1 -34 0 -34 2 0 2
10 14 23 27 15 16 23 19 25 9 2 -7 7 -13 12 -13z m-54 -76 c-4 -11 -1 -14 12
-10 37 11 69 14 82 6 20 -13 4 -26 -30 -24 -45 3 -37 -29 10 -37 l35 -6 -28
-11 c-16 -7 -43 -13 -60 -13 -24 -1 -26 -3 -9 -6 l23 -4 -26 -30 c-14 -17 -25
-36 -25 -42 0 -7 7 -3 15 7 23 30 30 11 14 -36 -17 -54 -43 -85 -55 -67 -7 12
-7 66 1 108 1 9 8 53 15 99 8 45 18 82 23 82 5 0 6 -7 3 -16z m908 -368 c-3
-9 -12 -12 -22 -9 -15 6 -9 11 25 22 1 1 0 -5 -3 -13z"/>
<path d="M3217 1853 c-8 -7 14 -53 25 -53 5 0 6 -4 3 -10 -3 -5 -5 -10 -3 -10
61 -8 86 -15 98 -27 8 -9 10 -13 4 -9 -7 3 -15 -1 -18 -10 -3 -8 -10 -13 -15
-10 -11 7 -37 -22 -45 -51 -10 -32 11 -30 26 2 6 14 18 25 26 25 12 0 12 -4
-2 -22 -9 -13 -19 -31 -23 -40 -3 -10 -9 -18 -13 -18 -4 0 -7 -14 -6 -31 1
-17 -3 -36 -8 -43 -6 -6 -20 -24 -30 -40 -17 -27 -17 -35 -4 -124 1 -13 13 -6
13 9 0 5 3 9 8 9 4 0 20 0 36 0 30 0 48 -29 29 -48 -6 -6 -8 -16 -5 -24 6 -17
31 40 28 67 -2 17 0 18 9 5 10 -12 11 -10 6 10 -5 24 -5 24 11 5 15 -20 15
-19 8 4 -6 18 -4 22 6 16 11 -6 11 -5 2 5 -6 7 -9 19 -6 26 3 8 0 14 -5 14 -6
0 -9 -9 -7 -20 2 -12 0 -18 -6 -14 -6 3 -8 9 -5 12 3 3 0 12 -7 20 -9 13 -9
14 1 8 8 -5 12 0 12 14 0 12 -4 19 -9 15 -5 -3 -22 7 -38 21 -15 15 -22 24
-15 20 6 -4 12 -3 12 2 0 6 13 9 29 8 17 -1 28 2 25 6 -3 4 -11 8 -19 8 -9 0
-5 10 12 28 14 15 30 26 37 24 7 -2 7 1 -1 9 -7 7 -13 22 -12 34 0 19 1 19 9
-2 5 -13 12 -23 14 -23 7 0 -4 31 -16 47 -5 6 -11 27 -13 45 -3 22 -16 42 -37
60 -18 15 -39 33 -46 39 -7 6 -16 9 -19 6 -3 -3 -15 -2 -28 3 -13 5 -25 6 -28
3z m153 -148 c7 -9 8 -15 2 -15 -5 0 -12 7 -16 15 -3 8 -4 15 -2 15 2 0 9 -7
16 -15z m2 -49 c2 -11 -3 -20 -13 -21 -9 -2 -16 3 -16 11 0 7 4 11 9 8 4 -3 8
3 8 12 0 21 7 16 12 -10z"/>
<path d="M3225 1591 c-6 -11 9 -23 19 -14 9 9 7 23 -3 23 -6 0 -12 -4 -16 -9z"/>
<path d="M3262 1371 c-11 -7 -11 -9 0 -14 9 -3 15 1 15 9 0 8 -1 14 -1 14 -1
0 -7 -4 -14 -9z"/>
<path d="M3040 1335 c-7 -9 -10 -18 -6 -22 3 -3 6 -1 6 5 0 6 9 9 19 7 14 -3
18 1 14 11 -7 18 -17 18 -33 -1z"/>
<path d="M3150 1330 c0 -5 5 -10 11 -10 5 0 7 5 4 10 -3 6 -8 10 -11 10 -2 0
-4 -4 -4 -10z"/>
<path d="M3008 1314 c17 -33 39 -48 48 -32 4 7 4 10 -1 6 -4 -4 -19 5 -32 20
-18 19 -22 21 -15 6z"/>
<path d="M3095 1301 c-3 -5 -2 -12 3 -15 5 -3 9 1 9 9 0 17 -3 19 -12 6z"/>
<path d="M3245 1300 c3 -5 8 -10 11 -10 2 0 4 5 4 10 0 6 -5 10 -11 10 -5 0
-7 -4 -4 -10z"/>
<path d="M3070 1286 c0 -2 8 -10 18 -17 15 -13 16 -12 3 4 -13 16 -21 21 -21
13z"/>
<path d="M3063 1255 c0 -8 4 -12 9 -9 5 3 6 10 3 15 -9 13 -12 11 -12 -6z"/>
<path d="M3035 1250 c-3 -5 -1 -10 4 -10 6 0 11 5 11 10 0 6 -2 10 -4 10 -3 0
-8 -4 -11 -10z"/>
<path d="M2200 1880 c0 -5 5 -10 11 -10 5 0 7 5 4 10 -3 6 -8 10 -11 10 -2 0
-4 -4 -4 -10z"/>
</g>
</svg>
