<?xml version="1.0" standalone="no"?>
<!DOCTYPE svg PUBLIC "-//W3C//DTD SVG 20010904//EN"
 "http://www.w3.org/TR/2001/REC-SVG-20010904/DTD/svg10.dtd">
<svg version="1.0" xmlns="http://www.w3.org/2000/svg"
 width="450.000000pt" height="253.000000pt" viewBox="0 0 450.000000 253.000000"
 preserveAspectRatio="xMidYMid meet">
<metadata>
Created by potrace 1.16, written by Peter Selinger 2001-2019
</metadata>
<g transform="translate(0.000000,253.000000) scale(0.100000,-0.100000)"
fill="#000000" stroke="none">
<path d="M0 1265 l0 -1265 2250 0 2250 0 0 1265 0 1265 -2250 0 -2250 0 0
-1265z m2671 1169 c29 -10 76 -15 137 -15 73 1 102 -3 137 -19 80 -36 152
-128 184 -235 29 -93 36 -101 104 -119 l64 -18 27 25 c32 30 73 37 147 26 50
-8 86 -22 229 -86 54 -24 107 -70 114 -98 4 -14 10 -25 15 -25 8 0 5 -68 -5
-118 -5 -26 -191 -213 -246 -248 -20 -13 -48 -25 -63 -28 -14 -3 -51 -12 -81
-21 -49 -14 -53 -18 -44 -35 6 -10 15 -22 20 -25 6 -4 24 -33 41 -66 25 -51
31 -76 36 -159 7 -116 -10 -179 -53 -198 -13 -7 -27 -19 -30 -27 -4 -8 -12
-15 -19 -15 -7 0 -26 -6 -42 -14 -81 -40 -212 -46 -373 -16 -118 21 -192 44
-232 72 -26 18 -27 18 -72 -12 -55 -38 -55 -37 -58 -89 -2 -25 -7 -40 -14 -37
-7 3 -27 -11 -45 -31 -59 -61 -173 -107 -262 -104 -55 1 -148 37 -179 69 -15
15 -43 66 -62 114 -30 72 -36 99 -36 159 0 65 2 71 19 66 13 -3 21 1 24 14 3
11 1 17 -4 13 -5 -3 -17 -7 -26 -9 -10 -2 -25 -6 -34 -10 -10 -4 -19 0 -22 9
-4 9 -1 16 6 17 34 3 -47 17 -103 18 -96 2 -267 60 -318 109 -8 6 -21 16 -31
21 -9 5 -26 27 -37 48 -10 21 -23 41 -28 44 -11 8 -19 58 -19 120 0 38 7 55
40 100 43 59 74 85 168 142 33 20 66 41 74 46 10 7 -3 25 -58 78 -55 54 -79
87 -107 149 -39 84 -51 162 -31 199 6 11 10 26 9 33 -2 6 3 12 9 12 7 0 20 6
28 14 53 46 315 64 431 30 30 -9 101 -18 158 -21 102 -5 102 -5 130 24 117
120 265 170 383 127z m-74 -1646 c-3 -7 -5 -2 -5 12 0 14 2 19 5 13 2 -7 2
-19 0 -25z"/>
<path d="M2420 2031 c0 -6 6 -11 13 -12 6 0 20 -2 31 -4 24 -5 8 11 -21 20
-14 4 -23 2 -23 -4z"/>
<path d="M2370 2020 c0 -5 6 -10 14 -10 8 0 18 5 21 10 3 6 -3 10 -14 10 -12
0 -21 -4 -21 -10z"/>
<path d="M2558 2016 c-19 -14 -23 -26 -10 -26 4 0 13 9 20 20 14 23 13 24 -10
6z"/>
<path d="M2556 1968 c3 -5 10 -6 15 -3 13 9 11 12 -6 12 -8 0 -12 -4 -9 -9z"/>
<path d="M2572 1891 c-11 -6 -11 -16 -3 -47 10 -36 9 -40 -15 -61 -17 -13 -25
-27 -21 -37 3 -8 2 -18 -2 -21 -15 -8 -19 -57 -7 -73 6 -8 29 -33 51 -55 22
-22 34 -37 28 -33 -8 4 -13 1 -13 -8 0 -9 5 -16 10 -16 7 0 8 -13 5 -34 l-7
-33 44 0 c51 2 68 14 61 48 -3 17 3 31 23 49 15 14 24 19 19 11 -6 -10 -4 -12
6 -5 8 5 16 9 19 10 26 5 40 20 40 42 0 14 7 34 17 44 15 17 15 18 -5 18 -31
0 -74 -19 -67 -29 6 -10 -14 -60 -24 -62 -3 0 -14 -2 -25 -4 -30 -6 -67 13
-108 55 -44 44 -47 64 -15 81 12 7 23 12 25 11 14 -10 11 2 -4 13 -12 9 -14
14 -5 15 9 0 12 8 8 28 -20 97 -22 101 -35 93z"/>
<path d="M2350 1797 c0 -2 6 -10 14 -16 11 -9 16 -9 22 1 4 7 4 10 -1 6 -4 -4
-14 -3 -22 3 -7 6 -13 9 -13 6z"/>
<path d="M2295 1711 c-8 -14 12 -58 30 -65 10 -3 13 -11 9 -18 -4 -7 5 -2 20
12 26 23 26 25 6 32 -11 4 -20 11 -20 15 0 13 -39 33 -45 24z"/>
<path d="M1969 1703 c-1 -5 -1 -15 0 -23 1 -8 -12 -24 -28 -35 -22 -14 -27
-23 -21 -35 8 -14 3 -16 -32 -16 -22 1 -42 -3 -46 -8 -3 -5 1 -6 8 -1 10 6 12
4 7 -9 -4 -9 -3 -15 1 -12 10 6 42 -29 42 -45 0 -20 45 -5 45 16 1 11 5 26 9
34 6 10 5 12 -2 7 -7 -4 -12 -3 -12 3 0 5 5 13 11 17 6 3 9 15 6 25 -3 10 1
23 9 30 7 6 13 22 12 35 -2 23 -7 32 -9 17z"/>
<path d="M1532 1625 c-7 -8 -15 -28 -18 -44 -4 -16 -12 -32 -19 -35 -8 -3 -11
-13 -8 -25 3 -12 -2 -32 -11 -46 -21 -32 -20 -38 6 -29 36 11 60 41 65 81 2
20 8 42 14 49 6 8 5 16 -4 26 -7 7 -12 19 -9 26 5 16 0 15 -16 -3z"/>
<path d="M2488 1589 c-9 -5 -30 -7 -46 -5 -35 4 -52 -19 -21 -29 21 -7 26 -25
7 -26 -7 0 1 -7 18 -14 17 -8 39 -12 50 -11 10 2 22 -2 26 -8 13 -18 9 -24
-11 -19 -21 5 -61 -12 -61 -27 0 -6 18 -10 41 -10 32 0 42 4 46 20 3 11 12 20
19 20 17 0 19 27 2 33 -10 3 -10 8 1 21 12 14 11 19 -5 31 -36 29 -49 33 -66
24z"/>
<path d="M2333 1545 c0 -8 4 -15 9 -15 4 0 8 4 8 9 0 6 -4 12 -8 15 -5 3 -9
-1 -9 -9z"/>
<path d="M2215 1470 c3 -5 8 -10 11 -10 2 0 4 5 4 10 0 6 -5 10 -11 10 -5 0
-7 -4 -4 -10z"/>
<path d="M2278 1455 c-2 -3 -18 -7 -34 -9 -40 -5 -62 -15 -68 -32 -6 -15 9
-20 18 -5 4 5 12 8 19 7 39 -8 74 -20 87 -30 13 -9 13 -9 2 6 -8 9 -10 27 -6
42 5 23 -4 35 -18 21z"/>
<path d="M2025 1441 c-11 -3 -20 -15 -20 -26 0 -11 -9 -24 -21 -30 -11 -5 -19
-16 -16 -23 7 -21 53 -14 73 12 10 13 30 26 43 30 25 6 43 32 23 33 -7 0 -23
3 -37 5 -14 3 -34 2 -45 -1z"/>
<path d="M2415 1383 c16 -24 7 -36 -22 -27 -17 5 -17 5 0 -6 9 -6 17 -15 17
-20 0 -12 -41 0 -72 22 -32 22 -35 22 -54 3 -9 -8 -27 -15 -42 -15 -19 0 -23
-3 -15 -11 8 -8 20 -9 42 -1 28 10 30 9 50 -31 19 -37 19 -43 6 -62 -32 -42
-39 -65 -26 -78 9 -9 13 -7 17 10 3 12 14 23 24 26 9 2 24 17 32 33 36 72 39
74 101 74 l58 0 -22 30 c-18 23 -20 32 -10 44 10 12 8 16 -11 22 -13 4 -38 8
-55 8 -31 2 -32 1 -18 -21z"/>
<path d="M2664 1368 c-19 -36 -11 -48 15 -24 13 12 21 14 26 6 3 -5 11 -8 16
-4 5 3 16 0 24 -6 10 -8 19 -9 32 -1 17 10 17 10 1 11 -10 0 -18 5 -18 10 0 6
-6 10 -12 10 -7 0 -25 7 -41 14 -26 14 -28 14 -43 -16z"/>
<path d="M2560 1346 c0 -24 12 -46 21 -40 15 9 10 54 -6 54 -8 0 -15 -6 -15
-14z"/>
<path d="M2674 1223 c-10 -34 -21 -48 -39 -51 -14 -3 -16 1 -10 27 13 59 -22
27 -40 -37 -5 -17 -11 -21 -31 -16 -13 3 -24 2 -24 -4 0 -15 99 -6 118 11 9 8
31 19 47 24 22 7 30 16 30 34 0 30 -42 41 -51 12z"/>
<path d="M2937 1209 c7 -7 15 -10 18 -7 3 3 -2 9 -12 12 -14 6 -15 5 -6 -5z"/>
<path d="M3337 1165 c-12 -11 -23 -25 -24 -31 -1 -5 -4 -16 -7 -24 -8 -19 29
-80 48 -80 19 0 29 33 30 101 1 62 -10 70 -47 34z"/>
<path d="M2314 1092 c-6 -4 -13 -15 -17 -24 -5 -15 -1 -18 23 -18 16 0 32 5
36 12 5 7 2 9 -9 5 -11 -4 -15 -1 -12 14 4 20 -3 24 -21 11z"/>
<path d="M2856 1085 c4 -8 8 -15 10 -15 2 0 4 7 4 15 0 8 -4 15 -10 15 -5 0
-7 -7 -4 -15z"/>
<path d="M2593 968 c-22 -11 -40 -44 -29 -55 5 -5 66 53 66 63 0 6 -13 3 -37
-8z"/>
</g>
</svg>
