<?xml version="1.0" standalone="no"?>
<!DOCTYPE svg PUBLIC "-//W3C//DTD SVG 20010904//EN"
 "http://www.w3.org/TR/2001/REC-SVG-20010904/DTD/svg10.dtd">
<svg version="1.0" xmlns="http://www.w3.org/2000/svg"
 width="450.000000pt" height="253.000000pt" viewBox="0 0 450.000000 253.000000"
 preserveAspectRatio="xMidYMid meet">
<metadata>
Created by potrace 1.16, written by Peter Selinger 2001-2019
</metadata>
<g transform="translate(0.000000,253.000000) scale(0.100000,-0.100000)"
fill="#000000" stroke="none">
<path d="M0 1265 l0 -1265 2250 0 2250 0 0 1265 0 1265 -2250 0 -2250 0 0
-1265z m2455 614 c63 22 226 5 310 -34 17 -7 50 -21 74 -31 57 -22 145 -76
194 -116 38 -32 48 -67 26 -98 -8 -12 -9 -10 -7 10 2 17 -2 25 -12 25 -8 0
-21 5 -29 9 -8 5 -41 9 -73 8 -35 0 -63 4 -70 12 -7 7 -19 11 -26 8 -8 -2 -24
6 -37 18 -20 19 -37 23 -112 25 -48 2 -78 0 -66 -3 l22 -7 -26 -25 c-15 -14
-23 -18 -18 -10 7 12 6 13 -6 4 -20 -14 -122 -18 -114 -3 5 6 0 9 -11 8 -35
-6 -46 9 -27 39 10 15 21 30 26 33 9 6 -9 23 -35 32 -26 9 -22 32 9 52 21 14
39 16 97 11 55 -5 68 -4 58 6 -13 13 -23 15 -89 24 -29 3 -43 1 -43 -6 0 -6
-4 -8 -10 -5 -5 3 -10 1 -10 -5 0 -6 -5 -8 -12 -4 -6 4 -16 0 -22 -8 -6 -8
-43 -33 -81 -55 -62 -36 -71 -45 -70 -69 0 -21 -6 -30 -20 -32 -17 -4 -18 -2
-6 12 23 27 7 28 -29 1 -18 -13 -37 -22 -43 -18 -5 3 -4 9 3 13 8 5 4 9 -12
13 -103 25 -160 69 -96 74 15 1 37 8 50 17 15 9 43 13 79 12 57 -3 112 15 90
28 -7 5 -8 13 -2 25 9 16 17 17 77 8 48 -7 77 -6 99 2z m-348 -5 c-3 -3 -22
-6 -42 -6 -51 0 -39 -22 13 -26 77 -6 44 -36 -48 -45 -30 -3 -49 -3 -42 0 6 3
10 9 6 14 -3 5 5 9 18 9 22 1 22 1 4 15 -11 8 -34 18 -53 21 -67 13 -42 24 53
24 54 0 95 -3 91 -6z m-280 -18 c-13 -10 -15 -16 -7 -21 7 -4 17 -2 23 4 16
16 27 14 21 -4 -4 -8 -13 -15 -20 -15 -14 0 -65 -46 -94 -85 -20 -27 -60 -49
-60 -34 0 8 -5 8 -15 -1 -21 -18 -19 -32 5 -25 15 5 18 3 14 -9 -5 -13 0 -15
27 -11 27 3 25 2 -8 -7 -36 -9 -42 -15 -47 -43 -4 -21 -14 -35 -26 -38 -11 -3
-23 -13 -26 -24 -4 -10 -14 -27 -23 -37 -16 -19 -16 -19 18 0 18 10 36 25 38
32 7 17 81 54 96 48 7 -2 5 -5 -4 -5 -21 -1 -29 -22 -22 -51 5 -21 3 -22 -25
-18 -25 4 -35 0 -47 -19 -9 -13 -11 -23 -5 -23 5 0 10 5 10 10 0 6 18 10 39
10 41 0 45 -7 28 -65 -3 -11 -8 -33 -12 -50 -6 -28 -8 -29 -20 -11 -8 10 -18
15 -24 11 -6 -3 -11 2 -11 12 0 10 -3 14 -8 8 -4 -6 -19 -16 -35 -23 l-27 -12
6 51 c5 36 3 49 -6 47 -19 -4 -20 26 -3 89 25 96 132 243 223 306 29 20 53 23
27 3z m363 10 c0 -2 -7 -9 -15 -16 -13 -11 -14 -10 -9 4 5 14 24 23 24 12z
m40 -14 c0 -5 -7 -9 -15 -9 -8 0 -12 4 -9 9 3 4 9 8 15 8 5 0 9 -4 9 -8z
m-370 -52 c0 -5 -8 -10 -17 -10 -15 0 -16 2 -3 10 19 12 20 12 20 0z m867
-126 c3 -8 9 -11 14 -8 5 3 18 -1 28 -8 18 -13 18 -14 -5 -25 -22 -10 -23 -9
-13 10 10 17 9 19 -5 14 -10 -4 -19 -1 -22 8 -4 8 -10 15 -16 15 -5 0 -6 -5
-3 -11 4 -6 -2 -5 -13 2 -12 7 -19 16 -16 20 6 11 45 -2 51 -17z m-917 -4 c-8
-5 -24 -9 -35 -9 -16 1 -16 2 5 9 35 11 48 11 30 0z m-30 -160 c0 -5 -5 -10
-11 -10 -5 0 -7 5 -4 10 3 6 8 10 11 10 2 0 4 -4 4 -10z m-73 -202 c-3 -7 -5
-2 -5 12 0 14 2 19 5 13 2 -7 2 -19 0 -25z m-10 -60 c-3 -8 -6 -5 -6 6 -1 11
2 17 5 13 3 -3 4 -12 1 -19z m10 -170 c-2 -18 -4 -6 -4 27 0 33 2 48 4 33 2
-15 2 -42 0 -60z m17 -143 c3 -55 9 -140 11 -190 3 -49 8 -106 10 -125 3 -25
2 -30 -4 -15 -5 11 -12 70 -16 130 -4 61 -10 152 -14 203 -6 80 -4 110 5 100
1 -2 5 -48 8 -103z m23 -402 c-3 -10 -5 -2 -5 17 0 19 2 27 5 18 2 -10 2 -26
0 -35z"/>
<path d="M2730 1746 c0 -2 7 -9 15 -16 9 -7 15 -8 15 -2 0 5 -7 12 -15 16 -8
3 -15 4 -15 2z"/>
<path d="M2546 1687 c3 -10 9 -15 12 -12 3 3 0 11 -7 18 -10 9 -11 8 -5 -6z"/>
<path d="M1650 1619 c0 -5 -4 -8 -9 -4 -5 3 -12 1 -15 -4 -4 -5 2 -8 11 -7 15
3 33 26 19 26 -3 0 -6 -5 -6 -11z"/>
<path d="M1672 1427 c-17 -20 -12 -40 6 -28 8 5 12 16 10 26 -3 17 -4 17 -16
2z"/>
</g>
</svg>
