<?xml version="1.0" standalone="no"?>
<!DOCTYPE svg PUBLIC "-//W3C//DTD SVG 20010904//EN"
 "http://www.w3.org/TR/2001/REC-SVG-20010904/DTD/svg10.dtd">
<svg version="1.0" xmlns="http://www.w3.org/2000/svg"
 width="450.000000pt" height="253.000000pt" viewBox="0 0 450.000000 253.000000"
 preserveAspectRatio="xMidYMid meet">
<metadata>
Created by potrace 1.16, written by Peter Selinger 2001-2019
</metadata>
<g transform="translate(0.000000,253.000000) scale(0.100000,-0.100000)"
fill="#000000" stroke="none">
<path d="M0 1265 l0 -1265 2250 0 2250 0 0 1265 0 1265 -2250 0 -2250 0 0
-1265z m2862 670 c96 -20 197 -70 259 -127 11 -10 19 -15 19 -11 0 4 8 -4 17
-17 9 -14 25 -31 34 -37 10 -7 31 -31 48 -52 28 -35 31 -44 25 -81 -6 -39 -41
-77 -41 -45 0 8 6 16 14 19 7 3 13 14 13 24 0 15 -10 21 -42 27 -67 13 -78 13
-78 1 0 -6 -4 -5 -9 2 -7 11 -9 11 -14 0 -3 -9 -17 -13 -36 -12 -17 1 -31 -1
-31 -5 0 -6 -121 -7 -127 -1 -5 5 -23 7 -55 9 -30 1 -30 2 -14 20 13 14 14 21
5 27 -7 4 -10 3 -6 -3 12 -19 -32 -22 -46 -4 -18 26 -47 34 -47 14 0 -14 -2
-14 -15 3 -15 19 -15 19 -9 -1 6 -20 5 -20 -10 -1 -10 13 -16 15 -16 7 0 -11
-3 -11 -15 -1 -12 10 -15 10 -15 -1 0 -9 -3 -10 -8 -4 -11 16 -45 19 -37 3 3
-7 0 -5 -8 5 -9 10 -18 18 -22 17 -3 -1 -19 4 -36 10 l-30 13 21 19 c22 21 25
34 10 43 -6 4 -7 12 -1 22 6 11 4 21 -4 30 -7 7 -15 18 -18 25 -3 10 -10 8
-26 -6 -13 -12 -18 -23 -12 -30 16 -20 17 -91 1 -81 -5 3 -10 -1 -10 -9 0 -9
-4 -16 -10 -16 -5 0 -10 5 -10 10 0 6 -5 10 -11 10 -5 0 -7 -4 -4 -10 3 -6 -1
-7 -10 -4 -8 4 -22 1 -29 -5 -11 -10 -16 -8 -21 10 -4 12 -3 24 2 28 5 3 20
22 33 41 28 41 43 52 116 92 94 49 192 60 316 33z m-740 -53 c-5 -14 -3 -15 9
-5 19 16 198 23 196 8 -2 -12 73 -14 80 -2 7 11 23 -2 23 -18 0 -9 -6 -12 -15
-9 -8 4 -15 2 -15 -4 0 -5 -22 -17 -48 -25 -26 -9 -56 -19 -67 -23 -14 -6 -16
-4 -10 7 8 12 6 12 -8 0 -9 -7 -17 -19 -17 -25 0 -6 5 -4 10 4 5 8 10 11 11 5
0 -5 2 -17 4 -26 6 -31 -12 -42 -76 -44 -35 -2 -58 -1 -52 2 10 3 9 8 -2 19
-8 9 -20 12 -26 9 -5 -4 -16 0 -22 9 -7 9 -22 18 -35 19 -15 1 -20 6 -17 18 4
12 -1 16 -20 15 -15 -1 -30 -8 -34 -15 -6 -10 -10 -9 -14 3 -4 9 -1 15 5 13
20 -4 19 20 -2 26 -13 3 -18 11 -14 20 6 17 -28 33 -48 21 -9 -5 -10 -4 -3 4
12 13 69 18 152 14 53 -3 61 -6 55 -20z m-237 -12 c15 -6 25 -16 22 -23 -2 -6
2 -25 10 -41 11 -21 12 -26 2 -20 -7 4 -29 10 -49 14 -27 4 -36 11 -38 28 -2
13 2 30 8 38 15 17 12 16 45 4z m-91 -141 c-8 -16 -17 -29 -20 -29 -3 0 -2 5
1 10 3 6 -1 10 -9 10 -10 0 -13 6 -9 16 3 8 12 13 19 10 8 -3 11 0 7 10 -4 10
0 12 11 8 14 -5 14 -9 0 -35z m103 14 c0 -10 -7 -23 -16 -30 -14 -11 -14 -12
5 -13 28 0 36 -10 21 -28 -10 -13 -8 -14 13 -7 39 13 65 11 65 -4 0 -8 -6 -16
-14 -19 -10 -3 -12 0 -7 13 5 15 4 16 -9 5 -12 -10 -28 -10 -77 0 -54 10 -68
10 -98 -4 -19 -8 -28 -15 -20 -16 13 0 13 -2 1 -9 -8 -5 -11 -16 -8 -25 4 -9
1 -16 -5 -16 -6 0 -8 -3 -4 -7 4 -5 13 -1 20 9 6 9 25 17 41 18 44 3 52 1 32
-11 -9 -6 -27 -7 -40 -4 -17 5 -19 4 -7 -4 8 -6 12 -11 8 -11 -4 0 -3 -11 2
-25 9 -23 7 -25 -20 -25 -34 0 -41 -15 -9 -17 32 -3 35 -11 12 -36 -11 -12
-23 -31 -27 -42 -7 -18 -5 -18 14 3 23 24 40 29 40 10 -1 -16 -29 -67 -30 -54
0 6 -9 0 -21 -12 -11 -12 -24 -20 -30 -17 -8 6 -13 -9 -10 -29 1 -5 -4 -4 -12
2 -8 7 -16 10 -19 7 -7 -7 -9 19 -11 125 -2 110 6 152 28 144 11 -4 15 1 15
17 0 12 7 31 17 41 17 19 39 25 28 8 -10 -16 6 -11 65 18 30 15 56 33 56 40 3
28 11 31 11 5z m83 -8 c0 -8 -4 -15 -10 -15 -5 0 -7 7 -4 15 4 8 8 15 10 15 2
0 4 -7 4 -15z m1153 -221 c-3 -9 -23 -13 -36 -6 -4 2 -5 7 -2 12 7 11 41 6 38
-6z"/>
<path d="M2790 1810 c8 -4 26 -7 40 -6 14 1 45 -6 70 -16 l45 -18 -24 20 c-13
11 -31 20 -40 21 -9 1 -36 3 -61 4 -28 2 -39 1 -30 -5z"/>
<path d="M2805 1690 c-4 -6 -3 -16 3 -22 6 -6 12 -6 17 2 4 6 3 16 -3 22 -6 6
-12 6 -17 -2z"/>
<path d="M2090 1880 c0 -5 5 -10 10 -10 6 0 10 5 10 10 0 6 -4 10 -10 10 -5 0
-10 -4 -10 -10z"/>
<path d="M2310 1850 c-9 -6 -10 -10 -3 -10 6 0 15 5 18 10 8 12 4 12 -15 0z"/>
<path d="M2068 1823 c7 -3 16 -2 19 1 4 3 -2 6 -13 5 -11 0 -14 -3 -6 -6z"/>
</g>
</svg>
