<?xml version="1.0" standalone="no"?>
<!DOCTYPE svg PUBLIC "-//W3C//DTD SVG 20010904//EN"
 "http://www.w3.org/TR/2001/REC-SVG-20010904/DTD/svg10.dtd">
<svg version="1.0" xmlns="http://www.w3.org/2000/svg"
 width="450.000000pt" height="253.000000pt" viewBox="0 0 450.000000 253.000000"
 preserveAspectRatio="xMidYMid meet">
<metadata>
Created by potrace 1.16, written by Peter Selinger 2001-2019
</metadata>
<g transform="translate(0.000000,253.000000) scale(0.100000,-0.100000)"
fill="#000000" stroke="none">
<path d="M0 1265 l0 -1265 2250 0 2250 0 0 1265 0 1265 -2250 0 -2250 0 0
-1265z m3054 687 c72 -26 153 -74 210 -124 57 -50 126 -152 125 -186 0 -15
-19 -53 -43 -87 -37 -52 -55 -66 -135 -107 -94 -49 -134 -61 -112 -35 6 8 8
16 6 19 -3 3 20 18 52 33 32 15 69 32 82 38 27 14 29 32 4 32 -10 0 -22 3 -28
6 -5 4 -24 5 -42 4 -18 -1 -30 2 -27 7 3 5 9 6 14 3 5 -3 12 -1 15 5 5 8 -6
10 -34 6 -22 -2 -43 -1 -46 3 -5 10 -141 5 -157 -5 -8 -5 -9 -1 -5 12 7 18 6
18 -7 2 -13 -18 -32 -26 -22 -10 3 5 -1 9 -9 9 -8 0 -12 -4 -9 -9 7 -11 -11
-10 -40 3 -14 7 -24 15 -21 18 2 4 -5 7 -15 7 -10 0 -16 -4 -14 -8 3 -4 -2 -5
-11 -1 -19 6 -44 10 -92 12 -22 1 -33 6 -33 15 0 8 -4 17 -9 20 -5 4 -7 -4 -5
-16 4 -21 4 -21 -5 -3 -5 13 -5 25 3 34 8 11 8 13 -1 7 -7 -4 -14 -2 -14 3 -1
6 -2 16 -3 21 0 6 -6 14 -13 18 -7 4 -16 19 -21 32 -7 19 -5 28 7 37 13 10 14
15 4 32 -18 29 -16 49 2 25 13 -17 15 -17 16 -1 1 9 2 22 3 27 0 6 8 15 16 21
12 8 11 9 -5 7 -12 -2 -19 -11 -18 -22 1 -13 -2 -15 -9 -8 -7 7 -18 6 -34 -5
-14 -8 -24 -11 -24 -5 0 20 173 115 237 132 62 15 201 6 267 -18z m-810 -41
c4 -6 18 -6 36 -1 18 5 30 5 30 -1 0 -5 5 -9 11 -9 5 0 8 4 4 9 -3 6 3 9 14 8
11 -1 18 -3 16 -6 -3 -2 0 -10 6 -17 9 -11 2 -15 -31 -20 -34 -6 -39 -9 -25
-16 9 -6 27 -8 40 -6 18 4 21 1 17 -14 -2 -10 -13 -18 -24 -18 -10 0 -16 4
-13 10 4 7 -2 7 -19 0 -14 -5 -34 -7 -45 -5 -15 3 -21 -1 -21 -13 0 -13 -2
-14 -9 -3 -6 9 -11 10 -15 2 -4 -6 -4 -11 1 -12 4 0 16 -2 25 -4 10 -2 17 0
17 3 -3 19 3 23 16 12 8 -7 15 -8 15 -3 0 5 7 10 15 10 9 0 14 -6 11 -14 -3
-7 -1 -13 5 -13 12 0 8 -32 -6 -42 -5 -4 -30 -8 -54 -8 -34 0 -42 3 -37 15 3
8 1 15 -4 15 -6 0 -28 8 -50 17 -40 18 -52 38 -27 46 6 2 2 2 -11 0 -24 -4
-57 21 -48 36 7 10 -17 21 -46 21 -12 0 -18 3 -14 7 4 4 41 10 83 13 42 3 89
6 104 8 15 1 30 -2 33 -7z m230 -14 c3 4 6 -2 6 -13 0 -16 2 -17 10 -4 8 13
10 13 10 -2 0 -11 -10 -20 -27 -24 -16 -3 -34 -7 -40 -10 -7 -2 -13 4 -13 12
0 8 5 12 10 9 6 -3 10 1 10 9 0 9 -7 13 -20 11 -11 -2 -20 0 -20 5 0 13 23 18
46 9 12 -4 25 -5 28 -2z m76 -7 c0 -13 -19 -22 -30 -15 -14 9 0 34 16 28 8 -3
14 -9 14 -13z m-560 -12 c0 -6 -8 -21 -17 -32 -16 -18 -16 -19 -1 -8 14 11 18
10 27 -6 9 -17 6 -19 -23 -19 -30 0 -32 3 -28 26 5 29 20 51 33 51 5 0 9 -5 9
-12z m420 -22 c0 -7 -9 -16 -19 -19 -14 -3 -18 -1 -14 9 3 8 9 11 14 8 5 -3 9
0 9 5 0 6 2 11 5 11 3 0 5 -6 5 -14z m121 -39 c-10 -9 -11 -8 -5 6 3 10 9 15
12 12 3 -3 0 -11 -7 -18z m-437 -13 c3 -8 2 -12 -4 -9 -6 3 -10 10 -10 16 0
14 7 11 14 -7z m503 -26 c-3 -8 -6 -5 -6 6 -1 11 2 17 5 13 3 -3 4 -12 1 -19z
m-104 -16 c-9 -9 -19 -15 -21 -14 -3 2 -9 -2 -13 -10 -7 -10 -9 -9 -9 4 0 19
38 50 52 42 4 -3 1 -13 -9 -22z m-426 -24 c-3 -8 -6 -5 -6 6 -1 11 2 17 5 13
3 -3 4 -12 1 -19z m63 6 c0 -8 -4 -12 -10 -9 -5 3 -10 10 -10 16 0 5 5 9 10 9
6 0 10 -7 10 -16z m-108 -52 c-1 -8 9 -11 30 -10 27 3 33 -1 34 -19 1 -17 -3
-20 -20 -16 -12 2 -26 5 -33 5 -7 1 -14 7 -17 14 -3 7 -14 10 -27 7 -15 -4
-20 -3 -15 5 5 8 -3 10 -26 5 -44 -8 -58 -20 -58 -50 0 -22 3 -24 30 -18 51
11 100 13 106 3 3 -5 2 -8 -3 -7 -12 3 -93 -13 -93 -18 0 -2 5 -13 11 -24 9
-17 5 -22 -25 -34 -42 -18 -46 -24 -11 -17 32 6 31 -2 0 -40 -29 -34 -26 -51
4 -24 19 17 19 17 12 -16 -10 -42 -40 -90 -52 -82 -5 3 -9 -1 -9 -8 0 -10 -3
-9 -9 2 -6 8 -7 18 -5 22 3 5 0 7 -8 6 -10 -2 -12 16 -10 82 3 94 17 150 36
150 8 0 13 11 12 30 0 16 1 29 4 28 3 0 21 9 40 21 38 23 107 26 102 3z m678
-217 c0 0 -11 -2 -25 -3 -27 -2 -28 -1 -19 21 5 14 8 13 25 -1 10 -9 19 -17
19 -17z m380 -86 c0 -15 -27 -22 -55 -15 -48 12 -19 37 33 28 12 -3 22 -8 22
-13z m-295 -40 l30 -19 -35 0 c-37 1 -70 19 -70 39 0 15 33 6 75 -20z"/>
<path d="M3317 1609 c7 -7 15 -10 18 -7 3 3 -2 9 -12 12 -14 6 -15 5 -6 -5z"/>
<path d="M3289 1589 c-7 -4 -18 -5 -24 -1 -5 3 -4 -2 4 -11 15 -19 26 -23 15
-5 -5 7 -2 9 7 6 8 -3 23 -2 33 2 19 6 19 7 -1 12 -11 3 -27 2 -34 -3z"/>
<path d="M2186 1842 c-3 -5 1 -9 9 -9 8 0 12 4 9 9 -3 4 -7 8 -9 8 -2 0 -6 -4
-9 -8z"/>
<path d="M1880 1590 c0 -5 7 -7 15 -4 8 4 15 8 15 10 0 2 -7 4 -15 4 -8 0 -15
-4 -15 -10z"/>
</g>
</svg>
