<?xml version="1.0" standalone="no"?>
<!DOCTYPE svg PUBLIC "-//W3C//DTD SVG 20010904//EN"
 "http://www.w3.org/TR/2001/REC-SVG-20010904/DTD/svg10.dtd">
<svg version="1.0" xmlns="http://www.w3.org/2000/svg"
 width="450.000000pt" height="253.000000pt" viewBox="0 0 450.000000 253.000000"
 preserveAspectRatio="xMidYMid meet">
<metadata>
Created by potrace 1.16, written by Peter Selinger 2001-2019
</metadata>
<g transform="translate(0.000000,253.000000) scale(0.100000,-0.100000)"
fill="#000000" stroke="none">
<path d="M0 1265 l0 -1265 2250 0 2250 0 0 1265 0 1265 -2250 0 -2250 0 0
-1265z m3295 749 c124 -17 205 -53 234 -104 23 -42 24 -49 11 -66 -18 -21 25
-70 73 -84 26 -7 64 -28 86 -46 43 -37 75 -90 60 -100 -5 -3 -18 -22 -28 -43
-12 -23 -33 -44 -58 -55 -21 -11 -45 -23 -53 -27 -8 -5 -33 -18 -55 -30 -22
-12 -42 -23 -44 -25 -2 -2 13 -29 33 -59 47 -68 65 -116 66 -178 0 -39 -6 -55
-31 -87 -33 -41 -77 -63 -107 -54 -9 3 -24 8 -32 11 -21 7 -88 14 -130 12
-175 -4 -217 -1 -287 24 -40 14 -73 23 -73 20 0 -2 -7 2 -15 11 -8 8 -15 19
-15 24 0 6 -7 12 -15 16 -8 3 -15 11 -14 18 0 9 2 10 5 1 3 -7 12 -9 20 -6 9
3 55 0 104 -7 80 -11 93 -11 124 4 50 24 45 34 -14 26 -47 -6 -110 9 -110 26
0 4 3 5 6 1 4 -3 12 0 20 7 7 8 27 12 45 10 18 -2 41 -1 52 2 18 6 18 6 0 20
-12 8 -13 13 -5 14 7 0 10 5 7 10 -8 13 18 8 27 -5 5 -6 8 -4 8 4 0 13 -37 51
-50 51 -3 0 -17 -12 -31 -27 -13 -14 -17 -23 -9 -19 8 4 6 1 -5 -8 -11 -8 -26
-20 -32 -26 -8 -6 -13 -7 -13 -1 0 5 -8 8 -17 6 -10 -2 -37 -4 -60 -4 -35 -1
-41 -4 -36 -17 5 -15 -3 -16 -80 -11 -121 8 -165 35 -212 127 -26 52 -33 86
-14 74 8 -4 9 1 4 17 -4 13 -12 26 -17 28 -6 2 -5 7 2 11 9 6 7 13 -8 28 -18
18 -20 31 -18 109 2 74 6 94 25 119 12 17 23 38 25 46 1 9 8 23 15 32 15 18 6
18 -142 -10 -93 -17 -91 -15 -107 -54 -7 -16 -18 -31 -24 -31 -6 -1 -26 -3
-43 -5 -18 -2 -33 0 -33 4 0 4 -9 18 -20 32 l-20 25 12 -31 c7 -19 8 -38 3
-50 -8 -16 -10 -13 -13 15 -2 19 -10 40 -18 48 -8 8 -14 21 -14 30 0 9 -6 13
-14 10 -8 -3 -17 -2 -20 4 -2 5 -3 4 -1 -3 1 -7 8 -12 15 -10 11 2 11 0 1 -11
-9 -12 -8 -16 4 -21 17 -6 21 -46 5 -46 -9 0 -14 14 -7 24 1 3 -9 16 -22 30
-20 21 -27 24 -40 13 -10 -8 -13 -8 -8 0 4 6 1 14 -5 17 -11 5 -11 7 0 12 6 3
9 10 6 15 -18 29 58 53 84 27 9 -9 12 -9 12 -1 0 7 -10 15 -22 19 l-23 8 25 7
c70 20 426 1 445 -24 10 -14 35 -12 35 4 0 4 -6 6 -14 3 -9 -3 -17 3 -21 17
-15 48 73 90 230 110 44 6 82 13 85 16 5 6 239 -4 305 -13z m-1050 -325 c5
-16 10 -18 21 -8 11 9 14 7 14 -14 0 -36 -13 -40 -45 -15 -20 16 -29 18 -35 8
-5 -9 -9 -9 -14 -1 -4 6 0 14 8 17 9 3 16 10 16 16 0 5 -4 6 -10 3 -12 -7 -12
-3 -4 19 8 20 40 4 49 -25z m-69 -7 c-4 -3 -15 -6 -25 -7 -20 -2 -18 23 3 37
12 8 32 -20 22 -30z m55 -62 c4 0 6 -6 3 -14 -4 -11 -12 -13 -29 -6 -26 10
-47 -4 -38 -26 3 -8 20 -14 41 -14 51 0 25 -24 -28 -25 -21 0 -42 -4 -46 -8
-4 -4 -2 -7 4 -7 17 0 15 -25 -3 -40 -8 -7 -15 -19 -15 -28 0 -10 9 -5 26 14
20 23 23 24 15 7 -7 -13 -10 -23 -8 -23 3 0 -1 -17 -9 -37 -7 -21 -18 -37 -23
-35 -6 1 -11 -5 -11 -13 0 -8 -5 -15 -11 -15 -8 0 -10 20 -6 68 8 95 29 202
38 196 5 -2 5 -12 2 -21 -4 -11 -3 -14 5 -9 7 4 12 13 12 21 0 14 35 25 58 19
8 -2 18 -4 23 -4z m-44 -827 c-2 -21 -4 -4 -4 37 0 41 2 58 4 38 2 -21 2 -55
0 -75z m0 -65 c-3 -8 -6 -5 -6 6 -1 11 2 17 5 13 3 -3 4 -12 1 -19z m0 -70
c-3 -8 -6 -5 -6 6 -1 11 2 17 5 13 3 -3 4 -12 1 -19z"/>
<path d="M3195 1849 c8 -15 20 -31 26 -35 8 -5 9 -3 4 7 -4 8 6 1 24 -16 22
-20 43 -30 69 -31 51 -2 52 -2 50 -16 -5 -21 -22 -36 -37 -30 -10 4 -12 1 -6
-9 7 -11 6 -12 -7 -2 -12 11 -18 10 -30 -5 -24 -28 -28 -50 -11 -56 9 -4 16
-5 17 -4 9 23 27 44 40 46 19 4 46 -15 46 -31 0 -6 -7 -2 -16 9 -13 15 -15 16
-10 2 3 -12 1 -15 -9 -12 -17 7 -55 -51 -55 -82 0 -19 5 -22 40 -21 22 1 40 3
41 6 0 4 2 16 5 28 2 12 -1 25 -6 28 -6 3 -7 -1 -4 -9 4 -9 1 -16 -6 -16 -7 0
-10 -7 -6 -17 5 -15 3 -14 -10 2 -11 13 -15 15 -11 4 3 -9 0 -16 -8 -16 -11 0
-12 5 -3 21 6 12 11 23 10 26 -1 3 4 5 11 5 6 1 11 6 10 11 -1 6 4 11 12 11 8
0 11 -5 8 -10 -3 -5 0 -7 8 -5 8 3 13 11 11 17 -1 7 2 10 7 7 13 -8 31 48 21
64 -7 11 -11 11 -23 1 -13 -10 -15 -9 -10 8 3 13 1 21 -8 21 -10 0 -10 3 -1
12 13 13 16 29 5 26 -14 -3 -63 21 -63 31 0 5 -9 7 -20 4 -12 -3 -20 0 -20 6
0 7 4 10 8 7 5 -3 9 1 9 9 0 8 -4 12 -8 9 -4 -2 -10 0 -14 6 -8 13 -25 13 -25
-1 0 -5 4 -8 8 -5 4 2 8 -4 8 -15 0 -19 -1 -20 -14 -2 -7 10 -15 17 -18 15 -3
-2 -9 0 -12 4 -4 4 -1 4 6 0 7 -4 12 -1 12 8 0 10 -10 14 -29 14 -29 -1 -30
-1 -16 -29z m130 -48 c3 -5 2 -12 -3 -15 -5 -3 -9 1 -9 9 0 17 3 19 12 6z"/>
<path d="M3408 1645 c-25 -33 -23 -44 3 -17 11 13 19 27 17 31 -2 5 -11 -1
-20 -14z"/>
<path d="M3336 1608 c3 -5 10 -6 15 -3 13 9 11 12 -6 12 -8 0 -12 -4 -9 -9z"/>
<path d="M3247 1595 c-8 -20 -4 -29 11 -24 5 2 6 13 2 23 -6 19 -7 19 -13 1z"/>
<path d="M3096 1581 c-7 -11 22 -30 54 -36 11 -2 23 1 26 7 4 6 2 8 -4 4 -6
-3 -14 -1 -17 5 -4 5 -13 8 -21 5 -8 -3 -13 0 -11 6 3 14 -19 22 -27 9z"/>
<path d="M3276 1535 c-38 -32 -61 -115 -36 -130 5 -3 7 -12 4 -20 -3 -8 4 -18
18 -25 21 -10 21 -10 6 3 -10 8 -18 16 -18 18 0 9 69 8 74 0 4 -5 -3 -7 -14
-4 -16 4 -20 0 -20 -17 0 -18 3 -20 14 -11 12 10 13 9 9 -8 -4 -15 0 -19 13
-17 10 2 20 9 22 17 3 11 1 11 -7 -1 -8 -11 -11 -11 -11 -2 0 7 7 15 16 19 8
3 13 12 9 21 -5 13 -3 13 12 1 12 -10 15 -10 9 -1 -4 7 -3 18 3 25 5 7 9 19 7
27 -5 32 -18 60 -27 60 -13 0 -11 -13 4 -30 10 -12 9 -12 -6 -1 -9 8 -16 19
-16 25 1 6 -1 22 -5 36 -7 27 -38 35 -60 15z m27 -96 c-8 -10 -9 -19 -3 -27 6
-7 7 -10 4 -7 -4 3 -13 0 -21 -7 -21 -17 -36 3 -24 33 7 18 10 20 10 6 1 -10
6 -15 11 -12 6 4 8 11 5 16 -9 14 -15 53 -7 45 7 -7 8 -11 11 -37 0 -5 5 -8 9
-5 5 3 7 20 6 38 l-3 33 8 -30 c5 -20 3 -35 -6 -46z"/>
<path d="M3266 1408 c3 -5 10 -6 15 -3 13 9 11 12 -6 12 -8 0 -12 -4 -9 -9z"/>
<path d="M3200 1521 c-18 -5 -21 -9 -10 -13 22 -8 34 -5 36 10 1 6 2 12 1 11
-1 -1 -13 -4 -27 -8z"/>
<path d="M3170 1483 c0 -6 -14 -13 -31 -17 -29 -5 -33 -26 -5 -26 17 0 51 38
43 47 -4 3 -7 2 -7 -4z"/>
<path d="M3385 1400 c-6 -9 -4 -11 5 -5 10 6 12 4 7 -8 -9 -23 8 -30 24 -9 7
9 9 14 5 10 -5 -4 -14 0 -21 9 -9 13 -14 13 -20 3z"/>
<path d="M3007 1316 c-9 -13 -13 -26 -10 -30 9 -8 43 24 43 41 0 20 -16 15
-33 -11z"/>
<path d="M3253 1292 c1 -14 5 -18 11 -12 7 7 6 14 -1 21 -9 9 -12 7 -10 -9z"/>
<path d="M3150 1176 c0 -2 7 -6 15 -10 8 -3 15 -1 15 4 0 6 -7 10 -15 10 -8 0
-15 -2 -15 -4z"/>
</g>
</svg>
