<?xml version="1.0" standalone="no"?>
<!DOCTYPE svg PUBLIC "-//W3C//DTD SVG 20010904//EN"
 "http://www.w3.org/TR/2001/REC-SVG-20010904/DTD/svg10.dtd">
<svg version="1.0" xmlns="http://www.w3.org/2000/svg"
 width="450.000000pt" height="253.000000pt" viewBox="0 0 450.000000 253.000000"
 preserveAspectRatio="xMidYMid meet">
<metadata>
Created by potrace 1.16, written by Peter Selinger 2001-2019
</metadata>
<g transform="translate(0.000000,253.000000) scale(0.100000,-0.100000)"
fill="#000000" stroke="none">
<path d="M0 1265 l0 -1265 2250 0 2250 0 0 1265 0 1265 -645 0 -645 0 20 -32
c42 -70 44 -80 43 -241 -1 -87 -5 -173 -8 -190 -3 -18 -3 -27 2 -22 13 16 43
14 43 -2 0 -11 7 -14 25 -11 13 3 23 2 21 -1 -2 -3 14 -14 35 -23 35 -15 41
-15 46 -2 6 16 63 49 63 37 0 -5 5 -1 10 7 8 12 10 12 10 1 0 -10 3 -11 13 -2
8 6 17 8 21 4 3 -4 16 -8 27 -10 11 -2 45 -19 75 -38 30 -20 59 -33 65 -30 5
4 9 2 9 -4 0 -5 17 -15 38 -21 20 -7 45 -19 55 -28 9 -8 17 -11 17 -6 0 5 8
-3 18 -19 10 -15 21 -24 25 -21 3 3 3 -3 0 -15 -3 -13 -1 -21 7 -21 7 0 9 -8
5 -20 -3 -11 -9 -32 -11 -47 -7 -37 -48 -89 -92 -117 -21 -13 -44 -31 -52 -41
-37 -45 -137 -103 -196 -115 -85 -17 -89 -20 -67 -61 21 -39 22 -55 5 -86 -9
-17 -8 -30 5 -65 24 -64 24 -232 -1 -278 -21 -40 -82 -100 -101 -100 -8 0 -15
-6 -17 -12 -4 -10 -33 -7 -129 11 -68 13 -145 30 -171 37 -27 7 -48 11 -48 8
0 -2 -19 5 -41 17 l-42 21 6 -29 c4 -15 9 -38 13 -49 5 -18 -1 -24 -39 -39
-24 -9 -50 -16 -58 -14 -8 1 -22 -1 -31 -5 -23 -10 -93 39 -143 101 -21 27
-57 60 -78 74 -43 27 -97 94 -97 120 0 11 -11 20 -29 24 -21 4 -33 17 -47 48
-21 48 -93 147 -105 147 -5 0 -9 -6 -9 -14 0 -8 -7 -17 -16 -20 -13 -5 -14 -3
-6 7 6 7 12 32 13 55 2 23 7 42 11 42 13 0 9 65 -4 79 -10 11 -10 13 0 7 6 -4
12 -6 12 -4 1 2 3 20 6 42 3 21 2 36 -3 33 -4 -3 -8 11 -9 30 0 19 -7 39 -15
44 -8 5 -10 9 -5 9 5 0 2 8 -5 17 -10 11 -10 14 -2 9 10 -5 11 -1 3 19 -7 17
-7 24 0 20 6 -3 10 3 10 14 0 12 -4 21 -9 21 -5 0 -8 8 -6 18 1 9 -3 23 -9 31
-9 12 -8 13 3 7 8 -5 17 -3 22 5 12 19 11 31 -2 23 -6 -3 -4 5 5 19 10 14 19
38 22 53 9 46 9 47 23 86 7 21 9 43 5 50 -5 10 -4 10 5 2 9 -8 20 -4 43 17 16
16 34 26 39 23 5 -3 9 0 9 6 0 6 5 8 12 4 8 -5 9 -2 4 11 -5 15 -4 16 8 6 11
-10 17 -6 28 17 8 15 14 38 13 50 -1 12 3 18 8 15 6 -4 8 0 4 10 -4 12 -2 14
11 10 9 -3 14 -3 10 2 -4 4 -3 14 3 21 6 8 9 21 5 29 -3 9 -2 13 3 10 5 -3 13
4 16 16 4 11 9 18 12 15 3 -2 18 7 34 21 28 25 28 27 12 47 -12 14 -13 17 -3
9 10 -7 21 -8 30 -3 12 7 12 11 -1 27 -12 16 -12 17 2 6 9 -7 20 -9 24 -5 5 4
5 1 0 -7 -6 -10 -4 -12 6 -5 8 5 19 9 24 9 6 0 9 8 9 17 -1 10 4 14 12 11 8
-3 16 2 20 10 3 8 17 18 30 21 14 4 22 11 19 15 -3 5 1 12 7 14 7 3 -625 6
-1404 6 l-1418 1 0 -1265z m2751 1218 c13 -16 12 -17 -3 -4 -10 7 -18 15 -18
17 0 8 8 3 21 -13z m-121 -47 c0 -2 -8 -10 -17 -17 -16 -13 -17 -12 -4 4 13
16 21 21 21 13z m-115 -245 c3 -5 2 -12 -3 -15 -5 -3 -9 1 -9 9 0 17 3 19 12
6z m820 -120 c3 -5 2 -12 -3 -15 -5 -3 -9 1 -9 9 0 17 3 19 12 6z m-1945 -175
c0 -2 -8 -10 -17 -17 -16 -13 -17 -12 -4 4 13 16 21 21 21 13z m917 -648 c-3
-8 -6 -5 -6 6 -1 11 2 17 5 13 3 -3 4 -12 1 -19z m1 -43 c-3 -3 -9 2 -12 12
-6 14 -5 15 5 6 7 -7 10 -15 7 -18z m86 -687 c-2 -24 -4 -52 -4 -63 -1 -15 -3
-17 -10 -6 -5 8 -3 24 3 39 9 20 9 26 -1 30 -8 2 -9 9 -2 23 15 28 17 24 14
-23z m-7 -120 c-3 -7 -5 -2 -5 12 0 14 2 19 5 13 2 -7 2 -19 0 -25z"/>
<path d="M2584 1921 c5 -7 -3 -12 -21 -13 -15 0 -34 -2 -41 -2 -7 -1 -17 -8
-22 -16 -5 -8 -10 -10 -10 -5 0 6 -7 -1 -14 -14 -8 -14 -11 -31 -9 -39 3 -7
-4 -22 -17 -34 -14 -13 -20 -28 -17 -44 2 -13 1 -21 -4 -19 -4 3 -7 -26 -6
-64 2 -63 4 -68 18 -55 8 8 20 14 25 14 6 0 8 15 6 33 -3 28 2 38 30 62 18 15
36 36 40 46 4 11 17 19 28 19 27 0 43 40 22 56 -17 12 -10 18 31 28 26 6 35
28 12 27 -6 0 -21 7 -34 16 -13 8 -20 10 -17 4z"/>
<path d="M2823 1896 c10 -8 27 -12 37 -9 33 9 22 23 -17 23 -34 -1 -36 -2 -20
-14z"/>
<path d="M3000 1903 c-11 -3 -15 -16 -15 -46 0 -23 -4 -52 -8 -64 -7 -20 -5
-23 19 -23 30 0 112 -74 94 -85 -8 -5 -7 -11 1 -22 10 -12 10 -16 -2 -24 -22
-14 -44 -6 -47 17 -3 22 -31 41 -67 46 -13 2 -24 -6 -33 -24 -7 -16 -18 -28
-23 -28 -6 0 -8 -4 -4 -9 3 -5 2 -12 -3 -15 -4 -2 -9 6 -10 20 -1 13 -3 32 -4
42 0 9 2 25 6 34 6 13 3 15 -12 11 -20 -5 -20 -3 -6 37 8 24 13 44 11 46 -2 3
-21 -3 -43 -12 -22 -9 -40 -12 -42 -6 -10 32 -28 43 -55 33 -21 -8 -27 -8 -27
3 0 9 -7 12 -19 9 -17 -4 -18 -9 -9 -34 6 -17 17 -29 27 -29 21 0 58 -26 50
-34 -3 -3 -20 1 -37 9 -28 14 -34 14 -59 1 l-28 -14 40 -8 c22 -4 52 -16 66
-27 l27 -19 -21 -37 c-11 -20 -29 -47 -39 -60 -25 -32 -23 -41 9 -41 30 0 21
-16 -12 -22 -13 -2 -20 -12 -21 -28 -1 -13 -7 -26 -13 -28 -17 -6 -3 -22 19
-22 11 0 30 -11 44 -25 l25 -25 -42 6 -42 7 22 -24 c26 -29 29 -43 20 -91 -5
-23 -14 -38 -22 -38 -19 0 -19 -24 0 -40 8 -7 15 -23 15 -36 0 -22 -7 -26 -37
-23 -5 0 -7 6 -5 14 1 7 -4 15 -13 18 -8 4 -12 13 -9 22 3 8 1 15 -5 15 -6 0
-11 -6 -11 -14 0 -8 -6 -17 -12 -19 -8 -3 -7 -6 4 -6 9 -1 20 -6 24 -13 5 -7
3 -8 -5 -3 -9 5 -9 1 1 -16 15 -26 48 -62 48 -53 0 4 8 0 17 -7 11 -10 14 -10
9 -1 -10 17 -2 15 41 -8 21 -11 51 -20 68 -20 36 1 70 24 59 41 -4 8 -3 10 4
5 16 -10 15 2 -2 19 -7 8 -16 11 -19 8 -10 -9 -58 7 -52 17 8 13 -1 13 -25 0
-17 -9 -22 -5 -35 27 -9 20 -18 48 -22 61 -5 23 -4 23 18 10 13 -7 32 -19 41
-27 15 -12 18 -11 24 3 4 9 -1 25 -10 35 -23 25 -20 31 13 21 25 -7 29 -6 24
8 -4 10 -11 21 -17 25 -6 4 0 5 14 2 21 -5 29 -1 39 19 14 25 37 36 80 36 14
0 33 8 44 17 18 17 19 17 28 0 6 -9 16 -17 23 -17 19 0 66 24 67 35 1 6 2 22
3 36 2 14 5 33 9 42 6 16 -16 18 -30 2 -4 -4 -2 -5 5 -1 7 4 12 1 12 -8 0 -8
-7 -13 -17 -11 -10 2 -21 4 -25 4 -5 1 -8 13 -7 29 0 24 1 25 10 7 7 -14 8 -7
4 28 -4 37 -2 46 8 40 22 -14 75 -11 81 4 3 8 9 12 13 10 5 -3 14 1 21 9 7 8
8 14 2 14 -5 0 -10 5 -10 11 0 5 5 7 12 3 8 -5 9 -2 3 12 -13 31 -17 136 -4
128 8 -4 8 -1 0 14 -8 15 -8 23 1 28 6 4 8 3 5 -3 -4 -6 0 -14 9 -17 8 -3 12
-2 9 4 -3 6 1 7 9 4 9 -3 16 -2 16 4 0 13 -28 36 -48 39 -9 1 -25 13 -35 27
-11 15 -24 23 -30 19 -22 -14 -42 -12 -61 5 -11 9 -16 11 -12 4 5 -9 -2 -11
-29 -7 -19 2 -39 6 -43 8 -4 2 -14 2 -22 0z m100 -36 c0 -4 -4 -16 -9 -26 -7
-13 -6 -18 4 -18 7 0 11 7 7 15 -4 11 -1 13 8 7 9 -6 11 -4 5 6 -8 12 -6 12 8
0 21 -17 22 -31 2 -31 -8 0 -24 -9 -35 -20 -11 -11 -31 -20 -45 -20 -27 0 -32
9 -13 28 7 7 8 12 3 12 -5 0 0 7 11 15 18 14 18 14 -3 10 -15 -2 -23 1 -23 10
0 13 21 20 63 20 9 1 17 -3 17 -8z m61 -4 c12 -16 12 -17 -2 -6 -9 7 -20 9
-24 5 -5 -4 -5 -1 -1 6 9 16 11 15 27 -5z m-307 -219 c20 -19 11 -37 -15 -29
-22 7 -26 -13 -4 -21 18 -7 20 -34 3 -34 -6 0 -8 -3 -4 -7 4 -4 23 -6 42 -5
l36 3 -21 -27 c-12 -15 -35 -36 -51 -46 -17 -10 -30 -26 -30 -35 -1 -17 -1
-17 -11 -1 -8 14 -5 23 11 40 l21 23 -31 14 c-37 18 -41 44 -5 35 19 -5 25 -2
25 9 0 9 -7 20 -15 25 -13 6 -14 14 -6 34 5 14 7 29 4 32 -4 3 3 6 15 6 11 0
28 -7 36 -16z m170 -76 c-3 -4 -12 -8 -20 -8 -8 0 -13 4 -10 8 3 5 12 9 20 9
8 0 13 -4 10 -9z m36 -46 c7 2 14 -5 15 -14 3 -14 -4 -18 -25 -18 -33 0 -43
11 -34 34 5 12 10 14 19 6 7 -6 18 -9 25 -8z m-321 -41 c-15 -5 -22 6 -14 19
6 9 10 9 16 -1 5 -8 4 -15 -2 -18z m239 -48 c-12 -21 -23 -40 -24 -42 -2 -2
-10 4 -19 13 -15 14 -15 16 -1 16 9 0 23 11 32 25 26 39 36 29 12 -12z m-65
-3 c-7 -25 -23 -37 -23 -16 0 23 11 46 20 41 5 -3 6 -14 3 -25z"/>
<path d="M2736 1882 c-3 -5 1 -9 9 -9 8 0 12 4 9 9 -3 4 -7 8 -9 8 -2 0 -6 -4
-9 -8z"/>
<path d="M2645 1780 c3 -5 8 -10 11 -10 2 0 4 5 4 10 0 6 -5 10 -11 10 -5 0
-7 -4 -4 -10z"/>
<path d="M2557 1709 c-15 -16 -27 -38 -27 -50 0 -11 -7 -30 -14 -42 -8 -12
-14 -31 -12 -42 3 -16 10 -19 35 -17 l32 2 -16 -30 c-8 -16 -15 -33 -14 -37 0
-4 -8 -10 -18 -14 -11 -5 -13 -8 -4 -8 15 -1 40 -29 41 -45 0 -6 -9 0 -20 11
-20 22 -76 40 -88 28 -7 -6 36 -44 50 -45 12 0 108 -98 108 -110 0 -5 5 -10
10 -10 6 0 10 -6 10 -12 0 -15 41 -36 58 -30 24 8 12 50 -23 81 -20 17 -40 31
-45 31 -6 0 -10 4 -10 10 0 5 13 7 29 4 16 -4 32 -1 35 5 4 7 -1 11 -12 11
-29 0 -46 24 -27 40 17 14 21 35 5 25 -5 -3 -10 -2 -10 3 0 6 -11 13 -25 16
-27 7 -35 36 -10 36 8 0 15 4 15 9 0 5 14 14 30 20 17 5 30 15 30 20 0 6 7 11
15 11 20 0 19 13 -3 41 l-19 22 -27 -44 -26 -44 2 33 c1 20 9 34 19 37 10 3
20 12 23 20 7 20 36 19 36 0 0 -8 7 -15 15 -15 20 0 19 24 -1 44 -18 18 -40
21 -49 6 -8 -14 -44 10 -38 26 2 7 -4 17 -14 22 -15 8 -24 4 -46 -19z"/>
<path d="M2970 1736 c0 -2 9 -6 20 -9 11 -3 20 -1 20 4 0 5 -9 9 -20 9 -11 0
-20 -2 -20 -4z"/>
<path d="M3007 1334 c-4 -4 1 -20 10 -35 20 -34 12 -46 -21 -31 -22 10 -24 9
-21 -7 2 -12 -2 -18 -12 -17 -9 0 -18 -5 -20 -12 -4 -11 2 -10 28 1 19 8 42
13 51 11 13 -1 21 9 28 37 6 22 8 44 5 49 -7 11 -38 13 -48 4z"/>
<path d="M3091 1282 c-22 -41 -11 -53 24 -27 17 14 18 17 3 31 -15 15 -17 15
-27 -4z"/>
<path d="M2550 1191 c0 -6 5 -11 11 -11 6 0 9 -7 6 -15 -4 -8 -1 -17 5 -21 6
-4 8 -3 5 3 -4 6 1 17 10 24 9 8 17 12 19 9 1 -3 6 -1 11 3 4 5 -3 8 -17 6
-14 -2 -31 0 -37 4 -8 5 -13 4 -13 -2z"/>
</g>
</svg>
