<?xml version="1.0" standalone="no"?>
<!DOCTYPE svg PUBLIC "-//W3C//DTD SVG 20010904//EN"
 "http://www.w3.org/TR/2001/REC-SVG-20010904/DTD/svg10.dtd">
<svg version="1.0" xmlns="http://www.w3.org/2000/svg"
 width="450.000000pt" height="253.000000pt" viewBox="0 0 450.000000 253.000000"
 preserveAspectRatio="xMidYMid meet">
<metadata>
Created by potrace 1.16, written by Peter Selinger 2001-2019
</metadata>
<g transform="translate(0.000000,253.000000) scale(0.100000,-0.100000)"
fill="#000000" stroke="none">
<path d="M0 1265 l0 -1265 2250 0 2250 0 0 1265 0 1265 -2250 0 -2250 0 0
-1265z m2860 649 c73 -24 115 -41 135 -57 6 -4 39 -26 75 -50 79 -52 145 -117
154 -152 5 -18 1 -37 -12 -58 -19 -34 -49 -48 -49 -23 0 8 4 13 9 10 4 -3 8 0
8 6 0 6 4 9 9 6 5 -3 11 3 14 14 5 19 -4 24 -40 23 -7 -1 -13 3 -13 7 0 4 -12
8 -27 8 -16 1 -37 3 -48 6 -11 2 -25 -1 -32 -6 -6 -5 -26 -11 -45 -13 -18 -2
-48 -7 -65 -10 -18 -3 -33 -2 -33 2 0 5 -14 8 -30 7 -17 -1 -32 2 -35 7 -3 4
-12 6 -20 3 -7 -3 -22 0 -32 6 -17 11 -17 11 2 6 17 -5 16 -3 -4 11 -24 18
-71 26 -71 13 0 -9 -44 -5 -61 6 -8 5 -9 3 -3 -7 5 -9 -2 -8 -20 5 -16 10 -25
13 -21 6 4 -7 -5 -4 -21 6 -29 18 -29 18 -14 -1 14 -19 14 -19 -6 -2 -11 9
-29 17 -38 17 -15 0 -17 5 -11 28 13 53 12 91 -3 97 -9 3 -12 13 -9 25 4 15 0
20 -14 20 -30 0 -33 -26 -10 -70 19 -37 19 -44 -1 -41 -5 0 -8 -5 -8 -13 0 -8
-5 -18 -12 -22 -7 -5 -8 -3 -3 6 6 9 4 11 -4 6 -7 -5 -10 -13 -8 -20 3 -8 -7
-12 -32 -11 -48 2 -51 24 -15 93 30 57 59 78 159 112 76 27 211 24 305 -6z
m-521 -32 c17 -10 26 -11 29 -4 4 14 32 4 32 -12 0 -12 -77 -56 -105 -60 -20
-3 -28 -13 -32 -38 -6 -36 -23 -49 -65 -46 -21 1 -43 -3 -50 -10 -18 -18 -30
-14 -23 7 9 30 -32 35 -61 6 -28 -28 -31 -24 -8 10 19 29 11 45 -22 45 -14 0
-23 5 -21 12 1 7 -8 14 -21 16 -16 2 -22 8 -18 18 3 8 -1 17 -9 20 -8 4 -15
12 -15 20 0 9 -12 14 -37 14 -27 0 -34 3 -24 9 8 5 107 9 220 9 165 -1 211 -4
230 -16z m-477 -14 c9 -7 18 -25 20 -40 5 -27 4 -28 -37 -28 -37 0 -43 3 -47
24 -9 48 27 72 64 44z m-99 -105 c6 17 28 24 26 10 -3 -20 2 -34 11 -28 6 3 7
-1 4 -10 -4 -10 -13 -13 -26 -9 -13 4 -18 2 -14 -4 3 -5 -1 -15 -9 -22 -27
-22 -16 -29 23 -14 20 9 50 29 65 45 29 30 44 38 31 17 -5 -8 -2 -9 10 -5 11
4 15 3 11 -4 -4 -6 -12 -8 -19 -6 -17 7 -35 -18 -25 -34 7 -11 14 -11 41 5 33
19 33 19 16 -1 -24 -26 -23 -37 3 -30 43 11 65 -14 29 -33 -16 -9 -19 -8 -13
6 5 14 3 15 -15 5 -14 -7 -28 -8 -39 -3 -33 17 -99 20 -124 6 -13 -7 -18 -13
-10 -14 8 0 4 -8 -10 -19 l-24 -19 65 4 c61 4 63 3 33 -8 -41 -16 -42 -26 -6
-49 29 -19 28 -20 -19 -23 -36 -2 -49 -16 -15 -16 15 0 27 -3 28 -7 0 -5 2
-19 4 -33 4 -39 -24 -100 -46 -100 -10 0 -19 -4 -19 -9 0 -5 -11 -11 -25 -13
-14 -3 -25 -2 -25 2 0 4 -9 10 -20 13 -14 3 -18 1 -13 -6 4 -7 8 -16 8 -22 1
-5 7 -8 15 -7 8 2 11 0 7 -4 -13 -14 -35 -13 -41 2 -3 8 0 14 7 14 7 0 8 3 2
8 -18 13 -17 202 2 254 9 27 21 48 25 48 4 0 7 5 6 12 -2 7 2 13 7 13 20 3 45
17 45 27 0 5 -4 6 -10 3 -15 -9 -12 7 7 45 14 29 17 31 23 15 6 -17 7 -17 13
-2z m242 -23 c3 -5 1 -10 -4 -10 -6 0 -11 5 -11 10 0 6 2 10 4 10 3 0 8 -4 11
-10z m-25 -184 c0 -3 -4 -8 -10 -11 -5 -3 -10 -1 -10 4 0 6 5 11 10 11 6 0 10
-2 10 -4z m1170 0 c0 -2 -7 -7 -16 -10 -8 -3 -12 -2 -9 4 6 10 25 14 25 6z
m-170 -66 c-8 -6 -22 -10 -30 -9 -9 0 -5 6 10 14 27 14 44 10 20 -5z"/>
<path d="M2795 1771 c39 -10 78 -22 88 -26 13 -5 16 -3 12 8 -10 23 -52 37
-113 36 l-57 0 70 -18z"/>
<path d="M2058 1873 c7 -3 16 -2 19 1 4 3 -2 6 -13 5 -11 0 -14 -3 -6 -6z"/>
<path d="M1745 1463 l-17 -28 23 22 c12 12 20 25 17 28 -3 3 -13 -7 -23 -22z"/>
</g>
</svg>
