<?xml version="1.0" standalone="no"?>
<!DOCTYPE svg PUBLIC "-//W3C//DTD SVG 20010904//EN"
 "http://www.w3.org/TR/2001/REC-SVG-20010904/DTD/svg10.dtd">
<svg version="1.0" xmlns="http://www.w3.org/2000/svg"
 width="450.000000pt" height="253.000000pt" viewBox="0 0 450.000000 253.000000"
 preserveAspectRatio="xMidYMid meet">
<metadata>
Created by potrace 1.16, written by Peter Selinger 2001-2019
</metadata>
<g transform="translate(0.000000,253.000000) scale(0.100000,-0.100000)"
fill="#000000" stroke="none">
<path d="M0 1265 l0 -1265 2250 0 2250 0 0 1265 0 1265 -2250 0 -2250 0 0
-1265z m2643 1136 c20 -16 85 -22 147 -12 27 4 52 6 55 3 3 -3 19 -7 35 -9 17
-1 45 -11 63 -20 18 -9 35 -17 38 -18 9 0 99 -99 99 -108 0 -5 5 -5 10 -2 6 4
9 3 8 -2 -3 -12 12 -53 21 -53 4 0 7 -9 8 -21 1 -11 16 -37 34 -57 30 -34 58
-47 142 -67 9 -2 29 7 42 20 55 50 143 43 288 -21 53 -24 100 -44 104 -44 17
0 91 -73 97 -95 4 -14 10 -25 14 -25 12 0 6 -84 -8 -109 -6 -12 -7 -21 -4 -21
13 0 -210 -212 -239 -227 -16 -8 -63 -26 -105 -39 -43 -14 -80 -29 -85 -33 -4
-4 6 -25 22 -47 49 -68 66 -128 66 -234 -1 -108 -14 -144 -67 -181 -18 -13
-38 -30 -45 -39 -7 -8 -13 -11 -13 -6 0 4 -10 2 -23 -7 -58 -38 -222 -48 -366
-21 -90 16 -191 48 -228 72 -23 14 -59 10 -49 -6 3 -5 -12 -14 -34 -21 -31 -9
-41 -18 -46 -39 -20 -93 -77 -150 -204 -204 -127 -54 -251 -38 -312 39 -26 33
-89 192 -90 223 0 8 3 52 6 97 3 45 2 84 -2 87 -4 2 -58 7 -120 10 -128 8
-217 31 -309 83 -60 33 -123 94 -123 119 0 7 -4 14 -9 16 -6 2 -12 32 -15 68
-4 51 -2 71 13 95 27 46 103 135 115 135 3 0 26 15 52 33 25 17 51 35 58 39 6
3 28 17 50 29 l39 22 -29 21 c-82 59 -150 155 -184 261 -19 56 -20 75 -4 113
7 18 13 38 11 45 -1 6 6 11 16 12 10 0 21 5 25 12 4 6 41 21 82 32 101 28 257
28 355 0 39 -12 105 -21 150 -23 79 -1 81 -1 115 33 45 44 100 80 146 96 47
16 167 13 187 -4z"/>
<path d="M2615 2009 c-4 -6 -5 -12 -2 -15 2 -3 7 2 10 11 7 17 1 20 -8 4z"/>
<path d="M2620 1976 c0 -2 8 -10 18 -17 15 -13 16 -12 3 4 -13 16 -21 21 -21
13z"/>
<path d="M2695 1900 c-3 -6 1 -7 9 -4 18 7 21 14 7 14 -6 0 -13 -4 -16 -10z"/>
<path d="M2631 1890 c-13 -7 -12 -15 4 -50 18 -39 18 -43 2 -52 -10 -5 -15
-13 -12 -19 4 -5 -2 -6 -11 -2 -13 5 -16 3 -11 -10 3 -9 2 -19 -2 -21 -5 -3
-11 -19 -15 -36 -6 -33 10 -67 52 -108 13 -12 20 -27 17 -32 -3 -6 1 -13 9
-16 11 -4 13 -14 9 -36 -5 -27 -4 -30 15 -24 12 4 30 2 42 -4 21 -11 21 -12
24 42 2 33 0 31 61 60 41 19 50 28 50 49 0 14 6 33 13 41 10 13 10 17 -3 22
-25 9 -64 -15 -70 -44 -7 -33 -44 -55 -76 -45 -41 13 -121 107 -105 123 3 3 6
0 6 -6 0 -6 12 -4 33 6 24 12 28 17 15 20 -19 4 -25 32 -8 32 13 0 13 33 1 46
-5 5 -13 23 -18 41 -6 25 -11 30 -22 23z"/>
<path d="M2870 1891 c0 -12 29 -23 42 -15 6 4 5 10 -3 15 -18 11 -39 11 -39 0z"/>
<path d="M3036 1812 c-3 -5 1 -9 9 -9 8 0 12 4 9 9 -3 4 -7 8 -9 8 -2 0 -6 -4
-9 -8z"/>
<path d="M2443 1803 c-13 -2 -23 -7 -24 -11 0 -4 -2 -14 -4 -23 -5 -26 20 -18
38 13 9 15 15 27 14 27 -1 -1 -12 -4 -24 -6z"/>
<path d="M2333 1726 c9 -9 18 -22 18 -27 1 -5 2 -13 3 -18 0 -5 13 -20 27 -34
25 -26 26 -26 42 -6 21 24 21 29 2 29 -8 0 -21 14 -30 30 -9 17 -22 30 -29 30
-8 0 -23 3 -33 7 -17 7 -17 6 0 -11z"/>
<path d="M1540 1598 c-7 -18 -18 -39 -24 -47 -6 -8 -11 -24 -11 -37 -1 -12 -9
-32 -19 -43 -19 -21 -15 -41 7 -37 7 1 29 14 47 28 29 22 34 33 33 65 -1 21 3
45 8 54 6 12 3 22 -10 33 -17 16 -19 15 -31 -16z"/>
<path d="M2556 1591 c-3 -5 -24 -7 -46 -4 -42 6 -54 -8 -23 -25 9 -6 14 -16
10 -25 -4 -11 3 -19 25 -26 29 -10 30 -12 15 -29 -25 -27 -21 -32 23 -32 31 0
40 4 41 18 0 11 2 12 6 4 4 -10 8 -10 19 -1 17 14 18 36 2 42 -10 3 -10 11 -1
35 6 17 8 31 5 30 -4 -1 -20 4 -35 10 -34 14 -34 14 -41 3z m18 -97 c3 -8 2
-12 -4 -9 -6 3 -10 10 -10 16 0 14 7 11 14 -7z"/>
<path d="M2400 1563 c0 -13 5 -23 10 -23 13 0 13 11 0 30 -8 12 -10 11 -10 -7z"/>
<path d="M1885 1560 c3 -4 21 -10 40 -12 24 -3 32 -1 25 6 -12 12 -72 17 -65
6z"/>
<path d="M1990 1510 c0 -5 4 -10 9 -10 6 0 13 5 16 10 3 6 -1 10 -9 10 -9 0
-16 -4 -16 -10z"/>
<path d="M2282 1479 c2 -6 8 -10 13 -10 5 0 11 4 13 10 2 6 -4 11 -13 11 -9 0
-15 -5 -13 -11z"/>
<path d="M2415 1480 c-3 -6 1 -7 9 -4 18 7 21 14 7 14 -6 0 -13 -4 -16 -10z"/>
<path d="M2320 1451 c-14 -4 -39 -11 -57 -15 -17 -5 -34 -15 -38 -24 -8 -22 0
-25 18 -8 9 10 23 13 33 9 11 -4 15 -3 10 5 -5 8 5 7 31 -2 20 -7 38 -17 40
-22 6 -17 -21 -43 -49 -47 -36 -4 -48 -17 -17 -17 13 0 37 7 54 16 16 8 26 12
23 8 -4 -4 -1 -16 7 -28 19 -26 20 -92 1 -103 -22 -12 -31 -60 -12 -60 9 0 16
6 16 13 0 15 34 36 44 27 6 -6 10 13 7 31 -1 4 7 16 19 26 11 9 20 22 20 27 0
15 49 23 106 18 27 -3 42 -2 34 2 -29 11 -50 36 -50 60 0 12 5 23 10 23 6 0
10 4 10 9 0 14 -91 24 -104 11 -8 -8 -7 -13 3 -19 20 -13 -5 -24 -36 -16 -23
5 -25 4 -14 -9 8 -9 20 -16 27 -16 8 0 14 -4 14 -10 0 -13 -3 -13 -45 7 -20 9
-34 22 -31 28 2 6 -5 17 -16 24 -14 9 -18 19 -14 37 7 26 1 27 -44 15z"/>
<path d="M2070 1440 c-18 -4 -21 -8 -12 -14 11 -6 9 -13 -9 -32 -26 -27 -20
-55 11 -47 11 3 30 17 43 32 12 14 29 25 38 23 17 -3 46 24 36 34 -8 8 -78 11
-107 4z"/>
<path d="M2723 1380 c-9 -23 -8 -32 3 -41 11 -9 15 -8 20 4 6 16 38 13 62 -6
14 -11 25 -4 28 18 1 8 -13 19 -34 26 -21 6 -41 15 -46 20 -16 14 -21 11 -33
-21z"/>
<path d="M2622 1349 c1 -12 9 -24 16 -27 9 -3 13 3 10 19 -1 12 -9 24 -16 27
-9 3 -13 -3 -10 -19z"/>
<path d="M2729 1243 c-8 -48 -7 -52 20 -42 31 12 44 31 28 41 -16 10 -47 10
-48 1z"/>
<path d="M2985 1220 c3 -5 8 -10 11 -10 2 0 4 5 4 10 0 6 -5 10 -11 10 -5 0
-7 -4 -4 -10z"/>
<path d="M2669 1208 c0 -2 -2 -12 -4 -22 -2 -10 -10 -23 -17 -28 -9 -7 -8 -8
5 -4 10 3 26 6 34 6 14 0 14 2 0 18 -10 10 -14 22 -10 25 3 4 3 7 0 7 -4 0 -7
-1 -8 -2z"/>
<path d="M2600 1156 c0 -2 7 -6 15 -10 8 -3 15 -1 15 4 0 6 -7 10 -15 10 -8 0
-15 -2 -15 -4z"/>
<path d="M3330 1115 c-12 -35 -1 -75 21 -75 13 0 28 43 24 66 -2 11 -4 25 -4
32 -2 26 -30 10 -41 -23z"/>
<path d="M2070 1126 c0 -2 6 -9 14 -15 10 -9 15 -8 20 4 4 10 -1 15 -14 15
-11 0 -20 -2 -20 -4z"/>
<path d="M2360 1095 c-10 -13 -9 -15 12 -15 15 0 25 6 25 15 0 8 -6 15 -12 15
-7 0 -18 -7 -25 -15z"/>
<path d="M2916 1087 c3 -10 9 -15 12 -12 3 3 0 11 -7 18 -10 9 -11 8 -5 -6z"/>
</g>
</svg>
