<?xml version="1.0" standalone="no"?>
<!DOCTYPE svg PUBLIC "-//W3C//DTD SVG 20010904//EN"
 "http://www.w3.org/TR/2001/REC-SVG-20010904/DTD/svg10.dtd">
<svg version="1.0" xmlns="http://www.w3.org/2000/svg"
 width="450.000000pt" height="253.000000pt" viewBox="0 0 450.000000 253.000000"
 preserveAspectRatio="xMidYMid meet">
<metadata>
Created by potrace 1.16, written by Peter Selinger 2001-2019
</metadata>
<g transform="translate(0.000000,253.000000) scale(0.100000,-0.100000)"
fill="#000000" stroke="none">
<path d="M0 1265 l0 -1265 2250 0 2250 0 0 1265 0 1265 -2250 0 -2250 0 0
-1265z m2560 635 c0 -5 -13 -5 -29 0 -16 4 -33 5 -37 2 -4 -4 -4 -2 -1 4 7 12
67 6 67 -6z m-147 -2 c-21 -10 -22 -12 -5 -24 16 -13 13 -17 -28 -54 -25 -22
-50 -40 -57 -40 -6 0 -19 -7 -27 -16 -9 -8 -21 -12 -27 -8 -8 5 -8 1 0 -14 13
-25 5 -52 -16 -52 -9 0 -13 6 -9 15 3 9 0 15 -9 15 -8 0 -15 -3 -15 -8 0 -16
-42 -34 -53 -23 -8 8 -5 11 9 11 18 1 -59 32 -116 48 -30 8 -33 32 -5 43 13 6
0 7 -35 4 l-55 -4 33 16 c17 9 32 20 32 25 0 11 -47 21 -60 13 -6 -3 -9 -1 -8
5 2 7 -8 14 -21 16 -49 8 -33 14 40 14 153 1 395 13 414 21 30 12 44 9 18 -3z
m301 -19 c121 -41 222 -91 258 -130 15 -16 32 -29 38 -29 18 0 11 -56 -9 -74
-11 -10 -22 -13 -25 -8 -3 6 1 12 9 16 8 3 15 13 15 21 0 9 -5 13 -10 10 -6
-4 -8 -10 -6 -14 3 -4 -2 -8 -10 -8 -11 0 -9 6 6 22 19 21 20 23 3 36 -9 8
-14 9 -10 2 4 -6 1 -13 -5 -16 -20 -6 -39 4 -31 17 3 6 -5 0 -17 -13 -14 -14
-25 -20 -28 -13 -2 6 -10 8 -18 5 -8 -3 -26 2 -40 12 -14 9 -28 14 -32 11 -3
-3 -12 0 -21 8 -22 19 -58 29 -65 18 -3 -5 -38 -7 -77 -4 -53 4 -70 2 -65 -7
4 -6 17 -11 29 -11 20 -1 21 -1 4 -11 -10 -6 -21 -8 -24 -5 -4 3 -12 1 -19 -5
-8 -7 -14 -7 -19 1 -5 8 -11 7 -23 -2 -9 -8 -13 -8 -9 -2 12 21 -23 25 -35 4
-11 -17 -13 -17 -26 -2 -9 12 -11 12 -6 2 6 -12 5 -13 -7 -2 -12 11 -11 17 3
43 16 28 16 30 -1 41 -16 9 -17 16 -8 35 12 28 40 36 101 32 34 -3 47 0 55 14
8 12 8 16 0 15 -6 -2 -14 3 -17 11 -6 18 54 9 142 -20z m-893 -23 c-9 -11 -9
-15 1 -19 9 -3 10 -9 3 -20 -56 -86 -73 -106 -90 -111 -23 -6 -51 -56 -32 -56
7 -1 1 -6 -13 -13 -14 -7 -26 -18 -27 -24 -2 -7 -4 -18 -5 -25 -2 -7 -13 -24
-25 -38 -13 -13 -23 -28 -23 -32 0 -5 -7 -8 -15 -8 -8 0 -15 -4 -15 -10 0 -19
21 -10 63 28 47 42 94 69 104 59 3 -4 0 -7 -8 -7 -8 0 -20 -9 -27 -20 -7 -12
-8 -20 -2 -20 5 0 10 -7 10 -15 0 -10 -10 -15 -29 -15 -16 0 -31 -6 -34 -14
-8 -21 2 -26 29 -14 13 6 26 9 28 7 2 -2 -2 -47 -9 -99 -7 -52 -13 -81 -14
-65 -2 41 -14 57 -36 49 -13 -5 -16 -4 -11 5 10 15 -14 10 -33 -8 -13 -11 -16
-11 -22 5 -3 11 -2 22 3 25 6 4 6 9 -1 13 -6 4 -9 12 -6 17 4 5 0 11 -7 14
-33 13 -9 120 49 214 43 71 79 121 101 141 58 53 122 91 93 56z m45 -28 c-3
-13 -5 -26 -5 -29 -1 -10 -41 -18 -41 -9 0 4 10 10 23 14 17 5 19 8 8 15 -7 5
-10 14 -7 20 12 19 26 12 22 -11z m229 -118 c-3 -5 -12 -10 -18 -10 -7 0 -6 4
3 10 19 12 23 12 15 0z m-15 -80 c-8 -5 -19 -10 -25 -10 -5 0 -3 5 5 10 8 5
20 10 25 10 6 0 3 -5 -5 -10z m887 -7 c-3 -2 -11 -5 -19 -7 -7 -1 -20 -6 -28
-11 -13 -8 -13 -7 -1 8 7 9 17 14 22 11 5 -3 9 0 9 6 0 6 5 8 11 5 6 -4 8 -9
6 -12z m-1268 -410 c-1 -64 -2 -65 -9 -24 -6 40 -3 91 6 91 2 0 3 -30 3 -67z
m12 -125 c0 -29 2 -69 4 -88 2 -19 5 -100 8 -180 3 -104 2 -127 -4 -80 -4 36
-11 126 -14 200 -4 74 -8 150 -9 168 -1 17 1 32 6 32 4 0 8 -24 9 -52z"/>
<path d="M2098 1872 c-49 -3 -68 -22 -23 -22 14 0 27 1 29 3 2 1 13 -6 24 -16
15 -14 34 -18 76 -16 31 1 56 6 56 11 0 5 6 6 13 2 8 -5 9 -4 2 4 -7 7 -31 8
-72 3 -49 -6 -63 -4 -68 6 -2 8 -1 11 4 8 5 -3 12 -1 15 4 9 14 -3 16 -56 13z"/>
<path d="M2190 1869 c0 -6 24 -9 55 -8 30 1 55 6 55 10 0 4 -25 8 -55 8 -30 0
-55 -5 -55 -10z"/>
<path d="M2095 1810 c-3 -5 -1 -10 4 -10 6 0 11 5 11 10 0 6 -2 10 -4 10 -3 0
-8 -4 -11 -10z"/>
<path d="M2695 1790 c-3 -5 -5 -10 -3 -11 33 -8 38 -7 27 7 -14 17 -16 17 -24
4z"/>
<path d="M1666 1683 c-6 -14 -5 -15 5 -6 7 7 10 15 7 18 -3 3 -9 -2 -12 -12z"/>
<path d="M1621 1614 c0 -11 3 -14 6 -6 3 7 2 16 -1 19 -3 4 -6 -2 -5 -13z"/>
</g>
</svg>
