<?xml version="1.0" standalone="no"?>
<!DOCTYPE svg PUBLIC "-//W3C//DTD SVG 20010904//EN"
 "http://www.w3.org/TR/2001/REC-SVG-20010904/DTD/svg10.dtd">
<svg version="1.0" xmlns="http://www.w3.org/2000/svg"
 width="450.000000pt" height="253.000000pt" viewBox="0 0 450.000000 253.000000"
 preserveAspectRatio="xMidYMid meet">
<metadata>
Created by potrace 1.16, written by Peter Selinger 2001-2019
</metadata>
<g transform="translate(0.000000,253.000000) scale(0.100000,-0.100000)"
fill="#000000" stroke="none">
<path d="M0 1265 l0 -1265 2250 0 2250 0 0 1265 0 1265 -2250 0 -2250 0 0
-1265z m3345 759 c92 -22 130 -42 156 -84 13 -21 38 -46 55 -55 18 -9 43 -33
55 -54 18 -26 37 -40 72 -52 57 -19 97 -47 133 -94 22 -29 24 -38 14 -50 -7
-8 -20 -30 -29 -48 -11 -23 -36 -43 -86 -69 -88 -47 -127 -65 -174 -79 -26 -8
-42 -21 -57 -49 l-21 -38 29 -59 c40 -81 56 -178 40 -240 -11 -39 -63 -116
-81 -119 -3 0 -14 -4 -25 -9 -11 -5 -58 2 -125 18 -58 15 -140 31 -181 37 -69
10 -93 20 -185 75 -16 10 -48 41 -71 69 -59 74 -60 78 -18 60 21 -9 57 -17 82
-19 42 -4 43 -3 27 15 -11 12 -13 20 -5 25 5 3 7 12 4 18 -4 7 -4 9 1 5 4 -4
15 -3 22 4 11 9 16 9 22 -1 6 -10 9 -9 14 2 7 20 -1 27 -30 27 -12 0 -23 4
-23 8 0 5 -7 9 -15 9 -11 0 -12 -4 -4 -14 12 -14 7 -16 -28 -13 -12 0 -33 -6
-47 -15 -20 -13 -37 -15 -78 -10 -96 13 -112 24 -151 105 -12 25 -27 52 -32
60 -13 19 -34 78 -41 110 -3 14 -9 29 -14 34 -5 5 -5 19 0 32 5 13 12 49 16
81 7 74 30 142 57 171 11 12 16 22 11 22 -25 0 -173 -33 -172 -39 5 -16 -64
-73 -88 -73 -18 0 -28 -8 -35 -26 -7 -17 -6 -27 1 -32 7 -4 4 -12 -8 -23 -17
-15 -19 -15 -42 6 -26 23 -40 84 -17 71 7 -4 3 2 -7 14 -11 13 -14 22 -7 22
17 0 -9 38 -31 43 -26 7 -22 29 13 68 l30 34 194 0 c156 0 191 2 183 13 -18
21 36 67 100 87 126 38 470 49 597 19z m-1094 -322 c10 -25 11 -24 -18 -27
-14 -1 -23 4 -26 16 -3 12 -1 17 6 12 6 -4 8 0 4 9 -4 11 0 15 10 14 9 -2 20
-12 24 -24z m-10 -90 c8 2 17 6 20 11 3 4 14 -2 25 -14 l19 -22 -27 5 c-22 4
-28 1 -28 -13 0 -15 8 -19 35 -19 19 0 35 -4 35 -10 0 -11 -64 -24 -85 -17 -8
4 -17 2 -20 -3 -4 -6 0 -10 8 -10 23 0 27 -26 12 -71 -8 -23 -15 -50 -15 -60
0 -11 -7 -19 -15 -19 -7 0 -19 -8 -24 -17 -16 -28 -14 43 4 100 8 26 15 66 17
88 1 31 7 43 23 49 17 7 17 9 3 9 -10 1 -18 9 -18 19 0 13 2 14 9 4 4 -7 14
-12 22 -10z m26 -1034 c-3 -8 -6 -5 -6 6 -1 11 2 17 5 13 3 -3 4 -12 1 -19z
m0 -160 c-3 -8 -6 -5 -6 6 -1 11 2 17 5 13 3 -3 4 -12 1 -19z m0 -70 c-3 -8
-6 -5 -6 6 -1 11 2 17 5 13 3 -3 4 -12 1 -19z"/>
<path d="M3428 1913 c6 -2 18 -2 25 0 6 3 1 5 -13 5 -14 0 -19 -2 -12 -5z"/>
<path d="M3090 1903 c0 -23 31 -50 53 -46 14 3 29 -2 38 -13 12 -16 12 -17 -1
-9 -11 6 -12 5 -4 -4 6 -7 18 -14 25 -15 40 -8 75 -20 80 -28 8 -12 53 -15 59
-4 3 5 -15 21 -39 36 -25 14 -46 32 -49 40 -3 9 2 7 12 -5 17 -20 17 -20 7 2
-8 16 -17 21 -37 17 -19 -3 -24 -1 -18 8 6 10 4 10 -8 0 -14 -11 -18 -11 -25
1 -9 16 -93 34 -93 20z"/>
<path d="M3397 1847 c-3 -8 1 -14 8 -14 7 0 11 6 8 14 -3 7 -6 13 -8 13 -2 0
-5 -6 -8 -13z"/>
<path d="M3178 1803 c-10 -3 -18 -9 -18 -15 0 -7 -5 -6 -14 1 -12 10 -18 8
-31 -12 -15 -23 -14 -27 1 -61 11 -21 25 -36 35 -36 10 0 21 -4 24 -10 3 -5
-1 -10 -9 -10 -8 0 -20 -9 -26 -19 -10 -19 -50 -19 -50 1 0 5 -4 7 -8 4 -5 -3
-20 1 -35 9 -23 12 -28 11 -42 -5 -9 -10 -14 -23 -11 -28 3 -6 -2 -8 -13 -5
-11 3 -27 1 -35 -4 -13 -7 -14 -12 -4 -26 20 -26 77 -28 110 -4 14 11 34 17
42 14 10 -4 16 -1 16 7 0 17 22 15 44 -3 10 -8 16 -9 16 -3 0 6 -5 14 -10 17
-8 5 -7 11 1 21 6 7 15 11 20 8 5 -3 9 -2 8 3 -5 26 2 33 20 23 26 -13 63 -14
41 -1 -8 6 -14 24 -13 45 1 20 -3 39 -8 42 -5 3 -7 -1 -6 -8 2 -7 2 -10 0 -7
-2 4 -16 1 -31 -7 -30 -14 -68 -9 -75 10 -4 10 8 12 45 9 37 -2 47 0 42 9 -4
7 -4 10 1 6 4 -4 15 -2 23 5 13 9 14 9 8 0 -11 -19 -1 -16 15 4 8 9 9 14 2 10
-6 -4 -13 -3 -15 3 -4 12 -35 18 -60 13z"/>
<path d="M3402 1777 c-8 -9 -8 -17 0 -27 8 -13 9 -12 5 1 -3 9 0 22 6 28 6 6
8 11 5 11 -3 0 -10 -6 -16 -13z"/>
<path d="M2298 1774 c-2 -5 -5 -24 -6 -41 -2 -24 2 -33 13 -33 10 0 15 10 15
28 0 29 -15 60 -22 46z"/>
<path d="M3366 1735 c-11 -8 -27 -15 -37 -15 -9 0 -24 -11 -33 -25 -15 -22
-15 -27 -2 -40 12 -13 15 -12 22 3 4 9 6 21 5 26 -1 5 5 6 14 2 9 -3 19 -6 21
-6 3 0 -6 -15 -20 -32 -30 -40 -37 -73 -16 -73 8 0 21 -4 28 -8 8 -5 12 -2 12
8 0 9 5 13 11 9 8 -4 8 0 0 15 -8 14 -8 21 -1 21 5 0 10 5 10 11 0 7 8 18 18
26 9 8 11 12 5 8 -9 -4 -11 2 -7 23 4 17 1 32 -5 36 -6 4 -9 12 -6 17 8 12 3
11 -19 -6z m22 -30 c-3 -3 -9 2 -12 12 -6 14 -5 15 5 6 7 -7 10 -15 7 -18z"/>
<path d="M3412 1705 c0 -16 2 -22 5 -12 2 9 2 23 0 30 -3 6 -5 -1 -5 -18z"/>
<path d="M3430 1711 c0 -11 4 -22 9 -25 4 -3 6 6 3 19 -5 30 -12 33 -12 6z"/>
<path d="M3386 1625 c-9 -26 -7 -32 5 -12 6 10 9 21 6 23 -2 3 -7 -2 -11 -11z"/>
<path d="M3263 1583 c-17 -6 -17 -23 0 -23 8 0 14 7 14 15 0 8 -1 15 -1 14 -1
0 -7 -3 -13 -6z"/>
<path d="M3083 1571 c-7 -4 -6 -11 3 -19 8 -7 14 -10 14 -7 0 3 11 -2 24 -10
22 -15 27 -15 53 -1 24 13 25 15 8 16 -12 0 -26 5 -32 11 -14 14 -56 20 -70
10z"/>
<path d="M2980 1531 c8 -5 26 -12 40 -16 20 -6 23 -5 13 5 -7 7 -25 15 -40 16
-19 2 -23 0 -13 -5z"/>
<path d="M3059 1503 c-5 -15 -23 -39 -39 -55 -17 -15 -30 -30 -30 -33 0 -13
42 -3 60 15 l21 21 27 -21 c23 -19 28 -20 38 -6 6 9 13 13 16 10 3 -2 9 3 12
13 4 9 4 14 1 11 -4 -4 -18 -3 -31 2 -15 6 -24 6 -24 0 0 -6 -5 -10 -10 -10
-7 0 -7 7 1 21 8 17 8 23 -2 30 -7 4 -17 5 -21 3 -4 -3 -8 -1 -8 5 0 5 6 12
13 14 9 4 9 6 -1 6 -7 1 -17 -11 -23 -26z"/>
<path d="M3125 1510 c-4 -6 3 -10 14 -10 25 0 27 6 6 13 -8 4 -17 2 -20 -3z"/>
<path d="M3080 1370 c0 -5 9 -15 20 -22 29 -19 24 -29 -12 -26 -18 2 -33 0
-33 -4 0 -3 -10 -18 -23 -31 -14 -15 -19 -27 -13 -31 5 -4 8 -13 5 -21 -4 -10
3 -16 23 -20 15 -4 33 -8 40 -10 8 -3 10 2 6 13 -6 15 -5 15 10 3 14 -11 20
-11 34 0 9 8 18 13 20 11 3 -2 7 -1 10 1 8 8 -20 3 -35 -7 -7 -4 -19 -2 -27 4
-21 17 -19 25 6 27 12 1 29 9 39 18 11 10 24 14 29 10 27 -16 8 25 -21 47 -47
36 -78 51 -78 38z m-17 -141 c-8 -8 -13 -7 -18 2 -5 8 -4 10 3 5 7 -4 12 -2
12 5 0 7 3 9 7 6 4 -4 2 -12 -4 -18z"/>
<path d="M2903 1285 c0 -8 4 -12 9 -9 5 3 6 10 3 15 -9 13 -12 11 -12 -6z"/>
<path d="M3250 1275 c0 -14 4 -25 9 -25 4 0 6 11 3 25 -2 14 -6 25 -8 25 -2 0
-4 -11 -4 -25z"/>
<path d="M3000 1150 c18 -11 97 -13 103 -2 3 4 -23 8 -56 9 -43 2 -57 -1 -47
-7z"/>
<path d="M2216 1484 c-9 -23 -7 -36 3 -30 12 8 21 46 11 46 -4 0 -11 -7 -14
-16z"/>
</g>
</svg>
