<?xml version="1.0" standalone="no"?>
<!DOCTYPE svg PUBLIC "-//W3C//DTD SVG 20010904//EN"
 "http://www.w3.org/TR/2001/REC-SVG-20010904/DTD/svg10.dtd">
<svg version="1.0" xmlns="http://www.w3.org/2000/svg"
 width="450.000000pt" height="253.000000pt" viewBox="0 0 450.000000 253.000000"
 preserveAspectRatio="xMidYMid meet">
<metadata>
Created by potrace 1.16, written by Peter Selinger 2001-2019
</metadata>
<g transform="translate(0.000000,253.000000) scale(0.100000,-0.100000)"
fill="#000000" stroke="none">
<path d="M0 1265 l0 -1265 2250 0 2250 0 0 1265 0 1265 -802 0 c-787 0 -802 0
-773 -19 51 -32 103 -88 145 -160 22 -38 40 -73 40 -77 0 -3 21 -49 46 -100
33 -68 51 -94 64 -94 10 0 38 -8 62 -19 81 -34 105 -36 139 -7 25 22 41 26 91
26 53 0 75 -7 165 -50 57 -27 107 -50 111 -50 12 0 72 -64 72 -77 0 -6 7 -16
15 -23 8 -7 12 -17 8 -23 -4 -6 -7 -21 -8 -32 -1 -11 -2 -30 -3 -43 -2 -26
-188 -217 -242 -249 -19 -12 -51 -24 -70 -28 -19 -4 -48 -13 -65 -20 -16 -7
-38 -16 -48 -19 -18 -6 -18 -7 0 -33 44 -65 72 -147 76 -228 7 -133 -5 -175
-69 -241 -31 -31 -58 -53 -61 -50 -4 3 -14 -1 -24 -10 -15 -14 -31 -14 -136
-4 -174 16 -374 72 -398 110 -4 7 -15 3 -30 -12 -12 -13 -34 -31 -47 -40 -19
-12 -27 -29 -30 -62 -8 -68 -61 -127 -159 -173 l-78 -38 -4 -70 -3 -70 -2 70
-2 70 -55 -3 c-53 -4 -55 -3 -102 45 -66 65 -134 197 -140 272 -4 49 -2 61 21
94 14 21 26 48 26 61 0 22 -3 23 -39 16 -55 -10 -200 1 -306 24 -105 22 -254
92 -273 127 -24 46 3 128 82 244 43 63 113 134 132 135 7 0 14 6 17 14 3 7 28
28 56 46 48 32 50 34 34 52 -9 10 -22 18 -30 18 -7 0 -13 7 -13 15 0 8 -5 15
-10 15 -24 0 -102 91 -132 156 -25 54 -33 84 -34 137 l-2 67 57 26 c117 54
306 66 455 28 69 -17 156 -13 156 8 0 33 59 130 113 186 l61 62 -1277 0 -1277
0 0 -1265z"/>
<path d="M2861 1928 c-5 -13 -6 -32 -4 -43 7 -26 7 -50 0 -103 -5 -35 -2 -44
14 -52 20 -11 39 -6 39 11 0 5 -9 9 -19 9 -11 0 -22 4 -26 9 -7 12 31 25 46
15 8 -4 9 0 4 15 -4 13 -2 21 5 21 7 0 9 7 6 16 -3 8 -2 13 2 11 4 -3 14 2 22
11 13 14 13 15 -1 10 -8 -3 -23 0 -34 8 -11 9 -14 14 -6 14 11 0 11 3 0 17 -8
9 -9 14 -2 10 7 -5 9 0 6 14 -4 16 -8 17 -14 7 -7 -10 -9 -9 -9 5 0 24 -19 21
-29 -5z"/>
<path d="M3057 1913 c-4 -3 -7 -11 -7 -17 0 -6 5 -5 12 2 6 6 9 14 7 17 -3 3
-9 2 -12 -2z"/>
<path d="M3000 1884 c6 -6 7 -14 3 -16 -4 -3 -3 -3 4 -2 6 2 17 -4 25 -13 11
-14 11 -17 -1 -21 -8 -3 -24 -15 -36 -28 -12 -13 -30 -24 -39 -24 -9 0 -16 -4
-16 -9 0 -16 41 -61 56 -61 8 0 14 -4 14 -10 0 -5 -5 -10 -11 -10 -8 0 -7 -5
1 -15 15 -18 15 -19 -34 -39 -35 -15 -72 -13 -49 3 6 3 2 19 -10 36 -11 17
-17 22 -13 10 6 -19 6 -19 -9 -1 -8 10 -12 22 -10 27 8 11 -39 -3 -47 -15 -4
-6 -8 -26 -8 -43 0 -23 -5 -33 -15 -33 -14 0 -20 12 -16 33 1 5 -3 6 -9 2 -6
-3 -8 -10 -5 -15 7 -11 -22 -7 -32 5 -4 4 -2 5 5 1 20 -12 14 4 -10 25 l-23
20 22 -11 c19 -9 22 -8 16 6 -5 13 -15 15 -48 10 -31 -5 -45 -3 -55 9 -19 23
6 48 43 42 23 -3 31 1 43 24 20 40 18 53 -8 44 -13 -3 -41 -11 -64 -16 -36 -9
-41 -13 -36 -34 5 -30 -6 -31 -58 -5 -47 24 -51 24 -44 6 3 -8 14 -16 25 -19
15 -4 18 -11 13 -39 -5 -32 -5 -32 9 -10 12 21 15 22 26 8 7 -9 11 -23 7 -31
-3 -8 -1 -15 3 -15 5 0 7 -8 4 -19 -9 -35 18 -34 52 3 29 32 54 49 41 28 -3
-5 6 -20 20 -35 22 -24 23 -27 6 -27 -10 0 -23 5 -30 12 -9 9 -12 8 -12 -6 0
-10 12 -22 30 -29 16 -6 29 -18 28 -27 -3 -45 3 -70 18 -70 14 0 14 -3 4 -15
-7 -9 -15 -13 -18 -11 -11 11 -62 -26 -62 -45 0 -19 -1 -19 -30 -4 -37 19 -37
28 -5 45 31 17 32 30 3 30 -13 0 -35 6 -50 14 -28 15 -68 11 -68 -6 0 -6 11
-8 25 -5 16 3 24 0 22 -7 -2 -6 -13 -12 -25 -14 -11 -2 -26 -11 -34 -20 -9
-11 -10 -14 0 -8 7 4 12 2 12 -4 0 -6 3 -9 8 -7 4 3 17 1 30 -4 23 -9 31 -39
10 -39 -6 0 -2 -10 10 -23 30 -31 28 -67 -7 -126 -24 -41 -27 -50 -15 -55 9
-3 13 -10 10 -15 -9 -14 3 -38 19 -38 16 0 19 9 8 20 -3 4 -6 23 -5 42 1 50 1
50 14 37 22 -22 40 -14 36 15 -2 20 2 29 15 31 11 2 27 12 38 23 10 10 25 19
33 19 8 0 16 6 19 14 4 9 29 15 75 18 51 4 78 11 98 27 24 19 29 20 43 7 13
-12 19 -12 33 -2 10 7 14 16 10 20 -4 4 -7 11 -8 14 0 4 -4 21 -8 39 -7 30
-14 33 -46 20 -8 -4 -24 -5 -35 -4 -13 1 -20 -5 -22 -18 -11 -84 -32 -114 -53
-75 -13 24 -13 63 0 55 6 -3 10 -4 10 -1 0 3 -10 10 -22 17 -18 10 -20 9 -15
-5 3 -8 2 -18 -4 -21 -5 -4 -7 -17 -5 -30 5 -28 -5 -38 -28 -29 -11 4 -13 11
-6 30 5 13 8 24 5 24 -2 0 7 12 20 26 13 14 29 48 36 76 l13 50 51 -5 c38 -4
61 0 98 16 26 12 47 26 48 32 2 31 9 47 28 63 15 12 21 31 23 67 1 28 0 57 -3
65 -2 10 3 15 16 15 11 0 20 5 20 10 1 6 5 20 9 33 11 32 4 35 -30 17 -17 -9
-30 -11 -32 -5 -2 6 -8 10 -13 10 -6 0 -5 -9 1 -22 10 -21 10 -21 -8 2 -11 13
-32 25 -46 26 -20 1 -23 -2 -16 -12z m126 -37 c2 -13 -1 -14 -17 -4 -23 15
-25 26 -2 23 9 -2 17 -10 19 -19z m-51 -97 c3 -6 -2 -13 -11 -17 -10 -4 -19
-2 -22 5 -2 7 -8 10 -13 6 -5 -3 -9 0 -9 5 0 14 47 14 55 1z m-220 -150 c3 -5
2 -10 -4 -10 -5 0 -13 5 -16 10 -3 6 -2 10 4 10 5 0 13 -4 16 -10z"/>
<path d="M3156 1828 c3 -5 10 -6 15 -3 13 9 11 12 -6 12 -8 0 -12 -4 -9 -9z"/>
<path d="M3255 1810 c-3 -5 1 -10 10 -10 9 0 13 5 10 10 -3 6 -8 10 -10 10 -2
0 -7 -4 -10 -10z"/>
<path d="M1972 1743 c-10 -10 -17 -11 -26 -4 -9 8 -18 6 -32 -4 -19 -15 -19
-15 1 -8 17 6 18 5 7 -10 -8 -9 -20 -13 -30 -10 -14 6 -15 4 -5 -8 10 -13 10
-19 -1 -34 -13 -18 -51 -32 -41 -15 3 4 -3 11 -12 14 -10 4 -14 4 -11 0 4 -3
0 -13 -8 -22 -14 -14 -14 -16 0 -24 11 -6 15 -18 12 -35 -3 -14 -2 -23 1 -19
3 3 12 -3 20 -14 8 -11 19 -20 25 -20 7 0 3 7 -8 15 -18 14 -17 15 8 4 30 -13
28 -44 -3 -36 -10 3 -20 -1 -23 -9 -3 -7 -11 -11 -19 -8 -8 3 -20 -2 -27 -11
-10 -12 -10 -15 0 -15 7 0 10 -8 7 -20 -3 -11 -2 -18 2 -15 5 2 8 -9 9 -26 0
-16 -3 -27 -7 -25 -3 3 -7 -4 -7 -15 0 -18 9 -23 29 -20 5 1 6 -3 2 -8 -3 -6
-12 -8 -20 -4 -8 3 -15 -1 -15 -8 0 -7 3 -9 6 -6 4 3 15 2 25 -3 12 -7 19 -6
23 3 5 9 7 9 12 -1 3 -6 10 -9 15 -6 6 3 5 12 -3 22 -12 15 -11 16 5 3 9 -7
17 -19 17 -27 0 -14 38 -15 57 -1 7 5 10 14 7 19 -4 6 4 5 16 -2 13 -7 20 -8
16 -2 -3 6 -2 13 4 17 5 3 10 15 10 25 0 10 12 32 26 49 l25 30 -23 6 c-13 3
-28 17 -34 30 -11 22 -9 25 22 35 66 22 86 63 28 56 -30 -4 -35 -2 -29 12 3 9
3 13 -1 9 -4 -4 -18 0 -31 8 -13 9 -29 13 -36 10 -7 -4 -5 -1 3 7 8 7 14 24
12 37 -2 13 1 28 7 34 6 6 11 15 11 19 0 4 -8 0 -18 -9 -10 -10 -16 -25 -14
-34 2 -9 -1 -20 -7 -23 -7 -5 -8 -1 -5 9 4 9 -1 24 -11 35 -16 18 -16 18 7 14
21 -4 21 -4 3 5 -21 10 -21 10 9 16 20 4 42 22 35 29 -2 2 -10 -3 -17 -11z
m-47 -62 c3 -5 2 -12 -3 -15 -5 -3 -9 1 -9 9 0 17 3 19 12 6z m75 -327 c0 -8
-19 -13 -24 -6 -3 5 1 9 9 9 8 0 15 -2 15 -3z m-59 -31 c13 -16 12 -17 -3 -4
-14 11 -18 11 -18 1 0 -8 -3 -11 -6 -7 -5 5 3 27 10 27 2 0 10 -8 17 -17z"/>
<path d="M2675 1710 c-3 -5 1 -10 10 -10 9 0 13 5 10 10 -3 6 -8 10 -10 10 -2
0 -7 -4 -10 -10z"/>
<path d="M2440 1645 c0 -9 9 -15 21 -15 18 0 19 2 9 15 -7 8 -16 15 -21 15 -5
0 -9 -7 -9 -15z"/>
<path d="M2175 1630 c-8 -13 5 -13 25 0 13 8 13 10 -2 10 -9 0 -20 -4 -23 -10z"/>
<path d="M2567 1592 c1 -7 -2 -22 -8 -34 -9 -17 -8 -19 13 -16 17 2 24 10 26
32 3 22 0 27 -12 23 -8 -3 -17 -3 -19 1 -2 4 -2 1 0 -6z"/>
<path d="M2125 1581 c-3 -6 -11 -9 -16 -6 -5 4 -9 1 -9 -4 0 -6 6 -11 14 -11
16 0 31 18 23 26 -3 3 -8 0 -12 -5z"/>
<path d="M2445 1581 c-3 -5 -1 -12 5 -16 5 -3 10 1 10 9 0 18 -6 21 -15 7z"/>
<path d="M2637 1583 c-13 -13 -7 -31 12 -36 23 -6 35 15 18 32 -13 13 -21 14
-30 4z"/>
<path d="M2318 1529 c-5 -4 -3 -13 7 -23 21 -20 29 -20 46 0 7 9 22 20 34 24
13 5 4 7 -28 6 -27 0 -53 -4 -59 -7z"/>
<path d="M2345 1460 c-4 -6 -10 -8 -15 -5 -11 7 -9 -67 3 -83 6 -8 21 -11 38
-7 23 5 33 0 65 -34 37 -41 64 -53 64 -28 0 14 -53 73 -71 79 -7 2 -9 10 -5
17 5 8 12 9 18 3 6 -6 19 0 37 17 18 17 24 29 17 33 -17 12 -24 10 -46 -12
l-21 -21 7 26 c6 24 4 25 -39 25 -25 0 -49 -5 -52 -10z"/>
<path d="M2490 1370 c0 -5 9 -10 20 -10 11 0 20 5 20 10 0 6 -9 10 -20 10 -11
0 -20 -4 -20 -10z"/>
<path d="M2917 1298 c-23 -8 -28 -15 -23 -32 3 -11 6 -26 6 -33 0 -16 58 -10
77 9 15 16 15 19 -1 42 -18 29 -19 29 -59 14z"/>
<path d="M3150 1263 c0 -8 5 -13 12 -11 18 6 21 25 3 25 -8 0 -15 -7 -15 -14z"/>
<path d="M3020 1250 c0 -13 18 -22 24 -11 3 5 -1 11 -9 15 -8 3 -15 1 -15 -4z"/>
<path d="M2843 1213 c-7 -2 -13 -9 -13 -15 0 -7 5 -7 13 1 8 6 18 7 22 3 5 -4
5 -1 1 6 -4 6 -8 12 -9 11 -1 0 -8 -3 -14 -6z"/>
<path d="M2245 1201 c-6 -11 9 -23 19 -14 9 9 7 23 -3 23 -6 0 -12 -4 -16 -9z"/>
<path d="M2710 1080 c0 -5 7 -10 16 -10 8 0 12 5 9 10 -3 6 -10 10 -16 10 -5
0 -9 -4 -9 -10z"/>
</g>
</svg>
