<?xml version="1.0" standalone="no"?>
<!DOCTYPE svg PUBLIC "-//W3C//DTD SVG 20010904//EN"
 "http://www.w3.org/TR/2001/REC-SVG-20010904/DTD/svg10.dtd">
<svg version="1.0" xmlns="http://www.w3.org/2000/svg"
 width="450.000000pt" height="253.000000pt" viewBox="0 0 450.000000 253.000000"
 preserveAspectRatio="xMidYMid meet">
<metadata>
Created by potrace 1.16, written by Peter Selinger 2001-2019
</metadata>
<g transform="translate(0.000000,253.000000) scale(0.100000,-0.100000)"
fill="#000000" stroke="none">
<path d="M0 1265 l0 -1265 2250 0 2250 0 0 1265 0 1265 -705 0 -704 0 34 -72
c19 -40 44 -116 55 -168 11 -52 24 -111 30 -130 5 -19 10 -47 10 -62 0 -23 4
-28 24 -28 14 0 27 -4 30 -9 3 -5 18 -12 33 -16 16 -3 43 -14 61 -22 31 -15
34 -15 48 5 20 29 77 45 130 37 25 -3 78 -23 118 -44 40 -21 89 -44 109 -50
38 -13 87 -62 87 -87 0 -8 4 -14 9 -14 9 0 7 -41 -5 -99 -10 -50 -251 -261
-297 -261 -7 0 -45 -10 -83 -22 -60 -19 -66 -22 -47 -31 22 -10 47 -63 42 -89
-2 -7 6 -38 16 -68 15 -41 20 -81 20 -155 -1 -111 -12 -144 -65 -188 -16 -14
-30 -30 -30 -34 0 -5 -19 -14 -43 -21 -54 -16 -102 -12 -307 30 -30 6 -88 26
-127 45 -70 32 -74 33 -98 17 -14 -9 -25 -21 -26 -28 0 -6 -2 -30 -4 -53 -7
-99 -77 -163 -200 -183 -63 -10 -51 -19 -174 121 -41 46 -82 91 -91 99 -9 9
-17 22 -18 30 -1 8 -4 28 -8 43 -8 35 15 110 31 103 16 -6 13 37 -4 58 -12 14
-11 16 8 16 14 0 21 6 21 20 0 23 -10 26 -28 8 -19 -19 -57 24 -60 69 -2 24
-10 44 -23 54 -16 12 -20 24 -17 60 2 30 8 44 18 45 8 1 20 2 27 3 18 2 4 28
-18 34 -30 8 -23 90 9 101 32 11 83 54 70 59 -18 6 20 78 48 92 11 5 28 17 37
25 34 31 46 40 57 40 14 0 13 43 -2 58 -16 16 0 32 38 36 16 2 31 4 33 5 3 0
-4 7 -14 15 -13 10 -25 11 -37 5 -9 -5 -19 -5 -22 -1 -3 5 -15 8 -28 7 -13 -1
-29 3 -37 9 -12 9 -13 8 -6 -4 8 -13 7 -13 -9 0 -16 13 -20 12 -36 -7 -10 -12
-20 -19 -24 -16 -3 4 -6 -1 -6 -10 0 -10 -5 -16 -11 -15 -17 4 -37 -33 -21
-39 10 -4 10 -8 1 -19 -6 -8 -8 -14 -4 -14 4 0 -3 -9 -16 -21 -13 -11 -17 -17
-9 -13 12 6 13 5 3 -7 -10 -12 -10 -18 -1 -27 9 -9 9 -12 -1 -12 -11 0 -11 -3
0 -17 11 -13 11 -15 1 -9 -10 6 -9 0 3 -23 26 -51 8 -63 -51 -35 -19 9 -38 14
-41 10 -8 -7 1 -17 19 -20 7 -1 23 -6 36 -10 22 -7 23 -9 6 -27 -9 -10 -21
-16 -27 -12 -5 3 -7 0 -5 -8 3 -8 -1 -27 -9 -43 -12 -22 -12 -26 -1 -20 7 4
-2 -9 -20 -29 -17 -21 -32 -41 -32 -45 0 -4 7 1 14 11 13 17 14 16 12 -7 0
-13 -4 -22 -8 -19 -5 2 -8 -1 -8 -7 0 -6 -15 -17 -34 -25 -38 -16 -50 -38 -36
-65 6 -10 10 -27 10 -38 0 -35 53 -64 64 -35 5 12 9 13 21 3 8 -7 13 -16 10
-20 -3 -5 4 -11 15 -15 11 -4 18 -10 16 -14 -3 -4 1 -19 8 -33 11 -20 11 -25
0 -25 -7 0 -12 5 -11 11 1 5 -9 11 -22 12 -14 1 -30 9 -36 18 -7 9 -16 16 -21
16 -4 0 -3 -5 4 -12 18 -18 14 -27 -10 -23 -47 9 -204 78 -220 97 -33 37 -13
152 44 256 10 18 18 44 18 59 0 27 33 92 77 151 l24 33 -50 45 c-27 24 -55 59
-60 77 -19 58 -39 191 -33 231 4 34 9 40 47 57 55 25 225 59 292 59 29 0 71
-7 94 -16 48 -20 55 -14 65 49 4 21 20 57 35 80 16 23 29 46 29 52 0 5 23 33
52 62 l52 53 -1312 0 -1312 0 0 -1265z m2320 -89 c0 -3 -4 -8 -10 -11 -5 -3
-10 -1 -10 4 0 6 5 11 10 11 6 0 10 -2 10 -4z m122 -591 c-6 -34 -13 -32 -10
4 1 16 5 28 9 26 3 -3 4 -16 1 -30z m-5 -57 c-3 -8 -6 -5 -6 6 -1 11 2 17 5
13 3 -3 4 -12 1 -19z m0 -100 c-2 -18 -4 -6 -4 27 0 33 2 48 4 33 2 -15 2 -42
0 -60z"/>
<path d="M2956 1948 c3 -5 10 -6 15 -3 13 9 11 12 -6 12 -8 0 -12 -4 -9 -9z"/>
<path d="M2767 1924 c-8 -8 1 -24 14 -24 5 0 9 7 9 15 0 15 -12 20 -23 9z"/>
<path d="M2991 1911 c-6 -4 -24 -6 -39 -5 -29 2 -29 2 -18 -37 7 -28 7 -48 -1
-69 -11 -29 -10 -30 17 -28 19 1 26 6 22 16 -3 8 1 18 9 23 11 6 11 11 1 21
-14 14 -16 42 -2 33 5 -3 7 0 4 8 -4 10 4 16 24 19 30 4 67 -13 55 -26 -4 -4
3 -9 15 -13 31 -8 27 -23 -8 -36 -18 -7 -28 -17 -26 -24 4 -9 -4 -13 -20 -13
-22 0 -24 -3 -19 -22 12 -39 31 -54 50 -38 14 12 15 10 6 -13 -6 -15 -8 -33
-5 -41 3 -8 -3 -19 -15 -25 -29 -16 -41 -13 -41 9 0 11 -5 20 -11 20 -5 0 -7
5 -4 10 3 6 0 10 -8 10 -8 0 -20 6 -26 14 -24 28 -63 4 -63 -38 0 -14 -8 -31
-17 -38 -13 -10 -14 -10 -3 2 13 15 17 34 5 27 -13 -8 -30 17 -27 38 4 25 -5
38 -19 27 -15 -10 -27 -9 -53 6 -12 6 -25 8 -29 4 -5 -4 -5 -1 -1 6 10 17 27
15 42 -5 12 -17 13 -17 19 2 4 11 13 34 20 52 l14 32 -32 -6 c-18 -3 -46 -11
-63 -18 -27 -11 -31 -17 -27 -39 l5 -26 -38 16 c-22 9 -44 20 -50 25 -7 6 -16
4 -24 -6 -11 -13 -8 -16 19 -21 17 -4 31 -13 31 -20 0 -8 9 -14 19 -14 11 0
22 -4 25 -8 9 -15 -16 -92 -30 -92 -8 0 -19 -12 -24 -26 -13 -33 -13 -34 5
-34 22 0 18 -21 -5 -27 -29 -8 -19 -29 11 -25 29 4 14 -14 -16 -20 -12 -2 -20
-11 -20 -23 0 -16 6 -19 26 -17 32 4 47 -23 21 -37 -16 -9 -15 -11 1 -28 9
-11 17 -29 17 -40 0 -25 -29 -96 -42 -104 -6 -4 1 -24 16 -48 15 -23 31 -39
36 -36 4 3 11 -8 15 -25 4 -17 10 -28 14 -25 5 2 13 -7 19 -20 9 -19 19 -25
42 -25 16 0 30 4 30 10 0 5 5 9 11 7 6 -1 13 6 14 15 2 12 -10 21 -42 32 -25
9 -49 13 -54 11 -7 -5 -49 32 -49 44 0 3 -4 23 -9 43 -9 37 -8 38 18 32 14 -4
34 -14 45 -23 16 -14 16 -12 -3 19 -27 45 -26 50 3 50 30 0 44 19 25 31 -9 6
-3 8 18 4 26 -4 31 -2 27 10 -8 19 27 33 97 36 51 3 82 16 73 31 -3 4 4 6 15
5 11 0 17 -5 15 -9 -10 -16 25 -19 53 -4 15 8 23 15 16 16 -7 0 -10 6 -8 13 2
6 -6 24 -19 38 -29 34 -98 36 -105 4 -2 -11 -7 -22 -12 -25 -5 -3 -10 -17 -12
-30 -4 -27 -21 -37 -32 -20 -4 6 3 22 15 35 18 19 21 30 15 52 -5 15 -7 33 -5
38 1 6 2 20 2 33 -2 25 15 35 49 30 21 -3 22 -4 6 -20 -11 -11 -13 -19 -6 -23
12 -8 24 1 24 18 0 7 9 13 20 15 11 3 24 11 28 19 8 12 12 12 33 -1 20 -14 23
-14 18 -1 -4 10 0 13 13 10 11 -2 26 0 33 5 16 10 4 30 -17 30 -13 0 -13 3 -2
16 7 8 21 13 32 10 10 -2 17 -2 14 0 -3 3 -1 19 3 35 6 18 5 29 -1 29 -13 0
-8 71 6 86 6 8 14 9 22 3 7 -7 14 -6 18 1 3 6 11 8 16 5 5 -3 6 1 3 10 -6 14
-8 14 -19 -2 -13 -17 -13 -17 -12 1 1 11 -7 25 -19 31 -36 18 -54 37 -47 49 4
7 2 7 -7 -1 -8 -7 -21 -8 -34 -4 -11 5 -30 7 -40 5 -11 -1 -25 0 -30 4 -16 10
-32 11 -45 3z m-189 -275 c14 -20 8 -26 -19 -21 l-28 6 30 -26 c20 -18 26 -29
18 -32 -21 -8 -14 -22 8 -16 17 5 19 2 14 -20 -5 -19 -3 -26 12 -29 12 -2 2
-10 -29 -21 -34 -13 -48 -24 -48 -38 0 -23 -18 -25 -27 -3 -3 8 4 25 16 38
l22 24 -34 6 c-39 7 -65 30 -47 41 6 4 8 16 4 27 -4 12 -2 18 4 14 5 -3 20 14
33 38 21 39 25 43 44 34 11 -6 23 -16 27 -22z m72 -216 c-9 -16 -19 -32 -25
-35 -13 -9 -5 30 10 49 22 26 31 18 15 -14z m-139 -30 c3 -6 -1 -7 -9 -4 -18
7 -21 14 -7 14 6 0 13 -4 16 -10z"/>
<path d="M2720 1571 c0 -10 9 -21 19 -24 27 -7 32 1 18 24 -15 24 -37 24 -37
0z"/>
<path d="M2098 1824 c6 -3 10 -9 8 -13 -3 -4 6 -8 19 -9 13 -1 25 4 28 11 3 9
-6 14 -32 14 -20 1 -30 0 -23 -3z"/>
<path d="M2916 1752 c-3 -5 -1 -14 5 -22 5 -8 9 -11 9 -6 0 5 6 3 14 -3 10 -9
16 -8 26 4 13 15 14 15 -35 30 -8 2 -16 1 -19 -3z"/>
<path d="M2477 1653 l-38 -4 4 -42 c4 -43 19 -55 46 -38 12 8 12 12 2 25 -11
13 -11 16 1 16 18 0 51 34 41 43 -3 4 -9 6 -12 5 -3 -1 -23 -3 -44 -5z"/>
<path d="M2620 1650 c0 -5 5 -10 10 -10 6 0 10 5 10 10 0 6 -4 10 -10 10 -5 0
-10 -4 -10 -10z"/>
<path d="M2546 1612 c-8 -16 -12 -39 -9 -51 5 -20 7 -21 24 -5 14 12 16 21 9
35 -15 27 -12 31 12 23 20 -6 21 -5 9 10 -19 23 -28 20 -45 -12z"/>
<path d="M2483 1545 c-33 -14 -43 -38 -22 -50 6 -4 17 2 25 14 8 12 22 21 30
21 8 0 14 7 14 15 0 18 -6 18 -47 0z"/>
<path d="M2450 1470 c-11 -8 -12 -12 -3 -18 8 -5 9 -13 3 -22 -7 -12 -12 -12
-28 4 -13 11 -22 14 -27 7 -3 -6 5 -16 19 -23 14 -6 26 -15 26 -20 0 -4 16
-16 35 -25 19 -9 35 -23 35 -30 0 -8 4 -12 9 -8 11 6 25 -30 17 -44 -3 -5 4
-11 16 -14 26 -7 24 -9 31 23 5 20 -1 33 -24 58 -16 17 -25 32 -20 32 6 0 11
6 11 13 0 8 9 22 21 33 l20 18 -22 8 c-16 6 -26 3 -40 -13 -11 -12 -19 -17
-19 -11 0 6 5 14 10 17 6 3 10 10 10 16 0 12 -61 11 -80 -1z"/>
<path d="M2576 1392 c-3 -3 -6 -9 -6 -14 0 -11 37 -10 44 1 6 10 -30 22 -38
13z"/>
<path d="M2978 1323 c-20 -5 -23 -25 -8 -54 9 -16 7 -21 -15 -29 -14 -5 -29
-9 -33 -9 -17 3 -32 -2 -32 -10 0 -5 13 -8 29 -7 16 0 27 4 25 8 -5 7 47 13
71 8 5 -1 7 1 3 5 -3 4 -2 20 4 36 10 28 -2 61 -21 58 -3 -1 -14 -3 -23 -6z"/>
<path d="M3065 1259 c-9 -14 -2 -20 14 -10 8 6 9 11 3 15 -6 3 -14 1 -17 -5z"/>
<path d="M2456 1088 c3 -5 10 -6 15 -3 13 9 11 12 -6 12 -8 0 -12 -4 -9 -9z"/>
</g>
</svg>
