<?xml version="1.0" standalone="no"?>
<!DOCTYPE svg PUBLIC "-//W3C//DTD SVG 20010904//EN"
 "http://www.w3.org/TR/2001/REC-SVG-20010904/DTD/svg10.dtd">
<svg version="1.0" xmlns="http://www.w3.org/2000/svg"
 width="450.000000pt" height="253.000000pt" viewBox="0 0 450.000000 253.000000"
 preserveAspectRatio="xMidYMid meet">
<metadata>
Created by potrace 1.16, written by Peter Selinger 2001-2019
</metadata>
<g transform="translate(0.000000,253.000000) scale(0.100000,-0.100000)"
fill="#000000" stroke="none">
<path d="M0 1265 l0 -1265 2250 0 2250 0 0 1265 0 1265 -2250 0 -2250 0 0
-1265z m2570 613 c0 -4 -12 -8 -27 -8 -19 0 -24 3 -15 8 17 11 42 11 42 0z
m67 -1 c20 3 33 1 30 -4 -3 -5 4 -9 16 -8 12 1 27 -2 34 -7 6 -5 22 -10 35
-12 72 -8 312 -146 344 -197 10 -17 -5 -77 -21 -83 -9 -3 -15 1 -15 10 0 8 5
12 10 9 9 -6 14 15 8 31 -2 4 -37 8 -78 9 -72 2 -116 15 -132 39 -5 7 -8 6 -8
-4 0 -9 -13 -2 -33 20 -18 19 -43 44 -55 55 l-23 19 11 -28 11 -29 -43 8 c-24
4 -65 8 -93 10 -44 2 -47 1 -23 -8 33 -13 46 -47 14 -39 -11 3 -27 10 -35 16
-11 8 -13 8 -8 -1 4 -6 3 -14 -2 -17 -5 -4 -12 2 -15 12 -4 12 -17 18 -38 20
-25 2 -29 0 -18 -8 8 -5 23 -10 33 -10 9 0 17 -3 17 -7 0 -5 -11 -8 -25 -8
-14 0 -25 3 -25 7 0 4 -8 5 -17 4 -10 -2 -27 0 -37 4 -18 6 -17 9 12 35 18 16
32 32 32 36 0 4 -16 13 -35 19 -38 13 -47 39 -15 47 11 3 20 11 20 19 0 7 5
16 12 20 7 4 8 3 4 -4 -4 -7 -2 -12 3 -12 6 0 11 6 11 13 0 7 3 8 8 2 11 -16
33 -17 50 -3 12 10 14 10 8 1 -5 -9 0 -13 13 -13 32 0 35 -1 49 -12 9 -8 11
-7 6 6 -3 9 -17 19 -30 22 -13 3 -24 13 -24 22 0 11 3 13 11 5 6 -6 27 -8 46
-6z m-590 -4 l-39 -4 22 -19 c15 -13 31 -17 50 -14 35 7 51 -14 25 -33 -11 -7
-14 -13 -9 -13 6 0 14 4 20 10 15 15 156 20 173 7 12 -10 13 -9 7 2 -7 10 -3
12 15 7 20 -6 21 -5 6 4 -9 6 -21 9 -26 5 -5 -3 -12 -1 -15 4 -4 5 -20 8 -36
6 -17 -2 -30 0 -30 4 0 5 28 9 62 10 35 0 64 5 66 11 2 5 8 10 13 10 6 0 8 -3
5 -8 -7 -11 77 -11 92 0 8 7 12 7 12 -1 0 -6 -4 -11 -9 -11 -5 0 -16 -6 -23
-14 -22 -22 -101 -59 -93 -44 3 7 0 5 -9 -6 -8 -10 -19 -15 -24 -12 -6 3 -12
-1 -16 -9 -3 -8 -13 -15 -22 -15 -13 0 -14 -3 -4 -15 17 -21 4 -50 -24 -51
-17 -1 -23 2 -19 12 7 19 -11 18 -27 -1 -7 -8 -16 -15 -21 -15 -5 0 -6 7 -3
15 4 10 0 15 -16 15 -23 0 -61 17 -71 32 -3 5 -16 10 -27 11 -27 2 -27 1 1 28
l22 21 -41 -7 c-33 -5 -41 -3 -41 9 0 9 7 16 16 16 13 1 13 3 -3 15 -10 8 -23
12 -27 9 -5 -3 -9 -1 -9 5 0 6 -15 15 -32 20 -26 7 -15 9 57 8 50 0 73 -2 52
-4z m-210 -16 c-5 8 -1 8 18 0 33 -16 31 -26 -5 -33 -16 -4 -30 -11 -30 -16 0
-6 8 -7 18 -3 36 15 55 15 23 0 -19 -8 -42 -21 -50 -28 -14 -11 -14 -10 -2 6
14 18 12 21 -13 11 -9 -3 -13 -11 -9 -18 4 -6 -2 -4 -12 4 -10 8 -16 10 -12 3
4 -6 -1 -25 -10 -42 -13 -23 -25 -31 -46 -31 -19 0 -26 -4 -21 -12 4 -6 3 -8
-3 -5 -6 4 -17 -1 -24 -10 -12 -14 -11 -15 9 -9 16 5 22 3 22 -7 0 -9 6 -18
13 -20 6 -3 -5 -6 -25 -6 -27 -1 -40 -7 -48 -21 -11 -21 -6 -24 25 -10 19 8
19 9 1 9 -11 1 -17 4 -13 7 3 4 14 4 23 0 13 -5 14 -9 4 -21 -7 -8 -10 -15 -7
-15 3 0 -8 -15 -26 -32 -18 -18 -39 -42 -47 -53 -14 -18 -13 -19 1 -8 9 7 19
10 22 6 4 -3 7 -1 7 5 0 6 9 14 20 17 11 3 20 12 20 19 0 14 31 32 70 40 14 3
19 3 12 0 -7 -3 -17 -15 -23 -26 -8 -16 -8 -19 1 -13 8 5 11 1 8 -11 -2 -14
-10 -18 -32 -16 -16 2 -32 -2 -37 -10 -12 -19 -11 -28 4 -24 6 3 25 7 41 11
l29 6 -6 -53 c-4 -29 -11 -54 -17 -56 -6 -2 -8 -8 -5 -12 3 -5 1 -11 -5 -15
-5 -3 -10 -1 -10 5 0 6 -5 8 -12 3 -7 -4 -22 -7 -33 -8 -11 0 -19 -6 -17 -13
1 -8 -2 -11 -9 -7 -8 5 -8 10 0 18 17 17 13 26 -8 20 -13 -3 -18 -11 -14 -21
4 -14 3 -14 -5 -3 -5 7 -7 32 -4 54 4 29 2 38 -6 33 -8 -5 -12 3 -12 23 0 109
132 329 202 337 34 4 34 4 21 12 -10 6 -9 13 3 30 13 19 18 21 32 10 9 -8 13
-8 9 -1z m54 -74 c13 -16 12 -17 -3 -4 -10 7 -18 15 -18 17 0 8 8 3 21 -13z
m-101 -113 c0 -5 -8 -10 -17 -10 -15 0 -16 2 -3 10 19 12 20 12 20 0z m1003
-21 c15 -6 27 -15 27 -19 0 -9 -32 -6 -49 5 -9 5 -12 4 -7 -3 3 -6 2 -14 -4
-17 -6 -4 -10 -3 -9 2 4 23 -2 35 -16 29 -8 -3 -15 -1 -15 5 0 6 -7 9 -15 6
-8 -4 -17 -1 -21 5 -4 7 -3 8 4 4 7 -4 12 -3 12 3 0 10 40 1 93 -20z m-1053
11 c0 -5 -5 -10 -11 -10 -5 0 -7 5 -4 10 3 6 8 10 11 10 2 0 4 -4 4 -10z
m1130 -24 c0 -2 -9 -6 -20 -9 -11 -3 -20 -1 -20 4 0 5 9 9 20 9 11 0 20 -2 20
-4z m26 -18 c4 -7 4 -10 -1 -6 -4 4 -14 3 -21 -3 -8 -7 -14 -6 -20 2 -4 7 -3
9 4 5 6 -3 13 -2 17 4 8 13 12 13 21 -2z"/>
<path d="M1677 1427 c-10 -10 -17 -20 -15 -23 8 -7 41 22 37 32 -2 6 -12 1
-22 -9z"/>
</g>
</svg>
