<?xml version="1.0" standalone="no"?>
<!DOCTYPE svg PUBLIC "-//W3C//DTD SVG 20010904//EN"
 "http://www.w3.org/TR/2001/REC-SVG-20010904/DTD/svg10.dtd">
<svg version="1.0" xmlns="http://www.w3.org/2000/svg"
 width="450.000000pt" height="253.000000pt" viewBox="0 0 450.000000 253.000000"
 preserveAspectRatio="xMidYMid meet">
<metadata>
Created by potrace 1.16, written by Peter Selinger 2001-2019
</metadata>
<g transform="translate(0.000000,253.000000) scale(0.100000,-0.100000)"
fill="#000000" stroke="none">
<path d="M0 1265 l0 -1265 2250 0 2250 0 0 1265 0 1265 -2250 0 -2250 0 0
-1265z m2031 593 c6 -12 21 -18 44 -18 21 0 38 -6 45 -17 10 -16 11 -15 7 5
-3 12 -1 20 4 16 5 -3 9 -12 9 -20 0 -11 13 -14 60 -13 32 1 57 6 54 10 -3 5
2 6 10 3 9 -3 16 -2 16 4 0 6 -6 12 -12 15 -10 3 -10 8 1 18 8 9 11 9 7 2 -5
-9 -2 -11 8 -7 9 3 13 11 10 16 -4 6 1 6 13 -1 11 -6 23 -8 26 -4 3 3 32 2 64
-2 32 -4 51 -10 43 -13 -8 -3 -17 -9 -20 -13 -9 -13 -140 -79 -156 -79 -12 0
-12 -4 -4 -21 15 -27 9 -41 -18 -46 -21 -3 -22 -1 -11 19 11 21 10 21 -24 -5
-42 -32 -49 -33 -45 -9 2 9 -3 16 -9 15 -7 -2 -13 2 -13 7 0 6 -6 10 -12 9 -7
-1 -29 5 -48 14 -19 8 -38 13 -42 11 -3 -2 -5 4 -3 13 1 10 8 17 14 16 6 -2
11 2 11 8 0 7 -14 9 -40 5 -37 -5 -39 -4 -28 14 7 10 16 17 20 14 4 -3 5 2 2
10 -3 9 -14 16 -23 16 -9 1 -27 7 -41 15 -24 15 -24 15 23 13 35 -1 51 -7 58
-20z m506 16 c-3 -3 -12 -4 -19 -1 -8 3 -5 6 6 6 11 1 17 -2 13 -5z m92 -6
c11 -11 12 -10 6 1 -6 11 -4 13 9 8 10 -4 22 -7 27 -7 6 0 8 -3 6 -7 -3 -5 7
-8 21 -9 32 -1 57 -7 95 -22 16 -7 32 -12 37 -12 26 0 209 -111 218 -132 2 -4
8 -8 14 -8 15 0 37 -31 38 -53 0 -10 -9 -27 -20 -39 -25 -27 -27 -12 -2 15 16
19 16 20 -3 15 -11 -3 -26 1 -34 9 -10 11 -16 11 -27 2 -10 -8 -14 -8 -14 0 0
6 -5 11 -11 11 -5 0 -7 -6 -3 -12 6 -10 4 -10 -8 0 -9 7 -28 11 -42 8 -18 -3
-24 -1 -20 6 5 8 1 9 -10 5 -10 -4 -24 1 -36 13 -11 11 -20 15 -20 8 0 -6 -12
-1 -27 13 -16 14 -37 32 -47 40 -18 13 -19 12 -13 -5 6 -16 4 -18 -25 -12 -18
4 -57 9 -85 13 -55 6 -58 4 -53 -41 2 -18 1 -18 -15 -3 -9 10 -22 14 -28 10
-6 -4 -20 -8 -29 -8 -14 -1 -15 1 -7 12 12 13 -2 19 -15 6 -12 -12 -56 -14
-56 -3 0 6 11 22 24 35 l25 25 -22 15 c-12 8 -27 15 -34 15 -19 0 -16 35 4 51
11 10 14 10 9 2 -8 -15 6 -17 20 -4 11 11 106 17 121 8 11 -7 23 1 23 15 0 4
-6 8 -14 8 -8 0 -18 5 -21 10 -9 14 28 12 44 -2z m-809 -18 c-8 -6 -10 -10 -4
-10 7 0 9 -11 6 -25 -2 -14 -10 -25 -18 -25 -7 0 -21 -13 -31 -30 -9 -16 -21
-30 -26 -30 -4 0 -5 -4 -2 -10 3 -5 2 -10 -4 -10 -12 0 -51 -40 -51 -52 0 -5
5 -6 10 -3 6 3 10 1 10 -4 0 -6 -12 -11 -28 -11 -17 0 -32 -8 -41 -22 -14 -23
-14 -23 8 -4 19 17 21 17 21 3 0 -10 -10 -27 -22 -39 -13 -13 -22 -27 -20 -31
1 -4 -10 -19 -25 -33 -19 -17 -21 -22 -8 -15 11 5 38 26 59 45 45 41 71 47 61
15 -5 -14 -3 -19 3 -15 6 3 8 -2 5 -13 -4 -14 -11 -18 -29 -15 -15 3 -26 -2
-33 -14 -9 -18 -7 -19 29 -12 46 8 48 4 28 -79 -10 -44 -14 -50 -32 -46 -32 8
-69 13 -90 14 -12 1 -16 6 -12 17 4 9 1 24 -6 32 -11 13 -11 14 0 8 11 -7 11
-4 1 12 -15 24 2 114 33 177 38 74 128 190 149 190 5 0 9 4 8 9 -1 11 53 47
60 40 3 -3 -1 -9 -9 -14z m263 13 c-7 -2 -21 -2 -30 0 -10 3 -4 5 12 5 17 0
24 -2 18 -5z m90 -24 c-8 -8 -13 -7 -18 2 -5 8 -4 10 3 5 7 -4 12 -2 12 5 0 7
3 9 7 6 4 -4 2 -12 -4 -18z m73 8 c4 -4 -2 -7 -14 -7 -11 0 -24 5 -27 10 -7
11 30 8 41 -3z m-384 -12 c0 -5 -5 -11 -10 -13 -5 -1 -9 4 -9 13 0 9 4 14 9
13 5 -2 10 -8 10 -13z m123 -5 c3 -6 -1 -7 -9 -4 -18 7 -21 14 -7 14 6 0 13
-4 16 -10z m-130 -30 c-3 -5 -11 -10 -16 -10 -6 0 -7 5 -4 10 3 6 11 10 16 10
6 0 7 -4 4 -10z m789 -112 c-3 -5 -9 -6 -14 -3 -4 3 -10 0 -12 -7 -3 -8 -7 -6
-11 5 -5 13 -1 16 18 15 13 -1 21 -6 19 -10z m223 -61 c4 -5 -1 -5 -11 -1 -15
6 -17 4 -11 -7 8 -12 6 -12 -8 -1 -9 8 -22 10 -28 6 -8 -5 -9 -3 -4 6 6 10 3
12 -12 8 -11 -3 -20 0 -20 6 0 9 11 9 43 1 24 -6 46 -14 51 -18z m166 -68 c5
-3 -2 -8 -16 -11 -22 -4 -24 -3 -14 13 6 10 14 15 17 11 3 -4 9 -10 13 -13z"/>
<path d="M2090 1800 c-9 -6 -10 -10 -3 -10 6 0 15 5 18 10 8 12 4 12 -15 0z"/>
<path d="M1672 1698 c-16 -16 -15 -33 1 -19 8 6 17 8 21 4 4 -4 4 0 0 10 -7
20 -7 20 -22 5z"/>
</g>
</svg>
