<?xml version="1.0" standalone="no"?>
<!DOCTYPE svg PUBLIC "-//W3C//DTD SVG 20010904//EN"
 "http://www.w3.org/TR/2001/REC-SVG-20010904/DTD/svg10.dtd">
<svg version="1.0" xmlns="http://www.w3.org/2000/svg"
 width="450.000000pt" height="253.000000pt" viewBox="0 0 450.000000 253.000000"
 preserveAspectRatio="xMidYMid meet">
<metadata>
Created by potrace 1.16, written by Peter Selinger 2001-2019
</metadata>
<g transform="translate(0.000000,253.000000) scale(0.100000,-0.100000)"
fill="#000000" stroke="none">
<path d="M0 1265 l0 -1265 2250 0 2250 0 0 1265 0 1265 -780 0 -781 0 50 -47
c54 -52 105 -138 115 -193 4 -19 12 -78 18 -131 l11 -95 58 -18 59 -17 37 25
c31 22 49 26 104 26 72 0 106 -10 214 -61 151 -71 201 -127 197 -222 -3 -67
-19 -93 -121 -195 -104 -105 -161 -146 -215 -156 -22 -4 -56 -14 -77 -22 l-37
-15 44 -46 c24 -25 47 -57 50 -71 4 -15 10 -31 14 -37 7 -9 14 -34 25 -95 3
-14 7 -36 9 -50 20 -104 13 -153 -25 -165 -10 -4 -19 -13 -19 -21 0 -8 -6 -14
-13 -14 -7 0 -24 -8 -37 -18 -38 -26 -156 -51 -246 -52 -158 0 -292 25 -407
78 -48 22 -61 24 -77 14 -11 -7 -29 -12 -40 -12 -11 0 -20 -6 -20 -14 0 -8
-16 -31 -35 -50 -21 -22 -35 -46 -35 -61 0 -33 -110 -145 -175 -178 -119 -60
-205 -68 -285 -27 -63 32 -81 61 -134 208 -26 73 -34 164 -17 206 12 32 1 76
-20 76 -23 0 -25 19 -3 34 13 10 -3 15 -83 30 -93 18 -264 83 -288 111 -5 6
-21 18 -35 27 -14 9 -34 33 -45 54 -11 22 -23 41 -26 44 -6 5 -16 48 -26 112
-5 39 24 104 71 157 24 27 121 101 133 101 4 1 19 10 33 21 l25 21 -45 42
c-76 70 -126 138 -154 212 -38 100 -43 161 -20 218 18 43 22 46 87 67 55 18
92 22 195 22 113 0 136 -3 207 -28 65 -23 99 -28 181 -30 l101 -1 23 33 c34
49 131 131 203 169 l62 34 -1252 0 -1253 0 0 -1265z m2646 -416 c-3 -34 -8
-64 -11 -68 -7 -6 -5 72 2 107 10 44 15 21 9 -39z m-9 -111 c-3 -7 -5 -2 -5
12 0 14 2 19 5 13 2 -7 2 -19 0 -25z m-17 -155 c-11 -17 -11 -17 -6 0 3 10 6
24 7 30 0 9 2 9 5 0 3 -7 0 -20 -6 -30z m-3 -90 c-3 -10 -5 -2 -5 17 0 19 2
27 5 18 2 -10 2 -26 0 -35z m-10 -140 c-2 -16 -4 -3 -4 27 0 30 2 43 4 28 2
-16 2 -40 0 -55z m-10 -95 c-3 -8 -6 -5 -6 6 -1 11 2 17 5 13 3 -3 4 -12 1
-19z"/>
<path d="M2303 2026 c0 -9 4 -16 9 -16 5 0 6 -4 3 -10 -3 -6 1 -7 9 -4 9 3 16
11 16 17 0 6 -3 7 -7 4 -3 -4 -11 1 -18 9 -11 15 -12 15 -12 0z"/>
<path d="M2420 1760 c-14 -10 -22 -21 -19 -25 4 -3 3 -22 -1 -41 -6 -24 -4
-39 5 -47 7 -7 15 -22 19 -33 6 -20 28 -35 69 -48 19 -6 24 -36 5 -36 -8 0
-14 -16 -15 -40 -1 -43 0 -44 67 -40 19 1 38 7 41 12 4 6 11 8 17 4 6 -3 13
-2 17 4 3 5 2 10 -4 10 -16 0 -23 38 -11 59 10 19 7 21 -29 27 -49 8 -90 37
-134 95 -34 44 -48 90 -21 68 10 -8 15 -5 20 16 9 34 4 37 -26 15z"/>
<path d="M2710 1660 c0 -5 -6 -10 -13 -10 -31 0 -62 -70 -37 -85 6 -3 10 -1
10 4 0 6 6 11 13 11 7 0 21 16 30 35 19 41 21 55 7 55 -5 0 -10 -4 -10 -10z"/>
<path d="M1749 1637 l-23 -18 40 -37 c22 -20 38 -36 35 -35 -2 1 -12 -2 -23
-8 -24 -13 -14 -29 18 -29 20 0 24 5 24 33 0 24 3 28 10 17 14 -22 13 5 -1 32
-8 16 -8 19 1 13 9 -6 9 -3 1 12 -6 13 -7 23 -1 29 18 18 -58 10 -81 -9z m66
4 c-9 -8 -36 -10 -30 -2 2 4 11 8 20 8 8 0 13 -3 10 -6z"/>
<path d="M1500 1589 c0 -4 7 -9 15 -13 9 -3 15 0 15 8 0 7 -7 13 -15 13 -8 0
-15 -4 -15 -8z"/>
<path d="M1489 1553 c-7 -10 -9 -15 -5 -11 5 4 15 0 22 -9 11 -15 11 -14 7 10
-6 32 -7 32 -24 10z"/>
<path d="M2390 1535 c-7 -8 -23 -13 -36 -11 -18 4 -21 1 -17 -11 5 -12 3 -14
-7 -8 -8 5 -11 4 -7 -2 11 -18 90 -11 111 9 22 20 21 23 -10 32 -13 4 -26 1
-34 -9z"/>
<path d="M2153 1433 c-34 -17 -43 -33 -20 -33 8 0 24 11 37 25 27 29 26 29
-17 8z"/>
<path d="M2347 1424 c-32 -17 -31 -37 1 -42 14 -2 22 2 22 12 0 8 9 18 20 21
11 4 18 11 15 16 -8 13 -25 11 -58 -7z"/>
<path d="M1925 1410 c3 -5 16 -10 27 -10 26 0 16 13 -13 17 -12 2 -18 -1 -14
-7z"/>
<path d="M1895 1371 c-3 -5 -1 -12 5 -16 5 -3 10 1 10 9 0 18 -6 21 -15 7z"/>
<path d="M2228 1363 c7 -3 16 -2 19 1 4 3 -2 6 -13 5 -11 0 -14 -3 -6 -6z"/>
<path d="M2345 1330 c-4 -6 -10 -8 -15 -5 -4 3 -13 -9 -19 -25 -7 -22 -7 -30
2 -31 7 0 21 -2 32 -4 39 -8 57 5 50 33 -9 36 -37 54 -50 32z"/>
<path d="M2263 1245 c0 -8 4 -15 8 -15 4 0 9 7 13 15 3 9 0 15 -8 15 -7 0 -13
-7 -13 -15z"/>
<path d="M2236 1191 c-4 -6 -4 -11 1 -11 4 0 1 -5 -7 -10 -8 -5 -10 -10 -5
-10 6 0 17 5 25 10 11 7 12 12 4 20 -9 9 -14 9 -18 1z"/>
<path d="M3296 1159 c-14 -31 -15 -42 -5 -61 16 -30 69 -83 69 -69 0 6 5 11
11 11 5 0 7 -5 3 -12 -4 -7 -3 -8 4 -4 16 10 15 30 -5 74 -9 20 -15 40 -15 45
1 4 -3 7 -9 7 -5 0 -8 4 -4 9 3 5 1 12 -5 16 -6 4 -8 10 -6 14 3 4 -1 8 -8 8
-8 0 -21 -17 -30 -38z"/>
<path d="M2588 1156 c-34 -43 -74 -45 -71 -3 2 26 1 27 -26 12 -36 -18 -46
-42 -22 -54 31 -17 79 -6 111 24 16 16 30 25 30 21 0 -4 6 -1 14 6 13 13 12
28 -2 28 -4 0 -19 -15 -34 -34z"/>
<path d="M2685 1160 c-3 -5 4 -7 15 -5 11 2 20 0 20 -6 0 -5 5 -9 12 -9 9 0 9
3 0 12 -15 15 -40 19 -47 8z"/>
<path d="M2195 1150 c-3 -5 1 -10 10 -10 9 0 13 5 10 10 -3 6 -8 10 -10 10 -2
0 -7 -4 -10 -10z"/>
<path d="M2220 1040 c-9 -6 -10 -10 -3 -10 6 0 15 5 18 10 8 12 4 12 -15 0z"/>
</g>
</svg>
