<?xml version="1.0" standalone="no"?>
<!DOCTYPE svg PUBLIC "-//W3C//DTD SVG 20010904//EN"
 "http://www.w3.org/TR/2001/REC-SVG-20010904/DTD/svg10.dtd">
<svg version="1.0" xmlns="http://www.w3.org/2000/svg"
 width="450.000000pt" height="253.000000pt" viewBox="0 0 450.000000 253.000000"
 preserveAspectRatio="xMidYMid meet">
<metadata>
Created by potrace 1.16, written by Peter Selinger 2001-2019
</metadata>
<g transform="translate(0.000000,253.000000) scale(0.100000,-0.100000)"
fill="#000000" stroke="none">
<path d="M0 1265 l0 -1265 2250 0 2250 0 0 1265 0 1265 -2250 0 -2250 0 0
-1265z m3060 704 c51 -15 222 -88 241 -102 9 -7 26 -30 38 -52 77 -149 87
-200 49 -252 -100 -135 -116 -151 -188 -188 -19 -9 -44 -25 -55 -35 -34 -31
-97 -61 -113 -55 -8 3 -21 0 -28 -6 -11 -9 -14 -7 -14 9 0 11 6 23 13 25 6 3
3 6 -8 7 -11 1 -35 3 -52 5 -18 2 -35 -1 -39 -6 -16 -27 -172 36 -240 97 -22
19 -35 34 -30 34 6 0 1 7 -10 15 -18 15 -18 15 0 8 13 -4 17 -3 12 5 -4 7 1 9
16 6 51 -12 65 -12 65 2 0 10 -4 11 -13 3 -8 -7 -14 -7 -19 1 -4 6 -1 9 7 8 7
-2 12 2 11 9 -2 7 4 10 12 7 14 -6 17 -12 14 -30 -1 -12 26 -24 56 -24 25 1
27 2 12 11 -9 5 -21 8 -26 5 -10 -7 -37 22 -28 30 3 3 18 -2 34 -11 17 -11 21
-11 11 -2 -19 15 -25 32 -8 22 6 -4 18 -1 27 7 14 11 16 11 8 -2 -7 -13 -6
-13 7 -2 9 7 28 11 43 8 15 -3 25 -2 21 1 -4 4 -17 8 -29 10 -12 2 -33 7 -47
12 -14 5 -43 12 -64 16 -71 12 -118 36 -113 56 3 11 1 17 -4 13 -5 -3 -9 8 -9
25 0 16 -4 33 -10 36 -15 9 -12 34 10 81 28 56 33 84 14 77 -8 -3 -14 0 -14 6
0 6 7 11 16 11 8 0 13 4 9 10 -15 24 150 94 245 102 54 5 131 -1 170 -13z
m-505 -59 c16 -3 31 -13 33 -22 2 -12 -21 -21 -108 -43 -111 -27 -122 -34
-127 -70 -4 -25 -21 -35 -58 -33 -17 1 -36 -2 -43 -6 -7 -4 -12 -2 -12 6 -1
13 -81 80 -88 73 -3 -2 6 -20 18 -39 12 -20 19 -40 15 -46 -8 -13 -25 -3 -25
15 0 23 -44 83 -65 89 -27 8 -31 -1 -10 -24 15 -16 15 -20 3 -20 -8 0 -18 3
-22 8 -4 4 -18 7 -29 7 -16 0 -23 7 -25 26 -3 30 13 46 48 49 44 4 52 1 46
-16 -4 -10 -1 -14 6 -12 23 8 20 36 -4 44 -21 8 -20 9 12 15 42 8 393 8 435
-1z m-427 -157 c3 -23 -22 -48 -38 -38 -8 5 -8 11 -1 19 6 7 8 16 5 19 -9 9 6
29 19 24 7 -2 13 -13 15 -24z m-84 -45 c-5 -8 -1 -7 10 2 16 13 20 12 30 -2 7
-9 21 -16 32 -15 13 1 20 -5 22 -21 3 -17 -1 -21 -15 -19 -10 1 -24 7 -32 11
-10 6 -12 5 -7 -2 5 -8 2 -10 -8 -6 -9 3 -14 10 -11 14 3 4 -15 7 -40 6 -25
-1 -45 0 -45 1 0 1 10 11 22 23 24 22 54 28 42 8z m118 -50 c-7 -7 -12 -8 -12
-2 0 6 3 14 7 17 3 4 9 5 12 2 2 -3 -1 -11 -7 -17z m-190 -37 c-4 -11 -1 -13
14 -7 37 14 74 18 74 8 0 -5 -15 -15 -32 -22 -29 -10 -31 -12 -15 -21 9 -6 15
-14 12 -20 -4 -5 0 -9 7 -9 10 0 10 -2 -1 -9 -7 -5 -21 -7 -30 -4 -10 2 -24
-4 -31 -14 -10 -13 -11 -15 -1 -6 7 6 20 9 27 6 11 -4 10 -10 -4 -32 -33 -47
-37 -57 -14 -37 29 25 35 17 21 -25 -11 -31 -38 -66 -56 -72 -4 -1 -6 -8 -5
-16 2 -8 -1 -10 -9 -6 -15 10 -8 220 8 236 7 7 9 17 7 24 -3 7 -1 16 5 20 6 3
11 18 12 33 0 24 1 25 8 7 5 -11 6 -26 3 -34z m122 -12 c-6 -11 -24 -2 -24 11
0 5 7 7 15 4 8 -4 12 -10 9 -15z m876 -339 c-19 -12 -40 -13 -40 -1 0 9 40 20
50 13 2 -2 -2 -7 -10 -12z"/>
<path d="M2934 1538 c3 -17 36 -23 36 -8 0 7 -6 10 -14 7 -8 -3 -17 -2 -20 4
-2 5 -3 4 -2 -3z"/>
<path d="M2980 1522 c0 -9 6 -12 16 -8 9 3 20 6 25 6 6 0 8 4 4 9 -8 15 -45 9
-45 -7z"/>
<path d="M3106 1502 c-3 -5 -44 -8 -91 -7 -47 1 -85 -2 -85 -7 0 -5 -4 -6 -10
-3 -5 3 -10 1 -10 -4 0 -6 -15 -11 -32 -11 -24 0 -29 -3 -19 -9 8 -5 45 -8 83
-6 75 4 88 -6 31 -22 -35 -10 -36 -11 -10 -12 16 0 26 -5 23 -10 -4 -5 2 -8
11 -7 9 2 29 -10 45 -26 33 -34 51 -38 20 -5 l-22 24 22 10 c13 5 31 9 41 7 9
-1 17 2 17 7 0 6 6 7 17 1 17 -10 63 4 63 18 0 4 8 10 19 13 10 2 20 15 23 28
4 21 0 24 -24 24 -15 0 -28 -3 -28 -7 0 -4 -12 -5 -26 -2 -19 3 -24 1 -18 -8
4 -7 -2 -5 -13 5 -12 10 -24 14 -27 9z"/>
<path d="M1968 1593 c7 -3 16 -2 19 1 4 3 -2 6 -13 5 -11 0 -14 -3 -6 -6z"/>
</g>
</svg>
