<?xml version="1.0" standalone="no"?>
<!DOCTYPE svg PUBLIC "-//W3C//DTD SVG 20010904//EN"
 "http://www.w3.org/TR/2001/REC-SVG-20010904/DTD/svg10.dtd">
<svg version="1.0" xmlns="http://www.w3.org/2000/svg"
 width="450.000000pt" height="253.000000pt" viewBox="0 0 450.000000 253.000000"
 preserveAspectRatio="xMidYMid meet">
<metadata>
Created by potrace 1.16, written by Peter Selinger 2001-2019
</metadata>
<g transform="translate(0.000000,253.000000) scale(0.100000,-0.100000)"
fill="#000000" stroke="none">
<path d="M0 1265 l0 -1265 2250 0 2250 0 0 1265 0 1265 -655 0 c-360 0 -655
-2 -655 -4 0 -3 9 -20 19 -38 29 -50 41 -128 44 -288 2 -121 5 -146 17 -147 8
0 45 -12 81 -25 l67 -25 27 21 c45 32 129 33 185 1 25 -14 82 -43 126 -64 46
-22 91 -52 103 -68 11 -15 26 -34 32 -41 8 -10 8 -17 0 -25 -6 -6 -11 -26 -11
-45 0 -28 -9 -43 -48 -81 -135 -129 -214 -187 -271 -197 -20 -3 -53 -10 -74
-16 -38 -9 -39 -10 -21 -29 17 -19 20 -42 14 -124 -1 -11 6 -47 14 -80 34
-130 13 -243 -57 -308 -22 -20 -46 -37 -54 -37 -7 0 -13 -5 -13 -11 0 -19 -77
-7 -300 47 -35 9 -82 24 -104 35 -22 10 -43 19 -46 19 -4 0 -6 -30 -6 -67 l1
-68 -35 -16 c-19 -9 -57 -19 -84 -23 l-49 -6 -82 83 c-45 45 -99 98 -121 117
-61 56 -76 81 -70 117 4 28 2 32 -24 38 -19 4 -33 16 -42 36 -7 16 -30 41 -51
55 -46 30 -57 53 -73 159 -10 60 -10 60 0 111 5 27 2 68 -9 119 -8 42 -13 86
-10 96 3 10 -1 31 -9 47 -14 27 -13 39 9 148 28 133 51 169 124 192 52 16 115
59 136 95 9 15 14 27 11 27 -13 0 29 75 54 97 16 13 32 32 35 42 3 10 22 30
43 45 20 14 53 39 72 56 l34 30 -1387 0 -1387 0 0 -1265z m2407 -567 c-3 -7
-5 -2 -5 12 0 14 2 19 5 13 2 -7 2 -19 0 -25z m0 -125 c-3 -10 -5 -2 -5 17 0
19 2 27 5 18 2 -10 2 -26 0 -35z"/>
<path d="M2895 1950 c-3 -5 -1 -10 4 -10 6 0 11 5 11 10 0 6 -2 10 -4 10 -3 0
-8 -4 -11 -10z"/>
<path d="M2526 1939 c-16 -4 -37 -17 -48 -28 -10 -12 -23 -21 -28 -21 -6 0
-10 -7 -10 -15 0 -8 -4 -15 -8 -15 -8 0 -23 -52 -37 -125 -3 -16 -1 -45 4 -63
9 -30 7 -36 -14 -55 -19 -17 -22 -26 -15 -37 8 -12 14 -10 36 18 14 17 32 32
40 32 11 0 13 6 9 21 -9 28 13 67 47 85 15 8 28 21 28 29 0 18 29 35 58 35 14
0 11 41 -3 47 -12 4 -12 7 1 20 8 8 21 13 28 10 18 -7 36 12 29 29 -3 8 -15
14 -27 14 -12 0 -30 6 -41 13 -14 10 -29 11 -49 6z"/>
<path d="M2998 1935 c-4 -4 -4 -13 -1 -21 3 -8 -1 -14 -10 -14 -12 0 -14 -6
-7 -28 5 -18 3 -42 -5 -66 -11 -31 -11 -38 0 -43 25 -9 50 2 47 21 -2 11 1 15
7 11 6 -3 11 -1 11 5 0 6 6 8 13 5 6 -4 5 -1 -4 7 -9 7 -14 19 -12 25 3 7 -3
16 -12 19 -12 5 -14 9 -4 14 19 13 40 0 34 -20 -3 -10 0 -22 6 -26 7 -4 9 -3
5 4 -3 6 -3 13 2 16 4 2 9 -9 10 -25 2 -23 -3 -31 -23 -39 -14 -5 -25 -13 -25
-18 0 -16 32 -52 46 -52 16 0 19 -16 4 -25 -8 -5 -8 -11 0 -20 7 -9 6 -16 -4
-25 -19 -15 -36 -5 -36 22 0 11 -8 22 -20 25 -11 3 -20 9 -20 14 0 5 -12 8
-26 7 -19 -2 -29 -11 -37 -32 l-10 -29 -19 23 c-17 21 -17 24 -2 41 14 16 14
19 3 19 -8 0 -21 -6 -27 -12 -10 -10 -12 -8 -9 7 1 11 6 26 11 33 4 7 5 16 2
19 -3 3 -1 12 6 20 17 20 3 27 -33 14 -45 -15 -79 -14 -79 3 0 18 -37 46 -54
41 -6 -2 -23 -6 -38 -9 -16 -4 -28 -11 -28 -16 0 -5 6 -7 14 -4 11 4 14 -2 14
-26 -1 -24 -7 -34 -27 -42 -21 -8 -23 -11 -10 -18 8 -5 24 -7 35 -6 10 2 29
-5 41 -16 12 -11 26 -17 32 -14 21 13 -5 -60 -38 -109 -26 -38 -26 -43 2 -47
21 -3 20 -4 -8 -19 -16 -8 -29 -21 -27 -28 1 -7 -2 -19 -8 -25 -12 -16 -3 -26
22 -26 10 0 31 -11 46 -25 l27 -26 -44 7 -44 7 21 -21 c24 -24 29 -73 11 -119
-9 -25 -12 -26 -20 -10 -6 9 -8 21 -4 26 7 12 -43 71 -60 71 -7 0 -19 8 -26
18 -12 15 -12 16 1 6 20 -15 60 -24 60 -14 0 5 3 16 6 25 4 9 3 15 -2 14 -25
-4 -52 3 -57 15 -4 9 0 12 13 9 10 -3 21 1 26 8 5 9 2 11 -9 6 -11 -4 -14 -2
-11 8 4 9 -7 18 -35 26 -23 7 -41 16 -41 21 0 5 17 16 37 25 38 15 65 42 57
55 -3 4 2 5 10 2 22 -9 20 19 -3 40 -17 16 -19 15 -35 -8 -9 -14 -16 -32 -16
-40 0 -9 -6 -13 -14 -10 -30 12 13 74 62 89 16 5 22 2 22 -9 0 -9 7 -16 15
-16 8 0 15 7 15 15 0 8 -5 15 -10 15 -6 0 -9 5 -8 11 2 7 -12 18 -30 25 -17 8
-31 11 -31 7 4 -24 -3 -25 -14 -3 -7 13 -24 30 -37 37 -23 11 -26 10 -47 -25
-13 -20 -23 -46 -23 -57 0 -12 -4 -25 -9 -30 -4 -6 -11 -25 -15 -44 l-6 -34
35 6 c19 3 35 2 35 -4 0 -5 -5 -9 -12 -9 -6 0 -8 -3 -5 -7 4 -3 2 -12 -4 -20
-9 -10 -8 -13 2 -13 10 -1 8 -4 -3 -11 -17 -9 -17 -12 -2 -34 l16 -24 -44 21
c-64 32 -71 34 -95 30 -15 -2 -20 -8 -16 -18 6 -16 77 -56 85 -48 3 2 13 -7
22 -21 9 -14 21 -23 27 -19 5 3 24 -10 42 -30 50 -55 58 -66 51 -66 -3 0 -1
-7 6 -15 7 -8 16 -12 21 -9 14 9 10 -15 -7 -41 -18 -27 -60 -36 -50 -10 4 10
-1 15 -15 15 -19 0 -19 -1 -3 -26 12 -17 23 -24 37 -20 26 7 63 -12 75 -38 5
-13 18 -23 27 -23 14 0 13 3 -4 17 -13 9 -20 22 -16 31 3 9 -1 22 -10 29 -17
14 -18 20 -6 39 8 12 13 11 30 -10 25 -30 26 -48 4 -65 -17 -13 -17 -13 2 -15
11 -1 24 0 30 1 5 1 7 -2 3 -5 -13 -14 12 -45 37 -45 13 0 27 -5 31 -11 9 -15
62 -3 86 18 19 17 25 39 8 28 -5 -3 -10 1 -10 9 0 11 -9 16 -29 16 -17 0 -31
6 -35 16 -6 14 -9 14 -26 -6 -19 -21 -20 -22 -26 -4 -4 11 -13 34 -20 53 -18
42 -18 59 -2 43 7 -7 20 -12 29 -12 9 0 19 -7 23 -15 3 -9 18 -15 36 -15 19 0
29 4 25 10 -4 6 -10 8 -15 5 -10 -6 -25 13 -34 43 -6 16 -3 22 9 22 8 0 18 7
21 15 4 8 11 15 16 15 6 0 19 11 29 24 16 21 58 37 99 40 8 0 20 9 26 19 11
19 12 19 32 -3 20 -22 62 -21 62 1 0 6 4 8 9 4 10 -6 24 11 27 32 2 13 -25 40
-35 35 -3 -2 -7 2 -10 9 -2 6 1 9 7 5 6 -3 13 -2 17 4 4 6 11 8 16 5 5 -4 9
-1 9 5 0 8 -6 9 -17 4 -24 -10 -133 -15 -133 -5 0 13 29 46 30 34 0 -14 30
-19 30 -5 0 4 11 19 24 34 14 14 24 28 23 30 -1 2 3 -1 8 -7 13 -13 51 -11 93
5 26 10 32 17 32 40 0 16 -4 31 -9 35 -13 7 -12 105 1 105 5 0 6 5 3 10 -8 13
18 13 30 1 12 -12 67 -2 59 10 -3 5 -10 7 -15 4 -5 -4 -13 4 -18 17 -9 24 -40
44 -76 50 -11 2 -21 9 -21 16 -1 6 -2 16 -3 21 -1 10 -26 9 -36 -1 -3 -3 -22
1 -43 8 -51 18 -68 18 -53 0 10 -12 8 -13 -8 -9 -12 3 -18 10 -14 17 4 6 0 5
-9 -2 -14 -11 -17 -10 -20 8 -2 12 -6 19 -10 15z m-252 -97 c4 -7 3 -8 -4 -4
-7 4 -12 2 -12 -5 0 -7 -3 -10 -6 -6 -6 5 3 27 11 27 2 0 7 -5 11 -12z m384
-10 c0 -6 -3 -8 -7 -5 -3 4 -13 1 -22 -6 -14 -11 -14 -10 -2 6 15 20 31 22 31
5z m-372 -64 c13 -6 19 -15 14 -18 -8 -5 -72 20 -72 28 0 7 37 1 58 -10z m392
-18 c0 -3 -4 -8 -10 -11 -5 -3 -10 -1 -10 4 0 6 5 11 10 11 6 0 10 -2 10 -4z
m-320 -10 c0 -2 -11 -6 -25 -8 -13 -3 -22 -1 -19 3 5 9 44 13 44 5z m18 -105
c3 -19 0 -22 -17 -16 -27 8 -27 -11 0 -26 15 -8 18 -14 10 -22 -8 -8 -17 -5
-35 12 -22 21 -23 24 -9 52 18 35 46 35 51 0z m177 -61 c-3 -5 -14 -10 -23
-10 -15 0 -15 2 -2 10 20 13 33 13 25 0z m-138 -37 c3 -7 0 -13 -7 -13 -6 0
-9 -4 -5 -9 3 -6 -10 -17 -29 -26 -20 -9 -38 -26 -42 -37 -3 -11 -9 -17 -12
-13 -14 14 -6 31 23 49 27 18 28 20 10 24 -38 8 -66 22 -61 30 8 13 119 8 123
-5z m-157 -43 c0 -5 -2 -10 -4 -10 -3 0 -8 5 -11 10 -3 6 -1 10 4 10 6 0 11
-4 11 -10z m221 -15 c5 4 6 -1 3 -9 -9 -23 -20 -19 -21 7 0 12 1 16 4 9 3 -6
9 -10 14 -7z m30 -28 c-6 -6 -11 -19 -11 -28 0 -22 -26 -45 -32 -27 -5 15 45
90 51 76 2 -5 -2 -15 -8 -21z m-71 -27 c0 -5 -4 -10 -10 -10 -5 0 -10 5 -10
10 0 6 5 10 10 10 6 0 10 -4 10 -10z m-112 -135 c-3 -3 -9 2 -12 12 -6 14 -5
15 5 6 7 -7 10 -15 7 -18z m-35 -170 c-3 -9 -8 -14 -10 -11 -3 3 -2 9 2 15 9
16 15 13 8 -4z"/>
<path d="M2800 1913 c1 -23 18 -33 49 -27 18 4 29 10 24 15 -11 11 -73 21 -73
12z"/>
<path d="M2717 1893 c-12 -12 -7 -21 10 -19 21 3 30 26 11 26 -8 0 -18 -3 -21
-7z"/>
<path d="M2620 1785 c0 -8 5 -15 10 -15 6 0 10 7 10 15 0 8 -4 15 -10 15 -5 0
-10 -7 -10 -15z"/>
<path d="M2978 1728 c9 -9 15 -9 24 0 9 9 7 12 -12 12 -19 0 -21 -3 -12 -12z"/>
<path d="M2997 1334 c-4 -4 1 -20 10 -35 20 -34 12 -46 -22 -31 -15 7 -25 8
-25 2 0 -6 6 -10 13 -11 6 0 -3 -5 -22 -10 -34 -10 -35 -20 -3 -27 26 -5 34
-4 74 10 33 11 36 15 35 48 -2 19 -6 41 -10 48 -9 13 -39 16 -50 6z"/>
<path d="M2435 1319 c-4 -6 -5 -12 -2 -15 2 -3 7 2 10 11 7 17 1 20 -8 4z"/>
<path d="M2519 1311 c-8 -3 -26 -14 -39 -23 -19 -14 -22 -20 -12 -30 7 -7 12
-27 12 -45 0 -18 5 -33 10 -33 6 0 10 7 10 15 0 9 6 12 15 9 11 -5 13 -10 5
-19 -8 -9 -5 -14 10 -18 11 -3 18 -1 15 3 -3 5 1 11 7 14 10 3 8 9 -4 19 -20
15 -25 57 -7 57 5 0 7 5 4 10 -3 6 -2 10 2 10 5 0 9 8 10 18 2 19 -11 23 -38
13z"/>
<path d="M3083 1278 c-21 -35 -6 -56 26 -37 15 10 17 16 8 31 -14 21 -23 23
-34 6z"/>
</g>
</svg>
