<?xml version="1.0" standalone="no"?>
<!DOCTYPE svg PUBLIC "-//W3C//DTD SVG 20010904//EN"
 "http://www.w3.org/TR/2001/REC-SVG-20010904/DTD/svg10.dtd">
<svg version="1.0" xmlns="http://www.w3.org/2000/svg"
 width="450.000000pt" height="253.000000pt" viewBox="0 0 450.000000 253.000000"
 preserveAspectRatio="xMidYMid meet">
<metadata>
Created by potrace 1.16, written by Peter Selinger 2001-2019
</metadata>
<g transform="translate(0.000000,253.000000) scale(0.100000,-0.100000)"
fill="#000000" stroke="none">
<path d="M0 1265 l0 -1265 2250 0 2250 0 0 1265 0 1265 -2250 0 -2250 0 0
-1265z m3142 680 c51 -19 97 -35 103 -35 5 0 33 -12 61 -26 45 -23 53 -31 59
-63 3 -20 15 -65 26 -100 33 -110 26 -157 -38 -234 -21 -26 -48 -59 -60 -75
-19 -25 -52 -50 -191 -145 -25 -17 -53 -28 -70 -27 -15 1 -29 1 -32 0 -3 -1
-20 -4 -38 -6 -24 -4 -34 -1 -39 11 -6 17 14 38 29 29 4 -3 8 -1 8 4 0 5 -29
9 -64 9 -39 1 -76 7 -95 17 -17 9 -46 23 -63 32 -18 9 -54 39 -80 67 -41 44
-45 52 -36 73 8 18 14 21 24 13 8 -7 14 -7 19 1 3 6 -8 29 -27 53 -18 23 -26
38 -17 32 8 -5 5 -1 -7 10 -19 18 -21 29 -20 107 2 74 5 90 21 104 11 8 13 12
5 8 -13 -7 -13 -6 -1 9 8 10 15 25 16 35 7 69 37 89 182 121 122 28 205 21
325 -24z m-701 -35 c10 -6 19 -7 19 -2 0 9 133 -3 151 -14 22 -13 -11 -28
-118 -54 -106 -25 -108 -26 -126 -63 -10 -20 -24 -37 -30 -38 -57 -5 -85 -5
-82 2 5 6 -59 69 -71 69 -2 0 2 -13 11 -30 17 -34 20 -60 5 -60 -6 0 -13 14
-16 30 -4 17 -10 30 -15 30 -4 0 -11 9 -14 21 -6 19 -52 45 -62 35 -2 -2 10
-20 26 -39 35 -39 38 -52 16 -73 -19 -19 -19 -35 -1 -28 8 3 19 -3 26 -15 6
-11 14 -20 18 -18 4 1 8 -2 10 -8 2 -11 -8 -12 -60 -1 -21 5 -35 13 -32 18 4
6 -2 7 -16 3 -17 -6 -21 -4 -14 6 6 11 5 12 -7 2 -19 -16 -38 -3 -30 20 4 10
10 18 14 18 22 -3 27 0 21 11 -4 7 -3 8 4 4 6 -4 8 -14 5 -22 -5 -14 -3 -14
25 0 24 12 30 21 28 42 -3 29 -44 58 -61 44 -19 -16 -37 5 -29 34 7 31 47 61
68 53 10 -4 13 -1 10 8 -5 11 8 15 53 18 130 8 255 6 274 -3z m184 -70 c-3 -5
-12 -10 -18 -10 -7 0 -6 4 3 10 19 12 23 12 15 0z m-615 -215 c0 -11 6 -12 29
-4 34 12 82 8 82 -6 -1 -5 -16 -11 -36 -13 -34 -3 -48 -23 -25 -37 6 -4 7 -11
4 -17 -5 -7 -2 -8 7 -2 25 16 46 14 24 -2 -11 -8 -27 -13 -36 -11 -9 3 -23 1
-30 -4 -11 -7 -10 -9 4 -9 17 0 17 -1 3 -16 -9 -8 -21 -25 -28 -37 -11 -21
-11 -21 15 -4 l26 17 -14 -46 c-16 -53 -36 -79 -64 -81 -17 -1 -19 4 -14 70 5
91 33 228 44 221 5 -3 9 -11 9 -19z m300 -10 c0 -8 -4 -15 -10 -15 -5 0 -7 7
-4 15 4 8 8 15 10 15 2 0 4 -7 4 -15z m-230 -202 c-11 -17 -11 -17 -6 0 3 10
6 24 7 30 0 9 2 9 5 0 3 -7 0 -20 -6 -30z"/>
<path d="M2980 1460 c-10 -6 -2 -7 25 -3 49 7 58 13 19 13 -16 0 -36 -5 -44
-10z"/>
<path d="M3125 1450 c-3 -5 -15 -10 -26 -10 -10 0 -19 -5 -19 -11 0 -7 -10 -9
-27 -5 -23 5 -25 4 -10 -4 9 -6 33 -9 53 -6 21 4 33 2 29 -3 -3 -6 4 -9 15 -8
12 1 19 6 16 14 -5 12 9 17 42 16 19 -1 14 7 -10 16 -15 6 -28 5 -37 -3 -11
-8 -13 -8 -7 2 4 6 3 12 -3 12 -5 0 -13 -4 -16 -10z"/>
<path d="M2133 1870 c1 -14 4 -16 14 -8 16 13 16 15 -1 21 -10 4 -14 0 -13
-13z"/>
</g>
</svg>
