<?xml version="1.0" standalone="no"?>
<!DOCTYPE svg PUBLIC "-//W3C//DTD SVG 20010904//EN"
 "http://www.w3.org/TR/2001/REC-SVG-20010904/DTD/svg10.dtd">
<svg version="1.0" xmlns="http://www.w3.org/2000/svg"
 width="450.000000pt" height="253.000000pt" viewBox="0 0 450.000000 253.000000"
 preserveAspectRatio="xMidYMid meet">
<metadata>
Created by potrace 1.16, written by Peter Selinger 2001-2019
</metadata>
<g transform="translate(0.000000,253.000000) scale(0.100000,-0.100000)"
fill="#000000" stroke="none">
<path d="M0 1265 l0 -1265 2250 0 2250 0 0 1265 0 1265 -2250 0 -2250 0 0
-1265z m2660 627 c25 -7 52 -16 60 -19 18 -7 14 -6 68 -22 23 -6 41 -15 38
-19 -3 -4 5 -9 17 -9 12 -1 30 -12 40 -25 10 -13 16 -17 12 -11 -4 9 -1 11 9
7 9 -3 13 -10 10 -15 -3 -5 1 -6 9 -4 7 3 31 -11 52 -32 22 -21 36 -31 31 -23
-4 8 0 6 8 -4 32 -40 15 -81 -44 -110 -19 -9 -28 -11 -19 -4 9 7 14 20 12 28
-4 13 -3 13 6 0 10 -13 13 -12 26 4 19 26 19 40 -1 32 -8 -3 -12 -2 -9 4 3 6
1 10 -5 10 -6 0 -8 5 -4 12 5 7 3 8 -7 2 -18 -11 -39 -12 -60 -2 -9 4 -21 2
-26 -3 -7 -7 -16 -5 -27 6 -9 9 -16 13 -17 8 0 -4 -5 3 -11 17 -6 14 -10 28
-10 32 1 4 -5 5 -14 1 -11 -4 -12 -9 -5 -16 22 -22 10 -28 -18 -8 -15 11 -32
17 -37 13 -4 -4 -2 1 5 11 12 15 12 17 -4 11 -11 -5 -16 -3 -12 2 3 6 -3 11
-14 11 -16 2 -17 -1 -9 -18 15 -26 -11 -36 -40 -16 -16 11 -30 13 -50 7 -16
-5 -39 -6 -51 -3 -14 4 -25 0 -31 -10 -4 -9 -14 -14 -22 -11 -7 3 -26 -1 -42
-7 -56 -23 -65 -19 -37 18 23 30 24 35 11 51 -19 22 -13 48 13 55 11 3 17 1
13 -5 -4 -6 1 -6 14 1 10 6 30 8 43 6 13 -3 32 -2 42 1 18 6 18 7 1 25 -13 14
-31 19 -73 19 -63 0 -75 -6 -85 -36 -5 -17 -101 -98 -101 -85 0 1 -12 -3 -27
-10 -15 -6 -25 -16 -22 -20 3 -5 -1 -9 -8 -9 -7 0 -31 -14 -52 -30 -41 -31
-59 -33 -35 -3 8 9 9 14 2 10 -6 -4 -15 -2 -18 4 -4 5 -13 8 -21 5 -7 -3 -20
1 -28 9 -7 8 -25 17 -39 20 -14 4 -28 13 -31 21 -3 9 -1 12 4 9 6 -3 10 -1 10
5 0 6 4 9 9 5 5 -3 13 -1 16 5 5 8 -12 10 -52 6 l-58 -5 33 16 c17 9 32 21 32
26 0 6 -3 7 -7 4 -3 -4 -12 -2 -19 4 -7 6 -33 17 -56 24 -42 13 -40 14 62 13
58 -1 88 -3 68 -5 -52 -6 -53 -33 -2 -29 20 1 42 -3 49 -11 16 -15 76 -17 122
-4 19 6 35 5 41 -1 6 -6 12 -6 17 3 5 7 4 10 -2 6 -13 -8 -36 17 -26 27 4 4 1
11 -7 17 -10 7 11 9 67 7 49 -2 84 1 87 7 5 14 182 12 236 -3z m-417 -9 c-7
-2 -21 -2 -30 0 -10 3 -4 5 12 5 17 0 24 -2 18 -5z m-43 -25 c0 -5 4 -7 9 -3
5 3 12 1 15 -4 8 -12 -71 -8 -81 4 -5 4 -2 4 6 0 10 -6 13 -4 9 7 -5 11 0 14
18 10 13 -2 24 -9 24 -14z m-360 2 c0 -5 -4 -10 -10 -10 -5 0 -8 -10 -6 -22 2
-17 10 -22 25 -21 29 4 26 -3 -9 -21 -17 -8 -28 -10 -25 -5 12 18 -10 8 -37
-18 -15 -15 -28 -33 -28 -40 0 -7 -7 -13 -16 -13 -8 0 -12 -4 -9 -10 4 -6 -2
-7 -18 -1 -16 6 -28 6 -36 -2 -16 -16 -14 -30 4 -23 9 3 15 0 15 -9 0 -8 5
-15 12 -15 17 0 3 -11 -18 -14 -9 -2 -18 -9 -20 -17 -7 -43 -23 -71 -36 -62
-5 2 -8 0 -8 -5 0 -4 -9 -18 -21 -31 -33 -35 -17 -34 31 1 69 52 94 67 115 66
16 0 14 -2 -6 -9 -15 -6 -29 -18 -32 -29 -4 -14 -1 -17 12 -12 14 5 14 4 2
-12 -9 -10 -25 -16 -40 -14 -17 2 -25 -2 -24 -10 2 -6 -2 -12 -7 -12 -5 0 -10
-5 -10 -11 0 -6 7 -8 16 -5 9 3 27 9 41 12 26 7 26 7 18 -42 -5 -27 -9 -59
-10 -71 -1 -13 -5 -26 -10 -30 -4 -5 -5 -3 -2 3 9 15 -29 49 -38 34 -4 -6 -15
-8 -25 -5 -10 3 -21 1 -25 -5 -11 -18 -22 -2 -23 36 -1 21 -7 41 -13 45 -6 4
-8 12 -4 19 6 9 4 11 -5 5 -10 -6 -12 -4 -6 11 4 10 9 26 11 34 24 98 89 207
174 290 47 46 101 73 101 50z m29 -14 c9 -10 8 -15 -4 -20 -10 -4 -15 1 -15
14 0 24 4 25 19 6z m409 -143 c-2 -12 -11 -17 -23 -15 -28 5 -32 12 -15 22 24
15 42 11 38 -7z m-212 -5 c4 -7 3 -8 -4 -4 -7 4 -12 2 -12 -5 0 -7 -3 -10 -6
-6 -6 5 3 27 11 27 2 0 7 -5 11 -12z m511 -10 c-3 -8 -6 -5 -6 6 -1 11 2 17 5
13 3 -3 4 -12 1 -19z m-487 -52 c0 -2 -7 -7 -16 -10 -8 -3 -12 -2 -9 4 6 10
25 14 25 6z m-391 -408 c-1 -51 -3 -56 -8 -28 -6 34 -3 90 5 90 2 0 3 -28 3
-62z m4 -81 c3 -8 1 -20 -4 -28 -6 -10 -9 -7 -9 14 0 29 5 35 13 14z m8 -99
c0 -29 2 -71 4 -93 9 -109 17 -299 12 -295 -11 11 -36 440 -24 440 4 0 7 -24
8 -52z m26 -480 c-2 -13 -4 -5 -4 17 -1 22 1 32 4 23 2 -10 2 -28 0 -40z"/>
<path d="M2285 1860 c-3 -6 1 -7 9 -4 18 7 21 14 7 14 -6 0 -13 -4 -16 -10z"/>
<path d="M1620 1605 c0 -13 4 -14 20 -5 11 6 20 13 20 15 0 3 -9 5 -20 5 -11
0 -20 -7 -20 -15z"/>
</g>
</svg>
