<?xml version="1.0" standalone="no"?>
<!DOCTYPE svg PUBLIC "-//W3C//DTD SVG 20010904//EN"
 "http://www.w3.org/TR/2001/REC-SVG-20010904/DTD/svg10.dtd">
<svg version="1.0" xmlns="http://www.w3.org/2000/svg"
 width="450.000000pt" height="253.000000pt" viewBox="0 0 450.000000 253.000000"
 preserveAspectRatio="xMidYMid meet">
<metadata>
Created by potrace 1.16, written by Peter Selinger 2001-2019
</metadata>
<g transform="translate(0.000000,253.000000) scale(0.100000,-0.100000)"
fill="#000000" stroke="none">
<path d="M0 1265 l0 -1265 2250 0 2250 0 0 1265 0 1265 -2250 0 -2250 0 0
-1265z m2605 1109 c22 -12 60 -17 145 -18 96 -1 122 -5 161 -23 61 -29 136
-98 197 -181 54 -72 44 -66 195 -108 45 -12 48 -12 71 11 55 54 149 43 315
-39 109 -53 151 -84 151 -113 0 -7 6 -16 13 -19 17 -6 11 -96 -8 -134 -21 -41
-207 -214 -255 -237 -25 -11 -72 -29 -105 -39 -33 -10 -63 -20 -67 -24 -4 -3
3 -22 17 -41 93 -138 82 -370 -20 -430 -19 -12 -35 -25 -35 -30 0 -5 -7 -9
-15 -9 -9 0 -26 -7 -40 -16 -32 -21 -223 -31 -307 -15 -98 18 -200 52 -235 78
l-32 23 -16 -24 c-9 -13 -29 -30 -46 -36 -32 -14 -49 -37 -49 -69 0 -11 -25
-48 -55 -82 -30 -34 -53 -64 -51 -68 2 -3 -8 -6 -22 -7 -15 -1 -56 -14 -92
-29 -74 -32 -182 -42 -201 -18 -6 7 -17 13 -24 13 -25 0 -80 78 -108 152 -37
99 -41 125 -27 188 6 30 14 73 17 95 l4 40 -123 3 c-146 3 -227 21 -328 71
-128 65 -167 114 -164 208 3 71 11 89 71 161 41 48 140 122 162 122 5 0 11 4
13 8 2 4 27 22 56 39 l54 30 -36 22 c-45 28 -122 113 -148 165 -42 83 -54 144
-37 200 11 38 19 46 69 69 113 51 284 62 425 27 44 -11 106 -21 138 -21 56 -1
61 1 101 39 61 59 110 81 181 81 37 1 72 -5 90 -15z"/>
<path d="M2699 2009 c-6 -19 -5 -47 2 -43 5 3 9 -2 9 -12 0 -13 3 -14 14 -5
11 9 16 9 22 0 4 -7 3 -9 -3 -6 -6 4 -16 1 -22 -6 -8 -11 -5 -19 12 -35 20
-18 25 -19 47 -7 22 12 23 14 8 20 -10 4 -25 5 -33 2 -8 -4 -17 -2 -20 3 -3 4
0 10 7 12 6 2 12 12 14 22 2 12 -3 16 -18 14 -14 -2 -22 3 -24 15 -2 18 -13
35 -15 26z"/>
<path d="M2687 1936 c-3 -8 -2 -16 3 -18 11 -4 15 -77 5 -101 -5 -12 -3 -17 5
-15 7 2 15 -3 18 -11 2 -8 0 -11 -6 -8 -12 8 -36 -19 -28 -31 3 -6 0 -25 -8
-43 -17 -44 -5 -91 29 -113 14 -9 23 -21 20 -26 -3 -5 3 -14 14 -19 12 -7 17
-18 14 -29 -3 -13 2 -21 14 -24 10 -3 27 -9 38 -14 18 -7 19 -6 5 11 -9 11
-10 16 -2 11 7 -4 12 -2 13 6 4 46 -1 41 72 72 27 12 37 22 37 39 0 12 7 33
16 45 19 28 10 64 -14 54 -25 -9 -62 -49 -62 -66 0 -9 -16 -22 -35 -30 -35
-15 -65 -12 -65 5 0 5 -12 19 -26 32 -27 23 -55 65 -36 53 6 -3 13 -2 17 4 4
6 10 8 15 5 4 -3 13 2 19 9 10 11 8 16 -10 21 -20 7 -21 9 -7 19 9 7 17 18 19
26 5 23 -20 86 -41 105 -11 10 -17 21 -15 26 3 4 1 10 -4 13 -5 3 -11 -1 -14
-8z"/>
<path d="M2850 1895 c0 -2 13 -13 29 -25 29 -20 30 -20 28 -1 -1 11 -3 18 -5
16 -2 -2 -15 0 -28 5 -13 5 -24 8 -24 5z"/>
<path d="M2945 1891 c-6 -11 33 -26 42 -17 4 3 12 1 20 -6 11 -9 13 -8 11 3
-5 24 -61 39 -73 20z"/>
<path d="M2530 1802 c-28 -4 -52 -21 -45 -31 8 -14 -32 -39 -46 -30 -8 5 -23
9 -33 9 -19 0 -18 -1 2 -23 12 -13 23 -35 24 -50 2 -19 8 -27 21 -27 13 0 17
-5 13 -16 -8 -21 23 -15 38 8 8 13 7 21 -5 30 -8 7 -21 21 -28 31 -19 24 2 47
44 47 27 0 34 5 39 26 8 31 8 31 -24 26z"/>
<path d="M2810 1765 c0 -8 5 -15 11 -15 5 0 7 -4 4 -10 -3 -5 3 -10 14 -10 10
0 21 -5 23 -12 3 -8 6 -9 11 -1 7 11 -36 63 -53 63 -5 0 -10 -7 -10 -15z"/>
<path d="M1738 1733 c6 -2 18 -2 25 0 6 3 1 5 -13 5 -14 0 -19 -2 -12 -5z"/>
<path d="M1680 1695 c-33 -35 -25 -50 14 -26 18 12 41 21 50 21 28 0 17 18
-14 22 -21 3 -35 -1 -50 -17z"/>
<path d="M1605 1630 c3 -5 0 -7 -8 -4 -15 6 -51 -51 -42 -66 3 -4 -1 -10 -9
-13 -8 -3 -13 -14 -12 -24 4 -20 -11 -54 -28 -65 -6 -4 -11 -16 -12 -26 -1
-18 9 -21 48 -13 4 0 10 10 13 21 4 11 10 18 15 15 9 -6 70 60 70 76 0 6 -6 9
-14 6 -17 -7 -10 27 10 44 11 9 11 15 -3 35 -14 22 -42 36 -28 14z"/>
<path d="M2551 1578 c5 -10 14 -18 20 -18 5 0 9 -6 7 -14 -2 -8 6 -21 17 -29
15 -12 17 -18 7 -29 -6 -8 -9 -18 -5 -21 11 -12 87 -7 106 7 21 16 22 46 2 46
-13 0 -15 7 -10 34 8 41 -2 46 -92 43 -55 -1 -60 -3 -52 -19z"/>
<path d="M2477 1576 c-9 -22 -1 -36 19 -36 18 0 18 11 1 34 -13 18 -14 18 -20
2z"/>
<path d="M2003 1556 c0 -6 13 -11 28 -11 32 -1 30 11 -4 17 -13 3 -24 0 -24
-6z"/>
<path d="M2080 1510 c-11 -7 -6 -10 20 -11 19 0 43 -2 52 -4 9 -2 22 3 29 11
10 12 3 14 -37 14 -27 0 -56 -5 -64 -10z"/>
<path d="M2360 1492 c0 -14 11 -21 26 -15 8 3 11 9 8 14 -7 11 -34 12 -34 1z"/>
<path d="M2380 1455 c-19 -7 -45 -14 -57 -14 -13 -1 -24 -10 -28 -22 -9 -28
-2 -32 20 -11 13 12 30 16 59 13 47 -4 67 -16 59 -37 -3 -8 0 -21 7 -29 7 -8
9 -15 4 -15 -5 0 -3 -4 3 -8 24 -15 18 -112 -7 -112 -14 0 -17 -35 -4 -48 11
-10 15 -8 20 13 3 14 10 23 14 20 16 -10 40 8 40 30 0 29 69 78 113 81 73 4
74 4 40 19 -38 16 -38 15 -18 61 12 30 13 35 1 31 -8 -3 -22 0 -32 7 -25 19
-74 -7 -69 -35 4 -18 1 -20 -23 -14 -39 9 -75 28 -79 41 -2 7 3 19 12 28 15
15 14 16 -12 15 -15 0 -44 -7 -63 -14z m139 -104 c-6 -2 -21 6 -33 19 l-21 21
32 -18 c18 -10 28 -20 22 -22z"/>
<path d="M2163 1453 c-34 -4 -50 -28 -33 -48 8 -9 6 -14 -5 -18 -24 -10 -6
-39 22 -35 13 2 24 8 25 13 2 20 32 33 55 24 22 -8 27 -5 24 15 -1 4 3 14 9
21 9 10 6 16 -9 24 -20 11 -28 11 -88 4z"/>
<path d="M2789 1403 c-11 -28 -20 -73 -14 -73 1 0 19 7 39 15 25 11 42 12 54
6 22 -12 39 -2 39 21 0 15 -20 25 -52 28 -5 1 -20 8 -33 16 -21 14 -23 13 -33
-13z"/>
<path d="M1510 1375 c-7 -9 -6 -14 5 -18 8 -4 19 1 24 12 8 13 6 18 -5 18 -8
0 -19 -6 -24 -12z"/>
<path d="M2680 1366 c0 -14 40 -49 47 -42 2 2 -1 15 -6 30 -11 27 -41 36 -41
12z"/>
<path d="M2336 1349 c6 -11 54 -12 54 -1 0 4 -13 7 -30 8 -16 1 -27 -3 -24 -7z"/>
<path d="M2320 1300 c0 -5 5 -10 11 -10 5 0 7 5 4 10 -3 6 -8 10 -11 10 -2 0
-4 -4 -4 -10z"/>
<path d="M2792 1261 c-11 -6 -11 -10 0 -18 16 -13 62 2 53 17 -7 12 -35 13
-53 1z"/>
<path d="M3045 1230 c3 -5 10 -10 16 -10 5 0 9 5 9 10 0 6 -7 10 -16 10 -8 0
-12 -4 -9 -10z"/>
<path d="M2910 1220 c0 -5 5 -10 11 -10 5 0 7 5 4 10 -3 6 -8 10 -11 10 -2 0
-4 -4 -4 -10z"/>
<path d="M3349 1131 c-21 -18 -23 -22 -11 -41 8 -12 9 -19 3 -15 -6 3 -11 1
-11 -4 0 -6 5 -11 11 -11 5 0 7 -5 3 -11 -4 -7 3 -6 17 2 15 7 19 14 11 17 -6
2 -9 9 -5 15 6 10 13 67 7 67 -1 0 -12 -9 -25 -19z"/>
<path d="M2150 1124 c0 -17 22 -14 28 4 2 7 -3 12 -12 12 -9 0 -16 -7 -16 -16z"/>
<path d="M2434 1123 c3 -4 1 -11 -4 -18 -7 -8 -1 -11 20 -11 31 0 39 9 18 23
-16 9 -42 14 -34 6z"/>
<path d="M2976 1121 c-4 -7 -5 -15 -2 -18 9 -9 19 4 14 18 -4 11 -6 11 -12 0z"/>
</g>
</svg>
