<?xml version="1.0" standalone="no"?>
<!DOCTYPE svg PUBLIC "-//W3C//DTD SVG 20010904//EN"
 "http://www.w3.org/TR/2001/REC-SVG-20010904/DTD/svg10.dtd">
<svg version="1.0" xmlns="http://www.w3.org/2000/svg"
 width="450.000000pt" height="253.000000pt" viewBox="0 0 450.000000 253.000000"
 preserveAspectRatio="xMidYMid meet">
<metadata>
Created by potrace 1.16, written by Peter Selinger 2001-2019
</metadata>
<g transform="translate(0.000000,253.000000) scale(0.100000,-0.100000)"
fill="#000000" stroke="none">
<path d="M0 1265 l0 -1265 2250 0 2250 0 0 1265 0 1265 -2250 0 -2250 0 0
-1265z m2845 622 c39 -13 98 -39 132 -57 75 -40 191 -133 202 -163 11 -31 -11
-88 -37 -98 -28 -11 -29 2 -1 19 34 21 20 43 -31 48 -25 2 -60 5 -77 7 -18 3
-30 1 -28 -3 7 -12 -38 -21 -49 -10 -13 13 -39 13 -32 1 4 -5 -3 -7 -15 -4
-16 5 -18 8 -7 15 10 8 10 9 -2 5 -8 -2 -25 0 -38 4 -17 7 -24 5 -29 -6 -5
-13 -7 -13 -19 2 -10 13 -13 14 -14 4 0 -10 -5 -8 -17 6 -10 11 -26 19 -36 17
-9 -1 -15 2 -11 7 3 5 2 9 -3 10 -4 0 -18 2 -31 3 -13 2 -25 -1 -28 -5 -2 -5
-15 -4 -28 1 -15 5 -27 5 -35 -3 -7 -7 -11 -7 -11 -1 0 6 -18 10 -40 9 -48 -2
-91 29 -67 48 19 15 29 49 19 63 -4 5 -18 17 -30 26 -24 16 -24 16 -3 23 12 3
21 11 21 17 0 7 -4 7 -13 -1 -8 -6 -17 -8 -20 -4 -4 3 -18 0 -31 -7 -22 -11
-23 -14 -9 -28 14 -14 14 -17 -1 -27 -9 -7 -13 -15 -9 -18 3 -4 0 -7 -8 -7
-11 0 -11 -2 1 -10 12 -8 12 -10 1 -10 -11 0 -11 -3 -1 -15 8 -9 8 -15 2 -15
-6 0 -18 -7 -26 -16 -9 -9 -16 -11 -16 -4 0 6 -4 8 -10 5 -19 -12 -9 40 18 94
27 53 31 56 102 83 70 26 83 28 185 24 83 -3 127 -10 180 -29z m-749 1 c-6 -4
11 -8 37 -8 27 0 46 4 43 8 -6 10 137 2 144 -8 3 -4 16 -7 29 -6 13 0 26 -4
28 -11 5 -13 -48 -42 -114 -63 -33 -10 -40 -16 -32 -26 14 -17 2 -54 -19 -56
-9 0 -29 -2 -43 -3 -14 -1 -31 -5 -37 -9 -7 -4 -22 -9 -33 -11 -20 -4 -21 -3
-5 14 16 17 16 19 1 25 -26 9 -34 7 -55 -14 -26 -26 -26 -10 0 17 16 18 17 22
4 27 -9 3 -24 6 -35 6 -12 0 -19 7 -19 19 0 13 -7 18 -22 17 -17 -1 -22 4 -20
17 2 10 -3 17 -13 17 -9 0 -13 5 -9 11 8 14 -13 28 -46 30 -14 1 -5 5 20 8 64
8 210 7 196 -1z m-259 -16 c7 -4 14 -17 16 -27 1 -11 6 -26 11 -33 6 -10 -3
-12 -43 -10 -54 3 -59 6 -39 26 9 9 8 12 -5 12 -24 0 -21 15 6 28 27 13 38 14
54 4z m-105 -84 c-7 -7 -12 -18 -12 -26 0 -9 7 -6 20 9 21 26 26 15 10 -25 -5
-14 -16 -26 -24 -26 -7 0 -24 -9 -37 -21 -16 -14 -19 -19 -7 -15 9 3 18 0 20
-6 6 -17 74 9 114 44 19 17 34 27 34 24 0 -3 0 -9 0 -13 0 -5 -4 -8 -10 -8 -5
0 -10 -3 -10 -7 0 -5 0 -15 0 -24 0 -14 5 -13 35 5 43 25 45 15 3 -18 -24 -20
-40 -24 -87 -23 -31 1 -63 -2 -71 -8 -13 -9 -13 -10 0 -10 13 -1 13 -2 -1 -13
-23 -18 -31 -47 -13 -47 9 0 12 5 8 12 -5 8 -2 9 9 5 10 -3 17 -2 17 3 0 6 16
10 36 10 21 0 33 -4 29 -10 -3 -5 -16 -10 -29 -10 -12 0 -25 -3 -29 -6 -11
-12 18 -44 40 -44 12 0 25 -5 29 -12 5 -8 -4 -10 -32 -6 -21 2 -50 1 -64 -3
l-25 -7 27 -1 c47 -2 55 -9 51 -49 -6 -69 -18 -97 -41 -96 -12 1 -22 -3 -22
-8 0 -15 -44 -27 -57 -16 -12 10 -17 4 -14 -14 0 -5 -3 -8 -8 -8 -10 0 -15 68
-14 185 1 64 6 91 27 135 37 77 97 173 104 166 3 -4 0 -12 -6 -18z m179 -122
c-17 -21 -51 -27 -51 -9 0 8 3 12 8 10 4 -3 16 -1 27 4 28 11 29 11 16 -5z
m14 -25 c-3 -6 -11 -11 -17 -11 -6 0 -6 6 2 15 14 17 26 13 15 -4z"/>
<path d="M2636 1899 c3 -6 8 -8 11 -5 3 3 15 0 27 -6 16 -8 18 -8 10 1 -14 15
-57 24 -48 10z"/>
<path d="M2780 1739 c107 -34 104 -33 96 -20 -4 6 -12 8 -18 5 -7 -5 -9 -2 -6
7 6 16 3 17 -82 24 l-55 5 65 -21z"/>
<path d="M2040 1869 c0 -5 5 -7 10 -4 6 3 10 8 10 11 0 2 -4 4 -10 4 -5 0 -10
-5 -10 -11z"/>
<path d="M2185 1840 c-3 -6 1 -7 9 -4 18 7 21 14 7 14 -6 0 -13 -4 -16 -10z"/>
<path d="M1714 1458 c-16 -31 -16 -32 0 -19 23 19 40 51 27 51 -6 0 -18 -15
-27 -32z"/>
</g>
</svg>
