<?xml version="1.0" standalone="no"?>
<!DOCTYPE svg PUBLIC "-//W3C//DTD SVG 20010904//EN"
 "http://www.w3.org/TR/2001/REC-SVG-20010904/DTD/svg10.dtd">
<svg version="1.0" xmlns="http://www.w3.org/2000/svg"
 width="450.000000pt" height="253.000000pt" viewBox="0 0 450.000000 253.000000"
 preserveAspectRatio="xMidYMid meet">
<metadata>
Created by potrace 1.16, written by Peter Selinger 2001-2019
</metadata>
<g transform="translate(0.000000,253.000000) scale(0.100000,-0.100000)"
fill="#000000" stroke="none">
<path d="M0 1265 l0 -1265 2250 0 2250 0 0 1265 0 1265 -2250 0 -2250 0 0
-1265z m2937 655 c34 -12 91 -40 125 -62 66 -43 203 -177 210 -206 8 -30 -15
-86 -37 -91 -16 -3 -17 -1 -7 11 6 8 8 19 4 23 -4 5 -1 5 6 1 8 -5 12 0 12 13
0 12 -2 21 -4 21 -2 0 -12 3 -22 7 -11 4 -15 3 -10 -5 3 -6 -5 -5 -21 3 -17 9
-42 12 -63 8 -19 -3 -45 -6 -57 -7 -13 0 -23 -3 -23 -6 0 -8 -64 -5 -78 4 -18
11 -63 15 -57 5 7 -10 -20 -6 -36 7 -8 5 -35 9 -61 9 -30 0 -43 4 -38 10 5 6
-17 11 -63 13 -103 4 -108 5 -144 27 -36 21 -41 36 -18 55 8 7 12 17 8 23 -6
10 -13 44 -16 78 -1 9 -8 16 -17 16 -19 0 -41 -28 -35 -45 3 -7 0 -10 -5 -7
-6 3 -10 1 -10 -4 0 -11 13 -15 35 -12 6 1 3 -4 -6 -11 -9 -7 -14 -19 -11 -27
3 -9 0 -11 -8 -6 -10 6 -12 3 -6 -10 5 -14 4 -16 -7 -7 -10 9 -22 5 -50 -14
l-37 -25 0 25 c0 13 13 38 29 55 16 17 26 31 23 31 -4 0 5 11 20 25 37 34 114
76 168 92 66 19 229 10 307 -17z m-722 -31 c113 -8 186 -11 208 -6 5 1 12 -4
15 -12 3 -11 -2 -12 -23 -7 -17 4 -24 3 -21 -3 4 -6 -2 -14 -12 -20 -34 -18
-105 -40 -114 -35 -4 3 -5 -2 -2 -10 3 -9 10 -14 15 -11 4 3 3 -8 -2 -25 -11
-30 -23 -35 -76 -30 -12 1 -32 -4 -45 -11 -20 -11 -22 -10 -10 3 12 15 7 22
-20 27 -5 0 -17 10 -28 21 -10 10 -28 17 -38 15 -13 -2 -19 2 -18 13 1 13 -6
16 -29 15 -23 -2 -26 0 -15 8 13 8 12 11 -5 25 -11 8 -19 18 -18 22 2 4 -12
12 -30 19 -29 10 -23 11 58 11 50 0 144 -4 210 -9z m-318 -23 c1 -1 4 -14 7
-29 2 -14 7 -31 10 -35 3 -5 -14 -5 -38 1 -37 8 -43 13 -40 33 3 35 14 45 37
38 12 -3 23 -7 24 -8z m-107 -136 c-24 -16 -31 -11 -19 11 8 16 14 18 22 10 9
-9 8 -14 -3 -21z m120 26 c0 -2 -7 -7 -16 -10 -8 -3 -12 -2 -9 4 6 10 25 14
25 6z m-16 -57 c14 -7 22 -17 19 -25 -4 -10 1 -11 26 -1 33 12 60 -1 47 -22
-11 -18 -29 -13 -22 6 6 16 6 16 -11 0 -17 -14 -23 -15 -58 -2 -76 27 -125 15
-138 -33 -4 -17 -2 -22 7 -19 8 3 35 8 62 12 l49 6 -28 -16 c-16 -9 -35 -14
-42 -11 -8 3 -12 -2 -10 -12 2 -9 4 -17 5 -17 1 0 3 -8 5 -17 2 -13 -3 -18
-20 -18 -13 0 -27 -5 -30 -11 -4 -6 -1 -10 6 -8 48 6 51 0 20 -38 -50 -61 -40
-65 21 -9 21 19 21 19 13 0 -4 -10 -7 -29 -7 -40 1 -12 -8 -30 -20 -40 -15
-13 -19 -14 -14 -4 4 8 -1 5 -10 -7 -9 -13 -22 -23 -28 -23 -6 0 -4 5 4 10 13
8 12 10 -2 10 -10 0 -18 -6 -19 -12 0 -10 -2 -10 -5 -1 -3 7 -12 9 -20 6 -13
-5 -13 -7 -2 -15 10 -8 10 -9 -2 -6 -11 3 -14 25 -15 94 -2 114 9 170 35 177
13 3 20 14 20 29 0 24 16 48 33 48 4 0 5 -4 2 -10 -9 -14 4 -11 50 10 49 23
48 23 79 9z m1067 -76 c13 -16 12 -17 -3 -4 -10 7 -18 15 -18 17 0 8 8 3 21
-13z m178 -109 c-9 -8 -22 -16 -30 -17 -8 -2 -19 -6 -26 -10 -7 -4 -31 -14
-54 -22 -35 -13 -40 -13 -30 -1 14 17 97 47 105 38 3 -3 6 0 6 7 0 7 4 10 9 6
5 -3 12 -1 16 5 3 5 9 10 13 10 3 0 -1 -7 -9 -16z m-169 -74 c-8 -5 -19 -10
-25 -10 -5 0 -3 5 5 10 8 5 20 10 25 10 6 0 3 -5 -5 -10z"/>
<path d="M2785 1820 c-2 -3 15 -7 38 -9 23 -1 62 -11 87 -22 l45 -19 -28 25
c-15 14 -40 25 -55 26 -15 1 -40 2 -55 3 -15 2 -30 0 -32 -4z"/>
<path d="M2095 1880 c-3 -6 1 -7 9 -4 18 7 21 14 7 14 -6 0 -13 -4 -16 -10z"/>
<path d="M2206 1848 c3 -5 10 -6 15 -3 13 9 11 12 -6 12 -8 0 -12 -4 -9 -9z"/>
<path d="M2279 1843 c-7 -10 -9 -15 -5 -11 5 4 15 3 22 -3 11 -9 15 -7 20 5 4
10 13 15 21 12 8 -3 11 -1 8 4 -10 16 -51 11 -66 -7z m31 -3 c0 -5 -2 -10 -4
-10 -3 0 -8 5 -11 10 -3 6 -1 10 4 10 6 0 11 -4 11 -10z"/>
<path d="M1725 1550 c-4 -6 -11 -7 -17 -4 -7 4 -8 2 -4 -4 7 -12 36 -5 36 9 0
12 -7 11 -15 -1z"/>
</g>
</svg>
