<?xml version="1.0" standalone="no"?>
<!DOCTYPE svg PUBLIC "-//W3C//DTD SVG 20010904//EN"
 "http://www.w3.org/TR/2001/REC-SVG-20010904/DTD/svg10.dtd">
<svg version="1.0" xmlns="http://www.w3.org/2000/svg"
 width="450.000000pt" height="253.000000pt" viewBox="0 0 450.000000 253.000000"
 preserveAspectRatio="xMidYMid meet">
<metadata>
Created by potrace 1.16, written by Peter Selinger 2001-2019
</metadata>
<g transform="translate(0.000000,253.000000) scale(0.100000,-0.100000)"
fill="#000000" stroke="none">
<path d="M0 1265 l0 -1265 2250 0 2250 0 0 1265 0 1265 -787 -1 c-434 0 -781
-3 -773 -6 54 -20 151 -163 163 -243 3 -19 9 -51 12 -70 3 -19 7 -59 8 -89 l2
-54 61 -19 62 -19 37 26 c31 21 49 25 105 25 37 0 85 -6 106 -14 61 -22 207
-94 230 -114 65 -55 91 -159 57 -229 -23 -49 -200 -222 -255 -250 -23 -12 -71
-30 -105 -40 -35 -9 -63 -21 -63 -26 0 -5 11 -17 23 -27 58 -46 125 -263 118
-382 -1 -19 -60 -88 -75 -88 -5 0 -17 -7 -27 -16 -36 -32 -164 -54 -294 -49
-187 6 -195 8 -335 65 -111 45 -115 42 -129 -85 l-10 -90 4 92 c2 51 -1 95 -6
98 -5 4 -9 2 -9 -4 0 -5 -18 -31 -40 -56 -22 -25 -40 -56 -40 -68 0 -36 -118
-150 -192 -185 -121 -58 -188 -63 -271 -20 -44 22 -92 93 -127 188 -21 56 -24
81 -23 183 1 109 0 117 -18 117 -23 0 -25 19 -2 35 13 10 0 15 -83 30 -166 30
-337 123 -370 201 -8 18 -19 36 -25 39 -5 4 -8 13 -5 21 3 7 -1 25 -9 40 -20
40 -12 97 23 151 43 67 90 107 208 179 17 11 14 17 -45 76 -35 36 -68 73 -74
84 -6 10 -14 21 -18 24 -15 10 -68 156 -74 205 -5 39 -2 60 14 96 30 67 74 82
263 93 78 4 171 -9 243 -35 44 -16 85 -22 155 -23 l95 -1 75 76 c48 48 102 91
150 117 l75 42 -1252 0 -1253 0 0 -1265z m2627 -627 c-3 -8 -6 -5 -6 6 -1 11
2 17 5 13 3 -3 4 -12 1 -19z m-6 -41 c-10 -9 -11 -8 -5 6 3 10 9 15 12 12 3
-3 0 -11 -7 -18z m-4 -89 c-2 -13 -4 -3 -4 22 0 25 2 35 4 23 2 -13 2 -33 0
-45z m-10 -120 c-2 -13 -4 -5 -4 17 -1 22 1 32 4 23 2 -10 2 -28 0 -40z m-10
-130 c-3 -8 -6 -5 -6 6 -1 11 2 17 5 13 3 -3 4 -12 1 -19z"/>
<path d="M2266 1998 c3 -5 10 -6 15 -3 13 9 11 12 -6 12 -8 0 -12 -4 -9 -9z"/>
<path d="M2420 1760 c-14 -10 -22 -22 -18 -25 3 -4 2 -20 -2 -36 -7 -22 -3
-38 13 -68 21 -38 37 -51 80 -65 19 -6 24 -36 5 -36 -8 0 -14 -16 -15 -43 l-1
-44 51 5 c29 2 53 8 55 13 2 4 10 5 18 2 17 -6 17 -2 2 31 -9 22 -8 29 6 45
17 19 16 20 -28 26 -54 8 -94 36 -142 99 -29 38 -34 50 -24 59 10 9 11 9 5 -3
-7 -12 -6 -13 6 -3 8 6 15 23 17 37 2 31 3 30 -28 6z"/>
<path d="M2197 1656 c10 -13 20 -20 21 -15 5 12 -17 39 -30 39 -5 0 -1 -11 9
-24z"/>
<path d="M2710 1659 c0 -5 -4 -8 -8 -5 -5 3 -21 -7 -36 -23 -21 -22 -25 -33
-18 -50 4 -12 10 -23 13 -24 11 -4 38 31 53 68 19 44 19 45 6 45 -5 0 -10 -5
-10 -11z"/>
<path d="M1759 1647 c-9 -9 -19 -13 -23 -10 -3 4 -6 -3 -6 -15 0 -13 6 -22 15
-22 8 0 15 -4 15 -8 0 -5 11 -15 26 -22 l25 -14 -26 -13 c-30 -16 -24 -33 11
-33 18 0 24 5 24 22 0 12 8 30 18 41 9 12 11 17 3 12 -9 -5 -12 -3 -9 6 9 23
-11 51 -32 44 -12 -4 -19 0 -22 11 -3 16 -4 16 -19 1z"/>
<path d="M1790 1651 c0 -5 9 -7 20 -4 11 3 20 7 20 9 0 2 -9 4 -20 4 -11 0
-20 -4 -20 -9z"/>
<path d="M2230 1639 c0 -5 5 -7 10 -4 6 3 10 8 10 11 0 2 -4 4 -10 4 -5 0 -10
-5 -10 -11z"/>
<path d="M1498 1617 c-3 -15 -1 -30 4 -33 5 -3 5 -11 -1 -18 -6 -7 -8 -16 -4
-20 4 -4 -1 -4 -12 0 -17 7 -18 5 -8 -8 7 -8 10 -18 6 -21 -3 -4 -2 -7 4 -7
13 0 25 16 41 52 9 21 8 30 -2 40 -7 7 -15 20 -18 28 -3 9 -7 4 -10 -13z"/>
<path d="M2333 1521 c0 -31 1 -31 41 -25 73 11 99 36 49 49 -19 4 -31 2 -39
-9 -14 -20 -31 -20 -42 0 -6 12 -9 8 -9 -15z"/>
<path d="M2160 1435 c-7 -8 -21 -15 -31 -15 -27 0 -31 -15 -4 -16 13 -1 33 9
46 22 12 13 18 24 12 24 -6 0 -16 -7 -23 -15z"/>
<path d="M2340 1420 c-14 -10 -22 -22 -18 -26 10 -9 59 -14 54 -5 -3 4 4 14
15 21 10 8 19 18 19 22 0 15 -45 7 -70 -12z"/>
<path d="M1925 1411 c14 -14 32 -17 37 -7 1 5 -8 11 -22 13 -16 2 -21 0 -15
-6z"/>
<path d="M1896 1374 c-8 -22 -8 -24 6 -24 6 0 8 3 5 7 -4 3 -2 12 4 20 7 8 8
13 1 13 -5 0 -13 -7 -16 -16z"/>
<path d="M2324 1326 c-10 -8 -16 -18 -12 -22 4 -4 3 -12 -2 -19 -10 -12 -11
-12 51 -18 35 -3 37 -2 35 25 -1 15 -5 31 -9 35 -14 13 -44 12 -63 -1z"/>
<path d="M2570 1330 c0 -5 7 -7 15 -4 8 4 15 8 15 10 0 2 -7 4 -15 4 -8 0 -15
-4 -15 -10z"/>
<path d="M2541 1301 c-9 -6 -10 -11 -2 -15 6 -4 11 -2 11 4 0 6 5 8 12 4 7 -4
8 -3 4 4 -8 14 -7 14 -25 3z"/>
<path d="M3313 1188 c-30 -42 -35 -65 -20 -94 22 -42 63 -78 81 -71 22 9 20
50 -4 94 -11 21 -20 43 -20 49 0 21 -26 36 -37 22z"/>
<path d="M2232 1183 c-7 -2 -17 -14 -24 -26 -11 -21 -10 -21 9 -4 11 9 23 14
28 10 4 -5 5 -3 2 4 -4 6 -1 14 5 16 7 3 9 5 3 5 -5 0 -16 -2 -23 -5z"/>
<path d="M2600 1171 c-6 -13 -6 -22 -1 -26 9 -5 31 24 31 39 0 14 -20 4 -30
-13z"/>
<path d="M2473 1154 c-13 -14 -23 -30 -23 -34 0 -21 92 -22 112 -2 8 8 5 9
-11 5 -11 -3 -28 0 -36 7 -14 11 -14 15 1 31 16 18 16 19 -2 19 -10 0 -29 -12
-41 -26z"/>
<path d="M2704 1155 c22 -17 40 -20 32 -6 -3 5 -16 11 -28 14 -22 6 -22 5 -4
-8z"/>
<path d="M3120 1090 c0 -5 5 -10 11 -10 5 0 7 5 4 10 -3 6 -8 10 -11 10 -2 0
-4 -4 -4 -10z"/>
<path d="M2220 1044 c-10 -11 -9 -14 8 -14 25 0 37 16 18 23 -8 3 -20 -1 -26
-9z"/>
</g>
</svg>
