<?xml version="1.0" standalone="no"?>
<!DOCTYPE svg PUBLIC "-//W3C//DTD SVG 20010904//EN"
 "http://www.w3.org/TR/2001/REC-SVG-20010904/DTD/svg10.dtd">
<svg version="1.0" xmlns="http://www.w3.org/2000/svg"
 width="450.000000pt" height="253.000000pt" viewBox="0 0 450.000000 253.000000"
 preserveAspectRatio="xMidYMid meet">
<metadata>
Created by potrace 1.16, written by Peter Selinger 2001-2019
</metadata>
<g transform="translate(0.000000,253.000000) scale(0.100000,-0.100000)"
fill="#000000" stroke="none">
<path d="M0 1265 l0 -1265 2250 0 2250 0 0 1265 0 1265 -2250 0 -2250 0 0
-1265z m2687 1204 c15 -6 68 -11 117 -10 102 1 152 -16 208 -71 42 -42 84
-112 92 -153 3 -17 11 -50 17 -75 6 -25 12 -55 13 -67 3 -31 6 -32 71 -49 l58
-15 28 27 c27 26 35 28 104 27 69 -1 84 -6 209 -63 135 -63 168 -86 181 -127
3 -13 10 -23 14 -23 13 0 2 -108 -13 -137 -20 -37 -161 -182 -216 -222 -24
-17 -69 -38 -99 -47 -31 -8 -63 -18 -71 -21 -8 -4 -18 -7 -22 -7 -20 -3 -19
-19 4 -44 62 -65 98 -183 98 -318 0 -59 -2 -64 -43 -108 -24 -25 -51 -46 -58
-46 -8 0 -19 -4 -25 -10 -16 -16 -152 -40 -228 -40 -108 0 -250 27 -348 66
-83 34 -88 35 -117 19 -25 -12 -31 -22 -32 -48 0 -57 -11 -162 -16 -167 -3 -3
-2 40 1 94 7 90 6 98 -8 87 -9 -8 -16 -24 -16 -38 0 -16 -18 -43 -52 -78 -90
-92 -214 -119 -335 -73 -84 32 -111 59 -163 164 -41 81 -45 95 -45 162 1 58
-2 71 -13 67 -47 -18 -62 -17 -62 4 0 23 -13 27 -105 34 -121 9 -301 104 -339
179 -9 18 -20 40 -25 48 -19 33 -31 115 -22 148 22 73 80 134 209 218 l63 41
-27 24 c-60 53 -95 91 -119 127 -34 51 -75 165 -75 207 0 46 22 115 36 115 6
0 17 6 23 14 6 7 45 21 87 31 99 23 281 17 365 -13 44 -16 78 -20 154 -18 90
2 99 4 119 27 31 36 105 93 156 119 82 43 210 61 267 39z m-80 -1921 c-3 -7
-5 -2 -5 12 0 14 2 19 5 13 2 -7 2 -19 0 -25z"/>
<path d="M2295 2030 c-10 -16 2 -27 27 -24 13 1 34 3 47 3 33 1 11 26 -26 29
-21 1 -24 -1 -13 -8 8 -5 12 -12 8 -15 -3 -3 -13 1 -21 10 -10 9 -18 11 -22 5z"/>
<path d="M2503 1889 c-12 -12 13 -89 30 -89 5 0 5 5 -1 13 -6 7 -12 30 -14 50
-1 20 -3 37 -3 37 -1 0 -6 -5 -12 -11z"/>
<path d="M2466 1775 c-15 -12 -17 -18 -8 -27 9 -9 9 -15 0 -25 -19 -23 -18
-60 3 -79 10 -9 19 -23 19 -30 0 -8 16 -20 35 -28 19 -8 35 -20 35 -26 0 -6
-4 -9 -8 -6 -5 3 -8 -15 -8 -39 l1 -45 43 0 c24 0 42 5 42 11 0 6 7 9 15 5 18
-6 20 15 4 31 -14 14 -4 32 27 43 31 12 32 34 1 26 -40 -10 -90 12 -139 60
-52 50 -59 69 -29 79 11 3 21 18 23 35 4 25 1 30 -16 30 -12 0 -30 -7 -40 -15z"/>
<path d="M2390 1709 c0 -5 9 -9 20 -9 11 0 20 2 20 4 0 2 -9 6 -20 9 -11 3
-20 1 -20 -4z"/>
<path d="M1891 1701 c-7 -5 -11 -14 -7 -19 4 -7 -11 -20 -35 -33 -32 -16 -39
-23 -28 -30 11 -7 11 -9 1 -9 -7 0 -10 -4 -7 -10 4 -6 -6 -10 -24 -10 -57 0
-45 -31 12 -34 15 -1 22 -8 22 -21 0 -31 52 -34 64 -3 6 15 5 28 -3 37 -9 12
-8 13 8 8 14 -6 16 -4 9 5 -6 7 -9 21 -8 31 2 9 -1 17 -6 17 -4 0 -6 7 -3 15
4 8 10 13 14 10 14 -9 23 15 11 29 -6 7 -8 16 -4 19 9 10 1 8 -16 -2z"/>
<path d="M2230 1692 c0 -10 8 -26 19 -36 15 -14 23 -15 47 -5 25 11 26 13 9
17 -11 2 -27 10 -35 17 -30 25 -40 27 -40 7z"/>
<path d="M2734 1676 c-3 -8 -13 -13 -22 -11 -13 2 -17 -5 -17 -34 0 -34 4 -41
24 -41 12 0 52 81 45 92 -8 13 -24 9 -30 -6z"/>
<path d="M1509 1613 c-12 -14 -12 -16 1 -9 8 4 7 1 -4 -8 -10 -8 -15 -19 -11
-25 3 -6 -6 -16 -21 -21 -26 -10 -26 -11 -6 -28 15 -13 18 -22 10 -35 -10 -19
8 -20 27 -2 17 16 38 119 25 123 -5 2 -8 8 -4 13 9 15 -3 10 -17 -8z"/>
<path d="M2385 1582 c-53 -5 -60 -10 -38 -30 11 -9 18 -22 16 -28 -5 -14 37
-23 63 -13 11 4 29 1 44 -9 23 -14 24 -14 11 1 -11 14 -11 18 3 23 20 8 21 34
2 34 -8 0 -16 7 -20 15 -3 8 -15 14 -28 12 -13 -1 -36 -3 -53 -5z"/>
<path d="M2224 1478 c5 -23 2 -27 -24 -33 -16 -4 -34 -4 -40 0 -6 3 -18 -2
-28 -11 -16 -17 -16 -17 6 -12 12 3 20 3 17 -2 -6 -10 42 -23 55 -15 6 4 10
12 10 19 0 8 9 20 19 27 19 14 19 14 -1 34 l-21 20 7 -27z"/>
<path d="M2392 1458 c-21 -21 -13 -29 25 -26 27 2 39 8 41 21 3 13 -3 17 -25
17 -16 0 -34 -5 -41 -12z"/>
<path d="M1950 1415 c0 -14 -9 -26 -26 -33 -14 -7 -22 -16 -19 -22 11 -18 55
-6 81 23 13 15 29 25 33 22 5 -2 14 2 21 10 15 18 17 16 -42 20 -44 2 -48 1
-48 -20z"/>
<path d="M2325 1397 c17 -15 33 -26 38 -27 11 0 8 -30 -3 -30 -5 0 -10 -7 -10
-15 0 -20 -47 -10 -76 16 -22 21 -49 25 -59 9 -3 -5 -15 -10 -26 -10 -10 0
-19 -4 -19 -10 0 -8 44 -15 53 -8 5 5 47 -38 47 -48 0 -7 6 -15 13 -17 8 -4 1
-16 -20 -36 -18 -17 -33 -40 -33 -51 0 -26 16 -26 30 0 6 11 17 20 25 20 7 0
17 10 21 23 4 12 17 38 29 57 18 28 28 35 52 34 16 0 35 -4 42 -8 19 -12 21
-3 7 37 -15 46 -17 47 -54 51 -16 3 -43 12 -59 22 l-28 17 30 -26z"/>
<path d="M2118 1403 c7 -3 16 -2 19 1 4 3 -2 6 -13 5 -11 0 -14 -3 -6 -6z"/>
<path d="M2612 1386 c3 -4 -1 -16 -10 -27 -18 -21 -25 -59 -11 -59 5 0 9 9 9
21 0 13 4 18 12 13 7 -5 8 -3 3 6 -6 10 -4 12 7 7 12 -4 14 -1 11 14 -3 11
-10 22 -17 26 -6 3 -8 3 -4 -1z"/>
<path d="M2652 1354 c18 -17 63 -30 54 -15 -4 6 -14 11 -22 11 -8 0 -14 4 -14
8 0 5 -7 9 -15 9 -13 0 -14 -3 -3 -13z"/>
<path d="M2492 1325 c4 -33 22 -33 25 0 1 16 -3 25 -13 25 -11 0 -14 -8 -12
-25z"/>
<path d="M2625 1220 c-3 -5 -3 -10 1 -10 4 0 -3 -11 -16 -25 -31 -33 -54 -33
-48 0 3 14 2 27 -2 30 -10 6 -50 -33 -50 -50 0 -7 -3 -20 -6 -29 -5 -12 1 -14
33 -9 21 3 54 15 73 27 19 11 35 19 35 16 0 -2 8 1 17 6 16 9 17 12 2 32 -16
24 -29 28 -39 12z"/>
<path d="M2870 1200 c0 -5 5 -10 11 -10 5 0 7 5 4 10 -3 6 -8 10 -11 10 -2 0
-4 -4 -4 -10z"/>
<path d="M3315 1190 c-8 -9 -12 -20 -9 -23 4 -4 -1 -9 -10 -13 -9 -3 -14 -10
-11 -14 3 -5 1 -11 -4 -15 -22 -13 41 -107 68 -103 24 4 30 30 12 58 -9 14
-11 21 -3 17 17 -11 15 8 -3 23 -14 11 -14 15 2 33 10 11 12 17 5 13 -9 -6
-11 -1 -8 17 5 28 -16 32 -39 7z m27 -7 c-10 -4 -10 -8 0 -21 12 -15 11 -16
-4 -3 -19 14 -15 32 5 30 8 0 8 -2 -1 -6z"/>
<path d="M2460 1130 c0 -5 5 -10 10 -10 6 0 10 5 10 10 0 6 -4 10 -10 10 -5 0
-10 -4 -10 -10z"/>
<path d="M3095 1110 c27 -12 43 -12 25 0 -8 5 -22 9 -30 9 -10 0 -8 -3 5 -9z"/>
<path d="M2255 1082 c-16 -12 -16 -32 0 -26 9 4 15 0 15 -9 0 -9 5 -19 12 -23
7 -4 8 -3 4 4 -11 19 5 14 20 -5 7 -10 16 -14 20 -10 12 12 -11 42 -30 41 -9
-1 -14 2 -11 6 7 11 -19 30 -30 22z"/>
<path d="M2026 1064 c-4 -10 -1 -14 6 -12 15 5 23 28 10 28 -5 0 -13 -7 -16
-16z"/>
<path d="M2578 958 c-30 -10 -46 -44 -29 -61 8 -8 11 -7 11 3 0 8 12 24 28 36
32 26 28 35 -10 22z"/>
</g>
</svg>
