<?xml version="1.0" standalone="no"?>
<!DOCTYPE svg PUBLIC "-//W3C//DTD SVG 20010904//EN"
 "http://www.w3.org/TR/2001/REC-SVG-20010904/DTD/svg10.dtd">
<svg version="1.0" xmlns="http://www.w3.org/2000/svg"
 width="450.000000pt" height="253.000000pt" viewBox="0 0 450.000000 253.000000"
 preserveAspectRatio="xMidYMid meet">
<metadata>
Created by potrace 1.16, written by Peter Selinger 2001-2019
</metadata>
<g transform="translate(0.000000,253.000000) scale(0.100000,-0.100000)"
fill="#000000" stroke="none">
<path d="M0 1265 l0 -1265 2250 0 2250 0 0 1265 0 1265 -2250 0 -2250 0 0
-1265z m2844 655 c43 -12 97 -30 120 -42 45 -23 153 -94 174 -115 7 -7 21 -18
31 -25 9 -7 28 -27 40 -44 33 -45 22 -108 -21 -130 -16 -8 -32 -13 -35 -10 -3
3 -12 -2 -20 -10 -9 -8 -18 -12 -21 -9 -4 3 0 10 8 15 14 9 7 14 -13 11 -5 -1
-6 3 -3 8 3 5 20 7 36 5 26 -5 30 -2 31 18 0 22 1 22 9 3 7 -17 9 -17 9 -2 1
9 6 17 13 17 8 0 9 3 2 10 -5 5 -29 10 -54 12 -35 2 -44 0 -42 -12 3 -11 -2
-10 -17 4 -16 15 -21 16 -22 5 0 -12 -2 -12 -6 0 -5 11 -7 11 -14 0 -7 -12 -9
-12 -9 0 0 11 -3 11 -17 0 -9 -8 -14 -9 -11 -4 8 13 -38 12 -49 0 -5 -4 -2 -5
6 0 9 5 12 4 8 -3 -6 -8 -23 -9 -44 -3 -2 1 -6 1 -9 0 -4 0 -11 5 -15 13 -7
10 -9 10 -9 0 0 -7 -5 -10 -11 -6 -6 3 -36 8 -67 9 -31 2 -58 8 -60 15 -3 8
-8 8 -17 0 -9 -7 -16 -5 -26 7 -13 16 -12 17 3 5 12 -10 18 -10 24 -1 5 9 11
7 21 -6 13 -19 19 -9 5 11 -9 15 -115 9 -120 -6 -3 -7 -9 -7 -20 2 -13 11 -15
11 -10 -3 11 -28 -21 -17 -52 18 -16 18 -36 33 -44 33 -21 0 -26 22 -9 42 12
13 12 20 1 37 -11 18 -11 23 0 30 10 6 10 10 -2 20 -8 7 -12 19 -9 27 3 8 1
14 -3 14 -14 -1 -49 -30 -36 -30 7 0 12 -5 12 -11 0 -5 -6 -7 -12 -4 -7 3 -3
-2 10 -11 29 -21 28 -36 -4 -73 -29 -35 -43 -39 -45 -13 -1 16 -2 16 -6 0 -2
-10 -8 -18 -13 -18 -5 0 -7 8 -4 18 4 12 1 10 -8 -4 -7 -12 -18 -19 -24 -17
-14 5 -7 38 15 73 9 14 21 34 27 45 14 25 104 74 163 90 76 20 178 18 265 -5z
m-734 -27 c0 -11 92 -10 108 0 7 5 19 4 27 -3 7 -6 16 -7 18 -3 3 5 24 7 46 5
25 -3 38 -8 34 -15 -4 -7 4 -8 25 -4 61 12 42 -13 -40 -52 -46 -22 -78 -40
-71 -41 8 0 8 -7 1 -28 -9 -23 -16 -28 -47 -27 -20 0 -47 -6 -60 -14 -21 -12
-23 -12 -18 2 8 20 -18 41 -40 33 -10 -4 -14 -4 -10 0 11 12 -14 34 -38 34
-25 0 -42 26 -22 33 7 2 0 3 -15 1 -23 -3 -28 0 -28 17 0 15 -5 19 -15 15 -10
-4 -15 1 -15 14 0 16 -7 20 -37 21 -38 1 -38 1 -8 9 40 10 205 12 205 3z
m-236 -35 c12 -17 13 -24 3 -30 -9 -6 -9 -8 1 -8 6 0 12 -4 12 -10 0 -5 -16
-10 -35 -10 -21 0 -35 -5 -35 -12 0 -10 -3 -9 -9 1 -10 15 -8 62 3 79 12 19
44 14 60 -10z m-111 -80 c-4 -21 -3 -22 10 -5 20 25 30 21 23 -9 -5 -19 -4
-24 6 -18 10 6 10 4 -1 -9 -7 -9 -17 -14 -22 -11 -5 3 -9 -2 -9 -10 0 -8 -5
-18 -12 -22 -7 -5 -8 -2 -3 7 6 11 5 11 -5 2 -27 -25 -4 -31 43 -11 39 17 50
19 57 8 4 -7 15 -10 24 -7 10 4 16 1 16 -9 0 -11 9 -14 33 -12 23 2 32 -1 32
-12 0 -9 -8 -14 -20 -13 -39 4 -110 14 -135 18 -14 3 -36 -2 -50 -10 -15 -9
-19 -14 -10 -15 10 0 11 -3 4 -8 -6 -4 -17 -18 -24 -32 -10 -19 -10 -22 0 -13
7 6 20 9 29 6 14 -4 14 -3 1 6 -12 8 -5 11 30 10 l45 -1 -34 -14 -33 -15 23
-23 c13 -12 29 -20 34 -18 6 3 6 1 2 -3 -10 -11 -39 -16 -32 -6 2 5 -7 6 -20
3 -35 -6 -31 -22 5 -22 30 0 30 -1 25 -44 -6 -47 -29 -102 -42 -99 -5 1 -18 0
-31 -4 -12 -3 -28 0 -35 6 -10 8 -14 7 -14 -4 0 -8 7 -15 14 -15 8 0 12 -4 9
-9 -4 -5 -14 -8 -24 -7 -9 2 -20 -1 -23 -6 -3 -5 -9 36 -12 92 -5 83 -3 111
13 163 11 34 27 71 35 82 9 11 13 13 9 5 -5 -10 0 -9 14 4 26 22 30 45 5 25
-11 -9 -7 4 11 36 16 28 31 53 33 58 8 14 11 7 6 -15z m107 -38 c0 -5 -5 -10
-11 -10 -5 0 -7 5 -4 10 3 6 8 10 11 10 2 0 4 -4 4 -10z m586 -82 c5 4 6 3 2
-2 -4 -5 -2 -16 5 -25 10 -14 10 -14 -4 -4 -9 7 -20 9 -25 5 -5 -4 -6 -3 -2 2
4 5 2 16 -5 25 -10 14 -10 14 4 4 9 -7 20 -9 25 -5z m544 -168 c-8 -5 -26 -9
-40 -9 l-25 1 25 8 c14 4 32 8 40 9 13 1 13 0 0 -9z"/>
<path d="M2731 1796 c3 -4 39 -16 80 -27 40 -11 79 -24 85 -30 7 -6 11 -3 11
7 0 26 -37 42 -112 49 -38 4 -67 5 -64 1z"/>
<path d="M2441 1744 c0 -11 3 -14 6 -6 3 7 2 16 -1 19 -3 4 -6 -2 -5 -13z"/>
<path d="M2595 1660 c3 -5 8 -10 11 -10 2 0 4 5 4 10 0 6 -5 10 -11 10 -5 0
-7 -4 -4 -10z"/>
<path d="M2056 1878 c3 -4 9 -8 15 -8 5 0 9 4 9 8 0 5 -7 9 -15 9 -8 0 -12 -4
-9 -9z"/>
<path d="M1752 1471 c-24 -32 -18 -40 12 -18 10 7 17 21 15 31 -3 15 -8 12
-27 -13z"/>
</g>
</svg>
