<?xml version="1.0" standalone="no"?>
<!DOCTYPE svg PUBLIC "-//W3C//DTD SVG 20010904//EN"
 "http://www.w3.org/TR/2001/REC-SVG-20010904/DTD/svg10.dtd">
<svg version="1.0" xmlns="http://www.w3.org/2000/svg"
 width="450.000000pt" height="253.000000pt" viewBox="0 0 450.000000 253.000000"
 preserveAspectRatio="xMidYMid meet">
<metadata>
Created by potrace 1.16, written by Peter Selinger 2001-2019
</metadata>
<g transform="translate(0.000000,253.000000) scale(0.100000,-0.100000)"
fill="#000000" stroke="none">
<path d="M0 1265 l0 -1265 2250 0 2250 0 0 1265 0 1265 -2250 0 -2250 0 0
-1265z m2803 659 c129 -29 292 -120 381 -212 35 -37 38 -43 31 -80 -4 -28 -15
-46 -32 -57 -35 -23 -40 -11 -8 20 30 31 29 35 -17 42 -18 3 -35 7 -37 9 -2 2
-12 -1 -22 -7 -14 -7 -19 -6 -19 3 0 9 -3 9 -10 -2 -7 -11 -10 -11 -10 -2 0 9
-5 10 -17 4 -10 -5 -28 -8 -41 -7 -13 1 -25 -3 -29 -8 -3 -5 -9 -3 -14 4 -5 8
-9 9 -9 3 0 -11 -52 -11 -120 2 -25 4 -48 7 -52 6 -4 -1 -10 8 -13 19 -6 18
-12 20 -43 15 -21 -4 -48 -6 -61 -6 -16 0 -21 -4 -17 -15 3 -8 3 -15 0 -15 -2
0 -9 10 -14 23 -6 16 -9 17 -9 5 -1 -9 -5 -19 -10 -22 -5 -4 -7 4 -4 16 4 19
3 20 -6 8 -7 -9 -11 -11 -11 -3 0 7 -20 21 -44 31 -49 22 -63 37 -42 45 17 7
16 89 -2 95 -9 3 -9 9 -2 23 8 14 7 19 -2 18 -16 -1 -56 -17 -44 -18 5 -1 3
-8 -4 -16 -11 -13 -10 -14 3 -10 10 4 17 -1 22 -14 3 -12 10 -21 15 -21 4 0 6
-9 3 -20 -3 -11 -10 -17 -15 -14 -5 3 -12 -3 -15 -15 -3 -12 -10 -21 -15 -21
-5 0 -7 -4 -3 -10 6 -10 -56 -7 -73 4 -14 8 -11 22 17 78 28 59 57 80 152 112
88 29 163 32 262 10z m-697 -33 c-3 -4 -17 -7 -31 -6 -14 2 -25 -1 -25 -5 0
-5 12 -7 28 -6 15 2 33 4 40 5 7 0 11 5 7 10 -7 13 48 9 57 -4 5 -6 8 -5 8 3
0 6 11 12 25 12 14 0 25 -5 25 -11 0 -8 4 -8 13 -1 7 6 22 9 32 7 11 -2 28 -4
38 -4 11 -1 15 -6 11 -12 -4 -8 3 -9 24 -4 17 3 33 2 36 -4 8 -12 -69 -58
-111 -67 -25 -5 -30 -11 -31 -36 -1 -39 -4 -41 -58 -44 -25 -1 -51 -8 -59 -14
-8 -7 -15 -7 -19 -1 -3 5 0 11 6 13 8 3 4 10 -11 17 -17 9 -26 10 -34 2 -6 -6
-16 -11 -21 -11 -6 0 -3 7 7 15 18 13 18 14 -2 24 -11 6 -26 11 -34 11 -8 0
-17 9 -20 20 -3 13 -10 18 -21 14 -12 -4 -16 0 -16 15 0 12 -6 21 -15 21 -9 0
-12 6 -9 15 5 12 -3 15 -37 16 l-44 2 35 7 c50 11 212 12 206 1z m-250 -19 c6
-4 13 -22 16 -40 l5 -33 -42 2 c-35 2 -41 6 -37 21 2 11 -1 18 -9 18 -9 1 -5
8 10 20 25 21 39 24 57 12z m-105 -85 c-6 -8 -7 -18 -3 -22 4 -5 1 -5 -6 -1
-10 6 -10 11 -1 22 6 8 14 14 16 14 3 0 0 -6 -6 -13z m25 -34 c-4 -9 -1 -20 6
-25 8 -6 4 -7 -11 -3 -15 5 -21 3 -17 -3 3 -6 2 -13 -3 -16 -5 -4 -13 -1 -16
4 -8 13 -45 -16 -45 -34 1 -6 10 0 20 13 18 21 25 17 21 -11 -1 -9 58 11 87
30 12 8 25 12 29 8 3 -3 1 -6 -6 -6 -7 0 -9 -4 -6 -10 3 -5 17 -10 30 -10 18
0 23 -4 19 -15 -5 -13 -2 -14 21 -5 32 12 49 2 35 -20 -5 -8 -12 -11 -17 -7
-4 5 -1 12 7 17 9 6 10 10 3 10 -6 0 -15 -5 -18 -10 -4 -6 -23 -8 -43 -5 -68
10 -123 8 -134 -3 -7 -7 -8 -12 -3 -12 4 0 0 -9 -9 -19 -18 -19 -17 -20 41
-15 l58 4 -34 -15 c-32 -15 -33 -17 -16 -35 10 -11 24 -20 32 -20 8 0 11 -4 8
-10 -3 -5 -22 -8 -41 -5 -18 2 -34 0 -34 -5 0 -6 11 -10 24 -10 22 0 24 -3 20
-44 -5 -51 -23 -89 -44 -94 -8 -2 -18 -9 -22 -15 -5 -8 -17 -7 -46 1 -37 11
-40 15 -45 55 -11 105 0 162 49 257 30 58 52 89 60 86 8 -3 16 -1 19 4 10 17
27 11 21 -7z m144 -37 c0 -2 -7 -7 -16 -10 -8 -3 -12 -2 -9 4 6 10 25 14 25 6z
m657 -51 c0 -8 -4 -12 -9 -9 -5 3 -6 10 -3 15 9 13 12 11 12 -6z m147 -3 c3
-5 -1 -9 -9 -9 -8 0 -12 4 -9 9 3 4 7 8 9 8 2 0 6 -4 9 -8z m30 -8 c3 -8 2
-12 -4 -9 -6 3 -10 10 -10 16 0 14 7 11 14 -7z m-784 -104 c0 -5 -2 -10 -4
-10 -3 0 -8 5 -11 10 -3 6 -1 10 4 10 6 0 11 -4 11 -10z m-326 -206 c3 -8 2
-12 -4 -9 -6 3 -10 10 -10 16 0 14 7 11 14 -7z"/>
<path d="M2721 1786 c4 -4 22 -9 40 -12 19 -2 43 -6 54 -8 11 -1 31 -6 45 -11
23 -6 24 -6 10 9 -10 10 -41 18 -85 22 -39 3 -67 3 -64 0z"/>
<path d="M2890 1740 c-9 -6 -10 -10 -3 -10 6 0 15 5 18 10 8 12 4 12 -15 0z"/>
<path d="M1740 1465 c-8 -9 -8 -15 -2 -15 12 0 26 19 19 26 -2 2 -10 -2 -17
-11z"/>
</g>
</svg>
