<?xml version="1.0" standalone="no"?>
<!DOCTYPE svg PUBLIC "-//W3C//DTD SVG 20010904//EN"
 "http://www.w3.org/TR/2001/REC-SVG-20010904/DTD/svg10.dtd">
<svg version="1.0" xmlns="http://www.w3.org/2000/svg"
 width="450.000000pt" height="253.000000pt" viewBox="0 0 450.000000 253.000000"
 preserveAspectRatio="xMidYMid meet">
<metadata>
Created by potrace 1.16, written by Peter Selinger 2001-2019
</metadata>
<g transform="translate(0.000000,253.000000) scale(0.100000,-0.100000)"
fill="#000000" stroke="none">
<path d="M0 1265 l0 -1265 2250 0 2250 0 0 1265 0 1265 -797 0 -798 0 50 -31
c90 -56 140 -160 157 -330 l12 -107 57 -16 57 -17 39 27 c35 23 45 25 118 22
69 -3 93 -10 175 -47 175 -80 218 -125 219 -231 1 -65 -12 -89 -95 -174 -108
-113 -164 -156 -223 -172 -31 -9 -73 -21 -93 -28 l-38 -12 31 -30 c44 -41 84
-127 99 -209 6 -38 15 -86 19 -105 4 -19 4 -50 0 -67 -7 -34 -56 -87 -90 -98
-10 -4 -19 -10 -19 -15 0 -13 -140 -40 -231 -45 -46 -2 -109 1 -139 6 -30 5
-72 12 -94 14 -50 7 -151 41 -198 67 -50 28 -68 19 -69 -34 0 -24 -5 -65 -9
-93 -7 -43 -8 -38 -6 37 1 48 1 86 1 85 -1 -1 -25 -28 -53 -60 -29 -31 -52
-66 -52 -78 0 -28 -114 -137 -175 -167 -116 -56 -181 -62 -262 -22 -54 26 -90
68 -112 130 -10 30 -28 77 -40 103 -17 39 -21 69 -21 154 0 88 -2 104 -15 100
-20 -8 -30 11 -15 28 10 12 6 15 -17 20 -253 56 -360 113 -408 219 -63 140
-66 181 -19 243 13 17 24 36 24 41 0 12 85 82 99 82 6 0 11 3 11 8 0 4 18 18
40 32 22 13 40 28 40 32 0 5 -27 35 -59 66 -64 63 -120 156 -145 241 -55 187
37 260 308 249 82 -4 127 -11 171 -28 45 -17 85 -23 164 -25 l103 -3 64 63
c72 73 131 115 206 150 l53 25 -1262 0 -1263 0 0 -1265z m2633 -566 c-6 -6 -7
3 -4 23 4 28 6 29 9 9 2 -13 0 -27 -5 -32z m-106 -28 c-2 -52 -5 -58 -12 -22
-3 11 -7 30 -9 41 -3 11 -1 18 5 15 5 -4 9 -1 9 4 0 6 2 11 4 11 2 0 4 -22 3
-49z m100 -43 c-3 -8 -6 -5 -6 6 -1 11 2 17 5 13 3 -3 4 -12 1 -19z m0 -38
c-1 -11 -5 -20 -9 -20 -10 0 -10 4 -2 24 8 22 13 20 11 -4z m-8 -85 c-1 -30
-5 -55 -9 -55 -4 0 -6 10 -4 23 1 12 3 37 3 55 1 17 3 32 6 32 3 0 4 -25 4
-55z m-12 -97 c-3 -7 -5 -2 -5 12 0 14 2 19 5 13 2 -7 2 -19 0 -25z m0 -75
c-3 -10 -5 -4 -5 12 0 17 2 24 5 18 2 -7 2 -21 0 -30z"/>
<path d="M2273 2029 c-4 -4 -17 -9 -28 -12 -18 -4 -18 -5 5 -14 15 -6 30 -7
36 -2 6 5 14 6 18 2 10 -10 76 -10 76 0 0 5 -9 7 -20 4 -12 -3 -24 1 -29 11
-9 16 -45 24 -58 11z m10 -14 c-3 -9 -8 -14 -10 -11 -3 3 -2 9 2 15 9 16 15
13 8 -4z"/>
<path d="M2390 1999 c0 -5 5 -7 10 -4 6 3 10 8 10 11 0 2 -4 4 -10 4 -5 0 -10
-5 -10 -11z"/>
<path d="M2440 1846 c0 -2 7 -7 16 -10 8 -3 12 -2 9 4 -6 10 -25 14 -25 6z"/>
<path d="M2430 1773 c-14 -9 -27 -18 -29 -19 -2 -2 -5 -25 -8 -52 -3 -36 0
-52 12 -62 8 -7 15 -18 15 -25 0 -19 46 -46 67 -38 10 3 15 3 11 -2 -4 -4 -3
-14 3 -22 9 -10 8 -13 -4 -13 -11 0 -16 -9 -15 -27 1 -16 -2 -36 -6 -45 -7
-15 -1 -17 48 -15 31 1 56 5 56 8 0 4 10 9 23 13 16 4 19 8 9 14 -15 10 -18
39 -7 65 5 13 2 17 -14 17 -64 0 -164 82 -175 145 -4 20 -2 24 7 16 9 -7 15
-1 23 25 6 19 10 34 10 34 -1 0 -13 -8 -26 -17z"/>
<path d="M2330 1715 c0 -2 7 -8 15 -15 12 -10 15 -10 15 2 0 8 -7 15 -15 15
-8 0 -15 -1 -15 -2z"/>
<path d="M2180 1675 c0 -9 5 -13 10 -10 6 3 10 -1 10 -9 0 -10 7 -15 20 -13
11 2 21 5 22 8 2 2 1 3 -1 2 -2 -1 -17 7 -32 18 -25 18 -29 18 -29 4z"/>
<path d="M1786 1662 c-11 -2 -26 -10 -34 -18 -7 -8 -17 -12 -22 -9 -5 3 -12 0
-16 -7 -4 -7 -4 -10 1 -6 4 4 14 0 21 -10 18 -23 17 -35 -2 -28 -8 3 -12 2 -9
-4 3 -6 17 -10 31 -10 28 0 32 -15 8 -28 -24 -14 -11 -27 29 -30 30 -2 36 1
41 23 4 14 10 24 15 21 10 -7 6 57 -5 76 -6 9 -2 9 11 -2 19 -15 19 -15 0 11
-19 25 -33 30 -69 21z"/>
<path d="M2680 1652 c-8 -9 -14 -20 -12 -24 1 -5 -4 -7 -10 -5 -8 1 -13 -10
-13 -29 l-1 -31 28 16 c15 9 28 24 28 33 0 9 5 20 10 23 6 3 10 14 10 23 0 13
-2 14 -9 3 -5 -7 -10 -9 -12 -3 -2 6 -11 3 -19 -6z"/>
<path d="M1504 1629 c-10 -12 -17 -24 -15 -28 15 -26 19 -51 9 -57 -7 -4 -8
-3 -4 4 4 7 2 12 -3 12 -6 0 -11 -5 -11 -11 0 -5 -4 -8 -8 -5 -4 2 -14 0 -22
-6 -12 -8 -11 -9 4 -4 14 5 17 2 12 -9 -3 -9 -2 -13 4 -10 16 10 11 -21 -5
-35 -8 -7 -12 -17 -8 -23 3 -5 12 2 20 17 8 15 18 24 22 22 10 -7 33 42 26 54
-3 5 0 19 7 30 11 18 10 23 -4 34 -13 10 -15 15 -6 24 7 7 10 12 7 12 -3 0
-14 -9 -25 -21z"/>
<path d="M2387 1550 c-3 -12 -10 -19 -16 -15 -6 3 -11 1 -11 -5 0 -6 -5 -8
-10 -5 -8 5 -8 11 -1 19 7 9 4 12 -14 12 -29 0 -32 -11 -7 -25 15 -9 15 -12 2
-21 -11 -7 -3 -10 31 -10 31 0 55 6 70 19 l23 18 -25 8 c-13 4 -27 12 -30 17
-3 5 -9 0 -12 -12z"/>
<path d="M2153 1439 c-10 -10 -33 -17 -65 -18 -35 -2 -17 -16 20 -16 25 0 45
7 61 22 17 16 20 23 10 23 -8 0 -20 -5 -26 -11z"/>
<path d="M2340 1432 c-24 -19 -21 -42 5 -42 18 0 67 45 58 53 -12 13 -41 7
-63 -11z"/>
<path d="M1914 1415 c3 -8 -3 -19 -13 -25 -25 -13 -35 -39 -13 -35 9 1 16 8
15 13 -2 6 4 9 13 5 10 -4 17 2 21 16 4 15 11 20 22 16 11 -4 13 -3 5 5 -6 6
-21 12 -33 15 -17 3 -21 0 -17 -10z"/>
<path d="M2220 1385 c0 -2 7 -8 15 -15 12 -10 15 -10 15 2 0 8 -7 15 -15 15
-8 0 -15 -1 -15 -2z"/>
<path d="M2315 1318 c-7 -18 -12 -34 -10 -36 2 -2 22 -5 44 -6 38 -3 41 -1 41
24 0 56 -53 69 -75 18z"/>
<path d="M2620 1341 c0 -6 4 -13 10 -16 6 -3 7 1 4 9 -7 18 -14 21 -14 7z"/>
<path d="M2446 1282 c-3 -5 1 -9 9 -9 8 0 12 4 9 9 -3 4 -7 8 -9 8 -2 0 -6 -4
-9 -8z"/>
<path d="M2261 1271 c-8 -6 -9 -11 -3 -15 6 -3 14 -1 17 5 9 14 2 20 -14 10z"/>
<path d="M3320 1208 c0 -6 7 -8 15 -5 8 4 17 3 19 -2 7 -11 -27 -10 -41 2 -13
9 -14 7 -17 -33 -1 -8 -7 -16 -14 -16 -24 -3 -24 -4 -11 -21 12 -14 12 -16 0
-8 -28 16 34 -76 68 -102 19 -15 31 -21 26 -13 -6 10 -4 12 8 7 9 -3 18 0 21
9 4 10 2 13 -7 8 -8 -5 -7 -2 2 9 10 13 10 17 1 17 -9 0 -9 4 1 17 10 11 10
14 2 9 -9 -5 -13 -1 -13 13 0 31 -11 52 -24 44 -8 -5 -8 -3 0 8 7 8 11 25 10
39 -1 18 -7 25 -23 26 -13 1 -23 -3 -23 -8z"/>
<path d="M2592 1193 c1 -5 -3 -19 -10 -33 -12 -22 -11 -23 1 -8 8 10 17 15 20
11 4 -3 7 0 7 7 0 9 5 7 15 -6 14 -18 14 -17 4 9 -7 15 -18 27 -26 27 -7 0
-12 -3 -11 -7z"/>
<path d="M2218 1183 c-10 -2 -18 -9 -18 -14 0 -13 13 -11 36 6 19 14 14 17
-18 8z"/>
<path d="M2473 1163 c-13 -8 -23 -23 -23 -32 0 -9 -6 -23 -12 -30 -11 -11 -10
-12 2 -5 8 5 29 10 45 11 50 4 69 9 73 21 2 7 -3 10 -12 6 -9 -3 -23 -3 -31 0
-13 4 -14 10 -5 26 13 25 -4 27 -37 3z"/>
<path d="M2690 1174 c0 -7 27 -34 34 -34 3 0 3 6 0 14 -5 14 -34 31 -34 20z"/>
<path d="M2180 1164 c0 -17 17 -36 24 -26 3 5 -1 15 -9 22 -8 7 -15 9 -15 4z"/>
<path d="M3040 1126 c0 -2 7 -7 16 -10 8 -3 12 -2 9 4 -6 10 -25 14 -25 6z"/>
<path d="M3080 1111 c0 -5 9 -13 20 -16 11 -4 18 -11 15 -16 -4 -5 2 -9 13 -9
10 0 27 -9 37 -20 10 -11 24 -20 30 -20 7 0 24 -9 38 -20 20 -16 27 -17 33 -8
4 7 4 10 -1 6 -4 -4 -25 6 -45 22 -21 17 -42 30 -47 30 -5 0 -18 8 -29 18 -30
26 -64 43 -64 33z"/>
<path d="M1940 1100 c-13 -8 -13 -10 2 -10 9 0 20 5 23 10 8 13 -5 13 -25 0z"/>
<path d="M2201 1046 c-10 -12 -9 -14 6 -11 10 2 24 4 31 4 6 1 12 6 12 11 0
15 -36 12 -49 -4z"/>
<path d="M3302 964 c10 -10 20 -16 22 -13 3 3 -5 11 -17 18 -21 13 -21 12 -5
-5z"/>
</g>
</svg>
