<?xml version="1.0" standalone="no"?>
<!DOCTYPE svg PUBLIC "-//W3C//DTD SVG 20010904//EN"
 "http://www.w3.org/TR/2001/REC-SVG-20010904/DTD/svg10.dtd">
<svg version="1.0" xmlns="http://www.w3.org/2000/svg"
 width="450.000000pt" height="253.000000pt" viewBox="0 0 450.000000 253.000000"
 preserveAspectRatio="xMidYMid meet">
<metadata>
Created by potrace 1.16, written by Peter Selinger 2001-2019
</metadata>
<g transform="translate(0.000000,253.000000) scale(0.100000,-0.100000)"
fill="#000000" stroke="none">
<path d="M0 1265 l0 -1265 2250 0 2250 0 0 1265 0 1265 -2250 0 -2250 0 0
-1265z m2706 595 c78 -20 121 -36 179 -66 92 -48 145 -81 184 -113 40 -33 43
-38 38 -74 -5 -37 -19 -56 -41 -57 -6 0 0 10 13 21 12 12 19 25 14 30 -12 12
-197 13 -219 1 -13 -7 -25 -7 -37 -1 -9 6 -21 8 -26 5 -5 -3 -12 1 -15 10 -4
9 -13 14 -21 10 -8 -3 -15 -2 -15 3 0 4 -6 8 -12 8 -46 3 -66 8 -61 16 6 11
-48 6 -64 -6 -6 -4 -14 -3 -18 3 -4 6 -12 7 -18 2 -11 -7 -23 -8 -83 -4 -11 1
-28 8 -38 15 -17 12 -17 15 3 50 l21 37 -35 17 c-19 9 -35 23 -35 30 0 8 5 11
10 8 6 -3 10 -1 10 5 0 6 5 8 10 5 11 -7 26 22 16 32 -3 3 -12 0 -21 -7 -8 -7
-15 -9 -15 -4 0 4 -10 -2 -23 -14 -13 -12 -46 -30 -73 -40 -69 -25 -99 -43
-86 -51 21 -13 2 -51 -25 -51 -20 0 -24 4 -19 18 5 15 5 15 -6 1 -7 -8 -23
-18 -36 -21 -19 -5 -22 -3 -17 13 5 14 3 17 -9 13 -9 -3 -16 -1 -16 6 0 6 -4
9 -10 5 -9 -6 -50 13 -61 29 -4 5 -14 6 -23 3 -14 -5 -15 -3 -6 12 5 11 15 22
22 25 7 3 -9 4 -36 2 -32 -3 -45 -1 -38 6 14 14 -13 61 -40 70 -13 4 6 6 45 6
55 -1 67 -4 65 -17 -2 -12 7 -17 37 -19 22 -2 43 -8 46 -14 9 -14 129 -21 129
-8 0 6 -13 10 -30 10 -16 0 -30 5 -30 10 0 7 -6 7 -19 0 -22 -11 -40 4 -20 16
16 9 108 11 102 2 -5 -10 21 -10 31 -1 10 10 48 14 66 7 27 -12 65 -11 97 2
26 10 35 10 45 1 13 -13 121 -17 132 -6 3 3 -18 7 -46 8 -29 1 -59 6 -67 11
-31 18 115 10 195 -10z m-849 -12 c11 -15 11 -28 -1 -47 -6 -9 -5 -12 2 -7 6
3 13 3 16 -2 3 -5 -15 -7 -40 -6 -37 2 -48 -1 -69 -24 -14 -15 -25 -32 -25
-39 0 -7 -11 -15 -24 -19 -18 -4 -22 -11 -19 -25 5 -16 12 -19 40 -14 19 3 43
10 53 15 12 6 21 7 25 1 6 -11 -29 -34 -38 -25 -3 3 -32 -2 -64 -12 -32 -10
-64 -16 -70 -15 -7 1 -13 -5 -13 -14 0 -12 4 -14 19 -5 17 8 20 7 18 -9 -1
-11 -11 -24 -24 -30 -13 -6 -23 -15 -23 -21 0 -6 -4 -8 -10 -5 -6 4 -7 -1 -3
-11 4 -12 3 -15 -5 -10 -8 5 -12 0 -12 -14 0 -20 2 -20 35 7 19 15 35 31 35
35 0 10 82 49 89 42 3 -3 -1 -9 -9 -14 -8 -5 -15 -22 -15 -37 0 -24 -4 -28
-26 -25 -15 1 -33 -5 -43 -17 -16 -18 -15 -18 26 -10 53 9 64 0 49 -42 -6 -17
-11 -49 -11 -71 0 -33 -2 -37 -14 -26 -8 7 -11 18 -8 23 3 6 -4 1 -16 -9 -14
-12 -22 -15 -22 -6 0 7 -7 10 -15 6 -8 -3 -15 -2 -15 3 0 4 -11 6 -24 4 -13
-3 -27 1 -31 8 -5 8 -4 10 3 5 8 -5 12 4 12 29 0 25 -4 34 -12 29 -8 -5 -9 9
-5 56 7 66 41 146 86 204 14 19 35 46 45 60 11 15 32 34 48 44 15 9 28 22 28
28 0 24 61 33 77 12z m-7 -198 c-24 -15 -36 -11 -14 4 10 8 21 12 24 10 2 -3
-2 -9 -10 -14z m-273 -242 c-3 -8 -6 -5 -6 6 -1 11 2 17 5 13 3 -3 4 -12 1
-19z m140 -380 c-2 -13 -4 -5 -4 17 -1 22 1 32 4 23 2 -10 2 -28 0 -40z m10
-80 l1 -53 -7 45 c-6 40 -5 60 3 60 1 0 3 -24 3 -52z m0 -80 c-3 -8 -6 -5 -6
6 -1 11 2 17 5 13 3 -3 4 -12 1 -19z m16 -148 l6 -125 -13 120 c-10 107 -11
143 -1 133 2 -2 5 -59 8 -128z m14 -202 c-2 -13 -4 -5 -4 17 -1 22 1 32 4 23
2 -10 2 -28 0 -40z"/>
<path d="M1976 1825 c7 -17 20 -20 28 -6 3 5 -1 12 -10 15 -22 9 -24 8 -18 -9z"/>
<path d="M2650 1706 c0 -4 123 -46 145 -50 6 -1 16 -5 23 -9 23 -15 13 19 -14
44 -14 13 -25 20 -24 14 5 -21 -2 -22 -57 -9 -63 15 -73 16 -73 10z"/>
<path d="M1665 1690 c-3 -5 -1 -10 4 -10 6 0 11 5 11 10 0 6 -2 10 -4 10 -3 0
-8 -4 -11 -10z"/>
<path d="M1691 1451 c-1 -8 -8 -23 -18 -33 -9 -10 -11 -18 -5 -18 15 0 35 38
28 53 -3 8 -5 7 -5 -2z"/>
</g>
</svg>
