<?xml version="1.0" standalone="no"?>
<!DOCTYPE svg PUBLIC "-//W3C//DTD SVG 20010904//EN"
 "http://www.w3.org/TR/2001/REC-SVG-20010904/DTD/svg10.dtd">
<svg version="1.0" xmlns="http://www.w3.org/2000/svg"
 width="450.000000pt" height="253.000000pt" viewBox="0 0 450.000000 253.000000"
 preserveAspectRatio="xMidYMid meet">
<metadata>
Created by potrace 1.16, written by Peter Selinger 2001-2019
</metadata>
<g transform="translate(0.000000,253.000000) scale(0.100000,-0.100000)"
fill="#000000" stroke="none">
<path d="M0 1265 l0 -1265 2250 0 2250 0 0 1265 0 1265 -2250 0 -2250 0 0
-1265z m3075 690 c72 -25 161 -82 224 -143 63 -63 116 -158 103 -189 -16 -42
-87 -136 -109 -146 -12 -5 -23 -13 -23 -17 0 -8 -113 -61 -136 -64 -7 -1 -24
-11 -36 -22 -26 -22 -96 -49 -105 -40 -4 3 1 6 10 6 35 0 8 29 -33 35 -36 5
-49 45 -14 45 8 0 13 -4 9 -9 -3 -5 -1 -13 5 -16 6 -4 9 -1 8 6 -2 7 7 14 19
15 12 1 20 -3 17 -8 -3 -4 -10 -5 -16 -2 -7 4 -8 2 -4 -5 4 -6 20 -10 34 -9
15 1 33 -1 39 -5 15 -10 44 3 36 16 -3 5 -1 7 4 4 6 -4 13 0 16 8 6 14 103 65
125 65 6 0 15 8 21 18 13 25 -7 37 -61 36 -27 -1 -48 3 -48 7 0 5 -5 9 -11 9
-5 0 -7 -4 -4 -10 8 -14 3 -13 -34 6 -26 13 -51 15 -117 10 -65 -4 -83 -3 -78
7 5 8 2 7 -9 -2 -14 -11 -17 -11 -17 0 0 11 -2 11 -10 -1 -6 -9 -13 -11 -17
-5 -5 6 -17 11 -28 13 -31 5 -106 12 -142 14 -17 1 -29 6 -27 10 3 4 0 8 -6 8
-6 0 -8 5 -4 12 5 7 2 9 -8 6 -11 -5 -14 1 -13 20 2 29 -12 60 -34 78 -8 6
-11 16 -7 23 4 6 2 20 -5 29 -11 14 -11 15 1 5 18 -16 39 11 40 50 0 30 -11
35 -30 12 -15 -18 -31 -20 -27 -2 4 20 47 45 70 41 20 -4 20 -4 3 4 -18 8 -17
10 11 30 52 37 136 64 218 71 83 7 122 2 200 -24z m-699 -44 c-3 -5 -1 -11 6
-13 18 -6 59 3 53 11 -2 4 2 8 10 8 8 0 15 -4 15 -8 0 -4 8 -6 18 -4 20 3 42
-12 42 -30 0 -18 -115 -46 -130 -31 -8 8 -11 7 -8 -3 2 -8 -8 -17 -22 -21 -21
-5 -25 -11 -22 -38 2 -21 -1 -32 -10 -33 -73 -6 -98 -4 -98 7 0 6 -11 15 -25
18 -14 4 -25 11 -25 16 0 6 -4 10 -10 10 -15 0 -70 58 -70 75 0 8 -6 16 -12
16 -55 5 -52 12 7 18 107 11 287 13 281 2z m194 -22 c0 -5 -7 -12 -16 -16 -19
-7 -38 18 -22 28 14 9 38 0 38 -12z m-505 -19 c3 -4 -2 -11 -11 -14 -9 -4 -13
-2 -8 5 4 7 1 10 -7 7 -9 -3 -13 -15 -11 -32 3 -24 1 -26 -27 -24 -32 2 -38
16 -21 48 10 18 75 26 85 10z m45 -45 c0 -2 3 -10 6 -19 11 -28 -10 -17 -28
14 -17 30 -17 30 2 20 11 -6 20 -12 20 -15z m490 -19 c0 -11 -19 -15 -25 -6
-3 5 1 10 9 10 9 0 16 -2 16 -4z m-510 -61 c0 -7 -8 -16 -17 -20 -15 -5 -16
-4 -5 6 15 16 16 33 0 23 -7 -4 -8 -3 -4 5 9 14 26 5 26 -14z m63 -11 c-7 -19
-23 -7 -23 18 0 17 3 18 14 8 8 -6 12 -18 9 -26z m352 27 c-9 -8 -36 -10 -30
-2 2 4 11 8 20 8 8 0 13 -3 10 -6z m-428 -78 c18 1 28 -4 33 -20 8 -20 7 -21
-28 -11 -20 6 -42 14 -48 19 -6 5 -14 6 -18 2 -3 -4 -13 2 -22 13 -8 10 -13
13 -9 7 4 -9 -3 -13 -22 -13 l-28 1 28 15 c16 9 34 13 41 11 7 -3 19 -1 27 4
10 6 15 3 17 -11 2 -13 11 -18 29 -17z m-147 -7 c0 -3 -4 -8 -10 -11 -5 -3
-10 -1 -10 4 0 6 5 11 10 11 6 0 10 -2 10 -4z m-7 -52 c-5 -14 -2 -16 18 -11
13 3 36 9 52 12 16 4 27 3 27 -3 0 -12 -47 -25 -61 -16 -6 3 -5 -4 2 -17 7
-13 12 -29 11 -36 -1 -6 3 -13 10 -16 7 -2 2 -2 -12 0 -14 1 -32 -1 -40 -7
-12 -8 -11 -10 8 -10 27 0 28 -11 3 -34 -10 -10 -21 -27 -24 -38 -6 -19 -5
-19 18 2 24 22 24 22 20 2 -5 -28 -31 -76 -49 -91 -23 -19 -39 22 -39 96 1 72
21 165 34 157 5 -3 9 2 9 10 0 9 4 16 10 16 5 0 7 -7 3 -16z m1194 -90 c-3 -3
-12 -4 -19 -1 -8 3 -5 6 6 6 11 1 17 -2 13 -5z m-433 -53 c3 -5 -3 -11 -14
-14 -20 -5 -35 5 -23 17 9 9 31 7 37 -3z m210 -79 c3 -5 -1 -9 -9 -9 -8 0 -12
4 -9 9 3 4 7 8 9 8 2 0 6 -4 9 -8z m-109 -30 c-3 -3 -11 0 -18 7 -9 10 -8 11
6 5 10 -3 15 -9 12 -12z m20 -42 c30 -24 34 -30 18 -30 -27 0 -80 27 -87 45
-9 26 29 17 69 -15z m110 20 c-3 -5 -14 -10 -23 -9 -14 0 -13 2 3 9 27 11 27
11 20 0z"/>
<path d="M3270 1589 c0 -14 28 -30 35 -19 3 6 12 7 18 3 8 -4 7 -1 -1 9 -13
16 -52 21 -52 7z"/>
<path d="M2373 1877 c-44 -13 -41 -22 7 -22 29 0 40 4 40 15 0 13 1 13 10 0 7
-11 10 -11 10 -2 0 8 5 10 13 6 6 -4 8 -3 4 2 -11 12 -46 12 -84 1z"/>
<path d="M2294 1779 c-19 -22 -19 -22 4 -8 12 8 22 17 22 21 0 12 -6 9 -26
-13z"/>
<path d="M1920 1589 c0 -5 5 -7 10 -4 6 3 10 8 10 11 0 2 -4 4 -10 4 -5 0 -10
-5 -10 -11z"/>
</g>
</svg>
