<?xml version="1.0" standalone="no"?>
<!DOCTYPE svg PUBLIC "-//W3C//DTD SVG 20010904//EN"
 "http://www.w3.org/TR/2001/REC-SVG-20010904/DTD/svg10.dtd">
<svg version="1.0" xmlns="http://www.w3.org/2000/svg"
 width="450.000000pt" height="253.000000pt" viewBox="0 0 450.000000 253.000000"
 preserveAspectRatio="xMidYMid meet">
<metadata>
Created by potrace 1.16, written by Peter Selinger 2001-2019
</metadata>
<g transform="translate(0.000000,253.000000) scale(0.100000,-0.100000)"
fill="#000000" stroke="none">
<path d="M0 1265 l0 -1265 2250 0 2250 0 0 1265 0 1265 -812 -1 c-791 0 -812
-1 -773 -18 113 -51 175 -161 196 -345 l12 -106 50 -15 c65 -19 62 -20 102 11
32 24 41 26 117 22 85 -4 82 -3 253 -84 62 -29 104 -67 117 -105 5 -16 13 -29
17 -29 4 0 8 -24 9 -53 3 -67 -25 -112 -136 -219 -99 -95 -143 -123 -232 -147
-39 -10 -73 -21 -76 -23 -2 -3 10 -21 28 -40 34 -36 75 -110 84 -150 21 -99
25 -131 26 -186 0 -61 -1 -65 -37 -98 -21 -19 -40 -34 -43 -34 -3 0 -13 -6
-21 -14 -48 -42 -269 -58 -436 -31 -100 15 -137 26 -210 61 -74 35 -85 33 -85
-18 0 -24 -5 -50 -11 -58 -8 -11 -9 -4 -6 28 l5 42 -25 -22 c-69 -62 -83 -78
-83 -100 0 -35 -112 -141 -182 -173 -107 -49 -210 -43 -285 17 -45 35 -58 58
-106 173 -33 82 -37 100 -37 183 0 85 -1 92 -20 92 -22 0 -26 20 -9 37 9 9 3
13 -22 17 -19 3 -61 10 -94 16 -97 16 -285 119 -285 156 0 8 -4 14 -9 14 -5 0
-12 14 -16 30 -4 17 -11 30 -16 30 -5 0 -9 13 -9 29 0 17 -4 33 -10 36 -5 3
-10 28 -10 54 0 40 7 58 41 106 47 67 63 82 142 131 31 19 57 40 57 45 0 5
-17 26 -38 47 -64 62 -120 136 -137 183 -26 66 -43 150 -38 184 6 39 25 85 37
85 5 0 17 6 25 13 31 27 114 41 240 40 113 0 133 -2 189 -26 56 -23 77 -26
173 -26 l110 1 23 37 c13 21 35 44 47 53 13 9 38 29 56 45 35 31 107 71 163
89 27 9 -267 12 -1237 13 l-1273 1 0 -1265z m2637 -467 c-3 -7 -5 -2 -5 12 0
14 2 19 5 13 2 -7 2 -19 0 -25z m0 -50 c-3 -7 -5 -2 -5 12 0 14 2 19 5 13 2
-7 2 -19 0 -25z m-20 -225 c-3 -10 -5 -2 -5 17 0 19 2 27 5 18 2 -10 2 -26 0
-35z m-10 -135 c-2 -13 -4 -5 -4 17 -1 22 1 32 4 23 2 -10 2 -28 0 -40z"/>
<path d="M2270 2028 c0 -10 -4 -18 -10 -18 -5 0 -10 5 -10 11 0 5 -4 7 -10 4
-17 -11 -11 -22 15 -27 14 -3 22 -1 18 5 -3 5 3 7 13 3 40 -12 74 -14 74 -5 0
5 -9 9 -21 9 -13 0 -18 4 -13 13 4 6 4 9 -1 5 -4 -4 -14 -3 -22 3 -10 9 -13 8
-13 -2 0 -11 -2 -11 -10 1 -8 13 -10 12 -10 -2z"/>
<path d="M2370 2000 c0 -5 7 -7 15 -4 8 4 15 8 15 10 0 2 -7 4 -15 4 -8 0 -15
-4 -15 -10z"/>
<path d="M2411 1766 c-14 -16 -4 -46 14 -46 18 0 28 17 16 25 -6 3 -8 12 -4
20 7 19 -11 20 -26 1z"/>
<path d="M2321 1717 c2 -1 12 -9 22 -16 14 -12 17 -11 17 3 0 10 -8 16 -22 16
-12 0 -19 -1 -17 -3z"/>
<path d="M2390 1685 c0 -19 4 -35 10 -35 5 0 12 -11 16 -25 7 -28 31 -45 63
-45 14 0 21 -6 21 -20 0 -12 -7 -20 -16 -20 -14 0 -14 -3 -4 -15 10 -12 10
-21 1 -41 -6 -14 -11 -26 -11 -27 0 -5 131 10 136 15 3 3 0 17 -7 30 -8 19 -8
31 0 46 10 19 7 21 -31 27 -23 4 -48 12 -56 19 -39 30 -84 80 -92 102 -14 35
-30 29 -30 -11z"/>
<path d="M2190 1684 c1 -28 43 -54 56 -33 3 5 0 9 -7 9 -7 0 -21 7 -31 17 -10
9 -18 12 -18 7z"/>
<path d="M2704 1666 c-3 -9 -10 -16 -15 -16 -19 0 -49 -36 -49 -58 0 -19 3
-21 19 -13 10 6 21 8 23 5 3 -2 13 16 23 41 9 26 14 49 11 52 -3 3 -8 -2 -12
-11z"/>
<path d="M1780 1655 c-14 -8 -33 -17 -42 -21 -16 -6 -16 -8 -2 -22 19 -18 3
-32 -29 -24 -14 3 -18 1 -13 -6 4 -7 25 -12 47 -12 41 0 49 -9 24 -30 -22 -18
-9 -30 32 -30 20 0 33 3 30 6 -3 4 -1 16 5 28 7 11 13 26 14 31 11 58 11 76 1
82 -21 13 -42 12 -67 -2z"/>
<path d="M2387 1570 c15 -20 3 -41 -25 -43 -12 -1 -22 -7 -22 -15 0 -15 57
-10 91 9 20 10 17 29 -3 29 -6 0 -21 8 -32 18 -14 11 -17 12 -9 2z"/>
<path d="M2326 1548 c3 -5 10 -6 15 -3 13 9 11 12 -6 12 -8 0 -12 -4 -9 -9z"/>
<path d="M2156 1445 c-11 -8 -30 -15 -42 -15 -25 0 -50 -25 -35 -34 5 -4 12
-2 16 3 3 5 15 8 27 6 14 -3 30 5 45 21 34 37 27 48 -11 19z"/>
<path d="M2337 1432 c-23 -25 -21 -32 6 -32 25 1 57 22 57 39 0 18 -45 13 -63
-7z"/>
<path d="M1908 1418 c10 -10 8 -16 -9 -29 -17 -12 -19 -20 -12 -34 9 -15 12
-14 32 14 12 17 31 31 41 31 10 0 22 5 26 12 4 6 3 8 -4 4 -6 -3 -14 -1 -18 5
-4 8 -9 7 -15 -2 -6 -10 -9 -11 -9 -1 0 6 -10 12 -22 12 -17 0 -19 -3 -10 -12z"/>
<path d="M2235 1380 c-3 -5 -1 -10 4 -10 6 0 11 5 11 10 0 6 -2 10 -4 10 -3 0
-8 -4 -11 -10z"/>
<path d="M2338 1353 c-10 -2 -18 -5 -18 -6 0 -1 -4 -17 -9 -35 l-10 -32 45 0
c40 0 44 2 44 24 0 19 -25 60 -33 55 -1 -1 -10 -3 -19 -6z"/>
<path d="M2255 1277 c-5 -18 -3 -47 5 -47 4 0 12 11 18 24 9 19 8 25 -4 30 -8
3 -16 0 -19 -7z m12 -19 c-3 -8 -6 -5 -6 6 -1 11 2 17 5 13 3 -3 4 -12 1 -19z"/>
<path d="M2235 1204 c-11 -9 -29 -22 -40 -30 -14 -10 -16 -17 -8 -25 8 -8 19
-3 42 20 17 18 31 36 31 41 0 13 -1 12 -25 -6z"/>
<path d="M2590 1191 c0 -11 -12 -29 -26 -40 -30 -23 -33 -24 -53 -12 -10 7
-11 13 -2 30 10 17 9 21 -4 21 -23 0 -53 -31 -57 -60 -3 -26 -4 -25 63 -22 14
1 36 11 49 22 12 11 27 17 33 13 6 -3 7 -1 3 5 -4 6 2 17 13 24 15 9 17 15 9
25 -15 19 -28 16 -28 -6z"/>
<path d="M3302 1181 c-10 -6 -10 -10 3 -21 11 -9 15 -9 15 -1 0 7 4 9 10 6 6
-3 7 1 4 9 -7 18 -13 19 -32 7z"/>
<path d="M2684 1165 c24 -18 39 -20 34 -2 -3 6 -15 13 -29 15 -23 2 -23 2 -5
-13z"/>
<path d="M3281 1142 c-7 -13 -6 -23 2 -32 10 -10 9 -11 -3 -6 -8 4 -4 -2 10
-14 14 -12 18 -18 10 -14 -13 7 -13 5 -1 -9 16 -21 32 -22 25 -3 -8 22 12 28
27 8 13 -15 12 -16 -3 -3 -21 15 -24 2 -5 -18 8 -10 8 -12 0 -7 -6 3 -15 1
-19 -5 -4 -7 -3 -9 4 -5 5 3 13 0 15 -6 4 -10 6 -10 6 0 1 7 5 11 9 8 4 -3 8
7 8 22 -1 15 -7 31 -13 35 -7 4 -13 13 -13 20 0 8 4 6 11 -3 9 -13 10 -13 6 0
-2 8 -13 14 -25 14 -12 -1 -19 3 -16 7 3 5 9 7 14 4 5 -3 12 0 15 6 5 6 0 9
-11 8 -11 -2 -24 0 -31 4 -7 5 -16 0 -22 -11z m49 -38 c0 -8 -19 -13 -24 -6
-3 5 1 9 9 9 8 0 15 -2 15 -3z"/>
<path d="M1946 1111 c-4 -7 -5 -15 -2 -18 9 -9 19 4 14 18 -4 11 -6 11 -12 0z"/>
<path d="M2205 1058 c-19 -11 -19 -11 0 -18 20 -7 47 9 38 23 -6 10 -14 9 -38
-5z"/>
</g>
</svg>
