<?xml version="1.0" standalone="no"?>
<!DOCTYPE svg PUBLIC "-//W3C//DTD SVG 20010904//EN"
 "http://www.w3.org/TR/2001/REC-SVG-20010904/DTD/svg10.dtd">
<svg version="1.0" xmlns="http://www.w3.org/2000/svg"
 width="450.000000pt" height="253.000000pt" viewBox="0 0 450.000000 253.000000"
 preserveAspectRatio="xMidYMid meet">
<metadata>
Created by potrace 1.16, written by Peter Selinger 2001-2019
</metadata>
<g transform="translate(0.000000,253.000000) scale(0.100000,-0.100000)"
fill="#000000" stroke="none">
<path d="M0 1265 l0 -1265 2250 0 2250 0 0 1265 0 1265 -2250 0 -2250 0 0
-1265z m2590 664 c90 -20 150 -41 145 -49 -3 -4 5 -6 17 -2 16 4 19 2 13 -8
-5 -8 -4 -11 2 -7 14 9 76 -17 66 -27 -4 -4 0 -4 10 0 11 4 19 0 23 -9 3 -9
12 -13 21 -10 11 4 14 2 9 -5 -5 -8 -2 -10 8 -6 9 4 18 -1 22 -10 3 -9 12 -16
19 -16 21 0 38 -60 22 -79 -28 -36 -35 -41 -40 -28 -5 16 3 38 13 32 4 -3 14
3 21 13 12 15 12 16 -2 5 -20 -16 -33 -5 -17 14 6 7 8 16 4 20 -3 3 -6 2 -6
-3 0 -17 -109 -9 -131 9 -10 9 -19 12 -19 7 0 -6 -8 -5 -19 2 -11 7 -19 14
-19 17 1 16 -3 21 -13 16 -7 -5 -2 -16 13 -33 l23 -26 -35 24 c-19 14 -39 29
-45 36 -5 6 -19 14 -30 18 -16 6 -15 2 8 -22 28 -29 28 -29 7 -35 -12 -3 -23
0 -26 7 -4 9 -16 11 -42 6 -20 -3 -49 -6 -64 -5 -16 1 -28 -3 -28 -10 0 -6
-16 -12 -37 -13 -20 -2 -40 -5 -44 -8 -14 -8 -21 17 -9 31 10 12 10 18 0 30
-10 12 -10 22 -2 39 10 22 30 30 102 41 3 0 10 3 15 6 16 9 40 4 38 -7 -1 -6
4 -11 11 -11 8 0 11 8 9 17 -3 12 -13 17 -34 15 -19 -2 -29 2 -29 11 0 8 -5
14 -11 14 -5 0 -8 -4 -5 -8 3 -5 -1 -9 -9 -9 -11 0 -12 4 -4 14 14 15 20 16
79 2z m-192 -6 c-18 -5 -25 -23 -9 -23 5 0 12 -7 15 -16 6 -16 -62 -87 -76
-78 -4 3 -8 0 -8 -6 0 -6 -5 -8 -10 -5 -15 9 -41 -15 -33 -29 4 -6 -1 -5 -10
3 -15 12 -17 11 -17 -3 0 -20 -43 -66 -61 -66 -7 0 -4 7 7 15 12 10 14 13 3
10 -8 -3 -29 1 -45 10 -16 8 -35 15 -42 15 -7 0 -10 4 -7 10 3 5 0 7 -9 4 -8
-3 -23 -1 -33 4 -16 9 -14 12 12 22 17 7 39 17 49 22 26 14 66 17 66 6 0 -5 4
-7 8 -4 5 3 27 6 50 7 22 2 40 7 39 13 -1 6 3 10 10 11 23 0 26 15 2 16 l-24
1 26 11 c14 7 24 17 22 24 -4 12 40 32 72 31 17 0 17 -1 3 -5z m-375 -55 c6
-21 5 -22 -8 -5 -7 10 -16 14 -19 9 -7 -11 -56 -3 -56 9 0 5 17 9 39 9 32 0
40 -4 44 -22z m87 18 c0 -2 -18 -6 -40 -8 -22 -2 -40 0 -40 4 0 5 18 8 40 8
22 0 40 -2 40 -4z m-288 -32 c-22 -15 -22 -17 -5 -30 11 -8 13 -13 5 -14 -7 0
-17 -11 -22 -25 -5 -14 -14 -25 -20 -25 -5 0 -10 -7 -10 -15 0 -9 -16 -25 -35
-36 -31 -18 -37 -29 -34 -55 0 -4 -10 -12 -23 -18 -14 -7 -23 -21 -23 -35 0
-12 -8 -28 -17 -35 -10 -7 -15 -16 -11 -20 3 -3 -4 -18 -18 -33 l-24 -27 30
21 c17 12 39 30 49 42 23 25 67 31 46 6 -7 -8 -17 -12 -23 -8 -6 3 -7 1 -3 -5
4 -7 14 -12 22 -12 8 0 14 -4 14 -10 0 -5 -13 -10 -29 -10 -17 0 -31 -6 -35
-16 -12 -30 -6 -34 25 -19 17 9 33 15 35 12 2 -2 -1 -28 -8 -58 -6 -30 -11
-61 -9 -69 2 -8 -6 -3 -18 10 -12 15 -20 20 -21 11 0 -11 -3 -11 -17 0 -9 8
-14 9 -10 3 3 -6 -2 -10 -15 -9 -23 2 -40 26 -36 52 2 10 -2 17 -7 16 -14 -2
-15 32 -3 92 20 93 132 261 207 310 41 27 79 35 43 9z m288 -13 c0 -11 -28
-24 -60 -27 -14 -1 -20 0 -13 3 7 2 10 10 7 16 -3 8 9 13 31 14 19 2 35 -1 35
-6z m170 -122 c0 -5 -4 -7 -10 -4 -5 3 -10 1 -10 -6 0 -7 -3 -10 -6 -6 -8 7 4
27 17 27 5 0 9 -5 9 -11z m623 -69 c-9 -11 -19 -17 -21 -15 -6 6 18 35 29 35
5 0 1 -9 -8 -20z m-233 -94 c0 -2 -7 -7 -16 -10 -8 -3 -12 -2 -9 4 6 10 25 14
25 6z m-963 -518 c-3 -7 -5 -2 -5 12 0 14 2 19 5 13 2 -7 2 -19 0 -25z m11
-184 c-3 -27 -4 -26 -9 8 -3 22 -1 34 4 29 5 -5 7 -21 5 -37z m-1 -66 c-3 -7
-5 -2 -5 12 0 14 2 19 5 13 2 -7 2 -19 0 -25z m11 -43 c-3 -3 -9 2 -12 12 -6
14 -5 15 5 6 7 -7 10 -15 7 -18z"/>
<path d="M2618 1885 c6 -12 24 -19 51 -20 36 -2 39 -1 24 10 -9 7 -23 11 -29
8 -7 -2 -22 1 -34 7 -19 10 -21 10 -12 -5z"/>
<path d="M2345 1900 c-3 -6 1 -7 9 -4 18 7 21 14 7 14 -6 0 -13 -4 -16 -10z"/>
<path d="M2149 1763 c-13 -16 -12 -17 4 -4 16 13 21 21 13 21 -2 0 -10 -8 -17
-17z"/>
<path d="M1666 1683 c-6 -14 -5 -15 5 -6 7 7 10 15 7 18 -3 3 -9 -2 -12 -12z"/>
<path d="M2065 1830 c-3 -5 -1 -10 4 -10 6 0 11 5 11 10 0 6 -2 10 -4 10 -3 0
-8 -4 -11 -10z"/>
</g>
</svg>
