<?xml version="1.0" standalone="no"?>
<!DOCTYPE svg PUBLIC "-//W3C//DTD SVG 20010904//EN"
 "http://www.w3.org/TR/2001/REC-SVG-20010904/DTD/svg10.dtd">
<svg version="1.0" xmlns="http://www.w3.org/2000/svg"
 width="450.000000pt" height="253.000000pt" viewBox="0 0 450.000000 253.000000"
 preserveAspectRatio="xMidYMid meet">
<metadata>
Created by potrace 1.16, written by Peter Selinger 2001-2019
</metadata>
<g transform="translate(0.000000,253.000000) scale(0.100000,-0.100000)"
fill="#000000" stroke="none">
<path d="M0 1265 l0 -1265 2250 0 2250 0 0 1265 0 1265 -2250 0 -2250 0 0
-1265z m3033 710 c46 -8 247 -84 279 -107 16 -11 31 -31 34 -46 4 -15 18 -49
31 -76 50 -99 40 -186 -28 -243 -16 -14 -29 -30 -29 -37 0 -17 -67 -79 -121
-113 -25 -15 -68 -43 -94 -60 -27 -18 -60 -34 -74 -34 -79 -4 -101 -3 -101 6
0 6 9 10 19 10 17 0 53 23 41 26 -38 7 -80 6 -85 -1 -3 -5 -17 -5 -34 1 -15 6
-32 9 -37 7 -17 -5 -123 54 -156 87 -59 59 -60 61 -37 87 11 13 18 18 15 12
-3 -7 5 -14 20 -17 18 -3 24 -1 20 8 -3 8 2 12 12 11 9 -2 17 -8 17 -14 0 -6
3 -14 7 -18 4 -3 6 3 3 14 -3 18 1 20 26 17 16 -2 27 0 24 5 -3 5 -12 7 -19 4
-8 -3 -17 0 -21 5 -3 6 -11 9 -16 6 -5 -4 -9 -1 -9 5 0 6 -5 8 -10 5 -6 -3
-13 1 -16 9 -3 9 -9 14 -13 12 -4 -3 -13 -1 -20 3 -9 6 -4 9 13 9 14 0 26 -4
26 -9 0 -5 8 -9 17 -9 26 0 -24 33 -56 36 -28 3 -44 26 -49 69 -1 17 -3 36 -4
43 -1 6 -5 12 -9 12 -11 0 -3 36 21 84 25 52 26 67 3 59 -11 -4 -2 12 21 40
21 26 51 50 69 56 66 21 124 34 177 41 53 6 74 6 143 -5z m-434 -70 c19 -19
-4 -31 -114 -59 -60 -15 -113 -33 -117 -39 -4 -7 -8 -22 -8 -34 0 -13 -8 -25
-22 -29 -34 -12 -88 -10 -88 2 0 12 -71 66 -78 59 -3 -2 3 -16 12 -29 9 -14
16 -33 16 -41 0 -22 -23 -13 -30 11 -9 33 -44 84 -57 84 -7 0 -13 5 -13 10 0
6 -4 10 -10 10 -20 0 -9 -32 20 -57 32 -26 38 -51 18 -72 -11 -10 -10 -14 5
-22 9 -6 17 -16 17 -24 0 -8 6 -12 13 -9 8 3 14 -1 14 -9 0 -18 -47 -14 -58 5
-7 11 -9 11 -9 0 0 -8 -6 -12 -12 -9 -7 2 -12 9 -11 15 2 6 -16 10 -45 9 -46
-2 -47 -3 -50 -36 -3 -29 -1 -33 14 -27 37 14 101 18 108 7 4 -6 4 -11 -1 -12
-79 -6 -94 -12 -76 -30 6 -6 9 -18 6 -25 -4 -12 0 -12 23 -4 22 9 26 9 17 -1
-6 -6 -30 -12 -52 -12 -43 -1 -56 -13 -20 -19 l21 -3 -21 -27 c-22 -28 -29
-50 -9 -30 34 34 26 -22 -13 -85 -20 -31 -24 -34 -34 -20 -7 9 -15 14 -18 11
-3 -3 -4 2 -2 13 4 18 13 126 14 171 1 13 4 21 9 19 4 -3 8 5 9 16 6 81 53
139 108 133 13 -2 23 2 22 8 -1 6 4 10 11 8 9 -2 11 2 5 10 -4 7 -6 20 -5 29
3 17 -25 31 -63 33 -11 1 -20 7 -19 14 1 6 2 21 3 32 2 30 30 40 74 25 32 -11
37 -11 37 2 0 9 -6 13 -15 9 -8 -3 -15 -1 -15 4 0 5 -8 7 -17 3 -13 -4 -15 -3
-8 5 16 17 58 20 287 18 130 -1 221 -5 227 -11z"/>
<path d="M2660 1879 c0 -5 5 -7 10 -4 6 3 10 8 10 11 0 2 -4 4 -10 4 -5 0 -10
-5 -10 -11z"/>
<path d="M2923 1526 c-3 -5 -1 -6 5 -2 5 3 13 0 15 -6 4 -10 6 -9 6 1 1 11 4
11 16 1 13 -11 14 -10 9 3 -6 17 -42 19 -51 3z"/>
<path d="M2987 1529 c7 -7 15 -10 18 -7 3 3 -2 9 -12 12 -14 6 -15 5 -6 -5z"/>
<path d="M2957 1473 c-12 -6 -26 -9 -31 -6 -5 4 -6 2 -3 -4 4 -6 40 -9 86 -8
66 3 79 1 74 -11 -4 -12 -8 -12 -21 -2 -13 11 -14 11 -7 -1 6 -11 4 -13 -9 -8
-9 4 -14 3 -11 -2 10 -16 -30 -17 -42 -1 -18 22 -15 -1 2 -24 14 -18 16 -18
33 -2 21 19 62 30 62 16 0 -4 8 -7 18 -5 9 1 22 -2 28 -6 13 -11 39 15 30 29
-3 5 6 10 19 10 26 0 60 21 50 30 -10 10 -44 9 -38 -1 4 -6 1 -7 -8 -1 -19 11
-40 14 -34 4 3 -4 -5 -10 -16 -13 -14 -4 -18 -10 -14 -19 6 -10 5 -11 -5 -1
-12 11 -11 15 4 26 16 12 7 13 -63 13 -45 -1 -92 -6 -104 -13z"/>
<path d="M2767 1469 c7 -7 15 -10 18 -7 3 3 -2 9 -12 12 -14 6 -15 5 -6 -5z"/>
<path d="M3020 1366 c0 -2 8 -10 18 -17 15 -13 16 -12 3 4 -13 16 -21 21 -21
13z"/>
</g>
</svg>
