<?xml version="1.0" standalone="no"?>
<!DOCTYPE svg PUBLIC "-//W3C//DTD SVG 20010904//EN"
 "http://www.w3.org/TR/2001/REC-SVG-20010904/DTD/svg10.dtd">
<svg version="1.0" xmlns="http://www.w3.org/2000/svg"
 width="450.000000pt" height="253.000000pt" viewBox="0 0 450.000000 253.000000"
 preserveAspectRatio="xMidYMid meet">
<metadata>
Created by potrace 1.16, written by Peter Selinger 2001-2019
</metadata>
<g transform="translate(0.000000,253.000000) scale(0.100000,-0.100000)"
fill="#000000" stroke="none">
<path d="M0 1265 l0 -1265 2250 0 2250 0 0 1265 0 1265 -2250 0 -2250 0 0
-1265z m3213 766 c162 -14 246 -39 286 -89 17 -20 31 -46 31 -58 0 -12 7 -27
16 -35 8 -7 22 -25 30 -40 10 -20 31 -34 74 -50 42 -15 72 -35 100 -65 42 -46
45 -54 31 -82 -5 -9 -14 -29 -21 -43 -12 -27 -75 -69 -103 -69 -8 0 -17 -5
-19 -11 -4 -12 -112 -59 -134 -59 -8 0 -20 -13 -28 -28 -13 -24 -13 -31 -1
-43 25 -26 73 -134 84 -189 13 -68 3 -116 -35 -164 -40 -49 -71 -61 -125 -45
-24 7 -47 12 -51 11 -4 -1 -18 2 -31 7 -13 5 -59 12 -103 16 -127 12 -165 20
-229 53 -50 25 -155 122 -167 154 -6 15 -2 15 38 -3 53 -22 119 -26 108 -6 -5
9 -4 9 6 0 20 -19 42 -5 29 19 -8 16 -8 19 1 13 8 -5 11 -3 8 6 -3 8 -19 14
-41 14 -19 0 -39 4 -43 8 -14 14 -26 7 -14 -8 11 -13 2 -14 -67 -11 -45 2 -92
10 -109 19 -58 30 -116 116 -127 188 -3 19 -13 53 -21 76 -9 24 -13 57 -10 80
3 21 7 60 9 87 3 27 12 60 20 72 8 13 14 26 13 28 -2 2 5 13 16 24 10 12 16
25 15 30 -6 15 -191 -26 -205 -46 -7 -9 -19 -25 -26 -35 -8 -11 -33 -22 -56
-27 -33 -6 -42 -4 -45 9 -5 19 -11 -42 -8 -81 3 -33 -13 -36 -48 -11 -14 9
-22 12 -18 6 3 -5 -13 0 -36 11 -47 23 -45 36 9 57 23 8 25 12 14 19 -10 7
-11 10 -2 10 18 0 15 21 -5 35 -11 8 -24 10 -34 5 -11 -7 -16 -4 -16 8 0 9 4
22 9 29 5 7 7 16 4 22 -4 5 8 20 26 33 32 22 40 23 218 22 116 0 198 -5 219
-12 l34 -12 -19 21 c-19 21 -18 21 17 53 42 39 131 64 253 72 44 3 82 6 83 8
7 7 87 5 196 -3z m-1015 -410 c35 13 73 4 65 -17 -3 -8 -11 -13 -17 -11 -6 2
-20 1 -31 -3 -18 -6 -17 -8 10 -22 17 -8 36 -13 44 -10 8 3 11 0 7 -7 -7 -10
-82 -28 -99 -23 -5 1 -6 -2 -2 -8 3 -6 11 -7 17 -4 13 8 2 -13 -20 -39 -14
-16 -14 -17 1 -11 9 3 17 10 17 15 0 5 5 9 10 9 12 0 2 -53 -11 -58 -4 -2 -5
-10 -2 -19 5 -12 3 -14 -7 -8 -10 6 -12 4 -7 -8 3 -9 -1 -18 -10 -21 -11 -5
-12 -10 -5 -19 8 -10 5 -13 -13 -15 -27 -2 -27 -3 1 154 8 44 15 96 15 115 1
19 3 26 6 17 3 -14 9 -15 31 -7z m40 -203 c-6 -18 -13 -27 -15 -21 -4 11 13
53 22 53 2 0 -1 -15 -7 -32z m-11 -630 c-3 -8 -6 -5 -6 6 -1 11 2 17 5 13 3
-3 4 -12 1 -19z m1 -89 c1 -37 -5 -35 -12 4 -2 15 -1 27 3 27 4 0 8 -14 9 -31z
m-1 -114 c0 -8 -4 -12 -9 -9 -5 3 -6 10 -3 15 9 13 12 11 12 -6z"/>
<path d="M3418 1903 c7 -3 16 -2 19 1 4 3 -2 6 -13 5 -11 0 -14 -3 -6 -6z"/>
<path d="M3150 1889 c0 -6 9 -24 21 -40 11 -16 18 -33 15 -37 -8 -13 18 -45
38 -48 16 -2 16 0 3 19 -9 12 -21 21 -27 19 -6 -1 -9 2 -5 8 3 6 12 7 18 3 7
-4 17 -8 22 -8 6 -1 9 -7 7 -15 -2 -10 0 -11 10 -3 10 8 18 8 32 -2 12 -9 25
-11 41 -5 13 5 26 6 29 3 3 -4 6 -3 6 1 0 4 -20 16 -44 27 -25 11 -48 28 -51
40 -4 11 -9 18 -13 15 -3 -3 -14 2 -25 11 -15 13 -18 14 -12 3 8 -13 6 -13 -8
-1 -9 7 -24 11 -32 7 -9 -3 -13 -2 -10 4 3 6 1 10 -4 10 -6 0 -11 -5 -11 -11z"/>
<path d="M2259 1772 c7 -12 9 -32 5 -44 -6 -19 8 -37 28 -38 14 0 -5 65 -24
85 -20 20 -20 20 -9 -3z"/>
<path d="M3381 1748 c-1 -15 -6 -30 -13 -34 -7 -4 -8 -3 -4 4 9 16 -19 16 -47
0 -34 -18 -47 -40 -34 -56 9 -11 13 -11 24 4 7 9 11 20 9 23 -2 3 9 7 25 8 16
1 29 1 29 -1 0 -2 -16 -21 -35 -42 -19 -21 -35 -46 -35 -56 0 -10 -1 -21 -2
-25 -2 -3 7 -7 20 -8 12 -1 22 2 22 7 0 5 5 6 11 2 24 -14 28 21 6 46 -12 14
-18 22 -13 18 5 -4 15 0 23 10 8 9 11 11 8 4 -6 -11 -3 -12 12 -3 11 6 24 7
28 3 3 -4 6 -2 5 3 -5 21 1 29 10 15 6 -9 10 -10 10 -3 0 6 -4 15 -10 18 -5 3
-10 11 -10 16 0 6 4 7 10 4 5 -3 7 0 4 9 -3 8 -14 13 -25 11 -11 -2 -18 -1
-16 3 3 4 1 16 -4 27 -7 18 -8 17 -8 -7z m33 -57 c3 -5 -1 -14 -8 -20 -12 -10
-13 -8 -9 8 6 23 9 25 17 12z"/>
<path d="M3173 1721 l-31 -29 26 -7 c60 -15 61 -15 55 13 -3 15 -6 33 -6 40
-1 18 -8 15 -44 -17z"/>
<path d="M2208 1703 c7 -3 16 -2 19 1 4 3 -2 6 -13 5 -11 0 -14 -3 -6 -6z"/>
<path d="M3045 1633 c-11 -3 -28 -11 -37 -17 -16 -11 -16 -14 -2 -35 13 -17
19 -19 30 -10 7 6 12 14 10 18 -3 4 7 8 22 9 35 3 52 20 32 32 -16 10 -23 11
-55 3z"/>
<path d="M3096 1575 c-17 -13 -15 -16 9 -15 3 1 12 -6 20 -14 8 -8 24 -12 35
-9 26 7 15 20 -20 25 -14 2 -24 9 -22 16 3 15 2 15 -22 -3z"/>
<path d="M3250 1574 c0 -8 5 -12 10 -9 6 3 10 10 10 16 0 5 -4 9 -10 9 -5 0
-10 -7 -10 -16z"/>
<path d="M3290 1530 c0 -5 5 -10 11 -10 5 0 7 5 4 10 -3 6 -8 10 -11 10 -2 0
-4 -4 -4 -10z"/>
<path d="M3060 1490 c-6 -12 -9 -25 -5 -28 9 -9 40 13 40 28 0 23 -23 22 -35
0z"/>
<path d="M3085 1450 c-8 -13 45 -13 65 0 11 7 6 10 -22 10 -20 0 -40 -4 -43
-10z"/>
<path d="M3242 1400 c0 -14 2 -19 5 -12 2 6 2 18 0 25 -3 6 -5 1 -5 -13z"/>
<path d="M3109 1361 c19 -17 20 -22 8 -27 -8 -3 -23 -4 -32 -2 -9 2 -24 -7
-32 -18 -13 -21 -12 -22 33 -38 26 -9 44 -13 41 -10 -10 11 20 34 45 34 22 1
21 3 -12 31 -19 17 -44 35 -55 40 -16 8 -15 6 4 -10z"/>
<path d="M3266 1355 c-8 -22 3 -40 16 -27 7 7 7 16 1 27 -9 16 -10 16 -17 0z"/>
<path d="M3300 1326 c0 -9 5 -16 10 -16 6 0 10 4 10 9 0 6 -4 13 -10 16 -5 3
-10 -1 -10 -9z"/>
<path d="M2966 1315 c-9 -26 -7 -32 5 -12 6 10 9 21 6 23 -2 3 -7 -2 -11 -11z"/>
<path d="M3250 1276 c0 -27 15 -42 25 -26 8 13 -3 50 -16 50 -5 0 -9 -11 -9
-24z"/>
<path d="M3065 1247 c22 -13 36 -15 49 -9 13 7 -17 22 -44 22 -24 -1 -24 -1
-5 -13z"/>
<path d="M3019 1180 c-21 -5 -18 -7 16 -13 54 -9 75 -9 75 2 0 11 -59 18 -91
11z"/>
<path d="M3131 1181 c-8 -5 -9 -11 -3 -15 5 -3 12 1 16 9 6 17 6 18 -13 6z"/>
</g>
</svg>
