<?xml version="1.0" standalone="no"?>
<!DOCTYPE svg PUBLIC "-//W3C//DTD SVG 20010904//EN"
 "http://www.w3.org/TR/2001/REC-SVG-20010904/DTD/svg10.dtd">
<svg version="1.0" xmlns="http://www.w3.org/2000/svg"
 width="450.000000pt" height="253.000000pt" viewBox="0 0 450.000000 253.000000"
 preserveAspectRatio="xMidYMid meet">
<metadata>
Created by potrace 1.16, written by Peter Selinger 2001-2019
</metadata>
<g transform="translate(0.000000,253.000000) scale(0.100000,-0.100000)"
fill="#000000" stroke="none">
<path d="M0 1265 l0 -1265 2250 0 2250 0 0 1265 0 1265 -2250 0 -2250 0 0
-1265z m2615 646 c17 -4 29 -12 28 -18 -1 -6 4 -17 12 -23 11 -9 15 -9 15 -1
0 6 -5 11 -11 11 -5 0 -8 4 -4 9 6 11 63 -3 78 -18 5 -5 16 -7 23 -4 8 3 14 0
14 -6 0 -6 7 -11 15 -11 8 0 15 -6 15 -12 0 -9 4 -8 10 2 8 13 10 12 10 -3 0
-10 5 -15 10 -12 17 10 50 -5 51 -23 0 -10 3 -12 6 -5 3 10 7 10 18 0 7 -7 11
-15 9 -18 -1 -3 7 -5 19 -5 13 1 21 -4 19 -12 -1 -8 1 -11 6 -8 13 8 55 -40
49 -56 -3 -8 -9 -2 -16 15 -10 26 -31 38 -31 17 0 -5 -13 -8 -29 -7 -16 1 -27
6 -23 11 3 5 -15 6 -42 3 -34 -5 -45 -4 -40 5 5 7 3 8 -6 3 -7 -4 -16 -2 -21
6 -6 10 -9 10 -9 2 0 -8 -7 -10 -19 -5 -30 11 -73 51 -66 62 4 6 -1 7 -11 3
-13 -5 -15 -3 -9 8 6 11 5 12 -5 2 -12 -11 -10 -18 8 -42 17 -24 19 -30 7 -35
-8 -3 -21 4 -28 14 -8 11 -17 17 -21 13 -9 -9 -33 -13 -81 -14 l-40 -1 30 -10
c38 -13 39 -14 30 -28 -6 -9 -10 -9 -16 1 -7 11 -9 11 -9 -1 0 -13 -1 -13 -10
0 -9 13 -10 13 -10 0 0 -13 -1 -13 -10 0 -7 11 -10 11 -10 2 0 -8 -5 -10 -12
-5 -18 11 -49 11 -70 1 -23 -11 -23 -1 2 39 19 32 19 32 0 38 -11 4 -20 9 -20
13 1 13 27 42 39 42 6 0 11 7 11 16 0 8 5 12 11 9 19 -12 99 -11 99 2 0 6 6
14 13 17 6 3 2 3 -10 1 -12 -3 -24 -2 -26 2 -3 5 -31 10 -63 11 -32 1 -60 5
-63 7 -7 7 150 4 184 -4z m-591 -35 c3 2 4 1 1 -2 -9 -14 26 -34 59 -34 20 0
36 -4 36 -10 0 -5 -7 -10 -15 -10 -8 0 -15 -3 -15 -7 0 -5 -21 -9 -46 -11 -28
-1 -43 2 -39 8 3 5 13 10 21 10 48 0 -47 48 -103 51 -10 1 -4 4 12 8 17 4 42
4 57 0 14 -4 29 -5 32 -3z m374 2 c20 -20 14 -33 -33 -67 -25 -18 -45 -29 -45
-25 0 4 -11 -3 -25 -16 -14 -13 -25 -20 -25 -16 0 4 -16 -9 -37 -29 -36 -35
-79 -52 -53 -20 10 13 9 15 -9 15 -12 0 -20 4 -17 9 3 4 -6 6 -19 3 -15 -2
-25 0 -25 7 0 6 -9 11 -21 11 -11 0 -27 6 -35 14 -12 12 -9 16 16 25 17 5 30
7 30 4 0 -3 7 1 16 8 10 8 46 15 87 16 70 3 97 14 97 39 0 8 8 15 18 16 9 0
-3 4 -28 8 -42 7 -40 7 26 8 43 1 75 -3 82 -10z m-575 -15 c-15 -6 -17 -33 -3
-33 5 0 7 -7 3 -16 -5 -14 -2 -16 20 -10 14 3 28 2 31 -3 3 -5 -10 -8 -30 -7
-29 1 -41 -5 -60 -27 -13 -16 -24 -33 -24 -38 0 -11 -45 -31 -74 -33 -20 -1
-36 -26 -17 -26 6 0 11 5 11 11 0 5 5 7 10 4 8 -5 7 -11 -1 -21 -9 -11 -8 -14
2 -15 8 0 4 -5 -8 -11 -13 -6 -24 -17 -24 -25 -1 -7 -2 -18 -3 -24 0 -6 -10
-17 -20 -25 -11 -8 -17 -14 -13 -14 5 0 2 -6 -5 -14 -8 -8 -15 -10 -19 -4 -4
5 -9 -2 -13 -16 -3 -14 -11 -26 -17 -26 -6 0 -7 9 -3 23 4 12 10 36 14 53 23
98 191 307 245 303 6 0 4 -3 -2 -6z m407 -9 c0 -8 -19 -13 -24 -6 -3 5 1 9 9
9 8 0 15 -2 15 -3z m-360 -14 c0 -5 -4 -10 -10 -10 -5 0 -10 5 -10 10 0 6 5
10 10 10 6 0 10 -4 10 -10z m317 4 c-3 -3 -12 -4 -19 -1 -8 3 -5 6 6 6 11 1
17 -2 13 -5z m80 -141 c-9 -9 -20 -13 -24 -9 -4 4 -1 11 7 16 25 16 35 11 17
-7z m-177 -67 c0 -2 -7 -7 -16 -10 -8 -3 -12 -2 -9 4 6 10 25 14 25 6z m-380
-74 c0 -4 -6 -14 -12 -21 -9 -8 -9 -11 -1 -9 6 2 13 -1 15 -7 1 -5 -11 -11
-28 -13 -22 -2 -34 -9 -37 -23 -6 -22 13 -25 43 -7 10 7 21 10 24 7 8 -7 -16
-129 -25 -129 -11 0 -21 38 -14 50 3 5 4 10 0 10 -3 0 -9 -10 -14 -23 -5 -13
-16 -24 -25 -24 -8 0 -14 3 -12 6 2 3 -3 13 -12 21 -14 13 -15 12 -9 -3 3 -9
2 -17 -3 -17 -10 0 -13 14 -13 52 0 10 -3 15 -7 13 -4 -3 -10 3 -13 14 -3 13
5 23 29 36 18 9 45 30 60 46 26 28 54 38 54 21z m9 -634 c0 -31 -3 -37 -8 -24
-7 18 -3 66 5 66 2 0 4 -19 3 -42z m6 -117 c3 -5 2 -12 -3 -15 -5 -3 -9 1 -9
9 0 17 3 19 12 6z"/>
<path d="M1615 1609 c-4 -6 -4 -13 -1 -16 3 -4 6 -1 6 5 0 6 7 9 15 6 8 -4 15
-1 15 5 0 14 -27 14 -35 0z"/>
</g>
</svg>
