<?xml version="1.0" standalone="no"?>
<!DOCTYPE svg PUBLIC "-//W3C//DTD SVG 20010904//EN"
 "http://www.w3.org/TR/2001/REC-SVG-20010904/DTD/svg10.dtd">
<svg version="1.0" xmlns="http://www.w3.org/2000/svg"
 width="450.000000pt" height="253.000000pt" viewBox="0 0 450.000000 253.000000"
 preserveAspectRatio="xMidYMid meet">
<metadata>
Created by potrace 1.16, written by Peter Selinger 2001-2019
</metadata>
<g transform="translate(0.000000,253.000000) scale(0.100000,-0.100000)"
fill="#000000" stroke="none">
<path d="M0 1265 l0 -1265 2250 0 2250 0 0 1265 0 1265 -797 0 c-758 -1 -796
-2 -767 -18 48 -26 114 -90 114 -109 0 -10 10 -34 22 -53 23 -38 38 -102 43
-195 6 -94 10 -103 45 -101 16 1 30 -1 30 -5 0 -4 13 -10 29 -14 22 -5 35 -1
50 14 10 10 17 21 15 24 -5 4 0 5 96 7 41 0 89 -3 107 -9 17 -5 35 -6 39 -3 4
4 4 2 1 -4 -3 -6 14 -19 41 -30 109 -45 202 -112 202 -145 0 -11 6 -22 13 -25
17 -6 11 -107 -9 -145 -14 -29 -165 -183 -218 -224 -19 -15 -76 -39 -126 -54
l-90 -27 31 -29 c39 -38 63 -78 83 -137 21 -63 46 -222 39 -250 -6 -22 -65
-88 -79 -88 -4 0 -15 -6 -23 -14 -22 -20 -123 -43 -218 -51 -134 -12 -353 31
-455 87 -55 31 -65 22 -73 -69 -9 -113 -15 -122 -11 -19 2 76 1 86 -11 70 -7
-11 -31 -38 -53 -61 -22 -23 -40 -51 -40 -63 0 -24 -94 -123 -150 -157 -61
-37 -160 -66 -208 -59 -93 13 -160 69 -196 165 -14 36 -31 80 -37 96 -17 42
-16 35 -18 145 -1 78 -4 100 -15 100 -21 0 -27 28 -9 39 20 11 10 14 -87 31
-109 20 -191 54 -276 115 -39 28 -77 77 -79 100 -1 6 -6 20 -13 33 -7 12 -10
22 -7 22 3 0 -2 14 -11 32 -38 74 12 177 129 262 34 25 73 54 87 65 l25 19
-62 60 c-35 32 -63 62 -63 66 0 4 -11 22 -24 39 -41 55 -76 159 -76 226 0 33
4 63 10 66 5 3 10 14 10 23 0 10 15 25 33 34 111 57 380 52 499 -8 21 -11 73
-13 73 -4 0 1 24 3 53 3 28 1 52 -1 52 -5 0 -4 10 -5 22 -3 22 5 85 73 80 88
-1 5 1 6 6 3 4 -3 28 13 53 35 24 21 52 42 61 45 10 3 18 9 18 14 0 8 49 29
84 37 11 2 22 6 25 8 2 3 -563 5 -1257 5 l-1262 0 0 -1265z m2535 -565 c-1
-11 -4 -22 -7 -25 -4 -5 -4 34 1 43 4 8 7 -1 6 -18z m92 -82 c-3 -8 -6 -5 -6
6 -1 11 2 17 5 13 3 -3 4 -12 1 -19z m-10 -105 c-3 -10 -5 -2 -5 17 0 19 2 27
5 18 2 -10 2 -26 0 -35z"/>
<path d="M2271 2032 c-5 -9 -12 -16 -15 -14 -3 1 -11 2 -18 2 -9 0 -9 -3 0
-12 14 -14 45 -20 37 -7 -4 5 -1 17 5 26 10 16 11 16 6 1 -2 -9 3 -22 12 -30
13 -11 15 -11 7 2 -8 13 -7 13 8 1 15 -12 17 -11 17 6 0 11 -11 25 -25 31 -20
9 -26 8 -34 -6z"/>
<path d="M2383 2005 c0 -8 4 -15 9 -15 4 0 8 4 8 9 0 6 -4 12 -8 15 -5 3 -9
-1 -9 -9z"/>
<path d="M2686 1897 c3 -10 9 -15 12 -12 3 3 0 11 -7 18 -10 9 -11 8 -5 -6z"/>
<path d="M2446 1853 c6 -4 14 -15 17 -23 5 -11 6 -9 4 4 -1 11 -9 21 -17 23
-10 3 -11 2 -4 -4z"/>
<path d="M2429 1773 c-1 -5 -1 -11 0 -15 0 -4 -6 -5 -14 -2 -9 4 -15 0 -16 -7
-1 -8 -3 -31 -4 -53 -4 -48 33 -113 70 -122 31 -8 55 -34 32 -34 -11 0 -16 -9
-15 -27 1 -16 -2 -36 -6 -45 -7 -15 -2 -16 46 -13 29 3 55 10 56 15 2 6 8 8
13 4 18 -11 29 7 14 22 -20 21 -19 31 5 46 23 14 26 26 8 25 -51 -5 -101 18
-148 66 -54 55 -62 81 -29 90 18 5 19 8 9 27 -8 15 -8 20 -1 16 6 -4 11 -2 11
3 0 12 -29 15 -31 4z m88 -309 c-3 -3 -12 -4 -19 -1 -8 3 -5 6 6 6 11 1 17 -2
13 -5z"/>
<path d="M2336 1708 c3 -4 9 -8 15 -8 5 0 9 4 9 8 0 5 -7 9 -15 9 -8 0 -12 -4
-9 -9z"/>
<path d="M2178 1678 c-7 -19 28 -47 51 -41 23 6 29 23 7 23 -7 0 -19 7 -26 15
-15 18 -27 19 -32 3z"/>
<path d="M1762 1653 c-26 -12 -32 -21 -30 -42 2 -14 -2 -26 -9 -26 -19 0 -24
-12 -5 -12 9 0 23 7 30 16 11 14 11 14 5 -3 -4 -13 -3 -17 5 -12 18 11 25 -14
8 -33 -24 -26 -20 -31 25 -31 28 0 39 4 36 13 -2 6 2 17 9 22 14 11 27 108 14
100 -5 -3 -10 -1 -12 5 -6 18 -43 19 -76 3z"/>
<path d="M2676 1655 c-11 -8 -16 -15 -10 -15 5 0 1 -5 -8 -11 -16 -9 -27 -69
-13 -69 20 0 55 27 55 42 0 10 7 30 16 43 17 26 7 34 -15 13 -11 -10 -13 -10
-7 0 9 15 6 15 -18 -3z"/>
<path d="M1505 1622 c-17 -12 -16 -34 2 -48 10 -8 14 -14 8 -13 -24 5 -42 -13
-37 -37 3 -15 -2 -32 -12 -43 -13 -14 -14 -21 -5 -27 8 -4 10 -3 5 4 -4 7 -4
12 1 12 10 0 58 77 67 106 7 23 -14 57 -29 46z"/>
<path d="M2384 1562 c2 -4 1 -14 -5 -22 -7 -13 -9 -13 -9 -1 0 11 -3 10 -13
-3 -12 -17 -14 -17 -28 1 -13 16 -13 17 4 4 15 -12 17 -11 17 3 0 9 -8 16 -20
16 -21 0 -27 -15 -9 -25 6 -4 8 -13 5 -20 -7 -19 47 -24 88 -7 20 8 36 17 36
21 0 4 -16 15 -36 24 -19 10 -33 14 -30 9z"/>
<path d="M2150 1435 c-7 -8 -23 -15 -36 -15 -35 0 -36 -15 -1 -17 21 -2 38 5
55 22 18 18 21 25 10 25 -9 0 -21 -7 -28 -15z"/>
<path d="M2343 1431 c-30 -25 -29 -38 1 -43 18 -4 31 2 46 19 36 41 -3 60 -47
24z"/>
<path d="M1911 1418 c8 -7 13 -12 11 -11 -10 5 -43 -37 -37 -46 10 -17 25 -13
19 4 -5 11 -2 13 10 9 12 -5 19 0 23 15 3 13 11 20 19 17 7 -3 16 0 20 6 4 6
3 8 -4 4 -6 -3 -13 -2 -17 4 -3 5 -18 10 -33 10 -22 0 -24 -2 -11 -12z"/>
<path d="M2226 1381 c-3 -5 1 -11 9 -15 8 -3 15 -1 15 4 0 13 -18 22 -24 11z"/>
<path d="M2340 1343 c-9 -2 -21 -17 -27 -33 -12 -32 -3 -40 47 -40 33 0 45 22
28 50 -14 22 -26 28 -48 23z"/>
<path d="M2537 1297 c-3 -8 1 -14 8 -14 7 0 11 6 8 14 -3 7 -6 13 -8 13 -2 0
-5 -6 -8 -13z"/>
<path d="M2440 1282 c0 -5 7 -9 15 -9 8 0 12 4 9 9 -3 4 -9 8 -15 8 -5 0 -9
-4 -9 -8z"/>
<path d="M2255 1260 c3 -5 10 -10 16 -10 5 0 9 5 9 10 0 6 -7 10 -16 10 -8 0
-12 -4 -9 -10z"/>
<path d="M3305 1204 c-11 -8 -19 -17 -17 -19 7 -14 0 -35 -12 -35 -11 0 -13
-7 -6 -30 15 -53 89 -129 98 -102 2 7 7 10 12 7 15 -9 3 60 -18 105 -14 30
-17 49 -11 57 17 20 -22 34 -46 17z"/>
<path d="M2251 1204 c-1 -6 -16 -17 -33 -25 -18 -7 -34 -13 -36 -14 -6 -5 11
-35 20 -35 6 0 7 7 4 16 -3 8 -2 12 4 9 6 -3 10 -1 10 6 0 7 3 10 6 6 10 -9
36 22 31 36 -4 8 -6 8 -6 1z"/>
<path d="M2592 1168 c-9 -26 -9 -30 1 -17 7 9 20 15 29 13 15 -2 16 1 8 17
-15 27 -24 24 -38 -13z"/>
<path d="M2500 1175 c-7 -8 -18 -15 -26 -15 -7 0 -16 -5 -19 -10 -9 -15 4 -50
18 -45 7 3 25 7 41 9 16 3 31 8 35 12 3 4 -1 5 -10 2 -28 -10 -41 6 -30 35 12
30 9 34 -9 12z"/>
<path d="M2848 1173 c7 -3 16 -2 19 1 4 3 -2 6 -13 5 -11 0 -14 -3 -6 -6z"/>
<path d="M2704 1155 c11 -8 22 -12 25 -9 6 6 -19 24 -34 24 -5 -1 -1 -7 9 -15z"/>
<path d="M2430 1100 c-9 -6 -10 -10 -3 -10 6 0 15 5 18 10 8 12 4 12 -15 0z"/>
<path d="M3100 1101 c0 -10 30 -24 37 -17 3 2 -5 9 -16 16 -12 6 -21 7 -21 1z"/>
<path d="M2218 1056 c-10 -7 -15 -15 -12 -18 10 -10 44 4 44 18 0 17 -10 17
-32 0z"/>
<path d="M3188 1040 c42 -26 56 -26 17 0 -16 11 -34 20 -40 20 -5 0 5 -9 23
-20z"/>
</g>
</svg>
