<?xml version="1.0" standalone="no"?>
<!DOCTYPE svg PUBLIC "-//W3C//DTD SVG 20010904//EN"
 "http://www.w3.org/TR/2001/REC-SVG-20010904/DTD/svg10.dtd">
<svg version="1.0" xmlns="http://www.w3.org/2000/svg"
 width="450.000000pt" height="253.000000pt" viewBox="0 0 450.000000 253.000000"
 preserveAspectRatio="xMidYMid meet">
<metadata>
Created by potrace 1.16, written by Peter Selinger 2001-2019
</metadata>
<g transform="translate(0.000000,253.000000) scale(0.100000,-0.100000)"
fill="#000000" stroke="none">
<path d="M0 1265 l0 -1265 2250 0 2250 0 0 1265 0 1265 -2250 0 -2250 0 0
-1265z m2648 616 c22 -1 31 -5 26 -13 -4 -7 -3 -8 5 -4 16 10 101 -15 94 -28
-4 -5 -1 -6 6 -1 7 4 23 3 34 -2 116 -52 168 -81 180 -100 4 -7 14 -13 20 -13
19 0 79 -59 72 -70 -4 -6 -1 -9 7 -8 20 4 10 -53 -13 -77 -10 -11 -19 -14 -19
-8 0 6 7 13 15 17 8 3 15 13 15 23 0 16 -12 18 -105 20 -80 2 -104 -1 -98 -10
5 -9 3 -9 -8 0 -9 7 -40 12 -70 12 -74 -2 -79 -1 -73 14 5 15 -5 17 -86 16
-30 -1 -66 -1 -80 -1 -59 -1 -87 3 -104 15 -16 11 -16 15 -2 49 14 33 14 38 0
52 -8 9 -20 16 -25 16 -5 0 -9 9 -9 20 0 11 7 20 15 20 8 0 15 7 15 16 0 8 -4
12 -10 9 -5 -3 -10 -1 -10 4 0 6 7 11 15 11 8 0 15 4 15 9 0 12 32 17 95 14
28 -1 65 -2 83 -2z m-562 -10 c-58 -7 -75 -30 -24 -32 47 -2 71 2 84 12 5 4
45 6 87 4 57 -3 75 0 70 8 -4 8 -1 7 9 -1 11 -9 18 -10 23 -2 3 6 12 7 18 3 7
-4 19 -8 27 -8 56 -5 55 -3 28 -28 -14 -13 -40 -29 -59 -36 -19 -7 -46 -19
-61 -27 -16 -9 -28 -12 -28 -9 0 3 -5 3 -12 -1 -8 -5 -7 -10 4 -18 24 -17 5
-56 -27 -56 -15 0 -24 4 -20 10 3 6 2 10 -4 10 -5 0 -13 -4 -16 -10 -3 -5 -15
-10 -25 -10 -14 0 -18 5 -13 17 5 12 2 15 -10 10 -9 -3 -17 -2 -17 4 0 6 -5 9
-12 7 -6 -2 -22 6 -35 18 -14 13 -31 20 -39 17 -8 -3 -14 0 -14 6 0 7 7 14 15
17 18 7 20 25 3 19 -29 -10 -68 -13 -68 -5 0 5 7 16 16 25 9 9 13 19 9 23 -4
4 -10 1 -12 -5 -7 -19 -20 -16 -26 7 -3 11 -13 20 -24 20 -10 0 -25 5 -33 10
-10 7 26 9 110 8 81 -1 108 -3 76 -7z m132 2 c-16 -2 -40 -2 -55 0 -16 2 -3 4
27 4 30 0 43 -2 28 -4z m-388 -12 c0 -5 10 -12 23 -16 12 -3 17 -8 11 -11 -6
-3 -9 -15 -7 -28 4 -21 2 -23 -21 -19 -25 5 -25 6 -9 20 17 14 17 14 0 9 -10
-3 -23 -6 -28 -6 -6 0 -7 -4 -4 -10 3 -5 2 -10 -4 -10 -6 0 -21 -18 -33 -40
-13 -22 -30 -42 -39 -45 -9 -3 -19 -15 -22 -26 -5 -19 -2 -21 21 -16 15 3 45
8 67 12 35 5 37 5 20 -7 -11 -7 -24 -13 -30 -13 -49 -3 -124 -20 -140 -31 -19
-14 -19 -14 3 -14 13 0 20 4 17 10 -3 6 1 7 10 4 11 -5 13 -10 5 -19 -5 -6 -7
-15 -3 -18 3 -4 2 -7 -4 -7 -14 0 -83 -66 -83 -79 0 -20 18 -11 52 24 37 40
104 79 113 66 2 -5 -5 -11 -17 -15 -17 -4 -20 -8 -11 -17 18 -18 4 -39 -26
-39 -14 0 -31 -8 -37 -18 -10 -16 -8 -18 27 -17 21 0 39 5 39 10 0 6 4 3 9 -5
6 -8 7 -19 3 -24 -6 -11 -10 -31 -15 -76 -1 -14 -8 -25 -17 -25 -8 0 -21 -4
-29 -9 -10 -7 -12 -6 -6 4 6 10 3 12 -13 8 -16 -4 -22 -2 -22 9 0 13 -3 13
-15 3 -16 -13 -45 -7 -45 10 0 6 5 8 10 5 6 -4 10 9 9 32 l-1 38 -9 -30 c-6
-21 -7 -8 -5 46 2 59 9 88 32 135 16 32 34 58 39 57 16 -2 45 17 45 29 0 6 -9
3 -20 -7 -32 -29 -23 -2 15 48 34 45 71 74 88 69 5 -1 6 2 2 7 -3 6 3 19 15
31 21 21 40 26 40 11z m-30 -345 c0 -3 -4 -8 -10 -11 -5 -3 -10 -1 -10 4 0 6
5 11 10 11 6 0 10 -2 10 -4z"/>
<path d="M2473 1857 c-9 -15 6 -20 21 -8 11 9 16 9 21 0 6 -8 10 -7 16 2 7 12
9 12 9 0 0 -10 3 -11 13 -2 8 6 16 8 19 6 10 -10 49 -14 43 -4 -4 5 -11 7 -16
4 -5 -4 -9 -1 -9 5 0 12 -109 10 -117 -3z"/>
<path d="M2658 1703 c7 -3 16 -2 19 1 4 3 -2 6 -13 5 -11 0 -14 -3 -6 -6z"/>
<path d="M2690 1698 c0 -4 3 -8 8 -9 16 -1 39 -8 81 -23 57 -21 64 -20 49 4
-7 11 -19 18 -26 15 -7 -3 -10 -1 -7 4 3 5 1 12 -5 16 -5 3 -10 2 -10 -3 0 -5
-20 -6 -45 -2 -25 4 -45 3 -45 -2z"/>
<path d="M2171 1831 c-7 -5 -23 -6 -35 -3 -11 3 -17 1 -13 -3 17 -19 122 -26
144 -10 15 11 13 13 -20 11 -21 -1 -41 2 -43 6 -7 10 -16 10 -33 -1z"/>
<path d="M2290 1820 c0 -5 5 -10 11 -10 5 0 7 5 4 10 -3 6 -8 10 -11 10 -2 0
-4 -4 -4 -10z"/>
<path d="M1810 1840 c0 -5 5 -10 11 -10 5 0 7 5 4 10 -3 6 -8 10 -11 10 -2 0
-4 -4 -4 -10z"/>
<path d="M1672 1425 c-23 -33 -26 -42 -12 -33 11 7 20 16 20 21 0 4 4 6 9 3 7
-5 24 44 17 51 -1 2 -17 -17 -34 -42z"/>
</g>
</svg>
