<?xml version="1.0" standalone="no"?>
<!DOCTYPE svg PUBLIC "-//W3C//DTD SVG 20010904//EN"
 "http://www.w3.org/TR/2001/REC-SVG-20010904/DTD/svg10.dtd">
<svg version="1.0" xmlns="http://www.w3.org/2000/svg"
 width="450.000000pt" height="253.000000pt" viewBox="0 0 450.000000 253.000000"
 preserveAspectRatio="xMidYMid meet">
<metadata>
Created by potrace 1.16, written by Peter Selinger 2001-2019
</metadata>
<g transform="translate(0.000000,253.000000) scale(0.100000,-0.100000)"
fill="#000000" stroke="none">
<path d="M0 1265 l0 -1265 2250 0 2250 0 0 1265 0 1265 -2250 0 -2250 0 0
-1265z m3052 709 c39 -9 93 -26 122 -38 28 -12 70 -28 92 -35 56 -18 92 -50
97 -86 3 -16 14 -59 26 -94 35 -105 25 -164 -38 -229 -17 -18 -36 -44 -41 -57
-5 -14 -39 -44 -77 -69 -38 -24 -79 -55 -93 -68 -43 -41 -120 -64 -120 -35 0
8 -4 7 -10 -3 -8 -13 -10 -12 -11 5 -1 11 -1 22 -1 25 0 3 -39 6 -88 7 -65 2
-98 7 -121 20 -17 10 -43 24 -58 32 -60 32 -132 123 -108 138 7 4 18 8 26 10
7 1 19 7 25 14 8 9 8 10 -1 5 -11 -6 -53 42 -53 62 0 6 -5 12 -12 14 -16 6
-21 143 -7 186 6 18 14 30 19 27 4 -3 10 6 12 19 4 19 1 23 -11 19 -13 -4 -13
-2 1 9 10 8 22 27 28 42 12 32 48 49 162 75 104 24 151 25 240 5z m-584 -54
c50 0 92 -4 92 -9 0 -5 8 -7 19 -4 22 6 38 -14 23 -29 -5 -5 -47 -18 -93 -28
-95 -21 -140 -36 -138 -47 5 -36 -43 -79 -76 -67 -8 4 -22 1 -30 -6 -12 -10
-15 -9 -15 6 0 11 -16 32 -35 47 -37 30 -42 27 -21 -12 14 -25 11 -51 -5 -51
-5 0 -9 8 -9 19 0 10 -13 35 -30 56 -16 21 -30 34 -30 30 0 -4 -8 -1 -17 6
-16 13 -17 12 -4 -3 7 -10 10 -25 7 -34 -6 -15 -8 -15 -25 0 -13 12 -21 14
-26 6 -11 -17 -25 -1 -25 30 0 33 31 60 61 53 14 -4 18 -1 13 10 -4 12 6 16
58 21 85 8 169 12 193 8 11 -1 62 -3 113 -2z m-327 -146 c10 -13 10 -20 -5
-45 -15 -26 -15 -29 -1 -29 8 0 18 -7 22 -16 3 -8 12 -13 19 -10 8 3 14 0 14
-7 0 -15 -20 -46 -20 -32 0 10 -8 12 -65 18 -14 2 -19 8 -17 22 3 15 1 17 -10
7 -8 -6 -24 -9 -36 -5 -12 3 -30 -1 -39 -8 -15 -13 -15 -12 -3 6 7 12 25 29
42 38 16 9 26 12 23 7 -10 -17 12 -11 36 10 13 10 19 19 12 20 -12 0 -6 40 7
40 4 0 13 -7 21 -16z m-138 -158 c-4 -6 1 -6 13 -2 35 15 101 19 108 7 11 -17
-22 -25 -41 -10 -12 10 -15 10 -9 2 5 -9 1 -13 -12 -13 -25 0 -38 -30 -14 -31
10 0 12 -3 5 -6 -7 -2 -13 -11 -13 -19 0 -10 -5 -12 -12 -8 -10 6 -10 5 0 -8
10 -12 8 -20 -10 -43 -20 -26 -20 -27 -2 -17 19 10 20 8 18 -21 -1 -18 -3 -34
-4 -37 -1 -3 -2 -8 -1 -12 0 -5 -2 -7 -7 -5 -4 1 -7 -1 -7 -5 0 -12 -39 -36
-51 -31 -15 5 -17 114 -4 183 13 69 32 113 42 97 3 -6 4 -15 1 -21z m107 -60
c0 -2 -7 -7 -16 -10 -8 -3 -12 -2 -9 4 6 10 25 14 25 6z m-39 -149 c-10 -9
-11 -8 -5 6 3 10 9 15 12 12 3 -3 0 -11 -7 -18z m-107 -144 c3 -11 1 -25 -3
-32 -4 -6 -8 4 -8 24 0 37 5 41 11 8z m991 10 c-2 -10 -4 -22 -4 -27 -1 -6 -6
-5 -13 2 -8 8 -8 15 2 27 16 19 19 19 15 -2z m31 -8 c-2 -14 -16 -22 -16 -10
0 3 0 10 0 15 0 6 4 10 9 10 5 0 8 -7 7 -15z m-1021 -64 c3 -5 2 -12 -3 -15
-5 -3 -9 1 -9 9 0 17 3 19 12 6z m-10 -110 c3 -5 2 -12 -3 -15 -5 -3 -9 1 -9
9 0 17 3 19 12 6z m112 -50 c-1 -22 -4 -38 -8 -36 -3 2 -5 14 -3 27 1 13 3 29
3 36 1 6 3 12 5 12 3 0 4 -18 3 -39z"/>
<path d="M2974 1469 c-24 -10 -15 -11 71 -9 38 1 66 -2 62 -7 -9 -8 -13 -9
-41 -12 -8 0 -24 -10 -37 -21 l-24 -19 30 8 c16 4 49 3 73 -3 39 -9 46 -8 59
10 8 10 20 18 28 16 8 -1 13 5 12 17 -1 15 -7 18 -31 15 -16 -2 -36 2 -45 9
-12 10 -13 9 -6 -2 6 -11 4 -13 -11 -7 -26 11 -116 14 -140 5z"/>
<path d="M2125 1880 c3 -5 11 -10 16 -10 6 0 7 5 4 10 -3 6 -11 10 -16 10 -6
0 -7 -4 -4 -10z"/>
</g>
</svg>
