<?xml version="1.0" standalone="no"?>
<!DOCTYPE svg PUBLIC "-//W3C//DTD SVG 20010904//EN"
 "http://www.w3.org/TR/2001/REC-SVG-20010904/DTD/svg10.dtd">
<svg version="1.0" xmlns="http://www.w3.org/2000/svg"
 width="450.000000pt" height="253.000000pt" viewBox="0 0 450.000000 253.000000"
 preserveAspectRatio="xMidYMid meet">
<metadata>
Created by potrace 1.16, written by Peter Selinger 2001-2019
</metadata>
<g transform="translate(0.000000,253.000000) scale(0.100000,-0.100000)"
fill="#000000" stroke="none">
<path d="M0 1265 l0 -1265 2250 0 2250 0 0 1265 0 1265 -2250 0 -2250 0 0
-1265z m2975 700 c39 -8 99 -30 134 -47 76 -39 181 -134 234 -210 l38 -56 -26
-48 c-14 -27 -38 -61 -52 -76 -28 -30 -189 -115 -199 -106 -10 11 36 48 66 55
17 3 30 9 30 14 0 5 6 9 13 9 7 0 28 11 46 24 l33 24 -34 -1 c-19 -1 -38 4
-46 13 -11 13 -12 13 -9 0 2 -8 2 -12 0 -7 -3 4 -10 4 -16 0 -8 -5 -8 -2 0 9
7 8 9 18 5 23 -4 4 2 4 13 -1 18 -8 40 -10 55 -4 10 3 45 11 58 12 15 2 15 11
1 25 -13 13 -42 6 -33 -8 5 -9 -4 -11 -63 -13 -18 -1 -38 -7 -44 -13 -14 -14
-51 -17 -63 -5 -4 4 -74 8 -154 9 -289 3 -316 6 -320 28 -2 11 -11 29 -21 39
-9 12 -11 16 -3 12 24 -14 -4 28 -32 49 -18 14 -22 21 -13 27 8 5 5 8 -8 9
-11 1 -24 1 -28 0 -5 -1 -6 3 -2 9 3 6 11 7 17 4 6 -4 3 4 -8 18 -10 14 -25
23 -32 21 -10 -4 -10 0 -1 21 7 14 17 26 22 26 6 0 24 11 41 24 49 37 134 78
190 92 69 17 128 16 211 -1z m-755 -55 c-12 -8 -11 -10 7 -10 12 0 33 4 47 10
19 7 26 6 26 -3 0 -8 4 -7 10 3 9 13 11 13 20 0 7 -11 28 -15 77 -15 49 0 67
-3 66 -12 -2 -7 2 -13 7 -13 6 0 10 7 10 16 0 9 7 14 17 12 26 -5 26 -25 1
-31 -90 -22 -175 -50 -188 -63 -8 -8 -9 -14 -4 -14 7 0 9 -11 6 -25 -4 -24
-19 -30 -64 -26 -10 1 -27 -3 -39 -10 -20 -10 -21 -9 -17 14 4 19 1 23 -12 20
-9 -3 -23 2 -31 9 -8 8 -22 17 -31 21 -10 3 -18 11 -18 17 0 5 -7 10 -15 10
-14 0 -39 35 -40 55 0 5 -13 12 -30 16 -28 5 -27 6 15 12 25 4 72 9 105 10 33
2 67 4 75 5 13 2 13 1 0 -8z m-245 -37 c-1 -10 2 -28 6 -40 7 -19 5 -23 -11
-23 -10 0 -22 -5 -25 -10 -11 -19 -25 1 -25 35 0 22 6 38 18 44 26 16 41 13
37 -6z m82 -29 c-3 -4 1 -13 9 -21 8 -9 12 -18 9 -21 -7 -7 -34 31 -29 40 3 5
8 8 11 8 4 0 4 -3 0 -6z m468 -64 c18 -8 18 -9 2 -9 -10 -1 -16 -5 -13 -9 2
-4 -8 -8 -22 -7 -15 0 -26 -5 -25 -12 1 -6 -4 -14 -12 -17 -26 -9 -18 39 8 52
27 13 36 13 62 2z m-410 -49 c-10 -16 -25 -3 -25 22 0 20 1 20 16 5 9 -9 13
-21 9 -27z m-75 -1 c-6 -11 -16 -19 -22 -17 -7 1 -13 -5 -15 -15 -3 -12 3 -16
28 -15 34 2 44 -9 30 -32 -8 -12 -16 -12 -58 1 -79 26 -102 29 -122 19 -17 -9
-27 -62 -12 -61 3 1 25 5 48 9 23 4 48 4 55 0 10 -7 9 -9 -4 -9 -9 0 -29 -5
-43 -10 -24 -9 -26 -12 -14 -27 10 -12 10 -15 2 -9 -7 4 -13 2 -13 -3 0 -6 5
-11 10 -11 26 0 6 -16 -22 -18 -40 -3 -51 -12 -15 -12 32 0 33 -4 7 -37 -23
-30 -27 -51 -5 -33 12 10 15 9 15 -4 0 -40 -58 -116 -67 -88 -3 6 -9 12 -14
12 -6 0 -7 -4 -4 -10 3 -5 2 -10 -3 -10 -10 0 -13 93 -6 178 4 45 11 68 25 80
10 9 19 29 19 44 0 19 5 28 15 28 9 0 34 9 55 20 24 12 49 18 63 15 15 -4 29
1 42 14 26 26 39 26 25 1z m424 -39 c14 -15 15 -21 4 -27 -7 -4 -10 -3 -5 1 4
5 0 17 -10 27 -9 10 -14 18 -11 18 3 0 13 -9 22 -19z m163 -78 c-3 -2 -14 0
-24 7 -16 10 -16 11 0 6 9 -3 17 0 18 7 0 8 2 8 6 -1 3 -7 3 -16 0 -19z m433
-214 c0 -12 -37 -12 -44 0 -7 11 14 20 32 13 6 -2 12 -8 12 -13z m-336 -15 c9
-3 16 -10 16 -15 0 -14 -26 -10 -40 6 -13 16 -3 20 24 9z"/>
<path d="M2590 1876 c0 -2 7 -6 15 -10 8 -3 15 -1 15 4 0 6 -7 10 -15 10 -8 0
-15 -2 -15 -4z"/>
<path d="M2318 1873 c-27 -7 -21 -23 8 -23 14 0 23 -4 19 -10 -3 -5 -2 -10 4
-10 5 0 11 5 13 11 3 9 21 15 51 18 4 1 7 4 7 9 0 8 -74 12 -102 5z"/>
</g>
</svg>
