<?xml version="1.0" standalone="no"?>
<!DOCTYPE svg PUBLIC "-//W3C//DTD SVG 20010904//EN"
 "http://www.w3.org/TR/2001/REC-SVG-20010904/DTD/svg10.dtd">
<svg version="1.0" xmlns="http://www.w3.org/2000/svg"
 width="450.000000pt" height="253.000000pt" viewBox="0 0 450.000000 253.000000"
 preserveAspectRatio="xMidYMid meet">
<metadata>
Created by potrace 1.16, written by Peter Selinger 2001-2019
</metadata>
<g transform="translate(0.000000,253.000000) scale(0.100000,-0.100000)"
fill="#000000" stroke="none">
<path d="M0 1265 l0 -1265 2250 0 2250 0 0 1265 0 1265 -2250 0 -2250 0 0
-1265z m3060 1191 c0 -2 -8 -10 -17 -17 -16 -13 -17 -12 -4 4 13 16 21 21 21
13z m140 0 c0 -2 -8 -10 -17 -17 -16 -13 -17 -12 -4 4 13 16 21 21 21 13z
m-300 -40 c0 -2 -8 -10 -17 -17 -16 -13 -17 -12 -4 4 13 16 21 21 21 13z m6
-41 c-1 -13 -4 -27 -7 -30 -5 -4 -4 41 0 53 4 10 8 -2 7 -23z m-51 -33 c-3 -3
2 -14 12 -24 24 -27 10 -22 -15 5 -17 18 -19 24 -7 24 8 0 13 -3 10 -5z m29
-8 c3 -8 2 -12 -4 -9 -6 3 -10 10 -10 16 0 14 7 11 14 -7z m46 12 c0 -2 -8
-10 -17 -17 -16 -13 -17 -12 -4 4 13 16 21 21 21 13z m421 -13 c13 -16 12 -17
-3 -4 -17 13 -22 21 -14 21 2 0 10 -8 17 -17z m-421 -16 c0 -2 -13 -15 -28
-30 -20 -19 -29 -23 -29 -13 0 8 5 14 11 13 6 -1 10 4 8 11 -1 8 2 11 7 8 5
-4 12 -2 16 4 6 9 15 14 15 7z m271 -24 c13 -16 12 -17 -3 -4 -17 13 -22 21
-14 21 2 0 10 -8 17 -17z m91 2 c2 3 5 -2 5 -10 0 -19 0 -19 -23 7 -12 14 -13
18 -3 10 9 -6 18 -10 21 -7z m-366 -27 c4 -7 4 -10 -1 -6 -4 4 -15 2 -24 -5
-14 -11 -14 -10 -2 6 16 20 18 21 27 5z m-9 -33 c0 -8 -4 -12 -9 -9 -5 3 -6
10 -3 15 9 13 12 11 12 -6z m-67 -20 c14 -19 14 -19 -2 -6 -10 7 -18 18 -18
24 0 6 1 8 3 6 1 -2 9 -13 17 -24z m43 2 c4 3 7 4 7 1 0 -3 -8 -12 -17 -19
-10 -7 -15 -9 -10 -4 4 4 -1 18 -10 29 -18 21 -18 21 3 3 11 -9 24 -14 27 -10z
m117 9 c0 -2 -8 -10 -17 -17 -16 -13 -17 -12 -4 4 13 16 21 21 21 13z m-179
-23 c13 -16 12 -17 -3 -4 -17 13 -22 21 -14 21 2 0 10 -8 17 -17z m81 -5 c-9
-9 -9 -15 1 -27 11 -14 10 -14 -6 -2 -13 10 -15 17 -6 27 6 8 14 14 17 14 3 0
1 -5 -6 -12z m-971 -25 c13 -16 12 -17 -3 -4 -17 13 -22 21 -14 21 2 0 10 -8
17 -17z m1009 11 c0 -8 -19 -13 -24 -6 -3 5 1 9 9 9 8 0 15 -2 15 -3z m-940
-8 c0 -2 -8 -10 -17 -17 -16 -13 -17 -12 -4 4 13 16 21 21 21 13z m884 -15
c14 -15 15 -21 4 -27 -7 -4 -10 -3 -5 1 4 5 0 17 -10 27 -9 10 -14 18 -11 18
3 0 13 -9 22 -19z m-854 5 c0 -2 -8 -10 -17 -17 -16 -13 -17 -12 -4 4 13 16
21 21 21 13z m831 -13 c13 -16 12 -17 -3 -4 -17 13 -22 21 -14 21 2 0 10 -8
17 -17z m109 11 c0 -8 -19 -13 -24 -6 -3 5 1 9 9 9 8 0 15 -2 15 -3z m-29 -21
c12 -16 12 -17 -2 -6 -9 7 -20 9 -24 5 -5 -4 -5 -1 -1 6 9 16 11 15 27 -5z
m-286 -13 c10 -11 16 -20 13 -20 -3 0 -13 9 -23 20 -10 11 -16 20 -13 20 3 0
13 -9 23 -20z m-664 -7 c13 -16 12 -17 -3 -4 -10 7 -18 15 -18 17 0 8 8 3 21
-13z m704 8 c3 -5 2 -12 -3 -15 -5 -3 -9 1 -9 9 0 17 3 19 12 6z m295 3 c0 -8
-19 -13 -24 -6 -3 5 1 9 9 9 8 0 15 -2 15 -3z m-335 -45 c-3 -4 -1 -10 4 -13
8 -5 8 -34 1 -43 -7 -9 -5 -30 4 -43 10 -13 9 -13 -7 -1 -9 8 -15 16 -12 19 3
3 0 11 -7 19 -9 11 -8 13 2 11 16 -4 20 21 7 40 -5 6 -6 12 -2 12 5 0 0 10
-11 23 l-19 22 22 -19 c13 -10 20 -22 18 -27z m221 16 c1 -8 -1 -17 -5 -19 -4
-3 -7 6 -7 19 0 25 8 25 12 0z m30 10 c-1 -8 -5 -17 -8 -21 -5 -4 -4 16 1 34
3 9 9 -1 7 -13z m29 -6 c0 -5 5 -9 10 -8 6 1 9 5 7 11 -1 5 2 7 8 3 8 -5 7
-11 -1 -21 -14 -17 -31 -5 -35 22 -1 9 1 13 4 9 4 -4 7 -11 7 -16z m75 17 c0
-2 -8 -10 -17 -17 -16 -13 -17 -12 -4 4 13 16 21 21 21 13z m-389 -33 c13 -16
12 -17 -3 -4 -17 13 -22 21 -14 21 2 0 10 -8 17 -17z m390 4 c-6 -8 -7 -18 -3
-22 4 -5 1 -5 -6 -1 -10 6 -10 11 -1 22 6 8 14 14 16 14 3 0 0 -6 -6 -13z m51
-2 c3 0 9 -3 13 -7 4 -3 0 -5 -9 -4 -9 1 -22 8 -29 16 -10 10 -9 11 3 4 8 -5
18 -9 22 -9z m-127 -33 c-3 -3 1 -12 8 -21 11 -14 10 -14 -6 -2 -9 8 -15 16
-12 19 3 3 -1 12 -8 21 -11 14 -10 14 6 2 9 -8 15 -16 12 -19z m37 16 c-9 -9
-9 -15 1 -27 11 -14 10 -14 -6 -2 -13 10 -15 17 -6 27 6 8 14 14 17 14 3 0 1
-5 -6 -12z m67 -2 c8 -10 8 -16 -3 -25 -10 -8 -16 -9 -21 -1 -4 6 -3 10 2 9
20 -3 25 2 13 16 -7 8 -10 15 -7 15 2 0 10 -6 16 -14z m92 -3 c13 -16 12 -17
-3 -4 -17 13 -22 21 -14 21 2 0 10 -8 17 -17z m146 -10 c0 -9 -4 -10 -14 -2
-7 6 -13 12 -13 14 0 1 6 2 13 2 8 0 14 -6 14 -14z m-687 3 c0 -2 -8 -10 -17
-17 -16 -13 -17 -12 -4 4 13 16 21 21 21 13z m491 -19 c-10 -9 -11 -8 -5 6 3
10 9 15 12 12 3 -3 0 -11 -7 -18z m35 -2 c1 -8 -1 -17 -5 -19 -4 -3 -7 6 -7
19 0 25 8 25 12 0z m-1186 11 c0 -2 -8 -10 -17 -17 -16 -13 -17 -12 -4 4 13
16 21 21 21 13z m1130 -10 c0 -2 -8 -10 -17 -17 -16 -13 -17 -12 -4 4 13 16
21 21 21 13z m225 -8 c5 4 5 1 1 -6 -6 -10 -11 -10 -22 -1 -8 6 -14 14 -14 16
0 3 6 0 13 -6 8 -6 18 -7 22 -3z m56 -15 c13 -16 12 -17 -3 -4 -17 13 -22 21
-14 21 2 0 10 -8 17 -17z m-641 2 c0 -2 -6 -8 -13 -14 -10 -8 -14 -7 -14 2 0
8 6 14 14 14 7 0 13 -1 13 -2z m432 -7 c-9 -9 -9 -15 1 -27 11 -14 10 -14 -6
-2 -13 10 -15 17 -6 27 6 8 14 14 17 14 3 0 1 -5 -6 -12z m-177 -7 c3 -5 2
-12 -3 -15 -5 -3 -9 1 -9 9 0 17 3 19 12 6z m-33 -16 c2 3 5 -2 5 -10 0 -19 0
-19 -23 7 -12 14 -13 18 -3 10 9 -6 18 -10 21 -7z m-268 -36 c-3 -5 0 -9 5 -9
6 0 11 5 11 11 0 8 5 8 15 -1 13 -11 19 -8 17 11 -1 3 13 3 30 1 17 -3 28 -1
25 4 -8 13 124 10 149 -4 16 -8 24 -8 34 1 10 9 11 9 6 0 -5 -8 -1 -13 9 -13
10 0 13 5 9 13 -4 6 2 4 13 -5 20 -19 38 -24 29 -10 -3 5 1 9 8 9 8 0 12 -7 8
-15 -3 -10 -1 -13 6 -8 7 4 12 3 12 -2 0 -13 50 -33 62 -26 7 4 8 2 4 -4 -4
-6 4 -16 16 -23 68 -35 229 -206 228 -242 0 -6 -7 -21 -15 -31 -8 -10 -12 -22
-10 -26 13 -20 -152 -129 -228 -151 l-32 -9 27 25 c15 14 34 25 41 25 8 0 20
7 27 15 7 8 16 12 22 9 12 -8 80 45 72 57 -3 5 -9 7 -13 5 -4 -3 -13 0 -21 5
-13 9 -13 9 0 7 8 -1 24 3 35 9 20 11 27 13 45 13 6 0 10 7 10 16 0 12 -7 15
-31 12 -20 -3 -33 0 -36 9 -3 7 -12 13 -20 13 -12 0 -12 -2 1 -16 18 -17 21
-28 6 -19 -5 3 -19 1 -31 -6 -15 -8 -19 -8 -15 0 4 6 2 11 -3 11 -6 0 -11 -4
-11 -10 0 -16 -38 -32 -46 -18 -4 6 -3 8 3 5 6 -4 17 1 24 10 12 15 12 16 -1
8 -8 -5 -22 -11 -30 -12 -54 -10 -81 -10 -85 -2 -4 5 -14 5 -26 -1 -14 -8 -19
-7 -19 2 0 8 -3 9 -8 3 -4 -5 -54 -10 -112 -11 -96 -1 -106 1 -107 18 -2 16 0
16 13 4 8 -9 22 -12 32 -8 15 6 15 7 -3 10 -11 2 -24 8 -29 12 -5 5 -19 5 -31
0 -13 -5 -26 -6 -31 -2 -4 4 -5 0 -2 -9 4 -9 1 -16 -8 -16 -7 0 -11 4 -8 9 3
4 1 8 -5 8 -5 0 -12 -4 -16 -10 -7 -11 -35 -2 -35 12 0 6 8 5 18 -3 14 -11 15
-11 5 1 -14 15 -46 24 -38 10 3 -5 -4 -8 -15 -7 -15 1 -20 8 -20 30 0 19 4 26
12 21 6 -4 0 8 -14 27 -19 25 -24 39 -17 50 5 9 11 38 13 65 2 27 5 54 6 59 1
6 1 12 0 15 -8 21 -6 37 6 37 7 0 10 -5 7 -11 -4 -6 1 -4 12 4 10 8 21 15 24
15 10 0 8 29 -3 45 -10 13 -9 13 6 1 10 -7 15 -17 12 -22z m446 25 c0 -8 -19
-13 -24 -6 -3 5 1 9 9 9 8 0 15 -2 15 -3z m81 -38 c-6 -7 -8 -16 -4 -19 3 -4
4 -7 1 -7 -3 0 -11 7 -18 16 -11 12 -11 15 1 12 8 -2 13 3 11 10 -1 8 2 11 8
7 8 -5 8 -11 1 -19z m66 -13 c0 -9 -4 -10 -14 -2 -7 6 -13 12 -13 14 0 1 6 2
13 2 8 0 14 -6 14 -14z m-1087 -17 c44 6 142 5 148 0 3 -4 -12 -6 -34 -6 -31
-1 -36 -3 -21 -11 9 -5 22 -7 27 -4 6 3 15 3 21 -1 15 -9 -9 -24 -38 -24 -13
0 -23 -4 -23 -9 0 -5 10 -12 23 -15 22 -6 22 -7 2 -18 -22 -13 -26 -15 -52
-17 -15 -1 -16 -3 -3 -11 8 -5 17 -6 20 -2 9 13 41 13 56 1 8 -6 14 -22 14
-35 0 -19 -6 -24 -27 -25 -16 -1 -34 -1 -40 0 -7 1 -22 -3 -33 -9 -17 -9 -20
-8 -20 10 0 18 -10 25 -26 18 -3 -2 -10 5 -15 15 -6 9 -18 17 -28 17 -10 0
-30 14 -44 32 -23 28 -28 30 -44 17 -16 -12 -17 -12 -7 1 19 27 11 45 -23 48
-18 2 -33 7 -33 12 0 7 38 11 113 11 9 0 15 4 12 9 -3 5 7 5 22 1 16 -4 39 -7
53 -5z m1134 -4 c3 -5 -1 -9 -9 -9 -8 0 -12 4 -9 9 3 4 7 8 9 8 2 0 6 -4 9 -8z
m-809 -12 c-3 -5 -1 -10 4 -10 6 0 11 -4 11 -10 0 -5 -7 -10 -15 -10 -15 0
-21 21 -8 33 10 10 15 8 8 -3z m87 -15 c2 3 5 -2 5 -10 0 -8 -4 -12 -8 -9 -13
7 -49 -28 -49 -48 0 -10 -4 -18 -10 -18 -5 0 -10 5 -10 11 0 5 -4 7 -10 4 -6
-4 -3 -16 7 -31 9 -14 12 -24 7 -23 -23 4 -45 -2 -39 -11 4 -6 -1 -7 -10 -3
-10 3 -21 0 -26 -8 -6 -11 -9 -8 -9 9 0 29 47 54 61 31 6 -10 9 -10 9 -1 0 7
-6 15 -14 18 -10 4 -2 18 29 49 24 24 41 47 37 51 -4 5 0 3 9 -4 9 -6 18 -10
21 -7z m-637 -21 c0 -10 3 -21 7 -24 20 -16 11 -32 -19 -34 -25 -1 -32 3 -36
21 -5 26 19 66 36 60 7 -2 12 -12 12 -23z m490 16 c-3 -6 -1 -10 6 -10 8 0 8
-4 -1 -15 -19 -23 -39 -19 -32 7 4 16 2 20 -10 16 -8 -4 -20 -3 -27 1 -6 4 7
8 29 9 25 1 39 -2 35 -8z m852 -7 c0 -9 -4 -10 -14 -2 -7 6 -13 12 -13 14 0 1
6 2 13 2 8 0 14 -6 14 -14z m-706 -46 c-10 -9 -11 -8 -5 6 3 10 9 15 12 12 3
-3 0 -11 -7 -18z m-258 0 c7 4 6 -1 -2 -10 -16 -20 -33 -13 -24 10 4 11 8 13
11 5 2 -7 9 -9 15 -5z m-268 -16 c3 -5 1 -12 -5 -16 -5 -3 -10 1 -10 9 0 18 6
21 15 7z m35 -68 c-1 -24 -2 -26 -11 -10 -5 9 -7 22 -4 27 10 17 15 11 15 -17z
m-244 -11 c-17 -16 -18 -16 -5 5 7 12 15 20 18 17 3 -2 -3 -12 -13 -22z m184
8 c0 -5 -2 -10 -4 -10 -3 0 -8 5 -11 10 -3 6 -1 10 4 10 6 0 11 -4 11 -10z
m-15 -21 c4 -6 0 -9 -8 -7 -9 2 -16 0 -16 -4 -2 -24 1 -29 17 -24 24 8 46 -9
38 -29 -5 -13 -13 -15 -38 -10 -18 4 -35 10 -38 14 -3 3 -12 8 -20 10 -69 17
-114 2 -117 -40 -1 -13 -7 -25 -13 -27 -5 -2 -10 -10 -10 -18 0 -12 4 -12 20
-4 11 6 18 15 15 21 -9 13 9 11 23 -3 8 -8 8 -15 1 -24 -7 -8 -6 -14 2 -20 8
-4 9 -3 5 4 -4 7 -2 12 3 12 6 0 11 -7 11 -15 0 -16 -1 -16 -38 -20 -30 -3
-41 -15 -14 -15 34 0 35 -17 5 -57 l-28 -38 25 16 c24 16 26 16 27 0 1 -9 -13
-34 -31 -56 l-33 -39 -16 25 c-9 13 -19 53 -23 89 -3 36 -8 68 -11 73 -2 4 1
7 6 7 6 0 10 3 9 8 -4 13 21 72 31 72 5 0 11 12 13 27 2 19 10 27 28 30 13 2
39 12 58 23 20 12 42 18 57 14 12 -3 26 -1 29 5 9 14 23 14 31 0z m-45 -108
c0 -5 -9 -7 -20 -4 -11 3 -26 1 -33 -4 -17 -13 -39 -11 -44 5 -3 8 10 12 46
12 28 0 51 -4 51 -9z m1075 -202 c-4 -5 -16 -9 -28 -9 -21 1 -21 1 -3 15 20
15 41 11 31 -6z"/>
<path d="M2860 1616 c0 -7 40 -14 44 -7 3 4 -6 8 -20 9 -13 1 -24 0 -24 -2z"/>
<path d="M2218 1903 c7 -3 16 -2 19 1 4 3 -2 6 -13 5 -11 0 -14 -3 -6 -6z"/>
<path d="M1791 1563 c-1 -17 16 -25 25 -12 4 7 3 9 -4 5 -5 -3 -13 0 -15 6 -4
9 -6 10 -6 1z"/>
</g>
</svg>
