<?xml version="1.0" standalone="no"?>
<!DOCTYPE svg PUBLIC "-//W3C//DTD SVG 20010904//EN"
 "http://www.w3.org/TR/2001/REC-SVG-20010904/DTD/svg10.dtd">
<svg version="1.0" xmlns="http://www.w3.org/2000/svg"
 width="450.000000pt" height="253.000000pt" viewBox="0 0 450.000000 253.000000"
 preserveAspectRatio="xMidYMid meet">
<metadata>
Created by potrace 1.16, written by Peter Selinger 2001-2019
</metadata>
<g transform="translate(0.000000,253.000000) scale(0.100000,-0.100000)"
fill="#000000" stroke="none">
<path d="M0 1265 l0 -1265 2250 0 2250 0 0 1265 0 1265 -2250 0 -2250 0 0
-1265z m2595 635 c-3 -6 1 -7 10 -4 21 9 87 -5 80 -16 -3 -6 0 -8 7 -5 18 7
124 -32 121 -44 -2 -6 5 -7 14 -4 10 4 14 2 10 -4 -5 -7 0 -9 11 -6 11 2 27
-4 37 -14 10 -10 21 -18 24 -18 3 0 5 -3 4 -7 -2 -4 5 -4 14 -1 12 5 14 3 8
-7 -5 -9 -4 -11 4 -6 13 9 43 -18 33 -29 -4 -5 -2 -5 4 -2 15 9 48 -28 39 -43
-5 -8 -10 -9 -18 -1 -7 7 -15 7 -26 -2 -12 -9 -13 -9 -7 1 10 16 -22 28 -36
14 -8 -8 -17 -8 -30 -1 -11 6 -18 6 -18 0 0 -10 -14 -9 -42 4 -10 4 -15 12
-11 18 4 7 0 8 -12 3 -16 -6 -16 -4 -4 11 12 15 12 16 -3 10 -10 -3 -18 -2
-18 4 0 6 -6 7 -12 2 -23 -14 -37 -12 -31 5 5 12 2 14 -11 9 -9 -4 -15 -3 -12
2 3 5 0 11 -8 14 -17 7 -15 -15 2 -36 11 -13 8 -14 -25 -7 -21 4 -66 10 -100
14 -54 5 -63 3 -63 -11 0 -9 -3 -14 -6 -10 -3 3 -26 -3 -50 -13 -51 -22 -62
-13 -32 25 20 26 20 29 5 40 -19 14 -23 35 -6 35 5 0 7 5 4 10 -6 10 8 12 94
15 25 1 47 7 49 13 5 16 -17 44 -29 36 -5 -3 -9 0 -9 5 0 6 12 11 26 11 14 0
22 -4 19 -10z m-451 -18 c3 -5 -1 -9 -9 -9 -8 0 -12 4 -9 9 3 4 7 8 9 8 2 0 6
-4 9 -8z m99 1 c-13 -2 -33 -2 -45 0 -13 2 -3 4 22 4 25 0 35 -2 23 -4z m165
-5 c5 -7 7 -21 3 -30 -7 -19 -71 -67 -114 -86 -20 -9 -27 -18 -25 -33 2 -12
-5 -26 -14 -32 -24 -16 -35 0 -12 18 10 8 15 15 10 15 -5 0 -24 -11 -42 -25
-36 -28 -44 -30 -44 -14 0 5 5 7 10 4 6 -3 10 -3 10 0 0 3 -13 11 -30 16 -16
6 -27 15 -24 20 3 5 -2 6 -10 3 -17 -6 -86 24 -86 37 0 5 5 9 10 9 25 0 6 19
-22 23 -30 4 -31 5 -10 12 12 4 22 12 22 17 0 6 9 8 20 5 12 -3 18 -1 14 5 -4
6 1 6 13 -1 11 -6 23 -7 27 -4 3 3 6 2 6 -4 0 -11 -29 -27 -42 -25 -5 1 -8 -5
-8 -13 0 -17 22 -11 64 19 16 11 26 15 22 8 -5 -9 -1 -9 19 -2 15 6 31 8 36 4
11 -6 11 -2 3 20 -5 13 -9 14 -20 5 -16 -13 -48 -4 -39 11 4 6 33 8 73 5 41
-3 73 -1 82 6 12 8 11 9 -7 4 -12 -3 -24 -1 -28 5 -9 15 120 13 133 -2z m-335
-5 c-29 -3 -43 -9 -43 -19 0 -8 -5 -14 -11 -14 -5 0 -7 4 -4 10 3 5 0 7 -9 4
-8 -3 -34 1 -58 10 l-43 15 105 -1 c58 -1 86 -3 63 -5z m-245 -10 c-15 -4 -16
-8 -6 -26 6 -12 9 -24 7 -26 -2 -2 6 -5 18 -6 36 -3 35 -10 -2 -21 -19 -6 -32
-7 -29 -2 3 4 1 8 -5 8 -9 0 -47 -43 -66 -75 -7 -11 -24 -18 -45 -19 -18 -1
-35 -7 -38 -15 -3 -10 2 -11 18 -6 16 5 20 4 15 -5 -4 -7 -3 -15 3 -19 6 -4
-9 -13 -33 -20 -25 -7 -45 -17 -45 -22 0 -12 14 -11 27 2 8 8 13 7 18 -2 6 -8
4 -10 -4 -5 -8 5 -11 3 -9 -6 3 -14 -46 -81 -54 -73 -2 2 -4 -5 -5 -16 -2 -18
2 -16 37 11 22 17 42 36 45 41 4 5 16 9 28 9 16 0 18 -3 9 -12 -15 -15 -16
-31 -1 -22 7 4 10 1 7 -7 -2 -8 -16 -15 -30 -17 -15 -2 -29 -10 -32 -19 -9
-22 -1 -27 22 -14 39 21 45 14 37 -41 -24 -167 -22 -157 -24 -113 -1 34 -20
89 -21 59 0 -6 -19 -10 -42 -10 -37 1 -43 4 -44 24 -2 38 -4 43 -11 39 -15 -9
-5 108 12 147 16 38 81 146 94 156 3 3 19 22 34 43 31 41 93 86 117 85 10 0
10 -2 -2 -5z m52 -23 c0 -5 -5 -10 -11 -10 -5 0 -7 -4 -4 -10 3 -6 -1 -7 -9
-4 -17 7 -20 16 -9 27 10 11 33 8 33 -3z m703 -135 c-3 -9 -8 -14 -10 -11 -3
3 -2 9 2 15 9 16 15 13 8 -4z m124 -20 c0 -8 -4 -12 -9 -9 -5 3 -6 10 -3 15 9
13 12 11 12 -6z m309 -14 c12 10 13 8 6 -10 -4 -12 -22 -31 -39 -42 -26 -16
-32 -17 -36 -5 -4 10 0 14 13 11 25 -5 47 22 32 37 -7 7 -12 17 -12 23 0 5 5
2 11 -8 8 -14 14 -16 25 -6z m-86 -77 c0 -2 -7 -4 -15 -4 -8 0 -15 4 -15 10 0
5 7 7 15 4 8 -4 15 -8 15 -10z m-1233 -351 c-3 -10 -5 -4 -5 12 0 17 2 24 5
18 2 -7 2 -21 0 -30z m0 -115 c-3 -8 -6 -5 -6 6 -1 11 2 17 5 13 3 -3 4 -12 1
-19z m10 -45 c1 -24 0 -25 -6 -8 -7 17 -6 35 2 35 2 0 3 -12 4 -27z m6 -64 c3
-14 1 -32 -4 -40 -6 -9 -9 0 -9 30 0 47 6 52 13 10z m3 -115 c7 -64 -3 -54
-11 11 -4 28 -4 47 0 44 3 -4 9 -29 11 -55z m13 -153 c2 -69 -9 -42 -13 35 -3
47 -2 59 3 39 5 -16 9 -50 10 -74z m-2 -103 c-3 -8 -6 -5 -6 6 -1 11 2 17 5
13 3 -3 4 -12 1 -19z"/>
<path d="M2230 1833 c0 -15 16 -17 25 -3 4 7 13 7 25 0 16 -8 18 -7 14 4 -7
19 -64 18 -64 -1z"/>
</g>
</svg>
