<?xml version="1.0" standalone="no"?>
<!DOCTYPE svg PUBLIC "-//W3C//DTD SVG 20010904//EN"
 "http://www.w3.org/TR/2001/REC-SVG-20010904/DTD/svg10.dtd">
<svg version="1.0" xmlns="http://www.w3.org/2000/svg"
 width="450.000000pt" height="253.000000pt" viewBox="0 0 450.000000 253.000000"
 preserveAspectRatio="xMidYMid meet">
<metadata>
Created by potrace 1.16, written by Peter Selinger 2001-2019
</metadata>
<g transform="translate(0.000000,253.000000) scale(0.100000,-0.100000)"
fill="#000000" stroke="none">
<path d="M0 1265 l0 -1265 2250 0 2250 0 0 1265 0 1265 -907 0 c-498 0 -904
-3 -900 -6 3 -4 53 -10 109 -14 142 -10 201 -45 252 -146 35 -71 60 -191 59
-281 -1 -19 8 -26 50 -38 65 -19 63 -19 101 10 28 21 44 25 103 25 81 0 118
-12 246 -76 107 -53 124 -67 145 -114 37 -83 26 -150 -34 -215 -25 -28 -53
-59 -62 -70 -32 -39 -157 -136 -182 -141 -14 -3 -35 -10 -48 -15 -13 -5 -31
-9 -41 -9 -9 0 -26 -6 -36 -14 -18 -13 -17 -15 12 -46 62 -66 106 -202 107
-330 1 -67 0 -70 -36 -103 -41 -37 -95 -64 -148 -72 -19 -3 -48 -9 -65 -14
-46 -12 -159 -13 -202 -2 -21 5 -68 13 -105 16 -42 4 -98 19 -150 41 -87 36
-118 42 -119 22 -3 -77 -12 -174 -16 -178 -3 -3 -3 32 -1 78 4 91 -4 101 -48
57 -17 -17 -23 -32 -19 -45 5 -15 -7 -34 -45 -74 -40 -43 -65 -59 -113 -75
-81 -28 -133 -26 -214 5 -92 36 -125 71 -185 191 -44 89 -51 110 -52 166 l-1
65 -34 -19 c-26 -14 -37 -16 -42 -7 -5 7 -3 18 2 25 11 13 -17 22 -121 41
-123 22 -290 135 -290 195 0 14 -7 28 -16 31 -8 3 -14 14 -13 23 1 10 -3 31
-9 46 -23 56 -6 115 54 187 26 30 126 110 139 110 9 0 35 27 35 36 0 5 -21 28
-48 53 -95 92 -146 190 -159 309 -7 57 16 132 39 132 10 0 18 4 18 9 0 5 29
17 63 26 89 24 288 18 369 -12 41 -15 87 -22 162 -24 l106 -4 30 37 c44 53
149 134 206 159 27 11 74 27 104 34 47 11 -137 13 -1247 14 l-1303 1 0 -1265z
m2627 -597 c-3 -8 -6 -5 -6 6 -1 11 2 17 5 13 3 -3 4 -12 1 -19z m-20 -270
c-3 -8 -6 -5 -6 6 -1 11 2 17 5 13 3 -3 4 -12 1 -19z m0 -60 c-3 -8 -6 -5 -6
6 -1 11 2 17 5 13 3 -3 4 -12 1 -19z"/>
<path d="M2238 2033 c-20 -5 -23 -19 -7 -29 7 -4 16 1 21 10 11 20 32 21 24 0
-3 -8 -2 -12 4 -9 6 3 16 3 23 -2 18 -11 37 -12 37 -2 0 5 -7 12 -15 15 -8 4
-13 9 -11 13 5 8 -51 11 -76 4z"/>
<path d="M2375 2000 c3 -5 8 -10 11 -10 2 0 4 5 4 10 0 6 -5 10 -11 10 -5 0
-7 -4 -4 -10z"/>
<path d="M2446 1864 c-3 -9 -2 -22 2 -31 6 -10 9 -5 9 16 0 35 -2 38 -11 15z"/>
<path d="M2431 1781 c-1 -8 -4 -12 -7 -8 -10 10 -34 -20 -34 -42 0 -23 -16
-36 -25 -21 -3 5 -15 10 -27 10 -17 0 -18 -2 -8 -15 7 -8 20 -15 30 -15 10 0
20 -8 24 -17 14 -41 45 -79 72 -88 28 -9 44 -22 44 -37 0 -4 -6 -5 -14 -2 -11
4 -14 -3 -13 -28 0 -18 -2 -40 -6 -48 -6 -13 2 -14 48 -12 30 2 55 8 55 13 0
5 7 9 15 9 17 0 19 9 5 30 -6 10 -4 22 6 37 14 22 13 23 -27 29 -22 4 -46 12
-52 19 -7 6 -17 14 -24 16 -14 5 -83 88 -83 99 0 5 6 13 13 17 6 4 18 19 25
32 8 12 9 20 4 17 -6 -3 -13 0 -15 6 -4 10 -6 9 -6 -1z"/>
<path d="M1851 1694 c0 -11 3 -14 6 -6 3 7 2 16 -1 19 -3 4 -6 -2 -5 -13z"/>
<path d="M2178 1680 c14 -12 18 -20 10 -22 -7 -3 -4 -7 7 -10 11 -3 29 -1 40
3 12 4 14 8 6 8 -8 1 -23 9 -33 18 -11 9 -27 18 -36 19 -13 2 -12 -1 6 -16z"/>
<path d="M2700 1671 c0 -7 -4 -9 -10 -6 -5 3 -10 1 -10 -5 0 -6 -4 -8 -10 -5
-5 3 -10 0 -10 -9 0 -8 -5 -16 -11 -18 -11 -4 -20 -56 -10 -62 20 -13 83 95
66 113 -3 2 -5 -1 -5 -8z"/>
<path d="M1853 1663 c4 -6 1 -17 -6 -26 -9 -13 -16 -14 -27 -6 -12 9 -12 10 3
5 12 -4 17 -2 14 6 -5 18 -95 14 -113 -4 -3 -4 -13 -4 -22 -1 -14 4 -14 3 -3
-5 8 -6 20 -8 26 -5 8 2 13 -5 13 -19 0 -21 -4 -24 -31 -20 -21 3 -28 1 -23
-7 4 -6 12 -9 17 -6 5 4 9 2 9 -3 0 -5 18 -7 40 -5 33 4 39 2 34 -10 -3 -8
-15 -18 -27 -22 -22 -6 -22 -6 -2 -15 39 -17 64 -11 71 15 3 14 9 23 13 21 3
-2 7 12 9 31 1 19 7 43 12 53 7 13 7 21 -2 26 -6 4 -8 3 -5 -3z"/>
<path d="M1491 1596 c-17 -20 14 -29 34 -10 8 9 15 17 15 20 0 10 -39 3 -49
-10z"/>
<path d="M2384 1568 c3 -20 1 -28 -10 -28 -8 0 -14 -6 -14 -12 0 -9 -3 -8 -10
2 -6 9 -5 17 3 22 11 7 5 8 -38 8 -3 0 -4 -3 -2 -7 1 -5 6 -7 10 -5 5 1 11 -7
14 -18 4 -15 14 -20 40 -20 36 0 79 30 55 38 -7 2 -22 14 -33 26 l-20 21 5
-27z"/>
<path d="M1483 1554 c-18 -8 -33 -17 -33 -20 0 -3 4 -3 9 0 13 8 23 -23 15
-48 -6 -18 -5 -19 9 -7 14 11 41 81 34 87 -1 0 -17 -5 -34 -12z"/>
<path d="M2149 1483 c-1 -4 -1 -16 0 -25 2 -18 -10 -23 -77 -33 -23 -4 -40
-11 -36 -16 3 -5 9 -7 14 -4 5 3 11 1 15 -5 3 -5 20 -8 36 -5 19 4 28 2 24 -5
-3 -6 0 -7 9 -4 9 3 16 10 16 16 0 5 11 19 24 31 l24 22 -24 18 c-13 10 -25
14 -25 10z"/>
<path d="M2339 1441 c-13 -11 -22 -22 -19 -25 9 -9 61 -15 55 -6 -3 4 2 10 10
14 22 8 18 36 -4 36 -10 0 -29 -9 -42 -19z"/>
<path d="M1908 1417 c8 -10 6 -16 -9 -25 -11 -7 -17 -17 -14 -22 3 -6 -1 -7
-9 -4 -9 3 -16 2 -16 -3 0 -18 46 -11 70 11 14 13 36 27 49 31 32 10 12 21
-41 23 -32 2 -38 -1 -30 -11z"/>
<path d="M2236 1387 c3 -10 9 -15 12 -12 3 3 0 11 -7 18 -10 9 -11 8 -5 -6z"/>
<path d="M2290 1362 c6 -2 8 -8 4 -13 -3 -5 -1 -9 5 -9 6 0 8 -7 5 -15 -10
-24 15 -45 52 -45 37 0 41 8 24 57 -10 27 -15 30 -55 29 -25 -1 -40 -3 -35 -4z"/>
<path d="M2560 1352 c0 -4 9 -8 19 -8 11 0 17 4 15 8 -3 4 -12 8 -20 8 -8 0
-14 -4 -14 -8z"/>
<path d="M2129 1329 c-23 -17 -23 -18 -5 -25 10 -4 31 -3 47 3 24 9 27 8 22
-6 -3 -12 -1 -11 11 3 31 38 -31 58 -75 25z"/>
<path d="M2441 1317 c-14 -36 -14 -37 3 -37 20 0 24 10 16 40 l-7 25 -12 -28z"/>
<path d="M2170 1293 c0 -7 5 -15 11 -19 8 -4 7 -9 -2 -15 -10 -7 -5 -8 13 -5
17 3 28 -1 32 -10 3 -9 12 -12 18 -9 7 4 0 -5 -17 -19 -16 -14 -33 -26 -37
-26 -12 0 -10 -48 2 -55 6 -3 10 -1 10 4 0 6 13 22 29 37 16 14 32 41 35 59 4
18 12 35 18 37 16 6 1 28 -18 28 -8 0 -12 -4 -9 -10 3 -5 0 -10 -9 -10 -8 0
-17 6 -19 13 -4 9 -6 9 -6 0 -1 -6 9 -19 21 -27 18 -13 19 -16 6 -16 -9 0 -20
5 -23 10 -4 6 -10 8 -15 5 -5 -3 -16 5 -24 17 -9 12 -16 17 -16 11z"/>
<path d="M3295 1196 c-14 -15 -23 -31 -19 -38 4 -7 3 -8 -4 -4 -12 7 -16 -4
-12 -38 3 -28 42 -84 66 -94 29 -14 57 3 45 27 -7 12 -6 22 2 30 9 10 9 12 -3
9 -8 -2 -15 4 -15 12 -1 8 -6 28 -13 43 -15 36 -15 40 1 31 7 -5 6 0 -3 11 -8
10 -13 20 -12 22 2 3 1 7 -2 10 -2 3 -17 -7 -31 -21z"/>
<path d="M2562 1180 c-30 -38 -56 -40 -50 -5 4 19 1 25 -12 25 -23 0 -64 -46
-57 -64 6 -14 -18 -30 -32 -21 -4 2 -8 -2 -8 -10 0 -8 4 -12 8 -9 4 2 31 7 60
9 29 3 56 9 59 13 10 14 89 46 104 43 5 -1 2 8 -6 21 -22 32 -39 32 -66 -2z"/>
<path d="M2670 1183 c0 -4 11 -13 25 -20 14 -6 23 -7 19 -2 -8 13 -44 31 -44
22z"/>
<path d="M3054 1118 c-4 -6 -2 -8 4 -4 6 3 15 -2 21 -11 6 -10 11 -15 11 -10
0 4 9 -2 20 -13 12 -12 25 -18 30 -15 6 4 10 3 10 -2 0 -4 15 -16 33 -26 30
-17 29 -16 -8 17 -55 47 -113 78 -121 64z"/>
<path d="M2040 1085 c-14 -16 -3 -20 19 -6 8 5 9 11 3 15 -5 3 -15 -1 -22 -9z"/>
<path d="M2195 1064 c-25 -19 -7 -33 33 -26 15 3 22 7 15 9 -7 2 -9 11 -6 19
7 18 -16 18 -42 -2z"/>
<path d="M2256 981 c-3 -5 1 -11 9 -14 9 -4 12 -1 8 9 -6 16 -10 17 -17 5z"/>
<path d="M2530 905 c-7 -9 -8 -15 -2 -15 5 0 12 7 16 15 3 8 4 15 2 15 -2 0
-9 -7 -16 -15z"/>
<path d="M2420 894 c0 -8 5 -12 10 -9 6 4 8 11 5 16 -9 14 -15 11 -15 -7z"/>
<path d="M2262 818 c-7 -7 -12 -19 -12 -27 0 -11 5 -8 16 7 18 25 15 39 -4 20z"/>
</g>
</svg>
