<?xml version="1.0" standalone="no"?>
<!DOCTYPE svg PUBLIC "-//W3C//DTD SVG 20010904//EN"
 "http://www.w3.org/TR/2001/REC-SVG-20010904/DTD/svg10.dtd">
<svg version="1.0" xmlns="http://www.w3.org/2000/svg"
 width="450.000000pt" height="253.000000pt" viewBox="0 0 450.000000 253.000000"
 preserveAspectRatio="xMidYMid meet">
<metadata>
Created by potrace 1.16, written by Peter Selinger 2001-2019
</metadata>
<g transform="translate(0.000000,253.000000) scale(0.100000,-0.100000)"
fill="#000000" stroke="none">
<path d="M0 1265 l0 -1265 2250 0 2250 0 0 1265 0 1265 -2250 0 -2250 0 0
-1265z m2671 1200 c6 -4 58 -9 116 -11 58 -2 110 -7 115 -10 6 -4 8 -2 4 4 -3
6 7 4 24 -5 17 -8 37 -12 45 -9 10 3 12 0 8 -11 -4 -10 -2 -14 5 -9 6 3 13 -3
17 -14 3 -11 16 -27 29 -37 12 -10 23 -22 25 -28 1 -5 12 -20 23 -32 12 -13
19 -26 15 -29 -3 -4 0 -19 8 -34 8 -15 11 -30 8 -33 -3 -4 -1 -12 4 -19 11
-13 23 -68 24 -101 0 -19 35 -38 55 -30 7 2 15 -1 19 -7 5 -8 11 -8 21 1 12
10 15 10 12 -1 -2 -8 5 -16 15 -18 10 -2 17 2 17 12 0 8 9 18 20 21 11 4 17
11 14 17 -4 6 -2 8 4 4 6 -3 13 -2 16 2 3 5 18 7 32 4 21 -4 25 -2 19 9 -7 11
-6 12 6 3 8 -6 22 -10 32 -9 9 2 14 -1 11 -6 -3 -6 5 -8 20 -5 14 3 28 1 31
-4 3 -5 14 -7 25 -5 12 2 18 1 16 -4 -3 -4 23 -20 57 -35 150 -66 197 -98 211
-144 4 -12 11 -22 15 -22 4 0 6 -26 3 -57 -5 -69 -19 -91 -122 -194 -93 -94
-151 -136 -204 -149 -23 -6 -60 -18 -84 -26 l-44 -16 25 -27 c14 -14 40 -55
58 -91 30 -59 33 -75 37 -171 4 -114 -7 -157 -48 -179 -11 -6 -20 -17 -20 -25
0 -9 -10 -15 -24 -15 -14 0 -27 -4 -30 -9 -3 -5 -47 -16 -97 -26 -155 -30
-352 -4 -511 67 -43 19 -51 20 -75 7 -59 -30 -83 -53 -83 -79 0 -18 -16 -41
-52 -76 -100 -95 -206 -118 -333 -74 -77 27 -115 64 -165 165 -40 82 -60 178
-39 190 18 12 10 45 -11 45 -11 0 -20 -4 -20 -10 0 -5 -11 -10 -25 -10 -22 0
-24 3 -15 20 11 21 3 24 -117 34 -100 9 -254 79 -306 140 -10 12 -25 36 -33
54 -8 17 -19 32 -25 32 -5 0 -9 6 -8 13 2 6 -3 32 -10 56 -11 38 -10 50 4 87
9 24 21 44 26 44 5 0 9 6 9 14 0 25 92 110 153 140 31 16 57 33 57 38 0 4 8 8
18 8 11 0 -3 19 -44 58 -60 57 -114 123 -114 139 0 5 -11 31 -25 59 -18 36
-25 69 -27 121 -2 43 1 71 7 70 6 -1 10 6 10 15 0 10 6 23 14 30 12 11 13 10
7 -2 -7 -13 -6 -13 6 0 7 8 21 16 32 18 10 2 30 8 45 14 40 17 48 18 166 16
168 -1 204 -3 199 -8 -3 -2 19 -12 48 -21 29 -9 54 -14 55 -10 3 5 100 5 148
-1 12 -2 19 2 18 9 -2 7 3 12 10 10 6 -1 11 6 11 15 -1 10 2 16 6 13 7 -4 47
22 77 51 6 6 25 17 42 24 17 7 31 17 31 22 0 5 4 7 10 3 5 -3 17 2 27 12 10
10 27 17 38 15 11 -1 38 1 60 6 44 9 98 8 116 -3z m556 -407 c-3 -8 -6 -5 -6
6 -1 11 2 17 5 13 3 -3 4 -12 1 -19z m-610 -1245 c-2 -21 -4 -6 -4 32 0 39 2
55 4 38 2 -18 2 -50 0 -70z m-22 -393 c1 -11 -2 -20 -7 -20 -4 0 -8 12 -8 27
0 30 13 24 15 -7z"/>
<path d="M2352 2034 c10 -10 20 -15 24 -12 3 4 -5 12 -18 18 -22 12 -22 12 -6
-6z"/>
<path d="M2315 2020 c3 -5 8 -10 11 -10 2 0 4 5 4 10 0 6 -5 10 -11 10 -5 0
-7 -4 -4 -10z"/>
<path d="M2516 1892 c-4 -7 -4 -33 0 -60 l7 -47 -22 19 c-19 17 -21 17 -15 3
3 -10 1 -24 -6 -32 -7 -8 -10 -22 -6 -30 3 -8 2 -15 -3 -15 -17 0 -19 -64 -2
-83 42 -47 65 -67 76 -67 7 0 15 -7 19 -15 4 -12 2 -13 -13 -6 -10 6 -27 8
-38 5 -11 -3 -25 1 -32 10 -10 12 -25 14 -69 9 -32 -3 -59 -7 -61 -9 -2 -2 3
-12 11 -21 9 -10 13 -24 11 -30 -5 -13 3 -15 63 -17 17 -1 38 -7 47 -14 10 -9
17 -10 22 -2 6 10 -1 14 -18 11 -5 -1 -5 4 -1 11 13 21 38 48 45 48 13 0 26
-46 18 -67 -8 -22 -6 -23 42 -23 31 0 48 4 44 10 -3 6 1 10 9 10 12 0 14 7 10
29 -5 23 -2 32 15 40 12 7 21 8 21 4 0 -4 4 -3 8 2 4 6 19 16 35 22 15 7 27
18 27 25 0 7 6 25 14 40 8 15 12 29 8 32 -9 10 -42 7 -42 -4 0 -5 -8 -10 -17
-10 -12 0 -18 -9 -20 -26 0 -15 -7 -30 -15 -35 -10 -7 -10 -9 2 -10 10 0 8 -3
-5 -8 -24 -10 -92 5 -111 24 -8 7 -24 22 -37 32 -13 10 -29 28 -36 41 -10 19
-9 23 13 33 13 7 25 19 26 28 8 74 -8 168 -24 143z"/>
<path d="M2237 1723 c-8 -14 1 -44 19 -64 19 -21 58 -19 79 3 7 8 5 9 -7 5
-19 -7 -68 31 -68 52 0 12 -16 15 -23 4z"/>
<path d="M1856 1631 c-9 -10 -14 -25 -11 -33 5 -12 0 -15 -25 -12 -18 2 -39 0
-49 -5 -12 -8 -7 -11 26 -17 32 -5 43 -11 47 -30 4 -15 14 -24 26 -24 11 0 20
3 21 8 0 4 2 15 4 25 2 9 0 15 -4 12 -9 -5 -6 31 4 56 3 9 0 21 -8 27 -11 9
-18 8 -31 -7z"/>
<path d="M1505 1607 c-4 -12 -6 -29 -6 -38 1 -9 -8 -19 -21 -23 -14 -4 -19 -9
-12 -13 6 -5 15 -21 21 -38 l10 -30 17 33 c9 17 15 32 12 32 -2 0 0 16 5 35 8
27 7 39 -4 50 -13 12 -16 11 -22 -8z"/>
<path d="M2243 1477 c8 -20 -25 -37 -73 -37 -20 0 -31 -6 -35 -21 -8 -24 2
-39 11 -16 4 12 11 14 31 6 37 -14 46 -11 69 24 18 29 19 35 5 47 -13 13 -14
12 -8 -3z"/>
<path d="M2401 1457 c-15 -19 -4 -27 35 -27 30 0 51 20 37 34 -12 11 -60 6
-72 -7z"/>
<path d="M1972 1420 c13 -21 25 -24 52 -14 30 12 16 30 -24 32 -39 3 -40 2
-28 -18z"/>
<path d="M1951 1383 c-5 -10 -12 -17 -15 -15 -3 1 -7 -1 -8 -5 -2 -3 7 -7 19
-8 12 -1 20 2 18 6 -3 4 2 10 11 13 8 3 12 10 9 16 -9 15 -23 12 -34 -7z"/>
<path d="M2366 1381 c-4 -5 -1 -13 5 -17 9 -5 7 -10 -4 -19 -15 -11 -15 -14 3
-30 19 -17 100 -30 100 -16 0 4 -5 12 -12 19 -7 7 -12 24 -13 39 0 24 -5 27
-37 31 -20 2 -39 -1 -42 -7z"/>
<path d="M2622 1377 c-7 -8 -17 -29 -22 -45 -7 -26 -6 -30 10 -29 10 1 18 5
17 11 -3 17 45 36 65 25 11 -6 24 -8 31 -6 14 4 -45 37 -67 37 -8 0 -16 5 -18
11 -2 7 -8 6 -16 -4z"/>
<path d="M2224 1348 c-3 -5 -14 -8 -25 -8 -10 0 -19 -5 -19 -11 0 -6 13 -9 28
-8 30 4 60 -19 81 -58 9 -18 7 -25 -14 -45 -21 -19 -35 -58 -21 -58 23 0 122
140 109 154 -4 3 -16 6 -28 6 -12 0 -30 9 -40 20 -17 19 -61 24 -71 8z"/>
<path d="M2518 1354 c-11 -10 -10 -52 1 -59 14 -8 18 6 12 38 -3 16 -9 25 -13
21z"/>
<path d="M2625 1197 c-12 -18 -29 -32 -40 -32 -20 0 -22 6 -10 38 10 25 -17
21 -36 -6 -9 -12 -19 -35 -23 -50 -7 -28 -6 -28 31 -21 21 4 54 15 73 25 19
11 40 19 47 19 6 0 15 5 19 12 5 7 3 8 -7 3 -11 -7 -12 -6 -2 6 10 12 10 18 1
27 -19 19 -31 14 -53 -21z"/>
<path d="M3314 1167 c-37 -40 -37 -77 0 -116 51 -54 59 -34 43 111 -5 41 -11
41 -43 5z"/>
<path d="M2475 1130 c-3 -5 -1 -10 4 -10 6 0 11 5 11 10 0 6 -2 10 -4 10 -3 0
-8 -4 -11 -10z"/>
<path d="M3107 1111 c23 -22 39 -28 28 -11 -3 5 -16 15 -28 21 l-22 11 22 -21z"/>
<path d="M2095 1100 c-3 -6 1 -7 9 -4 18 7 21 14 7 14 -6 0 -13 -4 -16 -10z"/>
<path d="M2032 1070 c-10 -16 -10 -20 2 -20 19 0 27 13 17 28 -4 8 -11 5 -19
-8z"/>
<path d="M2263 1071 c-14 -22 -8 -31 19 -31 13 0 17 -4 12 -12 -4 -7 -4 -10 1
-6 4 4 16 3 25 -2 15 -8 18 -6 15 8 -2 9 -4 19 -4 22 -1 4 -18 5 -38 3 -30 -2
-34 -1 -18 6 11 5 16 10 10 10 -5 1 -3 6 5 11 13 9 13 10 0 10 -8 0 -21 -9
-27 -19z"/>
<path d="M2560 945 c-6 -8 -10 -21 -8 -29 2 -11 11 -7 36 15 31 28 32 29 8 29
-13 0 -29 -7 -36 -15z"/>
</g>
</svg>
