<?xml version="1.0" standalone="no"?>
<!DOCTYPE svg PUBLIC "-//W3C//DTD SVG 20010904//EN"
 "http://www.w3.org/TR/2001/REC-SVG-20010904/DTD/svg10.dtd">
<svg version="1.0" xmlns="http://www.w3.org/2000/svg"
 width="450.000000pt" height="253.000000pt" viewBox="0 0 450.000000 253.000000"
 preserveAspectRatio="xMidYMid meet">
<metadata>
Created by potrace 1.16, written by Peter Selinger 2001-2019
</metadata>
<g transform="translate(0.000000,253.000000) scale(0.100000,-0.100000)"
fill="#000000" stroke="none">
<path d="M0 1265 l0 -1265 2250 0 2250 0 0 1265 0 1265 -2250 0 -2250 0 0
-1265z m2640 649 c121 -34 234 -86 303 -138 40 -30 47 -74 17 -101 -23 -21
-28 -11 -5 11 8 8 11 22 8 31 -4 11 -8 13 -11 5 -2 -7 -12 -17 -23 -22 -15 -8
-17 -7 -13 5 3 8 11 12 16 9 6 -4 9 -1 6 7 -5 16 -57 19 -77 5 -11 -8 -13 -8
-8 1 6 9 -2 11 -28 8 -23 -3 -34 -1 -30 5 3 5 1 10 -5 10 -6 0 -8 5 -4 12 4 7
3 8 -5 4 -6 -4 -9 -12 -6 -17 12 -19 -12 -8 -35 16 -21 23 -25 24 -41 9 -16
-15 -25 -15 -151 1 -15 2 -31 5 -35 8 -5 3 -15 1 -23 -4 -13 -9 -13 -10 0 -8
39 4 43 -1 24 -23 -13 -16 -14 -19 -2 -10 11 9 18 10 23 2 3 -6 11 -8 16 -5 5
4 9 -1 9 -11 0 -13 -3 -14 -14 -5 -8 7 -23 11 -33 9 -10 -2 -17 2 -16 8 1 5
-7 15 -17 22 -16 10 -22 8 -38 -13 -11 -14 -22 -25 -25 -25 -11 0 0 30 18 50
19 21 19 23 2 35 -17 12 -25 41 -8 30 5 -3 12 -1 15 4 3 5 19 8 35 7 22 -2 28
2 23 14 -5 13 -3 13 11 1 15 -12 17 -12 12 1 -4 9 1 18 10 22 28 10 8 22 -41
25 -26 1 -51 4 -55 7 -5 3 -17 -1 -28 -8 -15 -9 -17 -15 -9 -26 9 -10 4 -21
-23 -46 -38 -37 -78 -61 -87 -52 -7 8 -42 -24 -42 -39 0 -6 -14 -22 -31 -34
l-31 -23 -14 21 c-9 12 -24 21 -34 21 -10 0 -22 5 -25 10 -3 6 -15 10 -26 10
-10 0 -19 5 -19 11 0 5 -4 7 -10 4 -5 -3 -10 1 -10 9 0 9 3 15 8 14 12 -3 56
13 72 27 9 8 39 12 76 11 39 -1 65 3 73 11 9 10 9 13 0 13 -7 0 -5 8 6 20 10
11 22 17 26 14 5 -3 9 -1 9 4 0 13 59 34 73 25 6 -4 7 -1 2 7 -6 10 0 12 24 8
18 -3 34 -2 36 2 7 11 126 1 185 -16z m-542 -30 c-4 -3 -23 -6 -42 -6 -24 0
-36 -5 -36 -14 0 -8 5 -14 12 -14 6 0 8 -3 5 -6 -4 -4 -12 -2 -19 4 -7 5 -31
14 -53 18 -27 5 -34 9 -23 13 24 8 164 13 156 5z m-265 -22 c-7 -5 -11 -21 -8
-40 2 -18 0 -30 -4 -27 -9 5 -43 -31 -60 -63 -6 -12 -20 -23 -30 -27 -18 -6
-38 -40 -33 -57 1 -5 -4 -8 -12 -8 -17 0 -25 -11 -31 -39 -2 -10 -15 -38 -30
-61 -26 -41 -26 -41 -3 -29 12 7 30 22 40 34 18 23 58 40 58 25 0 -5 -4 -12
-10 -15 -5 -3 -10 -11 -10 -16 0 -6 5 -7 10 -4 6 3 10 -1 10 -9 0 -11 -9 -16
-28 -16 -21 0 -32 -7 -40 -25 l-12 -25 37 15 c20 8 38 14 40 11 2 -2 -1 -25
-8 -52 -6 -27 -11 -62 -11 -78 l1 -30 -12 24 c-9 18 -21 25 -50 26 -21 2 -35
-1 -32 -6 3 -4 -1 -10 -9 -13 -10 -4 -15 4 -18 28 -2 18 0 31 5 28 5 -3 1 7
-9 22 -16 24 -16 33 -5 88 7 34 19 72 27 84 8 12 26 44 41 70 52 95 150 190
198 192 6 0 4 -3 -2 -7z m37 -22 c0 -5 -7 -10 -16 -10 -8 0 -12 5 -9 10 3 6
10 10 16 10 5 0 9 -4 9 -10z m255 -2 c2 -2 -10 -11 -26 -20 -17 -10 -27 -13
-24 -8 3 6 2 10 -4 10 -5 0 -13 -4 -16 -10 -7 -11 -45 -14 -45 -4 0 18 48 42
78 39 18 -2 35 -5 37 -7z m-255 -32 c0 -2 -7 -6 -15 -10 -8 -3 -15 -1 -15 4 0
6 7 10 15 10 8 0 15 -2 15 -4z m403 -51 c-3 -9 -8 -14 -10 -11 -3 3 -2 9 2 15
9 16 15 13 8 -4z m308 -8 c-1 -4 -1 -13 -1 -19 0 -9 -3 -8 -10 2 -5 8 -14 16
-20 16 -19 3 -21 4 -15 14 6 10 47 -1 46 -13z m-301 -31 c0 -15 -24 -28 -34
-19 -7 7 13 33 25 33 5 0 9 -6 9 -14z m630 -62 c0 9 5 14 10 11 8 -5 7 -11 -1
-21 -6 -8 -14 -12 -17 -9 -3 3 -10 1 -16 -4 -7 -6 -11 -2 -11 14 0 22 1 22 18
8 16 -15 17 -15 17 1z m-830 -14 c0 -5 -5 -10 -11 -10 -5 0 -7 5 -4 10 3 6 8
10 11 10 2 0 4 -4 4 -10z m775 -19 c-3 -6 -11 -11 -16 -11 -5 0 -4 6 3 14 14
16 24 13 13 -3z m-155 -61 c0 -5 -7 -6 -17 -3 -11 4 -14 3 -9 -5 4 -7 2 -12
-3 -12 -14 0 -14 13 1 28 12 12 28 7 28 -8z m-1003 -377 c-3 -10 -5 -4 -5 12
0 17 2 24 5 18 2 -7 2 -21 0 -30z m0 -55 c-3 -7 -5 -2 -5 12 0 14 2 19 5 13 2
-7 2 -19 0 -25z m10 -170 c-2 -18 -4 -6 -4 27 0 33 2 48 4 33 2 -15 2 -42 0
-60z m11 -104 c-3 -27 -4 -26 -9 8 -3 22 -1 34 4 29 5 -5 7 -21 5 -37z m-1
-66 c-3 -7 -5 -2 -5 12 0 14 2 19 5 13 2 -7 2 -19 0 -25z m10 -120 c-2 -13 -4
-5 -4 17 -1 22 1 32 4 23 2 -10 2 -28 0 -40z"/>
</g>
</svg>
