<?xml version="1.0" standalone="no"?>
<!DOCTYPE svg PUBLIC "-//W3C//DTD SVG 20010904//EN"
 "http://www.w3.org/TR/2001/REC-SVG-20010904/DTD/svg10.dtd">
<svg version="1.0" xmlns="http://www.w3.org/2000/svg"
 width="450.000000pt" height="253.000000pt" viewBox="0 0 450.000000 253.000000"
 preserveAspectRatio="xMidYMid meet">
<metadata>
Created by potrace 1.16, written by Peter Selinger 2001-2019
</metadata>
<g transform="translate(0.000000,253.000000) scale(0.100000,-0.100000)"
fill="#000000" stroke="none">
<path d="M0 1265 l0 -1265 2250 0 2250 0 0 1265 0 1265 -2250 0 -2250 0 0
-1265z m3065 701 c66 -18 215 -83 237 -103 10 -9 18 -21 18 -27 0 -6 13 -27
28 -46 32 -39 62 -118 62 -162 0 -36 -13 -61 -57 -113 -65 -76 -92 -100 -140
-125 -26 -13 -64 -37 -85 -52 -20 -16 -54 -35 -76 -42 -36 -13 -42 -13 -54 2
-9 11 -10 14 0 8 6 -4 12 -2 12 4 0 6 -8 13 -17 16 -10 3 -26 10 -35 15 -11 5
-19 5 -23 -2 -5 -6 -12 -6 -23 3 -13 11 -15 10 -9 -10 4 -18 2 -22 -10 -18 -8
3 -19 6 -24 6 -6 0 -8 3 -6 8 3 4 -12 7 -33 7 -36 0 -37 -1 -22 -22 19 -31 2
-29 -34 2 -16 14 -21 23 -11 19 9 -3 17 -2 17 3 0 11 -50 38 -63 34 -5 -1 -6
2 -4 6 3 5 -1 14 -9 21 -8 7 -14 10 -14 7 0 -8 -51 39 -61 56 -7 14 -4 17 21
15 16 -1 26 2 23 8 -4 5 1 7 10 3 10 -3 17 -2 17 2 0 5 7 11 14 14 11 4 13 1
10 -11 -5 -13 -4 -14 4 -3 6 8 15 10 23 5 11 -6 11 -4 0 10 -21 25 5 17 37
-11 20 -18 28 -20 45 -11 20 10 20 11 -4 23 -16 9 -26 10 -30 3 -4 -7 -9 -7
-13 0 -8 13 13 20 47 17 15 -2 27 1 27 7 0 6 -7 8 -15 4 -8 -3 -15 -1 -15 3 0
5 -8 8 -17 7 -10 -2 -21 1 -24 6 -4 6 -29 11 -57 11 -27 1 -48 4 -47 7 2 3
-10 12 -26 19 -16 7 -29 19 -29 27 0 8 -4 14 -9 14 -4 0 -6 11 -3 25 3 16 -2
33 -12 44 -17 18 -16 22 8 74 33 69 33 77 -1 68 -16 -5 -27 -14 -25 -20 1 -7
-2 -9 -9 -5 -15 9 40 56 58 50 6 -3 17 3 25 12 9 11 10 14 1 8 -7 -4 -13 -3
-13 3 0 17 45 41 122 67 86 27 214 32 293 10z m-655 -53 c0 -5 9 -9 20 -10 11
-1 18 3 14 8 -3 6 9 9 30 7 20 -1 36 -7 36 -13 0 -6 3 -6 8 1 4 7 18 8 40 2
60 -16 37 -33 -84 -64 -114 -28 -117 -30 -120 -58 -4 -36 -20 -48 -56 -42 -15
3 -30 1 -33 -4 -9 -14 -25 -12 -25 3 0 21 -55 58 -68 45 -8 -8 -7 -15 3 -25 8
-7 12 -20 9 -28 -7 -18 -24 -10 -24 12 0 8 -13 32 -29 52 -26 33 -28 38 -15
56 19 26 18 35 -5 35 -37 0 -31 19 6 22 86 8 293 8 293 1z m-316 -39 c18 -18
11 -38 -10 -30 -20 8 -26 -10 -9 -27 22 -23 19 -44 -3 -24 -23 21 -31 21 -49
0 -8 -10 -11 -12 -7 -4 3 7 1 17 -6 21 -20 12 6 68 33 73 12 2 25 5 29 6 4 0
14 -6 22 -15z m32 -133 c-10 -16 -23 -14 -30 5 -9 25 4 38 21 21 9 -8 12 -20
9 -26z m-44 -46 c-20 -12 -41 -19 -47 -16 -13 7 -47 1 -63 -11 -7 -6 -15 -9
-17 -6 -10 9 74 58 100 58 14 0 25 5 25 10 0 6 8 5 19 -2 19 -11 18 -13 -17
-33z m53 -16 c6 -17 9 -18 23 -7 13 10 13 7 -1 -9 -16 -18 -24 -20 -44 -12
-13 5 -29 7 -34 3 -5 -3 -9 2 -9 11 0 8 10 20 23 25 32 13 35 12 42 -11z
m-168 -65 c-5 -27 1 -30 17 -10 14 17 63 29 71 17 7 -12 -31 -25 -45 -16 -5 3
-10 -3 -10 -15 0 -14 4 -19 13 -14 9 6 9 5 0 -8 -7 -8 -10 -18 -6 -21 3 -4 -5
-7 -19 -7 -14 0 -28 -6 -31 -13 -4 -10 2 -13 20 -9 27 5 26 -2 -2 -38 -7 -8
-15 -23 -18 -33 -6 -17 -4 -16 22 3 l30 20 -16 -39 c-9 -22 -28 -52 -43 -66
l-28 -26 -1 94 c-2 94 13 187 30 187 5 0 5 7 2 17 -5 11 -3 14 6 8 7 -4 11
-18 8 -31z m128 6 c3 -6 -1 -7 -9 -4 -18 7 -21 14 -7 14 6 0 13 -4 16 -10z
m879 -341 c3 -3 -11 -6 -32 -7 -28 -1 -32 1 -17 7 21 9 41 9 49 0z"/>
<path d="M2900 1541 c-8 -6 -18 -7 -24 -4 -5 3 -6 1 -2 -5 5 -9 13 -9 27 -2
10 6 19 13 19 15 0 7 -3 6 -20 -4z"/>
<path d="M2939 1536 c8 -10 25 -16 40 -14 14 1 31 -1 38 -5 11 -7 30 10 20 19
-11 11 -47 12 -47 1 0 -7 -4 -6 -10 3 -7 11 -10 11 -10 2 0 -10 -5 -10 -22 -1
-21 11 -22 11 -9 -5z"/>
<path d="M3000 1513 c0 -6 -11 -8 -25 -5 -16 3 -34 -2 -47 -14 -12 -11 -18
-13 -14 -6 4 6 2 12 -3 12 -6 0 -11 -4 -11 -10 0 -5 -7 -10 -15 -10 -8 0 -15
5 -15 11 0 5 -5 7 -10 4 -6 -4 -8 -11 -4 -16 3 -5 2 -9 -3 -8 -18 3 -33 -1
-33 -10 0 -5 36 -8 80 -6 44 1 80 -2 80 -7 0 -5 -4 -7 -9 -3 -5 3 -12 1 -16
-5 -4 -6 -10 -8 -14 -6 -4 3 -13 1 -21 -5 -11 -6 -6 -9 18 -9 17 0 32 -4 32
-9 0 -5 11 -8 24 -5 15 2 29 -3 37 -14 13 -16 13 -16 -6 -2 -19 14 -19 14 -6
-2 7 -10 19 -18 26 -18 8 0 15 -5 17 -12 3 -7 12 -9 22 -5 9 4 14 11 11 17 -4
6 -11 7 -17 4 -6 -4 -8 1 -6 11 2 12 19 22 51 30 26 6 47 10 47 7 0 -3 8 2 18
10 9 9 27 19 40 22 30 10 31 46 0 38 -12 -3 -19 -1 -15 4 3 6 -32 9 -91 8 -53
0 -103 3 -109 9 -9 6 -13 6 -13 0z"/>
<path d="M2765 1480 c-7 -12 18 -24 37 -18 8 3 5 9 -9 16 -14 8 -24 9 -28 2z"/>
<path d="M2640 1461 c0 -5 5 -13 10 -16 6 -3 10 -2 10 4 0 5 -4 13 -10 16 -5
3 -10 2 -10 -4z"/>
<path d="M2150 1816 c0 -8 5 -18 10 -21 6 -3 10 1 10 9 0 8 -4 18 -10 21 -5 3
-10 -1 -10 -9z"/>
<path d="M1961 1568 c-1 -20 14 -24 25 -6 4 6 3 8 -4 4 -5 -3 -13 0 -15 6 -3
8 -6 6 -6 -4z"/>
</g>
</svg>
