<?xml version="1.0" standalone="no"?>
<!DOCTYPE svg PUBLIC "-//W3C//DTD SVG 20010904//EN"
 "http://www.w3.org/TR/2001/REC-SVG-20010904/DTD/svg10.dtd">
<svg version="1.0" xmlns="http://www.w3.org/2000/svg"
 width="450.000000pt" height="253.000000pt" viewBox="0 0 450.000000 253.000000"
 preserveAspectRatio="xMidYMid meet">
<metadata>
Created by potrace 1.16, written by Peter Selinger 2001-2019
</metadata>
<g transform="translate(0.000000,253.000000) scale(0.100000,-0.100000)"
fill="#000000" stroke="none">
<path d="M0 1265 l0 -1265 2250 0 2250 0 0 1265 0 1265 -2250 0 -2250 0 0
-1265z m2693 1226 c13 -5 66 -10 118 -12 108 -3 142 -17 197 -80 63 -71 82
-126 98 -276 5 -45 11 -64 23 -67 93 -27 100 -27 123 -6 43 40 126 47 217 18
19 -6 76 -30 127 -54 94 -43 146 -84 159 -123 3 -12 10 -21 15 -21 15 0 3
-115 -17 -151 -21 -38 -170 -186 -225 -224 -19 -13 -58 -30 -84 -36 -27 -7
-64 -19 -82 -26 l-33 -14 32 -36 c56 -64 87 -146 98 -260 6 -60 7 -112 2 -125
-9 -24 -75 -84 -84 -77 -3 2 -13 -3 -23 -12 -23 -20 -98 -37 -202 -45 -118 -9
-398 45 -447 86 -7 6 -22 13 -34 15 -22 4 -28 -14 -34 -110 -3 -42 -4 -40 -5
17 -2 60 -4 67 -19 61 -26 -10 -42 -34 -43 -63 0 -18 -17 -42 -52 -77 -59 -56
-122 -83 -197 -83 -55 0 -189 51 -219 83 -30 33 -108 187 -116 229 -4 20 -13
39 -22 42 -10 4 -13 13 -8 30 8 35 -4 51 -24 33 -35 -30 -75 -29 -50 0 16 19
-5 33 -52 33 -80 0 -212 50 -289 108 -35 27 -98 128 -93 150 2 7 -4 22 -13 34
-28 40 -19 90 28 159 38 57 136 147 162 149 6 0 21 9 34 19 l23 18 -46 37
c-159 131 -228 390 -122 455 92 57 334 64 454 14 26 -11 70 -15 144 -15 l108
0 32 34 c50 53 122 107 175 130 94 42 212 59 266 39z m-66 -1793 c-2 -18 -4
-4 -4 32 0 36 2 50 4 33 2 -18 2 -48 0 -65z m-10 -100 c-2 -13 -4 -3 -4 22 0
25 2 35 4 23 2 -13 2 -33 0 -45z"/>
<path d="M2286 2042 c-8 -8 -14 -9 -48 -11 -21 -1 -21 -2 -6 -18 16 -15 30
-16 106 -11 6 1 12 8 12 15 0 8 4 12 8 9 5 -3 9 1 9 9 0 8 -5 11 -11 7 -18
-11 -40 -12 -52 -2 -6 6 -14 6 -18 2z m0 -30 c-17 -16 -18 -16 -5 5 7 12 15
20 18 17 3 -2 -3 -12 -13 -22z"/>
<path d="M2400 2010 c-13 -8 -12 -10 3 -10 9 0 17 5 17 10 0 12 -1 12 -20 0z"/>
<path d="M2677 1889 c7 -7 15 -10 18 -7 3 3 -2 9 -12 12 -14 6 -15 5 -6 -5z"/>
<path d="M2450 1857 c0 -14 4 -28 9 -32 6 -3 8 6 5 22 -7 37 -14 42 -14 10z"/>
<path d="M2811 1814 c0 -11 3 -14 6 -6 3 7 2 16 -1 19 -3 4 -6 -2 -5 -13z"/>
<path d="M2418 1779 c-21 -12 -24 -39 -5 -39 7 0 4 -5 -5 -11 -19 -11 -21 -55
-4 -78 6 -7 15 -23 21 -34 6 -12 25 -25 42 -30 38 -11 53 -37 21 -37 -16 0
-18 -3 -9 -14 7 -8 9 -25 5 -40 -6 -25 -5 -26 45 -26 29 0 51 5 51 11 0 5 5 7
11 4 7 -5 8 5 4 29 -6 32 -4 37 16 45 21 7 17 10 -34 21 -46 11 -66 22 -107
62 -53 52 -59 64 -36 82 17 13 25 58 11 62 -5 2 -18 -1 -27 -7z"/>
<path d="M1838 1707 c-12 -10 -14 -17 -6 -31 8 -13 7 -17 0 -12 -14 8 -63 -16
-83 -40 -8 -10 -9 -15 -3 -11 7 4 14 -1 17 -12 4 -16 -1 -17 -34 -14 -27 3
-39 1 -39 -8 0 -7 3 -10 6 -7 3 4 21 0 39 -8 25 -10 34 -11 37 -2 3 7 7 5 11
-6 4 -9 3 -15 -1 -13 -4 3 -12 -1 -19 -8 -15 -16 3 -25 48 -25 26 0 34 9 30
33 0 4 3 7 9 7 5 0 7 6 4 14 -3 8 0 17 6 21 8 5 8 11 -1 21 -6 8 -8 14 -4 14
4 0 2 7 -5 15 -10 12 -10 15 4 15 19 0 21 31 4 49 -11 10 -9 11 6 5 13 -5 17
-4 12 4 -9 15 -17 15 -38 -1z m20 -42 c-3 -3 -9 2 -12 12 -6 14 -5 15 5 6 7
-7 10 -15 7 -18z"/>
<path d="M2350 1705 c14 -7 27 -11 30 -9 6 7 -22 24 -40 23 -9 0 -5 -6 10 -14z"/>
<path d="M2180 1691 c0 -26 29 -54 47 -47 8 3 19 6 24 6 5 0 9 5 9 11 0 5 -4
7 -10 4 -5 -3 -21 5 -35 19 -31 31 -35 32 -35 7z"/>
<path d="M2668 1650 c-32 -33 -38 -73 -11 -68 13 2 63 78 63 95 0 12 -29 -3
-52 -27z"/>
<path d="M1501 1596 c-9 -11 -9 -16 0 -22 8 -5 3 -12 -15 -21 -22 -12 -25 -17
-16 -34 6 -10 8 -24 5 -29 -3 -5 0 -12 6 -16 8 -4 9 -3 5 4 -4 7 -3 12 3 12
11 0 23 32 26 71 1 15 5 32 9 38 10 16 -9 14 -23 -3z"/>
<path d="M2384 1575 c8 -22 -3 -45 -20 -38 -8 3 -11 9 -8 14 3 5 11 6 17 3 9
-5 9 -4 1 5 -24 27 -95 22 -73 -5 14 -17 33 -19 23 -2 -5 7 -3 8 5 4 9 -6 9
-12 -3 -25 -13 -15 -10 -16 37 -18 33 -2 59 3 71 12 19 14 14 35 -9 35 -7 0
-15 7 -19 15 -3 8 -10 15 -17 15 -6 0 -9 -7 -5 -15z"/>
<path d="M2165 1471 c7 -22 0 -28 -40 -35 -16 -3 -36 -12 -44 -21 -14 -13 -11
-15 31 -15 37 0 48 4 53 19 3 11 15 23 26 26 22 7 26 25 4 25 -8 0 -15 5 -15
10 0 6 -5 10 -11 10 -6 0 -8 -8 -4 -19z"/>
<path d="M2352 1454 c-31 -22 -27 -34 12 -34 36 0 58 26 34 42 -18 11 -20 10
-46 -8z"/>
<path d="M1923 1433 c-7 -2 -9 -11 -6 -18 3 -9 -8 -20 -30 -31 -42 -20 -39
-42 3 -36 17 2 30 7 30 11 1 3 12 20 26 36 15 17 23 24 20 18 -4 -8 -1 -13 8
-13 15 0 32 18 24 25 -7 7 -63 13 -75 8z"/>
<path d="M2250 1399 c0 -10 10 -19 25 -21 14 -3 25 -1 25 3 0 8 -8 11 -26 8
-4 0 -11 5 -15 13 -7 10 -9 9 -9 -3z"/>
<path d="M2312 1359 c3 -16 1 -30 -3 -31 -19 -7 12 -30 45 -35 l38 -5 -4 43
c-3 42 -5 44 -42 50 -37 6 -38 6 -34 -22z"/>
<path d="M2550 1366 c0 -9 5 -16 10 -16 6 0 10 4 10 9 0 6 -4 13 -10 16 -5 3
-10 -1 -10 -9z"/>
<path d="M2600 1356 c0 -2 7 -7 16 -10 8 -3 12 -2 9 4 -6 10 -25 14 -25 6z"/>
<path d="M2135 1336 c-29 -12 -29 -13 -8 -20 13 -4 28 -4 35 1 23 14 37 12 31
-5 -4 -9 -2 -13 4 -9 6 4 17 -1 24 -10 10 -12 10 -14 2 -9 -17 10 -16 -2 1
-19 7 -8 17 -11 21 -7 4 4 0 -6 -10 -21 -10 -15 -26 -32 -35 -37 -20 -11 -21
-51 -2 -58 6 -2 12 4 12 12 0 9 7 19 15 23 9 3 29 31 45 63 l29 57 -25 11
c-18 9 -24 9 -24 -1 -1 -7 -6 -5 -14 5 -7 10 -16 15 -20 11 -4 -4 -4 0 0 10 5
14 1 17 -22 17 -16 -1 -42 -7 -59 -14z"/>
<path d="M2451 1328 c-9 -24 -3 -54 8 -43 7 7 11 65 5 65 -3 0 -8 -10 -13 -22z"/>
<path d="M2590 1223 c0 -17 -46 -64 -67 -68 -20 -3 -21 -1 -11 21 6 13 9 27 5
30 -10 10 -67 -36 -67 -54 0 -24 16 -46 24 -34 3 6 14 8 24 5 11 -2 34 5 53
16 19 12 43 21 54 21 17 0 17 2 5 10 -10 6 -11 10 -2 10 16 0 15 18 -3 36 -8
9 -15 12 -15 7z"/>
<path d="M2820 1201 c0 -5 5 -13 10 -16 6 -3 10 -2 10 4 0 5 -4 13 -10 16 -5
3 -10 2 -10 -4z"/>
<path d="M2657 1189 c7 -7 15 -10 18 -7 3 3 -2 9 -12 12 -14 6 -15 5 -6 -5z"/>
<path d="M3283 1180 c-35 -37 -34 -78 4 -120 23 -26 70 -50 57 -29 -3 5 -1 9
5 9 14 0 3 58 -16 88 -7 12 -11 28 -7 34 4 6 3 8 -4 4 -6 -4 -12 3 -14 16 l-3
23 -22 -25z"/>
<path d="M2690 1176 c0 -2 7 -7 16 -10 8 -3 12 -2 9 4 -6 10 -25 14 -25 6z"/>
<path d="M2410 1120 c0 -5 4 -10 9 -10 6 0 13 5 16 10 3 6 -1 10 -9 10 -9 0
-16 -4 -16 -10z"/>
<path d="M2034 1089 c-33 -22 -19 -26 21 -5 14 8 22 16 18 19 -5 3 -22 -3 -39
-14z"/>
<path d="M3090 1106 c0 -2 8 -10 18 -17 15 -13 16 -12 3 4 -13 16 -21 21 -21
13z"/>
<path d="M2197 1075 c-21 -15 -6 -31 33 -37 19 -2 24 -8 22 -25 -3 -21 32 -52
41 -36 10 21 -26 73 -51 73 -8 0 -12 6 -9 14 8 20 -15 27 -36 11z m90 -80 c0
-8 -4 -12 -9 -9 -5 3 -6 10 -3 15 9 13 12 11 12 -6z"/>
<path d="M2737 1072 c2 -10 10 -19 18 -19 10 0 11 4 2 19 -7 10 -15 18 -18 18
-4 0 -5 -8 -2 -18z"/>
<path d="M2020 1049 c0 -5 5 -7 10 -4 6 3 10 8 10 11 0 2 -4 4 -10 4 -5 0 -10
-5 -10 -11z"/>
<path d="M2341 934 c0 -11 3 -14 6 -6 3 7 2 16 -1 19 -3 4 -6 -2 -5 -13z"/>
<path d="M2548 936 c-20 -14 -24 -36 -8 -36 6 0 10 6 10 13 0 8 10 19 23 25
13 6 16 11 7 11 -8 0 -23 -6 -32 -13z"/>
</g>
</svg>
