<?xml version="1.0" standalone="no"?>
<!DOCTYPE svg PUBLIC "-//W3C//DTD SVG 20010904//EN"
 "http://www.w3.org/TR/2001/REC-SVG-20010904/DTD/svg10.dtd">
<svg version="1.0" xmlns="http://www.w3.org/2000/svg"
 width="450.000000pt" height="253.000000pt" viewBox="0 0 450.000000 253.000000"
 preserveAspectRatio="xMidYMid meet">
<metadata>
Created by potrace 1.16, written by Peter Selinger 2001-2019
</metadata>
<g transform="translate(0.000000,253.000000) scale(0.100000,-0.100000)"
fill="#000000" stroke="none">
<path d="M0 1265 l0 -1265 2250 0 2250 0 0 1265 0 1265 -2250 0 -2250 0 0
-1265z m2964 668 c43 -14 84 -29 90 -34 6 -5 47 -37 91 -71 44 -35 82 -67 84
-72 2 -5 11 -16 21 -26 58 -58 64 -129 12 -167 -46 -34 -70 -44 -77 -33 -4 6
-3 9 2 8 14 -5 54 29 51 43 -2 7 3 14 10 15 6 1 17 2 22 3 6 0 10 7 10 15 0
16 -53 31 -71 20 -7 -4 -9 -3 -5 4 7 11 -31 11 -51 -1 -5 -3 -25 -8 -44 -11
-19 -2 -43 -8 -53 -12 -15 -6 -17 -4 -11 7 7 11 6 12 -6 3 -8 -6 -44 -9 -84
-7 -38 2 -85 4 -103 4 -25 0 -36 6 -44 24 -8 18 -18 23 -38 22 -17 -1 -26 -6
-22 -12 4 -6 -1 -2 -10 8 -10 11 -18 15 -18 10 0 -5 -16 -8 -35 -7 -26 2 -34
0 -28 -9 4 -7 -16 8 -43 33 l-51 45 2 77 c0 43 -1 78 -3 78 -2 0 -12 -4 -22
-10 -15 -8 -17 -16 -10 -44 4 -18 11 -40 16 -47 6 -10 3 -10 -11 1 -17 14 -18
13 -12 -4 7 -17 6 -17 -10 -5 -15 12 -16 12 -10 -3 3 -10 2 -18 -4 -18 -6 0
-7 -5 -4 -10 4 -7 -3 -8 -21 -4 -21 5 -25 4 -19 -6 5 -9 4 -11 -4 -6 -6 4 -18
3 -25 -3 -10 -9 -15 -8 -19 3 -6 15 46 86 81 114 9 7 15 16 13 20 -7 13 147
84 200 91 79 11 173 2 263 -26z m-776 -32 c29 -4 55 -4 58 1 3 4 17 8 31 8 15
0 23 -3 19 -7 -3 -4 4 -13 16 -20 16 -8 18 -13 8 -14 -8 0 -27 -2 -41 -3 -14
-2 -31 -6 -37 -10 -6 -3 -13 -2 -17 3 -3 6 -12 8 -21 4 -26 -10 5 -25 50 -24
10 0 28 -7 40 -15 20 -14 20 -14 1 -14 -18 -1 -18 -2 -3 -11 14 -8 15 -14 6
-33 -12 -27 -34 -36 -90 -36 -20 0 -39 -6 -41 -12 -4 -9 -6 -8 -6 3 -1 8 5 21
12 28 10 11 9 12 -1 7 -7 -4 -19 -2 -27 4 -8 7 -15 9 -15 6 0 -4 -7 0 -16 8
-8 9 -24 16 -35 16 -24 0 -25 27 -1 34 9 2 -2 2 -25 0 -34 -4 -42 -2 -37 10 3
7 0 17 -5 21 -6 3 -9 10 -6 15 3 6 -13 13 -37 17 -42 7 -42 7 -13 14 41 9 168
9 233 0z m232 -22 c0 -5 -4 -9 -10 -9 -5 0 -9 -5 -7 -12 1 -6 -6 -14 -15 -16
-11 -2 -18 2 -18 12 0 8 -8 17 -17 19 -10 3 -3 5 15 6 19 1 31 5 27 11 -3 6 1
7 9 4 9 -3 16 -10 16 -15z m35 -17 c-8 -9 -25 20 -18 31 3 5 10 2 15 -7 6 -10
7 -20 3 -24z m-550 20 c6 -4 10 -19 10 -34 -1 -15 2 -25 6 -22 4 2 9 -3 13
-11 4 -11 -2 -14 -24 -11 -16 2 -36 8 -44 15 -17 14 -15 49 4 61 18 12 22 12
35 2z m-102 -154 c-39 -41 -47 -34 -17 12 19 29 30 37 35 28 5 -8 -2 -23 -18
-40z m252 22 c3 -5 1 -10 -4 -10 -6 0 -11 5 -11 10 0 6 2 10 4 10 3 0 8 -4 11
-10z m-121 -8 c-5 -4 -12 -11 -15 -15 -3 -5 -9 -2 -12 5 -3 9 3 14 15 15 11 1
16 -1 12 -5z m66 -13 c0 -6 -4 -7 -10 -4 -5 3 -10 11 -10 16 0 6 5 7 10 4 6
-3 10 -11 10 -16z m-25 -20 c-4 -5 -13 -9 -21 -9 -8 0 -14 -7 -14 -15 0 -11 5
-12 26 -5 31 12 44 6 44 -21 0 -17 -5 -19 -37 -15 -21 2 -51 9 -66 15 -40 15
-90 14 -113 -4 -12 -9 -14 -14 -6 -15 10 0 9 -4 -2 -16 -9 -8 -14 -20 -11 -25
4 -5 1 -9 -6 -9 -7 0 -10 -2 -7 -5 8 -8 39 6 33 15 -6 10 83 25 92 16 4 -3 1
-12 -7 -19 -8 -8 -11 -8 -6 0 4 8 0 8 -18 0 -19 -9 -24 -18 -21 -39 3 -25 1
-28 -28 -28 -29 -1 -30 -2 -12 -12 11 -6 21 -12 23 -14 2 -1 -4 -14 -13 -28
-16 -24 -16 -26 -1 -26 20 0 20 -22 1 -59 -19 -37 -34 -42 -70 -22 l-30 16 0
95 c0 93 15 148 36 135 8 -6 14 16 10 39 -2 12 33 36 39 26 3 -5 27 2 54 16
32 16 52 21 60 15 7 -6 20 -5 36 4 26 14 45 11 35 -6z m820 -60 c11 -16 1 -19
-13 -3 -7 8 -8 14 -3 14 5 0 13 -5 16 -11z m355 -139 c0 -14 -83 -49 -109 -47
-15 1 -17 4 -9 14 6 7 16 13 22 13 6 0 4 -5 -4 -10 -9 -6 -10 -10 -3 -10 7 0
16 6 20 13 4 7 22 17 38 24 40 15 45 15 45 3z m-145 -71 c-8 -12 -32 -12 -39
0 -4 5 4 7 16 3 16 -4 19 -2 13 8 -5 9 -4 11 4 6 6 -4 9 -12 6 -17z"/>
<path d="M2620 1695 c0 -2 6 -8 13 -14 10 -8 14 -7 14 2 0 8 -6 14 -14 14 -7
0 -13 -1 -13 -2z"/>
</g>
</svg>
