<?xml version="1.0" standalone="no"?>
<!DOCTYPE svg PUBLIC "-//W3C//DTD SVG 20010904//EN"
 "http://www.w3.org/TR/2001/REC-SVG-20010904/DTD/svg10.dtd">
<svg version="1.0" xmlns="http://www.w3.org/2000/svg"
 width="450.000000pt" height="253.000000pt" viewBox="0 0 450.000000 253.000000"
 preserveAspectRatio="xMidYMid meet">
<metadata>
Created by potrace 1.16, written by Peter Selinger 2001-2019
</metadata>
<g transform="translate(0.000000,253.000000) scale(0.100000,-0.100000)"
fill="#000000" stroke="none">
<path d="M0 1265 l0 -1265 2250 0 2250 0 0 1265 0 1265 -2250 0 -2250 0 0
-1265z m3243 695 c103 -26 123 -34 169 -72 68 -56 76 -65 89 -113 6 -22 18
-63 27 -92 15 -49 15 -54 -3 -87 -18 -33 -18 -38 -3 -68 30 -63 32 -95 7 -136
-46 -77 -87 -106 -167 -116 -41 -6 -114 -26 -181 -51 -62 -23 -103 -25 -129
-9 -12 8 -27 12 -32 9 -5 -3 -12 -1 -15 5 -5 8 -12 7 -23 -2 -13 -10 -14 -10
-8 0 6 9 1 11 -18 8 -19 -3 -23 -1 -19 11 5 12 7 12 14 1 7 -11 9 -11 9 1 0
10 3 11 14 2 10 -9 16 -9 21 -1 4 6 4 14 1 17 -3 4 -6 1 -6 -7 0 -10 -3 -10
-15 0 -8 7 -15 10 -15 6 0 -3 -17 1 -37 9 -21 9 -39 12 -41 7 -4 -13 -100 16
-134 39 -14 11 -31 19 -36 19 -13 0 -79 76 -99 114 -8 15 -10 25 -5 22 6 -3
13 1 16 10 5 13 9 14 21 4 13 -11 14 -10 6 11 -5 13 -14 23 -21 21 -6 -1 -9 2
-5 8 3 5 1 10 -4 10 -6 0 -11 5 -11 10 0 10 43 4 65 -9 6 -3 2 2 -8 12 -11 9
-26 17 -34 17 -8 0 -11 5 -8 10 6 9 -8 14 -27 11 -15 -2 -8 28 9 38 14 8 15
12 4 25 -7 9 -10 16 -5 16 4 0 3 5 -4 12 -17 17 -15 36 7 66 25 35 25 39 8 66
-13 19 -13 23 -2 23 8 0 12 -4 9 -8 -2 -4 0 -10 5 -14 6 -3 8 4 6 16 -2 12 2
28 10 36 8 8 15 21 15 28 0 18 34 35 137 69 153 50 226 49 446 -4z m-715 -54
c35 -3 72 -11 83 -17 20 -10 20 -11 2 -24 -10 -8 -31 -15 -47 -15 -16 0 -45
-4 -65 -10 -20 -5 -55 -14 -78 -20 -34 -9 -43 -15 -48 -40 -8 -36 -11 -38 -69
-49 -32 -6 -46 -5 -46 3 0 14 -49 61 -56 53 -3 -3 0 -14 7 -25 13 -21 5 -57
-11 -47 -5 3 -10 16 -10 28 -1 26 -55 93 -64 79 -3 -5 3 -20 14 -32 21 -25 25
-47 11 -69 -10 -16 24 -55 39 -46 11 7 14 -28 4 -38 -3 -3 -18 -1 -33 5 -14 6
-35 11 -46 12 -11 1 -19 6 -18 12 1 5 -15 10 -35 9 -34 0 -37 -2 -37 -30 0
-22 4 -29 15 -26 38 10 71 13 87 7 24 -9 4 -25 -35 -28 -38 -3 -51 -15 -28
-24 9 -3 16 -13 16 -21 0 -8 5 -11 12 -7 6 4 8 3 4 -4 -3 -6 -22 -9 -41 -8
-19 2 -38 0 -41 -5 -3 -5 -2 -9 3 -8 30 5 35 -1 19 -26 -20 -30 -20 -36 0 -28
11 4 14 0 12 -18 -2 -13 -7 -30 -11 -36 -5 -7 -6 -16 -3 -21 6 -11 -49 -41
-62 -33 -26 16 31 341 60 341 4 0 23 14 43 31 19 17 35 28 35 25 0 -3 0 -9 0
-13 0 -5 -4 -8 -10 -8 -8 0 -15 -14 -7 -16 14 -3 35 17 34 34 -2 29 -27 48
-54 42 -15 -4 -23 1 -28 15 -15 47 44 90 135 98 30 2 56 5 57 6 4 4 232 -3
291 -8z m-218 -296 c0 -5 -2 -10 -4 -10 -3 0 -8 5 -11 10 -3 6 -1 10 4 10 6 0
11 -4 11 -10z m-219 -196 c-5 -16 -10 -21 -10 -12 -1 18 10 51 15 45 2 -1 -1
-16 -5 -33z"/>
<path d="M3063 1392 c-21 -3 -33 -20 -15 -23 58 -10 89 -5 89 14 0 12 -29 15
-74 9z"/>
<path d="M3104 1305 c-10 -8 -29 -15 -41 -15 -13 0 -23 -4 -23 -9 0 -15 18
-22 25 -10 4 5 13 8 21 5 8 -3 14 -1 14 5 0 6 8 6 21 -1 25 -14 30 -11 22 18
-6 26 -12 27 -39 7z"/>
</g>
</svg>
