<?xml version="1.0" standalone="no"?>
<!DOCTYPE svg PUBLIC "-//W3C//DTD SVG 20010904//EN"
 "http://www.w3.org/TR/2001/REC-SVG-20010904/DTD/svg10.dtd">
<svg version="1.0" xmlns="http://www.w3.org/2000/svg"
 width="450.000000pt" height="253.000000pt" viewBox="0 0 450.000000 253.000000"
 preserveAspectRatio="xMidYMid meet">
<metadata>
Created by potrace 1.16, written by Peter Selinger 2001-2019
</metadata>
<g transform="translate(0.000000,253.000000) scale(0.100000,-0.100000)"
fill="#000000" stroke="none">
<path d="M0 1265 l0 -1265 2250 0 2250 0 0 1265 0 1265 -2250 0 -2250 0 0
-1265z m2065 608 c-16 -3 -33 -10 -37 -16 -6 -9 -8 -8 -8 1 0 10 -4 9 -16 -3
-12 -11 -20 -13 -29 -5 -7 6 -23 13 -35 15 -51 10 -28 15 61 14 52 -1 81 -4
64 -6z m590 -4 c-4 -6 5 -8 24 -4 16 3 33 1 36 -5 3 -5 14 -10 23 -10 31 0
212 -84 199 -92 -7 -5 -2 -8 14 -8 15 0 29 -7 33 -15 3 -8 12 -15 21 -15 8 0
15 -5 15 -12 0 -6 3 -9 6 -5 3 3 22 -9 41 -28 31 -31 35 -38 29 -70 -4 -19 -9
-35 -11 -35 -2 0 -12 -3 -22 -6 -15 -6 -14 -3 5 15 32 31 26 51 -13 41 -25 -6
-129 8 -164 22 -14 6 -33 12 -41 14 -8 2 -20 11 -27 21 -16 22 -37 44 -57 61
-13 10 -16 10 -16 -1 0 -7 5 -18 12 -25 9 -9 6 -12 -13 -12 -14 0 -29 3 -32 7
-11 10 -128 12 -121 2 3 -5 16 -9 29 -9 30 0 37 -11 19 -28 -8 -7 -14 -9 -14
-4 0 5 -10 8 -22 7 -14 -2 -22 -8 -20 -16 3 -11 1 -11 -9 -2 -8 8 -18 9 -31 2
-13 -7 -20 -6 -24 4 -3 9 -17 13 -35 12 -41 -4 -46 12 -15 44 29 30 24 41 -21
55 -33 11 -28 34 12 53 19 9 31 21 28 26 -4 6 -1 7 8 1 8 -5 28 -10 44 -11 17
-1 40 -4 52 -7 35 -7 37 11 3 23 -17 5 -30 11 -30 13 0 2 20 4 45 5 29 2 44
-1 40 -8z m-820 -9 c-3 -5 3 -10 14 -10 24 0 25 -1 9 -35 -6 -14 -17 -25 -25
-25 -7 0 -13 -5 -13 -12 0 -6 -6 -3 -14 7 -8 11 -12 25 -9 32 3 7 -1 13 -8 13
-9 1 -5 8 10 20 25 21 46 27 36 10z m495 -4 c0 6 7 11 15 11 8 0 15 -4 15 -9
0 -5 9 -7 20 -3 25 8 41 -1 33 -21 -7 -18 -123 -75 -136 -67 -6 4 -7 1 -2 -7
6 -10 4 -12 -9 -7 -14 6 -15 3 -6 -14 16 -28 4 -58 -20 -52 -11 3 -17 9 -14
14 9 15 -23 10 -36 -6 -16 -20 -28 -19 -26 1 1 11 -9 18 -28 21 -15 2 -41 13
-56 25 -16 11 -34 17 -42 13 -7 -3 -3 2 10 13 31 28 28 34 -13 28 -28 -5 -35
-3 -35 10 0 12 6 15 23 11 20 -5 20 -5 5 7 -22 17 -23 27 -2 19 9 -3 30 -7 48
-8 17 -2 36 -3 41 -4 6 -1 -1 -11 -14 -21 -17 -15 -19 -20 -8 -20 9 0 18 4 21
9 4 5 25 9 49 9 23 0 44 1 47 2 25 8 78 6 89 -3 11 -9 13 -9 8 0 -4 6 -4 13 0
16 5 2 2 2 -4 1 -7 -2 -13 0 -13 5 0 4 -18 7 -40 5 -22 -2 -42 0 -44 4 -4 7
28 13 82 15 12 1 22 6 22 12 0 5 5 3 10 -5 5 -8 10 -10 10 -4z m145 2 c5 4 5
1 1 -6 -6 -10 -11 -10 -22 -1 -8 6 -14 14 -14 16 0 3 6 0 13 -6 8 -6 18 -7 22
-3z m-690 -67 c3 -14 0 -19 -7 -15 -8 5 -9 1 -5 -10 4 -10 3 -15 -3 -11 -6 3
-14 -5 -20 -19 -7 -20 -17 -26 -38 -26 -16 0 -37 -9 -47 -20 -18 -19 -17 -20
4 -20 15 0 20 4 15 13 -4 7 -3 9 2 4 5 -5 9 -12 9 -15 0 -4 4 -13 8 -19 6 -10
-2 -13 -29 -13 -21 0 -34 -3 -31 -7 4 -3 -1 -12 -11 -20 -15 -11 -14 -12 10
-4 23 9 26 7 25 -9 -1 -11 -9 -23 -19 -26 -10 -3 -18 -9 -18 -13 0 -15 -42
-61 -50 -56 -5 3 -5 18 1 33 6 15 13 36 15 46 7 37 70 131 122 184 29 30 55
52 58 50 2 -3 7 -15 9 -27z m981 -123 c4 4 4 2 1 -4 -7 -12 33 -25 82 -28 13
0 26 -8 29 -16 4 -12 3 -13 -10 -3 -8 7 -29 11 -47 9 -17 -2 -34 1 -37 6 -3 5
-11 4 -19 -2 -11 -9 -17 -7 -27 9 -10 16 -15 18 -27 8 -12 -10 -13 -9 -6 2 6
11 4 13 -11 8 -18 -7 -18 -7 0 7 12 10 25 12 41 6 13 -5 26 -6 31 -2z m-1049
-108 c-3 -12 -1 -18 5 -14 6 4 9 1 6 -7 -2 -8 -18 -15 -35 -17 -17 -2 -34 -10
-37 -19 -9 -22 -4 -24 33 -13 41 12 46 -1 31 -75 -10 -47 -14 -54 -26 -44 -8
6 -14 7 -14 2 0 -6 -11 -8 -25 -5 -14 2 -25 8 -25 12 0 5 -9 6 -20 3 -20 -5
-22 -1 -23 54 0 12 -4 20 -8 17 -5 -3 -9 3 -9 13 0 11 17 27 45 42 25 13 45
30 45 37 0 10 31 27 59 33 2 1 1 -8 -2 -19z"/>
<path d="M2509 1691 c7 -5 17 -15 22 -22 6 -10 9 -8 9 9 0 16 -6 22 -22 22
-17 0 -19 -3 -9 -9z"/>
<path d="M2550 1682 c0 -5 7 -9 15 -9 8 0 12 4 9 9 -3 4 -9 8 -15 8 -5 0 -9
-4 -9 -8z"/>
<path d="M1820 1810 c-8 -5 -12 -11 -9 -14 3 -3 14 1 25 9 21 16 8 20 -16 5z"/>
<path d="M2260 1799 c0 -5 5 -7 10 -4 6 3 10 8 10 11 0 2 -4 4 -10 4 -5 0 -10
-5 -10 -11z"/>
<path d="M2740 1651 c0 -6 4 -13 10 -16 6 -3 7 1 4 9 -7 18 -14 21 -14 7z"/>
<path d="M1693 1453 c-3 -10 -13 -27 -22 -37 -15 -18 -15 -18 5 -8 12 6 24 23
26 37 6 29 0 33 -9 8z"/>
</g>
</svg>
