<?xml version="1.0" standalone="no"?>
<!DOCTYPE svg PUBLIC "-//W3C//DTD SVG 20010904//EN"
 "http://www.w3.org/TR/2001/REC-SVG-20010904/DTD/svg10.dtd">
<svg version="1.0" xmlns="http://www.w3.org/2000/svg"
 width="450.000000pt" height="253.000000pt" viewBox="0 0 450.000000 253.000000"
 preserveAspectRatio="xMidYMid meet">
<metadata>
Created by potrace 1.16, written by Peter Selinger 2001-2019
</metadata>
<g transform="translate(0.000000,253.000000) scale(0.100000,-0.100000)"
fill="#000000" stroke="none">
<path d="M0 1265 l0 -1265 2250 0 2250 0 0 1265 0 1265 -2250 0 -2250 0 0
-1265z m3073 696 c114 -40 200 -90 247 -147 52 -63 89 -136 89 -180 2 -61
-106 -176 -219 -235 -41 -22 -88 -48 -105 -59 -45 -28 -85 -36 -85 -16 0 9 -7
16 -15 16 -8 0 -15 5 -15 11 0 6 -7 9 -15 5 -8 -3 -15 -1 -15 4 0 5 -16 9 -35
8 -23 -1 -31 -4 -23 -9 10 -7 10 -9 -1 -9 -8 0 -11 -3 -8 -6 4 -4 13 -1 21 5
11 9 16 9 22 0 4 -8 3 -9 -4 -5 -7 4 -12 2 -12 -3 0 -6 -9 -11 -20 -11 -11 0
-20 4 -20 9 0 5 -8 8 -17 7 -10 0 -17 4 -16 11 2 7 -7 10 -23 7 -38 -7 -64 4
-75 32 -5 14 -13 23 -18 19 -5 -3 -12 -1 -16 5 -4 6 -11 8 -16 4 -5 -3 -8 -2
-7 3 5 18 -14 53 -25 47 -7 -4 -9 -3 -4 1 4 5 18 9 31 10 19 0 22 -2 14 -12
-6 -8 -8 -16 -4 -20 3 -3 6 -1 6 5 0 19 35 23 71 9 22 -10 63 -13 118 -11 46
2 80 0 76 -4 -7 -7 -12 -8 -41 -11 -8 0 -12 -6 -9 -11 4 -6 12 -7 18 -3 8 4 7
1 -1 -9 -12 -15 -9 -16 30 -11 23 2 44 6 46 8 2 2 20 -8 39 -21 33 -22 38 -23
53 -9 9 8 20 12 25 8 4 -5 5 -3 2 3 -9 16 8 28 80 55 64 24 78 44 49 68 -11 9
-16 9 -22 0 -4 -7 -3 -9 4 -5 6 3 13 2 16 -3 10 -16 -22 -6 -45 15 -12 10 -19
13 -14 5 6 -11 2 -13 -19 -7 -21 5 -26 4 -20 -6 6 -10 5 -11 -8 -1 -8 7 -18
10 -21 6 -4 -3 -7 0 -7 8 -1 11 -3 10 -10 -2 -7 -11 -18 -15 -37 -11 -24 5
-25 6 -8 12 11 4 23 2 27 -4 4 -6 6 -1 6 10 -2 22 -13 25 -37 10 -10 -6 -12
-5 -7 2 5 8 -4 12 -26 13 -18 0 -43 2 -56 3 -13 2 -25 0 -27 -4 -8 -13 -183 2
-245 22 -48 15 -75 34 -60 43 8 5 8 11 -1 21 -6 8 -8 14 -4 14 3 0 -3 15 -14
33 -19 30 -19 35 -5 55 8 12 12 22 8 22 -3 0 -2 6 4 13 5 6 12 29 15 49 5 37
4 37 -16 23 -38 -27 -38 -16 0 19 48 42 73 56 153 83 88 29 224 31 303 4z
m-663 -49 c0 -5 7 -9 15 -9 8 0 12 4 8 10 -6 9 65 8 82 -2 6 -3 21 -6 35 -6
14 0 26 -6 28 -16 2 -12 -22 -21 -110 -43 -62 -16 -120 -34 -128 -42 -9 -9
-10 -14 -3 -14 7 0 11 -9 10 -20 -1 -20 -36 -37 -54 -27 -4 2 -17 1 -27 -2
-14 -5 -28 2 -51 25 -18 17 -42 37 -54 43 -18 10 -21 9 -21 -6 0 -9 9 -26 20
-38 13 -14 16 -25 10 -35 -7 -11 -11 -9 -19 13 -6 15 -21 42 -33 60 -13 17
-23 33 -23 33 0 1 -10 5 -22 8 -27 9 -32 -14 -8 -38 8 -8 15 -18 15 -22 0 -3
-7 -1 -15 6 -8 7 -15 9 -15 4 0 -5 -4 -3 -9 5 -8 12 -12 12 -26 -2 -21 -21
-32 -22 -15 -2 9 10 9 15 1 15 -16 0 -14 27 5 56 16 23 18 24 36 7 18 -16 18
-16 12 0 -5 13 -2 16 10 11 9 -3 16 -12 16 -18 0 -7 7 -13 15 -13 16 0 21 36
5 38 -12 2 -27 5 -37 9 -5 2 12 6 37 10 65 10 310 11 310 2z m-300 -162 c0
-11 -10 -29 -22 -41 l-23 -22 22 6 c12 3 26 0 31 -7 12 -16 8 -41 -6 -38 -7 1
-22 4 -34 6 -12 1 -24 8 -26 14 -2 6 -9 9 -17 6 -7 -3 -16 -1 -19 5 -5 7 -15
7 -31 1 -14 -5 -25 -6 -25 -1 0 17 29 32 67 34 37 2 65 17 62 34 -1 4 -1 14 0
21 2 20 21 3 21 -18z m-160 -85 c0 -8 -4 -15 -10 -15 -5 0 -7 7 -4 15 4 8 8
15 10 15 2 0 4 -7 4 -15z m0 -41 c0 -11 5 -14 18 -9 33 14 99 18 106 6 4 -6 4
-11 -1 -12 -84 -6 -107 -14 -83 -29 8 -6 11 -10 5 -10 -5 0 1 -9 15 -20 14
-11 18 -19 10 -18 -8 2 -17 6 -20 9 -3 3 -18 0 -35 -7 l-30 -13 28 -1 29 0
-26 -31 c-26 -31 -38 -65 -14 -41 18 18 27 15 23 -8 -7 -37 -30 -73 -48 -76
-10 -1 -14 2 -10 9 4 7 0 8 -12 4 -16 -7 -17 -1 -12 80 6 88 31 183 48 183 5
0 9 -7 9 -16z m929 -107 c0 -9 -2 -8 -6 1 -2 6 -10 9 -15 6 -7 -4 -8 -2 -4 5
9 13 26 5 25 -12z m38 3 c-1 -10 -3 -17 -6 -15 -2 3 -10 0 -17 -6 -9 -8 -11
-5 -7 10 3 12 9 18 14 15 5 -3 9 0 9 5 0 6 2 11 4 11 3 0 4 -9 3 -20z m-112
-200 c26 -21 32 -30 20 -30 -20 0 -75 37 -75 51 0 16 16 10 55 -21z m155 -20
c-20 -13 -33 -13 -25 0 3 6 14 10 23 10 15 0 15 -2 2 -10z"/>
<path d="M3277 1568 c-6 -3 -15 -4 -21 -1 -5 3 -6 1 -2 -6 4 -6 12 -9 17 -5 5
3 22 8 36 10 15 3 30 7 32 10 7 7 -49 0 -62 -8z"/>
<path d="M3126 1538 c3 -5 10 -6 15 -3 13 9 11 12 -6 12 -8 0 -12 -4 -9 -9z"/>
<path d="M2709 1463 c0 -4 -2 -16 -4 -25 -2 -12 3 -15 16 -13 10 2 19 -2 19
-8 0 -7 4 -6 10 3 6 9 10 10 10 3 0 -12 47 -12 67 0 7 4 16 0 22 -10 6 -10 10
-13 11 -8 0 24 -21 39 -57 40 -21 1 -44 4 -50 8 -6 4 -14 3 -18 -3 -3 -5 -12
-10 -18 -10 -8 0 -8 3 2 9 9 6 10 11 2 15 -6 4 -11 4 -12 -1z"/>
<path d="M2860 1440 c0 -13 18 -22 24 -11 3 5 -1 11 -9 15 -8 3 -15 1 -15 -4z"/>
<path d="M1948 1593 c7 -3 16 -2 19 1 4 3 -2 6 -13 5 -11 0 -14 -3 -6 -6z"/>
</g>
</svg>
