<?xml version="1.0" standalone="no"?>
<!DOCTYPE svg PUBLIC "-//W3C//DTD SVG 20010904//EN"
 "http://www.w3.org/TR/2001/REC-SVG-20010904/DTD/svg10.dtd">
<svg version="1.0" xmlns="http://www.w3.org/2000/svg"
 width="450.000000pt" height="253.000000pt" viewBox="0 0 450.000000 253.000000"
 preserveAspectRatio="xMidYMid meet">
<metadata>
Created by potrace 1.16, written by Peter Selinger 2001-2019
</metadata>
<g transform="translate(0.000000,253.000000) scale(0.100000,-0.100000)"
fill="#000000" stroke="none">
<path d="M0 1265 l0 -1265 2250 0 2250 0 0 1265 0 1265 -2250 0 -2250 0 0
-1265z m2795 1221 c122 -7 140 -13 189 -60 77 -76 110 -162 118 -313 l3 -52
62 -17 63 -17 26 27 c27 27 48 31 134 26 46 -2 75 -11 170 -51 148 -63 206
-123 209 -220 1 -46 -3 -62 -28 -100 -17 -25 -49 -60 -71 -78 -23 -18 -39 -35
-36 -38 5 -5 -50 -52 -115 -98 -20 -14 -70 -35 -113 -47 -42 -11 -76 -24 -76
-29 0 -4 13 -23 28 -41 69 -80 101 -182 103 -325 1 -63 0 -66 -41 -105 -23
-22 -44 -37 -47 -34 -4 3 -14 -1 -23 -9 -20 -18 -98 -34 -200 -41 -129 -9
-372 39 -442 88 -42 29 -58 24 -58 -19 -1 -46 -10 -116 -17 -123 -3 -3 -2 26
1 63 7 68 6 68 -16 62 -35 -11 -51 -31 -50 -63 0 -22 -11 -41 -51 -80 -79 -77
-194 -103 -282 -63 -22 10 -52 21 -67 24 -36 9 -102 74 -118 117 -7 19 -22 50
-33 68 -11 18 -25 54 -32 80 -7 26 -17 46 -24 45 -6 -2 -11 9 -11 23 0 23 -3
25 -34 23 -41 -4 -54 5 -37 25 11 12 6 16 -26 20 -105 16 -147 27 -216 59 -84
39 -155 102 -163 147 -4 16 -13 31 -21 34 -8 3 -12 10 -8 16 3 5 1 20 -6 32
-27 51 -23 94 16 158 34 57 84 102 187 170 31 21 34 26 20 32 -9 4 -15 7 -12
7 4 1 -21 28 -53 62 -62 64 -121 173 -133 246 -3 21 -8 41 -10 45 -3 4 1 27 7
50 7 24 12 46 11 50 -1 4 22 19 51 33 68 32 189 49 289 40 43 -4 80 -7 83 -6
3 0 26 -9 52 -20 38 -16 71 -21 156 -22 l107 -1 33 32 c59 58 132 113 177 134
105 48 120 49 375 34z"/>
<path d="M2259 2033 c-8 -9 -9 -14 -3 -10 7 4 17 0 24 -8 17 -21 32 -8 20 16
-13 23 -23 24 -41 2z m35 -9 c5 -14 4 -15 -9 -4 -17 14 -19 20 -6 20 5 0 12
-7 15 -16z"/>
<path d="M2449 1898 c-6 -10 -4 -68 2 -68 3 0 6 16 5 35 -1 31 -3 41 -7 33z"/>
<path d="M2400 1791 c-5 -11 -10 -29 -10 -40 0 -38 -10 -52 -31 -40 -12 6 -19
6 -19 0 0 -5 9 -13 20 -16 11 -3 20 -12 20 -19 0 -8 7 -19 15 -26 8 -7 15 -20
15 -30 0 -17 45 -45 66 -42 7 1 14 -5 18 -13 4 -10 1 -15 -9 -13 -15 3 -18 -7
-9 -36 3 -10 1 -23 -5 -29 -19 -19 -13 -22 37 -21 66 2 85 11 78 40 -8 29 2
54 21 54 30 0 2 18 -39 24 -43 7 -80 30 -131 81 -33 33 -32 56 3 66 14 4 19 7
13 8 -15 1 -18 31 -3 31 6 0 10 8 10 17 0 9 -3 13 -6 10 -4 -3 -15 -2 -25 3
-14 8 -21 6 -29 -9z"/>
<path d="M2170 1690 c0 -23 36 -49 58 -43 12 3 22 10 22 15 0 5 -5 6 -11 3 -5
-4 -18 1 -27 12 -20 21 -42 28 -42 13z"/>
<path d="M2656 1646 c-30 -39 -35 -72 -10 -62 9 3 20 6 25 6 5 0 9 8 9 18 0
10 7 27 15 38 18 24 19 34 1 34 -7 0 -25 -15 -40 -34z"/>
<path d="M1772 1637 c-16 -7 -22 -17 -18 -29 2 -11 -2 -22 -10 -25 -23 -8 -7
-21 21 -15 28 5 33 -9 10 -31 -11 -12 -12 -16 -2 -20 29 -9 46 7 58 55 10 38
15 45 21 31 7 -16 8 -16 5 2 -1 12 -10 20 -22 20 -11 1 -19 6 -17 13 3 15 -15
14 -46 -1z"/>
<path d="M1493 1596 c-10 -11 -9 -15 2 -20 9 -3 19 3 25 14 13 24 -8 28 -27 6z"/>
<path d="M1690 1580 c0 -5 7 -10 15 -10 8 0 15 5 15 10 0 6 -7 10 -15 10 -8 0
-15 -4 -15 -10z"/>
<path d="M2370 1575 c0 -11 -5 -12 -24 -5 -34 13 -83 9 -83 -6 0 -7 8 -11 18
-9 14 3 16 -2 13 -21 -3 -19 0 -24 16 -25 11 -1 26 -2 33 -3 17 -3 97 24 97
33 0 8 -55 51 -65 51 -3 0 -5 -7 -5 -15z"/>
<path d="M1470 1549 c-23 -10 -24 -11 -7 -21 14 -7 17 -17 13 -34 l-7 -25 21
21 c22 22 31 61 15 66 -5 1 -21 -2 -35 -7z"/>
<path d="M2153 1476 c8 -19 -12 -36 -42 -36 -33 0 -56 -14 -47 -29 4 -6 16
-11 27 -11 11 0 17 4 14 10 -3 6 1 7 9 4 9 -3 13 -10 10 -15 -13 -21 10 -6 42
27 39 42 40 44 19 44 -8 0 -15 5 -15 10 0 6 -5 10 -11 10 -6 0 -9 -6 -6 -14z"/>
<path d="M2342 1454 c-30 -21 -28 -34 7 -34 31 0 57 22 46 40 -9 14 -27 13
-53 -6z"/>
<path d="M1898 1433 c18 -7 14 -31 -8 -45 -11 -7 -20 -18 -20 -24 0 -17 35 -6
56 17 9 10 25 19 34 19 10 0 24 8 31 17 13 15 12 16 -8 11 -14 -4 -23 -2 -23
5 0 7 -5 5 -10 -3 -6 -10 -10 -11 -10 -2 0 7 -12 12 -27 11 -16 0 -22 -3 -15
-6z"/>
<path d="M2296 1359 c13 -15 15 -22 6 -31 -17 -17 -15 -31 4 -24 9 3 12 2 9
-4 -4 -6 11 -10 38 -9 l44 2 -12 33 c-15 45 -19 47 -66 50 -39 2 -40 2 -23
-17z"/>
<path d="M2544 1368 c-5 -7 -7 -24 -6 -38 1 -23 1 -23 -7 -5 -7 13 -10 15 -10
5 0 -8 4 -22 9 -30 7 -12 11 -8 16 17 4 18 10 30 14 28 9 -6 7 21 -2 30 -3 4
-10 0 -14 -7z"/>
<path d="M2587 1356 c-4 -9 3 -16 16 -19 12 -2 31 -8 42 -13 18 -7 18 -6 5 7
-32 29 -58 39 -63 25z"/>
<path d="M2158 1350 c-49 -14 -50 -21 -8 -42 26 -13 39 -26 38 -37 -2 -11 3
-15 15 -13 11 2 27 -4 37 -13 17 -15 19 -14 34 16 18 37 14 49 -19 49 -14 0
-29 8 -34 19 -13 24 -30 30 -63 21z m43 -83 c-10 -9 -11 -8 -5 6 3 10 9 15 12
12 3 -3 0 -11 -7 -18z"/>
<path d="M2437 1323 c-6 -29 5 -49 20 -40 11 7 4 67 -7 67 -4 0 -10 -12 -13
-27z"/>
<path d="M2207 1211 c-23 -23 -37 -61 -23 -61 11 0 66 56 66 67 0 23 -15 21
-43 -6z"/>
<path d="M2570 1207 c0 -19 -37 -50 -49 -42 -6 3 -11 15 -11 26 0 10 -5 19
-10 19 -17 0 -58 -43 -62 -65 -2 -11 -11 -19 -21 -19 -9 1 -14 -2 -11 -7 8
-13 103 -1 128 17 11 8 28 14 38 14 23 0 39 31 27 53 -12 20 -29 23 -29 4z"/>
<path d="M3288 1196 c-10 -7 -18 -18 -18 -24 0 -5 -7 -12 -15 -16 -22 -8 -19
-31 11 -82 31 -52 78 -83 88 -58 11 27 6 88 -9 114 -8 14 -14 37 -15 53 0 29
-15 34 -42 13z"/>
<path d="M2660 1198 c0 -2 9 -11 20 -21 11 -9 20 -13 20 -7 0 5 -9 14 -20 20
-11 6 -20 9 -20 8z"/>
<path d="M2950 1171 c0 -5 7 -12 16 -15 14 -5 15 -4 4 9 -14 17 -20 19 -20 6z"/>
<path d="M3064 1111 c11 -12 25 -21 31 -21 7 0 18 -7 25 -15 7 -9 15 -13 17
-11 3 3 10 1 17 -5 27 -22 86 -58 86 -51 0 9 -96 72 -110 72 -5 0 -10 4 -10 8
0 5 -17 16 -37 26 l-38 18 19 -21z"/>
<path d="M2033 1088 c-13 -6 -23 -17 -23 -25 0 -21 16 -15 34 12 9 14 15 25
14 24 -2 0 -13 -5 -25 -11z"/>
<path d="M2197 1072 c-23 -25 -21 -32 8 -32 19 0 25 -5 25 -21 0 -11 5 -17 10
-14 6 3 10 -2 10 -12 0 -25 36 -48 44 -28 3 8 0 15 -7 15 -8 0 -8 3 2 9 11 7
10 12 -8 22 -12 8 -29 29 -36 47 -16 37 -25 39 -48 14z"/>
<path d="M2324 952 c-16 -10 -3 -37 18 -38 13 -1 17 5 16 22 -2 24 -14 30 -34
16z"/>
<path d="M2427 943 c-4 -3 -7 -15 -7 -25 0 -17 1 -17 19 -1 11 9 18 20 15 25
-6 10 -18 10 -27 1z"/>
<path d="M2541 931 c-12 -11 -18 -22 -13 -25 6 -3 12 1 16 9 3 8 12 15 20 15
8 0 18 5 21 10 11 17 -21 11 -44 -9z"/>
<path d="M2265 845 c-3 -8 -7 -22 -10 -30 -2 -8 -3 -15 0 -15 10 0 35 33 35
46 0 19 -19 18 -25 -1z"/>
</g>
</svg>
