<?xml version="1.0" standalone="no"?>
<!DOCTYPE svg PUBLIC "-//W3C//DTD SVG 20010904//EN"
 "http://www.w3.org/TR/2001/REC-SVG-20010904/DTD/svg10.dtd">
<svg version="1.0" xmlns="http://www.w3.org/2000/svg"
 width="450.000000pt" height="253.000000pt" viewBox="0 0 450.000000 253.000000"
 preserveAspectRatio="xMidYMid meet">
<metadata>
Created by potrace 1.16, written by Peter Selinger 2001-2019
</metadata>
<g transform="translate(0.000000,253.000000) scale(0.100000,-0.100000)"
fill="#000000" stroke="none">
<path d="M0 1265 l0 -1265 1193 0 1192 0 0 143 c0 78 4 148 9 155 6 8 5 17 -1
23 -5 5 -7 30 -3 57 3 26 5 82 5 124 -1 46 3 74 9 71 5 -4 6 -1 0 8 -14 24
-16 51 -2 43 10 -6 11 -4 1 7 -15 16 -17 33 -3 24 6 -3 10 -2 10 4 0 5 -6 12
-12 14 -10 4 -9 8 2 16 13 9 13 11 1 11 -11 0 -12 3 -4 11 17 17 31 3 27 -28
-2 -16 -6 -109 -9 -208 -3 -99 -8 -200 -10 -225 -4 -43 -7 -181 -6 -227 l1
-23 1050 0 1050 0 0 1265 0 1265 -681 0 -681 0 15 -24 c18 -26 57 -151 57
-181 0 -11 5 -49 11 -85 5 -36 11 -90 11 -122 1 -55 2 -56 32 -61 17 -3 57
-14 88 -26 l57 -22 31 23 c26 18 44 23 93 22 55 -1 74 -7 172 -58 110 -57 165
-98 165 -123 0 -7 4 -13 9 -13 6 0 7 -17 4 -37 -6 -42 -42 -123 -54 -123 -4 0
-34 -24 -66 -54 -95 -88 -167 -133 -223 -141 -28 -4 -52 -11 -56 -16 -3 -5
-17 -9 -32 -9 -26 0 -26 0 -5 -15 29 -21 48 -78 33 -104 -8 -16 -7 -28 4 -48
29 -58 36 -193 15 -277 -11 -42 -86 -126 -113 -126 -9 0 -16 -5 -16 -11 0 -13
-100 -5 -155 11 -16 5 -48 11 -70 14 -62 7 -142 32 -202 62 -46 24 -56 26 -68
13 -10 -10 -12 -25 -5 -57 13 -72 -4 -108 -64 -136 -28 -13 -69 -26 -92 -30
-41 -6 -42 -5 -117 72 -41 42 -91 92 -111 110 -32 29 -86 117 -86 140 0 4 9
18 21 31 14 15 19 30 15 46 -3 13 -2 26 2 29 14 8 52 -6 45 -17 -3 -5 -1 -7 4
-4 6 4 9 20 7 36 -2 17 1 33 6 36 6 3 14 14 20 24 7 14 4 23 -12 37 -20 18
-21 18 -15 1 4 -11 3 -16 -4 -12 -6 4 -18 0 -27 -8 -9 -8 -26 -19 -37 -25 -19
-10 -21 -8 -17 23 2 18 0 35 -5 38 -5 3 -10 -4 -10 -15 -3 -33 -20 -45 -46
-30 -21 12 -21 12 2 -8 13 -11 18 -20 12 -20 -6 0 -11 -5 -11 -11 0 -5 4 -7
10 -4 6 4 11 -7 12 -24 0 -17 1 -36 2 -43 2 -23 -23 -19 -47 8 -14 15 -54 42
-89 59 -54 27 -65 38 -77 71 -21 59 -19 158 4 195 4 5 8 59 9 119 2 63 7 114
14 122 9 11 4 23 -21 53 -32 39 -32 39 -31 150 2 151 7 169 58 193 66 33 218
77 253 74 31 -3 33 -1 48 53 9 30 32 73 51 96 19 22 34 47 34 54 0 8 12 21 28
31 15 9 37 29 50 45 l24 29 -1341 0 -1341 0 0 -1265z m2331 -128 c-10 -9 -11
-8 -5 6 3 10 9 15 12 12 3 -3 0 -11 -7 -18z"/>
<path d="M2469 1942 c-14 -10 -19 -11 -14 -3 6 10 3 11 -13 2 -45 -24 -116
-154 -101 -183 6 -11 6 -18 0 -18 -5 0 -1 -22 10 -50 19 -50 19 -50 -2 -50
-11 0 -18 -4 -15 -9 3 -5 -1 -11 -9 -15 -8 -3 -15 -13 -15 -23 0 -15 2 -16 10
-3 8 12 10 12 10 1 0 -9 11 -5 34 13 19 14 43 26 52 26 14 0 15 3 6 12 -7 7
-12 19 -12 27 0 20 48 81 64 81 8 0 16 7 20 15 3 8 18 21 33 27 47 21 58 52
22 63 -28 9 -6 35 31 35 39 0 42 9 12 35 -35 30 -94 38 -123 17z"/>
<path d="M3017 1919 c7 -7 15 -10 18 -7 3 3 -2 9 -12 12 -14 6 -15 5 -6 -5z"/>
<path d="M2792 1904 c9 -9 24 -14 32 -11 27 11 17 27 -16 27 -30 0 -31 -1 -16
-16z"/>
<path d="M3053 1897 c-2 -15 0 -18 6 -9 6 10 10 8 14 -7 3 -12 1 -19 -4 -15
-5 3 -9 -1 -9 -8 0 -9 -3 -9 -10 2 -5 8 -10 11 -10 6 0 -5 7 -17 15 -26 19
-20 11 -47 -16 -55 -11 -4 -18 -12 -15 -18 3 -7 9 -20 12 -29 3 -10 15 -20 25
-23 21 -7 25 -20 9 -30 -8 -5 -7 -11 1 -21 14 -18 10 -23 -22 -26 -18 -2 -24
2 -22 15 1 20 -50 57 -80 57 -9 0 -23 -11 -29 -25 -15 -34 -33 -26 -32 14 1
17 -2 28 -7 25 -5 -3 -9 0 -9 7 0 9 -3 9 -14 0 -12 -10 -14 -9 -12 5 2 10 8
20 14 22 7 2 10 8 7 13 -3 5 -1 18 6 30 10 20 9 21 -17 14 -82 -20 -125 -22
-134 -6 -8 13 -9 14 -10 1 0 -13 -2 -13 -9 -1 -10 15 -41 8 -41 -9 0 -7 12 -9
30 -6 22 3 30 0 30 -10 0 -9 4 -13 9 -10 5 3 14 -1 20 -8 7 -8 8 -17 3 -20
-13 -8 -74 11 -85 26 -7 10 -10 10 -14 1 -2 -7 -12 -13 -21 -13 -15 0 -15 -2
-2 -10 8 -5 24 -10 36 -10 11 0 29 -9 39 -20 10 -11 21 -17 26 -15 13 9 21
-15 10 -29 -6 -7 -12 -25 -13 -40 -1 -14 -8 -26 -15 -26 -7 0 -19 -13 -28 -29
-15 -29 -14 -30 13 -34 l27 -3 -32 -13 c-34 -13 -41 -25 -22 -37 8 -5 6 -10
-5 -16 -24 -13 -20 -28 8 -28 14 0 39 -12 56 -26 33 -29 34 -42 2 -25 -11 6
-28 8 -37 5 -14 -6 -13 -9 6 -30 16 -17 20 -30 15 -51 -13 -54 -12 -57 23 -69
19 -6 40 -19 48 -29 7 -11 13 -15 13 -9 0 5 -7 18 -15 28 -24 31 -19 56 10 56
23 0 24 2 15 20 -10 19 -10 20 10 8 19 -12 23 -10 41 15 16 21 29 27 59 27 51
0 88 15 92 37 3 16 5 15 24 -5 18 -19 24 -21 52 -11 20 7 32 18 32 29 0 20
-54 83 -63 74 -3 -3 -23 -7 -44 -7 -26 -2 -38 -7 -38 -17 0 -8 -6 -25 -12 -36
-7 -12 -10 -24 -6 -27 3 -4 -2 -9 -11 -13 -25 -10 -32 3 -13 24 21 23 49 101
40 115 -3 6 -1 7 5 3 7 -4 12 -2 12 5 0 9 4 9 15 -1 15 -13 39 -5 30 11 -4 5
0 9 8 9 8 0 22 9 32 20 18 20 41 28 30 11 -4 -8 74 -9 83 -1 1 1 8 3 15 4 14
1 18 45 5 62 -9 12 -4 100 7 127 4 9 18 17 30 17 13 0 26 4 30 9 8 14 -24 41
-57 48 -16 3 -33 13 -38 23 -13 24 -44 30 -74 15 -22 -12 -24 -11 -19 3 4 10
3 14 -2 10 -4 -4 -13 -4 -19 2 -8 6 -12 2 -13 -13z m67 -56 c6 -2 -23 -21 -31
-21 -3 0 -6 6 -6 14 0 7 7 12 16 11 9 -2 18 -4 21 -4z m-290 -201 c0 -6 0 -13
0 -17 -1 -5 -10 -7 -20 -5 -26 4 -26 -18 0 -25 20 -5 29 -33 10 -33 -5 0 -10
-4 -10 -10 0 -5 7 -7 15 -4 8 4 22 3 31 0 13 -5 14 -9 5 -20 -9 -11 -9 -15 1
-18 7 -3 -5 -13 -27 -23 -46 -22 -55 -32 -47 -53 3 -10 1 -13 -6 -8 -18 11
-14 40 8 56 26 19 25 30 -1 30 -33 0 -59 19 -56 40 4 25 17 38 17 18 0 -9 11
-18 25 -20 14 -3 25 -2 25 3 0 21 -14 39 -31 39 -19 0 -19 1 1 40 18 35 23 39
40 30 11 -6 20 -15 20 -20z m71 -23 c-8 -8 -11 -7 -11 4 0 20 13 34 18 19 3
-7 -1 -17 -7 -23z m34 -6 c3 -5 1 -12 -5 -16 -5 -3 -10 1 -10 9 0 18 6 21 15
7z m85 -41 c0 -6 -4 -10 -9 -10 -5 0 -16 -3 -25 -6 -10 -4 -16 -1 -16 8 0 7
11 15 25 16 14 1 25 -3 25 -8z m-314 -87 c-10 -10 -19 5 -10 18 6 11 8 11 12
0 2 -7 1 -15 -2 -18z m186 -53 c-2 -16 -8 -30 -13 -30 -12 0 -11 17 1 41 15
26 17 24 12 -11z"/>
<path d="M2966 1900 c-12 -4 -16 -9 -9 -13 9 -6 11 -72 3 -72 -1 0 -3 -10 -6
-23 -3 -18 0 -23 13 -20 10 2 19 13 21 26 2 12 7 20 11 18 4 -3 8 1 8 9 0 8
-4 12 -8 10 -17 -11 -16 25 2 41 27 25 6 39 -35 24z"/>
<path d="M3023 1815 c0 -8 4 -12 9 -9 5 3 6 10 3 15 -9 13 -12 11 -12 -6z"/>
<path d="M2590 1801 c-14 -27 -13 -31 10 -31 17 0 19 3 11 19 -6 10 -7 21 -4
25 3 3 3 6 0 6 -3 0 -11 -9 -17 -19z"/>
<path d="M2950 1734 c0 -8 4 -13 9 -10 5 4 12 0 14 -6 4 -8 6 -7 6 3 1 9 -6
19 -14 23 -9 3 -15 0 -15 -10z"/>
<path d="M2507 1712 c-10 -10 -17 -25 -17 -33 0 -8 -7 -24 -15 -37 -11 -15
-14 -32 -9 -58 6 -31 9 -35 30 -30 14 4 24 2 24 -4 0 -5 -4 -10 -9 -10 -5 0
-11 -9 -14 -20 -3 -11 -1 -20 4 -20 5 0 4 -9 -3 -19 -9 -15 -9 -23 1 -35 17
-20 12 -20 -25 -2 -16 8 -56 22 -88 30 -32 9 -61 18 -64 21 -3 3 -6 20 -6 39
-1 19 -5 32 -9 29 -5 -3 -6 -8 -3 -11 3 -3 -2 -14 -11 -24 -14 -16 -15 -23 -5
-38 7 -11 12 -23 12 -27 0 -5 -5 -1 -10 7 -7 11 -9 6 -8 -20 1 -20 -4 -45 -10
-57 -9 -16 -9 -23 2 -32 17 -14 26 -4 26 27 0 14 7 34 17 44 9 11 11 18 5 18
-7 0 -12 5 -12 11 0 8 4 9 13 0 8 -6 18 -7 22 -3 5 4 5 2 2 -4 -6 -10 63 -49
88 -49 5 0 10 -10 9 -21 -1 -19 2 -20 32 -14 19 5 34 4 34 -1 0 -5 7 -9 15 -9
8 0 15 -7 15 -16 0 -8 4 -13 9 -10 8 6 26 -22 23 -36 -1 -4 12 -18 29 -32 l30
-26 -21 -27 -22 -28 24 -5 c20 -5 24 -2 28 29 5 33 30 57 30 28 0 -8 6 -20 14
-26 16 -14 27 -71 13 -71 -5 0 2 -12 16 -26 14 -14 30 -23 35 -20 5 3 17 -3
27 -14 19 -21 50 -26 60 -10 4 6 11 8 16 5 5 -4 9 -1 9 5 0 6 4 9 9 6 5 -3 11
0 14 7 5 14 -85 52 -114 48 -15 -2 -35 36 -52 99 -2 8 -14 15 -26 15 -18 0
-27 10 -39 40 -9 22 -23 47 -31 55 -13 13 -12 15 6 18 12 2 24 10 27 18 8 20
-43 19 -59 -3 -8 -11 -14 -13 -19 -5 -4 7 -2 12 3 12 6 0 11 9 11 19 0 10 7
21 15 25 20 7 19 25 -2 32 -41 14 -73 29 -73 35 0 10 47 39 64 39 13 0 31 27
28 42 -1 4 5 5 13 2 30 -12 14 24 -31 70 -37 38 -43 50 -34 62 19 22 -43 18
-63 -4z m103 -70 c0 -5 -7 -17 -15 -28 -8 -10 -15 -27 -15 -37 0 -11 -5 -17
-12 -14 -18 6 -11 47 10 68 18 19 32 24 32 11z"/>
<path d="M2660 1645 c0 -8 5 -15 10 -15 6 0 10 7 10 15 0 8 -4 15 -10 15 -5 0
-10 -7 -10 -15z"/>
<path d="M3088 1493 c7 -3 16 -2 19 1 4 3 -2 6 -13 5 -11 0 -14 -3 -6 -6z"/>
<path d="M2980 1316 c0 -8 7 -22 16 -30 21 -21 8 -38 -23 -30 -20 5 -24 4 -18
-6 6 -10 4 -12 -8 -7 -8 3 -21 -1 -28 -9 -13 -16 -5 -16 96 0 23 3 39 68 21
86 -15 15 -56 12 -56 -4z"/>
<path d="M3073 1269 c-6 -6 -9 -18 -6 -26 5 -11 9 -11 24 3 11 9 19 21 19 26
0 12 -24 10 -37 -3z"/>
</g>
</svg>
