<?xml version="1.0" standalone="no"?>
<!DOCTYPE svg PUBLIC "-//W3C//DTD SVG 20010904//EN"
 "http://www.w3.org/TR/2001/REC-SVG-20010904/DTD/svg10.dtd">
<svg version="1.0" xmlns="http://www.w3.org/2000/svg"
 width="450.000000pt" height="253.000000pt" viewBox="0 0 450.000000 253.000000"
 preserveAspectRatio="xMidYMid meet">
<metadata>
Created by potrace 1.16, written by Peter Selinger 2001-2019
</metadata>
<g transform="translate(0.000000,253.000000) scale(0.100000,-0.100000)"
fill="#000000" stroke="none">
<path d="M0 1265 l0 -1265 2250 0 2250 0 0 1265 0 1265 -2250 0 -2250 0 0
-1265z m2949 690 c95 -23 202 -86 282 -168 38 -38 69 -73 69 -78 0 -4 9 -17
21 -28 20 -18 20 -21 4 -66 -19 -58 -36 -73 -149 -130 -83 -43 -135 -57 -121
-35 4 6 11 8 16 5 5 -4 9 -2 9 3 0 5 15 15 33 21 17 7 60 26 95 43 48 23 60
33 52 43 -12 14 12 41 29 31 5 -3 12 1 15 9 6 17 0 20 -51 29 -18 3 -33 2 -33
-3 0 -4 -10 -7 -22 -7 -13 1 -33 -7 -46 -18 -14 -12 -26 -17 -30 -11 -4 6 -49
10 -102 10 -52 -1 -101 3 -107 8 -9 6 -13 6 -13 -2 0 -7 -8 -8 -24 -1 -17 6
-26 5 -29 -3 -2 -7 -8 -9 -12 -5 -4 4 -2 15 6 25 8 9 9 14 3 10 -7 -4 -15 0
-18 9 -5 13 -9 14 -20 5 -10 -9 -15 -8 -20 4 -4 13 -10 14 -26 5 -11 -6 -20
-7 -20 -2 0 4 -18 8 -40 8 -35 1 -37 -1 -22 -13 15 -13 15 -13 -5 -4 -12 6
-23 14 -25 18 -1 5 -23 23 -46 42 -36 28 -41 36 -28 43 9 5 16 14 16 19 0 6
-6 7 -12 3 -10 -6 -10 -4 -2 7 20 26 25 76 8 90 -12 10 -16 9 -21 -9 -3 -12
-9 -20 -13 -17 -4 2 -5 -7 -2 -20 2 -14 9 -22 14 -19 6 4 6 -2 -1 -13 -6 -11
-8 -23 -5 -26 3 -3 0 -8 -7 -13 -7 -4 -10 -3 -6 3 10 15 -31 53 -49 46 -12 -4
-13 -8 -3 -14 7 -4 17 -5 23 -2 5 3 6 1 2 -6 -4 -6 -12 -8 -18 -5 -8 5 -9 1
-4 -12 4 -10 4 -15 0 -11 -4 4 -14 1 -23 -6 -14 -11 -15 -10 -1 8 15 20 15 20
-8 1 -23 -20 -52 -30 -52 -17 0 15 32 51 46 51 8 0 13 3 12 8 -8 22 44 64 154
127 77 43 215 56 327 30z m-641 -58 c6 -5 12 -12 12 -17 0 -11 -48 -25 -70
-21 -8 1 -5 -5 8 -14 12 -9 26 -14 30 -11 7 4 9 -3 13 -59 2 -34 -1 -37 -60
-41 -36 -2 -51 0 -51 9 0 7 -12 14 -27 15 -15 1 -31 9 -36 17 -4 8 -17 15 -29
15 -15 0 -19 5 -16 18 4 14 -1 17 -21 16 -14 -1 -27 -3 -28 -3 -9 -3 -13 0
-10 7 1 4 6 6 10 4 5 -1 6 3 3 10 -3 7 -9 21 -12 31 -4 11 -18 17 -43 18 l-36
2 40 7 c51 10 306 7 323 -3z m124 -2 c4 -5 1 -16 -5 -24 -9 -12 -9 -13 1 -7 6
4 12 3 12 -2 0 -9 -52 -32 -73 -32 -5 0 1 9 14 20 l24 19 -27 1 c-15 0 -30 5
-33 11 -4 6 -1 10 6 8 8 -1 21 -1 29 0 13 1 13 2 0 11 -11 7 -7 9 15 7 17 -1
33 -6 37 -12z m58 -16 c0 -11 -27 -12 -34 0 -3 4 -3 11 0 14 8 8 34 -3 34 -14z
m-544 -14 c1 -11 4 -30 8 -42 6 -18 3 -23 -11 -23 -11 0 -25 -6 -32 -12 -10
-9 -12 -9 -7 -1 3 6 2 14 -4 18 -5 3 -10 0 -10 -7 0 -11 -2 -11 -9 0 -11 19
-2 65 17 80 23 17 47 11 48 -13z m19 -105 c3 -6 -1 -7 -9 -4 -18 7 -21 14 -7
14 6 0 13 -4 16 -10z m113 -18 c6 -18 -15 -14 -22 4 -4 10 -1 14 6 12 6 -2 14
-10 16 -16z m-228 -1 c0 -5 -7 -11 -15 -15 -15 -5 -20 5 -8 17 9 10 23 9 23
-2z m95 -1 c3 -5 1 -10 -4 -10 -6 0 -11 5 -11 10 0 6 2 10 4 10 3 0 8 -4 11
-10z m61 -26 c-19 -18 -21 -11 -4 19 7 14 13 17 15 10 3 -7 -3 -20 -11 -29z
m-34 -23 c-4 -10 2 -12 26 -7 33 8 46 -3 36 -29 -8 -20 -54 -16 -100 8 -18 9
-44 14 -59 11 -30 -5 -78 -34 -57 -34 9 0 10 -5 2 -19 -15 -30 -12 -49 5 -27
10 13 29 20 67 22 29 1 43 0 30 -2 -12 -3 -20 -9 -17 -13 2 -5 -7 -7 -21 -5
-21 2 -24 -1 -22 -24 2 -19 -4 -29 -22 -39 -18 -9 -20 -13 -7 -13 22 0 22 -16
-3 -47 -24 -30 -27 -51 -5 -33 9 7 17 11 20 8 7 -6 -6 -48 -15 -48 -4 0 -11
-12 -14 -26 -5 -20 -10 -24 -18 -16 -9 9 -15 9 -25 0 -11 -9 -13 -8 -11 3 2 8
-2 13 -8 12 -13 -2 -18 97 -8 174 5 42 11 57 25 60 13 4 19 14 19 34 0 28 11
41 40 45 32 5 50 10 56 17 4 4 26 6 49 4 31 -1 41 -6 37 -16z m848 -79 c0 -5
-7 -9 -15 -9 -8 0 -12 4 -9 9 3 4 9 8 15 8 5 0 9 -4 9 -8z m210 -187 c0 -9 -9
-15 -22 -15 -22 1 -23 1 -4 15 25 19 26 19 26 0z m-1276 -81 c3 -8 2 -12 -4
-9 -6 3 -10 10 -10 16 0 14 7 11 14 -7z"/>
<path d="M2256 1809 c3 -5 12 -9 21 -9 19 0 9 13 -12 16 -8 1 -13 -2 -9 -7z"/>
</g>
</svg>
