<?xml version="1.0" standalone="no"?>
<!DOCTYPE svg PUBLIC "-//W3C//DTD SVG 20010904//EN"
 "http://www.w3.org/TR/2001/REC-SVG-20010904/DTD/svg10.dtd">
<svg version="1.0" xmlns="http://www.w3.org/2000/svg"
 width="450.000000pt" height="253.000000pt" viewBox="0 0 450.000000 253.000000"
 preserveAspectRatio="xMidYMid meet">
<metadata>
Created by potrace 1.16, written by Peter Selinger 2001-2019
</metadata>
<g transform="translate(0.000000,253.000000) scale(0.100000,-0.100000)"
fill="#000000" stroke="none">
<path d="M0 1265 l0 -1265 2250 0 2250 0 0 1265 0 1265 -2250 0 -2250 0 0
-1265z m2800 676 c25 -5 65 -15 89 -21 50 -12 171 -74 202 -103 11 -10 27 -16
35 -13 9 4 12 2 8 -5 -3 -6 11 -26 31 -45 21 -19 50 -51 65 -70 24 -33 26 -40
16 -75 -5 -22 -14 -39 -18 -39 -4 0 -10 0 -13 0 -3 1 -13 -6 -21 -15 -25 -25
-35 -17 -11 8 12 13 25 22 30 20 4 -2 7 -1 8 4 0 4 2 15 4 24 2 13 -8 18 -39
23 -80 13 -96 13 -103 3 -3 -5 -2 -7 4 -4 5 3 10 0 10 -8 0 -13 -3 -13 -16 -1
-9 7 -25 12 -36 9 -11 -2 -26 -5 -32 -5 -7 -1 -13 -6 -13 -12 0 -6 -4 -5 -9 3
-6 9 -11 10 -15 2 -4 -6 -15 -7 -30 -1 -16 6 -28 5 -36 -3 -10 -9 -11 -9 -6 0
4 7 -1 12 -11 12 -69 3 -100 8 -111 19 -7 6 -19 12 -25 12 -7 0 -6 -4 3 -10
11 -8 8 -9 -12 -6 -16 3 -28 0 -28 -5 0 -5 -6 -4 -14 3 -7 7 -11 20 -9 28 4
11 3 12 -4 2 -5 -6 -20 -12 -34 -12 -13 0 -41 -1 -61 -4 -22 -2 -38 1 -38 6 0
6 8 7 18 3 11 -4 9 1 -8 17 -13 13 -27 22 -30 21 -3 -1 -11 7 -18 18 -7 11 -8
19 -2 19 15 0 12 60 -2 61 -7 0 -4 4 7 9 17 7 17 9 3 9 -14 1 -16 5 -8 26 9
24 6 29 -13 26 -5 -1 -7 4 -5 11 5 15 69 48 81 41 4 -2 7 1 7 8 0 6 8 9 20 6
11 -3 20 -2 20 2 0 12 119 13 170 2z m-698 -54 c-18 -13 -20 -17 -7 -12 41 14
224 25 230 14 3 -4 14 -6 25 -4 11 2 20 -1 20 -7 0 -7 4 -7 14 1 10 9 16 8 25
-3 10 -12 6 -18 -26 -34 -21 -11 -57 -26 -81 -33 -25 -7 -39 -16 -34 -21 5 -5
7 -20 4 -34 -5 -26 -39 -41 -68 -30 -8 3 -28 -1 -44 -9 -26 -14 -28 -13 -23 4
6 25 -31 38 -54 19 -15 -12 -15 -11 -4 10 11 21 9 23 -19 28 -19 4 -30 13 -30
24 0 13 -6 16 -24 13 -19 -4 -24 -1 -23 14 1 10 -4 17 -10 16 -7 -2 -13 6 -13
17 0 14 -7 20 -22 20 -13 0 -30 5 -38 10 -11 7 -5 9 23 8 20 -1 39 1 42 4 3 3
41 5 85 5 l80 -1 -28 -19z m-227 -7 c-3 -5 -2 -10 3 -10 14 0 31 -66 21 -81
-6 -10 -9 -11 -9 -1 0 7 -13 12 -31 12 -21 0 -28 -4 -23 -12 6 -10 4 -10 -8 0
-16 13 -18 67 -2 82 5 4 18 10 29 13 11 3 21 5 23 6 2 0 0 -3 -3 -9z m605 -10
c-11 -7 -12 -10 -2 -10 7 0 10 -4 7 -10 -3 -5 2 -21 11 -36 14 -20 15 -27 4
-34 -7 -4 -10 -13 -6 -19 5 -7 1 -9 -9 -5 -11 4 -18 0 -21 -12 -7 -28 -84 -32
-84 -5 0 10 8 29 18 42 10 13 21 32 25 42 3 9 11 17 17 17 5 0 10 7 10 15 0 7
8 18 17 24 22 12 33 3 13 -9z m-707 -97 c-5 -15 -3 -16 8 -5 20 18 28 15 21
-10 -3 -14 -2 -19 6 -14 7 4 12 2 12 -4 0 -6 -8 -10 -17 -8 -10 2 -17 -3 -15
-10 1 -7 -5 -15 -13 -18 -17 -7 -20 -24 -4 -24 6 0 26 7 44 16 31 14 36 14 67
-3 18 -10 47 -18 63 -18 20 0 30 -5 30 -15 0 -17 -47 -17 -132 0 -39 8 -58 8
-74 -1 -15 -8 -18 -13 -10 -19 9 -5 9 -9 -3 -13 -34 -13 -14 -24 37 -19 29 3
48 1 44 -4 -5 -5 -12 -8 -15 -7 -4 0 -15 -3 -24 -8 -16 -9 -16 -11 -1 -29 10
-11 24 -20 32 -20 8 0 11 -3 7 -7 -4 -4 -22 -6 -41 -5 -38 3 -49 -15 -12 -20
20 -3 22 -8 19 -48 -3 -37 -9 -50 -40 -77 -39 -34 -73 -48 -69 -29 1 6 -4 10
-10 8 -7 -1 -14 4 -14 10 -1 7 -5 0 -9 -17 -4 -19 -7 13 -8 83 -1 64 3 124 10
140 6 15 10 31 9 36 -1 5 5 6 13 3 9 -4 18 -2 21 4 4 5 3 9 -2 8 -21 -4 -25 2
-10 14 10 6 19 22 21 34 5 22 54 113 62 113 2 0 1 -8 -3 -17z m132 -23 c3 -6
-6 -15 -20 -20 -36 -14 -37 -13 -18 10 19 22 29 25 38 10z m120 -18 c-8 -8
-25 10 -19 20 4 6 9 5 15 -3 4 -7 6 -15 4 -17z m-85 -16 c0 -2 -7 -7 -16 -10
-8 -3 -12 -2 -9 4 6 10 25 14 25 6z m704 -66 c-14 -14 -56 -22 -49 -9 4 5 10
7 14 5 4 -3 13 -1 21 5 20 12 26 11 14 -1z m421 -29 c-9 -8 -36 -10 -30 -2 2
4 11 8 20 8 8 0 13 -3 10 -6z m-40 -141 c-3 -5 -16 -10 -28 -9 -21 0 -21 1 -2
9 28 12 37 12 30 0z m-1352 -285 c4 -8 3 -16 -1 -19 -4 -3 -9 4 -9 15 -2 23 3
25 10 4z"/>
<path d="M2755 1801 c11 -5 35 -10 53 -10 18 -1 49 -8 69 -16 42 -18 50 -15
24 9 -13 12 -42 19 -93 22 -50 3 -67 1 -53 -5z"/>
<path d="M1727 1696 c-4 -10 -1 -13 9 -9 15 6 19 23 5 23 -5 0 -11 -7 -14 -14z"/>
<path d="M1768 1475 c-23 -31 -23 -38 1 -23 19 12 36 48 23 48 -4 0 -15 -11
-24 -25z"/>
</g>
</svg>
