<?xml version="1.0" standalone="no"?>
<!DOCTYPE svg PUBLIC "-//W3C//DTD SVG 20010904//EN"
 "http://www.w3.org/TR/2001/REC-SVG-20010904/DTD/svg10.dtd">
<svg version="1.0" xmlns="http://www.w3.org/2000/svg"
 width="450.000000pt" height="253.000000pt" viewBox="0 0 450.000000 253.000000"
 preserveAspectRatio="xMidYMid meet">
<metadata>
Created by potrace 1.16, written by Peter Selinger 2001-2019
</metadata>
<g transform="translate(0.000000,253.000000) scale(0.100000,-0.100000)"
fill="#000000" stroke="none">
<path d="M0 1265 l0 -1265 2250 0 2250 0 0 1265 0 1265 -2250 0 -2250 0 0
-1265z m2414 633 c-5 -7 -7 -21 -5 -31 3 -20 -7 -30 -87 -83 -36 -23 -52 -40
-48 -49 8 -21 -3 -45 -20 -45 -17 0 -18 12 -2 28 20 20 -7 14 -35 -8 -25 -20
-53 -27 -43 -12 5 8 -63 42 -111 57 -31 9 -18 32 22 39 18 4 35 11 37 17 2 5
38 10 81 11 42 1 78 5 78 10 1 4 2 13 3 18 0 6 8 15 16 20 13 8 12 10 -4 10
-11 0 -17 3 -13 6 5 5 22 8 105 17 12 1 22 6 22 11 0 5 3 7 6 3 3 -3 2 -12 -2
-19z m43 16 c-3 -3 -12 -4 -19 -1 -8 3 -5 6 6 6 11 1 17 -2 13 -5z m217 -20
c49 -14 128 -45 176 -69 144 -72 176 -111 137 -167 -22 -33 -36 -36 -34 -8 1
12 7 18 14 16 14 -6 21 11 15 41 -3 19 -7 21 -23 12 -11 -5 -19 -6 -19 -1 0 6
-9 12 -20 15 -13 3 -18 1 -13 -6 4 -7 -1 -6 -10 2 -13 10 -24 11 -46 3 -26 -9
-29 -8 -26 7 2 10 -3 18 -10 18 -8 0 -11 -5 -8 -11 4 -6 -4 -2 -16 8 -20 18
-21 18 -15 2 6 -16 4 -17 -14 -7 -11 6 -30 24 -41 39 -11 16 -27 29 -35 29
-14 0 -13 -5 4 -34 19 -32 19 -33 0 -33 -10 0 -23 7 -28 16 -8 14 -11 14 -22
3 -8 -9 -29 -13 -59 -11 -43 3 -44 2 -22 -10 34 -19 27 -32 -18 -33 -22 0 -37
3 -34 8 6 10 -21 9 -52 -3 -26 -10 -55 -3 -39 9 5 3 15 17 22 29 12 21 11 27
-4 44 -17 18 -17 20 11 46 30 27 50 33 71 20 6 -4 22 -1 36 6 20 11 29 11 38
2 8 -8 10 -7 5 6 -4 9 -14 17 -23 17 -25 0 -96 11 -100 15 -2 2 23 4 55 5 35
0 94 -10 147 -25z m-501 -11 c-7 -2 -21 -2 -30 0 -10 3 -4 5 12 5 17 0 24 -2
18 -5z m-148 -12 c-7 -13 27 -31 51 -27 11 2 28 0 39 -5 19 -8 19 -8 -2 -15
-13 -3 -23 -10 -23 -15 0 -5 -18 -9 -40 -9 -22 0 -40 5 -40 10 0 6 5 10 10 10
17 0 11 20 -7 26 -10 3 -25 8 -33 11 -8 4 -26 8 -40 10 -46 8 -34 13 29 13 37
0 60 -4 56 -9z m-206 -13 c-2 -22 13 -58 22 -52 5 3 9 0 9 -7 0 -6 -8 -9 -20
-6 -15 4 -28 -5 -52 -39 -17 -24 -39 -46 -48 -49 -22 -7 -45 -55 -27 -56 6 0
-3 -6 -22 -13 -19 -7 -36 -18 -37 -24 -1 -7 0 -8 3 -2 10 20 20 10 15 -15 -2
-14 -7 -23 -10 -20 -3 2 -10 -4 -16 -14 -6 -10 -17 -28 -24 -41 -13 -21 -12
-21 10 -9 12 7 30 22 40 34 18 23 58 40 58 25 0 -5 -4 -12 -10 -15 -5 -3 -10
-11 -10 -16 0 -6 5 -7 10 -4 6 3 10 -1 10 -9 0 -11 -10 -16 -34 -16 -28 0 -34
-4 -38 -24 -5 -24 -5 -24 28 -8 19 8 36 14 38 11 2 -2 -1 -42 -8 -89 -9 -57
-14 -75 -17 -55 -3 24 -9 31 -32 33 -17 2 -36 -3 -47 -13 -22 -20 -33 -7 -28
34 1 16 -4 36 -12 46 -30 36 19 172 103 285 47 63 59 75 107 113 40 31 41 31
39 15z m371 -2 c0 -2 -7 -7 -16 -10 -8 -3 -12 -2 -9 4 6 10 25 14 25 6z m37
-2 c-3 -3 -12 -4 -19 -1 -8 3 -5 6 6 6 11 1 17 -2 13 -5z m-357 -14 c0 -5 -7
-10 -16 -10 -8 0 -12 5 -9 10 3 6 10 10 16 10 5 0 9 -4 9 -10z m1067 -200 c1
-11 -4 -21 -10 -22 -7 0 -16 -2 -22 -2 -5 -1 -17 -6 -25 -11 -13 -7 -13 -6 -2
7 8 10 21 14 30 11 9 -3 14 -3 10 2 -4 4 -3 14 3 22 15 17 14 17 16 -7z m-847
-4 c0 -2 -7 -7 -16 -10 -8 -3 -12 -2 -9 4 6 10 25 14 25 6z m-315 -126 c3 -5
1 -10 -4 -10 -6 0 -11 5 -11 10 0 6 2 10 4 10 3 0 8 -4 11 -10z m-68 -487 c-3
-10 -5 -2 -5 17 0 19 2 27 5 18 2 -10 2 -26 0 -35z m0 -65 c-3 -8 -6 -5 -6 6
-1 11 2 17 5 13 3 -3 4 -12 1 -19z m10 -135 c-2 -16 -4 -3 -4 27 0 30 2 43 4
28 2 -16 2 -40 0 -55z"/>
<path d="M2644 1862 c4 -3 14 -7 22 -8 9 -1 13 0 10 4 -4 3 -14 7 -22 8 -9 1
-13 0 -10 -4z"/>
<path d="M2773 1825 c0 -8 4 -12 9 -9 5 3 6 10 3 15 -9 13 -12 11 -12 -6z"/>
<path d="M1667 1686 c-4 -10 -1 -13 9 -9 15 6 19 23 5 23 -5 0 -11 -7 -14 -14z"/>
<path d="M1665 1400 c-3 -5 -1 -10 4 -10 6 0 11 5 11 10 0 6 -2 10 -4 10 -3 0
-8 -4 -11 -10z"/>
</g>
</svg>
