<?xml version="1.0" standalone="no"?>
<!DOCTYPE svg PUBLIC "-//W3C//DTD SVG 20010904//EN"
 "http://www.w3.org/TR/2001/REC-SVG-20010904/DTD/svg10.dtd">
<svg version="1.0" xmlns="http://www.w3.org/2000/svg"
 width="450.000000pt" height="253.000000pt" viewBox="0 0 450.000000 253.000000"
 preserveAspectRatio="xMidYMid meet">
<metadata>
Created by potrace 1.16, written by Peter Selinger 2001-2019
</metadata>
<g transform="translate(0.000000,253.000000) scale(0.100000,-0.100000)"
fill="#000000" stroke="none">
<path d="M0 1265 l0 -1265 2250 0 2250 0 0 1265 0 1265 -2250 0 -2250 0 0
-1265z m3225 726 c185 -33 305 -81 305 -123 0 -9 5 -20 10 -23 15 -9 12 -35
-5 -42 -9 -3 -24 2 -35 12 -18 16 -18 16 -13 -4 7 -26 17 -34 75 -55 49 -18
89 -52 119 -100 17 -28 17 -30 -2 -54 -10 -14 -19 -30 -19 -37 0 -18 -58 -65
-79 -65 -10 0 -26 -9 -35 -19 -17 -18 -16 -21 13 -61 42 -58 56 -131 35 -176
-18 -38 -56 -69 -95 -78 -23 -6 -170 -15 -344 -21 -44 -1 -99 3 -122 10 -23 7
-44 10 -47 7 -10 -9 -6 12 4 28 6 10 28 15 74 15 40 0 68 4 70 12 3 6 23 14
45 18 23 4 44 12 47 17 4 6 2 8 -4 4 -5 -3 -12 -1 -14 4 -2 6 -13 12 -26 13
-14 1 -22 8 -22 20 0 15 -6 17 -37 12 -20 -3 -34 -3 -30 1 3 4 1 16 -5 28 -9
17 -8 19 3 9 13 -13 38 -19 26 -6 -4 3 1 12 11 20 15 11 14 12 -10 3 -16 -5
-28 -7 -28 -4 0 3 -6 2 -12 -3 -13 -8 -29 -12 -60 -15 -16 -2 -15 -13 0 -13 4
0 18 -8 31 -17 20 -14 22 -18 9 -23 -9 -4 -22 -6 -29 -4 -29 3 -38 -1 -32 -18
6 -14 -1 -15 -63 -10 -38 4 -89 8 -114 10 -63 5 -143 56 -177 114 -30 52 -38
93 -17 93 10 0 11 6 4 26 -6 14 -7 30 -4 36 4 7 2 8 -4 4 -8 -5 -12 0 -12 13
0 12 -4 21 -9 21 -5 0 -9 33 -9 73 0 60 4 81 28 125 28 51 28 53 7 46 -18 -5
-16 -1 10 22 18 16 33 40 35 53 5 38 44 59 168 90 140 35 234 38 385 12z
m-617 -102 c17 -6 32 -17 32 -25 0 -14 -6 -16 -115 -35 -107 -18 -117 -22
-138 -62 -10 -20 -24 -37 -30 -38 -69 -6 -87 -5 -87 8 0 7 -4 13 -10 13 -5 0
-10 7 -10 15 0 8 -4 15 -10 15 -13 0 -13 -13 0 -26 11 -11 2 -54 -11 -54 -4 0
-11 15 -15 34 -5 32 -54 93 -54 69 0 -6 6 -16 14 -22 9 -7 13 -23 10 -39 -7
-36 15 -76 33 -61 10 9 13 5 13 -21 l0 -32 -42 7 c-24 4 -53 14 -65 22 -12 8
-32 13 -45 11 -18 -2 -22 -9 -20 -27 3 -32 3 -32 42 -21 44 13 85 3 69 -16 -6
-7 -18 -13 -27 -12 -10 1 -25 0 -36 0 -32 -3 2 -32 38 -32 26 -1 28 -2 13 -11
-9 -5 -22 -7 -29 -3 -7 4 -8 3 -4 -4 5 -8 -3 -12 -26 -12 -21 0 -28 -3 -20 -8
10 -7 8 -14 -8 -34 -26 -34 -26 -46 1 -22 20 18 20 18 14 -8 -10 -41 -34 -104
-35 -93 0 6 -7 2 -15 -9 -24 -31 -37 -9 -30 52 5 51 28 187 41 250 5 26 83
103 96 96 16 -10 7 19 -9 32 -20 15 -37 18 -29 6 3 -5 -1 -9 -9 -9 -22 0 -19
60 3 78 23 20 61 37 92 43 45 8 384 -4 418 -15z m-268 -273 c0 -3 -4 -8 -10
-11 -5 -3 -10 -1 -10 4 0 6 5 11 10 11 6 0 10 -2 10 -4z m-208 -196 c-4 -28
-22 -53 -22 -31 0 12 18 61 23 61 2 0 2 -14 -1 -30z"/>
<path d="M3250 1811 c0 -23 27 -54 40 -46 5 3 7 -4 5 -15 -2 -11 0 -20 5 -20
5 0 13 -12 16 -27 4 -16 14 -33 22 -39 12 -8 11 -12 -5 -25 -16 -12 -17 -12
-8 1 6 9 2 7 -7 -3 -10 -11 -18 -16 -18 -13 0 4 -11 -1 -25 -10 -14 -9 -25
-24 -25 -33 0 -10 -7 -26 -15 -37 -16 -21 -20 -70 -6 -78 4 -3 6 -29 3 -58 -5
-49 -4 -52 12 -39 15 13 18 12 22 -7 4 -11 12 -23 18 -25 16 -6 78 41 71 53
-3 5 3 14 14 20 20 10 19 40 -1 40 -5 0 -7 -4 -4 -8 2 -4 0 -14 -5 -22 -7 -12
-8 -10 -6 7 2 12 12 30 23 40 11 10 15 15 8 10 -8 -5 -10 0 -6 18 3 19 0 25
-12 25 -10 0 -14 4 -11 10 3 6 -1 7 -9 4 -17 -6 -22 11 -7 20 5 3 7 15 4 25
-3 10 0 22 6 25 5 4 7 14 4 23 -5 12 -3 14 7 8 9 -6 11 -4 5 5 -5 8 -1 19 11
28 15 12 16 14 2 9 -12 -4 -15 -2 -11 8 3 8 10 12 15 9 13 -8 -10 35 -31 60
-9 10 -15 20 -13 22 11 19 -10 36 -60 48 -23 5 -28 3 -28 -13z m80 -256 c-7
-8 -16 -12 -21 -9 -13 8 -1 24 18 24 13 0 13 -3 3 -15z m14 -164 c3 -5 -1 -14
-8 -20 -12 -10 -13 -8 -9 8 6 23 9 25 17 12z"/>
<path d="M3220 1590 c0 -5 5 -10 11 -10 5 0 7 5 4 10 -3 6 -8 10 -11 10 -2 0
-4 -4 -4 -10z"/>
<path d="M2115 1729 c-3 -4 2 -6 10 -5 21 3 28 13 10 13 -9 0 -18 -4 -20 -8z"/>
</g>
</svg>
