<?xml version="1.0" standalone="no"?>
<!DOCTYPE svg PUBLIC "-//W3C//DTD SVG 20010904//EN"
 "http://www.w3.org/TR/2001/REC-SVG-20010904/DTD/svg10.dtd">
<svg version="1.0" xmlns="http://www.w3.org/2000/svg"
 width="450.000000pt" height="253.000000pt" viewBox="0 0 450.000000 253.000000"
 preserveAspectRatio="xMidYMid meet">
<metadata>
Created by potrace 1.16, written by Peter Selinger 2001-2019
</metadata>
<g transform="translate(0.000000,253.000000) scale(0.100000,-0.100000)"
fill="#000000" stroke="none">
<path d="M0 1265 l0 -1265 2250 0 2250 0 0 1265 0 1265 -2250 0 -2250 0 0
-1265z m2667 610 c40 -10 70 -21 67 -26 -3 -5 2 -6 10 -3 18 7 99 -30 89 -41
-5 -4 -3 -5 4 -1 13 7 78 -24 133 -63 66 -47 90 -74 89 -100 0 -14 -3 -20 -6
-13 -2 6 -11 12 -19 12 -9 0 -12 5 -9 10 3 6 1 10 -4 10 -6 0 -11 -6 -11 -12
0 -9 -2 -10 -8 -2 -4 7 -31 10 -67 9 -38 -2 -68 3 -82 11 -13 8 -23 11 -23 7
0 -4 -12 4 -27 18 -16 14 -37 32 -48 40 -18 13 -19 13 -6 -3 12 -16 11 -18 -8
-18 -12 0 -42 5 -66 11 -31 8 -49 8 -62 0 -16 -9 -14 -10 11 -11 16 0 26 -3
23 -6 -10 -10 -49 -11 -74 -2 -14 4 -23 4 -23 -3 0 -6 -6 -7 -17 0 -10 5 -26
5 -39 1 -12 -5 -25 -6 -30 -2 -4 4 -4 2 0 -5 5 -9 14 -9 31 -3 16 6 27 5 33
-3 8 -9 0 -12 -33 -13 -38 0 -44 3 -48 23 -2 13 2 31 9 40 18 24 17 30 -6 36
-28 7 -36 35 -16 55 12 12 36 17 89 19 93 2 97 2 67 15 -35 14 -134 23 -127
11 3 -5 -6 -8 -24 -5 -23 3 -29 1 -29 -14 0 -23 -65 -62 -99 -59 -16 1 -25 -4
-29 -19 -5 -19 -6 -19 -13 0 -7 16 -8 17 -8 2 -1 -10 -6 -18 -11 -18 -6 0 -2
-10 9 -21 16 -17 18 -26 10 -42 -9 -16 -13 -17 -20 -6 -7 12 -9 12 -9 0 0 -8
-3 -11 -7 -8 -3 4 1 15 10 25 27 29 7 34 -25 7 -16 -14 -35 -25 -41 -25 -7 0
-6 4 3 10 17 11 17 10 -26 15 -17 2 -48 12 -69 24 -21 11 -42 18 -47 15 -5 -3
-7 0 -6 8 2 7 14 19 28 26 22 11 18 11 -35 6 -58 -6 -59 -5 -37 11 31 22 25
34 -28 56 l-45 18 100 -1 c55 -1 80 -3 55 -5 -25 -3 -49 -9 -55 -15 -7 -7 -6
-9 2 -4 6 3 14 2 18 -4 3 -5 27 -10 52 -10 35 0 43 -3 35 -12 -8 -10 5 -13 61
-11 40 1 73 3 75 4 1 1 7 3 12 4 6 1 12 4 15 5 3 1 9 3 14 4 5 0 13 4 16 8 4
4 -4 5 -18 2 -14 -2 -28 0 -32 5 -6 10 32 26 53 23 6 -2 12 3 12 10 0 9 3 9
10 -2 6 -10 10 -11 10 -3 0 9 7 10 25 3 14 -5 31 -7 39 -4 18 7 146 20 166 17
8 -1 48 -9 87 -18z m-839 -20 c-2 -6 -6 -9 -10 -8 -3 1 -5 -5 -4 -15 2 -9 -12
-35 -30 -58 -19 -23 -34 -46 -34 -53 0 -10 -8 -12 -65 -15 -11 -1 -21 -9 -23
-18 -2 -13 1 -16 12 -12 9 3 13 11 9 18 -4 7 -2 7 7 -1 11 -10 11 -15 0 -28
-10 -12 -10 -15 1 -16 8 0 2 -5 -13 -11 -20 -7 -28 -17 -28 -34 0 -23 -33 -68
-43 -58 -2 3 -7 -2 -11 -11 -4 -11 -2 -14 7 -10 6 3 2 -2 -10 -11 -27 -20 -31
-39 -5 -25 10 5 35 26 57 45 45 41 70 47 60 15 -5 -16 -4 -19 5 -14 8 5 11 3
8 -6 -3 -8 -16 -13 -30 -12 -15 1 -29 -7 -37 -19 -16 -25 -9 -33 17 -19 12 6
28 11 38 11 14 0 16 -7 9 -47 -4 -27 -7 -54 -8 -60 0 -9 -4 -10 -14 -2 -7 6
-11 15 -8 19 12 19 -13 18 -33 -1 -12 -11 -22 -17 -22 -13 0 3 -11 -1 -24 -9
l-23 -16 4 46 c2 34 0 44 -10 40 -19 -7 -20 38 -2 101 15 51 81 169 111 199 8
8 19 23 24 34 6 10 19 19 30 19 12 0 17 5 14 14 -3 8 0 17 7 22 8 5 10 3 4 -7
-5 -8 4 -1 19 14 25 27 52 34 44 12z m358 -1 c-3 -9 -6 -17 -6 -19 0 -2 -10
-1 -21 2 -21 6 -21 7 -4 20 25 18 38 17 31 -3z m48 -6 c-7 -11 -34 -10 -34 1
0 6 9 9 19 8 11 0 17 -5 15 -9z m-366 -10 c-3 -7 -15 -14 -29 -16 -24 -4 -24
-3 -4 12 24 19 38 20 33 4z m-13 -38 c-3 -5 -12 -10 -18 -10 -7 0 -6 4 3 10
19 12 23 12 15 0z m908 -131 c44 -16 47 -24 10 -26 -16 -1 -22 1 -14 4 8 3 -1
12 -25 24 -42 21 -32 20 29 -2z m-983 -159 c0 -5 -5 -10 -11 -10 -5 0 -7 5 -4
10 3 6 8 10 11 10 2 0 4 -4 4 -10z m-89 -147 c13 -16 12 -17 -3 -4 -10 7 -18
15 -18 17 0 8 8 3 21 -13z m34 -493 c2 -23 1 -40 -2 -36 -3 3 -7 24 -9 47 -3
24 -2 40 1 37 3 -3 7 -24 10 -48z"/>
<path d="M1620 1610 c0 -5 5 -10 10 -10 6 0 10 5 10 10 0 6 -4 10 -10 10 -5 0
-10 -4 -10 -10z"/>
</g>
</svg>
