<?xml version="1.0" standalone="no"?>
<!DOCTYPE svg PUBLIC "-//W3C//DTD SVG 20010904//EN"
 "http://www.w3.org/TR/2001/REC-SVG-20010904/DTD/svg10.dtd">
<svg version="1.0" xmlns="http://www.w3.org/2000/svg"
 width="450.000000pt" height="253.000000pt" viewBox="0 0 450.000000 253.000000"
 preserveAspectRatio="xMidYMid meet">
<metadata>
Created by potrace 1.16, written by Peter Selinger 2001-2019
</metadata>
<g transform="translate(0.000000,253.000000) scale(0.100000,-0.100000)"
fill="#000000" stroke="none">
<path d="M0 1265 l0 -1265 2250 0 2250 0 0 1265 0 1265 -2250 0 -2250 0 0
-1265z m2765 636 c127 -34 215 -77 317 -153 46 -36 80 -69 84 -83 8 -34 -9
-79 -32 -84 -19 -3 -19 -3 0 17 10 12 16 26 14 33 -4 13 -98 16 -118 4 -8 -5
-11 -4 -6 3 4 7 -3 10 -21 8 -16 -2 -29 -5 -30 -6 -8 -7 -103 -3 -103 4 0 5
-9 1 -21 -10 -15 -14 -20 -15 -17 -4 2 9 -3 14 -12 12 -42 -10 -50 -10 -56 0
-5 7 -2 8 7 3 8 -5 10 -4 6 0 -10 12 -39 16 -32 5 3 -5 -3 -7 -12 -6 -9 2 -19
9 -21 17 -3 8 -9 17 -15 20 -13 9 -48 -1 -41 -12 3 -5 -6 -5 -20 1 -17 6 -27
6 -32 -1 -4 -8 -9 -7 -14 2 -7 10 -12 10 -26 -2 -10 -8 -15 -9 -11 -3 4 7 -10
16 -36 25 -51 16 -60 27 -41 53 22 32 18 76 -6 76 -23 0 -24 4 -9 32 10 18 9
20 -5 15 -8 -3 -18 -2 -21 3 -10 16 116 49 190 49 39 0 102 -8 140 -18z m-559
-24 c4 -3 15 -2 25 3 21 12 69 10 86 -3 7 -5 16 -6 21 -4 4 3 14 2 22 -3 21
-13 -3 -36 -58 -56 -26 -10 -51 -21 -57 -26 -10 -9 -12 -14 -14 -47 -1 -22
-51 -43 -72 -30 -9 5 -23 2 -37 -7 -27 -18 -41 -12 -23 10 22 26 -27 32 -60 7
-33 -25 -39 -14 -9 14 23 21 12 35 -26 35 -15 0 -21 6 -20 18 1 12 -5 16 -23
14 -17 -1 -22 2 -18 13 4 8 -1 19 -11 24 -9 5 -13 13 -9 18 5 4 -7 13 -25 20
-28 11 -8 12 134 9 93 -1 171 -5 174 -9z m-355 -26 c0 -9 2 -24 4 -33 3 -15
-5 -18 -47 -18 -41 0 -51 -3 -55 -20 -3 -11 -10 -20 -17 -20 -6 0 -4 -5 4 -10
13 -9 13 -12 -2 -24 -10 -7 -15 -15 -13 -18 3 -3 -5 -4 -19 -3 -14 2 -32 -5
-42 -16 -19 -21 -6 -27 14 -7 10 10 14 10 21 0 11 -18 68 3 109 41 26 25 34
28 45 18 6 -7 8 -11 2 -10 -22 5 -43 -13 -38 -32 6 -23 12 -24 42 -3 l23 17
-18 -28 -19 -28 33 6 c20 4 31 3 27 -3 -3 -5 -42 -7 -93 -4 -93 5 -105 2 -116
-34 -7 -22 -6 -23 46 -17 l53 5 -33 -15 c-29 -13 -32 -18 -21 -31 7 -9 26 -22
43 -29 l31 -14 -30 0 c-90 3 -123 -5 -60 -14 28 -4 30 -7 30 -48 1 -44 -24
-93 -48 -95 -7 -1 -16 -3 -22 -4 -5 -1 -23 -3 -40 -4 -18 -1 -29 -6 -27 -13 1
-7 -2 -13 -6 -13 -5 0 -8 24 -7 53 1 28 -3 58 -8 65 -9 12 -6 74 8 137 10 49
97 195 114 193 8 -2 20 7 26 19 7 13 14 20 17 18 3 -3 8 1 11 10 4 8 2 15 -3
15 -21 0 -9 19 18 28 35 11 62 4 63 -17z m535 -26 c-3 -9 0 -15 9 -15 7 0 17
-5 21 -12 5 -7 2 -9 -7 -4 -8 4 -5 0 6 -10 17 -14 17 -16 3 -11 -12 4 -18 1
-18 -9 0 -9 5 -12 13 -8 8 5 8 2 -2 -9 -16 -20 -25 -22 -16 -4 4 6 0 4 -8 -6
-13 -15 -16 -16 -27 -2 -10 12 -10 19 -2 27 7 7 12 24 12 38 0 25 7 40 18 40
2 0 2 -7 -2 -15z m313 -168 c0 -9 -2 -8 -6 1 -2 6 -10 9 -15 6 -7 -4 -8 -2 -4
5 9 13 26 5 25 -12z m421 -33 c0 -8 -19 -13 -24 -6 -3 5 1 9 9 9 8 0 15 -2 15
-3z m-1140 -39 c0 -8 -4 -15 -10 -15 -5 0 -7 7 -4 15 4 8 8 15 10 15 2 0 4 -7
4 -15z m1085 -14 c3 -5 2 -12 -3 -15 -5 -3 -9 1 -9 9 0 17 3 19 12 6z"/>
<path d="M2769 1739 c13 -5 39 -17 58 -26 37 -17 47 -15 33 7 -7 10 -10 11
-10 3 0 -8 -8 -5 -20 7 -12 12 -33 20 -52 19 -31 0 -32 -1 -9 -10z"/>
<path d="M2030 1870 c0 -13 11 -13 30 0 12 8 11 10 -7 10 -13 0 -23 -4 -23
-10z"/>
<path d="M2186 1838 c3 -5 10 -6 15 -3 13 9 11 12 -6 12 -8 0 -12 -4 -9 -9z"/>
<path d="M1715 1459 c-4 -6 -5 -12 -2 -15 2 -3 7 2 10 11 7 17 1 20 -8 4z"/>
</g>
</svg>
