<?xml version="1.0" standalone="no"?>
<!DOCTYPE svg PUBLIC "-//W3C//DTD SVG 20010904//EN"
 "http://www.w3.org/TR/2001/REC-SVG-20010904/DTD/svg10.dtd">
<svg version="1.0" xmlns="http://www.w3.org/2000/svg"
 width="450.000000pt" height="253.000000pt" viewBox="0 0 450.000000 253.000000"
 preserveAspectRatio="xMidYMid meet">
<metadata>
Created by potrace 1.16, written by Peter Selinger 2001-2019
</metadata>
<g transform="translate(0.000000,253.000000) scale(0.100000,-0.100000)"
fill="#000000" stroke="none">
<path d="M0 1265 l0 -1265 2250 0 2250 0 0 1265 0 1265 -2250 0 -2250 0 0
-1265z m3067 702 c53 -16 195 -71 232 -90 13 -7 31 -28 38 -47 8 -19 26 -59
40 -88 48 -99 42 -172 -20 -230 -18 -16 -39 -43 -48 -59 -9 -16 -45 -48 -80
-71 -35 -23 -69 -46 -76 -52 -24 -20 -107 -70 -116 -70 -5 0 -4 6 2 14 9 11 6
13 -19 11 -17 -1 -33 2 -37 8 -3 6 -1 7 5 3 7 -4 12 -2 12 3 0 12 1 12 -58 16
-23 2 -40 0 -37 -5 3 -5 -6 -7 -20 -4 -14 2 -36 6 -50 8 -66 12 -209 121 -203
155 3 16 48 23 48 8 0 -5 7 -4 15 3 8 7 15 20 15 29 0 14 2 14 10 1 9 -13 10
-13 11 0 1 8 1 19 -1 25 -1 5 7 3 17 -6 15 -13 23 -13 53 -3 19 7 33 13 30 14
-16 5 -40 9 -75 15 -22 4 -46 11 -52 17 -7 6 -19 8 -27 5 -9 -4 -21 5 -31 20
-10 14 -12 23 -6 19 14 -9 -7 53 -25 75 -19 21 -18 26 11 84 23 48 36 97 16
67 -7 -11 -9 -11 -14 1 -4 11 4 19 24 26 16 5 29 13 29 17 0 3 -7 4 -15 0 -25
-9 -17 11 13 32 24 17 156 56 222 65 43 6 117 -1 167 -16z m-652 -57 c-3 -5 1
-10 9 -10 9 0 16 5 16 10 0 6 23 10 50 10 28 0 50 -4 50 -9 0 -6 12 -9 28 -8
18 1 27 -3 27 -12 0 -16 -157 -63 -172 -52 -4 4 -7 4 -5 1 2 -2 -12 -9 -30
-16 -25 -8 -33 -17 -35 -38 -3 -36 -6 -39 -45 -40 -18 -1 -39 -5 -45 -9 -9 -6
-13 -2 -13 12 0 11 -9 22 -19 26 -31 10 -94 74 -87 90 5 13 -7 28 -26 31 -30
6 -29 8 7 14 64 12 297 12 290 0z m-348 -42 c-2 -7 -1 -22 4 -34 6 -18 4 -21
-20 -20 -29 1 -39 29 -19 53 13 17 41 17 35 1z m41 -4 c5 -9 13 -15 18 -15 5
0 20 -18 32 -42 13 -23 28 -46 32 -51 11 -11 1 -38 -11 -30 -5 3 -9 16 -9 30
0 14 -6 27 -14 30 -8 3 -18 19 -21 35 -4 16 -10 27 -15 24 -5 -3 -11 -1 -15 4
-3 6 -11 9 -18 7 -7 -1 -9 -1 -4 1 4 3 5 9 1 14 -3 5 -1 9 5 9 5 0 14 -7 19
-16z m22 -116 c0 -17 -3 -18 -14 -8 -8 6 -12 18 -9 26 7 19 23 7 23 -18z m-30
-49 c0 -5 9 -9 19 -9 25 0 32 -12 20 -30 -6 -10 -12 -11 -16 -5 -5 6 -15 10
-23 10 -8 0 -14 6 -12 13 1 6 -2 12 -6 12 -4 0 -14 -6 -21 -12 -9 -8 -11 -8
-8 -2 4 7 0 14 -8 18 -8 3 -15 2 -15 -3 0 -4 -7 -8 -16 -8 -15 0 -15 2 -1 12
19 13 87 17 87 4z m-113 -76 c-1 -10 -6 -24 -11 -31 -7 -11 -4 -12 11 -3 14 7
23 7 31 -1 19 -19 14 -48 -7 -48 -10 0 -24 -6 -30 -14 -9 -11 -6 -12 16 -8 27
5 27 5 10 -19 -9 -13 -22 -33 -28 -44 -12 -19 -11 -19 13 -3 l26 17 -9 -37
c-5 -20 -9 -39 -9 -42 0 -3 -9 -11 -21 -18 -15 -10 -24 -10 -34 -2 -24 20 -3
221 27 258 14 17 18 15 15 -5z m119 -4 c4 -7 1 -10 -7 -7 -8 3 -25 1 -38 -4
-14 -5 -32 -6 -40 -2 -14 5 -13 7 4 14 30 13 73 12 81 -1z m868 -350 c3 -3 -4
-5 -14 -6 -11 -1 -20 2 -20 7 0 8 25 8 34 -1z"/>
<path d="M2975 1530 c-3 -5 1 -10 10 -10 9 0 13 5 10 10 -3 6 -8 10 -10 10 -2
0 -7 -4 -10 -10z"/>
<path d="M2746 1507 c3 -10 9 -15 12 -12 3 3 0 11 -7 18 -10 9 -11 8 -5 -6z"/>
<path d="M2772 1505 c4 -4 3 -14 -3 -21 -9 -11 -7 -15 5 -20 9 -4 20 -4 23 0
4 3 -2 6 -12 6 -14 0 -15 3 -6 14 9 11 9 16 -1 22 -7 4 -10 4 -6 -1z"/>
<path d="M2726 1481 c-3 -5 1 -11 9 -14 9 -4 12 -1 8 9 -6 16 -10 17 -17 5z"/>
<path d="M2946 1482 c-2 -1 -15 -5 -29 -8 -71 -12 -69 -22 6 -20 52 2 81 -2
88 -10 8 -9 5 -11 -10 -7 -13 3 -21 1 -21 -6 0 -7 -5 -9 -12 -5 -7 4 -8 3 -4
-4 4 -6 13 -9 20 -6 8 3 21 -5 30 -18 10 -15 16 -17 16 -8 0 13 2 13 10 0 8
-12 10 -12 10 5 0 17 2 17 10 5 5 -8 10 -10 10 -4 0 12 4 12 69 17 25 1 48 9
55 18 6 9 19 15 28 13 11 -1 15 3 11 14 -5 11 -3 13 7 7 9 -6 11 -4 6 4 -5 7
-11 10 -14 7 -3 -3 -12 0 -20 7 -13 10 -14 9 -7 -3 6 -12 5 -13 -6 -2 -7 6
-17 12 -22 12 -4 0 -5 -6 -1 -12 6 -10 5 -10 -7 -1 -13 11 -213 16 -223 5z"/>
<path d="M2414 1879 c-8 -14 14 -19 25 -6 8 10 7 14 -5 14 -8 0 -17 -4 -20 -8z"/>
</g>
</svg>
