<?xml version="1.0" standalone="no"?>
<!DOCTYPE svg PUBLIC "-//W3C//DTD SVG 20010904//EN"
 "http://www.w3.org/TR/2001/REC-SVG-20010904/DTD/svg10.dtd">
<svg version="1.0" xmlns="http://www.w3.org/2000/svg"
 width="450.000000pt" height="253.000000pt" viewBox="0 0 450.000000 253.000000"
 preserveAspectRatio="xMidYMid meet">
<metadata>
Created by potrace 1.16, written by Peter Selinger 2001-2019
</metadata>
<g transform="translate(0.000000,253.000000) scale(0.100000,-0.100000)"
fill="#000000" stroke="none">
<path d="M0 1265 l0 -1265 2250 0 2250 0 0 1265 0 1265 -2250 0 -2250 0 0
-1265z m2795 795 c10 -11 16 -20 13 -20 -3 0 -13 9 -23 20 -10 11 -16 20 -13
20 3 0 13 -9 23 -20z m249 7 c4 4 4 -1 0 -10 -3 -10 -7 -17 -8 -15 -1 2 -8 12
-16 23 -14 18 -13 19 1 8 9 -7 19 -10 23 -6z m33 -5 c-15 -16 -15 -19 -2 -19
8 0 15 4 15 9 0 4 5 8 11 8 5 0 8 -4 5 -8 -3 -5 0 -9 7 -10 16 -2 121 -11 178
-15 25 -2 50 -7 57 -11 7 -4 17 -4 22 -1 6 3 17 -1 26 -10 9 -9 23 -14 30 -11
7 3 16 1 19 -5 4 -5 10 -7 15 -4 4 3 13 -2 20 -10 9 -11 16 -12 26 -5 10 9 11
7 7 -9 -3 -12 -1 -21 6 -21 6 0 8 -7 4 -17 -5 -12 -2 -15 9 -11 12 5 13 -1 8
-38 -5 -31 -3 -44 7 -48 7 -3 13 -13 13 -23 0 -21 53 -48 76 -39 10 4 13 2 8
-6 -5 -7 0 -9 14 -6 16 5 19 2 14 -11 -5 -14 -4 -14 13 -1 10 8 16 10 12 3 -4
-6 3 -20 18 -31 13 -11 21 -22 18 -26 -3 -3 -1 -6 5 -6 7 0 12 -7 12 -16 0 -9
5 -12 12 -8 7 5 8 3 3 -6 -4 -7 -2 -16 6 -21 10 -6 10 -9 2 -9 -7 0 -23 -21
-34 -46 -16 -34 -32 -50 -58 -61 -20 -9 -43 -19 -51 -24 -58 -33 -112 -59
-125 -59 -10 0 -4 -10 17 -29 32 -28 45 -51 81 -133 21 -47 18 -140 -6 -166
-9 -10 -17 -23 -17 -29 0 -16 -76 -46 -98 -39 -42 14 -94 19 -302 30 -101 5
-117 8 -193 38 -40 16 -63 32 -73 50 -7 14 -19 29 -26 32 -21 9 132 -2 196
-14 45 -9 61 -9 70 1 8 9 7 10 -4 5 -8 -4 -6 0 4 8 22 18 22 18 -56 16 -49 -1
-58 2 -68 21 -7 12 -8 19 -2 15 5 -3 12 0 15 7 3 8 -13 13 -55 15 -45 2 -58 0
-52 -9 5 -9 -14 -11 -85 -6 -95 7 -120 15 -156 51 -32 32 -81 101 -64 91 12
-7 12 -6 -1 9 -8 10 -15 32 -15 50 -2 51 -16 90 -27 74 -5 -8 -7 2 -3 27 3 22
5 63 6 90 1 61 15 110 42 149 l20 28 -24 -6 c-22 -6 -21 -5 4 9 15 9 27 18 27
22 0 6 -71 -1 -158 -17 -51 -9 -91 -38 -92 -67 0 -25 -100 -39 -100 -14 0 25
-8 7 -14 -32 -5 -29 -3 -37 6 -31 10 6 11 4 1 -7 -7 -7 -13 -21 -13 -31 0 -18
-1 -18 -32 -1 -18 9 -38 16 -45 15 -6 -1 -14 2 -18 8 -3 5 -17 10 -30 10 -35
0 -39 15 -10 46 14 15 25 31 25 37 0 5 7 7 15 3 23 -8 18 17 -6 33 -18 11 -23
11 -31 -1 -6 -9 -8 0 -4 27 4 27 2 35 -4 25 -5 -8 -10 -10 -10 -4 0 6 7 17 15
24 8 7 12 17 8 23 -3 6 -1 7 6 3 6 -4 24 0 38 9 16 11 46 18 79 18 30 0 52 2
50 6 -2 3 10 5 27 4 18 -1 32 -2 32 -3 0 -1 10 -3 23 -4 12 -2 22 2 22 8 0 6
5 4 10 -4 9 -13 10 -13 10 0 0 9 3 11 8 5 4 -5 16 -12 26 -13 18 -3 19 -2 5
15 -13 17 -13 17 5 3 19 -15 24 -16 94 -24 31 -3 40 -1 35 7 -3 7 4 3 18 -8
15 -13 19 -14 11 -3 -10 12 -10 18 -2 23 7 4 10 15 7 25 -3 13 0 17 9 13 8 -3
14 0 14 7 0 6 5 8 10 5 6 -3 10 2 10 12 0 15 2 16 10 3 7 -11 10 -11 10 -2 0
7 5 10 10 7 6 -3 10 0 11 7 0 10 2 10 6 0 7 -19 23 -4 16 16 -5 14 -2 13 11
-3 13 -14 16 -15 13 -4 -3 9 1 16 9 16 7 0 11 -4 8 -8 -2 -4 6 -6 18 -3 13 3
40 7 61 8 20 1 42 7 49 14 9 9 15 9 27 -1 12 -10 14 -9 9 3 -6 18 27 26 37 9
3 -5 -1 -6 -9 -3 -9 3 -16 2 -16 -3 0 -18 50 -7 72 15 27 27 38 29 15 4z m106
-7 c9 2 15 0 12 -4 -4 -7 -23 -7 -70 -2 -5 1 -3 5 5 11 8 5 19 5 25 1 5 -5 18
-7 28 -6z m84 8 c-4 -3 -1 -13 6 -22 10 -14 10 -14 -4 -4 -9 7 -18 10 -21 7
-3 -3 -9 0 -14 7 -4 7 -3 10 4 5 6 -3 13 -2 17 4 3 5 9 10 12 10 4 0 3 -3 0
-7z m-369 -28 c-3 -3 -9 2 -12 12 -6 14 -5 15 5 6 7 -7 10 -15 7 -18z m400 0
c-3 -3 -9 2 -12 12 -6 14 -5 15 5 6 7 -7 10 -15 7 -18z m57 17 c-3 -3 0 -11 6
-19 17 -20 5 -16 -14 5 -15 16 -15 19 -2 19 8 0 13 -3 10 -5z m-479 -14 c3 -4
-1 -5 -10 -4 -8 1 -18 5 -22 8 -3 4 1 5 10 4 8 -1 18 -5 22 -8z m553 -25 c-6
-7 -15 -10 -20 -7 -13 8 -3 21 15 21 12 0 13 -4 5 -14z m-776 -58 c4 -8 3 -16
-1 -19 -4 -3 -9 4 -9 15 -2 23 3 25 10 4z m-507 -201 c1 -9 0 -13 -4 -10 -3 4
-7 14 -8 22 -1 9 0 13 4 10 3 -4 7 -14 8 -22z m170 -109 c-3 -20 -16 -31 -16
-13 0 13 8 28 16 28 1 0 1 -7 0 -15z m-166 -16 c0 -6 13 -8 35 -5 19 3 41 3
49 0 19 -7 9 -34 -12 -32 -10 1 -25 0 -34 0 -17 -2 -17 -3 0 -20 11 -11 27
-16 46 -13 21 3 27 0 21 -8 -4 -7 -13 -10 -21 -7 -7 3 -16 1 -20 -5 -3 -6 -16
-9 -27 -8 -34 2 -43 -1 -29 -10 10 -6 7 -15 -13 -39 -30 -36 -21 -43 13 -12
27 26 28 20 1 -33 -12 -23 -22 -44 -22 -47 1 -14 -10 -29 -18 -24 -5 3 -9 -5
-9 -17 0 -18 -3 -20 -12 -11 -14 14 -22 56 -9 47 6 -3 6 6 1 25 -5 19 -5 28 1
25 5 -4 9 -3 10 2 0 4 3 27 5 51 4 36 10 78 13 90 1 1 1 5 2 10 1 4 5 15 10
24 6 11 5 18 -4 21 -7 3 -5 6 6 6 9 1 17 -4 17 -10z m240 -20 c0 -5 -4 -9 -10
-9 -5 0 -10 7 -10 16 0 8 5 12 10 9 6 -3 10 -10 10 -16z m-275 -348 c-2 -9 -4
-27 -5 -41 -2 -24 -3 -24 -11 5 -8 29 -8 28 -6 -7 2 -21 -1 -38 -5 -38 -10 0
-11 64 0 74 7 7 8 11 11 39 1 9 4 8 10 -2 5 -7 7 -21 6 -30z m-30 -208 c0 -12
-3 -23 -7 -23 -4 0 -4 -11 1 -23 5 -13 6 -30 1 -37 -4 -7 -6 -20 -2 -29 3 -9
1 -12 -3 -8 -13 11 -12 144 0 144 6 0 10 -11 10 -24z m115 -295 c0 -72 -2
-129 -5 -126 -9 9 -9 258 0 258 3 0 5 -59 5 -132z m-125 113 c3 -5 2 -12 -3
-15 -5 -3 -9 1 -9 9 0 17 3 19 12 6z m122 -273 c-3 -8 -6 -5 -6 6 -1 11 2 17
5 13 3 -3 4 -12 1 -19z m0 -140 c-3 -7 -5 -2 -5 12 0 14 2 19 5 13 2 -7 2 -19
0 -25z m0 -40 c-3 -8 -6 -5 -6 6 -1 11 2 17 5 13 3 -3 4 -12 1 -19z"/>
<path d="M2702 1893 c-7 -2 -17 -14 -23 -26 -11 -21 -10 -20 15 2 14 14 26 26
26 28 0 3 0 3 -18 -4z"/>
<path d="M3438 1893 c7 -3 16 -2 19 1 4 3 -2 6 -13 5 -11 0 -14 -3 -6 -6z"/>
<path d="M3172 1883 c2 -4 10 -23 17 -40 8 -20 20 -33 30 -33 10 0 28 -10 41
-22 14 -13 26 -21 28 -20 2 2 7 0 10 -4 4 -4 2 -4 -5 0 -6 3 -14 2 -18 -4 -4
-6 -11 -7 -17 -4 -6 4 -8 2 -5 -4 8 -12 30 -10 48 4 23 18 45 23 60 12 11 -7
11 -11 1 -15 -6 -2 -10 -9 -6 -14 3 -5 2 -9 -3 -8 -37 6 -97 -40 -86 -67 8
-21 25 -17 49 14 12 15 25 24 29 21 3 -4 -1 -14 -10 -22 -8 -9 -15 -20 -15
-25 0 -5 -7 -15 -15 -22 -9 -7 -15 -29 -15 -50 0 -21 -4 -40 -8 -42 -4 -1 -18
-20 -31 -41 -19 -31 -22 -46 -16 -82 3 -25 10 -47 16 -50 5 -4 7 -10 4 -15 -3
-4 3 -7 12 -6 10 2 21 -1 24 -6 3 -5 9 -3 12 5 4 12 0 15 -14 12 -15 -3 -19 0
-15 10 3 8 0 14 -6 12 -6 -1 -13 5 -15 13 -4 13 -3 13 6 0 9 -13 11 -13 11 -1
0 11 4 10 16 -5 8 -10 13 -14 10 -7 -4 6 -2 14 3 17 11 7 21 -17 21 -51 0 -15
5 -23 13 -20 6 2 11 9 10 15 -2 6 3 9 10 6 7 -2 13 3 13 13 1 10 4 33 8 51 5
24 3 34 -9 38 -8 3 -12 10 -9 15 3 5 2 9 -3 8 -24 -4 -31 3 -27 28 3 15 8 31
11 36 3 6 1 7 -5 3 -7 -4 -12 -2 -12 4 0 6 -5 8 -11 4 -7 -4 -10 -1 -7 7 2 7
19 17 36 21 22 6 30 13 26 23 -4 8 -1 15 5 15 6 0 8 6 5 13 -3 8 2 14 10 14 8
0 13 -3 11 -7 -2 -4 2 -7 9 -7 8 0 13 7 11 16 -1 9 -8 15 -14 13 -7 -1 -4 9 6
22 10 14 21 26 26 26 4 0 7 5 7 11 0 6 -7 9 -15 6 -8 -4 -17 -1 -21 5 -5 7 -2
8 7 4 8 -4 3 1 -10 12 -13 11 -21 24 -17 31 4 6 1 11 -7 11 -7 0 -23 9 -35 20
-12 11 -25 20 -29 20 -11 0 -43 37 -43 50 0 6 -6 10 -12 10 -7 1 -30 3 -52 6
-21 3 -36 2 -34 -3z"/>
<path d="M3210 1790 c0 -5 7 -10 15 -10 8 0 15 5 15 10 0 6 -7 10 -15 10 -8 0
-15 -4 -15 -10z"/>
<path d="M2247 1743 c-6 -30 1 -53 14 -53 12 0 12 67 0 74 -5 3 -11 -6 -14
-21z"/>
<path d="M3229 1768 c-4 -15 -6 -50 -3 -40 3 6 11 9 17 5 8 -5 8 -2 0 9 -7 8
-10 18 -6 21 3 4 3 7 0 7 -4 0 -7 -1 -8 -2z"/>
<path d="M2185 1731 c-3 -5 0 -13 6 -17 7 -4 9 -3 5 4 -3 6 2 13 11 15 16 4
16 5 1 6 -9 0 -19 -3 -23 -8z"/>
<path d="M3196 1681 c-3 -5 5 -11 19 -13 20 -4 23 -3 14 8 -13 16 -25 18 -33
5z"/>
<path d="M3415 1670 c-3 -5 -1 -10 4 -10 6 0 11 5 11 10 0 6 -2 10 -4 10 -3 0
-8 -4 -11 -10z"/>
<path d="M3090 1620 c-8 -5 -11 -12 -7 -16 4 -4 13 -2 19 4 15 15 7 24 -12 12z"/>
<path d="M3245 1590 c-3 -5 -3 -15 1 -21 6 -11 23 6 24 24 0 10 -18 9 -25 -3z"/>
<path d="M3386 1588 c3 -5 10 -6 15 -3 13 9 11 12 -6 12 -8 0 -12 -4 -9 -9z"/>
<path d="M3090 1575 c-11 -13 -9 -15 13 -15 14 0 27 -6 30 -14 4 -9 14 -12 26
-9 12 3 18 9 15 15 -3 5 -12 3 -22 -4 -13 -11 -14 -11 -10 2 3 8 -2 20 -11 27
-21 16 -26 16 -41 -2z"/>
<path d="M3201 1506 c0 -12 3 -15 6 -8 2 6 8 10 12 8 4 -3 8 1 8 8 0 7 -6 13
-14 13 -7 0 -13 -10 -12 -21z"/>
<path d="M3175 1479 c-4 -6 -5 -12 -2 -15 2 -3 7 2 10 11 7 17 1 20 -8 4z"/>
<path d="M3120 1460 c-38 -8 -33 -12 16 -15 22 -1 30 3 27 12 -3 7 -6 12 -7
12 0 -1 -17 -5 -36 -9z"/>
<path d="M3388 1413 c6 -2 12 -9 12 -14 0 -6 -5 -7 -12 -3 -7 5 -8 3 -3 -5 5
-9 11 -9 17 -3 12 12 2 32 -15 31 -9 0 -9 -2 1 -6z"/>
<path d="M3110 1360 c0 -5 6 -10 13 -10 6 0 0 -8 -15 -18 -27 -16 -36 -31 -20
-33 4 0 16 -2 27 -4 10 -2 25 0 31 6 6 5 19 7 28 3 26 -10 19 6 -16 37 -35 30
-48 36 -48 19z"/>
<path d="M3003 1328 c-15 -26 -12 -38 8 -28 10 6 16 17 13 25 -7 18 -11 19
-21 3z"/>
<path d="M3250 1288 c0 -15 6 -25 15 -25 12 0 12 3 2 15 -6 8 -10 17 -9 19 2
3 1 7 -2 11 -3 3 -6 -6 -6 -20z"/>
<path d="M3145 1279 c5 -7 -3 -9 -24 -6 -17 3 -33 1 -37 -4 -5 -8 4 -11 39
-12 21 -1 47 15 41 24 -3 5 -10 9 -15 9 -6 0 -7 -5 -4 -11z"/>
</g>
</svg>
