<?xml version="1.0" standalone="no"?>
<!DOCTYPE svg PUBLIC "-//W3C//DTD SVG 20010904//EN"
 "http://www.w3.org/TR/2001/REC-SVG-20010904/DTD/svg10.dtd">
<svg version="1.0" xmlns="http://www.w3.org/2000/svg"
 width="450.000000pt" height="253.000000pt" viewBox="0 0 450.000000 253.000000"
 preserveAspectRatio="xMidYMid meet">
<metadata>
Created by potrace 1.16, written by Peter Selinger 2001-2019
</metadata>
<g transform="translate(0.000000,253.000000) scale(0.100000,-0.100000)"
fill="#000000" stroke="none">
<path d="M0 1265 l0 -1265 2250 0 2250 0 0 1265 0 1265 -2250 0 -2250 0 0
-1265z m2654 611 c45 -7 143 -35 166 -47 8 -4 44 -21 80 -37 36 -16 74 -38 85
-49 11 -10 25 -21 30 -22 31 -11 54 -25 49 -32 -2 -4 11 -20 31 -35 19 -14 35
-35 35 -46 0 -26 -29 -68 -47 -68 -11 0 -8 6 8 19 19 15 21 21 11 33 -6 8 -9
18 -6 21 4 4 -6 3 -22 -2 -16 -4 -42 -7 -59 -5 -16 1 -49 3 -73 5 -23 1 -47 8
-53 16 -6 7 -17 13 -23 13 -6 0 -24 16 -39 35 -25 31 -58 51 -42 25 8 -13 -39
-13 -83 -1 -17 5 -32 6 -32 1 0 -4 12 -11 28 -15 15 -3 50 -17 79 -31 28 -13
63 -24 77 -24 16 0 30 -8 37 -22 11 -21 11 -22 -4 -9 -11 8 -34 12 -67 9 -41
-4 -48 -2 -38 9 6 7 8 16 4 20 -3 3 -6 1 -6 -5 0 -7 -9 -12 -21 -12 -11 0 -17
4 -14 10 3 6 -1 7 -10 4 -8 -4 -22 -1 -30 6 -8 6 -19 9 -24 6 -5 -4 -12 -2
-16 4 -4 6 -12 7 -18 3 -18 -11 -50 -11 -66 1 -11 8 -13 8 -8 0 10 -17 -46
-12 -61 6 -12 13 -13 13 -6 0 5 -12 4 -12 -6 -3 -7 6 -18 9 -25 7 -26 -10 -26
18 -1 50 l25 33 -34 19 c-21 11 -35 26 -35 37 0 10 3 16 8 13 4 -2 18 2 32 9
24 13 23 13 -17 10 -24 -2 -43 1 -43 6 0 5 7 10 15 10 20 2 24 3 65 16 60 20
86 21 164 9z m-663 -8 c6 -9 9 -9 9 -1 0 8 9 9 29 3 16 -4 32 -6 35 -2 3 3 6
0 6 -7 0 -7 -10 -10 -25 -7 -14 3 -25 1 -25 -4 0 -13 11 -18 50 -21 19 -2 41
-9 48 -16 15 -14 132 -16 132 -2 0 5 -11 9 -24 9 -13 0 -32 3 -41 6 -13 6 -14
9 -3 16 10 8 10 9 -2 5 -8 -2 -24 -1 -35 4 -18 7 -18 8 5 9 14 1 33 3 42 5 10
2 20 -1 24 -6 3 -5 10 -6 16 -3 7 4 8 2 4 -5 -6 -8 11 -10 66 -7 79 5 102 -2
93 -26 -5 -13 -128 -68 -154 -68 -14 0 -14 -17 0 -22 23 -8 -9 -48 -36 -46
-18 2 -21 5 -13 15 7 8 7 13 0 13 -5 0 -15 -7 -22 -15 -17 -21 -41 -19 -33 2
5 12 2 15 -10 10 -9 -3 -17 -2 -17 4 0 6 -3 8 -7 6 -11 -7 -88 37 -90 51 -2 7
9 12 26 12 17 0 32 4 35 8 3 5 -16 5 -42 1 -54 -8 -73 -2 -48 17 20 14 13 34
-10 34 -8 0 -12 -4 -9 -10 3 -5 1 -10 -5 -10 -7 0 -10 7 -6 15 6 16 -21 35
-41 28 -6 -2 -14 0 -17 5 -2 4 16 9 41 11 29 1 49 -3 54 -11z m-159 -18 c-2
-8 4 -11 16 -8 16 4 18 0 18 -32 -1 -33 -3 -37 -18 -29 -10 5 -18 7 -18 3 0
-3 -7 -1 -15 6 -11 9 -21 5 -50 -24 -20 -20 -33 -40 -30 -45 5 -9 -24 -23 -41
-20 -20 3 -32 -2 -37 -16 -5 -11 -1 -12 20 -4 21 8 24 7 19 -6 -6 -18 -5 -18
53 -4 25 5 51 19 58 29 20 28 50 43 50 25 0 -8 -4 -12 -9 -9 -13 8 -40 -17
-34 -32 2 -6 -5 -15 -17 -19 -25 -8 -24 -8 -94 -19 -28 -4 -54 -13 -56 -20 -3
-7 1 -13 9 -13 7 0 10 5 7 10 -3 6 -1 7 6 3 9 -6 9 -11 0 -22 -6 -8 -8 -14 -3
-14 5 -1 -2 -7 -16 -15 -14 -8 -21 -14 -16 -15 5 0 -3 -11 -18 -25 -14 -13
-26 -27 -26 -31 0 -9 52 26 77 53 31 33 49 29 50 -10 1 -29 -2 -33 -25 -32
-17 0 -28 -6 -30 -17 -3 -15 1 -16 29 -8 24 7 35 6 41 -3 11 -17 10 -45 -3
-53 -6 -3 -8 -16 -5 -29 4 -14 0 -28 -9 -35 -8 -7 -15 -9 -15 -6 0 4 -6 4 -12
-1 -22 -13 -37 -12 -31 3 3 9 -2 12 -16 9 -30 -5 -42 -15 -36 -26 4 -5 1 -9
-5 -9 -7 0 -10 6 -7 13 2 6 -3 20 -11 30 -14 16 -14 20 -2 27 12 7 12 13 1 33
-26 49 4 155 76 265 46 72 74 103 84 96 5 -3 9 0 9 5 0 6 7 11 15 11 8 0 12 6
9 13 -3 8 5 18 18 25 27 13 44 9 40 -8z m281 3 c-7 -2 -19 -2 -25 0 -7 3 -2 5
12 5 14 0 19 -2 13 -5z m47 -21 c0 -5 -7 -9 -15 -9 -8 0 -12 4 -9 9 3 4 9 8
15 8 5 0 9 -4 9 -8z m-190 -57 c14 -19 14 -19 -2 -6 -10 7 -18 18 -18 24 0 6
1 8 3 6 1 -2 9 -13 17 -24z m-220 -179 c0 -3 -4 -8 -10 -11 -5 -3 -10 -1 -10
4 0 6 5 11 10 11 6 0 10 -2 10 -4z m27 -82 c-3 -3 -12 -4 -19 -1 -8 3 -5 6 6
6 11 1 17 -2 13 -5z m-47 -458 c0 -3 -4 -8 -10 -11 -5 -3 -10 -1 -10 4 0 6 5
11 10 11 6 0 10 -2 10 -4z m8 -81 c-3 -3 -9 2 -12 12 -6 14 -5 15 5 6 7 -7 10
-15 7 -18z m2 -25 c0 -5 -2 -10 -4 -10 -3 0 -8 5 -11 10 -3 6 -1 10 4 10 6 0
11 -4 11 -10z m0 -90 c0 -11 -2 -20 -4 -20 -2 0 -6 9 -9 20 -3 11 -1 20 4 20
5 0 9 -9 9 -20z m9 -132 c1 -45 0 -80 -2 -78 -9 11 -17 160 -9 160 5 0 10 -37
11 -82z m8 -175 c-2 -16 -4 -5 -4 22 0 28 2 40 4 28 2 -13 2 -35 0 -50z"/>
<path d="M2523 1850 c-13 -5 -23 -12 -23 -15 0 -4 4 -4 9 0 6 3 38 6 73 7 45
1 56 3 38 9 -34 10 -71 9 -97 -1z"/>
<path d="M1686 1445 c-3 -8 -1 -15 3 -15 5 0 11 7 15 15 3 8 1 15 -3 15 -5 0
-11 -7 -15 -15z"/>
</g>
</svg>
