<?xml version="1.0" standalone="no"?>
<!DOCTYPE svg PUBLIC "-//W3C//DTD SVG 20010904//EN"
 "http://www.w3.org/TR/2001/REC-SVG-20010904/DTD/svg10.dtd">
<svg version="1.0" xmlns="http://www.w3.org/2000/svg"
 width="450.000000pt" height="253.000000pt" viewBox="0 0 450.000000 253.000000"
 preserveAspectRatio="xMidYMid meet">
<metadata>
Created by potrace 1.16, written by Peter Selinger 2001-2019
</metadata>
<g transform="translate(0.000000,253.000000) scale(0.100000,-0.100000)"
fill="#000000" stroke="none">
<path d="M0 1265 l0 -1265 2250 0 2250 0 0 1265 0 1265 -2250 0 -2250 0 0
-1265z m2862 659 c33 -8 71 -22 84 -30 13 -9 27 -15 31 -14 17 2 140 -87 200
-146 62 -61 64 -64 62 -109 -3 -45 -5 -48 -51 -71 -44 -22 -47 -23 -36 -5 6
11 15 18 19 15 4 -2 11 5 14 17 4 12 12 18 21 15 9 -3 14 1 14 14 0 21 -15 27
-25 9 -5 -7 -14 -4 -26 7 -11 9 -22 14 -26 11 -3 -4 -12 -2 -19 4 -15 12 -37
3 -29 -12 4 -5 -4 -9 -17 -10 -13 0 -63 -2 -111 -4 -50 -3 -85 0 -82 5 3 5 1
12 -5 15 -6 4 -10 3 -9 -2 4 -22 -3 -24 -23 -7 -12 10 -18 13 -14 6 4 -7 -9
-3 -29 8 -46 26 -53 25 -29 -2 19 -23 19 -23 -1 -7 -28 22 -54 32 -92 34 -17
1 -38 5 -47 8 -10 4 -13 1 -9 -8 3 -8 10 -12 17 -8 6 3 7 2 3 -2 -11 -13 -37
-15 -34 -3 1 6 -4 13 -11 15 -8 3 -10 -2 -6 -14 5 -14 4 -15 -4 -3 -6 8 -9 17
-7 21 3 4 -14 19 -36 33 -34 23 -38 30 -28 42 16 20 18 76 2 92 -7 7 -10 19
-7 27 7 18 -12 20 -22 4 -12 -19 -10 -53 3 -67 10 -10 10 -17 1 -32 -7 -10
-16 -16 -20 -14 -4 3 -8 0 -8 -6 0 -6 -4 -9 -9 -6 -5 3 -8 -2 -7 -10 0 -9 -7
-18 -17 -19 -10 -2 -14 1 -11 7 5 7 2 8 -7 2 -20 -12 -38 -14 -45 -3 -6 10 39
104 59 124 19 17 105 65 145 80 51 19 210 19 284 -1z m-621 -35 c9 -5 20 -5
24 -1 11 12 69 9 83 -5 8 -7 25 -10 43 -6 24 4 28 3 23 -10 -5 -15 -91 -57
-116 -57 -18 0 -57 -29 -41 -30 18 0 12 -49 -7 -55 -8 -2 -31 -4 -51 -3 -20 0
-42 -3 -50 -8 -8 -4 -21 -9 -29 -11 -11 -1 -10 2 3 12 18 13 18 14 -4 26 -20
10 -25 8 -46 -15 -13 -15 -23 -22 -23 -15 0 7 8 21 17 31 15 17 15 20 3 28 -8
6 -22 10 -31 10 -21 0 -32 27 -16 34 7 3 1 3 -13 0 -14 -4 -28 -12 -32 -18 -4
-6 -10 -7 -14 -3 -4 3 -1 14 7 23 11 14 10 17 -4 25 -9 6 -17 17 -17 24 0 10
-11 15 -32 15 -25 0 -30 3 -18 10 18 12 318 11 341 -1z m-353 -30 c2 -5 9 -6
15 -2 7 4 6 0 -1 -10 -8 -9 -11 -25 -7 -36 5 -18 3 -19 -24 -11 -18 5 -33 5
-36 -1 -4 -5 -1 -9 5 -9 6 0 8 -5 4 -11 -4 -8 -10 -6 -17 7 -16 28 -18 77 -5
86 15 10 62 1 66 -13z m-123 -100 c-4 -5 -2 -9 4 -9 5 0 11 8 13 18 2 10 6 13
10 6 12 -18 -16 -57 -45 -65 -21 -6 -27 -4 -24 4 19 43 33 65 39 60 5 -2 6 -9
3 -14z m129 -26 c-12 -9 -21 -10 -28 -3 -14 14 11 31 32 22 12 -4 12 -7 -4
-19z m126 7 c0 -5 -2 -10 -4 -10 -3 0 -8 5 -11 10 -3 6 -1 10 4 10 6 0 11 -4
11 -10z m-68 -20 c-12 -11 -26 -20 -32 -20 -5 0 -10 -7 -10 -15 0 -11 7 -13
29 -9 16 3 31 1 35 -4 9 -15 -24 -45 -38 -34 -6 5 -18 9 -26 10 -8 0 -37 5
-64 10 -54 11 -120 -3 -94 -19 8 -5 9 -9 2 -9 -7 0 -14 -7 -17 -14 -5 -12 3
-14 44 -9 35 4 49 2 49 -6 0 -7 -3 -10 -7 -8 -5 3 -19 0 -33 -5 -22 -8 -23
-10 -8 -19 22 -12 12 -39 -15 -39 -28 0 -8 -20 21 -23 14 -1 20 -7 19 -19 -5
-28 -17 -34 -17 -8 l0 23 -23 -21 c-24 -22 -35 -61 -12 -42 16 13 53 8 51 -7
-1 -7 -8 -19 -14 -25 -7 -7 -12 -18 -12 -25 0 -7 -3 -12 -7 -11 -5 1 -19 -5
-33 -15 -14 -9 -35 -18 -45 -20 -11 -1 -27 -7 -35 -12 -13 -8 -13 -7 -1 8 7 9
9 17 4 17 -24 0 -23 202 3 258 10 23 22 42 27 42 4 0 5 5 1 12 -4 6 -3 8 3 5
6 -4 16 0 23 8 14 17 35 21 25 5 -8 -13 -5 -13 36 1 19 7 44 21 56 32 l23 20
7 -21 8 -21 40 23 c50 30 65 32 37 6z m1191 -157 c-3 -7 -6 -13 -8 -13 -2 0
-5 6 -8 13 -3 8 1 14 8 14 7 0 11 -6 8 -14z m-1323 -27 c0 -3 -4 -8 -10 -11
-5 -3 -10 -1 -10 4 0 6 5 11 10 11 6 0 10 -2 10 -4z m1225 -35 c3 -5 1 -12 -5
-16 -5 -3 -10 1 -10 9 0 18 6 21 15 7z m-25 -17 c0 -8 -4 -13 -9 -10 -5 4 -22
1 -37 -4 -24 -9 -25 -9 -14 5 7 8 15 13 19 11 4 -3 13 -1 21 5 20 12 20 12 20
-7z"/>
<path d="M2747 1801 c11 -5 34 -12 50 -14 15 -2 40 -9 56 -15 70 -30 76 -32
71 -17 -11 27 -52 44 -125 49 -51 4 -67 3 -52 -3z"/>
<path d="M2734 1668 c-3 -4 2 -8 10 -8 8 0 17 4 20 8 3 5 -2 9 -10 9 -8 0 -17
-4 -20 -9z"/>
<path d="M1691 1624 c0 -11 3 -14 6 -6 3 7 2 16 -1 19 -3 4 -6 -2 -5 -13z"/>
<path d="M1686 1362 c-3 -4 4 -9 15 -9 23 -2 25 3 4 10 -8 4 -16 3 -19 -1z"/>
</g>
</svg>
