<?xml version="1.0" standalone="no"?>
<!DOCTYPE svg PUBLIC "-//W3C//DTD SVG 20010904//EN"
 "http://www.w3.org/TR/2001/REC-SVG-20010904/DTD/svg10.dtd">
<svg version="1.0" xmlns="http://www.w3.org/2000/svg"
 width="450.000000pt" height="253.000000pt" viewBox="0 0 450.000000 253.000000"
 preserveAspectRatio="xMidYMid meet">
<metadata>
Created by potrace 1.16, written by Peter Selinger 2001-2019
</metadata>
<g transform="translate(0.000000,253.000000) scale(0.100000,-0.100000)"
fill="#000000" stroke="none">
<path d="M0 1265 l0 -1265 2250 0 2250 0 0 1265 0 1265 -2250 0 -2250 0 0
-1265z m2686 1191 c27 -8 86 -14 131 -14 69 1 91 -3 136 -25 71 -36 142 -128
162 -213 2 -10 9 -37 15 -59 6 -22 13 -48 14 -59 3 -23 17 -30 84 -46 49 -11
53 -11 70 9 39 49 145 47 262 -4 41 -18 98 -43 125 -54 93 -41 134 -97 129
-179 -5 -74 -18 -97 -106 -179 -13 -11 -39 -38 -58 -58 -51 -55 -108 -90 -173
-109 -32 -9 -69 -21 -83 -27 l-26 -9 27 -35 c14 -20 38 -61 53 -93 25 -52 27
-67 27 -180 l0 -124 -30 -24 c-16 -13 -38 -32 -47 -41 -10 -9 -21 -13 -25 -10
-3 4 -14 0 -23 -8 -9 -8 -34 -17 -55 -21 -22 -3 -43 -8 -47 -10 -4 -3 -54 -5
-111 -5 -130 0 -253 22 -360 66 -69 28 -84 31 -93 19 -6 -8 -20 -14 -31 -14
-23 0 -53 -39 -53 -69 0 -11 -25 -44 -57 -76 -57 -54 -113 -81 -209 -100 -59
-12 -172 28 -226 79 -22 21 -67 104 -98 181 -17 41 -19 108 -4 130 13 20 13
23 -1 29 -9 3 -25 1 -35 -4 -27 -14 -33 -12 -27 9 6 23 -16 31 -88 31 -67 0
-137 20 -229 64 -73 35 -156 106 -156 132 0 7 -6 19 -13 26 -7 7 -14 22 -15
33 -1 11 -5 44 -8 73 -6 49 -3 58 29 106 31 47 103 116 132 127 24 9 115 71
115 79 0 4 -12 15 -26 25 -23 15 -68 59 -100 97 -25 31 -70 130 -84 187 -12
45 -6 106 12 128 5 7 7 17 3 23 -3 6 3 10 14 10 12 0 21 4 21 9 0 21 116 44
225 45 123 1 180 -5 244 -28 28 -10 78 -16 140 -16 91 0 97 1 111 24 19 31
129 112 180 132 36 15 112 30 166 33 11 0 43 -5 70 -13z m-62 -1561 c-4 -8 -8
-15 -10 -15 -2 0 -4 7 -4 15 0 8 4 15 10 15 5 0 7 -7 4 -15z"/>
<path d="M2325 2020 c3 -5 8 -10 11 -10 2 0 4 5 4 10 0 6 -5 10 -11 10 -5 0
-7 -4 -4 -10z"/>
<path d="M2523 1884 c-3 -10 -1 -30 4 -45 11 -28 -2 -38 -19 -14 -5 6 -8 4 -9
-5 -2 -18 -3 -25 -13 -72 -5 -21 -12 -38 -17 -38 -14 0 -5 -37 14 -58 9 -10
17 -23 17 -29 0 -6 18 -23 40 -38 42 -29 50 -38 25 -29 -16 7 -21 -11 -5 -21
5 -3 7 -19 4 -35 -6 -28 -6 -28 40 -28 25 1 46 5 46 10 0 4 7 8 15 8 13 0 13
3 3 19 -10 16 -9 23 6 40 10 11 21 19 25 18 18 -6 71 27 71 45 0 10 7 32 15
47 13 27 13 29 -5 34 -12 3 -24 -1 -29 -11 -5 -9 -13 -13 -17 -9 -4 4 -15 -14
-23 -40 -15 -45 -18 -48 -46 -44 -16 1 -41 9 -55 16 -30 16 -100 84 -100 97 0
5 12 14 28 21 23 10 27 18 27 54 0 23 -3 45 -7 49 -5 4 -8 22 -8 41 0 35 -16
45 -27 17z"/>
<path d="M2253 1714 c-7 -20 12 -63 33 -71 8 -3 27 0 42 8 27 13 27 13 4 17
-24 4 -74 47 -64 56 3 3 2 6 -2 6 -3 0 -9 -7 -13 -16z"/>
<path d="M1892 1640 c-23 -23 -42 -45 -42 -50 0 -5 -12 -7 -26 -4 -18 3 -23 1
-18 -7 5 -9 2 -10 -10 -6 -10 4 -15 3 -11 -3 3 -6 15 -10 25 -10 31 0 50 -11
50 -29 0 -10 8 -17 21 -17 16 0 19 5 14 23 -4 16 -1 22 7 21 9 -2 12 7 11 25
-1 15 2 25 7 22 6 -3 7 1 4 9 -3 9 -10 16 -16 16 -5 0 -6 5 -3 10 4 6 11 8 16
4 5 -3 8 0 7 8 -2 7 3 12 10 10 8 -1 11 2 7 8 -8 14 -6 15 -53 -30z m14 -66
c2 -12 -1 -13 -12 -3 -7 6 -11 16 -8 21 7 11 17 3 20 -18z"/>
<path d="M1520 1620 c-8 -5 -11 -10 -6 -10 5 0 4 -6 -3 -13 -7 -10 -7 -17 0
-24 8 -8 5 -13 -10 -18 -12 -3 -21 -11 -21 -16 0 -6 6 -7 13 -3 8 5 8 2 -2 -9
-10 -13 -10 -17 -1 -17 7 0 10 -7 5 -17 -4 -13 -3 -15 5 -7 17 17 49 114 38
114 -6 0 -8 7 -4 15 6 18 6 18 -14 5z"/>
<path d="M2357 1571 c-7 -8 -7 -12 -2 -9 6 4 16 -2 23 -13 10 -15 10 -19 0
-19 -9 0 -9 -3 -1 -11 6 -6 32 -12 57 -13 25 0 46 -5 46 -9 0 -5 4 -5 10 -2 6
3 7 -1 4 -10 -5 -11 -14 -15 -29 -11 -12 3 -32 -2 -45 -11 -22 -16 -22 -17 -4
-24 43 -17 71 -10 84 21 7 17 18 30 24 30 6 0 3 6 -6 14 -16 11 -15 15 9 40
23 25 23 27 6 22 -13 -4 -25 -1 -33 9 -17 20 -126 17 -143 -4z"/>
<path d="M2806 1522 c-3 -5 1 -9 9 -9 8 0 12 4 9 9 -3 4 -7 8 -9 8 -2 0 -6 -4
-9 -8z"/>
<path d="M2256 1475 c6 -26 9 -25 -57 -30 -24 -1 -70 -35 -64 -45 4 -6 17 -2
33 8 14 9 23 11 19 5 -6 -10 1 -13 27 -13 29 0 36 4 36 19 0 10 8 25 19 32 18
14 18 14 -1 32 -18 17 -18 17 -12 -8z"/>
<path d="M2313 1483 c-15 -5 -17 -23 -4 -23 5 0 11 7 15 15 3 8 4 15 3 14 -1
0 -8 -3 -14 -6z"/>
<path d="M1984 1424 c8 -20 -22 -56 -38 -47 -6 4 -5 -1 3 -10 10 -13 18 -14
33 -6 10 6 22 17 25 25 3 8 13 14 22 14 9 0 24 7 34 14 16 12 15 14 -14 20
-54 11 -72 8 -65 -10z"/>
<path d="M2370 1390 c0 -6 5 -20 10 -31 13 -23 -7 -27 -30 -6 -12 10 -12 9 -1
-6 8 -9 11 -20 8 -23 -6 -6 -63 22 -72 35 -6 11 -95 -18 -95 -31 0 -4 14 -8
30 -8 17 0 39 -9 50 -20 11 -11 17 -20 14 -20 -4 0 -1 -7 6 -15 11 -13 9 -21
-8 -45 -12 -16 -22 -39 -22 -51 0 -21 1 -21 25 5 13 14 29 26 35 26 5 0 10 6
10 14 0 7 6 19 14 26 8 6 16 21 18 33 3 20 10 22 63 24 75 1 72 0 50 17 -14
10 -17 21 -13 47 l6 34 -49 3 c-31 2 -49 -1 -49 -8z"/>
<path d="M2618 1363 c-16 -41 -17 -52 -5 -60 5 -3 18 3 27 15 15 18 35 22 75
12 6 -1 17 -2 25 -1 11 1 12 4 2 14 -7 6 -16 12 -20 13 -11 1 -45 14 -64 25
-25 13 -27 12 -40 -18z"/>
<path d="M2527 1353 c-4 -3 -7 -19 -7 -35 0 -40 24 -31 27 10 3 30 -5 40 -20
25z"/>
<path d="M2652 1233 c-6 -3 -10 -8 -8 -12 3 -4 -6 -20 -19 -37 -19 -23 -26
-26 -34 -15 -4 7 -6 22 -4 32 7 27 -21 24 -34 -3 -6 -13 -14 -31 -17 -40 -3
-10 -15 -18 -26 -18 -11 0 -20 -4 -20 -9 0 -21 148 11 198 42 28 19 -2 71 -36
60z"/>
<path d="M3310 1153 c-11 -14 -20 -29 -20 -33 0 -24 25 -71 46 -84 22 -15 24
-15 30 8 3 14 3 30 -1 35 -3 6 0 11 7 11 8 0 9 3 3 8 -11 8 -18 29 -17 54 1
28 -26 29 -48 1z"/>
<path d="M2276 1081 c-7 -10 3 -41 13 -42 3 0 13 -2 21 -4 8 -1 21 4 28 11 11
12 9 14 -13 14 -16 0 -25 6 -25 15 0 17 -16 20 -24 6z"/>
<path d="M2564 946 c-19 -28 -7 -39 18 -16 12 11 25 20 30 20 4 0 8 4 8 8 0
16 -42 7 -56 -12z"/>
</g>
</svg>
