<?xml version="1.0" standalone="no"?>
<!DOCTYPE svg PUBLIC "-//W3C//DTD SVG 20010904//EN"
 "http://www.w3.org/TR/2001/REC-SVG-20010904/DTD/svg10.dtd">
<svg version="1.0" xmlns="http://www.w3.org/2000/svg"
 width="450.000000pt" height="253.000000pt" viewBox="0 0 450.000000 253.000000"
 preserveAspectRatio="xMidYMid meet">
<metadata>
Created by potrace 1.16, written by Peter Selinger 2001-2019
</metadata>
<g transform="translate(0.000000,253.000000) scale(0.100000,-0.100000)"
fill="#000000" stroke="none">
<path d="M0 1265 l0 -1265 2250 0 2250 0 0 1265 0 1265 -2250 0 -2250 0 0
-1265z m3044 685 c124 -42 234 -130 315 -250 36 -54 37 -60 11 -93 -12 -15
-20 -29 -20 -32 0 -3 -12 -21 -27 -39 -30 -37 -187 -126 -221 -126 -12 0 -25
-7 -30 -16 -10 -18 -63 -16 -70 4 -2 8 9 12 35 12 22 0 48 7 59 16 10 8 13 13
7 9 -7 -3 -13 -4 -13 -1 0 3 14 12 30 21 23 12 30 12 30 3 0 -7 6 -2 13 11 6
13 16 23 20 22 4 -2 19 5 33 13 13 9 24 13 24 9 0 -5 5 -1 10 7 7 10 10 11 10
2 0 -10 4 -10 20 0 24 15 9 28 -33 28 -37 0 -31 23 6 25 14 1 24 -2 21 -6 -2
-4 0 -10 6 -14 5 -3 10 -2 10 4 0 6 11 13 25 17 32 8 33 39 3 48 -44 11 -54 7
-29 -13 14 -10 19 -21 13 -24 -5 -4 -15 0 -22 8 -9 10 -17 12 -30 5 -9 -5 -20
-6 -24 -3 -8 9 -57 -18 -51 -28 3 -4 -11 -3 -31 3 -21 5 -48 8 -60 5 -13 -2
-24 -1 -24 3 0 6 -39 5 -115 -3 -11 -1 -27 5 -35 13 -8 9 -12 11 -7 6 12 -17
8 -22 -20 -21 -18 0 -27 6 -25 15 2 10 0 11 -11 2 -8 -7 -16 -9 -19 -7 -3 3
-42 7 -87 9 -60 2 -86 7 -99 19 -10 11 -12 17 -4 17 7 0 12 -5 12 -12 0 -6 2
-9 5 -6 10 9 -7 38 -18 31 -6 -4 -8 0 -4 10 4 10 -3 25 -18 39 -14 13 -25 31
-25 40 0 9 -5 20 -10 23 -8 5 -7 12 2 23 11 13 11 15 -2 10 -11 -4 -16 1 -18
19 -1 14 2 22 8 18 6 -4 7 -12 3 -18 -4 -7 1 -6 10 2 15 12 17 11 14 -5 -1
-11 -6 -24 -10 -31 -4 -6 -3 -14 3 -18 5 -3 11 -3 11 2 1 4 3 17 5 28 1 11 6
30 10 43 5 16 2 22 -10 22 -9 0 -15 -3 -13 -7 1 -5 -2 -8 -8 -8 -5 0 -9 4 -7
8 1 4 -7 3 -19 -3 -11 -7 -23 -10 -25 -7 -4 4 109 78 166 108 81 42 237 47
344 9z m-702 -53 c5 -10 14 -14 20 -11 7 4 8 2 4 -4 -4 -6 -14 -8 -23 -5 -10
4 -14 2 -10 -4 5 -7 0 -9 -13 -6 -24 6 -26 -10 -3 -28 11 -10 14 -10 9 -1 -4
6 -3 12 2 12 6 0 12 -6 15 -14 7 -18 -17 -28 -32 -13 -8 8 -14 8 -22 0 -8 -8
-7 -13 2 -18 8 -5 10 -4 5 3 -4 7 -3 12 2 12 17 0 30 -65 16 -79 -2 -3 -21 -5
-42 -6 -21 0 -43 -4 -50 -9 -7 -4 -12 -1 -12 8 0 17 -34 39 -44 29 -3 -3 -6 1
-6 10 0 10 -6 17 -14 17 -7 0 -19 7 -26 16 -8 8 -23 20 -34 26 -20 11 -20 10
-3 -9 21 -24 22 -33 2 -33 -8 0 -15 6 -15 14 0 8 -8 17 -17 21 -16 6 -16 8 -3
18 27 21 18 42 -20 47 -53 8 -11 17 95 19 49 1 91 3 92 4 1 1 27 2 58 1 43 0
60 -5 67 -17z m133 4 c-3 -2 3 -10 12 -16 15 -11 15 -13 -4 -23 -47 -25 -125
-32 -130 -12 -4 13 -3 13 6 0 8 -11 13 -12 22 -3 6 6 17 9 24 7 6 -3 18 2 25
11 11 13 9 15 -12 15 -14 0 -25 6 -25 13 0 8 16 12 43 12 24 0 41 -1 39 -4z
m63 -13 c-6 -18 -25 -20 -31 -3 -5 10 0 15 14 15 12 0 19 -5 17 -12z m-553
-18 c-2 -11 0 -22 5 -25 4 -3 7 -12 6 -22 -2 -11 -13 -16 -40 -17 -35 -1 -37
1 -31 24 12 48 69 86 60 40z m40 1 c3 -5 1 -12 -4 -15 -5 -3 -11 1 -15 9 -6
16 9 21 19 6z m472 -99 c-10 -10 -14 -21 -11 -24 3 -3 -3 -5 -13 -4 -10 0 -17
-5 -15 -12 1 -8 -2 -11 -8 -7 -15 10 -12 22 12 45 29 27 59 28 35 2z m-437
-23 c0 -13 -26 -40 -33 -33 -2 3 -7 -3 -11 -12 -5 -13 -1 -15 19 -12 14 3 25
1 25 -3 0 -5 6 -8 13 -6 7 1 11 -6 9 -17 -2 -12 1 -16 9 -10 8 4 10 3 5 -4 -8
-13 -76 -8 -105 8 -27 14 -89 16 -103 2 -15 -15 -18 -52 -4 -52 6 0 27 4 46 9
20 4 44 5 55 1 15 -5 11 -8 -20 -14 -55 -11 -57 -13 -40 -46 14 -27 14 -29 -3
-26 -9 2 -26 0 -37 -5 -17 -7 -16 -8 8 -8 l28 -1 -33 -47 -32 -48 27 18 c24
15 27 16 27 2 0 -26 -29 -75 -45 -75 -8 0 -15 -6 -15 -12 -1 -8 -6 -6 -14 4
-7 10 -16 14 -21 10 -16 -15 2 193 20 233 20 43 22 49 24 66 0 6 7 9 14 6 6
-2 36 14 65 35 29 22 58 37 65 34 7 -2 4 -5 -5 -5 -10 -1 -18 -7 -18 -15 0 -8
7 -13 15 -12 16 2 44 26 31 26 -5 0 -3 7 4 15 13 15 30 12 30 -6z m70 -5 c0
-8 -7 -14 -15 -14 -8 0 -15 9 -15 20 0 13 5 18 15 14 8 -4 15 -12 15 -20z
m-230 -5 c-7 -11 -14 -18 -17 -15 -3 3 0 12 7 21 18 21 23 19 10 -6z m1307
-196 c-4 -3 -1 -13 6 -22 11 -14 10 -14 -5 -2 -16 12 -16 31 -1 31 4 0 3 -3 0
-7z m-462 -170 c19 -9 35 -20 35 -25 0 -21 -75 4 -84 28 -7 18 6 18 49 -3z"/>
<path d="M2210 1810 c-9 -6 -10 -10 -3 -10 6 0 15 5 18 10 8 12 4 12 -15 0z"/>
<path d="M1870 1589 c0 -5 5 -7 10 -4 6 3 10 8 10 11 0 2 -4 4 -10 4 -5 0 -10
-5 -10 -11z"/>
</g>
</svg>
