<?xml version="1.0" standalone="no"?>
<!DOCTYPE svg PUBLIC "-//W3C//DTD SVG 20010904//EN"
 "http://www.w3.org/TR/2001/REC-SVG-20010904/DTD/svg10.dtd">
<svg version="1.0" xmlns="http://www.w3.org/2000/svg"
 width="450.000000pt" height="253.000000pt" viewBox="0 0 450.000000 253.000000"
 preserveAspectRatio="xMidYMid meet">
<metadata>
Created by potrace 1.16, written by Peter Selinger 2001-2019
</metadata>
<g transform="translate(0.000000,253.000000) scale(0.100000,-0.100000)"
fill="#000000" stroke="none">
<path d="M0 1265 l0 -1265 2250 0 2250 0 0 1265 0 1265 -2250 0 -2250 0 0
-1265z m2950 674 c84 -25 163 -70 239 -139 79 -70 126 -141 115 -172 -5 -13
-8 -25 -9 -28 -2 -24 -72 -80 -97 -80 -7 0 -4 6 7 12 24 14 45 34 45 43 0 3
-4 3 -10 0 -5 -3 -10 -4 -10 -1 0 3 10 10 21 17 17 9 20 8 14 -3 -3 -7 1 -4 9
6 20 24 21 40 2 33 -8 -3 -17 -3 -20 1 -4 3 -12 7 -19 8 -7 1 -20 5 -29 9 -12
5 -18 3 -18 -6 0 -7 -3 -9 -7 -6 -3 4 -13 1 -21 -6 -13 -10 -14 -9 -7 3 7 11
2 10 -19 -3 -20 -14 -31 -16 -39 -8 -6 6 -16 11 -21 11 -6 0 -4 -5 4 -10 13
-8 12 -10 -2 -10 -10 0 -18 6 -18 13 0 9 -3 8 -9 -2 -6 -9 -11 -10 -15 -2 -4
6 -13 8 -19 4 -16 -10 -67 -11 -73 -1 -3 5 -10 6 -15 3 -5 -4 -9 0 -9 7 0 11
-2 11 -9 0 -6 -10 -10 -10 -21 3 -9 11 -16 12 -25 5 -9 -8 -15 -8 -20 0 -9 14
-28 13 -19 -2 4 -7 -3 -3 -16 10 -21 23 -23 23 -43 5 -14 -12 -18 -13 -12 -3
6 12 5 13 -5 3 -11 -10 -16 -9 -27 5 -8 9 -12 11 -8 4 8 -16 -39 -9 -60 8 -8
7 -20 8 -27 4 -7 -4 -10 -4 -6 0 7 9 -21 40 -45 49 -18 7 -23 28 -10 41 11 11
12 68 2 87 -5 10 -4 20 3 27 14 14 -1 16 -22 2 -15 -9 -23 -50 -10 -50 15 0 2
-42 -18 -56 -12 -8 -20 -19 -17 -23 6 -11 -88 -22 -98 -12 -5 5 16 37 46 72
117 138 302 186 497 128z m-639 -51 c13 -10 20 -18 14 -17 -25 3 -36 -2 -29
-13 6 -10 4 -10 -7 -2 -8 5 -20 9 -26 8 -7 -1 -24 -2 -38 -3 -14 0 -25 -6 -25
-12 0 -7 11 -9 30 -5 19 3 29 2 25 -4 -3 -6 1 -7 10 -4 8 4 21 1 29 -5 7 -6
17 -7 21 -3 5 4 5 1 1 -6 -5 -7 -14 -11 -22 -8 -11 4 -12 1 -5 -13 17 -30 2
-60 -33 -66 -17 -4 -36 -6 -41 -5 -6 2 -12 1 -15 0 -21 -8 -38 -6 -34 4 2 6
-17 22 -43 36 -51 27 -65 39 -57 52 3 5 -7 6 -22 2 -18 -5 -25 -3 -20 4 9 15
-40 62 -67 63 -14 1 -9 4 13 9 19 4 99 7 176 7 123 0 145 -3 165 -19z m106
-15 c-3 -20 -11 -29 -32 -35 -16 -4 -31 -5 -34 -3 -2 3 1 5 7 5 7 0 12 7 12
15 0 8 -7 15 -15 15 -29 0 -15 16 17 18 18 2 34 5 37 7 9 10 12 4 8 -22z m48
7 c3 -5 -1 -10 -9 -10 -9 0 -16 5 -16 10 0 6 4 10 9 10 6 0 13 -4 16 -10z
m-540 -36 c19 -47 20 -45 -12 -40 -16 2 -35 5 -43 5 -10 1 -16 10 -15 24 1 58
47 65 70 11z m93 -49 c-3 -3 -9 2 -12 12 -6 14 -5 15 5 6 7 -7 10 -15 7 -18z
m-194 -57 c-3 -4 -14 -13 -25 -19 -20 -10 -20 -10 -4 22 13 24 19 28 25 18 5
-7 6 -17 4 -21z m107 -1 c-13 -13 -26 -3 -16 12 3 6 11 8 17 5 6 -4 6 -10 -1
-17z m129 2 c0 -5 -4 -9 -10 -9 -5 0 -10 7 -10 16 0 8 5 12 10 9 6 -3 10 -10
10 -16z m-60 -5 c0 -8 -4 -12 -10 -9 -5 3 -10 1 -10 -6 0 -7 -3 -10 -6 -6 -7
6 -18 -4 -44 -38 -13 -18 -13 -19 0 -9 22 16 63 24 78 15 16 -10 5 -41 -15
-41 -9 0 -13 6 -9 15 4 12 2 13 -14 3 -15 -10 -27 -10 -53 0 -45 16 -98 15
-121 -3 -11 -8 -14 -15 -8 -15 9 0 8 -8 -3 -30 -16 -31 -11 -37 15 -20 8 5 11
10 5 11 -22 2 42 17 75 17 36 0 33 -2 -28 -23 -17 -5 -22 -14 -20 -33 2 -20
-2 -27 -17 -30 -11 -2 -24 -9 -30 -14 -7 -8 -6 -9 2 -4 6 3 18 3 27 0 14 -5
14 -9 -4 -34 -25 -34 -28 -59 -5 -40 19 15 20 1 3 -37 -21 -47 -28 -50 -65
-34 -29 13 -33 20 -35 56 -4 105 12 195 36 195 6 0 12 9 13 21 3 30 24 54 34
37 7 -10 11 -10 21 0 6 6 20 12 29 12 9 0 22 7 29 15 14 17 45 21 35 5 -12
-20 31 -9 60 15 36 29 35 29 35 9z m1155 -233 c-6 -11 -116 -54 -121 -48 -5 5
32 24 81 41 50 18 47 18 40 7z m-155 -65 c0 -2 -7 -7 -16 -10 -8 -3 -12 -2 -9
4 6 10 25 14 25 6z"/>
</g>
</svg>
