<?xml version="1.0" standalone="no"?>
<!DOCTYPE svg PUBLIC "-//W3C//DTD SVG 20010904//EN"
 "http://www.w3.org/TR/2001/REC-SVG-20010904/DTD/svg10.dtd">
<svg version="1.0" xmlns="http://www.w3.org/2000/svg"
 width="450.000000pt" height="253.000000pt" viewBox="0 0 450.000000 253.000000"
 preserveAspectRatio="xMidYMid meet">
<metadata>
Created by potrace 1.16, written by Peter Selinger 2001-2019
</metadata>
<g transform="translate(0.000000,253.000000) scale(0.100000,-0.100000)"
fill="#000000" stroke="none">
<path d="M0 1265 l0 -1265 2250 0 2250 0 0 1265 0 1265 -2250 0 -2250 0 0
-1265z m2608 1109 c26 -12 68 -17 147 -18 98 -1 116 -4 165 -28 61 -29 132
-92 173 -153 57 -86 76 -98 201 -131 47 -13 51 -12 73 10 52 52 137 43 298
-31 115 -52 175 -93 175 -119 0 -6 6 -17 13 -23 10 -8 12 -25 6 -65 -9 -70
-14 -79 -101 -164 -106 -104 -168 -148 -230 -162 -60 -15 -118 -37 -118 -46 0
-3 8 -18 19 -32 47 -68 66 -133 66 -232 -1 -111 -23 -168 -81 -202 -18 -11
-34 -24 -34 -29 0 -5 -7 -9 -15 -9 -9 0 -26 -6 -38 -14 -26 -16 -110 -27 -204
-27 -108 0 -292 46 -349 87 -29 22 -31 22 -42 3 -7 -10 -30 -28 -52 -39 -33
-17 -40 -26 -40 -49 0 -48 -79 -140 -154 -178 -155 -79 -299 -69 -362 24 -11
17 -36 73 -54 124 -33 90 -33 93 -20 153 7 33 16 79 19 101 l7 40 -119 2
c-139 3 -221 20 -320 67 -126 59 -177 118 -177 207 0 59 11 88 52 142 55 69
89 96 215 172 l83 49 -38 30 c-99 81 -152 159 -182 268 -10 39 -10 55 0 91 12
38 20 47 64 67 118 54 290 66 432 30 43 -11 107 -21 141 -21 59 -1 65 1 100
36 80 78 196 106 281 69z"/>
<path d="M2674 1939 c-4 -7 -3 -10 2 -7 5 3 15 0 22 -8 10 -11 10 -14 0 -14
-17 0 -16 -76 0 -92 13 -13 16 -29 5 -27 -20 3 -34 -2 -28 -11 3 -5 1 -10 -6
-10 -9 0 -10 -3 -2 -11 7 -7 6 -22 -3 -50 -18 -50 -10 -84 27 -109 17 -13 26
-26 22 -35 -3 -10 1 -15 11 -15 12 0 16 -7 14 -27 -3 -23 1 -27 31 -30 20 -3
31 0 27 5 -3 6 0 12 6 14 7 3 13 13 13 24 0 13 16 26 53 43 40 19 52 29 52 47
0 13 5 35 12 49 8 19 8 29 0 37 -14 14 -71 -29 -71 -55 -1 -21 -65 -52 -88
-43 -8 4 -17 15 -20 25 -2 10 -15 23 -27 29 -13 6 -26 19 -29 31 -4 16 1 21
24 26 34 8 48 25 20 25 -25 0 -37 18 -18 26 22 8 27 40 10 63 -8 12 -11 21 -8
21 3 0 1 9 -5 19 -7 13 -7 22 0 26 6 3 13 0 16 -9 4 -12 11 -12 36 -4 35 13
21 28 -27 28 -24 0 -27 2 -15 11 12 9 12 10 -4 5 -10 -4 -24 -2 -31 4 -10 8
-15 8 -21 -1z"/>
<path d="M2873 1887 c-2 -4 -9 -5 -14 -2 -5 4 -9 2 -9 -3 0 -11 125 -10 136 1
4 4 -1 8 -12 8 -69 4 -96 3 -101 -4z"/>
<path d="M2482 1788 c-21 -21 -14 -38 16 -38 21 0 32 7 40 25 9 19 9 24 -1 22
-6 -1 -15 -6 -19 -12 -5 -6 -8 -5 -8 3 0 15 -12 16 -28 0z"/>
<path d="M2821 1746 c19 -18 35 -32 37 -30 9 6 -36 59 -52 61 -14 1 -11 -6 15
-31z"/>
<path d="M2390 1743 c0 -5 7 -17 15 -27 8 -11 15 -28 15 -37 0 -10 9 -21 21
-24 11 -4 18 -13 15 -20 -3 -8 2 -11 14 -8 30 8 31 31 4 58 -18 18 -24 32 -20
48 3 12 3 17 0 10 -4 -9 -13 -9 -30 -2 -30 11 -34 11 -34 2z"/>
<path d="M1738 1733 c7 -3 16 -2 19 1 4 3 -2 6 -13 5 -11 0 -14 -3 -6 -6z"/>
<path d="M2570 1710 c-12 -8 -11 -10 8 -10 12 0 22 5 22 10 0 13 -11 13 -30 0z"/>
<path d="M1680 1702 c-18 -8 -25 -32 -10 -32 15 0 80 28 80 34 0 8 -52 6 -70
-2z"/>
<path d="M2620 1656 c0 -2 8 -10 18 -17 15 -13 16 -12 3 4 -13 16 -21 21 -21
13z"/>
<path d="M1585 1622 c-19 -13 -55 -83 -55 -106 0 -13 -12 -35 -27 -50 -19 -19
-23 -30 -15 -38 15 -15 52 -2 91 33 26 24 34 39 36 72 1 23 3 47 5 52 10 36
-9 56 -35 37z"/>
<path d="M2597 1598 c4 -7 -7 -8 -31 -4 -42 8 -45 1 -14 -31 15 -17 18 -23 7
-23 -8 -1 1 -9 19 -19 30 -15 32 -19 18 -30 -26 -21 -19 -29 30 -33 37 -3 49
1 67 20 21 22 21 24 5 36 -20 15 -24 41 -7 51 16 11 -20 32 -63 38 -25 3 -36
1 -31 -5z"/>
<path d="M2464 1564 c2 -10 8 -20 15 -22 8 -3 12 3 9 14 -4 23 -27 31 -24 8z"/>
<path d="M2090 1515 c-24 -14 -24 -14 22 -15 26 0 49 4 52 8 3 5 0 9 -7 9 -7
0 -19 3 -27 6 -8 4 -26 0 -40 -8z"/>
<path d="M2355 1480 c3 -5 12 -7 20 -3 21 7 19 13 -6 13 -11 0 -18 -4 -14 -10z"/>
<path d="M2375 1455 c-22 -7 -35 -13 -30 -14 6 -1 3 -6 -5 -11 -12 -8 -8 -10
15 -11 55 -2 60 -4 62 -19 5 -28 -15 -44 -55 -44 -22 -1 -38 -5 -35 -9 2 -4
24 -6 48 -5 24 2 41 6 38 11 -2 4 0 7 6 7 18 0 39 -54 34 -85 -3 -17 -13 -39
-23 -50 -38 -45 -26 -72 14 -32 10 9 24 17 32 17 8 0 14 7 14 16 0 16 49 67
80 84 9 5 35 7 58 4 50 -6 53 0 12 21 -16 9 -30 20 -30 26 0 6 4 8 9 5 5 -3
11 4 14 17 2 12 8 31 13 42 6 17 5 18 -7 8 -12 -10 -21 -9 -42 2 -15 8 -27 10
-27 6 0 -5 -9 -11 -21 -14 -16 -4 -19 -11 -14 -26 8 -26 -15 -27 -65 -3 -29
15 -34 23 -32 45 3 31 -4 32 -63 12z m155 -110 c0 -11 -19 -4 -41 15 l-24 21
33 -16 c17 -8 32 -18 32 -20z"/>
<path d="M2170 1452 c-33 -3 -69 -22 -42 -22 13 0 5 -27 -15 -52 -13 -14 -12
-17 8 -23 16 -5 27 -1 44 19 19 22 28 25 56 19 30 -6 33 -5 21 9 -9 11 -10 18
-2 23 5 3 10 11 10 17 0 6 -3 8 -6 5 -4 -3 -14 -3 -23 1 -9 4 -32 6 -51 4z"/>
<path d="M2286 1424 c-10 -25 -7 -34 9 -28 8 4 12 10 9 15 -3 5 0 9 5 9 6 0
11 5 11 10 0 16 -27 11 -34 -6z"/>
<path d="M2772 1388 c-10 -28 -9 -35 4 -48 9 -8 14 -9 10 -2 -5 7 -1 12 9 12
9 0 14 4 11 9 -7 10 34 2 49 -10 6 -4 17 -4 24 1 8 4 21 6 29 2 9 -3 7 3 -6
16 -12 12 -26 22 -32 22 -5 0 -10 5 -10 11 0 6 -8 8 -19 4 -11 -3 -22 -1 -26
5 -12 19 -31 10 -43 -22z"/>
<path d="M2675 1369 c-5 -7 -1 -18 11 -26 24 -17 33 2 11 24 -11 12 -16 12
-22 2z"/>
<path d="M2794 1262 c-16 -2 -20 -8 -17 -21 5 -20 35 -18 53 4 13 15 -3 23
-36 17z"/>
<path d="M2665 1170 c-3 -5 1 -10 9 -10 9 0 16 5 16 10 0 6 -4 10 -9 10 -6 0
-13 -4 -16 -10z"/>
<path d="M2140 1123 c0 -7 4 -13 9 -13 5 0 11 6 14 13 3 8 -1 14 -9 14 -8 0
-14 -6 -14 -14z"/>
<path d="M3343 1124 c3 -4 2 -15 -4 -26 -7 -13 -7 -23 0 -32 6 -7 10 -15 8
-17 -1 -2 4 2 11 10 18 22 16 71 -5 71 -9 0 -13 -3 -10 -6z"/>
<path d="M2427 1106 c-3 -8 0 -13 6 -12 15 2 22 19 9 24 -5 1 -12 -4 -15 -12z"/>
</g>
</svg>
