<?xml version="1.0" standalone="no"?>
<!DOCTYPE svg PUBLIC "-//W3C//DTD SVG 20010904//EN"
 "http://www.w3.org/TR/2001/REC-SVG-20010904/DTD/svg10.dtd">
<svg version="1.0" xmlns="http://www.w3.org/2000/svg"
 width="450.000000pt" height="253.000000pt" viewBox="0 0 450.000000 253.000000"
 preserveAspectRatio="xMidYMid meet">
<metadata>
Created by potrace 1.16, written by Peter Selinger 2001-2019
</metadata>
<g transform="translate(0.000000,253.000000) scale(0.100000,-0.100000)"
fill="#000000" stroke="none">
<path d="M0 1265 l0 -1265 2250 0 2250 0 0 1265 0 1265 -807 0 c-757 0 -806
-1 -775 -17 27 -13 35 -14 42 -4 5 9 11 3 18 -19 7 -17 16 -29 22 -25 6 4 4
16 -6 33 l-16 27 22 -28 c12 -15 27 -24 32 -21 7 4 8 2 4 -5 -4 -6 -12 -9 -17
-6 -5 4 -9 -1 -9 -10 0 -9 4 -14 9 -11 5 3 11 -8 15 -25 3 -18 10 -28 17 -24
5 4 9 1 8 -6 -4 -25 21 -71 34 -66 8 3 14 -1 14 -9 0 -7 -4 -11 -9 -8 -4 3 -8
-4 -8 -16 0 -13 4 -19 11 -14 8 4 9 -4 5 -27 -7 -33 -6 -33 10 -14 15 18 16
18 10 2 -3 -10 -6 -23 -6 -28 0 -6 -4 -8 -9 -4 -6 3 -7 -6 -2 -22 4 -16 6 -34
4 -40 -3 -7 -1 -13 5 -13 12 0 12 -32 -1 -48 -5 -7 -7 -15 -3 -19 3 -3 6 -1 6
6 0 7 9 6 26 -5 20 -14 27 -15 33 -5 6 10 10 9 15 -4 3 -9 10 -13 16 -10 6 3
13 -1 16 -9 5 -13 10 -12 26 9 11 14 16 30 12 37 -4 7 -4 10 1 6 4 -4 15 -2
24 5 14 11 15 10 1 -7 -14 -18 -14 -19 8 -7 12 6 22 9 22 5 0 -3 8 0 17 7 9 8
14 9 11 4 -7 -12 40 -14 59 -2 6 4 15 2 18 -4 4 -5 13 -8 20 -5 7 2 24 -2 39
-9 15 -8 24 -11 22 -6 -3 4 1 8 9 8 8 0 13 -5 12 -11 -2 -9 64 -46 89 -50 7
-1 18 -7 26 -13 7 -6 19 -13 27 -15 16 -3 101 -86 99 -97 -2 -20 4 -31 19 -31
13 0 14 -3 5 -12 -14 -14 -16 -48 -4 -48 5 0 7 -13 4 -30 -2 -16 -7 -30 -11
-30 -3 0 -12 -13 -19 -30 -8 -16 -27 -42 -44 -57 -16 -16 -53 -52 -81 -81 -62
-64 -127 -107 -187 -122 -25 -6 -60 -16 -77 -23 l-33 -11 23 -25 c72 -80 107
-175 123 -332 l6 -67 -40 -41 c-22 -23 -43 -41 -48 -41 -4 0 -15 -6 -23 -14
-48 -42 -269 -58 -436 -31 -100 15 -137 26 -210 61 -75 36 -85 33 -86 -23 -2
-65 -7 -104 -14 -112 -4 -3 -4 26 -1 66 l5 72 -55 -54 c-34 -34 -54 -63 -54
-77 0 -15 -23 -46 -63 -87 -82 -84 -165 -125 -257 -125 -116 -1 -187 49 -231
161 -12 32 -30 81 -41 108 -14 37 -19 75 -19 142 1 86 -1 93 -19 93 -23 0 -26
10 -8 28 15 15 8 22 -33 27 -120 16 -208 45 -283 94 -21 14 -46 30 -56 35 -19
11 -60 78 -60 100 0 9 -4 16 -10 16 -5 0 -10 10 -10 23 0 13 -5 28 -12 35 -14
14 -16 111 -2 120 5 4 14 18 21 32 12 27 73 107 73 96 0 -4 12 6 26 21 14 15
27 27 27 25 1 -2 10 0 19 3 10 4 16 11 13 15 -3 5 0 12 6 16 8 4 9 3 5 -4 -11
-18 7 -13 53 16 3 1 -24 30 -60 65 -35 35 -70 74 -78 87 -42 73 -59 108 -65
133 -4 15 -11 25 -15 22 -5 -3 -7 4 -4 15 3 12 -2 29 -13 42 -11 12 -13 18 -6
14 13 -8 17 6 5 18 -11 10 -12 37 -2 30 8 -4 14 26 10 49 -1 5 3 6 8 3 5 -4
12 -2 16 4 3 5 0 10 -7 10 -8 0 -6 5 5 11 9 5 22 7 27 4 6 -4 7 1 3 11 -4 12
-3 15 5 10 7 -4 12 -2 12 4 0 6 6 10 13 8 19 -3 58 12 52 22 -6 10 15 8 33 -3
6 -5 12 -4 12 1 0 6 16 8 35 6 23 -2 33 1 29 7 -3 6 3 5 14 -2 16 -10 23 -10
35 0 11 9 17 9 22 0 6 -8 10 -7 16 2 5 9 9 10 9 2 0 -6 13 -10 30 -9 17 1 30
-1 30 -4 0 -4 16 -6 34 -5 19 1 33 -2 30 -7 -5 -7 19 -12 54 -11 6 1 12 -3 12
-9 0 -5 5 -6 10 -3 6 3 10 1 10 -5 0 -6 5 -8 10 -5 6 3 10 0 10 -7 0 -9 3 -9
10 2 8 13 10 13 10 1 0 -11 3 -10 13 3 12 16 14 16 26 2 9 -10 19 -13 30 -8
19 10 52 9 67 -1 7 -4 15 0 18 9 5 14 9 14 23 3 12 -10 14 -10 9 -1 -4 6 -2
12 3 12 6 0 11 7 11 16 0 8 4 13 9 10 5 -3 15 1 22 10 10 13 10 17 -2 25 -10
8 -8 9 9 4 15 -4 24 -1 28 9 3 9 13 16 20 16 8 0 18 10 23 23 5 12 12 21 17
21 11 -2 57 18 64 27 3 3 30 15 60 27 l55 21 -1267 0 -1268 1 0 -1265z m3100
1081 c0 -3 -4 -8 -10 -11 -5 -3 -10 -1 -10 4 0 6 5 11 10 11 6 0 10 -2 10 -4z
m55 -226 c1 -10 -2 -17 -6 -14 -4 2 -7 13 -6 24 2 23 10 17 12 -10z m12 -45
c0 -8 -4 -12 -9 -9 -5 3 -6 10 -3 15 9 13 12 11 12 -6z m74 -19 c1 5 1 13 0
17 -1 5 3 6 9 2 8 -5 7 -11 -1 -21 -8 -10 -15 -11 -24 -4 -6 5 -14 8 -17 5 -2
-3 -5 2 -5 10 0 13 3 13 19 -2 10 -9 19 -12 19 -7z m-624 -1533 c-3 -10 -5 -4
-5 12 0 17 2 24 5 18 2 -7 2 -21 0 -30z"/>
<path d="M2289 2038 c0 -2 -2 -13 -3 -26 -3 -21 -2 -21 16 -5 15 13 18 14 13
2 -4 -11 1 -15 20 -15 14 0 25 4 25 9 0 5 -7 7 -15 3 -8 -3 -15 -1 -15 4 0 8
-39 35 -41 28z"/>
<path d="M2236 2011 c-3 -5 1 -11 9 -15 8 -3 15 -1 15 4 0 13 -18 22 -24 11z"/>
<path d="M2370 2002 c0 -5 7 -9 15 -9 8 0 12 4 9 9 -3 4 -9 8 -15 8 -5 0 -9
-4 -9 -8z"/>
<path d="M2418 1776 c-26 -19 -27 -48 -2 -52 18 -3 23 2 26 27 5 35 -1 42 -24
25z"/>
<path d="M1843 1705 c-3 -9 -3 -19 1 -22 3 -4 6 1 6 11 0 10 5 14 12 10 7 -4
8 -3 4 4 -10 16 -15 15 -23 -3z"/>
<path d="M2330 1716 c0 -2 7 -9 15 -16 12 -10 15 -10 15 4 0 9 -7 16 -15 16
-8 0 -15 -2 -15 -4z"/>
<path d="M2389 1706 c0 -6 -2 -19 -4 -28 -2 -9 5 -24 16 -34 10 -9 16 -20 14
-25 -8 -11 36 -39 61 -39 13 0 24 -8 27 -20 4 -15 0 -20 -14 -20 -16 0 -18 -4
-10 -18 6 -11 6 -24 0 -33 -18 -29 -10 -36 39 -34 44 3 92 13 92 21 0 2 -5 14
-11 28 -9 20 -9 29 1 41 10 12 8 16 -15 25 -14 5 -30 10 -35 10 -34 0 -130 89
-130 121 0 17 -30 22 -31 5z"/>
<path d="M1630 1700 c-9 -6 -10 -10 -3 -10 6 0 15 5 18 10 8 12 4 12 -15 0z"/>
<path d="M1775 1655 c-45 -16 -61 -35 -40 -51 19 -14 19 -25 0 -18 -8 4 -15 1
-15 -5 0 -6 17 -11 38 -11 36 -1 37 -1 17 -18 -31 -27 -27 -38 13 -40 33 -2
39 1 51 28 17 39 21 90 7 90 -6 0 -5 4 3 9 11 7 11 10 0 17 -21 13 -32 13 -74
-1z"/>
<path d="M2705 1659 c-5 -5 -23 -19 -39 -32 -20 -16 -27 -29 -23 -41 10 -24
44 -1 63 43 15 36 15 44 -1 30z"/>
<path d="M2210 1655 c0 -7 30 -13 34 -7 3 4 -4 9 -15 9 -10 1 -19 0 -19 -2z"/>
<path d="M1487 1583 c4 -9 10 -10 24 -2 25 13 24 15 -5 15 -15 0 -22 -5 -19
-13z"/>
<path d="M1695 1580 c3 -5 8 -10 11 -10 2 0 4 5 4 10 0 6 -5 10 -11 10 -5 0
-7 -4 -4 -10z"/>
<path d="M2380 1572 c0 -7 5 -12 12 -12 6 0 2 -10 -10 -23 -12 -13 -22 -26
-22 -30 0 -10 43 -2 69 13 21 11 20 30 -1 30 -6 0 -20 7 -30 17 -11 9 -18 11
-18 5z"/>
<path d="M1509 1558 c-6 -21 -5 -38 1 -38 5 0 8 9 7 20 -1 17 -5 26 -8 18z"/>
<path d="M2333 1515 c0 -8 4 -15 9 -15 4 0 8 4 8 9 0 6 -4 12 -8 15 -5 3 -9
-1 -9 -9z"/>
<path d="M1485 1499 c-4 -6 -5 -12 -2 -15 2 -3 7 2 10 11 7 17 1 20 -8 4z"/>
<path d="M2161 1446 c-12 -14 -85 -33 -106 -27 -5 1 -5 -3 2 -10 20 -20 78
-12 107 14 14 14 26 27 26 31 0 11 -17 6 -29 -8z"/>
<path d="M2343 1433 c-27 -18 -29 -29 -6 -37 16 -6 63 28 63 46 0 13 -33 8
-57 -9z"/>
<path d="M1907 1419 c8 -8 2 -19 -20 -40 -18 -16 -24 -26 -14 -23 9 3 17 1 17
-5 0 -6 9 -2 20 9 11 11 20 25 20 31 0 5 5 7 10 4 6 -3 10 -1 10 4 0 6 8 11
18 12 14 0 14 2 -3 9 -31 13 -71 12 -58 -1z"/>
<path d="M2328 1343 c-10 -2 -18 -13 -18 -24 0 -10 -1 -22 -2 -26 -2 -10 52
-21 70 -15 15 5 16 44 0 60 -12 12 -20 13 -50 5z"/>
<path d="M2610 1340 c0 -5 5 -10 11 -10 5 0 7 5 4 10 -3 6 -8 10 -11 10 -2 0
-4 -4 -4 -10z"/>
<path d="M2176 1308 c3 -5 10 -6 15 -3 13 9 11 12 -6 12 -8 0 -12 -4 -9 -9z"/>
<path d="M2445 1290 c-3 -5 -1 -10 4 -10 6 0 11 5 11 10 0 6 -2 10 -4 10 -3 0
-8 -4 -11 -10z"/>
<path d="M2253 1267 c4 -14 26 -16 30 -3 1 5 -6 10 -16 12 -10 1 -16 -3 -14
-9z"/>
<path d="M2247 1239 c7 -7 15 -10 18 -7 3 3 -2 9 -12 12 -14 6 -15 5 -6 -5z"/>
<path d="M2593 1193 c-9 -26 -34 -48 -62 -56 -21 -5 -23 -3 -17 24 4 22 2 29
-9 29 -8 0 -15 -4 -15 -9 0 -5 -9 -11 -20 -14 -13 -3 -20 -14 -20 -31 0 -14
-8 -30 -17 -35 -10 -6 -13 -11 -6 -11 6 0 14 4 18 9 3 5 20 10 38 10 17 1 40
2 49 2 10 0 24 9 31 20 8 10 17 16 21 12 4 -4 9 3 13 16 4 17 8 19 14 9 6 -9
9 -7 9 9 0 28 -18 40 -27 16z"/>
<path d="M2213 1181 c-9 -11 -21 -17 -26 -14 -6 4 -8 -1 -4 -11 4 -10 7 -20 7
-22 0 -3 5 -2 10 1 6 4 8 11 5 16 -4 5 -1 9 5 9 12 0 40 24 40 34 0 13 -21 5
-37 -13z"/>
<path d="M3292 1171 c-10 -17 -22 -28 -26 -24 -4 4 -2 -5 4 -21 16 -43 49 -80
77 -88 24 -7 25 -6 18 30 -3 20 -13 49 -20 65 -9 19 -10 25 -2 20 7 -4 5 1 -3
12 -8 10 -14 21 -12 24 2 3 -1 7 -7 9 -6 2 -19 -10 -29 -27z"/>
<path d="M2685 1171 c-3 -5 4 -13 16 -16 28 -9 33 -2 9 13 -11 6 -21 8 -25 3z"/>
<path d="M1945 1100 c-3 -5 -1 -10 4 -10 6 0 11 5 11 10 0 6 -2 10 -4 10 -3 0
-8 -4 -11 -10z"/>
<path d="M3113 1085 c0 -8 4 -12 9 -9 5 3 6 10 3 15 -9 13 -12 11 -12 -6z"/>
<path d="M2205 1050 l-30 -20 32 0 c34 0 46 9 34 28 -5 8 -15 6 -36 -8z"/>
</g>
</svg>
