<?xml version="1.0" standalone="no"?>
<!DOCTYPE svg PUBLIC "-//W3C//DTD SVG 20010904//EN"
 "http://www.w3.org/TR/2001/REC-SVG-20010904/DTD/svg10.dtd">
<svg version="1.0" xmlns="http://www.w3.org/2000/svg"
 width="450.000000pt" height="253.000000pt" viewBox="0 0 450.000000 253.000000"
 preserveAspectRatio="xMidYMid meet">
<metadata>
Created by potrace 1.16, written by Peter Selinger 2001-2019
</metadata>
<g transform="translate(0.000000,253.000000) scale(0.100000,-0.100000)"
fill="#000000" stroke="none">
<path d="M0 1265 l0 -1265 2250 0 2250 0 0 1265 0 1265 -812 0 c-731 -1 -810
-2 -778 -16 81 -35 143 -107 175 -204 9 -26 21 -94 28 -151 l12 -103 57 -14
c56 -14 57 -14 93 13 33 26 40 27 118 23 75 -4 92 -9 197 -60 119 -58 166 -94
176 -135 4 -12 9 -23 13 -23 14 0 11 -102 -5 -133 -22 -43 -189 -212 -239
-241 -22 -13 -60 -29 -85 -36 -25 -6 -60 -16 -78 -23 l-32 -11 34 -36 c48 -49
81 -128 101 -245 20 -118 15 -149 -28 -190 -55 -51 -69 -58 -162 -79 -162 -37
-403 -11 -550 60 -73 35 -85 33 -86 -18 0 -24 -4 -63 -9 -88 -8 -37 -9 -32 -5
35 3 63 1 75 -7 58 -6 -13 -15 -23 -19 -23 -19 0 -79 -69 -79 -91 0 -34 -106
-139 -173 -172 -74 -36 -140 -50 -183 -38 -19 5 -34 7 -34 5 0 -9 -76 35 -102
59 -28 26 -47 63 -92 176 -22 54 -26 81 -26 163 0 91 -1 98 -20 98 -22 0 -26
20 -8 38 9 9 9 12 -3 13 -179 8 -407 125 -425 217 -4 18 -10 32 -14 32 -9 0
-19 43 -27 113 -4 41 -1 54 28 98 40 63 66 88 147 140 34 23 62 45 62 50 0 5
-16 23 -36 41 -135 123 -211 326 -160 431 9 21 21 35 26 32 4 -3 10 1 13 9 9
24 132 43 263 40 77 -1 116 -8 177 -28 63 -21 96 -26 176 -26 l98 0 27 40 c14
22 30 40 34 40 4 0 27 19 52 41 48 43 144 99 169 99 9 0 23 5 31 10 10 6 -432
10 -1257 10 l-1273 0 0 -1265z m2617 -767 c-3 -7 -5 -2 -5 12 0 14 2 19 5 13
2 -7 2 -19 0 -25z m-10 -165 c-3 -10 -5 -2 -5 17 0 19 2 27 5 18 2 -10 2 -26
0 -35z"/>
<path d="M2282 2024 c-8 -16 -7 -20 6 -21 9 -1 29 -4 45 -7 16 -3 25 -1 22 5
-4 5 -13 9 -22 9 -9 0 -21 8 -28 17 -11 15 -13 15 -23 -3z"/>
<path d="M2236 2005 c4 -8 10 -12 15 -9 14 8 10 24 -6 24 -9 0 -12 -6 -9 -15z"/>
<path d="M2660 1906 c0 -3 9 -10 20 -16 11 -6 20 -8 20 -6 0 3 -9 10 -20 16
-11 6 -20 8 -20 6z"/>
<path d="M2430 1771 c-8 -6 -18 -7 -22 -5 -13 8 -9 -10 5 -31 12 -15 15 -16
23 -4 8 13 17 49 11 49 -1 0 -9 -4 -17 -9z"/>
<path d="M2330 1716 c0 -2 7 -9 15 -16 12 -10 15 -10 15 4 0 9 -7 16 -15 16
-8 0 -15 -2 -15 -4z"/>
<path d="M2390 1685 c0 -18 5 -37 11 -40 5 -4 14 -18 19 -31 6 -14 21 -26 42
-32 34 -9 53 -42 23 -42 -12 0 -13 -4 -6 -18 6 -11 6 -24 0 -33 -18 -29 -10
-35 44 -31 28 2 53 8 55 12 2 5 10 6 18 3 17 -6 17 -2 3 31 -9 20 -9 29 1 41
10 12 8 16 -15 25 -14 5 -35 10 -45 10 -21 0 -120 94 -120 114 0 8 -7 16 -15
20 -12 4 -15 -3 -15 -29z"/>
<path d="M2186 1683 c-3 -3 4 -14 16 -25 12 -10 24 -16 26 -13 3 3 -4 14 -15
25 -12 10 -24 16 -27 13z"/>
<path d="M1795 1658 c-16 -4 -39 -15 -49 -23 -18 -14 -18 -16 -3 -33 16 -17
15 -18 -20 -14 -23 3 -33 1 -29 -6 3 -5 22 -10 42 -10 45 0 52 -7 30 -31 -17
-18 -16 -19 14 -26 26 -6 35 -3 48 17 9 12 17 26 18 31 1 4 2 8 4 10 6 7 4 70
-3 74 -4 2 -5 8 -3 12 7 10 -11 10 -49 -1z"/>
<path d="M2696 1656 c-50 -29 -69 -59 -50 -79 10 -10 54 24 54 42 0 9 5 22 12
29 17 17 7 22 -16 8z"/>
<path d="M2384 1564 c8 -21 -11 -44 -37 -44 -16 0 -18 -3 -10 -11 14 -14 72
-5 99 16 18 13 18 14 -13 25 -18 7 -30 16 -27 21 3 5 0 9 -6 9 -7 0 -9 -7 -6
-16z"/>
<path d="M1496 1552 c-3 -5 1 -9 9 -9 8 0 12 4 9 9 -3 4 -7 8 -9 8 -2 0 -6 -4
-9 -8z"/>
<path d="M2153 1444 c-19 -14 -39 -20 -65 -23 -5 -1 -8 -6 -8 -11 0 -18 64 -7
87 14 37 35 27 48 -14 20z"/>
<path d="M2342 1434 c-29 -20 -28 -34 1 -34 22 0 57 27 57 43 0 13 -35 7 -58
-9z"/>
<path d="M1920 1419 c0 -6 -10 -19 -21 -28 -18 -14 -20 -21 -11 -36 9 -17 12
-16 29 13 11 18 23 29 26 25 4 -3 7 3 7 15 0 13 -6 22 -15 22 -8 0 -15 -5 -15
-11z"/>
<path d="M2334 1342 c-10 -6 -34 -45 -34 -54 0 -3 20 -5 45 -7 39 -2 45 1 45
18 0 45 -25 64 -56 43z"/>
<path d="M2256 1271 c-4 -5 -3 -16 0 -25 6 -15 8 -15 19 1 13 18 11 33 -5 33
-5 0 -11 -4 -14 -9z"/>
<path d="M2247 1207 c-3 -9 -13 -17 -22 -17 -8 0 -15 -4 -15 -10 0 -5 -6 -10
-13 -10 -8 0 -14 -7 -14 -15 0 -8 4 -15 8 -15 16 0 71 59 67 71 -3 9 -6 8 -11
-4z"/>
<path d="M2594 1198 c-5 -7 -9 -15 -9 -18 -1 -13 -22 -37 -37 -43 -30 -11 -49
2 -42 29 7 29 -3 30 -35 5 -19 -15 -22 -23 -16 -49 3 -18 11 -30 16 -26 5 3 6
10 3 16 -4 7 0 7 13 -1 15 -8 29 -5 61 11 23 11 39 24 36 29 -3 5 6 9 20 9 33
0 40 13 17 34 -15 14 -21 15 -27 4z"/>
<path d="M3314 1192 c-6 -4 -18 -22 -27 -41 -13 -26 -14 -38 -5 -55 14 -28 48
-61 71 -69 14 -5 17 -1 17 24 0 16 -7 43 -15 59 -9 17 -12 30 -8 30 4 0 -2 7
-13 16 -10 8 -13 13 -6 9 6 -3 12 -1 12 4 0 6 -5 11 -11 11 -5 0 -7 5 -4 10 7
12 4 12 -11 2z"/>
<path d="M2692 1171 c-11 -6 -10 -10 4 -15 20 -8 32 0 18 14 -5 5 -15 5 -22 1z"/>
<path d="M1945 1100 c-3 -5 -1 -10 4 -10 6 0 11 5 11 10 0 6 -2 10 -4 10 -3 0
-8 -4 -11 -10z"/>
<path d="M2204 1055 c-10 -8 -16 -15 -11 -16 24 -5 33 -4 45 4 6 5 12 13 12
18 0 14 -24 11 -46 -6z"/>
</g>
</svg>
