<?xml version="1.0" standalone="no"?>
<!DOCTYPE svg PUBLIC "-//W3C//DTD SVG 20010904//EN"
 "http://www.w3.org/TR/2001/REC-SVG-20010904/DTD/svg10.dtd">
<svg version="1.0" xmlns="http://www.w3.org/2000/svg"
 width="450.000000pt" height="253.000000pt" viewBox="0 0 450.000000 253.000000"
 preserveAspectRatio="xMidYMid meet">
<metadata>
Created by potrace 1.16, written by Peter Selinger 2001-2019
</metadata>
<g transform="translate(0.000000,253.000000) scale(0.100000,-0.100000)"
fill="#000000" stroke="none">
<path d="M0 1265 l0 -1265 2250 0 2250 0 0 1265 0 1265 -2250 0 -2250 0 0
-1265z m3355 876 c28 -7 53 -23 83 -56 45 -50 59 -95 23 -75 -29 15 -45 12
-71 -10 -18 -15 -19 -20 -7 -20 9 0 28 -11 44 -24 23 -20 32 -22 56 -13 31 10
136 3 146 -10 26 -35 98 -84 138 -95 63 -15 152 -100 132 -125 -7 -8 -14 -21
-15 -28 -5 -37 -74 -105 -106 -105 -8 0 -25 -10 -38 -22 -43 -40 -155 -88
-206 -88 -44 0 -46 -1 -40 -25 4 -16 -1 -42 -13 -70 -18 -41 -18 -47 -4 -75
21 -43 41 -165 36 -220 -6 -57 -29 -107 -59 -127 -13 -8 -24 -20 -24 -27 0
-14 -77 -39 -93 -29 -6 4 -22 8 -35 9 -14 2 -32 6 -41 10 -9 4 -23 8 -31 10
-36 8 -168 35 -195 40 -16 3 -59 27 -94 52 -35 26 -82 60 -105 76 -52 36 -77
62 -68 71 4 4 2 6 -3 4 -15 -3 -46 12 -41 20 3 4 -14 8 -37 10 -23 1 -52 8
-64 16 -19 13 -139 235 -126 235 3 0 1 6 -5 13 -19 23 -24 100 -9 142 8 23 13
59 11 80 -3 37 3 75 21 118 11 26 -23 11 -60 -27 -52 -53 -61 -59 -84 -46 -12
6 -21 18 -22 28 0 9 -5 4 -10 -13 -7 -24 -5 -33 10 -45 16 -13 41 -51 41 -63
0 -8 -50 5 -56 14 -8 14 -26 11 -19 -3 4 -7 0 -5 -9 6 -8 10 -19 15 -24 12 -6
-4 -9 5 -7 19 3 35 15 44 21 18 3 -12 12 -24 20 -27 10 -4 11 0 5 17 -4 12 -6
29 -4 37 4 13 3 13 -6 0 -9 -13 -11 -13 -11 2 0 9 4 20 10 23 6 4 5 13 -2 25
-7 10 -16 16 -20 14 -4 -3 -8 -2 -9 3 0 4 -2 16 -4 26 -2 9 0 17 5 17 4 0 10
9 13 21 3 12 10 18 16 14 6 -3 11 0 11 9 0 20 58 28 178 26 133 -3 129 -4 106
21 -18 20 -18 21 1 57 16 29 37 45 95 74 46 23 91 37 115 38 22 1 101 11 175
24 146 24 301 32 365 17z m-1007 -538 c2 -7 -4 -13 -13 -13 -27 0 -11 -25 18
-28 15 -2 27 -10 27 -18 0 -10 -13 -14 -47 -14 -29 0 -43 -4 -35 -9 10 -6 9
-13 -6 -31 -18 -22 -19 -22 -18 -5 1 11 8 39 14 62 7 23 12 45 11 50 -3 19 2
24 23 21 12 -2 23 -9 26 -15z m-32 -158 c-7 -47 4 -60 23 -27 10 16 10 16 11
0 0 -10 -5 -18 -11 -18 -5 0 -8 -3 -5 -8 2 -4 -2 -15 -9 -25 -11 -16 -13 -16
-19 -2 -4 11 -2 14 6 9 7 -4 8 -3 4 5 -6 8 -12 9 -20 2 -7 -6 -16 -8 -19 -4
-4 3 -7 1 -7 -5 0 -7 -4 -12 -8 -12 -5 0 -9 16 -10 35 -1 27 6 41 31 65 18 16
33 30 35 30 2 0 1 -20 -2 -45z m-46 -105 c0 -5 -4 -10 -10 -10 -5 0 -10 5 -10
10 0 6 5 10 10 10 6 0 10 -4 10 -10z m-23 -92 c-3 -8 -6 -5 -6 6 -1 11 2 17 5
13 3 -3 4 -12 1 -19z m94 -580 c2 -187 -8 -548 -15 -555 -3 -4 -6 132 -5 300
0 186 4 307 10 307 5 0 9 -24 10 -52z"/>
<path d="M3061 1934 c10 -12 10 -15 -2 -12 -8 2 -13 -3 -11 -9 1 -7 -4 -12
-10 -10 -7 1 -13 -7 -13 -18 0 -15 8 -21 33 -23 17 -2 32 -8 32 -13 0 -6 -8
-8 -18 -5 -13 4 -22 -1 -31 -17 -15 -29 -11 -50 12 -59 9 -4 20 -15 24 -24 3
-9 16 -27 29 -39 25 -25 24 -50 -4 -72 -21 -17 -46 15 -29 36 10 12 9 12 -11
0 -21 -13 -25 -12 -41 8 l-18 22 -21 -29 c-14 -18 -19 -36 -15 -47 5 -15 1
-14 -19 5 -19 17 -28 20 -33 11 -5 -7 -4 -10 3 -5 6 3 13 2 16 -3 4 -5 -6 -11
-21 -13 -22 -2 -28 -8 -28 -28 0 -33 24 -53 44 -37 25 21 -8 -34 -42 -70 -28
-30 -56 -45 -43 -24 4 5 1 11 -6 13 -7 3 -3 12 11 25 27 25 11 43 -33 38 -33
-4 -41 -11 -51 -42 -5 -18 -1 -25 18 -32 13 -5 27 -19 30 -30 6 -25 -2 -26
-29 -6 -20 15 -44 20 -44 8 1 -18 58 -71 80 -76 24 -4 24 -4 3 -6 -18 -1 -23
-7 -23 -30 0 -20 6 -32 19 -36 11 -3 34 -19 53 -35 30 -27 38 -29 96 -26 34 2
68 9 76 15 7 6 16 8 19 4 4 -3 7 0 7 8 0 11 2 11 10 -1 9 -13 10 -13 10 0 0
12 2 12 9 1 6 -9 14 -10 27 -3 13 7 25 7 38 0 9 -5 20 -7 23 -4 4 3 1 6 -6 6
-7 0 -10 4 -7 9 8 13 -94 101 -116 101 -24 0 -23 -19 3 -46 l21 -23 -23 6
c-13 3 -29 10 -35 14 -13 11 -24 1 -24 -21 0 -26 -32 -49 -63 -46 -17 2 -43
19 -66 43 l-38 39 29 -4 c21 -3 28 0 28 12 0 9 5 15 11 14 6 -2 14 3 16 10 3
6 0 12 -6 12 -6 0 -11 4 -11 9 0 5 30 11 66 13 49 3 68 9 76 21 9 16 11 16 34
-2 39 -31 111 -9 101 31 -6 20 9 25 16 6 3 -7 4 3 3 22 -1 25 -5 34 -16 32
-78 -18 -135 -11 -137 18 -2 26 28 26 52 0 16 -18 20 -18 46 -4 36 18 36 23 2
50 -16 12 -25 25 -22 29 4 3 14 -1 23 -10 18 -19 40 -10 32 12 -6 14 -3 14 18
0 23 -15 26 -15 50 8 31 29 33 41 6 55 -28 15 -25 34 13 70 20 20 24 27 10 19
-27 -16 -41 -6 -23 17 12 13 11 17 -1 25 -12 7 -11 9 3 9 9 0 21 -7 26 -16 8
-14 17 -15 48 -9 28 6 33 10 19 13 -29 6 -47 23 -40 39 3 9 0 13 -7 10 -7 -2
-11 -11 -10 -18 2 -8 0 -10 -5 -6 -4 5 -8 14 -8 19 0 6 -6 13 -14 16 -10 3
-12 0 -8 -12 4 -11 3 -15 -4 -11 -6 4 -8 13 -5 20 10 27 -42 50 -71 32 -8 -5
-17 0 -25 13 -7 11 -18 20 -24 20 -6 0 -17 6 -23 14 -6 8 -21 16 -32 19 -17 5
-18 3 -8 -9z m169 -91 c0 -7 -39 17 -46 28 -3 6 5 3 20 -6 14 -10 26 -19 26
-22z m-106 21 c9 -3 16 -10 16 -14 0 -12 -33 -5 -38 8 -4 14 0 15 22 6z m13
-62 c-56 -32 -75 -35 -87 -11 -9 15 -7 19 5 19 8 0 15 5 15 10 0 6 15 9 35 7
27 -3 36 0 41 15 6 19 6 19 19 1 12 -16 9 -20 -28 -41z m18 -61 c3 -5 0 -13
-6 -17 -7 -4 -9 -3 -5 4 3 6 -2 13 -11 15 -16 4 -16 5 -1 6 9 0 19 -3 23 -8z
m77 -96 c3 0 10 -4 15 -8 4 -5 2 -7 -6 -5 -8 2 -17 -7 -21 -22 -5 -22 -7 -23
-13 -7 -12 31 -9 59 6 50 6 -4 15 -8 19 -8z m-183 -91 c-20 -22 -47 -24 -33
-3 3 5 11 6 17 2 8 -5 8 -2 -1 9 -11 13 -9 16 13 16 l26 0 -22 -24z m-234 -54
c3 -5 -1 -10 -9 -10 -9 0 -16 5 -16 10 0 6 4 10 9 10 6 0 13 -4 16 -10z m147
-20 c2 -7 14 -7 36 -1 l33 10 -22 -39 c-19 -33 -26 -38 -55 -37 -19 1 -34 5
-35 10 -1 4 -2 13 -3 20 -2 13 23 47 35 47 4 0 9 -5 11 -10z"/>
<path d="M3495 1929 c-4 -5 3 -9 14 -9 26 0 35 15 11 17 -11 1 -22 -2 -25 -8z"/>
<path d="M3316 1808 c3 -5 10 -6 15 -3 13 9 11 12 -6 12 -8 0 -12 -4 -9 -9z"/>
<path d="M2907 1794 c-3 -4 -21 -8 -38 -10 -18 -2 -35 -6 -37 -9 -9 -9 31 -34
54 -35 11 0 25 -5 32 -12 9 -9 12 -6 12 14 0 15 3 33 6 42 6 16 -16 23 -29 10z"/>
<path d="M2792 1739 c2 -6 6 -9 8 -8 3 1 16 -3 30 -10 l25 -12 -24 20 c-25 23
-45 28 -39 10z"/>
<path d="M3025 1730 c3 -5 8 -10 11 -10 2 0 4 5 4 10 0 6 -5 10 -11 10 -5 0
-7 -4 -4 -10z"/>
<path d="M3355 1720 c-3 -5 -1 -10 4 -10 6 0 11 5 11 10 0 6 -2 10 -4 10 -3 0
-8 -4 -11 -10z"/>
<path d="M3303 1695 c-6 -7 -9 -16 -6 -19 4 -3 -1 -6 -11 -6 -14 0 -15 -2 -4
-14 11 -12 14 -12 22 3 5 9 13 18 17 21 4 3 5 11 1 17 -5 8 -10 7 -19 -2z"/>
<path d="M3346 1693 c-3 -3 0 -15 5 -26 9 -16 13 -17 20 -6 5 8 9 17 9 20 0 9
-27 19 -34 12z"/>
<path d="M2664 1648 c-3 -12 1 -27 12 -39 16 -18 18 -18 36 -3 26 24 23 38
-12 51 -26 10 -30 9 -36 -9z"/>
<path d="M2837 1633 c-4 -3 -7 -14 -7 -23 0 -10 -10 -25 -22 -33 l-23 -16 21
0 c12 -1 25 6 28 15 3 8 10 13 15 10 4 -3 7 6 5 20 -3 29 -8 37 -17 27z"/>
<path d="M2732 1598 c-17 -17 -15 -38 4 -38 8 0 12 4 9 10 -4 6 1 7 10 3 13
-4 16 -1 14 12 -5 23 -21 29 -37 13z"/>
<path d="M3285 1330 c3 -5 8 -10 11 -10 2 0 4 5 4 10 0 6 -5 10 -11 10 -5 0
-7 -4 -4 -10z"/>
<path d="M2710 1296 c0 -2 7 -7 16 -10 8 -3 12 -2 9 4 -6 10 -25 14 -25 6z"/>
<path d="M2786 1262 c-4 -6 3 -21 14 -32 11 -11 18 -25 15 -29 -4 -7 41 -32
65 -37 3 0 17 -6 31 -12 40 -16 62 -18 66 -5 3 7 -17 16 -52 23 -55 11 -64 18
-113 79 -12 16 -21 20 -26 13z"/>
<path d="M3226 1242 c-3 -6 -1 -14 5 -17 14 -9 20 -2 10 14 -6 8 -11 9 -15 3z"/>
<path d="M3138 1183 c7 -3 16 -2 19 1 4 3 -2 6 -13 5 -11 0 -14 -3 -6 -6z"/>
</g>
</svg>
