<?xml version="1.0" standalone="no"?>
<!DOCTYPE svg PUBLIC "-//W3C//DTD SVG 20010904//EN"
 "http://www.w3.org/TR/2001/REC-SVG-20010904/DTD/svg10.dtd">
<svg version="1.0" xmlns="http://www.w3.org/2000/svg"
 width="450.000000pt" height="253.000000pt" viewBox="0 0 450.000000 253.000000"
 preserveAspectRatio="xMidYMid meet">
<metadata>
Created by potrace 1.16, written by Peter Selinger 2001-2019
</metadata>
<g transform="translate(0.000000,253.000000) scale(0.100000,-0.100000)"
fill="#000000" stroke="none">
<path d="M0 1265 l0 -1265 2250 0 2250 0 0 1265 0 1265 -2250 0 -2250 0 0
-1265z m2670 620 c96 -26 190 -66 210 -89 7 -9 20 -16 29 -16 23 0 110 -62
117 -83 9 -28 -6 -76 -27 -87 -10 -6 -19 -8 -19 -4 0 4 -9 -1 -20 -11 -11 -10
-23 -15 -27 -12 -3 4 -13 1 -22 -6 -14 -10 -14 -10 -4 4 7 9 11 18 8 21 -3 2
2 5 10 5 8 0 12 -4 9 -9 -8 -12 10 -10 24 4 16 16 15 31 0 22 -7 -4 -10 -4 -6
1 4 4 2 15 -5 24 -10 14 -10 14 4 4 9 -7 19 -9 23 -5 4 4 7 2 6 -3 -1 -6 -2
-17 -1 -25 1 -12 3 -12 17 2 12 11 14 25 9 47 -4 17 -11 29 -16 25 -5 -3 -6
-11 -2 -17 5 -9 3 -9 -8 -1 -8 6 -40 10 -72 8 -47 -2 -62 1 -78 17 -11 11 -17
24 -14 29 3 5 1 11 -4 14 -5 4 -12 2 -15 -3 -4 -5 -2 -12 4 -16 5 -3 10 -11
10 -16 0 -5 -11 -2 -25 7 -14 9 -22 21 -18 27 3 5 1 7 -5 3 -6 -3 -13 -2 -17
4 -3 5 -16 15 -28 21 -22 12 -22 11 -4 -9 22 -25 8 -37 -31 -27 -42 12 -123
11 -118 0 2 -7 -9 -9 -30 -7 -18 2 -46 -3 -63 -11 -28 -14 -29 -14 -26 5 3 11
10 27 17 35 10 12 8 18 -12 33 -22 17 -23 21 -10 34 10 10 39 17 80 19 82 4
96 30 22 43 -15 3 -31 9 -35 13 -13 13 99 3 163 -14z m-442 -2 c-10 -2 -28 -2
-40 0 -13 2 -5 4 17 4 22 1 32 -1 23 -4z m144 -1 c47 10 52 7 45 -24 -8 -31
-60 -69 -97 -72 -16 -1 -33 -6 -37 -11 -4 -4 -1 -5 7 0 12 7 13 6 2 -6 -10
-11 -15 -11 -20 -2 -5 9 -12 6 -21 -9 -11 -18 -11 -20 3 -15 26 10 19 2 -28
-31 -48 -35 -69 -41 -60 -17 5 11 2 13 -12 8 -11 -4 -15 -3 -11 4 4 6 0 13 -8
17 -8 3 -15 1 -15 -5 0 -5 -15 1 -32 14 -18 14 -39 22 -46 20 -8 -3 -10 1 -6
11 3 9 12 16 19 16 20 0 29 20 15 33 -9 8 -11 9 -7 1 4 -7 -5 -14 -24 -18 -55
-11 -64 -8 -40 13 16 14 18 21 9 29 -13 9 -50 24 -76 28 -8 1 -16 5 -20 8 -3
3 44 5 104 4 60 -1 90 -3 66 -5 -34 -3 -43 -8 -40 -21 2 -12 12 -16 33 -15 46
4 60 -4 44 -24 -13 -14 -12 -15 6 -6 11 5 51 9 88 8 65 -1 89 6 68 20 -15 8
-2 35 14 29 7 -3 16 0 21 7 5 8 3 10 -6 4 -9 -6 -11 -4 -5 4 5 8 11 9 17 3 6
-6 25 -6 50 0z m-546 -27 c-10 -8 -16 -21 -13 -29 4 -10 -7 -30 -28 -53 -18
-20 -31 -41 -29 -45 3 -5 -8 -13 -24 -19 -32 -11 -49 -48 -29 -61 9 -6 8 -8
-3 -9 -46 -4 -80 -20 -79 -38 0 -10 2 -11 6 -3 6 14 33 16 33 2 0 -5 -8 -17
-18 -27 -11 -10 -22 -27 -26 -38 -6 -16 -9 -17 -17 -5 -9 13 -10 12 -6 -2 3
-9 1 -19 -6 -22 -7 -2 -4 -5 6 -5 10 -1 34 15 54 34 37 36 70 47 59 20 -3 -8
-1 -15 5 -15 6 0 9 -6 6 -12 -3 -12 -9 -14 -48 -17 -9 0 -19 -10 -22 -22 -4
-15 -2 -19 10 -15 8 3 26 9 40 13 26 6 26 5 18 -38 -4 -24 -8 -55 -9 -69 -8
-78 -8 -78 -15 -45 -5 22 -12 29 -25 27 -13 -2 -16 1 -10 10 6 11 5 11 -8 0
-12 -9 -18 -10 -23 -2 -5 8 -11 8 -21 -1 -8 -6 -18 -9 -22 -5 -10 10 -9 40 2
48 5 3 2 14 -7 23 -13 12 -15 21 -7 36 8 13 7 19 0 19 -30 0 32 146 100 235
54 72 76 95 89 95 6 0 11 4 11 10 0 10 48 39 65 39 6 0 2 -6 -9 -14z m395 -13
c-13 -2 -27 0 -32 5 -6 6 3 7 23 4 28 -4 29 -6 9 -9z m-54 2 c-3 -3 -12 -4
-19 -1 -8 3 -5 6 6 6 11 1 17 -2 13 -5z m-297 -14 c0 -5 -2 -10 -4 -10 -3 0
-8 5 -11 10 -3 6 -1 10 4 10 6 0 11 -4 11 -10z m120 0 c0 -5 -4 -10 -10 -10
-5 0 -10 5 -10 10 0 6 5 10 10 10 6 0 10 -4 10 -10z m280 -129 c0 -14 -5 -18
-20 -14 -16 4 -18 8 -9 19 16 20 29 17 29 -5z m445 -10 c3 -5 2 -12 -3 -15 -5
-3 -9 1 -9 9 0 17 3 19 12 6z m-915 -25 c0 -3 -4 -8 -10 -11 -5 -3 -10 -1 -10
4 0 6 5 11 10 11 6 0 10 -2 10 -4z m280 -36 c-8 -5 -19 -10 -25 -10 -5 0 -3 5
5 10 8 5 20 10 25 10 6 0 3 -5 -5 -10z m806 -45 c-1 -8 -5 -17 -8 -21 -5 -4
-4 16 1 34 3 9 9 -1 7 -13z m-1184 -430 c2 -19 0 -35 -4 -35 -4 0 -8 16 -8 35
0 19 2 35 4 35 2 0 6 -16 8 -35z m8 -87 c0 -49 -6 -47 -13 5 -3 20 -1 37 4 37
5 0 9 -19 9 -42z m15 -218 c3 -79 8 -147 9 -150 2 -3 0 -14 -4 -24 -5 -16 -32
276 -30 334 1 13 2 13 9 0 5 -8 12 -80 16 -160z m22 -382 c-3 -8 -6 -5 -6 6
-1 11 2 17 5 13 3 -3 4 -12 1 -19z"/>
<path d="M1660 1689 c-10 -18 -9 -20 7 -17 10 2 19 11 21 21 5 24 -15 21 -28
-4z"/>
</g>
</svg>
