<?xml version="1.0" standalone="no"?>
<!DOCTYPE svg PUBLIC "-//W3C//DTD SVG 20010904//EN"
 "http://www.w3.org/TR/2001/REC-SVG-20010904/DTD/svg10.dtd">
<svg version="1.0" xmlns="http://www.w3.org/2000/svg"
 width="450.000000pt" height="253.000000pt" viewBox="0 0 450.000000 253.000000"
 preserveAspectRatio="xMidYMid meet">
<metadata>
Created by potrace 1.16, written by Peter Selinger 2001-2019
</metadata>
<g transform="translate(0.000000,253.000000) scale(0.100000,-0.100000)"
fill="#000000" stroke="none">
<path d="M0 1265 l0 -1265 2250 0 2250 0 0 1265 0 1265 -2250 0 -2250 0 0
-1265z m2914 680 c98 -26 184 -75 267 -153 106 -99 121 -125 107 -180 -9 -36
-18 -47 -52 -64 -22 -12 -43 -20 -45 -19 -2 2 -7 -1 -10 -6 -11 -17 -101 -55
-117 -49 -8 3 -12 2 -9 -4 4 -6 -5 -9 -20 -8 l-26 2 23 18 c12 9 24 15 26 13
2 -2 19 3 38 11 19 8 36 14 39 14 29 -1 35 1 31 9 -4 5 2 8 11 6 22 -3 65 34
56 48 -3 6 -1 7 5 3 7 -4 12 -2 12 4 0 6 5 8 10 5 6 -3 10 3 10 14 0 19 -20
27 -52 22 -5 0 -8 3 -8 9 0 5 -15 8 -32 6 -18 -2 -39 -4 -46 -5 -7 0 -10 -5
-7 -11 4 -6 -1 -7 -11 -3 -16 6 -46 7 -85 4 -5 -1 -7 -7 -3 -13 5 -9 2 -9 -9
1 -14 11 -17 11 -17 0 0 -9 -3 -9 -12 3 -17 20 -51 32 -45 16 2 -7 13 -12 23
-10 15 2 16 1 4 -7 -8 -5 -19 -7 -25 -3 -5 4 -13 7 -17 7 -3 0 -10 4 -15 9 -5
5 -2 6 6 1 10 -5 12 -4 7 3 -5 9 -13 9 -27 2 -14 -8 -19 -7 -19 1 0 7 -10 9
-25 7 -16 -4 -25 -1 -25 8 0 7 -8 11 -17 10 -10 -2 -21 2 -25 8 -6 8 -8 8 -8
0 0 -10 -44 -12 -75 -3 -6 2 -19 -2 -31 -8 -23 -13 -36 -7 -93 46 -28 26 -31
34 -21 46 10 12 10 21 1 41 -14 31 -14 37 -1 29 6 -4 5 5 -2 20 -10 22 -9 28
3 36 19 12 2 11 -22 -1 -10 -6 -19 -18 -19 -26 0 -9 -5 -12 -12 -8 -9 5 -9 3
1 -9 7 -9 17 -14 22 -11 5 3 9 -2 9 -11 0 -10 -5 -13 -12 -9 -7 4 -8 3 -4 -4
7 -11 -26 -35 -38 -27 -3 3 -4 2 -1 -2 3 -3 -1 -13 -7 -22 -8 -10 -3 -8 12 4
l25 20 -19 -22 c-14 -17 -22 -20 -32 -12 -9 7 -15 5 -23 -8 -6 -10 -11 -12
-11 -6 0 7 -5 12 -12 10 -6 -1 -13 5 -15 13 -4 17 124 156 134 147 3 -4 18 2
32 12 71 50 229 66 345 36z m-764 -40 c0 -3 -10 -10 -22 -15 -16 -6 -18 -9 -7
-9 9 -1 22 6 29 14 8 10 17 12 29 5 10 -5 23 -5 32 1 18 11 32 12 25 1 -3 -5
1 -9 9 -9 8 0 12 4 9 9 -3 4 -1 8 5 8 5 0 13 -5 16 -11 4 -6 17 -14 29 -19 20
-8 19 -9 -6 -11 -16 -1 -32 -3 -38 -4 -5 -1 -25 -3 -42 -4 -23 -1 -29 -4 -19
-10 7 -5 21 -6 31 -4 10 3 21 0 25 -7 5 -8 13 -6 28 7 18 15 19 15 9 1 -12
-16 -10 -16 25 -11 41 7 59 23 40 35 -9 6 -8 8 3 9 8 1 32 3 53 4 20 2 37 -1
37 -6 0 -5 -6 -9 -12 -8 -7 1 -22 1 -33 0 -15 -1 -17 -3 -6 -10 9 -6 10 -11 2
-15 -11 -7 -53 -17 -76 -19 -13 -1 -48 -37 -36 -37 4 0 6 -11 3 -25 -4 -24
-33 -35 -82 -33 -8 0 -23 -3 -33 -7 -12 -5 -16 -3 -12 6 5 14 -66 59 -91 59
-17 0 -25 28 -11 33 7 2 0 3 -15 1 -20 -2 -28 1 -28 11 0 8 -4 15 -10 15 -5 0
-10 6 -10 14 0 8 -7 17 -16 20 -8 3 -12 10 -9 16 6 10 175 15 175 5z m-193
-11 c-3 -3 -12 -4 -19 -1 -8 3 -5 6 6 6 11 1 17 -2 13 -5z m-46 -35 c8 -16 8
-20 -1 -14 -9 6 -9 3 -1 -12 13 -25 7 -31 -24 -25 -32 6 -39 17 -31 48 8 30
41 32 57 3z m645 -71 c4 -6 3 -8 -4 -4 -6 3 -15 -2 -21 -11 -6 -10 -11 -13
-11 -7 0 9 19 34 26 34 2 0 6 -5 10 -12z m-741 -48 c0 -7 -7 -14 -16 -15 -12
-2 -15 3 -12 16 6 22 28 20 28 -1z m143 -27 c-29 -7 -22 -36 6 -31 32 6 48 -4
40 -25 -7 -19 -46 -18 -97 2 -39 15 -98 13 -121 -4 -18 -14 -18 -15 -2 -15 16
0 16 -1 1 -16 -22 -22 -15 -26 26 -14 18 6 44 10 57 10 19 0 21 -2 10 -14 -7
-8 -15 -14 -18 -14 -39 2 -48 -15 -27 -49 6 -9 0 -13 -20 -13 -25 -1 -26 -2
-10 -14 16 -13 16 -15 -3 -39 -22 -27 -27 -48 -8 -29 18 18 24 15 26 -18 1
-16 -3 -30 -8 -30 -6 0 -9 -4 -6 -9 9 -14 -39 -41 -55 -30 -8 5 -20 9 -28 9
-11 0 -10 -5 5 -22 10 -13 12 -17 4 -10 -16 14 -34 16 -25 3 3 -5 2 -12 -2
-14 -10 -6 -9 175 1 230 7 37 34 79 37 57 1 -5 4 7 8 26 4 26 11 35 26 36 21
0 48 9 78 25 10 6 31 7 47 4 16 -3 31 -2 35 4 3 6 14 10 23 10 15 -1 15 -2 0
-6z m792 -66 c0 -4 5 -5 12 -1 7 4 8 3 4 -4 -5 -9 -13 -9 -29 -1 -31 16 -32
18 -8 16 11 -1 21 -5 21 -10z m66 0 c4 -4 0 -7 -9 -7 -9 0 -18 4 -21 9 -7 10
20 9 30 -2z m354 -11 c0 -2 -7 -7 -16 -10 -8 -3 -12 -2 -9 4 6 10 25 14 25 6z
m-175 -195 c-3 -6 -14 -11 -23 -11 -13 0 -13 2 4 14 21 15 30 14 19 -3z
m-1284 -224 l-5 -32 -6 30 c-7 35 -1 63 10 46 3 -6 4 -26 1 -44z m-5 -121 c0
-14 -3 -23 -7 -20 -6 3 -6 22 0 42 3 10 7 -2 7 -22z"/>
<path d="M2630 1676 c0 -2 7 -7 16 -10 8 -3 12 -2 9 4 -6 10 -25 14 -25 6z"/>
</g>
</svg>
