<?xml version="1.0" standalone="no"?>
<!DOCTYPE svg PUBLIC "-//W3C//DTD SVG 20010904//EN"
 "http://www.w3.org/TR/2001/REC-SVG-20010904/DTD/svg10.dtd">
<svg version="1.0" xmlns="http://www.w3.org/2000/svg"
 width="450.000000pt" height="253.000000pt" viewBox="0 0 450.000000 253.000000"
 preserveAspectRatio="xMidYMid meet">
<metadata>
Created by potrace 1.16, written by Peter Selinger 2001-2019
</metadata>
<g transform="translate(0.000000,253.000000) scale(0.100000,-0.100000)"
fill="#000000" stroke="none">
<path d="M0 1265 l0 -1265 2250 0 2250 0 0 1265 0 1265 -2250 0 -2250 0 0
-1265z m2653 1150 c21 -9 79 -16 149 -18 102 -3 118 -6 160 -31 69 -40 128
-112 168 -206 19 -45 42 -85 50 -90 8 -4 42 -15 75 -24 59 -15 60 -15 85 8 49
46 144 42 259 -11 31 -14 81 -37 111 -50 116 -52 151 -116 126 -230 -5 -20
-41 -64 -102 -127 -106 -107 -150 -139 -215 -156 -24 -6 -62 -19 -85 -28 l-41
-16 39 -60 c50 -78 62 -122 62 -231 0 -102 -18 -149 -67 -173 -15 -7 -27 -17
-27 -22 0 -23 -120 -56 -234 -65 -107 -9 -349 44 -421 91 -22 14 -26 14 -52
-3 -15 -10 -37 -24 -48 -29 -11 -6 -23 -26 -26 -43 -4 -18 -12 -38 -18 -44 -6
-6 -11 -25 -12 -42 0 -24 -2 -26 -8 -11 -7 18 -10 16 -40 -17 -47 -52 -175
-102 -256 -100 -124 2 -182 46 -236 178 -30 72 -33 89 -31 168 1 55 -2 87 -9
87 -6 0 -8 8 -5 18 6 17 -2 18 -86 21 -133 3 -259 39 -350 98 -52 35 -97 83
-98 105 0 9 -5 18 -12 20 -8 3 -12 31 -12 84 l-1 79 48 63 c27 34 52 62 56 62
4 0 16 8 27 18 10 10 46 33 79 51 105 59 104 54 25 130 -71 68 -100 111 -127
190 -19 55 -22 143 -5 163 6 8 9 18 5 21 -3 4 3 10 13 13 10 4 26 12 34 19 61
47 300 60 436 24 100 -28 231 -28 254 -1 23 26 91 77 127 96 70 36 177 46 236
21z m-76 -1757 c-3 -8 -6 -5 -6 6 -1 11 2 17 5 13 3 -3 4 -12 1 -19z m-91 -83
c-1 -8 -5 -17 -8 -21 -5 -4 -4 16 1 34 3 9 9 -1 7 -13z"/>
<path d="M2606 1908 c-11 -28 -11 -37 1 -60 7 -16 11 -28 7 -28 -4 0 -1 -7 6
-15 11 -13 8 -17 -20 -26 -26 -10 -31 -16 -27 -35 2 -14 0 -21 -6 -17 -5 3 -7
0 -5 -8 3 -8 1 -22 -4 -32 -10 -19 -3 -30 56 -87 27 -27 34 -39 25 -43 -12 -4
-12 -7 -1 -15 9 -6 11 -18 6 -35 -6 -26 -4 -27 34 -27 45 0 64 16 55 48 -4 18
1 25 33 39 22 9 45 18 52 19 20 4 21 6 24 42 1 18 6 32 10 32 14 0 8 30 -7 36
-24 9 -65 -23 -65 -51 0 -26 -37 -58 -54 -47 -12 7 -17 9 -39 11 -8 0 -20 12
-27 26 -7 14 -19 25 -26 25 -13 0 -34 30 -34 48 0 6 15 15 33 22 l32 11 -30
13 c-29 12 -29 13 -7 20 26 9 26 8 10 61 -6 22 -11 43 -10 48 1 4 -2 7 -8 7
-6 0 -6 9 0 25 14 37 2 30 -14 -7z"/>
<path d="M2840 1885 c14 -16 40 -20 40 -6 0 9 -24 21 -42 21 -6 0 -6 -6 2 -15z"/>
<path d="M2377 1793 c-4 -3 -7 -15 -7 -25 0 -13 7 -18 25 -18 16 0 25 6 25 15
0 8 6 15 13 15 18 0 -14 20 -34 20 -9 0 -19 -3 -22 -7z"/>
<path d="M2283 1737 c12 -13 25 -22 28 -20 8 3 19 -22 19 -44 0 -14 35 -53 47
-53 3 0 13 10 23 22 17 22 17 23 -4 33 -11 6 -20 19 -20 28 1 9 -1 16 -5 15
-19 -2 -24 4 -11 13 11 8 8 9 -16 5 -19 -3 -39 0 -50 9 -29 22 -36 17 -11 -8z"/>
<path d="M2480 1709 c0 -5 5 -7 10 -4 6 3 10 8 10 11 0 2 -4 4 -10 4 -5 0 -10
-5 -10 -11z"/>
<path d="M1525 1593 c-9 -21 -23 -44 -32 -50 -9 -7 -12 -13 -6 -13 16 0 6 -52
-12 -62 -21 -13 -9 -28 20 -26 13 1 22 4 20 6 -2 2 8 14 22 26 20 18 26 31 25
59 -1 21 5 43 14 52 9 8 11 16 5 16 -6 1 -15 2 -20 3 -5 0 -13 5 -18 10 -5 5
-3 6 5 2 6 -4 12 -2 12 3 0 24 -21 8 -35 -26z"/>
<path d="M2535 1592 c-4 -4 -25 -7 -48 -7 -46 0 -61 -19 -22 -29 22 -6 25 -9
15 -21 -10 -12 -7 -17 16 -25 16 -6 36 -9 46 -7 12 3 18 0 18 -10 0 -10 -6
-14 -20 -10 -20 5 -60 -17 -49 -27 16 -16 55 -14 86 5 33 21 43 44 22 51 -9 3
-9 9 -1 25 9 16 8 23 -6 35 -22 19 -48 28 -57 20z"/>
<path d="M1964 1568 c-14 -22 -13 -55 2 -55 16 0 17 6 4 27 -5 9 -5 19 2 27 6
7 8 13 5 13 -3 0 -9 -5 -13 -12z"/>
<path d="M2370 1550 c0 -5 5 -10 10 -10 6 0 10 5 10 10 0 6 -4 10 -10 10 -5 0
-10 -4 -10 -10z"/>
<path d="M2256 1481 c-4 -5 -2 -12 3 -15 5 -4 12 -2 15 3 4 5 2 12 -3 15 -5 4
-12 2 -15 -3z"/>
<path d="M2386 1474 c-11 -8 -16 -14 -10 -14 13 0 39 18 34 24 -3 2 -14 -2
-24 -10z"/>
<path d="M2278 1453 c-16 -2 -28 -9 -28 -14 0 -6 -4 -8 -9 -5 -11 7 -47 -32
-38 -41 4 -3 15 0 24 8 27 22 112 12 98 -11 -3 -5 -1 -10 5 -10 23 0 -17 -28
-50 -35 -27 -6 -30 -9 -17 -17 11 -6 26 -4 46 6 34 18 38 12 51 -62 6 -35 4
-45 -10 -55 -25 -18 -36 -57 -15 -57 8 0 18 7 21 15 3 8 15 17 25 20 11 4 26
21 33 38 27 63 38 70 106 70 56 0 61 1 45 13 -10 8 -22 14 -27 14 -14 0 -8 43
9 62 16 18 15 19 -13 18 -16 0 -46 2 -66 3 -33 3 -36 2 -27 -15 5 -10 15 -18
22 -18 8 0 7 -3 -2 -9 -8 -6 -24 -6 -38 0 -13 5 -23 5 -23 -1 0 -5 9 -11 19
-15 11 -3 24 -12 31 -20 10 -12 7 -13 -21 -5 -32 10 -73 39 -64 48 2 2 -6 13
-18 23 -19 15 -20 21 -9 38 13 23 7 24 -60 14z"/>
<path d="M2053 1443 c-7 -2 -13 -15 -13 -28 0 -12 -7 -25 -15 -29 -24 -9 -17
-31 10 -34 17 -1 30 6 41 23 9 14 26 25 38 25 12 0 29 8 38 19 15 18 14 19
-21 25 -41 7 -61 7 -78 -1z"/>
<path d="M2701 1389 c-5 -13 -7 -27 -4 -31 2 -5 -1 -8 -8 -8 -8 0 -8 -4 2 -16
12 -14 14 -14 20 5 8 21 39 22 65 1 17 -15 55 -3 48 15 -3 8 -9 14 -12 13 -4
-1 -17 3 -29 10 -13 7 -23 10 -23 7 0 -3 -11 2 -25 11 -24 16 -25 15 -34 -7z"/>
<path d="M2594 1356 c-4 -10 -2 -22 4 -28 8 -8 13 -7 18 6 4 10 2 22 -4 28 -8
8 -13 7 -18 -6z"/>
<path d="M2712 1243 c-6 -2 -10 -9 -7 -13 6 -10 -29 -50 -44 -50 -4 0 -6 12
-3 27 5 25 4 26 -10 12 -9 -9 -18 -27 -20 -40 -2 -20 -8 -23 -30 -21 -33 3
-38 -15 -5 -20 26 -4 93 17 90 29 -1 4 10 9 24 10 14 0 35 11 47 23 21 21 21
21 2 36 -21 15 -24 15 -44 7z"/>
<path d="M3331 1155 c-20 -27 -22 -65 -4 -87 11 -12 13 -19 13 -35 0 -3 9 2
19 11 11 10 17 25 14 34 -5 11 -3 13 8 7 12 -8 12 -6 0 8 -7 9 -10 17 -7 17 4
0 0 10 -8 22 -9 12 -16 27 -16 33 1 5 8 -1 16 -15 8 -14 13 -17 10 -7 -3 10
-6 23 -6 28 0 17 -18 9 -39 -16z"/>
<path d="M3100 1136 c0 -2 8 -10 18 -17 15 -13 16 -12 3 4 -13 16 -21 21 -21
13z"/>
<path d="M2050 1120 c0 -5 7 -10 15 -10 8 0 15 5 15 10 0 6 -7 10 -15 10 -8 0
-15 -4 -15 -10z"/>
<path d="M2345 1091 c-6 -11 9 -23 19 -14 9 9 7 23 -3 23 -6 0 -12 -4 -16 -9z"/>
<path d="M2597 959 c-15 -11 -27 -27 -27 -36 0 -10 11 -4 30 17 36 39 34 49
-3 19z"/>
</g>
</svg>
