<?xml version="1.0" standalone="no"?>
<!DOCTYPE svg PUBLIC "-//W3C//DTD SVG 20010904//EN"
 "http://www.w3.org/TR/2001/REC-SVG-20010904/DTD/svg10.dtd">
<svg version="1.0" xmlns="http://www.w3.org/2000/svg"
 width="450.000000pt" height="253.000000pt" viewBox="0 0 450.000000 253.000000"
 preserveAspectRatio="xMidYMid meet">
<metadata>
Created by potrace 1.16, written by Peter Selinger 2001-2019
</metadata>
<g transform="translate(0.000000,253.000000) scale(0.100000,-0.100000)"
fill="#000000" stroke="none">
<path d="M0 1265 l0 -1265 2250 0 2250 0 0 1265 0 1265 -2250 0 -2250 0 0
-1265z m2600 611 c0 8 13 9 40 4 22 -4 40 -5 40 -2 0 2 7 -1 15 -8 8 -7 24
-10 35 -7 11 3 18 2 15 -3 -2 -4 13 -10 35 -14 22 -3 40 -11 40 -16 0 -6 11
-10 24 -10 13 0 40 -11 60 -25 20 -13 36 -21 36 -17 0 4 4 2 8 -3 14 -20 63
-46 74 -39 6 4 8 3 5 -3 -4 -6 4 -18 18 -27 37 -25 80 -69 83 -88 4 -24 -14
-31 -32 -12 -9 8 -16 11 -16 7 0 -5 -12 -8 -27 -7 -78 8 -101 12 -113 19 -7 4
-22 9 -34 9 -11 1 -20 7 -19 14 2 6 -4 9 -13 5 -10 -4 -26 7 -45 31 -28 33
-60 52 -43 25 5 -8 -14 -10 -67 -5 l-74 6 55 -18 c30 -10 74 -28 97 -40 23
-12 50 -22 60 -22 10 0 27 -8 38 -17 15 -12 16 -14 3 -10 -9 3 -19 3 -21 -1
-2 -4 -3 -2 -2 3 2 6 -19 9 -52 7 -44 -3 -54 -1 -48 10 5 7 5 10 0 6 -4 -4
-16 -3 -26 3 -14 7 -19 6 -19 -3 0 -8 -3 -9 -8 -3 -8 12 -65 39 -59 28 6 -10
-85 -9 -101 1 -7 4 -12 2 -12 -4 0 -6 -4 -9 -8 -6 -5 3 -21 7 -37 10 -16 3
-35 12 -43 20 -13 13 -12 19 7 50 l23 36 -24 9 c-13 5 -30 17 -38 27 -9 10
-10 15 -3 11 7 -5 21 2 34 17 12 14 26 23 31 20 4 -3 8 -1 8 5 0 6 6 8 13 6
28 -10 127 -13 127 -5 0 6 -15 11 -32 12 -18 0 -49 2 -68 3 -19 1 -47 -4 -62
-12 -15 -7 -33 -13 -40 -12 -7 0 -1 5 15 11 15 5 27 13 27 17 0 4 21 8 47 10
26 1 50 4 52 7 3 2 8 -1 13 -8 5 -8 8 -9 8 -2z m-562 -8 c26 -2 30 -18 5 -18
-14 0 -15 -2 -5 -9 16 -10 64 -2 57 9 -3 5 10 7 29 4 19 -2 45 0 58 4 25 9 61
5 54 -7 -3 -4 10 -7 27 -8 30 -1 30 -1 7 7 l-25 8 26 1 c14 1 29 -2 33 -6 4
-4 25 -6 46 -4 25 1 40 -2 40 -9 0 -6 5 -8 13 -4 8 5 7 2 -2 -9 -16 -20 -95
-57 -121 -57 -10 0 -21 -7 -24 -16 -3 -8 -10 -12 -16 -9 -5 3 -10 1 -10 -4 0
-6 4 -11 9 -11 4 0 6 -11 3 -25 -4 -26 -6 -26 -79 -27 -21 0 -44 -5 -50 -11
-9 -6 -13 -6 -13 2 0 6 5 11 10 11 6 0 10 4 10 9 0 17 -45 20 -74 6 -29 -15
-29 -15 -11 5 10 11 22 17 26 14 5 -3 9 -3 9 0 0 10 -61 37 -70 31 -5 -3 -7 1
-4 9 4 10 -2 17 -20 22 -21 5 -25 11 -20 26 4 14 2 18 -5 14 -7 -4 -11 1 -11
13 0 14 -11 25 -32 34 -31 13 -30 14 37 11 39 -2 80 -4 93 -6z m-232 -20 c-8
13 -2 15 32 6 14 -4 21 -12 18 -20 -3 -8 -1 -14 5 -14 6 0 6 -7 -1 -20 -12
-22 -56 -28 -62 -8 -5 14 -43 -26 -62 -64 -7 -13 -21 -23 -34 -23 -12 0 -27
-6 -34 -13 -9 -9 -7 -12 11 -12 12 0 19 -4 16 -10 -8 -13 3 -13 60 5 27 8 53
11 58 8 17 -11 -27 -28 -97 -38 -46 -7 -71 -15 -74 -25 -4 -12 -3 -13 10 -3
18 16 32 5 17 -14 -6 -7 -9 -13 -6 -13 3 0 -5 -11 -19 -25 -14 -14 -29 -25
-34 -25 -4 0 -6 -9 -3 -20 5 -19 9 -17 44 20 46 49 68 52 67 10 -1 -24 -5 -30
-23 -30 -13 0 -28 -7 -35 -15 -11 -13 -6 -14 34 -9 l47 5 -7 -43 c-4 -24 -7
-50 -8 -58 -3 -26 -16 -39 -31 -33 -8 3 -15 0 -15 -7 0 -10 -3 -10 -15 0 -8 6
-18 9 -24 6 -5 -3 -11 0 -14 6 -3 10 -7 10 -19 0 -20 -16 -30 5 -21 48 4 20 2
30 -7 30 -28 0 25 206 59 230 4 3 18 23 31 45 37 64 69 93 92 87 15 -4 19 -2
14 7 -4 7 -5 19 -2 28 5 13 9 13 23 2 12 -10 14 -10 9 -1z m41 -132 c0 -8 -6
-12 -14 -9 -7 3 -10 9 -7 14 8 14 21 11 21 -5z m-7 -66 c-20 -13 -30 -12 -30
1 0 5 4 8 9 4 5 -3 13 0 16 6 4 5 10 8 13 4 4 -3 0 -10 -8 -15z m-90 -60 c0
-5 -6 -10 -14 -10 -8 0 -18 5 -21 10 -3 6 3 10 14 10 12 0 21 -4 21 -10z
m1350 -35 c-7 -8 -17 -15 -23 -15 -5 0 -2 9 8 20 21 23 35 19 15 -5z m-1320
-40 c11 -13 10 -14 -4 -9 -9 3 -16 10 -16 15 0 13 6 11 20 -6z"/>
<path d="M2154 1813 c4 -5 21 -8 37 -8 16 0 29 3 29 8 0 4 -16 7 -37 7 -20 0
-33 -3 -29 -7z"/>
<path d="M1587 1513 c-4 -3 -7 -11 -7 -17 0 -6 5 -5 12 2 6 6 9 14 7 17 -3 3
-9 2 -12 -2z"/>
<path d="M1686 1440 c-14 -22 -22 -40 -17 -40 5 0 13 9 16 20 4 11 10 18 15
15 4 -3 10 6 12 20 3 14 4 25 3 25 -1 0 -14 -18 -29 -40z"/>
</g>
</svg>
