<?xml version="1.0" standalone="no"?>
<!DOCTYPE svg PUBLIC "-//W3C//DTD SVG 20010904//EN"
 "http://www.w3.org/TR/2001/REC-SVG-20010904/DTD/svg10.dtd">
<svg version="1.0" xmlns="http://www.w3.org/2000/svg"
 width="450.000000pt" height="253.000000pt" viewBox="0 0 450.000000 253.000000"
 preserveAspectRatio="xMidYMid meet">
<metadata>
Created by potrace 1.16, written by Peter Selinger 2001-2019
</metadata>
<g transform="translate(0.000000,253.000000) scale(0.100000,-0.100000)"
fill="#000000" stroke="none">
<path d="M0 1265 l0 -1265 2250 0 2250 0 0 1265 0 1265 -912 0 c-501 0 -909
-2 -906 -5 3 -3 41 -8 84 -11 109 -6 156 -13 171 -26 7 -6 13 -8 13 -5 0 20
91 -88 109 -128 5 -11 17 -38 26 -60 10 -22 19 -67 21 -100 7 -140 5 -137 77
-154 45 -11 50 -10 81 14 19 14 50 27 71 28 55 5 139 -10 182 -32 21 -11 64
-31 95 -45 32 -13 63 -30 70 -35 7 -6 23 -19 34 -29 29 -23 65 -88 58 -105 -2
-8 -1 -25 5 -39 14 -38 -24 -95 -134 -205 -101 -99 -157 -134 -252 -154 -60
-12 -65 -24 -27 -60 60 -56 107 -203 107 -335 0 -57 -14 -90 -43 -99 -11 -3
-20 -13 -20 -21 0 -8 -8 -14 -18 -14 -10 0 -23 -5 -29 -11 -19 -19 -185 -47
-258 -44 -96 4 -276 32 -288 44 -6 6 -18 11 -27 11 -9 0 -40 12 -69 26 -31 16
-56 23 -61 18 -5 -5 -12 -50 -16 -99 -3 -50 -8 -92 -11 -95 -3 -3 -3 32 -1 78
4 71 2 82 -12 82 -30 0 -53 -26 -52 -58 0 -24 -11 -43 -49 -85 -42 -46 -60
-57 -111 -72 -81 -23 -134 -22 -188 4 -25 11 -52 21 -60 21 -35 0 -91 63 -135
151 -49 98 -68 156 -66 206 l1 32 -39 -14 c-32 -11 -40 -11 -44 0 -3 7 -1 17
5 23 14 14 -3 22 -64 29 -109 11 -231 66 -300 135 -31 31 -48 56 -48 71 0 14
-6 27 -14 30 -8 3 -15 14 -15 24 0 10 -5 37 -12 59 -11 36 -10 48 6 90 21 55
128 168 181 190 55 23 60 39 19 71 -38 30 -113 122 -132 163 -42 87 -67 223
-45 244 7 7 8 11 11 39 1 14 57 41 116 57 22 5 92 10 155 10 94 0 129 -4 195
-25 62 -19 102 -25 176 -25 97 0 97 0 126 33 43 48 152 130 206 156 27 12 74
28 105 36 49 11 -118 13 -1245 14 l-1303 1 0 -1265z m2607 -907 c-2 -13 -4 -5
-4 17 -1 22 1 32 4 23 2 -10 2 -28 0 -40z"/>
<path d="M2270 2045 c0 -5 5 -17 10 -25 5 -8 10 -10 10 -5 0 6 -5 17 -10 25
-5 8 -10 11 -10 5z"/>
<path d="M2230 2021 c0 -6 4 -13 10 -16 6 -3 7 1 4 9 -7 18 -14 21 -14 7z"/>
<path d="M2450 1846 c0 -8 4 -17 9 -20 5 -4 7 3 4 14 -6 23 -13 26 -13 6z"/>
<path d="M2405 1799 c2 -12 0 -30 -6 -40 -7 -14 -6 -19 3 -19 10 0 10 -2 -1
-9 -19 -12 -23 -67 -6 -81 8 -7 15 -19 15 -26 0 -19 46 -48 65 -40 8 3 15 1
15 -3 0 -5 3 -17 6 -25 5 -12 2 -15 -9 -10 -12 4 -15 -1 -14 -28 0 -18 -2 -40
-6 -48 -6 -13 1 -14 45 -10 73 7 94 20 78 49 -9 19 -9 26 5 42 17 18 16 19
-23 25 -42 6 -62 18 -112 65 -40 38 -56 69 -39 80 19 12 21 56 3 63 -9 3 -13
10 -9 15 3 5 1 12 -4 16 -6 3 -8 -4 -6 -16z"/>
<path d="M2341 1703 c6 -7 15 -13 20 -13 5 0 6 6 3 13 -3 8 -11 14 -19 14 -11
0 -12 -4 -4 -14z"/>
<path d="M2182 1668 c16 -24 39 -30 59 -16 11 8 11 9 -2 5 -8 -3 -21 3 -27 14
-7 10 -19 19 -28 19 -15 0 -15 -2 -2 -22z"/>
<path d="M2675 1648 c-40 -30 -45 -39 -34 -60 9 -17 11 -17 28 -1 14 14 46 84
38 83 -1 0 -15 -10 -32 -22z"/>
<path d="M1763 1638 c-41 -20 -23 -67 25 -63 20 2 21 0 6 -16 -9 -11 -13 -23
-8 -31 6 -10 4 -10 -9 1 -9 7 -17 9 -17 3 0 -20 30 -21 52 -1 13 11 16 17 8
13 -8 -4 -4 5 9 19 14 15 19 27 13 27 -7 0 -12 -5 -12 -12 0 -6 -2 -9 -5 -6
-10 10 7 38 19 31 6 -4 5 1 -2 10 -8 9 -17 16 -20 15 -20 -2 -25 3 -12 12 12
8 12 10 -5 9 -11 0 -30 -5 -42 -11z"/>
<path d="M1501 1601 c-10 -7 -11 -13 -1 -31 8 -14 8 -20 1 -16 -14 9 -51 -11
-51 -27 0 -8 4 -7 9 2 8 12 11 9 16 -11 4 -15 4 -32 0 -37 -3 -7 0 -8 9 -5 9
3 14 10 11 14 -3 4 2 13 9 19 8 7 13 24 11 39 -2 15 4 35 13 45 12 14 13 17 1
17 -8 0 -20 -4 -28 -9z"/>
<path d="M1690 1579 c0 -5 14 -9 31 -9 16 0 28 4 25 9 -3 5 -17 9 -31 9 -14 0
-25 -4 -25 -9z"/>
<path d="M2377 1578 c13 -21 12 -38 -2 -38 -7 0 -16 -6 -19 -12 -4 -7 -4 -3
-2 9 3 16 -2 22 -20 26 -30 5 -42 -9 -14 -18 11 -3 20 -11 20 -16 0 -6 -4 -8
-9 -4 -5 3 -12 1 -16 -5 -10 -17 101 -12 115 5 10 12 7 19 -17 39 -30 27 -49
34 -36 14z"/>
<path d="M2150 1461 c0 -22 -19 -31 -62 -31 -23 0 -29 -4 -26 -17 3 -18 48
-28 48 -11 0 5 9 4 20 -2 14 -8 20 -8 20 0 0 6 11 22 25 35 16 17 20 25 10 25
-8 0 -15 5 -15 10 0 6 -4 10 -10 10 -5 0 -10 -9 -10 -19z"/>
<path d="M2342 1444 c-12 -8 -22 -19 -22 -24 0 -17 36 -15 57 4 38 32 8 50
-35 20z"/>
<path d="M1910 1414 c0 -12 -7 -27 -15 -31 -9 -6 -11 -13 -5 -23 7 -12 12 -10
29 12 11 14 35 28 53 32 39 8 27 22 -24 29 -35 4 -38 3 -38 -19z"/>
<path d="M2300 1344 c5 -12 6 -25 3 -28 -14 -13 22 -36 53 -34 37 2 42 16 21
58 -10 19 -20 25 -49 25 -33 1 -35 -1 -28 -21z"/>
<path d="M2600 1350 c36 -25 50 -31 50 -20 0 5 -7 10 -15 10 -8 0 -15 5 -15
10 0 6 -8 10 -17 10 -16 0 -16 -2 -3 -10z"/>
<path d="M2150 1337 c-41 -8 -43 -10 -25 -23 10 -8 30 -14 44 -14 14 0 34 -7
44 -14 20 -15 23 -30 5 -21 -7 4 -3 -2 9 -13 l23 -20 -36 -29 c-24 -19 -33
-33 -29 -44 5 -14 11 -11 36 13 41 42 73 109 57 120 -17 10 -28 10 -28 -1 0
-5 -9 -7 -21 -4 -11 3 -18 11 -15 18 11 29 -17 42 -64 32z"/>
<path d="M2442 1320 c-6 -17 -6 -29 1 -38 16 -20 27 0 18 33 l-9 30 -10 -25z"/>
<path d="M2875 1220 c3 -5 8 -10 11 -10 2 0 4 5 4 10 0 6 -5 10 -11 10 -5 0
-7 -4 -4 -10z"/>
<path d="M2580 1200 c0 -17 -39 -50 -59 -50 -14 0 -17 6 -13 25 2 14 1 25 -3
25 -18 0 -65 -44 -65 -61 0 -13 -7 -19 -21 -19 -11 0 -18 -4 -15 -8 9 -16 108
-2 138 19 16 12 35 22 42 23 8 1 21 8 30 15 12 10 14 17 5 27 -13 16 -39 19
-39 4z"/>
<path d="M3286 1188 c-8 -12 -13 -25 -10 -30 3 -4 -2 -8 -10 -8 -33 0 -13 -56
37 -104 23 -22 31 -26 38 -15 7 12 9 11 9 -1 0 -13 2 -13 9 -1 11 17 5 82 -8
91 -4 3 -7 13 -5 23 2 13 -2 17 -13 13 -13 -5 -14 -4 -3 9 15 18 6 45 -14 45
-8 0 -22 -10 -30 -22z"/>
<path d="M2680 1181 c0 -5 7 -12 16 -15 14 -5 15 -4 4 9 -14 17 -20 19 -20 6z"/>
<path d="M3089 1099 c18 -11 35 -18 38 -15 5 5 -50 36 -64 36 -4 0 7 -9 26
-21z"/>
<path d="M2040 1080 c-9 -6 -10 -10 -3 -10 6 0 15 5 18 10 8 12 4 12 -15 0z"/>
<path d="M2195 1060 l-30 -20 38 0 c30 0 37 4 37 20 0 25 -7 25 -45 0z"/>
<path d="M2010 1034 c0 -8 5 -12 10 -9 6 3 10 10 10 16 0 5 -4 9 -10 9 -5 0
-10 -7 -10 -16z"/>
<path d="M2254 1041 c4 -6 2 -18 -4 -26 -8 -10 -9 -15 -2 -15 6 0 9 -7 6 -15
-4 -9 0 -15 10 -15 9 0 16 -7 16 -16 0 -8 5 -12 10 -9 8 5 8 11 0 20 -6 7 -7
15 -3 17 4 3 3 3 -4 2 -7 -2 -10 3 -6 12 3 7 0 14 -6 14 -6 0 -8 6 -5 14 3 8
0 17 -7 22 -8 4 -10 3 -5 -5z"/>
<path d="M2543 915 c-36 -32 -26 -32 17 0 19 14 29 25 23 25 -7 0 -25 -11 -40
-25z"/>
<path d="M2426 914 c-9 -24 -2 -26 12 -4 7 11 8 20 3 20 -5 0 -12 -7 -15 -16z"/>
<path d="M2268 833 c-8 -10 -15 -26 -15 -36 0 -15 2 -16 14 -4 12 11 27 57 19
57 -2 0 -10 -8 -18 -17z"/>
</g>
</svg>
