<?xml version="1.0" standalone="no"?>
<!DOCTYPE svg PUBLIC "-//W3C//DTD SVG 20010904//EN"
 "http://www.w3.org/TR/2001/REC-SVG-20010904/DTD/svg10.dtd">
<svg version="1.0" xmlns="http://www.w3.org/2000/svg"
 width="450.000000pt" height="253.000000pt" viewBox="0 0 450.000000 253.000000"
 preserveAspectRatio="xMidYMid meet">
<metadata>
Created by potrace 1.16, written by Peter Selinger 2001-2019
</metadata>
<g transform="translate(0.000000,253.000000) scale(0.100000,-0.100000)"
fill="#000000" stroke="none">
<path d="M0 1265 l0 -1265 2250 0 2250 0 0 1265 0 1265 -2250 0 -2250 0 0
-1265z m2805 1197 c61 -5 121 -14 135 -20 67 -28 148 -140 165 -227 5 -22 10
-47 12 -55 2 -8 7 -34 10 -57 5 -41 6 -42 68 -58 l62 -17 27 25 c52 49 160 39
306 -27 56 -25 116 -56 132 -67 66 -47 94 -141 64 -214 -16 -37 -190 -215
-246 -250 -21 -13 -60 -30 -87 -36 -26 -7 -60 -17 -75 -24 l-28 -11 28 -35
c70 -86 103 -195 99 -322 -2 -65 -3 -68 -46 -107 -24 -22 -49 -40 -55 -40 -7
0 -17 -5 -23 -11 -17 -17 -149 -39 -233 -39 -132 0 -297 35 -404 86 -34 17
-35 17 -83 -18 -37 -27 -48 -41 -49 -63 -1 -21 -15 -41 -55 -77 -63 -55 -140
-88 -208 -88 -59 0 -176 42 -212 76 -14 14 -47 69 -73 123 -40 83 -47 108 -48
160 -1 53 -3 61 -17 55 -9 -4 -27 -9 -40 -12 -20 -4 -22 -2 -17 16 8 24 0 27
-101 36 -112 10 -275 89 -320 155 -22 33 -47 84 -45 93 1 4 -5 26 -14 48 -19
48 -14 78 27 142 26 41 107 118 123 118 10 0 106 71 106 79 0 4 -20 24 -46 45
-77 65 -158 210 -167 302 -5 45 21 124 40 124 7 0 13 4 13 9 0 22 99 44 216
48 104 5 132 2 205 -18 57 -15 117 -23 186 -25 97 -2 103 -1 118 22 8 13 40
42 70 64 151 112 173 116 480 92z m-178 -1629 c-2 -16 -4 -5 -4 22 0 28 2 40
4 28 2 -13 2 -35 0 -50z m-10 -65 c-3 -7 -5 -2 -5 12 0 14 2 19 5 13 2 -7 2
-19 0 -25z m0 -55 c-3 -10 -5 -4 -5 12 0 17 2 24 5 18 2 -7 2 -21 0 -30z m-10
-115 c-3 -8 -6 -5 -6 6 -1 11 2 17 5 13 3 -3 4 -12 1 -19z"/>
<path d="M2328 2029 c7 -8 17 -15 23 -15 5 -1 10 -2 12 -4 9 -7 36 -6 31 1 -3
5 -9 7 -14 4 -4 -3 -10 -1 -12 4 -1 4 -14 12 -28 16 -21 6 -23 5 -12 -6z"/>
<path d="M2280 2021 c0 -11 26 -22 34 -14 3 3 3 10 0 14 -7 12 -34 11 -34 0z"/>
<path d="M2488 1875 c-9 -19 -8 -29 6 -50 9 -14 12 -25 7 -25 -6 0 -15 8 -21
18 -10 15 -10 14 -5 -5 3 -12 1 -25 -6 -29 -8 -4 -9 -3 -5 4 4 7 2 12 -3 12
-11 0 -13 -5 -16 -51 -3 -35 -14 -51 -28 -42 -19 12 -47 14 -47 3 0 -6 3 -9 8
-9 24 4 44 -3 50 -18 20 -46 49 -82 79 -99 28 -15 31 -19 18 -27 -13 -7 -14
-12 -4 -23 6 -7 8 -25 5 -39 -6 -24 -4 -25 38 -25 25 0 48 5 51 10 4 6 10 8
15 5 5 -3 8 10 7 30 -2 35 0 38 42 53 34 13 46 24 52 45 4 16 13 35 20 43 18
22 -6 35 -37 20 -23 -10 -41 -47 -36 -73 4 -18 -33 -25 -77 -13 -40 11 -131
91 -131 116 0 7 9 16 20 19 12 4 20 14 18 23 -1 9 3 27 10 38 6 12 9 24 6 26
-5 6 -16 54 -17 76 -1 18 -6 15 -19 -13z"/>
<path d="M2220 1732 c0 -7 -4 -11 -9 -8 -14 9 0 -36 21 -66 19 -28 19 -28 51
-11 30 16 30 18 9 21 -12 2 -27 12 -33 23 -5 11 -15 16 -21 13 -6 -4 -8 -3 -5
2 3 6 2 16 -4 24 -6 11 -9 12 -9 2z"/>
<path d="M1883 1695 c-10 -10 -9 -16 2 -25 13 -10 15 -8 15 14 0 30 -1 30 -17
11z"/>
<path d="M1910 1682 c0 -26 -11 -34 -26 -21 -10 9 -15 7 -20 -5 -3 -9 -9 -14
-13 -12 -12 8 -37 -19 -36 -39 0 -16 -7 -20 -32 -21 -58 -2 -59 -6 -8 -18 43
-10 50 -14 47 -34 -3 -18 1 -22 23 -20 20 2 25 7 22 20 -3 10 0 21 5 25 7 4 8
1 3 -7 -5 -9 -4 -11 4 -6 9 6 9 11 -1 24 -10 12 -10 14 0 8 12 -7 16 4 13 33
-2 8 2 10 10 5 8 -4 10 -3 5 4 -4 7 -14 12 -22 12 -8 0 -13 4 -9 9 3 6 14 8
25 6 16 -3 20 2 20 26 0 16 -2 29 -5 29 -3 0 -5 -8 -5 -18z"/>
<path d="M1498 1602 c0 -10 -2 -23 -2 -31 -1 -8 -11 -17 -24 -22 -23 -9 -31
-31 -9 -26 7 1 13 -10 15 -25 6 -51 39 -21 45 41 2 17 7 34 10 38 13 13 7 31
-13 36 -14 3 -20 0 -22 -11z"/>
<path d="M2365 1582 c-16 -2 -34 -8 -40 -14 -7 -7 -7 -9 0 -6 6 3 19 -3 29
-13 14 -13 15 -19 6 -19 -9 0 -10 -3 -4 -9 17 -18 88 -16 116 3 28 18 29 36 2
36 -8 0 -17 7 -20 15 -4 8 -13 15 -21 15 -8 0 -11 -4 -8 -10 7 -12 -7 -13 -20
-2 -6 4 -23 6 -40 4z"/>
<path d="M2460 1490 c0 -5 4 -10 9 -10 6 0 13 5 16 10 3 6 -1 10 -9 10 -9 0
-16 -4 -16 -10z"/>
<path d="M2212 1472 c3 -16 -16 -25 -72 -36 -17 -4 -26 -12 -27 -27 -1 -15 1
-19 8 -12 6 6 24 7 45 3 31 -7 35 -6 40 16 4 14 16 27 30 30 31 8 30 16 -1 31
-22 10 -25 9 -23 -5z"/>
<path d="M2275 1479 c-4 -6 -5 -12 -2 -15 2 -3 7 2 10 11 7 17 1 20 -8 4z"/>
<path d="M2388 1459 c-26 -15 -22 -26 12 -31 31 -5 50 7 50 29 0 15 -38 17
-62 2z"/>
<path d="M1940 1431 c0 -6 5 -11 11 -11 8 0 9 -4 0 -13 -6 -8 -7 -18 -3 -22 4
-5 2 -5 -5 -1 -6 3 -14 2 -18 -4 -4 -6 -11 -8 -16 -5 -5 3 -6 -1 -3 -9 4 -11
12 -12 35 -4 16 5 29 14 29 19 0 4 15 12 33 17 50 13 41 36 -15 40 -29 2 -48
-1 -48 -7z"/>
<path d="M2326 1392 c-3 -5 4 -16 15 -26 16 -13 18 -20 9 -30 -16 -21 15 -48
48 -42 15 2 30 5 34 5 4 1 2 15 -4 32 -8 25 -8 33 3 40 10 6 7 9 -11 10 -47 3
-67 6 -78 13 -6 3 -13 3 -16 -2z"/>
<path d="M2596 1365 c-4 -11 2 -15 25 -15 16 0 40 -7 53 -16 15 -9 26 -11 30
-5 4 5 -8 16 -26 25 -57 25 -75 28 -82 11z"/>
<path d="M2190 1348 c-36 -17 -41 -22 -27 -30 10 -5 22 -6 28 -3 5 4 17 1 26
-7 14 -11 16 -11 8 1 -6 10 -4 12 4 7 7 -5 10 -15 6 -23 -4 -13 -3 -14 10 -3
13 11 14 10 9 -4 -4 -10 0 -18 10 -22 9 -3 16 -13 16 -22 0 -8 -3 -13 -6 -10
-8 9 -52 -35 -56 -57 -2 -12 3 -21 15 -23 10 -2 17 3 17 12 0 8 9 17 20 21 14
5 70 100 70 120 0 2 -13 6 -30 10 -16 4 -30 10 -30 13 0 4 -11 14 -23 23 -22
16 -26 16 -67 -3z"/>
<path d="M2487 1328 c-7 -23 -1 -38 14 -38 5 0 9 14 9 30 0 35 -15 40 -23 8z"/>
<path d="M2586 1325 c-9 -26 -7 -32 5 -12 6 10 9 21 6 23 -2 3 -7 -2 -11 -11z"/>
<path d="M2601 1197 c-24 -39 -50 -45 -43 -10 3 16 0 23 -10 23 -19 0 -45 -29
-50 -55 -3 -14 -11 -19 -26 -18 -13 2 -22 -3 -22 -11 0 -10 10 -13 33 -11 48
4 115 24 122 35 3 6 16 10 29 10 38 0 49 21 24 47 -28 30 -33 29 -57 -10z"/>
<path d="M3311 1189 c-13 -11 -19 -19 -15 -19 5 0 1 -5 -8 -11 -35 -20 -16
-87 37 -131 30 -24 45 -5 43 53 -2 27 -6 49 -9 49 -10 0 -5 34 6 42 6 5 5 8
-3 8 -7 0 -11 4 -8 9 12 18 -20 18 -43 0z"/>
<path d="M3060 1135 c0 -2 18 -18 40 -34 21 -15 36 -32 32 -36 -4 -5 -1 -5 6
-1 7 5 21 2 31 -6 21 -16 -19 21 -47 44 -26 21 -62 40 -62 33z"/>
<path d="M2080 1100 c-9 -6 -10 -10 -3 -10 6 0 15 5 18 10 8 12 4 12 -15 0z"/>
<path d="M2245 1081 c-3 -6 -3 -11 1 -11 4 0 0 -6 -9 -12 -16 -12 -15 -13 8
-13 20 0 24 4 19 20 -4 17 -3 18 6 5 9 -12 11 -12 8 -1 -5 19 -24 25 -33 12z"/>
<path d="M2030 1065 c-7 -9 -8 -15 -2 -15 5 0 12 7 16 15 3 8 4 15 2 15 -2 0
-9 -7 -16 -15z"/>
<path d="M2273 1040 c-13 -20 -2 -37 17 -25 6 3 10 2 10 -4 0 -6 7 -8 15 -5 8
4 15 10 15 16 0 5 -4 6 -10 3 -5 -3 -10 3 -10 14 0 26 -21 27 -37 1z"/>
<path d="M2465 990 c3 -5 8 -10 11 -10 2 0 4 5 4 10 0 6 -5 10 -11 10 -5 0 -7
-4 -4 -10z"/>
<path d="M3277 979 c7 -7 15 -10 18 -7 3 3 -2 9 -12 12 -14 6 -15 5 -6 -5z"/>
<path d="M2580 961 c0 -6 -7 -8 -15 -5 -9 4 -15 0 -16 -7 0 -8 -2 -22 -4 -31
-5 -25 12 -23 20 2 4 11 10 18 15 15 4 -3 10 2 14 10 3 8 1 17 -4 20 -6 4 -10
2 -10 -4z"/>
</g>
</svg>
