<svg id="frame3" xmlns="http://www.w3.org/2000/svg" viewBox="0 0 720 720"><defs><style>.cls-1{fill:#795520;}.cls-2{fill:#4a151a;}.cls-3{fill:#9d912a;}.cls-4{fill:#202328;}</style></defs><title>Frame 3</title><rect width="720" height="720"/><path class="cls-1" d="M385.15,555.47c.44,6,1.09,11.95,1.27,17.93.79,26.85-.67,53.62-2.49,80.39-1.05,15.45-1.89,30.92-3,46.37-.36,5-1.33,10-1.75,15-.13,1.56.63,3.2,1,4.8H352.4c1.15-13.81,2.47-27.61,3.41-41.44,1.73-25.36,3.43-50.72,4.77-76.1,1.32-25.09-.88-50.11-2.3-75.14-.42-7.34-1-14.66-1.59-22,.61,1.18,1.66,2.32,1.74,3.53.59,7.95,1,15.92,1.4,23.88.33,6.54.59,13.09.88,19.64l1.14,0V538.17h1c.15,1.55.29,3.1.44,4.65.34,3.68.06,7.55,1.15,11a94.33,94.33,0,0,1,4,32.15c-.19,5.62,1.87,11,2.52,16.66,1,8.9,3.91,17.57,5.25,26.45.92,6.07.6,12.33.78,18.51.25,8.17.43,16.34.68,24.51a34.2,34.2,0,0,0,.49,3.62h1.37c.49-3.23,1.24-6.45,1.44-9.7.64-10.11.93-20.25,1.63-30.35.74-10.68,2-21.32,2.66-32,.42-7.14.2-14.33.16-21.5C385.4,573.25,385.25,564.36,385.15,555.47Z"/><path class="cls-2" d="M454.3,397.84l-8.93.43c-.1-1.17-.21-1.46-.12-1.61,3.36-5.48,3.07-5.22-1.15-10.12a30.14,30.14,0,0,1-5.34-10c-2.71-8.1-4.91-16.37-7.29-24.57-.67-2.31-1.27-4.63-1.9-6.94l-.81-2.68a31.74,31.74,0,0,0-.18,5.75c.72,5-.12,9.2-4.19,12.69-1.22,1.05-1.66,3.28-1.95,5.05-.53,3.19-.67,6.45-1,9.67l-4.6,2.89c-3.38,1.37-4.95,4.15-6.26,7.37-1.72,4.24-2.82,9.6-6,12.12s-3.55,5.23-4.59,8.34c-.93,2.79-3.57,3.17-6.09,2.18a3.06,3.06,0,0,1-1.53-2.53c1.17-5,3.84-9,8.86-10.68,2-.69,2.31-1.51,2.13-3.5a40.1,40.1,0,0,1,.33-8.26c.35-3,1.2-5.7,5.23-5.6.82,0,1.67-1.56,2.5-2.4-.13-.67-.25-1.33-.39-2-1-4.87-.71-5.48,3.92-7.85-8.72-5-11.35-14.21-15.15-22.54-.78-1.7-.61-3.85-.87-5.79l1.08-.35,5.22,7.47A27.07,27.07,0,0,0,407,347c3,3.34,4.06,3.18,6.13-.78l-3-2.61c-3.64.35-4.66-2.33-5.75-4.93-3-7.21-2.13-9.46,5-12.56l3.15-1.39,8.84-10.38.91-1.36.36-.62c1.41-6.39,2.81-12.79,4.26-19.18.3-1.33.8-2.62,1.21-3.93-.1-.54-.19-1.08-.28-1.62,0-.2-.07-.4-.1-.6s-.07-.4-.1-.6c-.58-4.94-2.35-6.37-6.74-5.41.6,1.85.39,1.7-1.9,3-6,3.48-11.91,7-17.64,10.86-5.07,3.39-6.55,9.36-9.35,14.35-.55,1-1,2-1.85,3.64-.93-1.34-1.79-2.06-2-2.91-.87-4.58-1.69-9.17-2.26-13.79-.27-2.19-2-3.49-4.56-2.31a5.92,5.92,0,0,1-6.15-.28c-.62-.37-2.69.4-3.09,1.17a67.88,67.88,0,0,0-4.5,10.36,5.41,5.41,0,0,0,1,4.39,13.15,13.15,0,0,1,3.07,11.35c-.61,3-3.33,5.48-5.11,8.2l-2.76,3.23c-.15.68-.31,1.35-.46,2l4.71,1.39c.29-1,.28-2.31.94-2.86a15.38,15.38,0,0,0,5.57-8.7c.14-.62,2.78-1.39,3.77-1,2.48,1.08,5.31,2.33,6.87,4.37,3.95,5.15,7.34,10.73,10.78,16.25.44.7-.19,2.07-.33,3.13l-4.43,6a7.43,7.43,0,0,1-.39,1.32c-2.78,5.69-1.11,9.3,4.91,11.32a4.56,4.56,0,0,1,2.42,3.11,78.15,78.15,0,0,1,.63,9.32,4.74,4.74,0,0,1-.46,2.68c-1.9,2.78-3.69,5.74-6.1,8a8.19,8.19,0,0,0-2.72,6.39,5.11,5.11,0,0,1-.44,2.69,3.13,3.13,0,0,1-2.37,1.35,2.6,2.6,0,0,1-1.41-2.16c.77-4.82,2.26-9.58,2.55-14.41a29.15,29.15,0,0,0-1.5-12.21c-2.3-5.76-5.43-11.17-6.19-17.47l-10.54-14c0,2.18.09,4.36-.08,6.53a10.3,10.3,0,0,1-1,2.74,15.84,15.84,0,0,1-2.61-1.29c-4.29-3.13-5.4-7.13-3-12-2.94,1.55-4.71,3.47-3.28,7.2.52,1.36.06,3.15-.13,4.72-.16,1.25-.86,2.48-.81,3.69a14.06,14.06,0,0,0,1.18,3.64,11.2,11.2,0,0,0,2.65-2.17c1.55-2.39,2.23-2.48,4,.14s2.68,5.17,1.7,7.37c2.34,1.89,4.49,3.24,6.14,5.05,2.69,3,2.43,3.78-1,6.16l-.88.85c.66,1.22,1,2.8,2,3.58,5.36,4.2,6,5.6,3.39,11.63a13.8,13.8,0,0,0-.38,10.3,63.18,63.18,0,0,1,2.58,12.39c.17,1.62-1.2,3.5-2.12,5.11a25.93,25.93,0,0,1-2.82,3.43h0c-.88,1.83-1.78,3.66-2.67,5.5-.8,3.4-5,7.52-7.66,7.8-.75-1.36-1.77-3.75-2.07-3.66a12.92,12.92,0,0,0-5.09,2.61c-1.69,1.57-.36,4.08,2.06,5a12.61,12.61,0,0,1,4.41,2.78c1.39,1.41,2.26,1.43,3.19-.23,1.84-3.31,3.19-7,7.5-8.09.54-.14.89-1.27,1.22-2,1.18-2.65,3.12-2.55,5.06-1.16a2.74,2.74,0,0,1,.18,2.68c-2.74,3-2.77,3.91.64,6.2a15.56,15.56,0,0,0,3.47,1.4c2.33.82,2.88,1.92,1.11,4.05s-2.85,4.43-4.48,6.5c-.73.93-2.16,2.12-3,1.94a4,4,0,0,1-2.39-2.8c-.29-2.38.21-4.85.07-7.26-.06-1-.94-1.94-1.45-2.9a14.45,14.45,0,0,0-2.8,1.58,22.79,22.79,0,0,0-1.85,2.5c-1.57,1.82-1.72,3.38.4,5a10.21,10.21,0,0,1,1.78,2.25l-12.53,5.49c-.27-.2-.54-.4-.8-.61a42.27,42.27,0,0,0,3.07-5.27,25.12,25.12,0,0,0,1-4.95,25.38,25.38,0,0,0-5.21-.19c-1.17.17-2.15,1.33-3.32,1.79a12.19,12.19,0,0,1-2.87.39,10.71,10.71,0,0,1,.52-2.76c.43-.92,1.35-1.6,1.85-2.49.35-.64.69-1.66.41-2.15a2.76,2.76,0,0,0-2.05-.91c-3.77-.18-5.56,2-4.94,5.88a6.85,6.85,0,0,1,0,1.36l-12.44,2.68-.59-1a42.68,42.68,0,0,0,4.95-3.49,24.18,24.18,0,0,0,2.9-4.08c-1.72-.9-3.34-2.29-5.16-2.6-2.81-.49-5.76-.1-8.63-.38-1.19-.11-2.31-1-3.46-1.48l.33-1.32c1.46.15,2.94.22,4.38.48,1,.17,2,1,2.92.82,1.12-.2,2.11-1.1,3.16-1.7-.89-.69-1.69-1.69-2.7-2a23.75,23.75,0,0,0-5.43-1c-2-.15-3.2-.81-3.53-3s-1.81-2.48-3.66-1.83l-4.66,1.66c-.43-2.46-.82-4.64-1.4-7.95a31.09,31.09,0,0,0,4,2.12c1.07.37,2.57.88,3.3.42a3.62,3.62,0,0,0,1.33-3.14c-1-3.08-1.08-6.78-4.77-8.39a2,2,0,0,1-1-1.29,73.65,73.65,0,0,1-.81-10.68,16.09,16.09,0,0,1,4.66,9.19c.24,1.68-.16,4.28,2.78,3.71,2.66-.51,3.27-2.44,2.65-5.07-.28-1.16-.13-3.33.52-3.65,4.42-2.19,3.49-5.76,2.83-9.32-.2-1.09-.53-2.15-.79-3.16a4,4,0,0,0-1.05.08c-1.6.75-3.18,1.53-4.77,2.3a36.93,36.93,0,0,1-.47-4.89c.08-2.7.41-5.4.68-8.59,1,.58,1.51.71,1.68,1,1.64,3.08,3.85,2.8,6.36,1.21s3.67-3.21,2-6.29c-2-3.76-.45-6.47,3.78-7.53a43.45,43.45,0,0,0,4.48-1.74,49.47,49.47,0,0,0,1,6.51c.37,1.26,1.25,2.84,2.32,3.29a4.67,4.67,0,0,0,4.16-.39c.73-.64.77-2.91.21-4-1.81-3.41-1-6.75-.35-10.13,1-5.07,2-10.12,3.08-15.42-4.68,1.14-10,3-12.44-4l-8.16-18h0l-.54-.38-.58-.41-.62-.43-.7-.49c-2.38,4.36,2.21,9.41-1.41,13l-8.7-9.44h0c0,.56,0,1.1,0,1.65s0,1.1,0,1.65l.53.71c2.58,2.25,3.34,6.3,1.45,10.05a32.24,32.24,0,0,1-4.24,5.83c-2.41,2.89-2.15,4.14,1.27,5.55.95.39,2.15.73,2.67,1.48a52.77,52.77,0,0,1,3,5.56c-1.81.65-3.66,2-5.41,1.82-6.62-.5-9.91,3.64-12.56,8.56-.48.89.32,3,1.2,4,1.41,1.46,3.48,2.25,5.07,3.58a5.16,5.16,0,0,1,1.94,3c.07,1-.95,2.13-1.49,3.2a15.82,15.82,0,0,1-2.74-1.53,11.73,11.73,0,0,1-1.73-2.36c-1.81,1.78-3.47,3.43-5.13,5.08-.09,2.65,0,5.33-.35,7.95-.13,1.06-1.14,2-1.75,3-.94-.82-2.26-1.47-2.76-2.5-1.44-3-2.43-6.2-3.85-9.21-1-2.2-1-3.69,1.06-5.4a7.6,7.6,0,0,0,2.44-4.66l.21-2.26c.1-1.08.19-2.15.27-3.22.05-.61.1-1.21.13-1.82.06-.82.11-1.65.16-2.47v-.08A76,76,0,0,0,297.27,338c-.06-.09-.13-.18-.19-.28-.26-.36-.56-.75-.88-1.16-.1-.14-.21-.27-.32-.41-.33-.44-.66-.86-.93-1.24a3.42,3.42,0,0,1-.69-1.28.15.15,0,0,1,0-.1c1.85-2.22,4.22-1.24,6.35.08l1.49.36,6.12,1,.51-.87-2-2.87c-.42-.84-.84-1.68-1.25-2.52l-2.31-2.67c-.17-.29-.35-.58-.53-.87,0-.34,0-.69,0-1s0-.69,0-1c2.95-4.22,5-4.72,11.8-2.86l1.13-.36-5.12-5a55.49,55.49,0,0,1-6.33-1.31c-5.17-1.66-5.14-1.74-8.24,2.83-1.2,2-2.1,4.28-3.64,6-3.3,3.59-3.52,4.35-1,8.33a2.36,2.36,0,0,1,0,2.09c-1.11,1.72-2.43,3.31-3.67,4.95-.07.22-.13.45-.2.68l-.8,1.15-3.21,20.47,4.24-5.64a59.35,59.35,0,0,1,5.2-6.73c1.73-1.72,3.57-.89,3.28,1.53-.81,6.82-.88,14-5.26,19.8-5.77,7.71-17.57,7.69-23.56.13-.29-.37-.94-.44-1.42-.64.87,1.78,1.86,3.52,2.56,5.37s1.86,4,1.55,5.85c-.45,2.62-3,2.94-4,.47-2-4.88-5-5-9.34-3.6-3.73,1.18-7.91-2.44-7.49-6.37a5.75,5.75,0,0,1,3.37-4c3.81-1,7.62-1.61,10.15-5.19.48-.67,1.88-.69,2.86-1,1.06-2.5,2-5,3.21-7.48.81-1.7,1.9-3.27,2.86-4.89l.87-2.73c-1.3-.85-2.74-2.56-3.89-2.38a27.85,27.85,0,0,0-7.73,2.81c-.53.26-.71,2-.44,2.92s1.28,1.48,1.62,1.83c-2.86,2.29-5.53,4.56-8.36,6.59a3.93,3.93,0,0,1-3.16.57c-3.51-1.42-6.63-2.22-7.89,3.37a48.91,48.91,0,0,1-3.29-4.46c-2.56-4.59-6.6-5-11.1-4-1.91.4-3.77,1-5.65,1.58-2.41,1-4.78,2.1-7.24,2.94a50.44,50.44,0,0,1-5.5,1.26c-7.35,3.3-8.53,4.85-7.78,12.58a86.56,86.56,0,0,0,2.74,13.85c1.51,5.67,4.67,10.32,10.29,12.69a53.46,53.46,0,0,0,7.31,2c2.46-1.16,5-2.25,7.38-3.48,4.89-2.49,9.73-5.07,14.6-7.6,2.81-1.46,4-.8,4.57,2.48,3.62-.65,5.66-3.18,7.64-6,4.1-5.9,6.83-5.71,10.12.78,2.29,4.52,4.22,9.23,6.19,13.9a24.73,24.73,0,0,1,.91,15.64,6.86,6.86,0,0,1-1.8,3.27c-2.89,2.65-5.71,5.53-9.06,7.46-1.89,1.1-4.8.8-7.18.51-.86-.11-2.16-2.06-2.07-3.06s1.54-2.31,2.65-2.65c7.67-2.4,10.06-6.18,8.73-14.29-.09-.56-.22-1.11-.43-2.13l-1.8,2.24-.12.28c0,.09-.08.18-.13.27-.18.25-.37.5-.56.74v0l-.58.78-2.08,2.13c-2.91,3.8-8,5.35-11.29,3.47-.18.22-.36.45-.53.68,5.29,3.31,4.79,8.16,3.77,13.32a75.74,75.74,0,0,0-.74,8.4c2.1-.41,3.31.59,3.95,2.48,2.73,8.08,4.84,16.18.75,24.47-1.09,2.21-.51,3.75,1.85,4.66,3.44,1.33,6.84,2.79,10.29,4.12,3.8,1.46,6.3.91,8.5-2.31,1.94-2.85,3.8-4,7.72-4.47a33.32,33.32,0,0,1,16.48,2.36c5.39,2,8.51,5.75,9,11.56,0,.58.16,1.15.25,1.72.68,4.2,1.7,5,5.81,3.8a22.84,22.84,0,0,1,16.26,1.07c2.42,1.13,4.49,3.09,6.59,4.84,2.52,2.08,4.9,4.34,7.34,6.52.65.58,1.33,1.14,2.95,2.51-3.46,1.16-6,2.53-8.72,2.83-10.81,1.22-20.92-.69-29.9-7.34-2.26-1.67-5-2.65-7.54-3.94,3.9,2.67,7.55,5.85,11.74,7.92,12.24,6.07,24.68,7.14,37,0-5-4.61-10-9.15-14.83-13.88-.88-.86-1-2.45-1.54-3.7,1.69-.2,3.88-1.14,5-.42a20,20,0,0,1,4.95,5.58c2.78,4.06,5.33,8.28,8,12.43l3.53,1.47c.2-4.3,3.49-1.73,5.32-2.4,5-2.76,10.06-5.55,15.12-8.27a13.28,13.28,0,0,1,3.53-1.3c.69-.14,1.9.05,2.14.49a3.45,3.45,0,0,1,0,2.51c-.91,2.44-2,4.81-3,7.21,3.23,4.18,3.57,9,3.43,14.07-.11,4.46.58,9,.92,13.43,0-4,0-8,0-11.93-.05-5.18.35-5.56,5.36-4.79a32.67,32.67,0,0,1-3-2.11,10.31,10.31,0,0,1-1.42-2c.9-.31,2.29-1.15,2.63-.84,3.91,3.56,9.06,3.6,13.68,5.11a7.21,7.21,0,0,1,1.94,1.42c5.57,4.36,11.11,8.78,16.75,13.06a24,24,0,0,0,4.38,2.12l-1.26,1.12a38.73,38.73,0,0,0,6.31,1.26c3.33.13,5-2,4.39-5.08-.48-1-1.42-2-1.37-2.94.45-8.06-2.15-15.4-4.9-22.75a3.15,3.15,0,0,1,.88-2.89c2.13-1.29,2.39-2.85,1.68-5-.8-2.45-.54-4.44,2.69-4.61l-4.62-7.15h0L425.7,478l-1.8-.22c-1.2-.15-2.4-.28-3.61-.39-2.42-.22-2.7-1.51-1.62-3.27,2.58-4.2,5.28-8.32,7.92-12.47-2.62-.07-4.27,1.24-5.46,3.51-1.56,3-3.34,5.81-5,8.73-1.22,2.19-1.9,4.29.92,5.92,2.09,1.21.9,2.73-.11,3.69a37.35,37.35,0,0,1-4.47,3.1c-.61.44-1.52,1-1.54,1.57s.8,1.26,1.39,1.71c3.4,2.56,7.53,4.51,10.08,7.72a29.75,29.75,0,0,1,5.21,11.74c.87,3.84-2.74,7.15-7.64,8.32-3.05.74-7.33-1.89-9-5.61a12.82,12.82,0,0,1-.58-9.44c.58-1.88.35-4,.48-6l-2.48.06h0c-3.13,2.35-6.24,2.56-9.34-.05a60.63,60.63,0,0,1-6.88-.38c-3.26-.52-4.09-2.8-2.24-5.48,3.14-4.51,2.16-7.14-2.65-9.88-2.66-1.51-4.86-4-6.82-6.46-.51-.64.33-2.86,1.11-3.95,1.93-2.68,4.37-5,6.23-7.73.65-.94.17-2.65.21-4a2.82,2.82,0,0,1-.29-.18c-6.31-4.92-6.44-8-.58-13.48,1.94-1.82,3.59-1.43,4.8,1.07a16.5,16.5,0,0,0,1.48,2.12,10.19,10.19,0,0,0,2.16-1.95,15.29,15.29,0,0,1,6.86-6.51c1.86-.85,3.19-2.87,4.76-4.37.09-.25.19-.51.28-.77-.08-2.76-.31-5.54-.18-8.29.09-1.9-.62-2.5-2.37-2.44a26,26,0,0,1-5.86-.07c-1.26-.26-2.33-1.46-3.49-2.25l3.4-1.49c-1.89-2.56-2.26-5,.67-7.05a3.1,3.1,0,0,1,2.43-.43c.45.16.87,1.36.78,2-.29,2.13-.82,4.23-1.26,6.35.91-1,2.18-1.92,2.66-3.13.06-.15.12-.31.17-.46.11-.31.22-.62.32-.93.16-.47.31-.93.48-1.38a7.17,7.17,0,0,1,.3-.69,5.41,5.41,0,0,1,.5-.88,2.64,2.64,0,0,1,.21-.29l.21-.25a2.13,2.13,0,0,1,.3-.3s0,0,0,0a2.1,2.1,0,0,1,.27-.24,4.22,4.22,0,0,1,.83-.49l.18-.08a4.7,4.7,0,0,1,.45-.17h0c0-.37.08-.72.13-1.07,0-.18.06-.35.1-.52a8,8,0,0,1,.26-1,3.75,3.75,0,0,1,.17-.47,6.05,6.05,0,0,1,1-1.76c.08-.1.17-.19.26-.29a3.13,3.13,0,0,1,.26-.25,1.86,1.86,0,0,1,.27-.22,4.72,4.72,0,0,1,.71-.5c.15-.09.32-.18.49-.26s.35-.16.54-.23a38.81,38.81,0,0,1,5.11-1.8c2.39-.51,3.27-1.43,1.85-3.74a13.71,13.71,0,0,1-1.66-3.37,12.34,12.34,0,0,1,0-3.16c1,.19,2.22.1,3.06.61,1.27.77,2,1.18,2.49,1.05l.12-.05c.29-.15.46-.57.59-1.3.08-.43.14-1,.21-1.64h0c-2.13.32-2.89-1.11-2.54-2.7,1.14-5.28,2.53-10.51,4-15.72.08-.29,1.49-.22,2.28-.31l3-8.05c3.12,1.57,3.17,4.38,3.68,6.86,1.1,5.42,1.95,10.89,3.19,16.28.32,1.4,1.59,2.63,2.57,3.82a28.2,28.2,0,0,0,2.62,2.5c-1.25.62-2.49,1.25-3.74,1.84a1.56,1.56,0,0,1-.68,0h-.67c-.44,0-.88,0-1.29-.06a6.52,6.52,0,0,1-.79-.12,2.6,2.6,0,0,1-.4-.1l-.27-.09a2.91,2.91,0,0,1-.75-.37l-.22-.16-.21-.19-.16-.18a3.13,3.13,0,0,1-.29-.42,1.36,1.36,0,0,1-.13-.24,4.46,4.46,0,0,1-.34-1.18,4.31,4.31,0,0,1-.07-.65l-.33-2.38c-5.26,2.53-6.16,10.32-1.61,14l2.08,1.71h0l2.17,1,2.17,1.05c1.45.7,2.89,1.41,4.31,2.18,2.82,1.54,3.26,3.19,1,5.46s-1.83,4.39-1,7.16c.93,3.12,1,6.52,1.17,9.82a2,2,0,0,1-3.67,1.29c-2.57-4.1-5.67-2.9-8.9-1.11L430.3,434c3.37-.23,5,1,4.39,4.67-.4,2.57.74,3.79,3.61,3.54,5.83-.51,6.38-.86,6.78-6.87.31-4.71.07-9.49.74-14.14a12.13,12.13,0,0,1,1.34-3.73c.62-1.21,1.34-2.41,1.91-3.63-.33-1-.67-2-1-3l-3-1.94c0-.34,0-.67,0-1l4.65-1.06,1.26-1.26h0l1.48-1.12C455.25,402.83,454.31,400.21,454.3,397.84Zm-56.59-77c-3.69-.91-4.49-2-4.41-6.25.11-5.65,2.61-7.51,8.26-6.1a41.74,41.74,0,0,1,6.32,1.71c2.89,1.22,3.4,3.6,1.64,6.2C407.59,319.27,401.15,321.69,397.71,320.85Zm-69.95,28.8a3.66,3.66,0,0,1,3-.91,80.73,80.73,0,0,1,9.93,4.64,3.48,3.48,0,0,1,1.27,3.13c-.41.95-2,1.42-2.53,1.77-5.23-.47-8.51-2.95-11.43-6A2.8,2.8,0,0,1,327.76,349.65Zm-1.23,11.83c2.58,2.92,2,8.37-1.2,11C322.82,369.4,323.2,365.84,326.53,361.48Zm-91.73,2.23c-.44,4.13-.76,8.27-1.37,12.37-.45,3-1.78,3.17-4.63,2.18-6.16-2.13-9-5.59-6.47-12.21.44-1.14.15-2.54.43-3.78.78-3.47,4.2-6.32,7.09-6C233.07,356.57,235.12,359.54,234.8,363.71Zm75.46,17.7,1.11,11.86-1.5.15q-.54-5.93-1.09-11.86Zm-2.84,18.29a82.54,82.54,0,0,1,5.33,6.53c.35.51-.61,1.91-1,2.9-.73-.48-1.76-.79-2.15-1.47-1.31-2.27-2.4-4.66-3.57-7Zm-18.05-17.48a8.33,8.33,0,0,1,.93-2.39c.73.46,1.84.74,2.11,1.39,1.62,3.81,3.16,7.67,4.41,11.62.23.71-.77,2.34-1.6,2.75-1.28.64-2.9.6-5,1-.27-.47-1.05-1.2-1.05-1.93C289.1,390.48,289.2,386.35,289.37,382.22Zm42.47,96.66c-3.66-1.12-6.73.09-10,1.43-1.63.66-4.27,1.06-5.36.2s-.66-3.45-.9-5.28c-.36-2.36-.72-4.71-1.09-7.07-.26-.79-.53-1.58-.79-2.36l-.8-2.37c-.11-.19-.23-.38-.35-.56-3.8-.41-7.6-.78-11.38-1.25-2.09-.27-4.16-.72-6.23-1.08-5.14-.25-10.27-1.26-14.95,2.38-1.94,1.51-4,.54-4.52-2.25-.18-1-.42-1.94-.76-3.51-2.43,1.56-4.39,2.88-6.4,4.1-3.84,2.34-5.41,1.43-5.55-3.13-.18-5.91,1.93-8.74,7.78-11,1.18-.44,2.08-1.62,3.11-2.46-1-.86-1.78-2-2.9-2.53-4.55-2-9.23-3.79-11.69-8.57a15.3,15.3,0,0,1-.87-3.05c1.08-.24,2.3-.93,3.2-.65a41.67,41.67,0,0,1,8,3.28c3.3,1.88,6.31,4.27,9.52,6.32,2.32,1.49,4.56,1.82,6.09-1.16,0-.22,0-.44.07-.66-2.33-3.8-2.15-4.78,1.47-8.19l4.3-8.6.18-3.77c-.14-3.1-1.88-5-4.44-6.56a82.85,82.85,0,0,1-8.13-5.86c-1.9-1.52-1.65-3.46.49-3.84,6.32-1.12,12.65-2.33,19-2.93,4.74-.44,5.33.65,4.28,5.19-.26,1.13-.11,2.42-.62,3.39-.72,1.36-1.64,2.95-2.9,3.62-1.74.94-2.92,2-1.8,3.69,3,4.54.68,7.56-2.57,10.46a3.31,3.31,0,0,0-.65.8c-.1.19-.07.45.54.08,3.42,3.4,6.76,6.89,10.33,10.14a6.52,6.52,0,0,0,3.94,1.45c6.28.17,11.2,2.95,15.19,7.54.36.41-.13,2.34-.69,2.61a43.11,43.11,0,0,1-5.87,2l-3.63,3.27c1.08,1.08,2,2.63,3.27,3.14,3.28,1.28,6.74,2.06,10.11,3.09,1.14.34,2.25.81,4.18,1.52l-11.17,6.22c.18.79.37,1.57.56,2.36,1.08,4.55,1.82,4.85,6.2,3.53a19.23,19.23,0,0,1,6.77-.82c2.09.16,4.1,1.29,3.83,4C337,477.47,334.16,479.59,331.84,478.88Zm29.81-21.46a27.07,27.07,0,0,1,3.53-2.73c.79-.45,2.13-.82,2.76-.45.82.49,1.18,1.75,2,3.16-1.36,1.75-2.38,3.79-4,4.88-.81.53-2.94-.47-4.2-1.23C360.15,460.1,360.11,458.66,361.65,457.42ZM340.48,474.6c-.39-1.31-.62-2.68-1-4.35.41-.95.59-2.67,1.44-3.12a114.34,114.34,0,0,1,11.41-5.25c.66-.26,2,.4,2.6,1.05.31.35-.22,1.73-.71,2.41a132.54,132.54,0,0,1-8.08,10.73C343.38,479.19,341.68,478.62,340.48,474.6ZM355,493c-.63.5-2.95,0-3.56-.78a20,20,0,0,1-3.43-6.32c-.26-.83,1-2.47,1.94-3.23.64-.52,2-.29,3-.18,3.58.37,7.15.84,12.1,1.44C361.54,487.18,358.42,490.26,355,493Zm4.05,2c4.26-6.65,13.32-10.67,17.49-7.55C370.55,489.52,366.32,494.39,359.07,495Zm29.43-86.81c.58.72,1.74,1.55,1.63,2.14-.22,1.09-1.17,2-2.11,3.51l-2.66-2.47Zm-1.6,26.48c-.56-.87-1.77-1.95-1.56-2.57a9.39,9.39,0,0,1,2.52-3.26,15.16,15.16,0,0,1,2.32,1.54Zm4.85-12.95c-.26.44-2.67.32-2.74.07-.52-1.79-1.52-4.25-.74-5.37s3.44-1.1,5.27-1.56l.72,1.05A44.25,44.25,0,0,1,391.75,421.68Zm10.52,3.79c.93.18,1.63,1.5,2,1.82-.18,4.31-2,7-4.05,6.3a5.53,5.53,0,0,1-3.05-3.69C396.71,427.83,400.07,425.05,402.27,425.47Z"/><path class="cls-1" d="M281.91,333c-2.86-8.27-7-16.34-8.34-24.86-3.14-19.63-5.67-39.55,4.82-58.18a16.11,16.11,0,0,1,2.39-2.66c-.15.65-.31,1.29-.4,1.69,2.84.65,5.59,1.15,8.25,1.94,3.46,1,6.91,2.13,10.24,3.48,1.78.72,3.24,2.23,5,3,.8.34,2-.27,3-.45a11.1,11.1,0,0,0-1.22-2.52,6.47,6.47,0,0,0-2-1.27c-7-3.74-14.19-6.76-22.39-6.07,11.33-1.94,20.79,2.43,28.79,9.68,5.49,5,9.85,11.2,14.77,16.82a100,100,0,0,1,14.18,22c.48,1,1.64,1.6,3.29,3.14,0-4,0-6.87,0-9.74.42,3.06.91,6.12,1.25,9.2.53,4.77-.44,5.78-5.2,5.25A18.79,18.79,0,0,1,334,302.3c-3.25-1.18-6.4-2.71-9.71-3.63-6.85-1.91-14-2.26-20.21,1.35-9.65,5.62-17.4,13.22-20.23,24.64C283.18,327.43,282.56,330.21,281.91,333Z"/><path class="cls-3" d="M281.91,333c.65-2.77,1.27-5.55,1.95-8.32,2.83-11.42,10.58-19,20.23-24.64,6.21-3.61,13.36-3.26,20.21-1.35,3.31.92,6.46,2.45,9.71,3.63a18.79,18.79,0,0,0,4.32,1.16c4.76.53,5.73-.48,5.2-5.25-.34-3.08-.83-6.14-1.25-9.2-.13-.89-.27-1.78-.41-2.67-.13-1.09-.26-2.2-.41-3.3q-.72-5.43-1.45-10.88l.8-1.57,1.8-2.95.51-.55h.16v-.17l.54-.5H344v-.17l.52-.55c1.43-1.13,2.81-2.32,4.3-3.37,2.29-1.62,3.67-.94,4.81,1.48.93,2,2.23,4.17,4,5.28a18.13,18.13,0,0,1,7,7.87,6,6,0,0,0,3.77,2.89c.89.18,2.16-1.57,3.38-2.55l9.44,5.06a1.05,1.05,0,0,1,.49.28c.76,2.72-1.29,3-3.06,3.58-8.49,2.64-13.36,8.34-14.21,17.2-.18,1.85,0,4.23,1,5.61,3.94,5.31,1.82,10.12-.73,14.9-2.23,4.19-6.36,4-10.34,3.87-3.34-.13-3.87.67-2.7,3.63,3.61-1.16,7.14-2.49,10.78-3.35,1.25-.29,2.79.62,4.2,1l-2.76,3.23a53.39,53.39,0,0,0-6.3,4c-5.26,4.36-10.9,5.74-17.32,2.95l-8.16-18c.21-1.13.16-2.43.73-3.33.34-.53,2.16-.89,2.46-.55,2.7,2.93,5.12,6.12,7.83,9.05.64.69,2,.69,3.1,1,.3-1.19,1.25-3,.8-3.47-4.26-4.3-7.73-9.8-13.88-11.61-3.58-1.05-6.51-1.86-6.11-6.41,0-.48-.68-1-1.11-1.63-.59.33-1.14.44-1.35.78-2.53,4-6.37,5.7-10.83,6.71-1.24.27-2.13,2.08-3.18,3.18a55.49,55.49,0,0,1-6.33-1.31c-5.17-1.66-5.14-1.74-8.24,2.83l-9.87,9.44c-2,1.89-1.62,3.53.74,4.54s2.55,2.26,1.5,4.32a12.4,12.4,0,0,0-.7,3c-.07.22-.13.45-.2.68l-.8,1.15-3.21,20.47c-1.38,1.37-2.75,2.76-4.15,4.12-1.91,1.86-3.4,5.13-6.7,3.78s-2.84-4.82-2.63-7.63c.32-4.23,1.08-8.43,1.65-12.64l.87-2.73c2.11-1.87,1.46-3.62-.29-5.26-1.08-1-2.23-2-3.35-3l.44-.57,4.41.35,3.29.3,2.34,0,1.22-.2a.28.28,0,0,0,.32-.34.89.89,0,0,1,.28-.45c.13-.35.27-.7.4-1C281.68,334.24,281.79,333.61,281.91,333Zm75.65-28.63c.09.22.17.44.25.66,1-.59,2.45-1,2.87-1.84.31-.64-.58-2-1.2-2.89a6.18,6.18,0,0,0-2.19-1.67c-2.63-1.37-5.32-2.62-8-3.95-1.73-.87-2.75-.23-2.91,1.54a15.31,15.31,0,0,0,.13,5.15,3.78,3.78,0,0,0,2.45,2.29C351.8,304.12,354.7,304.15,357.56,304.35Z"/><path class="cls-3" d="M356,500.49c.2-4.3,3.49-1.73,5.32-2.4,1.44.56,2.89,1.61,4.31,1.58,4.49-.1,9-.6,13.45-.94,3.23,4.18,3.57,9,3.43,14.07-.11,4.46.58,9,.92,13.43l.69,8.4q.19,6.21.41,12.44.25,3,.49,6c.05.78.1,1.56.14,2.35.1,8.89.25,17.78.29,26.68,0,7.17.26,14.36-.16,21.5-.64,10.69-1.92,21.33-2.66,32-.7,10.1-1,20.24-1.63,30.35-.2,3.25-.95,6.47-1.44,9.7h-1.37a34.2,34.2,0,0,1-.49-3.62c-.25-8.17-.43-16.34-.68-24.51-.18-6.18.14-12.44-.78-18.51-1.34-8.88-4.22-17.55-5.25-26.45-.65-5.61-2.71-11-2.52-16.66a94.33,94.33,0,0,0-4-32.15c-1.09-3.44-.81-7.31-1.15-11-.15-1.55-.29-3.1-.44-4.65h-1v14.17l-1.14,0c-.29-6.55-.55-13.1-.88-19.64-.41-8-.81-15.93-1.4-23.88-.08-1.21-1.13-2.35-1.74-3.53C356.46,503.71,356.22,502.1,356,500.49Z"/><path class="cls-1" d="M250.62,436.23c2.1-.41,3.31.59,3.95,2.48,2.73,8.08,4.84,16.18.75,24.47-1.09,2.21-.51,3.75,1.85,4.66,3.44,1.33,6.84,2.79,10.29,4.12,3.8,1.46,6.3.91,8.5-2.31,1.94-2.85,3.8-4,7.72-4.47a33.32,33.32,0,0,1,16.48,2.36c5.39,2,8.51,5.75,9,11.56,0,.58.16,1.15.25,1.72.68,4.2,1.7,5,5.81,3.8a22.84,22.84,0,0,1,16.26,1.07c2.42,1.13,4.49,3.09,6.59,4.84,2.52,2.08,4.9,4.34,7.34,6.52.65.58,1.33,1.14,2.95,2.51-3.46,1.16-6,2.53-8.72,2.83-10.81,1.22-20.92-.69-29.91-7.34-2.25-1.67-5-2.65-7.53-3.94l-8.27,1.2-8.56,2.1c-11.26,3.11-22.61,5.94-34.32,2.86-6.1-1.61-12.05-3.86-18-6a3.15,3.15,0,0,1-1.6-2.58c2.32-9.33,5.46-18.38,12.13-25.59,2.38-2.57,5.62-4.35,8.46-6.48.09-1.57.18-3.14.28-4.71l-.18-1.89c-.31-1.24-.63-2.47-.94-3.7l-.18-2q-.12-3.63-.25-7.26Zm12.43,58.3.13.88c.37.21.78.64,1.1.58,8.6-1.57,17.2-3.11,25.74-4.94.86-.18,1.72-2.07,1.94-3.29,1.1-5.84-1.78-10-6.15-13.36-1.83-1.42-3.46-.85-5.39.26s-4.48,2.39-6.61,2.16c-3.57-.37-7-1.87-10.53-2.88s-6.74-2.15-10.2-2.79c-2-.38-3.42-.88-4-3-.78-2.67-2.46-2.78-4.45-1.17a19.64,19.64,0,0,0-3.64,3.18c-1.62,2.19-2.9,4.62-4.38,7,4.84.84,8.72,1.33,12.5,2.25,2.51.61,5.67.63,6.28,4.34.07.44,1.57,1,2.34.9a14.56,14.56,0,0,1,11.37,3.08,28.41,28.41,0,0,1,3,3.28,34.5,34.5,0,0,1-4,2.14A48.91,48.91,0,0,1,263.05,494.53Zm-21.93-2.78c-1.4-3.18-2.5-6.06-3.92-8.76-.84-1.57-2.43-1.82-3,.17-.45,1.63-.8,4.15.07,5.09C236,490.06,238.24,491.82,241.12,491.75Zm14,.74-.33,1.4,3.88.74c.09-.38.17-.76.25-1.14Z"/><path class="cls-1" d="M490,438a12,12,0,0,1-5.23,4.75,119.61,119.61,0,0,1-15.6,5.46c-9,2.43-18.16,4.38-27.2,6.72a5.42,5.42,0,0,0-3.38,2.72c-2,5.66-4.77,10.63-9.43,14.65-1.29,1.12-1.11,3.93-1.6,6h0L425.7,478l-1.8-.22c-1.2-.15-2.4-.28-3.61-.39-2.42-.22-2.7-1.51-1.62-3.27,2.58-4.2,5.28-8.32,7.92-12.47l8.48-7.36c1.06-1.37,2.58-3.23,0-4-3.28-1-6.86-2.08-10.1.63a13,13,0,0,1-3,1.45c0-1-.1-1.94-.16-2.91q.75-3.42,1.48-6.84h0l7-8.62V434c3.37-.23,5,1,4.39,4.67-.4,2.57.74,3.79,3.61,3.54,5.83-.51,6.38-.86,6.78-6.87.31-4.71.07-9.49.74-14.14a12.13,12.13,0,0,1,1.34-3.73c.63-1.21,1.35-2.41,1.92-3.63l3.9-6.06.95.28-3.42,24,1.63.46c2.84-6.49,6-12.86,8.43-19.5,2.24-6.14,4.44-12.43,3.56-19.22q-1.35-10.44-2.71-20.89c1.19,5.94,3.6,11.95,3.29,17.81-.5,9.3,2,16.45,9.05,22.52,5.84,5,9.64,11.71,12.91,18.64.25.53.47,1.06.75,1.56C488.32,435,490.38,437.21,490,438Z"/><path class="cls-3" d="M461.42,372.93q1.36,10.44,2.71,20.89c.88,6.79-1.32,13.08-3.56,19.22-2.42,6.64-5.59,13-8.43,19.5l-1.63-.46,3.42-24-.95-.28-3.9,6.06c-.34-1-.68-2-1-3,.58-1.34,1.16-2.67,1.73-4l1.26-1.26c.49-.38,1-.76,1.48-1.13,2.71-1.65,1.77-4.27,1.76-6.64-.31-2.29-.66-4.57-.92-6.86a10.44,10.44,0,0,0-5-8.24c-3.44-2.16-4.35-5.91-5-9.55-1.46-8-5.08-15.06-8.84-22.06-1.21-2.26-3.29-4.07-5-6.08l-.81-2.68c-.65-2-1.77-1.34-3.19-.77-4.1,1.64-8.27,3.07-12.42,4.58l-3-2.61c1-5.41,2-10.81,2.95-16.23a8,8,0,0,0-.5-2.65l8.84-10.38.91-1.36.36-.62q2.75-4.95,5.5-9.91l2.08-3.74.52.84,0,.17.16.06.56.77,3.24,4.75a1.33,1.33,0,0,1,.29.55c.87,3,1.76,6,2.64,9l-.18,4c-.3.78-.6,1.55-.91,2.32l-.75.92c-2.4,2.11-5,4-7.17,6.36-2.86,3-2.86,6.15-.42,8.13l.7.46,2,1.07.67.43,1.91,1.13.78.49v0c.45.35.9.7,1.36,1a.42.42,0,0,0,.44.4l1,.89.57.47.2.21,6.48,6.75a.94.94,0,0,1,.39.4l6.13,6.6,1.47,1.36,2.78,2.8.74.94,5.23,10Z"/><path class="cls-1" d="M366.65,329.05c-1.41-.35-2.95-1.26-4.2-1-3.64.86-7.17,2.19-10.78,3.35-1.17-3-.64-3.76,2.7-3.63,4,.17,8.11.32,10.34-3.87,2.55-4.78,4.67-9.59.73-14.9-1-1.38-1.19-3.76-1-5.61.85-8.86,5.72-14.56,14.21-17.2,1.77-.55,3.82-.86,3.06-3.58,4.12-.18,8.24-.38,12.36-.55L421,281c.6,1.85.39,1.7-1.9,3-6,3.48-11.91,7-17.64,10.86-5.07,3.39-6.55,9.36-9.35,14.35-.55,1-1,2-1.85,3.64-.93-1.34-1.79-2.06-2-2.91-.87-4.58-1.69-9.17-2.26-13.79-.27-2.19-2-3.49-4.56-2.31a5.92,5.92,0,0,1-6.15-.28c-.62-.37-2.69.4-3.09,1.17a67.88,67.88,0,0,0-4.5,10.36,5.41,5.41,0,0,0,1,4.39,13.15,13.15,0,0,1,3.07,11.35C371.15,323.81,368.43,326.33,366.65,329.05Z"/><path class="cls-1" d="M273.71,336.56l-4.41-.35-.44.57c1.12,1,2.27,1.94,3.35,3,1.75,1.64,2.4,3.39.29,5.26-1.3-.85-2.74-2.56-3.89-2.38a27.85,27.85,0,0,0-7.73,2.81c-.53.26-.71,2-.44,2.92s1.28,1.48,1.62,1.83c-2.86,2.29-5.53,4.56-8.36,6.59a3.93,3.93,0,0,1-3.16.57c-3.51-1.42-6.63-2.22-7.89,3.37a48.91,48.91,0,0,1-3.29-4.46c-2.56-4.59-6.6-5-11.1-4-1.91.4-3.77,1-5.65,1.58,1.25-3.41,3.34-5.66,7.31-5.54a3.68,3.68,0,0,0,2.28-.65c3.93-3.16,7.78-6.42,12.17-10.07l-3.11-1c5.51-.75,11-2.09,16.53-2.1C263.1,334.44,268.4,335.8,273.71,336.56Z"/><path d="M222.43,399.08c2.46-1.16,5-2.25,7.38-3.48,4.89-2.49,9.73-5.07,14.6-7.6,2.81-1.46,4-.8,4.57,2.48a47.84,47.84,0,0,0-.86,23.35c-.18.22-.36.45-.53.68C237.69,411.83,229.82,405.85,222.43,399.08Z"/><path class="cls-1" d="M433.15,523.57c-.48-1-1.42-2-1.37-2.94.45-8.06-2.15-15.4-4.9-22.75a3.15,3.15,0,0,1,.88-2.89c2.13-1.29,2.39-2.85,1.68-5-.8-2.45-.54-4.44,2.69-4.61l.06.05q2.44,4.11,4.88,8.21c.32,1.36.64,2.73.95,4.1.06.93.11,1.85.17,2.78-1.31,7.26-2.61,14.53-4,21.78C434.13,522.77,433.52,523.15,433.15,523.57Z"/><path class="cls-1" d="M388.78,509.51a32.67,32.67,0,0,1-3-2.11,10.31,10.31,0,0,1-1.42-2c.9-.31,2.29-1.15,2.63-.84,3.91,3.56,9.06,3.6,13.68,5.11a7.21,7.21,0,0,1,1.94,1.42c5.57,4.36,11.11,8.78,16.75,13.06a24,24,0,0,0,4.38,2.12l-1.26,1.12-3.19-.9-2.31-1C406.87,521.37,396.65,517.51,388.78,509.51Z"/><path class="cls-3" d="M241.26,336.55l3.11,1c-4.39,3.65-8.24,6.91-12.17,10.07a3.68,3.68,0,0,1-2.28.65c-4-.12-6.06,2.13-7.31,5.54-2.41,1-4.78,2.1-7.24,2.94a50.44,50.44,0,0,1-5.5,1.26c6.48-7.36,13.58-13.94,22.46-18.37l1-.28,1.69-1,.6-.16a.84.84,0,0,1,.43-.11l3.79-1.28Z"/><path class="cls-1" d="M381.21,282.36l-9.44-5.06c-1.22,1-2.49,2.73-3.38,2.55a6,6,0,0,1-3.77-2.89,18.13,18.13,0,0,0-7-7.87c-1.76-1.11-3.06-3.3-4-5.28-1.14-2.42-2.52-3.1-4.81-1.48-1.49,1.05-2.87,2.24-4.3,3.37a8.11,8.11,0,0,1,.91-1.41c5-5.24,6-5.26,11.71-.76C365.14,269.84,373.19,276.09,381.21,282.36Z"/><path class="cls-1" d="M351,499c-5-4.61-10-9.15-14.83-13.88-.88-.86-1-2.45-1.54-3.7,1.69-.2,3.88-1.14,5-.42a20,20,0,0,1,4.95,5.58c2.78,4.06,5.33,8.28,8,12.43Z"/><path class="cls-1" d="M430.3,298.68l-2.08,3.74q-2.76,4.95-5.5,9.91c1.41-6.39,2.81-12.79,4.26-19.18.3-1.33.8-2.62,1.21-3.93v.2c.2.75.41,1.51.62,2.27Q429.56,295.18,430.3,298.68Z"/><path class="cls-1" d="M428.25,336.57c-2.44-2-2.44-5.11.42-8.13,2.19-2.32,4.77-4.25,7.17-6.36-1.91,2.09-3.89,4.1-5.71,6.26C428.12,330.72,425.92,333.16,428.25,336.57Z"/><path class="cls-1" d="M340,272.16q.72,5.44,1.45,10.88c.15,1.1.28,2.21.41,3.3-1.09-3.49-2.36-6.93-3.16-10.49C338.47,274.77,339.54,273.4,340,272.16Z"/><path class="cls-2" d="M437.07,493.64q-2.43-4.11-4.88-8.21Q434.64,489.54,437.07,493.64Z"/><path class="cls-1" d="M461.09,372l-5.23-10Z"/><path class="cls-1" d="M450.87,356.87l-6.13-6.6Z"/><path class="cls-1" d="M437.68,314.86c-.88-3-1.77-6-2.64-9Z"/><path class="cls-1" d="M444.35,349.87l-6.48-6.75Z"/><path class="cls-2" d="M285.37,494.41l8.56-2.1Z"/><path class="cls-2" d="M384.52,547.07q-.21-6.23-.41-12.44l.9,12.13Z"/><path class="cls-2" d="M250.78,437.09q.14,3.63.25,7.26Q250.91,440.72,250.78,437.09Z"/><path class="cls-1" d="M434.75,305.27l-3.24-4.75Z"/><path class="cls-1" d="M384.52,547.07l.49-.31v6.36Q384.77,550.09,384.52,547.07Z"/><path class="cls-1" d="M455.12,361l-2.78-2.8Z"/><path class="cls-2" d="M251.21,446.31c.31,1.23.63,2.46.94,3.7C251.84,448.77,251.52,447.54,251.21,446.31Z"/><path class="cls-1" d="M342.61,267.64l-1.8,2.95Z"/><path class="cls-2" d="M252.33,451.9c-.1,1.57-.19,3.14-.28,4.71C252.15,455,252.24,453.47,252.33,451.9Z"/><path class="cls-1" d="M239.88,336.82l-3.79,1.28Z"/><path class="cls-2" d="M438.19,500.52c-.06-.93-.11-1.85-.17-2.78C438.08,498.67,438.14,499.59,438.19,500.52Z"/><path class="cls-1" d="M436.59,321.16c.31-.77.61-1.54.91-2.32C437.2,319.62,436.9,320.39,436.59,321.16Z"/><path class="cls-1" d="M279.34,336.9l-2.34,0Z"/><path class="cls-1" d="M427.91,287.6c-.07-.4-.14-.8-.2-1.2C427.78,286.81,427.84,287.2,427.91,287.6Z"/><path class="cls-1" d="M433.55,339.66l-1.91-1.13Z"/><path class="cls-2" d="M428.82,291.69c-.21-.76-.42-1.52-.62-2.27C428.4,290.17,428.61,290.93,428.82,291.69Z"/><path class="cls-1" d="M431,338.1,429,337Z"/><path class="cls-2" d="M417,525.47l2.31,1Z"/><path class="cls-1" d="M233.37,339.35l-1,.28Z"/><path class="cls-1" d="M281.56,334.87c-.13.34-.27.69-.4,1C281.29,335.56,281.43,335.21,281.56,334.87Z"/><path class="cls-1" d="M280.88,336.36a.28.28,0,0,1-.32.34l0-.28Z"/><path class="cls-1" d="M235.66,338.21l-.6.16A.51.51,0,0,1,235.66,338.21Z"/><path class="cls-1" d="M437.67,342.91l-.57-.47Z"/><path class="cls-1" d="M436.14,341.55a.42.42,0,0,1-.44-.4Z"/><path class="cls-1" d="M434.34,340.11v0S434.34,340.11,434.34,340.11Z"/><polygon class="cls-1" points="344 266.25 343.99 266.42 343.83 266.42 343.81 266.23 344 266.25"/><polygon class="cls-1" points="343.29 266.92 343.28 267.09 343.12 267.09 343.1 266.9 343.29 266.92"/><polygon class="cls-1" points="430.95 299.75 430.79 299.69 430.82 299.52 431 299.57 430.95 299.75"/><path class="cls-1" d="M340.27,339.18c6.42,2.79,12.06,1.41,17.32-2.95a53.39,53.39,0,0,1,6.3-4c-.15.68-.31,1.35-.46,2l-.49.57c-2.94,1.55-4.71,3.47-3.28,7.2.52,1.36.06,3.15-.13,4.72-.16,1.25-.87,2.48-.81,3.69a14.06,14.06,0,0,0,1.18,3.64,11.2,11.2,0,0,0,2.65-2.17c1.55-2.39,2.23-2.48,4,.14s2.68,5.17,1.7,7.37c2.34,1.89,4.49,3.24,6.14,5.05,2.69,3,2.43,3.78-1,6.16-1.62-.93-3.14-2.16-4.88-2.69-1-.32-3.3.25-3.42.79a7,7,0,0,0,.57,4.47c.23.45,2.36.17,3.52-.13a17.19,17.19,0,0,0,3.33-1.59c.66,1.22,1,2.8,2,3.58,5.36,4.2,6,5.6,3.39,11.62a13.83,13.83,0,0,0-.38,10.31,63.18,63.18,0,0,1,2.58,12.39c.17,1.62-1.2,3.5-2.12,5.11a25.93,25.93,0,0,1-2.82,3.43l-8.53,3.56-.06,1.18,5.91.77c-.8,3.4-5,7.52-7.66,7.8-.75-1.36-1.77-3.75-2.07-3.66a12.92,12.92,0,0,0-5.09,2.61c-1.69,1.57-.36,4.08,2.06,5a12.61,12.61,0,0,1,4.41,2.78c1.39,1.41,2.26,1.43,3.19-.23,1.84-3.31,3.19-7,7.5-8.09.54-.14.89-1.27,1.22-2,1.18-2.65,3.12-2.55,5.06-1.16a2.74,2.74,0,0,1,.18,2.68c-2.74,3-2.77,3.91.64,6.2a15.56,15.56,0,0,0,3.47,1.4c2.33.82,2.88,1.92,1.11,4.05s-2.85,4.43-4.48,6.5c-.73.93-2.16,2.12-3,1.94a4,4,0,0,1-2.39-2.8c-.29-2.38.21-4.85.07-7.26-.06-1-.94-1.94-1.45-2.9a14.45,14.45,0,0,0-2.8,1.58,22.79,22.79,0,0,0-1.85,2.5c-1.57,1.82-1.72,3.38.4,5a10.21,10.21,0,0,1,1.78,2.25l-12.53,5.49-.8-.61a42.27,42.27,0,0,0,3.07-5.27,25.12,25.12,0,0,0,1-4.95,25.38,25.38,0,0,0-5.21-.19c-1.17.17-2.15,1.33-3.32,1.79a12.19,12.19,0,0,1-2.87.39,10.71,10.71,0,0,1,.52-2.76c.43-.92,1.35-1.6,1.85-2.49.35-.64.69-1.66.41-2.15a2.76,2.76,0,0,0-2.05-.91c-3.77-.18-5.56,2-4.94,5.88a6.85,6.85,0,0,1,0,1.36l-12.44,2.68-.59-1a42.68,42.68,0,0,0,4.95-3.49,24.18,24.18,0,0,0,2.9-4.08c-1.72-.9-3.34-2.29-5.16-2.6-2.81-.49-5.76-.1-8.63-.38-1.19-.11-2.31-1-3.46-1.48l.33-1.32c1.46.15,2.94.22,4.38.48,1,.17,2,1,2.92.82,1.12-.2,2.11-1.1,3.16-1.7-.89-.69-1.69-1.69-2.7-2a23.75,23.75,0,0,0-5.43-1c-2-.15-3.2-.81-3.53-3s-1.81-2.48-3.66-1.83l-4.66,1.66c-.43-2.46-.82-4.64-1.4-7.95a31.09,31.09,0,0,0,4,2.12c1.07.37,2.57.88,3.3.42a3.62,3.62,0,0,0,1.33-3.14c-1-3.08-1.08-6.78-4.77-8.39a2,2,0,0,1-1-1.29,73.65,73.65,0,0,1-.81-10.68,16.09,16.09,0,0,1,4.66,9.19c.24,1.68-.16,4.28,2.78,3.71,2.66-.51,3.27-2.44,2.65-5.07-.28-1.16-.13-3.33.52-3.65,4.42-2.19,3.49-5.76,2.83-9.32-.2-1.09-.53-2.15-.79-3.16a4,4,0,0,0-1.05.08c-1.6.75-3.18,1.53-4.77,2.3a36.93,36.93,0,0,1-.47-4.89c.08-2.7.41-5.4.68-8.59,1,.58,1.51.71,1.68,1,1.64,3.08,3.85,2.8,6.36,1.21s3.67-3.21,2-6.29c-2-3.76-.45-6.47,3.78-7.53a43.45,43.45,0,0,0,4.48-1.74,49.47,49.47,0,0,0,1,6.51c.37,1.26,1.25,2.84,2.32,3.29a4.67,4.67,0,0,0,4.16-.39c.73-.64.77-2.91.21-4-1.81-3.41-1-6.75-.35-10.13,1-5.07,2-10.12,3.08-15.42C348,344.31,342.66,346.17,340.27,339.18Zm15.1,69.56,3.42.46c-1.8,1.76-.94,4.56,1.7,5.59,2.23.88,4.44,1.82,7,2.88.34-.79.52-2.51,1.44-3.1,3.29-2.11,3.07-4.32.18-7.07l4.13-.36c-.43-2-.3-4.13-1.27-5.42-2.62-3.48-10.3-5.16-14.73-3.51-.5-1-1.05-2.09-1.61-3.21l-1.79.77c-.37,3.55-.91,7.1-1,10.66C352.86,407.18,354.49,408,355.37,408.74ZM365.31,361c-.29-.34-.58-.68-.86-1-2.12,1.46-4.22,2.93-6.35,4.37a32.51,32.51,0,0,0-4.78,3.32c-.57.57-.46,2.16-.15,3.12a2.61,2.61,0,0,0,2.38.47C359.28,368.26,363.1,365.33,365.31,361Zm6.5,16.85c-.7,1.36-1.53,2.31-1.32,2.67a30.28,30.28,0,0,0,2.86,3.68l2.83-2.43ZM355,418.08c.74,1.48,1.15,3.47,1.91,3.61a16.26,16.26,0,0,0,5.86-.43,16,16,0,0,0-.15-2.55Z"/><path d="M443.08,415.49c2.22-2.27,1.78-3.92-1-5.46-1.42-.77-2.86-1.48-4.31-2.18l-2.17-1.05-2.17-1-4.5.19-.12,3.15c.15.79.31,1.59.46,2.38,1.19,3.22,2.54,6.4,3.49,9.68.47,1.6.19,3.42.24,5.14-1.57-.39-3.31-.49-4.69-1.25-2.66-1.46-4.44-1-5.9,2.1-.78,1.66-1.14,3.53-2.07,5.08-1.6,2.64-3.54,2.65-5.63.29-.61-1.53-1.23-3-1.84-4.58l0,0c-.93-2.61-2.31-5.2-.31-7.92l3.07-1.74c.31-.48.5-1.19.93-1.41,3.74-1.95,5.64-5,6.64-9.09.85-3.51,3.22-4,5.76-1.79l4.49-.2L431.3,404c-4.55-3.65-3.65-11.44,1.61-14l.33,2.38a4.31,4.31,0,0,0,.07.65,4.46,4.46,0,0,0,.34,1.18,1.36,1.36,0,0,0,.13.24,3.13,3.13,0,0,0,.29.42l.16.18.21.19.22.16a2.91,2.91,0,0,0,.75.37l.27.09.4.1a6.52,6.52,0,0,0,.79.12c.41,0,.85.05,1.29.06h.67a1.56,1.56,0,0,0,.68,0c1.25-.59,2.49-1.22,3.74-1.84a28.2,28.2,0,0,1-2.62-2.5c-1-1.19-2.25-2.42-2.57-3.82-1.24-5.39-2.09-10.86-3.19-16.28-.51-2.48-.56-5.29-3.68-6.86l-3,8.05c0,.54-.09,1.07-.13,1.6-.18.83-.36,1.66-.55,2.5,0,1.07,0,2.14,0,3.22s.18,1.93.28,2.9l-1.44.21-.33,2.88c-.47,1.83-1,3.66-1.42,5.5l-.07-.07c-.07.66-.13,1.21-.21,1.64-.13.73-.3,1.15-.59,1.3l-.12.05c-.47.13-1.22-.28-2.49-1.05-.84-.51-2-.42-3.06-.61a12.34,12.34,0,0,0,0,3.16,13.71,13.71,0,0,0,1.66,3.37c1.42,2.31.54,3.23-1.85,3.74a38.81,38.81,0,0,0-5.11,1.8l.4.74c-.22,2.58-.45,5.17-.68,7.75l-3.93-1.93h0a4.7,4.7,0,0,0-.45.17l-.18.08a4.22,4.22,0,0,0-.83.49,2.1,2.1,0,0,0-.27.24s0,0,0,0a2.13,2.13,0,0,0-.3.3l-.21.25a2.64,2.64,0,0,0-.21.29,5.41,5.41,0,0,0-.5.88,7.17,7.17,0,0,0-.3.69c-.17.45-.32.91-.48,1.38-.1.31-.2.62-.32.93-.05.15-.11.31-.17.46-.48,1.21-1.75,2.1-2.66,3.13L399,420.1l-3.4,1.49c1.16.79,2.23,2,3.49,2.25a26,26,0,0,0,5.86.07c1.75-.06,2.46.54,2.37,2.44-.13,2.75.1,5.53.18,8.29-.09.26-.19.52-.28.77-1.57,1.5-2.9,3.52-4.76,4.37a15.29,15.29,0,0,0-6.86,6.51,10.19,10.19,0,0,1-2.16,1.95,16.5,16.5,0,0,1-1.48-2.12c-1.21-2.5-2.86-2.89-4.8-1.07-5.86,5.49-5.73,8.56.58,13.48a2.82,2.82,0,0,0,.29.18c0,1.35.44,3.06-.21,4-1.86,2.72-4.3,5.05-6.23,7.73-.78,1.09-1.62,3.31-1.11,3.95,2,2.43,4.16,4.95,6.82,6.46,4.81,2.74,5.79,5.37,2.65,9.88-1.85,2.68-1,5,2.24,5.48a60.63,60.63,0,0,0,6.88.38c3.1,2.61,6.21,2.4,9.34.05h0l2.48-.06c-.13,2,.1,4.15-.48,6a12.82,12.82,0,0,0,.58,9.44c1.66,3.72,5.94,6.35,9,5.61,4.9-1.17,8.51-4.48,7.64-8.32a29.75,29.75,0,0,0-5.21-11.74c-2.55-3.21-6.68-5.16-10.08-7.72-.59-.45-1.41-1.15-1.39-1.71s.93-1.13,1.54-1.57a37.35,37.35,0,0,0,4.47-3.1c1-1,2.2-2.48.11-3.69-2.82-1.63-2.14-3.73-.92-5.92,1.64-2.92,3.42-5.77,5-8.73,1.19-2.27,2.84-3.58,5.46-3.51l8.48-7.36c-1-.49-2.09-1.51-3-1.37a36.74,36.74,0,0,0-6.94,1.95c-2.65,1-3.85.48-3.17-2.54,0-1-.1-1.94-.16-2.91-2.73-3.1-2.46-4.34,1.48-6.84h0c-.76-4.7.09-5.74,7-8.62V434c.12-.46.24-.92.35-1.38h0c3.23-1.79,6.33-3,8.9,1.11a2,2,0,0,0,3.67-1.29c-.21-3.3-.24-6.7-1.17-9.82C441.25,419.88,440.79,417.82,443.08,415.49Zm-37,26.28c.8-.67,1.66-1.25,2.49-1.88l4.32-.61c-.32,2.5-.49,5-1,7.49a21.19,21.19,0,0,1-2.21,6.78,5.17,5.17,0,0,1-4.28,1.93c-1.08-.17-2.32-2.12-2.69-3.49A9.42,9.42,0,0,1,406.06,441.77Zm4.11,30.7c-.11.18-.23.35-.35.52a61.64,61.64,0,0,1-5.91,3.55c-2.31,1.08-4.68,2.68-7.28.12-.65-.64-2.35-.2-3.8-.27a6.45,6.45,0,0,1,.19-2.07c2-3.92,3.8-7.91,6.07-11.65A5.25,5.25,0,0,1,403,460.8c3.78,0,7.56.38,11.34.62l.74.27C416.32,465.17,414.13,470,410.17,472.47Z"/><path d="M333.39,471.2a19.23,19.23,0,0,0-6.77.82c-4.38,1.32-5.12,1-6.2-3.53-.19-.79-.38-1.57-.56-2.36L331,459.91c-1.93-.71-3-1.18-4.18-1.52-3.37-1-6.83-1.81-10.11-3.09-1.3-.51-2.19-2.06-3.27-3.14l3.63-3.27a43.11,43.11,0,0,0,5.87-2c.56-.27,1-2.2.69-2.61-4-4.59-8.91-7.37-15.19-7.54a6.52,6.52,0,0,1-3.94-1.45c-3.57-3.25-6.91-6.74-10.33-10.14-.61.37-.64.11-.54-.08a3.31,3.31,0,0,1,.65-.8c3.25-2.9,5.53-5.92,2.57-10.46-1.12-1.73.06-2.75,1.8-3.69,1.26-.67,2.18-2.26,2.9-3.62.51-1,.36-2.26.62-3.39,1.05-4.54.46-5.63-4.28-5.19-6.38.6-12.71,1.81-19,2.93-2.14.38-2.39,2.32-.49,3.84a82.85,82.85,0,0,0,8.13,5.86c2.56,1.57,4.3,3.46,4.44,6.56l-.18,3.77-4.3,8.6c-3.62,3.41-3.8,4.39-1.47,8.19,0,.22-.06.44-.07.66-1.53,3-3.77,2.65-6.09,1.16-3.21-2.05-6.22-4.44-9.52-6.32a41.67,41.67,0,0,0-8-3.28c-.9-.28-2.12.41-3.2.65a15.3,15.3,0,0,0,.87,3.05c2.46,4.78,7.14,6.57,11.69,8.57,1.12.5,1.94,1.67,2.9,2.53-1,.84-1.93,2-3.11,2.46-5.85,2.23-8,5.06-7.78,11,.14,4.56,1.71,5.47,5.55,3.13,2-1.22,4-2.54,6.4-4.1.34,1.57.58,2.53.76,3.51.52,2.79,2.58,3.76,4.52,2.25,4.68-3.64,9.81-2.63,14.95-2.38,2.07.36,4.14.81,6.23,1.08,3.78.47,7.58.84,11.38,1.25h0l.34.56.8,2.37c.26.78.53,1.57.79,2.36h0l1.08,7.06c.24,1.83-.14,4.46.9,5.28s3.73.46,5.36-.2c3.28-1.34,6.35-2.55,10-1.43,2.32.71,5.16-1.41,5.38-3.67C337.49,472.49,335.48,471.36,333.39,471.2Zm-27.23-22c0,.34-.07.69-.09,1s0,.71-.07,1.05a6.47,6.47,0,0,1-.42,2,5.15,5.15,0,0,1-2.5,2.84c-.71.25-1.95-1-3-1.65a26,26,0,0,0-3.95-2c-3.17-1-4.24-3-4.09-6.24.38-8.27.47-8.22,8.27-5.6,4.39,1.47,5.86,4.34,5.8,8.54.21-.83.41-1.65.62-2.48C306.56,447.58,306.36,448.4,306.16,449.23Z"/><path class="cls-1" d="M248.12,413.83a47.84,47.84,0,0,1,.86-23.35c3.62-.65,5.66-3.18,7.64-6,4.1-5.9,6.83-5.71,10.12.78,2.29,4.52,4.22,9.23,6.19,13.9a24.73,24.73,0,0,1,.91,15.64,6.86,6.86,0,0,1-1.8,3.27c-2.89,2.65-5.71,5.53-9.06,7.46-1.89,1.1-4.8.8-7.18.51-.86-.11-2.16-2.06-2.07-3.06s1.54-2.31,2.65-2.65c7.67-2.4,10.06-6.18,8.73-14.29-.09-.56-.22-1.11-.43-2.13l-1.8,2.24c.13-1.71.29-3.42.37-5.14.26-5.48-1.15-6.45-6-4.23-3.2,1.47-4.94,5.11-4.22,9.19.63,3.54,3.25,4.41,6.4,4.41C256.5,414.16,251.42,415.71,248.12,413.83Zm18.46-25.29-.72,0a17.89,17.89,0,0,0-.17,3.17c.88,7.31,1.77,14.61,2.81,21.89.11.74,1.23,1.34,1.88,2,.59-.87,1.81-1.85,1.67-2.59-1.33-7.54-2.87-15-4.42-22.53A7.78,7.78,0,0,0,266.58,388.54Z"/><path d="M435.56,406.8l-2.17-1-4.5.19,4.49-.2h0Z"/><path class="cls-1" d="M413.15,346.18c4.15-1.51,8.32-2.94,12.42-4.58,1.42-.57,2.54-1.26,3.19.77a31.74,31.74,0,0,0-.18,5.75c.72,5-.12,9.2-4.19,12.69-1.22,1.05-1.66,3.28-1.95,5.05-.53,3.19-.67,6.45-1,9.67-.18-1.45-.35-2.91-.55-4.37-.62-4.5-1.58-5.38-6-5.54-8.72-5-11.35-14.21-15.15-22.54-.78-1.7-.61-3.85-.87-5.79l1.08-.35,5.22,7.47A27.07,27.07,0,0,0,407,347C410,350.3,411.08,350.14,413.15,346.18Z"/><path d="M424.49,391.71c-.07.66-.13,1.21-.21,1.64.07-.44.13-1,.2-1.65Z"/><path d="M433.39,405.76l-4.5.19,4.49-.2Z"/><path class="cls-1" d="M391.31,352.92a7.43,7.43,0,0,1-.39,1.32c-2.78,5.69-1.11,9.3,4.91,11.32a4.56,4.56,0,0,1,2.42,3.11,78.15,78.15,0,0,1,.63,9.32,4.74,4.74,0,0,1-.46,2.68c-1.9,2.78-3.69,5.74-6.1,8a8.19,8.19,0,0,0-2.72,6.39,5.11,5.11,0,0,1-.44,2.69,3.13,3.13,0,0,1-2.37,1.35,2.6,2.6,0,0,1-1.41-2.16c.77-4.82,2.26-9.58,2.55-14.41a29.15,29.15,0,0,0-1.5-12.21c-2.3-5.76-5.43-11.17-6.19-17.47C383.92,355.07,387.61,355.59,391.31,352.92Z"/><path class="cls-1" d="M271.63,347.73c-.57,4.21-1.33,8.41-1.65,12.64-.21,2.81-.67,6.28,2.63,7.63s4.79-1.92,6.7-3.78c1.4-1.36,2.77-2.75,4.15-4.12l4.24-5.64a59.35,59.35,0,0,1,5.2-6.73c1.73-1.72,3.57-.89,3.28,1.53-.81,6.82-.88,14-5.26,19.8-5.77,7.71-17.57,7.69-23.56.13-.29-.37-.94-.44-1.42-.64-.13-2.82-.25-5.64-.38-8.45,1.06-2.5,2-5,3.21-7.48C269.58,350.92,270.67,349.35,271.63,347.73Z"/><path class="cls-1" d="M310.57,315c1.05-1.1,1.94-2.91,3.18-3.18,4.46-1,8.3-2.71,10.83-6.71.21-.34.76-.45,1.35-.78.43.6,1.16,1.15,1.11,1.63-.4,4.55,2.53,5.36,6.11,6.41,6.15,1.81,9.62,7.31,13.88,11.61.45.45-.5,2.28-.8,3.47-1.06-.32-2.46-.32-3.1-1-2.71-2.93-5.13-6.12-7.83-9.05-.3-.34-2.12,0-2.46.55-.57.9-.52,2.2-.73,3.33l-2.44-1.72c-2.38,4.36,2.21,9.41-1.41,13l-8.7-9.44-.82-.32-1.41-1.7-1.69-1.06.05,0Z"/><path class="cls-3" d="M391.31,352.92c-3.7,2.67-7.39,2.15-11.07,0l-10.54-14c-.17-.63-.35-1.27-.52-1.91,3.34-2.68,6-5.81,7.11-10.62a14.31,14.31,0,0,1,2.92,2.38c4.59,6.6,9.61,12.8,16,17.73a5.45,5.45,0,0,1,.5.46Z"/><path class="cls-1" d="M429.57,345.05c1.68,2,3.76,3.82,5,6.08,3.76,7,7.38,14.09,8.84,22.06.66,3.64,1.57,7.39,5,9.55a10.44,10.44,0,0,1,5,8.24c.26,2.29.61,4.57.92,6.86l-8.93.43c-.1-1.17-.21-1.46-.12-1.61,3.36-5.48,3.07-5.22-1.15-10.12a30.14,30.14,0,0,1-5.34-10c-2.71-8.1-4.91-16.37-7.29-24.57C430.8,349.68,430.2,347.36,429.57,345.05Z"/><path class="cls-1" d="M416.87,378.42c-3.38,1.37-4.95,4.15-6.26,7.37-1.72,4.24-2.82,9.6-6,12.12s-3.55,5.23-4.59,8.34c-.93,2.79-3.57,3.17-6.09,2.18a3.06,3.06,0,0,1-1.53-2.53c1.17-5,3.84-9,8.86-10.68,2-.69,2.31-1.51,2.13-3.5a40.1,40.1,0,0,1,.33-8.26c.35-3,1.2-5.7,5.23-5.6.82,0,1.67-1.56,2.5-2.4A4.41,4.41,0,0,0,416.87,378.42Z"/><path d="M234.8,363.71c-.44,4.13-.76,8.27-1.37,12.37-.45,3-1.78,3.17-4.63,2.18-6.16-2.13-9-5.59-6.47-12.21.44-1.14.15-2.54.43-3.78.78-3.47,4.2-6.32,7.09-6C233.07,356.57,235.12,359.54,234.8,363.71Z"/><path d="M265.56,360.1c.13,2.81.25,5.63.38,8.45.87,1.78,1.86,3.52,2.56,5.37s1.86,4,1.55,5.85c-.45,2.62-3,2.94-4,.47-2-4.88-5-5-9.34-3.6-3.73,1.18-7.91-2.44-7.49-6.37a5.75,5.75,0,0,1,3.37-4c3.81-1,7.62-1.61,10.15-5.19C263.18,360.43,264.58,360.41,265.56,360.1Z"/><path class="cls-1" d="M395.74,346.92a5.45,5.45,0,0,0-.5-.46c-6.42-4.93-11.44-11.13-16-17.73a14.31,14.31,0,0,0-2.92-2.38c-1.08,4.81-3.77,7.94-7.11,10.61-.35-.42-.7-.84-1-1.27.29-1,.28-2.31.94-2.86a15.38,15.38,0,0,0,5.57-8.7c.14-.62,2.78-1.39,3.77-1,2.48,1.08,5.31,2.33,6.87,4.37,3.95,5.15,7.34,10.73,10.78,16.25C396.51,344.49,395.88,345.86,395.74,346.92Z"/><path d="M393.3,314.6c.11-5.65,2.61-7.51,8.26-6.1a41.74,41.74,0,0,1,6.32,1.71c2.89,1.22,3.4,3.6,1.64,6.2-1.93,2.86-8.37,5.28-11.81,4.44C394,319.94,393.22,318.81,393.3,314.6Z"/><path d="M324.22,355.5c-1.81.65-3.66,2-5.41,1.82-6.62-.5-9.91,3.64-12.56,8.56-.48.89.32,3,1.2,4,1.41,1.46,3.48,2.25,5.07,3.58a5.16,5.16,0,0,1,1.94,3c.07,1-.95,2.13-1.49,3.2a15.82,15.82,0,0,1-2.74-1.53,11.73,11.73,0,0,1-1.73-2.36c-1.81,1.78-3.47,3.43-5.13,5.08-.09,2.65,0,5.33-.35,7.95-.13,1.06-1.14,2-1.75,3-.94-.82-2.26-1.47-2.76-2.5-1.44-3-2.43-6.2-3.85-9.21-1-2.2-1-3.69,1.06-5.4a7.6,7.6,0,0,0,2.44-4.66l.21-2.26c.1-1.08.19-2.15.27-3.22.05-.61.1-1.21.13-1.82.06-.82.11-1.65.16-2.47v-.08A75.62,75.62,0,0,0,297.28,338l-.2-.28c-.26-.36-.56-.75-.88-1.16-.1-.14-.21-.27-.32-.41-.33-.44-.66-.86-.93-1.24a3.42,3.42,0,0,1-.69-1.28.17.17,0,0,1,0-.1c1.85-2.22,4.22-1.24,6.35.08l1.49.36,6.12,1,.51-.87-2-2.87c-.42-.84-.84-1.68-1.25-2.52l-2.31-2.67-.52-.87,0-1c0-.35,0-.69,0-1,2.95-4.22,5-4.72,11.8-2.86l.79.83.64.55c.2.34.41.68.62,1a4,4,0,0,0,.4.42l2.56,3.23.53.71c2.58,2.25,3.34,6.3,1.45,10.05a32.24,32.24,0,0,1-4.24,5.83c-2.41,2.89-2.15,4.14,1.27,5.55.95.39,2.15.73,2.67,1.48A52.77,52.77,0,0,1,324.22,355.5Z"/><path d="M339.48,470.25c.41-.95.59-2.67,1.44-3.12a114.34,114.34,0,0,1,11.41-5.25c.66-.26,2,.4,2.6,1.05.31.35-.22,1.73-.71,2.41a132.54,132.54,0,0,1-8.08,10.73c-2.76,3.12-4.46,2.55-5.66-1.47C340.09,473.29,339.86,471.92,339.48,470.25Z"/><path class="cls-1" d="M379.07,498.73c-4.48.34-9,.84-13.45.94-1.42,0-2.87-1-4.31-1.58,5-2.76,10.06-5.55,15.12-8.27a13.28,13.28,0,0,1,3.53-1.3c.69-.14,1.9.05,2.14.49a3.45,3.45,0,0,1,0,2.51C381.18,494,380.09,496.33,379.07,498.73Z"/><path class="cls-1" d="M412.61,324.69a8,8,0,0,1,.5,2.65c-.91,5.42-1.95,10.82-2.95,16.23-3.64.35-4.66-2.33-5.75-4.93-3-7.21-2.13-9.46,5-12.56Z"/><path class="cls-3" d="M259.41,410.36c-3.15,0-5.77-.87-6.4-4.41-.72-4.08,1-7.72,4.22-9.19,4.87-2.22,6.28-1.25,6,4.23-.08,1.72-.24,3.43-.37,5.14-.07.19-.16.37-.24.55l-.57.74v0l-.58.78Z"/><path class="cls-3" d="M416.87,378.42a4.41,4.41,0,0,1-5.45-3c-.13-.67-.25-1.33-.39-2-1-4.87-.71-5.48,3.92-7.85,4.39.16,5.35,1,6,5.54.2,1.46.37,2.92.55,4.37Z"/><path d="M365.09,483.92c-3.55,3.26-6.67,6.34-10.07,9.07-.63.5-2.95,0-3.56-.78a20,20,0,0,1-3.43-6.32c-.26-.83,1-2.47,1.94-3.23.64-.52,2-.29,3-.18C356.57,482.85,360.14,483.32,365.09,483.92Z"/><path d="M368.14,335.69c.34.43.69.85,1,1.27.17.65.35,1.29.52,1.92,0,2.18.09,4.36-.08,6.53a10.3,10.3,0,0,1-1,2.74,15.84,15.84,0,0,1-2.61-1.29c-4.29-3.13-5.4-7.13-3-12l.49-.57Z"/><path class="cls-1" d="M290.19,396.55c-.27-.47-1.05-1.2-1.05-1.93,0-4.14.06-8.27.23-12.4a8.33,8.33,0,0,1,.93-2.39c.73.46,1.84.74,2.11,1.39,1.62,3.81,3.16,7.67,4.41,11.62.23.71-.77,2.34-1.6,2.75C293.94,396.23,292.31,396.19,290.19,396.55Z"/><path class="cls-1" d="M339.46,358.28c-5.23-.47-8.51-2.95-11.43-6a2.8,2.8,0,0,1-.27-2.67,3.66,3.66,0,0,1,3-.91,80.73,80.73,0,0,1,9.93,4.64,3.48,3.48,0,0,1,1.27,3.13C341.58,357.46,340,357.93,339.46,358.28Z"/><path class="cls-1" d="M359.07,495c4.26-6.65,13.32-10.67,17.49-7.55C370.55,489.52,366.32,494.39,359.07,495Z"/><path d="M370,457.4c-1.35,1.75-2.37,3.79-4,4.88-.81.53-2.94-.47-4.2-1.23-1.6-.95-1.64-2.39-.1-3.63a27.07,27.07,0,0,1,3.53-2.73c.79-.45,2.13-.82,2.76-.45C368.76,454.73,369.12,456,370,457.4Z"/><path class="cls-1" d="M287.67,337.8a12.4,12.4,0,0,1,.7-3c1.05-2.06.79-3.35-1.5-4.32s-2.72-2.65-.74-4.54l9.87-9.44c-1.2,2-2.1,4.28-3.64,6-3.3,3.59-3.52,4.35-1,8.33a2.36,2.36,0,0,1,0,2.09C290.23,334.57,288.91,336.16,287.67,337.8Z"/><path class="cls-1" d="M428.19,373c0,.54-.09,1.07-.13,1.6-.18.83-.36,1.66-.55,2.5,0,1.07,0,2.14,0,3.22-.39,1-.77,2.08-1.16,3.11l-.33,2.88c-.47,1.83-1,3.66-1.42,5.5l-.08-.08c-2.13.32-2.89-1.11-2.54-2.7,1.14-5.28,2.53-10.51,4-15.72C426,373,427.4,373.06,428.19,373Z"/><path class="cls-1" d="M404.22,427.29c-.18,4.31-2,7-4.05,6.3a5.53,5.53,0,0,1-3.05-3.69c-.41-2.07,2.95-4.85,5.15-4.43C403.2,425.65,403.9,427,404.22,427.29Z"/><path class="cls-1" d="M394.26,415.87a44.25,44.25,0,0,1-2.51,5.81c-.26.44-2.67.32-2.74.07-.52-1.79-1.52-4.25-.74-5.37s3.44-1.1,5.27-1.56Z"/><path class="cls-1" d="M325.33,372.45c-2.51-3.05-2.13-6.61,1.2-11C329.11,364.4,328.52,369.85,325.33,372.45Z"/><path class="cls-1" d="M402.88,414.64c-.29,2.13-.82,4.23-1.26,6.35L399,420.1c-1.89-2.56-2.26-5,.67-7.05a3.1,3.1,0,0,1,2.43-.43C402.55,412.78,403,414,402.88,414.64Z"/><path class="cls-3" d="M372.51,371.52a17.19,17.19,0,0,1-3.33,1.59c-1.16.3-3.29.58-3.52.13a7,7,0,0,1-.57-4.47c.12-.54,2.39-1.11,3.42-.79,1.74.53,3.26,1.76,4.88,2.69Z"/><path class="cls-1" d="M307.42,399.7a82.54,82.54,0,0,1,5.33,6.53c.35.51-.61,1.91-1,2.9-.73-.48-1.76-.79-2.15-1.47-1.31-2.27-2.4-4.66-3.57-7Z"/><path class="cls-1" d="M413.16,405.85c-.22,2.58-.45,5.17-.68,7.75l-3.93-1.93h0c0-.37.08-.72.14-1.07,0-.18.06-.35.1-.52a8,8,0,0,1,.26-1,3.75,3.75,0,0,1,.17-.47,6.05,6.05,0,0,1,1-1.76c.08-.1.17-.19.26-.29a3.13,3.13,0,0,1,.26-.25,1.86,1.86,0,0,1,.27-.22,4.72,4.72,0,0,1,.71-.5c.15-.09.32-.18.49-.26s.35-.16.54-.23Z"/><path class="cls-1" d="M309.87,393.42q-.54-5.93-1.09-11.86l1.48-.15,1.11,11.86Z"/><path class="cls-3" d="M372.49,423.47l-5.91-.77.06-1.18,8.53-3.56C374.28,419.79,373.38,421.63,372.49,423.47Z"/><path class="cls-1" d="M388,413.8l-2.66-2.47,3.14-3.18c.58.72,1.74,1.55,1.63,2.14C389.91,411.38,389,412.33,388,413.8Z"/><path class="cls-1" d="M390.18,430.34l-3.28,4.29c-.56-.87-1.77-1.95-1.56-2.57a9.39,9.39,0,0,1,2.52-3.26A15.16,15.16,0,0,1,390.18,430.34Z"/><path class="cls-1" d="M449.8,406.87c-.57,1.34-1.15,2.67-1.73,4l-3-1.94,0-1Z"/><path class="cls-4" d="M319.57,326.32,317,323.09l1.73-.39.81.32h0v1.65C319.57,325.22,319.57,325.77,319.57,326.32Z"/><path class="cls-1" d="M452.54,404.48c-.5.37-1,.75-1.48,1.13Z"/><path class="cls-4" d="M315.69,319.91l-.05,0c-.1.38-.2.77-.29,1.16l-.79-.83Z"/><path class="cls-1" d="M422.36,313l-.91,1.36Z"/><path class="cls-1" d="M286.67,339.63l.8-1.15Z"/><path class="cls-1" d="M262.07,407.42l.57-.74Z"/><path class="cls-1" d="M261.49,408.23l.58-.78Z"/><path class="cls-3" d="M281.26,247.07c8.2-.69,15.39,2.33,22.39,6.07a6.47,6.47,0,0,1,2,1.27,11.1,11.1,0,0,1,1.22,2.52c-1,.18-2.23.79-3,.45-1.77-.76-3.23-2.27-5-3-3.33-1.35-6.78-2.46-10.24-3.48-2.66-.79-5.41-1.29-8.25-1.94.09-.4.25-1,.4-1.69A.87.87,0,0,1,281.26,247.07Z"/><path class="cls-1" d="M357.56,304.35c-2.86-.2-5.76-.23-8.58-.71a3.78,3.78,0,0,1-2.45-2.29,15.31,15.31,0,0,1-.13-5.15c.16-1.77,1.18-2.41,2.91-1.54,2.66,1.33,5.35,2.58,8,3.95a6.18,6.18,0,0,1,2.19,1.67c.62.85,1.51,2.25,1.2,2.89-.42.87-1.86,1.25-2.87,1.84C357.73,304.79,357.65,304.57,357.56,304.35Z"/><path d="M263.05,494.53a48.91,48.91,0,0,0,5-1.36,34.5,34.5,0,0,0,4-2.14,28.41,28.41,0,0,0-3-3.28,14.56,14.56,0,0,0-11.37-3.08c-.77.09-2.27-.46-2.34-.9-.61-3.71-3.77-3.73-6.28-4.34-3.78-.92-7.66-1.41-12.5-2.25,1.48-2.42,2.76-4.85,4.38-7a19.64,19.64,0,0,1,3.64-3.18c2-1.61,3.67-1.5,4.45,1.17.62,2.14,2,2.64,4,3,3.46.64,6.81,1.82,10.2,2.79s7,2.51,10.53,2.88c2.13.23,4.62-1,6.61-2.16s3.56-1.68,5.39-.26c4.37,3.37,7.25,7.52,6.15,13.36-.22,1.22-1.08,3.11-1.94,3.29-8.54,1.83-17.14,3.37-25.74,4.94-.32.06-.73-.37-1.1-.58Z"/><path class="cls-3" d="M241.12,491.75c-2.88.07-5.15-1.69-6.84-3.5-.87-.94-.52-3.46-.07-5.09.56-2,2.15-1.74,3-.17C238.62,485.69,239.72,488.57,241.12,491.75Z"/><path class="cls-4" d="M255.1,492.49l3.8,1c-.08.38-.16.76-.25,1.14l-3.88-.74Z"/><path class="cls-2" d="M435.07,454.29c-1-.49-2.09-1.51-3-1.37a36.74,36.74,0,0,0-6.94,1.95c-2.65,1-3.85.48-3.17-2.54a13,13,0,0,0,3-1.45c3.24-2.71,6.82-1.66,10.1-.63C437.65,451.06,436.13,452.92,435.07,454.29Z"/><path class="cls-2" d="M430.29,434l-7,8.62C422.52,437.87,423.37,436.83,430.29,434Z"/><path class="cls-2" d="M423.28,442.58q-.73,3.42-1.48,6.84C419.07,446.32,419.34,445.08,423.28,442.58Z"/><path class="cls-3" d="M355.37,408.74c-.88-.77-2.51-1.56-2.5-2.31.08-3.56.62-7.11,1-10.66l1.79-.77c.56,1.12,1.11,2.23,1.61,3.21,4.43-1.65,12.11,0,14.73,3.51,1,1.29.84,3.41,1.27,5.42l-4.13.36c2.89,2.75,3.11,5-.18,7.07-.92.59-1.1,2.31-1.44,3.1-2.58-1.06-4.79-2-7-2.88-2.64-1-3.5-3.83-1.7-5.59l1.31,1.6,1.43-.28,3.76-3.06c-1.52-.88-3-1.79-4.59-2.62a4.23,4.23,0,0,0-1.36-.17C354.94,404.14,354.94,404.14,355.37,408.74Z"/><path class="cls-3" d="M365.31,361c-2.21,4.35-6,7.28-9.76,10.25a2.61,2.61,0,0,1-2.38-.47c-.31-1-.42-2.55.15-3.12a32.51,32.51,0,0,1,4.78-3.32c2.13-1.44,4.23-2.91,6.35-4.37C364.73,360.3,365,360.64,365.31,361Z"/><path class="cls-2" d="M360.1,410.8l-1.31-1.6-3.42-.46c-.43-4.6-.43-4.6,4-4.07a4.23,4.23,0,0,1,1.36.17c1.56.83,3.07,1.74,4.59,2.62l-3.76,3.06Z"/><path class="cls-3" d="M371.81,377.83l4.37,3.92-2.83,2.43a30.28,30.28,0,0,1-2.86-3.68C370.28,380.14,371.11,379.19,371.81,377.83Z"/><path class="cls-3" d="M355,418.08l7.62.63a16,16,0,0,1,.15,2.55,16.26,16.26,0,0,1-5.86.43C356.1,421.55,355.69,419.56,355,418.08Z"/><path class="cls-2" d="M415.05,461.69q-2.43,5.38-4.88,10.78c-.11.18-.23.35-.35.52a61.64,61.64,0,0,1-5.91,3.55c-2.31,1.08-4.68,2.68-7.28.12-.65-.64-2.35-.2-3.8-.27a6.45,6.45,0,0,1,.19-2.07c2-3.92,3.8-7.91,6.07-11.65A5.25,5.25,0,0,1,403,460.8c3.78,0,7.56.38,11.34.62Z"/><path d="M410.17,472.47q2.44-5.39,4.88-10.78C416.32,465.17,414.13,470,410.17,472.47Z"/><path class="cls-2" d="M306.15,449.23c0,.34-.06.69-.08,1s0,.71-.07,1.05a6.47,6.47,0,0,1-.42,2,5.15,5.15,0,0,1-2.5,2.84c-.71.25-1.95-1-3-1.65a26,26,0,0,0-3.95-2c-3.17-1-4.24-3-4.09-6.24.38-8.27.47-8.22,8.27-5.6C304.74,442.16,306.21,445,306.15,449.23Z"/><path class="cls-2" d="M412.87,439.28c-.32,2.5-.49,5-1,7.49a21.19,21.19,0,0,1-2.21,6.78,5.17,5.17,0,0,1-4.28,1.93c-1.08-.17-2.32-2.12-2.69-3.49a9.42,9.42,0,0,1,3.39-10.22c.8-.67,1.66-1.25,2.49-1.88Z"/><path class="cls-3" d="M266.58,388.54a7.78,7.78,0,0,1,1.05,2c1.55,7.5,3.09,15,4.42,22.53.14.74-1.08,1.72-1.67,2.59-.65-.66-1.77-1.26-1.88-2-1-7.28-1.93-14.58-2.81-21.89a17.89,17.89,0,0,1,.17-3.17Z"/><path class="cls-2" d="M433,426.3c-1.57-.39-3.31-.49-4.69-1.25-2.66-1.46-4.44-1-5.9,2.1-.78,1.66-1.14,3.53-2.07,5.08-1.6,2.64-3.54,2.65-5.63.29-.61-1.53-1.23-3-1.84-4.58,2.5,2,4.32,1.78,5.25-1.56a7.36,7.36,0,0,1,.81-1.51c2.37-4.28,1.57-5.87-3.33-6.63.31-.48.5-1.19.93-1.41,3.74-1.95,5.64-5,6.64-9.09.85-3.51,3.22-4,5.76-1.79l-.12,3.15c.15.79.31,1.59.46,2.38,1.19,3.22,2.54,6.4,3.49,9.68C433.19,422.76,432.91,424.58,433,426.3Z"/><path class="cls-1" d="M418.89,424.87a7.36,7.36,0,0,0-.81,1.51c-.93,3.34-2.75,3.57-5.25,1.56l0,0c-.93-2.61-2.31-5.2-.31-7.92l3.07-1.74C420.46,419,421.26,420.59,418.89,424.87Z"/><path class="cls-2" d="M427.75,383.19l-1.44.21c.39-1,.77-2.07,1.16-3.11C427.56,381.25,427.65,382.22,427.75,383.19Z"/><path class="cls-2" d="M318.74,322.7l-1.73.39a4,4,0,0,1-.4-.42c.06-.37.11-.74.16-1.11l.55-.56h0Z"/><path class="cls-2" d="M317.33,321c-.19.18-.37.37-.55.56h0l-.78.09-.64-.55c.09-.39.19-.78.29-1.16l1.68,1.06Z"/><path class="cls-4" d="M316.78,321.56c-.06.37-.11.74-.17,1.11-.21-.34-.42-.68-.62-1l.78-.09Z"/><path class="cls-1" d="M360.1,410.8l1.43-.28Z"/></svg>