<svg id="frame15" xmlns="http://www.w3.org/2000/svg" viewBox="0 0 720 720"><defs><style>.cls-1{fill:#a62c45;}.cls-2{fill:#82182e;}.cls-3{fill:#450d13;}.cls-4{fill:#977c35;}</style></defs><title>Frame 15</title><rect width="720" height="720"/><path class="cls-1" d="M340.6,720a15.58,15.58,0,0,0,1.07-3.47c2.4-34,5.16-68,7-102.07,1.34-25.31-.32-50.63-2.15-75.89-1.15-15.91-2.64-31.8-3.82-47.71-.51-6.94.33-8-9.34-6.23l-2.36,0-2.64.81-4.81.77-2,.32-2.24-.81a65.52,65.52,0,0,0,6.53-2.9c2.3-1.31,4.32-3.09,6.58-4.46,4.17-2.54,10.9-2.4,13.85.2a18.14,18.14,0,0,0,5.39-12.34c.28-4.12,2.07-5.42,6.17-5.05,2.18.2,4.36.42,6.55.45,6.25.09,6.25,0,7.36,6q-2.32,7.19-4.63,14.37c-5.21,10.4-8.15,21.42-5.27,32.84,1.84,7.28,5.63,14.08,8.71,21a33,33,0,0,0,3.4,5l0,0v2.57c-.3,2.83-1,5.7-.83,8.5,1.52,23.65,2.26,47.31,1,71-1,18.1-2.16,36.2-3.3,54.29-.85,13.37-1.78,26.73-2.65,40.1a17.92,17.92,0,0,0,.22,2.72Z"/><path class="cls-2" d="M247.76,171.25l-.15-1.35c-.09-1.71,0-3.45-.29-5.14-1.31-8.85-1.91-17.69,0-26.53,1-4.86,2.95-9.21,7-12.45a13.22,13.22,0,0,0,2.15-3l.22-.19a.5.5,0,0,0,.36-.42c.07-.13.14-.25.22-.37,4.05-1.11,8-2.56,12.16-3.22,3.26-.51,6.68,0,10,0,15.4,4.8,29.51,11.75,40.25,24.29,0,.48.05,1,.07,1.44-.88-.11-2.06.11-2.58-.37-2.11-2-3.94-4.21-6-6.19-6.42-6.07-14.36-9.71-22.27-13.2-8.3-3.66-17-6.56-26-1.91-6.81,3.52-12.76,7.81-14.36,16.13-1.74,9-.43,17.93.75,26.82.79,6,2.29,12,3.57,17.91,1,4.51,2,9,3.14,13.48,1.25,4.92,2.62,9.8,4,14.68a7.56,7.56,0,0,0,1.46,2l.85-.24a27.86,27.86,0,0,0,0-2.89c-.25-2.48.69-3.94,3.3-3.53,3,.48,4.21-1.14,4.83-3.67a30.77,30.77,0,0,0-.62-16.1,13.75,13.75,0,0,1-.66-5.4c.61-4.45,1.82-8.81,2.39-13.26.38-3,.8-5.36,4.42-6,1.05-.18,2.13-1.72,2.66-2.88a18.24,18.24,0,0,0,.91-4.37c.86-4.49,4.73-6.51,8.57-4.59a7.91,7.91,0,0,0,2.83.24c-.08-.95.17-2.11-.28-2.83-2-3.24-4.39-6.26-6.3-9.55-.93-1.61-1.11-3.65-1.63-5.49,2,.38,3.94.69,5.87,1.2a3.88,3.88,0,0,1,1.58,1.3c7.74,8.75,14.9,17.82,18.87,29.11,1.16,3.27,3.6,6.45,7.84,7.11a19.67,19.67,0,0,1,5.74,1.74c2.85,1.43,4.95.77,5.22-2.4.24-2.71-.27-5.48-.45-8.23-.08-1.25-.18-2.5-.27-3.76l.85-.26,3.73,4.51c.55-4.06-5.48-13.37-11.9-19.19l0-1c7.87,6.09,12.85,14.43,17.65,22.89a95.34,95.34,0,0,1,11.3,31.14,9,9,0,0,0,.8,2.64c1,2,2.43,2.22,3.54.16,1.48-2.75,2.61-5.67,4-8.44,2-3.88,4.27-7.64,6.23-11.55s3.73-7.93,5.56-11.91a15.16,15.16,0,0,1,9.47-8.14c1.7-.54,4.3.25,5.94,1.29,4.15,2.61,4.29,2.65,6.66-1.54,4.5-7.92,8.88-15.94,13.84-23.56,4.39-6.74,9-13.51,16.29-17.62l.33.41a83.62,83.62,0,0,0-16.59,20.23C399.75,148,394.84,157,390.05,166a11.18,11.18,0,0,0-.77,5.72c.19,2.75,1.15,5.45,1.3,8.2.57,11,.94,21.93,1.42,32.9a10.6,10.6,0,0,0,.64,3.71c.28.63,1.41.89,2.15,1.31.37-.64,1.07-1.3,1-1.94-.2-6.79-.34-13.59-.86-20.36-.29-3.78-1.36-7.5-1.82-11.29-.12-1,.73-2.15,1.14-3.23a11.35,11.35,0,0,1,2.72,2.23c.67,1,.71,2.43,1.24,3.57.35.75,1,1.8,1.66,1.86s1.57-.75,2.14-1.38.66-1.5,1.13-2.13c2.87-3.82,4.32-8.68,9.08-11.1a9.73,9.73,0,0,0,4.6-4.69c2-5.58,7.07-8.29,11.1-11.43,5.65-4.41,11.92-7.78,14.78-14.92,1-2.47,2.65-5.1,5.77-4.71,3.3.41,2.17,3.79,3.05,5.85.38.92,1.19,2.32,1.85,2.34,3.89.15,8,.58,10.44-3.65.35-.6,1.14-1,2.32-1.89.25,1.77.69,3,.53,4.08-.81,5.57-1.64,11.15-2.72,16.67-1.71,8.71-3.59,17.39-5.47,26.06-1.29,6-2.87,11.84-4,17.82-.32,1.75.67,3.7.79,5.57.07,1.15,0,2.94-.65,3.4-3,2-6.19,3.55-9.32,5.28.3-1.12.57-2.24.9-3.35,2.42-8.09,1.33-10.74-5.74-15.16-2.66-1.67-4.16-.92-5.61,1.48-2.08,3.43-4.36,6.73-6.43,10.16-2.47,4.08-5.39,8-7,12.44-1.06,2.85-1.95,4.47-5,4.34l-.17-1.18c-.18-.53-.37-1.07-.56-1.6-1.46-1.46-1.49-5.13-4.8-3.77-7.66,3.16-15.11,6.62-21.58,12.12-4.45,3.79-.71,8-1.77,11.93a6,6,0,0,0,.69,3.56c.27.63,1.19,1,1.88,1.44,3.56,2.14,7.17,4.19,10.69,6.39a21.16,21.16,0,0,1,2.9,2.64l-3.23,3.21a29.82,29.82,0,0,0-3.93-2.66c-3.22-1.53-6.59-2.78-9.81-4.33-1.06-.51-2.4-1.48-2.64-2.47A60.77,60.77,0,0,1,382,243.2c-.18-4.13,1.17-8.61-5.83-8.79,1.15-1.56,2-2.5,2.59-3.55,1.73-3,3.92-5.85,4.92-9.07,1.85-6,2.49-8.93-5.91-8.5-4.52.23-6.78-2.08-7.17-6.58a69.88,69.88,0,0,0-.85-9c-.36-1.64-1.56-4-2.82-4.34-2.52-.63-3.4,1.78-3.76,3.94-1.1,6.55-1.45,13.06.52,19.56,1,3.18,1.58,6.47,2.4,9.91-2.92,1-2.86,2.89-2.24,5.47a16.65,16.65,0,0,1,.2,7.09c-.41,1.88-2.15,3.41-4,1-2.45-3.07-5.93-3.45-9.35-3.67-4.23-.26-6,1.48-6.57,5.73a16.55,16.55,0,0,1-.77,2.45,11.31,11.31,0,0,1-2.2-1.44c-1.63-1.84-3.4-1.89-5.84-1.68-6.21.53-8.78,5.9-13.11,8.87-2.83-1.49-2.62-3.77-1-5.8,3.63-4.61,7.38-9.16,11.37-13.48,2.43-2.62,5.45-2.64,8.48-.53a5.48,5.48,0,0,0,3.12,1.12c2.6-.18,7.45-6.14,7.4-8.78-.07-3.77-1.72-5.28-5.47-6.2-3-.74-5.24-.39-7.35,2.07-1.31,1.54-3.3,2.49-5,3.71.47-5.22-1.23-9.29-6.6-10.71-6-1.58-8.67-6.61-12.23-10.77-.47-.55-.42-1.53-.79-2.21-.68-1.25-1.21-3-2.3-3.55-3.76-2-5.57-5.06-7.22-8.86-2.23-5.14-5.41-9.87-8.37-14.67-.45-.72-1.89-.84-2.87-1.23a18.74,18.74,0,0,0-.4,2.86c.08,5.65.84,11.39.13,16.94-.51,3.92-2.52,8.18-6.81,9.72a7.23,7.23,0,0,0-5.26,7.28c-.11,3.81.29,7.62.27,11.44,0,5.43-.1,11.1-3.42,15.57-2.5,3.37-3,6.26-1.27,9.87,1,2.08,1.73,4.27,2.59,6.4l-1.35.88c-1.16-1.22-2.71-2.26-3.42-3.71-4.16-8.5-8-17.13-12.25-25.61a5.08,5.08,0,0,0-3.7-2.51c-1.93,0-5,5.54-4.11,7.24,2.13,3.93,4,8.3,7.15,11.31A67.79,67.79,0,0,1,274,254.37a6.6,6.6,0,0,1,.24,2.43,7.8,7.8,0,0,1-2.52-.54c-1.58-.93-3-2.1-4.52-3.17-7.29-5.64-14.41-11.51-21.93-16.82A85,85,0,0,0,231.6,229c-1.3-.61-3.21.12-4.84.23a21.25,21.25,0,0,0,.69,4.48c.46,1.26,1.55,2.27,2.31,3.42,2.22,3.39,4.68,6.68,2.92,11.17a3.26,3.26,0,0,0,.27,2.65c2.47,3.44,4.46,7.72,7.8,9.93,7.08,4.68,14.89,8.26,22.39,12.29a14.24,14.24,0,0,1,2.27,2.1c.49.7,1,2,.73,2.43a3.09,3.09,0,0,1-2.58,1.06c-4.24-1-8.65-1.84-12.57-3.65-5.93-2.73-11-7.37-17.77-8.3a3.77,3.77,0,0,1-1.21-.65c-3.11-1.84-3.75-1.59-4.92,1.74a12.49,12.49,0,0,1-1.34,2.19,10.32,10.32,0,0,1-2.43-1.66c-1.24-1.5-2.25-3.19-3.37-4.8-2.56-3.68-6.11-7-7.47-11.1-2.42-7.29-7.87-9.81-14.29-10.8-6.92-1.08-12.76-3.09-17.12-9.14-1.28-1.77-5.14-2.18-7.85-2.27s-3.39,2.51-3.62,4.78c-.47,4.69-1.08,9.4-1.08,14.1,0,7.51,5.12,13.14,7.89,19.63.24.56,1.12.8,1.59,1.3,3.45,3.71,7.24,7.17,10.2,11.24,3.45,4.73,6,10.09,9.29,15,1.14,1.72,3.19,2.81,4.71,4.31,1,1,2.42,2.05,2.58,3.23.73,5.41,1.39,5.94,6.41,7.75,2.89,1.05,5.46,3.14,8,5.05a102.09,102.09,0,0,1,8,7c.81.76,1.85,2.14,1.62,2.89a4.12,4.12,0,0,1-2.76,2.07,8.94,8.94,0,0,1-3.74-.32c-5.62-1.13-11.19-2.58-16.85-3.43-9.13-1.38-18.25-3.06-27.59-2.1-3.92.4-3.94.64-3.63,4.69.19,2.36-.62,4.89-1.41,7.19-.55,1.59-1.87,2.91-2.79,4.37a10.67,10.67,0,0,0,1.8,13.82c5.2,4.57,10.45,9.11,16,13.25a12,12,0,0,0,6.78,1.86c5.54,0,11.08-.64,16.62-.65,1.74,0,4.48.75,5,1.92.66,1.53-.27,3.88-.87,5.76a5.62,5.62,0,0,1-2.17,2.64c-6.17,4.22-12.46,8.29-18.63,12.52-2.52,1.73-4.85,3.74-7.27,5.63-2.17,1.7-4.25,3.51-6.52,5.06-4.4,3-8.9,5.84-13.34,8.77-.21.15-.22.61-.32.91,3.23,1.21,6.37,2.44,9.56,3.57a96.84,96.84,0,0,0,9.85,3.23c6.68,1.59,7.85,3.33,6,9.93-1.18,4.23-.77,4.84,3.43,5.32a27.32,27.32,0,0,1,3,.71c-4.71,1.1-9.37,2.65-14.14,3.22-10.65,1.27-21.35,2-32,3.06a27.81,27.81,0,0,0-4.31,1.1l0,1.13c1.32.54,2.61,1.42,4,1.56,6.64.67,13.3,1.47,20,1.61,10,.21,20.11,0,30.16-.24a77.89,77.89,0,0,0,11.63-1.56,3.52,3.52,0,0,0,2.5-1.94,3.31,3.31,0,0,0-1.51-2.73,50.58,50.58,0,0,0-7.26-3.09c-2.48-.88-5.05-1.5-7.59-2.24a3.06,3.06,0,0,1,.9-.49c12.45-2.12,24.85-3.21,37.26.48,3.64,1.09,8,.31,9.87,4.89-6.14,1.86-12.16,4.49-18.44,5.45-24.56,3.75-49.32,3.72-74.07,2.35a75.9,75.9,0,0,1-27.44-6.92c-3-1.36-4.44-3.3-4.41-7,.09-11.52,3.69-21.24,11.69-29.82,10.6-11.38,22-21.28,36.48-27.51,4.87-2.11,4.66-2.9.24-6-.39-.58-.65-1.34-1.19-1.71-1.88-1.27-3.85-2.41-5.78-3.6l7.49-.67c-4-3.17-7-5.68-10.11-8.06-3.92-3-7.89-5.9-11.89-8.77-1.52-1.09-3.19-2-4.79-3-.07,1.69-.13,3.37-.19,5.06a29.88,29.88,0,0,1-2.56-2.73,36.7,36.7,0,0,1-7.3-23.59c.22-6.57,1.82-8.28,8.35-7.2,2.05,2,2.21,3.89-.38,5.65-.86.58-1.52,1.43-2.33,2.07a2.86,2.86,0,0,0-.21,4.77,6.27,6.27,0,0,0,4.73,1.16c2.07-.42,3.94-1.78,6.07-2.82-.18-4.69,3.14-8.21,8.21-7.95,2.4.13,4.77.84,7.16,1.16,10.32,1.36,20.64,2.72,31,4,2.78.33,5.59.31,8.39.45l.34-1.08c-.72-.57-1.36-1.46-2.18-1.67-5.78-1.49-11.56-3.14-17.44-4.17-5.42-1-11-1.32-16.47-1.74-4.59-.35-9.2-.53-13.8-.55-4.25,0-8.5.28-12.75.44l2.68-1.28c7.27-.12,14.55-.29,21.82-.33,4.39,0,8.88-.43,13.14.36,9.85,1.82,19.59,4.28,29.4,6.4a17.19,17.19,0,0,0,3.66,0l.31-1.05a21.81,21.81,0,0,0-3.35-2.62c-4.07-2.11-8.14-4.28-12.37-6-6.68-2.76-13.52-4.19-20.78-1.91-2.48.77-5.23.69-7.86,1a46.56,46.56,0,0,0,4.72-1c.88-.28,2.16-.9,2.29-1.56A3.09,3.09,0,0,0,177,303.6a41.13,41.13,0,0,0-8.16-4.48c-12.87-4.43-21.41-13.37-28.05-24.94-7.19-12.55-9.26-26-8.5-40.05.43-7.9,1.92-15.74,2.89-23.6.55-4.46,2.46-7.9,6.8-9.68a4.87,4.87,0,0,0,1.76-1.08c7-8,17.21-9.39,26.43-12.77,4.86-1.78,9.92-3,14.84-4.64,11.17-3.7,22.23-2.27,33.11,1A114.75,114.75,0,0,1,246.88,196c1.61,1,3.81,1.13,5.75,1.66,0-2,.27-4-.14-6-1.06-5-2.44-9.86-3.68-14.79Zm-50.06,40.1.63-1a22.56,22.56,0,0,1-3.05-3.93c-.53-1.1-.82-2.87-.28-3.77a3.82,3.82,0,0,1,3.41-1.38c6.11,2.32,12.08,5,18.15,7.44,1.54.62,3.45,1.48,4.84,1.07a103.83,103.83,0,0,0,11.71-4.61c.75-.32,1.26-1.32,1.74-2.1,1.08-1.77,2-3.65,3.12-5.4,1.41-2.22.77-3.72-1.46-4.7-3-1.3-6-2.37-8.92-3.82-7.77-3.92-16.17-5.58-24.65-6.47a45.34,45.34,0,0,0-14,1.1c-6.43,1.38-12.63,3.75-19,5.36-6.66,1.68-13.17,3.73-18.87,7.6a28.75,28.75,0,0,0-5.78,6c-1.31,1.63-1.9,3.9-3.34,5.35-2.94,3-5.44,6.08-5.69,10.38-.51,8.52-1,17-1.26,25.57-.28,10.54,2.79,20.28,8,29.38,1.6,2.8,3.76,5.28,5.3,8.11,3.1,5.67,8.56,8.6,13.56,12a22.12,22.12,0,0,0,7.07,2.73,3.94,3.94,0,0,0,3.4-.88c.53-.68.19-2.41-.29-3.42a10.56,10.56,0,0,0-2.84-3.88c-7.31-5.53-5.44-14.55-8.46-21.68a.61.61,0,0,1,0-.35c1.48-5.05-1-9.14-3-13.5a16.68,16.68,0,0,1-1.36-7.88,73.19,73.19,0,0,1,2.51-13.94c.88-3.09,2.82-5.9,4.48-8.72a3.15,3.15,0,0,1,2.41-1.12c5.67.15,11.68-1.37,16.55,3.1a5,5,0,0,0,1.18.72c3.95,1.93,6.05.71,6.32-3.61a2.71,2.71,0,0,1,.53-1.59c1.75-1.82,1.38-3.69.51-5.77-1-2.46.33-3.16,2.54-2.92C194.86,210.91,196.28,211.15,197.7,211.35ZM127.53,420.64c.87,1.48,1.59,4.06,2.63,4.19a10.16,10.16,0,0,0,6.62-1.33c4.91-3.4,9.48-7.28,14.08-11.1a60.92,60.92,0,0,0,5.35-5.31c1.73-1.83,3.34-3.76,5-5.65,3.95-4.47,7.82-9.05,13.78-11a2.33,2.33,0,0,0,.79-.66c3.29-3.35,6.13-7.25,11.25-8.2a2.39,2.39,0,0,0-.36-4.71c-3.13-.45-6.5-1.28-9.45-.58-12.46,3-22.81,10-31.64,18.93-6,6-10.81,13.16-16,19.94C128.57,416.5,128.32,418.47,127.53,420.64Z"/><path class="cls-3" d="M367.08,481.93l4.62-14.36c1-2.85,3.16-4.19,5.87-5.17,3-1.09,5.85-2.52,8.77-3.81l4.14-.43c-.39.83-.76,1.68-1.17,2.5-2.05,4.12-1.41,5.8,2.7,7.93a30.16,30.16,0,0,1,3.87,2.86c3.19,2.4,6.41,4.76,9.54,7.23a17.65,17.65,0,0,1,1.87,2.36c1.46,1.64,2.68,3.82,4.52,4.7A55,55,0,0,0,422,489c2.06.53,4.05-.34,4.14-2.54.17-4.41,1.14-9-2-13q-6.6-8.37-13-16.89c-1.42-1.9-2.5-4.06-3.73-6.09a47.51,47.51,0,0,0,5.73-1.43c1-.37,1.67-1.44,2.5-2.19-.91-.89-1.77-2.46-2.74-2.54a33.34,33.34,0,0,0-7.58.49c-2.1.33-3,1.47-2.64,3.94.73,5-3.55,8.77-8.58,7.88,1.33-1.06,3-1.92,3.91-3.25a5.62,5.62,0,0,0,.82-4c-.17-.74-1.88-1.3-3-1.59a13.49,13.49,0,0,0-3.24-.05c-.44,2.47-.82,4.6-1.21,6.72l-4.4-.76c4-2.59,4.05-5.06.24-7.91-3-2.27-5.92-4.73-9.07-6.82-1.26-.83-3-.88-4.56-1.29,0,1.72-.42,3.65.22,5.09.75,1.71,2.45,3,3.73,4.46s2.71,3.1,4.06,4.65c-2.28-1.16-4.66-2.18-6.82-3.54-1.69-1.08-3-2-4.79-.14q-5.72,5.7-11.76,11.06a6.14,6.14,0,0,1-3.45.92c-2.11.14-4.24,0-7,0-.36-4.71,1.65-9.26,3.54-13.83-.16,2.27-.39,4.54-.45,6.82,0,1.19-.18,2.87.49,3.44s2.44.27,3.42-.24a23.24,23.24,0,0,0,12.24-23.72,4.11,4.11,0,0,0-2.44-2.85,69.74,69.74,0,0,0-11.6-1.32c-5.25-.09-6.27,2-4,6.79a46.11,46.11,0,0,1,2,6.3c-.5-.9-1-1.8-1.49-2.71l-1.37.61a37.25,37.25,0,0,0-1.8,5,71,71,0,0,1-10.68,25.41c-3.16,4.7-7.45,5.59-12.16,2.49-1.06-.7-2.18-1.33-3.18-2.11-4.24-3.28-4.47-4-3-9.12,1.88-6.44,3.81-12.86,5.67-19.3a20.65,20.65,0,0,0,.4-3.06l-1.26-.81c-3.27,3.25-6.47,6.59-9.86,9.72a14.36,14.36,0,0,1-5.25,3.48c-1.84.53-4-.13-7.2-.34,3.11-3.11,5.71-5.59,8.14-8.23.7-.76,1.44-2.17,1.17-2.92s-1.77-1.27-2.79-1.41a5.06,5.06,0,0,0-3.33.55,4,4,0,0,1-6.07-1c-1.83-2.67-4.1-5.82-4.1-8.77,0-5.45-.25-11.37,4-15.93.19,1.22.47,2.43.55,3.66.23,3.77.16,7.58.68,11.31.2,1.44,1.93,3.91,2.54,3.79a7.22,7.22,0,0,0,4.53-2.87,15.21,15.21,0,0,0,1.36-12.33c-.66-2.2-1.22-4.44-1.71-6.68-.41-1.86-.21-3.5,2.15-3.88a5.33,5.33,0,0,0,4,4.59,7.27,7.27,0,0,1,3,11.61,22.75,22.75,0,0,0-3.17,4.5,28.43,28.43,0,0,0-1.41,5.08c1.6-.17,3.23-.24,4.81-.54,3-.56,5.83-3.26,9.12-.56.2.17,2.07-.93,2.3-1.69.77-2.54-.52-4.45-2.59-5.88-1-.67-2-1.31-2.94-2l.37-1.12c1.58.26,3.5.06,4.66.9,1.8,1.3,2.85,3.64,4.65,4.94a14.89,14.89,0,0,0,6,2.29c.36.06,1.22-2.61,1.84-4L338,420c.81,2.52,1.62,5,2.5,7.78l3.46-2.21a43.12,43.12,0,0,0,4.57-.46c4.93-1,9.82-2.85,14.78-3.06,4-.18,8.17,1.23,12.1,2.45,8,2.48,11.45-1.68,13.85-7.16a26.39,26.39,0,0,1,10.16-11.93,9.44,9.44,0,0,0,4.78-9.26l.39-.85.38-1.46c2.78-4.22,5.7-8.34,8.29-12.67,1.55-2.61,3-2.6,5.3-1.05,1,.69,2.87,1.33,3.63.86s.93-2.35,1.1-3.64c.53-4.07,1-8.16,1.41-12.24,1.74,1.21,4,2.07,5.11,3.71a57.11,57.11,0,0,1,4.66,9.24c.82,1.86,1.75,2.65,4,2.21,7.07-1.44,9.49-5.95,6.76-13l-.27-3.06.16-6.56a52.2,52.2,0,0,0-5.63-2.39c-3.52-1.07-3.93-2.07-2.54-5.4a28.67,28.67,0,0,0,2.1-7.58c.35-3-.88-3.77-3.72-2.87-3.3,1-6.59,2.13-9.88,3.21l-1.32.5-.52.52-1.67,1.95h-6.61c1.91-2.14,3.85-3.36,4.09-4.86s-1.14-3.35-2.29-6.25l12.42,3.77c-.84-3.12-1.6-6-2.37-8.79.95-2.64,2.57-3.91,5.5-3a8.07,8.07,0,0,0,2.41,0c2.34,0,2.69-1,1.84-3.13s-1-4.21-1.76-6.23c-1.79-4.9-3.73-9.74-5.61-14.61l-.33-.51,3.14-.25a19.8,19.8,0,0,0,13.88-.31,17.76,17.76,0,0,1,3.68.84c3.61,1.65,7.82,2.76,10.52,5.39,3.51,3.43,3,4,7.28,1.74l3.38-.38,4.31-.18h.58l2.89.86,6.73,2,.82.23c-.69,1.94-1.39,3.87-2.08,5.81l-.81,1.28c-.34.09-.77.07-1,.27-3.4,3.26-9.46,4-9.75,10.26,0,.81-.93,1.55-1.32,2.37-.92,2-1.87,3.92-2.62,5.95-.64,1.78,0,2.91,1.89,3.73,1.22.52,2.05,2,3.05,3a2.62,2.62,0,0,0-.63.14l-2.91,2.52-5.25,3.3c-4.3,1.4-5.44,2.77-4,5.19,3.24,5.37,2.2,11.28,2.71,17.05.34,3.86,1.78,7.63,2.87,11.39.12.43,1.16.58,1.78.86,1.29,4.83.94,5.27-5.06,6.23l-15.44.93a28.8,28.8,0,0,0,2.15,2.5c2.8,2.4,3.55,5.16,2,8.64a20,20,0,0,0-1.5,5.65c-.13,1.08.51,2.27.81,3.41l3.57-1.8a22.36,22.36,0,0,0,2.76-2.55c4.07-5.25,8.08-10.55,12.08-15.85a6.14,6.14,0,0,0-.77-8.49c-.5-1.57-1.34-3.11-1.43-4.7a41.22,41.22,0,0,1,.59-6.43l.44-.75c.24-.64.48-1.29.71-1.93q3.93-13.22,7.85-26.42a6.44,6.44,0,0,0,.25-1.34c-.06-6.73,2.65-8.57,8.59-5.82,3,1.4,5.34.64,6.91-2.31.87-.76,1.71-1.54,2.59-2.28,4.77-4,9.35-8.28,15.94-9,2.23.45,4.47.88,6.7,1.35s4.32,1,6.48,1.43c-1.27,1.89-2.55,3.78-3.78,5.69-.64,1-1.19,2.08-1.78,3.13a17,17,0,0,0,3.19,1.59c2.09.52,4.57.25,5,3.22l-12,2.24c-7.24-.17-14.48-.44-21.73-.45-1.93,0-2.11,1.58-1.22,3a7.29,7.29,0,0,0,6.55,3.86c4.16,0,8.34.16,12.49,0,3.93-.16,5.43,3,7.65,5.2.36.35.11,2-.4,2.46-5.46,5-3.29,9.88-.18,14.91s6.46,10.14,9.16,15.48a10.6,10.6,0,0,0,6.17,5.58c4.44,1.65,8.9,3.28,13.22,5.23,1.12.5,1.74,2.13,2.6,3.24-1.13.62-2.24,1.73-3.4,1.77a73.27,73.27,0,0,1-9-.4c-3.92-.32-7.59-.12-10.54,3.07-7,7.62-8.2,7.91.88,15.55,3.1,2.62,6.71,4.62,10.24,7-.31.29-.59.78-1,.85-5.5,1.12-11,2.25-16.54,3.23-2.72.49-5.5.58-8.24,1-8.32,1.26-16.58,3.09-25.07.89-4.4-1.15-7.89-3.08-9.6-7.56a3.52,3.52,0,0,0-1.73-1.92c-4-1.49-8-2.9-12.12-4.11-1.37-.4-3.22-.66-4.36-.06a106.76,106.76,0,0,0-11.75,7.2c-3,2.14-5.3,5.27-8.39,7.2-4.77,3-10,5.25-14.94,7.92a9.58,9.58,0,0,0-2,2.09c.76.63,1.45,1.62,2.31,1.81,3.94.86,7.93,1.49,11.91,2.2l9.82,4.39c1,2,1.5,4.56,3,6.06,6.92,6.85,10.78,15.31,14.3,24.21A114.53,114.53,0,0,1,471,516.65a43.64,43.64,0,0,1-.16,4.84,15.7,15.7,0,0,1-1.05-3.54,102.1,102.1,0,0,0-10.72-41.65c-1.5-2.93-3.07-5.83-4.55-8.66a16.91,16.91,0,0,0-7.15,11.05,5.88,5.88,0,0,1-1.8,2.9c-6.14,5.48-6.77,12.33-4.59,19.59,3.4,11.37,7.28,22.59,10.71,33.95a41.42,41.42,0,0,1,1.22,9.46,4.08,4.08,0,0,1-1.56,2.87c-2.56,2-12.56,1.82-15.43.33a17.79,17.79,0,0,0-5.78-1.59c-6.28-.83-10-2.39-11.67-7.55a44.53,44.53,0,0,0-5-9.47,5.12,5.12,0,0,0-3.37-2,17.61,17.61,0,0,0-6.52.32c-2.87.78-4.64-.09-6.14-2.42-2.94-4.57-6-9-8.92-13.63-5.19-8.27-11.32-16.12-12.19-26.41-.22-2.64-.61-5.27-1.08-7.87a8.67,8.67,0,0,0-1.22-2.3,9.75,9.75,0,0,0-2.17,1.37C370.22,478.08,368.67,480,367.08,481.93ZM436.6,416.4l-1-.76c-3.84-1.38-7.75-2.64-11.53-4.19s-6.92-.27-8.54,3.66a21.69,21.69,0,0,1-2.77,4.68c-3.09,4.11-6.33,8.12-9.44,12.21-1.29,1.69-1.75,3.27.2,5.13,1.79,1.71,3.3,2.72,5.71,1.33,1.28-.74,2.79-1.07,4.14-1.72,5.12-2.46,10.16-5,11.92-11.11l2.08-1.7c2.55-1,5.1-1.95,7.64-2.94C437.36,420.09,438,418.59,436.6,416.4Zm15.83-99.81c-3.15,3.58-6.41,7.08-9.42,10.78-2.5,3.07-2.1,4.62,1.62,5.62a13.54,13.54,0,0,1,8.27,5.76c1.24,1.88,3.08,2.39,5,.66l2.66,3.7c1.21-1.25,2.87-2.3,3.57-3.79,3.22-6.83,1.25-12-5.28-15.11-.32,4.09-.64,8.26-1,12.43L457,334.5c-.19-5.34-.2-10.69-.66-16C456.14,316.62,455.05,314.52,452.43,316.59Zm-24.07,67.06c-1.74,1.2-4.22,2-5.05,3.68-1.62,3.24-2.44,6.92-3.37,10.47-.84,3.16-.17,5.66,3.53,6.62a8.52,8.52,0,0,1,2.83,1.89c2.9,2.34,3.92,2.22,5.29-1.25,1.75-4.47,3.23-9.05,4.76-13.59.54-1.6.9-3.25,1.34-4.88A7,7,0,0,0,428.36,383.65Zm-86.25,63.67c0-5.93-1.57-8.21-5.75-9.13a9.31,9.31,0,0,0-11.29,6.42c-.68,2.09-1.31,4.19-1.91,6.3-.93,3.29.1,5.72,3.08,7.18,2.28,1.11,4.58,2.21,6.9,3.24,3.36,1.51,6.22.41,7.06-3.08C341.14,454.34,341.61,450.31,342.11,447.32Zm72.37-46a3.79,3.79,0,0,0,.08-1.37c-.47-1.44-1-2.85-1.57-4.28-1.19.92-2.84,1.58-3.5,2.78-2.4,4.33-4.61,8.78-6.62,13.31a15,15,0,0,1-5.91,6.92,16.51,16.51,0,0,0-7.74,13.23,4.88,4.88,0,0,0,2,3.95c.93.44,3.09-.5,4-1.48,3.08-3.27,5.85-6.82,8.73-10.27C409.48,417.47,413.84,410.27,414.48,401.33ZM445,405.64c-.54-2.12-1.08-5-2-7.67-.35-1-1.63-1.7-2.48-2.54a17.29,17.29,0,0,0-2.44,2.64c-.83,1.37-1.22,3-2.05,4.38-3.45,5.63-3.44,6.73.55,11.63,3.71,4.53,3.14,6.46-1.64,10.1a111.07,111.07,0,0,0-10.79,10c-.64.64-.59,2-.86,3a10.53,10.53,0,0,0,3.25.34c5.63-1.25,10-4.72,13.85-8.73a8.85,8.85,0,0,0,1.81-4.37c.55-2.8.74-5.68,1.16-8.52C443.85,412.77,444.4,409.59,445,405.64Zm12-30.93c-.41-3.36-.82-5.64-.95-7.93-.47-8.25-3.87-15.34-8.47-22-.39-.57-.92-1.4-1.42-1.43-.9-.05-2.36.15-2.65.72-2.48,4.81-1.63,7.64,2.49,11.28a8.17,8.17,0,0,1,2.74,4.73c.43,4.43.3,8.92.3,13.39,0,2.55,1.35,3.57,3.69,3.51S456.93,376.43,457,374.71Zm-21-68c1.87,4.06,3.19,7.26,4.85,10.28.34.61,2.11,1,2.93.67a76.33,76.33,0,0,0,8.52-3.81c1.8-.92,2.1-2.36,0-3.26-4.23-1.83-8.52-3.54-12.88-5C438.64,305.26,437.39,306.21,436,306.7Z"/><path class="cls-3" d="M198.91,433.27a27.32,27.32,0,0,0-3-.71c-4.2-.48-4.61-1.09-3.43-5.32,1.85-6.6.68-8.34-6-9.93a96.84,96.84,0,0,1-9.85-3.23c-3.19-1.13-6.33-2.36-9.56-3.57.1-.3.11-.76.32-.91,4.44-2.93,8.94-5.77,13.34-8.77,2.27-1.55,4.35-3.36,6.52-5.06,2.42-1.89,4.75-3.9,7.27-5.63,6.17-4.23,12.46-8.3,18.63-12.52a5.62,5.62,0,0,0,2.17-2.64c.6-1.88,1.53-4.23.87-5.76-.51-1.17-3.25-1.92-5-1.92-5.54,0-11.08.67-16.62.65a12,12,0,0,1-6.78-1.86c-5.54-4.14-10.79-8.68-16-13.25A10.67,10.67,0,0,1,170,339c.92-1.46,2.24-2.78,2.79-4.37.79-2.3,1.6-4.83,1.41-7.19-.31-4-.29-4.29,3.63-4.69,9.34-1,18.46.72,27.59,2.1,5.66.85,11.23,2.3,16.85,3.43a8.94,8.94,0,0,0,3.74.32,4.12,4.12,0,0,0,2.76-2.07c.23-.75-.81-2.13-1.62-2.89a102.09,102.09,0,0,0-8-7c-2.5-1.91-5.07-4-8-5.05-5-1.81-5.68-2.34-6.41-7.75-.16-1.18-1.58-2.26-2.58-3.23-1.52-1.5-3.57-2.59-4.71-4.31-3.25-4.9-5.84-10.26-9.29-15-3-4.07-6.75-7.53-10.2-11.24-.47-.5-1.35-.74-1.59-1.3-2.77-6.49-7.89-12.12-7.89-19.63,0-4.7.61-9.41,1.08-14.1.23-2.27,1-4.87,3.62-4.78s6.57.5,7.85,2.27c4.36,6.05,10.2,8.06,17.12,9.14,6.42,1,11.87,3.51,14.29,10.8,1.36,4.07,4.91,7.42,7.47,11.1,1.12,1.61,2.13,3.3,3.37,4.8a10.32,10.32,0,0,0,2.43,1.66,12.49,12.49,0,0,0,1.34-2.19c1.17-3.33,1.81-3.58,4.92-1.74a3.77,3.77,0,0,0,1.21.65c6.81.93,11.84,5.57,17.77,8.3,3.92,1.81,8.33,2.61,12.57,3.65a3.09,3.09,0,0,0,2.58-1.06c.31-.4-.24-1.73-.73-2.43a14.24,14.24,0,0,0-2.27-2.1l.58-.66c3.44.91,6.89,1.78,10.32,2.72,3,.82,3.84,3.5,2.36,5.38-3.13,4-1.92,7.12.53,10.54a16.42,16.42,0,0,1,1.19,2.88c.93,2,1.9,4,2.86,6,2-1.65,4-3.28,6-4.95.26-.21.35-.63.61-.83q4.67-3.72,9.37-7.4-3.54,4.17-7.07,8.35a.73.73,0,0,0-.45.44l-.22.32c-.34.37-.67.74-1,1.1-.08.21-.16.42-.26.63-2.17,2.16-4.31,4.35-6.52,6.48a15.89,15.89,0,0,1-2.13,1.44,8,8,0,0,1-1.32-2.23c-.56-2.7-.81-5.46-1.4-8.16-.94-4.23-3.08-7.63-7.31-9.33-3.95-2.81-8.26-4.92-13.19-4.2-6.91,1-13.75,2.49-20.63,3.71-2.14.38-2.5,1.72-2.23,3.52.52,3.51.71,7.13,1.7,10.51s2.77,6.45,4.21,9.66a8,8,0,0,0,8.92,4.46c2.36-.4,4.58-2.78,6.34-4.74.38-.42-1.28-3-2.31-4.29-1.14-1.47-1.35-2.7.16-3.85a26.52,26.52,0,0,1,4.3-2.74c2.06-1,4.23-1.81,6.35-2.69l10.94,6.93c.92,1.84,1.59,3.88,2.86,5.44.92,1.14,2.75,2.45,4,2.28a87.86,87.86,0,0,0,10.95-2.69c.61-.16,1.45-.67,1.58-1.17.9-3.45,1.64-6.95,2.43-10.43.39-1.23.78-2.45,1.18-3.68a.29.29,0,0,0,.1-.37l.54-1.49,3,.18.86.31L303,292.9l1.05-.28.35-5.44c0-1,0-2.09-.08-3.13l-2.27-.13-4.33,1.42a18.37,18.37,0,0,0,.43-2.33,19.7,19.7,0,0,0-.11-2.54,17.46,17.46,0,0,0-2.61.9c-1.9,1-3.73,2.09-5.59,3.15l-.73-.83,2.34-6.29,1-1.48c3-1.4,6.18-2.6,9.07-4.25,2.29-1.3,3.85-1.19,5.82.65.92.86,2.8.69,4.25,1a29.18,29.18,0,0,0-.56-3.73c-.29-1.1-1-2.07-1.33-3.17-1.1-3.84-.21-5.18,3.28-7.19s6.67-2.78,10.32,0l.75-.92c-.52-2.12-1-4.24-1.55-6.36l-.39-1.24c4.33-3,6.9-8.34,13.11-8.87,2.44-.21,4.21-.16,5.84,1.68a11.31,11.31,0,0,0,2.2,1.44,16.55,16.55,0,0,0,.77-2.45c.61-4.25,2.34-6,6.57-5.73,3.42.22,6.9.6,9.35,3.67,1.89,2.37,3.63.84,4-1a16.65,16.65,0,0,0-.2-7.09c-.62-2.58-.68-4.52,2.24-5.47-.82-3.44-1.44-6.73-2.4-9.91-2-6.5-1.62-13-.52-19.56.36-2.16,1.24-4.57,3.76-3.94,1.26.32,2.46,2.7,2.82,4.34a69.88,69.88,0,0,1,.85,9c.39,4.5,2.65,6.81,7.17,6.58,8.4-.43,7.76,2.53,5.91,8.5-1,3.22-3.19,6.08-4.92,9.07-.61,1-1.44,2-2.59,3.55,7,.18,5.65,4.66,5.83,8.79a60.77,60.77,0,0,0,2.15,11.88c.24,1,1.58,2,2.64,2.47,3.22,1.55,6.59,2.8,9.81,4.33a29.82,29.82,0,0,1,3.93,2.66l-.16,0-1.1.73-1.65.95-1,.47-4.22,1c-1.95-.48-3.88-1.07-5.86-1.37-.76-.12-1.63.43-2.46.67a15.18,15.18,0,0,0-3.77.18c-1.18.36-2.88,1.1-3.09,2s.87,2.43,1.79,3.2a54.79,54.79,0,0,0,5,3.11c2.24,1.5,3.05,3.38,1.36,5.86a4.85,4.85,0,0,0-.5,1.57c3.66,1.37,7,2.85,10.52,3.86s7.23,1.56,11.92,2.54c-1.13-2.13-1.5-3.36-2.29-4.21-2.43-2.62-5.06-5.05-7.53-7.63a22.51,22.51,0,0,1-2.08-3q4.14,2.55,8.3,5.08l.24.22a.74.74,0,0,0,.43.42,1.61,1.61,0,0,0,.28.24.9.9,0,0,0,.43.45,2,2,0,0,0,.26.32.61.61,0,0,0,.35.4,1.07,1.07,0,0,0,.25.31l.42.54c2,2.24,4,4.39,5.81,6.77.5.69.11,2,.12,3.08l-10.65,1.46-1.26-.05-6.93-.26a6.14,6.14,0,0,1-1.19-.71c-3.25-3.07-6.5-5.84-11.61-4.29-1,.3-2.49-1.11-3.76-1.73.91-1.22,1.75-2.51,2.76-3.64,1.31-1.47,2.76-2.81,4.15-4.21-1.8-1.15-3.6-2.33-5.42-3.45a5.13,5.13,0,0,0-1.33-.39c-3.84-1-4.88-3.12-2.76-6.49,1-1.56,2.91-2.51,4.25-3.9.74-.77,1.63-1.9,1.55-2.79-.06-.66-1.5-1.47-2.45-1.73-2.77-.72-5.73-.84-8.37-1.85-5.91-2.26-10.55,0-14.93,3.55-2,1.6-1.9,3,.57,4.11,2.22,1,4.62,1.74,6.54,3.14,1.37,1,3,3,2.89,4.39-.18,2.35-2.32,3.49-4.9,3.29-1.52-.12-3.06,0-4.59,0l-.57.85,4.51,5.63q1.14,2.31,2.29,4.61c1.07,2.16.37,3.65-2,3.3a76.78,76.78,0,0,1-8.84-2.34c-.41-4.21-.7-8.42-1.29-12.6-.14-1-1.3-2.64-2-2.62-4.68.12-9.35.58-14,.94-4.84.48-6.19,4.46-8.89,8.55l10.36,1.79,1.41.32a13,13,0,0,1,6.68,5.64c.86,1.54,3.32,2.19,5.06,3.24l7.56,5.2,2,2,.81.82c.32,1.48.64,3,.95,4.44q1.23,2.55,2.44,5.1l-6.81,2.51c-5.52-1.56-7.07-3.78-7.48-9.72-.15-2.13-1.12-4.21-1.72-6.31-.87.11-1.75.2-2.63.33q-6,.87-12,1.78c-.68-2.08-1.35-4.15-2-6.22v0l-1.47-2.63a15.53,15.53,0,0,0-10.26,7.3c-2.18,3.53-3,8.08-3.73,12.3-.69,3.76-2.34,5.66-6.21,5.17-1.92-.25-3.77-1.2-5.68-1.36-1.13-.09-3,.43-3.4,1.25-2.87,5.3-7.7,6.56-13.08,6.91l-1.61-.75-.18-.09-7.9-1.16c-.61,1.18-1.79,2.38-1.74,3.52.29,6.61.87,13.21,1.35,19.82,0,.73.07,1.47.11,2.21l1.91,2.83c-1.75,3.6-2.42,3.67-4.76.62a12.36,12.36,0,0,0-2.63-2.72,3.65,3.65,0,0,0-2.8-.72c-.59.25-.74,1.68-1,2.61-1.78,6.77-3.16,13.67-5.47,20.24-1.11,3.16-3,5.82-1.84,9.42a3.19,3.19,0,0,1-1.23,2.85,3.38,3.38,0,0,1-3.07-.5,49.07,49.07,0,0,1-4.37-4.83,103.58,103.58,0,0,1,6.21-8.69c3.93-4.52,6-9.74,7.06-15.52.49-2.64-.19-4.25-2.83-4.91,2.06-2.31.69-4.52-.18-6.75l8.46,1.75.25-1.07-4.46-4.19a11.7,11.7,0,0,1,2.06.11c4.31,1,4.37,1,4.65-3.46.19-3.12.14-6.26.43-9.36.38-4.05,3.12-5.92,7-5,1.8.42,3.67,1.31,5.4,1.11a24.31,24.31,0,0,0,7.91-2.27c1.07-.53,2.19-3.16,1.74-4a5.07,5.07,0,0,0-4.15-2.16,52.64,52.64,0,0,0-9.46,2.9c-1.89.7-3.67,2-4.64-1.08-1.41-4.38-2.9-4.75-5.95-1.23a21.62,21.62,0,0,1-10.55,7c-1.75.5-3.89,1.15-4.87,2.47-1.7,2.28-3.34,5.05-3.67,7.78-.37,3,3.08,3.18,5.23,4.08,2.3,1,4.62,1.89,6.93,2.83-2.95-.46-5.89-1-8.86-1.37-4.38-.54-8.94-2.41-13.06.59a88.32,88.32,0,0,0-8.94,7.57,3.7,3.7,0,0,0-.5,3.4c2.91,5.64,5.85,11.27,9.22,16.63,1.45,2.31,2.89,4.31,2.24,7.14l-2.27.56c-.73-2.7-.94-4.94-1.91-6.8-2.91-5.6-6.2-11-9.17-16.58-1.36-2.56-.68-4.89,1.62-6.78s4.2-3.74,6.78-6.05c-1.48-.77-2.76-1.8-4.19-2.1-3.38-.7-6.82-1.12-10.25-1.54-2.44-.3-3.47,1-4.54,3.24-2.23,4.6-4.64,9.28-7.88,13.18-2.06,2.49-2.5,3.9-.67,6.46,3.84,5.35,9.42,8,15.24,10.34,2.35.95,4.88,1.49,7.13,2.61,2,1,2.59,2.75.43,4.33-4.37,3.2-9,6.12-13.17,9.52a122.76,122.76,0,0,0-11.29,10.46c-.77.81-.9,3.47-.19,4.23a47.39,47.39,0,0,0,8.54,7.47c4.88,3.2,5,3,2.72,8.38-3.52,8.25.8,14.85,9.7,15.3,9.24.47,18.12-1.5,27.1-3.07,5.45-1,9.11-4.23,12.21-8.36.5-.67.19-2,.08-3.07-.24-2.33-.6-4.65-.91-7l2.46,5.25.33.51a.23.23,0,0,0,.2.25l.49.51a.35.35,0,0,0,.24.28l.21.31,1,2.37.39,1.1-18.09,18.52-1.4.92a.57.57,0,0,0,0,.13l-.12-.07L248.3,438c-1.85-4.58-6.23-3.8-9.87-4.89-12.41-3.69-24.81-2.6-37.26-.48a3.06,3.06,0,0,0-.9.49ZM351.22,257.93c-.09-.36-.19-.72-.28-1.08a32.12,32.12,0,0,0-3.46-.7c-5.73-.51-11.47-.9-17.19-1.45-4-.38-5.2,1-3.85,4.93A80.6,80.6,0,0,0,330,269a5,5,0,0,0,3.52,2.41c6,.17,12,0,18-.16a16.86,16.86,0,0,0,3.66-.9c0-.48.09-1,.14-1.46-3.16-1-6.35-2-9.47-3.18a15,15,0,0,1-2.91-2,18.82,18.82,0,0,1,2.35-2.21C347.21,260.27,349.23,259.13,351.22,257.93Zm-41.71,44.35c1.16-1.4,1.7-1.75,1.69-2.09-.07-6.37,4.05-9.08,9.28-11a3.8,3.8,0,0,0,1.91-2.5c.09-.45-1.28-1.4-2.13-1.82-2.14-1.05-5.33-1-4.6-4.83.07-.37-.93-1.28-1.53-1.39a6,6,0,0,0-6.86,5.28,59.27,59.27,0,0,0,0,9.7C307.56,296.24,308.58,298.79,309.51,302.28Zm53.13-50.67c-.06,2.89,1,4.16,3.42,4.37s4.77.59,7.14,1c2.69.44,3.79-.66,2.83-3.27a41.53,41.53,0,0,0-3.38-7.13c-.87-1.44-3.06-3.75-3.46-3.53A17.7,17.7,0,0,0,364,247.6C363.08,248.79,363,250.59,362.64,251.61ZM265.73,308.1c2.73-.66,5.1-.65,5.29-3.74.16-2.44-1.28-3.58-3.63-3.58-2.53,0-6.07,2.66-5.39,4.31C262.54,306.38,264.43,307.12,265.73,308.1Z"/><path class="cls-2" d="M367.08,481.93c1.59-1.9,3.14-3.85,4.82-5.68a9.75,9.75,0,0,1,2.17-1.37,8.67,8.67,0,0,1,1.22,2.3c.47,2.6.86,5.23,1.08,7.87.87,10.29,7,18.14,12.19,26.41,2.88,4.6,6,9.06,8.92,13.63,1.5,2.33,3.27,3.2,6.14,2.42a17.61,17.61,0,0,1,6.52-.32,5.12,5.12,0,0,1,3.37,2,44.53,44.53,0,0,1,5,9.47c1.7,5.16,5.39,6.72,11.67,7.55a17.79,17.79,0,0,1,5.78,1.59c2.87,1.49,12.87,1.64,15.43-.33a4.08,4.08,0,0,0,1.56-2.87,41.42,41.42,0,0,0-1.22-9.46c-3.43-11.36-7.31-22.58-10.71-33.95-2.18-7.26-1.55-14.11,4.59-19.59a5.88,5.88,0,0,0,1.8-2.9,16.91,16.91,0,0,1,7.15-11.05c1.48,2.83,3.05,5.73,4.55,8.66A102.1,102.1,0,0,1,469.83,518a15.7,15.7,0,0,0,1.05,3.54c0,.41.07.83.11,1.24,0,.08-.1.17-.09.25a3.06,3.06,0,0,0,.17.48c.06.25.12.49.17.73q.57,4.84,1.13,9.67c2.83,18.92-3.52,35.22-14.39,50.22-1.46,2-2.78,4.9-4.78,5.57s-4.61-1.2-7-1.74C432,584.72,419.78,577,406.82,571.06c-12.12-5.59-20.81-15.49-29.76-25A38.1,38.1,0,0,0,374,543.4v-2.57c3,2.6,6.36,4.86,8.85,7.87,6.27,7.57,13.44,14,22.13,18.54,4.86,2.55,10.13,4.31,15.06,6.76,4,2,7.75,4.58,11.71,6.71,3.54,1.9,7.14,3.93,12.33,2.27a43.63,43.63,0,0,0-3.59-3.09c-5.62-3.71-11-7.55-14.5-13.63-1.65-2.86-4.15-5.25-6.39-7.73-3.75-4.18-7.53-8.34-11.45-12.36a22,22,0,0,0-4.87-3.56c-3-1.71-6.91-2.48-9-4.9-5.53-6.5-12.16-12.12-14.91-20.91-2.45-7.82-9.63-13.55-11-22.1a14,14,0,0,0-.86-2.22A20.43,20.43,0,0,0,363,503.62c-1.14,11.27,4.19,20.57,9,30.09,1.08,2.14,1.31,4.72,1.93,7.09a33,33,0,0,1-3.4-5c-3.08-6.94-6.87-13.74-8.71-21C358.93,503.35,361.87,492.33,367.08,481.93ZM463,565c8.5-10.25,9.23-45.34,1.79-50a16.32,16.32,0,0,1-.83,3,39.28,39.28,0,0,0-1,33.43c1.07,2.61.29,6,.29,9C463.2,561.89,463.05,563.42,463,565Z"/><path class="cls-2" d="M492.85,334.11c-1.57,2.95-3.89,3.71-6.91,2.31-5.94-2.75-8.65-.91-8.59,5.82a6.44,6.44,0,0,1-.25,1.34l-3.35,1.11c-1-1-1.83-2.48-3.05-3-1.91-.82-2.53-1.95-1.89-3.73.75-2,1.7-4,2.62-5.95.39-.82,1.28-1.56,1.32-2.37.29-6.29,6.35-7,9.75-10.26.22-.2.65-.18,1-.26-.67,1.37-1.29,2.77-2,4.12a43.27,43.27,0,0,0-3,5.63c-.24.69.88,1.87,1.38,2.83.83-.52,2.07-.85,2.41-1.59,1.49-3.24,2.75-6.57,4-9.9.71-1.88-.2-2.57-2-2.38.69-1.94,1.39-3.87,2.08-5.81l.54-1.21c5.22,4.24,5.08,4.07,8.48-2.1,2.49-4.51,5.76-8.6,8.7-12.86,4-5.78,8.06-11.51,11.94-17.37.49-.74,0-2.12,0-3.21-1.16.07-2.47-.17-3.46.28a59.56,59.56,0,0,0-5.38,3.16c-5.68,3.33-10.91,3.47-16.76-.49-4.54-3.06-4.54-4.61-.43-8.32,4.36-3.95,8.81-7.8,13.26-11.64,4.18-3.6,8.45-7.1,12.62-10.71a18.45,18.45,0,0,0,2.14-2.63c-2.9-2-5.2-.9-7.51.14-10.63,4.79-21.22,9.67-31.93,14.28-1.39.59-4.31.41-4.95-.51-2.4-3.42-5.09-2.9-8.15-1.58,1.31-7.66,3.83-14.69,10.09-19.84,1.55-1.28,3.16-2.82,5.16-1.13s3.9,3.89,5.87,5.83c5.48,5.39,7,7,13.83,4.33,2.49-1,4.57-3,7.07-3.93,3.34-1.26,6.92-1.82,10.35-2.87,7.39-2.27,14.8-4.52,22.11-7.06,3.46-1.21,4.52-5.07,2.14-7.1a30.73,30.73,0,0,0-7.32-5.18c-9.43-4.12-19.3-2.73-29-1.13-6,1-11.71,3.29-17.62,4.75-1.52.38-3.27-.18-4.91-.32a19,19,0,0,1,.79-4.44c3.26-7.62,7.21-15,9.86-22.83,1.89-5.59,2.45-11.71,3-17.64a106.41,106.41,0,0,0-.05-15.15c-.29-5.27-.17-10.78-1.73-15.7s-4.9-9.59-7.66-14.23c-4.84-8.16-10-15.78-19.37-19.9-6.52-2.86-12.95-4.44-19.71-2.92-8.07,1.81-15.95,4.48-23.92,6.77l-.52-.35c7.94-5,16.89-6.82,26-7.76a45.08,45.08,0,0,1,14.49.5,30.41,30.41,0,0,1,17.76,12.41,199.75,199.75,0,0,1,13.12,22c1.52,2.85,1.8,6.41,2.37,9.7.77,4.44,1.22,8.94,1.9,13.39,2.22,14.37-1.17,27.72-7.2,40.61-1.37,2.93-2.72,5.87-4,8.85s-.22,4.23,3,3.71a74.68,74.68,0,0,0,7.71-2,78.07,78.07,0,0,1,32.65-1.75c6.67,1,11.61,5.36,17,9,11.34,7.73,9.43,18.42,6.91,29.25-3.38,14.52-10.09,27.57-18.84,39.46-4.07,5.53-9.52,10-14.07,15.25-1.55,1.77-2.27,4.27-3.37,6.44h0l-3-3.18c2.49-2.93,4.54-6.08,7.28-8.41,9.58-8.16,14.92-19.24,21.08-29.77a70.76,70.76,0,0,0,9.44-28c.2-1.74-.52-3.59-.82-5.39-1.46,1-2.92,2-4.37,3-.09.06-.11.2-.18.29-6.43,8.7-12.57,17.64-19.39,26-5.3,6.5-12.45,11.61-14,20.64a5.33,5.33,0,0,1-1,1.82C510,300,507.5,308,501.2,313.56a2.74,2.74,0,0,0-.57.87c-.85,1.8-.53,3.15,1.71,2.81,2.56-.4,5.05-1.25,7.58-1.87,1.28-.31,2.58-.53,3.87-.79l.58,1.62c-3.87,2.06-7.65,4.32-11.64,6.14-3,1.39-6.55,1.82-9.39,3.47-1.71,1-2.82,3.4-3.58,5.4C489.57,331.72,491.76,333.12,492.85,334.11Zm39.71-84.28a27.26,27.26,0,0,0,2.71-.5c4.89-1.63,6.85-6.2,9.63-9.89.57-.76.86-2.72.44-3a4.74,4.74,0,0,0-3.39-.63c-5.07.93-8.24,4.76-11.56,8.2a4.29,4.29,0,0,0-.45,3.8C530.35,248.78,531.88,249.34,532.56,249.83Z"/><path class="cls-2" d="M436.25,447.71c-4-.71-8-1.34-11.91-2.2-.86-.19-1.55-1.18-2.31-1.81a9.58,9.58,0,0,1,2-2.09c5-2.67,10.17-4.95,14.94-7.92,3.09-1.93,5.4-5.06,8.39-7.2a106.76,106.76,0,0,1,11.75-7.2c1.14-.6,3-.34,4.36.06,4.09,1.21,8.12,2.62,12.12,4.11a3.52,3.52,0,0,1,1.73,1.92c1.71,4.48,5.2,6.41,9.6,7.56,8.49,2.2,16.75.37,25.07-.89,2.74-.42,5.52-.51,8.24-1,5.53-1,11-2.11,16.54-3.23.36-.07.64-.56,1-.85-3.53-2.38-7.14-4.38-10.24-7-9.08-7.64-7.92-7.93-.88-15.55,3-3.19,6.62-3.39,10.54-3.07a73.27,73.27,0,0,0,9,.4c1.16,0,2.27-1.15,3.4-1.77-.86-1.11-1.48-2.74-2.6-3.24-4.32-1.95-8.78-3.58-13.22-5.23a10.6,10.6,0,0,1-6.17-5.58c-2.7-5.34-6-10.38-9.16-15.48s-5.28-9.95.18-14.91c.51-.46.76-2.11.4-2.46-2.22-2.16-3.72-5.36-7.65-5.2-4.15.18-8.33,0-12.49,0a7.29,7.29,0,0,1-6.55-3.86c-.89-1.46-.71-3,1.22-3,7.25,0,14.49.28,21.73.45,2.75,2.74,5.59,5.14,9.94,4.61.67-.08,1.56,1.32,2.29,2.09,1.21,1.28,2.38,2.6,3.57,3.9a86.08,86.08,0,0,0,6.76,5.79,107,107,0,0,1,36,43.09c1.87,4,3.88,7.9,5.4,12,.54,1.46.49,4-.42,5-7.39,8.3-16,14.84-26.7,18.59-15.72,5.5-31.84,6.77-48.24,5.29-3.7-.33-7.23-2.21-10.9-3.18-2.43-.64-5-.93-7.43-1.38-.69-.73-1.24-1.85-2.08-2.14a115.58,115.58,0,0,0-14.1-4.19c-2.09-.41-4.5.83-6.77,1.31l-5.76,2.06a11.55,11.55,0,0,0-3,.31C446.72,437.37,439.81,440.32,436.25,447.71ZM536.88,369.5l-.65.2a26,26,0,0,0,1.81,5c6,9.69,14.94,16.1,24.36,22,.39.25.77.52,1.18.73,2.06,1.06,3.37.17,3.19-1.88a15.06,15.06,0,0,0-1.83-5.83c-5.25-9.35-12.49-17.1-20.22-24.39a11.57,11.57,0,0,0-4.6-2.24c-3.78-1.13-4.19-.67-3.59,3.35C536.68,367.44,536.76,368.47,536.88,369.5Zm-32.95,70.34c12,.83,23.78,2,35.52-1.39,10.27-3,20.46-5.82,28.87-12.83a32.85,32.85,0,0,0,2.58-2.69l-.54-.67ZM446.05,434l25.66-8.56C466.51,422.11,447.38,428.49,446.05,434Z"/><path class="cls-2" d="M254.53,434.41l18.09-18.52c.73-1.64,1.8-3.22,2.08-4.93a14.77,14.77,0,0,0-.48-5.51c-.08-.34-2.56-.61-2.67-.35a43.43,43.43,0,0,0-1.75,5.46l-2.46-5.25c.35-1.15.7-2.3,1.06-3.45,8,1.83,13.66-2.5,18.9-7.57,1.88-1.82,1.14-3.76-.82-4.89a23.64,23.64,0,0,0-6.36-2.59,6.76,6.76,0,0,1-5.3-4.86c-.87-2.74-2-5.5-2.23-8.31-.19-2.09.81-4.28,1.28-6.43l1.42-.19,4,.35c.08,1.1-.24,2.88.28,3.16,2.59,1.43,5.39,2.46,8.12,3.63,5.55,1.27,6.14,2.1,5.42,6.63a79.74,79.74,0,0,0-1.26,11.3c0,3.21-.91,5.17-4.19,6.14-5.1,1.5-8.31,5.24-10.41,10-2.18,4.92,1.22,9.79,6.53,9.09a17.12,17.12,0,0,0,12.8-8,21.25,21.25,0,0,1,2.25-2.52l-.5,3.21-.84,1.55-.73,1.47c-4.22,4.56-4,10.48-4,15.93,0,3,2.27,6.1,4.1,8.77a4,4,0,0,0,6.07,1,5.06,5.06,0,0,1,3.33-.55c1,.14,2.52.68,2.79,1.41s-.47,2.16-1.17,2.92c-2.43,2.64-5,5.12-8.14,8.23,3.18.21,5.36.87,7.2.34a14.36,14.36,0,0,0,5.25-3.48c3.39-3.13,6.59-6.47,9.86-9.72l1.26.81a20.65,20.65,0,0,1-.4,3.06c-1.86,6.44-3.79,12.86-5.67,19.3-1.49,5.13-1.26,5.84,3,9.12,1,.78,2.12,1.41,3.18,2.11,4.71,3.1,9,2.21,12.16-2.49a71,71,0,0,0,10.68-25.41,37.25,37.25,0,0,1,1.8-5l1.37-.61c.49.91,1,1.81,1.49,2.71.12,1.6.25,3.19.37,4.78-1.89,4.57-3.9,9.12-3.54,13.83,2.74,0,4.87.1,7,0a6.14,6.14,0,0,0,3.45-.92q6-5.36,11.76-11.06c1.82-1.82,3.1-.94,4.79.14,2.16,1.36,4.54,2.38,6.82,3.54l1.33.81-1,.75c-2.06,2.69-4.56,3.06-7.68,1.85-4.05-1.56-9.59.62-11.63,4.57a16,16,0,0,0,3.76.47c4.68-.59,9.32-1.48,14-2a34,34,0,0,1,5.94.37c-2.91,1.29-5.78,2.72-8.76,3.81-2.71,1-4.91,2.32-5.87,5.17-1.1-5.92-1.1-5.88-7.35-6-2.19,0-4.37-.25-6.55-.45-4.1-.37-5.89.93-6.17,5.05a18.14,18.14,0,0,1-5.39,12.34c-2.95-2.6-9.68-2.74-13.85-.2-2.26,1.37-4.28,3.15-6.58,4.46a65.52,65.52,0,0,1-6.53,2.9l2.24.81c-5.28,1.61-7.67.59-11.16-4.74.63-1.11,1.68-2.18,1.82-3.36.79-6.83.42-13.83,3.52-20.29a3.31,3.31,0,0,0-.53-2.74c-.2-.29-1.77,0-2.41.4-2.62,1.81-4.91,4.25-7.73,5.58-3.45,1.64-4,3.74-2.78,6.93a16.19,16.19,0,0,1,.54,3.06c-.72-.5-1.86-.84-2.09-1.51-2.19-6.19-5.16-12.3-6-18.69-1-7.29-3.28-13-9.57-17.06-2-1.27-3.57-1.75-5.76-.93-3.13,1.17-6.29,2.58-9.56,3-7.57,1-14,4.4-20.35,8.36a8,8,0,0,1-2.71.52l.67-.88.08-.11c2.34-1.77,4.42-4.21,7-5.17,5.72-2.08,11.72-3.38,17.59-5.05a31.22,31.22,0,0,0,5.18-1.83c.66-.32,1-1.4,1.42-2.14-.84-.48-1.67-1.33-2.51-1.35a15.58,15.58,0,0,0-4.41.76C266,431,260.28,432.7,254.53,434.41Zm21.4-14.84-.83,1L287,431C287.21,421,285.19,419.13,275.93,419.57Z"/><path class="cls-3" d="M246.71,445.07a8,8,0,0,0,2.71-.52c6.31-4,12.78-7.32,20.35-8.36,3.27-.45,6.43-1.86,9.56-3,2.19-.82,3.79-.34,5.76.93,6.29,4.06,8.57,9.77,9.57,17.06.88,6.39,3.85,12.5,6,18.69.23.67,1.37,1,2.09,1.51l.71,1.36c-4.07.6-8.18,1-12.19,1.84-8.13,1.72-16.2,3.76-24.32,5.53-7.16,1.57-14.28.58-21.31-1-4.51-1-9-2.3-13.43-3.47-2.07-.54-2.94-1.71-2-3.84,1.06-2.42,2.1-4.85,3.14-7.28a5.15,5.15,0,0,1,0,1c-.57,2.67-2.49,6.33-1.42,7.76,1.37,1.85,5.13,2,7.88,2.73,1.26.35,2.57.48,3.85.72l.77-1.07c-4.9-1.13-5.8-4.05-4.75-8.13.16-.63-1-1.92-1.81-2.41a20.56,20.56,0,0,0-4-1.47C237.05,456.71,240.33,449.82,246.71,445.07Z"/><path class="cls-2" d="M527.24,339.21c-.48-3-3-2.7-5-3.22A17,17,0,0,1,519,334.4c.59-1,1.14-2.12,1.78-3.13,1.23-1.91,2.51-3.8,3.78-5.69-2.16-.48-4.32-1-6.48-1.43s-4.47-.9-6.7-1.35c1.79-.42,3.61-1.28,5.37-1.18,9.19.52,18.37,1.33,27.56,1.93a16.56,16.56,0,0,0,4-.73c-.9-.91-1.65-2.27-2.73-2.65a47.7,47.7,0,0,0-19.38-2.68c-2.23.16-4.54-.81-6.82-1.27h0c2.18.07,4.36.11,6.54.22,5.86.29,11.78.23,17.58,1,5.61.77,9.81,4.4,13.23,8.78.5.64.33,1.81.47,2.74a52.82,52.82,0,0,0-5.76,2.94C544.08,336.83,535.66,338,527.24,339.21Z"/><path class="cls-1" d="M171.34,308.65c2.63-.31,5.38-.23,7.86-1,7.26-2.28,14.1-.85,20.78,1.91,4.23,1.75,8.3,3.92,12.37,6a21.81,21.81,0,0,1,3.35,2.62l-.31,1.05a17.19,17.19,0,0,1-3.66,0c-9.81-2.12-19.55-4.58-29.4-6.4-4.26-.79-8.75-.38-13.14-.36-7.27,0-14.55.21-21.82.33l8.24-2.57,2.5-.19,8-1.15,3.26-.11h.08Z"/><path class="cls-1" d="M527.24,339.21c8.42-1.21,16.84-2.38,24.18-7.28a52.82,52.82,0,0,1,5.76-2.94l-1,1.21-.13.08-.69.77h0q-9.53,7.85-19.05,15.7a19.88,19.88,0,0,0-1.82,1.95l.08-.15-2.06.87-.68.87-.87,1.75c-1.19-1.3-2.36-2.62-3.57-3.9-.73-.77-1.62-2.17-2.29-2.09-4.35.53-7.19-1.87-9.94-4.62Z"/><path class="cls-3" d="M456.77,434.3l5.76-2.06,1.05.51c.72,1.2,1.95,2.35,2.06,3.6.36,4,4.81,7.92,8.9,7.47-3.48,1.33-6.88,3-10.46,3.92-5.63,1.47-11.38,2.46-17.08,3.65.5-1,1.66-2.26,1.39-2.93-1.24-3.07.21-5,2.15-7C452.73,439.18,454.71,436.7,456.77,434.3Z"/><path class="cls-3" d="M155.61,310.22l-8.24,2.57-2.68,1.28a.5.5,0,0,0-.31.29c-6.53-1.08-8.13.63-8.35,7.2a36.7,36.7,0,0,0,7.3,23.59,29.88,29.88,0,0,0,2.56,2.73c5.73,6.11,11.39,12.29,19.49,15.41,1.93,1.19,3.9,2.33,5.78,3.6.54.37.8,1.13,1.19,1.71-7.19-1.07-12.88-5.2-18.07-9.72-7.39-6.44-14.57-13.23-18.13-22.84a37.8,37.8,0,0,1-2.1-18.07c.19-1.56,1.64-3.9,2.92-4.22C143.11,312.26,149.38,311.34,155.61,310.22Z"/><path class="cls-4" d="M303.5,472.71l-.71-1.36a16.19,16.19,0,0,0-.54-3.06c-1.18-3.19-.67-5.29,2.78-6.93,2.82-1.33,5.11-3.77,7.73-5.58.64-.44,2.21-.69,2.41-.4a3.31,3.31,0,0,1,.53,2.74c-3.1,6.46-2.73,13.46-3.52,20.29-.14,1.18-1.19,2.25-1.82,3.36Z"/><path class="cls-4" d="M456.77,434.3c-2.06,2.4-4,4.88-6.23,7.16-1.94,2-3.39,3.93-2.15,7,.27.67-.89,1.94-1.39,2.93l-.93.71-9.82-4.39c3.56-7.39,10.47-10.34,17.49-13.1A11.55,11.55,0,0,1,456.77,434.3Z"/><path class="cls-2" d="M474.54,443.82c-4.09.45-8.54-3.48-8.9-7.47-.11-1.25-1.34-2.4-2.06-3.6a8.82,8.82,0,0,1,2.36.05c5.4,1.69,10.52,4.4,16.42,4.11.33,0,.68.55,1,.84Z"/><path class="cls-1" d="M233.86,463.67a20.56,20.56,0,0,1,4,1.47c.83.49,2,1.78,1.81,2.41-1,4.08-.15,7,4.75,8.13l-.77,1.07c-1.28-.24-2.59-.37-3.85-.72-2.75-.77-6.51-.88-7.88-2.73-1.07-1.43.85-5.09,1.42-7.76a5.15,5.15,0,0,0,0-1Z"/><path class="cls-3" d="M256.41,122.75a13.22,13.22,0,0,1-2.15,3c-4,3.24-5.92,7.59-7,12.45-1.89,8.84-1.29,17.68,0,26.53.25,1.69.2,3.43.29,5.14-.84-3.77-2.08-7.5-2.45-11.31-.81-8.42-.4-16.79,2.31-24.93A18.53,18.53,0,0,1,256.41,122.75Z"/><path class="cls-1" d="M483.38,437.75c-.34-.29-.69-.85-1-.84-5.9.29-11-2.42-16.42-4.11a8.82,8.82,0,0,0-2.36-.05l-1.05-.51c2.27-.48,4.68-1.72,6.77-1.31a115.58,115.58,0,0,1,14.1,4.19c.84.29,1.39,1.41,2.08,2.14Z"/><path class="cls-3" d="M279.4,118.54c-3.35,0-6.77-.5-10,0-4.12.66-8.11,2.11-12.16,3.22,1.7-1.16,3.25-2.91,5.12-3.37C268,117,273.73,116.33,279.4,118.54Z"/><path class="cls-3" d="M166.12,308.88l-8,1.15Z"/><path class="cls-3" d="M472.37,533.86q-.56-4.83-1.13-9.67Q471.81,529,472.37,533.86Z"/><path class="cls-3" d="M247.76,171.25l1.05,5.65Z"/><path class="cls-2" d="M421.15,118.54l2.84-1.33.52.35-3,1.39Z"/><path class="cls-2" d="M323.52,486.19l4.81-.77Z"/><path class="cls-2" d="M331,484.61l2.36,0Z"/><path class="cls-2" d="M253,435.39l.12.07a.57.57,0,0,1,0-.13c-.06-.14-.12-.28-.17-.43l-.22.11Z"/><path class="cls-2" d="M531.91,350.3l.68-.87Z"/><polygon class="cls-2" points="555.44 331.06 555.4 331.05 555.36 331.17 555.44 331.06"/><polygon class="cls-2" points="556.09 330.28 556.22 330.2 556.24 330.35 556.09 330.28"/><path class="cls-3" d="M257,122.14a.5.5,0,0,1-.36.42A.52.52,0,0,1,257,122.14Z"/><path class="cls-2" d="M169.46,308.77h0Z"/><path class="cls-2" d="M534.65,348.56l-.08.15Z"/><path class="cls-3" d="M471.07,523.46a3.06,3.06,0,0,1-.17-.48c0-.08.06-.17.09-.25C471,523,471,523.22,471.07,523.46Z"/><path class="cls-3" d="M247.46,444.08l-.08.11Z"/><path class="cls-1" d="M421.48,119l3-1.39c8-2.29,15.85-5,23.92-6.77,6.76-1.52,13.19.06,19.71,2.92,9.38,4.12,14.53,11.74,19.37,19.9,2.76,4.64,6.07,9.18,7.66,14.23s1.44,10.43,1.73,15.7a106.41,106.41,0,0,1,.05,15.15c-.55,5.93-1.11,12.05-3,17.64-2.65,7.82-6.6,15.21-9.86,22.83a19,19,0,0,0-.79,4.44c1.64.14,3.39.7,4.91.32,5.91-1.46,11.65-3.75,17.62-4.75,9.66-1.6,19.53-3,29,1.13a30.73,30.73,0,0,1,7.32,5.18c2.38,2,1.32,5.89-2.14,7.1-7.31,2.54-14.72,4.79-22.11,7.06-3.43,1.05-7,1.61-10.35,2.87-2.5.94-4.58,3-7.07,3.93-6.82,2.69-8.35,1.06-13.83-4.33-2-1.94-3.77-4.05-5.87-5.83s-3.61-.15-5.16,1.13c-6.26,5.15-8.78,12.18-10.09,19.84l-9.82,21.85c1.19,1.27,3.05,2.31,3.19,3.54.61,5.43.72,10.92,1,16.39-1,0-2.42.45-2.82,0-1.67-1.92-3.37-1.57-5.21-.6s-3.78,2.08-5.66,3.12a19.8,19.8,0,0,1-13.88.31l1.35-2,5.41.12,8.3-2.26c.08-.48.17-.95.25-1.43-3.89.79-4.85-1.71-5.53-4.19-.85-3.1-1.32-6.3-2.07-9.44-.59-2.49.68-3.53,2.85-3.66,2.52-.15,5.05,0,7.67,0,.86-2.91,1.72-5.54,2.4-8.21,1.29-5.09,2-10.38,3.82-15.24,1.94-5.13,4.88-9.89,7.44-14.78,4.31-8.24,5.46-17.06,4.89-26.2-.12-2-1.21-3-3.27-2.14s-4.42,1.63-6.21,3c-9.73,7.47-17.33,16.42-20.12,28.86-1.55,6.91-1.85,6.81-8.7,7.61a16.41,16.41,0,0,0-3.67,1c-1.92.71-2.79.1-3-1.91-.19-1.57-.65-3.11-1-4.66l-.9.19v14.08c-.39,1.08-.78,2.15-1.18,3.23-2.31.94-4.57,2.07-7,2.78a40.42,40.42,0,0,1-6.94,1.28c-3.13.36-6.28.63-9.43.69a34.89,34.89,0,0,1-5.33-.69l4.22-1,1-.47,1.65-.95,1.1-.73.16,0,3.23-3.21a21.16,21.16,0,0,0-2.9-2.64c-3.52-2.2-7.13-4.25-10.69-6.39-.69-.41-1.61-.81-1.88-1.44a6,6,0,0,1-.69-3.56c1.06-3.89-2.68-8.14,1.77-11.93,6.47-5.5,13.92-9,21.58-12.12,3.31-1.36,3.34,2.31,4.8,3.77.19.53.38,1.07.56,1.6s.11.79.17,1.18.25.95.38,1.43v0c1.07,2.78,2.13,5.57,3,7.85l25.52-19.23c3.13-1.73,6.35-3.31,9.32-5.28.68-.46.72-2.25.65-3.4-.12-1.87-1.11-3.82-.79-5.57,1.12-6,2.7-11.87,4-17.82,1.88-8.67,3.76-17.35,5.47-26.06,1.08-5.52,1.91-11.1,2.72-16.67.16-1.11-.28-2.31-.53-4.08-1.18.94-2,1.29-2.32,1.89-2.44,4.23-6.55,3.8-10.44,3.65-.66,0-1.47-1.42-1.85-2.34-.88-2.06.25-5.44-3.05-5.85-3.12-.39-4.78,2.24-5.77,4.71-2.86,7.14-9.13,10.51-14.78,14.92-4,3.14-9.09,5.85-11.1,11.43a9.73,9.73,0,0,1-4.6,4.69c-4.76,2.42-6.21,7.28-9.08,11.1-.47.63-.6,1.55-1.13,2.13s-1.46,1.44-2.14,1.38-1.31-1.11-1.66-1.86c-.53-1.14-.57-2.55-1.24-3.57a11.35,11.35,0,0,0-2.72-2.23c-.41,1.08-1.26,2.22-1.14,3.23.46,3.79,1.53,7.51,1.82,11.29.52,6.77.66,13.57.86,20.36,0,.64-.68,1.3-1,1.94-.74-.42-1.87-.68-2.15-1.31a10.6,10.6,0,0,1-.64-3.71c-.48-11-.85-21.94-1.42-32.9-.15-2.75-1.11-5.45-1.3-8.2a11.18,11.18,0,0,1,.77-5.72c4.79-9,9.7-18,14.84-26.86A83.62,83.62,0,0,1,421.48,119ZM450.42,287c-1.45,2-2.61,3-2.9,4.19-.13.56,1.45,2.13,2.27,2.15a3.23,3.23,0,0,0,2.5-2C452.43,290.31,451.41,289.13,450.42,287Z"/><path class="cls-1" d="M197.7,211.35c-1.42-.2-2.84-.44-4.27-.59-2.21-.24-3.58.46-2.54,2.92.87,2.08,1.24,3.95-.51,5.77a2.71,2.71,0,0,0-.53,1.59c-.27,4.32-2.37,5.54-6.32,3.61a5,5,0,0,1-1.18-.72c-4.87-4.47-10.88-3-16.55-3.1a3.15,3.15,0,0,0-2.41,1.12c-1.66,2.82-3.6,5.63-4.48,8.72a73.19,73.19,0,0,0-2.51,13.94,16.68,16.68,0,0,0,1.36,7.88c1.92,4.36,4.44,8.45,3,13.5a.61.61,0,0,0,0,.35c3,7.13,1.15,16.15,8.46,21.68A10.56,10.56,0,0,1,172,291.9c.48,1,.82,2.74.29,3.42a3.94,3.94,0,0,1-3.4.88,22.12,22.12,0,0,1-7.07-2.73c-5-3.42-10.46-6.35-13.56-12-1.54-2.83-3.7-5.31-5.3-8.11-5.17-9.1-8.24-18.84-8-29.38.22-8.53.75-17.05,1.26-25.57.25-4.3,2.75-7.41,5.69-10.38,1.44-1.45,2-3.72,3.34-5.35a28.75,28.75,0,0,1,5.78-6c5.7-3.87,12.21-5.92,18.87-7.6,6.38-1.61,12.58-4,19-5.36a45.34,45.34,0,0,1,14-1.1c8.48.89,16.88,2.55,24.65,6.47,2.88,1.45,6,2.52,8.92,3.82,2.23,1,2.87,2.48,1.46,4.7-1.12,1.75-2,3.63-3.12,5.4-.48.78-1,1.78-1.74,2.1a103.83,103.83,0,0,1-11.71,4.61c-1.39.41-3.3-.45-4.84-1.07-6.07-2.44-12-5.12-18.15-7.44A3.82,3.82,0,0,0,195,202.6c-.54.9-.25,2.67.28,3.77a22.56,22.56,0,0,0,3.05,3.93Z"/><path class="cls-3" d="M267.18,253.09c1.5,1.07,2.94,2.24,4.52,3.17a7.8,7.8,0,0,0,2.52.54,6.6,6.6,0,0,0-.24-2.43,67.79,67.79,0,0,0-12.53-15.9c-3.13-3-5-7.38-7.15-11.31-.91-1.7,2.18-7.23,4.11-7.24a5.08,5.08,0,0,1,3.7,2.51c4.21,8.48,8.09,17.11,12.25,25.61.71,1.45,2.26,2.49,3.42,3.71l1.35-.88c-.86-2.13-1.6-4.32-2.59-6.4-1.72-3.61-1.23-6.5,1.27-9.87,3.32-4.47,3.41-10.14,3.42-15.57,0-3.82-.38-7.63-.27-11.44a7.23,7.23,0,0,1,5.26-7.28c4.29-1.54,6.3-5.8,6.81-9.72.71-5.55,0-11.29-.13-16.94a18.74,18.74,0,0,1,.4-2.86c1,.39,2.42.51,2.87,1.23,3,4.8,6.14,9.53,8.37,14.67,1.65,3.8,3.46,6.89,7.22,8.86,1.09.57,1.62,2.3,2.3,3.55.37.68.32,1.66.79,2.21,3.56,4.16,6.26,9.19,12.23,10.77,5.37,1.42,7.07,5.49,6.6,10.71-6.09,6.45-11.89,13.07-15.82,21.22-1,2-3.89,4.3-6,4.37a7.9,7.9,0,0,0-6.64,3.45c-1.64,2.09-3.45,4-5.1,6.12-4.58,5.8-9.08,11.66-10.91,19-1.7,2.2-2.69,4.42-.12,6.7.24.28.49.55.73.82-1.23,1.94-2.33,2-4.48.72-3.42-2.09-4.05-4.75-3.89-8.43a17.94,17.94,0,0,0-6.61-15.26c-2.89-2.44-5.46-5.26-8.18-7.9Z"/><path class="cls-1" d="M319.8,144.21c6.42,5.82,12.45,15.13,11.9,19.19L328,158.89l-.85.26c.09,1.26.19,2.51.27,3.76.18,2.75.69,5.52.45,8.23-.27,3.17-2.37,3.83-5.22,2.4a19.67,19.67,0,0,0-5.74-1.74c-4.24-.66-6.68-3.84-7.84-7.11-4-11.29-11.13-20.36-18.87-29.11a3.88,3.88,0,0,0-1.58-1.3c-1.93-.51-3.91-.82-5.87-1.2.52,1.84.7,3.88,1.63,5.49,1.91,3.29,4.28,6.31,6.3,9.55.45.72.2,1.88.28,2.83a7.91,7.91,0,0,1-2.83-.24c-3.84-1.92-7.71.1-8.57,4.59a18.24,18.24,0,0,1-.91,4.37c-.53,1.16-1.61,2.7-2.66,2.88-3.62.63-4,3-4.42,6-.57,4.45-1.78,8.81-2.39,13.26a13.75,13.75,0,0,0,.66,5.4,30.77,30.77,0,0,1,.62,16.1c-.62,2.53-1.8,4.15-4.83,3.67-2.61-.41-3.55,1.05-3.3,3.53a27.86,27.86,0,0,1,0,2.89l-.85.24a7.56,7.56,0,0,1-1.46-2c-1.41-4.88-2.78-9.76-4-14.68-1.14-4.47-2.17-9-3.14-13.48-1.28-6-2.78-11.89-3.57-17.91-1.18-8.89-2.49-17.8-.75-26.82,1.6-8.32,7.55-12.61,14.36-16.13,9-4.65,17.66-1.75,26,1.91,7.91,3.49,15.85,7.13,22.27,13.2,2.09,2,3.92,4.24,6,6.19.52.48,1.7.26,2.58.37Z"/><path class="cls-1" d="M127.53,420.64c.79-2.17,1-4.14,2.08-5.5,5.17-6.78,10-13.92,16-19.94,8.83-8.91,19.18-16,31.64-18.93,3-.7,6.32.13,9.45.58a2.39,2.39,0,0,1,.36,4.71c-5.12.95-8,4.85-11.25,8.2a2.33,2.33,0,0,1-.79.66c-6,2-9.83,6.55-13.78,11-1.67,1.89-3.28,3.82-5,5.65a60.92,60.92,0,0,1-5.35,5.31c-4.6,3.82-9.17,7.7-14.08,11.1a10.16,10.16,0,0,1-6.62,1.33C129.12,424.7,128.4,422.12,127.53,420.64Z"/><path class="cls-3" d="M263.14,273.14c-7.5-4-15.31-7.61-22.39-12.29-3.34-2.21-5.33-6.49-7.8-9.93a3.26,3.26,0,0,1-.27-2.65c1.76-4.49-.7-7.78-2.92-11.17-.76-1.15-1.85-2.16-2.31-3.42a21.25,21.25,0,0,1-.69-4.48c1.63-.11,3.54-.84,4.84-.23a85,85,0,0,1,13.65,7.3c7.52,5.31,14.64,11.18,21.93,16.82l-.5.55c-1.33-.66-2.68-1.28-4-2a88.78,88.78,0,0,0-7.83-4.26c-3.07-1.29-4.19-.4-4.41,3-.2,3.1-.46,6.21-.39,9.32.08,3.38,1.18,6.12,4.74,7.66,3.12,1.36,5.95,3.4,8.91,5.13Z"/><path class="cls-3" d="M416.82,231.23c-.13-.48-.26-.95-.38-1.43,3.07.13,4-1.49,5-4.34,1.62-4.41,4.54-8.36,7-12.44,2.07-3.43,4.35-6.73,6.43-10.16,1.45-2.4,3-3.15,5.61-1.48,7.07,4.42,8.16,7.07,5.74,15.16-.33,1.11-.6,2.23-.9,3.35l-25.52,19.23c-.87-2.28-1.93-5.07-3-7.85Z"/><path class="cls-1" d="M198.91,433.27l1.36-.12c2.54.74,5.11,1.36,7.59,2.24a50.58,50.58,0,0,1,7.26,3.09,3.31,3.31,0,0,1,1.51,2.73,3.52,3.52,0,0,1-2.5,1.94,77.89,77.89,0,0,1-11.63,1.56c-10.05.28-20.11.45-30.16.24-6.66-.14-13.32-.94-20-1.61-1.36-.14-2.65-1-4-1.56l0-1.13a27.81,27.81,0,0,1,4.31-1.1c10.68-1,21.38-1.79,32-3.06C189.54,435.92,194.2,434.37,198.91,433.27Z"/><path class="cls-1" d="M289.23,277c1.83-7.38,6.33-13.24,10.91-19,1.65-2.08,3.46-4,5.1-6.12a7.9,7.9,0,0,1,6.64-3.45c2.09-.07,5-2.34,6-4.37,3.93-8.15,9.73-14.77,15.82-21.22,1.68-1.22,3.67-2.17,5-3.71,2.11-2.46,4.32-2.81,7.35-2.07,3.75.92,5.4,2.43,5.47,6.2,0,2.64-4.8,8.6-7.4,8.78a5.48,5.48,0,0,1-3.12-1.12c-3-2.11-6-2.09-8.48.53-4,4.32-7.74,8.87-11.37,13.48-1.6,2-1.81,4.31,1,5.8l.39,1.24c-.94,3.13-2.61,3.72-5.3,1.73a41.28,41.28,0,0,0-4-2.1c-2.36-1.35-3.84-.77-5.42,1.52-2.65,3.84-6,7.23-8.61,11.09s-4.53,7.83-6.77,11.76c-.34.49-.68,1-1,1.49Z"/><path class="cls-1" d="M144.69,314.07c4.25-.16,8.5-.46,12.75-.44,4.6,0,9.21.2,13.8.55,5.5.42,11,.78,16.47,1.74,5.88,1,11.66,2.68,17.44,4.17.82.21,1.46,1.1,2.18,1.67l-.34,1.08c-2.8-.14-5.61-.12-8.39-.45-10.33-1.27-20.65-2.63-31-4-2.39-.32-4.76-1-7.16-1.16-5.07-.26-8.39,3.26-8.21,7.95-2.13,1-4,2.4-6.07,2.82a6.27,6.27,0,0,1-4.73-1.16,2.86,2.86,0,0,1,.21-4.77c.81-.64,1.47-1.49,2.33-2.07,2.59-1.76,2.43-3.62.38-5.65A.5.5,0,0,1,144.69,314.07Z"/><path class="cls-1" d="M165.38,363.29c-8.1-3.12-13.76-9.3-19.49-15.41.06-1.69.12-3.37.19-5.06,1.6,1,3.27,1.88,4.79,3,4,2.87,8,5.78,11.89,8.77,3.12,2.38,6.15,4.89,10.11,8.06Z"/><path class="cls-3" d="M416.27,228.62c-.18-.53-.37-1.07-.56-1.6C415.9,227.55,416.09,228.09,416.27,228.62Z"/><path class="cls-1" d="M319.72,144.27c0-.48-.05-1-.07-1.44a.46.46,0,0,1,.18.34l0,1Z"/><path class="cls-1" d="M328.63,294c.68,2.07,1.35,4.14,2,6.22.74,4.88,1.78,5.43,6.33,3.47,1.26-.55,2.8-.61,3.86-1.37a41.93,41.93,0,0,0,4.44-4.21c.6,2.1,1.57,4.18,1.72,6.31.41,5.94,2,8.16,7.48,9.72l7.14.32-.57,7.42c.63,2.21,4.33,2.8,3.15,6l-4.27,1.35c-.22-.4-.34-1-.68-1.16-3.54-1.78-7.1-3.52-10.71-5.14-.31-.14-1.26.47-1.49.94-1,2,.17,3.84,2.54,3.91,2.69.07,4.72.81,5.28,3.76-.2.46-.39.93-.59,1.39-2.1.59-4.19,1.18-6.29,1.75-2.84.78-3.53,2.41-1.92,4.89,1.74,2.69,1.32,5-1.09,7a7.94,7.94,0,0,0-1,1.47c1,.1,1.54.18,2.1.21,5.79.4,6.39,1.45,4.38,6.8-.46,1.23-.07,2.77-.07,5.06,2.1-1.76,3.14-2.84,4.37-3.64,5.47-3.59,7.65-6.33,10.59,3a3.86,3.86,0,0,0,2.42,2.4,4.25,4.25,0,0,0,3.08-1.65c.77-1,.94-2.43,1.32-3.52l2.9-1.4.87-1,2.85-1.27c2.22,3.56,5.48,3.94,9.1,2.87a37.92,37.92,0,0,0,4.31-1.87,44,44,0,0,0,2.1,5.33c.46.85,1.58,1.34,2.41,2,.45-.91,1.25-1.82,1.26-2.73a40.65,40.65,0,0,0-.62-5.79c-.3-2.26-1.36-3.86-3.81-4.19l-1.51-.9-1.28-1.14c1.59-4.81,5.41-5.71,9-2.46,1.71,1.53,4,2.38,6.07,3.53,1.79,2.18,3.15,1.14,5-.85l-6.39-3c-1.58-.64-4.43-.79-2.8-3.4a66.63,66.63,0,0,1,7.34-9.05c.61-.67,2-.58,3.11-.84,1.11,2.16,2.65,1.91,4.59,1.08,2.78-1.19,2.5-3.44,2.41-5.72.35-.79.69-1.59,1-2.38,3.59.53,5.4,3.14,7,6,.77,2.83,1.53,5.67,2.37,8.79l-12.42-3.77c1.15,2.9,2.55,4.71,2.29,6.25s-2.18,2.72-4.09,4.86h6.61a13.87,13.87,0,0,1,0,2c-.59,3.56,1.24,7.65-3,10.43-1.54,1,.29,1.94,1.62,2.15l5.6,2.86-1.35,2c-.46,4.08-.88,8.17-1.41,12.24-.17,1.29-.28,3.13-1.1,3.64s-2.62-.17-3.63-.86c-2.28-1.55-3.75-1.56-5.3,1.05-2.59,4.33-5.51,8.45-8.29,12.66-.13.49-.26,1-.38,1.47l-.39.85a17.09,17.09,0,0,1-.26-4.31,61.12,61.12,0,0,1,2.44-9.67,24.63,24.63,0,0,1,3.52-5.72,10.2,10.2,0,0,1,2.41-1.81c-1.56-1.87-2.79-3.52-4.22-5-.66-.67-1.93-1.52-2.55-1.29a3.71,3.71,0,0,0-1.94,2.46c-.41,2.13-.22,4.38-.61,6.52-.17,1-1,2.36-1.78,2.57-4.46,1.18-8.58,5.91-8.57,10.42,0,.63.71,1.26,1.09,1.89l5.87,7.28c.29,2.77-.56,4.29-3.74,4.42-1.26.06-2.72,1.42-3.6,2.57s-1,2.8-1.69,4.13c-2.08,4.11-4.78,4.58-8.1,1.53-.41-.38-1-.61-1.4-1q-3.72-3.23-7.4-6.47l1.32-2.79c1.79-2.28,4.06-4.34,5.25-6.9s2.5-4.3,5.37-4.65a9.07,9.07,0,0,0,2-.69c-.66-3.51-3.5-3.67-5.85-4a14,14,0,0,0-14,6.93l-.26.27L363,396.21l-.37,3.63a32,32,0,0,1-4.56-3.55c-1-1.16-1.52-2.82-2.27-4.25-2.53-4.81-4.57-5.49-9.4-2.87-2.33,1.26-4.5,2.84-7.3,4.63.4-1.39.59-2,.78-2.68l5.08-5.18c1.78-2.09,5.32-4.54,5-6.21-.71-3.47-4.75-2.65-7.69-2.72-1.88,0-3.76,0-5.63,0a27.78,27.78,0,0,1,6.91-6.39c2.25-1.45,4-2.89,2.86-5.83s-3.71-2.61-6.14-2.58c-1.64,0-3.27,0-5.37,0,1.26-2.85,6.86-4.09,2.42-7.64-2.15-1.73-4.56-1.4-5.58,1.32a45.13,45.13,0,0,1,.42,9,2,2,0,0,1-1.27,1.43c-4,.94-7.78-.12-11.58-.84l0-1.2,7.81-1.72c-4.46-2-4.3-1.91-1.63-5.59a7.49,7.49,0,0,0,1.22-5.07c-.12-.71-2.62-1.29-4.09-1.48-2-.26-4.17.07-6.23-.16-3.06-.33-4.89.83-5.55,3.83-.68-.19-1.9-.3-1.95-.59-.76-4.92-1.37-9.87-2.11-15.5l12.94,1.31a26.5,26.5,0,0,0,3.12-3.79c1-1.79,1.84-2.49,3.67-.9,3,2.57,4.09,2.46,6.47-.51,1.77-2.2,3.37-4.53,5.43-7.31.85,1.91,1.37,3.4,2.15,4.75.37.62,1.22,1,1.85,1.44a7.09,7.09,0,0,0,1.19-2.27c.1-1-.57-2-.43-3,.6-4.11.67-3.77-3.38-3.07-5.81,1-11.41,4.1-17.63,2.08-.51-.16-1.56.7-2.08,1.31a33.76,33.76,0,0,0-2.3,3.44l-8.23,1,1.77-3.63c.68-1.85,1.69-3.66,1.89-5.55.07-.72-1.66-2.24-2.65-2.32-1.27-.09-2.61.9-3.92,1.43.65.8,1.35,1.57,1.93,2.43s1.1,1.9,1.64,2.86l-1.2.4-1.65.8c-1.77,1.22-3.56,2.42-5.31,3.66-2,1.43-3.14,1.08-3.22-1.52a41.69,41.69,0,0,0-.29-6.14c-1.07-5.54,2.54-9.06,7.86-7.47,7.56,2.26,8.32,1.77,9-5.82l3.32,4.44c.43.58.85,1.17,1.28,1.76a2.4,2.4,0,0,0,.47.43c2.46,5.66,4.67,6.59,8.91,3.38s8.36-6.69,12.93-10.37c-3.45-.6-6.62-.33-8.77-1.69-4.15-2.63-8.16-1.51-12.32-1l-3.65.41c-3.2-.79-3.53-1.77-1.23-4.19,4-4.21,8.94-7.6,10.87-13.45l1.47,2.63ZM362,391.25l4.43-7.15c.37-.58.77-1.15,1.08-1.76,1.67-3.27.4-5.95-3.26-6-3,0-6,.73-8.79,1.12C357.7,382.12,359.74,386.41,362,391.25ZM382.84,380a64.5,64.5,0,0,0,1.38-8.19c0-.77-1.78-2.44-2.2-2.28a11.08,11.08,0,0,0-4.83,3c-1.33,1.72-.31,3.38,1.64,4.44A35.5,35.5,0,0,1,382.84,380Zm-30.37-6.77,1.46.32q2.71-3.19,5.45-6.38c-.22-.45-.45-.91-.68-1.36-2.23.36-5.11,0-6.47,1.3C351.26,368,352.31,371.11,352.47,373.23Zm55.24-12.9c3.65,0,4.39-1.14,3.31-3.48a37.6,37.6,0,0,0-2.43-4.93c-.43-.66-1.59-.84-2.42-1.23-.28,2.19-.95,4.43-.69,6.55C405.63,358.54,407.2,359.68,407.71,360.33Z"/><path class="cls-1" d="M519.36,316.22c2.28.46,4.59,1.43,6.82,1.27a47.7,47.7,0,0,1,19.38,2.68c1.08.38,1.83,1.74,2.73,2.65a16.56,16.56,0,0,1-4,.73c-9.19-.6-18.37-1.41-27.56-1.93-1.76-.1-3.58.76-5.37,1.18-6.59.75-11.17,5.05-15.94,9-.88.74-1.72,1.52-2.59,2.28-1.09-1-3.28-2.39-3.09-2.9.76-2,1.87-4.41,3.58-5.4,2.84-1.65,6.36-2.08,9.39-3.47,4-1.82,7.77-4.08,11.64-6.14l-.58-1.62c-1.29.26-2.59.48-3.87.79-2.53.62-5,1.47-7.58,1.87-2.24.34-2.56-1-1.71-2.81a2.74,2.74,0,0,1,.57-.87C507.5,308,510,300,514.41,293.25a5.33,5.33,0,0,0,1-1.82c1.53-9,8.68-14.14,14-20.64,6.82-8.37,13-17.31,19.39-26,.07-.09.09-.23.18-.29,1.45-1,2.91-2,4.37-3,.3,1.8,1,3.65.82,5.39a70.76,70.76,0,0,1-9.44,28c-6.16,10.53-11.5,21.61-21.08,29.77-2.74,2.33-4.79,5.48-7.28,8.41Z"/><path d="M394.09,456.56c5,.89,9.31-2.86,8.58-7.88-.36-2.47.54-3.61,2.64-3.94a33.34,33.34,0,0,1,7.58-.49c1,.08,1.83,1.65,2.74,2.54-.83.75-1.53,1.82-2.5,2.19a47.51,47.51,0,0,1-5.73,1.43c1.23,2,2.31,4.19,3.73,6.09q6.39,8.52,13,16.89c3.14,4,2.17,8.61,2,13-.09,2.2-2.08,3.07-4.14,2.54a55,55,0,0,1-10.18-3.21c-1.84-.88-3.06-3.06-4.52-4.7a17.65,17.65,0,0,0-1.87-2.36c-3.13-2.47-6.35-4.83-9.54-7.23a30.16,30.16,0,0,0-3.87-2.86c-4.11-2.13-4.75-3.81-2.7-7.93.41-.82.78-1.67,1.17-2.5Z"/><path d="M298.38,410c.16-1.07.33-2.14.5-3.21,4.43-5,3.69-9.31-2.2-12.09a5,5,0,0,1-3.24-5.16c.24-6.5,1-12.84,4.88-18.39a9.54,9.54,0,0,0,1.5-8.86l.39-2.2,3.88-5.52c3.78,1.39,6.91,5.61,5.48,8.86-1.79,4.05-.24,6.54,2.38,9,2.3,2.18,1.89,4.09-.14,6.2a36.83,36.83,0,0,0-3.16,4.32l-1,1.45-1.46.79c-3,1.51-3.57,3-1.37,5.1a24.45,24.45,0,0,0,6.16,4.37c3.33,1.62,4.54,3.63,2.5,7l-1,.93h-.27l-.09.26a.54.54,0,0,0-.35.38L306.91,406c-2.36.38-2.56,2-2.15,3.88.49,2.24,1.05,4.48,1.71,6.68a15.21,15.21,0,0,1-1.36,12.33,7.22,7.22,0,0,1-4.53,2.87c-.61.12-2.34-2.35-2.54-3.79-.52-3.73-.45-7.54-.68-11.31-.08-1.23-.36-2.44-.55-3.66l.73-1.47Z"/><path class="cls-2" d="M306.91,406l4.84-2.77c.94.26,2,.94,2.79.73a57.67,57.67,0,0,0,8.34-2.94c.46-.2.24-1.93.33-2.95l1.49-1.73c2.7,3.14,3.69,3.24,6.95.83l8.21-6.08c-.19.64-.38,1.29-.78,2.68,2.8-1.79,5-3.37,7.3-4.63,4.83-2.62,6.87-1.94,9.4,2.87.75,1.43,1.23,3.09,2.27,4.25a32,32,0,0,0,4.56,3.55l5.14,7.44-9,2.89c1.9-6.62,1.85-6.61-4.68-8.72a27.81,27.81,0,0,1-6.29-2.82c-2.35-1.49-4.42-2.82-7.3-1.16-3.14,1.8-6.14,3.47-5.16,7.92a5.73,5.73,0,0,1-.32,2c-.63-1.35-1.22-2.72-1.91-4-1.59-3-4.58-3.55-7.11-1.27-.51.46-1,1-1.53,1.4-3.22,2.47-3.05,3.41.52,5.61,1.5.92,3.51,2.22,3.82,3.67,1.13,5.36,6.55,7.12,8.84,11.39-.62,1.4-1.48,4.07-1.84,4a14.89,14.89,0,0,1-6-2.29c-1.8-1.3-2.85-3.64-4.65-4.94-1.16-.84-3.08-.64-4.66-.9l-.37,1.12c1,.65,2,1.29,2.94,2,2.07,1.43,3.36,3.34,2.59,5.88-.23.76-2.1,1.86-2.3,1.69-3.29-2.7-6.12,0-9.12.56-1.58.3-3.21.37-4.81.54a28.43,28.43,0,0,1,1.41-5.08,22.75,22.75,0,0,1,3.17-4.5,7.27,7.27,0,0,0-3-11.61A5.33,5.33,0,0,1,306.91,406Z"/><path class="cls-2" d="M393.72,392.23c-.38-.63-1.08-1.26-1.09-1.89,0-4.51,4.11-9.24,8.57-10.42.79-.21,1.61-1.6,1.78-2.57.39-2.14.2-4.39.61-6.52a3.71,3.71,0,0,1,1.94-2.46c.62-.23,1.89.62,2.55,1.29,1.43,1.46,2.66,3.11,4.22,5a10.2,10.2,0,0,0-2.41,1.81,24.63,24.63,0,0,0-3.52,5.72,61.12,61.12,0,0,0-2.44,9.67,17.09,17.09,0,0,0,.26,4.31,9.44,9.44,0,0,1-4.78,9.26,26.39,26.39,0,0,0-10.16,11.93c-2.4,5.48-5.89,9.64-13.85,7.16-3.93-1.22-8.1-2.63-12.1-2.45-5,.21-9.85,2-14.78,3.06a43.12,43.12,0,0,1-4.57.46l7.77-8.38.66-.82a1.1,1.1,0,0,1,.61.17c-.16,1-.33,1.93-.56,3.3,1.36-.11,2.35-.21,3.34-.26,6.82-.36,13.83-2,19.86,3a2.78,2.78,0,0,0,1.61.57c1.28,0,3.24.36,3.7-.29.61-.86.45-2.76-.1-3.84-2.44-4.81-4.37-10.29-11.09-10.71l3.91-3.58q3.69,3.24,7.4,6.47c.43.37,1,.6,1.4,1,3.32,3,6,2.58,8.1-1.53.67-1.33.81-3,1.69-4.13s2.34-2.51,3.6-2.57c3.18-.13,4-1.65,3.74-4.42,1.36-4.31,2.86-8.59,4-13,.27-1.06-.49-3.32-1.15-3.48-1.33-.31-3.61-.07-4.26.84C396.35,386.43,395.16,389.42,393.72,392.23Z"/><path class="cls-1" d="M425.39,342.64c3.29-1.08,6.58-2.18,9.88-3.21,2.84-.9,4.07-.12,3.72,2.87a28.67,28.67,0,0,1-2.1,7.58c-1.39,3.33-1,4.33,2.54,5.4a52.2,52.2,0,0,1,5.63,2.39c-.05,2.18-.11,4.37-.16,6.56l.27,3.06c-.4,3.57-.94,7-4,9.55s-5,2.23-6.21-1.67c-1.57-5-3.71-9.62-8-12.87-.54-2.69,1.5-3.35,3.3-4.19,2.71-.68,2.94-2.26,1.4-4.26-2.64-3.44-5.37-6.8-8.06-10.19.17-.18.35-.35.52-.51Z"/><path d="M351.35,446.28c-.12-1.59-.25-3.18-.37-4.78a46.11,46.11,0,0,0-2-6.3c-2.26-4.79-1.24-6.88,4-6.79a69.74,69.74,0,0,1,11.6,1.32,4.11,4.11,0,0,1,2.44,2.85,23.24,23.24,0,0,1-12.24,23.72c-1,.51-2.79.78-3.42.24s-.52-2.25-.49-3.44C351,450.82,351.19,448.55,351.35,446.28Z"/><path d="M342.11,447.32c-.5,3-1,7-1.91,10.93-.84,3.49-3.7,4.59-7.06,3.08-2.32-1-4.62-2.13-6.9-3.24-3-1.46-4-3.89-3.08-7.18.6-2.11,1.23-4.21,1.91-6.3a9.31,9.31,0,0,1,11.29-6.42C340.54,439.11,342.15,441.39,342.11,447.32Z"/><path d="M414.48,401.33c-.64,8.94-5,16.14-10.56,22.79-2.88,3.45-5.65,7-8.73,10.27-.92,1-3.08,1.92-4,1.48a4.88,4.88,0,0,1-2-3.95A16.51,16.51,0,0,1,397,418.69a15,15,0,0,0,5.91-6.92c2-4.53,4.22-9,6.62-13.31.66-1.2,2.31-1.86,3.5-2.78.53,1.43,1.1,2.84,1.57,4.28A3.79,3.79,0,0,1,414.48,401.33Z"/><path class="cls-2" d="M425.31,425.63c-1.76,6.07-6.8,8.65-11.92,11.11-1.35.65-2.86,1-4.14,1.72-2.41,1.39-3.92.38-5.71-1.33-2-1.86-1.49-3.44-.2-5.13,3.11-4.09,6.35-8.1,9.44-12.21a21.69,21.69,0,0,0,2.77-4.68c1.62-3.93,4.71-5.22,8.54-3.66s7.69,2.81,11.54,4.19c-7.29.36-13.63,2.73-18.52,8.45-.92,1.08-2.51,1.57-3.66,2.5-1.37,1.1-2.61,2.37-3.9,3.57,1.84-.41,3.9-.44,5.49-1.32C418.28,427.05,421.33,425,425.31,425.63Z"/><path d="M445,405.64c-.64,3.95-1.19,7.13-1.65,10.32-.42,2.84-.61,5.72-1.16,8.52a8.85,8.85,0,0,1-1.81,4.37c-3.88,4-8.22,7.48-13.85,8.73a10.53,10.53,0,0,1-3.25-.34c.27-1,.22-2.38.86-3a111.07,111.07,0,0,1,10.79-10c4.78-3.64,5.35-5.57,1.64-10.1-4-4.9-4-6-.55-11.63.83-1.36,1.22-3,2.05-4.38a17.29,17.29,0,0,1,2.44-2.64c.85.84,2.13,1.53,2.48,2.54C444,400.67,444.5,403.52,445,405.64Z"/><path d="M351.72,417.19,344,425.57l-3.46,2.21c-.88-2.75-1.69-5.26-2.5-7.78a1,1,0,0,0-.34-.15c.1-.71.19-1.43.28-2.14l-.46-1.91-.18-1.45q.34-3.75.67-7.49c.29-3.18,1.71-4.3,4.53-3.15,5.44,2.21,11.13,4.33,11,11.8l-.51,1a1.1,1.1,0,0,0-.61-.17Z"/><path d="M457,374.71c-.08,1.72-2,2.25-4.27,2.3s-3.69-1-3.69-3.51c0-4.47.13-9-.3-13.39a8.17,8.17,0,0,0-2.74-4.73c-4.12-3.64-5-6.47-2.49-11.28.29-.57,1.75-.77,2.65-.72.5,0,1,.86,1.42,1.43,4.6,6.63,8,13.72,8.47,22C456.19,369.07,456.6,371.35,457,374.71Z"/><path class="cls-2" d="M427.12,329.48c-1.6-2.86-3.41-5.47-7-6,.89-.71,1.73-1.92,2.69-2a8,8,0,0,0,6.27-3.65c-3.11.78-4.84.2-5.29-3.18-.14-1.08-1.67-2-2.57-3l.63-2.46,3.19,2.36c.31-3.82.54-6.77.78-9.72.08-1.21.13-2.42.26-3.62.08-.75.1-2,.45-2.12a3.59,3.59,0,0,1,2.48.29c1.6.81,3.09,1.83,4.62,2.77q0,.33,0,.66l-1.35,2-3.14.25c-.23,0-.65.05-.66.12-.65,4.14-1.35,8.27-1.72,12.44,0,.27,2.51,1,3.86,1,.33,0,1.11-1.95,1-2.9-.53-3.4-1.38-6.77-2.11-10.15,1.88,4.87,3.82,9.71,5.61,14.61.73,2,.95,4.25,1.76,6.23s.5,3.11-1.84,3.13a8.07,8.07,0,0,1-2.41,0C429.69,325.57,428.07,326.84,427.12,329.48Z"/><path class="cls-1" d="M473.75,344.69l3.35-1.11q-3.92,13.21-7.84,26.42l-.72,1.93-.44.75c-2.62.26-2.63-1.44-2.6-3.32.09-5.45,1.64-11-.71-16.34-.28-.64.1-1.57.17-2.37l5.25-3.3,2.91-2.52A2.62,2.62,0,0,1,473.75,344.69Z"/><path class="cls-1" d="M394.09,456.56l-3.61,1.6-4.14.43a34.22,34.22,0,0,0-5.95-.37c-4.68.52-9.32,1.41-14,2a16,16,0,0,1-3.76-.47c2-3.95,7.58-6.13,11.63-4.57,3.12,1.21,5.62.84,7.68-1.85L383,453a1.28,1.28,0,0,1,0,.39c3.09,3.37,5.86,3.7,8.38,1,.39-2.12.77-4.25,1.21-6.72a13.49,13.49,0,0,1,3.24.05c1.1.29,2.81.85,3,1.59a5.62,5.62,0,0,1-.82,4C397.05,454.64,395.42,455.5,394.09,456.56Z"/><path class="cls-1" d="M428.36,383.65a7,7,0,0,1,9.33,2.94c-4.62,1.27-6.16,4.78-6.7,9.08-.34,2.72-.83,5.42-1.29,8.38-2.07-1.26-3.22-2.44-4.55-2.7-4-.77-4.63-1.76-3.17-5.69C423.58,391.36,424.83,386.91,428.36,383.65Z"/><path class="cls-1" d="M337.29,414.35l.18,1.45c-.12.66-.23,1.32-.34,2l.52,2.07a1,1,0,0,1,.34.15l-.36,4.17c-2.29-4.26-7.71-6-8.84-11.38-.31-1.45-2.32-2.75-3.82-3.67-3.57-2.2-3.74-3.14-.52-5.61.55-.42,1-.94,1.53-1.4,2.53-2.28,5.52-1.76,7.11,1.27.69,1.32,1.28,2.69,1.92,4Z"/><path d="M382.94,452.58l-1.33-.81c-1.35-1.55-2.7-3.11-4.06-4.65s-3-2.75-3.73-4.46c-.64-1.44-.19-3.37-.22-5.09,1.53.41,3.3.46,4.56,1.29,3.15,2.09,6,4.55,9.07,6.82,3.81,2.85,3.75,5.32-.24,7.91l-4-.23a1.28,1.28,0,0,0,0-.39A.26.26,0,0,0,382.94,452.58Z"/><path class="cls-2" d="M457.91,339.41c-1.93,1.73-3.77,1.22-5-.66a13.54,13.54,0,0,0-8.27-5.76c-3.72-1-4.12-2.55-1.62-5.62,3-3.7,6.27-7.2,9.42-10.78,2,2,1.08,3.55-.71,5.18-2.93,2.66-3.7,5.56-1.75,7.43a70.48,70.48,0,0,0,7,5.3l.93,2.14C457.9,337.57,457.9,338.49,457.91,339.41Z"/><path class="cls-2" d="M446.19,301.53c1.88-1,3.75-2.12,5.66-3.12s3.54-1.32,5.21.6c.4.47,1.85,0,2.82,0,5.16-.78,10.05-.36,14.26,3.18-1.42-.48-2.82-1-4.25-1.43-3.78-1.17-6.08.49-5.42,4.39.26,1.58,2.08,2.89,3.2,4.33-4.3,2.23-3.77,1.69-7.28-1.74-2.7-2.63-6.91-3.74-10.52-5.39A17.76,17.76,0,0,0,446.19,301.53Z"/><path class="cls-2" d="M428.36,383.65c-3.53,3.26-4.78,7.71-6.38,12-1.46,3.93-.86,4.92,3.17,5.69,1.33.26,2.48,1.44,4.55,2.7.46-3,.95-5.66,1.29-8.38.54-4.3,2.08-7.81,6.7-9.08-.44,1.63-.8,3.28-1.34,4.88-1.53,4.54-3,9.12-4.76,13.59-1.37,3.47-2.39,3.59-5.29,1.25a8.52,8.52,0,0,0-2.83-1.89c-3.7-1-4.37-3.46-3.53-6.62.93-3.55,1.75-7.23,3.37-10.47C424.14,385.68,426.62,384.85,428.36,383.65Z"/><path class="cls-2" d="M454.87,410.7l-3.57,1.8c-.3-1.14-.94-2.33-.81-3.41a20,20,0,0,1,1.5-5.65c1.55-3.48.8-6.24-2-8.64a28.8,28.8,0,0,1-2.15-2.5l15.45-.93c-1.18,1.23-2.73,2.28-3.46,3.73a88.21,88.21,0,0,0-4.26,10.3A25.63,25.63,0,0,0,454.87,410.7Z"/><path class="cls-1" d="M454.87,410.7a25.63,25.63,0,0,1,.7-5.3,88.21,88.21,0,0,1,4.26-10.3c.73-1.45,2.28-2.5,3.46-3.73,6-1,6.34-1.4,5-6.22l.6-1.34a6.14,6.14,0,0,1,.77,8.49c-4,5.3-8,10.6-12.08,15.85A22.36,22.36,0,0,1,454.87,410.7Z"/><path class="cls-1" d="M425.31,425.63c-4-.67-7,1.42-10.27,3.21-1.59.88-3.65.91-5.49,1.32,1.29-1.2,2.53-2.47,3.9-3.57,1.15-.93,2.74-1.42,3.66-2.5,4.89-5.72,11.23-8.09,18.52-8.45l1,.75c-.31,2.28-1.93,3-3.86,3.78s-3.58,2.47-5.35,3.76Z"/><path d="M436,306.7c1.37-.49,2.62-1.44,3.45-1.16,4.36,1.5,8.65,3.21,12.88,5,2.07.9,1.77,2.34,0,3.26a76.33,76.33,0,0,1-8.52,3.81c-.82.31-2.59-.06-2.93-.67C439.21,314,437.89,310.76,436,306.7Z"/><path class="cls-1" d="M467.67,309.5c-1.12-1.44-2.94-2.75-3.2-4.33-.66-3.9,1.64-5.56,5.42-4.39,1.43.44,2.83,1,4.25,1.43l1.11.64,1.49,1,9.46,6.49c-.21.48-.42,1-.64,1.44l-6.73-2-2.89-.86h-.58l-4.31.18Z"/><path d="M457.91,339.41c0-.92,0-1.84,0-2.77.33-4.17.65-8.34,1-12.43,6.53,3.12,8.5,8.28,5.28,15.11-.7,1.49-2.36,2.54-3.57,3.79Z"/><path class="cls-2" d="M468.94,383.81l-.6,1.34c-.62-.29-1.66-.44-1.78-.87-1.09-3.76-2.53-7.53-2.87-11.39-.51-5.77.53-11.68-2.71-17.05-1.46-2.42-.32-3.79,4-5.19-.07.8-.45,1.73-.17,2.37,2.35,5.37.8,10.89.71,16.34,0,1.88,0,3.58,2.6,3.32a41.22,41.22,0,0,0-.59,6.43C467.6,380.7,468.44,382.24,468.94,383.81Z"/><path class="cls-1" d="M457,334.5a70.48,70.48,0,0,1-7-5.3c-2-1.87-1.18-4.77,1.75-7.43,1.79-1.63,2.7-3.15.71-5.18,2.62-2.07,3.71,0,3.87,1.91C456.76,323.81,456.77,329.16,457,334.5Z"/><path class="cls-2" d="M426.91,362.3c4.34,3.25,6.48,7.88,8,12.87,1.23,3.9,3,4.3,6.21,1.67s3.6-6,4-9.55c2.73,7,.31,11.53-6.76,13-2.2.44-3.13-.35-4-2.21a57.11,57.11,0,0,0-4.66-9.24c-1.12-1.64-3.37-2.5-5.11-3.71l1.35-2Z"/><path class="cls-2" d="M423.55,343.66c2.69,3.39,5.42,6.75,8.06,10.19,1.54,2,1.31,3.58-1.4,4.26,1.4-3.25-.89-5.14-2.78-7.05-.62-.64-1.74-.8-2.64-1.18-.39,1-1.18,2-1.09,2.94a7.45,7.45,0,0,1-3.26,7.41c-1.33-.21-3.16-1.15-1.62-2.15,4.26-2.78,2.43-6.87,3-10.43a13.87,13.87,0,0,0,0-2Z"/><path class="cls-4" d="M484.3,317.83c1.83-.19,2.74.5,2,2.38-1.26,3.33-2.52,6.66-4,9.9-.34.74-1.58,1.07-2.41,1.59-.5-1-1.62-2.14-1.38-2.83a43.27,43.27,0,0,1,3-5.63c.71-1.35,1.33-2.75,2-4.12Z"/><path class="cls-1" d="M429.5,302.6c.73,3.38,1.58,6.75,2.11,10.15.15.95-.63,2.9-1,2.9-1.35,0-3.88-.73-3.86-1,.37-4.17,1.07-8.3,1.72-12.44,0-.07.43-.08.66-.12Z"/><path class="cls-2" d="M427.39,423.93c1.77-1.29,3.39-2.92,5.35-3.76s3.55-1.5,3.86-3.78c1.39,2.2.76,3.7-1.57,4.6C432.49,422,429.94,423,427.39,423.93Z"/><path class="cls-2" d="M383,453.36l4,.23,4.4.76C388.87,457.06,386.1,456.73,383,453.36Z"/><path class="cls-2" d="M444.9,364.23c.05-2.19.11-4.38.16-6.56C445,359.86,445,362.05,444.9,364.23Z"/><path class="cls-2" d="M471.05,309.12l4.31-.18Z"/><path class="cls-2" d="M473.12,344.83l-2.91,2.52Z"/><path class="cls-2" d="M475.94,309l2.89.86Z"/><path class="cls-2" d="M468.54,371.93l.72-1.93Z"/><path class="cls-2" d="M404.58,395.3c.12-.49.25-1,.38-1.47C404.83,394.32,404.7,394.81,404.58,395.3Z"/><path class="cls-2" d="M425.39,342.64l-1.32.51Z"/><path class="cls-1" d="M486.92,310.81l-.54,1.21-.82-.23c.22-.48.43-1,.64-1.44Z"/><path d="M275.29,367l-1.42.19c-2.58-1.1-3.85.39-4.16,2.54-1.27,8.83-1.34,17.56,2.91,25.79l1.09,2.15-5.31,4.17c-.36,1.15-.71,2.3-1.06,3.45.31,2.32.67,4.64.91,7,.11,1,.42,2.4-.08,3.07-3.1,4.13-6.76,7.4-12.21,8.36-9,1.57-17.86,3.54-27.1,3.07-8.9-.45-13.22-7-9.7-15.3,2.3-5.4,2.16-5.18-2.72-8.38a47.39,47.39,0,0,1-8.54-7.47c-.71-.76-.58-3.42.19-4.23a122.76,122.76,0,0,1,11.29-10.46c4.21-3.4,8.8-6.32,13.17-9.52,2.16-1.58,1.61-3.32-.43-4.33-2.25-1.12-4.78-1.66-7.13-2.61-5.82-2.35-11.4-5-15.24-10.34-1.83-2.56-1.39-4,.67-6.46,3.24-3.9,5.65-8.58,7.88-13.18,1.07-2.2,2.1-3.54,4.54-3.24,3.43.42,6.87.84,10.25,1.54,1.43.3,2.71,1.33,4.19,2.1-2.58,2.31-4.62,4.26-6.78,6.05s-3,4.22-1.62,6.78c3,5.57,6.26,11,9.17,16.58,1,1.86,1.18,4.1,1.91,6.8l2.27-.56.5.6,1.38,1.07,5.46,4a49.07,49.07,0,0,0,4.37,4.83,3.38,3.38,0,0,0,3.07.5,3.19,3.19,0,0,0,1.23-2.85c-1.2-3.6.73-6.26,1.84-9.42,2.31-6.57,3.69-13.47,5.47-20.24.25-.93.4-2.36,1-2.61a3.65,3.65,0,0,1,2.8.72,12.36,12.36,0,0,1,2.63,2.72c2.34,3,3,3,4.76-.62l2.68-2.38a104.37,104.37,0,0,1,8.29-6.47,29,29,0,0,1,8-3.53c1.29-.34,3,.84,4.5,1.33-.72,1.73-1,4.1-2.26,5.05a25.42,25.42,0,0,1-8.35,4c-3,.78-4.95,2.25-5.13,5.19a45.85,45.85,0,0,0,.64,8.4,12.49,12.49,0,0,0,1.05,2.77c-2.16.65-3.92,1.15-5.67,1.7S277,366.46,275.29,367Z"/><path class="cls-1" d="M357.91,302.11l-.81-.82-2-2-7.56-5.2c.13-1,.26-1.94.41-3.08,3.94.67,7.51,1.44,11.13,1.79a4.92,4.92,0,0,0,3.84-1.36c1.24-1.61-2-7.41-4.2-8.17l-4.51-5.64.57-.85c1.53,0,3.07-.09,4.59,0,2.58.2,4.72-.94,4.9-3.29.1-1.42-1.52-3.39-2.89-4.39-1.92-1.4-4.32-2.16-6.54-3.14-2.47-1.08-2.52-2.51-.57-4.11,4.38-3.59,9-5.81,14.93-3.55,2.64,1,5.6,1.13,8.37,1.85,1,.26,2.39,1.07,2.45,1.73.08.89-.81,2-1.55,2.79-1.34,1.39-3.26,2.34-4.25,3.9-2.12,3.37-1.08,5.46,2.76,6.49a5.13,5.13,0,0,1,1.33.39c1.82,1.12,3.62,2.3,5.42,3.45-1.39,1.4-2.84,2.74-4.15,4.21-1,1.13-1.85,2.42-2.76,3.64,1.27.62,2.78,2,3.76,1.73,5.11-1.55,8.36,1.22,11.61,4.29a6.14,6.14,0,0,0,1.19.71l1.41,3.37-4.58,3-.21.14-4,3.25c-.1,1.18-.74,2.83-.2,3.44,2.2,2.47,4.8,4.56,7.15,6.89a39.52,39.52,0,0,1,2.91,3.63c-3.15,1.62-7.77,2-6.1,7.64.17.56-1.41,2-2.43,2.44-.73.33-2.48.06-2.74-.46-1.92-3.8-4.1-7.6-5.22-11.66-2.21-7.95-3.73-16.09-5.7-24.11-.25-1-1.5-1.75-2.28-2.61-.91.95-2.19,1.74-2.66,2.86-1,2.33-1.42,4.87-2.26,7.27s-.18,4,2.34,4.27c3.88.4,4.27,2.42,3,5.49-2.27,2.33-1.68,4.31.49,6.42a44.13,44.13,0,0,1,3.9,5l-3.5,2.18c-3.62,1.54-5-1.52-7-3.4L362.16,314l-.86-2.39-2.43-5.1c3-2,3.2-3.88.56-7.52Zm9.81-32.42c1.14-1.47,2-2.16,2.26-3a6.61,6.61,0,0,0-.18-3.11c-.07-.31-1.29-.67-1.32-.62a6.85,6.85,0,0,0-1.19,2.58A22.51,22.51,0,0,0,367.72,269.69Z"/><path d="M263.72,272.48c-3-1.73-5.79-3.77-8.91-5.13-3.56-1.54-4.66-4.28-4.74-7.66-.07-3.11.19-6.22.39-9.32.22-3.38,1.34-4.27,4.41-3a88.78,88.78,0,0,1,7.83,4.26c1.3.71,2.65,1.33,4,2,2.72,2.64,5.29,5.46,8.18,7.9a17.94,17.94,0,0,1,6.61,15.26c-.16,3.68.47,6.34,3.89,8.43,2.15,1.32,3.25,1.22,4.48-.72,1.86-1.05,3.69-2.15,5.59-3.14a17.46,17.46,0,0,1,2.61-.9,19.7,19.7,0,0,1,.11,2.54,18.37,18.37,0,0,1-.43,2.33l-.79,1.48q-4.69,3.69-9.37,7.4c-.26.2-.35.62-.61.83-2,1.67-4,3.3-6,4.95-1-2-1.93-4-2.86-6a16.42,16.42,0,0,0-1.19-2.88c-2.45-3.42-3.66-6.56-.53-10.54,1.48-1.88.61-4.56-2.36-5.38C270.61,274.26,267.16,273.39,263.72,272.48Z"/><path class="cls-1" d="M421.85,309.19l-.63,2.46-1.6.23c-1.88.47-4.08.48-5.56,1.52-1.8,1.27-4.44,3.66-4.18,5.13.75,4.41-1.45,6.32-4.63,8.05l-2.83,1.86c-2.22,1.59-1.67,3.4-.41,5.27.06.57.11,1.14.16,1.71l-.94,1-4.38,0c-2.71-2.07-.39-4.36-.27-6.55q.84-5.39,1.67-10.78l1.68-.76.72-9.68a9.81,9.81,0,0,1,1.6.57c3.22,1.85,4.34,1.19,4.5-2.66a10.45,10.45,0,0,0-7.91-8.95c.5-1.29,1-2.58,1.49-3.87l1.26.05a8.44,8.44,0,0,0,10.65-1.46c0-1,.38-2.39-.12-3.08-1.77-2.38-3.85-4.53-5.8-6.77l-.43-.54a1.07,1.07,0,0,1-.25-.31.76.76,0,0,0-.35-.4A2,2,0,0,1,405,281a.9.9,0,0,0-.43-.45,1.61,1.61,0,0,1-.28-.24.92.92,0,0,0-.43-.42l-.24-.21-2.55-4.49h6.24c4.64,2.41,9.32,4.75,13.9,7.26,3.71,2,3.66,2.12.73,5.6l-.15.08-6.77,5.35c.11,1,.23,2,.34,2.95l.13.19,2.41,2.09a.3.3,0,0,1,.22.29l3.24,9.88Zm-7.48-27.27-1.49-.1c-1.37,1.48-1.66,2.94-.17,4.38l1.32,0C414.15,284.79,414.26,283.36,414.37,281.92Z"/><path class="cls-2" d="M249.57,376.26l-5.46-4c-.45-.36-.92-.72-1.38-1.07l-.5-.6c.65-2.83-.79-4.83-2.24-7.14-3.37-5.36-6.31-11-9.22-16.63a3.7,3.7,0,0,1,.5-3.4,88.32,88.32,0,0,1,8.94-7.57c4.12-3,8.68-1.13,13.06-.59,3,.37,5.91.91,8.86,1.37h0l.7.16,1.23.12,4.46,4.19-.25,1.07-8.46-1.75-1.18-.25c-5.14-1.87-10.23-1.07-15.1.79-1.19.45-2.39,2.67-2.38,4.07s1.27,3.83,2.39,4.1c4.64,1.11,9.47,2,13.92-.94l1.1-.16.68-.34.75-.52c2.64.66,3.32,2.27,2.83,4.91-1.1,5.78-3.13,11-7.06,15.52A103.58,103.58,0,0,0,249.57,376.26Zm-14.42-25.87-.64-.22.42.45c2.91,5.3,5.64,10.71,8.83,15.83,1,1.62,3.23,2.95,5.36,1.13,1.68-1.43,1.25-4.8-.53-6.52-2.37-2.31-4.51-4.88-7.05-7C239.67,352.55,237.3,351.6,235.15,350.39Z"/><path class="cls-1" d="M239.1,309.06c-1.44-3.21-3.23-6.32-4.21-9.66s-1.18-7-1.7-10.51c-.27-1.8.09-3.14,2.23-3.52,6.88-1.22,13.72-2.71,20.63-3.71,4.93-.72,9.24,1.39,13.19,4.2.81,1.07,1.54,2.21,2.45,3.2,3.42,3.69,4.47,10,2.11,13.08l-10.94-6.93c-7.16-3-10.73-2.57-14,3.68C246.48,303.47,241.91,305.28,239.1,309.06Z"/><path d="M264.08,336.88l-1.23-.12-.7-.16h0c-2.31-.94-4.63-1.86-6.93-2.83-2.15-.9-5.6-1.06-5.23-4.08.33-2.73,2-5.5,3.67-7.78,1-1.32,3.12-2,4.87-2.47a21.62,21.62,0,0,0,10.55-7c3.05-3.52,4.54-3.15,5.95,1.23,1,3,2.75,1.78,4.64,1.08a52.64,52.64,0,0,1,9.46-2.9,5.07,5.07,0,0,1,4.15,2.16c.45.8-.67,3.43-1.74,4a24.31,24.31,0,0,1-7.91,2.27c-1.73.2-3.6-.69-5.4-1.11-3.87-.91-6.61,1-7,5-.29,3.1-.24,6.24-.43,9.36-.28,4.47-.34,4.47-4.65,3.46A11.7,11.7,0,0,0,264.08,336.88Z"/><path d="M351.22,257.93c-2,1.2-4,2.34-5.94,3.63a18.82,18.82,0,0,0-2.35,2.21,15,15,0,0,0,2.91,2c3.12,1.16,6.31,2.13,9.47,3.18-.05.49-.1,1-.14,1.46a16.86,16.86,0,0,1-3.66.9c-6,.17-12,.33-18,.16A5,5,0,0,1,330,269a80.6,80.6,0,0,1-3.52-9.38c-1.35-3.93-.19-5.31,3.85-4.93,5.72.55,11.46.94,17.19,1.45a32.12,32.12,0,0,1,3.46.7C351,257.21,351.13,257.57,351.22,257.93Z"/><path class="cls-2" d="M292.47,275.92c2.24-3.93,4.23-8,6.77-11.76s6-7.25,8.61-11.09c1.58-2.29,3.06-2.87,5.42-1.52a41.28,41.28,0,0,1,4,2.1c2.69,2,4.36,1.4,5.3-1.73.52,2.12,1,4.24,1.55,6.36l-.75.92c-3.65-2.77-6.9-1.95-10.32,0s-4.38,3.35-3.28,7.19c.31,1.1,1,2.07,1.33,3.17a29.18,29.18,0,0,1,.56,3.73c-1.45-.29-3.33-.12-4.25-1-2-1.84-3.53-1.95-5.82-.65C298.65,273.32,295.51,274.52,292.47,275.92Z"/><path d="M395.35,274.56a22.51,22.51,0,0,0,2.08,3c2.47,2.58,5.1,5,7.53,7.63.79.85,1.16,2.08,2.29,4.21-4.69-1-8.37-1.52-11.92-2.54s-6.86-2.49-10.52-3.86a4.85,4.85,0,0,1,.5-1.57c1.69-2.48.88-4.36-1.36-5.86a54.79,54.79,0,0,1-5-3.11c-.92-.77-2-2.31-1.79-3.2s1.91-1.62,3.09-2a14.72,14.72,0,0,1,3.77-.17l.38.42c1.47,4.53,5.63,4.89,9.31,6Z"/><path class="cls-2" d="M315.34,311.61c-.71,7.59-1.47,8.08-9,5.82-5.32-1.59-8.93,1.93-7.86,7.47a41.69,41.69,0,0,1,.29,6.14c-1.93-4.32-5.23-6.21-9.95-5.76a37.61,37.61,0,0,1-4.5-.1l.5-2.27c5.38-.35,10.21-1.61,13.08-6.91.44-.82,2.27-1.34,3.4-1.25,1.91.16,3.76,1.11,5.68,1.36,3.87.49,5.52-1.41,6.21-5.17.77-4.22,1.55-8.77,3.73-12.3a15.53,15.53,0,0,1,10.26-7.3c-1.93,5.85-6.9,9.24-10.87,13.45-2.3,2.42-2,3.4,1.24,4.19C316.79,309.86,316.07,310.74,315.34,311.61Z"/><path class="cls-1" d="M332.94,274.58c4.67-.36,9.34-.82,14-.94.66,0,1.82,1.63,2,2.62.59,4.18.88,8.39,1.29,12.6-1.89.23-2.45-.77-3-2.48-.59-1.92-1.88-3.63-2.86-5.43l-1.09.54c.17,2,.35,4,.46,5.38l-7.93-1.63-1.41-.32c-1.31-.56-2.65-1.06-3.9-1.72-.95-.5-2.29-1.07-2.51-1.87s.6-2,1.25-2.85C330.36,277.09,331.7,275.87,332.94,274.58Z"/><path d="M309.51,302.28c-.93-3.49-1.95-6-2.23-8.67a59.27,59.27,0,0,1,0-9.7,6,6,0,0,1,6.86-5.28c.6.11,1.6,1,1.53,1.39-.73,3.87,2.46,3.78,4.6,4.83.85.42,2.22,1.37,2.13,1.82a3.8,3.8,0,0,1-1.91,2.5c-5.23,1.94-9.35,4.65-9.28,11C311.21,300.53,310.67,300.88,309.51,302.28Z"/><path class="cls-2" d="M239.1,309.06c2.81-3.78,7.38-5.59,9.77-10.17,3.26-6.25,6.83-6.7,14-3.68-2.12.88-4.29,1.67-6.35,2.69a26.52,26.52,0,0,0-4.3,2.74c-1.51,1.15-1.3,2.38-.16,3.85,1,1.32,2.69,3.87,2.31,4.29-1.76,2-4,4.34-6.34,4.74A8,8,0,0,1,239.1,309.06Z"/><path class="cls-2" d="M395.35,274.56l-1.63-1.05c-2.05-3.62-5.63-4.89-9.3-6l-.38-.42c.83-.25,1.7-.8,2.46-.68,2,.3,3.91.89,5.86,1.37a34.89,34.89,0,0,0,5.33.69c3.15-.06,6.3-.33,9.43-.69a40.42,40.42,0,0,0,6.94-1.28c2.39-.71,4.65-1.84,7-2.78-.91,1.16-1.63,2.6-2.78,3.43-3.88,2.76-8.05,4.84-13.06,4.26-.34,0-.74.42-1.44.85l3.6,2.91H401.1l2.55,4.49Z"/><path class="cls-2" d="M273.8,302.14c2.36-3.08,1.31-9.39-2.11-13.08-.91-1-1.64-2.13-2.45-3.2,4.23,1.7,6.37,5.1,7.31,9.33.59,2.7.84,5.46,1.4,8.16a8,8,0,0,0,1.32,2.23,15.89,15.89,0,0,0,2.13-1.44c2.21-2.13,4.35-4.32,6.52-6.49l-5,8.74,1,.84c1.26-1.15,2.58-2.25,3.77-3.47,2.66-2.7,5.25-5.46,7.87-8.19-.79,3.48-1.53,7-2.43,10.43-.13.5-1,1-1.58,1.17a87.86,87.86,0,0,1-10.95,2.69c-1.23.17-3.06-1.14-4-2.28C275.39,306,274.72,304,273.8,302.14Z"/><path class="cls-1" d="M284.79,322.91c-.17.75-.33,1.51-.5,2.27-2.49.51-4.32,1.52-3.4,4.57a22.32,22.32,0,0,1,2.38,3.75c.43,1.09.79,2.69.3,3.57a52.4,52.4,0,0,1-5.31,7.67c-.75.9-2.27,1.16-3.44,1.72,0-.74-.08-1.48-.11-2.21.4-.93,1.15-1.86,1.15-2.78,0-6.17,3.08-12.42-.36-18.53a6.6,6.6,0,0,1-.4-2l7.9,1.15.18.1Z"/><path d="M362.64,251.61c.32-1,.44-2.82,1.36-4a17.7,17.7,0,0,1,5.19-4.57c.4-.22,2.59,2.09,3.46,3.53a41.53,41.53,0,0,1,3.38,7.13c1,2.61-.14,3.71-2.83,3.27-2.37-.39-4.75-.77-7.14-1S362.58,254.5,362.64,251.61Z"/><path class="cls-1" d="M295.6,295.57c-2.62,2.73-5.21,5.49-7.87,8.19-1.19,1.22-2.51,2.32-3.77,3.47l-1-.84,5-8.74c.1-.2.18-.41.26-.62l1-1.1c.07-.1.14-.21.22-.31a1.21,1.21,0,0,0,.45-.45q3.52-4.19,7.07-8.35l.79-1.48,4.32-1.42,2.28.13c0,1,.05,2.09.08,3.13q-1.53,1.68-3.09,3.34l-.86-.31-3-.18-.54,1.49a.59.59,0,0,0-.1.37C296.38,293.12,296,294.34,295.6,295.57Z"/><path class="cls-2" d="M335.82,285.24l7.93,1.63c-.11-1.35-.29-3.36-.46-5.38l1.09-.54c1,1.8,2.27,3.51,2.86,5.43.52,1.71,1.08,2.71,3,2.48a76.78,76.78,0,0,0,8.84,2.34c2.35.35,3.05-1.14,2-3.3q-1.15-2.29-2.29-4.61c2.24.77,5.44,6.57,4.2,8.18a4.92,4.92,0,0,1-3.84,1.36c-3.62-.35-7.19-1.12-11.13-1.79-.15,1.14-.28,2.11-.41,3.08-1.74-1.05-4.2-1.7-5.06-3.24A13,13,0,0,0,335.82,285.24Z"/><path d="M258.58,348l-1.1.16a76.3,76.3,0,0,1-7.89-.66c-1.12-.21-2.88-1.35-2.91-2.12a4.66,4.66,0,0,1,1.91-3.49c1.27-.78,3.06-.75,4.64-1,1.8-.29,3.61-.5,5.42-.74l1.18.25c.87,2.23,2.24,4.44.18,6.75l-.75.52Z"/><path class="cls-2" d="M275.1,320.91a6.6,6.6,0,0,0,.4,2c3.44,6.11.35,12.36.36,18.53,0,.92-.75,1.85-1.15,2.78-.48-6.61-1.06-13.21-1.35-19.82C273.31,323.29,274.49,322.09,275.1,320.91Z"/><path class="cls-2" d="M274.82,346.46c1.17-.56,2.69-.82,3.44-1.72a52.4,52.4,0,0,0,5.31-7.67c.49-.88.13-2.48-.3-3.57a22.32,22.32,0,0,0-2.38-3.75l8.53,4.33c-1.47,2-2.59,3.54-3.79,5.06-2.05,2.61-4.14,5.18-6.22,7.77l-2.68,2.38Z"/><path d="M265.73,308.1c-1.3-1-3.19-1.72-3.73-3-.68-1.65,2.86-4.31,5.39-4.31,2.35,0,3.79,1.14,3.63,3.58C270.83,307.45,268.46,307.44,265.73,308.1Z"/><path class="cls-2" d="M345.29,298.13a41.93,41.93,0,0,1-4.44,4.21c-1.06.76-2.6.82-3.86,1.37-4.55,2-5.59,1.41-6.33-3.47q6-.9,12-1.78C343.54,298.33,344.42,298.24,345.29,298.13Z"/><path class="cls-1" d="M269.8,410.56a43.43,43.43,0,0,1,1.75-5.46c.11-.26,2.59,0,2.67.35a14.77,14.77,0,0,1,.48,5.51c-.28,1.71-1.35,3.29-2.08,4.93l-.39-1.09-1-2.38-.21-.3a.39.39,0,0,0-.24-.29c-.16-.17-.33-.34-.48-.51a.35.35,0,0,0-.21-.25Z"/><path class="cls-2" d="M332.94,274.58c-1.24,1.29-2.58,2.51-3.69,3.9-.65.82-1.46,2.06-1.25,2.85s1.56,1.37,2.51,1.87c1.25.66,2.59,1.16,3.9,1.72l-10.36-1.79C326.75,279,328.1,275.06,332.94,274.58Z"/><path class="cls-2" d="M400.33,293.8c-.49,1.29-1,2.58-1.49,3.87l-4-.76-1.41-3.37Z"/><path class="cls-2" d="M357.91,302.11l1.52-3.08c2.64,3.64,2.42,5.56-.56,7.52Z"/><path class="cls-2" d="M289.23,277l2.23.42c-.79,2.09-1.57,4.19-2.35,6.28C286.54,281.41,287.53,279.19,289.23,277Z"/><path class="cls-2" d="M301.31,290.52q1.56-1.66,3.09-3.34c-.12,1.82-.24,3.63-.35,5.44l-1.05.28Z"/><path class="cls-2" d="M412.24,292.39a8.44,8.44,0,0,1-10.65,1.46Z"/><path class="cls-2" d="M361.3,311.65l.86,2.39a2.26,2.26,0,0,1-.53.44l-7.14-.32Z"/><path class="cls-2" d="M304.32,284.05l-2.28-.13Z"/><path class="cls-2" d="M297.42,290l3,.18Z"/><path class="cls-2" d="M355.12,299.32l2,2Z"/><path class="cls-2" d="M271.27,412.42l1,2.38Z"/><path class="cls-2" d="M289.19,295.93l-1,1.1C288.52,296.67,288.85,296.3,289.19,295.93Z"/><path class="cls-2" d="M397.58,266.27l-1,.47Z"/><path class="cls-2" d="M400.33,264.59l-1.1.73Z"/><path class="cls-2" d="M328.63,294v0Z"/><path class="cls-2" d="M403.89,279.86a.92.92,0,0,1,.43.42A.74.74,0,0,1,403.89,279.86Z"/><path class="cls-2" d="M283.18,322.16l-.18-.1Z"/><path class="cls-2" d="M296.78,291.89a.59.59,0,0,1,.1-.37A.29.29,0,0,1,296.78,291.89Z"/><path class="cls-2" d="M270.82,411.83a.39.39,0,0,1,.24.29A.37.37,0,0,1,270.82,411.83Z"/><path class="cls-2" d="M404.6,280.52a.9.9,0,0,1,.43.45A.9.9,0,0,1,404.6,280.52Z"/><path class="cls-2" d="M405.29,281.29a.76.76,0,0,1,.35.4A.61.61,0,0,1,405.29,281.29Z"/><path class="cls-2" d="M289.86,295.17a1.21,1.21,0,0,1-.45.45A.72.72,0,0,1,289.86,295.17Z"/><path class="cls-2" d="M270.13,411.07a.35.35,0,0,1,.21.25A.23.23,0,0,1,270.13,411.07Z"/><path class="cls-2" d="M405.89,282l.43.54Z"/><path class="cls-1" d="M373.92,540.8c-.62-2.37-.85-4.95-1.93-7.09-4.8-9.52-10.13-18.82-9-30.09a20.43,20.43,0,0,1,4.48-11.14,14,14,0,0,1,.86,2.22c1.38,8.55,8.56,14.28,11,22.1,2.75,8.79,9.38,14.41,14.91,20.91,2.06,2.42,6,3.19,9,4.9a22,22,0,0,1,4.87,3.56c3.92,4,7.7,8.18,11.45,12.36,2.24,2.48,4.74,4.87,6.39,7.73,3.49,6.08,8.88,9.92,14.5,13.63A43.63,43.63,0,0,1,444,583c-5.19,1.66-8.79-.37-12.33-2.27-4-2.13-7.69-4.72-11.71-6.71-4.93-2.45-10.2-4.21-15.06-6.76-8.69-4.55-15.86-11-22.13-18.54-2.49-3-5.87-5.27-8.85-7.87Z"/><path class="cls-1" d="M463,565c.08-1.54.23-3.07.23-4.6,0-3,.78-6.39-.29-9a39.28,39.28,0,0,1,1-33.43,16.32,16.32,0,0,0,.83-3C472.2,519.62,471.47,554.71,463,565Z"/><path class="cls-3" d="M486.92,310.81l-.72-.46-9.46-6.49-1.49-1-1.11-.64c-4.21-3.54-9.1-4-14.26-3.18-.3-5.47-.41-11-1-16.39-.14-1.23-2-2.27-3.19-3.54l9.82-21.85c3.06-1.32,5.75-1.84,8.15,1.58.64.92,3.56,1.1,4.95.51,10.71-4.61,21.3-9.49,31.93-14.28,2.31-1,4.61-2.19,7.51-.14a18.45,18.45,0,0,1-2.14,2.63c-4.17,3.61-8.44,7.11-12.62,10.71-4.45,3.84-8.9,7.69-13.26,11.64-4.11,3.71-4.11,5.26.43,8.32,5.85,4,11.08,3.82,16.76.49a59.56,59.56,0,0,1,5.38-3.16c1-.45,2.3-.21,3.46-.28,0,1.09.49,2.47,0,3.21-3.88,5.86-7.95,11.59-11.94,17.37-2.94,4.26-6.21,8.35-8.7,12.86C492,314.88,492.14,315.05,486.92,310.81Z"/><path class="cls-1" d="M532.56,249.83c-.68-.49-2.21-1.05-2.62-2.06a4.29,4.29,0,0,1,.45-3.8c3.32-3.44,6.49-7.27,11.56-8.2a4.74,4.74,0,0,1,3.39.63c.42.32.13,2.28-.44,3-2.78,3.69-4.74,8.26-9.63,9.89A27.26,27.26,0,0,1,532.56,249.83Z"/><path class="cls-1" d="M536.88,369.5c-.12-1-.2-2.06-.35-3.09-.6-4-.19-4.48,3.59-3.35a11.57,11.57,0,0,1,4.6,2.24c7.73,7.29,15,15,20.22,24.39a15.06,15.06,0,0,1,1.83,5.83c.18,2.05-1.13,2.94-3.19,1.88-.41-.21-.79-.48-1.18-.73-9.42-5.9-18.39-12.31-24.36-22a26,26,0,0,1-1.81-5Z"/><path class="cls-1" d="M503.93,439.84l66.43-17.58.54.67a32.85,32.85,0,0,1-2.58,2.69c-8.41,7-18.6,9.86-28.87,12.83C527.71,441.83,515.9,440.67,503.93,439.84Z"/><path class="cls-1" d="M446.05,434c1.33-5.55,20.46-11.93,25.66-8.56Z"/><path class="cls-3" d="M279.41,346.91c2.08-2.59,4.17-5.16,6.22-7.77,1.2-1.52,2.32-3.09,3.79-5.06l-8.53-4.33c-.92-3.05.91-4.06,3.4-4.57a37.61,37.61,0,0,0,4.5.1c4.72-.45,8,1.44,9.95,5.76.08,2.6,1.2,2.95,3.22,1.52,1.75-1.24,3.54-2.44,5.31-3.66l1.65-.8,1.2-.4,1.11,1.15-1.77,3.63,8.22-1c4.08,1.75,2.92,4.81,1.95,7.82L306.69,338c.74,5.63,1.35,10.58,2.11,15.5.05.29,1.27.4,1.95.6,2-.32,4.12-1,6.13-.84,1.42.11,2.76,1.35,4.13,2.09a30.69,30.69,0,0,1-3.08,3.16,12.4,12.4,0,0,1-3.08,1.22c2,3.18.13,4.73-3.23,6.33l5.71,1.53c4,1,5.14,4.29,2.73,7.63-.74,1-1.38,2.1-2.06,3.16L308.65,383a36.83,36.83,0,0,1,3.16-4.32c2-2.11,2.44-4,.14-6.2-2.62-2.48-4.17-5-2.38-9,1.43-3.25-1.7-7.47-5.48-8.86l-3.88,5.52c-.45-3.65,1.3-7.22-.66-11.12-1.17-2.3-1.78-2.78-3.85-2-1,.36-2,.68-2.9,1.12-4.34,2-4.76,5.46-1.17,8.64,2,1.81,3.86,3.86,5.93,5.63.42.36,1.49,0,2.26-.07a9.54,9.54,0,0,1-1.5,8.86c-3.87,5.55-4.64,11.89-4.88,18.39a5,5,0,0,0,3.24,5.16c5.89,2.78,6.63,7.1,2.2,12.09a21.25,21.25,0,0,0-2.25,2.52,17.12,17.12,0,0,1-12.8,8c-5.31.7-8.71-4.17-6.53-9.09,2.1-4.73,5.31-8.47,10.41-10,3.28-1,4.14-2.93,4.19-6.14a79.74,79.74,0,0,1,1.26-11.3c.72-4.53.13-5.36-5.42-6.63l.21-2.23c2-3.91,1.21-5.13-3.19-4.91-.79,0-1.58.19-2.37.3l-3.05.05-4-.35c1.72-.56,3.43-1.15,5.16-1.69s3.51-1.05,5.67-1.7a12.49,12.49,0,0,1-1.05-2.77,45.85,45.85,0,0,1-.64-8.4c.18-2.94,2.12-4.41,5.13-5.19a25.42,25.42,0,0,0,8.35-4c1.29-1,1.54-3.32,2.26-5.05-1.51-.49-3.21-1.67-4.5-1.33a29,29,0,0,0-8,3.53A104.37,104.37,0,0,0,279.41,346.91Zm7.06,56.32c-3.22,0-6.93,3.54-6.81,6.47.11,2.6,3.07,4.91,6.19,4.85,3.29-.07,6-2.36,5.92-5.06C291.69,405.47,289.77,403.21,286.47,403.23Z"/><path class="cls-3" d="M268.4,401.86l5.31-4.17-1.09-2.15c-4.25-8.23-4.18-17-2.91-25.79.31-2.15,1.58-3.64,4.16-2.54-.47,2.15-1.47,4.34-1.28,6.43.25,2.81,1.36,5.57,2.23,8.31a6.76,6.76,0,0,0,5.3,4.86,23.64,23.64,0,0,1,6.36,2.59c2,1.13,2.7,3.07.82,4.89C282.06,399.36,276.44,403.69,268.4,401.86Z"/><path class="cls-1" d="M275.93,419.57c9.26-.44,11.28,1.42,11.08,11.4L275.1,420.58Z"/><path class="cls-1" d="M288,371.93l-.21,2.23c-2.73-1.17-5.53-2.2-8.12-3.63-.52-.28-.2-2.06-.28-3.16l3-.05Z"/><path class="cls-3" d="M298.38,410l-.84,1.55Z"/><path class="cls-3" d="M382.94,452.58a.26.26,0,0,1,.08.39l-1.08.36Z"/><path class="cls-2" d="M422.2,260.48V246.4l.9-.19c.34,1.55.8,3.09,1,4.66.24,2,1.11,2.62,3,1.91a16.41,16.41,0,0,1,3.67-1c6.85-.8,7.15-.7,8.7-7.61,2.79-12.44,10.39-21.39,20.12-28.86,1.79-1.37,4.09-2.09,6.21-3s3.15.11,3.27,2.14c.57,9.14-.58,18-4.89,26.2-2.56,4.89-5.5,9.65-7.44,14.78-1.83,4.86-2.53,10.15-3.82,15.24-.68,2.67-1.54,5.3-2.4,8.21-2.62,0-5.15-.12-7.67,0-2.17.13-3.44,1.17-2.85,3.66.75,3.14,1.22,6.34,2.07,9.44.68,2.48,1.64,5,5.53,4.19-.08.48-.17.95-.25,1.43l-8.3,2.26c.41-1.42,1.5-3.09,1.1-4.23A79.84,79.84,0,0,0,435,284c-1.54-2.81-.71-4.19,1.75-5.54a16.09,16.09,0,0,0,2.86-2.64,21.28,21.28,0,0,0-3-3c-1.8-1.25-3.8-2.22-5.72-3.3a5.22,5.22,0,0,1,3.11-1.74c9-1.2,14.87-6.2,18.18-14.53.85-2.12,1.24-4.05-.92-5.54-2.48-1.73-2.38-3.92-1.53-6.45,1.14-3.37,2.24-6.78,3.11-10.23.27-1.06-.25-2.32-.41-3.49-1.07.45-2.64.61-3.11,1.41a128.16,128.16,0,0,0-8.18,15.1c-1.21,2.85-.92,6.34-1.23,9.56-.19,2-.8,4.18-3.2,3.4C431.05,255.2,426.59,257.46,422.2,260.48Z"/><path class="cls-3" d="M422.2,260.48c4.39-3,8.85-5.28,14.52-3.44,2.4.78,3-1.37,3.2-3.4.31-3.22,0-6.71,1.23-9.56a128.16,128.16,0,0,1,8.18-15.1c.47-.8,2-1,3.11-1.41.16,1.17.68,2.43.41,3.49-.87,3.45-2,6.86-3.11,10.23-.85,2.53-.95,4.72,1.53,6.45,2.16,1.49,1.77,3.42.92,5.54-3.31,8.33-9.2,13.33-18.18,14.53a5.22,5.22,0,0,0-3.11,1.74c1.92,1.08,3.92,2.05,5.72,3.3a21.28,21.28,0,0,1,3,3,16.09,16.09,0,0,1-2.86,2.64c-2.46,1.35-3.29,2.73-1.75,5.54a79.84,79.84,0,0,1,5.17,11.66c.4,1.14-.69,2.81-1.1,4.23l-5.41-.12q0-.33,0-.66c4.33-.85,4.89-2.9,2.7-7.14-2.48-4.83-8.09-8.48-6.06-15.14a.74.74,0,0,0-.21-.64c-2.66-2.3-5.08-5.06-8.13-6.6-1.09-.55-3.72,1.83-5.59,2.95s-1.64,2.66-.12,3.89c2.23,1.81,4.72,3.32,6.84,5.25a5.89,5.89,0,0,1,2.07,3.87c0,.85-2,1.62-3.16,2.43,2.93-3.48,3-3.57-.73-5.6-4.58-2.51-9.26-4.85-13.9-7.26l-3.6-2.91c.7-.43,1.1-.89,1.44-.85,5,.58,9.18-1.5,13.06-4.26,1.15-.83,1.87-2.27,2.78-3.43C421.42,262.63,421.81,261.56,422.2,260.48Z"/><path class="cls-2" d="M450.42,287c1,2.12,2,3.3,1.87,4.33a3.23,3.23,0,0,1-2.5,2c-.82,0-2.4-1.59-2.27-2.15C447.81,290,449,289,450.42,287Z"/><path class="cls-2" d="M416.82,231.23v0Z"/><path class="cls-3" d="M394.81,296.91l4,.76a10.45,10.45,0,0,1,7.91,8.94,31,31,0,0,0-3.47.75,18.67,18.67,0,0,0-2.63,1.35l-.72,9.68-1.68.76q-.83,5.39-1.67,10.78a54.26,54.26,0,0,0-6.33,4c-.77.65-.74,2.26-1.07,3.44,1.21.33,2.48,1.05,3.63.88,1.4-.2,2.7-1.16,4-1.79l4.38,0,.94-1c-.05-.57-.1-1.14-.16-1.71.14-1.76.27-3.51.41-5.27l2.82-1.85a34.75,34.75,0,0,0,6-2.46,4,4,0,0,0,1.36-3.33c-.7-3.69.55-6,4-7.31a26.71,26.71,0,0,0,3-1.61l1.6-.23c.9,1,2.43,1.89,2.57,3,.45,3.38,2.18,4,5.29,3.18a8,8,0,0,1-6.27,3.65c-1,.11-1.8,1.32-2.69,2-.34.79-.68,1.59-1,2.38l-7,4.64c-1.06.26-2.5.17-3.11.84a66.63,66.63,0,0,0-7.34,9.05c-1.63,2.61,1.22,2.76,2.79,3.4.47,1.28.94,2.57,1.4,3.86-2-1.15-4.36-2-6.07-3.53-3.62-3.25-7.44-2.35-9,2.46l1.28,1.14,1.51.9c-.45,1.79-.9,3.59-1.34,5.38a37.92,37.92,0,0,1-4.31,1.87c-3.62,1.07-6.88.69-9.09-2.86-1.7-1.13-2-1-2.86,1.26l-.87,1c-2.76-.65-5.88-.71-8.18-2.12a7,7,0,0,0-4.82-1.4c-2.46.23-5.21-.08-5.76-3.11-.44-2.38-1.66-3.49-3.65-4.52-3.1-1.6-3.33-5-.91-7.45a24.43,24.43,0,0,0,2.56-3.79c.2-.46.39-.93.58-1.39l5.07-2.31,4.27-1.35c2.63,2.12,4.5,1.2,6-1.47.81-1.48,1.66-2.94,2.49-4.4l3.5-2.19c3-2.33.91-4-.66-5.92-1.39-1.7-2.5-3.63-3.73-5.46,1.31-3.07.92-5.09-3-5.49-2.52-.27-3.19-1.87-2.34-4.27s1.28-4.94,2.26-7.27c.47-1.12,1.75-1.91,2.66-2.86.78.86,2,1.61,2.28,2.61,2,8,3.49,16.16,5.7,24.11,1.12,4.06,3.3,7.86,5.22,11.66.26.52,2,.79,2.74.46,1-.47,2.6-1.88,2.43-2.44-1.67-5.64,2.95-6,6.09-7.64,3-1.24,2.41-2.71.4-4.5-3.47-3.09-6.84-6.3-10.25-9.46l4-3.25.21-.14Zm2.36,1.63c-3,.88-5.38,1.73-4.69,4.18.49,1.73,2.71,3.45,4.56,4.2s5-2.59,4.21-4.28S398.58,299.89,397.17,298.54Z"/><path class="cls-2" d="M318,378.35c.68-1.06,1.32-2.14,2.06-3.16,2.41-3.34,1.27-6.59-2.73-7.63L311.62,366c3.36-1.6,5.21-3.15,3.23-6.33a12.4,12.4,0,0,0,3.08-1.22,30.69,30.69,0,0,0,3.08-3.16c-1.37-.74-2.71-2-4.13-2.09-2-.16-4.09.52-6.13.84.66-3,2.49-4.17,5.55-3.84,2.06.23,4.18-.1,6.23.16,1.47.19,4,.77,4.09,1.48a7.49,7.49,0,0,1-1.22,5.07c-2.67,3.68-2.83,3.57,1.63,5.59l-7.81,1.72,0,1.2c3.8.72,7.58,1.78,11.58.84a2,2,0,0,0,1.27-1.43,45.13,45.13,0,0,0-.42-9c1-2.72,3.43-3.05,5.58-1.32,4.44,3.55-1.16,4.79-2.42,7.64,2.1,0,3.73,0,5.37,0,2.43,0,5-.39,6.14,2.58s-.61,4.38-2.86,5.83A27.78,27.78,0,0,0,336.6,377c1.87,0,3.75,0,5.63,0,2.94.07,7-.75,7.69,2.72.34,1.67-3.2,4.12-5,6.21-1.09-2.47-3.12-3.19-5.65-3.76-3-.66-5.78-2.22-8.69-3.28-.51-.19-1.21.13-1.83.21C325.48,374.6,321.8,375.61,318,378.35Z"/><path class="cls-3" d="M328.77,379.11c.62-.08,1.32-.4,1.83-.21,2.91,1.06,5.7,2.62,8.69,3.28,2.53.57,4.56,1.29,5.65,3.76l-5.08,5.18-8.21,6.08c-3.26,2.41-4.25,2.31-6.95-.83l-1.49,1.73-9.71,3.58c2-3.36.83-5.37-2.5-7a24.45,24.45,0,0,1-6.16-4.37c-2.2-2.14-1.68-3.59,1.37-5.1,3.28,1.46,6.74,2.51,9,5.71.57.78,2.54.77,3.85.75,3.19,0,6.36-.31,9.54-.49,2.22.72,1.91-1,1.77-2.07C330,385.77,329.33,382.45,328.77,379.11Z"/><path class="cls-2" d="M354.29,332.92a24.43,24.43,0,0,1-2.56,3.79c-2.42,2.48-2.19,5.85.91,7.45,2,1,3.21,2.14,3.65,4.52.55,3,3.3,3.34,5.76,3.11a7,7,0,0,1,4.82,1.4c2.3,1.41,5.42,1.47,8.18,2.12l-2.9,1.4c-.38,1.09-.55,2.54-1.32,3.52a4.25,4.25,0,0,1-3.08,1.65,3.86,3.86,0,0,1-2.42-2.4c-2.94-9.32-5.12-6.58-10.59-3-1.23.8-2.27,1.88-4.37,3.64,0-2.29-.39-3.83.07-5.06,2-5.35,1.41-6.4-4.38-6.8-.56,0-1.12-.11-2.1-.21a7.94,7.94,0,0,1,1-1.47c2.41-2,2.83-4.34,1.09-7-1.61-2.48-.92-4.11,1.92-4.89C350.1,334.1,352.19,333.51,354.29,332.92Z"/><path class="cls-2" d="M319.63,339.28c1-3,2.13-6.07-1.95-7.82A35.59,35.59,0,0,1,320,328c.52-.61,1.57-1.47,2.08-1.31,6.22,2,11.82-1.08,17.63-2.08,4.05-.7,4-1,3.38,3.07-.14,1,.53,2,.43,3a7.09,7.09,0,0,1-1.19,2.27c-.63-.47-1.48-.82-1.85-1.44-.78-1.35-1.3-2.84-2.15-4.75-2.06,2.78-3.66,5.11-5.43,7.31-2.38,3-3.51,3.08-6.47.51-1.83-1.59-2.66-.89-3.67.9A26.5,26.5,0,0,1,319.63,339.28Z"/><path class="cls-3" d="M373.66,404.71l-3.91,3.58-2-1-5.14-7.44c.12-1.21.24-2.42.37-3.63l4.46-3.29.26-.27a49.63,49.63,0,0,1,6.24-1.68c3.3-.46,4.66,1.49,3.46,4.61-.81,2.11-1.62,4.23-2.42,6.34Z"/><path class="cls-2" d="M321.16,308.57c4.16-.52,8.17-1.64,12.32,1,2.15,1.36,5.32,1.09,8.77,1.69-4.57,3.68-8.66,7.15-12.93,10.37s-6.45,2.28-8.91-3.38c3-.81,6-1.44,8.88-2.49,1.23-.45,2.16-1.74,3.22-2.65a15,15,0,0,0-3.18-2.57c-1.21-.52-2.71-.29-4-.6S322.54,309,321.16,308.57Z"/><path class="cls-2" d="M362,391.25c-2.29-4.84-4.33-9.13-6.54-13.79,2.8-.39,5.8-1.17,8.79-1.12,3.66.05,4.93,2.73,3.26,6-.31.61-.71,1.18-1.08,1.76Z"/><path class="cls-3" d="M393.72,392.23c1.44-2.81,2.63-5.8,4.45-8.33.65-.91,2.93-1.15,4.26-.84.66.16,1.42,2.42,1.15,3.48-1.13,4.38-2.63,8.66-4,13Z"/><path class="cls-2" d="M375,401.92c.8-2.11,1.61-4.23,2.42-6.34,1.2-3.12-.16-5.07-3.46-4.61a49.63,49.63,0,0,0-6.24,1.68,14,14,0,0,1,14-6.93c2.35.29,5.19.45,5.85,4a9.07,9.07,0,0,1-2,.69c-2.87.35-4.17,2.08-5.37,4.65S376.77,399.64,375,401.92Z"/><path class="cls-3" d="M321.16,308.57c1.38.46,2.72,1,4.13,1.36s2.83.08,4,.6a15,15,0,0,1,3.18,2.57c-1.06.91-2,2.2-3.22,2.65-2.88,1.05-5.91,1.68-8.88,2.49a2.4,2.4,0,0,1-.47-.43l-1.28-1.76-3.32-4.44c.73-.87,1.45-1.75,2.18-2.63Z"/><path class="cls-3" d="M420.44,360.23a7.45,7.45,0,0,0,3.26-7.41c-.09-.93.7-2,1.09-2.94.9.38,2,.54,2.64,1.18,1.89,1.91,4.18,3.8,2.78,7.05-1.8.84-3.84,1.5-3.3,4.19l-.87.79Z"/><path class="cls-2" d="M382.84,380a35.5,35.5,0,0,0-4-3.05c-1.95-1.06-3-2.72-1.64-4.44a11.08,11.08,0,0,1,4.83-3c.42-.16,2.24,1.51,2.2,2.28A64.5,64.5,0,0,1,382.84,380Z"/><path class="cls-2" d="M372.66,322c-.83,1.46-1.68,2.92-2.49,4.4-1.46,2.67-3.33,3.59-6,1.47,1.18-3.17-2.52-3.76-3.15-6l4.65-3.31C367.66,320.47,369,323.53,372.66,322Z"/><path class="cls-2" d="M359.94,329.22l-5.07,2.31c-.55-2.95-2.58-3.69-5.27-3.76-2.37-.07-3.52-1.92-2.54-3.91.23-.47,1.18-1.08,1.49-.94,3.61,1.62,7.17,3.36,10.71,5.14C359.6,328.22,359.72,328.82,359.94,329.22Z"/><path class="cls-2" d="M392.18,354c.44-1.79.89-3.59,1.34-5.38,2.45.33,3.51,1.93,3.81,4.19a40.65,40.65,0,0,1,.62,5.79c0,.91-.81,1.82-1.26,2.73-.83-.66-1.95-1.15-2.41-2A44,44,0,0,1,392.18,354Z"/><path class="cls-2" d="M352.47,373.23c-.16-2.12-1.21-5.2-.24-6.12,1.36-1.28,4.24-.94,6.47-1.3.23.45.46.91.68,1.36q-2.73,3.18-5.45,6.38Z"/><path class="cls-2" d="M407.71,360.33c-.51-.65-2.08-1.79-2.23-3.09-.26-2.12.41-4.36.69-6.55.83.39,2,.57,2.42,1.23a37.6,37.6,0,0,1,2.43,4.93C412.1,359.19,411.36,360.36,407.71,360.33Z"/><path class="cls-2" d="M311.23,328.85l-1.11-1.15c-.54-1-1-1.95-1.64-2.86s-1.28-1.63-1.93-2.43c1.31-.53,2.65-1.52,3.92-1.43,1,.08,2.72,1.6,2.65,2.32C312.92,325.19,311.91,327,311.23,328.85Z"/><path class="cls-2" d="M412.09,330.5l7-4.64c.09,2.28.37,4.53-2.41,5.72C414.74,332.41,413.2,332.66,412.09,330.5Z"/><path class="cls-3" d="M365.71,318.59l-4.65,3.31.57-7.42a2.26,2.26,0,0,0,.53-.44Z"/><path class="cls-2" d="M405.83,347.65c-.46-1.29-.93-2.58-1.4-3.86,2,.94,4,1.89,6.4,3C409,348.79,407.62,349.83,405.83,347.65Z"/><path class="cls-2" d="M367.44,392.92,363,396.21Z"/><path class="cls-2" d="M375.92,354.27c.83-2.24,1.16-2.39,2.86-1.26C377.82,353.42,376.87,353.85,375.92,354.27Z"/><path class="cls-2" d="M392,347.72l-1.28-1.14Z"/><path class="cls-2" d="M318.66,316.05l1.28,1.76C319.51,317.22,319.09,316.63,318.66,316.05Z"/><path class="cls-2" d="M308.92,328.1l-1.65.8Z"/><path class="cls-1" d="M328.77,379.11c.56,3.34,1.2,6.66,1.64,10,.14,1.05.45,2.79-1.77,2.07-.13-3.22-1.8-4.67-5-4.81a8.23,8.23,0,0,1-4.5-1.33c-2.61-2-5.17-2.1-8.08-1a14.16,14.16,0,0,1-3.35.41l1-1.45,9.35-4.63C321.8,375.61,325.48,374.6,328.77,379.11Z"/><path class="cls-2" d="M299.82,362.3c-.77,0-1.84.43-2.26.07-2.07-1.77-3.89-3.82-5.93-5.63-3.59-3.18-3.17-6.62,1.17-8.64.94-.44,1.93-.76,2.9-1.12,2.07-.78,2.68-.3,3.85,2,2,3.9.21,7.47.66,11.12Z"/><path class="cls-2" d="M307.67,384.43A14.16,14.16,0,0,0,311,384c2.91-1.07,5.47-1,8.08,1a8.23,8.23,0,0,0,4.5,1.33c3.24.14,4.91,1.59,5,4.81-3.18.18-6.35.45-9.54.49-1.31,0-3.28,0-3.85-.75-2.3-3.2-5.76-4.25-9-5.71Z"/><path class="cls-1" d="M313.5,401.68l9.71-3.58c-.09,1,.13,2.75-.33,2.95a57.67,57.67,0,0,1-8.34,2.94c-.8.21-1.85-.47-2.79-.73a.54.54,0,0,1,.35-.38.31.31,0,0,0,.36-.27Z"/><path class="cls-2" d="M312.46,402.61a.31.31,0,0,1-.36.27l.09-.26Z"/><path class="cls-1" d="M367.75,407.28l2,1c6.72.42,8.65,5.9,11.09,10.71.55,1.08.71,3,.1,3.84-.46.65-2.42.32-3.7.29a2.78,2.78,0,0,1-1.61-.57c-6-5-13-3.34-19.86-3-1,.05-2,.15-3.34.26.23-1.37.4-2.33.56-3.3l.51-1,5.25-5.34Z"/><path class="cls-3" d="M358.75,410.17l-5.25,5.34c.12-7.47-5.57-9.59-11-11.8-2.82-1.15-4.24,0-4.53,3.15q-.33,3.74-.67,7.49L335,407.42a5.94,5.94,0,0,0,.31-2c-1-4.45,2-6.12,5.16-7.92,2.88-1.66,4.95-.33,7.3,1.16a27.81,27.81,0,0,0,6.29,2.82C360.6,403.56,360.65,403.55,358.75,410.17Z"/><path class="cls-3" d="M351.72,417.19l.66-.82Z"/><path class="cls-2" d="M337.65,419.85c-.17-.69-.35-1.38-.52-2.07l.8-.07C337.84,418.42,337.75,419.14,337.65,419.85Z"/><path class="cls-3" d="M337.93,417.71l-.8.07c.11-.66.22-1.32.34-2C337.62,416.44,337.78,417.07,337.93,417.71Z"/><path d="M422,288c1.12-.81,3.13-1.58,3.16-2.43a5.89,5.89,0,0,0-2.07-3.87c-2.12-1.93-4.61-3.44-6.84-5.25-1.52-1.23-1.85-2.7.12-3.89s4.5-3.5,5.59-2.95c3.05,1.54,5.47,4.3,8.13,6.6a.74.74,0,0,1,.21.64c-2,6.66,3.58,10.31,6.06,15.14,2.19,4.24,1.63,6.29-2.7,7.14-1.53-.94-3-2-4.62-2.77a3.59,3.59,0,0,0-2.48-.29c-.35.11-.37,1.37-.45,2.12-.13,1.2-.18,2.41-.26,3.62-1,2.56-2.74,2.45-4.8,1.5l-.17-1.2-1.2-1.45-1.5-1.71a.28.28,0,0,0-.22-.28c-.26-.62-.53-1.24-.8-1.86.87-1.89,1.67-3.82,2.62-5.66a29.47,29.47,0,0,1,2.07-3.07Z"/><path class="cls-3" d="M421,303.33c2.06.95,3.84,1.06,4.8-1.5-.24,2.95-.47,5.9-.78,9.72l-3.19-2.36-.46-.34C421.27,307,421.15,305.17,421,303.33Z"/><path class="cls-2" d="M475.25,302.85l1.49,1Z"/><path class="cls-3" d="M242.73,371.15c.46.35.93.71,1.38,1.07Z"/><path class="cls-2" d="M386,303.34c3.41,3.16,6.78,6.37,10.25,9.46,2,1.79,2.65,3.26-.4,4.5a37.8,37.8,0,0,0-2.9-3.63c-2.35-2.33-4.95-4.42-7.15-6.89C385.26,306.17,385.9,304.52,386,303.34Z"/><path class="cls-2" d="M371.77,308.43c1.23,1.83,2.34,3.76,3.73,5.46,1.57,1.92,3.63,3.59.66,5.92a44.13,44.13,0,0,0-3.9-5C370.09,312.74,369.5,310.76,371.77,308.43Z"/><path class="cls-2" d="M367.72,269.69a22.51,22.51,0,0,1-.43-4.18,6.85,6.85,0,0,1,1.19-2.58c0-.05,1.25.31,1.32.62a6.61,6.61,0,0,1,.18,3.11C369.74,267.53,368.86,268.22,367.72,269.69Z"/><path class="cls-2" d="M390.23,300l-.21.14Z"/><path class="cls-2" d="M419.62,311.88a26.71,26.71,0,0,1-3,1.61c-3.46,1.3-4.71,3.62-4,7.31a4,4,0,0,1-1.36,3.33,34.75,34.75,0,0,1-6,2.46c3.19-1.74,5.39-3.65,4.64-8.06-.26-1.47,2.38-3.86,4.18-5.13C415.54,312.36,417.74,312.35,419.62,311.88Z"/><path class="cls-2" d="M396.85,336.48c-1.34.63-2.64,1.59-4,1.79-1.15.17-2.42-.55-3.63-.88.33-1.18.3-2.79,1.07-3.44a54.26,54.26,0,0,1,6.33-4C396.46,332.12,394.14,334.41,396.85,336.48Z"/><path class="cls-2" d="M400.65,308.71a18.67,18.67,0,0,1,2.63-1.35,31,31,0,0,1,3.47-.75c-.16,3.86-1.28,4.52-4.5,2.67A9.81,9.81,0,0,0,400.65,308.71Z"/><path class="cls-2" d="M414.37,281.92c-.11,1.44-.22,2.87-.34,4.31l-1.32,0c-1.49-1.44-1.2-2.9.17-4.38Z"/><path class="cls-3" d="M421.82,288.1a29.47,29.47,0,0,0-2.07,3.07c-.95,1.84-1.75,3.77-2.62,5.66l-1.61-.24-.13-.19c-.11-1-.23-2-.34-2.95Z"/><path class="cls-2" d="M421,303.33c.13,1.84.25,3.68.37,5.52L418.15,299l1.5,1.7,1.2,1.46Z"/><path class="cls-2" d="M402.42,328.44c-.14,1.76-.27,3.51-.41,5.27C400.75,331.84,400.2,330,402.42,328.44Z"/><path class="cls-2" d="M415.05,293.45c.11,1,.23,2,.34,2.95C415.28,295.42,415.16,294.43,415.05,293.45Z"/><path class="cls-2" d="M415.52,296.59l1.61.24c.27.62.54,1.24.8,1.86Z"/><path class="cls-2" d="M398.25,319.15l1.68-.76Z"/><path class="cls-2" d="M402.17,335.42l-.94,1Z"/><path class="cls-1" d="M235.16,350.39c2.14,1.21,4.51,2.16,6.38,3.71,2.54,2.08,4.68,4.65,7.05,7,1.78,1.72,2.21,5.09.53,6.52-2.13,1.82-4.36.49-5.36-1.13-3.19-5.12-5.92-10.53-8.83-15.83Z"/><path class="cls-3" d="M258.65,340.14c-1.81.24-3.62.45-5.42.74-1.58.26-3.37.23-4.64,1a4.66,4.66,0,0,0-1.91,3.49c0,.77,1.79,1.91,2.91,2.12a76.3,76.3,0,0,0,7.89.66c-4.45,2.94-9.28,2-13.92.94-1.12-.27-2.38-2.67-2.39-4.1s1.19-3.62,2.38-4.07C248.42,339.07,253.51,338.27,258.65,340.14Z"/><path class="cls-1" d="M234.93,350.62l-.42-.45.64.22Z"/><path class="cls-3" d="M262.15,336.6l.7.16Z"/><path class="cls-3" d="M258.58,348l.68-.34Z"/><path class="cls-3" d="M384.42,267.5c3.67,1.12,7.25,2.39,9.3,6C390.05,272.39,385.89,272,384.42,267.5Z"/><path d="M286.47,403.23c3.3,0,5.22,2.24,5.3,6.26.06,2.7-2.63,5-5.92,5.06-3.12.06-6.08-2.25-6.19-4.85C279.54,406.77,283.25,403.24,286.47,403.23Z"/><path class="cls-2" d="M288,371.93l-5.57-4.61c.8-.11,1.59-.26,2.38-.3C289.16,366.8,290,368,288,371.93Z"/><path d="M397.17,298.54c1.41,1.35,3.34,2.46,4.08,4.1s-2.45,5-4.21,4.28-4.07-2.47-4.56-4.2C391.79,300.27,394.21,299.42,397.17,298.54Z"/><path class="cls-3" d="M420.85,302.13l-1.2-1.46Z"/><path class="cls-4" d="M364.54,720H341.2c1.54-4.3,3.45-10.26,5.82-18.47,10.6-36.76,23.11-95.59,20.68-111C365.32,575.4,377.39,600.35,364.54,720Z"/><path class="cls-4" d="M364.93,464.61s-1,13.64-6.54,17.67-10.73,2.14-11.37,6.82,2.7,40.42,3.07,48.94,1,153.19,1.63,155.58,16-122.74,15.12-134-8.71-8-7.65-27-2.8-21.07-2.87-27.54-2.77-13.79,2.16-15.92S373.6,460.28,364.93,464.61Z"/></svg>