<svg id="frame12" xmlns="http://www.w3.org/2000/svg" viewBox="0 0 720 720"><defs><style>.cls-1{fill:#977c35;}.cls-2{fill:#3e0d14;}.cls-3{fill:#802137;}</style></defs><title>Frame 12</title><rect width="720" height="720"/><path class="cls-1" d="M341.29,720c.66-6.41,1.48-12.81,1.93-19.24,1.9-26.63,4.1-53.25,5.39-79.92,1.08-22.38,1.5-44.82-.64-67.21-.37-3.91-.55-7.84-.82-11.75q-.47-6.81-.94-13.62c-.1-1.77-.21-3.54-.31-5.3q-1.15-15-2.31-30l-.57-3.35c-.19-5-.33-10.05-.59-15.08-.13-2.46-1.48-5.51-.47-7.21s4.3-2,6.59-3l2.95-.13c6.43-.66,11.36-3.82,15.42-8.77a23.82,23.82,0,0,1,5.59-4.42,2.58,2.58,0,0,1,2.51.14,3.17,3.17,0,0,1,.52,2.76,73.17,73.17,0,0,1-5.34,10.29c-1.56,2.32-2.84,4.41-2,7.27a26.94,26.94,0,0,1,.34,13.23c.78,10.83,1.51,21.66,2.34,32.48,2.87,37.71,5.58,75.41,3.14,113.27q-2.75,42.56-5.3,85.14a27.65,27.65,0,0,0,.39,4.33Z"/><path class="cls-2" d="M268.31,261.45c2.4-2.16,1.54-4.52.37-6.87-.55-1.1-1.17-2.17-1.76-3.26a28.84,28.84,0,0,0,2.15-3.92c.67-1.8.47-4.18,1.6-5.5,4.55-5.29,9.09-10.73,14.38-15.22,3.58-3,4.89-6.21,4.41-10.47-.31-2.74-1-5.43-1.41-8.17-.54-4.15,2.77-7.39,5.84-5.52A42.82,42.82,0,0,1,302,209.3c3,3,5.42,6.54,8.29,9.65,2.45,2.67,5.15,5.1,7.8,7.58,1,1,2.27,2.53,3.32,2.46s1.91-1.9,2.85-3c.46,1.45.92,2.89,1.37,4.32,0,3,.11,6.06.17,9.1q.46,5,.95,10c-.49.41-1.31.76-1.41,1.25-.79,3.92-1.65,7.85-2.09,11.82-.38,3.46-.94,6.35-4.39,8.36s-6.72,4.87-9.95,7.49a18.11,18.11,0,0,0-2.51,3.14l.94,1.17,6.17-3,2.13,1.42c-2.87,1.67-5.72,3.38-8.62,5-1.19.66-2.53,1-3.74,1.66a50.59,50.59,0,0,0-5.85,3.27,23.54,23.54,0,0,0-4.76,4.37c-1.3,1.64-2.12,3.68-3.53,6.24a31.75,31.75,0,0,0,3.56-.18c4.18-.85,8.32-2.2,12.53-2.48,3.45-.23,5.86-1.27,7.94-4a5.33,5.33,0,0,1,3.69-1.93c4.9.1,5.28-.09,5.18-4.9,0-1.38-.25-2.76-.38-4.13,0-.45,0-.9,0-1.35l.73-.33c.53,1.07,1.41,2.1,1.53,3.21.72,6.34.86,6.49,7.46,6.54,3.66,0,7.32.17,11.53.27-.22.44.05.06.17-.35.79-2.92,1.72-5.81,2.23-8.78a3.28,3.28,0,0,0-1.53-2.79,41.88,41.88,0,0,0-8.32-2c-3.42-.43-6.89-.42-10.33-.6a18.64,18.64,0,0,1,4.13-1.25c2.86-.22,5.77.1,8.62-.23a3.53,3.53,0,0,0,2.42-2.34c.29-2.41,1.22-3.89,3.65-4.31s4.57.23,5.91,2.52c.53.91,1,1.84,1.51,2.74l2.62-3.94c.48,2.92,1.18,5.63,4.81,6.15.38.05.65.85,1,1.3-1.14,0-2.42.29-3.4-.13-3.24-1.38-4.66.73-6,2.9-.84,1.35-1.11,3.19-2.21,4.19-2.07,1.9-1.64,3.06.29,4.62,1.77,1.44,2.69,3.26.43,5.17-3.37,2.85-3.37,3.46.07,6.85l3.5,7.07H340.09c0-3.67.09-7.35-.15-11-.07-1-1.2-2-1.84-3l-6.15,0h-1.47c-4-.35-5.33.55-6.23,4.33-.46,5.25-.37,5.34,5,5.93,1.35.15,2.68.41,4,.62,1.8,3.4,4,6.3,8,7.25l0,0,5,4.42,0-.1a15.23,15.23,0,0,1,1,3.64c0,1.25-.12,3.12-.9,3.61a3.86,3.86,0,0,1-3.67-.56c-1.79-1.81-3-4.16-4.69-6.13-.74-.88-1.95-1.9-3-1.92-4-.08-7.93.22-11.9.39l-.95-2.69-1.39-4.1-1.19.17-.4,2.63v.81c-1.58,1.52-2.95,3.38-4.78,4.48-2.8,1.69-4.47,4.22-4,7.08.48,3.21,3.7,1.72,5.82,1.92,2.85.26,5.74.23,8.55.72,1,.18,2.62,1.6,2.54,2.27a4.76,4.76,0,0,1-2.24,3.17c-3.15,1.62-6.5,2.85-9.76,4.23l-3.76-5.6-1.78-2.33-.93.55,1.14,2.67.12,3.75c-2,1.91-4.28,1.91-6.65.75a19.22,19.22,0,0,0-3.7-1.82c-.84-.2-2.64.29-2.72.71-.64,3.35-1,6.75-1.4,10.13.23.93.46,1.85.81,3.28l5.63-3.77,4.39,1.09,3.18.28c1.06,1,2.51,1.87,3.05,3.12.31.72-.69,2.2-1.41,3.09a7.33,7.33,0,0,1-2.37,1.32l-2-.29L299.61,353c.9,7.77.33,8.53-6.93,9.94a14.14,14.14,0,0,1-2.06.08c1.21-1.16,2.73-2.13,3.53-3.51s1.37-3.3.86-4.48c-1-2.23-2.48-.56-3.54.37-2.61,2.26-5.1,4.65-7.7,6.91-2.19,1.91-4.38,3.92-8.15,3.85.68-2.92,1.6-5.32,1.72-7.76a28.25,28.25,0,0,0-1-7.85c-.15-.59-1.94-.91-3-1-.39-.05-1.19.74-1.3,1.26-.86,4.14-1.42,8.36-2.44,12.46-.8,3.23-2.11,6.34-3.19,9.51.22-2.62.35-5.25.71-7.84s1-4.95,1.39-7.44-.21-4.47-2.9-5.58c-2.35-1-2.07-2.61-.17-3.86a48.64,48.64,0,0,1,4.94-2.57c-3.21-.73-6.22-1.51-9.27-2.09-2.2-.42-2.91.45-2.31,2.75s1.34,4.63.81,6.65a47.39,47.39,0,0,1-4.26,10.15c-1.58,3-1.53,4.58,1.58,5.45s4.68,2.15,4.86,5.58c.11,2.25,1.72,3.59,4.1,1.67a30.16,30.16,0,0,1,0,3.56c-.4,3.34-.43,6.53,3.11,9.75a47.21,47.21,0,0,0,.77-4.95c.22-5.77.82-6.47,6.5-7.09,6.67-.73,7.44-1.61,7.33-8.41-.07-4.57,1.21-5.71,5.82-5.17-.18,1-.85,2.26-.45,2.83,2.42,3.52,5.08,6.88,8.17,10.95a85.59,85.59,0,0,0,1.48-9.38c.09-1.9-.44-3.79,2-4.49s3.51,1,4.42,2.87c0,1.63.71,2,2.05,1.07,1.61.08,3.35-.19,4.79.34a4.81,4.81,0,0,1,2.56,2.85c.17.63-1.26,1.76-2.05,2.59a7.11,7.11,0,0,1-1.41.87l.81.69-2.79,4.59c.5.23,1,.5,1.51.69,2.18.83,5.07.81,5.18,4.16s-1.87,5-4.64,6.18a20.25,20.25,0,0,0-4.16,2.46c-1.32,1-1.37,2.12.44,2.78l17.61,6.46v-8.56c2.07-.28,3.7-.89,5.17-.6a33,33,0,0,1,5.83,2.21,27,27,0,0,1-2.06,4.38,32.33,32.33,0,0,1-4.35,4.93c-.68.64-2.16,1.25-2.84.93-3.56-1.69-7-2.29-10.46.1-3.13,2.14-6.32,4.21-9.26,6.57-.44.35-.09,2.72.59,3.24,3.42,2.56,4.62,9.57,1.19,12.16-4.42,3.34-5.87,8.13-8.09,12.64-.4.82-1.32,1.38-2,2.07-.52-.92-1.39-1.79-1.51-2.76-.85-7.22-1.45-14.47-2.39-21.68a4.28,4.28,0,0,0-2.5-3c-2.69-.56-3-2.07-2.74-4.28.27-2,.46-4,.66-5.72-6,1-11.64,1.66-17.17,3-1.16.27-2.27,2.65-2.58,4.22-.81,4-1,8.17-1.76,12.23a3.83,3.83,0,0,1-2.06,2.55c-3.9,1.27-7.86,2.82-11.89,3.16-6,.51-8-2.79-5.57-8.28,1.74-4,3.52-8,5.05-12.08.42-1.13,0-2.58,0-3.88a21.33,21.33,0,0,0-3.59,1.32c-3.54,2.09-6.84,4.68-10.54,6.41a139.75,139.75,0,0,1-15.51,6,87.3,87.3,0,0,1-10,2.09,8.88,8.88,0,0,1-.37-1.66c.38-7-.24-7.93-6.86-10.19-3.07-1-3.91-2.75-2.17-5.95,4.1-7.58,11.23-11.9,18.66-15.25,5.52-2.48,11.73-3.11,18-2.92,2.49.08,5.05-1.68,7.58-2.6,2.42-1.13,4.8-2.4,7.29-3.34,1.59-.59,3.32-.84,2.72-3.11s-2-2.62-4.24-1.93a53.15,53.15,0,0,1-7,1.13,26.62,26.62,0,0,0-6,1.29c-.83.35-1.09,2-1.62,3.11-2.64,0-5.35-.34-7.92.11-5.36.95-10.65,2.32-16,3.52-3.07-5.22-6.32-10.35-9.12-15.71-1.18-2.24-1.43-5-2.11-7.49,2.82-1.4,4.8.2,6.85,1.81,2.71,2.14,5.51,4.18,8.26,6.26a3.39,3.39,0,0,0-.3-2.35c-3.31-7.33-2.21-9.12,5.62-9.8a18.15,18.15,0,0,0,5.73-2,2.24,2.24,0,0,0,.82-2,2.49,2.49,0,0,0-1.75-1.31c-1.35-.24-2.79,0-4.14-.24-5.64-1.05-11.3-2-16.88-3.38-3.81-.92-5-3.84-4.32-7.51s1.41-7.46,2.28-11.15c.54-2.33,2.39-2.95,4.56-2.77s4.6.64,6.89.62c11.47-.14,21.32,3.24,28.49,12.71a6.39,6.39,0,0,0,1.8,1.15l.86-.64c-.68-1.31-1.26-2.67-2-3.91-2.62-4.16-5.27-8.3-8-12.38a5.1,5.1,0,0,0-2.35-1.85c-4.56-1.61-9.14-3.24-13.81-4.48-1.47-.39-3.26.41-4.91.67l-2.42.32-1.36-.64-2.06.08-4.16.8-5.23,1.28c-1-.28-2.18-.31-2.94-.9a10.22,10.22,0,0,1-3.17-3.42c-2.14-4.65-3.68-9.59-6.05-14.1-2-3.76-4.77-7.07-7.2-10.59-3.45-5-.48-9.94,0-14.91,0-.28.4-.55.66-.78,5.08-4.56,10.08-9.32,17.85-7.51a6,6,0,0,0,1,0c12.45.49,24.58,2.08,34.82,10.18a4.53,4.53,0,0,0,2.24.84c2.33.22,3.41,1.54,3.88,3.73a9.82,9.82,0,0,0,1.44,3.5,12.72,12.72,0,0,0,2.65,2.2c.45-1.15,1.39-2.38,1.24-3.44-.32-2.22,0-3.31,2.51-3.26.67,0,2-1.31,1.95-1.34-2-3.05.64-5.36,1.23-7.95,1-4.18,6.14-6.35,9.65-3.85A123.57,123.57,0,0,1,277.26,277c1.75,1.6,2.75,4,4.14,6.13C287,277.1,277.31,261.74,268.31,261.45Zm18.18,86.36a2.32,2.32,0,0,1,.16-.44l2.86-2.07a11.44,11.44,0,0,0-2.49-2.11,27.47,27.47,0,0,0-5.59-1.82,3.16,3.16,0,0,0-2.71.73,2.91,2.91,0,0,0,.1,2.82c4.5,4.91,1.7,10,.56,15.05-.22,1-.47,2-.85,3.53C286.13,358.62,287.86,355,286.49,347.81Zm-16.63-33c3.49-1.71,6.28.62,9.29,1.63l1.38.73h0c.17,1,.32,2.05.52,3.07,1.72,8.66,8.05,10.93,14.72,5,2.14-1.9,3.32-4.86,5.31-7,2.47-2.65,2.19-5.69,1.8-8.75-.07-.52-2.08-1.46-2.59-1.17-3.76,2.15-7.32,4.65-11.06,6.85a23.52,23.52,0,0,1-4.58,1.56l-3-2.75-.4-1-.48-1.67-.54-2.51c4.9,2.6,9.43.12,14-1.24,1.56-.47,2.77-2.11,4.14-3.21-1.83-.26-3.65-.51-5.48-.75-.1,0-.22.06-.33.1-2.15.82-4.83,1.51-5.84-.84a7.31,7.31,0,0,1,.9-6.09,144,144,0,0,1,10-11.44c3.66-4,7.5-7.82,11.07-11.89.66-.74,1-2.83.52-3.27a5.4,5.4,0,0,0-3.64-.93c-.94,0-1.84.87-2.78,1.32-2.85,1.38-5.84,2.56-8.53,4.2-1.42.87-3.14,2.45-3.35,3.9-1.18,8.18-5.27,14.77-10.39,20.95a33.67,33.67,0,0,0-3,5.32l-4.09-1.63a19.23,19.23,0,0,0,2.29-2.5,16.4,16.4,0,0,0,2.33-4.68c.23-1-.68-2.23-1.08-3.35a13.61,13.61,0,0,0-2.91,1.52c-2.18,1.88-4,4.38-6.39,5.78-4.88,2.84-7.51,7-8.95,12.22-.72,2.61-2,3-3.76,1-1.48-1.61-2.72-3.47-4.25-5-1.94-2-4-1.72-5.14.43-3.19,6-2.14,10.52,3.36,14.46.29.21.57.41.86.59,3,1.78,4.18,4.1,3.65,7.81-.55,3.86-.12,7.87-.12,12.16,3.75-1.09,4-3.5,4-5.77a40.59,40.59,0,0,1,7.19-24.84c2.45-3.56,4-8.21,8.84-9.73l-.9,2.67c-1.94,3.84-6.71,5.83-7,10.75a97.2,97.2,0,0,0-3.82,10.1c-.52,1.92.83,3.15,2.95,2,3-1.64,6-3.4,8.95-5.13,1.7-1,1.82-2,.38-3.52A48.93,48.93,0,0,1,269.86,314.83ZM252.2,349.07l-.78-1-4-2.6c-1,1.59-2.42,3.08-2.76,4.79a27.69,27.69,0,0,1-6.68,13.4c-.48.54-1,1.89-.84,2.05,2.18,1.9,4.27,4.13,6.83,5.27,2.35,1.06,3.82-1.06,5-3.18a33.87,33.87,0,0,1,4.34-6.49c3-3.41,3.6-11.31.16-15.33Zm28-10.47.25.66a39,39,0,0,0,5.19-.05c2.24-.3,5.07-4.19,4.3-5.9-1.18-2.66-3.48-2.14-5.68-1.58-.67.17-1.32.44-2,.55-2.08.32-3.68-.18-4.16-2.54-.67-3.31-2.73-3.31-4.77-1.54-3.81,3.29-7.47,6.76-11,10.35-1.54,1.58-.79,3.28,1.32,3.44a25.09,25.09,0,0,0,7.17-.57C274,340.71,277.1,339.56,280.22,338.6Zm11.08,59.24c-.21.2.34-.07.39-.41.56-4.19,1.57-8.42,1.34-12.58a8.51,8.51,0,0,0-3.86-6.17c-3.6-1.78-7.75-1.33-11.78.39,1.32,4.21,2.59,8.3,3.93,12.37a2.6,2.6,0,0,0,1.15,1.22C285.29,394.35,288.13,396,291.3,397.84Zm-50.12-8.48c-1.66,0-2.58,0-3.5,0-4.6.08-5.49,1.06-3.19,5.09s5.5,7.55,8.43,11.2a2.3,2.3,0,0,0,2.17.55c1.69-1,4.29-2.19,4.55-3.65.48-2.74,3.47-5,1-8.6C248,390,244.82,388.75,241.18,389.36ZM271,404.17c-1.48-2.92-2.94-5.89-4.55-8.78a2,2,0,0,0-1.75,0c-2.09,3.83-4.34,2-6.77.41-.6-.4-1.68-.08-2.53-.09a12.77,12.77,0,0,0,.35,2.49c.94,2.7,2.06,5.33,3,8,1.16,3.49,2,7.1,3.33,10.53.4,1.05,1.92,1.67,2.93,2.49.61-1,1.26-2,1.8-3.11a3.21,3.21,0,0,0,.17-1.36c0-3.38-.07-6.75,3.25-8.95C270.63,405.58,270.72,404.86,271,404.17Zm34-35,.22,0-.07-.19Z"/><path class="cls-3" d="M315.33,337.38c3.27-1.38,6.62-2.61,9.77-4.23a4.76,4.76,0,0,0,2.24-3.17c.08-.67-1.53-2.09-2.54-2.27-2.81-.49-5.7-.46-8.55-.72-2.12-.2-5.34,1.29-5.82-1.92-.43-2.86,1.24-5.39,4-7.08,1.83-1.1,3.2-3,4.78-4.48q-.79,5.73-1.57,11.44c4.91.51,5.8-.29,5.55-5.51,0-.92,0-1.84,0-2.75,4-.17,7.94-.47,11.9-.39,1,0,2.22,1,3,1.92,1.66,2,2.9,4.32,4.69,6.13a3.86,3.86,0,0,0,3.67.56c.78-.49.93-2.36.9-3.61a15.23,15.23,0,0,0-1-3.64c3.76-1.08,4.42-.37,4.77,3.59a18.82,18.82,0,0,0,2.08,6.65,25.34,25.34,0,0,0,4.12,5.61c.84.91,2.74,2.11,3.3,1.77,1.73-1,3-2.77,4.62-4.34-5.22-3.21-5.9-4.73-4.4-8.88,2,2.41,3.81,5.11,7.64,3.9.33,1,.62,1.92,1,2.86,1.45,3.6,2.93,7.19,4.4,10.79a58.35,58.35,0,0,1-3.21,6.83c-.63,1-2.15,1.45-3.27,2.15-.48-1.2-1.63-2.67-1.3-3.57,1.05-2.8-.2-4.79-1.79-6.59-1.23-1.39-2.94-1.9-4.44,0s-2,7.92-.08,9.08c4.36,2.6,4.79,7.52,8,11.54-3.56,0-6.26,2.47-9.74.24-3.12-2-4.84-1.08-5.79,2.26-1-.31-2.53-.39-2.79-1a3.47,3.47,0,0,1,.58-3.08c.79-.83,2.22-1,3.36-1.53l4.39-1.94c-.55-.77-1.07-2.17-1.67-2.21-4.87-.33-6.28-4.27-8.14-7.62a5.79,5.79,0,0,0-5.94-3.25,7.06,7.06,0,0,1-4-1.31,9.4,9.4,0,0,1-3.15-3.49c-2.15-4.65-4-3.92-6.75-.35-1.81,2.37-4.53,4-7.4,6.5,4.78,1.17,8.26-.36,11.84-1.55.91-.3,2.08.17,3.13.29-.13,1.16.1,2.58-.49,3.42-.73,1-2.16,2.28-3.24,2.23-3-.12-4.64,1.6-6.53,3.32-2.11,1.93-4.27,4.11-7.28.7l-4.65,11.8c3.15,0,6-.8,7.51.25,1.23.84.91,3.95,1.3,6.16-.07,0,.17.1.38.06a1.75,1.75,0,0,0,1-.33c2.73-2.89,5.52-1.46,8.16,0,2.88,1.6,2.76,3.82-.1,5.44-1,.57-2,1.19-3,1.79l.29,1c1.63-.07,3.35-.5,4.88-.13,1.71.41,3.25,1.54,4.86,2.36-.91,1.44-1.54,3.2-2.78,4.26a74.53,74.53,0,0,1-7.29,4.9c5.48,1.23,9.81-3.85,15,.14a53.82,53.82,0,0,1-1.12-5.85,4.33,4.33,0,0,1,.69-3c1.68-1.74,6-1.54,8.52.31a33.21,33.21,0,0,0-3,3.61c-.9,1.42-2.5,3.68-2,4.48,1.6,2.6,3.24-.43,4.91-.58,2.73-.26,6.42-.93,8.08.48,2.73,2.33-.95,4.22-2.25,6.17a26.62,26.62,0,0,0-2.36,3.41,57.78,57.78,0,0,0-2,5.54l1.2.74c1.31-1.26,2.71-2.45,3.92-3.81,4.23-4.73,7.43-5.49,12.83-2.93-.06.79-.13,1.58-.19,2.37l2.42-1.55c.82.75,2.17,1.37,2.38,2.25,1.08,4.63,5.27,6.51,8.13,9.52.47.5,1.64.33,2.49.47,2,2,.8,3.44-.66,5-3.1,3.29-6.05,6.63-6.54,11.5-.27,2.79-2.07,3.71-5,3.17-6.35-1.18-12.74-2.23-19.16-3-8.46-1-15.16,5.66-14.81,14.31,0,.66-.05,1.31-.08,2-1.64,3.44-.74,6.44,1.63,9.17l.21,1.19c.65,1.52,1.29,3.05,1.93,4.57L346.7,456l.93-1.21,1.12-1.54c.09-.17.18-.34.26-.52l2.63-3.6v0c2.75-2.75,5.74-5.3,8.2-8.28,3.5-4.23,4.51-4.66,9.32-2.44,1.9.87,3.79,3.22,5.91.22.15-.21,1.12-.05,1.58.19a73.68,73.68,0,0,1,7.22,4,4.78,4.78,0,0,1,.69,7q-5.56,6.78-10.95,13.71c-1.36,1.74-2.52,3.64-3.78,5.47A54.93,54.93,0,0,1,376,471.7c4.52,2.64,8,1.12,11.53-2.06,2.64-2.39,5.69-4.32,8.56-6.45l.91.92c-.48,1.08-.9,2.2-1.44,3.26-3.66,7.19-6.61,14.4-4.46,22.84,1.94,7.63,3.78,14.93,11.53,19.2,4.71,2.6,5.76,3,9.8-.66a25.31,25.31,0,0,0,2.61-2.77c4-4.81,8.37-5.4,13.53-1.78,1.32.93,2.56,2.24,4,2.62,1.89.48,4.43.92,5.82,0,1.06-.68,1-3.47,1-5.32a12.28,12.28,0,0,0-.95-4c-2-5.89-4.11-11.75-6.1-17.64a7.61,7.61,0,0,1,0-2.34l.95-.47,4.3,4.91c0,.2.1.39.17.59l1.54,2.53.06.13,1.3,2.68c.08.26.15.52.22.79l.43.62.09.11.41.82.44,1.26.81,1.61a6,6,0,0,0,.3.56c.46,2.5.93,5,1.39,7.49.06,1.18.12,2.37.19,3.55V511c-.08,1.17-.15,2.35-.22,3.52l-.24,2.68c-.08.4-.15.8-.23,1.2l-.78,4.4c-.15.65-.29,1.3-.44,2l-.9,3.62c-.07.47-.13.94-.19,1.42-1.71,2.67-4.36,3.13-7.18,2.78s-5.35-.94-8-1.43a54.73,54.73,0,0,1-18.49-9.83c-12.84-10.27-23.81-22.41-35.4-33.94-1.16-1.14-2.89-1.71-4.35-2.55a26.94,26.94,0,0,0-.34-13.23c-.8-2.86.48-4.95,2-7.27A73.17,73.17,0,0,0,375.54,454a3.17,3.17,0,0,0-.52-2.76,2.58,2.58,0,0,0-2.51-.14,23.82,23.82,0,0,0-5.59,4.42c-4.06,4.95-9,8.11-15.42,8.77,1.14-.73,2.27-1.48,3.42-2.2,2.59-1.61,5.27-3.09,7.72-4.9.82-.6,1-2,1.52-3.08-1.28-.11-2.72-.67-3.81-.26a125.52,125.52,0,0,0-11.64,5c-3.85,1.89-3.81,3.19-.16,5.61-2.29.93-5.57,1.27-6.59,3s.34,4.75.47,7.21c.26,5,.4,10.06.59,15.08-.38-5.07-.76-10.12-1.15-15.18-.43-5.59-1.38-6.27-6.68-4.67a33.72,33.72,0,0,1-19.79.39c3.8.17,7.62.63,11.4.42,3.11-.18,6.17-1.14,9.25-1.76.1-.42.2-.85.31-1.27-1.49-1.51-2.92-3.07-4.46-4.51-2-1.89-4.7-3.33-6.11-5.58-3-4.69-7.19-7-12.23-8.33-2.9-.75-5.85-1.3-8.77-1.94a52.12,52.12,0,0,0,18.82-12.48,5.61,5.61,0,0,1,3.59-1.86c1.56,0,3.1,1,4.66,1.57-1.12,1.1-2.09,2.48-3.41,3.23-1.66.95-3.77,1.13-5.41,2.1-2.51,1.47-2.45,4.14-1.78,6.49a4,4,0,0,0,2.89,2.24c6.52.6,15.38-7,14.43-12.92-1.25-7.75,4.25-11.83,8.87-16.4.52.52,1.37,1.55,1.51,1.47,3.12-2,6.18-4.08,9.93-6.63-4.56-1.76-6.51.8-8.85,2.17.67-6.24.67-6.22-5.7-7.5-1-.21-2-.58-3-.88-7.88-2.31-13.24,2.05-12.31,10,.25,2.06.57,4.12.81,6.19.48,4.19-.11,5-4.36,5-3.14,0-5.92.51-8.27,2.77-2.58,2.48-5.45,4.67-7.89,7.27s-4.35,5.41-6.51,8.13c-2.42-1.34-5.9-2.09-7.06-4.14a54.21,54.21,0,0,1-5.1-13.91c-1.41-5.92-4.16-10.4-9.85-12.89-3.66-1.6-7.06-.58-7.88,3.34-1.3,6.31-5.48,9.57-10.64,12.36-.91.49-1.22,2.07-1.81,3.15-9.77,2.13-19.66,3.17-29.53,1.26-10.73-2.07-21.37-4.66-32-7.3-3.44-.85-6.69-2.5-10-3.94-2.7-1.19-2.83-3.45-2.52-6.12,1.58-13.55,9.62-22.55,20.51-29.59,3.19-2.07,6.42-4.07,9.63-6.1,5.31-1.2,10.6-2.57,16-3.52,2.57-.45,5.28-.1,7.92-.11l8.84,2.85c-2.53.92-5.09,2.68-7.58,2.6-6.26-.19-12.47.44-18,2.92-7.43,3.35-14.56,7.67-18.66,15.25-1.74,3.2-.9,4.9,2.17,5.95,6.62,2.26,7.24,3.19,6.86,10.19a8.88,8.88,0,0,0,.37,1.66,87.3,87.3,0,0,0,10-2.09,139.75,139.75,0,0,0,15.51-6c3.7-1.73,7-4.32,10.54-6.41a21.33,21.33,0,0,1,3.59-1.32c0,1.3.42,2.75,0,3.88-1.53,4.08-3.31,8.08-5.05,12.08-2.39,5.49-.45,8.79,5.57,8.28,4-.34,8-1.89,11.89-3.16a3.83,3.83,0,0,0,2.06-2.55c.72-4.06,1-8.2,1.76-12.23.31-1.57,1.42-3.95,2.58-4.22,5.53-1.3,11.2-2,17.17-3-.2,1.69-.39,3.71-.66,5.72-.29,2.21.05,3.72,2.74,4.28a4.28,4.28,0,0,1,2.5,3c.94,7.21,1.54,14.46,2.39,21.68.12,1,1,1.84,1.51,2.76.68-.69,1.6-1.25,2-2.07,2.22-4.51,3.67-9.3,8.09-12.64,3.43-2.59,2.23-9.6-1.19-12.16-.68-.52-1-2.89-.59-3.24,2.94-2.36,6.13-4.43,9.26-6.57,3.46-2.39,6.9-1.79,10.46-.1.68.32,2.16-.29,2.84-.93a32.33,32.33,0,0,0,4.35-4.93,27,27,0,0,0,2.06-4.38,33,33,0,0,0-5.83-2.21c-1.47-.29-3.1.32-5.17.6v8.56l-17.61-6.46c-1.81-.66-1.76-1.77-.44-2.78a20.25,20.25,0,0,1,4.16-2.46c2.77-1.2,4.75-2.91,4.64-6.18s-3-3.33-5.18-4.16c-.51-.19-1-.46-1.51-.69l2.79-4.59-.81-.69a7.11,7.11,0,0,0,1.41-.87c.79-.83,2.22-2,2.05-2.59a4.81,4.81,0,0,0-2.56-2.85c-1.44-.53-3.18-.26-4.79-.34,1-1.8,1.82-3.67,2.91-5.4,2.07-3.27,1.84-5.37-1-7.18a7.33,7.33,0,0,0,2.37-1.32c.72-.89,1.72-2.37,1.41-3.09-.54-1.25-2-2.1-3.05-3.12l7-5.24Zm22.09-16.94c-2.5,1.71-4.78,3.23-7,4.82-.44.31-1.05.95-1,1.27a2.21,2.21,0,0,0,1.22,1.42c1.22.3,2.57.11,3.77.46.84.25,2.13,1,2.16,1.64.22,3.86,3.24,5.12,5.89,6.62a30.4,30.4,0,0,0,6.68,2.83c1,.29,3-.11,3.38-.83.56-1,.28-2.65,0-3.93s-1.41-2.33-1.64-3.59c-.38-2-1.27-2.29-3.15-1.88-4.05.89-8.71-2.31-9.66-6.39C337.85,321.94,337.57,321,337.42,320.44Zm16.33,87.4c.76.58,1.66,1.25,2.55,1.94,4.3,3.29,6.81,2.86,9.34-1.88a17.84,17.84,0,0,0,1.62-5.24c.11-.62-.67-2-1.11-2-2.74-.19-5.55-.45-7.63,2.1C357.1,404.48,355.45,406,353.75,407.84Zm-40.44-29.95.06,1.07,11.88,1.12.73-1c-2.63-1.46,1.36-6.12-3.8-6.28-1.31,0-2.63.49-4.55.89l2.51,2.83Z"/><path class="cls-3" d="M340.27,241.1c4.66-6.25,9.12-12.67,14.06-18.7,3.65-4.46,6.69-4.33,10.78-.25,2,2,3.82,4.32,5.87,6.34a12.65,12.65,0,0,0,3.06,1.66c.5-1.07,1.33-2.11,1.43-3.21.42-4.48.57-9,.9-13.46.55-7.26,4.08-13.48,7.49-19.57,4.14-7.42,8.9-14.52,13.71-21.53,6.27-9.14,15.11-15,25.26-19.2a89.89,89.89,0,0,1,23.46-5.8c3.94-.5,7,.49,9.47,3.64,1.63,2.07,4,3.64,5.33,5.85a193.8,193.8,0,0,1,9.74,17.84c7,15,5.07,30.84,2.3,46.31-2,11-9.06,19.45-17.33,26.8-2.39,2.13-4.5,4.57-6.73,6.87-1.06.14-2.45-.11-3.14.48-5.06,4.29-10,8.76-14.95,13.15-1.19,1-2.37,2.63-3.72,2.83-4.06.58-8.2.59-12.31.82,2.26-6.81,7.79-9.86,14.06-11.72,7.82-2.32,13.81-8.36,14.33-16.49a224.8,224.8,0,0,0-.21-24.21c-.06-1.27-2-2.62-3.32-3.62-1.14-.87-2.93-1-3.88-2-3.92-4.07-7-4.16-11-.12a21.21,21.21,0,0,1-4.46,3.76c-3.37,1.88-5,.77-5.66-3a21,21,0,0,1,1-11.21c.44-1.17-.58-2.9-.93-4.37-1.26.31-2.92.21-3.71,1a100.59,100.59,0,0,0-8.08,8.94,40.12,40.12,0,0,0-4.41,7c-.56,1.11-.89,3-.33,3.88,1.68,2.77.72,5.17-.44,7.56-.48,1-1.61,1.66-2.44,2.48a10.93,10.93,0,0,1-1-3.25,63.36,63.36,0,0,1,.66-6.56l-1.55-.6a52.32,52.32,0,0,0-3,4.46c-1.51,2.8-2.3,6.17-4.34,8.47-4.28,4.84-8.29,9.42-5.32,16.49a5.19,5.19,0,0,1,.37,2.72c-.41,2.5-1,5-1.57,7.43-1.93-1.82-4.64-3.31-5.6-5.55-1.38-3.22-3.81-1.66-5.55-2.5s-1.66-4.34-5.15-3.76c-3,.5-5.92-.3-7.2-3.52-2.33-5.9-5.95-7.47-13.21-2.28C341.9,242.27,341,243.19,340.27,241.1Z"/><path class="cls-3" d="M219,317.52c1.65-.26,3.44-1.06,4.91-.67,4.67,1.24,9.25,2.87,13.81,4.48a5.1,5.1,0,0,1,2.35,1.85c2.75,4.08,5.4,8.22,8,12.38.79,1.24,1.37,2.6,2,3.91l-.86.64a6.39,6.39,0,0,1-1.8-1.15c-7.17-9.47-17-12.85-28.49-12.71-2.29,0-4.59-.44-6.89-.62s-4,.44-4.56,2.77c-.87,3.69-1.61,7.42-2.28,11.15s.51,6.59,4.32,7.51c5.58,1.34,11.24,2.33,16.88,3.38,1.35.25,2.79,0,4.14.24a2.49,2.49,0,0,1,1.75,1.31,2.24,2.24,0,0,1-.82,2,18.15,18.15,0,0,1-5.73,2c-7.83.68-8.93,2.47-5.62,9.8a3.39,3.39,0,0,1,.3,2.35c-2.75-2.08-5.55-4.12-8.26-6.26-2.05-1.61-4-3.21-6.85-1.81-.49-5.29-3.7-9-7.23-12.54l-.48-.51-.14-.24-4-5.43a5.59,5.59,0,0,0-.26-.63c-.46-2-.8-4.05-1.44-6s-2.57-4.1-2.33-5.93c.77-5.78-2.37-8.4-6.74-10.92A62.19,62.19,0,0,1,171,309.61c-3.52-3.34-6.21-7.57-9.26-11.41-4.9-8.54-6-18-5.75-27.5.19-8.42,1.29-16.82,2.3-25.19a8.1,8.1,0,0,1,2.78-5.21c6-4.18,12.06-8.57,18.64-11.72,10.5-5,21.38-9.29,33.17-10.52,12.58-1.31,22.18,4.22,29.16,13.87,5.56,7.7,9.72,16.4,14.61,24.59a25.65,25.65,0,0,0,3.44,3.81l4.2.84,4,.28c9,.29,18.64,15.65,13.09,21.72-1.39-2.11-2.39-4.53-4.14-6.13a123.57,123.57,0,0,0-11.62-9.27c-3.51-2.5-8.69-.33-9.65,3.85-.59,2.59-3.23,4.9-1.23,7.95,0,0-1.28,1.35-1.95,1.34-2.51-.05-2.83,1-2.51,3.26.15,1.06-.79,2.29-1.24,3.44a12.72,12.72,0,0,1-2.65-2.2,9.82,9.82,0,0,1-1.44-3.5c-.47-2.19-1.55-3.51-3.88-3.73a4.53,4.53,0,0,1-2.24-.84c-10.24-8.1-22.37-9.69-34.82-10.18a6,6,0,0,1-1,0c-7.77-1.81-12.77,3-17.85,7.51-.26.23-.63.5-.66.78-.53,5-3.5,9.94,0,14.91,2.43,3.52,5.23,6.83,7.2,10.59,2.37,4.51,3.91,9.45,6.05,14.1a10.22,10.22,0,0,0,3.17,3.42c.76.59,2,.62,2.93.9l-3.87,1.87h27l.1-1Z"/><path class="cls-2" d="M482,362.27a50.41,50.41,0,0,0,5.91,3.63c3.1,1.37,6.64,1.93,8.23,5.51-4.41-2-8.79-4-13.26-5.79a13.14,13.14,0,0,0-4.95-.93,3,3,0,0,0-2.15,1.77c-.22.58.43,1.71,1,2.31a31.67,31.67,0,0,0,4.27,4c3.66,2.71,7.36,5.39,11.21,7.84,1.62,1,3.71,1.28,5.46,2.15.93.46,2.07,1.44,2.19,2.31s-.89,1.89-1.61,2.66a52.74,52.74,0,0,1-4.36,4.23c-1.8,1.55-3.51,3.56-5.63,4.3-6.05,2.13-12,1.79-17.39-2.28a17.17,17.17,0,0,0-2.24-1.21l-1,.9a73.25,73.25,0,0,0,4.45,6c4.23,4.63,4.35,9.17.16,13.79-.93,1-2.13,2-2.62,3.19-.33.82.36,2.05.59,3.1-6.17,4.53-13.3,5.45-20.65,5.28-1.09,0-2.15-1.12-3.23-1.72.36-3.29-1.24-6.16-4.28-5.81-5.18.58-10.87.71-14.2,6.27-1.86,3.1-4.48,5.75-6.75,8.61a5.15,5.15,0,0,1,.47-2c4.47-6,4.78-12.75,3.46-19.76-.62-3.28-1.11-6.61-2-9.8-.32-1.07-1.88-2.48-2.82-2.44s-2,1.58-2.62,2.69a39.54,39.54,0,0,0-2,5c.6-3.58.51-7.48,2-10.67,1.67-3.61,0-4.24-2.61-5-5.51-1.58-6.72-3.19-6.1-8.69.13-1.1.94-2.83,1.69-3a4.18,4.18,0,0,1,3.48,1.29c1.6,2.09,2.64,4.59,4.09,6.79.64,1,1.66,2.21,2.64,2.35a6.52,6.52,0,0,0,7.45-6.94c-.09-3.1-.05-6.2-.14-9.29-.09-2.78-.38-5.48-4.11-5.61l-3.22-.32c-2.1-1.13-2.28-2.77-1.7-5,.77-2.88,1.15-5.86,1.71-8.8l-1-.49-2.76,1.54-2.36.94c-7.43,2.41-7.5,2.66-1.85,8.08,1.84,1.78,3.09,3.73,2.42,6.43l-.07,0c-1.15.57-3,.88-3.31,1.74-.76,2.22-2.24,2.62-4.15,2.69l-3.4-.93c.24-.83.22-2.06.78-2.45,3.24-2.23,2.41-5.68,2.67-8.72.06-.69-1.41-1.52-2.17-2.28l-3.6.36a6.12,6.12,0,0,1,.54-2.3c1.07-1.48,3.09-2.68,3.33-4.21.2-1.3-1.55-2.9-3-5.37l9.47,2.54c-.72-2.17-1.25-3.72-1.76-5.29-1.43-4.43-.5-6,4.14-6.22,2.78-.15,3.1-1.34,3.27-4,.31-4.5,1.56-8.94,2.42-13.4l1.23-.72,1.35-.62,2-.58c1.91.39,3.83.75,5.73,1.18,2.91.67,3.59,0,2.84-3-.42-1.66-.86-3.3-1.29-5,5.24.26,10.48.6,15.73.71.82,0,2.31-1,2.34-1.59a3.46,3.46,0,0,0-1.54-2.63,119.42,119.42,0,0,0-12.41-6c-5.94-2.32-6.86-1.94-8.48,1.76a39.42,39.42,0,0,1-2.54-3.28c-.81-1.3-1.42-2.73-2.12-4.1l4-1.58c-1.51-1.2-2.35-1.9-3.22-2.55-2.19-1.66-4.35-3.36-6.59-4.94-1.58-1.1-3.28-2-4.92-3-.1,1.85-.21,3.7-.31,5.55-2.81,2.78.42,4,1.57,5.59,2.78,3.85,5.39,7.77,5.59,12.68s-1.12,5.76-5.56,3.53a12.11,12.11,0,0,0-2-.5c-.81,4.53-.51,9.25-3.42,13.09-1.19-2.18-2.48-3.87-3.1-5.77-1.32-4.07-6-7.73-1.89-12.61l-.07,0,2.27-1,2.61-1.76c.18-.24.35-.49.52-.73-.08-.66-.17-1.31-.25-2l-2.25-1.72v0c-1.12-1.05-2.07-2.45-3.39-3.07-2.06-1-4.42-1.25-6.54-2.1-1.18-.47-3-1.54-3-2.28a4.79,4.79,0,0,1,2.24-3.36,74.66,74.66,0,0,1,9.06-4.12c1.54-.61,2.58-1.13,1.42-2.91-.13-.54-.25-1.08-.38-1.62,4.1-1.9,10.63-1.15,12.84,1.72,3.48,4.5,7.34,7.87,13.62,6.82,2.31-.39,3.83.64,3.34,3.4-.38,2.09.15,3.65,2.62,4a4.25,4.25,0,0,1,1.67,1.07c.89.71,1.74,1.47,2.6,2.21a24.66,24.66,0,0,0,2.6-3.75,16.39,16.39,0,0,0,.79-3.88l1-.07c.75,5.54,4.07,9.13,8.35,12.18,1.94,1.38,3.43,1.32,4.83-.26a38.59,38.59,0,0,0,2.85-4.3c2.88-4.31,5.45-8.88,8.74-12.85,4.08-4.92,9.16-4.77,13.62-.28a14.68,14.68,0,0,0,2.43,1.94c4.1,2.64,4.51,3.85,2.2,8.08a23.61,23.61,0,0,1-3.41,4.76c-6.54,7-15,11.05-23.54,14.82-4.29,1.89-4.12,1.54-1.14,5,1.73,2,3.25,5,3.13,7.53-.16,3.37-2.05,6.64-3.05,10-.29,1,0,2.1,0,3.73,2.09-.86,3.63-1.56,5.22-2.12,1.89-.67,4.24-2.21,5.41.51,1,2.39.75,5.12-2,6.67-1.71,1-3.56,1.66-5.3,2.57-1.14.59-2.2,1.35-3.29,2a21.83,21.83,0,0,0,3.4,2.59c2.61,1.29,4.57,2.66,4.8,6.08.17,2.7,2.25,3.55,4.81,2.13ZM443.1,320.88l0,0-.62-.78,0,.11-3.24-5.84-1.66.42c-.37,3.59-.62,7.2-1.14,10.77-.67,4.6-.76,4.59,3.94,4.74l4.77,1.64c.16,3,.19,6.09.54,9.1.09.76,1.24,1.38,1.9,2.07.42-.84,1.17-1.67,1.19-2.51.06-2.62.27-5.37-.4-7.85-.71-2.65-2.35-5.05-3.58-7.56-.48-1.18-.95-2.36-1.42-3.53C443.29,321.38,443.19,321.13,443.1,320.88ZM428.26,331.4a93.1,93.1,0,0,1-6.16,7.78c-2.86,3-2.85,5,.54,7.18,2.5,1.61,4.9,3.39,7.44,4.94a3.6,3.6,0,0,0,2.81.59c.57-.27.95-1.76.81-2.61-.88-5.74-1.91-11.46-3-17.18-.08-.43-.8-.75-1.23-1.12a23.39,23.39,0,0,0,1.64-2.21c.77-1.32,1.43-2.7,2.14-4-1.51-.66-3-1.38-4.53-1.93a3.07,3.07,0,0,0-2.05,0c-1.77.75-4.43,1.3-4.95,2.64-.73,1.88.14,4.39.32,6.63l5.51-.54Zm5.68,63.1a4.49,4.49,0,0,1-.61.23,19.58,19.58,0,0,0-4.09.57c-.8.28-1.87,1.31-1.88,2-.08,4.61.06,9.22.22,13.83.05,1.71.93,2.77,2.69,1.72s2.79-.67,4.1.83c.66.75,2.25.94,3.39.87.48,0,1.31-1.41,1.25-2.11-.63-6.91,1.24-13.17,4.44-19.21,1.06-2,.11-3.74-2.43-3.7s-4.93.37-7.27.56C433.83,392,433.88,393.22,433.94,394.5Zm16.87-9c-.07-1.63-.62-3.24-.12-4.41,1.71-4,3.69-7.85,5.76-11.66,1.16-2.13,3-4.09,1.48-6.65a101,101,0,0,0-6.46-10,69.67,69.67,0,0,0-7.89-8.58c-1-1-3.26-1.74-4.35-1.26a5.07,5.07,0,0,0-2.46,4c.05,1.23,1.82,2.45,2.94,3.57,1.36,1.37,3.45,2.37,4.15,4a53.35,53.35,0,0,1,3.77,11.82c.63,3.63.16,7.45.26,11.18.1,3.89-.61,8.12.71,11.57,1.63,4.3,1,7.75-.62,11.58a82.93,82.93,0,0,0-3.44,9.79,3.71,3.71,0,0,0,.95,3.3c.65.47,2.58.11,3.26-.57,1.83-1.84,4-3.81,4.77-6.14,2.57-8.2,4.59-16.56,6.77-24.87.13-.48-.15-1.07-.44-2.75ZM444,366l.66-.05c-.88-3.45-1.63-6.95-2.73-10.33-.39-1.22-1.73-3.12-2.45-3a8.16,8.16,0,0,0-4.34,2.32c-1.8,1.75-3.08,4-4.87,5.81-1.34,1.32-1.88,2.35-1,4.17,1.27,2.71,2.2,5.57,3.37,8.33,1.57,3.69,3.07,7.41,4.92,11,.5,1,2.35,2.06,3.19,1.81a4.22,4.22,0,0,0,2.13-3.13C443.4,377.2,443.64,371.57,444,366Zm-20.36-1.46c1.77-2.8,3.32-4.76,4.24-7,.34-.8-.57-2.52-1.41-3.25-.4-.35-2.53.34-2.9,1.06C422.15,358,422.18,360.94,423.63,364.49Z"/><path class="cls-2" d="M340.27,241.1c.71,2.09,1.63,1.17,2.8.33,7.26-5.19,10.88-3.62,13.21,2.28,1.28,3.22,4.21,4,7.2,3.52,3.49-.58,3.43,2.93,5.15,3.76s4.17-.72,5.55,2.5c1,2.24,3.67,3.73,5.6,5.55.54-2.47,1.16-4.93,1.57-7.43a5.19,5.19,0,0,0-.37-2.72c-3-7.07,1-11.65,5.32-16.49,2-2.3,2.83-5.67,4.34-8.47a52.32,52.32,0,0,1,3-4.46l1.55.6a63.36,63.36,0,0,0-.66,6.56,10.93,10.93,0,0,0,1,3.25c.83-.82,2-1.49,2.44-2.48,1.16-2.39,2.12-4.79.44-7.56-.56-.91-.23-2.77.33-3.88a40.12,40.12,0,0,1,4.41-7,100.59,100.59,0,0,1,8.08-8.94c.79-.78,2.45-.68,3.71-1,.35,1.47,1.37,3.2.93,4.37a21,21,0,0,0-1,11.21c.62,3.77,2.29,4.88,5.66,3a21.21,21.21,0,0,0,4.46-3.76c4-4,7.07-4,11,.12.95,1,2.74,1.1,3.88,2,1.31,1,3.26,2.35,3.32,3.62a224.8,224.8,0,0,1,.21,24.21c-.52,8.13-6.51,14.17-14.33,16.49-6.27,1.86-11.8,4.91-14.05,11.72l-3.78.72-9.32,3a63.09,63.09,0,0,1-6.51-5.53,6.35,6.35,0,0,0-5.69-2.37c-4.21.34-8.43.48-12.64.71-4.14.41-4.52.94-3.3,4.62,1.91,5.73,6.07,9,11.63,10.85a1.27,1.27,0,0,0,.3.4c2.18,4.68,1.83,5.22-3.52,5.33-.7,0-1.39,0-2.08,0-2.77-.07-3.55,1.2-2.54,3.71-.89-.43-2.13-.64-2.59-1.35a24.49,24.49,0,0,1-1.92-4.44,40.57,40.57,0,0,0,4.13-.06c1.94-.21,3.85-.61,5.77-.93-1.31-1.28-2.41-3.13-4-3.73a20.72,20.72,0,0,1-9.43-7.74,7.25,7.25,0,0,1-.82-5.28c.72-2.94.31-4.54-2.67-5-3.52-.56-7.14-.94-10.26,1.54-1.41-4.43-1.56-4.44-6.07-3.42-5.25,1.2-10.54,2.22-15.81,3.32a15.72,15.72,0,0,1-.55-3.35c.18-4.71-.13-9.16-4.88-11.81,4.95,1.81,5.26,1.66,7.84-3.14C337.54,245.7,338.93,243.42,340.27,241.1Z"/><path class="cls-3" d="M324.29,226c-.94,1.06-1.84,2.89-2.85,3s-2.29-1.49-3.32-2.46c-2.65-2.48-5.35-4.91-7.8-7.58-2.87-3.11-5.34-6.62-8.29-9.65a42.82,42.82,0,0,0-8.14-6.78c-3.07-1.87-6.38,1.37-5.84,5.52.37,2.74,1.1,5.43,1.41,8.17.48,4.26-.83,7.43-4.41,10.47-5.29,4.49-9.83,9.93-14.38,15.22-1.13,1.32-.93,3.7-1.6,5.5a28.84,28.84,0,0,1-2.15,3.92c-15.09-19.53-18.16-41.81-14.24-65.36.85-5.15,4.06-10,6.64-14.73,1.29-2.35,3.95-2.86,6.75-2.4,10.36,1.68,19.1,6.52,27,13.19,9.74,8.18,18.27,17.43,24.53,28.5C320.39,215.39,322.1,220.84,324.29,226Z"/><path class="cls-2" d="M340.25,441c-.35-8.65,6.35-15.29,14.81-14.31,6.42.74,12.81,1.79,19.16,3,2.92.54,4.72-.38,5-3.17.49-4.87,3.44-8.21,6.54-11.5,1.46-1.56,2.68-3,.66-5l-4.66-5.86c-.12-.83-.24-1.66-.35-2.49l.09-2.3c1-1.54,1.77-3.37,3.11-4.52,1.06-.91,3.09-1.67,4.21-1.24s1.89,2.42,2,3.79c.15,1.91-.57,3.87-.72,5.83a30.39,30.39,0,0,0,.2,4l1.12.08c.42-1.25.89-2.49,1.24-3.76,1.15-4.27,2.34-8.55,6.28-11.19,1-.69,2.71-1.36,3.61-1a4.37,4.37,0,0,1,1.9,3.28c.16,2.28-.7,4.67-.35,6.9.91,5.87-2.88,9.28-6.19,13,.53-1.89,1-3.79,1.6-5.67.67-2.22,1.67-4.39,1.93-6.65.1-.93-1.36-2-2.12-3.06-.94.91-2.23,1.64-2.76,2.75-2.37,4.93-4.51,10-6.78,15a3,3,0,0,1-1.22,1.19c-5.53,3.07-6.39,9.08-8.7,14.1-1.13,2.47.37,5,2.73,6,.7.29,2.87-1.79,3.69-3.18,3.07-5.24,5.81-10.67,8.78-16a21.28,21.28,0,0,1,2.56-3.1c-.38,1.54-.46,3.23-1.17,4.59-1.7,3.27-3.78,6.34-5.54,9.58s-3.31,6.61-5.15,10.31a18.76,18.76,0,0,0,2.58.38c2.77-.15,5.69-1,8.27-.39,5,1.17,8-1,10.47-4.7,2.69-4,4.14-8.81,8.45-11.58a6.13,6.13,0,0,0,2.84-6.86c3.09,2.61,2.81,6.16-.72,9.3-1,.91-2.4,1.66-3,2.81-2.68,5.37-5.14,10.85-7.87,16.71a7.86,7.86,0,0,0,2.47-1.16c2.14-2.25,4.08-4.68,6.21-6.94a22.9,22.9,0,0,1,3.06-2.34c-1.52,3.3-3.11,6.58-4.54,9.92-1.79,4.2-1.13,5.44,3.42,6.91l1.87,1.36h0c1.51,2.71,3.47,4.9,6.66,5.63,2.84,5.37,5.7,10.73,8.52,16.11,1.1,2.11,2.09,4.28,3.14,6.42l-4.3-4.91-.95.47a7.61,7.61,0,0,0,0,2.34c2,5.89,4.09,11.75,6.1,17.64a12.28,12.28,0,0,1,.95,4c0,1.85.06,4.64-1,5.32-1.39.9-3.93.46-5.82,0-1.47-.38-2.71-1.69-4-2.62-5.16-3.62-9.57-3-13.53,1.78a25.31,25.31,0,0,1-2.61,2.77c-4,3.67-5.09,3.26-9.8.66-7.75-4.27-9.59-11.57-11.53-19.2-2.15-8.44.8-15.65,4.46-22.84.54-1.06,1-2.18,1.44-3.26l-.91-.92c-2.87,2.13-5.92,4.06-8.56,6.45-3.52,3.18-7,4.7-11.53,2.06a54.93,54.93,0,0,0-6.18-2.69c1.26-1.83,2.42-3.73,3.78-5.47q5.4-6.92,10.95-13.71a4.78,4.78,0,0,0-.69-7,73.68,73.68,0,0,0-7.22-4c-.46-.24-1.43-.4-1.58-.19-2.12,3-4,.65-5.91-.22-4.81-2.22-5.82-1.79-9.32,2.44-2.46,3-5.45,5.53-8.2,8.28q1.52-2.61,3-5.22c1.58-2.74,3.5-5.36,4.62-8.27,1.38-3.58-.21-5.5-4-5.67-7.09-.31-11.25,2.44-13.77,9A11.91,11.91,0,0,1,340.25,441Zm43.34,21.61.58,1.2c3-.66,6-1.19,8.88-2,2-.57,3.79-1.73,5.78-2.29,2.26-.63,3.06.55,2.3,2.67a17.06,17.06,0,0,1-1.43,2.36c-2.91,5.17-5.65,10.42-4.89,16.63.14,1.16.6,2.84,1.4,3.19a3.63,3.63,0,0,0,3.25-1.13c3.86-5.15,9.44-5.72,15.16-6.05,1.73-.11,3.46-.16,5.19-.24,2.53-.12,3.65-1.46,2.93-3.88a17,17,0,0,0-2.17-4.59c-1.34-2-3.12-3.69-4.42-5.7-3.91-6-9.65-8.17-16.51-8.32-1.79,0-3.59-.94-5.37-.87s-4.31.28-5.48,1.44C386.66,457.11,385.28,460,383.59,462.57ZM431,474.75c0,.1,0,.23.09.28s.19,0,.29,0c0-.15-.08-.3-.13-.46Z"/><path class="cls-3" d="M401.86,275.73l9.32-3-4,3.35c6.34,0,12.79,0,19.25,0a8.35,8.35,0,0,0,2.36-.45c4.24-1.27,8.46-3.58,12.75-.14.71,2.31,1.52,4.6,2.1,6.94,1,4,3.08,5.2,7.08,3.83,6.44-2.2,12.9-4.33,19.27-6.69s12.89-4.82,19.19-7.54c6-2.59,11.67-2.08,17.41.56,2.36,1.09,3.09,2.81,2.11,5.06-2.28,5.29-4.21,10.83-7.21,15.68-4.79,7.73-10.41,14.94-15.52,22.47-1.2,1.76-1.79,3.93-2.65,5.92-2.3-1.34-4.16-.4-6,1.07-2.59,2.11-4.94,4.76-7.88,6.12-4.26,2-2.83,5.78-4.64,9a39.23,39.23,0,0,1,5.22-.32,39.7,39.7,0,0,1,7.38,1.18c2.41.71,3.23,2.2,1.49,4.69a31.75,31.75,0,0,0-3.54,7c-1.07,2.86-1.5,6-2.63,8.79-.9,2.25-.75,3.51,1.79,4-2.56,1.42-4.64.57-4.81-2.13-.23-3.42-2.19-4.79-4.8-6.08a21.83,21.83,0,0,1-3.4-2.59c1.09-.68,2.15-1.44,3.29-2,1.74-.91,3.59-1.61,5.3-2.57,2.73-1.55,3-4.28,2-6.67-1.17-2.72-3.52-1.18-5.41-.51-1.59.56-3.13,1.26-5.22,2.12,0-1.63-.25-2.76,0-3.73,1-3.36,2.89-6.63,3.05-10,.12-2.49-1.4-5.55-3.13-7.53-3-3.42-3.15-3.07,1.14-5,8.56-3.77,17-7.83,23.54-14.82a23.61,23.61,0,0,0,3.41-4.76c2.31-4.23,1.9-5.44-2.2-8.08a14.68,14.68,0,0,1-2.43-1.94c-4.46-4.49-9.54-4.64-13.62.28-3.29,4-5.86,8.54-8.74,12.85a38.59,38.59,0,0,1-2.85,4.3c-1.4,1.58-2.89,1.64-4.83.26-4.28-3.05-7.6-6.64-8.35-12.18l-1,.07a16.39,16.39,0,0,1-.79,3.88,24.66,24.66,0,0,1-2.6,3.75c-.86-.74-1.71-1.5-2.6-2.21a4.25,4.25,0,0,0-1.67-1.07c-2.47-.35-3-1.91-2.62-4,.49-2.76-1-3.79-3.34-3.4-6.28,1.05-10.14-2.32-13.62-6.82-2.21-2.87-8.74-3.62-12.84-1.73Z"/><path class="cls-2" d="M308.9,471.36c-1.37,1-2.6,2.52-4.14,3-10.91,3.31-21.88,6.43-32.85,9.55a7.56,7.56,0,0,1-2.4-.11l17.87-5c-4.28.16-8.41,1.14-12.59,1.74-8,1.15-16,2.61-24,2.94a27.7,27.7,0,0,1-16.5-4.24c3.51-1.18,6.62-2,9.54-3.31,1.08-.48,1.69-2,2.51-3.1-1.88-1.37-3.62-3.58-5.68-3.93-3.74-.65-7.67-.19-12.2-.19l9.37-15.43-.08.07c10.85-7.24,23.13-10.4,36.12-12.84-2.2,3.05-4,5.82-7.92,6a3.35,3.35,0,0,0-2.19.93,34.76,34.76,0,0,0-2.55,3.82c1.3.48,2.66,1.49,3.9,1.35,6.88-.75,13.71-1.85,20.59-2.63a3.75,3.75,0,0,1,3,1.38,50.64,50.64,0,0,0,19.19,18.55Zm-60.51,9.73c1.23-.29,2.29-.27,3-.77a13.49,13.49,0,0,0,2.2-2.58c-1-.51-2-1.36-3.1-1.44a12.1,12.1,0,0,0-4.41.6c-1.83.56-2.12,1.78-.52,3A12.84,12.84,0,0,0,248.39,481.09Z"/><path class="cls-1" d="M307.92,469.89a50.64,50.64,0,0,1-19.19-18.55,3.75,3.75,0,0,0-3-1.38c-6.88.78-13.71,1.88-20.59,2.63-1.24.14-2.6-.87-3.9-1.35a34.76,34.76,0,0,1,2.55-3.82,3.35,3.35,0,0,1,2.19-.93c3.89-.16,5.72-2.93,7.92-6-13,2.44-25.27,5.6-36.12,12.84,3.48-6.24,9.91-8,15.94-9.93,4.88-1.6,10.06-2.27,15.09-3.39a5.08,5.08,0,0,0,2.56-.94,41.75,41.75,0,0,0,3.14-4.37,33,33,0,0,0-4.59-1.27,17.19,17.19,0,0,0-3.77.27l-.81.14-2.62.71h-.07l-2.16.56c.59-1.08.9-2.66,1.81-3.15,5.16-2.79,9.34-6.05,10.64-12.36.82-3.92,4.22-4.94,7.88-3.34,5.69,2.49,8.44,7,9.85,12.89a54.21,54.21,0,0,0,5.1,13.91c1.16,2.05,4.64,2.8,7.07,4.14h2c2.92.64,5.87,1.19,8.77,1.94,5,1.31,9.28,3.64,12.23,8.33,1.41,2.25,4.08,3.69,6.11,5.58,1.54,1.44,3,3,4.46,4.51-.11.42-.21.85-.31,1.27-3.08.62-6.14,1.58-9.25,1.76-3.78.21-7.6-.25-11.4-.42l-2.6-.08Z"/><path class="cls-1" d="M419.29,453.8l-1.86-1.35c1.91-2.67,3.54-5.4,3-8.93a3.56,3.56,0,0,1,.59-2.62c4.24-4.53,8.13-9.45,15.33-9.59,2,0,4.19-1.92,6-3.36,1.57-1.27,2.69-3.1,4-4.68,1.08.6,2.14,1.7,3.23,1.72,7.35.17,14.48-.75,20.65-5.28l4.76-.54c2.29,6.66,4.68,13.29,6.74,20a5.09,5.09,0,0,1-1.2,4.08c-6.91,7.65-16.19,10.64-25.89,12.7a38.15,38.15,0,0,0,4.91-2.46c.68-.45,1.41-2.05,1.12-2.49-1.82-2.85-3.15-6.3-7.19-6.93-2.85-.45-5.67-1.1-8.52-1.58-5.26-.89-6.47.45-5.21,5.74a24.41,24.41,0,0,0,1.41,4.64c.51,1.08,1.4,2.58,2.34,2.75,3.32.63,6.73.77,10.11,1.09-1.28.13-2.55.27-3.83.37-7.27.61-14.55,1.19-21.82,1.82a11.63,11.63,0,0,0-2,.51c-3.19-.73-5.15-2.92-6.66-5.63Zm29.35,3.32-.13.14.17,0Z"/><path class="cls-3" d="M475,419.17l-4.76.54c-.23-1-.92-2.28-.59-3.1.49-1.22,1.69-2.16,2.62-3.19,4.19-4.62,4.07-9.16-.16-13.79a73.25,73.25,0,0,1-4.45-6l1-.9a17.17,17.17,0,0,1,2.24,1.21c5.37,4.07,11.34,4.41,17.39,2.28,2.12-.74,3.83-2.75,5.63-4.3a52.74,52.74,0,0,0,4.36-4.23c.72-.77,1.72-1.85,1.61-2.66s-1.26-1.85-2.19-2.31c-1.75-.87-3.84-1.13-5.46-2.15-3.85-2.45-7.55-5.13-11.21-7.84a31.67,31.67,0,0,1-4.27-4c-.56-.6-1.21-1.73-1-2.31a3,3,0,0,1,2.15-1.77,13.14,13.14,0,0,1,4.95.93c4.47,1.81,8.85,3.84,13.26,5.79l0,0L499,374l.1.11c3.16,4.36,6.23,8.79,9.52,13.05,1.53,2,1.75,3.55.12,5.51a40.11,40.11,0,0,0-2.76,4.32l-.14.07-5.46,4.75-.1.09-1.9,1.38-.15.09-2.89,2.35-.61.37-3.5,2.55c-.21.09-.4.19-.6.3l-1.93,1.3-.19.09-4,2.71-.09,0-4.28,2.46-.61.3-3.91,2.72Z"/><path class="cls-1" d="M474.58,363.15c-2.54-.46-2.69-1.72-1.79-4,1.13-2.83,1.56-5.93,2.63-8.79a31.75,31.75,0,0,1,3.54-7c1.74-2.49.92-4-1.49-4.69a39.7,39.7,0,0,0-7.38-1.18,39.23,39.23,0,0,0-5.22.32c1.81-3.24.38-7.05,4.64-9,2.94-1.36,5.29-4,7.88-6.12,1.81-1.47,3.67-2.41,6-1.07.25.57.51,1.13.77,1.7l0,.24h.24q.63.61,1.23,1.23l.47.39,1.24.85-.07-.08.94,1.35,1.42,1.07,1.35,2.31h0l.42.77h0c.29,1.11.59,2.21.88,3.31.07,1,.14,2.06.21,3.09l-.78,3.21c-.18.54-.35,1.09-.53,1.64-2.65,5.2-5.32,10.39-7.9,15.62a27.08,27.08,0,0,0-1.27,3.88Z"/><path class="cls-1" d="M237.85,453.28l-9.37,15.43c4.53,0,8.46-.46,12.2.19,2.06.35,3.8,2.56,5.68,3.93-.82,1.07-1.43,2.62-2.51,3.1-2.92,1.3-6,2.13-9.54,3.31a27.7,27.7,0,0,0,16.5,4.24c8-.33,16-1.79,24-2.94,4.18-.6,8.31-1.58,12.59-1.74l-17.87,5c-15.71,5-30.78,1.46-45.73-3.52a9.51,9.51,0,0,1-1.62-.91c2.07-5.86,3.65-11.76,8-16.47C233,459.9,235.31,456.5,237.85,453.28Z"/><path class="cls-1" d="M441.58,275.43c-4.29-3.44-8.51-1.13-12.75.14a8.35,8.35,0,0,1-2.36.45c-6.46,0-12.91,0-19.25,0l4-3.35L415,272c4.1-.23,8.24-.24,12.3-.82,1.35-.2,2.53-1.79,3.72-2.83,5-4.39,9.89-8.86,14.95-13.15.69-.59,2.08-.34,3.14-.48Q445.32,265.06,441.58,275.43Z"/><path class="cls-1" d="M328.43,251.19c4.75,2.65,5.06,7.1,4.88,11.81a15.72,15.72,0,0,0,.55,3.35c1,3.06-.57,4.34-3.3,4.86-1.23.23-2.48.41-3.7.71-3.34.82-6.75,1.55-8.57,5l-4.74,2.78v0l-6.17,3-.94-1.17a18.11,18.11,0,0,1,2.51-3.14c3.23-2.62,6.38-5.42,9.95-7.49s4-4.9,4.39-8.36c.44-4,1.3-7.9,2.09-11.82.1-.49.92-.84,1.41-1.25Z"/><path class="cls-2" d="M161.76,298.2c3.05,3.84,5.74,8.07,9.26,11.41a62.19,62.19,0,0,0,11.76,8.33c4.37,2.52,7.51,5.14,6.74,10.92-.24,1.83,1.65,3.89,2.33,5.93s1,4,1.44,6c-3.89-4.3-6.61-9.07-5.75-15.15.49-3.53-2-4.61-4.51-5.6-7.73-3.09-13.55-8.62-18.67-14.88C162.88,303.34,162.59,300.55,161.76,298.2Z"/><path class="cls-2" d="M505.94,397a40.11,40.11,0,0,1,2.76-4.32c1.63-2,1.41-3.55-.12-5.51-3.29-4.26-6.36-8.69-9.52-13.05,1.11.56,2.56.85,3.26,1.73,3.51,4.37,6.95,8.8,10.13,13.4,1.58,2.3-.65,3.86-2.09,5.16A24.17,24.17,0,0,1,505.94,397Z"/><path class="cls-3" d="M343.59,493q1.16,15,2.31,30Z"/><path class="cls-2" d="M426.74,531.1c2.68.49,5.34,1.1,8,1.43s5.47-.11,7.18-2.78c.17,4.26-1.91,6.14-5.75,4.93C433,533.67,429.89,532.31,426.74,531.1Z"/><path class="cls-3" d="M307.92,469.89l4.88.23-3.9,1.24Z"/><path class="cls-3" d="M346.21,528.26q.46,6.81.94,13.62C346.83,537.33,346.52,532.8,346.21,528.26Z"/><path class="cls-3" d="M325.83,239.45c-.06-3-.12-6.08-.17-9.1C325.72,233.39,325.77,236.42,325.83,239.45Z"/><path class="cls-2" d="M500.34,401.82l5.46-4.75Z"/><path class="cls-2" d="M444.76,501.15c-.46-2.5-.93-5-1.39-7.49C443.83,496.16,444.3,498.65,444.76,501.15Z"/><path class="cls-2" d="M193.55,341.42l4,5.43A5.63,5.63,0,0,1,193.55,341.42Z"/><path class="cls-2" d="M445,511v0Z"/><path class="cls-2" d="M475.55,418.57l3.91-2.72Z"/><path class="cls-2" d="M484.44,413.05l4-2.71Z"/><path class="cls-3" d="M492.45,337.91c-.07-1-.14-2.07-.21-3.09Z"/><path class="cls-2" d="M499,374l-2.84-2.58Z"/><path class="cls-2" d="M443.48,522.76l.78-4.4Z"/><path class="cls-2" d="M480.07,415.55l4.28-2.46Z"/><path class="cls-2" d="M491.19,408.65l3.5-2.55Z"/><path class="cls-3" d="M489.62,328.42l-1.42-1.07Z"/><path class="cls-2" d="M495.3,405.73l2.89-2.35Z"/><path class="cls-2" d="M442.14,528.33l.9-3.62Z"/><path class="cls-3" d="M491.14,342.76c.18-.55.35-1.1.53-1.64C491.49,341.68,491.31,342.22,491.14,342.76Z"/><path class="cls-2" d="M444.49,517.16l.24-2.68Z"/><path class="cls-2" d="M264.31,261.17l-4.2-.84Z"/><path class="cls-2" d="M440.67,487.89l-1.3-2.68Z"/><path class="cls-2" d="M439.31,485.08l-1.54-2.53Z"/><path class="cls-2" d="M488.66,410.25l1.93-1.3Z"/><path class="cls-2" d="M498.34,403.29l1.9-1.38Z"/><path class="cls-3" d="M265.33,433.86l.81-.14Z"/><path class="cls-3" d="M486.09,325.23l-.47-.39Z"/><path class="cls-2" d="M443.07,493.1l-.81-1.61Z"/><polygon class="cls-3" points="484.39 323.61 484.15 323.6 484.13 323.36 484.4 323.35 484.39 323.61"/><polygon class="cls-3" points="262.64 434.57 262.71 434.57 262.69 434.7 262.64 434.57"/><path class="cls-2" d="M197.68,347.09l.48.51Z"/><path class="cls-3" d="M491,330.74h0Z"/><path class="cls-2" d="M441.32,489.3l-.43-.62Z"/><path class="cls-2" d="M441.82,490.23l-.41-.82Z"/><path class="cls-3" d="M487.26,326l.07.08S487.26,326,487.26,326Z"/><path class="cls-3" d="M491.36,331.51h0Z"/><path class="cls-2" d="M348.55,464.41c-3.65-2.42-3.69-3.72.16-5.61a125.52,125.52,0,0,1,11.64-5c1.09-.41,2.53.15,3.81.26-.49,1-.7,2.48-1.52,3.08-2.45,1.81-5.13,3.29-7.72,4.9-1.15.72-2.28,1.47-3.42,2.2Z"/><path class="cls-1" d="M360.83,322.05c-1.5,4.16-.82,5.68,4.4,8.89-1.58,1.57-2.89,3.29-4.62,4.34-.56.34-2.46-.86-3.3-1.77a25.34,25.34,0,0,1-4.12-5.61,18.82,18.82,0,0,1-2.08-6.65c-.35-4-1-4.67-4.77-3.59l0,.1-5-4.42,0,0c1.09-.53,2.14-1.39,3.28-1.52,1.78-.22,3.63.24,5.42.06,1.4-.13,3.18-.41,2.39-2.69l-3.5-7.07c.79-1.28,1.28-3,2.42-3.75,3.59-2.3,4.88-7.64,1.71-10.49-3-2.68-.75-4.07.79-5.48,1.81-1.67,7.44-1,9.55.84l-3.06,4.59c-2.36,2.5-2,4.15,1.16,5,.87.25,1.86.11,2.71.4,2.82,1,6.34.6,8,4l-4.39,3.69-1.83,2.9c1.11.61,2.17,1.56,3.34,1.72s2.34-.54,3.52-.86l1.57,0,1.88,1.4.1,0,3.5,2.69a2.66,2.66,0,0,0,.55.23l.89,3.74-6,4c-2.5,1.16-2.7,2.34,0,3.54h0c-.2,3.41,1.68,5.49,4.29,7.33,1.08.75,1.67,2.19,2.48,3.32l-1.19.52-5.58,2,2.21,5.21-3.58.9c-1.47-3.6-2.95-7.19-4.4-10.79-.38-.94-.67-1.91-1-2.86-.74-2.34-1.49-4.68-2.23-7-.22-1.4-.44-2.79-.65-4.19-.81-2-1.53-4.08-2.46-6-.43-.93-1.51-2.47-1.86-2.36a6.48,6.48,0,0,0-3.52,2.23c-1,1.62-1.31,3.64-1.92,5.49-1.54,3.49-1.05,4.57,2.44,5.42l2.69.65C360.92,320.78,360.87,321.42,360.83,322.05Z"/><path d="M355.74,266.45c3.12-2.48,6.74-2.1,10.26-1.54,3,.47,3.39,2.07,2.67,5a7.25,7.25,0,0,0,.82,5.28,20.72,20.72,0,0,0,9.43,7.74c1.57.6,2.67,2.45,4,3.73-1.92.32-3.83.72-5.77.93a40.57,40.57,0,0,1-4.13.06,24.49,24.49,0,0,0,1.92,4.44c.46.71,1.7.92,2.59,1.35l1.85,1.17.82.36a5.71,5.71,0,0,1,.58.21l5.08,2.47a4.12,4.12,0,0,1,.4.33c.35,1.2.77,2.39,1,3.61.49,2.25-.62,3.57-2.74,3.92-3.73.61-10.95-4.38-11.94-8.12,1.54-2.74-1.18-3.53-2.31-5-.31-.72-.46-1.92-.95-2.08-3.72-1.25-4.06-4.22-4.1-7.42.09-.6.17-1.19.26-1.78l-.88-1.07-1.82-.66-2.9-.77-.13,0c-.32-.45-.59-1.25-1-1.3-3.63-.52-4.33-3.23-4.8-6.15.12-.41.24-.82.37-1.22l1.05-2.27Z"/><path d="M273.23,303.4c-4.81,1.52-6.39,6.17-8.84,9.73A40.59,40.59,0,0,0,257.2,338c.07,2.27-.22,4.68-4,5.77,0-4.29-.43-8.3.12-12.16.53-3.71-.66-6-3.65-7.81-.29-.18-.57-.38-.86-.59-5.5-3.94-6.55-8.49-3.36-14.46,1.15-2.15,3.2-2.4,5.14-.43,1.53,1.55,2.77,3.41,4.25,5,1.8,2,3,1.62,3.76-1,1.44-5.2,4.07-9.38,8.95-12.22,2.43-1.4,4.21-3.9,6.39-5.78a13.61,13.61,0,0,1,2.91-1.52c.4,1.12,1.31,2.37,1.08,3.35a16.4,16.4,0,0,1-2.33,4.68,18.63,18.63,0,0,1-2.3,2.5Z"/><path d="M266.42,372.77c1.08-3.17,2.39-6.28,3.19-9.51,1-4.1,1.58-8.32,2.44-12.46.11-.52.91-1.31,1.3-1.26,1.08.14,2.87.46,3,1a28.25,28.25,0,0,1,1,7.85c-.12,2.44-1,4.84-1.72,7.76,3.77.07,6-1.94,8.15-3.85,2.6-2.26,5.09-4.65,7.7-6.91,1.06-.93,2.57-2.6,3.54-.37.51,1.18-.12,3.2-.86,4.48s-2.32,2.35-3.53,3.51l-1.23.27c-4.61-.54-5.89.6-5.82,5.17.11,6.8-.66,7.68-7.33,8.41-5.68.62-6.28,1.32-6.5,7.09A47.21,47.21,0,0,1,269,389c-3.54-3.22-3.51-6.41-3.11-9.75a32.46,32.46,0,0,0,.05-3.56Z"/><path d="M277.43,305a33.67,33.67,0,0,1,3-5.32c5.12-6.18,9.21-12.77,10.39-20.95.21-1.45,1.93-3,3.35-3.9,2.69-1.64,5.68-2.82,8.53-4.2.94-.45,1.84-1.29,2.78-1.32a5.4,5.4,0,0,1,3.64.93c.47.44.14,2.53-.52,3.27-3.57,4.07-7.41,7.9-11.07,11.89a144,144,0,0,0-10,11.44,7.31,7.31,0,0,0-.9,6.09c1,2.35,3.69,1.66,5.84.84.11,0,.23-.12.33-.1,1.83.24,3.65.49,5.48.75-1.37,1.1-2.58,2.74-4.14,3.21-4.52,1.36-9.05,3.84-14,1.24l-.26-.65c.76-2-.3-2.72-2.13-2.83A1.8,1.8,0,0,1,277.43,305Z"/><path class="cls-3" d="M321.69,284.09c.13,1.37.36,2.75.38,4.13.1,4.81-.28,5-5.18,4.9a5.33,5.33,0,0,0-3.69,1.93c-2.08,2.69-4.49,3.73-7.94,4-4.21.28-8.35,1.63-12.53,2.48a31.75,31.75,0,0,1-3.56.18c1.41-2.56,2.23-4.6,3.53-6.24a23.54,23.54,0,0,1,4.76-4.37,50.59,50.59,0,0,1,5.85-3.27c1.21-.62,2.55-1,3.74-1.66,2.9-1.62,5.75-3.33,8.62-5,2.26.31,5-1.8,6.71,1.28l-.73.33c-3.81.16-4.46,3-5.1,6.06a4.78,4.78,0,0,0,3.22-1.13A16.34,16.34,0,0,0,321.69,284.09Z"/><path d="M322.38,282.41c-1.73-3.08-4.45-1-6.71-1.28l-2.13-1.42v0l4.74-1.27,6.83-.52c3.44.18,6.91.17,10.33.6a41.88,41.88,0,0,1,8.32,2,3.28,3.28,0,0,1,1.53,2.79c-.51,3-1.44,5.86-2.23,8.78-.12.41-.39.79-.17.35-4.21-.1-7.87-.25-11.53-.27-6.6-.05-6.74-.2-7.46-6.54C323.79,284.51,322.91,283.48,322.38,282.41Z"/><path d="M252.2,349.07l1.17-3.08c3.44,4,2.88,11.92-.16,15.33a33.87,33.87,0,0,0-4.34,6.49c-1.13,2.12-2.6,4.24-5,3.18-2.56-1.14-4.65-3.37-6.83-5.27-.18-.16.36-1.51.84-2.05a27.69,27.69,0,0,0,6.68-13.4c.34-1.71,1.8-3.2,2.76-4.79l4,2.6Z"/><path class="cls-3" d="M266.42,372.77l-.51,2.87c-2.39,1.92-4,.58-4.11-1.67-.18-3.43-1.78-4.72-4.86-5.58s-3.16-2.47-1.58-5.45a47.39,47.39,0,0,0,4.26-10.15c.53-2-.24-4.48-.81-6.65s.11-3.17,2.31-2.75c3.05.58,6.06,1.36,9.27,2.09a48.64,48.64,0,0,0-4.94,2.57c-1.9,1.25-2.18,2.89.17,3.86,2.69,1.11,3.24,3.12,2.9,5.58s-1,4.94-1.39,7.44S266.64,370.15,266.42,372.77Z"/><path class="cls-3" d="M325.12,277.9l-6.83.52v-1.51c1.82-3.44,5.23-4.17,8.57-5,1.22-.3,2.47-.48,3.7-.71,2.73-.52,4.31-1.8,3.3-4.86,5.27-1.1,10.56-2.12,15.81-3.32,4.51-1,4.66-1,6.07,3.42-.11.39-.22.77-.32,1.15-.36.76-.71,1.51-1.06,2.27-.13.4-.25.81-.37,1.22L351.36,275c-.49-.9-1-1.83-1.51-2.74-1.34-2.29-3.4-3-5.91-2.52s-3.36,1.9-3.65,4.31a3.53,3.53,0,0,1-2.42,2.34c-2.85.33-5.76,0-8.62.23A18.64,18.64,0,0,0,325.12,277.9Z"/><path class="cls-3" d="M284.66,316.78a23.52,23.52,0,0,0,4.58-1.56c3.74-2.2,7.3-4.7,11.06-6.85.51-.29,2.52.65,2.59,1.17.39,3.06.67,6.1-1.8,8.75-2,2.13-3.17,5.09-5.31,7-6.67,5.9-13,3.63-14.72-5-.2-1-.35-2.05-.52-3.07.81.42,1.61.88,2.45,1.26C284.94,319.32,284.84,318.08,284.66,316.78Z"/><path d="M280.22,338.6c-3.12,1-6.2,2.11-9.37,2.82a25.09,25.09,0,0,1-7.17.57c-2.11-.16-2.86-1.86-1.32-3.44,3.52-3.59,7.18-7.06,11-10.35,2-1.77,4.1-1.77,4.77,1.54.48,2.36,2.08,2.86,4.16,2.54.68-.11,1.33-.38,2-.55,2.2-.56,4.5-1.08,5.68,1.58.77,1.71-2.06,5.6-4.3,5.9a39,39,0,0,1-5.19.05Z"/><path class="cls-3" d="M291.3,397.84c-3.17-1.85-6-3.49-8.83-5.18a2.6,2.6,0,0,1-1.15-1.22c-1.34-4.07-2.61-8.16-3.93-12.37,4-1.72,8.18-2.17,11.78-.39a8.51,8.51,0,0,1,3.86,6.17c.23,4.16-.78,8.39-1.34,12.58C291.64,397.77,291.09,398,291.3,397.84Z"/><path d="M241.18,389.36c3.64-.61,6.79.61,9.49,4.59,2.44,3.61-.55,5.86-1,8.6-.26,1.46-2.86,2.61-4.55,3.65a2.3,2.3,0,0,1-2.17-.55c-2.93-3.65-6.13-7.17-8.43-11.2s-1.41-5,3.19-5.09C238.6,389.34,239.52,389.36,241.18,389.36Z"/><path d="M271,404.17c-.32.69-.41,1.41-.81,1.68-3.32,2.2-3.25,5.57-3.25,8.95a3.21,3.21,0,0,1-.17,1.36c-.54,1.07-1.19,2.08-1.8,3.11-1-.82-2.53-1.44-2.93-2.49-1.32-3.43-2.17-7-3.33-10.53-.9-2.71-2-5.34-3-8a12.77,12.77,0,0,1-.35-2.49c.85,0,1.93-.31,2.53.09,2.43,1.6,4.68,3.42,6.77-.41a2,2,0,0,1,1.75,0C268.1,398.28,269.56,401.25,271,404.17Z"/><path class="cls-3" d="M289.39,363.33l1.23-.27a14.14,14.14,0,0,0,2.06-.08c7.26-1.41,7.83-2.17,6.93-9.94l7.33,1.27c-.35.63-1.13,1.66-1,1.83,3.44,3.75.52,6.78-1,10-.91-1.83-1.92-3.61-4.42-2.87s-1.86,2.59-2,4.49a85.59,85.59,0,0,1-1.48,9.38c-3.09-4.07-5.75-7.43-8.17-10.95C288.54,365.59,289.21,364.29,289.39,363.33Z"/><path class="cls-1" d="M333.29,306.11c-1.34-.21-2.67-.47-4-.62-5.39-.59-5.48-.68-5-5.93l6.23-4.33H332c2.06,1.63,4.11,2,6.15,0,.64,1,1.77,1.95,1.84,3,.24,3.66.12,7.34.15,11-.49-.39-1.25-.69-1.42-1.19C337.63,305.09,335.77,304.79,333.29,306.11Z"/><path class="cls-3" d="M365.49,281.07c-.09.59-.17,1.18-.26,1.78l-1.85.41c-2.11-1.82-7.74-2.51-9.55-.84-1.54,1.41-3.77,2.8-.79,5.48,3.17,2.85,1.88,8.19-1.71,10.49-1.14.72-1.63,2.47-2.42,3.75-3.44-3.39-3.44-4-.07-6.85,2.26-1.91,1.34-3.73-.43-5.17-1.93-1.56-2.36-2.72-.29-4.62,1.1-1,1.37-2.84,2.21-4.19,1.37-2.17,2.79-4.28,6-2.9,1,.42,2.26.11,3.4.13l.13,0,2.9.77,1.82.66Z"/><path class="cls-1" d="M284.66,316.78c.18,1.3.28,2.54-1.67,1.66-.84-.38-1.64-.84-2.45-1.26h0l-1.38-.73c-3-1-5.8-3.34-9.29-1.63-.67.76-1.2,1.77-2,2.2-.62.32-1.63-.11-2.46-.21.26-4.92,5-6.91,7-10.75,4.36-.72,5.82,3.19,8.42,5.27l.48,1.67c.13.34.26.68.4,1Z"/><path class="cls-3" d="M286.49,347.81c1.37,7.17-.36,10.81-8,15.69.38-1.56.63-2.55.85-3.53,1.14-5.05,3.94-10.14-.56-15.05a2.91,2.91,0,0,1-.1-2.82,3.16,3.16,0,0,1,2.71-.73,27.47,27.47,0,0,1,5.59,1.82,11.44,11.44,0,0,1,2.49,2.11l-2.86,2.06c.19-3-1.59-3.69-3.69-4l-.93,1.14Z"/><path class="cls-3" d="M265.36,316.82c.83.1,1.84.53,2.46.21.84-.43,1.37-1.44,2-2.2a48.93,48.93,0,0,0,4,5.45c1.44,1.54,1.32,2.53-.38,3.52-3,1.73-5.93,3.49-8.95,5.13-2.12,1.14-3.47-.09-2.95-2A97.2,97.2,0,0,1,265.36,316.82Z"/><path class="cls-1" d="M249.34,382.56l-8.84-2.85c.53-1.08.79-2.76,1.62-3.11a26.62,26.62,0,0,1,6-1.29,53.15,53.15,0,0,0,7-1.13c2.24-.69,3.65-.35,4.24,1.93s-1.13,2.52-2.72,3.11C254.14,380.16,251.76,381.43,249.34,382.56Z"/><path class="cls-1" d="M219,317.52l8,2.7-.1,1h-27l3.87-1.87,5.24-1.28,4.16-.8,2.06-.08,1.36.64Z"/><path class="cls-3" d="M295.66,346.19c.43-3.38.76-6.78,1.4-10.13.08-.42,1.88-.91,2.72-.71a19.22,19.22,0,0,1,3.7,1.82c2.37,1.16,4.62,1.16,6.65-.74.14,1.33.79,2.89.32,3.95a50.32,50.32,0,0,1-4,6.41l-4.38-1.09v-4.06l2.49-1.79c-4.14-2.86-4.64-2.63-6.17,1.73C297.85,343.24,296.6,344.66,295.66,346.19Z"/><path class="cls-1" d="M306.49,346.79a50.32,50.32,0,0,0,4-6.41c.47-1.06-.18-2.62-.32-3.95l-.12-3.76,1.57-.89,3.76,5.6c.45,1.49.91,3,1.36,4.45l-7,5.24Z"/><path class="cls-1" d="M295.66,346.19c.94-1.53,2.19-2.95,2.77-4.61,1.53-4.36,2-4.59,6.17-1.73l-2.49,1.79v4.06l-5.64,3.77C296.12,348,295.89,347.12,295.66,346.19Z"/><path class="cls-1" d="M323.19,316.69c0,.91,0,1.83,0,2.75.25,5.22-.64,6-5.55,5.51q.78-5.71,1.57-11.44c0-.27,0-.54,0-.81l3,1.3Z"/><path class="cls-3" d="M333.29,306.11c2.48-1.32,4.34-1,5.38,1.91.17.5.93.8,1.42,1.19h12.32c.79,2.28-1,2.56-2.39,2.69-1.79.18-3.64-.28-5.42-.06-1.14.13-2.19,1-3.28,1.52C337.33,312.41,335.09,309.51,333.29,306.11Z"/><path class="cls-1" d="M305,366.11c1.53-3.19,4.45-6.22,1-10-.16-.17.62-1.2,1-1.83l2,.29c2.82,1.81,3.05,3.91,1,7.18-1.09,1.73-1.95,3.6-2.91,5.4C305.67,368.08,305,367.74,305,366.11Z"/><path class="cls-1" d="M321.69,284.09a16.34,16.34,0,0,1-1.92,3.58,4.78,4.78,0,0,1-3.22,1.13c.64-3,1.29-5.9,5.1-6.06C321.66,283.19,321.67,283.64,321.69,284.09Z"/><path class="cls-3" d="M280.75,311.34c-2.6-2.08-4.06-6-8.42-5.27l.9-2.67.1-.07,4.1,1.63a1.8,1.8,0,0,0,.39.39l2.13,2.83c.09.22.17.44.26.65Z"/><path class="cls-1" d="M286.49,347.81,282,344.54l.93-1.14c2.1.27,3.88.93,3.69,4A2.69,2.69,0,0,0,286.49,347.81Z"/><path class="cls-3" d="M330.48,295.23l-6.23,4.33C325.15,295.78,326.44,294.88,330.48,295.23Z"/><path class="cls-3" d="M322.24,314l-3-1.3c.14-.88.27-1.75.4-2.63l1.19-.17Z"/><path class="cls-3" d="M341.3,313.34l5,4.42Z"/><path class="cls-3" d="M338.1,295.22c-2,2-4.09,1.65-6.15,0Z"/><path class="cls-3" d="M311.58,331.78l-1.57.89L308.87,330l.93-.55Z"/><path class="cls-3" d="M213.18,317.28l-4.16.8Z"/><polygon class="cls-3" points="305.05 369.18 305.2 369.02 305.27 369.21 305.05 369.18"/><path class="cls-3" d="M281.63,314c-.14-.34-.27-.68-.4-1C281.36,313.35,281.49,313.69,281.63,314Z"/><path class="cls-3" d="M279.15,316.46l1.38.73Z"/><path class="cls-3" d="M216.6,317.84l-1.36-.64Z"/><path class="cls-1" d="M381.75,404.09l4.66,5.86c-.85-.14-2,0-2.49-.47-2.86-3-7.05-4.89-8.13-9.52-.21-.88-1.56-1.5-2.37-2.24l-2.24-.83c-5.4-2.56-8.6-1.8-12.83,2.93-1.21,1.36-2.61,2.55-3.92,3.81l-1.2-.74a57.78,57.78,0,0,1,2-5.54,26.62,26.62,0,0,1,2.36-3.41c1.3-1.95,5-3.84,2.25-6.17-1.66-1.41-5.35-.74-8.08-.48-1.67.15-3.31,3.18-4.91.58-.48-.8,1.12-3.06,2-4.48a33.21,33.21,0,0,1,3-3.61c-2.54-1.85-6.84-2-8.52-.31a4.33,4.33,0,0,0-.69,3,53.82,53.82,0,0,0,1.12,5.85c-5.23-4-9.56,1.09-15-.14a74.53,74.53,0,0,0,7.29-4.9c1.24-1.06,1.87-2.82,2.78-4.26-1.61-.82-3.15-1.95-4.86-2.36-1.53-.37-3.25.06-4.88.13l-.29-1c1-.6,2-1.22,3-1.79,2.86-1.62,3-3.84.1-5.44-2.64-1.48-5.43-2.91-8.16,0a1.75,1.75,0,0,1-1,.33c-.21,0-.45-.07-.38-.06-.39-2.21-.07-5.32-1.3-6.16-1.55-1.05-4.36-.25-7.51-.25l4.65-11.8c3,3.41,5.17,1.23,7.28-.7,1.89-1.72,3.58-3.44,6.53-3.32,1.08.05,2.51-1.19,3.24-2.23.59-.84.36-2.26.49-3.42-1-.12-2.22-.59-3.13-.29-3.58,1.19-7.06,2.72-11.84,1.55,2.87-2.46,5.59-4.13,7.4-6.5,2.74-3.57,4.6-4.3,6.75.35a9.4,9.4,0,0,0,3.15,3.49,7.06,7.06,0,0,0,4,1.31,5.79,5.79,0,0,1,5.94,3.25c1.86,3.35,3.27,7.29,8.14,7.62.6,0,1.12,1.44,1.67,2.21l-4.39,1.94c-1.14.49-2.57.7-3.36,1.53a3.47,3.47,0,0,0-.58,3.08c.26.61,1.81.69,2.79,1l1.08.84c0,.37-.07.73-.09,1.1a.83.83,0,0,0,.27,0c.09-.35.16-.71.23-1.07l2.12.95a38.48,38.48,0,0,0,5.75,2.37c2.83.67,5.76.89,8.64,1.31-.34.95-1.14,2-.92,2.83.29,1.1,1.35,2,2.08,3l2-1.78,2.76.4,2.57,2.45c.54-.86.79-1.34,1.12-1.76a15.09,15.09,0,0,1,1.11-1.21c1.76,2.91,1.09,5.12-1.48,6.17-.84.34-1.44,1.26-2.15,1.92l3.94,3.6a10.54,10.54,0,0,0,1.59-2.64c.84-3.41,1.79-4.1,5.09-3.13a27,27,0,0,1,2.79,1c-.86,3.25-1.92,5.93-2.21,8.7-.21,2-.64,3-2.62,3.77a7.47,7.47,0,0,0-4.5,8.94l-.09,2.3C381.51,402.43,381.63,403.26,381.75,404.09Zm-10-9.69c.6-3.14,1.42-5.89,1.51-8.66,0-.95-1.85-2.85-2.67-2.75a6.18,6.18,0,0,0-3.77,2.55c-.52.75-.19,2.55.38,3.48C368.24,390.72,369.77,392.12,371.74,394.4Zm-40.67-37.5c-1.24-.91-2.39-2.42-3.57-2.44-1.89,0-3.81.89-5.71,1.42.52.71.9,1.66,1.6,2.09a19.59,19.59,0,0,0,3.46,1.3c.86.31,2,1.14,2.5.85C330.07,359.65,330.31,358.44,331.07,356.9Zm35.09,20.29c-5.23.68-6.17,3.06-3.23,7Z"/><path class="cls-2" d="M376.25,371.46l-2.77-.4c-1.06-1.34-2.13-2.67-3.2-4-2.88-.42-5.81-.64-8.64-1.31a38.48,38.48,0,0,1-5.75-2.37l-2.11-.95a.31.31,0,0,0-.42-.06l-1.08-.84c1-3.35,2.67-4.26,5.79-2.27,3.48,2.23,6.18-.21,9.74-.24-3.24-4-3.67-8.94-8-11.54-1.95-1.16-1.47-7.17.08-9.08s3.21-1.35,4.44,0c1.59,1.8,2.84,3.79,1.79,6.59-.33.9.82,2.37,1.3,3.57,1.12-.7,2.64-1.14,3.27-2.15a58.35,58.35,0,0,0,3.21-6.83l3.58-.9a27.86,27.86,0,0,0,2.22-3.36,25.43,25.43,0,0,0,1.15-3.81L382,331c3.09-1.35,3.52-2.53,1.47-4.17-2.73-2.18-5.49-4.32-8.24-6.48h0c0-1.18,0-2.36,0-3.54l6-4c4.05.23,7,2.45,9.58,5.31.44,2.09.87,4.17,1.31,6.25-1.66-.2-3.7-2-4.56,1.1q-.08,4.14-.16,8.27c-3.17,2.09-3.3,3.23-1,8-.29,1-.59,2-.88,2.94a47.87,47.87,0,0,0-4.61,3,10.46,10.46,0,0,0-1.75,2.64c.93.57,1.9,1.69,2.77,1.61,2.34-.2,4.61-1,6.94-1.39s3-1.35,2.23-3.56c-1.25-3.41-.59-6.33,2.36-8.61l1.11,0c1-.9,3-2.16,2.85-2.63-1.64-4.48,1.41-6.28,4.28-8.27l1-.18c1.82.63,4.25,0,4.93,2.86a36.39,36.39,0,0,0,2.06,5.08,8.32,8.32,0,0,1-2.91.16c-2.71-.66-3.62.37-3.42,3a18,18,0,0,1-.19,2.73c-.1.49-.19,1-.28,1.47l-5,3.18c-3.78,1.11-4.89,4.5-6.45,7.52l-2.45,1.26-.09,0-4.12,4.23-2.48,2.36C383.51,366.39,380.75,369.45,376.25,371.46Z"/><path class="cls-2" d="M304.79,447.23h-2c2.15-2.72,4.13-5.61,6.5-8.13s5.31-4.79,7.89-7.27c2.35-2.26,5.13-2.79,8.27-2.77,4.25,0,4.84-.8,4.36-5-.24-2.07-.56-4.13-.81-6.19-.93-8,4.43-12.35,12.31-10,1,.3,2,.67,3,.88,6.37,1.28,6.37,1.26,5.7,7.5-.28.31-.57.62-.85.94l-1.69,2.1-.05-.05c-4.62,4.57-10.12,8.65-8.87,16.4.95,5.88-7.91,13.52-14.43,12.92a4,4,0,0,1-2.89-2.24c-.67-2.35-.73-5,1.78-6.49,1.64-1,3.75-1.15,5.41-2.1,1.32-.75,2.29-2.13,3.41-3.23-1.56-.57-3.1-1.55-4.66-1.57a5.61,5.61,0,0,0-3.59,1.86A52.12,52.12,0,0,1,304.79,447.23Z"/><path d="M340.25,441a11.91,11.91,0,0,0,1.26-2c2.52-6.59,6.68-9.34,13.77-9,3.8.17,5.39,2.09,4,5.67-1.12,2.91-3,5.53-4.62,8.27q-1.5,2.61-3,5.22v0l-2.63,3.6c-.08.18-.17.35-.26.52-.37.51-.74,1-1.12,1.54L346.7,456,342,453.28l-.21-1.19c-.54-3.06-1.09-6.11-1.63-9.17C340.2,442.27,340.23,441.62,340.25,441Z"/><path class="cls-1" d="M337.42,320.44c.15.57.43,1.5.65,2.44.95,4.08,5.61,7.28,9.66,6.39,1.88-.41,2.77-.17,3.15,1.88.23,1.26,1.33,2.34,1.64,3.59s.6,2.92,0,3.93c-.4.72-2.36,1.12-3.38.83a30.4,30.4,0,0,1-6.68-2.83c-2.65-1.5-5.67-2.76-5.89-6.62,0-.6-1.32-1.39-2.16-1.64-1.2-.35-2.55-.16-3.77-.46a2.21,2.21,0,0,1-1.22-1.42c-.09-.32.52-1,1-1.27C332.64,323.67,334.92,322.15,337.42,320.44Z"/><path class="cls-2" d="M366.24,318.94c.74,2.34,1.49,4.68,2.23,7-3.83,1.21-5.66-1.49-7.64-3.9,0-.64.09-1.28.13-1.92,2-2.33.78-3.4-1.56-4.22a25.18,25.18,0,0,1-3.57-1.85c.61-1.85.93-3.87,1.92-5.49a6.48,6.48,0,0,1,3.52-2.23c.35-.11,1.43,1.43,1.86,2.36.93,2,1.65,4,2.46,6C365.81,316.15,366,317.54,366.24,318.94Z"/><path class="cls-2" d="M353.75,407.84c1.7-1.81,3.35-3.36,4.77-5.1,2.08-2.55,4.89-2.29,7.63-2.1.44,0,1.22,1.4,1.11,2a17.84,17.84,0,0,1-1.62,5.24c-2.53,4.74-5,5.17-9.34,1.88C355.41,409.09,354.51,408.42,353.75,407.84Z"/><path class="cls-1" d="M313.31,377.89l6.83-1.41-2.51-2.83c1.92-.4,3.24-.93,4.55-.89,5.16.16,1.17,4.82,3.8,6.28l-.73,1L313.37,379Z"/><path class="cls-1" d="M349.19,417.15c.28-.32.57-.63.85-.94,2.34-1.37,4.29-3.93,8.85-2.17-3.75,2.55-6.81,4.65-9.93,6.63-.14.08-1-.95-1.51-1.47l.05.05Z"/><path class="cls-2" d="M340.17,442.92c.54,3.06,1.09,6.11,1.63,9.17C339.43,449.36,338.53,446.36,340.17,442.92Z"/><path class="cls-2" d="M342,453.28,346.7,456l-2.76,1.89C343.3,456.33,342.66,454.8,342,453.28Z"/><path class="cls-2" d="M371.18,396.89l2.24.83L371,399.26C371.05,398.47,371.12,397.68,371.18,396.89Z"/><path class="cls-2" d="M349,452.69l2.63-3.6Z"/><path class="cls-2" d="M347.63,454.75c.38-.51.75-1,1.12-1.54C348.38,453.72,348,454.24,347.63,454.75Z"/><path class="cls-3" d="M384.88,358.7l4.12-4.23c1.94,1.32,3.89,2.63,5.82,4,1.64,1.13,3.62,2.05,4.79-.08,1.31-2.39,5.28-4.35,2-8-1.31-1.45-2.4-3.09-3.59-4.64l5-3.17c.12,3.61,1.79,5.56,5.58,5.34.57-4.32-1.93-7.47-5.3-6.82a18,18,0,0,0,.19-2.73c-.2-2.59.71-3.62,3.42-3a8.32,8.32,0,0,0,2.91-.16,36.39,36.39,0,0,1-2.06-5.08c-.68-2.83-3.11-2.23-4.93-2.86.46-.85,1.33-1.71,1.3-2.55-.2-7.34-6.85-10.61-13.22-6.59-2.59-2.86-5.53-5.08-9.58-5.31-.3-1.25-.59-2.49-.89-3.74,2.66.07,5.32,0,7.95.25,4.58.46,5.51-.59,4.07-4.93,1.28.46,3.18.55,3.71,1.45,1.9,3.25,4.44,2.41,7.1,1.7-4.07,4.88.57,8.54,1.89,12.61.62,1.9,1.91,3.59,3.1,5.77,2.91-3.84,2.61-8.56,3.42-13.09a12.11,12.11,0,0,1,2,.5c4.44,2.23,5.76,1.47,5.56-3.53s-2.81-8.83-5.59-12.68c-1.15-1.59-4.38-2.81-1.57-5.59l11.05,6.56c.7,1.37,1.31,2.8,2.12,4.1a39.42,39.42,0,0,0,2.54,3.28l.18.92,1.17,1.28,1,1.38,1.65,3.47.39.75c.43,1.65.87,3.29,1.29,5,.75,2.95.07,3.64-2.84,3-1.9-.43-3.82-.79-5.73-1.18l7.11-1.22c-1.17-5.68-5.52-8.91-9.3-12.49-.21-.2-2.24.74-2.29,1.27a75.14,75.14,0,0,0-.11,7.53l3.91-.5c-1,6.77-6.23,3.4-10,4.21,1.63,2.85,3.93,2.91,6.15,3.12-.86,4.46-2.11,8.9-2.42,13.4-.17,2.61-.49,3.8-3.27,4-4.64.25-5.57,1.79-4.14,6.22.51,1.57,1,3.12,1.76,5.29l-9.47-2.54c1.49,2.47,3.24,4.07,3,5.37-.24,1.53-2.26,2.73-3.33,4.21a6.32,6.32,0,0,0-.55,2.3c-4.77,2.87-5.76,5.95-3.11,9.57,1.15,1.57,2.38,1.83,3.59.21,2.24-3,3.91-6.2,3.13-10.14.76.76,2.23,1.59,2.17,2.28-.26,3,.57,6.49-2.67,8.72-.56.39-.54,1.62-.79,2.45-.92.06-1.84.1-2.76.17-4.25.37-5.2,2.21-4.32,6.32.82,3.86,3.32,5.89,6.41,7.56a11.34,11.34,0,0,0,3.09.71c.1-1,.52-2.06.24-2.91-1-3-1.15-5.82.63-8.63.36-.56.09-1.52.12-2.29,1.91-.07,3.39-.47,4.15-2.69.29-.86,2.16-1.17,3.31-1.73a15.13,15.13,0,0,0,.37,3c1.05,3.13,2.18,6.24,3.36,9.33.51,1.32,1.22,2.58,1.84,3.86a27.77,27.77,0,0,0,4.1-2.86,3.91,3.91,0,0,0,1-2.85c-.49-4.31-1.21-8.6-1.84-12.89,3.73.13,4,2.83,4.11,5.61.09,3.09.05,6.19.14,9.29a6.52,6.52,0,0,1-7.45,6.94c-1-.14-2-1.38-2.64-2.35-1.45-2.2-2.49-4.7-4.09-6.79a4.18,4.18,0,0,0-3.48-1.29c-.75.15-1.56,1.88-1.69,3-.62,5.5.59,7.11,6.1,8.69,2.59.74,4.28,1.37,2.61,5-1.46,3.19-1.37,7.09-2,10.67,0,.42-.08.84-.11,1.27-.19.49-.37,1-.55,1.48l-.45,2.09-.9,2.1,3.43,2.81,1.38,1.38h0a6.13,6.13,0,0,1-2.84,6.86c-4.31,2.77-5.76,7.62-8.45,11.58-2.5,3.67-5.49,5.87-10.47,4.7-2.58-.6-5.5.24-8.27.39a18.76,18.76,0,0,1-2.58-.38c1.84-3.7,3.39-7.06,5.15-10.31s3.84-6.31,5.54-9.58c.71-1.36.79-3.05,1.17-4.59.09-.45.19-.9.29-1.34,3.31-3.74,7.1-7.15,6.19-13-.35-2.23.51-4.62.35-6.9a4.37,4.37,0,0,0-1.9-3.28c-.9-.4-2.59.27-3.61,1-3.94,2.64-5.13,6.92-6.28,11.19-.35,1.27-.82,2.51-1.24,3.76l-1.12-.08a30.39,30.39,0,0,1-.2-4c.15-2,.87-3.92.72-5.83-.11-1.37-1-3.4-2-3.79s-3.15.33-4.21,1.24c-1.34,1.15-2.1,3-3.11,4.52a7.46,7.46,0,0,1,4.5-8.93c2-.75,2.41-1.77,2.62-3.77.29-2.77,1.35-5.45,2.21-8.7a27,27,0,0,0-2.79-1c-3.3-1-4.25-.28-5.09,3.13a10.54,10.54,0,0,1-1.59,2.64l-3.94-3.6c.71-.66,1.31-1.58,2.15-1.92,2.57-1.05,3.24-3.26,1.48-6.17a15.09,15.09,0,0,0-1.11,1.21c-.33.42-.58.9-1.12,1.76l-2.57-2.45c4.51-2,7.27-5.07,6.16-10.4,2.41,2.06,3.29,4.76,3.48,7.86a7.59,7.59,0,0,0,1.21,3.87c.6.84,2,1.12,3,1.64.44-1,1.22-2.06,1.25-3.11.05-2.14-.33-4.3-.48-6.45C390.72,362.41,387.13,358.7,384.88,358.7Zm27.81-37.49c-3.07,5-2.76,8.59,0,10Z"/><path d="M450.81,385.46l9-6.14c.29,1.68.57,2.27.44,2.75-2.18,8.31-4.2,16.67-6.77,24.87-.73,2.33-2.94,4.3-4.77,6.14-.68.68-2.61,1-3.26.57a3.71,3.71,0,0,1-.95-3.3,82.93,82.93,0,0,1,3.44-9.79c1.6-3.83,2.25-7.28.62-11.58-1.32-3.45-.61-7.68-.71-11.57-.1-3.73.37-7.55-.26-11.18a53.35,53.35,0,0,0-3.77-11.82c-.7-1.62-2.79-2.62-4.15-4-1.12-1.12-2.89-2.34-2.94-3.57a5.07,5.07,0,0,1,2.46-4c1.09-.48,3.31.3,4.35,1.26a69.67,69.67,0,0,1,7.89,8.58,101,101,0,0,1,6.46,10c1.51,2.56-.32,4.52-1.48,6.65-2.07,3.81-4.05,7.68-5.76,11.66C450.19,382.22,450.74,383.83,450.81,385.46Z"/><path class="cls-3" d="M446.32,423.27c-1.32,1.58-2.44,3.41-4,4.68-1.78,1.44-3.94,3.32-6,3.36-7.2.14-11.09,5.06-15.33,9.59a3.56,3.56,0,0,0-.59,2.62c.55,3.53-1.08,6.26-3,8.93-4.56-1.48-5.22-2.72-3.43-6.92,1.43-3.34,3-6.62,4.54-9.92l.3-.09,2.19-3.08.06-.11c2.27-2.85,4.89-5.5,6.75-8.6,3.33-5.56,9-5.69,14.2-6.27C445.08,417.11,446.68,420,446.32,423.27Z"/><path class="cls-3" d="M444,366c-.35,5.62-.59,11.25-1.14,16.85a4.22,4.22,0,0,1-2.13,3.13c-.84.25-2.69-.84-3.19-1.81-1.85-3.55-3.35-7.27-4.92-11-1.17-2.76-2.1-5.62-3.37-8.33-.86-1.82-.32-2.85,1-4.17,1.79-1.76,3.07-4.06,4.87-5.81a8.16,8.16,0,0,1,4.34-2.32c.72-.08,2.06,1.82,2.45,3,1.1,3.38,1.85,6.88,2.73,10.33Z"/><path d="M414.44,410.93l.45-2.09c.18-.5.36-1,.55-1.48,0-.43.07-.85.11-1.27a39.54,39.54,0,0,1,2-5c.6-1.11,1.7-2.66,2.62-2.69s2.5,1.37,2.82,2.44c.93,3.19,1.42,6.52,2,9.8,1.32,7,1,13.74-3.46,19.76a5.15,5.15,0,0,0-.47,2l-.06.1-2.19,3.08-.3.09a22.9,22.9,0,0,0-3.06,2.34c-2.13,2.26-4.07,4.69-6.21,6.94a7.86,7.86,0,0,1-2.47,1.16c2.73-5.86,5.19-11.34,7.87-16.71.57-1.15,1.94-1.9,3-2.81,3.53-3.14,3.81-6.69.72-9.3h0L417,415.84,413.54,413Z"/><path class="cls-1" d="M401.86,275.73l3.63,5.12c.13.55.25,1.09.38,1.63L394.06,287c-.19-.37-.37-.57-.38-.77a9.11,9.11,0,0,1,.06-1.38c.35-3.83-.46-4.84-4.31-5.46-3.23-.53-2.55,2.14-3.15,3.78a11.88,11.88,0,0,1-.63,1.23,1.27,1.27,0,0,1-.3-.4c-2.51-4.28-5-8.55-7.49-12.86a13.27,13.27,0,0,1-.84-2.61c4.21-.23,8.43-.37,12.64-.71a6.35,6.35,0,0,1,5.69,2.37A63.09,63.09,0,0,0,401.86,275.73Z"/><path class="cls-3" d="M433.94,394.5c-.06-1.28-.11-2.55-.19-4.39,2.34-.19,4.81-.53,7.27-.56s3.49,1.69,2.43,3.7c-3.2,6-5.07,12.3-4.44,19.21.06.7-.77,2.09-1.25,2.11-1.14.07-2.73-.12-3.39-.87-1.31-1.5-2.34-1.88-4.1-.83s-2.64,0-2.69-1.72c-.16-4.61-.3-9.22-.22-13.83,0-.71,1.08-1.74,1.88-2a19.58,19.58,0,0,1,4.09-.57q-1.57,6-3.13,11.9l1.25.29C433.19,403,436.31,399.38,433.94,394.5Z"/><path class="cls-3" d="M385.65,284.41a11.88,11.88,0,0,0,.63-1.23c.6-1.64-.08-4.31,3.15-3.78,3.85.62,4.66,1.63,4.31,5.46a9.11,9.11,0,0,0-.06,1.38c0,.2.19.4.38.77l11.81-4.53c1.16,1.78.12,2.3-1.42,2.91a74.66,74.66,0,0,0-9.06,4.12,4.79,4.79,0,0,0-2.24,3.36c0,.74,1.79,1.81,3,2.28,2.12.85,4.48,1.14,6.54,2.1,1.32.62,2.27,2,3.39,3.07-4.41-.83-8.79-1.85-13.23-2.38-1.44-.17-3,1-4.55,1.49l-2-1.44a4.12,4.12,0,0,0-.4-.33c-.9-2.46-2.89-2.66-5.08-2.47a5.71,5.71,0,0,0-.58-.21l-.82-.36-1.85-1.17c-1-2.51-.23-3.78,2.54-3.71.69,0,1.38,0,2.08,0C387.48,289.63,387.83,289.09,385.65,284.41Z"/><path class="cls-3" d="M429.5,331c.43.37,1.15.69,1.23,1.12,1.06,5.72,2.09,11.44,3,17.18.14.85-.24,2.34-.81,2.61a3.6,3.6,0,0,1-2.81-.59c-2.54-1.55-4.94-3.33-7.44-4.94-3.39-2.19-3.4-4.21-.54-7.18a93.1,93.1,0,0,0,6.16-7.78Z"/><path d="M427.92,306.4l-.18-.92c1.62-3.7,2.54-4.08,8.48-1.76a119.42,119.42,0,0,1,12.41,6,3.46,3.46,0,0,1,1.54,2.63c0,.59-1.52,1.6-2.34,1.59-5.25-.11-10.49-.45-15.73-.71l-.39-.75-1.65-3.47-1-1.38Z"/><path class="cls-1" d="M423.91,367.36c.63,4.29,1.35,8.58,1.84,12.89a3.91,3.91,0,0,1-1,2.85,27.77,27.77,0,0,1-4.1,2.86c-.62-1.28-1.33-2.54-1.84-3.86-1.18-3.09-2.31-6.2-3.36-9.33a15.13,15.13,0,0,1-.37-3l.07,0,5.55-2.74Z"/><path class="cls-1" d="M407.61,374.16c0,.77.24,1.73-.12,2.29-1.78,2.81-1.62,5.62-.63,8.63.28.85-.14,1.94-.24,2.91a11.34,11.34,0,0,1-3.09-.71c-3.09-1.67-5.59-3.7-6.41-7.56-.88-4.11.07-6,4.32-6.32.92-.07,1.84-.11,2.76-.17Z"/><path class="cls-1" d="M388.27,299.43c1.52-.53,3.11-1.66,4.55-1.49,4.44.53,8.82,1.55,13.23,2.38v0l2.25,1.71c.08.66.17,1.31.25,2-.17.24-.34.49-.52.73l-2.61,1.76-2.27,1,.07,0c-2.66.71-5.2,1.55-7.1-1.7-.53-.9-2.43-1-3.71-1.45Z"/><path class="cls-1" d="M420.26,321.94c-2.22-.21-4.52-.27-6.15-3.12,3.8-.81,9,2.56,10-4.21l-3.91.5a75.14,75.14,0,0,1,.11-7.53c.05-.53,2.08-1.47,2.29-1.27,3.78,3.58,8.13,6.81,9.3,12.49L424.82,320l-2,.58-1.35.62Z"/><path d="M429.5,331l-1.24.42-.68.09-5.51.54c-.18-2.24-1.05-4.75-.32-6.63.52-1.34,3.18-1.89,4.95-2.64a3.07,3.07,0,0,1,2.05,0c1.54.55,3,1.27,4.53,1.93-.71,1.35-1.37,2.73-2.14,4A23.39,23.39,0,0,1,429.5,331Z"/><path d="M423.08,298.1,412,291.54c.1-1.85.21-3.7.31-5.55,1.64,1,3.34,1.94,4.92,3,2.24,1.58,4.4,3.28,6.59,4.94.87.65,1.71,1.35,3.22,2.55Z"/><path class="cls-3" d="M420.69,367l-5.55,2.74c.67-2.7-.58-4.65-2.42-6.43-5.65-5.42-5.58-5.67,1.85-8.08-.67,1.29-1.33,2.59-2.32,4.5,1.26.76,2.58,2.19,3.88,2.17s1.91-6,.8-7.61l2.76-1.54,1,.49c-.56,2.94-.94,5.92-1.71,8.8C418.41,364.27,418.59,365.91,420.69,367Z"/><path class="cls-1" d="M405.49,359.78c.78,3.94-.89,7.15-3.13,10.14-1.21,1.62-2.44,1.36-3.59-.21-2.65-3.62-1.66-6.7,3.11-9.57Z"/><path class="cls-3" d="M440.38,330.28c-4.7-.15-4.61-.14-3.94-4.74.52-3.57.77-7.18,1.14-10.77l1.66-.42,3.24,5.84c-.79.68-2.2,1.32-2.25,2.06A74.3,74.3,0,0,0,440.38,330.28Z"/><path class="cls-1" d="M440.38,330.28a74.3,74.3,0,0,1-.15-8c0-.74,1.46-1.38,2.25-2.06l0-.11.62.78,0,0,.28.75c.47,1.17.94,2.35,1.42,3.53q.18,3.38.35,6.75Z"/><path class="cls-3" d="M445.15,331.92q-.16-3.37-.35-6.75c1.23,2.51,2.87,4.91,3.58,7.56.67,2.48.46,5.23.4,7.85,0,.84-.77,1.67-1.19,2.51-.66-.69-1.81-1.31-1.9-2.07C445.34,338,445.31,335,445.15,331.92Z"/><path d="M423.63,364.49c-1.45-3.55-1.48-6.45-.07-9.17.37-.72,2.5-1.41,2.9-1.06.84.73,1.75,2.45,1.41,3.25C427,359.73,425.4,361.69,423.63,364.49Z"/><path class="cls-1" d="M433.94,394.5c2.37,4.88-.75,8.49-2.49,12.42l-1.25-.29q1.56-6,3.13-11.9A4.49,4.49,0,0,0,433.94,394.5Z"/><path class="cls-1" d="M416.93,354.33c1.11,1.62.57,7.59-.8,7.61s-2.62-1.41-3.88-2.17c1-1.91,1.65-3.21,2.32-4.5Z"/><path class="cls-3" d="M408.3,302.07l-2.25-1.71Z"/><path class="cls-3" d="M403.15,307.53l2.27-1Z"/><path class="cls-3" d="M408,304.77c.18-.24.35-.49.52-.73C408.38,304.28,408.21,304.53,408,304.77Z"/><path class="cls-3" d="M443.15,320.86l-.62-.78Z"/><path class="cls-3" d="M421.49,321.22l1.35-.62Z"/><path class="cls-3" d="M443.38,321.64l-.28-.75C443.19,321.13,443.29,321.38,443.38,321.64Z"/><path class="cls-3" d="M377,268.54a13.27,13.27,0,0,0,.84,2.61c2.46,4.31,5,8.58,7.49,12.86-5.56-1.81-9.72-5.12-11.63-10.85C372.5,269.48,372.88,269,377,268.54Z"/><path d="M383.59,462.57c1.69-2.57,3.07-5.46,5.2-7.6,1.17-1.16,3.6-1.36,5.48-1.44s3.58.83,5.37.87c6.86.15,12.6,2.29,16.51,8.32,1.3,2,3.08,3.71,4.42,5.7a17,17,0,0,1,2.17,4.59c.72,2.42-.4,3.76-2.93,3.88-1.73.08-3.46.13-5.19.24-5.72.33-11.3.9-15.16,6.05a3.63,3.63,0,0,1-3.25,1.13c-.8-.35-1.26-2-1.4-3.19-.76-6.21,2-11.46,4.89-16.63a17.06,17.06,0,0,0,1.43-2.36c.76-2.12,0-3.3-2.3-2.67-2,.56-3.8,1.72-5.78,2.29-2.92.83-5.92,1.36-8.88,2Z"/><path d="M397.9,414.56c-.1.44-.2.89-.29,1.34a21.28,21.28,0,0,0-2.56,3.1c-3,5.31-5.71,10.74-8.78,16-.82,1.39-3,3.47-3.69,3.18-2.36-1-3.86-3.51-2.73-6,2.31-5,3.17-11,8.7-14.1a3,3,0,0,0,1.22-1.19c2.27-5,4.41-10,6.78-15,.53-1.11,1.82-1.84,2.76-2.75.76,1,2.22,2.13,2.12,3.06-.26,2.26-1.26,4.43-1.93,6.65C398.94,410.77,398.43,412.67,397.9,414.56Z"/><path class="cls-3" d="M381.75,404.09c-.12-.83-.24-1.66-.35-2.48C381.51,402.43,381.63,403.26,381.75,404.09Z"/><path class="cls-3" d="M431,474.75l.25-.16c.05.16.09.31.13.46-.1,0-.23,0-.29,0S431,474.85,431,474.75Z"/><path class="cls-3" d="M419.29,453.8h0Z"/><path class="cls-1" d="M248.39,481.09a12.84,12.84,0,0,1-2.86-1.24c-1.6-1.17-1.31-2.39.52-3a12.1,12.1,0,0,1,4.41-.6c1.06.08,2.07.93,3.1,1.44a13.49,13.49,0,0,1-2.2,2.58C250.68,480.82,249.62,480.8,248.39,481.09Z"/><path class="cls-2" d="M453.58,456.73c-3.38-.32-6.79-.46-10.11-1.09-.94-.17-1.83-1.67-2.34-2.75a24.41,24.41,0,0,1-1.41-4.64c-1.26-5.29-.05-6.63,5.21-5.74,2.85.48,5.67,1.13,8.52,1.58,4,.63,5.37,4.08,7.19,6.93.29.44-.44,2-1.12,2.49a38.15,38.15,0,0,1-4.91,2.46Z"/><polygon class="cls-2" points="448.64 457.12 448.68 457.3 448.51 457.26 448.64 457.12"/><path class="cls-2" d="M318.29,276.91v1.51l-4.74,1.27Z"/><path class="cls-2" d="M388.27,299.43l4.14,5c1.44,4.34.51,5.39-4.07,4.93-2.63-.26-5.29-.18-7.95-.25a2.66,2.66,0,0,1-.55-.23l-3.5-2.69-.1,0-1.88-1.4-1.57,0c-1.77-1.15-5.06-.24-5-3.77l4.39-3.69.44.15c1,3.74,8.21,8.73,11.94,8.12,2.12-.35,3.23-1.67,2.74-3.92-.26-1.22-.68-2.41-1-3.61Z"/><path class="cls-3" d="M372.59,297.4l-.44-.15c-1.62-3.37-5.14-3-8-4-.85-.29-1.84-.15-2.71-.4-3.15-.88-3.52-2.53-1.16-5l10,4.5C371.41,293.87,374.13,294.66,372.59,297.4Z"/><path class="cls-2" d="M370.28,292.35l-10-4.5,3.06-4.59,1.85-.41c0,3.2.38,6.17,4.1,7.42C369.82,290.43,370,291.63,370.28,292.35Z"/><path class="cls-3" d="M375.24,320.37c2.75,2.16,5.51,4.3,8.24,6.48,2,1.64,1.62,2.82-1.47,4.17-.81-1.13-1.4-2.57-2.48-3.32C376.92,325.86,375,323.78,375.24,320.37Z"/><path class="cls-3" d="M355.83,314.07a25.18,25.18,0,0,0,3.57,1.85c2.34.82,3.51,1.89,1.56,4.22l-2.69-.65C354.78,318.64,354.29,317.56,355.83,314.07Z"/><path class="cls-3" d="M380.82,331.54a25.43,25.43,0,0,1-1.15,3.81,27.86,27.86,0,0,1-2.22,3.36l-2.21-5.21Z"/><path class="cls-3" d="M367.76,300.94c0,3.53,3.26,2.62,5,3.77-1.18.31-2.4,1-3.52.85s-2.23-1.11-3.34-1.72Z"/><path class="cls-3" d="M375.3,316.82c0,1.18,0,2.36,0,3.54C372.6,319.16,372.8,318,375.3,316.82Z"/><path class="cls-3" d="M366.24,318.94c-.22-1.4-.43-2.79-.65-4.19C365.8,316.15,366,317.54,366.24,318.94Z"/><path class="cls-3" d="M376.34,306.16l3.5,2.69Z"/><path class="cls-3" d="M374.36,304.74l1.88,1.4Z"/><path class="cls-2" d="M380.76,295.19c2.19-.19,4.18,0,5.08,2.47Z"/><path class="cls-2" d="M362.79,279.34l-2.9-.77Z"/><path class="cls-2" d="M354.36,269.87c.35-.76.7-1.51,1.06-2.27C355.06,268.36,354.71,269.11,354.36,269.87Z"/><path class="cls-2" d="M365.49,281.07l-.88-1.07Z"/><path class="cls-2" d="M379.36,294.62l.82.36Z"/><path class="cls-2" d="M280,308.18l-2.13-2.83C279.65,305.46,280.71,306.14,280,308.18Z"/><path class="cls-3" d="M371.74,394.4c-2-2.28-3.5-3.68-4.55-5.38-.57-.93-.9-2.73-.38-3.48a6.18,6.18,0,0,1,3.77-2.55c.82-.1,2.7,1.8,2.67,2.75C373.16,388.51,372.34,391.26,371.74,394.4Z"/><path class="cls-3" d="M331.07,356.9c-.76,1.54-1,2.75-1.72,3.22-.46.29-1.64-.54-2.5-.85a19.59,19.59,0,0,1-3.46-1.3c-.7-.43-1.08-1.38-1.6-2.09,1.9-.53,3.82-1.47,5.71-1.42C328.68,354.48,329.83,356,331.07,356.9Z"/><path class="cls-3" d="M366.16,377.19l-3.23,7C360,380.25,360.93,377.87,366.16,377.19Z"/><path class="cls-3" d="M370.28,367.05c1.07,1.34,2.14,2.67,3.2,4l-2,1.78c-.73-1-1.79-1.86-2.08-3C369.14,369.08,369.94,368,370.28,367.05Z"/><path class="cls-3" d="M353.36,362.36a.31.31,0,0,1,.42.06c-.08.36-.15.72-.24,1.07a.83.83,0,0,1-.27,0C353.29,363.09,353.33,362.73,353.36,362.36Z"/><path class="cls-1" d="M398,345.71c1.19,1.55,2.28,3.19,3.59,4.64,3.31,3.65-.66,5.61-2,8-1.17,2.13-3.15,1.21-4.79.08-1.93-1.33-3.88-2.64-5.82-4l.09,0,2.45-1.26C393.1,350.21,394.21,346.82,398,345.71Z"/><path class="cls-1" d="M390.86,318.13c6.37-4,13-.75,13.22,6.59,0,.84-.84,1.7-1.3,2.55l-1,.19a18.22,18.22,0,0,0-3,.63c-1.72.65-2.89.6-3.82-1.36-.48-1-1.85-1.58-2.81-2.35C391.73,322.3,391.3,320.22,390.86,318.13Z"/><path class="cls-3" d="M393.53,338.38c-2.95,2.28-3.61,5.2-2.36,8.61.8,2.21,0,3.21-2.23,3.56s-4.6,1.19-6.94,1.39c-.87.08-1.84-1-2.77-1.61a10.46,10.46,0,0,1,1.75-2.64,47.87,47.87,0,0,1,4.61-3c.14,1,0,2.29.52,3s2.21.81,2.61.41c1.29-1.28-.37-5.57-2.25-6.32-2.32-4.78-2.19-5.92,1-8C388.64,338.7,388.69,338.75,393.53,338.38Z"/><path class="cls-1" d="M384.88,358.7c2.25,0,5.84,3.71,6,6.17.15,2.15.53,4.31.48,6.45,0,1.05-.81,2.08-1.25,3.11-1-.52-2.43-.8-3-1.64a7.59,7.59,0,0,1-1.21-3.87c-.19-3.1-1.07-5.8-3.48-7.86Z"/><path class="cls-3" d="M392.17,324.38c1,.77,2.33,1.35,2.81,2.35.93,2,2.1,2,3.82,1.36a18.22,18.22,0,0,1,3-.63c-2.87,2-5.92,3.78-4.28,8.26.17.47-1.85,1.73-2.85,2.63-.11-1.18.17-2.6-.4-3.48-2.05-3.23-4.39-6.27-6.63-9.39C388.47,322.37,390.51,324.18,392.17,324.38Z"/><path class="cls-1" d="M387.61,325.48c2.24,3.12,4.58,6.16,6.63,9.39.57.88.29,2.3.4,3.48l-1.11,0c-4.84.37-4.89.32-6.08-4.63Q387.54,329.63,387.61,325.48Z"/><path class="cls-1" d="M403.25,341.06c3.37-.65,5.87,2.5,5.3,6.82-3.79.22-5.46-1.73-5.58-5.34C403.06,342,403.15,341.55,403.25,341.06Z"/><path class="cls-1" d="M386.47,341.76c1.88.75,3.54,5,2.25,6.32-.4.4-2.17.13-2.61-.41s-.38-1.95-.52-3C385.88,343.72,386.18,342.74,386.47,341.76Z"/><path class="cls-3" d="M391.54,353.23l-2.45,1.26Z"/><path class="cls-3" d="M349.19,417.15l-1.69,2.1Z"/><path class="cls-1" d="M412.69,321.21v10C409.93,329.8,409.62,326.17,412.69,321.21Z"/><path class="cls-2" d="M414.44,410.93l-.9,2.1Z"/><path class="cls-2" d="M430.06,309.06l1.65,3.47Z"/><path class="cls-2" d="M427.92,306.4l1.17,1.28Z"/><path class="cls-2" d="M417,415.84l1.38,1.38Z"/><path class="cls-2" d="M415.44,407.36c-.19.49-.37,1-.55,1.48C415.07,408.34,415.25,407.85,415.44,407.36Z"/><path class="cls-2" d="M418.84,435.52l2.19-3.08Z"/></svg>