<svg id="frame6" xmlns="http://www.w3.org/2000/svg" viewBox="0 0 720 720"><defs><style>.cls-1{fill:#9b792a;}.cls-2{fill:#753026;}.cls-3{fill:#340e10;}</style></defs><title>Frame 6</title><rect width="720" height="720"/><path class="cls-1" d="M355.76,669.05c.06-.64.11-1.27.17-1.9a15.47,15.47,0,0,0,.66-2.62c.68-9.64,1.36-19.28,1.93-28.92.2-3.52.08-7.06.11-10.59l.12-3.2.36-8.73.09-3a42.78,42.78,0,0,0,.67-5.14c.11-12,.27-24,.13-36.06-.05-4.7-.81-9.4-1.25-14.1-.07-1.69-.13-3.39-.19-5.08l-1.11-15.62c-.09-1.55-.18-3.1-.28-4.64q-.62-9.56-1.24-19.1c-.06-.52-.11-1-.17-1.56l-1.08-12.24c-.09-1.3-.19-2.59-.28-3.89,0-1.48.06-3-.06-4.45-.43-5.06-.45-5.05,4.5-5.85a4.3,4.3,0,0,0,2-.6c4.16-3.33,8.27-6.73,12.4-10.11a2.79,2.79,0,0,0,.32-.28l2.64-.79c3-.89,4-.11,3.26,3a30.64,30.64,0,0,1-2.24,6.13,9,9,0,0,0,.06,8.49c1.55,3.23,2.12,7,2.89,10.51a50.24,50.24,0,0,1,.62,6.15l.48,6.3c0,.08-.12.16-.11.24a4.07,4.07,0,0,0,.13.5c.09.85.17,1.69.26,2.52q.31,5,.65,10c.1,1.19.21,2.37.31,3.55q.42,7.73.83,15.46a557.86,557.86,0,0,1,1.17,77.89c-1.32,25-2.88,50-4.41,75.06-.39,6.22-1.14,12.42-1.6,18.64a34,34,0,0,0,.35,5H352.4c.12-2.18.23-4.36.36-6.54q.84-13.92,1.69-27.85c.05-.67.09-1.34.13-2Q355.17,676.34,355.76,669.05Z"/><path class="cls-2" d="M354.45,685.61q-.84,13.92-1.69,27.85c-.13,2.18-.24,4.36-.36,6.54H351c.89-10.26,1.76-20.53,2.68-30.79A30.35,30.35,0,0,1,354.45,685.61Z"/><path class="cls-3" d="M483.31,401.88l-.78,4.25c-3.73.83-7.48,1.61-11.19,2.52-2.24.56-2.82,2.13-2.89,4.41a35.53,35.53,0,0,1-1.39,6.89c-.33,1.41-.75,2.79-1.14,4.19-.09.11-.19.22-.29.32l-1.56,1.26c-2.13,1.77-4.15,3.7-6.42,5.27-4.41,3.06-9,5.3-14.43,2.07a8.41,8.41,0,0,0-2.67-.59c0-2.25-.05-4.5.05-6.74.1-2,.28-4.09.58-6.11.21-1.36.83-2.65,1-4,.42-2.63-.67-4.15-3.46-3.6a55.6,55.6,0,0,0-8.35,2.25c-.68.25-1,1.77-1.3,2.77-.32,1.17,0,2.64-.64,3.57-2.93,4.43-1.62,9.15-2.06,14.72,1.83-1.09,2.66-1.64,3.53-2.1,2.05-1.09,5.44,0,6.87,2.42,1.53,2.56-1,3.52-2.34,4.12a21.49,21.49,0,0,0-9.91,8.81c-.37.61-1.29.9-1.95,1.35.45-1.87.89-3.74,1.37-5.6.4-1.53,1.44-3.16,1.19-4.56-.81-4.4-2-8.73-3.25-13A2.77,2.77,0,0,0,420.1,425a2.84,2.84,0,0,0-2.06,1.49c-.83,1.61-1.18,3.48-2,5.09-2.56,4.84-2.61,4.81,1.79,8.08,3.5,2.6,3.66,4.05.85,7.24a15.42,15.42,0,0,0-2,2.39c-1.09,1.94-1.66,4,0,6L421.2,452a5.56,5.56,0,0,1-.34,1.32c-1.6,2.89-3.05,5.89-4.9,8.61s2.48,6.4-1.2,8.92c0,0,.66,1.08,1,1.66l-13.46-1.85-.15-1.24c1.62-.63,3.21-1.71,4.86-1.8,3.68-.2,5.3-2.47,6.31-5.45a9.58,9.58,0,0,0,0-3.16,18.3,18.3,0,0,0-3,1.12c-3,1.82-5.78,4.74-9,5.41-6.09,1.27-9.44,3.78-9.79,10.39-.2,3.83.05,5.35,4,5.09,5.12-.32,10.2-1.42,15.31-2a14.71,14.71,0,0,1,4,.62L412,482.5c-3.92-1.9-6.71,1.21-10,2.24-2.14.67-4.34,1.64-6.5,1.61a32,32,0,0,0-5,.66c-3.09.44-6.48-.71-9.63-1.6-.42-.11-.7-2.79-.17-3.83,1.56-3.07,3.74-5.82,5.28-8.88.47-.93.11-3.15-.64-3.66-2.94-2-9.59-.47-11.85,2.38a2.79,2.79,0,0,1-.32.28c-1.71.83-3.49,1.57-5.14,2.53-3.26,1.91-6.28,4.43-9.76,5.73-2.06.77-6,.6-7-.73-2.32-3.06-3.37-7.09-4.94-10.72.88,1.45,1.87,2.84,2.6,4.36,1.56,3.27,2.37,3.52,5.45,1.43.47-.32,1-.59,1.46-.89-.21,1.41-.42,2.83-.64,4.24,1.46-.42,2.93-.8,4.36-1.28a6.84,6.84,0,0,0,1.5-.86c7.58-4.82,14.5-11.28,24.62-9.75.46.07,1.21-.59,1.51-1.1a1.55,1.55,0,0,0-.67-1.36c-2-.59-4.62-2-5.84-1.28-3.3,2.05-5.37.52-7.67-1.27-2.54-2-4.31-1.56-6.25,1.15s-4.53,4.81-6.84,7.18a48.86,48.86,0,0,1,2.07-4.6c1-1.68,2.33-3.15,3.2-4.88.36-.7.05-2.58-.26-2.65-2.85-.66-6-2-8.61-1.34-8.73,2.21-9.87,4.08-10,12.79-1-2.25-2-4.48-3-6.76-.69-1.73-1.18-3.54-1.73-5.22a95.44,95.44,0,0,1-8.71,4.55c-.87.35-3-.34-3.31-1.06-1-2.46-2.29-2.06-4.09-1.24-4.5,2.06-9.05,4-13.58,6l-3.56.42c-.26-8.37.88-16.79-3.87-24.71-1.59-2.64-2.43-4.24-5.53-4a48.58,48.58,0,0,1-5.53,0c-5.48-.25-9.44,2.18-12.4,6.68a10.23,10.23,0,0,1-2.76,2.35c-1.55,1.12-3.17,2.16-4.76,3.23l-.16.12-.87.82-.95.95,0,0-9.12,1.58c3.19-1.54,3.6-3.81,1.93-6.79-1.77-3.19-1.56-6.33.18-9.56a7.87,7.87,0,0,0,.78-4.31c-.25-2.56-1.95-3.17-4.19-1.82-4.33,2.61-8.64,5.25-13,7.77a31.48,31.48,0,0,1-17.6,4.09c-3.41-.17-4.08-1.19-3.09-4.41,2.15-7,5.94-13.21,12.09-17.17,6.41-4.11,5.72-10.38,6.52-16.37l1.85-.47c.47.34.94,1,1.4,1,6.52,0,13-.11,19.54-.35a2.56,2.56,0,0,0,1.83-1.73c0-.85-.59-2.34-1.24-2.54-4.12-1.27-8.33-2.26-12.51-3.34l-1.8.69a5.89,5.89,0,0,0-1.38-.11c-6.22.9-6.51.48-4.44-5.33.36-1,0-3.21-.69-3.49-5-2.16-4.88-5.49-2.68-9.55.27-.49.11-1.25.43-1.66,1.06-1.31,2.08-3.35,3.42-3.62,5.67-1.14,11.44-1.75,16.74-2.49-1.29-3.52-3-7.79-4.42-12.14-1.06-3.12-1.84-6.33-2.74-9.51.93.08,2.42-.17,2.69.3,2,3.39,5.41,6.09,5,10.66-.12,1.35.47,2.75.74,4.13l1.82-.23c-.1-2.27-.35-4.54-.27-6.8.15-4.16.36-8.3,3.29-11.77.82-1,1-2.52,1.43-3.8-1.24.08-2.48.13-3.71.24a22.34,22.34,0,0,1-4.42.39c-2.16-.28-3.37-1.51-2.33-3.9a39.84,39.84,0,0,0,6-.56c2.11-.51,4.05-1.71,6.15-2.26s3.47-1.6,3.61-4c.19-3.2,2.24-3.91,4.85-3a54,54,0,0,1,5.89,2.84c1.88.9,2.92.63,3.27-1.77.5-3.49,1.51-6.91,2.1-10.39a36,36,0,0,0,.86-8.86c-.08-1-2.72-1.63-3.86-2.77-10.24-10.21-9.7-16.68-3-25.84a18,18,0,0,1,2.53-3.28c2.24-1.91,4.43-4.14,7.06-5.28,5.19-2.25,6.51-3.75,7-9.49.11-1.42.9-3.76,1.75-3.95,1.35-.29,3.14.68,4.52,1.49a5.94,5.94,0,0,1,2.17,2.64q5.74,12.87,11.29,25.83a4.08,4.08,0,0,1-.15,2.68c-1.66,4.78-3.29,9.59-5.2,14.28-1.53,3.78-1.06,6.05,2.69,7.39a145,145,0,0,0,15.9,4.73c2.32.53,5-.5,7.38-.22s4.88,1.31,7.31,2L352.27,326c-1.18,3.46-3.38,7,.63,10.13l.33,2.14q-5.14,5.44-8.85-.75.08-3.06.17-6.14c.35-2.57-.08-3.54-3.3-3.25-4.69.42-9.78.6-12.95-4.26l-.38-1.53c.41-3.14-1.5-3.32-3.87-3.16-7.77.55-12.5,6.41-18.16,10.53-1.93,1.4-1.58,3.8,1,4.48a60.71,60.71,0,0,0,10.2,1.72c4.85.41,10-.73,14.05,3.17.28.27.87.22,1.32.32l.89.23,3.72,1.84h0c-2.6,3-5.38,5.58-9.82,4.72l-1.21-2.58c-2.67-.63-2.06,1.52-2,2.7,0,3-.41,5.37-3.87,6.42a5.05,5.05,0,0,0-2.8,3.21c-1,4-1.46,8.13-2.17,12.2-.22,1.31-.55,2.6-.83,3.89a18,18,0,0,1-4-1.41c-2.13-1.35-4.07-3-6.09-4.55a5.33,5.33,0,0,0-.09,3.75c1.19,3.2,2.29,6.33.35,9.67a2.13,2.13,0,0,0,.53,2c.5.32,1.49,0,2.21-.19a74.08,74.08,0,0,1,7.83-2.38c3.18-.57,4.63,1.15,4.53,4.72-.1,3.31-2.51,2.28-4.32,2.28a14.4,14.4,0,0,1-2.75-.36c-2-.38-2.59.41-2.65,2.43a14.24,14.24,0,0,0,2.53,8.71c3.76.39,7.4-.32,8.92,1.15,3.31,3.19-1.2,4.46-3,6.29l2.38,2.28c-.34.52-.59.89-.82,1.27s-.48.86-.64,1.14c4,3,9.19,4,11.59,9.43-4.9-1.31-16,2.63-17.77,6.11l18.58,7.1c.21-1.8.45-2.88.45-4,0-5.78.3-6.19,6.12-7.31a23.43,23.43,0,0,1,4.45-.65,8.81,8.81,0,0,1,2.74,1c-.36.89-.49,2-1.12,2.63q-5.27,5.25-10.76,10.26a7.24,7.24,0,0,1-2.81,1.11c-3.06.92-6.2,1.61-9.2,2.71-3.75,1.36-2.1,4.34-1.58,6.79s1.94,3.76,4.76,3.31a34.24,34.24,0,0,1,8.24-.63c2.67.23,3.55-.62,3-3-1.16-4.86,2.46-7.1,6.74-8.35,1.32-.39,2.95-.21,4-.93,2.7-1.86,5-1.91,7.47.34.51.47,2.06.67,2.41.3,2.73-2.86,5.3-5.88,7.91-8.86l.07,0,11.83-1.48q2.55,1.27,5.09,2.56c2.26,2,2.63-.25,3.27-1.52,1-1.93,1.26-4.91,2.79-5.77,4.62-2.59,5.16-6.63,5.59-11.11.08-.83,2.39-2.3,2.65-2.11a8.56,8.56,0,0,1,3.19,3.7c.33,1-.47,2.87-1.37,3.72-2.53,2.39-3.16,5.25-.63,9.72.47-1.13.76-1.87,1.08-2.6,1.56-3.54,3.86-5.72,8.13-5.73,2.36,0,3.3-2.07,3.36-4.47.08-2.74.51-5.47.54-8.2,0-.59-1.08-1.19-1.66-1.79l-6.49.12c-1.95-1-5,.14-5.83-3v-1c.31-2.07.47-4.32,3.6-3.47l3.84,3.54c1-1.46,2.41-2.79,2.85-4.4s0-3.72,0-5.6l-5.88,2.1-5.83.74,0,0q.86-2.94,1.72-5.9l3.8.67c4.22-.34,6.12-4.49,4.45-9.94l4.74-.5c-.62-2.15-.83-4.06-1.73-5.54-.49-.8-2.7-1.56-3.22-1.16a76.13,76.13,0,0,0-6.39,6.07c-1.13,2.3-2.27,4.61-3.4,6.92a14,14,0,0,0-7.55,7.62,89,89,0,0,0,2.94,9.95c-.8-.35-1.62-.68-2.42-1s-1.87-.86-2.8-1.29a19.75,19.75,0,0,0-1.3,2.95,8.47,8.47,0,0,0,0,2.36L380.75,400l-.61-.26-1.3-.26c-.7-2.06-1.41-4.13-2.11-6.2l-.94,0c-.86,1.63-1.71,3.27-2.57,4.91l-1.52-.59,2.22-6.85c.24-.74.81-1.56.66-2.21a15.12,15.12,0,0,1,2.17-11.88c2.61-4.14,2.6-8,0-12l2-.34c1.25-.93,3.07-1.61,3.64-2.85,2-4.38,1.89-8.59-1.84-12.33-2.09-2.1-2.92-4.69-.78-7.41l1-.9c2.37-1.52,1.67-3.09.17-4.81a14.72,14.72,0,0,0-10.19-5.06,1.71,1.71,0,0,1,.3-.5l1.55-2.26,1.16-3.53c-1.78-4-4.24-4.84-11-3.8l.14-2.33,1.43-3.24c1.8-2.34,1.56-3.66-1.72-3.88-3.07-.2-4.58-2.68-4.75-5.12a6.3,6.3,0,0,1,2.88-4.77,152.18,152.18,0,0,1,13.88-6.45,2.16,2.16,0,0,1,2,.53,2.42,2.42,0,0,1-.23,2.17,7.77,7.77,0,0,1-2.18,1.61c-2.92,1.87-3,2.93-.5,5.57l.19.22,1.31,1.25.07.09,1.29,1.29.09.15c.64.94,1.28,1.88,1.94,2.81,1.86,2.61,3.86,5.14,5.53,7.86,1,1.6,1,3.19-1.36,4.08-2.82,1.06-2.91,2.24-.59,4.33,2.12,1.91,4.27,3.78,6.41,5.67l1.22,2.36c-.73,5-1.42,9.95,2.17,14.27l.6,3.67c-1.53-.7-2.89-.94-3.33,1.25q.13,3.57.29,7.15c-.23.25-.64.5-.65.77-.13,3.93-.31,7.87-.17,11.79,0,.53,1.73,1.29,2.69,1.35.48,0,1.63-1.54,1.45-2-1.31-3.39-.06-6.31,1.32-9.25l1.68-.4c2.24-.22,2.92-1.56,3-3.67a19.83,19.83,0,0,1,1-4.07c.66-.35,1.32-.7,2-1,2.15-.44,4.61-1.36,3.16-3.89-2.41-4.2-1.84-8.54-1.85-12.93l2.07-1.9c3.55-3.62,3.36-5.47-.94-8a31.49,31.49,0,0,0-3.51-1.36c-3.56-1.55-4.11-4.13-1.56-7,.9-1,1.71-2.13,2.56-3.2,3.25-2.31.56-3.92-.43-6.08-3.08-6.74-8.83-10.07-15.16-12.82-1.09-.38-2.16-.8-3.27-1.12-3.64-1-5.55-3.24-4.66-6.72.82-3.23,2.67-6.2,4.06-9.25,3.68.69,7.62.53,9.95,4.81a25.41,25.41,0,0,0,.58-8.6c-1.24-9.06.27-17.71,3.48-26.15a9.69,9.69,0,0,1,8.88-6.15c3.8.1,3.89,3.42,4.83,5.88,1.47,3.85,3.42,4.6,7.27,3a27.08,27.08,0,0,1,5.93-1.54c4.79-.82,7.48,2.8,10.84,5.15,2.28,1.59,3.14,3.77,2.48,6-2.3,7.6-4.24,15.31-14,17.39-7.63,1.63-7.55,2.27-2.17,8.07,2.29,2.46,2.49,4.67.29,7.32a44.3,44.3,0,0,0-3.39,5.5c-.19.3-.37.6-.56.89l-1.47,1.27-1.19.22c-1-.16-2-.4-3.07-.47-2.12-.14-5-1.19-5.75,1.49-.5,1.84.86,4.2,1.46,6.31a3.52,3.52,0,0,0,.78,1.14c2.92,3.7,6.08,7.23,8.7,11.14,1.58,2.35,2.83,2.9,5.24,1.36,2.12-1.36,3.46-.91,4.15,1.91.3,1.26,2,2.65,3.38,3.05a12.74,12.74,0,0,0,5.49-.08c2.89-.48,3.29-1.7,2-4.33a54.3,54.3,0,0,1-2-5.07l.95-.85c4.71,1.69,9.62,3,14.05,5.25,1.8.91,2.92,3.72,3.76,5.89,1.32,3.4,2,7,3.23,10.51.81,2.3,2.1,3,4.38,1,2.84-2.45,6-.89,6.32,2.87.41,4.2-1.74,6.83-6.21,7.59-5,.86-12.7,8.28-13.41,13-.08.51.35,1.1.27,1.61-.22,1.29-.19,2.94-1,3.74-2.28,2.32-2.5,4.38.06,6.43A20.68,20.68,0,0,1,454,387c.21.66.95,1.14,1.51,1.79l2.41-2.06,17,8.28Zm-50.7-37.76,1.56.74a11.11,11.11,0,0,0,1.52,3c1.21,1.25,2.81,1.15,3.07-.74a46.49,46.49,0,0,0,.71-10.89c-.4-4.07-1.74-8.05-2.74-12a13.9,13.9,0,0,0-1.3-2.53,7.41,7.41,0,0,0-2.06,7.9l-.15.81c-1.2,3.2-2.6,6.34-3.53,9.62C429.09,362.16,430.11,363.83,432.61,364.12ZM310,346.64c-.43-1.3-.85-2.61-1.27-3.91l-1.14.22c-2.26,5.85-4.57,11.67-6.74,17.55-.7,1.92.65,2.45,2.27,2.41a7.59,7.59,0,0,0,7-6.76Zm119.89,1.09a90.39,90.39,0,0,0-2.1-9.59c-1.61-4.89-3.17-5.21-7.51-2.09l-.86.13-2.33,1.47.47,4.92a9,9,0,0,1-1.76,1c-5.31,1.53-5.82,2.21-5.74,7.91-.34,1.69-.69,3.38-1,5.06-2.37,4.35-2.09,5.59,1.92,8.87,1.86,1.52,3.19,1,4-1.05,1.8-4.8,3.51-9.64,5.26-14.46l1.48,0,1-.12ZM288.69,357.85l1.82,0,7.41,3.14c-2.34-5.59-4.26-10.36-6.36-15.06a3.25,3.25,0,0,0-2.2-1.81c-.74,0-1.71,1-2.19,1.8-1.44,2.35-2.73,4.8-4,7.26-1.73,3.35-3.46,6.7-5,10.14-.61,1.34-.66,2.92,1.58,2.83C283.14,366,288.18,361.26,288.69,357.85ZM440.9,384.52c1.36,1.63,2.68,3.3,4.09,4.88.79.88,1.86,2.37,2.58,2.25,1.15-.18,2.94-1.44,3-2.33a9.9,9.9,0,0,0-1.42-5.12c-.86-1.55-2.39-2.72-3.56-4.12-3.78-4.54-7.92-8.54-14-9.88-1.46,5.1-.85,6.09,4,6.78,3.27.47,4.78,2.49,4.76,6.38l-1.88-1.43c-1.36-1.05-3.17-3.24-4-2.91a9.4,9.4,0,0,0-4.53,4.21c-2.25,4.5-4.38,8.9-9.57,10.69l-3.31,1.49c-4.67,1.25-5.11,2.26-2.86,6.46l4.4,8.26c1.2,2.26,3,2.9,4.56.75s2.36-4.79,3.56-7.19c.89-1.76,1.87-3.47,2.82-5.2,1.2,1.24,2.41,2.48,3.6,3.75.22.24.26.7.51.88,1.18.81,2.4,1.55,3.6,2.32.4-1.31.85-2.61,1.17-3.95a10,10,0,0,0-.08-1.72c.11-3.08-.25-6.26,2.82-8.48.6-.43.49-2.08.42-3.15A25.44,25.44,0,0,0,440.9,384.52ZM279.82,401.65a86.86,86.86,0,0,1-2.54,8.93c-.37.95-2.19,2.13-3.09,1.94-4-.84-8-2.16-11.95-3.25-1.12-.3-2.3-.4-3.45-.6l-.33,1.1c.77.62,1.58,1.18,2.29,1.87.94.91,1.79,1.91,2.67,2.87-1.32.45-2.63,1-4,1.33-3.52.9-7.23,1.33-10.56,2.69s-3.22,4-.57,6.21a16.79,16.79,0,0,1,3,3.21c2.4,3.55,5,3.74,7.7.33a57.47,57.47,0,0,1,3.48-4.72c.52-.53,2.59-.59,2.75-.26a33.91,33.91,0,0,1,3.05,7.52c.5,2.2-.42,4.83.37,6.85s2.62,4.63,4.58,5.37c2.61,1,3-2.12,3.65-4,1.84-5,2.21-5.23,7.54-5.26a75.61,75.61,0,0,0,8-.24c1-.1,1.89-1.08,2.83-1.67-.59-.89-1-2.2-1.81-2.6a11.69,11.69,0,0,0-4.85-1.2,6.55,6.55,0,0,1-6.82-7.3,80.27,80.27,0,0,0,.35-8.21c0-4.32.57-5.06,4.9-5.1,3.16,0,6.32,0,10.41,0-3.24-5.69-6.36-9.45-13-9.38,2-3.35,3.61-5.84,4.91-8.5a7.75,7.75,0,0,0,.75-4.25,3.23,3.23,0,0,0-2.18-2.2c-.69-.1-1.67,1.13-2.36,1.91a13.8,13.8,0,0,0-1.34,2.31c-2.06-1.21-2.13-2.65-.85-4.6.48-.73.56-2.64.14-2.91-3.81-2.39-7.78-4.53-11.69-6.75l-.69.94c.91,1.28,1.84,2.55,2.74,3.84,3.37,4.81,3.22,7.16-1,11.35-1.79,1.8-1.77,3.61-.62,5.62,1,1.69,2.37,3.25,2.88,5.07C276.05,402.91,277.39,403.42,279.82,401.65Zm42-112.19c-1.1-2.16-1.72-5-3.47-6.23-1-.75-3.84.87-5.83,1.48a4.5,4.5,0,0,0-1.53.81c-1.09.9-2.11,1.88-3.16,2.83,1.12.88,2.25,1.74,3.35,2.64.91.74,1.78,1.53,2.66,2.3-.9.94-1.67,2.45-2.74,2.71-3.57.87-7.25,1.25-10.87,1.91a15.84,15.84,0,0,0-4.91,1.33c-2.4,1.37-2.34,4.45-.16,6.08,4,3,4.46,4.48,3.37,9.13-.86,3.7-1.17,7.56-2.36,11.14-1.75,5.22-.24,11.05-3.47,16-1.25,1.92,1.86,5.89,4,5.68,3.95-.38,8.6-8.47,6.53-11.83-1.89-3.06-1.54-5.68-.25-8.81,1.69-4.1,3.71-8.43,3.86-12.71.17-5.31,2.6-8.09,6.58-10.78C318.06,300.06,320.83,295.57,321.84,289.46Zm55.3,159.79c4,.71,5.49-.95,6.62-3.87a17.37,17.37,0,0,1,4.19-6.13c2-1.92,1.74-3.46,0-4.88a51.18,51.18,0,0,0-6.11-3.92c-5.44-3.21-8.88-1.94-11,4-1.4,4-5,5.77-9.17,4.86a4,4,0,0,0-3.1.77c-3.35,3.31-6.62,6.71-9.63,10.32-.67.81-.17,2.59-.21,3.93,1.3-.23,2.87-.06,3.88-.74,3.12-2.08,6.08-3.95,10.18-3.19a38.22,38.22,0,0,0,9.31.58C374,450.88,375.88,449.72,377.14,449.25ZM457,398.7c1.66,2.16,2.52,3.36,3.47,4.49,1.58,1.85,3.42,2.93,5.69,1.16s2.94-5.39,1-7.1c-1.5-1.34-3.71-2-5.71-2.63-1-.31-2.3.37-3.42.25-5.72-.61-9,2.53-9.21,9.26a84.07,84.07,0,0,1-2.67,20.15c-.3,1.09.49,2.47.77,3.72,1.29-.32,3.4-.26,3.73-1,1.77-4,3.61-8.09,4.43-12.34.65-3.38-.33-7.05-.18-10.57C455,402.55,456.07,401.05,457,398.7Zm-57.67,56c.54.73,1.31,1.33,1.45,2,.54,2.75,2.11,2.5,4.11,1.74a9.64,9.64,0,0,0,6.61-8.86,5.69,5.69,0,0,1,3.28-5.21c1.06-.55,1.75-1.79,2.61-2.71-1.31-.75-2.55-1.82-4-2.18-2-.48-4.16-.09-6.06-.69-2.69-.85-4.09.19-5.37,2.33-2.11,3.55-4.36,7-6.55,10.53a13.88,13.88,0,0,0-1.56,2.67,2.51,2.51,0,0,0,.25,2.17c.36.37,1.48.24,2.13,0A20.65,20.65,0,0,0,399.34,454.72Zm31.05-121.67c.08,3.92,1.28,4.52,4.14,3.77,2.47-.65,5.21-1.46,7.26,1.2,2.17,2.82,4.28,5.69,6.61,8.37a9.14,9.14,0,0,0,3.65,2.42,3.46,3.46,0,0,0,2.83-.52c.38-.29.21-1.78-.15-2.49-2-3.89-4-7.78-6.19-11.54a83,83,0,0,0-5.66-8.29c-1.16-1.51-3-2.13-3.41.5-.57,3.73-2.81,4.55-6,4.81C432.22,331.38,431.1,332.61,430.39,333.05ZM381.9,454.81l4.92,4.75c1-1.16,2-2.27,2.93-3.5a19,19,0,0,0,1.21-2.48c3.8-7.2,7.64-14.38,11.4-21.61a5.16,5.16,0,0,0,.63-3,12.65,12.65,0,0,0-1.56-3.12,12.55,12.55,0,0,0-2.56,2.22c-1.2,1.78-1.74,4.23-3.29,5.5-1.83,1.52-4,2.28-2.83,5.32.2.51-.74,1.54-1.28,2.22-2.7,3.41-5.49,6.75-8.15,10.18C382.78,452,382.62,453,381.9,454.81Zm-82.36-28,1.18-.09a37.37,37.37,0,0,0,.93-5.89c0-10.27,1-9.75-9.34-10.94-3.93-.45-4.75.76-3.13,4.26a11,11,0,0,0,1.57,2.68C293.64,420.19,296.6,423.49,299.54,426.81Zm-8.77-50.5-1.6,1.1c7.19,6.86,2.78,12.75-.95,18.76a13.68,13.68,0,0,0,9.1-7.23c1.23-2.34,2.31-6.18,1.21-8C297.13,378.69,293.46,377.8,290.77,376.31ZM416.1,417c-1.91-1.08-4.07-.71-6.08,1.06-3.14,2.76-4.85,8.82-3.31,12.68.39,1,1.75,2.28,2.59,2.23a5.11,5.11,0,0,0,3.61-2c.87-1.37.94-3.26,1.31-4.94C414.82,423.28,415.39,420.46,416.1,417Zm13.26-39.34c-1.64-5.77-3.18-11.19-4.76-16.71-.2.15-.82.39-1.06.82-1.63,3-3.28,6-4.71,9a3,3,0,0,0,.46,2.55C421.88,376.41,425.29,377.63,429.36,377.67Zm14.45-13.07c2.32-2.43,4.36-4.16,5.9-6.26,2.56-3.5,2.09-4.79-1.73-6.8-1-.54-1.91-1.35-3-1.81a30.55,30.55,0,0,0-3.68-1.09c.38,1.28.46,2.78,1.2,3.78,1.69,2.27,2.38,4.42.82,7a5.51,5.51,0,0,0-.89,2.57C442.47,362.67,443.14,363.35,443.81,364.6Zm-24.93,15.51c-.35-.2-.7-.4-1.06-.59-1.3,1.19-2.68,2.33-3.91,3.6-2.64,2.73-2.46,4,.69,6.34,1.84,1.36,3.14.86,3.5-1.24C418.55,385.54,418.64,382.81,418.88,380.11Zm7-.22c-3.2-.05-4.76,1.58-4.57,4.37.08,1.11,1.07,2.16,1.65,3.23a67.77,67.77,0,0,0,4.59-5.59C427.74,381.66,426.25,380.29,425.91,379.89Z"/><path class="cls-2" d="M417.34,301.17a43.07,43.07,0,0,1,3.38-5.5c2.2-2.65,2-4.86-.29-7.32-5.38-5.8-5.46-6.44,2.17-8.07,9.78-2.08,11.72-9.79,14-17.39.66-2.2-.2-4.38-2.48-6-3.36-2.35-6.05-6-10.84-5.15a27.08,27.08,0,0,0-5.93,1.54c-3.85,1.63-5.8.88-7.27-3-.94-2.46-1-5.78-4.83-5.88a9.69,9.69,0,0,0-8.88,6.15c-3.21,8.44-4.72,17.09-3.48,26.15a25.41,25.41,0,0,1-.58,8.6c-2.33-4.28-6.27-4.12-9.95-4.81-1.39,3.05-3.24,6-4.06,9.25-.89,3.48,1,5.67,4.66,6.72,1.11.32,2.18.74,3.27,1.12-6.37-1.36-9.18,3.37-12.48,7.29-2.52-2.64-2.42-3.7.5-5.57a7.77,7.77,0,0,0,2.18-1.61,2.42,2.42,0,0,0,.23-2.17,2.16,2.16,0,0,0-2-.53,152.18,152.18,0,0,0-13.88,6.45,6.3,6.3,0,0,0-2.88,4.77c.17,2.44,1.68,4.92,4.75,5.12,3.28.22,3.52,1.54,1.72,3.88-6.3-1.56-7.33-1.08-10.7,5-2.43-.7-4.83-1.72-7.31-2s-5.06.75-7.38.22a145,145,0,0,1-15.9-4.73c-3.75-1.34-4.22-3.61-2.69-7.39,1.91-4.69,3.54-9.5,5.2-14.28a4.08,4.08,0,0,0,.15-2.68q-5.54-13-11.29-25.83a5.94,5.94,0,0,0-2.17-2.64c-1.38-.81-3.17-1.78-4.52-1.49-.85.19-1.64,2.53-1.75,3.95-.45,5.74-1.77,7.24-7,9.49-2.63,1.14-4.82,3.37-7.06,5.28a18,18,0,0,0-2.53,3.28c-6.72,9.16-7.26,15.63,3,25.84,1.14,1.14,3.78,1.76,3.86,2.77a36,36,0,0,1-.86,8.86c-.59,3.48-1.6,6.9-2.1,10.39-.35,2.4-1.39,2.67-3.27,1.77a54,54,0,0,0-5.89-2.84c-2.61-.89-4.66-.18-4.85,3-.14,2.36-1.43,3.38-3.61,4s-4,1.75-6.15,2.26a39.84,39.84,0,0,1-6,.56c.05-.72.11-1.44.16-2.15l.3-1.33c0-.47,0-.94.07-1.41.92-2.33,1.85-4.66,2.63-6.63-2.2-1.89-4.23-3.25-5.77-5-2.78-3.2-6.29-4.32-10-3-7.9,2.86-14-.84-20.49-4.34,2.66-5.67,5.47-11.07,2.34-17.29-4.72.25-9.33,1.12-13.75.53-3.12-.42-5,.24-7,2.26-1.13,1.15-2.63,2-3.65,3.18-1.38,1.65-3,3.39-3.58,5.37a118.33,118.33,0,0,0-3.86,15A46,46,0,0,0,203.28,347a16.68,16.68,0,0,1,.41,3.84c-1.39.05-3.06.62-4.12.05-3-1.62-5.74-3.7-8.59-5.61l-1.06-1.76-.77-.47L188,342.2q-.63-2.52-1.24-5.06c-1.2-5.24-2.78-10.44-3.5-15.75a84.08,84.08,0,0,1-.46-15.22c.11-2.17,1.07-5.18,2.68-6.25,8-5.35,15.85-11.15,25.43-13.7,5.78-1.54,11.18-1.23,16.17,2.4a7.59,7.59,0,0,0,2.18,1,107.62,107.62,0,0,1,33,17c2.72,2.09,5.73,3.79,8.6,5.67h-3.26a12.77,12.77,0,0,0,1.27,2.05c2.93,2.76,2.72,5.75,1,9.11a46.12,46.12,0,0,0-2.8,7.43,3.07,3.07,0,0,0,.62,2.48,2.22,2.22,0,0,0,2.16,0c3.87-3.55,8-6.91,11.31-11s3.65-9.8,8.3-13a1.62,1.62,0,0,0,.4-1.52c-2.05-3.05-4.2-6-6.32-9-.17,4.89.31,9.55-3.75,13-.69-11-1.77-22.06-1.95-33.11s2.66-21.91,6.81-32.27a13.17,13.17,0,0,1,1.28-2l-.12-.06.07,0,2.72-1.65c5.38,2.42,10.9,4.61,16.15,7.31,4.55,2.34,8.8,5.26,13.21,7.89a5.2,5.2,0,0,0,1.54.31l-3.84-5.51c5,3.78,9.6,8,12.47,13.69.11,1.71.24,3.42.33,5.12.25,4.36.61,8.72.68,13.08.09,5.71-.05,11.43-.05,17.15,0,.21.46.42,1.3,1.13,1.65-5.07,3.22-9.87,5.16-15.84,2.32,2.08,3.79,3.38,5.23,4.72,4.57,4.21,9.19,8.23,16.16,6a5.35,5.35,0,0,1,2.07-.17,20.69,20.69,0,0,0,13.13-3.36c3.56-2.18,3.95-3.64,1.78-7.19-1.61-2.62-2.79-5.5-4.16-8.27,1.75-4.6,3.22-9.33,5.31-13.77,2.92-6.2,6.24-12.22,9.53-18.24.62-1.13,1.91-1.89,2.89-2.82l-2.28,5.5.61.69a14,14,0,0,0,3.24-1.84c2.81-2.79,5.49-5.7,8.16-8.63,4.54-5,8.71-10.4,13.65-15,3.63-3.34,8.25-5.6,12.43-8.34,4.6-2.05,9.1-4.33,13.82-6.06,3-1.09,5,.54,5.92,3.62a86.63,86.63,0,0,1,3.81,25.53c0,3.9.32,7.8.49,11.7-1.83-1.28-1.7.27-2,1.35-1.13,3.74-1.88,7.66-3.57,11.13-3.88,8-8.12,15.75-12.4,23.5C426.31,292.68,422.85,297.83,417.34,301.17Zm-69.15,10.41c1.48-1.93,3.43-3.61,3.14-4.22a53.21,53.21,0,0,0-5.93-9.86c-1.4-1.79-3.87-2.71-5.64-4.27-1.57-1.39-2.68-.91-3.08.69a5.74,5.74,0,0,0,.6,3.82,85.54,85.54,0,0,0,5.72,8.92C344.2,308.28,346,309.49,348.19,311.58Z"/><path class="cls-3" d="M191,345.31c2.85,1.91,5.6,4,8.59,5.61,1.06.57,2.73,0,4.12-.05a16.68,16.68,0,0,0-.41-3.84A46,46,0,0,1,201,323.25a118.33,118.33,0,0,1,3.86-15c.63-2,2.2-3.72,3.58-5.37,1-1.22,2.52-2,3.65-3.18,2-2,3.88-2.68,7-2.26,4.42.59,9-.28,13.75-.53,3.13,6.22.32,11.62-2.34,17.29,6.45,3.5,12.59,7.2,20.49,4.34,3.7-1.34,7.21-.22,10,3,1.54,1.78,3.57,3.14,5.77,5-.78,2-1.71,4.3-2.63,6.63-1.44-1.6-3.48-3-4.17-4.85-1.33-3.61-3.86-4.54-7.2-4.65a30.65,30.65,0,0,0-3.43-.21,12,12,0,0,0-2.66.82,7.05,7.05,0,0,0,1,2.37A18.07,18.07,0,0,1,253,342c-.59,6.26-.58,6.26,5.06,6.85l-4.17,4.74-.52.45-2.27,1.64-2.85,2.93a87.43,87.43,0,0,1-28.8-1.44c-4-.88-8.16-.74-12.25-1.06-5.58-.88-10.86-2.43-14.51-7.16A17,17,0,0,1,191,345.31ZM223.75,355c8.4-1.26,12.83-7.69,18.14-12.68,1.86-1.74,1.67-4.42-.4-6.18-2.22-1.9-4.15-.27-5.77,1.22q-6.85,6.27-13.52,12.74a14.48,14.48,0,0,0-1.92,3.36Z"/><path class="cls-2" d="M253.84,353.56l4.17-4.74h1.28c.9,3.18,1.68,6.39,2.74,9.51,1.46,4.35,3.13,8.62,4.42,12.14-5.3.74-11.07,1.35-16.74,2.49-1.34.27-2.36,2.31-3.42,3.62-.32.41-.16,1.17-.43,1.66-2.2,4.06-2.32,7.39,2.68,9.55.64.28,1.05,2.48.69,3.49-2.07,5.81-1.78,6.23,4.44,5.33a6.46,6.46,0,0,1,1.38.1A86.16,86.16,0,0,1,246,400c-2.4.6-4.47.92-3.81,4.2l3.8-.7c-.8,6-.11,12.26-6.52,16.37-6.15,4-9.94,10.13-12.09,17.17-1,3.22-.32,4.24,3.09,4.41a31.48,31.48,0,0,0,17.6-4.09c4.37-2.52,8.68-5.16,13-7.77,2.24-1.35,3.94-.74,4.19,1.82a7.87,7.87,0,0,1-.78,4.31c-1.74,3.23-2,6.37-.18,9.56,1.67,3,1.26,5.25-1.93,6.79-3.07-.16-6.15-.55-9.21-.41-1.89.09-3.74,1-5.61,1.51-1.37-1.15-2.58-2.64-4.15-3.36-3.94-1.82-8.05-3.3-12.1-4.88-5.07-2-7-5-4.81-10,3.87-8.95,8.29-17.67,12.86-26.3,1.84-3.47,2-4.34-2.36-7.86-1.14-3-2.85-5.69-2.34-9.39.47-3.37-1-7-.85-10.43.14-3.13-.47-6.66,2.27-9.27,3.07-2.92,2.29-5.93-1.76-7.15-5.86-1.76-11.68-3.63-17.54-5.36-1.79-.53-3.67-.76-5.5-1.12.19,1.9.53,3.8.53,5.7a23.5,23.5,0,0,1-.7,4.09l-.36-1.08c-.11-.46-.22-.92-.34-1.38q-1.62-4.65-3.25-9.29c4.09.32,8.29.18,12.25,1.06a87.43,87.43,0,0,0,28.8,1.44c-2.51,4-5.08,7.87-7.45,11.9-.47.8-.16,2.07-.21,3.12a13.19,13.19,0,0,0,3.18-.41,21,21,0,0,0,4.51-2.27,17.73,17.73,0,0,0,3-3,24.4,24.4,0,0,0,3.65-4.66,28.42,28.42,0,0,0,2.49-7.54C257.49,355.21,255.09,354.28,253.84,353.56Z"/><path class="cls-2" d="M474.92,395l-17-8.28-2.41,2.06c-.56-.65-1.3-1.13-1.51-1.79a20.68,20.68,0,0,0-7.09-10c-2.56-2.05-2.34-4.11-.06-6.43.78-.8.75-2.45,1-3.74.08-.51-.35-1.1-.27-1.61.71-4.72,8.41-12.14,13.41-13,4.47-.76,6.62-3.39,6.21-7.59-.36-3.76-3.48-5.32-6.32-2.87-2.28,2-3.57,1.3-4.38-1-1.22-3.46-1.91-7.11-3.23-10.51-.84-2.17-2-5-3.76-5.89-4.43-2.24-9.34-3.56-14.05-5.25l-.95.85a54.3,54.3,0,0,0,2,5.07c1.32,2.63.92,3.85-2,4.33a12.74,12.74,0,0,1-5.49.08c-1.36-.4-3.08-1.79-3.38-3.05-.69-2.82-2-3.27-4.15-1.91-2.41,1.54-3.66,1-5.24-1.36-2.62-3.91-5.78-7.44-8.7-11.14a3.52,3.52,0,0,1-.78-1.14c-.6-2.11-2-4.47-1.46-6.31.72-2.68,3.63-1.63,5.75-1.49,1,.07,2,.31,3.07.47-.28.34-.5.91-.85,1-3.8,1.08-3.18,3.45-1,5.21,3.12,2.55,6.47,5.28,10.19,6.5,3.08,1,6.83-.06,10.29-.21,6.93,1.47,13.91,2.72,20.78,4.46,5.53,1.4,10.91,3.37,16.36,5.1l-10-1.84c4.36,6.52,10.6,8.43,16.23,5l-5.9-3c3.15,1.3,6.55,2.21,9.32,4.07,1.28.86,2,3.64,1.81,5.39a21.16,21.16,0,0,1-2.77,7.7c-1.65,2.85-2.45,5.64-1.7,8.84-1-2.31-2.3-3.53-4.43-1a10.7,10.7,0,0,1-10.73,4.08,3.55,3.55,0,0,0-3,1.68c-1.16,4.22-2.69,8.55-2.64,12.82a28.39,28.39,0,0,0,3.11,12.42,9.85,9.85,0,0,0,11.61,5.18,3.6,3.6,0,0,1,1.38.08c2,.36,3,1.13,2.25,3.56C474,391.88,474.72,393.54,474.92,395Z"/><path class="cls-2" d="M465.92,424.14c.39-1.4.81-2.78,1.14-4.19a35.53,35.53,0,0,0,1.39-6.89c.07-2.28.65-3.85,2.89-4.41,3.71-.91,7.46-1.69,11.19-2.52l-.47,1.2L478,415c1.21,2.43,2.43,4.87,3.64,7.31-.19.75-.71,1.63-.49,2.24,2.12,6,4.38,11.88,6.6,17.8-2.34,4.22-6.27,6.27-10.62,7.68-10.83,3.52-21.73,6.72-33.22,7.22l7.5-1.34-.08-1.27h-12a38.59,38.59,0,0,0,1.43-3.68c.88-3.43,1.66-6.88,2.52-10.31.41-1.6.91-3.18,1.37-4.78l4,1.93c1.45.7,2.66,2.27,4.44.14s3.6-4.36,5.93-5.3c6.23-2.52,9.72-7.76,14-12.24l-.57-.78Z"/><path class="cls-3" d="M237.57,467.33c1.21-3.09,1.76-6.63,5.4-8.1l5.14-1.81c1,.09,2,.1,3,.28,2.49.43,5.56-.12,6.12,3.72.05.35,2.06.92,2.78.58,3.13-1.49,5.7-.84,8.36,1.16a8.49,8.49,0,0,0,9.6,1c3.63-1.68,7.92-2,11.91-2.86l2.67,2.31,1.3,1.3c.9,1.73,1.79,3.46,2.69,5.18-1.29,3.5-2.89,6.93-3.78,10.53-1,4.18-3.91,5.28-7.54,5.93-2.37.42-4.66,1.25-7,1.9-.9.14-1.8.31-2.7.43-7.12,1-14.22,2.35-21.38.32,2-.22,4-.59,6-.63,3.91-.09,7.88.34,11.25-2.31,1.72-1.34,1.95-2.72.3-4.33-2.55-2.48-5.41-3.88-9.08-3.14-1.47.3-3,.33-5,.53.87-1.79,1.39-2.88,2-4.18-7.53-3-15-4.69-22.91-3.29C237,470.32,237.29,468.83,237.57,467.33Z"/><path class="cls-1" d="M292.57,463.57l-2.66-2.3a27.08,27.08,0,0,0-1.89-3c-1.28-1.62-2.84-3-4-4.73-1.77-2.55-3-5.42-1-8.33,2.42-3.43,6-4.21,10.19-2.6,5.63,2.17,8.09,6.08,8.59,12.13a27,27,0,0,0,2.69,8.79c.44.93,2.51,1.1,3.84,1.62l3.56-.42a20.33,20.33,0,0,0,4,0c6.58-1.3,13.73,2.82,16.16,9a18.85,18.85,0,0,0,4.43,6.81c1.87,1.75,4.59,2.58,7.48,4.11-1.85.64-3.66,1.68-5.53,1.82-4.35.32-8.74.21-13.11.27l-3.25-.3-10.23-3.75-4.18.08q-5.53-6.31-11.09-12.62l-2.68-5.18Z"/><path class="cls-1" d="M432.71,316.06c-3.46.15-7.21,1.22-10.29.21-3.72-1.22-7.07-3.95-10.19-6.5-2.15-1.76-2.77-4.13,1-5.21.35-.1.57-.67.85-1l1.19-.22,1.47-1.27c.19-.29.37-.59.56-.89,5.52-3.34,9-8.49,12-13.94,4.28-7.75,8.52-15.54,12.4-23.5,1.69-3.47,2.44-7.39,3.57-11.13.32-1.08.19-2.63,2-1.35l.77,1.29c.12.42.23.85.35,1.28,2.9,8.22,2.33,16.49-.68,24.39-3.18,8.37-7.39,16.34-10.83,24.63C435.15,307.09,434.09,311.65,432.71,316.06Z"/><path class="cls-1" d="M369.73,278.87c1.37,2.77,2.55,5.65,4.16,8.27,2.17,3.55,1.78,5-1.78,7.19A20.69,20.69,0,0,1,359,297.69a5.35,5.35,0,0,0-2.07.17c-7,2.2-11.59-1.82-16.16-6-1.44-1.34-2.91-2.64-5.23-4.72-1.94,6-3.51,10.77-5.16,15.84-.84-.71-1.3-.92-1.3-1.13,0-5.72.14-11.44.05-17.15-.07-4.36-.43-8.72-.68-13.08-.09-1.7-.22-3.41-.33-5.12,2.49,2.87,5.07,5.68,7.45,8.64,3.56,4.43,7.13,5.14,11.95,2.19,2.07-1.26,4.26-2.34,6.23-3.74,3.27-2.32,5.92-1.33,8.77.89A70.49,70.49,0,0,0,369.73,278.87Z"/><path class="cls-1" d="M474.92,395c-.2-1.5-.9-3.16-.48-4.46.77-2.43-.21-3.2-2.25-3.56a3.6,3.6,0,0,0-1.38-.08,9.85,9.85,0,0,1-11.61-5.18,28.39,28.39,0,0,1-3.11-12.42c0-4.27,1.48-8.6,2.64-12.82a3.55,3.55,0,0,1,3-1.68,10.7,10.7,0,0,0,10.73-4.08c2.13-2.55,3.4-1.33,4.43,1,.13.33.26.66.38,1l0,.24.23.09c.28.67.57,1.33.85,2,0,.08-.13.2-.11.24a3.17,3.17,0,0,0,.34.39c3.78,6.33,2.51,12.81.91,19.45a24.63,24.63,0,0,0-.42,9.74c1,5.74,2.82,11.34,4.29,17Z"/><path class="cls-2" d="M373.51,471.42c2.26-2.85,8.91-4.38,11.85-2.38.75.51,1.11,2.73.64,3.66-1.54,3.06-3.72,5.81-5.28,8.88-.53,1-.25,3.72.17,3.83,3.15.89,6.54,2,9.63,1.6a32,32,0,0,1,5-.66c2.16,0,4.36-.94,6.5-1.61,3.28-1,6.07-4.14,10-2.24l-1.31,4.07c-4.09,4.31-3.67,17.7,1.15,22.18a109.37,109.37,0,0,0,12.49,9.62c3.19,2.2,6.72,3.91,10.1,5.84l-3.94-.51L426.81,522c-9.09-4.38-18.32-8.49-27.22-13.23-4.93-2.63-9.27-6.34-14-9.44A15.59,15.59,0,0,0,382,498a30.41,30.41,0,0,0-1,3.46,26,26,0,0,0-.21,3.42,50.2,50.2,0,0,0-.62-6.16c-.77-3.55-1.34-7.28-2.89-10.51a9,9,0,0,1-.06-8.49,30.64,30.64,0,0,0,2.24-6.13c.7-3.07-.27-3.85-3.26-3Z"/><path class="cls-2" d="M422.61,449.92c.66-.45,1.58-.74,1.95-1.35a21.49,21.49,0,0,1,9.91-8.81c1.32-.6,3.87-1.56,2.34-4.12-1.43-2.38-4.82-3.51-6.87-2.42-.87.46-1.7,1-3.53,2.1.44-5.57-.87-10.29,2.06-14.72.61-.93.32-2.4.64-3.57.28-1,.62-2.52,1.3-2.77a55.6,55.6,0,0,1,8.35-2.25c2.79-.55,3.88,1,3.46,3.6-.21,1.36-.83,2.65-1,4-.3,2-.48,4.07-.58,6.11-.1,2.24,0,4.49-.05,6.74s-.71,4.48-.34,6.59c.72,4.1-.06,6.93-3.93,8-7.31,2-12.13,6.73-16,12.77-.5.76-1.07,2.34-.75,2.64,2,1.91,4.29,3.58,6.48,5.32,4.09,5,8.69,9.67,12.11,15.09a26.25,26.25,0,0,1,3.84,12.33c.24,5.54-1.08,11.15-1.73,16.74.05-1.14.06-2.28.14-3.41.33-4.37.86-8.74.94-13.11,0-2-.78-4-1.21-6l-1.21.18V504.1a17.61,17.61,0,0,1-1.34-3.38c-.83-4.43-1.44-8.89-4.82-12.37-4.08-4.19-8-8.56-12.1-12.73-.83-.84-2.21-1.13-3.33-1.67l-.08-.09-1.33-1.3-.08-.09c-.36-.58-1-1.64-1-1.66,3.68-2.52-.73-6.08,1.2-8.92s3.3-5.72,4.9-8.61a5.56,5.56,0,0,0,.34-1.32,2.11,2.11,0,0,0,.14-.49l1.05-1.05C422.47,450.25,422.54,450.08,422.61,449.92Z"/><path class="cls-3" d="M417.27,474c1.12.54,2.5.83,3.33,1.67,4.11,4.17,8,8.54,12.1,12.73,3.38,3.48,4,7.94,4.82,12.37a17.61,17.61,0,0,0,1.34,3.38c-.11,2.48-.22,4.95-.32,7.43-.29,2.5-.66,5-.78,7.5,0,.51.87,1.07,1.35,1.6.1,3.37-1.76,4.17-4.68,3.58-3.38-1.93-6.91-3.64-10.1-5.84a109.37,109.37,0,0,1-12.49-9.62c-4.82-4.48-5.24-17.87-1.15-22.18-.19,2.87-.49,5.75-.54,8.62-.07,4.89.77,5.81,5.7,5.12,3-.41,5.84-1.95,8.83-2.58,2.21-.47,3.14-1.47,3.35-3.65a14.63,14.63,0,0,0-4.59-12.85A84.67,84.67,0,0,1,417.27,474Z"/><path class="cls-3" d="M211.1,367.83a23.5,23.5,0,0,0,.7-4.09c0-1.9-.34-3.8-.53-5.7,1.83.36,3.71.59,5.5,1.12,5.86,1.73,11.68,3.6,17.54,5.36,4.05,1.22,4.83,4.23,1.76,7.15-2.74,2.61-2.13,6.14-2.27,9.27-.16,3.46,1.32,7.06.85,10.43-.51,3.7,1.2,6.37,2.34,9.39-3.77-2.94-8.11-5.38-11.16-8.93-4.92-5.74-9.1-12.13-13.33-18.43C211.49,371.9,211.54,369.7,211.1,367.83Z"/><path class="cls-2" d="M325.31,486.65c4.37-.06,8.76.05,13.11-.27,1.87-.14,3.68-1.18,5.53-1.82-2.89-1.53-5.61-2.36-7.48-4.11a18.85,18.85,0,0,1-4.43-6.81c-2.43-6.17-9.58-10.29-16.16-9a20.33,20.33,0,0,1-4,0c4.53-2,9.08-4,13.58-6,1.8-.82,3.12-1.22,4.09,1.24.28.72,2.44,1.41,3.31,1.06a95.44,95.44,0,0,0,8.71-4.55c.55,1.68,1,3.49,1.73,5.22.91,2.28,2,4.51,3,6.76l.05.11c1.57,3.63,2.62,7.66,4.94,10.72,1,1.33,5,1.5,7,.73,3.48-1.3,6.5-3.82,9.76-5.73,1.65-1,3.43-1.7,5.14-2.53-4.13,3.38-8.24,6.78-12.4,10.11a4.3,4.3,0,0,1-2,.6c-4.95.8-4.93.79-4.5,5.85.12,1.48,0,3,.06,4.45-.3-1.45-.65-2.9-.88-4.36-.59-3.82-2.28-5-6-3.83-1.43.42-2.78,1.13-4.21,1.6A31.12,31.12,0,0,1,325.31,486.65Z"/><path class="cls-1" d="M426,467.77c-2.19-1.74-4.46-3.41-6.48-5.32-.32-.3.25-1.88.75-2.64,3.9-6,8.72-10.79,16-12.77,3.87-1.05,4.65-3.88,3.93-8-.37-2.11.2-4.39.34-6.59a8.41,8.41,0,0,1,2.67.59c5.4,3.23,10,1,14.43-2.07,2.27-1.57,4.29-3.5,6.41-5.27l1.57-1.26c.1-.1.2-.21.29-.32l6.52-4.52.57.78c-4.29,4.48-7.78,9.72-14,12.24-2.33.94-4.24,3.26-5.93,5.3s-3,.56-4.44-.14l-4-1.93c-.46,1.6-1,3.18-1.37,4.78-.86,3.43-1.64,6.88-2.52,10.31a38.59,38.59,0,0,1-1.43,3.68h12l.08,1.27-7.5,1.34-8.43.31h-.08c-2.84,1.59-6,2.85-8.38,4.92C425.94,463.39,426.28,466,426,467.77Z"/><path class="cls-1" d="M254.17,489.16c7.16,2,14.26.65,21.38-.32.9-.12,1.8-.29,2.69-.43a11.56,11.56,0,0,1-2.82,1.88c-2.69.76-5.46,1.24-8.2,1.84l-3.09.36a74.82,74.82,0,0,1-29.8-6.58,13,13,0,0,0-3.36-.55l-.76-.76c.5-1.69,1-3.39,1.51-5.09.18-.95.35-1.9.52-2.85v-.07l5.32-9.26c-.28,1.5-.55,3-.82,4.47.55.51,1,1.36,1.66,1.49a34.64,34.64,0,0,0,5.82.78,5.29,5.29,0,0,1,5.28,4.16c.21,1-2.14,2.53-3.38,3.77a5.63,5.63,0,0,1-1.22.64c-2.37,1.37-2.52,3.19,0,4.19C247.86,488,251.08,488.41,254.17,489.16Z"/><path class="cls-1" d="M279.76,311.87c4.06-3.45,3.58-8.11,3.75-13,2.12,3,4.27,6,6.32,9a1.62,1.62,0,0,1-.4,1.52c-4.65,3.17-5.1,9-8.3,13s-7.44,7.42-11.31,11a2.22,2.22,0,0,1-2.16,0,3.07,3.07,0,0,1-.62-2.48,46.12,46.12,0,0,1,2.8-7.43c1.7-3.36,1.91-6.35-1-9.11a12.77,12.77,0,0,1-1.27-2.05h3.26l2.78,1.34,2,.45Z"/><path class="cls-2" d="M267.22,492.13c2.74-.6,5.51-1.08,8.2-1.84a11.56,11.56,0,0,0,2.82-1.88c2.34-.65,4.63-1.48,7-1.9,3.63-.65,6.51-1.75,7.54-5.93.89-3.6,2.49-7,3.78-10.53l11.09,12.63c-10.3,2.77-20.57,5.65-30.91,8.26C273.66,491.72,270.4,491.75,267.22,492.13Z"/><path class="cls-1" d="M423.27,216.46c-4.18,2.74-8.8,5-12.43,8.34-4.94,4.56-9.11,10-13.65,15-2.67,2.93-5.35,5.84-8.16,8.63a14,14,0,0,1-3.24,1.84l-.61-.69,2.28-5.5a1.18,1.18,0,0,1,.19-.37l4.29-5.31c4.93-4.47,9.48-9.46,14.88-13.26C411.84,221.56,417.75,219.29,423.27,216.46Z"/><path class="cls-1" d="M315.63,252.78l3.84,5.51a5.2,5.2,0,0,1-1.54-.31c-4.41-2.63-8.66-5.55-13.21-7.89-5.25-2.7-10.77-4.89-16.15-7.31,3.81-.84,10.16.41,16.15,3.53C308.46,248.26,312,250.61,315.63,252.78Z"/><path class="cls-1" d="M248.11,457.42,243,459.23a.33.33,0,0,0,.24-.29l.23-.05v-.24a.94.94,0,0,0,.41-.47l.21,0,0-.22,3.52-4.75c1.87-.53,3.72-1.42,5.61-1.51,3.06-.14,6.14.25,9.21.41l9.12-1.58c-5,4-10.84,4.73-17,4.05C251.77,454.24,249.56,454.93,248.11,457.42Z"/><path class="cls-2" d="M358.75,554.84c.44,4.7,1.2,9.4,1.25,14.1.14,12,0,24-.13,36.06a42.78,42.78,0,0,1-.67,5.14c0-7.72.14-15.44,0-23.16-.12-9.22-.44-18.44-.65-27.67C358.56,557.82,358.69,556.33,358.75,554.84Z"/><path class="cls-1" d="M487.74,442.35c-2.22-5.92-4.48-11.84-6.6-17.8-.22-.61.3-1.49.49-2.24,1.8,4.09,3.59,8.18,5.42,12.26a28.07,28.07,0,0,0,2,4C490.33,440.52,490.12,441.76,487.74,442.35Z"/><path class="cls-1" d="M470.23,325.74l5.9,3c-5.63,3.43-11.87,1.52-16.23-5l10,1.84A.81.81,0,0,1,470.23,325.74Z"/><path class="cls-2" d="M358.63,625c0,3.53.09,7.07-.11,10.59-.57,9.64-1.25,19.28-1.93,28.92a15.47,15.47,0,0,1-.66,2.62,28.48,28.48,0,0,1-.26-3.78c.81-12.11,1.68-24.22,2.54-36.34A16,16,0,0,1,358.63,625Z"/><path class="cls-2" d="M231,485.36a13,13,0,0,1,3.36.55,74.82,74.82,0,0,0,29.8,6.58c-6.36-.6-12.81-.71-19-2C240.24,489.54,235.67,487.13,231,485.36Z"/><path class="cls-1" d="M438.54,511.53c.1-2.48.21-4.95.32-7.43V489.63l1.21-.18c.43,2,1.25,4,1.21,6-.08,4.37-.61,8.74-.94,13.11-.08,1.13-.09,2.27-.14,3.41l-.21,1C439.5,512.45,439,512,438.54,511.53Z"/><path class="cls-2" d="M355.93,510.4q.61,9.55,1.24,19.1Q356.55,519.94,355.93,510.4Z"/><path class="cls-2" d="M438.54,511.53c.48.46,1,.92,1.45,1.37q-.45,3.87-.88,7.73c-.48-.53-1.38-1.09-1.35-1.6C437.88,516.53,438.25,514,438.54,511.53Z"/><path class="cls-2" d="M357.45,534.14l1.11,15.62Z"/><path class="cls-2" d="M355.76,669.05q-.58,7.28-1.18,14.56Q355.17,676.32,355.76,669.05Z"/><path class="cls-2" d="M354.68,496.6l1.08,12.24Z"/><path class="cls-2" d="M311.83,482.6l10.23,3.75Z"/><path class="cls-3" d="M478,415l4.07-7.67C480.7,409.88,479.35,412.44,478,415Z"/><path class="cls-2" d="M383.29,543.39q-.41-7.74-.83-15.46Q382.88,535.67,383.29,543.39Z"/><path class="cls-2" d="M359.11,613.09l-.36,8.73Z"/><path class="cls-2" d="M382.15,524.38q-.33-5-.65-10Q381.81,519.41,382.15,524.38Z"/><path class="cls-2" d="M391.94,238.36l-4.29,5.31Z"/><path class="cls-2" d="M231.72,479.51c-.5,1.7-1,3.4-1.51,5.09C230.71,482.9,231.22,481.21,231.72,479.51Z"/><path class="cls-3" d="M186.72,337.14q.61,2.53,1.24,5.06C187.55,340.51,187.14,338.83,186.72,337.14Z"/><path class="cls-3" d="M426.81,522l3.68,1.72Z"/><path class="cls-2" d="M275.63,314.12l-2-.45Z"/><path class="cls-2" d="M381.24,511.91a4.07,4.07,0,0,1-.13-.5c0-.08.07-.16.11-.24C381.23,511.42,381.24,511.67,381.24,511.91Z"/><polygon class="cls-1" points="285.85 244.43 285.78 244.41 285.9 244.47 285.92 244.33 285.85 244.43"/><path class="cls-3" d="M210.4,365.37c.12.46.23.92.34,1.38C210.63,366.29,210.52,365.83,210.4,365.37Z"/><path class="cls-2" d="M448.43,253.82c-.12-.43-.23-.86-.35-1.28Z"/><path class="cls-2" d="M478.53,355.69a3.17,3.17,0,0,1-.34-.39s.07-.16.11-.24a2.28,2.28,0,0,1,.32.39C478.65,355.5,478.57,355.61,478.53,355.69Z"/><polygon class="cls-2" points="477.45 353.06 477.22 352.97 477.27 352.73 477.52 352.81 477.45 353.06"/><polygon class="cls-3" points="243.43 458.65 243.44 458.89 243.21 458.94 243.23 458.72 243.43 458.65"/><path class="cls-2" d="M435.39,457.55h0Z"/><polygon class="cls-3" points="244.03 457.92 244.06 458.14 243.84 458.18 243.86 457.99 244.03 457.92"/><path class="cls-2" d="M232.25,476.59v0Z"/><path class="cls-3" d="M189.15,343.08l.77.47Z"/><path class="cls-2" d="M373.22,398.12c.86-1.64,1.71-3.28,2.57-4.91l.94,0c.7,2.07,1.41,4.14,2.11,6.2-1.91,2-3.32,4.14-6.14,5.57-3.42,1.75-5,5.87-5.07,10.15a8.88,8.88,0,0,0,3.24-2.3c1-1.09,1.91-3.3,2.82-3.29,4.26.1,6.23-2.68,8.24-5.6.58-.86,1.09-1.77,1.63-2.66a8.47,8.47,0,0,1,0-2.36,19.75,19.75,0,0,1,1.3-2.95c.93.43,1.86.87,2.8,1.29s1.62.69,2.42,1c2.25,1.3,3.52,1.38,3.39-1.95-.07-2.05.79-4.14,1.23-6.22l5.83-.73c-.28,1.45-.55,2.9-.82,4.35-3.13-.85-3.29,1.4-3.6,3.47v1c.86,3.12,3.88,2,5.83,3-.6.69-1.57,1.33-1.69,2.09-.17,1.12-.11,2.78.58,3.39a3.38,3.38,0,0,0,3.33,0,44.07,44.07,0,0,0,4.27-5.63c.58.6,1.66,1.2,1.66,1.79,0,2.73-.46,5.46-.54,8.2-.06,2.4-1,4.47-3.36,4.47-4.27,0-6.57,2.19-8.13,5.73-.32.73-.61,1.47-1.08,2.6-2.53-4.47-1.9-7.33.63-9.72.9-.85,1.7-2.7,1.37-3.72a8.56,8.56,0,0,0-3.19-3.7c-.26-.19-2.57,1.28-2.65,2.11-.43,4.48-1,8.52-5.59,11.11-1.53.86-1.81,3.84-2.79,5.77-.64,1.27-1,3.56-3.27,1.52.69-1.43,1.49-2.82,2.05-4.3,1.11-3,1.4-6.44,5.32-7.42.38-.1.74-.85.86-1.35.55-2.42,1.12-4.84,1.48-7.29a7.77,7.77,0,0,0-.61-2.61,12.29,12.29,0,0,0-3.48,1.34c-.52.41-.44,1.73-.45,2.63,0,2.26-.71,3.37-3.32,3.08-1.08-.12-3,.76-3.35,1.64-1.44,3.81-2.43,7.8-3.59,11.72l-11.83,1.48c1.6-4.69,5.6-3.24,9.25-3-.79-3.47-2.81-4.62-5.59-4.56-2.56.05-6.06,4-6.75,7.64h3c-2.61,3-5.18,6-7.91,8.86-.35.37-1.9.17-2.41-.3-2.46-2.25-4.77-2.2-7.47-.34-1.05.72-2.68.54-4,.93-4.28,1.25-7.9,3.49-6.74,8.35.57,2.39-.31,3.24-3,3a34.24,34.24,0,0,0-8.24.63c-2.82.45-4.23-.88-4.76-3.31s-2.17-5.43,1.58-6.79c3-1.1,6.14-1.79,9.2-2.71a7.24,7.24,0,0,0,2.81-1.11q5.49-5,10.76-10.26c.63-.62.76-1.74,1.12-2.63a8.81,8.81,0,0,0-2.74-1,23.43,23.43,0,0,0-4.45.65c-5.82,1.12-6.13,1.53-6.12,7.31,0,1.09-.24,2.17-.45,4l-18.58-7.1C314.94,421,326,417,330.9,418.34c-2.4-5.4-7.61-6.43-11.59-9.43.16-.28.39-.72.64-1.14s.48-.75.82-1.27l-2.38-2.28c1.81-1.83,6.32-3.1,3-6.29-1.52-1.47-5.16-.76-8.92-1.15a14.24,14.24,0,0,1-2.53-8.71c.06-2,.66-2.81,2.65-2.43a14.4,14.4,0,0,0,2.75.36c1.81,0,4.22,1,4.32-2.28.1-3.57-1.35-5.29-4.53-4.72a74.08,74.08,0,0,0-7.83,2.38c-.72.21-1.71.51-2.21.19a2.13,2.13,0,0,1-.53-2c1.94-3.34.84-6.47-.35-9.67a5.33,5.33,0,0,1,.09-3.75c2,1.54,4,3.2,6.09,4.55a18,18,0,0,0,4,1.41c.28-1.29.61-2.58.83-3.89.71-4.07,1.21-8.19,2.17-12.2a5.05,5.05,0,0,1,2.8-3.21c3.46-1,3.89-3.42,3.87-6.42,0-1.18-.63-3.33,2-2.7-.61,4.57-1.21,9.14-1.82,13.82,3.48.32,4.55-.89,4-3.77-.44-2.47-.68-5-1-7.47,4.44.86,7.22-1.74,9.82-4.72,3.07-.12,6.2-.13,7.25-4q3.72,6.21,8.85.77c3,1,3.57,3.28,1.76,5.34-2.42,2.75-2.95,5.09-.61,8,.53.67.47,1.78.87,2.6.28.57.95,1.47,1.31,1.41,2.56-.44,3.38,1.26,4.35,3.06,1.25,2.3,2.75,2.39,4.62.41,1.61-1.71,2.15-3.13.28-5a8.43,8.43,0,0,1-1.79-2.94c-.73-2-1.42-3.6-4.1-3.26-.56.08-1.81-1.35-1.91-2.18-.42-3.42,2.95-8.21,6.31-9,.63-.14,1.86.87,2.27,1.63.8,1.51,1.08,3.29,1.82,4.84,1.23,2.61,3.12,3.62,5.84,1.87,1.82-1.18,3.67-2.31,5.51-3.46-2.14,2.72-1.31,5.31.78,7.41,3.73,3.74,3.85,7.95,1.84,12.33-.57,1.24-2.39,1.92-3.64,2.85-.1-1.75-.19-3.5-.3-5.44a1,1,0,0,1,.29-.3c1.54-1,2.87-2.15,1.52-4.22-1.48-2.28-2.48-5.22-6-5-.58,0-1.59,1-1.57,1.46.2,4.93,1.19,9.66,4,13.82,2.6,4,2.61,7.82,0,12a15.12,15.12,0,0,0-2.17,11.88c.15.65-.42,1.47-.66,2.21l-2.22,6.85c-4,.51-3.12,4.42-5.54,6.69C370,404.07,372.43,401.68,373.22,398.12Zm-5.91-12.91c-2.81-1.11-5.59-2.29-8.45-3.26-.39-.13-1.5.67-1.61,1.19s.5,1.33,1,1.8a26.25,26.25,0,0,0,2.58,1.93,5,5,0,0,1-1.38.06c-1.29-.35-3.17-.42-3.68-1.28a5,5,0,0,1-.31-4.39c.5-.82,2.81-1.11,4.1-.77,2.87.73,5.58,2.08,8.4,3a3.15,3.15,0,0,0,2.54-.14c.41-.35.05-1.61,0-2.46v-6c-1.63-1.51-3.42-3-5-4.65-1.87-2-3.52-4.22-5.32-6.3-1.31-1.52-2.66-3-4.1-4.42-1.11-1.07-2.43-2.83-3.59-2.79-5.78.21-9.88-2.11-13-7.91-.53,3.11-1.06,5.44-1.22,7.79,0,.58,1.1,1.32,1.8,1.84,1.59,1.17,3.24,2.25,5.24,3.62-1.13.87-1.37,1.19-1.68,1.28-3.54,1-5.13,2.75-3.43,6.59.33.73-.54,2.47-1.36,3.16-4.62,3.91-6.06,10.17-3,16.79.79-1.63,1.68-2.69,1.74-3.78.09-1.81-.81-3.74-.46-5.45s1.74-3.07,2.67-4.6a21.16,21.16,0,0,1,3.12,3c.63.9.46,2.34,1.08,3.25,1,1.47,2.06,3.31,3.54,3.91,2.55,1,5.05,1.34,3,5.06-.41.76.27,2.22.65,3.28,1.79,5,1.64,5.7-2.63,8.54-.83.55-2.05.51-3.08.74-.08-1-.48-2.05-.18-2.87,1.1-3-.55-4.68-3-5.16-2.05-.41-4.33.27-7.4.55,2.44,2.09,4.74,3.16,5.22,4.77.33,1.14-1.78,3-2.67,4.36l7.45,3.88c2.45-1,4.76-2.36,7.23-2.89,1-.22,2.66,1.08,3.51,2.1.4.48-.2,2-.67,2.95s-1.49,1.5-2,2.39a13.72,13.72,0,0,0-.8,3,11.35,11.35,0,0,0,3-.77c2.65-1.53,5.2-3.24,8.53-5.34.18-1.35-1.56-1.82-3.4-2.82-1.4-.76-2.28-2.86-2.84-4.55-.13-.38,1.92-1.59,3.05-2.29s2.49-1.33,3.74-2v-1.17l-5.81-2.26a18.52,18.52,0,0,1,2.6-1.66c1.61-.64,3.62-.72,4.84-1.77a11.23,11.23,0,0,0,2.79-4.75C369.1,387.08,367.88,386,367.31,385.21Zm-11.6,43.33,1.47.11c1.14-2.07,2.44-4.09,3.37-6.26a4.48,4.48,0,0,0,.06-3.48c-.35-.62-2.2-1-3-.61-1.38.58-3.52,1.82-3.51,2.77C354.09,423.57,355.1,426.05,355.71,428.54ZM334,417.94c4.76.46,8.69-3.52,13.41-1.09.46-4.13-1.51-6-4.83-4.38C339.57,414,336.87,416.09,334,417.94Zm-3.09-6.69c.19-.45.38-.9.56-1.35-2-2.39-4.71-1.7-7.6-.46ZM326,398.81c4.7-2.1,6.12-5.29,4.06-8.12C328.83,393.22,327.64,395.59,326,398.81Zm8.62-35.22c.35,2.7.64,4.91.93,7.12.61-.11,1.77-.29,1.76-.32-.27-2.12-.64-4.24-1-6.35A11.9,11.9,0,0,0,334.65,363.59Z"/><path d="M284.26,387.34A13.8,13.8,0,0,1,285.6,385c.69-.78,1.67-2,2.36-1.91a3.23,3.23,0,0,1,2.18,2.2,7.75,7.75,0,0,1-.75,4.25c-1.3,2.66-2.94,5.15-4.91,8.5,6.61-.07,9.73,3.69,13,9.38-4.09,0-7.25,0-10.41,0-4.33,0-4.94.78-4.9,5.1a80.27,80.27,0,0,1-.35,8.21,6.55,6.55,0,0,0,6.82,7.3,11.69,11.69,0,0,1,4.85,1.2c.83.4,1.22,1.71,1.81,2.6-.94.59-1.84,1.57-2.83,1.67a75.61,75.61,0,0,1-8,.24c-5.33,0-5.7.28-7.54,5.26-.7,1.88-1,5-3.65,4-2-.74-3.75-3.25-4.58-5.37s.13-4.65-.37-6.85a33.91,33.91,0,0,0-3.05-7.52c-.16-.33-2.23-.27-2.75.26a57.47,57.47,0,0,0-3.48,4.72c-2.7,3.41-5.3,3.22-7.7-.33a16.79,16.79,0,0,0-3-3.21c-2.65-2.25-2.67-4.9.57-6.21s7-1.79,10.56-2.69c1.35-.35,2.66-.88,4-1.33-.88-1-1.73-2-2.67-2.87-.71-.69-1.52-1.25-2.29-1.87l.33-1.1c1.15.2,2.33.3,3.45.6,4,1.09,7.92,2.41,11.95,3.25.9.19,2.72-1,3.09-1.94a90.09,90.09,0,0,0,2.55-8.92l1-1.18c.37-.76.75-1.51,1.12-2.26l.29-1.89c2-1.94,3.11-4.12,1.86-6.93C284.12,388.71,284.19,388,284.26,387.34Z"/><path class="cls-2" d="M248.11,457.42c1.45-2.49,3.66-3.18,6.42-2.88,6.12.68,11.94-.06,17-4.05l0,0,.95-.95.87-.81.16-.13c1.59-1.07,3.21-2.11,4.76-3.23A10.23,10.23,0,0,0,281,443c3-4.5,6.92-6.93,12.4-6.68a48.58,48.58,0,0,0,5.53,0c3.1-.21,3.94,1.39,5.53,4,4.75,7.92,3.61,16.34,3.87,24.71-1.33-.52-3.4-.69-3.84-1.62a27,27,0,0,1-2.69-8.79c-.5-6.05-3-10-8.59-12.13-4.16-1.61-7.77-.83-10.19,2.6-2.06,2.91-.79,5.78,1,8.33,1.17,1.69,2.73,3.11,4,4.73a27.08,27.08,0,0,1,1.89,3c-4,.89-8.29,1.17-11.92,2.85a8.49,8.49,0,0,1-9.6-1c-2.66-2-5.23-2.65-8.36-1.16-.72.34-2.73-.23-2.78-.58-.56-3.84-3.63-3.29-6.12-3.72C250.14,457.52,249.11,457.51,248.11,457.42Z"/><path d="M321.84,289.46c-1,6.11-3.78,10.6-8.36,13.7-4,2.69-6.41,5.47-6.58,10.78-.15,4.28-2.17,8.61-3.86,12.71-1.29,3.13-1.64,5.75.25,8.81,2.07,3.36-2.58,11.45-6.53,11.83-2.18.21-5.29-3.76-4-5.68,3.23-5,1.72-10.8,3.47-16,1.19-3.58,1.5-7.44,2.36-11.14,1.09-4.65.6-6.16-3.37-9.13-2.18-1.63-2.24-4.71.16-6.08a15.84,15.84,0,0,1,4.91-1.33c3.62-.66,7.3-1,10.87-1.91,1.07-.26,1.84-1.77,2.74-2.71-.88-.77-1.75-1.56-2.66-2.3-1.1-.9-2.23-1.76-3.35-2.64,1-1,2.07-1.93,3.16-2.83a4.5,4.5,0,0,1,1.53-.81c2-.61,4.79-2.23,5.83-1.48C320.12,284.5,320.74,287.3,321.84,289.46Z"/><path d="M417.27,474a84.67,84.67,0,0,0,6.17,7.28A14.63,14.63,0,0,1,428,494.08c-.21,2.18-1.14,3.18-3.35,3.65-3,.63-5.83,2.17-8.83,2.58-4.93.69-5.77-.23-5.7-5.12.05-2.87.35-5.75.54-8.62L412,482.5l2.88-2.9a14.71,14.71,0,0,0-4-.62c-5.11.58-10.19,1.68-15.31,2-4,.26-4.24-1.26-4-5.09.35-6.61,3.7-9.12,9.79-10.39,3.23-.67,6-3.59,9-5.41a18.3,18.3,0,0,1,3-1.12,9.58,9.58,0,0,1,0,3.16c-1,3-2.63,5.25-6.31,5.45-1.65.09-3.24,1.17-4.86,1.8l.15,1.24,13.46,1.85.08.09,1.33,1.3Z"/><path class="cls-1" d="M379.76,341.7c-1.84,1.15-3.69,2.28-5.51,3.46-2.72,1.75-4.61.74-5.84-1.87-.74-1.55-1-3.33-1.82-4.84-.41-.76-1.64-1.77-2.27-1.63-3.36.75-6.73,5.54-6.31,9,.1.83,1.35,2.26,1.91,2.18,2.68-.34,3.37,1.3,4.1,3.26a8.43,8.43,0,0,0,1.79,2.94c1.87,1.86,1.33,3.28-.28,5-1.87,2-3.37,1.89-4.62-.41-1-1.8-1.79-3.5-4.35-3.06-.36.06-1-.84-1.31-1.41-.4-.82-.34-1.93-.87-2.6-2.34-2.93-1.81-5.27.61-8,1.81-2.06,1.29-4.36-1.76-5.34l-.33-2.16c.5-1,1-2,1.51-3,2.21-4.14,2.09-4.56-2.14-7.1l1.38-5.75c3.37-6.09,4.4-6.57,10.7-5l-1.43,3.24-1.71,5.09,7-.28,5.55,1.32-1.16,3.53L371,330.43a1.71,1.71,0,0,0-.3.5c-1.4,1.84-.28,3.19,1.33,3.15,4.87-.1,6.37,3.75,8.69,6.72Z"/><path class="cls-2" d="M377.14,449.25c-1.26.47-3.12,1.63-5,1.75a38.22,38.22,0,0,1-9.31-.58c-4.1-.76-7.06,1.11-10.18,3.19-1,.68-2.58.51-3.88.74,0-1.34-.46-3.12.21-3.93,3-3.61,6.28-7,9.63-10.32a4,4,0,0,1,3.1-.77c4.21.91,7.77-.88,9.17-4.86,2.1-6,5.54-7.23,11-4a51.18,51.18,0,0,1,6.11,3.92c1.76,1.42,2.06,3,0,4.88a17.37,17.37,0,0,0-4.19,6.13C382.63,448.3,381.18,450,377.14,449.25Z"/><path class="cls-2" d="M328.3,323.9c3.17,4.86,8.26,4.68,12.95,4.26,3.22-.29,3.65.68,3.3,3.25-.52.21-1.36.3-1.51.67-1.35,3.21-3.62,3.95-7,3.44-2.51-.39-3.74,1.36-3.59,3.91-.45-.1-1-.05-1.32-.32-4.06-3.9-9.2-2.76-14.05-3.17a60.71,60.71,0,0,1-10.2-1.72c-2.61-.68-3-3.08-1-4.48,5.66-4.12,10.39-10,18.16-10.53,2.37-.16,4.28,0,3.87,3.16a6.73,6.73,0,0,0-3.66,9.53C327.35,330.1,327.44,326.8,328.3,323.9Z"/><path class="cls-2" d="M420.4,393.92c5.19-1.79,7.32-6.19,9.57-10.69A9.4,9.4,0,0,1,434.5,379c.81-.33,2.62,1.86,4,2.91l1.88,1.43.54,1.16a25.44,25.44,0,0,1,.71,3.62c.07,1.07.18,2.72-.42,3.15-3.07,2.22-2.71,5.4-2.82,8.48a10,10,0,0,1,.08,1.72c-.32,1.34-.77,2.64-1.17,3.95-1.2-.77-2.42-1.51-3.6-2.32-.25-.18-.29-.64-.51-.88-1.19-1.27-2.4-2.51-3.6-3.75-.95,1.73-1.93,3.44-2.82,5.2-1.2,2.4-2,5-3.56,7.19s-3.36,1.51-4.56-.75l-4.4-8.26c-2.25-4.2-1.81-5.21,2.86-6.46a10,10,0,0,0,.78,9c1.16,2.05,2.86,2.38,4.17.91a9.39,9.39,0,0,0,2.31-5.31C424.51,397.3,423.73,394.61,420.4,393.92Z"/><path d="M259.29,348.82H258c-5.64-.59-5.65-.59-5.06-6.85a18.07,18.07,0,0,0-5.34-15.34,7.05,7.05,0,0,1-1-2.37,12,12,0,0,1,2.66-.82,30.65,30.65,0,0,1,3.43.21c3.34.11,5.87,1,7.2,4.65.69,1.88,2.73,3.25,4.17,4.85,0,.47-.05.94-.07,1.41l-.3,1.33c0,.71-.11,1.43-.16,2.15-1,2.39.17,3.62,2.33,3.9a22.34,22.34,0,0,0,4.42-.39c1.23-.11,2.47-.16,3.71-.24-.46,1.28-.61,2.83-1.43,3.8-2.93,3.47-3.14,7.61-3.29,11.77-.08,2.26.17,4.53.27,6.8l-1.82.23c-.27-1.38-.86-2.78-.74-4.13.39-4.57-3.05-7.27-5-10.66C261.71,348.65,260.22,348.9,259.29,348.82Z"/><path class="cls-1" d="M373.77,304.93c3.3-3.92,6.11-8.65,12.48-7.29,6.33,2.75,12.08,6.08,15.16,12.82,1,2.16,3.68,3.77.43,6.08l-10.2,5.93-.68-7-.92-.07-1.27,3.87-12-11.35-.09-.15-1.29-1.29-.07-.09L374,305.15Z"/><path d="M457,398.7c-.94,2.35-2,3.85-2.06,5.39-.15,3.52.83,7.19.18,10.57-.82,4.25-2.66,8.34-4.43,12.34-.33.74-2.44.68-3.73,1-.28-1.25-1.07-2.63-.77-3.72a84.07,84.07,0,0,0,2.67-20.15c.19-6.73,3.49-9.87,9.21-9.26,1.12.12,2.4-.56,3.42-.25,2,.62,4.21,1.29,5.71,2.63,1.9,1.71,1.16,5.37-1,7.1s-4.11.69-5.69-1.16C459.53,402.06,458.67,400.86,457,398.7Z"/><path d="M346.28,468.4c.17-8.71,1.31-10.58,10-12.79,2.61-.67,5.76.68,8.61,1.34.31.07.62,1.95.26,2.65-.87,1.73-2.23,3.2-3.2,4.88a48.86,48.86,0,0,0-2.07,4.6l-4.08,4.33c-.49.3-1,.57-1.46.89-3.08,2.09-3.89,1.84-5.45-1.43-.73-1.52-1.72-2.91-2.6-4.36Z"/><path class="cls-2" d="M376.72,307.93l12,11.35,1.27-3.87.92.07.68,7,10.2-5.93c-.85,1.07-1.66,2.17-2.56,3.2-2.55,2.91-2,5.49,1.56,7a31.49,31.49,0,0,1,3.51,1.36c4.3,2.54,4.49,4.39.94,8-1.64-5-12.37-7.22-16.64-3.47-2.14-1.89-4.29-3.76-6.41-5.67-2.32-2.09-2.23-3.27.59-4.33,2.36-.89,2.36-2.48,1.36-4.08-1.67-2.72-3.67-5.25-5.53-7.86C378,309.81,377.36,308.87,376.72,307.93Z"/><path class="cls-2" d="M399.34,454.72a20.65,20.65,0,0,1-3.06,1.83c-.65.25-1.77.38-2.13,0a2.51,2.51,0,0,1-.25-2.17,13.88,13.88,0,0,1,1.56-2.67c2.19-3.51,4.44-7,6.55-10.53,1.28-2.14,2.68-3.18,5.37-2.33,1.9.6,4.1.21,6.06.69,1.41.36,2.65,1.43,4,2.18-.86.92-1.55,2.16-2.61,2.71a5.69,5.69,0,0,0-3.28,5.21,9.64,9.64,0,0,1-6.61,8.86c-2,.76-3.57,1-4.11-1.74C400.65,456.05,399.88,455.45,399.34,454.72Z"/><path class="cls-2" d="M282.2,396.33c-.1.63-.19,1.26-.29,1.89l-1.12,2.26-1,1.18c-2.44,1.76-3.78,1.25-4.62-1.76-.51-1.82-1.91-3.38-2.88-5.07-1.15-2-1.17-3.82.62-5.62,4.18-4.19,4.33-6.54,1-11.35-.9-1.29-1.83-2.56-2.74-3.84l.69-.94c3.91,2.22,7.88,4.36,11.69,6.75.42.27.34,2.18-.14,2.91-1.28,1.95-1.21,3.39.85,4.6-.07.68-.14,1.37-.2,2.06Z"/><path d="M430.39,333.05c.71-.44,1.83-1.67,3-1.77,3.23-.26,5.47-1.08,6-4.81.4-2.63,2.25-2,3.41-.5a83,83,0,0,1,5.66,8.29c2.21,3.76,4.21,7.65,6.19,11.54.36.71.53,2.2.15,2.49a3.46,3.46,0,0,1-2.83.52,9.14,9.14,0,0,1-3.65-2.42c-2.33-2.68-4.44-5.55-6.61-8.37-2.05-2.66-4.79-1.85-7.26-1.2C431.67,337.57,430.47,337,430.39,333.05Z"/><path d="M381.9,454.81c.72-1.81.88-2.79,1.42-3.48,2.66-3.43,5.45-6.77,8.15-10.18.54-.68,1.48-1.71,1.28-2.22-1.13-3,1-3.8,2.83-5.32,1.55-1.27,2.09-3.72,3.29-5.5a12.55,12.55,0,0,1,2.56-2.22A12.65,12.65,0,0,1,403,429a5.16,5.16,0,0,1-.63,3c-3.76,7.23-7.6,14.41-11.4,21.61a19,19,0,0,1-1.21,2.48c-.89,1.23-1.95,2.34-2.93,3.5Z"/><path class="cls-1" d="M388.65,332.68c4.27-3.75,15-1.51,16.64,3.47l-2.07,1.9c-2.64.93-2.84,2.89-2.5,5.32.52,3.81.8,7.66,1.19,11.5-.67.34-1.33.69-2,1-3.17.86-5.27-.93-7.28-2.93l-.6-3.67a13.81,13.81,0,0,1,2.28-3c2.17-1.64,2.56-3.54.95-5.56s-3.59-3.79-5.4-5.67Z"/><path class="cls-2" d="M355.84,473.41l4.08-4.33c2.31-2.37,4.93-4.52,6.84-7.18s3.71-3.14,6.25-1.15c2.3,1.79,4.37,3.32,7.67,1.27,1.22-.76,3.88.69,5.84,1.28a1.55,1.55,0,0,1,.67,1.36c-.3.51-1.05,1.17-1.51,1.1-10.12-1.53-17,4.93-24.62,9.75a6.84,6.84,0,0,1-1.5.86c-1.43.48-2.9.86-4.36,1.28C355.42,476.24,355.63,474.82,355.84,473.41Z"/><path d="M422.61,449.92c-.07.16-.14.33-.22.5l-1.05,1.05a2.11,2.11,0,0,1-.14.49l-4.49,3.29c-1.69-2-1.12-4.06,0-6a15.42,15.42,0,0,1,2-2.39c2.81-3.19,2.65-4.64-.85-7.24-4.4-3.27-4.35-3.24-1.79-8.08.84-1.61,1.19-3.48,2-5.09A2.84,2.84,0,0,1,420.1,425a2.77,2.77,0,0,1,1.82,1.76c1.22,4.31,2.44,8.64,3.25,13,.25,1.4-.79,3-1.19,4.56C423.5,446.18,423.06,448.05,422.61,449.92Z"/><path class="cls-2" d="M288.69,357.85c-.51,3.41-5.55,8.13-8.94,8.28-2.24.09-2.19-1.49-1.58-2.83,1.55-3.44,3.28-6.79,5-10.14,1.26-2.46,2.55-4.91,4-7.26.48-.8,1.45-1.81,2.19-1.8a3.25,3.25,0,0,1,2.2,1.81c2.1,4.7,4,9.47,6.36,15.06l-7.41-3.14,2.52-2.52c-1-1-1.95-2.69-3.07-2.82-1-.12-2.48,1.37-3,2.5C286.64,355.5,288.05,356.87,288.69,357.85Z"/><path class="cls-2" d="M410.05,351.46c-.08-5.7.43-6.38,5.74-7.91a9,9,0,0,0,1.76-1c.87,2.44,1.75,4.87,2.62,7.31-1.75,4.82-3.46,9.66-5.26,14.46-.78,2.08-2.11,2.57-4,1.05-4-3.28-4.29-4.52-1.92-8.86l1.08,5.64,1.22-.2C410.93,358.46,413.15,354.77,410.05,351.46Z"/><path class="cls-2" d="M299.54,426.81c-2.94-3.32-5.9-6.62-8.79-10a11,11,0,0,1-1.57-2.68c-1.62-3.5-.8-4.71,3.13-4.26,10.3,1.19,9.38.67,9.34,10.94a37.37,37.37,0,0,1-.93,5.89Z"/><path class="cls-1" d="M376.41,424.73c1.16-3.92,2.15-7.91,3.59-11.72.34-.88,2.27-1.76,3.35-1.64,2.61.29,3.31-.82,3.32-3.08,0-.9-.07-2.22.45-2.63a12.29,12.29,0,0,1,3.48-1.34,7.77,7.77,0,0,1,.61,2.61c-.36,2.45-.93,4.87-1.48,7.29-.12.5-.48,1.25-.86,1.35-3.92,1-4.21,4.46-5.32,7.42-.56,1.48-1.36,2.87-2.05,4.3Q379,426,376.41,424.73Z"/><path d="M440.9,384.52l-.54-1.16c0-3.89-1.49-5.91-4.76-6.38-4.86-.69-5.47-1.68-4-6.78,6.07,1.34,10.21,5.34,14,9.88,1.17,1.4,2.7,2.57,3.56,4.12a9.9,9.9,0,0,1,1.42,5.12c-.05.89-1.84,2.15-3,2.33-.72.12-1.79-1.37-2.58-2.25C443.58,387.82,442.26,386.15,440.9,384.52Z"/><path class="cls-1" d="M420.17,349.88c-.87-2.44-1.75-4.87-2.62-7.31-.16-1.64-.31-3.28-.47-4.92l2.33-1.47.87-.13c3.84.42,5.68,2.85,6.79,6.33a32.57,32.57,0,0,0,2.81,5.35l-7.2,2.07-1,.12Z"/><path class="cls-2" d="M256.85,396c4.18,1.08,8.39,2.07,12.51,3.34.65.2,1.28,1.69,1.24,2.54a2.56,2.56,0,0,1-1.83,1.73c-6.51.24-13,.31-19.54.35-.46,0-.93-.62-1.4-1,1.88-.35,3.75-.82,5.65-1C258.56,401.42,258.83,401,256.85,396Z"/><path class="cls-2" d="M290.77,376.31c2.69,1.49,6.36,2.38,7.76,4.66,1.1,1.79,0,5.63-1.21,8a13.68,13.68,0,0,1-9.1,7.23c3.73-6,8.14-11.9.95-18.76Z"/><path class="cls-2" d="M416.1,417c-.71,3.45-1.28,6.27-1.88,9.07-.37,1.68-.44,3.57-1.31,4.94a5.11,5.11,0,0,1-3.61,2c-.84,0-2.2-1.24-2.59-2.23-1.54-3.86.17-9.92,3.31-12.68C412,416.3,414.19,415.93,416.1,417Z"/><path class="cls-2" d="M429.36,377.67c-4.07,0-7.48-1.26-10.07-4.3a3,3,0,0,1-.46-2.55c1.43-3.08,3.08-6.06,4.71-9,.24-.43.86-.67,1.06-.82C426.18,366.48,427.72,371.9,429.36,377.67Z"/><path class="cls-2" d="M310.15,356.15a7.59,7.59,0,0,1-7,6.76c-1.62,0-3-.49-2.27-2.41,2.17-5.88,4.48-11.7,6.74-17.55l1.14-.22c.42,1.3.84,2.61,1.27,3.91C308,349.84,308.22,353,310.15,356.15Z"/><path d="M443.81,364.6c-.67-1.25-1.34-1.93-1.33-2.6a5.51,5.51,0,0,1,.89-2.57c1.56-2.59.87-4.74-.82-7-.74-1-.82-2.5-1.2-3.78a30.55,30.55,0,0,1,3.68,1.09c1,.46,1.93,1.27,3,1.81,3.82,2,4.29,3.3,1.73,6.8C448.17,360.44,446.13,362.17,443.81,364.6Z"/><path class="cls-1" d="M383.56,401.32c-.54.89-1.05,1.8-1.63,2.66-2,2.92-4,5.7-8.24,5.6-.91,0-1.81,2.2-2.82,3.29a8.88,8.88,0,0,1-3.24,2.3c.11-4.28,1.65-8.4,5.07-10.15,2.82-1.43,4.23-3.58,6.14-5.57l1.3.26a1.08,1.08,0,0,0,.61.26Z"/><path class="cls-2" d="M433.37,349.58a7.41,7.41,0,0,1,2.06-7.9,13.9,13.9,0,0,1,1.3,2.53c1,4,2.34,8,2.74,12a46.49,46.49,0,0,1-.71,10.89c-.26,1.89-1.86,2-3.07.74a10.89,10.89,0,0,1-1.51-3c.41-.54,1.13-1.06,1.17-1.62q.45-7.2.65-14.42c0-.53-.59-1.07-1-1.79Z"/><path class="cls-1" d="M376.75,364.63c-2.85-4.16-3.84-8.89-4-13.82,0-.48,1-1.42,1.57-1.46,3.49-.24,4.49,2.7,6,5,1.35,2.07,0,3.18-1.52,4.22a1,1,0,0,0-.29.3c.11,1.94.2,3.69.3,5.44Z"/><path class="cls-1" d="M420.4,393.92c3.33.69,4.11,3.38,4,6.05a9.39,9.39,0,0,1-2.31,5.31c-1.31,1.47-3,1.14-4.17-.91a10,10,0,0,1-.78-9Z"/><path class="cls-2" d="M398.1,373.85a76.13,76.13,0,0,1,6.39-6.07c.52-.4,2.73.36,3.22,1.16.9,1.48,1.11,3.39,1.73,5.54l-4.74.5c1.67,5.45-.23,9.6-4.45,9.94C404.3,378.34,403.83,375.93,398.1,373.85Z"/><path class="cls-1" d="M332.49,339.43c-.15-2.55,1.08-4.3,3.59-3.91,3.34.51,5.61-.23,7-3.44.15-.37,1-.46,1.51-.67q-.09,3.07-.17,6.14c-1.05,3.83-4.18,3.84-7.25,4h0l-3.72-1.84Z"/><path class="cls-1" d="M394.71,390.17c-.44,2.08-1.3,4.17-1.23,6.22.13,3.33-1.14,3.25-3.39,1.95a89,89,0,0,1-2.94-9.95,3.86,3.86,0,0,1,3.24-4.78c.57,1.93,1.13,3.86,1.88,6.41l2.46.13Z"/><path class="cls-1" d="M256.85,396c2,5,1.71,5.39-3.37,6-1.9.22-3.77.69-5.65,1l-1.85.47-3.8.7c-.66-3.28,1.41-3.6,3.81-4.2a86.16,86.16,0,0,0,9.06-3.29Z"/><path class="cls-1" d="M399.72,393.79c.27-1.45.54-2.9.82-4.35l5.88-2.11c0,1.88.47,3.87,0,5.6s-1.86,2.94-2.85,4.4Z"/><path class="cls-1" d="M398.1,373.85c5.73,2.08,6.2,4.49,2.15,11.07l-3.8-.67c-.59-1.16-1.17-2.32-1.75-3.48C395.83,378.46,397,376.15,398.1,373.85Z"/><path class="cls-1" d="M433.37,349.58,435,347c.43.72,1,1.26,1,1.79q-.21,7.21-.65,14.42c0,.56-.76,1.08-1.17,1.62l-1.57-.75c0-2.23,0-4.47.06-6.7s.36-4.69.55-7Z"/><path class="cls-2" d="M389.87,335c1.81,1.88,3.78,3.64,5.4,5.67s1.22,3.92-.95,5.56a13.81,13.81,0,0,0-2.28,3C388.45,345,389.14,340,389.87,335Z"/><path class="cls-1" d="M364.51,426.25h-3c.69-3.64,4.19-7.59,6.75-7.64,2.78-.06,4.8,1.09,5.59,4.56-3.65-.2-7.65-1.65-9.25,3Z"/><path class="cls-2" d="M392.64,353c2,2,4.11,3.79,7.28,2.93a19.83,19.83,0,0,0-1,4.07c-.08,2.11-.76,3.45-3,3.67a10.87,10.87,0,0,0-1-3,45.21,45.21,0,0,0-3.58-4.27c-.65-.74-1.37-1.42-2.06-2.12C389.75,352,391.11,352.28,392.64,353Z"/><path class="cls-2" d="M418.88,380.11c-.24,2.7-.33,5.43-.78,8.11-.36,2.1-1.66,2.6-3.5,1.24-3.15-2.33-3.33-3.61-.69-6.34,1.23-1.27,2.61-2.41,3.91-3.6C418.18,379.71,418.53,379.91,418.88,380.11Z"/><path class="cls-2" d="M394.24,364.05c-1.38,2.94-2.63,5.86-1.32,9.25.18.45-1,2-1.45,2-1-.06-2.67-.82-2.69-1.35-.14-3.92,0-7.86.17-11.79,0-.27.42-.52.65-.77C390.61,363.2,391.75,364.8,394.24,364.05Z"/><path d="M425.91,379.89c.34.4,1.83,1.77,1.67,2a67.77,67.77,0,0,1-4.59,5.59c-.58-1.07-1.57-2.12-1.65-3.23C421.15,381.47,422.71,379.84,425.91,379.89Z"/><path class="cls-2" d="M373.74,324.64l-5.55-1.32-7,.28,1.71-5.09c-.05.76-.09,1.53-.14,2.33C369.5,319.8,372,320.67,373.74,324.64Z"/><path class="cls-1" d="M327.31,346.23c.32,2.49.56,5,1,7.47.52,2.88-.55,4.09-4,3.77.61-4.68,1.21-9.25,1.82-13.82Z"/><path class="cls-2" d="M401.91,354.87c-.39-3.84-.67-7.69-1.19-11.5-.34-2.43-.14-4.39,2.5-5.32,0,4.39-.56,8.73,1.85,12.93C406.52,353.51,404.06,354.43,401.91,354.87Z"/><path class="cls-1" d="M408.44,401.13a44.07,44.07,0,0,1-4.27,5.63,3.38,3.38,0,0,1-3.33,0c-.69-.61-.75-2.27-.58-3.39.12-.76,1.09-1.4,1.69-2.09Z"/><path class="cls-2" d="M429.88,347.73a32.57,32.57,0,0,1-2.81-5.35c-1.11-3.48-2.95-5.91-6.79-6.33,4.33-3.12,5.89-2.8,7.5,2.09A90.39,90.39,0,0,1,429.88,347.73Z"/><path class="cls-2" d="M380.75,340.8c-2.32-3-3.82-6.82-8.69-6.72-1.61,0-2.73-1.31-1.33-3.15A14.72,14.72,0,0,1,380.92,336C382.42,337.71,383.12,339.28,380.75,340.8Z"/><path class="cls-1" d="M328.3,323.9c-.86,2.9-.95,6.2-4,8a6.73,6.73,0,0,1,3.66-9.53C328.05,322.88,328.17,323.39,328.3,323.9Z"/><path class="cls-2" d="M352.27,326c4.23,2.54,4.35,3,2.14,7.1-.53,1-1,2-1.51,3C348.89,333,351.09,329.49,352.27,326Z"/><path class="cls-1" d="M394.24,364.05c-2.49.75-3.63-.85-4.64-2.67q-.15-3.58-.29-7.15c.69.7,1.41,1.38,2.06,2.12a45.21,45.21,0,0,1,3.58,4.27,10.87,10.87,0,0,1,1,3Z"/><path class="cls-2" d="M394.7,380.77c.58,1.16,1.16,2.32,1.75,3.48q-.87,3-1.72,5.9l-2.46-.13c-.75-2.55-1.31-4.48-1.88-6.41A3.85,3.85,0,0,1,394.7,380.77Z"/><path class="cls-1" d="M288.69,357.85c-.64-1-2.05-2.35-1.78-2.86.57-1.13,2.09-2.62,3-2.5,1.12.13,2.05,1.81,3.07,2.82l-2.52,2.52Z"/><path class="cls-1" d="M373.22,398.12c-.79,3.56-3.23,5.95-7.06,6.1,2.42-2.27,1.55-6.18,5.54-6.69Z"/><path class="cls-1" d="M410.05,351.46c3.1,3.31.88,7,1.27,10.51l-1.22.2L409,356.53C409.36,354.84,409.71,353.15,410.05,351.46Z"/><path class="cls-2" d="M433.22,350.39c-.19,2.34-.44,4.68-.55,7s-.05,4.47-.06,6.7c-2.5-.29-3.52-2-2.92-4.11C430.62,356.73,432,353.59,433.22,350.39Z"/><path class="cls-1" d="M310.15,356.15c-1.93-3.14-2.19-6.31-.16-9.51Q310.07,351.4,310.15,356.15Z"/><path class="cls-2" d="M333.38,339.66l3.72,1.84Z"/><path class="cls-2" d="M416.77,302.06l-1.47,1.27Z"/><path class="cls-2" d="M371,330.43l1.55-2.26Z"/><path class="cls-2" d="M419.41,336.18l-2.33,1.47Z"/><path class="cls-2" d="M465.63,424.46l-1.57,1.26Z"/><path class="cls-2" d="M374,305.15l1.31,1.25Z"/><path class="cls-1" d="M396.12,398.27v0Z"/><path class="cls-2" d="M375.34,306.49l1.29,1.29Z"/><path class="cls-2" d="M421.65,349.92l1-.12Z"/><path class="cls-2" d="M380.75,400a1.08,1.08,0,0,1-.61-.26Z"/><path class="cls-1" d="M272.46,449.56l-.95.95Z"/><path class="cls-1" d="M273.49,448.62l-.16.13Z"/><path class="cls-3" d="M348.19,311.58c-2.24-2.09-4-3.3-5.19-4.92a85.54,85.54,0,0,1-5.72-8.92,5.74,5.74,0,0,1-.6-3.82c.4-1.6,1.51-2.08,3.08-.69,1.77,1.56,4.24,2.48,5.64,4.27a53.21,53.21,0,0,1,5.93,9.86C351.62,308,349.67,309.65,348.19,311.58Z"/><path class="cls-3" d="M263.71,335.89l.3-1.33Z"/><path class="cls-2" d="M223.75,355l-3.47-1.54a14.48,14.48,0,0,1,1.92-3.36q6.65-6.48,13.52-12.74c1.62-1.49,3.55-3.12,5.77-1.22,2.07,1.76,2.26,4.44.4,6.18C236.58,347.35,232.15,353.78,223.75,355Z"/><path class="cls-1" d="M253.84,353.56c1.25.72,3.65,1.65,3.56,2.13a28.42,28.42,0,0,1-2.49,7.54,24.4,24.4,0,0,1-3.65,4.66,17.73,17.73,0,0,1-3,3,21,21,0,0,1-4.51,2.27,13.19,13.19,0,0,1-3.18.41c.05-1.05-.26-2.32.21-3.12,2.37-4,4.94-7.94,7.45-11.9l2.85-2.93,2.27-1.64Z"/><path class="cls-2" d="M253.32,354l-2.27,1.64Z"/><path class="cls-2" d="M254.17,489.16c-3.09-.75-6.31-1.17-9.24-2.33-2.54-1-2.39-2.82,0-4.19a5.63,5.63,0,0,0,1.22-.64c1.24-1.24,3.59-2.79,3.38-3.77a5.29,5.29,0,0,0-5.28-4.16,34.64,34.64,0,0,1-5.82-.78c-.63-.13-1.11-1-1.66-1.49,7.92-1.39,15.37.34,22.9,3.3-.63,1.3-1.15,2.39-2,4.18,2-.2,3.56-.23,5-.53,3.67-.74,6.53.66,9.08,3.14,1.65,1.61,1.42,3-.3,4.33-3.37,2.65-7.34,2.22-11.25,2.31C258.18,488.57,256.18,488.94,254.17,489.16Z"/><path class="cls-2" d="M292.57,463.57l1.31,1.31Z"/><path class="cls-3" d="M417.19,473.86l-1.33-1.3Z"/><path class="cls-3" d="M421.34,451.47l1.05-1.05Z"/><path class="cls-1" d="M367.31,385.21c.57.82,1.79,1.87,1.6,2.41a11.23,11.23,0,0,1-2.79,4.75c-1.22,1.05-3.23,1.13-4.84,1.77a18.52,18.52,0,0,0-2.6,1.66l5.81,2.26v1.17c-1.25.65-2.55,1.24-3.74,2s-3.18,1.91-3.05,2.29c.56,1.69,1.44,3.79,2.84,4.55,1.84,1,3.58,1.47,3.4,2.82-3.33,2.1-5.88,3.81-8.53,5.34a11.35,11.35,0,0,1-3,.77,13.72,13.72,0,0,1,.8-3c.47-.89,1.5-1.5,2-2.39s1.07-2.47.67-2.95c-.85-1-2.49-2.32-3.51-2.1-2.47.53-4.78,1.85-7.23,2.89l-7.45-3.88c.89-1.34,3-3.22,2.67-4.36-.48-1.61-2.78-2.68-5.22-4.77,3.07-.28,5.35-1,7.4-.55,2.41.48,4.06,2.15,3,5.16-.3.82.1,1.91.18,2.87,1-.23,2.25-.19,3.08-.74,4.27-2.84,4.42-3.57,2.63-8.54-.38-1.06-1.06-2.52-.65-3.28,2-3.72-.49-4-3-5.06-1.48-.6-2.56-2.44-3.54-3.91-.62-.91-.45-2.35-1.08-3.25a21.16,21.16,0,0,0-3.12-3c-.93,1.53-2.33,2.95-2.67,4.6s.55,3.64.46,5.45c-.06,1.09-.95,2.15-1.74,3.78-3.09-6.62-1.65-12.88,3-16.79.82-.69,1.69-2.43,1.36-3.16-1.7-3.84-.11-5.63,3.43-6.59.31-.09.55-.41,1.68-1.28-2-1.37-3.65-2.45-5.24-3.62-.7-.52-1.84-1.26-1.8-1.84.16-2.35.69-4.68,1.22-7.79,3.1,5.8,7.2,8.12,13,7.91,1.16,0,2.48,1.72,3.59,2.79,1.44,1.4,2.79,2.9,4.1,4.42,1.8,2.08,3.45,4.29,5.32,6.3,1.56,1.67,3.35,3.14,5,4.65v6c0,.85.37,2.11,0,2.46a3.15,3.15,0,0,1-2.54.14c-2.82-.94-5.53-2.29-8.4-3-1.29-.34-3.6-.05-4.1.77a5,5,0,0,0,.31,4.39c.51.86,2.39.93,3.68,1.28a5,5,0,0,0,1.38-.06l.78,1.17.42.74.84-.74.69-.67,0,0,.91-.31h.08Z"/><path class="cls-3" d="M355.71,428.54c-.61-2.49-1.62-5-1.65-7.47,0-.95,2.13-2.19,3.51-2.77.84-.35,2.69,0,3,.61a4.48,4.48,0,0,1-.06,3.48c-.93,2.17-2.23,4.19-3.37,6.26Z"/><path class="cls-1" d="M334,417.94c2.85-1.85,5.55-4,8.58-5.47,3.32-1.63,5.29.25,4.83,4.38C342.71,414.42,338.78,418.4,334,417.94Z"/><path class="cls-3" d="M367.31,385.21,364.59,387h-.08l-.91.31,0,0-.69.67h-1.26l-.78-1.17a26.25,26.25,0,0,1-2.58-1.93c-.5-.47-1.12-1.29-1-1.8s1.22-1.32,1.61-1.19C361.72,382.92,364.5,384.1,367.31,385.21Z"/><path class="cls-1" d="M330.93,411.25l-7-1.81c2.89-1.24,5.63-1.93,7.6.46C331.31,410.35,331.12,410.8,330.93,411.25Z"/><path class="cls-1" d="M326,398.81c1.61-3.22,2.8-5.59,4.06-8.12C332.15,393.52,330.73,396.71,326,398.81Z"/><path class="cls-1" d="M334.65,363.59a11.9,11.9,0,0,1,1.67.45c.38,2.11.75,4.23,1,6.35,0,0-1.15.21-1.76.32C335.29,368.5,335,366.29,334.65,363.59Z"/><path class="cls-3" d="M282.2,396.33l1.86-6.93C285.31,392.21,284.19,394.39,282.2,396.33Z"/><path class="cls-3" d="M280.79,400.48l1.12-2.26C281.54,399,281.16,399.72,280.79,400.48Z"/><path class="cls-2" d="M361.61,388h1.26l-.84.74Z"/><path class="cls-2" d="M363.56,387.37l0,0Z"/><path class="cls-2" d="M364.51,387h0Z"/></svg>