<svg id="Frame_1" data-name="Frame 1" xmlns="http://www.w3.org/2000/svg" viewBox="0 0 720 720"><defs><style>.cls-1{fill:#755320;}.cls-2{fill:#361212;}.cls-3{fill:#937f2a;}</style></defs><title>Frame 1</title><rect width="720" height="720"/><path class="cls-1" d="M353.79,720c1.11-14.18,2.31-28.35,3.31-42.54,1.64-23.42,3.9-46.84,4.49-70.29.55-21.47-.61-43-1.34-64.48-.38-11.32-1.45-22.62-2.21-33.93l-.51-4.14c-.75-2.66-2.75-2.17-4.68-1.85a11,11,0,0,1,2.76-1.52c2.11-.47,4.29-.66,6.37-1,.33-4.94,9.8-11.37,14.18-9.52a10.68,10.68,0,0,0,7.24.69c1.3-.32,3,.79,4.43,1.26-.55,1.19-.85,2.61-1.71,3.52-2.48,2.65-3.17,5.37-1.77,8.87.65,1.61.33,3.61.45,5.44q.07,8.16.14,16.34c0,1.36,0,2.71-.06,4.07-.43-6.32-.8-12.66-1.34-19a26.45,26.45,0,0,0-1.42-7.39c-.42-1.05-2.43-2.07-3.72-2.06-4.37,0-8.73.56-13.11.76-4,.19-5.36,1.17-5.3,5.16.09,5.52.77,11,.86,16.56.08,5,1.9,9.63,2.88,14.42,1.66,8.11,2.2,16.45,3.07,24.7.37,3.55.48,7.14.56,10.71.2,8.19.27,16.38.5,24.56,0,1.24.74,2.45.86,3.69a22.78,22.78,0,0,1,.17,6c-.45,2.68-.52,4.92,1.82,6.9a5.68,5.68,0,0,1,1.7,3.6c.29,4.14.13,8.3.38,12.45.3,4.92-.34,10.36,1.56,14.63,2.85,6.42,3.44,12.89,3.8,19.57.11,2.13,0,4.27,0,6.4,3.52-4.43,5-8.84,3.29-14.14-.79-2.39-.27-5.26-.1-7.9.24-3.55.83-7.08,1.06-10.63.59-9.31,1.06-18.62,1.6-27.93,0-.69.31-1.35.4-2,.91-7,2.07-13.89,2.61-20.88.39-5,0-10.17-.08-15.26,0-3.79-.06-7.59-.09-11.38.32,5.17,1.07,10.37.88,15.52Q386.1,624,384,669.84c-.78,16.74-2.08,33.44-3.14,50.16Z"/><path class="cls-2" d="M384.8,510.55c-.12-1.83.2-3.83-.45-5.44-1.4-3.5-.71-6.22,1.77-8.87.86-.91,1.16-2.33,1.71-3.52-1.48-.47-3.13-1.58-4.43-1.26a10.68,10.68,0,0,1-7.24-.69c-4.38-1.85-13.85,4.58-14.18,9.52-2.08.3-4.26.49-6.37,1a11,11,0,0,0-2.76,1.52l-1.87.49c-4.29-3.59-8.48-7.3-12.91-10.71a19.66,19.66,0,0,0-6.4-3.29c-4.44-1.31-8.88-2-13.57-.3-4.48,1.64-5.62.46-5.71-4.22a10.31,10.31,0,0,0-1.24-4.57c-3.74-6.78-14.84-11.14-22.43-9.34-1.75.41-3.82-.5-5.74-.81,1.49-3.43,4.71-3.83,7.78-4.14,2.63-.27,5.31.06,8-.1a15.63,15.63,0,0,0,3.47-1c-.67-1.1-1.08-2.72-2.06-3.22-4.1-2.07-5.93-5.59-7.08-9.74-.85-3-2.85-4.34-6-3.63-2.73.61-4.74-.34-6.8-2.29-4.74-4.47-10.05-8.12-16.9-8.52a4.11,4.11,0,0,0-2.5.52,2.21,2.21,0,0,0,.12,2.11c4.32,3.08,6.92,8.51,12.92,9.38,1.76.26,3.41,1.29,6,2.33-2,1.34-3.1,1.95-4.06,2.7-3.56,2.81-7.26,5.62-7.29,10.72,0,1.58.4,4,1.42,4.52s3.67.16,4.75-.79c2.75-2.43,4.41-1.41,6.08,1-3.79,9.64-5.56,10.37-13.34,6.1-.91-.5-2.14-.72-2.71-1.46-.72-.94-1.63-2.7-1.23-3.39,4.83-8.3-.85-15.39-2.47-22.93a4.06,4.06,0,0,0-1.41-1.91c-2-1.74-4.08-3.39-6.12-5.07q.47-9.42.95-18.83l10.64-4.24.8.57c-.64,1.32-1,2.92-2,3.89a45,45,0,0,1-5.53,4.1c-2.79,2-2.93,3.43-.51,5.82s7,3,10.62.72A98.49,98.49,0,0,0,279.55,425c3.29-2.78,6.43-4.55,10.45-1.48.4.31,1.13.19,1.7.28l.57-.95c-3.28-2.59-6.36-5.53-9.93-7.63a10.61,10.61,0,0,1-4.51-4.82c-2.38-4.79-5.14-9.41-7.74-14.09-.1-.32-.21-.63-.31-.94a29.35,29.35,0,0,0-1.68-4.08c-3-5-6.29-5-9.76-.24-2,2.7-4.54,5-6.76,7.54-.82.93-1.85,2-2,3.11-.85,5.31-1.86,10.68.89,15.81-4.59-1.82-9.34-3.32-13.7-5.57-3.45-1.78-6.67-3.55-10.71-3.2-9,.77-16.54-6.8-17.43-16-.68-7-2.74-14-4.1-20.94-.2-1-.4-2.66.17-3.22,3.43-3.36,7.09-6.49,10.67-9.69,2.64-.95,5.3-1.86,7.92-2.87,1.56-.61,2.92-1,3.4,1.23l-14.48,16.46,3.67-.23.21.06.13-.16,2.89-.87c3.17-1.27,6.31-2.62,9.5-3.8,6.24-2.31,12.2-2.87,15.87,4.06.12.24.57.31.05.05a82.31,82.31,0,0,0,8.23-2.8,19.67,19.67,0,0,0,5.19-3.57c1.48-1.39,2.41-3.33,3.81-4.82s2.14-2.55.43-4.34c-.54-.56-.72-2.45-.29-2.81,1.68-1.41,3.54-3,5.58-3.49s4.45.18,5.13,2.94l-.41,1.28c-1.25,3.15-2.89,6.2-3.67,9.46-2.77,11.46,3.65,20,15.32,20.79,5.64.37,10.89-2.65,12.08-8.13,1.25-5.81,1.52-11.85,1.94-17.81a2.49,2.49,0,0,0-3.73-2.61c-2.65,1.21-4.65.2-6.77-1,.4-3.3.93-6.59,1.17-9.9.38-5.18,3.68-6.88,7.84-9.55,6-3.83,11.35-5,17.82-3.38,3.06,2.23,6.12,4.47,9.19,6.68a14.16,14.16,0,0,0,2.08,1.25c2.74,1.31,4,.64,4-2.35,0-2.41-.42-4.83-.53-7.24a30.79,30.79,0,0,1,.23-3.71l.91-.15,2.48,3.49c2,7.79,5,15.18,9.81,21.69l1.63,1.56,3.77.71,3.66.73a3.66,3.66,0,0,1,.26,1.07c-1,7.7-3.84,15.38-.08,23.13.22.45-.5,1.87-1.08,2.11-1.74.71-5.79-2-6.08-3.89-.18-1.14-.14-2.31-.22-3.46-.16-2.39-1-3.6-3.52-2.09a7.68,7.68,0,0,1-1.57.72c-5.13,1.58-5.9,2.77-4.17,7.74.91,2.6.22,4.2-1.94,5.53s-4.25,1.79-6.14-.58c-.42-.53-1.26-.72-1.9-1.07a6.82,6.82,0,0,0-1,2.05c-.16,1.6-.09,3.23-.09,4.85,0,7.25.14,7.33,6.69,4.24,0,3.35,2.37,6.64-.46,9.6-1.66,1.73-2.57,3.16-2.08,5.74.2,1.08-1.68,2.55-2.61,3.84a18.47,18.47,0,0,1-2.19-2.93c-1.45-3-2.73-6.08-4.07-9.14l-1.49.45c.43,3.43.84,6.87,1.31,10.3.07.52.35,1.34.72,1.46,3.34,1.09,3.57,4.35,4.74,6.86a3.7,3.7,0,0,1-.3,3.39c-.61.61-2.27.43-3.4.22a27.38,27.38,0,0,1-4.16-1.45c.79,6.69.78,6.62,6.73,5.73.88-.14,2.74.69,2.75,1.08,0,2.89,2,2.82,4,3.19a48.23,48.23,0,0,1,6,1.6,9.89,9.89,0,0,1,2.18,1.41c-.51.7-1,1.42-1.56,2.07a13.58,13.58,0,0,1-1.63,1.36c2.77.32,5.32,0,7.16,1,2.95,1.58,5.71,1.36,8.69.81a10.18,10.18,0,0,1,3.1-.23,3.81,3.81,0,0,1,2.29,1.1c.24.28-.4,1.4-.79,2.06s-1,1-1.33,1.58c-.54,1.05-.91,2.19-1.35,3.29,1.28,0,2.69.27,3.8-.18,2.36-.95,4.94-2.9,6.95-.46s-.78,4.34-1.88,6.38A40.56,40.56,0,0,0,360,460l1.09.67a22.63,22.63,0,0,0,2.72-1.88c2.43-2.25,4.42-4.9,8.6-3.87,1.85.45,1.54-1.38.64-2.59-2.86-3.84-2.82-4.82.49-7.89.61-.57,1.79-1.23,2.31-1a3.23,3.23,0,0,1,1.68,2.28c.12,1.94-.48,3.93-.28,5.85.14,1.39,1.21,3.9,1.63,3.85a10.48,10.48,0,0,0,4.94-2c1-.76,1-2.75,2-3.54,5-4.05,3.18-10.13,5.3-15-3.4-.81-3.4-.81-5.45,7.55-1.61-1.21-3.3-2-4.16-3.34-.42-.66.45-2.5,1.18-3.48,1.78-2.42,0-3-1.67-3.66-3.67-1.39-4.62-3.15-3.14-6.83.8-2,2.9-3.71,3.14-5.7,1-8.19,9.05-13.27,9.29-21.73,0-.75,1.2-1.4,1.55-2.21.69-1.58,1.18-3.25,1.76-4.88l.55-.34,1.18-.61,2.52-2.25L398,379l.15-2.74c-.9-.72-1.79-2.05-2.68-2.05-2.79,0-4.6-1.43-5-3.77-.46-2.55,0-5.26.12-7.9,6-5.8,6.44-8.61,2.32-14a5.46,5.46,0,0,0,0-2A35,35,0,0,0,380.2,331c-1.05-.72-3.27.28-4.95.49-.49,1.37-.92,2.77-1.48,4.11-.66,1.59-1.06,3.55-2.23,4.63-2.25,2.06-2.86,4.11-1.24,6.65,3.32,5.2,6.73,10.35,10.1,15.52l4.34,10.4,2.39,5.37c1.58,7.6-.15,14.94-1.61,22.38a3.59,3.59,0,0,1-1.34-2.67c.29-6-1.8-11-5.46-15.67-1.28-1.63-2.46-3.93-2.39-5.88a9.23,9.23,0,0,0-2.44-6.55,65.44,65.44,0,0,1-4.16-5.87c-1.09-1.7-1.92-3.57-3-5.28s-2.15-1.8-3.6-.24c-.64.68-1.88.8-2.85,1.17a16.22,16.22,0,0,1-.5-3.21c.11-3.55.37-7.09.57-10.64l8.13-10.49c.57-.7,1.55-1.35,1.66-2.11.73-5.42,2.38-10.85-.64-16.19-3.14-5.56-.39-10,5.95-9.9,1.61,0,3.23.13,4.84,0,2.37-.19,3.17.9,3.56,3.15a111.26,111.26,0,0,0,2.8,12.11c.41,1.42,1.75,2.57,2.93,4.22,2.51-4.09,4.51-7.44,6.61-10.74,5-7.86,13.22-11,21.95-8.44,5.53,1.62,6.18,2.71,5.13,8.38a10.07,10.07,0,0,0,0,2.05l-6.38,13.38-.55.47-.4.76-.34.57-.18.18-.62.54-.15.1-1.2,1.29-.11.18-.49.56-.13.16c-3.33,1.54-6.81,2.82-9.95,4.67-4.22,2.5-5.4,6-3.87,10.62,2.87,8.63,6,17.13,13.17,23.37-3.71,2.28-2,5.48-1.44,8.47-.93.74-1.79,2-2.81,2.15-3.28.48-4.41,2.57-4.72,5.42a28.39,28.39,0,0,0-.35,6.49c.3,2.51.59,4.35-2.74,5-1.26.24-2.21,2.14-3.29,3.28-1.14,2.1-2.4,4.13-3.36,6.3-.75,1.71.2,2.74,2,2.66a20,20,0,0,0,3.59-.83c.7-1.22,2.14-2.57,1.95-3.63-.55-2.94.05-4.61,3.15-5.22.54-.1.95-1.19,1.29-1.88q4.16-8.27,8.25-16.56c7.32-2.35,7.74-2.81,7.86-8.61l.46-7.59c3.64-3.74,7.47-7.38,6.17-13.39-.63-3-1.27-6-1.91-9l.54-2.41a26.46,26.46,0,0,1,3.14,8.16c2.23,10.49,4.2,21,6.57,31.49,1.22,5.38,3,10.61,6.84,14.94,1.81,2,3.39,2.52,5.67,1.33l1.23.09c1.67,3.91.61,6.83-2.75,9.45-2.2,1.73-5,3.59-3.86,7.28-.28,1.44-.57,2.88-.83,4.33a17,17,0,0,0-.68,4.35c.43,4.81,1.22,9.59,1.62,14.41.09,1.15-.44,3-1.27,3.47a5.15,5.15,0,0,1-7.42-4.08c-.34-2.65-1.62-3-3.43-1.51-2.48,2.06-5.18,4.07-7,6.66-2.17,3.13-3.73,6.8-2.5,11.33,5.8-2.85,11.2-6.51,17.33-2-.42,2.43-.84,4.87-1.25,7.3a13.93,13.93,0,0,0,0-2c-.12-1.07-.37-2.12-.56-3.18a11.47,11.47,0,0,0-2.74,1.43,97.2,97.2,0,0,0-8.73,8.73,61,61,0,0,0-5.92,9.56,2.9,2.9,0,0,0,1,2.65c1.78.93,6.57-1,7.75-2.8,2.35,4.56,4.89,9.05,7,13.73,1.17,2.59,1.64,5.5,2.42,8.26l-.71-.3a51.41,51.41,0,0,0-2.22-6c-.37-.76-1.82-1.72-2.36-1.51a4.49,4.49,0,0,0-2,2.45,34.84,34.84,0,0,0-1.56,5.59c-.46,2.17-1.19,4.42-1,6.55.51,5.24,1.45,10.45,2.35,15.65a11,11,0,0,0,1.4,2.83l.93.24c-.51,4.6-2.06,6.14-6.46,5.46a73.78,73.78,0,0,1-26.87-10.17c-.36-.22-.55-.72-.83-1.09,5.2,1.46,9.52,5.7,15.5,4.9-4.87-3.92-9.75-7.77-15.14-10.66-1.78-.95-5.52-3.1-7.36,1.08Zm14.9-57.65a4.77,4.77,0,0,0-1,.33,9.87,9.87,0,0,0-1,.9c-3.63,3.58-3.62,3.58-6.66-.27-1.06-1.35-2.16-1.9-3.1.1-1.46,3.11-2.16,6.2.71,8.93,1.72,1.64,1.45,3.22.19,4.91-2,2.67-4.14,5.26-5.92,8.07-.64,1-1.06,3.19-.49,3.79a49.89,49.89,0,0,0,7.81,6.7c3.23,2.22,3.83,4.2,1.79,7.49-.68,1.09-1.6,3.22-1.24,3.53a7.21,7.21,0,0,0,4.16,1.68c4.85.21,9.71.17,14.56.1,3.14,0,4.7,1.24,4.71,4.51a43.05,43.05,0,0,0,.62,8.27c.78,3.85,3.28,4.51,6.28,1.95,4.11-3.52,3.67-10.16-1.19-13.45-3.8-2.58-8-4.62-11.87-7.05-.94-.58-2.18-1.8-2.11-2.63s1.4-1.88,2.4-2.46,2.47-.63,3.57-1.22c2.17-1.18,3.26-5.48,1.78-7.37-2-2.51-3.52-.17-5.3.63a72.41,72.41,0,0,1-11.54,4.55c-4.32,1.11-7-2.26-5.22-6.33a152.8,152.8,0,0,1,8.24-16.31C401.9,458.87,402,456.12,399.7,452.9Zm-67.05,14,0-1.54c-1.94-.31-3.88-.94-5.8-.85a14.81,14.81,0,0,1-9.94-3.34c-3.05-2.32-3-3.41.16-5.63.9-.63,1.39-1.85,2.07-2.8-2.11-1.23-4.14-2.73-6.41-3.47-.56-.18-2.36,2-2.84,3.35-1.19,3.33-1.64,6.95-3,10.22-1.48,3.64-1.4,4.36,2.58,4.21s6.3,1.62,7.48,5.26c.85,2.63,1.82,5.23,2.58,7.89.66,2.33,1.81,3,4.31,2.58,3.21-.55,6.54-.34,9.78-.73a3,3,0,0,0,2-2c.33-3.09-1.81-4.69-4.84-3.81a37.27,37.27,0,0,0-3.57,1.33c-2.27.93-4.09.53-5.28-1.71s-.39-4.1,1.58-5.36a24.73,24.73,0,0,1,4.36-1.94C329.47,467.94,331.07,467.44,332.65,466.9ZM436,420.06l.26,0a17.92,17.92,0,0,0,0-3.11c-.44-2.56-4.79-5.79-6.73-4.83-3.06,1.52-1.33,4.11-.65,6.06,1,2.81,2.66,5.36,3.79,8.12a16.18,16.18,0,0,1,.56,4.11c-1.44.06-2.95.44-4.3.13-4-.92-5.33-.33-6.78,3.64-2,5.47-2.91,5.83-8.2,3.22a5.34,5.34,0,0,0-1.29-.49c-2.58-.51-4.21.25-4.73,3.1s.71,3.75,3.26,4.07a7.41,7.41,0,0,1,3.67,1.45c1.7,1.42,2.88,1.05,4.09-.46a27.13,27.13,0,0,1,13-8.7c5.22-1.76,6.06-3.19,5.29-8.76C436.8,425.07,436.37,422.57,436,420.06Zm-43-93c.83,1.52,1.34,3.92,2.56,4.35a11.68,11.68,0,0,0,6.52-.1c1.56-.41,2.83-1.91,4.26-2.88,6.66-4.57,6.93-6.72.84-11.82a7,7,0,0,0-5.49-1.26C397.26,316.5,393.57,322.14,393,327ZM417.88,469c3.2-1.45,5.07-4.17,4-6.52-1.31-2.83-2.81-5.57-4.32-8.29-1-1.84-2.31-2-3.28,0a69.43,69.43,0,0,0-3.28,7.64,3,3,0,0,0,.86,2.59C413.67,466,415.73,467.37,417.88,469ZM366.62,489l-.73-1.37c-4.32,1.4-8.55,2.12-12.7-.32-.6-.35-2.3.47-3,1.22-.45.49-.17,1.89.13,2.76a31.31,31.31,0,0,0,1.94,4.05c1,1.91,2.82,3.06,4.55,1.84C360.29,494.74,363.38,491.77,366.62,489ZM294,406.33c2.34-1.24,5.89,0,4.76-3.86a127.21,127.21,0,0,0-4.22-12.09c-.36-.92-1.81-1.4-2.76-2.08-.59,1.12-1.75,2.29-1.65,3.35a106.46,106.46,0,0,0,1.8,11.88C292.14,404.57,293.3,405.42,294,406.33Zm54.3-39.82c-2.11-.92-3.34-1.38-4.5-2-3.87-1.94-7.68-4-11.61-5.82a2.86,2.86,0,0,0-2.68.72,3.22,3.22,0,0,0,.26,2.79c2.92,4.63,10.57,7.53,15.92,6.06C346.51,368.07,347.17,367.3,348.3,366.51Zm-6.08,110.62c.11,3.29,2.46,5.69,3.68,4.49a103.26,103.26,0,0,0,7.79-9,2.18,2.18,0,0,0-.18-2.15,2.86,2.86,0,0,0-2.48-.38A48.52,48.52,0,0,0,344,474.3C343,475,342.56,476.54,342.22,477.13ZM416.41,436c1.68-3,3.3-5.6,4.52-8.36a3.79,3.79,0,0,0-.52-3.37c-.66-.72-2.61-1.24-3.28-.79-2.17,1.46-5.32,3.17-5.67,5.2C410.9,431.84,414.09,434,416.41,436Zm-10.74-1c-.34-1.5.81-4.1-2.44-4.13-2.29,0-6.75,3.28-6.13,4.76,1,2.37,2.52,5,4.59,6.25C403.27,442.8,405.58,438.94,405.67,435Zm20.74-58.91c-3.54,4.92-5.7,19.28-3.13,22.07C425.35,390.61,428.26,383.72,426.41,376.06ZM348.27,497.4c.09-4.13-5.67-11.82-8.87-12.38-.86-.15-2.13-.14-2.61.36s-.93,2.36-.58,2.65C340,491.15,343.94,494.08,348.27,497.4Zm-12.69-46.32c.19.62.39,1.24.59,1.86l12.87-3c.14-2.4-1-4.16-3.37-3.37C342.18,447.67,338.93,449.53,335.58,451.08Zm-8.82-68.51c2.58-2.29,3.75-8,2.24-10a2.6,2.6,0,0,0-2.41.25C324.8,375.9,325.16,379.05,326.76,382.57Zm77.43,38.7c-1-1.25-1.66-2.1-2.34-2.94-1.14,1.29-2.82,2.44-3.22,3.93-.23.88,1.55,2.3,2.43,3.48Zm-94.74-12.91-1.37,1a58.21,58.21,0,0,0,2.86,5.89c.4.66,1.64.81,2.5,1.19.31-1.12,1.23-2.69.81-3.26A40.45,40.45,0,0,0,309.45,408.36ZM390.68,428c2.47-1.35,3.79-3.11,2.72-5.44-.29-.65-3.14-1.06-3.78-.47C387.46,424.05,389.18,425.9,390.68,428Z"/><path class="cls-1" d="M226.66,357.23c-.48-2.22-1.84-1.84-3.4-1.23-2.62,1-5.28,1.92-7.92,2.87a83.15,83.15,0,0,1,32.46-14.79c9.81-2.12,19.69-3.95,29.85-3.24,5.38.38,6.56-2,4.32-7-3-6.72-6.19-13.42-8.23-20.45-4.17-14.36-4.47-29.2-2.77-43.93.6-5.19,3.51-10.11,5.36-15.15l6.25-2.78c15.26.68,27.32,7.55,36.41,20.07l.59-.83-1.9-3.12a40.52,40.52,0,0,1,4.74,4.9c5.08,7.28,9.93,14.72,15,22a23.26,23.26,0,0,0,3.16,3.11l1.53-3.89c.76,3.6,1.58,7.18,2.28,10.79.53,2.76-.05,5.09-3.47,4.81-4.34-.36-8.83-.53-12.94-1.8-8.26-2.57-16.54-3.05-23.72,1.68-9.06,6-17.54,13-19.13,25a29.38,29.38,0,0,1-1.18,4.34c-.94,3.12-2.9,4.57-6.26,4a26.1,26.1,0,0,0-4.83-.4,6.7,6.7,0,0,0-2.11.81c.36.78.52,1.78,1.1,2.3,3.74,3.39,3.9,4.72.77,8.63-.68-2.76-3.11-3.4-5.13-2.94s-3.9,2.08-5.58,3.49c-.43.36-.25,2.25.29,2.81,1.71,1.79.91,2.91-.43,4.34s-2.33,3.43-3.81,4.82a19.67,19.67,0,0,1-5.19,3.57,82.31,82.31,0,0,1-8.23,2.8c.52.26.07.19-.05-.05-3.67-6.93-9.63-6.37-15.87-4.06-3.19,1.18-6.33,2.53-9.5,3.8,4.35-3.18,8.64-6.46,13.11-9.47,1.25-.83,3.12-.67,4.6-1.23a11.21,11.21,0,0,0,3.55-2.12,22.09,22.09,0,0,0,2.42-3.34c1.81-2.45,3.65-4.89,6-8-5.31-.38-9.81-1.81-13.82,1.65C232.14,352.36,229.41,354.8,226.66,357.23Z"/><path class="cls-3" d="M272.58,353.91c3.13-3.91,3-5.24-.77-8.63-.58-.52-.74-1.52-1.1-2.3a6.7,6.7,0,0,1,2.11-.81,26.1,26.1,0,0,1,4.83.4c3.36.6,5.32-.85,6.26-4a29.38,29.38,0,0,0,1.18-4.34c1.59-12,10.07-19,19.13-25,7.18-4.73,15.46-4.25,23.72-1.68,4.11,1.27,8.6,1.44,12.94,1.8,3.42.28,4-2.05,3.47-4.81-.7-3.61-1.52-7.19-2.28-10.79-.08-.59-.16-1.19-.23-1.78q-1.87-7.39-3.73-14.78c0-1.12-.09-2.25-.13-3.37l4-8.24.55-.57.13-.13.57-.55.13-.14.55-.55,3.6-3.53.65-.58.08-.07,1-.76h1.56l1.88.55v.09l.5.9,1,.58a1.28,1.28,0,0,1,.5.42l0,.17.17,0a1.7,1.7,0,0,1,.53.43l2.79,2.46.55.55v.22h.22c10.79,7.28,21.64,14.49,32.33,21.91,3.38,2.34,6.36,5.24,9.51,7.89-2.3.51-4.63,1.53-6.91,1.45a69.15,69.15,0,0,0-20.27,1.91c-7.16,1.86-12.56,11.77-7.91,17,3.54,4,2.78,8.23.69,12.59-1.2,2.49-2.15,5.1-3.21,7.65l.65.29,3.6-2.7,1.08,2.09-8.13,10.48L347.72,355l-3.77-.71-1.63-1.56c-4.85-6.51-7.79-13.9-9.81-21.69.35-2,.7-4.06,1.2-7,3.64,4.45,6.54,8.11,9.61,11.63.66.75,1.93,1,2.92,1.44a15,15,0,0,0,.76-3.6c0-.61-1-1.23-1.56-1.77-6-5.55-12-11.07-18.28-16.8a22.1,22.1,0,0,1-.74,3c-1.41,3.52-2.5,7.44-6.68,8.71-3.34,1-4.79,3.35-5.57,6.42-6.47-1.61-11.85-.45-17.82,3.38-4.16,2.67-7.46,4.37-7.84,9.55-.24,3.31-.77,6.6-1.17,9.9-.36,1.43-.71,2.86-1.08,4.29-1.19,4.62-.55,9.87-4.34,13.57a45.36,45.36,0,0,1-5.51,4c-1.68-2.48-3.52-4.88-5-7.49-.54-1-.29-2.51-.2-3.77.25-3.79.61-7.57.93-11.35C272.31,354.77,272.44,354.34,272.58,353.91Zm85.78-43.67c.53-.4,2.56-1.26,2.59-2.19.06-1.53-.76-3.83-1.95-4.52A75.33,75.33,0,0,0,348.6,299a3,3,0,0,0-2.14.36,25.71,25.71,0,0,0-.23,6.66,4.11,4.11,0,0,0,2.57,2.65A93.4,93.4,0,0,0,358.36,310.24Z"/><path class="cls-3" d="M386.85,562.54c0,3.79,0,7.59.09,11.38.05,5.09.47,10.21.08,15.26-.54,7-1.7,13.92-2.61,20.88-.09.69-.36,1.35-.4,2-.54,9.31-1,18.62-1.6,27.93-.23,3.55-.82,7.08-1.06,10.63-.17,2.64-.69,5.51.1,7.9,1.75,5.3.23,9.71-3.29,14.14,0-2.13.1-4.27,0-6.4-.36-6.68-.95-13.15-3.8-19.57-1.9-4.27-1.26-9.71-1.56-14.63-.25-4.15-.09-8.31-.38-12.45a5.68,5.68,0,0,0-1.7-3.6c-2.34-2-2.27-4.22-1.82-6.9a22.78,22.78,0,0,0-.17-6c-.12-1.24-.83-2.45-.86-3.69-.23-8.18-.3-16.37-.5-24.56-.08-3.57-.19-7.16-.56-10.71-.87-8.25-1.41-16.59-3.07-24.7-1-4.79-2.8-9.38-2.88-14.42-.09-5.53-.77-11-.86-16.56-.06-4,1.29-5,5.3-5.16,4.38-.2,8.74-.75,13.11-.76,1.29,0,3.3,1,3.72,2.06a26.45,26.45,0,0,1,1.42,7.39c.54,6.31.91,12.65,1.34,19,.22,3,.45,6,.67,9q.43,7.29.88,14.59Z"/><path class="cls-1" d="M253.5,441.2c2,1.68,4.12,3.33,6.12,5.07a4.06,4.06,0,0,1,1.41,1.91c1.62,7.54,7.3,14.63,2.47,22.93-.4.69.51,2.45,1.23,3.39.57.74,1.8,1,2.71,1.46,7.78,4.27,9.55,3.54,13.34-6.1l2.2.16c1.92.31,4,1.22,5.74.81,7.59-1.8,18.69,2.56,22.43,9.34a10.31,10.31,0,0,1,1.24,4.57c.09,4.68,1.23,5.86,5.71,4.22,4.69-1.72,9.13-1,13.57.3a19.66,19.66,0,0,1,6.4,3.29c4.43,3.41,8.62,7.12,12.91,10.71-10.83,5.47-21.89,5.32-32.75.54-4.47-2-8.46-5.16-12.41-8.13-2.71-2-5.42-2.92-8.7-2.12-7.07,1.7-14.12,3.51-21.23,5.05a59.65,59.65,0,0,1-41.32-5.82,4,4,0,0,1-1.5-3.16,17.22,17.22,0,0,1,1.23-6.08c3.78-8.52,6.1-18,15.58-22.76,5.58-2.81,5.37-3.24,4.32-9.26A93.14,93.14,0,0,1,253.5,441.2Zm10.73,54.61.33,1.71c2.09-.12,4.21-.07,6.27-.39q6.51-1,12.95-2.33a45.7,45.7,0,0,0,7-1.92c4.33-1.62,4.79-3.16,2.26-6.94-1.28-1.92-2.78-3.69-4-5.63-1.73-2.65-3.42-2.89-5.27-.19s-4.67,3.8-7.27,2.65c-5-2.19-9.59-5.21-14.39-7.8a20.52,20.52,0,0,0-5.08-2.2c-1.52-.35-3.25.27-4.81,0a3.75,3.75,0,0,1-2.52-1.92c-1.13-3.09-2.22-3.51-4.46-1.11a87.34,87.34,0,0,0-6.22,7.36c-.3.39.31,2.11.89,2.38,1,.44,2.29.07,3.4.3,4.59.94,10.19-.42,12.68,5.52a2.72,2.72,0,0,0,2.43.79c4.52-1.38,8.13.33,11.45,3.1a34,34,0,0,1,2.7,2.79,23.1,23.1,0,0,1-3.69,2.61A27.06,27.06,0,0,1,264.23,495.81Z"/><path class="cls-3" d="M416.92,331.17l6.38-13.38,4.78-6.89c2.59,3.76,5.7,7.28,7.63,11.35,2.44,5.15,1.35,7.46-3.32,10.76-.66.47-1.35.91-2,1.43-3.51,3-3.06,4.57.37,7.59,7.87,6.91,15.79,13.85,22.92,21.5,5.66,6.08,7.17,14.35,8.42,22.4.52,3.41.86,6.85,1.28,10.28-.6,4.5-.64,9.18-1.95,13.47-2,6.45-4.78,12.65-7.39,18.9-.31.75-1.55,1.11-2.36,1.65-.43-.85-1.23-1.69-1.24-2.54,0-2.76.32-5.51.42-8.27.08-2.33,0-4.66,0-7l-.88-.27c-.89,1.4-1.84,2.76-2.65,4.2s-1.9,2.62-3.85,1.69c-1.14-3.69,1.66-5.55,3.86-7.28,3.36-2.62,4.42-5.54,2.75-9.45-.64-3.51.12-7.32-2.75-10.34a51.6,51.6,0,0,1-4.51-6.19c-.44-.63-.81-1.32-1.21-2-.93,3.72-.54,7.12,2.51,9.1,3.56,2.3,4.57,5.5,4.73,9.33-2.28,1.19-3.86.69-5.67-1.33-3.88-4.33-5.62-9.56-6.84-14.94-2.37-10.46-4.34-21-6.57-31.49a26.46,26.46,0,0,0-3.14-8.16l-.54,2.41a36.82,36.82,0,0,0-3.82,2.06c-3.07,2.12-7.72,2.4-10.42.06s-1.67-5.45-.88-8.33c.51-1.86,1.14-3.69,1.71-5.53l.13-.16.49-.56.11-.18,1.2-1.29.15-.1.62-.54.18-.18a.75.75,0,0,0,.34-.57l.39-.76Zm21.19,47,1.71-.13c1-3.05-.33-5.72-1.27-8.45l-1.13.15Z"/><path class="cls-1" d="M443.54,418.05c1.95.93,3-.12,3.85-1.69s1.76-2.8,2.65-4.2l.88.27c0,2.33.06,4.66,0,7-.1,2.76-.43,5.51-.42,8.27,0,.85.81,1.69,1.24,2.54.81-.54,2-.9,2.36-1.65,2.61-6.25,5.42-12.45,7.39-18.9,1.31-4.29,1.35-9,1.95-13.47-.2,4.62,2,8.06,5.18,11.19,7.74,7.61,15.23,15.43,19.56,25.67a6,6,0,0,0,1.45,1.92c1.92,1.82,1.85,3.31-.62,4.5-.67-.92-1.39-1.81-2-2.77-1.67-2.62-3.07-5.45-5-7.83-.82-1-2.76-1.1-4.2-1.61a27.51,27.51,0,0,0,.92,4.18c.34.93,1.19,1.66,2.37,3.21l-8.26-1.17c1.06,2.24,2.17,3.48,2.13,4.68-.15,4.81,2.73,5.84,6.63,5.9l-10.74,3.21a90.37,90.37,0,0,1-10.12-2.59c-2.52-.94-4.82-3.61-7.42-.83s.15,5,1.62,7.18c-3.88.93-7.77,1.85-11.64,2.81-1.31.33-2.58.78-3.87,1.18-6.13-4.54-11.53-.88-17.33,2-1.23-4.53.33-8.2,2.5-11.33,1.8-2.59,4.5-4.6,7-6.66,1.81-1.5,3.09-1.14,3.43,1.51a5.15,5.15,0,0,0,7.42,4.08c.83-.46,1.36-2.32,1.27-3.47-.4-4.82-1.19-9.6-1.62-14.41a17,17,0,0,1,.68-4.35C443,420.93,443.26,419.49,443.54,418.05Zm31,28.09-.26,0,.23.29Z"/><path class="cls-1" d="M428.08,310.9l-4.78,6.89a10.07,10.07,0,0,1,0-2.05c1.05-5.67.4-6.76-5.13-8.38-8.73-2.55-16.92.58-21.95,8.44-2.1,3.3-4.1,6.65-6.61,10.74-1.18-1.65-2.52-2.8-2.93-4.22a111.26,111.26,0,0,1-2.8-12.11c-.39-2.25-1.19-3.34-3.56-3.15-1.61.12-3.23,0-4.84,0-6.34-.09-9.09,4.34-5.95,9.9,3,5.34,1.37,10.77.64,16.19-.11.76-1.09,1.41-1.66,2.11l-1.08-2.09-3.6,2.7-.65-.29c1.06-2.55,2-5.16,3.21-7.65,2.09-4.36,2.85-8.58-.69-12.59-4.65-5.25.75-15.16,7.91-17a69.15,69.15,0,0,1,20.27-1.91c2.28.08,4.61-.94,6.91-1.45,5.09.86,10.14,2,15.26,2.54,7.92.88,8.85,1.52,10.92,9.43C427.29,308.25,427.7,309.57,428.08,310.9Z"/><path class="cls-1" d="M270.09,396.31c2.6,4.68,5.36,9.3,7.74,14.09a10.61,10.61,0,0,0,4.51,4.82c3.57,2.1,6.65,5,9.93,7.63l-.57.95c-.57-.09-1.3,0-1.7-.28-4-3.07-7.16-1.3-10.45,1.48a98.49,98.49,0,0,1-11.06,8.23c-3.65,2.29-8.16,1.71-10.62-.72s-2.28-3.83.51-5.82a45,45,0,0,0,5.53-4.1c1-1,1.34-2.57,2-3.89l-.8-.57-10.64,4.24-3.45-4a.66.66,0,0,0-.33-.56.89.89,0,0,0-.23-.28c-2.75-5.13-1.74-10.5-.89-15.81.18-1.12,1.21-2.18,2-3.11,2.22-2.54,4.76-4.84,6.76-7.54,3.47-4.71,6.77-4.77,9.76.24a29.35,29.35,0,0,1,1.68,4.08c-.4,1.92-1.27,3.9-1.08,5.77a130.36,130.36,0,0,0,2.15,13,88.15,88.15,0,0,0,2.37,9c.22.68,1.21,1.12,1.85,1.68.5-.71,1.4-1.39,1.44-2.12a16.64,16.64,0,0,0-.42-5.13C274.18,410.46,272.11,403.39,270.09,396.31Zm-3.91,13.8c0-6.23-.8-6.94-6.06-6.29a6.48,6.48,0,0,0-2.38.31c-1.12.65-2.63,1.43-3,2.48a8.36,8.36,0,0,0,1.82,8.72,5.37,5.37,0,0,0,9.15-2.2A15,15,0,0,0,266.18,410.11Z"/><path class="cls-3" d="M317.68,267.62l1.9,3.12-.59.83c-9.09-12.52-21.15-19.39-36.41-20.07l-6.25,2.78c.14-.37.29-.73.43-1.1v0c.14-.52.29-1,.44-1.54l.07,0c.86-2.68,3-3,5.43-3.25,9.41-.82,17.13,3.36,24.59,8.28a38.38,38.38,0,0,1,3.44,2.84l.07.07.69.74L314,263l1.07.55,0,0,1.15,2.43.51.53Z"/><path class="cls-1" d="M429,476.69c-1.18,1.81-6,3.73-7.75,2.8a2.9,2.9,0,0,1-1-2.65,61,61,0,0,1,5.92-9.56,97.2,97.2,0,0,1,8.73-8.73,11.47,11.47,0,0,1,2.74-1.43c.19,1.06.44,2.11.56,3.18a13.93,13.93,0,0,1,0,2l-2.1,5.35c-.5.75-1,1.49-1.51,2.23l-.44.67-1.14,1.24-.9.9c-.7.73-1.41,1.45-2.12,2.18C429.62,475.5,429.31,476.09,429,476.69Z"/><path class="cls-2" d="M481.55,444.08c-3.9-.06-6.78-1.09-6.63-5.9,0-1.2-1.07-2.44-2.13-4.68l8.26,1.17c-1.18-1.55-2-2.28-2.37-3.21a27.51,27.51,0,0,1-.92-4.18c1.44.51,3.38.6,4.2,1.61,2,2.38,3.36,5.21,5,7.83.61,1,1.33,1.85,2,2.77,0,0,0,.1,0,.09l-5.4,3.6Z"/><path class="cls-2" d="M454.89,451.05c-1.47-2.2-4.31-4.31-1.62-7.18s4.9-.11,7.42.83a90.37,90.37,0,0,0,10.12,2.59Z"/><path class="cls-1" d="M392.1,513.73c1.84-4.18,5.58-2,7.36-1.08,5.39,2.89,10.27,6.74,15.14,10.66-6,.8-10.3-3.44-15.5-4.9l-.05,0-5.83-3.77Z"/><path class="cls-3" d="M433.26,524.21l-.93-.23c-.52-7.57.82-14.91,2.91-22.12.37-1.29,1.63-2.33,2.48-3.48l.71.3c0,.82,0,1.65,0,2.47l-.48,3c-.31,2.41-.61,4.83-.92,7.25l-2.47,7.32-.45,2.58c-.23.91-.45,1.82-.68,2.72Z"/><path class="cls-1" d="M338.11,277.22q1.86,7.39,3.73,14.78Q340,284.61,338.11,277.22Z"/><path class="cls-1" d="M386.43,554.58q-.44-7.29-.88-14.59Q386,547.3,386.43,554.58Z"/><path class="cls-1" d="M483.58,443.18l5.4-3.6Z"/><path class="cls-1" d="M341.94,265.61l-4,8.24Z"/><path class="cls-2" d="M434.54,518.71l2.47-7.32Q435.78,515.05,434.54,518.71Z"/><path class="cls-2" d="M393.22,514.66l5.83,3.77Z"/><path class="cls-1" d="M347.47,260.14l-3.6,3.53Z"/><path class="cls-1" d="M314,263l-2.52-2.68Z"/><path class="cls-1" d="M358.16,264.37l-2.79-2.46Z"/><path class="cls-2" d="M429.92,474.91c.71-.73,1.42-1.45,2.12-2.18Z"/><path class="cls-2" d="M437.93,504.14l.48-3Z"/><path class="cls-2" d="M433.41,524c.23-.9.45-1.81.68-2.72C433.87,522.2,433.64,523.11,433.41,524Z"/><path class="cls-2" d="M434.52,469.92c.5-.74,1-1.48,1.51-2.23C435.53,468.44,435,469.18,434.52,469.92Z"/><path class="cls-1" d="M350.75,258.74h0Z"/><path class="cls-2" d="M357.53,504.62l.51,4.14Z"/><path class="cls-2" d="M432.94,471.83l1.14-1.24Z"/><path class="cls-1" d="M316.77,266.51l-.51-.53Z"/><path class="cls-1" d="M354.14,260.86l-1-.58Z"/><polygon class="cls-1" points="358.92 265.14 358.7 265.14 358.71 264.92 358.97 264.88 358.92 265.14"/><path class="cls-1" d="M348.2,259.49l-.08.07Z"/><path class="cls-2" d="M250.67,417.79a.66.66,0,0,1,.33.56A.78.78,0,0,1,250.67,417.79Z"/><path class="cls-1" d="M310.81,259.54l-.07-.07Z"/><path class="cls-1" d="M276.77,253.16v0Z"/><polygon class="cls-1" points="342.62 264.91 342.49 265.04 342.46 264.89 342.62 264.91"/><path class="cls-1" d="M277.28,251.6l-.07,0Z"/><polygon class="cls-1" points="343.32 264.22 343.19 264.36 343.17 264.2 343.32 264.22"/><polygon class="cls-1" points="354.84 261.48 354.67 261.45 354.64 261.28 354.84 261.28 354.84 261.48"/><path class="cls-1" d="M315.11,263.55l0,0Z"/><path class="cls-1" d="M352.63,259.38v0Z"/><path class="cls-1" d="M347.72,355l12.63-9.27c-.2,3.56-.46,7.1-.57,10.65a16.22,16.22,0,0,0,.5,3.21c1-.37,2.21-.49,2.85-1.17,1.45-1.56,2.58-1.38,3.6.24s1.91,3.58,3,5.28a65.44,65.44,0,0,0,4.16,5.87,9.23,9.23,0,0,1,2.44,6.55c-.07,1.95,1.11,4.25,2.39,5.88,3.66,4.65,5.75,9.69,5.46,15.67a3.59,3.59,0,0,0,1.34,2.67c1.46-7.44,3.19-14.78,1.61-22.38,2.2,2.06,4.92,3.67,2.6,7.6-1.33,2.27.63,4.33,3.92,4.81-.58,1.63-1.07,3.3-1.76,4.88-.35.81-1.53,1.46-1.55,2.21-.24,8.46-8.3,13.54-9.29,21.73-.24,2-2.34,3.69-3.14,5.7-1.48,3.68-.53,5.44,3.14,6.83,1.72.65,3.45,1.24,1.67,3.66-.73,1-1.6,2.82-1.18,3.48.86,1.34,2.55,2.13,4.16,3.34,2.05-8.36,2.05-8.36,5.45-7.55-2.12,4.91-.3,11-5.3,15-1,.79-1,2.78-2,3.54a10.48,10.48,0,0,1-4.94,2c-.42.05-1.49-2.46-1.63-3.85-.2-1.92.4-3.91.28-5.85a3.23,3.23,0,0,0-1.68-2.28c-.52-.24-1.7.42-2.31,1-3.31,3.07-3.35,4.05-.49,7.89.9,1.21,1.21,3-.64,2.59-4.18-1-6.17,1.62-8.6,3.87a22.63,22.63,0,0,1-2.72,1.88L360,460a40.56,40.56,0,0,1,1.63-3.84c1.1-2,3.82-4,1.88-6.38s-4.59-.49-6.95.46c-1.11.45-2.52.15-3.8.18.44-1.1.81-2.24,1.35-3.29.31-.6,1-1,1.33-1.58s1-1.78.79-2.06a3.81,3.81,0,0,0-2.29-1.1,10.18,10.18,0,0,0-3.1.23c-3,.55-5.74.77-8.69-.81-1.84-1-4.39-.65-7.16-1a13.58,13.58,0,0,0,1.63-1.36c.56-.65,1.05-1.37,1.56-2.07A9.89,9.89,0,0,0,336,436a48.23,48.23,0,0,0-6-1.6c-1.93-.37-3.94-.3-4-3.19,0-.39-1.87-1.22-2.75-1.08-5.95.89-5.94,1-6.73-5.73a27.38,27.38,0,0,0,4.16,1.45c1.13.21,2.79.39,3.4-.22a3.7,3.7,0,0,0,.3-3.39c-1.17-2.51-1.4-5.77-4.74-6.86-.37-.12-.65-.94-.72-1.46-.47-3.43-.88-6.87-1.31-10.3l1.49-.45c1.34,3.06,2.62,6.14,4.07,9.14a18.47,18.47,0,0,0,2.19,2.93c.93-1.29,2.81-2.76,2.61-3.84-.49-2.58.42-4,2.08-5.74,2.83-3,.47-6.25.46-9.6-6.55,3.09-6.68,3-6.69-4.24,0-1.62-.07-3.25.09-4.85a6.82,6.82,0,0,1,1-2.05c.64.35,1.48.54,1.9,1.07,1.89,2.37,3.93,1.93,6.14.58s2.85-2.93,1.94-5.53c-1.73-5-1-6.16,4.17-7.74a7.68,7.68,0,0,0,1.57-.72c2.49-1.51,3.36-.3,3.52,2.09.08,1.15,0,2.32.22,3.46.29,1.93,4.34,4.6,6.08,3.89.58-.24,1.3-1.66,1.08-2.11-3.76-7.75-.91-15.43.08-23.13a3.66,3.66,0,0,0-.26-1.07Zm29,56.62-1.14,7.15,1.13.53c1-1.26,2.71-2.53,2.69-3.77s-1.74-2.58-2.72-3.88c.11-.45.17-.91.32-1.35,1.79-5.34.74-7-4.11-9.75-3.46-2-6.51-4.47-7.34-9.35-.52-3-3.4-6.53-6.18-7.93s-5.39,1.46-7,4.31a5.4,5.4,0,0,1-2.51,2.19c-2.62,1.06-4.7,2.37-4.94,5.56-.21,2.7-.72,5.38-1,8.07,0,.47.45,1.07.84,1.47,3.16,3.29,6.31,6.58,9.59,9.74.37.37,1.46,0,2.22,0l.69,0c.48,4.5,4.2,5.38,7.77,6.51a62.37,62.37,0,0,1-6.69,1.84c-.71.17-1.94.26-2,.59-.17.81-.1,2.21.4,2.51a16.75,16.75,0,0,0,4.88,1.93c1.64.37,3.46,0,5.07.44,5.38,1.43,6.19,1,7.46-5l-7,2.29c.59-2.87,1.22-5.13,2.66-6.6,3.13-3.2,4.3-6.68,3.31-11a5.14,5.14,0,0,1,.51-2.49,1.8,1.8,0,0,1,1.21,0,5.79,5.79,0,0,1,.7,2.78C375.33,409.8,374.61,411.15,376.73,411.62Zm-9.39,33.7c-.26.23.27-.06.53-.51,2-3.54,3.12-7.85,8-8.79.39-.07.94-1.52.71-2a2.53,2.53,0,0,0-2-1.28,8,8,0,0,0-3.73,1.61c-2.44,2.17-4.54,3.9-8,1.42-.91-.65-3.34.83-5.07,1.34.64,1.47.9,3.45,2,4.3C361.91,443,364.48,443.89,367.34,445.32ZM364.39,378c1.06,1,2.8,3.16,3.08,3a23.32,23.32,0,0,0,5.65-4.91c.23-.28-1.75-3.21-3.16-3.75C368.06,371.64,364.93,375.18,364.39,378Zm.86-8.74c-.24-.26-.47-.52-.7-.79-3.49,2.51-7,5-10.42,7.59a2.49,2.49,0,0,0-.34,2.41,2.38,2.38,0,0,0,2.28.6C359.78,376.44,363.2,373.46,365.25,369.3Zm7.85,15.59c-1,1.38-2.17,2.37-2,2.85.42,1.09,1.44,2.59,2.33,2.67s1.93-1.34,2.9-2.11Zm-32.87,6.82c.91.61,1.64,1.32,1.87,1.19a3.86,3.86,0,0,0,1.28-1.65c.06-.12-.81-1-1.08-.89A8.5,8.5,0,0,0,340.23,391.71Z"/><path d="M399.7,452.9c2.29,3.22,2.2,6,.17,9.35a152.8,152.8,0,0,0-8.24,16.31c-1.82,4.07.9,7.44,5.22,6.33a72.41,72.41,0,0,0,11.54-4.55c1.78-.8,3.32-3.14,5.3-.63,1.48,1.89.39,6.19-1.78,7.37-1.1.59-2.51.6-3.57,1.22s-2.32,1.56-2.4,2.46,1.17,2.05,2.11,2.63c3.91,2.43,8.07,4.47,11.87,7.05,4.86,3.29,5.3,9.93,1.19,13.45-3,2.56-5.5,1.9-6.28-1.95a43.05,43.05,0,0,1-.62-8.27c0-3.27-1.57-4.55-4.71-4.51-4.85.07-9.71.11-14.56-.1a7.21,7.21,0,0,1-4.16-1.68c-.36-.31.56-2.44,1.24-3.53,2-3.29,1.44-5.27-1.79-7.49a49.89,49.89,0,0,1-7.81-6.7c-.57-.6-.15-2.77.49-3.79,1.78-2.81,3.92-5.4,5.92-8.07,1.26-1.69,1.53-3.27-.19-4.91-2.87-2.73-2.17-5.82-.71-8.93.94-2,2-1.45,3.1-.1,3,3.85,3,3.85,6.66.27a9.87,9.87,0,0,1,1-.9A4.77,4.77,0,0,1,399.7,452.9Z"/><path d="M283,470l-2.2-.16c-1.67-2.44-3.33-3.46-6.08-1-1.08.95-3.61,1.42-4.75.79s-1.42-2.94-1.42-4.52c0-5.1,3.73-7.91,7.29-10.72,1-.75,2-1.36,4.06-2.7-2.61-1-4.26-2.07-6-2.33-6-.87-8.6-6.3-12.92-9.38a2.21,2.21,0,0,1-.12-2.11,4.11,4.11,0,0,1,2.5-.52c6.85.4,12.16,4.05,16.9,8.52,2.06,1.95,4.07,2.9,6.8,2.29,3.18-.71,5.18.59,6,3.63,1.15,4.15,3,7.67,7.08,9.74,1,.5,1.39,2.12,2.06,3.22a15.63,15.63,0,0,1-3.47,1c-2.65.16-5.33-.17-8,.1C287.69,466.19,284.47,466.59,283,470Z"/><path class="cls-1" d="M412.75,336c-.57,1.84-1.2,3.67-1.71,5.53-.79,2.88-1.8,6,.88,8.33s7.35,2.06,10.42-.06a36.82,36.82,0,0,1,3.82-2.06c.64,3,1.28,6,1.91,9a17.16,17.16,0,0,0-3.32,2.26c-2.19,2.45-4.23,5-6.19,7.66a9.2,9.2,0,0,0-.9,2.77c.84.21,1.67.47,2.52.62a14,14,0,0,0,1.72.08c-.15,2.53-.31,5.06-.46,7.59-2.92-5.11-2.91-5.1-8.33-3.15a4.17,4.17,0,0,1-1,.11c-7.15-6.24-10.3-14.74-13.17-23.37-1.53-4.59-.35-8.12,3.87-10.62C405.94,338.8,409.42,337.52,412.75,336Z"/><path class="cls-1" d="M272.17,355.19c-.32,3.78-.68,7.56-.93,11.35-.09,1.26-.34,2.77.2,3.77,1.45,2.61,3.29,5,5,7.49a45.36,45.36,0,0,0,5.51-4c3.79-3.7,3.15-8.95,4.34-13.57.37-1.43.72-2.86,1.08-4.29,2.12,1.19,4.12,2.2,6.77,1a2.49,2.49,0,0,1,3.73,2.61c-.42,6-.69,12-1.94,17.81-1.19,5.48-6.44,8.5-12.08,8.13-11.67-.77-18.09-9.33-15.32-20.79C269.28,361.39,270.92,358.34,272.17,355.19Z"/><path class="cls-3" d="M392.86,348.59c4.12,5.37,3.65,8.18-2.32,14-3.41,2.34-6.8,2.58-10.14-.13-3.37-5.17-6.78-10.32-10.1-15.52-1.62-2.54-1-4.59,1.24-6.65,1.17-1.08,1.57-3,2.23-4.63.56-1.34,1-2.74,1.48-4.11,1.72,1.65,3.45,3.28,5.16,4.94Q386.65,342.52,392.86,348.59Z"/><path d="M332.65,466.9c-1.58.54-3.18,1-4.75,1.64a24.73,24.73,0,0,0-4.36,1.94c-2,1.26-2.79,3.08-1.58,5.36s3,2.64,5.28,1.71a37.27,37.27,0,0,1,3.57-1.33c3-.88,5.17.72,4.84,3.81a3,3,0,0,1-2,2c-3.24.39-6.57.18-9.78.73-2.5.44-3.65-.25-4.31-2.58-.76-2.66-1.73-5.26-2.58-7.89-1.18-3.64-3.45-5.41-7.48-5.26s-4.06-.57-2.58-4.21c1.32-3.27,1.77-6.89,3-10.22.48-1.36,2.28-3.53,2.84-3.35,2.27.74,4.3,2.24,6.41,3.47-.68.95-1.17,2.17-2.07,2.8-3.14,2.22-3.21,3.31-.16,5.63a14.81,14.81,0,0,0,9.94,3.34c1.92-.09,3.86.54,5.8.85Z"/><path class="cls-1" d="M314.17,333.07c.78-3.07,2.23-5.41,5.57-6.42,4.18-1.27,5.27-5.19,6.68-8.71a22.1,22.1,0,0,0,.74-3c6.24,5.73,12.27,11.25,18.28,16.8.59.54,1.54,1.16,1.56,1.77a15,15,0,0,1-.76,3.6c-1-.47-2.26-.69-2.92-1.44-3.07-3.52-6-7.18-9.61-11.63-.5,2.91-.85,4.95-1.2,7L330,327.55l-.91.15a30.79,30.79,0,0,0-.23,3.71c.11,2.41.53,4.83.53,7.24,0,3-1.24,3.66-4,2.35a14.16,14.16,0,0,1-2.08-1.25C320.29,337.54,317.23,335.3,314.17,333.07Z"/><path d="M436,420.06c.4,2.51.83,5,1.18,7.52.77,5.57-.07,7-5.29,8.76a27.13,27.13,0,0,0-13,8.7c-1.21,1.51-2.39,1.88-4.09.46a7.41,7.41,0,0,0-3.67-1.45c-2.55-.32-3.77-1.26-3.26-4.07s2.15-3.61,4.73-3.1a5.34,5.34,0,0,1,1.29.49c5.29,2.61,6.2,2.25,8.2-3.22,1.45-4,2.74-4.56,6.78-3.64,1.35.31,2.86-.07,4.3-.13a16.18,16.18,0,0,0-.56-4.11c-1.13-2.76-2.82-5.31-3.79-8.12-.68-1.95-2.41-4.54.65-6.06,1.94-1,6.29,2.27,6.73,4.83a17.92,17.92,0,0,1,0,3.11Z"/><path class="cls-3" d="M226.66,357.23c2.75-2.43,5.48-4.87,8.26-7.27,4-3.46,8.51-2,13.82-1.65-2.33,3.13-4.17,5.57-6,8a22.09,22.09,0,0,1-2.42,3.34,11.21,11.21,0,0,1-3.55,2.12c-1.48.56-3.35.4-4.6,1.23-4.47,3-8.76,6.29-13.11,9.47l-2.88.87a.22.22,0,0,0-.35.1l-3.67.23Z"/><path d="M393,327c.62-4.88,4.31-10.52,8.69-11.71a7,7,0,0,1,5.49,1.26c6.09,5.1,5.82,7.25-.84,11.82-1.43,1-2.7,2.47-4.26,2.88a11.68,11.68,0,0,1-6.52.1C394.29,330.94,393.78,328.54,393,327Z"/><path class="cls-1" d="M396.75,405.45c1.08-1.14,2-3,3.29-3.28,3.33-.65,3-2.49,2.74-5a28.39,28.39,0,0,1,.35-6.49c.31-2.85,1.44-4.94,4.72-5.42,1-.15,1.88-1.41,2.81-2.16,1,1.07,1.95,2.13,2.92,3.19q-4.11,8.29-8.25,16.56c-.34.69-.75,1.78-1.29,1.88-3.1.61-3.7,2.28-3.15,5.22.19,1.06-1.25,2.41-1.95,3.63C399.82,410.44,398.18,408,396.75,405.45Z"/><path class="cls-1" d="M437.72,498.38c-.85,1.15-2.11,2.19-2.48,3.48-2.09,7.21-3.43,14.55-2.91,22.12a11.18,11.18,0,0,1-1.4-2.84c-.9-5.2-1.84-10.41-2.35-15.65-.21-2.13.52-4.38,1-6.55a34.84,34.84,0,0,1,1.56-5.59,4.49,4.49,0,0,1,2-2.45c.54-.21,2,.75,2.36,1.51A51.41,51.41,0,0,1,437.72,498.38Z"/><path class="cls-3" d="M393.65,390.61c-3.29-.48-5.25-2.54-3.92-4.81,2.32-3.93-.4-5.54-2.6-7.6l-2.39-5.37c1,.17,2.57,0,2.92.57,2.63,4.32,6.46,3.76,10.45,2.89L398,379l-.06,8.38-2.52,2.24-1.18.62Z"/><path d="M417.88,469c-2.15-1.59-4.21-2.95-6-4.56a3,3,0,0,1-.86-2.59,69.43,69.43,0,0,1,3.28-7.64c1-2,2.25-1.86,3.28,0,1.51,2.72,3,5.46,4.32,8.29C423,464.79,421.08,467.51,417.88,469Z"/><path class="cls-3" d="M413.58,386.29c-1-1.06-1.95-2.12-2.92-3.19-.53-3-2.27-6.18,1.44-8.46a4.17,4.17,0,0,0,1-.11c5.42-1.95,5.41-2,8.33,3.15C421.32,383.48,420.9,383.94,413.58,386.29Z"/><path d="M366.62,489c-3.24,2.76-6.33,5.73-9.79,8.18-1.73,1.22-3.56.07-4.55-1.84a31.31,31.31,0,0,1-1.94-4.05c-.3-.87-.58-2.27-.13-2.76.68-.75,2.38-1.57,3-1.22,4.15,2.44,8.38,1.72,12.7.32Z"/><path class="cls-3" d="M270.09,396.31c2,7.08,4.09,14.15,6,21.26a16.64,16.64,0,0,1,.42,5.13c0,.73-.94,1.41-1.44,2.12-.64-.56-1.63-1-1.85-1.68a88.15,88.15,0,0,1-2.37-9,130.36,130.36,0,0,1-2.15-13c-.19-1.87.68-3.85,1.08-5.77C269.88,395.68,270,396,270.09,396.31Z"/><path class="cls-1" d="M294,406.33c-.7-.91-1.86-1.76-2.07-2.8a106.46,106.46,0,0,1-1.8-11.88c-.1-1.06,1.06-2.23,1.65-3.35,1,.68,2.4,1.16,2.76,2.08a127.21,127.21,0,0,1,4.22,12.09C299.89,406.34,296.34,405.09,294,406.33Z"/><path class="cls-1" d="M348.3,366.51c-1.13.79-1.79,1.56-2.61,1.78-5.35,1.47-13-1.43-15.92-6.06a3.22,3.22,0,0,1-.26-2.79,2.86,2.86,0,0,1,2.68-.72c3.93,1.81,7.74,3.88,11.61,5.82C345,365.13,346.19,365.59,348.3,366.51Z"/><path class="cls-1" d="M398.11,376.29c-4,.87-7.82,1.43-10.45-2.89-.35-.57-1.91-.4-2.92-.57l-4.34-10.4c3.34,2.71,6.73,2.47,10.14.13-.08,2.65-.58,5.36-.12,7.91.41,2.34,2.22,3.77,5,3.77C396.32,374.24,397.21,375.57,398.11,376.29Z"/><path d="M342.22,477.13c.34-.59.75-2.1,1.73-2.83a48.52,48.52,0,0,1,7.08-4.23,2.86,2.86,0,0,1,2.48.38,2.18,2.18,0,0,1,.18,2.15,103.26,103.26,0,0,1-7.79,9C344.68,482.82,342.33,480.42,342.22,477.13Z"/><path class="cls-1" d="M392.86,348.59q-6.23-6.06-12.45-12.13c-1.71-1.66-3.44-3.29-5.16-4.94,1.68-.21,3.9-1.21,4.95-.49a35,35,0,0,1,12.64,15.54A5.46,5.46,0,0,1,392.86,348.59Z"/><path class="cls-1" d="M416.41,436c-2.32-2-5.51-4.12-5-7.32.35-2,3.5-3.74,5.67-5.2.67-.45,2.62.07,3.28.79a3.79,3.79,0,0,1,.52,3.37C419.71,430.36,418.09,432.93,416.41,436Z"/><path class="cls-1" d="M405.67,435c-.09,4-2.4,7.83-4,6.88-2.07-1.24-3.59-3.88-4.59-6.25-.62-1.48,3.84-4.78,6.13-4.76C406.48,430.87,405.33,433.47,405.67,435Z"/><path class="cls-3" d="M421.9,370.09a14,14,0,0,1-1.72-.08c-.85-.15-1.68-.41-2.52-.62a9.2,9.2,0,0,1,.9-2.77c2-2.63,4-5.21,6.19-7.66a17.16,17.16,0,0,1,3.32-2.26C429.37,362.71,425.54,366.35,421.9,370.09Z"/><path class="cls-1" d="M426.41,376.06c1.85,7.66-1.06,14.55-3.13,22.07C420.71,395.34,422.87,381,426.41,376.06Z"/><path class="cls-1" d="M348.27,497.4c-4.33-3.32-8.27-6.25-12.06-9.37-.35-.29,0-2.07.58-2.65s1.75-.51,2.61-.36C342.6,485.58,348.36,493.27,348.27,497.4Z"/><path class="cls-1" d="M335.58,451.08c3.35-1.55,6.6-3.41,10.09-4.55,2.41-.79,3.51,1,3.37,3.37l-12.87,3C336,452.32,335.77,451.7,335.58,451.08Z"/><path class="cls-1" d="M448.92,401.23c-.16-3.83-1.17-7-4.73-9.33-3.05-2-3.44-5.38-2.51-9.1.4.67.77,1.36,1.21,2A51.6,51.6,0,0,0,447.4,391c2.87,3,2.11,6.83,2.75,10.34Z"/><path class="cls-1" d="M326.76,382.57c-1.6-3.52-2-6.67-.17-9.77a2.6,2.6,0,0,1,2.41-.25C330.51,374.58,329.34,380.28,326.76,382.57Z"/><path class="cls-3" d="M396.75,405.45c1.43,2.52,3.07,5,2.19,8.13a20,20,0,0,1-3.59.83c-1.76.08-2.71-1-2-2.66C394.35,409.58,395.61,407.55,396.75,405.45Z"/><path class="cls-1" d="M404.19,421.27l-3.13,4.47c-.88-1.18-2.66-2.6-2.43-3.48.4-1.49,2.08-2.64,3.22-3.93C402.53,419.17,403.2,420,404.19,421.27Z"/><path class="cls-1" d="M309.45,408.36a40.45,40.45,0,0,1,4.8,4.82c.42.57-.5,2.14-.81,3.26-.86-.38-2.1-.53-2.5-1.19a58.21,58.21,0,0,1-2.86-5.89Z"/><path class="cls-1" d="M390.68,428c-1.5-2.05-3.22-3.9-1.06-5.91.64-.59,3.49-.18,3.78.47C394.47,424.84,393.15,426.6,390.68,428Z"/><path class="cls-1" d="M397.9,387.41,398,379Z"/><path class="cls-1" d="M342.32,352.73l1.63,1.56Z"/><path class="cls-1" d="M394.2,390.27l1.18-.62Z"/><path class="cls-1" d="M414.68,333.79l-1.2,1.29Z"/><path class="cls-1" d="M415.45,333.15l-.62.54Z"/><path class="cls-1" d="M416,332.4a.75.75,0,0,1-.34.57C415.74,332.78,415.85,332.59,416,332.4Z"/><path class="cls-1" d="M416.92,331.17l-.56.47Z"/><path class="cls-1" d="M413.37,335.26l-.49.56Z"/><path class="cls-1" d="M215.85,373.46a.22.22,0,0,1,.35-.1l-.14.16Z"/><path class="cls-1" d="M358.36,310.24a93.4,93.4,0,0,1-9.56-1.57,4.11,4.11,0,0,1-2.57-2.65,25.71,25.71,0,0,1,.23-6.66,3,3,0,0,1,2.14-.36,75.33,75.33,0,0,1,10.4,4.53c1.19.69,2,3,1.95,4.52C360.92,309,358.89,309.84,358.36,310.24Z"/><path class="cls-2" d="M264.23,495.81a27.06,27.06,0,0,0,4.62-1.23,23.1,23.1,0,0,0,3.69-2.61,34,34,0,0,0-2.7-2.79c-3.32-2.77-6.93-4.48-11.45-3.1a2.72,2.72,0,0,1-2.43-.79c-2.49-5.94-8.09-4.58-12.68-5.52-1.11-.23-2.43.14-3.4-.3-.58-.27-1.19-2-.89-2.38a87.34,87.34,0,0,1,6.22-7.36c2.24-2.4,3.33-2,4.46,1.11a3.75,3.75,0,0,0,2.52,1.92c1.56.28,3.29-.34,4.81,0a20.52,20.52,0,0,1,5.08,2.2c4.8,2.59,9.41,5.61,14.39,7.8,2.6,1.15,5.47,0,7.27-2.65s3.54-2.46,5.27.19c1.26,1.94,2.76,3.71,4,5.63,2.53,3.78,2.07,5.32-2.26,6.94a45.7,45.7,0,0,1-7,1.92q-6.43,1.32-12.95,2.33c-2.06.32-4.18.27-6.27.39Z"/><path class="cls-1" d="M438.11,378.19l-.69-8.43,1.13-.15c.94,2.73,2.29,5.4,1.27,8.45Z"/><path class="cls-2" d="M474.53,446.14l0,.26-.23-.29Z"/><path class="cls-3" d="M266.18,410.11a15,15,0,0,1-.43,3,5.37,5.37,0,0,1-9.15,2.2,8.36,8.36,0,0,1-1.82-8.72c.33-1.05,1.84-1.83,3-2.48a6.48,6.48,0,0,1,2.38-.31C265.38,403.17,266.17,403.88,266.18,410.11Z"/><path class="cls-3" d="M356.62,414.58c-.76,0-1.85.4-2.22,0-3.28-3.16-6.43-6.45-9.59-9.74-.39-.4-.88-1-.84-1.47.25-2.69.76-5.37,1-8.07.24-3.19,2.32-4.5,4.94-5.56a5.4,5.4,0,0,0,2.51-2.19c1.6-2.85,4.35-5.63,7-4.31s5.66,4.93,6.18,7.93c.83,4.88,3.88,7.35,7.34,9.35,4.85,2.79,5.9,4.41,4.11,9.75-.15.44-.21.9-.32,1.35l0,0c-2.12-.47-1.4-1.82-1.17-3.23a5.79,5.79,0,0,0-.7-2.78,1.8,1.8,0,0,0-1.21,0,5.14,5.14,0,0,0-.51,2.49c1,4.34-.18,7.82-3.31,11-1.44,1.47-2.07,3.73-2.66,6.6l7-2.29c-1.27,6-2.08,6.45-7.46,5-1.61-.43-3.43-.07-5.07-.44a16.75,16.75,0,0,1-4.88-1.93c-.5-.3-.57-1.7-.4-2.51.07-.33,1.3-.42,2-.59a62.37,62.37,0,0,0,6.69-1.84c-3.57-1.13-7.29-2-7.77-6.51,1.05.37,2.16,1.14,3.15,1a36,36,0,0,0,5.45-1.6c-1.12-1-2.07-2.48-3.39-3-1.82-.7-3.92-.69-6.61-1.09Z"/><path class="cls-2" d="M367.34,445.32c-2.86-1.43-5.43-2.33-7.49-3.9-1.12-.85-1.38-2.83-2-4.3,1.73-.51,4.16-2,5.07-1.34,3.47,2.48,5.57.75,8-1.42a8,8,0,0,1,3.73-1.61,2.53,2.53,0,0,1,2,1.28c.23.47-.32,1.92-.71,2-4.92.94-6,5.25-8,8.79C367.61,445.26,367.08,445.55,367.34,445.32Z"/><path class="cls-3" d="M364.39,378c.54-2.86,3.67-6.4,5.57-5.68,1.41.54,3.39,3.47,3.16,3.75a23.32,23.32,0,0,1-5.65,4.91C367.19,381.2,365.45,379.09,364.39,378Z"/><path class="cls-2" d="M356.62,414.58l-.71-4.63c2.69.4,4.79.39,6.61,1.09,1.32.5,2.27,1.95,3.39,3a36,36,0,0,1-5.45,1.6c-1,.13-2.1-.64-3.15-1Z"/><path class="cls-3" d="M365.25,369.3c-2.05,4.16-5.47,7.14-9.18,9.81a2.38,2.38,0,0,1-2.28-.6,2.49,2.49,0,0,1,.34-2.41c3.39-2.63,6.93-5.08,10.42-7.59C364.78,368.78,365,369,365.25,369.3Z"/><path class="cls-3" d="M373.1,384.89l3.24,3.41c-1,.77-2,2.2-2.9,2.11s-1.91-1.58-2.33-2.67C370.93,387.26,372.1,386.27,373.1,384.89Z"/><path class="cls-3" d="M376.69,411.65c1,1.3,2.69,2.57,2.72,3.88s-1.72,2.51-2.69,3.77l-1.13-.53,1.14-7.15Z"/><path class="cls-3" d="M340.23,391.71a8.5,8.5,0,0,1,2.07-1.35c.27-.08,1.14.77,1.08.89a3.86,3.86,0,0,1-1.28,1.65C341.87,393,341.14,392.32,340.23,391.71Z"/></svg>