<svg id="frame16" xmlns="http://www.w3.org/2000/svg" viewBox="0 0 720 720"><defs><style>.cls-1{fill:#a52b48;}.cls-2{fill:#7d182d;}.cls-3{fill:#430d15;}.cls-4{fill:#977c35;}</style></defs><title>Frame 16</title><rect width="720" height="720"/><path class="cls-1" d="M371.18,483.61c-.23,2.38-.83,4.79-.65,7.14.87,11.4,2.12,22.78,2.92,34.19,1.17,16.71,2.24,33.44,3,50.17,1.53,32.4-.9,64.69-3,97-.94,14.42-2,28.83-2.86,43.25a26.49,26.49,0,0,0,.52,4.66H343.38c.54-6,1.17-11.91,1.61-17.88,1.74-23.75,3.62-47.49,5.07-71.26a550.53,550.53,0,0,0,0-72.09c-1-13.95-1.73-27.92-2.73-41.88-.15-2.1-1.07-4.16-1.63-6.23l-8.9,1.91a14.37,14.37,0,0,1,2.1-3c2.18-1.87,4.78-3.31,6.77-5.35,3.48-3.58,7.39-7.06,9.73-11.34s3.11-9.57,4.47-14.43c.56-2,1.66-2.53,3.25-1.33C365.9,479.19,368.51,481.44,371.18,483.61Z"/><path class="cls-2" d="M524.84,211c12-3.81,23.58-3.92,33.93,4.67,1.69,1.4,3.39,2.79,5.16,4.08,7.12,5.16,8.64,12.76,7.92,20.62-1.52,16.76-8.77,31.3-19.79,43.74-7.55,8.52-16,16.22-24.07,24.31-1.29,1.3-2.45,2.74-3.66,4.11-5.53,2.81-11.38,5.13-16.47,8.57-4.52,3.05-8.25,7.27-12.21,11.1-1.78,1.73-3.13,3.8-1.56,6.45.23,1.66.47,3.32.71,5-.56.93-1.11,1.87-1.87,3.14l11.31,2.88.22-.63-5.39-3.59c1.19-.49,2.4-1.46,3.57-1.4,5.5.26,11,.85,16.48,1.22,3.38.23,4.1-.85,4.53-4.07a14.08,14.08,0,0,1,2.62-6.31c1.49-2,3.83-3.29,5.62-5.07,2.14-2.15,1.84-3.95-1.06-4.36-3.65-.52-7.43-.1-11.15-.08,5.64-3.66,12-3.95,18.33-3.37,12,1.1,24,2.8,35.67,6.25a16,16,0,0,0,3.41.26l.36-1.09a29.15,29.15,0,0,0-10.69-6.17c1,0,2.19-.36,2.94.06a81.75,81.75,0,0,1,10.23,6.36c3.59,2.81,3.48,5.57-.21,8.13-9,6.24-18.15,12.26-27.25,18.35-.67.45-1.43.77-2.09,1.24-3.22,2.31-3.2,4.08,0,6.35,5.93,4.16,12.15,8,17.76,12.52a102.65,102.65,0,0,1,28.21,35.07c3,6.21,5,12.9,7.14,19.48.35,1.07-.74,3-1.71,4-12.09,12.76-27.49,18.49-44.57,19.59-17.77,1.14-35.35-.12-51.82-8L503,441.66c1.94.15,3.07.15,4.17.32,5.24.82,10.21.75,15-2.23,2.56-1.59,5.74-2.18,8.64-3.21,1.9-.67,3.81-1.32,5.72-2a37.52,37.52,0,0,0-2.73-5.18c-4.19-5.65-2.06-12,4.56-14.12a20.25,20.25,0,0,0,6.86-3.82c3.07-2.61,6.26-4.2,10.38-3.86,1,.08,2.06-.55,3.09-.86a22.18,22.18,0,0,0-1.72-3.49c-.42-.59-1.36-.83-2.08-1.19-8.49-4.21-17-8.35-25.47-12.64-4.54-2.3-7.41-8.71-7.18-13.91a14.68,14.68,0,0,0-1.72-7.73c-1.72-2.92-3.26-5.51-2.11-9,.75-2.27-.4-3.61-2.58-4-3.4-.57-6.82-1-10.23-1.44a28.2,28.2,0,0,0-3.78.8,44.77,44.77,0,0,0-4.23,1.94l2-4.42c-1.78-.6-3.57-1.69-5.35-1.68-2.25,0-4.48.94-6.74,1.39-1.35.26-2.73.36-4.1.53L483,351c.81-1,1.56-2.12,2.45-3.09,3.06-3.34,3.14-3.4-.66-6.08-2.32-1.64-2.16-3.06-.07-4.58s3.17-3.15,2.11-5.91c-.24-.64,1.07-2.7,1.8-2.78,7.34-.74,12.86-4.54,18-9.54,2-1.91,3.5-3.59,3.31-6.41,2.07-1.63.21-2.35-.83-3-3.06-1.78-6.2-3.39-9.31-5.08,3.16-8.69,8.84-15.84,14.59-23.21-2.47-.25-4.72-.36-6.62.39-8.43,3.31-17,5.69-26.15,5.12a13.78,13.78,0,0,1-3.52-1.22c0-.7,0-1.4,0-2.1,1.65-1.89,3.39-3.7,4.93-5.67,1.82-2.34,3.24-5,5.26-7.17,3.58-3.76,7.6-7.1,11.18-10.85A21.11,21.11,0,0,0,503,254c.2-.43-1.23-2.31-1.72-2.24a101,101,0,0,0-12.13,2.32c-4.2,1.14-8.27,2.76-12.39,4.17l11-26.8c-3.4-1.11-4.94-.43-6.56,3-2,4.36-4.2,8.67-6.27,13-1.52,3.21-3.81,6.36-4.24,9.73A25,25,0,0,1,466,268.82c-1.38,1.95-3.18,4.71.36,6.76.05.34.09.69.13,1l-14.46.81c1.72-2.28,1.45-3.59-1.62-4.22a62.26,62.26,0,0,1-7.3-2.47c4.25-2,8.19-3.83,12.06-5.78s5.7-5.51,6.3-9.42c.24-1.55-1.21-3.81-2.57-4.94-.54-.45-3.1,1-4.35,2.06-1,.82-1.36,2.36-2,3.6-1.14,2.36-2.67,2.78-5.06,1.56a12.34,12.34,0,0,0-5.49-1.54c-3.54,0-7.06.65-10.59,1,.23-4.33.19-8.72,1.87-13.48,2,2.41,2.76,6,6.09,3.56a11.13,11.13,0,0,1,9.18-1.93c2.21.42,3.69-.53,4.67-2.65,2.21-4.81,4.39-9.65,7-14.28,3.51-6.37,7.13-12.74,13.33-17.06,3.12-2.16,6.23-4.34,9.24-6.65,1.56-1.2,2.82-1.52,4.05.3,1.5,2.2,2.82,1.7,3.79-.39,2.18-4.69,4.8-9.26,6.26-14.18A134,134,0,0,0,502,167.65c.82-7.41.06-15,0-22.53a18.41,18.41,0,0,0-.48-4.12c-2.78-11-8-20.65-16.67-28.11-2.41-2.06-5.69-3.14-8-5.26-6-5.42-13.24-5-20.29-4.58-5.24.35-10.46,1.81-15.55,3.25-7.89,2.21-14.62,6.45-19.11,13.47a126.68,126.68,0,0,0-8.2,14.77c-3.39,7.28-6.27,14.79-9.4,22.18-.44,1-1.11,2-1.59,3-.8,1.73-1.59,3.47-2.28,5.25-.53,1.38-.87,2.83-1.31,4.24-.55,1.72-1.66,3.47-1.57,5.15.82,13.92,1.85,27.82,2.88,41.73,0,.61.72,1.17,1.62,2.53.62-2.12,1.28-3.37,1.33-4.65.21-6.58.24-13.16.39-19.74.07-3.55.29-7.09.36-10.64,0-2.14.91-2.61,3.06-2.53a5.91,5.91,0,0,0,4.27-2c1.85-2.32,3-5.2,4.69-7.65,4.68-6.69,9.5-13.27,14.28-19.88a2.68,2.68,0,0,1,.78-.68c3.33-2.06,6.8-3.93,10-6.22a39,39,0,0,0,6.12-5.87c1.13-1.27,1.55-3.2,2.74-4.38a31.13,31.13,0,0,1,5-3.4,39.28,39.28,0,0,0,2.54,4.24c.8,1,2,2.68,2.91,2.58,4.88-.52,9.21-2.21,11-7.43.22-.63.48-1.25.71-1.87,2.54,10.24-.23,19.32-1.81,28.43-1.51,8.71-2.5,17.38-1.83,26.18a5.57,5.57,0,0,0,2.69,3.87c4.07,1.93,4.62,2.49,3.56,7-.78,3.35-2.5,6.73,2.19,9.6-17.09,9.07-32.89,18.51-45.77,33.19-.8-2.09-1.25-3.22-1.65-4.37-1.88-5.33-3.74-10.68-5.63-16-.8-2.24-2.12-3.73-4.7-2.45-8.82,4.39-17.54,9-24.42,16.25-2.32,2.44-5.52,4.82-4.85,9.09a45.73,45.73,0,0,1,.8,7.53c0,3.4,1.24,5.56,4.57,6.39,3.7.91,7.44,1.67,11.09,2.75a4,4,0,0,1,2.53,2.38c.12.76-1.33,1.77-2.09,2.67-1.74-3.91-5.35-3.46-8.65-3.64-5.83-.32-9.24-3.16-10.21-8.82-.91-5.31-1.39-10.7-2.56-15.94-1-4.51-2.64-5-7-3.18-1.12.46-2.33.71-3.5,1.06,0-1.41.34-2.23.93-2.55,6-3.31,9.13-9,12.08-14.78,1.21-2.38.6-4.08-2-4.61a8.53,8.53,0,0,0-3.4.2c-4.3.9-5.3.11-5.78-4.31a51.88,51.88,0,0,0-1.54-8.5c-.3-1-1.76-1.73-2.69-2.58a16,16,0,0,0-1.83,3,6.7,6.7,0,0,0,.07,2.74c.61,5.51,1.38,11,1.77,16.52.1,1.45-.52,3.75-1.56,4.35-2.92,1.66-3.48,3.82-2.65,6.69a12.3,12.3,0,0,1-1.33,10.32c-.81,1.33-.86,3.1-1.46,4.58-1.12,2.72-2.39,5.38-3.6,8.06l-1.22-.53c.72-3.11,1.68-6.19,2.12-9.34,1.07-7.74,0-8.94-7.74-9.22-2.48-.09-4.71.39-5.73,2.95a5.71,5.71,0,0,0,1.4,6.69c1.26,1.18,2.7,2.16,4,3.29,1.82,1.55,1.39,2.89-.68,3.54-2.62.82-5.12.87-7.4-1.34a45.7,45.7,0,0,0-6.59-5,6.44,6.44,0,0,0-8.08.46c-2.44,2.1-6.16,3.84-4.62,8.39a23.23,23.23,0,0,1,.57,4.77l-.63.81c-5.05-3.84-9-.38-13.22,1.25-2.19.85-2.71,2.63-2.2,4.84a16.89,16.89,0,0,0,6.44,9.59c.76.6,1.46,1.27,2.77,2.41-1.94.7-3.21,1.59-4.4,1.5a50.23,50.23,0,0,1-8.88-1.41c-6.54-1.69-10.3,0-12.92,6.18-.62,1.43-1.45,2.78-2.19,4.16l-1.17.15-7.43-18.17,1-.74a31.87,31.87,0,0,0,3.15,3.11c1.55,1.19,3.28,2.16,4.93,3.22.4.65.81,1.29,1.22,1.94.84-.86,2-1.56,2.48-2.58,3.85-8,7.64-16,11.29-24.08,1.33-3,3.22-3.4,5.82-2,2.43,1.33,4.75,2.86,7.21,4.13a14.91,14.91,0,0,0,3.31.87c0-1.19.06-2.37,0-3.55-.05-2.08-.71-4.35-.1-6.2,1.08-3.25,2.39-6.72,4.58-9.25,3.48-4,7.7-7.42,11.76-10.9.74-.63,2.2-.46,3.34-.59,6.43-.72,10.22-4.81,10.67-11.23a5.59,5.59,0,0,1,1.62-3.13c5.3-5.47,10.39-11,12.13-18.79,1-4.28,2.16-8.51,3-12.82.19-1-.66-2.13-1-3.21,1.78-4.24,3-8.86,5.49-12.59,2.24-3.3,5.71-6,9.12-8.14,1.31-.83,4.46-.17,5.91.93,2,1.54,3.19,4.16,4.78,6.27.85,1.14,1.82,2.18,2.74,3.27,1-1.15,2.43-2.13,3.05-3.48,2.63-5.63,4.72-11.53,7.58-17,3.5-6.74,7.46-13.26,11.43-19.76,4.36-7.13,11-11.58,18.77-14,9.48-3,19.22-4.78,29.36-3.68,4.12.44,6.89,2.75,10.14,4.69,12,7.15,18.66,18.3,23.37,30.84,1.32,3.5,1.55,7.45,1.94,11.24.56,5.51,1,11.06,1.16,16.6.3,10.83-2.88,21-6.71,30.93-2,5.14-5.49,9.69-7.41,14.85-1.58,4.24-2,9-2.58,13.5-.33,2.65,1.41,3.3,3.55,2,4.21-2.6,8.11-5.82,12.54-7.94,6-2.87,12.33-4.95,18.52-7.37a14.25,14.25,0,0,1-2.58,1.71,107.79,107.79,0,0,0-22.38,12.29,56.06,56.06,0,0,0-6,4.64,3.51,3.51,0,0,0-.92,3c1.23,3.32,2.76,6.55,4.27,9.77,1.09,2.33,2.83,2.68,5.18,1.71,2.11-.87,4.39-1.36,6.58-2,2.86-.9,5.77-1.69,8.56-2.78,7.62-2.95,15.16-6.1,22.8-9,1.06-.4,2.52.27,3.79.44-.39,1.26-.45,2.82-1.25,3.72-2.06,2.33-4.58,4.25-6.64,6.58a30.66,30.66,0,0,0-3,4.95,32.85,32.85,0,0,0,5.56-.56c3.74-1,4.45-.72,4.33,3.06-.08,2.44.79,3.36,3.23,3.25a13,13,0,0,1,3.47.82c-.42,1.37-.52,2.94-1.29,4.07-6.3,9.19-13,18.16-19,27.51-3.05,4.69-5.17,10-7.56,15.1-.68,1.44-1.53,4.25-1.12,4.49a11.77,11.77,0,0,0,5.74,1.7,6.76,6.76,0,0,0,4.42-1.77c6.84-6.65,13.79-13.24,20.15-20.34,5-5.62,9.92-11.54,12.49-18.88a3.75,3.75,0,0,1,.61-.84c5.17-7.3,6.5-15.92,8.32-24.37a9.14,9.14,0,0,0-.26-3.09,24.77,24.77,0,0,0-8.55-15.43c-6.83-5.85-13.84-11.33-23.64-10.59C534,210.39,529.41,210.7,524.84,211ZM373.93,166.47q3.21-4.66,6.43-9.34l-1.11-.65c-3.49,2.31-4.3,6.22-5.31,10l-.84,1.32.46.18ZM552.57,380.74l-1.15.47a45.68,45.68,0,0,0,3,3.89c3,3.17,6.07,6.24,9.08,9.38a22.92,22.92,0,0,0,2.21,2.63q11.14,8.53,22.4,16.91a12.59,12.59,0,0,0,3.7,1.85c2,.6,3.25-.43,2.46-2.32-2.23-5.31-4-11.08-7.4-15.58a200.49,200.49,0,0,0-18.45-20.55c-3.09-3.11-7.08-5.41-10.94-7.6-1.12-.65-3.26.11-4.76.69-.62.24-1.11,1.71-1.07,2.59C551.8,375.66,552.24,378.2,552.57,380.74Zm-30,66.48c0,.59,0,1.17,0,1.75,5.56.51,11.13,1.44,16.7,1.43,8.06,0,16.12-1,24.18-1,9.86,0,18.05-4.42,26.27-8.91.83-.45,1.2-1.75,1.78-2.65-1-.15-2.11-.63-3.05-.41-7.53,1.69-14.89,4.36-22.82,3.57a10.21,10.21,0,0,0-2.71.52c-3,.58-6.1,1.13-9.15,1.72q-6.94,1.32-13.89,2.68a54.56,54.56,0,0,1-6.76,1.24C529.57,447.38,526.05,447.22,522.54,447.22Zm44-105c-.55-.31-.75-.53-.92-.51-12.67,1.84-25.33,3.65-38,5.6-1.11.18-2.07,1.3-3.1,2a30.64,30.64,0,0,0,3.43,2.4,6.41,6.41,0,0,0,2.39.19c5.6.33,11.19.69,16.79,1a5.25,5.25,0,0,0,2.69-.43c4.2-2.35,8.33-4.78,12.45-7.25C563.7,344.33,565,343.3,566.52,342.24Z"/><path class="cls-3" d="M301.45,474.81c-4.63.9-9.41,1.35-13.87,2.78-16,5.12-31.73,3.74-47.39-1.43-2.33-.77-3.15-2.27-2.3-4.55,1.89-5.07,3.91-10.1,5.76-15.19a32.75,32.75,0,0,0,.94-4.57,34.32,34.32,0,0,0-5-.08c-2.5.31-5,.93-7.44,1.41.79-1.6,1.24-3.26-1-3.91-6.77-1.94-13.58-3.83-20.75-2.54s-14,2.76-21.06,3.94c-4.5.76-7.26-2.7-5.82-6.94.48-1.42.93-2.86,1.4-4.29,1.65-5.12.59-6.6-4.68-6.54s-8.77-3.54-8.35-8.75c.39-4.78,2.05-8.94,6.11-11.94,1.84-1.37,4.37-2.87,4.88-4.77,2-7.25,7.24-10.6,13.4-13.68,4-2,7.52-5.19,11.24-7.85a6.33,6.33,0,0,0,1.37-1.06c.64-.84,1.16-1.79,1.72-2.69a13.83,13.83,0,0,0-3.13-.93,15.06,15.06,0,0,0-3.43.43c-3.76.62-7.51,1.46-11.3,1.84-6.78.7-13-.16-17.26-6.59-.94-1.43-3.2-2-4.91-2.9-2.86-1.44-5.85-2.62-8.63-4.2-2.29-1.3-4.27-3.12-6.52-4.52-2.53-1.57-3.95-3.65-3.27-6.63s3.18-2.63,5.55-2.86c1.18-.12,3.05-1.45,3.2-2.45.55-3.58.47-7.25.67-10.89.22-4.19,2.18-6.66,6.28-6.84a59.34,59.34,0,0,1,12,.65c7.64,1.24,15.16,3.32,22.83,4.24,8.13,1,16.38,1,24.57,1.51,2.5.15,5.34,0,5.74,3.58l-7.07,4.94c-2.33,2-4.59,4.09-7,6-2.71,2.1-3,4.06-.66,6.58a28.27,28.27,0,0,0,3.49,2.74l1.71,2,1.37,1.67,1.21.77a.7.7,0,0,0,.38.36l1.74,1.52,3.48,3,5.9,5.19-.4.7c-3.94.56-8,.76-11.79,1.8-2.61.72-4.69,2.64-3.14,6.11a2.85,2.85,0,0,1-.92,2.53c-3.43,2.47-7,4.79-10.55,7.06s-3.7,4.87-.08,6.66c4.52,2.23,9.25,4.07,13.91,6,3.56,1.49,4.48,3.16,3.24,6.77a85.38,85.38,0,0,1-3.21,8c-1.38,3-1,5.46,2,6.61a31.25,31.25,0,0,0,10.33,2.33c5,.09,10.1-.7,15.15-1.2,5.48-.55,10.57-1.57,11.6-8.44.28-1.88,1.42-3.65,2.27-5.42,3.35-6.92,4.27-7.48,11.82-6.29,3.55.55,6.94.81,9.83-1.75.7-.62,1.63-1.66,1.5-2.33a3.09,3.09,0,0,0-2.13-1.84c-7.38-1.3-11.14-6.17-12.59-13-.95-4.5-1.3-9.14-1.84-13.74-.33-2.82,1.12-4,3.88-4a70,70,0,0,0,8.32-.11,5.6,5.6,0,0,0,3.72-1.8c.41-.58-.56-2.51-1.34-3.47-1.6-2-2.26-3.91-1.43-6.4a17.39,17.39,0,0,0,.66-4.08c.33-4.1,1.55-5.39,5.62-6.19a40.92,40.92,0,0,0,6.67-1.76c2.67-1,4.47-2.9,4.39-6-.06-2.47-1.07-3.84-3.73-2.66-2,.92-3.85,1.08-5.77-.52-2.59-2.16-4.46-1.86-5.6,1.26-2.41,6.58-8.18,10.17-12.62,14.92-1.74,1.88-3.46,1.73-4.83-.94-.79-1.53-2.43-2.63-3.68-3.92l-1.19.57c0,2.83,0,5.67,0,8.5-.09,6-1,12-4.72,16.74-2.72,3.43-2.92,6.28-.5,9.66a6.73,6.73,0,0,1,1.11,2.14,15.71,15.71,0,0,1,.17,2.84c-1,0-2.14.3-2.94-.11-2.25-1.14-4.36-2.56-6.51-3.89-2.93-1.81-5.93-3.51-8.73-5.5a74.82,74.82,0,0,1-5.74-5l.62-.46,1.7.78.09.08,4,2.4c2.26,2.34,4.46,1.93,6.64-.12,1.26-1.18,2.47-2.43,3.8-3.54,6.48-5.41,8.22-12.73,8.22-20.68,0-3.08-.94-3.48-3.59-2-6.52,3.54-13.62,4.88-20.92,5.24a9.47,9.47,0,0,1-4.72-.77,4.2,4.2,0,0,1-1.9-3.28c.4-4.9,3.58-7.5,8.13-8.65a44.76,44.76,0,0,1,20.59-.08c1.73.37,3.24.83,3.72-1.54,1,.66,2,1.65,3.18,1.88a16.83,16.83,0,0,0,4.29-.19l1.43.25.26,1.55,1.14,4.64c1.26-.64,2.85-1,3.71-2a66.54,66.54,0,0,0,5.75-7.71c3.46-5.36,3.35-5.3-2.39-7.57-2.87-1.14-5.82-2.46-6.25-6.19l.93-.86.53-.44,5.34-2c2.31.11,4.62.38,6.91.28,4.63-.19,8.75.55,11.24,5v5.67l12.54-7.59c.27,1,.53,2.08.8,3.12.66.75,1.23,2,2,2.13,1.14.23,2.44-.31,3.67-.52l1.16-.12,2.86-.08c3.76,2.28,2.05,5.44,1.36,8.44l-2,0a.62.62,0,0,0-.5,0l-9.34-1.53-4.65-1.25a17.89,17.89,0,0,0-.7,4.09c.14,3-1,5-3.84,6.11a37.32,37.32,0,0,0-4.14,2.2l-5,1.62c-3-.49-4.54.93-4.93,3.81-.57,4.34.83,7.59,3.45,8.42s5.33,1.88,8,2.83c.64.11,1.85.35,1.86.31.7-3,1.4-6,1.85-9.1a2.76,2.76,0,0,0-1.05-2.28c-2.59-1.5-2.18-3.17-.61-5.07,6.83-2.91,6.83-2.91,10.22,3l1,3.28,3.54-4.21c2.54.11,5.17-.17,7.58.45,1.5.39,2.66,2.13,4,3.26-1,1.13-1.83,2.54-3.05,3.31a27.84,27.84,0,0,1-4.78,2c1.35,2,2.44,3.65,3.54,5.28l-1.48.41-4,.87v1c1.69.58,3.38,1.19,5.09,1.74,4.45,1.44,5.52,4.74,2.82,8.57-.72,1-1.29,2.15-1.92,3.22l-9.24,4.91-3.24,2.08a15,15,0,0,0,2.32,3.09c5.46,4.37,11.92,3.29,18.2,3.15l2.1,2.29.86-.44c-.5-2.65-1.36-5.3-1.42-8-.09-3.27-3.27-4.1-4.35-6.48a6.83,6.83,0,0,1,.83-2.23c.95-1.11,2-2.49,3.27-2.84.6-.17,2.26,1.63,2.61,2.78.75,2.47,2.27,3.24,4.61,3.88,4.62,1.27,10.46.28,12.89,6.19l-7.56,7-1.75,2.79c1.54,0,2.48.29,3,0,5.2-3,8.41-.24,11.21,3.73,2.63,3.74,7,2.18,10.47,3.41.19.07.94-1.44,1.43-2.21.5-1.83.5-4.1,1.62-5.39,1.85-2.15,4.4-3.68,6.69-5.44a17.3,17.3,0,0,1,20-1.29c0,.85.05,1.69.07,2.54l-4,1.81c-1.9-2.21-3.83-1.56-5.12.42a45.59,45.59,0,0,0-3,6.54c-1.21,2.27-4.27,3.78-2.91,7.1.78,1.27,1.31,2.86,2.4,3.77,3.6,3,5,6.89,3.25,10.07-4.5-6.64-5.52-7.15-9.89-5l-1.31-.59-1.27-.56c-1.13-1.13-2.08-2.65-3.44-3.28-1.17-.54-3.27-.63-4.13.09a69,69,0,0,0-6.43,6.69l-7,6.15.29.91H368.4c5.27,1,10.66,1.66,15.8,3.16,6.5,1.9,6.25,2.09,10.05-3.28C399,429.5,403,422.1,410.73,418c1-.52,1.62-2.21,1.84-3.46A25.8,25.8,0,0,1,423.8,397c-.63,1.3-1.19,2.64-1.92,3.88-2.91,5-7.46,9.11-7.87,15.47-.08,1.2-1.52,2.45-2.55,3.44-3.23,3.09-7.15,5.65-9.72,9.19a65.5,65.5,0,0,0-7.4,14c-1.38,3.41-3.29,4.79-6.83,5.11-3,.28-6.22,1.31-6.3,5.19-.06,3.53-.39,7.41.87,10.54,1.67,4.15,4.76,7.72,7.23,11.54l-.66.72c-6-3.59-12.17-1.93-18,.3-4.46,1.7-8.86-.37-9.52-5.1a26.35,26.35,0,0,0-1.75-5.08l-1.43,0c-1,2.38-2.34,4.68-2.9,7.16a87.16,87.16,0,0,1-10.4,25.17c-2.27,3.86-5.8,5.1-9.25,7.16-5.83,3.47-6.84-1.59-9.35-4.24a3.91,3.91,0,0,0-.77-.7c-2.82-1.64-4.1-4.25-4.68-7.32l2.34-10.86c.32-1,.63-2,.95-3l.28-2c2.18-6.52,4.39-13,6.51-19.57.16-.51-.28-1.71-.61-1.78a3.34,3.34,0,0,0-2.49.31c-3.94,3.1-8.74,5.14-11.25,10-1.38,2.65-4.14,2.71-5.52.3-.91-1.6-1.11-3.65-1.44-5.53a11.33,11.33,0,0,1,.21-2.76l-1.14-.69-1.14,3-1.39-1.11c2.61-3.81,5.28-7.58,7.78-11.45a6,6,0,0,0,1.13-3.67c-.1-.76-1.81-2-2.47-1.84a5.42,5.42,0,0,0-2.83,2.47c-2.36,4.09-5.39,6.91-10.49,6.48,3.58-1.7,3.41-4.21,2.66-7.79-1-4.95-.78-10.15-1.09-15.25a56.23,56.23,0,0,1,2.55,6c.62,2,1.06,4.66,3.58,4.1,1.46-.32,3.29-2.69,3.47-4.3.55-5-.55-9.68-4.81-12.94-1.19-.91-2.82-1.24-4.25-1.83l-1.17,4.3-2.19,4.18c-.09-.68-.21-1.36-.28-2.05-.78-7.06-4.53-9.38-11.32-7-.54.19-1.24.23-1.61.6-1.2,1.24-2.88,2.46-3.21,3.95-.21,1,1.45,2.58,2.56,3.56,1.89,1.66,4.15,2.89,6,4.58,1.54,1.41,2.8,1.82,4.51.43a12,12,0,0,1,2.45-1.24c-2.05,5.36-11.8,12.28-17.39,12.25a3.77,3.77,0,0,1-2.21-.72c-2.16-1.78-3.85-11.87-2.4-14.37,2-3.43,4.09-6.79,6.22-10.3-1.88.2-3.89.47-5.91.61-6.44.44-8.75,2.54-9.83,9-.08.74-.17,1.48-.25,2.23l-.64,1.21a8.43,8.43,0,0,1-3.64,8.86c3.29-1,4.86-.19,5,2.82l1.93,4c2.29,1.24,4.45,2.89,6.9,3.65,5.39,1.68,10.85,3.78,16.63,1.43l7.7.15C300.66,459.48,302.87,466.94,301.45,474.81Zm42.83-39.52c-.06-.52-.12-1.05-.17-1.57-1-3.92-1.7-7.93-3-11.75-1.92-5.73-3.05-6-8.32-2.62-2.1.74-3.48,0-4.25-2.05l1.29-6.17-.89-.53-4.08,3.82-7.82,2.16a18.41,18.41,0,0,1,2.4-2.2c1-.61,2.22-.78,3.12-1.45a13.11,13.11,0,0,0,2.08-2.51,11.69,11.69,0,0,0-2.83-1.41c-1.46-.29-3-.08-4.49-.31-4-.64-9.27-4.84-9.79-8-.72-4.34,2.69-6,5.47-8,4.75-3.47,4.88-3.89,1.77-8.91-2.08-3.36-3.37-6.58-1.93-10.75.6-1.72-.32-4.31-1.26-6.14s-3.13-2-4.13,0c-1.81,3.68-3.77,7.52-1.94,11.83,1.11,2.59.65,4.25-2,5.61-1.46.74-3.17,2.37-3.43,3.83-1.14,6.44-2,12.95-2.48,19.46-.11,1.32,1.44,2.89,2.46,4.14,1.3,1.58,3.29,2.72,4.18,4.45,1.3,2.51,3,3.7,5.7,3.64a5.15,5.15,0,0,0,5,4.11c3,.18,4.46,1.87,5.21,4.68.35,1.32,1.23,3,2.34,3.52,5.47,2.62,11.08,5,16.69,7.32C343.68,441.45,344.9,440.39,344.28,435.29ZM354,464.67l-.88-.19c0-1.85,0-3.7,0-5.54-.05-3-1.8-4.66-4.49-5.43-7-2-12.8.72-15.75,7.43-2.18,4.93.84,12.34,5.74,14.29,2.88,1.14,5.78,2.3,8.53,3.71,1.92,1,3.12.76,3.66-1.32C352,473.32,353,469,354,464.67ZM349,442.24l-2.31,1.36c.54.88.91,2.35,1.65,2.56,9.11,2.69,12.61,9.71,14.62,18.12.35,1.49,1.85,3.86,2.73,3.81a6.6,6.6,0,0,0,4.76-2.61c2.75-4.64,5.05-9.55,7.33-14.45.74-1.58.48-3.27-1.76-3.69Zm-55.86-36.33,1.7-.63c0-4.16.14-8.34-.13-12.49-.05-.74-1.73-1.76-2.79-2-4.45-.91-4.91-1.66-3-5.88.33-.73.74-1.44,1-2.2.92-2.45-.17-3.57-2.57-3.52-2.66.05-5.31.22-8,.42-2.33.17-3.36,1.82-2.19,3.57C282.38,390.87,287.8,398.36,293.12,405.91Zm55.71,31.8c2.3-1.14,4-1.69,5.31-2.71a39.26,39.26,0,0,0,4.68-4.62c2.36-2.59,2.11-4.91-1.14-6.32a45.34,45.34,0,0,0-9.95-2.77c-.66-.12-2.41,1.79-2.41,2.77a48.31,48.31,0,0,0,1,9.59C346.58,435,347.86,436.22,348.83,437.71Zm-98,31.12a24.44,24.44,0,0,0-2.73-3.58,5.17,5.17,0,0,0-3.24-1.48c-3.32,0-7.34,6.71-6,9.75.13.31.38.71.64.78,3.54.9,7.09,1.75,10.24,2.51Zm4-117.81c-3,.32-5.93.31-8.67,1.07-1.58.44-2.82,2.12-4.21,3.24,1.54,1.13,3.08,3.21,4.61,3.21a34.34,34.34,0,0,0,10.15-1.83c1.35-.43,2.24-2.32,3.34-3.55-1.32-.65-2.63-1.32-4-1.93A4.6,4.6,0,0,0,254.85,351Z"/><path class="cls-3" d="M509.9,312.59c.19,2.82-1.36,4.5-3.31,6.41-5.11,5-10.63,8.8-18,9.54-.73.08-2,2.14-1.8,2.78,1.06,2.76,0,4.41-2.11,5.91s-2.25,2.94.07,4.58c3.8,2.68,3.72,2.74.66,6.08-.89,1-1.64,2.05-2.45,3.09l.43.91c1.37-.17,2.75-.27,4.1-.53,2.26-.45,4.49-1.39,6.74-1.39,1.78,0,3.57,1.08,5.35,1.68l-2,4.42,0,0c-3.61,1.44-7.34,2.67-10.78,4.46-.92.48-1.64,2.9-1.26,4a9.17,9.17,0,0,1-.32,6.9c-2.3,5.71-4.22,11.59-6.09,17.46-.29.9.48,2.13.76,3.2a20,20,0,0,0,1.88-2.35c1.41-2.4,2.62-4.93,4.1-7.28a30.44,30.44,0,0,1,3.11-3.63l.44-.64c.34-.46.67-.92,1-1.39,5-6.41,10.2-12.68,13-20.5a13.85,13.85,0,0,1,2.19-3c3.41.47,6.83.87,10.23,1.44,2.18.37,3.33,1.71,2.58,4-1.15,3.5.39,6.09,2.11,9a14.68,14.68,0,0,1,1.72,7.73c-.23,5.2,2.64,11.61,7.18,13.91,8.45,4.29,17,8.43,25.47,12.64.72.36,1.66.6,2.08,1.19a22.18,22.18,0,0,1,1.72,3.49c-1,.31-2.09.94-3.09.86-4.12-.34-7.31,1.25-10.38,3.86a20.25,20.25,0,0,1-6.86,3.82c-6.62,2.08-8.75,8.47-4.56,14.12a37.52,37.52,0,0,1,2.73,5.18c-1.91.66-3.82,1.31-5.72,2-2.9,1-6.08,1.62-8.64,3.21-4.8,3-9.77,3.05-15,2.23-1.1-.17-2.23-.17-4.17-.32l2.46,2.78c-3.74-.34-5.34,1.16-5.38,5.12,0,2.41-.4,5.67-4.44,5.13l-3.33-2-1.09-.75-1-.5c-1.15-1.25-2.27-2.54-3.47-3.76q-4.69-4.81-9.47-9.57c-.68-.69-1.48-1.27-2.22-1.9-.55.94-1.47,1.84-1.57,2.83-.28,2.56-1.68,3.82-3.94,4.72-4.7,1.89-9.28,4.1-14,5.91-1.51.58-3.35.35-5,.45-2.78.15-5.56.26-8.34.4l0,1.14c4.49,1.52,8.89,3.48,13.9,2.85l4.41.39.09,0,9.9.57c-6.18,0-12.36.16-18.54.09-3.69-.05-7.37-.48-11.05-.55-.86,0-2.33.59-2.46,1.15a3.12,3.12,0,0,0,1.1,2.61,63.35,63.35,0,0,0,5.64,3.34c7.78,4.56,13.93,10.48,16.31,19.54l-4.48-1.6c-.82-.29-1.85-1-2.39-.74s-.9,1.51-.91,2.33a62.82,62.82,0,0,0,.22,7.26c.29,3.05-.43,5.49-3.38,6.91a6.88,6.88,0,0,0-3.84,8.16c1.9,8.18,4,16.35,6.7,24.31,3.14,9.39,7.3,18.44,10.27,27.88a48.06,48.06,0,0,1,1.7,15c-.07,3.92-2.23,4.38-5.63,2.35-1.79-1.07-4.06-1.29-6.05-2.08-2.47-1-4.92-2.08-7.29-3.3a16.94,16.94,0,0,1-3.32-2.41c-4.71-4.1-11.09-6.19-14.28-12.14-2.12-4-4.45-7.83-6.75-11.7s-4.25-7.72-6.88-11.19c-3.45-4.56-7.55-8.62-11.09-13.11-2-2.51-2.88-6.06-5.2-8.07-5-4.31-7.08-10.17-9.79-15.71-1.38-2.84.12-4.87,3.27-4.64A49.85,49.85,0,0,1,399,490.5c3.09.65,5.55.1,6.53-3.35,5.07-6.58,5.89-14,4.66-22a10.65,10.65,0,0,0-.42-2c-1.19-2.76-4.07-3.79-7.24-2.5s-1.47,3.4-.94,5.47a104.46,104.46,0,0,1,2.28,11.07,4.28,4.28,0,0,1-1.21,3.34c-2.94,2.52-8.22,2.11-11-.69a48.22,48.22,0,0,1-3.05-3.74l.66-.72a8.44,8.44,0,0,0,2.64.81c2.31-.08,5.41.4,6.69-.87s1.07-4.41.81-6.66c-.58-5.09-2.51-9.59-7.17-12.44-.28-.16-.28-.77-.59-1.73a17.28,17.28,0,0,1,4,.38c3.3,1.16,4.61-.19,4.54-3.35-.07-3.34,1.91-4.48,4.76-5.38a22.59,22.59,0,0,0,6.5-3.49c4.82-3.57,7.7-8.69,10.81-13.72,5.61-9.05,9.52-18.39,8.43-29.33-.46-4.57-.9-5.31-5.38-6.08,1.26-2.94,3.89-2.81,6.45-2.89,4.72-.15,5-.77,5-5.29a27.81,27.81,0,0,1,1.76-8.21c.32-1,1.62-1.7,2.48-2.53.79.91,1.89,1.69,2.31,2.75,1.59,4,2.92,8,4.45,12,.3.76,1.4,2,1.6,1.88,3-1.46,6.93-2.43,8.62-4.9,1.84-2.66,1.81-6.74,2.18-10.24.45-4.34.47-8.72.68-13.08.6,1,1.75,2.08,1.71,3.09-.24,6.09-.51,12.2-1.26,18.24-.37,3,.85,4.36,3.32,5.11,2.7.82,4.78-.65,4.83-3,.16-7.71.46-15.51-.56-23.11-1-7.19-8.37-11-11.3-17.35-.05-.11-.43-.07-1.38-.2,0,3.94-.41,7.86.19,11.62.25,1.6,2.63,2.86,4,4.27l-3.9.3-2,.16c-4.07.26-5-.88-4-4.82a25.19,25.19,0,0,0,1.05-3.26,70.71,70.71,0,0,0,.63-8.83c0-2.12-1.38-2.77-3.3-1.58-.68.42-1.34.88-2,1.33-2.45-.23-3.31-1.65-3-4,3.44,2.14,6.19-.19,9-1.56.54-.26.87-1.88.62-2.64a5.72,5.72,0,0,0-6-4.25c-3.86.07-3.8,3-4.33,5.56-2.75-4.53-1.33-7.73,3.75-8.49,3.88-.59,4.25-1.17,3.35-4.86-.33-1.33-.23-2.79-.72-4-1.39-3.55-3-7-4.5-10.51l-.59-1.38c-.33-.63-.65-1.27-1-1.91a1.94,1.94,0,0,0-.15-.36l-1.83-3.25-1.08-1.14-2.35-.95c-.53-3.12-1.07-6.25-1.61-9.37l1.11-.32,1.7,3.07c-.49,3,.66,5.45,3.45,6.39a46.51,46.51,0,0,0,11.32,2.62,61.26,61.26,0,0,1,17.75,3.81,3.77,3.77,0,0,1,2.09,2.42c.54,3.35.6,6.72-2.17,9.36l-2.06-.85c-3.38-1.05-5,.16-5.61,3.82l4.77,3.63-3.3,3.37a.79.79,0,0,0-.37.45,2.27,2.27,0,0,1-.3.32.93.93,0,0,0-.53.38l-1.47,1c-1.93,1.16-3.94,2.21-5.74,3.54a2.47,2.47,0,0,0,0,2.36c3.87,3.42,7.76,6.84,11.89,9.93,1.33,1,3.66,1.72,4.09-1.42l1.69-20.16c.15-.45.31-.9.46-1.36-.56-1.3-1.12-2.61-1.67-3.92,2.21-2.23,4.07-5,6.69-6.58,7-4.05,14.58-4.18,22.33-2.48a15.09,15.09,0,0,0,4-.18Zm-14.64,99c1.65-3.83.09-9.36-3.88-13a46.26,46.26,0,0,0-5-3.53c-.28.31-.55.63-.83.95.77,1.07,1.51,2.16,2.3,3.22,1.52,2,3.25,3.92,4.57,6.06,2,3.26,1.27,4.86-2.46,5-4.7.14-9.41-.2-14.12-.41-2.2-.1-4.39-.4-6.58-.61l-.42,1a31.29,31.29,0,0,0,2,2.57c1.9,2,1.95,4.05.25,6.2-.71.9-1.4,1.83-2.11,2.74-1.22,1.58-2.72,3.33-.92,5.19s4,1.36,5.82-.36c4.13-2.57,8.36-5,12.34-7.76C489.4,416.66,492.27,414,495.26,411.61Zm-46.67,19.82c-.76,3.24-2.18,2.73-4.27,1.41a130.79,130.79,0,0,0-12.62-7c-.94-.45-3,.28-3.83,1.15-.56.58-.29,2.65.33,3.54,1.77,2.54.86,3.78-1.45,5.23a88.22,88.22,0,0,0-9.41,6.92c-.75.63-1.3,2.62-.87,3.26.6.9,2.18,1.25,3.4,1.58a3.62,3.62,0,0,0,2-.43c9.24-3.6,18.49-7.16,27.67-10.88C452.26,435.07,452,433.66,448.59,431.43Zm-1.3-37.18c-4.22-.07-9.65,3.84-11,7.9-.47,1.43-.93,2.86-1.45,4.27C432.05,414,432,414.12,440,415a4.16,4.16,0,0,0,3.28-1.9c2.42-4.67,4.42-9.56,6.8-14.26C452,395.06,451.63,394.33,447.29,394.25Zm6.2,7.07c-1.67,3.55-3.17,6.54-4.49,9.6s-2.63,6.38-3.8,9.63c-.72,2,1.55,6.05,3.85,7.18,2.6,1.28,3.61-.68,5-2.32C459.82,418.57,457.24,410.48,453.49,401.32Zm2.9-74.79c1.33-1.27,2.53-2,3.19-3.12a66,66,0,0,0,4.29-8.21c.38-.89.1-2.93-.47-3.21-4.26-2-8.61-3.88-13-5.49-1.61-.59-2.76.29-2,2.29,2,5,3.93,10,6,15A15.78,15.78,0,0,0,456.39,326.53ZM406.53,457l-.06.26.25-.07Z"/><path class="cls-3" d="M293.14,271.24c-1.65-1.06-3.38-2-4.93-3.22a31.87,31.87,0,0,1-3.15-3.11l-1,.74,7.43,18.17,1.17-.15c.74-1.38,1.57-2.73,2.19-4.16,2.62-6.14,6.38-7.87,12.92-6.18a50.23,50.23,0,0,0,8.88,1.41c1.19.09,2.46-.8,4.4-1.5-1.31-1.14-2-1.81-2.77-2.41a16.89,16.89,0,0,1-6.44-9.59c-.51-2.21,0-4,2.2-4.84,4.21-1.63,8.17-5.09,13.22-1.25l.63-.81a23.23,23.23,0,0,0-.57-4.77c-1.54-4.55,2.18-6.29,4.62-8.39a6.44,6.44,0,0,1,8.08-.46,45.7,45.7,0,0,1,6.59,5c2.28,2.21,4.78,2.16,7.4,1.34,2.07-.65,2.5-2,.68-3.54-1.32-1.13-2.76-2.11-4-3.29a5.71,5.71,0,0,1-1.4-6.69c1-2.56,3.25-3,5.73-2.95,7.7.28,8.81,1.48,7.74,9.22-.44,3.15-1.4,6.23-2.12,9.34l1.22.53c1.21-2.68,2.48-5.34,3.6-8.06.6-1.48.65-3.25,1.46-4.58a12.3,12.3,0,0,0,1.33-10.32c-.83-2.87-.27-5,2.65-6.69,1-.6,1.66-2.9,1.56-4.35-.39-5.52-1.16-11-1.77-16.52a6.7,6.7,0,0,1-.07-2.74,16,16,0,0,1,1.83-3c.93.85,2.39,1.55,2.69,2.58a51.88,51.88,0,0,1,1.54,8.5c.48,4.42,1.48,5.21,5.78,4.31a8.53,8.53,0,0,1,3.4-.2c2.6.53,3.21,2.23,2,4.61C384.93,219,381.82,224.7,375.8,228c-.59.32-.91,1.14-.93,2.55,1.17-.35,2.38-.6,3.5-1.06,4.38-1.82,6-1.33,7,3.18,1.17,5.24,1.65,10.63,2.56,15.94,1,5.66,4.38,8.5,10.21,8.82,3.3.18,6.91-.27,8.65,3.64l-5,2.18-6.33-.78c3,4.67,7.29,4.51,11.56,4.72,1.19.06,2.34,1,3.51,1.55-1,.69-2.06,1.39-3.1,2.06-.72.45-1.47.86-2.21,1.29a7.92,7.92,0,0,0,1.2,2c2.84,2.53,5.75,5,8.64,7.46l6.76,7c-.5,2.41-1.71,4.08-4.43,3.92-6.2-.38-12.39-.82-18.58-1.24a2,2,0,0,1-.24-.26l-1.17-1.05c-1.76-.26-3.58-.95-5.25-.68-2.44.41-5.11.8-6.06-1.59-.41-1,1.77-3.31,3-4.79a44,44,0,0,1,4.69-4c-3.81-1.29-6.48-2.29-9.21-3.08-2-.57-3.28-1.63-2.64-3.69.89-2.91,1.39-6.07,4.72-7.68,1.11-.54,2.38-2.42,2.2-3.45a5.16,5.16,0,0,0-2.95-3.27,57.21,57.21,0,0,0-8.08-1.76c-4.34-2.48-8.61-.56-12.9.21,1.29-.91,2.47-2.35,3.88-2.63,2.33-.46,4.83,0,7.21-.28,1.53-.2,4.08-1,4.21-1.8a9.87,9.87,0,0,0-1.25-5.65c-.88-1.68-2.62-2.88-3.77-4.45-2.93-4-4.87-3.8-7.15.59-1.94,3.72-4.31,7.22-6.27,10.94a33.09,33.09,0,0,0-1.78,5.45c-.67.75-1.32,1.54-2,2.25-2.39,2.36-2.13,3.78,1.13,4.81,2.14.67,4.4,1,6.61,1.44l.79.29c2.34,3.65,2.28,3.93-1.45,6.28-1.14.72-2.36,1.35-3.43,2.16-.23.18,0,1,0,1.49q2.85,3.77,5.71,7.51a.68.68,0,0,0,.35.5l.2.28a1,1,0,0,0,.41.52l.12.18.5.64.14.17a1.08,1.08,0,0,0,.41.53l.44.72c-1,3.39-2.19,4-5.38,3.1-2.38-.68-4.81-1.15-7.22-1.72-.41-4.78-.73-9.58-1.34-14.34a3.1,3.1,0,0,0-2.32-1.83c-2.4-.12-4.84.37-7.25.3-6.15-.17-10.82,2.61-14.87,6.91-1.83,1.94-1.94,3.46.84,4.31a92.81,92.81,0,0,0,9,2.36c3.41.67,6.51,1.52,7.88,5.27a4.85,4.85,0,0,0,2.05,2.21c3.53,2.13,7.15,4.13,10.73,6.18l2.07,1.78c.2.12.39.24.6.35,1.1,1.95,2.9,3.66,1.85,6.3-.14.37.64,1.1,1,1.66l.92,1.48c-1.19,3.78-4,5.18-8,3.42-2.12-.95-3.89-2.7-5.82-4.09-.16-2.76-.25-5.52-.52-8.27-.14-1.5.08-3.49-2.48-3.21l-15.36,3.21q-2.26-5.25-4.52-10.49a61.56,61.56,0,0,1-6.76,4.35c-5,2.37-6.53,6.76-7.46,11.63-.52,1.79,0,3,2,3.15,1.25.1,2.53-.11,3.79-.1,4.11,0,8.24-.16,12.33.17,2.8.22,5.53,1.15,8.3,1.76-.29,1.17-.18,2.9-.91,3.41-5.05,3.52-9.51,8.34-16.36,8.32l-.38-.69-.42-.54-5.95-8.3a16,16,0,0,0-1.18,2.74c-.68,3.51-2.64,4.57-6,3.37-1.83-.65-3.73-1.13-5.6-1.68-4.42-3.87-5.34-3.7-8,1.49-1.36,2.68-3.11,4.82-6.42,5-3.55.25-7.1.55-10.65.83l-.18-.2a.69.69,0,0,0-.47-.33l0-.83a22.26,22.26,0,0,0,4.67-1c2.75-1.24,5.68-2.42,7.9-4.36s1.16-4.57-1.73-5a17,17,0,0,0-6.08.43c-1.89.4-3.63,1.49-5.52,1.91-3.17.7-4.87,2.42-4.82,5.72l-3.51,1.14-.09.08-.39.55-1.05-.38a45.37,45.37,0,0,0,.54-5,3.28,3.28,0,0,0-1-2.38c-.37-.27-1.58.36-2.26.81-3.42,2.3-6.72,4.8-10.22,7-2.15,1.33-3.5,2.87-3.57,5.48-.14,5,.13,9.73,4.35,13.29.63.54.8,1.61,1.19,2.43-7-1.73-15-.63-20.18-7.44a3.25,3.25,0,0,0-1.84-.91c-3.48-.72-7-1.22-10.45-2.07s-7.31-1.28-9.94-3.28-4.38-5.79-6.31-8.9c-2.68-4.31-1.69-6,3.37-6.29,2.25-.14,4.48-.54,6.72-.83,0-.36,0-.73-.07-1.1a36.18,36.18,0,0,0-4.66-1A20.48,20.48,0,0,1,205.81,311c-.64-.48-1.57-1.52-1.41-2,1.42-4.08-1.33-5.3-4.18-6.67a48.66,48.66,0,0,1-4.95-3.14c1.83-.83,2.93-1,3.39-1.61.84-1.13,2.15-2.93,1.77-3.77a95,95,0,0,0-6.78-12.71c-1.72-2.66-4.41-4.67-6.41-7.17-4.39-5.5-9-10.88-12.82-16.77-5.18-8-4.7-17-2.51-25.89.2-.8,1.63-1.58,2.64-1.86,3.93-1.09,7,.54,9.48,3.51,2.83,3.4,6.45,5.25,10.61,6.78,4.91,1.8,10.25,3.8,13.91,7.28,5.26,5,9.22,11.43,13.64,17.31,2.7,3.59,5.09,7.41,7.9,10.9.77,1,2.54,1.14,3.85,1.67a18.5,18.5,0,0,0,1.11-3.32c.23-1.55.15-3.26,2.46-2.76,3.48.75,6.9,1.76,10.39,2.46,5.87,1.17,11.75,2.3,17.66,3.16,1.06.15,2.32-1.05,3.48-1.62-.58-1-.93-2.36-1.8-3-2.52-1.82-5.32-3.26-7.89-5-9.51-6.51-18.91-13.18-28.48-19.6a42.9,42.9,0,0,1-12.69-13.08c-1.9-3.05-1.29-6.06,1.46-8.32,5.45-4.48,13-4.3,19,.91,11,9.54,21.75,19.31,32.67,28.91,1.26,1.11,2.92,1.76,5.08,3a13.69,13.69,0,0,0-.42-2.74c-3.1-6.16-6.1-12.38-9.47-18.39-.87-1.54-3-2.4-4.49-3.58l-3.23-3-1.57-1.26-1.35-1.35c-1.92-4.6-1.15-8.61,2.15-12.41a10.6,10.6,0,0,0,1.93-5,9.24,9.24,0,0,0-3.48-9.2c-4-3.29-7.84-6.71-11.75-10.07,3.18,1.65,6.42,3.21,9.54,5,1.58.9,2.88,2.28,4.43,3.25,3.46,2.14,3.65,2,4.39-2.18.2,1.73.34,3.46.6,5.18a10.43,10.43,0,0,0,.89,3.76c1.31,2.19,3.28,4,4.42,6.27,1.87,3.68,3.05,7.7,4.95,11.36,1.67,3.21,3.91,6.1,5.9,9.14l1.29-.2a42.8,42.8,0,0,0,.87-4.71c.19-2.4.08-4.82.25-7.23.4-5.36,1-10.7,1.29-16.07.09-1.56-1-3.36-.56-4.7,1.4-4.13,2.75-8.46,5.16-12,2.66-3.93,4.26-7.78,4.11-12.51,0-1.19,1-2.42,1.51-3.62,1.21.53,2.76.76,3.55,1.66a26.82,26.82,0,0,1,3.21,5.25c.69,1.32,1,2.83,1.76,4.11,3,5.32,4.57,5.56,9.06,1.49.39.36.95.67,1.19,1.13q4.69,9,9.33,18.08c.79,1.53,1.25,3.39,2.42,4.51,2.4,2.3,5.79,3.8,5.23,8-3,7.32-6.06,14.65-9.12,22a6.18,6.18,0,0,1-7.34,3.45c-2.94-.8-5.22-.19-6.89,2.42-1.43,2.23-3.17,4.3-4.27,6.68C298.84,257.71,296,264.5,293.14,271.24Zm-.46,19.86-.7-.3c-.87-2.06-1.7-4.14-2.62-6.19s-2.36-3.86-2.68-5.92c-.53-3.56-1.58-6.73-4.1-9.32-2-2.09-4-4.24-6.18-6.19-4.7-4.22-9.35-8.51-14.35-12.36-1.32-1-4-1.07-5.71-.49-1,.36-2.12,2.89-1.88,4.2.42,2.34,1.22,5.33,2.94,6.58,6.88,5,14.1,9.54,21.36,14,2.21,1.36,4.25,2.37,3.91,5.38s-2.47,4.22-5.16,4.78c-4.8,1-6.18,3.28-3.65,7.49,2.72,4.52,3.42,9.46,4.56,14.39.26,1.12,1.52,2,2.32,3v3.27c3.71-1.18,7.06-2.27,10.43-3.31a4.72,4.72,0,0,0,3.6-4.87c.05-3-.08-6,.22-9,.39-3.84,2.66-4.87,6.07-3,1.43.8,2.83,1.66,4.67,2.74a84.75,84.75,0,0,0,1.76-8.65c.31-3.25-1.4-4.38-4.23-3.18l-9.33,5.23c-.2.37-.39.74-.58,1.12Zm-38.85-6.76c-11.82-2.53-22.49,2.81-33.61,5-.8.15-2,2.55-1.69,3.46,2.4,7.09,4.74,14.25,9.71,20.11,2.41,2.85,4.59,5.95,7.29,8.5,3.44,3.24,7.51,2.89,11.65,1,3.59-1.62,7.29-2.95,10.93-4.44.86-.35,1.66-.82,2.49-1.23-1.6-.65-3.07-.43-4.33-.85-5-1.66-10-3.41-14.79-5.46-.72-.3-1.36-3.11-.9-3.54,3.94-3.64,7.6-8.07,13.92-7.12l1.79.52,1.71.81.56.15.82.54,1.1.45,1.72.88,9.6,8.49,1.49,3.36,1.11-.16c.29-1,.94-2.09.83-3.07-.53-4.54-.84-9.18-2.12-13.53-.66-2.24-3.19-3.93-4.87-5.86a6,6,0,0,0-.55-.31C265.82,287.09,260.57,284.15,253.83,284.34ZM350.6,270.9l0,.37c2.9,0,5.8.12,8.68-.07,1-.06,1.88-.92,2.82-1.41-.85-.81-1.56-1.92-2.56-2.35-1.35-.57-3-.45-4.4-.9a6.41,6.41,0,0,1-3-9.8c.75-.91.92-2.29,1.36-3.46-1.38-.37-2.79-1.1-4.15-1-4.24.21-8.47.93-12.71,1.07-3.31.1-4.75,1.49-4.39,4.68.47,4.12.88,8.27,1.73,12.32.18.88,2.14,2,3.23,2C341.7,272.05,346.15,271.4,350.6,270.9Zm-42.22,26c.5,2.63,1.05,5.8,1.76,8.93.15.67.83,1.59,1.38,1.68a2.42,2.42,0,0,0,2-1,23.28,23.28,0,0,0,2.36-5.31c1-4,3.19-6.85,7.09-8.33a45.48,45.48,0,0,0,5.44-2.26c.81-.43,1.79-1.42,1.81-2.19s-1.18-1.49-2-1.89a25.21,25.21,0,0,0-4-1.25c-3.4-.93-3.87-2.1-2-5.19.29-.49.81-.93.91-1.45a3.24,3.24,0,0,0-.15-2.17,1.93,1.93,0,0,0-1.84-.4c-3.26,1.65-6.49,3.37-9.63,5.25a3.61,3.61,0,0,0-1.26,2.37C309.56,287.8,309,292,308.38,296.85ZM390,266.75c-1.07.81-2.56,1.41-2.95,2.43-.29.73.73,2.17,1.48,3s1.81,1,2.61,1.66c2.59,2.06,5.47,3.85,4.06,8.14-.71,2.16.91,3.36,3,2.63,2.84-1,5.08-.07,7.5,1.3a26.09,26.09,0,0,0,6.44,2.44c1.14.29,2.48-.21,3.73-.36a24.74,24.74,0,0,0-1.36-3.27,8,8,0,0,0-1.88-2c-5.51-4.51-11-9.1-16.62-13.43C394.52,268.1,392.34,267.69,390,266.75Z"/><path class="cls-2" d="M244.73,191.6c3.91,3.36,7.77,6.78,11.75,10.07a9.24,9.24,0,0,1,3.48,9.2,10.6,10.6,0,0,1-1.93,5c-3.3,3.8-4.07,7.81-2.15,12.41l-5.16-2.21-.72,1,11.33,9.89.9-.62c-.07-.83-.13-1.66-.2-2.5,1.53,1.18,3.62,2,4.49,3.58,3.37,6,6.37,12.23,9.47,18.39a13.69,13.69,0,0,1,.42,2.74c-2.16-1.27-3.82-1.92-5.08-3-10.92-9.6-21.7-19.37-32.67-28.91-6-5.21-13.57-5.39-19-.91-2.75,2.26-3.36,5.27-1.46,8.32a42.9,42.9,0,0,0,12.69,13.08c9.57,6.42,19,13.09,28.48,19.6,2.57,1.76,5.37,3.2,7.89,5,.87.63,1.22,2,1.8,3-1.16.57-2.42,1.77-3.48,1.62-5.91-.86-11.79-2-17.66-3.16-3.49-.7-6.91-1.71-10.39-2.46-2.31-.5-2.23,1.21-2.46,2.76a18.5,18.5,0,0,1-1.11,3.32c-1.31-.53-3.08-.7-3.85-1.67-2.81-3.49-5.2-7.31-7.9-10.9-4.42-5.88-8.38-12.28-13.64-17.31-3.66-3.48-9-5.48-13.91-7.28-4.16-1.53-7.78-3.38-10.61-6.78-2.47-3-5.55-4.6-9.48-3.51-1,.28-2.44,1.06-2.64,1.86-2.19,8.9-2.67,17.86,2.51,25.89,3.81,5.89,8.43,11.27,12.82,16.77,2,2.5,4.69,4.51,6.41,7.17a95,95,0,0,1,6.78,12.71c.38.84-.93,2.64-1.77,3.77-.46.62-1.56.78-3.39,1.61a48.66,48.66,0,0,0,4.95,3.14c2.85,1.37,5.6,2.59,4.18,6.67-.16.46.77,1.5,1.41,2a20.48,20.48,0,0,0,10.74,4.32,36.18,36.18,0,0,1,4.66,1c0,.37,0,.74.07,1.1-2.24.29-4.47.69-6.72.83-5.06.31-6.05,2-3.37,6.29,1.93,3.11,3.54,6.8,6.31,8.9s6.53,2.43,9.94,3.28,7,1.35,10.45,2.07a3.25,3.25,0,0,1,1.84.91c5.15,6.81,13.18,5.71,20.18,7.44l4.19,1.45c-.48,2.37-2,1.91-3.72,1.54a44.76,44.76,0,0,0-20.59.08c-4.55,1.15-7.73,3.75-8.13,8.65a4.2,4.2,0,0,0,1.9,3.28,9.47,9.47,0,0,0,4.72.77c7.3-.36,14.4-1.7,20.92-5.24,2.65-1.44,3.59-1,3.59,2,0,8-1.74,15.27-8.22,20.68-1.33,1.11-2.54,2.36-3.8,3.54-2.18,2.05-4.38,2.46-6.64.12,5.24-3.59,5.3-6.84.1-10.11a39.72,39.72,0,0,0-3.76-1.67c-1.64-.81-3.22-1.75-4.85-2.56-3.25-1.63-6.44-3.42-9.82-4.71-1.08-.42-2.69.51-4.05.82a28.27,28.27,0,0,1-3.49-2.74c-2.39-2.52-2-4.48.66-6.58,2.43-1.87,4.69-4,7-6,1.28.14,2.62.59,3.82.35a20.1,20.1,0,0,0,5.12-1.89,24.46,24.46,0,0,0,3.48-2.58c-1.45-.32-2.89-.66-4.34-.95a3.26,3.26,0,0,0-1,.13c-.4-3.61-3.24-3.43-5.74-3.58-8.19-.51-16.44-.52-24.57-1.51-7.67-.92-15.19-3-22.83-4.24a59.34,59.34,0,0,0-12-.65c-4.1.18-6.06,2.65-6.28,6.84-.2,3.64-.12,7.31-.67,10.89-.15,1-2,2.33-3.2,2.45-2.37.23-4.86-.15-5.55,2.86s.74,5.06,3.27,6.63c2.25,1.4,4.23,3.22,6.52,4.52,2.78,1.58,5.77,2.76,8.63,4.2,1.71.86,4,1.47,4.91,2.9,4.26,6.43,10.48,7.29,17.26,6.59,3.79-.38,7.54-1.22,11.3-1.84a15.06,15.06,0,0,1,3.43-.43,13.83,13.83,0,0,1,3.13.93c-.56.9-1.08,1.85-1.72,2.69a6.33,6.33,0,0,1-1.37,1.06c-3.72,2.66-7.19,5.83-11.24,7.85-6.16,3.08-11.43,6.43-13.4,13.68-.51,1.9-3,3.4-4.88,4.77-4.06,3-5.72,7.16-6.11,11.94-.42,5.21,3.11,8.81,8.35,8.75s6.33,1.42,4.68,6.54c-.47,1.43-.92,2.87-1.4,4.29-1.44,4.24,1.32,7.7,5.82,6.94,7-1.18,14-2.66,21.06-3.94s14,.6,20.75,2.54c2.26.65,1.81,2.31,1,3.91l-.68.16-9,2.61-1.35.25L212,458.39c-19.95,3.85-40,6.19-60.37,4.57-10.31-.81-19.43-5-28-10.41-1.24-.79-2-3.11-2.12-4.79-1.24-13.92,3.61-25.17,13.71-35.05A94.35,94.35,0,0,1,173.12,390a57.69,57.69,0,0,0,7.07-2.85c.81-.39,1.31-1.41,1.95-2.14a7.81,7.81,0,0,0-2.12-1.51c-3.12-.87-6.27-1.63-9.44-2.32-13.87-3-26.13-9-36-19.51-5.85-6.26-9.85-13.36-10.52-22.08a5.21,5.21,0,0,0-.19-1.37c-2.4-6.82-1.41-7.5,6.15-10.17,2.28-.81,4.64-1.41,7-2.1a17.16,17.16,0,0,0,3.95,1.23c10.33.65,20.67,1.19,31,1.75a11.45,11.45,0,0,0,1.55-.19l-.63-2.31c7.56-1.61,14.57,3.72,22.14,1.45-1-3.35-7.72-3.63-3.69-8.88l-11.05-.63c5.87-.3,11.74-.58,17.61-.89a31,31,0,0,0,4.83-.38c.91-.18,2.18-.84,2.37-1.53a2.9,2.9,0,0,0-1.37-2.41c-4-2-8.15-3.73-12.2-5.64-9.67-4.56-20.08-8.05-28.81-14C147.41,283,138.14,268,134.82,249.37c-2.46-13.84-.62-27.43.85-41.1.45-4.17,2.22-7.5,6.4-9.12a5.37,5.37,0,0,0,2-1.3c5.34-6.18,12.9-8.42,20.13-11A236.18,236.18,0,0,1,192,178.58c5.1-1.11,10.72-.34,16,.21a67.49,67.49,0,0,1,15.45,3C230.85,184.36,238.64,186.21,244.73,191.6ZM170.59,295l.66-1.22c-.88-1.3-1.77-2.58-2.62-3.9-.55-.85-1.39-1.72-1.48-2.65-.46-4.54.42-9.6-1.32-13.54-2.31-5.21-3.06-10.58-4.36-15.92,0-.11-.14-.19-.17-.3-1.61-4.81-4.08-9.52-4.61-14.44-.7-6.36.05-12.9.36-19.35.18-3.62,10.44-9.92,13.84-8.67a4.33,4.33,0,0,1,.92.5c3.89,2.78,8.32,3.17,12.92,3,3.32-.12,5.62-1.43,6.18-4.86.47-2.91.51-5.89,4.56-6.34.6-.07.85-2,1.53-2.87,1-1.28,2.14-3.23,3.42-3.4,6-.82,11.87-.11,16.64,4,2.9,2.47,6.5,3.67,9.26,2,4.19-2.56,11.59-.63,12.38-8.26,0-.4.84-.73,1.29-1.09,2.81-2.26,3.07-3.83.09-5.57-4-2.37-8.52-4-12.75-6-11.9-5.84-24.61-5.56-37.36-5a7.75,7.75,0,0,0-2,.62c-4.57,1.53-9,3.57-13.73,4.5-10.77,2.13-20.33,6.45-28.6,14.22l8,2c-2.06,1.95-3.54,3.57-5.25,4.88a11.51,11.51,0,0,1-3.31,1.19l-3.62,1.25a23.73,23.73,0,0,0,2,4c.43.58,1.59.63,2.94,1.1-1,.72-1.57,1.47-2.2,1.52-5.27.49-7.54,4.81-7.58,8.6a180.93,180.93,0,0,0,1.94,28.86c1.2,8,4.75,15.19,9.35,22.1a67.33,67.33,0,0,0,18,17.94C167.17,294.71,169,294.67,170.59,295Zm13.27,95.51-.24-.74a8.75,8.75,0,0,0-2.29,0q-10.12,2.87-20.2,5.85a8,8,0,0,0-2.12,1.16c-3.14,2.11-6.17,4.43-9.42,6.36-10.88,6.49-16.9,17-23.11,27.42-.69,1.14-.23,3-.3,4.46,1.4-.16,3.19.17,4.15-.57,5.68-4.32,14.48-4.18,17.57-12.2.14-.37.78-.52,1-.87,1.27-1.72,3-3.3,3.64-5.23,1.77-5.39,5.33-9,10-11.9C169.72,399.82,176.76,395.15,183.86,390.55Z"/><path class="cls-2" d="M405.56,487.15c-1,3.45-3.44,4-6.53,3.35a49.85,49.85,0,0,0-6.78-1.34c-3.15-.23-4.65,1.8-3.27,4.64,2.71,5.54,4.82,11.4,9.79,15.71,2.32,2,3.22,5.56,5.2,8.07,3.54,4.49,7.64,8.55,11.09,13.11,2.63,3.47,4.65,7.42,6.88,11.19s4.63,7.73,6.75,11.7c3.19,5.95,9.57,8,14.28,12.14a16.94,16.94,0,0,0,3.32,2.41c2.37,1.22,4.82,2.32,7.29,3.3,2,.79,4.26,1,6.05,2.08,3.4,2,5.56,1.57,5.63-2.35a48.06,48.06,0,0,0-1.7-15c-3-9.44-7.13-18.49-10.27-27.88-2.66-8-4.8-16.13-6.7-24.31a6.88,6.88,0,0,1,3.84-8.16c2.95-1.42,3.67-3.86,3.38-6.91a62.82,62.82,0,0,1-.22-7.26c0-.82.34-2.06.91-2.33s1.57.45,2.39.74l4.48,1.6c1,1.54,2.32,3,3,4.62,3.83,9.91,8,19.74,11.09,29.88,2.45,7.9,3.79,16.18,5.29,24.35,1.61,8.75,3.36,17.52,4.12,26.36,1.2,14-3.37,26.36-12.16,37.23-1.6,2-3.08,4-4.6,6.08A4.82,4.82,0,0,1,462,612c-10.84-3.7-21.49-7.8-31.29-13.82C419.12,591.1,408.51,583,401.3,571c-11.1-18.43-19.1-37.94-21.07-59.52-.56-6,0-12.22.24-18.33.16-3.89-.74-7.08-4.39-9l.05,0-4.95-.6c-2.67-2.17-5.28-4.42-8-6.49-1.59-1.2-2.69-.68-3.25,1.33-1.36,4.86-2.1,10.1-4.47,14.43s-6.25,7.76-9.73,11.34c-2,2-4.59,3.48-6.77,5.35a14.37,14.37,0,0,0-2.1,3l8.9-1.91c-6.31,3.07-12.72,6-18.89,9.29-6.44,3.47-8.06,3.09-11.33-3.28-5.91-11.51-9.24-23.85-12.15-36.35a50.59,50.59,0,0,0-1.91-5.51c1.42-7.87-.79-15.33-2.5-22.86l.08-.05c5.1.43,8.13-2.39,10.49-6.48a5.42,5.42,0,0,1,2.83-2.47c.66-.18,2.37,1.08,2.47,1.84a6,6,0,0,1-1.13,3.67c-2.5,3.87-5.17,7.64-7.78,11.45L307.3,461l1.14-3,1.14.69a11.33,11.33,0,0,0-.21,2.76c.33,1.88.53,3.93,1.44,5.53,1.38,2.41,4.14,2.35,5.52-.3,2.51-4.85,7.31-6.89,11.25-10a3.34,3.34,0,0,1,2.49-.31c.33.07.77,1.27.61,1.78-2.12,6.54-4.33,13.05-6.51,19.57.66-3.62,1.42-7.23,1.94-10.87a9.8,9.8,0,0,0-.63-3.14,11.84,11.84,0,0,0-2.85,1.41c-2.83,2.52-5.51,5.2-8.31,7.76-1.6,1.46-4.35,2.53-4.8,4.25-1.25,4.8-2.39,9.91-2,14.78s2.45,9.57,4.08,14.25a85.48,85.48,0,0,0,3.83,8.18l.94-.21c.06-7.18.54-14.27,4.26-20.62.58,3.07,1.86,5.68,4.68,7.32a3.91,3.91,0,0,1,.77.7c2.51,2.65,3.52,7.71,9.35,4.24,3.45-2.06,7-3.3,9.25-7.16a87.16,87.16,0,0,0,10.4-25.17c.56-2.48,1.91-4.78,2.9-7.16l1.43,0a26.35,26.35,0,0,1,1.75,5.08c.66,4.73,5.06,6.8,9.52,5.1,5.83-2.23,12-3.89,18-.3a48.22,48.22,0,0,0,3.05,3.74c2.77,2.8,8.05,3.21,11,.69a4.28,4.28,0,0,0,1.21-3.34,104.46,104.46,0,0,0-2.28-11.07c-.53-2.07-2.22-4.18.94-5.47s6.05-.26,7.24,2.5a10.65,10.65,0,0,1,.42,2c-3.51.24-5.36,2.34-5.21,5.64.15,3.66.09,7.33.19,11C405.25,483.6,405.43,485.38,405.56,487.15Zm-23.31,14.34-.6.3c.21,3.51.24,7,.68,10.52.69,5.35,1.23,10.79,2.66,16,1.37,5,3.88,9.61,5.75,14.44,1.41,3.63,2.23,7.53,4,11,2.69,5.34,6.51,10.17,8.8,15.65,3.5,8.37,10.09,13.86,16.88,18.83,8.24,6,17.3,11,26.19,16.06,2.62,1.5,5.87,2,8.86,2.76a2.18,2.18,0,0,0,1.72-.66c.21-.23,0-1.13-.33-1.53a8.66,8.66,0,0,0-1.78-1.63c-10.45-7.85-18.43-18-26.17-28.33-4.75-6.35-8.87-13.17-13.23-19.81-.69-1-1.11-2.28-1.74-3.38-2.62-4.6-5.13-9.28-8-13.75-1-1.57-2.73-3.47-4.36-3.72-4.08-.62-5.06-3.52-6.19-6.57a47.14,47.14,0,0,0-2.11-5.49c-2.82-5.38-5.79-10.67-8.68-16C383.77,504.6,383,503,382.25,501.49Zm100.16,67.82.94-.21c-1.92-9.21-3.8-18.42-5.85-27.59-.23-1-1.47-1.85-2.24-2.77-.9.93-2.35,1.73-2.58,2.8-1.11,5.05-2,10.15-2.69,15.27-.18,1.38.53,2.9.9,4.34,1.85,7.16,6.9,13.63,4.49,21.72-.25.85.58,2,.92,3a13.1,13.1,0,0,0,3-1.81C483.31,579.84,482.24,574.43,482.41,569.31Z"/><path class="cls-2" d="M329.52,216.53c.56-4.19-2.83-5.69-5.23-8-1.17-1.12-1.63-3-2.42-4.51q-4.65-9-9.33-18.08c-.24-.46-.8-.77-1.19-1.13-4.49,4.07-6,3.83-9.06-1.49-.73-1.28-1.07-2.79-1.76-4.11a26.82,26.82,0,0,0-3.21-5.25c-.79-.9-2.34-1.13-3.55-1.66-.53,1.2-1.55,2.43-1.51,3.62.15,4.73-1.45,8.58-4.11,12.51-2.41,3.55-3.76,7.88-5.16,12-.46,1.34.65,3.14.56,4.7-.32,5.37-.89,10.71-1.29,16.07-.17,2.41-.06,4.83-.25,7.23a42.8,42.8,0,0,1-.87,4.71l-1.29.2c-2-3-4.23-5.93-5.9-9.14-1.9-3.66-3.08-7.68-4.95-11.36-1.14-2.26-3.11-4.08-4.42-6.27a10.43,10.43,0,0,1-.89-3.76c-.26-1.72-.4-3.45-.6-5.18.09-.38.17-.76.26-1.14.94.92,1.84,1.87,2.83,2.75.8.72,1.7,1.33,2.55,2a21.17,21.17,0,0,0,1.76-2.38c1.09-2,2.18-4,3.07-6.14s2.18-4.43,2.24-6.69c.16-6-.21-12-.46-18-.17-3.93.5-4.71,4-4.31,3,.35,4.08-.86,3.66-4.14a43.41,43.41,0,0,1-.74-6.18c.07-5.15,3-7.16,7.95-5.92a13.7,13.7,0,0,0,3.61-.07c-.08-1.31.27-2.84-.3-3.87-2-3.53-4.41-6.79-6.32-10.33-.93-1.74-1.1-3.9-1.61-5.87,2,.75,4.28,1.06,5.8,2.33a71.51,71.51,0,0,1,8.25,8.35,44.81,44.81,0,0,1,5.37,7.5c2.51,4.54,4.45,9.4,7,13.89,1.39,2.42,3.33,5.78,5.53,6.23a13.51,13.51,0,0,1,8.66,5.48,4.8,4.8,0,0,0,4.18,1.33c.87-.23,1.57-2.34,1.75-3.7a95.43,95.43,0,0,0,.7-10,6.69,6.69,0,0,0-1-3.22,103.17,103.17,0,0,0-16.26-21.47c-9.56-9.63-20.48-16.41-33.86-18.9-8.7-1.61-17.4-2.67-23.47,6.09a1,1,0,0,1-.26.23c-6.59,3.76-7.22,10-6.72,16.58,1.29,17.28,5.83,33.86,10.89,50.34.77,2.53.76,5.31,1.11,8-1.39-3.5-3-6.91-4.11-10.49-4.5-15.24-8.87-30.49-10.24-46.45-.89-10.41,3.45-18.34,10.76-25a11.65,11.65,0,0,1,5.62-2.34c11.69-2.07,22.33,1.2,32.72,6.35,17.63,8.74,29.86,22.69,40,39.17,7,11.47,10.75,23.94,13.76,36.8.56,2.39,1.28,4.75,4.13,5.47-2.15,2.83-4.57,1.6-6.88.36l-2.53,2.37L343.83,199c-3.73,4.45-7.18,8.53-10.57,12.64C332,213.24,330.77,214.91,329.52,216.53Z"/><path class="cls-1" d="M524.84,211c4.57-.32,9.15-.63,13.73-1,9.8-.74,16.81,4.74,23.64,10.59a24.77,24.77,0,0,1,8.55,15.43,9.14,9.14,0,0,1,.26,3.09c-1.82,8.45-3.15,17.07-8.32,24.37a3.75,3.75,0,0,0-.61.84c-2.57,7.34-7.45,13.26-12.49,18.88-6.36,7.1-13.31,13.69-20.15,20.34a6.76,6.76,0,0,1-4.42,1.77,11.77,11.77,0,0,1-5.74-1.7c-.41-.24.44-3,1.12-4.49,2.39-5.1,4.51-10.41,7.56-15.1,6.06-9.35,12.71-18.32,19-27.51.77-1.13.87-2.7,1.29-4.07a13,13,0,0,0-3.47-.82c-2.44.11-3.31-.81-3.23-3.25.12-3.78-.59-4.09-4.33-3.06a32.85,32.85,0,0,1-5.56.56,30.66,30.66,0,0,1,3-4.95c2.06-2.33,4.58-4.25,6.64-6.58.8-.9.86-2.46,1.25-3.72-1.27-.17-2.73-.84-3.79-.44-7.64,2.88-15.18,6-22.8,9-2.79,1.09-5.7,1.88-8.56,2.78-2.19.68-4.47,1.17-6.58,2-2.35,1-4.09.62-5.18-1.71-1.51-3.22-3-6.45-4.27-9.77a3.51,3.51,0,0,1,.92-3,56.06,56.06,0,0,1,6-4.64,107.79,107.79,0,0,1,22.38-12.29,14.25,14.25,0,0,0,2.58-1.71Z"/><path class="cls-1" d="M329.52,216.53c1.25-1.62,2.44-3.29,3.74-4.87,3.39-4.11,6.84-8.19,10.57-12.64l2.69,3.66,2.53-2.37c2.31,1.24,4.73,2.47,6.88-.36l.67-1,.13-.17,1.5-3.54c.16-.35.32-.71.49-1.06.17-.52.35-1,.52-1.54s.48-1,.73-1.49l.45-1.25,3.72-8.43.75-1.4.68-1.25c.25-.51.51-1,.77-1.53l3.44-6.7.69-.75c.37,1.08,1.22,2.25,1,3.21-.84,4.31-2,8.54-3,12.82-1.74,7.77-6.83,13.32-12.13,18.79a5.59,5.59,0,0,0-1.62,3.13c-.45,6.42-4.24,10.51-10.67,11.23-1.14.13-2.6,0-3.34.59-4.06,3.48-8.28,6.88-11.76,10.9-2.19,2.53-3.5,6-4.58,9.25-.61,1.85.05,4.12.1,6.2,0,1.18,0,2.36,0,3.55a14.91,14.91,0,0,1-3.31-.87c-2.46-1.27-4.78-2.8-7.21-4.13-2.6-1.41-4.49-1-5.82,2-3.65,8.08-7.44,16.09-11.29,24.08-.49,1-1.64,1.72-2.48,2.58-.41-.65-.82-1.29-1.22-1.94,2.9-6.74,5.7-13.53,8.76-20.2,1.1-2.38,2.84-4.45,4.27-6.68,1.67-2.61,3.95-3.22,6.89-2.42a6.18,6.18,0,0,0,7.34-3.45C323.46,231.18,326.48,223.85,329.52,216.53Z"/><path class="cls-1" d="M566.76,321.26a29.15,29.15,0,0,1,10.69,6.17l-.36,1.09a16,16,0,0,1-3.41-.26C562,324.81,550.06,323.11,538,322c-6.34-.58-12.69-.29-18.33,3.37l-13.18,7c-3.64,2.09-8.62,1.57-11.24,5.69l-1.17.57c-1.57-2.65-.22-4.72,1.56-6.45,4-3.83,7.69-8.05,12.21-11.1,5.09-3.44,10.94-5.76,16.47-8.57.46.51.83,1.23,1.41,1.48,7.77,3.37,15.34,6.72,24.43,5.52C555.53,318.84,561.22,320.61,566.76,321.26Z"/><path class="cls-1" d="M180.32,318.32l11.05.63c-4,5.25,2.73,5.53,3.69,8.88-7.57,2.27-14.58-3.06-22.14-1.45l.63,2.31a11.45,11.45,0,0,1-1.55.19c-10.35-.56-20.69-1.1-31-1.75A17.16,17.16,0,0,1,137,325.9C151.08,321.23,165.61,319.24,180.32,318.32Z"/><path class="cls-1" d="M490.17,451.41l1,.49,1.09.76,3.33,2c-4.41.3-8.81.7-13.22.84-4,.13-8,0-12-.06l-9.9-.57-.09,0-4.41-.39c3.58-1.51,7.11-4.15,10.74-4.29C474.51,449.91,482.35,450.93,490.17,451.41Z"/><path class="cls-3" d="M222.54,456l9-2.61Z"/><path class="cls-2" d="M364.14,181.49l-3.72,8.43Z"/><path class="cls-2" d="M369.78,170.61l-3.44,6.7Z"/><path class="cls-3" d="M212,458.39l9.19-2.19Z"/><path class="cls-2" d="M358.72,194.2c-.17.35-.33.71-.49,1.06C358.39,194.9,358.56,194.55,358.72,194.2Z"/><path class="cls-2" d="M360,191.17c-.25.5-.49,1-.73,1.49C359.48,192.16,359.72,191.67,360,191.17Z"/><path class="cls-2" d="M365.57,178.84l-.68,1.25Z"/><polygon class="cls-2" points="356.73 198.8 356.6 198.97 356.52 198.77 356.73 198.8"/><path class="cls-1" d="M376.13,484.21l-.05,0Z"/><path class="cls-1" d="M401.8,263.27l5-2.19c.76-.9,2.21-1.91,2.09-2.67a4,4,0,0,0-2.53-2.38c-3.65-1.08-7.39-1.84-11.09-2.75-3.33-.83-4.61-3-4.57-6.39a45.73,45.73,0,0,0-.8-7.53c-.67-4.27,2.53-6.65,4.85-9.09,6.88-7.2,15.6-11.86,24.42-16.25,2.58-1.28,3.9.21,4.7,2.45,1.89,5.32,3.75,10.67,5.63,16,.4,1.15.85,2.28,1.65,4.37,12.88-14.68,28.68-24.12,45.77-33.19-4.69-2.87-3-6.25-2.19-9.6,1.06-4.52.51-5.08-3.56-7a5.57,5.57,0,0,1-2.69-3.87c-.67-8.8.32-17.47,1.83-26.18,1.58-9.11,4.35-18.19,1.81-28.43-.23.62-.49,1.24-.71,1.87-1.81,5.22-6.14,6.91-11,7.43-.88.1-2.11-1.54-2.91-2.58A39.28,39.28,0,0,1,455,131a31.13,31.13,0,0,0-5,3.4c-1.19,1.18-1.61,3.11-2.74,4.38a39,39,0,0,1-6.12,5.87c-3.16,2.29-6.63,4.16-10,6.22a2.68,2.68,0,0,0-.78.68c-4.78,6.61-9.6,13.19-14.28,19.88-1.71,2.45-2.84,5.33-4.69,7.65a5.91,5.91,0,0,1-4.27,2c-2.15-.08-3,.39-3.06,2.53-.07,3.55-.29,7.09-.36,10.64-.15,6.58-.18,13.16-.39,19.74-.05,1.28-.71,2.53-1.33,4.65-.9-1.36-1.58-1.92-1.62-2.53-1-13.91-2.06-27.81-2.88-41.73-.09-1.68,1-3.43,1.57-5.15.44-1.41.78-2.86,1.31-4.24.69-1.78,1.48-3.52,2.28-5.25.48-1,1.15-2,1.59-3,3.13-7.39,6-14.9,9.4-22.18a126.68,126.68,0,0,1,8.2-14.77c4.49-7,11.22-11.26,19.11-13.47,5.09-1.44,10.31-2.9,15.55-3.25,7.05-.47,14.31-.84,20.29,4.58,2.33,2.12,5.61,3.2,8,5.26,8.7,7.46,13.89,17.1,16.67,28.11a18.41,18.41,0,0,1,.48,4.12c.11,7.52.87,15.12,0,22.53a134,134,0,0,1-5.12,22.88c-1.46,4.92-4.08,9.49-6.26,14.18-1,2.09-2.29,2.59-3.79.39-1.23-1.82-2.49-1.5-4.05-.3-3,2.31-6.12,4.49-9.24,6.65-6.2,4.32-9.82,10.69-13.33,17.06-2.56,4.63-4.74,9.47-7,14.28-1,2.12-2.46,3.07-4.67,2.65a11.13,11.13,0,0,0-9.18,1.93c-3.33,2.43-4.14-1.15-6.09-3.56-1.68,4.76-1.64,9.15-1.87,13.48L430,258.83c-3.32,2.11-5.67,5.73-10.37,5.62-5.05-.12-10.12.42-15.18.46C403.59,264.91,402.7,263.84,401.8,263.27Z"/><path class="cls-3" d="M430,258.83l1.43-1.54c3.53-.37,7-1,10.59-1a12.34,12.34,0,0,1,5.49,1.54c2.39,1.22,3.92.8,5.06-1.56.6-1.24,1-2.78,2-3.6,1.25-1.06,3.81-2.51,4.35-2.06,1.36,1.13,2.81,3.39,2.57,4.94-.6,3.91-2.47,7.48-6.3,9.42s-7.81,3.75-12.06,5.78a62.26,62.26,0,0,0,7.3,2.47c3.07.63,3.34,1.94,1.62,4.22l-1.51-.13c-5.68.47-6.7,2.52-3.78,7.27,3.11,5.06,6.09,10.21,9.12,15.32L445.27,299l-3.34-2.57,5.18.75.82-.88c-2.76-4-4-8.95-8.39-11.87a2.64,2.64,0,0,0-2.45.75c-1.06,2.78-3.48,3.44-5.85,4.26a14.18,14.18,0,0,1,1.82-2.72c2.75-2.56,2.67-3.17-.05-5.69-4.3-4-9.51-6-15-7.52-1.62-3.47-1.34-4.21,2-5.36,1-.33,2-.66,3-.95A9.26,9.26,0,0,0,430,258.83Z"/><path class="cls-1" d="M552.57,380.74c-.33-2.54-.77-5.08-.92-7.64,0-.88.45-2.35,1.07-2.59,1.5-.58,3.64-1.34,4.76-.69,3.86,2.19,7.85,4.49,10.94,7.6A200.49,200.49,0,0,1,586.87,398c3.39,4.5,5.17,10.27,7.4,15.58.79,1.89-.51,2.92-2.46,2.32a12.59,12.59,0,0,1-3.7-1.85q-11.26-8.38-22.4-16.91a22.92,22.92,0,0,1-2.21-2.63c-3-3.14-6.1-6.21-9.08-9.38a45.68,45.68,0,0,1-3-3.89Z"/><path class="cls-1" d="M445.27,299l10.61.86c3.61-.64,1.95-2.6,1-4.22s-2.56-3.26-3.37-5.09a63.26,63.26,0,0,1-3.18-9.1c-.34-1.28.13-2.78.24-4.18l1.51.13,14.46-.81c1.7.29,3.38.67,5.09.85,5.66.59,5.66.56,6.48,6.07,0,.7,0,1.4,0,2.1q-1.14,5.69-2.26,11.36c-1.19.79-2.81,2.53-3.48,2.22-3.08-1.43-5.43.23-7.88,1.28a23.23,23.23,0,0,1-16.55,1.19C446.84,301.35,446.14,299.94,445.27,299Z"/><path class="cls-3" d="M478.08,283.53c-.82-5.51-.82-5.48-6.48-6.07-1.71-.18-3.39-.56-5.09-.85,0-.34-.08-.69-.13-1a22.64,22.64,0,0,0,2.61-3.14c2.67-4.7,5.21-9.46,7.79-14.2,4.12-1.41,8.19-3,12.39-4.17a101,101,0,0,1,12.13-2.32c.49-.07,1.92,1.81,1.72,2.24a21.11,21.11,0,0,1-3.57,5.85c-3.58,3.75-7.6,7.09-11.18,10.85-2,2.13-3.44,4.83-5.26,7.17C481.47,279.83,479.73,281.64,478.08,283.53Z"/><path class="cls-3" d="M475.79,297q1.14-5.69,2.27-11.36a13.78,13.78,0,0,0,3.52,1.22c9.15.57,17.72-1.81,26.15-5.12,1.9-.75,4.15-.64,6.62-.39-5.75,7.37-11.43,14.52-14.59,23.21-2.76-1.05-5.48-2.22-8.3-3.12-3.21-1-6.5-1.82-9.76-2.72Z"/><path class="cls-3" d="M494.09,338.67l1.17-.57c4.17,1.7,8.3-.39,11.24-5.69l13.18-7c3.72,0,7.5-.44,11.15.08,2.9.41,3.2,2.21,1.06,4.36-1.79,1.78-4.13,3.09-5.62,5.07a14.08,14.08,0,0,0-2.62,6.31c-.43,3.22-1.15,4.3-4.53,4.07-5.49-.37-11-1-16.48-1.22-1.17-.06-2.38.91-3.57,1.4l-4.27-1.8C494.56,342,494.32,340.33,494.09,338.67Z"/><path class="cls-1" d="M522.54,447.22c3.51,0,7,.16,10.53-.05a54.56,54.56,0,0,0,6.76-1.24q6.95-1.35,13.89-2.68c3-.59,6.1-1.14,9.15-1.72a10.21,10.21,0,0,1,2.71-.52c7.93.79,15.29-1.88,22.82-3.57.94-.22,2,.26,3.05.41-.58.9-1,2.2-1.78,2.65-8.22,4.49-16.41,8.91-26.27,8.91-8.06,0-16.12,1-24.18,1-5.57,0-11.14-.92-16.7-1.43C522.52,448.39,522.53,447.81,522.54,447.22Z"/><path class="cls-1" d="M476.78,258.24c-2.58,4.74-5.12,9.5-7.79,14.2a22.64,22.64,0,0,1-2.61,3.14c-3.54-2.05-1.74-4.81-.36-6.76a25,25,0,0,0,4.67-11.59c.43-3.37,2.72-6.52,4.24-9.73,2.07-4.36,4.23-8.67,6.27-13,1.62-3.46,3.16-4.14,6.56-3Z"/><path class="cls-1" d="M566.52,342.24c-1.51,1.06-2.82,2.09-4.25,2.95-4.12,2.47-8.25,4.9-12.45,7.25a5.25,5.25,0,0,1-2.69.43c-5.6-.28-11.19-.64-16.79-1a6.41,6.41,0,0,1-2.39-.19,30.64,30.64,0,0,1-3.43-2.4c1-.68,2-1.8,3.1-2,12.65-1.95,25.31-3.76,38-5.6C565.77,341.71,566,341.93,566.52,342.24Z"/><path class="cls-1" d="M481.7,298.71c3.26.9,6.55,1.69,9.76,2.72,2.82.9,5.54,2.07,8.3,3.12,3.11,1.69,6.25,3.3,9.31,5.08,1,.61,2.9,1.33.83,3L506.61,311c-1.05-.47-2.07-1-3.14-1.41-6-2.35-12-1.32-18.07-.14a5.7,5.7,0,0,1-4.13-.57C478.84,307,479.27,301,481.7,298.71Z"/><path class="cls-1" d="M505.58,353.33a13.85,13.85,0,0,0-2.19,3c-2.81,7.82-8,14.09-13,20.5l-1,1.39c-.14.22-.29.43-.43.64-2.82.5-3.4-.83-2.4-3.13,1.41-3.26,3.23-6.37,4.4-9.7,1.39-3.93,2.53-7.88,6.59-10l0,0a44.77,44.77,0,0,1,4.23-1.94A28.2,28.2,0,0,1,505.58,353.33Z"/><path class="cls-1" d="M494.8,343.65l4.27,1.8,5.39,3.59-.22.63-11.31-2.88C493.69,345.52,494.24,344.58,494.8,343.65Z"/><path class="cls-1" d="M373.94,166.49c1-3.79,1.82-7.7,5.31-10l1.11.65q-3.23,4.67-6.43,9.34Z"/><path class="cls-1" d="M373.93,166.47c-.13.51-.25,1-.37,1.52l-.46-.18.84-1.32Z"/><path class="cls-1" d="M326.37,324.9c.12.23.25.46.38.69,2,3.73,5.43,3.78,9.27.34a58.63,58.63,0,0,1,6.22-4.74c2.32-1.59,4.8-2.95,7.12-4.54.64-.43,1-1.31,2-2.79H344c-2.77-.61-5.5-1.54-8.3-1.76-4.09-.33-8.22-.16-12.33-.17-1.26,0-2.54.2-3.79.1-2-.14-2.5-1.36-2-3.15,2.31-2.68,4.22-5.93,7-7.89a22.74,22.74,0,0,0,7.2-8.09q2.27,5.24,4.52,10.49c1.19,3.35,2.24,3.79,5.3,2.39a16.42,16.42,0,0,1,4.48-1.62,6.36,6.36,0,0,0,5.58-4c2.56-.28,2.34,1.71,2.48,3.21.27,2.75.36,5.51.52,8.27,1.38,1.83,2.46,4.06,4.22,5.41,3.52,2.7,7.44,1.11,11.21.21-.12,2.12-.25,4.23-.37,6.35l-.16.94c0,.68,0,1.35,0,2,.38.66.68,1.84,1.14,1.91,4.7.69,3.33,3.29,2,5.92l-4.53-.7c-.78-1.11-1.33-2.69-2.41-3.24a41.92,41.92,0,0,0-8-3,2.85,2.85,0,0,0-2.42,1.38,19.94,19.94,0,0,0,.41,4.7,11.53,11.53,0,0,1,3.5-.38,21,21,0,0,1,4,1.59c-.6,1.23-1,2.67-1.87,3.61-.72.76-2.2.76-3.11,1.41-.73.52-1.72,1.69-1.55,2.28,1.22,4.38-.1,7.91-4.27,11.37,4.2-.28,7.63-2.72,10.19.93l.39,4.48a6.26,6.26,0,0,1-1.6.63c-3.46.35-3.64,3-3.93,5.56a1.45,1.45,0,0,0,2.56,1.25c2.86-2.3,5.64-4.68,8.45-7l5.87,1.25c.07,1.87-.5,4.11.33,5.55,2.16,3.75,4.92,7.14,7.82,11.21a59.13,59.13,0,0,0,2.41-5.67,18.94,18.94,0,0,0,.38-3.94,28.71,28.71,0,0,0-4.23-.23c-1.3.11-2.75,1.25-3.26-1q2.49-3.25,5-6.52c1.2-1.59,2.38-3.2,3.57-4.8,1.5,1.2,3,2.37,4.48,3.61a6.31,6.31,0,0,1,.95,1.44c-.59,1-1.5,1.89-1.68,2.93s.36,2.22.59,3.33a9.14,9.14,0,0,0,2.67-1.4,26.11,26.11,0,0,0,2.48-3.63l1.6-.46,2.47-1.83c3.15-.84,4.58.55,4.71,3.64,0,.92-.13,2.07.34,2.69a11.45,11.45,0,0,0,2.84,2c.38-.94,1.08-1.89,1.05-2.81-.05-1.71-.8-3.4-.79-5.1,0-3.1-1.39-4.82-4.2-6-4.53-1.9-4.72-3.84-.72-6.64,1.12-.78,2.75-.81,4.15-1.18l1.69,1.39a2.54,2.54,0,0,0,.29.28q2,1.56,4,3.11l5.71,1.56a27.42,27.42,0,0,1-1.56,3,7.87,7.87,0,0,0-.49,8.66c.08.93.15,1.87.23,2.8l-2.29,2.7c3.25,3.63,4.25-.56,6.16-1.26l2.93-.67c3-2.34.34-4.46-.54-6.31-3-6.27-3-6.54,3.83-8.74.55-.18,1.09-.38,1.63-.58l5.08-.7h0l1-.07c-.49,4.79,1.47,10.22-3.68,13.83-.29.21.31,1.68.49,2.56l1.85.7,1.19.47,4.9,1.24c-2.84,5.28-5.5,10.5-4.53,16.94.41,2.69-2.05,2.88-3.83,1.69-2.31-1.55-3.78-.84-5.26,1.05-1.69,2.16-3.43,4.3-5.2,6.4-.73.87-1.6,1.61-2.41,2.41.49-4.92,1.95-9,6-11.73.86-.58,1.87-2.43,1.55-3a61.4,61.4,0,0,0-5.41-8.35c-1.19-1.58-2.86-3-4.74-.58-.89,4.27-1.78,8.54-2.71,13l-6.89,6.93-1.15,1-1.83,4.38-3.4-.13A17.31,17.31,0,0,0,380,401c-2.29,1.76-4.84,3.29-6.69,5.44-1.12,1.29-1.12,3.56-1.62,5.39-3.43-2.32-7-4.46-10.26-7a8.62,8.62,0,0,0-8.07-1.82c-2,.53-4.05.78-6.08,1.15l7.55-7a18.51,18.51,0,0,0,1.62-1.27c3.18-3,2.82-5.23-1.3-6.42-2.5-.71-5.21-.65-7.81-1-1.79-.22-3.56-.5-5.34-.76l8.05-6.33c4.32-1.58,6.4-3.87,5.95-6.54s-3.21-4.66-7.44-5c-.81-.07-1.63,0-2.42-.12a20.86,20.86,0,0,1-2.4-.66l-.16-.9c1.78-.93,3.62-1.76,5.31-2.84.74-.47,1.82-1.79,1.63-2.14-1.11-2.13-2.12-4.77-4-5.94-2.57-1.62-4.59.57-6.31,2.66a32.19,32.19,0,0,1-4.06,3.54l-.94-.69c.17-1.19.66-2.45.42-3.55s-1.14-3-1.82-3.06a113.05,113.05,0,0,0-13.4.15c-1,.07-1.88,1.5-2.82,2.3l-3.54,4.21-1-3.27c-.17-1.6-.45-3.19-.47-4.79-.06-3.29,0-6.58.05-9.86l9.34,1.52.24.2.26-.19,2,0c1.28-1.39,2.58-2.75,3.84-4.16.88-1,1.7-2,2.55-3.05l.89.86,3,5.28,11.47-10.93c1.67,2.18,2.48,6.14,1.11,7.9-2,2.52-5.89,3.52-8.85,5.11l6.14,4.69c3.06,2.35,4.54,1.79,5.6-2,.81-2.89,1.77-5.74,2.85-9.22-.58-2.68-1.54-6.18-2-9.74-.37-2.69-1.26-3.48-3.77-2.47-2.24.89-4.51,1.69-6.77,2.53l-10.27,1.94-4.89-1c-.92,2.38-1.57,4.09-2.23,5.79l-2.86.08-1.16.12c-1.23.21-2.53.75-3.67.52-.78-.15-1.35-1.38-2-2.13,1.18-1.5,2.7-2.86,3.46-4.55.95-2.14,1.35-4.56-1.63-5.83A5.52,5.52,0,0,0,308,328.7c1.35.59,2.67,1.24,4,1.76,1.69.65,1.76,1.61.71,2.89l-12.54,7.59v-5.67a27.24,27.24,0,0,0-.23-4.44c-.94-4.59,2.68-9.82,7.29-10.34,1.87.55,3.77,1,5.6,1.68,3.35,1.2,5.31.14,6-3.37a16,16,0,0,1,1.18-2.74l5.95,8.3A1.11,1.11,0,0,0,326.37,324.9Zm39.12,68.29,2,1.78,3.76,6.81c2.48-4.19,4.69-7.94,6.9-11.69,1.87-2.37.56-3.43-1.68-4.19-3.81-1.29-7.05-.06-10.39,1.8-2.91,1.61-3.25,2.62-.78,5.28Zm27.56-2.87a84.45,84.45,0,0,0,2.31-9.85c.08-.67-2.1-2.37-3.18-2.32-2.88.14-4.65,2.12-5.55,4.89s1.14,3.91,2.89,5.17C390.43,388.85,391.44,389.36,393.05,390.32Zm-25.1-15c-3.59-1.84-7.5-1.39-8.93.74-2.33,3.43,1.39,4.34,2.78,6.89C364,380.26,365.94,377.86,368,375.36ZM405,368.53c-2.11,1.75-4.8,3.35-4.6,3.93.83,2.33,2.54,4.35,3.93,6.48a64.61,64.61,0,0,0,2.48-6.95C407,371.27,406,370.25,405,368.53Z"/><path d="M237.73,381.25a74.82,74.82,0,0,0,5.74,5c2.8,2,5.8,3.69,8.73,5.5,2.15,1.33,4.26,2.75,6.51,3.89.8.41,2,.1,2.94.11a15.71,15.71,0,0,0-.17-2.84,6.73,6.73,0,0,0-1.11-2.14c-2.42-3.38-2.22-6.23.5-9.66,3.76-4.78,4.63-10.74,4.72-16.74,0-2.83,0-5.67,0-8.5l1.19-.57c1.25,1.29,2.89,2.39,3.68,3.92,1.37,2.67,3.09,2.82,4.83.94,4.44-4.75,10.21-8.34,12.62-14.92,1.14-3.12,3-3.42,5.6-1.26,1.92,1.6,3.72,1.44,5.77.52,2.66-1.18,3.67.19,3.73,2.66.08,3.1-1.72,5-4.39,6a40.92,40.92,0,0,1-6.67,1.76c-4.07.8-5.29,2.09-5.62,6.19a17.39,17.39,0,0,1-.66,4.08c-.83,2.49-.17,4.44,1.43,6.4.78,1,1.75,2.89,1.34,3.47a5.6,5.6,0,0,1-3.72,1.8,70,70,0,0,1-8.32.11c-2.76-.06-4.21,1.14-3.88,4,.54,4.6.89,9.24,1.84,13.74,1.45,6.84,5.21,11.71,12.59,13a3.09,3.09,0,0,1,2.13,1.84c.13.67-.8,1.71-1.5,2.33-2.89,2.56-6.28,2.3-9.83,1.75-7.55-1.19-8.47-.63-11.82,6.29-.85,1.77-2,3.54-2.27,5.42-1,6.87-6.12,7.89-11.6,8.44-5.05.5-10.11,1.29-15.15,1.2a31.25,31.25,0,0,1-10.33-2.33c-3-1.15-3.36-3.62-2-6.61a85.38,85.38,0,0,0,3.21-8c1.24-3.61.32-5.28-3.24-6.77-4.66-1.94-9.39-3.78-13.91-6-3.62-1.79-3.42-4.44.08-6.66s7.12-4.59,10.55-7.06a2.85,2.85,0,0,0,.92-2.53c-1.55-3.47.53-5.39,3.14-6.11,3.81-1,7.85-1.24,11.79-1.8A5.89,5.89,0,0,1,237.73,381.25Z"/><path d="M425.32,393.57c4.48.77,4.92,1.51,5.38,6.08,1.09,10.94-2.82,20.28-8.43,29.33-3.11,5-6,10.15-10.81,13.72a22.59,22.59,0,0,1-6.5,3.49c-2.85.9-4.83,2-4.76,5.38.07,3.16-1.24,4.51-4.54,3.35a17.28,17.28,0,0,0-4-.38c.31,1,.31,1.57.59,1.73,4.66,2.85,6.59,7.35,7.17,12.44.26,2.25.45,5.41-.81,6.66s-4.38.79-6.69.87a8.44,8.44,0,0,1-2.64-.81c-2.47-3.82-5.56-7.39-7.23-11.54-1.26-3.13-.93-7-.87-10.54.08-3.88,3.3-4.91,6.3-5.19,3.54-.32,5.45-1.7,6.83-5.11a65.5,65.5,0,0,1,7.4-14c2.57-3.54,6.49-6.1,9.72-9.19,1-1,2.47-2.24,2.55-3.44.41-6.36,5-10.47,7.87-15.47.73-1.24,1.29-2.58,1.92-3.88.1-.21.18-.42.27-.64l.55-1.41C424.85,394.52,425.09,394.05,425.32,393.57Z"/><path class="cls-2" d="M342,387.67c1.78.26,3.55.54,5.34.76,2.6.32,5.31.26,7.81,1,4.12,1.19,4.48,3.43,1.3,6.42a18.51,18.51,0,0,1-1.62,1.27c-2.42-5.91-8.26-4.92-12.88-6.19-2.34-.64-3.86-1.41-4.61-3.88-.35-1.15-2-2.95-2.61-2.78-1.27.35-2.32,1.73-3.27,2.84a6.83,6.83,0,0,0-.83,2.23l-5.23-.64c.63-1.07,1.2-2.2,1.92-3.22,2.7-3.83,1.63-7.13-2.82-8.57-1.71-.55-3.4-1.16-5.09-1.74v-1l4-.87c.37.66.65,1.83,1.13,1.92a103.54,103.54,0,0,0,11.6,1.68c.73.06,2.17-1.67,2.3-2.7a35.29,35.29,0,0,0,0-7.55c-.06-.63-1.11-1.7-1.66-1.67a24.11,24.11,0,0,0-5.72,1,2.89,2.89,0,0,0-1.48,2c-.07.41.93,1.18,1.58,1.5a31.27,31.27,0,0,0,3.44,1.24l0,1.23-9.65.9-3.54-5.28a27.84,27.84,0,0,0,4.78-2c1.22-.77,2.05-2.18,3.05-3.31-1.31-1.13-2.47-2.87-4-3.26-2.41-.62-5-.34-7.58-.45.94-.8,1.83-2.23,2.82-2.3a113.05,113.05,0,0,1,13.4-.15c.68,0,1.58,1.91,1.82,3.06s-.25,2.36-.42,3.55l.94.69a32.19,32.19,0,0,0,4.06-3.54c1.72-2.09,3.74-4.28,6.31-2.66,1.86,1.17,2.87,3.81,4,5.94.19.35-.89,1.67-1.63,2.14-1.69,1.08-3.53,1.91-5.31,2.84l.16.9a20.86,20.86,0,0,0,2.4.66c.79.13,1.61.05,2.42.12,4.23.35,7,2.2,7.44,5s-1.63,5-5.95,6.54c-1.76-1.16-3.41-2.63-5.34-3.33a3.67,3.67,0,0,0-3.29,1.53,20.44,20.44,0,0,0-1.32,6.38C340.07,386.45,341.34,387.09,342,387.67Z"/><path class="cls-2" d="M425.32,393.57c-.23.48-.47.95-.7,1.42l-.55,1.41c-.09.22-.17.43-.27.64a25.8,25.8,0,0,0-11.23,17.46c-.22,1.25-.87,2.94-1.84,3.46C403,422.1,399,429.5,394.25,436.22c-3.8,5.37-3.55,5.18-10.05,3.28-5.14-1.5-10.53-2.14-15.8-3.16a14.59,14.59,0,0,1,15.79.5c1.83,1.21,4.54,1.08,6.85,1.56-.1-2.16-.21-4.33-.31-6.49,1.73-3.18.35-7.06-3.25-10.07-1.09-.91-1.62-2.5-2.4-3.77,4.24-.37,6.72,2.64,9.26,5.18,1.84,1.85,3.31,1.87,5,.2,1-1,1.65-2.24,2.65-3.16,1.31-1.19,2.65-2.6,4.25-3.16,5.3-1.88,5.82-2.94,3.15-8,1.21-1.25,2.95-2.28,3.53-3.77,2.65-6.83,5-13.78,7.41-20.68,1.48-4.21-.44-8.8-4.27-10.23,1.88-2.4,3.55-1,4.74.57a61.4,61.4,0,0,1,5.41,8.35c.32.6-.69,2.45-1.55,3-4.06,2.74-5.52,6.81-6,11.73.81-.8,1.68-1.54,2.41-2.41,1.77-2.1,3.51-4.24,5.2-6.4,1.48-1.89,2.95-2.6,5.26-1.05,1.78,1.19,4.24,1,3.83-1.69-1-6.44,1.69-11.66,4.53-16.94l1.14-.39,9,16.89c2.23-3.71,4.5-6.43,5.58-9.56,1.39-4.05,1.9-8.4,2.59-12.66.08-.54-1.09-1.29-1.69-1.94l3.9-.3c.14.46.27.91.41,1.36-.21,4.36-.23,8.74-.68,13.08-.37,3.5-.34,7.58-2.18,10.24-1.69,2.47-5.61,3.44-8.62,4.9-.2.1-1.3-1.12-1.6-1.88-1.53-4-2.86-8-4.45-12-.42-1.06-1.52-1.84-2.31-2.75-.86.83-2.16,1.52-2.48,2.53a27.81,27.81,0,0,0-1.76,8.21c0,4.52-.26,5.14-5,5.29C429.21,390.76,426.58,390.63,425.32,393.57Z"/><path d="M309.92,419.93c-2.71.05-4.4-1.14-5.7-3.65-.89-1.73-2.88-2.87-4.18-4.45-1-1.25-2.57-2.82-2.46-4.14.52-6.51,1.34-13,2.48-19.46.26-1.46,2-3.09,3.43-3.83,2.69-1.36,3.15-3,2-5.61-1.83-4.31.13-8.15,1.94-11.83,1-2,3.16-1.91,4.13,0s1.86,4.42,1.26,6.14c-1.44,4.17-.15,7.39,1.93,10.75,3.11,5,3,5.44-1.77,8.91-2.78,2-6.19,3.68-5.47,8,.52,3.12,5.74,7.32,9.79,8,1.48.23,3,0,4.49.31a11.69,11.69,0,0,1,2.83,1.41,13.11,13.11,0,0,1-2.08,2.51c-.9.67-2.16.84-3.12,1.45a18.41,18.41,0,0,0-2.4,2.2,1.89,1.89,0,0,0,0,.41l-1.46-.29-1.37.41Z"/><path class="cls-1" d="M320.6,493.53c-3.72,6.35-4.2,13.44-4.26,20.62l-.94.21a85.48,85.48,0,0,1-3.83-8.18c-1.63-4.68-3.72-9.42-4.08-14.25s.78-10,2-14.78c.45-1.72,3.2-2.79,4.8-4.25,2.8-2.56,5.48-5.24,8.31-7.76a11.84,11.84,0,0,1,2.85-1.41,9.8,9.8,0,0,1,.63,3.14c-.52,3.64-1.28,7.25-1.94,10.87-.1.65-.19,1.31-.28,2-.31,1-.63,2-.95,3Z"/><path d="M354,464.67c-1.05,4.32-2.07,8.65-3.19,12.95-.54,2.08-1.74,2.3-3.66,1.32-2.75-1.41-5.65-2.57-8.53-3.71-4.9-2-7.92-9.36-5.74-14.29,2.95-6.71,8.71-9.45,15.75-7.43,2.69.77,4.44,2.44,4.49,5.43,0,1.84,0,3.69,0,5.54Z"/><path class="cls-2" d="M300.6,428.86c.31,5.1.06,10.3,1.09,15.25.75,3.58.92,6.09-2.66,7.79L299,452l-7.7-.15a33.65,33.65,0,0,1-1.23-4c-.24-1.34.33-3.48-.35-3.94-1.06-.72-2.92-.56-4.37-.32-5.88.95-11.73,2.08-17.58,3.15-.65-1.32-1.29-2.63-1.93-4,2.51-5.34,5.25-10.59,7.4-16.07.83-2.12-1.6-2.78-3.11-2.22-1.73.63-3.16,2.07-4.72,3.17,1.08-6.45,3.39-8.55,9.83-9,2-.14,4-.41,5.91-.61-2.13,3.51-4.24,6.87-6.22,10.3-1.45,2.5.24,12.59,2.4,14.37a3.77,3.77,0,0,0,2.21.72c5.59,0,15.34-6.89,17.39-12.25l.9-2.82,2.19-4.18Z"/><path d="M349,442.24l27,5.1c2.24.42,2.5,2.11,1.76,3.69-2.28,4.9-4.58,9.81-7.33,14.45a6.6,6.6,0,0,1-4.76,2.61c-.88.05-2.38-2.32-2.73-3.81-2-8.41-5.51-15.43-14.62-18.12-.74-.21-1.11-1.68-1.65-2.56Z"/><path d="M264.1,348.59l-4.19-1.45c-.39-.82-.56-1.89-1.19-2.43-4.22-3.56-4.49-8.33-4.35-13.29.07-2.61,1.42-4.15,3.57-5.48,3.5-2.18,6.8-4.68,10.22-7,.68-.45,1.89-1.08,2.26-.81a3.28,3.28,0,0,1,1,2.38,45.37,45.37,0,0,1-.54,5,.88.88,0,0,0-.16.61c-3,7.73-1.9,15.35.69,22.92,0,.39.11.79.16,1.18a16.83,16.83,0,0,1-4.29.19C266.14,350.24,265.15,349.25,264.1,348.59Z"/><path class="cls-1" d="M409.37,409.13c2.67,5.06,2.15,6.12-3.15,8-1.6.56-2.94,2-4.25,3.16-1,.92-1.68,2.19-2.65,3.16-1.67,1.67-3.14,1.65-5-.2-2.54-2.54-5-5.55-9.26-5.18-1.36-3.32,1.7-4.83,2.91-7.1,1.08-.68,2.79-1.14,3.13-2.09a8,8,0,0,1,5-4.87l4-1.81,2.09-.26Q405.8,405.53,409.37,409.13Z"/><path class="cls-1" d="M344.11,433.72c.05.52.11,1,.17,1.57-3.87.38-7.45.14-9.31-4.11-.26-.58-1-.9-1.49-1.4-3.05-3.25-9.37-2-10.69-7.85-.15-.67-2.47-.86-3.79-1.24s-2.49-.68-4.06-1.1L317,417a1.89,1.89,0,0,1,0-.41l7.82-2.16c2.26-.37,3,1.19,3.68,2.88.77,2,2.15,2.79,4.25,2.05,4.17-.11,6.8,2,8.26,5.75C342.19,427.93,343.1,430.84,344.11,433.72Z"/><path class="cls-1" d="M390.73,431.91c.1,2.16.21,4.33.31,6.49-2.31-.48-5-.35-6.85-1.56a14.59,14.59,0,0,0-15.79-.5H357.52l-.29-.91,7-6.15,14-3.5,1.27.56,1.31.59C385.21,424.76,386.23,425.27,390.73,431.91Z"/><path class="cls-1" d="M293.12,405.91c-5.32-7.55-10.74-15-15.89-22.71-1.17-1.75-.14-3.4,2.19-3.57,2.65-.2,5.3-.37,8-.42,2.4,0,3.49,1.07,2.57,3.52-.28.76-.69,1.47-1,2.2-1.94,4.22-1.48,5,3,5.88,1.06.22,2.74,1.24,2.79,2,.27,4.15.13,8.33.13,12.49Z"/><path class="cls-2" d="M317,417l-2.09,2.6c1.57.42,2.82.74,4.06,1.1s3.64.57,3.79,1.24c1.32,5.85,7.64,4.6,10.69,7.85.47.5,1.23.82,1.49,1.4,1.86,4.25,5.44,4.49,9.31,4.11.62,5.1-.6,6.16-5.16,4.26-5.61-2.34-11.22-4.7-16.69-7.32-1.11-.53-2-2.2-2.34-3.52-.75-2.81-2.24-4.5-5.21-4.68a5.15,5.15,0,0,1-5-4.11q2.15-1.4,4.27-2.81l1.38-.41Z"/><path class="cls-1" d="M221.75,365.82c1.36-.31,3-1.24,4.05-.82,3.38,1.29,6.57,3.08,9.82,4.71,1.63.81,3.21,1.75,4.85,2.56a39.72,39.72,0,0,1,3.76,1.67c5.2,3.27,5.14,6.52-.1,10.11l-4-2.4-.09-.08-1.7-.78-.81-.45-5.9-5.19-3.48-3-1.74-1.52a.59.59,0,0,0-.38-.36l-1.21-.76-1.37-1.68Z"/><path d="M297.78,428.37l-.9,2.82a12,12,0,0,0-2.45,1.24c-1.71,1.39-3,1-4.51-.43-1.85-1.69-4.11-2.92-6-4.58-1.11-1-2.77-2.59-2.56-3.56.33-1.49,2-2.71,3.21-3.95.37-.37,1.07-.41,1.61-.6,6.79-2.37,10.54-.05,11.32,7C297.57,427,297.69,427.69,297.78,428.37Z"/><path d="M348.83,437.71c-1-1.49-2.25-2.67-2.53-4.06a48.31,48.31,0,0,1-1-9.59c0-1,1.75-2.89,2.41-2.77a45.34,45.34,0,0,1,9.95,2.77c3.25,1.41,3.5,3.73,1.14,6.32a39.26,39.26,0,0,1-4.68,4.62C352.82,436,351.13,436.57,348.83,437.71Z"/><path class="cls-1" d="M281.5,326.5l0,.82a.82.82,0,0,0,.47.34l.18.2c-.05.69-.11,1.39-.16,2.09l-5.34,2-.53.44-.92.86c0,1.31-.44,3.19.24,3.84,4,3.82,2.69,8.5,2.29,12.94-.16,1.7-1.54,3.29-2.67,5.54l-1.83-3.51c-.09-.51-.17-1-.26-1.55q-.83-8.65-1.66-17.32l0-2.8c.19-1.48.38-3,.56-4.46l.39-.54.09-.09,3.51-1.14,2.15.83,2,1.17Z"/><path class="cls-1" d="M325.41,388.67l5.23.64c1.08,2.38,4.26,3.21,4.35,6.48.06,2.66.92,5.31,1.42,8l-.86.44-2.1-2.29a28,28,0,0,0-3.73-2.47c-1.65-.76-3.7-.83-5.11-1.84-2.32-1.68-4.56-3-7.55-2.61-.23,0-.59-.91-.89-1.4Z"/><path class="cls-1" d="M267.72,446.72c5.85-1.07,11.7-2.2,17.58-3.15,1.45-.24,3.31-.4,4.37.32.68.46.11,2.6.35,3.94a33.65,33.65,0,0,0,1.23,4c-5.78,2.35-11.24.25-16.63-1.43C272.17,449.61,270,448,267.72,446.72Z"/><path d="M300.6,428.86l-.63-4.67,1.17-4.3c1.43.59,3.06.92,4.25,1.83,4.26,3.26,5.36,8,4.81,12.94-.18,1.61-2,4-3.47,4.3-2.52.56-3-2.07-3.58-4.1A56.23,56.23,0,0,0,300.6,428.86Z"/><path class="cls-2" d="M250.83,468.83l-1.11,8c-3.15-.76-6.7-1.61-10.24-2.51-.26-.07-.51-.47-.64-.78-1.32-3,2.7-9.72,6-9.75a5.17,5.17,0,0,1,3.24,1.48A24.44,24.44,0,0,1,250.83,468.83Z"/><path class="cls-2" d="M300.85,372.65c-2.66-.95-5.3-2-8-2.83s-4-4.08-3.45-8.42c.39-2.88,1.93-4.3,4.93-3.81.76,1,1.35,2.69,2.32,3,3.08.84,3.87,2.79,3.84,5.61C300.49,368.32,300.72,370.48,300.85,372.65Z"/><path class="cls-2" d="M273.26,352.08l1.83,3.51c1.13-2.25,2.51-3.84,2.67-5.54.4-4.44,1.71-9.12-2.29-12.94-.68-.65-.19-2.53-.24-3.84.42,3.73,3.37,5.05,6.24,6.19,5.74,2.27,5.85,2.21,2.39,7.57a66.54,66.54,0,0,1-5.75,7.71c-.86,1-2.45,1.34-3.71,2Z"/><path d="M254.85,351a4.6,4.6,0,0,1,1.25.21c1.34.61,2.65,1.28,4,1.93-1.1,1.23-2,3.12-3.34,3.55a34.34,34.34,0,0,1-10.15,1.83c-1.53,0-3.07-2.08-4.61-3.21,1.39-1.12,2.63-2.8,4.21-3.24C248.92,351.33,251.88,351.34,254.85,351Z"/><path class="cls-2" d="M282,330c.05-.7.11-1.4.16-2.09,3.55-.28,7.1-.58,10.65-.83,3.31-.23,5.06-2.37,6.42-5,2.64-5.19,3.56-5.36,8-1.49-4.61.52-8.23,5.75-7.29,10.34a27.24,27.24,0,0,1,.23,4.44c-2.49-4.49-6.61-5.23-11.24-5C286.64,330.33,284.33,330.06,282,330Z"/><path class="cls-1" d="M265.36,427.65c1.56-1.1,3-2.54,4.72-3.17,1.51-.56,3.94.1,3.11,2.22-2.15,5.48-4.89,10.73-7.4,16.07-.1-3-1.67-3.82-5-2.82a8.43,8.43,0,0,0,3.64-8.86l.64-1.21C265.19,429.13,265.28,428.39,265.36,427.65Z"/><path class="cls-2" d="M347.29,404.11c2-.37,4.09-.62,6.08-1.15a8.62,8.62,0,0,1,8.07,1.82c3.25,2.54,6.83,4.68,10.26,7-.49.77-1.24,2.28-1.43,2.21-3.46-1.23-7.84.33-10.47-3.41-2.8-4-6-6.74-11.21-3.73-.57.34-1.51,0-3,0Z"/><path class="cls-1" d="M324.88,372.82l9.65-.9,0-1.23a31.27,31.27,0,0,1-3.44-1.24c-.65-.32-1.65-1.09-1.58-1.5a2.89,2.89,0,0,1,1.48-2,24.11,24.11,0,0,1,5.72-1c.55,0,1.6,1,1.66,1.67a35.29,35.29,0,0,1,0,7.55c-.13,1-1.57,2.76-2.3,2.7a103.54,103.54,0,0,1-11.6-1.68c-.48-.09-.76-1.26-1.13-1.92Z"/><path class="cls-1" d="M300.85,372.65c-.13-2.17-.36-4.33-.35-6.5,0-2.82-.76-4.77-3.84-5.61-1-.26-1.56-1.93-2.32-3l5-1.62,3.53.54c-1.57,1.9-2,3.57.61,5.07a2.76,2.76,0,0,1,1.05,2.28c-.45,3.06-1.15,6.09-1.85,9.1C302.7,373,301.49,372.76,300.85,372.65Z"/><path class="cls-2" d="M316.17,393.58c.3.49.66,1.44.89,1.4,3-.41,5.23.93,7.55,2.61,1.41,1,3.46,1.08,5.11,1.84a28,28,0,0,1,3.73,2.47c-6.28.14-12.74,1.22-18.2-3.15a15,15,0,0,1-2.32-3.09Z"/><path class="cls-2" d="M302.9,356.51l-3.53-.54a37.32,37.32,0,0,1,4.14-2.2c2.86-1.11,4-3.08,3.84-6.11a17.89,17.89,0,0,1,.7-4.09l4.65,1.25c0,3.29-.11,6.58-.05,9.87,0,1.6.3,3.19.47,4.79C309.73,353.6,309.73,353.6,302.9,356.51Z"/><path class="cls-2" d="M312.71,333.35c1.05-1.28,1-2.24-.71-2.89-1.37-.52-2.69-1.17-4-1.76a5.52,5.52,0,0,1,7.38-2.61c3,1.27,2.58,3.69,1.63,5.83-.76,1.69-2.28,3.05-3.46,4.55C313.24,335.43,313,334.39,312.71,333.35Z"/><path class="cls-2" d="M331,339.11c-.85,1-1.67,2.06-2.55,3.05-1.26,1.41-2.56,2.77-3.84,4.16.69-3,2.4-6.16-1.36-8.44.66-1.7,1.31-3.41,2.23-5.79l4.89,1C327.51,335.39,329.78,337.2,331,339.11Z"/><path class="cls-2" d="M378.26,425.78l-14,3.5a69,69,0,0,1,6.43-6.69c.86-.72,3-.63,4.13-.09C376.18,423.13,377.13,424.65,378.26,425.78Z"/><path class="cls-1" d="M233,345.6a3.26,3.26,0,0,1,1-.13c1.45.29,2.89.63,4.34.95a24.46,24.46,0,0,1-3.48,2.58,20.1,20.1,0,0,1-5.12,1.89c-1.2.24-2.54-.21-3.82-.35Z"/><path class="cls-2" d="M344.11,433.72c-1-2.88-1.92-5.79-3-8.62-1.46-3.7-4.09-5.86-8.26-5.75,5.27-3.35,6.4-3.11,8.32,2.62C342.41,425.79,343.13,429.8,344.11,433.72Z"/><path class="cls-2" d="M271.34,333.21q.82,8.66,1.66,17.32l-1.43-.25c-.05-.39-.11-.79-.16-1.18.08-2,.25-4.05.23-6.07C271.6,339.75,271.45,336.48,271.34,333.21Z"/><path class="cls-2" d="M396.09,404a8,8,0,0,0-5,4.87c-.34.95-2.05,1.41-3.13,2.09a45.59,45.59,0,0,1,3-6.54C392.26,402.45,394.19,401.8,396.09,404Z"/><path class="cls-2" d="M328.56,417.3c-.65-1.69-1.42-3.25-3.68-2.88L329,410.6l.89.53Z"/><path class="cls-2" d="M402.21,401.94l-2.09.26c0-.85,0-1.69-.07-2.54l3.41.13C403,400.5,402.63,401.22,402.21,401.94Z"/><path class="cls-2" d="M228.16,372.15l3.48,3Z"/><path class="cls-2" d="M322.94,482.67c.32-1,.64-2,.95-3C323.57,480.69,323.26,481.68,322.94,482.67Z"/><path class="cls-2" d="M223.46,367.83l1.37,1.68Z"/><path class="cls-2" d="M319.19,338.08l1.16-.12Z"/><path class="cls-2" d="M380.84,426.93l-1.31-.59Z"/><path class="cls-2" d="M265.11,429.88l-.64,1.21Z"/><path class="cls-2" d="M237.54,380.34l.81.45-.62.46a5.89,5.89,0,0,0-.59-.21C237.27,380.8,237.4,380.57,237.54,380.34Z"/><path class="cls-2" d="M322.54,346.36l-.26.19-.24-.2A.62.62,0,0,1,322.54,346.36Z"/><path class="cls-2" d="M226,370.27a.59.59,0,0,1,.38.36A.7.7,0,0,1,226,370.27Z"/><path class="cls-2" d="M240.05,381.57l.09.08Z"/><path class="cls-2" d="M276.15,332.41l.53-.44Z"/><path class="cls-2" d="M429,351.61c-.54.2-1.08.4-1.63.58-6.79,2.2-6.8,2.47-3.83,8.74.88,1.85,3.56,4,.54,6.31a16.3,16.3,0,0,0-5.48-9.31c-.62,2.3-1.09,4-1.55,5.74a7.87,7.87,0,0,1,.49-8.66,27.42,27.42,0,0,0,1.56-3c.05-.56.35-1.44.11-1.64a21.18,21.18,0,0,0-2.92-1.73,64.85,64.85,0,0,0,6.92,1.74c1.39.21,3.75.25,4.18-.5,1.35-2.31,4.66-4.44,2.83-7.55s-4.6-5.88-6.95-8.8c3.36.19,6-1.53,8.7-3.17,4.73,3.36-1.2,4.72-1.74,7.54l10.23,1.7c1.14-6.7-1-10.29-6.76-11.61a29.18,29.18,0,0,1,3.58-2.46c2.22-1.09,4.67-1.74,6.79-3s1.33-2.32-.69-2.84l4.54-1.67c-1-2.73-1.87-5.28-2.77-7.82,1.51,3.5,3.11,7,4.5,10.51.49,1.25.39,2.71.72,4,.9,3.69.53,4.27-3.35,4.86-5.08.76-6.5,4-3.75,8.49L444,341c-.35,2.32.51,3.74,3,4-2.33,1.22-4.55,2.79-7,3.55-3,.93-2.42,2.17-.95,3.88,1.87,2.19,3.83,4.31,5.61,6.57,1.3,1.65,2.52,3.47.57,5.53-1.27-2.37-2.23-5-3.88-7s-3.92-1.46-4.07,1.13c-.22,4-2.15,6.58-5.25,8.64-.18-.88-.78-2.35-.49-2.56,5.15-3.61,3.19-9,3.68-13.83,1.31-1.51,2.6-3,3.92-4.53.76-.87,1.57-1.7,2.35-2.55-1.33-1-2.55-2.33-4-2.8-1-.33-3.09.18-3.57,1C431.92,345,430.52,348.37,429,351.61Z"/><path class="cls-1" d="M445.12,364.5c1.95-2.06.73-3.88-.57-5.53-1.78-2.26-3.74-4.38-5.61-6.57-1.47-1.71-2.06-2.95.95-3.88,2.47-.76,4.69-2.33,7-3.55.66-.44,1.32-.9,2-1.32,1.92-1.19,3.26-.54,3.3,1.58a70.71,70.71,0,0,1-.63,8.83,25.19,25.19,0,0,1-1.05,3.26c-1.07,3.94-.12,5.08,4,4.82l2-.16c.6.65,1.77,1.4,1.69,1.94-.69,4.26-1.2,8.61-2.59,12.66-1.08,3.13-3.35,5.85-5.58,9.56l-9-16.89-.27-2.13,4.21-2.33Z"/><path class="cls-2" d="M448.59,431.43c3.45,2.23,3.67,3.64,1,4.75-9.18,3.72-18.43,7.28-27.67,10.88a3.62,3.62,0,0,1-2,.43c-1.22-.33-2.8-.68-3.4-1.58-.43-.64.12-2.63.87-3.26a88.22,88.22,0,0,1,9.41-6.92c2.31-1.45,3.22-2.69,1.45-5.23-.62-.89-.89-3-.33-3.54.84-.87,2.89-1.6,3.83-1.15a130.79,130.79,0,0,1,12.62,7C446.41,434.16,447.83,434.67,448.59,431.43Z"/><path class="cls-2" d="M481.7,298.71c-2.43,2.24-2.86,8.28-.43,10.21a5.7,5.7,0,0,0,4.13.57c6.06-1.18,12.07-2.21,18.07.14,1.07.41,2.09.94,3.14,1.41a15.09,15.09,0,0,1-4,.18c-7.75-1.7-15.37-1.57-22.33,2.48-2.62,1.53-4.48,4.35-6.69,6.58l-1.82-1.07c2.77-2.64,2.71-6,2.17-9.36a3.77,3.77,0,0,0-2.09-2.42,61.26,61.26,0,0,0-17.75-3.81A46.51,46.51,0,0,1,442.78,301c-2.79-.94-3.94-3.37-3.45-6.39l2.6,1.84,3.34,2.57c.87.92,1.57,2.33,2.62,2.66a23.23,23.23,0,0,0,16.55-1.19c2.45-1.05,4.8-2.71,7.88-1.28.67.31,2.29-1.43,3.48-2.22Z"/><path d="M460.83,363c-.14-.45-.27-.9-.41-1.36-1.41-1.41-3.79-2.67-4-4.27-.6-3.76-.19-7.68-.19-11.62.95.13,1.33.09,1.38.2,2.93,6.37,10.33,10.16,11.3,17.35,1,7.6.72,15.4.56,23.11-.05,2.38-2.13,3.85-4.83,3-2.47-.75-3.69-2.07-3.32-5.11.75-6,1-12.15,1.26-18.24C462.58,365.12,461.43,364.07,460.83,363Z"/><path class="cls-2" d="M490.17,451.41c-7.82-.48-15.66-1.5-23.46-1.22-3.63.14-7.16,2.78-10.74,4.29-5,.63-9.41-1.33-13.9-2.85l0-1.14c2.78-.14,5.56-.25,8.34-.4,1.69-.1,3.53.13,5-.45,4.74-1.81,9.32-4,14-5.91,2.26-.9,3.66-2.16,3.94-4.72.1-1,1-1.89,1.57-2.83.74.63,1.54,1.21,2.22,1.9q4.77,4.76,9.47,9.57C487.9,448.87,489,450.16,490.17,451.41Z"/><path class="cls-2" d="M473.9,426.61c-1.84,1.72-4,2.26-5.82.36s-.3-3.61.92-5.19c.71-.91,1.4-1.84,2.11-2.74,1.7-2.15,1.65-4.18-.25-6.2a31.29,31.29,0,0,1-2-2.57l.42-1c2.19.21,4.38.51,6.58.61,4.71.21,9.42.55,14.12.41,3.73-.11,4.46-1.71,2.46-5-1.32-2.14-3-4-4.57-6.06-.79-1.06-1.53-2.15-2.3-3.22.28-.32.55-.64.83-.95a46.26,46.26,0,0,1,5,3.53c4,3.65,5.53,9.18,3.88,13-3.28.33-7.59-.52-9.64,1.25C481.11,416.74,477.74,421.94,473.9,426.61Z"/><path class="cls-1" d="M447.29,394.25c4.34.08,4.69.81,2.79,4.59-2.38,4.7-4.38,9.59-6.8,14.26A4.16,4.16,0,0,1,440,415c-8-.88-7.95-1-5.16-8.58.52-1.41,1-2.84,1.45-4.27C437.64,398.09,443.07,394.18,447.29,394.25Z"/><path d="M441.93,296.45l-2.6-1.84-1.7-3.07-1.11.32c.54,3.12,1.08,6.25,1.61,9.37l-.15,2c-.83,1.48-1.82,5.12-3.47,2.52-2.73-4.28-7.19-8.44-5.46-14.57a2.66,2.66,0,0,1,.47-.41l1.58-.95c0-.13.09-.27.14-.4,2.37-.82,4.79-1.48,5.85-4.26a2.64,2.64,0,0,1,2.45-.75c4.38,2.92,5.63,7.88,8.39,11.87l-.82.88Z"/><path class="cls-1" d="M471.77,319.21l1.82,1.07c.55,1.31,1.11,2.62,1.67,3.92-.15.46-.31.91-.46,1.36q-.85,10.08-1.69,20.16c-1.16-1.26-2.92-2.35-3.35-3.83a8.06,8.06,0,0,0-5.15-5.57c-2.43-1-2.95-2.72-1.71-5l1.47-1a1.07,1.07,0,0,0,.53-.38,2.27,2.27,0,0,0,.3-.32.79.79,0,0,0,.37-.45l3.3-3.37,3.77-2.58-.45-1a25.24,25.24,0,0,1-3.91-.58c-2-.63-1.51-1.91,1.43-3.34Z"/><path d="M453.49,401.32c3.75,9.16,6.33,17.25.55,24.09-1.38,1.64-2.39,3.6-5,2.32-2.3-1.13-4.57-5.2-3.85-7.18q1.76-4.87,3.8-9.63C450.32,407.86,451.82,404.87,453.49,401.32Z"/><path d="M456.39,326.53a15.78,15.78,0,0,1-2-2.72c-2.05-5-4-10-6-15-.79-2,.36-2.88,2-2.29,4.43,1.61,8.78,3.46,13,5.49.57.28.85,2.32.47,3.21a66,66,0,0,1-4.29,8.21C458.92,324.5,457.72,325.26,456.39,326.53Z"/><path class="cls-2" d="M497.54,356.09c-4.06,2.09-5.2,6-6.59,10-1.17,3.33-3,6.44-4.4,9.7-1,2.3-.42,3.63,2.4,3.13a29.64,29.64,0,0,0-3.12,3.63c-1.48,2.35-2.69,4.88-4.1,7.28a20,20,0,0,1-1.88,2.35c-.28-1.07-1.05-2.3-.76-3.2,1.87-5.87,3.79-11.75,6.09-17.46a9.17,9.17,0,0,0,.32-6.9c-.38-1.14.34-3.56,1.26-4C490.2,358.76,493.93,357.53,497.54,356.09Z"/><path class="cls-1" d="M473.9,426.61c3.84-4.67,7.21-9.87,11.72-13.75,2.05-1.77,6.36-.92,9.64-1.25-3,2.43-5.86,5.05-9,7.24C482.26,421.62,478,424,473.9,426.61Z"/><path class="cls-2" d="M462.9,331.31c-1.24,2.29-.72,4,1.71,5a8.06,8.06,0,0,1,5.15,5.57c.43,1.48,2.19,2.57,3.35,3.83-.43,3.14-2.76,2.41-4.09,1.42-4.13-3.09-8-6.51-11.89-9.93a2.47,2.47,0,0,1,0-2.36C459,333.52,461,332.47,462.9,331.31Z"/><path class="cls-1" d="M405.56,487.15c-.13-1.77-.31-3.55-.36-5.32-.1-3.67,0-7.34-.19-11-.15-3.3,1.7-5.4,5.21-5.64C411.45,473.1,410.63,480.57,405.56,487.15Z"/><path d="M444,341l-.72-2.89c.53-2.56.47-5.49,4.33-5.56a5.72,5.72,0,0,1,6,4.25c.25.76-.08,2.38-.62,2.64C450.14,340.82,447.39,343.15,444,341Z"/><path class="cls-1" d="M445.11,310.22c.9,2.54,1.81,5.09,2.77,7.82l-4.54,1.67-1.41.27c-2.15-2.51-3.16-14.92-1.45-17.8l1.08,1.14,1.83,3.25a2.17,2.17,0,0,1,.15.35l1,1.92Z"/><path class="cls-2" d="M440.48,302.18c-1.71,2.88-.7,15.29,1.45,17.8-2.4,1.43-3.31.44-3.39-2.05-.17-4.88-.37-9.77-.56-14.66l.15-2Z"/><path class="cls-2" d="M469.71,318.36c-2.94,1.43-3.47,2.71-1.43,3.34a25.24,25.24,0,0,0,3.91.58l.45,1-3.77,2.58-4.77-3.63C464.7,318.52,466.33,317.31,469.71,318.36Z"/><path class="cls-2" d="M443.39,306.57l-1.83-3.25Z"/><polygon class="cls-2" points="406.53 456.99 406.72 457.18 406.47 457.25 406.53 456.99"/><path class="cls-2" d="M444.52,308.84l-1-1.92C443.87,307.57,444.19,308.21,444.52,308.84Z"/><path class="cls-2" d="M489.38,378.25l1-1.39Z"/><path class="cls-2" d="M492.28,452.66l-1.09-.76Z"/><path class="cls-2" d="M474.8,325.56c.15-.45.31-.9.46-1.36C475.11,324.66,475,325.11,474.8,325.56Z"/><path class="cls-2" d="M465.57,329.18a.79.79,0,0,1-.37.45A.79.79,0,0,1,465.57,329.18Z"/><path class="cls-2" d="M464.9,330a1.07,1.07,0,0,1-.53.38A.93.93,0,0,1,464.9,330Z"/><path class="cls-2" d="M460.38,454.87l.09,0Z"/><path class="cls-1" d="M370,288l-.43-.71a1,1,0,0,0-.42-.54l-.14-.17-.5-.64-.12-.18a1.06,1.06,0,0,0-.41-.52l-.2-.28a1.11,1.11,0,0,0-.35-.5q-2.85-3.75-5.71-7.51c1.48,0,3,.11,4.45.09,2.12,0,7.28-3.56,7.34-5.32.13-3.55-3.34-3.08-5.3-4.29a5.71,5.71,0,0,0-1.65-.41l-.79-.29c-1.29-.73-2.6-1.41-3.86-2.2-.9-.56-1.71-1.26-2.56-1.89a13.8,13.8,0,0,1,2.15-2.51c4.88-3.57,10.43-4.72,16.37-4.28a57,57,0,0,1,8.09,1.76,5.16,5.16,0,0,1,2.95,3.27c.18,1-1.09,2.91-2.2,3.45-3.33,1.61-3.83,4.77-4.72,7.68-.64,2.06.67,3.12,2.64,3.69,2.73.79,5.4,1.79,9.21,3.08a44,44,0,0,0-4.69,4c-1.26,1.48-3.44,3.74-3,4.79.95,2.39,3.62,2,6.06,1.59,1.67-.27,3.49.42,5.25.68l1.17,1.05a2,2,0,0,0,.24.26l5.09,7.07L401.47,300l-3.09,2.49-.2.26c-2.47.78-2.38,2.69-1.62,4.47a15.6,15.6,0,0,0,2.77,3.9c2.55,2.88,5.19,5.68,7.8,8.52-4.16,2-8.76,3.52-6.46,9.94.21.57-2.72,2.51-4.4,3.4a3,3,0,0,1-2.68-1.07c-2.45-6.26-6.14-12.15-5.82-19.26a21.09,21.09,0,0,0-.5-3.75c1.19-5.6,1-6.1-3.15-7.06.05-.93.1-1.87.16-2.81,0-.64,0-1.29,0-1.93a44,44,0,0,0-1.49-4.94c-.4-1-1.47-2.52-1.92-2.42a5,5,0,0,0-3.18,2.09c-.89,1.81-1.12,3.94-1.63,5.94-.48,1-1,2.06-1.43,3.14-1.35,3.71-.18,5.27,3.72,5.1,1.25-.06,2.51,0,3.77,0l-1.59,6.35c-1.7,2.25-1.29,4,.8,5.95,1.61,1.5,2.61,3.65,3.89,5.51l-5.65,3.78c-2.95-.55-4.51-2.22-4.8-5.31-.11-1.26-1-2.45-1.59-3.67l-2.7-3.39c-.65-1-1.31-2-2-3l-.92-1.48c2.21-3.09,3.9-6.24,1.43-9.74l-4.28,1.78c-.21-.11-.4-.23-.6-.35l-2.07-1.78c-3.58-2.05-7.2-4.05-10.73-6.18a4.85,4.85,0,0,1-2.05-2.21c-1.37-3.75-4.47-4.6-7.88-5.27a92.81,92.81,0,0,1-9-2.36c-2.78-.85-2.67-2.37-.84-4.31,4-4.3,8.72-7.08,14.87-6.91,2.41.07,4.85-.42,7.25-.3a3.1,3.1,0,0,1,2.32,1.83c.61,4.76.93,9.56,1.34,14.34,2.59,3.34,6.77,3.38,10.28,4.6,1.32.45,3.31-1.08,5-1.71C371.76,290.86,370.87,289.43,370,288Zm11.16-25.13-2.67-3c-.51.59-1.55,1.33-1.43,1.75a11.24,11.24,0,0,0,1.71,2.85Z"/><path class="cls-1" d="M429.52,290.81a2.66,2.66,0,0,0-.47.41,4.52,4.52,0,0,0-2,6c1.76,4.32,3.67,8.59,5.83,12.72,1.18,2.26.77,3.23-1.48,4.18a22.16,22.16,0,0,0-6.25,3.6c-1,.92-2,3.42-1.46,4.33,2.2,3.83,0,5-2.87,6.48-2.33,1.21-5.46,1.77-5.77,5.28-.57,1.1-1.58,2.18-1.62,3.3-.09,2.84-1.84,3.63-4.11,4.08l-4-.2,1-5.72L408.8,324c1.71-2.22,3.74-4.34,2.83-7.55.12-1.71.25-3.42.37-5.13a17.17,17.17,0,0,1,2.45.93c2.77,1.52,3.37,1.21,3.86-2.08,0-.47,0-.95.07-1.43,0-.68-.07-1.36-.11-2-.21-.57-.42-1.13-.64-1.7a.44.44,0,0,0-.31-.28,55.78,55.78,0,0,0-4.25-4.57,33.46,33.46,0,0,0-4.34-2.79c1-.74,2-1.85,3.13-2.14,2.78-.69,5.69-.84,8.46-1.53a5,5,0,0,0,3.09-2.21c.29-.63-1-2-1.58-3l-6.76-7-5.51-7.89.24-1,8.23.88c5.47,1.56,10.68,3.56,15,7.52,2.72,2.52,2.8,3.13.05,5.69a14.18,14.18,0,0,0-1.82,2.72c-.05.13-.1.27-.14.4Zm-2.7-9.65-1.71-.67c-.57,1.36-1.2,2.7-1.63,4.1a10.25,10.25,0,0,0,1.82,1C425.8,284.08,426.31,282.62,426.82,281.16Z"/><path class="cls-1" d="M256.29,300.34l-1.79-.52c-5.24-4.43-10.72-4-14.92,1.14q-4.41,5.4-9,10.66a8.26,8.26,0,0,1-2.34,1.31c-5-5.86-7.31-13-9.71-20.11-.3-.91.89-3.31,1.69-3.46,11.12-2.21,21.79-7.55,33.61-5l13.86,7.75a6,6,0,0,1,.55.31c.54,1.23,1.17,2.43,1.61,3.7a116,116,0,0,1,3.75,11.55c.27,1.13-1.15,2.66-1.8,4l-9.6-8.49-1.72-.88-1.1-.45-.82-.54-.56-.15Z"/><path d="M280.74,310.14c-.8-1-2.06-1.89-2.32-3-1.14-4.93-1.84-9.87-4.56-14.39-2.53-4.21-1.15-6.48,3.65-7.49,2.69-.56,4.82-1.7,5.16-4.78s-1.7-4-3.91-5.38c-7.26-4.44-14.48-9-21.36-14-1.72-1.25-2.52-4.24-2.94-6.58-.24-1.31.84-3.84,1.88-4.2,1.7-.58,4.39-.53,5.71.49,5,3.85,9.65,8.14,14.35,12.36,2.16,1.95,4.15,4.1,6.18,6.19,2.52,2.59,3.57,5.76,4.1,9.32.32,2.06,1.79,3.93,2.68,5.92s1.75,4.13,2.62,6.19l.14.71-.09.21-.21.14v.25l-9.65,16.7Z"/><path d="M350.6,270.9c-4.45.5-8.9,1.15-13.37,1.38-1.09.06-3.05-1.08-3.23-2-.85-4.05-1.26-8.2-1.73-12.32-.36-3.19,1.08-4.58,4.39-4.68,4.24-.14,8.47-.86,12.71-1.07,1.36-.07,2.77.66,4.15,1-.44,1.17-.61,2.55-1.36,3.46a6.41,6.41,0,0,0,3,9.8c1.42.45,3.05.33,4.4.9,1,.43,1.71,1.54,2.56,2.35-.94.49-1.86,1.35-2.82,1.41-2.88.19-5.78.07-8.68.07Z"/><path class="cls-2" d="M228.24,312.93a8.26,8.26,0,0,0,2.34-1.31q4.6-5.25,9-10.66c4.2-5.12,9.68-5.57,14.92-1.14-6.32-.95-10,3.48-13.92,7.12-.46.43.18,3.24.9,3.54,4.83,2,9.8,3.8,14.79,5.46,1.26.42,2.73.2,4.33.85-.83.41-1.63.88-2.49,1.23-3.64,1.49-7.34,2.82-10.93,4.44-4.14,1.86-8.21,2.21-11.65-1C232.83,318.88,230.65,315.78,228.24,312.93Z"/><path d="M308.38,296.85c.66-4.83,1.18-9.05,1.85-13.26a3.61,3.61,0,0,1,1.26-2.37c3.14-1.88,6.37-3.6,9.63-5.25a1.93,1.93,0,0,1,1.84.4,3.24,3.24,0,0,1,.15,2.17c-.1.52-.62,1-.91,1.45-1.86,3.09-1.39,4.26,2,5.19a25.21,25.21,0,0,1,4,1.25c.83.4,2,1.26,2,1.89s-1,1.76-1.81,2.19a45.48,45.48,0,0,1-5.44,2.26c-3.9,1.48-6.06,4.33-7.09,8.33a23.28,23.28,0,0,1-2.36,5.31,2.42,2.42,0,0,1-2,1c-.55-.09-1.23-1-1.38-1.68C309.43,302.65,308.88,299.48,308.38,296.85Z"/><path d="M390,266.75c2.31.94,4.49,1.35,6.06,2.55,5.66,4.33,11.11,8.92,16.62,13.43a8,8,0,0,1,1.88,2A24.74,24.74,0,0,1,416,288c-1.25.15-2.59.65-3.73.36a26.09,26.09,0,0,1-6.44-2.44c-2.42-1.37-4.66-2.26-7.5-1.3-2.14.73-3.76-.47-3-2.63,1.41-4.29-1.47-6.08-4.06-8.14-.8-.64-2-.91-2.61-1.66s-1.77-2.29-1.48-3C387.47,268.16,389,267.56,390,266.75Z"/><path d="M360,258.24a33.09,33.09,0,0,1,1.78-5.45c2-3.72,4.33-7.22,6.27-10.94,2.28-4.39,4.22-4.59,7.15-.59,1.15,1.57,2.89,2.77,3.77,4.45a9.87,9.87,0,0,1,1.25,5.65c-.13.82-2.68,1.6-4.21,1.8-2.38.32-4.88-.18-7.21.28-1.41.28-2.59,1.72-3.88,2.63l-.11.05-3.23,1.5Z"/><path class="cls-2" d="M418,273.53l-8.23-.88-.24,1,5.51,7.89c-2.89-2.48-5.8-4.93-8.64-7.46a7.92,7.92,0,0,1-1.2-2c.74-.43,1.49-.84,2.21-1.29,1-.67,2.06-1.37,3.1-2.06-1.17-.54-2.32-1.49-3.51-1.55-4.27-.21-8.57-.05-11.56-4.72l6.33.78c.9.58,1.79,1.65,2.69,1.65,5.06,0,10.13-.58,15.18-.46,4.7.11,7.05-3.51,10.37-5.62a9.26,9.26,0,0,1-7,8.39c-1,.29-2,.62-3,.95C416.69,269.32,416.41,270.06,418,273.53Z"/><path class="cls-2" d="M280.74,310.14l1.44-1.33c2.3,1.93,3.33,0,4.29-1.54a85.82,85.82,0,0,0,5.94-10.12c.89-1.95.66-4.41.94-6.63.19-.38.38-.75.58-1.12,1.9.36,3.92,1.28,5.69.94s3.2-1.82,4.4-3.15c.39-.43-.47-2-.76-3,2.83-1.2,4.54-.07,4.23,3.18a84.75,84.75,0,0,1-1.76,8.65c-1.84-1.08-3.24-1.94-4.67-2.74-3.41-1.88-5.68-.85-6.07,3-.3,3-.17,6-.22,9a4.72,4.72,0,0,1-3.6,4.87c-3.37,1-6.72,2.13-10.43,3.31Z"/><path d="M281.5,326.5l-1.43-.32-2-1.17-2.15-.83c-.05-3.3,1.65-5,4.82-5.72,1.89-.42,3.63-1.51,5.52-1.91a17,17,0,0,1,6.08-.43c2.89.47,3.9,3.16,1.73,5s-5.15,3.12-7.9,4.36A22.26,22.26,0,0,1,281.5,326.5Z"/><path class="cls-2" d="M421.83,288.49c.58,1,1.87,2.4,1.58,3a5,5,0,0,1-3.09,2.21c-2.77.69-5.68.84-8.46,1.53-1.15.29-2.09,1.4-3.13,2.14l-4.82.84-5.09-7.07c6.19.42,12.38.86,18.58,1.24C420.12,292.57,421.33,290.9,421.83,288.49Z"/><path class="cls-2" d="M344,313.86h7.32c-1,1.48-1.34,2.36-2,2.79-2.32,1.59-4.8,3-7.12,4.54a58.63,58.63,0,0,0-6.22,4.74c-3.84,3.44-7.3,3.39-9.27-.34,6.85,0,11.31-4.8,16.36-8.32C343.84,316.76,343.73,315,344,313.86Z"/><path class="cls-1" d="M293.35,290.52c-.28,2.22-.05,4.68-.94,6.63a85.82,85.82,0,0,1-5.94,10.12c-1,1.5-2,3.47-4.29,1.54l9.65-16.7a.31.31,0,0,0,.2-.39l.09-.21.56-.41Z"/><path class="cls-2" d="M366.54,267a5.71,5.71,0,0,1,1.65.41c2,1.21,5.43.74,5.3,4.29-.06,1.76-5.22,5.29-7.34,5.32-1.48,0-3-.05-4.45-.09,0-.51-.27-1.31,0-1.49,1.07-.81,2.29-1.44,3.43-2.16C368.82,271,368.88,270.68,366.54,267Z"/><path class="cls-2" d="M360,258.24l1.58-.62,3.23-1.5.11-.05c4.29-.77,8.56-2.69,12.9-.21-5.95-.44-11.5.71-16.38,4.28a13.8,13.8,0,0,0-2.15,2.51c.85.63,1.66,1.33,2.56,1.89,1.26.79,2.57,1.47,3.86,2.2-2.21-.47-4.47-.77-6.61-1.44-3.26-1-3.52-2.45-1.13-4.81C358.72,259.78,359.37,259,360,258.24Z"/><path class="cls-2" d="M271.8,311.66c.65-1.35,2.07-2.88,1.8-4a116,116,0,0,0-3.75-11.55c-.44-1.27-1.07-2.47-1.61-3.7,1.68,1.93,4.21,3.62,4.87,5.86,1.28,4.35,1.59,9,2.12,13.53.11,1-.54,2-.83,3.07l-1.11.16Z"/><path class="cls-2" d="M351.72,300.18a6.36,6.36,0,0,1-5.58,4,16.42,16.42,0,0,0-4.48,1.62c-3.06,1.4-4.11,1-5.3-2.39Z"/><path class="cls-2" d="M331.84,292.9a22.74,22.74,0,0,1-7.2,8.09c-2.81,2-4.72,5.21-7,7.89.94-4.87,2.49-9.26,7.47-11.63A61.56,61.56,0,0,0,331.84,292.9Z"/><path class="cls-2" d="M370,288c.89,1.42,1.78,2.85,2.68,4.27-1.69.63-3.68,2.16-5,1.71-3.51-1.22-7.69-1.26-10.28-4.6,2.41.57,4.84,1,7.22,1.72C367.79,292,369,291.4,370,288Z"/><path class="cls-1" d="M303.26,284.17c.29,1,1.15,2.59.76,3-1.2,1.33-2.77,2.83-4.4,3.15s-3.79-.58-5.69-.94Z"/><path class="cls-1" d="M262,233.93c.07.84.13,1.67.2,2.5l-.9.62L250,227.16l.72-1,5.16,2.21,1.35,1.35,1.57,1.26Z"/><path class="cls-2" d="M368.53,312.33c.66,1,1.32,2,2,3-.11.66-.23,1.32-.35,2-3.77.9-7.69,2.49-11.21-.21-1.76-1.35-2.84-3.58-4.22-5.41,1.93,1.39,3.7,3.14,5.82,4.09C364.48,317.51,367.34,316.11,368.53,312.33Z"/><path class="cls-2" d="M364.76,302.89l4.28-1.78c2.47,3.5.78,6.65-1.43,9.74-.36-.56-1.14-1.29-1-1.66C367.66,306.55,365.86,304.84,364.76,302.89Z"/><path class="cls-2" d="M267.69,292.09l-13.86-7.75C260.57,284.15,265.82,287.09,267.69,292.09Z"/><path class="cls-2" d="M271.93,326c-.18,1.49-.37,3-.56,4.46-.21-1.41-.43-2.82-.65-4.23a.88.88,0,0,1,.16-.61Z"/><path class="cls-2" d="M362.09,300.76l2.07,1.78Z"/><path class="cls-2" d="M398.58,290.91l-1.17-1.05Z"/><path class="cls-2" d="M258.8,230.94l-1.57-1.26Z"/><path class="cls-2" d="M260.48,302.29l1.72.88Z"/><path class="cls-2" d="M256.29,300.34l1.71.81Z"/><path class="cls-2" d="M282,327.66a.82.82,0,0,1-.47-.34A.74.74,0,0,1,282,327.66Z"/><path class="cls-2" d="M369.13,286.76a1,1,0,0,1,.42.54A1.11,1.11,0,0,1,369.13,286.76Z"/><path class="cls-2" d="M326.37,324.9a1.11,1.11,0,0,1-.42-.54Z"/><path class="cls-2" d="M368,285.25a1.06,1.06,0,0,1,.41.52A1,1,0,0,1,368,285.25Z"/><path class="cls-2" d="M367.41,284.47a1.11,1.11,0,0,1,.35.5A.68.68,0,0,1,367.41,284.47Z"/><path class="cls-2" d="M258.56,301.3l.82.54Z"/><path class="cls-2" d="M272.41,325.32l-.09.09Z"/><path class="cls-2" d="M292.68,291.1l-.56.41c0-.24-.09-.47-.14-.71Z"/><path class="cls-2" d="M368.49,286l.5.64Z"/><path class="cls-1" d="M170.59,295c-1.56-.37-3.42-.33-4.64-1.19a67.33,67.33,0,0,1-18-17.94c-4.6-6.91-8.15-14.14-9.35-22.1A180.93,180.93,0,0,1,136.67,225c0-3.79,2.31-8.11,7.58-8.6.63,0,1.2-.8,2.2-1.52-1.35-.47-2.51-.52-2.94-1.1a23.73,23.73,0,0,1-2-4l3.62-1.25a11.51,11.51,0,0,0,3.31-1.19c1.71-1.31,3.19-2.93,5.25-4.88l-8-2c8.27-7.77,17.83-12.09,28.6-14.22,4.69-.93,9.16-3,13.73-4.5a7.75,7.75,0,0,1,2-.62c12.75-.52,25.46-.8,37.36,5,4.23,2.07,8.71,3.66,12.75,6,3,1.74,2.72,3.31-.09,5.57-.45.36-1.25.69-1.29,1.09-.79,7.63-8.19,5.7-12.38,8.26-2.76,1.7-6.36.5-9.26-2-4.77-4.08-10.66-4.79-16.64-4-1.28.17-2.41,2.12-3.42,3.4-.68.86-.93,2.8-1.53,2.87-4.05.45-4.09,3.43-4.56,6.34-.56,3.43-2.86,4.74-6.18,4.86-4.6.16-9-.23-12.92-3a4.33,4.33,0,0,0-.92-.5c-3.4-1.25-13.66,5-13.84,8.67-.31,6.45-1.06,13-.36,19.35.53,4.92,3,9.63,4.61,14.44,0,.11.14.19.17.3,1.3,5.34,2.05,10.71,4.36,15.92,1.74,3.94.86,9,1.32,13.54.09.93.93,1.8,1.48,2.65.85,1.32,1.74,2.6,2.62,3.9Z"/><path class="cls-1" d="M183.86,390.55c-7.1,4.6-14.14,9.27-21.3,13.76-4.65,2.92-8.21,6.51-10,11.9-.64,1.93-2.37,3.51-3.64,5.23-.26.35-.9.5-1,.87-3.09,8-11.89,7.88-17.57,12.2-1,.74-2.75.41-4.15.57.07-1.5-.39-3.32.3-4.46,6.21-10.38,12.23-20.93,23.11-27.42,3.25-1.93,6.28-4.25,9.42-6.36a8,8,0,0,1,2.12-1.16q10.08-3,20.2-5.85a8.75,8.75,0,0,1,2.29,0Z"/><path class="cls-1" d="M382.25,501.49c.78,1.54,1.52,3.11,2.34,4.62,2.89,5.35,5.86,10.64,8.68,16a47.14,47.14,0,0,1,2.11,5.49c1.13,3,2.11,6,6.19,6.57,1.63.25,3.35,2.15,4.36,3.72,2.85,4.47,5.36,9.15,8,13.75.63,1.1,1,2.33,1.74,3.38,4.36,6.64,8.48,13.46,13.23,19.81,7.74,10.32,15.72,20.48,26.17,28.33a8.66,8.66,0,0,1,1.78,1.63c.3.4.54,1.3.33,1.53a2.18,2.18,0,0,1-1.72.66c-3-.81-6.24-1.26-8.86-2.76-8.89-5.09-17.95-10-26.19-16.06-6.79-5-13.38-10.46-16.88-18.83-2.29-5.48-6.11-10.31-8.8-15.65-1.74-3.46-2.56-7.36-4-11-1.87-4.83-4.38-9.48-5.75-14.44-1.43-5.17-2-10.61-2.66-16-.44-3.48-.47-7-.68-10.52Z"/><path class="cls-1" d="M482.41,569.31c-.17,5.12.9,10.53-3.15,14.79a13.1,13.1,0,0,1-3,1.81c-.34-1-1.17-2.19-.92-3,2.41-8.09-2.64-14.56-4.49-21.72-.37-1.44-1.08-3-.9-4.34.7-5.12,1.58-10.22,2.69-15.27.23-1.07,1.68-1.87,2.58-2.8.77.92,2,1.73,2.24,2.77,2.05,9.17,3.93,18.38,5.85,27.59Z"/><path class="cls-1" d="M263.34,196.45c-.35-2.67-.34-5.45-1.11-8-5.06-16.48-9.6-33.06-10.89-50.34-.5-6.62.13-12.82,6.72-16.58a1,1,0,0,0,.26-.23c6.07-8.76,14.77-7.7,23.47-6.09,13.38,2.49,24.3,9.27,33.86,18.9a103.17,103.17,0,0,1,16.26,21.47,6.69,6.69,0,0,1,1,3.22,95.43,95.43,0,0,1-.7,10c-.18,1.36-.88,3.47-1.75,3.7a4.8,4.8,0,0,1-4.18-1.33,13.51,13.51,0,0,0-8.66-5.48c-2.2-.45-4.14-3.81-5.53-6.23-2.58-4.49-4.52-9.35-7-13.89a44.81,44.81,0,0,0-5.37-7.5,71.51,71.51,0,0,0-8.25-8.35c-1.52-1.27-3.84-1.58-5.8-2.33.51,2,.68,4.13,1.61,5.87,1.91,3.54,4.36,6.8,6.32,10.33.57,1,.22,2.56.3,3.87a13.7,13.7,0,0,1-3.61.07c-5-1.24-7.88.77-7.95,5.92a43.41,43.41,0,0,0,.74,6.18c.42,3.28-.64,4.49-3.66,4.14-3.53-.4-4.2.38-4,4.31.25,6,.62,12,.46,18-.06,2.26-1.33,4.52-2.24,6.69s-2,4.13-3.07,6.14a21.17,21.17,0,0,1-1.76,2.38c-.85-.67-1.75-1.28-2.55-2-1-.88-1.89-1.83-2.83-2.75Z"/><path class="cls-2" d="M506.5,332.41c-2.94,5.3-7.07,7.39-11.24,5.69C497.88,334,502.86,334.5,506.5,332.41Z"/><path class="cls-2" d="M450.54,277.29c-.11,1.4-.58,2.9-.24,4.18a63.26,63.26,0,0,0,3.18,9.1c.81,1.83,2.33,3.34,3.37,5.09s2.64,3.58-1,4.22c-3-5.11-6-10.26-9.12-15.32C443.84,279.81,444.86,277.76,450.54,277.29Z"/><path class="cls-3" d="M405.35,341l4,.19c2.05,1,4.1,1.9,3.31,4.85-.07.27.45.71.7,1.07l2.93,1.58a20.17,20.17,0,0,1,2.92,1.72c.24.2-.06,1.08-.11,1.64l-5.71-1.56-4-3.11a2.4,2.4,0,0,1-.28-.27l-1.7-1.4c-1.4.37-3,.4-4.15,1.18-4,2.8-3.81,4.74.72,6.64,2.81,1.19,4.2,2.91,4.2,6,0,1.7.74,3.39.79,5.1,0,.92-.67,1.87-1.05,2.81a11.45,11.45,0,0,1-2.84-2c-.47-.62-.3-1.77-.34-2.69-.13-3.09-1.56-4.48-4.71-3.64l-2.47,1.83-1.6.46-4.06-1.23a6.31,6.31,0,0,0-.95-1.44c-1.45-1.24-3-2.41-4.48-3.61-1.19,1.6-2.37,3.21-3.57,4.8q-2.48,3.27-5,6.52l-3.45-5.91-5.86-1.25-5.49-.4c-.13-1.49-.26-3-.39-4.47a66.69,66.69,0,0,0-1.64-7.21c-.92-2.72-.72-4.84,1.61-6.8,1.17-1,1.79-2.61,2.78-3.84.82-1,1.84-1.86,2.76-2.79l4.52.7c4,1.84,4.53,1.53,5.44-2.62a35.36,35.36,0,0,1,1.42-4.13l5.64-3.78c2.35-2,1-3.9-.32-5.7s-2.9-3.84-4.36-5.76l1.59-6.35,5.12,2.85a20.23,20.23,0,0,1,.51,3.75c-.32,7.11,3.37,13,5.82,19.26a3,3,0,0,0,2.68,1.07c1.68-.89,4.61-2.83,4.4-3.4-2.3-6.42,2.3-8,6.46-9.94q.84,2.19,1.67,4.37l-2.49,11.2L399,338c-3.49,2.09-3.48,3.1.07,5.8l2.66-.08c.06-.95.13-1.9.19-2.85Zm-9.07,14.61c-.65-3.89-1.11-7-1.71-10.07a24.73,24.73,0,0,0-1.51-5.3,2.86,2.86,0,0,0-2.32-1.39c-2.87.45-5.32,1.63-5.75,5-.32,2.47-.69,4.92-1.09,7.74C388.51,351.76,391.82,356,396.28,355.57Zm-5.2-21a22.45,22.45,0,0,0-4-1.65c-.4-.07-1,.87-1.49,1.35.79.8,1.47,1.92,2.42,2.26C388.51,336.69,389.51,335.59,391.08,334.54Z"/><path class="cls-3" d="M402.21,401.94c.42-.72.83-1.44,1.25-2.15l1.83-4.37,1.15-1,6.89-6.93c.93-4.48,1.82-8.75,2.71-13,3.83,1.44,5.75,6,4.27,10.24-2.43,6.9-4.76,13.85-7.41,20.68-.58,1.49-2.32,2.52-3.53,3.77Q405.79,405.53,402.21,401.94Z"/><path class="cls-2" d="M340.6,331.13c2.26-.84,4.53-1.64,6.77-2.53,2.51-1,3.4-.22,3.77,2.47.49,3.56,1.45,7.06,2,9.74-1.08,3.48-2,6.33-2.85,9.22-1.06,3.78-2.54,4.34-5.6,2l-6.14-4.69c3-1.59,6.88-2.59,8.85-5.11,1.37-1.76.56-5.72-1.11-7.9l-11.47,10.93-3-5.28Z"/><path class="cls-2" d="M368.21,333.72c-.92.93-1.94,1.78-2.76,2.79-1,1.23-1.61,2.85-2.78,3.84-2.33,2-2.53,4.08-1.61,6.8a66.69,66.69,0,0,1,1.64,7.21c-2.56-3.66-6-1.22-10.19-.94,4.17-3.46,5.49-7,4.27-11.37-.17-.59.82-1.76,1.55-2.28.91-.65,2.39-.65,3.11-1.41.89-.94,1.27-2.38,1.87-3.61a21,21,0,0,0-4-1.59,11.53,11.53,0,0,0-3.5.38,19.94,19.94,0,0,1-.41-4.7,2.85,2.85,0,0,1,2.42-1.38,41.92,41.92,0,0,1,8,3C366.88,331,367.43,332.61,368.21,333.72Z"/><path class="cls-3" d="M378.15,390.09c-2.21,3.75-4.42,7.5-6.9,11.69L367.49,395c-.66-.6-1.33-1.19-2-1.78l-.19-.21c1.22-3.8,4.34-5.55,8.29-4.51C375.15,388.87,376.63,389.54,378.15,390.09Z"/><path class="cls-2" d="M393.05,390.32c-1.61-1-2.62-1.47-3.53-2.11-1.75-1.26-3.82-2.34-2.89-5.17s2.67-4.75,5.55-4.89c1.08,0,3.26,1.65,3.18,2.32A84.45,84.45,0,0,1,393.05,390.32Z"/><path class="cls-2" d="M374.44,360.48l3.45,5.91c.51,2.26,2,1.12,3.26,1a28.71,28.71,0,0,1,4.23.23,18.94,18.94,0,0,1-.38,3.94,59.13,59.13,0,0,1-2.41,5.67c-2.9-4.07-5.66-7.46-7.82-11.21C373.94,364.59,374.51,362.35,374.44,360.48Z"/><path class="cls-3" d="M440.73,367.12l.27,2.13-1.14.39L435,368.4l-1.19-.47-1.85-.7c3.1-2.06,5-4.65,5.25-8.64.15-2.59,2.4-3.22,4.07-1.13s2.61,4.67,3.88,7l-.18.29C443.25,365.05,441,364.22,440.73,367.12Z"/><path class="cls-3" d="M429,351.61c1.56-3.24,3-6.59,4.81-9.67.48-.8,2.54-1.31,3.57-1,1.49.47,2.71,1.82,4,2.8-.78.85-1.59,1.68-2.35,2.55-1.32,1.5-2.61,3-3.92,4.53l-1,.07h0Z"/><path class="cls-3" d="M342,387.67c-.67-.58-1.94-1.22-1.9-1.75a20.44,20.44,0,0,1,1.32-6.38,3.67,3.67,0,0,1,3.29-1.53c1.93.7,3.58,2.17,5.34,3.33Z"/><path class="cls-2" d="M379.59,327.67a35.36,35.36,0,0,0-1.42,4.13c-.91,4.15-1.48,4.46-5.44,2.62,1.34-2.63,2.71-5.23-2-5.92-.46-.07-.76-1.25-1.14-1.91,3.18-.31,4.5-1.94,3.74-5.16a15.48,15.48,0,0,1-.14-2.74c.55,1.22,1.48,2.41,1.59,3.67C375.08,325.45,376.64,327.12,379.59,327.67Z"/><path class="cls-3" d="M340.6,331.13,331.85,340l-.89-.86c-1.18-1.91-3.45-3.72-.63-6.05Z"/><path class="cls-2" d="M363.09,358.83l5.48.4c-2.81,2.36-5.59,4.74-8.45,7a1.45,1.45,0,0,1-2.56-1.25c.29-2.52.47-5.21,3.93-5.56A6.26,6.26,0,0,0,363.09,358.83Z"/><path class="cls-2" d="M368,375.36c-2,2.5-3.94,4.9-6.15,7.63-1.39-2.55-5.11-3.46-2.78-6.89C360.45,374,364.36,373.52,368,375.36Z"/><path class="cls-2" d="M405,368.53c.94,1.72,2,2.74,1.81,3.46a64.61,64.61,0,0,1-2.48,6.95c-1.39-2.13-3.1-4.15-3.93-6.48C400.23,371.88,402.92,370.28,405,368.53Z"/><path class="cls-3" d="M417,363.67c.46-1.72.93-3.44,1.55-5.74a16.3,16.3,0,0,1,5.48,9.31l-2.93.67-3.87-1.44C417.16,365.54,417.09,364.6,417,363.67Z"/><path class="cls-2" d="M378.15,390.09c-1.52-.55-3-1.22-4.56-1.62-3.95-1-7.07.71-8.29,4.51-2.47-2.66-2.13-3.67.78-5.28,3.34-1.86,6.58-3.09,10.39-1.8C378.71,386.66,380,387.72,378.15,390.09Z"/><path class="cls-3" d="M373.2,318.69a15.48,15.48,0,0,0,.14,2.74c.76,3.22-.56,4.85-3.74,5.16,0-.67,0-1.34,0-2,.05-.32.11-.63.16-.95.12-2.12.25-4.23.37-6.35.12-.66.24-1.32.35-2Z"/><path class="cls-2" d="M391.86,360.12l4.06,1.23a26.11,26.11,0,0,1-2.48,3.63,9.14,9.14,0,0,1-2.67,1.4c-.23-1.11-.78-2.28-.59-3.33S391.27,361.09,391.86,360.12Z"/><path class="cls-2" d="M417.24,366.47l3.87,1.44c-1.91.7-2.91,4.89-6.16,1.26Z"/><path class="cls-2" d="M409.35,347.34l4,3.11Q411.34,348.91,409.35,347.34Z"/><path class="cls-2" d="M397.52,360.89l2.47-1.83Z"/><path class="cls-2" d="M407.37,345.67l1.7,1.4Z"/><path class="cls-2" d="M365.49,393.19c.67.59,1.34,1.18,2,1.78Z"/><path class="cls-2" d="M433.77,367.93l1.19.47Z"/><path class="cls-2" d="M406.44,394.39l-1.15,1Z"/><path class="cls-2" d="M369.78,323.63c0,.32-.11.63-.16.95C369.68,324.26,369.73,323.94,369.78,323.63Z"/><path class="cls-2" d="M434,350.91h0Z"/><path class="cls-3" d="M424.07,396.4l.55-1.41Z"/><path class="cls-3" d="M315.57,416.7l-1.38.41Z"/><path class="cls-3" d="M270.72,326.18c.22,1.41.44,2.82.65,4.23l0,2.8c.11,3.27.26,6.54.3,9.82,0,2-.15,4-.23,6.07C268.82,341.53,267.73,333.91,270.72,326.18Z"/><path class="cls-2" d="M278.07,325l2,1.17Z"/><path class="cls-3" d="M415,333.78c.31-3.51,3.44-4.07,5.77-5.28,2.84-1.46,5.07-2.65,2.87-6.48-.53-.91.43-3.41,1.46-4.33a22.16,22.16,0,0,1,6.25-3.6c2.25-.95,2.66-1.92,1.48-4.18-2.16-4.13-4.07-8.4-5.83-12.72a4.52,4.52,0,0,1,2-6c-1.73,6.13,2.73,10.29,5.46,14.57,1.65,2.6,2.64-1,3.47-2.52.19,4.89.39,9.78.56,14.66.08,2.49,1,3.48,3.39,2.05l1.41-.27c2,.52,2.75,1.63.69,2.84s-4.57,1.89-6.79,3a29.18,29.18,0,0,0-3.58,2.46,4.73,4.73,0,0,0-.32.46l-.9,1-.51.9c-2.69,1.64-5.34,3.36-8.7,3.17L417,340.14Q416,337,415,333.78Z"/><path class="cls-1" d="M417,340.14l6.25-6.61c2.35,2.92,5.06,5.62,6.95,8.8s-1.48,5.24-2.83,7.55c-.43.75-2.79.71-4.18.5a64.85,64.85,0,0,1-6.92-1.74l-2.93-1.57Z"/><path class="cls-1" d="M431.93,330.36l.5-.89.91-1a4.73,4.73,0,0,1,.32-.46c5.72,1.32,7.9,4.91,6.76,11.61l-10.23-1.7C430.73,335.08,436.66,333.72,431.93,330.36Z"/><path class="cls-2" d="M440.73,367.12c.23-2.9,2.52-2.07,4.21-2.33Z"/><path class="cls-3" d="M429.52,290.81l1.58-.95Z"/><path class="cls-3" d="M403.91,298.24l4.82-.84a33.46,33.46,0,0,1,4.34,2.79,57.32,57.32,0,0,1,4.25,4.56.55.55,0,0,0,.31.29c.22.57.43,1.13.64,1.7,0,.68.07,1.36.11,2,0,.48-.05,1-.07,1.43-1.22-.3-2.49-.95-3.64-.78-1,.15-1.78,1.25-2.67,1.93-.12,1.71-.25,3.42-.37,5.13a3.08,3.08,0,0,1-.95.36c-3.9,0-12.91-10.19-12.5-14.07l.2-.26,3.09-2.49Zm3.44,2.23c-2,.1-4.52,1.18-3.79,3.7.63,2.18,2.86,4.26,4.91,5.54,1.33.84,4.22-2.78,4.23-5C412.71,302.09,410.82,300.46,407.35,300.47Z"/><path class="cls-3" d="M376.08,297.8c.51-2,.74-4.13,1.63-5.94a5,5,0,0,1,3.18-2.09c.45-.1,1.52,1.46,1.92,2.42a44,44,0,0,1,1.49,4.94c0,.64,0,1.29,0,1.93-.06.94-.11,1.88-.16,2.81C379.3,303.39,377.32,302.39,376.08,297.8Z"/><path class="cls-2" d="M398.18,302.78c-.41,3.88,8.6,14.05,12.5,14.07a3.08,3.08,0,0,0,.95-.36c.91,3.21-1.12,5.33-2.83,7.55q-.82-2.18-1.67-4.37c-2.61-2.84-5.25-5.64-7.8-8.52a15.6,15.6,0,0,1-2.77-3.9C395.8,305.47,395.71,303.56,398.18,302.78Z"/><path class="cls-2" d="M376.08,297.8c1.24,4.59,3.22,5.59,8,4.07,4.11,1,4.34,1.46,3.15,7.06l-5.13-2.85c-1.26,0-2.52-.1-3.77,0-3.9.17-5.07-1.39-3.72-5.1C375,299.86,375.6,298.84,376.08,297.8Z"/><path class="cls-2" d="M380.55,312.43c1.46,1.92,2.95,3.81,4.36,5.76s2.67,3.66.32,5.7c-1.27-1.86-2.27-4-3.88-5.51C379.26,316.43,378.85,314.68,380.55,312.43Z"/><path class="cls-2" d="M381.14,262.88l-2.39,1.64a11.24,11.24,0,0,1-1.71-2.85c-.12-.42.92-1.16,1.43-1.75Z"/><path class="cls-2" d="M401.47,300l-3.09,2.49Z"/><path class="cls-2" d="M384.28,299.06c0-.64,0-1.29,0-1.93C384.29,297.77,384.29,298.42,384.28,299.06Z"/><path class="cls-2" d="M417,340.14l-3.66,6.93c-.25-.36-.77-.8-.7-1.07.79-2.95-1.26-3.88-3.31-4.85,2.27-.44,4-1.23,4.11-4.07,0-1.12,1.05-2.2,1.62-3.3Q416,337,417,340.14Z"/><path class="cls-2" d="M412,311.36c.89-.68,1.71-1.78,2.67-1.93,1.15-.17,2.42.48,3.64.78-.49,3.29-1.09,3.6-3.86,2.08A17.17,17.17,0,0,0,412,311.36Z"/><path class="cls-2" d="M399,338l7.27-2.73-1,5.72-3.39-.12Z"/><path class="cls-2" d="M426.82,281.16c-.51,1.46-1,2.92-1.52,4.38a10.25,10.25,0,0,1-1.82-1c.43-1.4,1.06-2.74,1.63-4.1Z"/><path class="cls-2" d="M418.38,308.78c0-.68-.08-1.36-.11-2C418.31,307.42,418.34,308.1,418.38,308.78Z"/><path class="cls-2" d="M417.63,305a.55.55,0,0,1-.31-.29A.47.47,0,0,1,417.63,305Z"/><path class="cls-2" d="M292,291.72a.31.31,0,0,1-.2.39v-.25Z"/><path class="cls-3" d="M364.85,256.12l-3.23,1.5Z"/><path d="M396.28,355.57c-4.46.39-7.77-3.81-12.38-4,.4-2.82.77-5.27,1.09-7.74.43-3.38,2.88-4.56,5.75-5a2.86,2.86,0,0,1,2.32,1.39,24.73,24.73,0,0,1,1.51,5.3C395.17,348.58,395.63,351.68,396.28,355.57Z"/><path class="cls-1" d="M399,338l2.92,2.87c-.06,1-.13,1.9-.19,2.85l-2.66.08C395.56,341.07,395.55,340.06,399,338Z"/><path class="cls-1" d="M391.08,334.54c-1.57,1-2.57,2.15-3.1,2-1-.34-1.63-1.46-2.42-2.26.5-.48,1.09-1.42,1.49-1.35A22.45,22.45,0,0,1,391.08,334.54Z"/><path class="cls-2" d="M399.11,343.77l2.66-.08Z"/><path class="cls-2" d="M433.34,328.45l-.91,1Z"/><path d="M407.35,300.47c3.47,0,5.36,1.62,5.35,4.21,0,2.25-2.9,5.87-4.23,5-2.05-1.28-4.28-3.36-4.91-5.54C402.83,301.65,405.35,300.57,407.35,300.47Z"/><path class="cls-4" d="M369.58,720H351.9c9.67-34.91,18.29-74.48,16.05-88.68C365.76,617.41,377.53,626.19,369.58,720Z"/><path class="cls-4" d="M367.35,491.76s-1,13.64-6.54,17.67-10.73,2.14-11.36,6.82,2.69,40.42,3.07,48.94.85,151.51,1.51,153.9,9.28-109.54,8.37-120.85-1.85-19.47-.79-38.53-2.79-21.07-2.86-27.54,6,69.7,10.95,67.57S376,487.43,367.35,491.76Z"/></svg>