<svg id="frame_4" data-name="frame 4" xmlns="http://www.w3.org/2000/svg" viewBox="0 0 720 720"><defs><style>.cls-1{fill:#a38a29;}.cls-2{fill:#7c5023;}.cls-3{fill:#411414;}</style></defs><title>Frame 4</title><rect width="720" height="720"/><path class="cls-1" d="M382.91,525.36c0,1.29,0,2.58,0,3.87,0,1.84,0,3.69,0,5.53q1.14,31.15,2.32,62.33c.13,3.46.37,6.91.56,10.36,0,.53-.07,1.06-.1,1.59l-.21,7.64.18,3,0,0-2,28.63q-2.31,33.33-4.59,66.66a37.33,37.33,0,0,0,.34,5h-6.25c.32-10.48-1.37-21,.76-31.46a95.57,95.57,0,0,0,1.11-11c.18-2,.09-4.11.35-6.15.9-7,1.42-14.23-1.06-20.93s-4-13.1-2.91-20.26c.7-4.5-2-8.34-4.2-12.24a7.08,7.08,0,0,0-1,3.3c-.5,7.24-1.08,14.48-1.4,21.73-.14,3.07-1.41,4.16-5.16,3.57.57-3.6,1.42-7.14,1.64-10.73.62-10.45,1.35-20.93,1.37-31.4,0-10.83-.66-21.66-1.21-32.49q-1.4-27.87-3.06-55.73a31.66,31.66,0,0,0-1.22-5.23l-.21,0c-.33-5.91-.66-11.82-1-18H360c1.27.67,2.49,1.81,3.8,1.91a50.29,50.29,0,0,0,8.93-.21c4.87-.51,5.74-.26,7.55,4.28a30.15,30.15,0,0,1,1.3,6.4c.31,2,.48,4.09.72,6.14,0,.72.07,1.44.11,2.16Z"/><path class="cls-2" d="M357.27,511a31.66,31.66,0,0,1,1.22,5.23q1.62,27.87,3.06,55.73c.55,10.83,1.22,21.66,1.21,32.49,0,10.47-.75,20.95-1.37,31.4-.22,3.59-1.07,7.13-1.64,10.73,3.75.59,5-.5,5.16-3.57.32-7.25.9-14.49,1.4-21.73a7.08,7.08,0,0,1,1-3.3c2.17,3.9,4.9,7.74,4.2,12.24-1.11,7.16.43,13.61,2.91,20.26s2,13.88,1.06,20.93c-.26,2-.17,4.11-.35,6.15a95.57,95.57,0,0,1-1.11,11c-2.13,10.46-.44,21-.76,31.46H351.71c.45-2.82,1.1-5.62,1.33-8.45,1.81-22.9,4-45.79,5.19-68.73q1.86-36.14,2-72.36c.05-14.06-1.53-28.13-2.37-42.19-.19-3.42-.37-6.83-.56-10.25Z"/><path class="cls-3" d="M360,493h-3.94c.34,6.15.67,12.06,1,18-.36-1.75-.81-3.49-1.06-5.25s-.19-3.44-.4-5.15c-.73-6.11-.75-6.11-6.75-6.4a30.19,30.19,0,0,0-2.65-1.61A22.06,22.06,0,0,1,336,483.8c-4-6.75-14.45-9.09-21.14-5.65l-2.06.39c-1.66-.74-4.37-1.12-4.78-2.3-1.53-4.39-2.3-9-3.46-14,.95,1.57,1.87,2.83,2.54,4.23s1,2.81,1.71,4.77c2.63-2.79,3.11-5.31,2.11-7.94-2-5.33-4.63-10-11.72-8.52-.75.16-1.6-.27-2.4-.26-7.69.06-15.15.9-21.07,6.57-3.95,3.78-3.92,3.81-8.71,1.05a7.84,7.84,0,0,1-2.33-1.47c-2.81-3.5-6.62-3.25-10.46-3-3.1.2-6.2.35-9.3.52-2.62-3-1.47-6.48-1.11-9.84.22,1.68.44,3.35.56,4.36,3.89-4.83,8-9.82,11.92-14.94a3.11,3.11,0,0,0-.11-2.72c-1.52-2.63-3.24-5.16-4.94-7.69-1.15-1.72-1.34-4.41-4.28-4.4,1.3-3.39,3.09-6.72,1.22-10.48a6.75,6.75,0,0,1,1.5,1.35c2.49,4.2,4.16,4.54,7.84,1.31a35.17,35.17,0,0,0,2.56-3.2c1.36-1.53,2.57-3.36,4.26-4.36,3.37-2,7.1-3.39,10.52-5.32,3-1.69,5.47-1.12,7.92,1,1,.89,2.18,1.64,3.28,2.45l1.18-1a28.65,28.65,0,0,0-2.67-4.16,52.74,52.74,0,0,0-4.6-4.08,13.89,13.89,0,0,1,2.41-.06c5.12.71,7.67,4.51,6.69,9.34a81,81,0,0,0-.85,8.84c3.87-.56,6.53-5.2,5.72-8.59a21.82,21.82,0,0,0-6-10.3c-.52-.54-.51-1.61-.74-2.44.95-.08,2-.51,2.82-.19,1.35.56,2.43,1.79,3.78,2.34a4.89,4.89,0,0,0,2.94-.1c.29-2,.74-4.18.19-6-.34-1.1-2.26-2-3.65-2.46a26.67,26.67,0,0,0-5-.9c2-4.13,6-2.2,9.62-2.9-2.11-5.2-3.92-10.14-6.21-14.86-.44-.91-2.85-1.49-4.12-1.19-1,.22-1.91,1.93-2.36,3.16-.95,2.64-1.48,5.43-2.38,8.09a25.75,25.75,0,0,1-2.11,4.32c-1.51,2.73-.43,4.34,2.2,5.34-.7.51-1.34,1.31-2.11,1.48-5.45,1.21-5.46,1.17-2.84,5.7-2.63-.11-4.49-1-5.62-3.73-2.34-5.64-4.9-11.21-7.6-16.68-2.32-4.7-3.67-5-7.57-1.88a13.06,13.06,0,0,1-7.85,3c-5.92.37-7.48,1.12-9.48,3.41,7.4,1.91,7.69,2.61,4.55,9.94a6.37,6.37,0,0,0-.09,2.66c.15,3.45.51,6.91.4,10.36,0,1-1.34,2-2.2,2.9a11.14,11.14,0,0,1-2.08,1.36,15.4,15.4,0,0,0,1.79,1.9c1.42,1.1,2.93,2.09,4.41,3.12-8.07-2.31-14.72-7-20.67-12.69-5.31-5.07-10-10.78-15.54-15.62-2.67-2.34-6.13-3.64-8.52-6.68a26.21,26.21,0,0,1-5.72-13.77c-.58-5.25-1.8-10.45-2.06-15.7a9.67,9.67,0,0,1,2.48-6.73c2.68-2.58,6.22-4.28,9.4-6.35.62.54,1.36,1.62,1.82,1.51a26.75,26.75,0,0,0,4.34-1.74c2.78-.58,5.67-.84,8.32-1.79,9.25-3.34,15.74,0,17.94,9.52,1.23,5.34,2.66,5.84,7.82,3.55a10.58,10.58,0,0,1,6.21-.86,9.82,9.82,0,0,0,8.7-2c2.86-2.11,4.53-1.55,4.86,2,.27,3-.48,6.11-.78,9.18a14.61,14.61,0,0,0-3.16-1.32c-3.23-.55-6.51-.91-9.76-1.35-2.71-.37-4.28.94-4,3.78a66.68,66.68,0,0,0,1.67,8.83c1.33,5.38,4.8,6.88,9.35,3.9,2.47-1.62,3.63-.94,4.82,1.44a22.32,22.32,0,0,0,3.09,3.82c4.88-5.75,4.81-6.83-.41-10.56-2.45-1.75-3.25-3.81-1.64-6.52.73,2,1.05,4.35,3.79,4.81,4.75.79,9.31.37,13-2.89,2-1.79,4.07-2.88,6.8-2.63s4.12-.94,4.4-3.92c.35-3.77,1.47-7.45,1.9-11.22.32-2.84,1.19-6.55-.17-8.45-2-2.79-5.69-.93-8.64,0,.3-.88.6-1.77.91-2.66l.66-.55.13-.06.5-.73.06-.13a.54.54,0,0,0,.24-.57,6.19,6.19,0,0,1,.28-.58l.22,0,.05-.22c.15-.14.31-.26.47-.39l.82-.77.17-.11c2.36-1.21.82-2-.29-2.87-4.41-3.43-4.69-8.12-.9-12.15,2-2.13,3.73-4.54,5.7-6.71.64-.72,1.73-1.63,2.5-1.54,2.2.26,3-.95,4-2.52,1.6-2.58,7.58-4.33,9.88-3.12,8.28,4.39,13.86,15.42,12.83,25.12-.09.84.64,1.76,1,2.65l2.58-1.37c2.45-.92,2.95-2.88,2.76-5.2,0-1.46.08-2.92,0-4.38-.08-1.82.25-3.25,2.51-3.2.13.21.26.42.38.63.14.41.27.83.41,1.24a36.66,36.66,0,0,0,1.54,3.79c2.76,5.22,5.21,10.74,11.45,12.89a9.52,9.52,0,0,0,1.39,2.29c1.78,1.62,2.62,3.41.93,5.41s-3.75,2-5.89.5a40.7,40.7,0,0,0-4.07-2.54c-2.49-1.33-5-2.6-7.59-3.77-1.29-.59-3.42-1.72-4-1.24-2,1.8-5.63,2.57-5.19,6.29a3.59,3.59,0,0,0,1.59,2.5c7,3.14,13.29,8.13,21.74,6.83,3.74-.58,5.43,1.73,3.62,4.95-1.51,2.67-.91,4.71.08,7.15.5,1.24.87,3.54.25,4a5.34,5.34,0,0,1-4.42.67c-1-.37-1.75-2.15-2.11-3.44s0-3-.37-4.46c-.14-.57-1.39-1.23-2.11-1.21a23.75,23.75,0,0,0-5.22.82,5,5,0,0,0-2.8,1.52c-2.58,3.67-2.22,5.26,1.6,7.9,2.2,1.53,2.13,3.26.36,4.87-3.44,3.14-6.52,2.7-9.24-1a6.22,6.22,0,0,0-1.51-1.07,11.75,11.75,0,0,0-.85,2.06q-1,5.75-1.78,11.49c-.07.51.09,1.43.37,1.53a3.13,3.13,0,0,0,2.19.08c1.85-.84,3.61-1.89,5.39-2.85,2.82,4.88,2.31,8.25-1.64,11.76-1.52,1.35-2.46,2.76-.92,4.76,1.66,2.15.44,3.73-1.33,4.91a25.81,25.81,0,0,1-4.11,1.79c1.1,3.59,2.53,7.44-1.74,10.42-.34-.68-.47-1.34-.87-1.63a37.75,37.75,0,0,0-3.27-1.91,15.07,15.07,0,0,0-.52,3,37.85,37.85,0,0,0,.6,4.2c1.9-.38,3.45-.72,5-1s3-.48,4.62-.74c-.51,6.11-.51,6.11,5.23,6.87a1.34,1.34,0,0,1,.35,0c1.55.55,3.1,1.09,4.62,1.7a3.18,3.18,0,0,1-.31,1.15c-1.64,0-3.27-.17-4.91-.21-1.44,0-2.87,0-4.31,0,.23,1.2.46,2.41.69,3.65l-3.25,1.53c4.77,3.51,6.72,3.06,10-.17,1.27-1.26,4.22-1,6.41-1,.8,0,2.39,1.76,2.26,2a12.8,12.8,0,0,1-3,3.82,57.33,57.33,0,0,1-5.36,3.71c.18.42.36.84.55,1.25l13.5-2.77a6.91,6.91,0,0,0-.32-2.7c-1.22-2.56.5-3.51,2.25-4.09,1.34-.46,2.92-.22,4.39-.28-.39,1.42-.76,2.84-1.19,4.25-.09.31-.54.52-.61.82-.19.93-.28,1.89-.41,2.83,1-.05,2.22.19,3.09-.23,1.45-.67,2.59-2.17,4.06-2.57a5,5,0,0,1,4.12.71c.74.66.82,2.75.36,3.86-.73,1.77-2.27,3.2-3.23,4.9a20.44,20.44,0,0,0-1.21,4l14-6.72-4.14-4.55c1.12-1.87,2-3.94,3.45-5.49.84-.9,2.59-1,3.93-1.39a12.43,12.43,0,0,1,.68,3.31c-.2,2.53-.92,5-1,7.56a4.8,4.8,0,0,0,1.73,3.41c.83.61,3,.8,3.47.26,2.72-3.48,6.14-6.95,7.22-11,.61-2.3,1.39-4.85,1.9-7.32.3-1.47,1.2-3-1.12-3.56-2.09-.48-3.36.44-3.62,2.59-.19,1.55-.32,3.1-.6,5.84-2.09-1.63-3.86-2.45-4.56-3.82-.33-.63,1.48-2.29,2.18-3.57.38-.68.8-2.1.61-2.22a12.66,12.66,0,0,0-4.59-2c-.74-.09-1.72,1.43-2.53,2.28-.6.63-1,1.85-1.63,1.95-3.81.62-5.18,3.54-6.61,6.49-.53,1.08-1.19,2.09-2.05,3.6-1.07-1.69-1.57-3.1-2.57-3.91s-2.79-1.07-3.95-1.92a2.94,2.94,0,0,1-.9-2.53c.54-2.16,5.36-5.13,7.76-5.07-.17,1.07-.34,2.13-.53,3.26a8.39,8.39,0,0,0,7.09-5.9l.18-1.27,3.38-1.8c-1.37-3.71-2.51-7.09-.68-10.8.56-1.14.16-3-.28-4.35a6.09,6.09,0,0,1,1.14-6.41,4.09,4.09,0,0,0,.59-3.59,6.23,6.23,0,0,1,1.62-8.1c3.13-2.77,2.91-6,1-9-1.76-2.75-4.17-5.08-6.29-7.6l2.65-3.08c.39-1.06,1.44-2.68,1.08-3.08-2.15-2.46-4.63-4.64-7-6.91-.46-.63-.11-1.82.36-3,1.57-3.82-2.65-3.94-3.94-5.92-.13-.18-2.32,1-3.55,1.53-.84.37-1.67.77-2.5,1.15-.3-1-1-2.11-.82-3,.75-3.47,1.8-6.87,2.74-10.3,1.56,2,2.87,4.4,4.76,6.07s3.5.82,3.69-1.79c.16-2.29.13-4.59.19-6.89a22.21,22.21,0,0,1,2.14,2c2.24,2.68,4.42,5.41,6.63,8.11,1.13,1.83,2.13,3.75,3.42,5.45,1.58,2.08,2.59,3.89,1.77,6.83-.44,1.59,1.25,3.77,2,5.69l2.38,4.52.39,6.56c.44,2.18.87,4.36,1.31,6.53-2,.53-4.09,1-3.12,3.93.09,1,.17,2.06.26,3.1-.63,2.88-1.41,5.75-1.8,8.67-.11.77,1,1.69,1.52,2.54.75-.52,2-.94,2.15-1.58.58-2.86.82-5.78,1.19-8.68l2.46-1c3.19-1,1.29-4.05,2.31-5.94l1.47-.85,1.23-1.12a.85.85,0,0,0,.25-.25c3.65-1.64,1.36-3.68.38-5.64,0-.63,0-1.26,0-1.89a68.79,68.79,0,0,0,.78-7.82,3.66,3.66,0,0,0-1.92-2.7c-8.59-3.53-9.05-4.63-4.78-12.7l.54-.52,2-1.94.39-.72c1.15-1.17,2.39-2.27,3.42-3.54,1.36-1.68,2.46-1.89,3.69.12,1.39,2.24,2.84,4.46,4.37,6.61,2.31,3.24,4.1,7,8.4,8.33.64.21,1,2.16,1,3.29,0,.93-.82,1.85-1.27,2.77-2.47,1.63-3,3.93-2.32,6.67.31,1.35.45,2.74.67,4.11-1.48.88-2.86,2.14-4.46,2.57-3.22.84-4.13,3-4.19,5.9a27,27,0,0,0,0,4.84,19.16,19.16,0,0,0,1.65,4c5.07-4.22,6-9.83,8.45-14.59l7.81-1.76c4-1.05,4.64-.48,3.75,3.47-.53,2.36-1.26,4.68-1.81,7-.75,3.28.23,4.84,4.21,6,.37-8.25,2.2-16.26,1.23-24.43l-.9-.18-2.43,4.72-1-.19c-.31-3-.59-6.06-1-9.08-.33-2.67.5-4.53,3.33-5.12.6.95,1.18,1.93,1.82,2.86,2.94,4.37,5,8.8,3.9,14.43A67.12,67.12,0,0,0,434,379.9c.05,3.5,1.78,4,4.54,1.86.28,2.62.59,5.25.83,7.88.37,4,3.35,7.15,8,8.07-.44-1.82-1.13-3.42-1.11-5s.79-3,1.22-4.49l1-.38c2,7.12,6.81,8.39,13,7.29,1.79-.32,3,.88,2,2.82s-2.42,3.79-3.34,5.82c-.51,1.12-.93,2.87-.41,3.74.76,1.25,2.42,1.95,3.69,2.89L465,413c.91,2.18-.49,3-2.09,4s-3.81,2.4-4.57,4.12c-1.74,3.94-2.16,8.55-4.26,12.22-1.84,3.2-4.81,6.87-8.05,7.89-5.47,1.72-10.67-4.53-9.52-10.23.3-1.48.44-3,.7-4.75-7.55,1-11.2,5.14-12.37,11.8a19.68,19.68,0,0,0-.65,4.76c0,.58,2,1.7,2.35,1.46,2.85-1.78,5.35-.86,7.81.64a39.36,39.36,0,0,1,3.2,2.41c-1,1.22-1.66,3-2.92,3.58-8.62,4-11.79,12.55-16.89,19.48-1.16,1.58-.48,2.91,1.59,3.13,2.57.27,5.14.46,7.71.68l8,11.72a37.69,37.69,0,0,0-3-2.61,25.68,25.68,0,0,0-3-1.59,14.13,14.13,0,0,0-.07,3.49,25.05,25.05,0,0,0,1.76,4.13l-7.42-1.13c0,1.39.1,1.94.43,2.1,4.71,2.37,7.16,6.58,8.19,11.36,1.25,5.81,1.69,11.8,2.56,17.69a38.08,38.08,0,0,0,1.16,4.37c-.48,3.75-2.82,5-5.67,3-3.16-1.59-6.66-2.74-9.42-4.85-5.94-4.54-11.44-9.65-17.23-14.38-1.9-1.55-4.1-3.65-6.25-3.77-4.31-.23-8.15-.46-10.85-4.42-.55-.81-2-1.05-3.08-1.43-3.23-1.14-4.21-3.59-2.4-6.42,1.42-2.24,3-4.39,4.53-6.56,1.09-1.57.74-3-1.12-2.91-2.78.11-5.86.27-8.24,1.51C370.43,486.27,365.29,489.79,360,493Zm41.28-96.51.72-5.81a5.32,5.32,0,0,0,1.69-.22c.75-.31,2-.86,2-1.32a4.43,4.43,0,0,0-1-3,2.9,2.9,0,0,0-2.77-.36,71.74,71.74,0,0,0-5.6,5.16,25.22,25.22,0,0,0-2.39,4.83c-.31,1.18,0,3.59.51,3.71a9.32,9.32,0,0,0,5-.2C400.25,399,400.67,397.49,401.28,396.53Zm22.36-6.11-4.77-10.36a45.12,45.12,0,0,1-2.08,6.71c-1.05,2.22-1,3.9,1.36,4.76a45.12,45.12,0,0,0,6.17,1.34c1.3,2.34-.71,1.88-1.83,2.16-1.39.36-3.87.47-4,1.08-.62,3-.61,6.08-.89,10.07a48.18,48.18,0,0,0,4.83-3.65c1.51-1.52,2.77-3.3,4.14-5a53.86,53.86,0,0,1-.81,6.75c-1,4.25,1.16,8.51,4.75,9.21.93-3.63,2.25-7.2,2.64-10.87.19-1.84-1-4.13-2.21-5.68-.51-.65-2.78.08-4.25.19.28-2.63,2.24-3.15,4.37-3.65,2.53-.6,3.36-3,1.38-4.52-2.82-2.21-6-3.92-9.71-6.25C423.1,385.78,423.37,388.1,423.64,390.42Zm-7,34.75a14,14,0,0,1-2.36-.41c-2.12-.77-3.71-.49-4.12,2-.39,2.33,0,4.05,3,4.26,1.62.11,3.15,1.27,4.78,1.56a4.28,4.28,0,0,0,3-.8c1.54-1.19,2.61-3.22,4.29-3.95a85.66,85.66,0,0,1,10.17-3.17c3.75-1.1,5.73.1,6.45,4,.23,1.24-.14,2.7.38,3.76.74,1.51,1.88,3.61,3.15,3.84s3.4-1.18,4.28-2.47a10.82,10.82,0,0,0,1-10.9,23.1,23.1,0,0,1-1.35-3.93c-.53-2.26.15-3.62,2.81-3.35,1.38.14,2.94.46,4.11,0a5.79,5.79,0,0,0,3.22-3c.27-.93-.84-2.91-1.86-3.46-2.48-1.33-5.3-2-7.9-3.14-1.41-.62-3.39-1.36-3.82-2.52-1.5-4-5.14-5.5-8.14-7.72-.71-.53-2-.25-3.05-.35a10.59,10.59,0,0,0,.45,3.38c.47,1,1.76,1.56,2.29,2.54.41.76.63,2.39.22,2.71-3.82,2.94-2.26,6.92-2.35,10.6,0,1.54-.22,3.09-.34,4.63a18.55,18.55,0,0,1-4.3-1.31c-2.35-1.38-3.85-1-5,1.45-.82,1.78-1.48,3.75-2.74,5.17-1.52,1.73-3.45,3.9-5.93,1,2.73,0,3.73-1.65,4.21-4.11a18.21,18.21,0,0,1,1.86-5.06c1.29-2.38,1.07-4.46-.73-6.33-2-2-5.48-1.22-9.93,2.15-2.33,1.77-.77,3.53,0,5.18C413.71,420,415.22,422.57,416.63,425.17Zm-90.09,26.22c-4.64-1.92-8.46-3.38-12.16-5.11-1.24-.58-2.86-1.74-3-2.82s1.33-2.36,2.35-3.28c1.66-1.5,3.85-2.92,2.6-5.4s-2.81-5.5-6.22-5.29c-2.85.17-3.76,2.73-4.2,5.24-.54,3.07-.95,6.17-1.54,9.24-.65,3.38-2.69,4.36-5.81,2.89-1.25-.59-2.46-1.73-3.72-1.78-6.72-.24-7.89-3.9-7.2-9.81.46-3.88-2-5.38-6-5.18a13.7,13.7,0,0,1-5.71-.78c-3.49-1.46-6.79-3.36-10.15-5.1-2.13-1.1-4.23-2.26-6.35-3.36-.77-.4-1.58-.73-2.37-1.09-.4.89-1.28,1.89-1.1,2.64.37,1.57.91,3.54,2.08,4.39,1.88,1.38,4.32,2,6.52,2.94,1.84.81,3.67,1.66,5.51,2.49-.08.44-.16.87-.23,1.31a24.62,24.62,0,0,1-4,1.6c-7.26,1.52-9.5,5.16-7.28,12.1,1,3.25,2.14,3.68,5,1.94l9-5.44c0,3.86-.09,7,0,10.18.12,2.95,1.2,3.48,3.72,2a8.75,8.75,0,0,0,1.83-1.56,10.73,10.73,0,0,1,10-3.42,63.62,63.62,0,0,0,14.83.61c5.7-.59,5.54-1,8.69,3.44.75,1.06,2.92,2.23,3.86,1.87A122.08,122.08,0,0,0,326.54,451.39Zm76.95,29.35c1.27-.71,2.3-1.74,3.4-1.83,4.78-.37,5.57-3.79,6-7.47a10.07,10.07,0,0,0-.47-2.87,27.06,27.06,0,0,0-3,1.3c-3.64,2.13-7,5.38-10.91,6.25-4.88,1.09-5.91,3.92-6.63,7.86-1,5.35.07,6.94,5.52,6.79,4.34-.11,8.67-1.06,13-1.2s5.55,2,3.38,5.87-3.65,7.67-1,11.72a6.63,6.63,0,0,0,3.76,2.6c2,.45,8.32-5,8.65-7.09.74-4.65-.76-8.61-4.55-11.26-5.19-3.61-9.54-8.74-16.38-9.56C404.16,481.84,404,481.51,403.49,480.74Zm-105-107.13c1.52-2.76,3.15-4.95,4-7.4.92-2.7,2.44-6.36,1.36-8.33-2.57-4.7-2-8,1.28-11.92,2.24-2.7,5.53-5.6,3.88-9.78s.13-7,3.19-9.6a14.36,14.36,0,0,0,2.18-3.19c-1.26-.69-2.45-1.76-3.79-2a77.56,77.56,0,0,0-9.38-1.05c-1.42-.1-3.4-.24-4.13.56s-.23,2.72-.11,4.14c.37,4.7,1.26,9.4,1.11,14.08-.21,6.46-1.11,12.89-1.89,19.31-.16,1.38-1.19,2.63-1.58,4s-1.06,3.11-.57,4.22C295,369,296.76,371.07,298.45,373.61ZM386.54,472c1.34-1.55,2.59-2.56,3.28-3.86,3.86-7.26,7.7-14.54,11.23-22,.55-1.14-.55-3.06-.89-4.62-1.24.66-3,1-3.63,2-3.12,4.72-3,4.76-6.79.73-.43-.46-1.6-.84-2-.59a2.38,2.38,0,0,0-.68,2,8.34,8.34,0,0,0,1.26,2.83,5.56,5.56,0,0,1,0,6.72,90.91,90.91,0,0,0-5.47,9.42,4.64,4.64,0,0,0-.21,3.71C383.39,469.74,384.91,470.57,386.54,472Zm-35.36-1.42c5.37-8.14,13.42-6.62,21.5-5.91-1.17-3.53.65-4.32,3.23-4.46a16,16,0,0,0,2.41-.25c2.37-.5,4.05-2.08,3.17-4.34-.41-1.05-3-1.87-4.49-1.74-2.59.23-5.09,1.34-7.66,2-2.09.51-4.4,1.6-6.28,1.12-2.75-.71-4.57.39-6.29,1.81a67.31,67.31,0,0,0-6.09,6.09C349.11,466.55,349.12,468.3,351.18,470.59ZM219.57,350.94c.57,5.72,2.39,9.24,5.65,11.88,1.12.91,3.12,2,4.06,1.57,1.27-.59,2.23-2.44,2.75-3.95.66-1.92.47-4.13,1.12-6.05,1.17-3.43-.9-5.41-3.13-6.94a6.64,6.64,0,0,0-5.21-1C222.3,347.42,219,348.4,219.57,350.94ZM414.9,464c1.32-.16,1.66-.11,1.75-.23,2.74-3.72,5.52-7.41,8.07-11.25.3-.45-.71-1.75-1.07-2.67-.84-2.08-1.69-4.15-2.45-6.25-.35-1-.3-2.11-.79-3s-1.39-1.89-2.13-1.9-1.59,1.12-2,1.94c-1.27,2.3-2.24,4.77-3.55,7-1.55,2.71-1.18,4.61,1.88,5.68,2.7.95,3.15,2.61,2,5.14A40.89,40.89,0,0,0,414.9,464Zm-49.63,10.56c-2.28.37-4,1-5.62.81s-3.07-1.38-4.65-1.95c-3.07-1.11-7.91,2.39-7.12,5.28a41.25,41.25,0,0,0,3.05,7.28c1,1.95,2.58,2.34,4.19.77,3.29-3.19,6.48-6.47,9.64-9.78C365.14,476.56,365,475.73,365.27,474.55ZM291,417.35c-3.32-.52-5.56,1.35-7.35,3.69a4.54,4.54,0,0,0-.85,3.74c.39,1,2,1.79,3.23,2,4.08.62,8.21,1,12.33,1.3,1,.06,2.53-.51,2.82-1.2s-.36-2.12-.94-3c-.83-1.21-2.19-2.08-3-3.32C295.8,418.11,293.89,416.83,291,417.35ZM415.1,456.17l-.16-.89a40.74,40.74,0,0,0-4.11-.37,39.11,39.11,0,0,0-6.68.38,5.56,5.56,0,0,0-3.09,2,43.5,43.5,0,0,0-3.07,5.36c-.73,1.34-1.4,2.71-2.1,4.07l.62.49,7.07-4.54c-.43,2.48-.67,3.89-.91,5.3,3.75,0,6.62-2.27,7.11-6,.3-2.21,1.14-3.61,3.23-4.38A9.87,9.87,0,0,0,415.1,456.17ZM328.65,350.39c-.63-.9-2-3.6-2.46-3.46-4.89,1.59-9.81,3.35-12.35,8.48-1,2.11-.31,3.07,1.79,3.28a42.93,42.93,0,0,0,7.9.47,5.3,5.3,0,0,0,3.57-2.46C328,355.17,328,353.19,328.65,350.39Zm-11.59-41.05c0-3.71-1.57-5.76-4.41-5.77-2.33,0-8,3.45-8.06,4.91-.12,3.32,3.92,7.21,7.54,7.26C315.52,315.77,317.07,313.77,317.06,309.34Zm31.61,146.81c-6.36-.09-10.4,5.4-7.89,10.56,1.24,2.55,2.85,2.68,4.51.76a65,65,0,0,0,5.78-7.75C352.32,457.72,351.13,456.18,348.67,456.15Zm57.89-40.3c-3.06,1.1-6.23,1.42-8,3.16-1.13,1.13-.2,4.35-.14,6.63a4.11,4.11,0,0,0,.43,1.31c.68,1.73,1.46,4.08,3.68,3a7.85,7.85,0,0,0,3.84-4.57C407,422.85,406.56,420,406.56,415.85Zm-68,56.9a34,34,0,0,0-4.6,2.82c-.25.21.3,2,.91,2.55,3.16,3,6.43,5.9,9.73,8.76a6,6,0,0,0,2.14.65c.08-.83.47-1.79.18-2.45a64.72,64.72,0,0,0-4.19-8.67C341.87,475,340.11,474.05,338.59,472.75Zm39,7c-3.21-2.16-5.21-3-7.93-.81-2.16,1.76-5.23,2.38-7.47,4.07-1.19.9-1.47,3-2.16,4.55,1.69-.27,3.54-.2,5.05-.87,2.72-1.22,5.24-2.88,7.85-4.35Zm12.85-74.15c.4-1.05.91-1.73.82-2.32a26.67,26.67,0,0,0-1.1-3.64c-1.29.5-2.83.75-3.77,1.63-.44.41.17,2.07.45,3.13s.88,2.19,1.14,3.33a47.14,47.14,0,0,0,1.07,5.39c.32.87,1.56,1.41,2.39,2.1.81-1,2-1.92,2.31-3.06.4-1.7.1-3.55.1-5.56Zm14.44-1c-.45-.4-1.47-1.54-1.65-1.42-1.66,1.08-3.78,2.12-4.51,3.73-.55,1.2.36,3.55,1.34,4.84,1.16,1.52,2.95,1.42,3.59-.83C404.22,409.07,404.45,407.11,404.92,404.62Zm10.75-8.72-1.34-.68a46.76,46.76,0,0,0-3.8,6.87c-.24.64,1.56,2.05,2.42,3.1.77-.71,2.05-1.33,2.2-2.16A60.27,60.27,0,0,0,415.67,395.9Zm-98.05.76c2.71-.41,3.89-1.39,4.17-3.34.33-2.27-2.89-7.82-5.72-9.33C316.61,388.41,317.12,392.53,317.62,396.66ZM307.11,389l-1.14.78c1.15,3,2.29,6,3.51,9.17,2.45-1.16,4.79-2.1,2.86-4.84C311,392.16,308.88,390.69,307.11,389Zm71,57.05-.58,1.18c1.47,2.76,6.25,4.73,10.35,3.45ZM270.34,418.61l.24-1.23a5.87,5.87,0,0,0-8.6-.06Zm39.58-50.42-1.7.23c.79,4-.58,8.31,1.49,12.15l1.31-.15Zm66.14,37.13c.22.32.35.69.57.76s.69-.32.66-.42a3.51,3.51,0,0,0-.51-1Z"/><path class="cls-2" d="M333.43,308.94c-2.26-.05-2.59,1.38-2.51,3.2.06,1.46,0,2.92,0,4.38-.61-.7-1.21-1.4-1.81-2.11l-.95.23v7.08l-2.58,1.37c-.34-.89-1.07-1.81-1-2.65,1-9.7-4.55-20.73-12.83-25.12-2.3-1.21-8.28.54-9.88,3.12-1,1.57-1.77,2.78-4,2.52-.77-.09-1.86.82-2.5,1.54-2,2.17-3.69,4.58-5.7,6.71-3.79,4-3.51,8.72.9,12.15,1.11.87,2.65,1.66.29,2.87L283,317.45l-2.43,10.78c-.13-1.71.12-3.56-.46-5.1-4.1-11-5.34-22.27-5.82-33.94-.44-10.62-.51-21,2.8-31.15.76-2.35,2.26-4.45,3.42-6.66h4.66c.2-.68.24-1.8.82-2.4.27-.29,1.56.4,2.39.62,1.2.33,2.43.57,3.6,1,2.69.9,5.52,1.56,8,2.9s4.68,4.91,7.1,5c5.82.26,8.45,4.5,12.12,7.55.13.11.41,0,.74.06-.29-.89-.56-1.72-.84-2.56a45.06,45.06,0,0,1,4.15,4.5q8.06,11.36,15.9,22.85c2.32,3.39,3.53,3.62,5.87.81-.73.92-1.27,2.33-2.21,2.69-4,1.58-7.05-.77-10-3-1.4-1-2.84-2-4.6-3.25-.26,4.74-.17,8.76-.82,12.66-.49,3,.22,5.27,2.24,7.91.39-1.42.73-2.37.91-3.36.8-4.27,3.16-6,7-3.82,4.15,2.32,7.67,5.79,11.33,8.91.34.29,0,2.18-.55,2.53-.8.51-2.5.81-3.05.33-2.09-1.83-3.83-4-5.77-6-1.28-1.31-2.69-2.5-4-3.74Zm-35.65-23.1c5.93,5.28,21.22,4.51,28,1.14C316.66,282.25,307.57,282.76,297.78,285.84Zm-21.54-3.52.9,0c1.1-2.83,2.37-5.59,3.25-8.48,1-3.36.14-6.55-1-9.63l-.89.09Q277.37,273.3,276.24,282.32Z"/><path class="cls-2" d="M244.94,458.15c3.1-.17,6.2-.32,9.3-.52,3.84-.25,7.65-.5,10.46,3A7.84,7.84,0,0,0,267,462.1c4.79,2.76,4.76,2.73,8.71-1.05,5.92-5.67,13.38-6.51,21.07-6.57.8,0,1.65.42,2.4.26,7.09-1.5,9.7,3.19,11.72,8.52,1,2.63.52,5.15-2.11,7.94-.69-2-1.07-3.43-1.71-4.77s-1.59-2.66-2.54-4.23c1.16,5,1.93,9.65,3.46,14,.41,1.18,3.12,1.56,4.78,2.3-1.53.61-3,1.54-4.59,1.74s-3.18-.48-4.78-.52c-.92,0-2.33.2-2.65.79a3.25,3.25,0,0,0,.38,2.85,11.5,11.5,0,0,0,3.32,2.88c2,1.18,4.18,2,6.12,3.17,2.24,1.42,2.77.68,3.88-1.54,1.87-3.73,1.52-9.4,7.55-10.24l-7.17.48c6.69-3.44,17.1-1.1,21.14,5.65a22.06,22.06,0,0,0,10.19,8.8,30.19,30.19,0,0,1,2.65,1.61c-3,1.16-5.87,2.84-9,3.39-10.91,2-21.18.21-30.31-6.41-3.48-2.52-7.05-2.73-11.15-1.67-9.71,2.49-19.46,5-29.31,6.82-12.91,2.43-25-1.46-36.65-6.46a3.14,3.14,0,0,1-1.42-2.66c1.55-6.65,3.5-13.16,8.11-18.48a15.1,15.1,0,0,1-.57,3.4c-1.1,2.62.21,3.12,2.46,3.51,3.73.64,7.36,1.94,11.1,2.34s5.22,1.46,2.61,5.64c2.67-.28,4.7-.36,6.67-.74,2.7-.51,5.05-.38,6.71,2.21.35.54,1.11.81,1.6,1.28.84.8,1.62,1.66,2.43,2.5-1.13.86-2.19,2.31-3.4,2.46-3.52.42-7.1.32-10.65.44-.87,0-1.74.12-2.61.18l0,.94a14.28,14.28,0,0,0,3.19.94c3.52.16,7.15.67,10.57.07a174.84,174.84,0,0,0,22.57-5.16c5.56-1.78,6.41-5.06,2.92-9.89-3-4.17-6.87-7.72-10.45-11.45-1.72-1.78-3.33-1.32-5.51-.1-3.13,1.74-6.93,3.94-10.12,3.52-4.6-.61-9-3.2-13.32-5.31-3.69-1.81-7.22-4.12-11.29-1.45-1.77,1.16-3.14,2.93-4.69,4.43,1.42-2.34,2.89-4.64,4.23-7A26.47,26.47,0,0,0,244.94,458.15Zm-8.88,20.56-1.84.12c-.37,2.44-1.71,5.31-.87,7.22,1.14,2.59,4.18,4,7.6,4C236.7,487.39,236.33,483.08,236.06,478.71Z"/><path class="cls-3" d="M408.56,258.56A40.45,40.45,0,0,1,429,255.13c1.61.14,3.75,2.73,4.31,4.59,1.16,3.81,1.43,7.9,2,11.88.52,3.39,1,6.8,1.55,10.2-1.41-.36-1.18-4-3.82-1.9-1.23,1.58-3.48,3.15-3.49,4.74-.07,5.73-2.76,10.4-5.93,14.48-3.7,4.77-8.4,8.81-12.92,12.88a23.53,23.53,0,0,1-7.15,4.32c-4.19,1.6-5.32,3.31-4.27,7.88a18.9,18.9,0,0,1,.19,3.38l-1.05.33c-1-1.59-2-3.16-3-4.78-3-5-7.08-9-12.65-10.74-4.11-1.3-8.33-1.89-9.56-6.95-.05-.22-.57-.32-.87-.48-.1-.31-.19-.63-.28-.94a.29.29,0,0,0-.3-.37l-.36-.31a.38.38,0,0,0-.38-.42l-.56-.85c1.11-3,2.14-6.06,3.38-9a8.5,8.5,0,0,1,2.35-3.6c3.52-2.53,8.75-.05,10.31,4.5.91,2.7,1.19,5.94,4.86,7.44.4-1.17.72-2.1,1.05-3,2.16-6.14,2.19-13.05,6.54-18.39,3.33-4.07,6.64-8.15,10.18-12,1.45-1.59,3-1,4.75.46s4.49,2.45,6.89,3.32c2,.72,4.19.74,6.15,1.48,2.74,1,4.16.55,4.28-2.28a35,35,0,0,0-.51-9.5c-.38-1.6-2.52-2.79-3.87-4.16-1.4-.33-2.85-1.07-4.2-.9C418,256.92,413.28,257.8,408.56,258.56Z"/><path class="cls-2" d="M427.07,474.13c-2.57-.22-5.14-.41-7.71-.68-2.07-.22-2.75-1.55-1.59-3.13,5.1-6.93,8.27-15.52,16.89-19.48,1.26-.58,2-2.36,2.92-3.58a39.36,39.36,0,0,0-3.2-2.41c-2.46-1.5-5-2.42-7.81-.64-.37.24-2.3-.88-2.35-1.46a19.68,19.68,0,0,1,.65-4.76c1.17-6.66,4.82-10.8,12.37-11.8-.26,1.76-.4,3.27-.7,4.75-1.15,5.7,4,11.95,9.52,10.23,3.24-1,6.21-4.69,8.05-7.89,2.1-3.67,2.52-8.28,4.26-12.22.76-1.72,2.83-3,4.57-4.12s3-1.8,2.09-4l4.21-4.53a30,30,0,0,1,2.81,2.31A72.32,72.32,0,0,1,487,432.93a8.07,8.07,0,0,0,1.63,3c2.94,2.6,1.41,4.3-.77,6.32-5.35,5-12.09,6.54-18.82,8.11-9.3,2.16-18.67,4-27.95,6.25-1.45.35-2.74,1.88-3.84,3.09-1.92,2.13-3.64,4.43-5.44,6.66a.4.4,0,0,0-.33.33l-4.2,4.13-.06.13C427.16,472,427.12,473.08,427.07,474.13Z"/><path class="cls-1" d="M370.54,302.07l.57.85a.54.54,0,0,0,.38.42l.36.31a.36.36,0,0,0,.3.37c.09.31.18.63.28.94-.25,5.49-2.14,10.2-6.52,13.74-.23.18-.26.61-.38.92l-2.33,1.69c-1.19.36-2.41.64-3.56,1.09-4.16,1.66-8.29,3.39-12.43,5.09-6.24-2.15-8.69-7.67-11.45-12.89a36.66,36.66,0,0,1-1.54-3.79c-.14-.41-.27-.83-.41-1.24-.12-.21-.25-.42-.38-.63q1-2.71,1.93-5.44c1.35,1.24,2.76,2.43,4,3.74,1.94,2,3.68,4.21,5.77,6,.55.48,2.25.18,3.05-.33.54-.35.89-2.24.55-2.53-3.66-3.12-7.18-6.59-11.33-8.91-3.86-2.17-6.22-.45-7,3.82-.18,1-.52,1.94-.91,3.36-2-2.64-2.73-4.9-2.24-7.91.65-3.9.56-7.92.82-12.66,1.76,1.23,3.2,2.21,4.6,3.25,3,2.24,6,4.59,10,3,.94-.36,1.48-1.77,2.21-2.69-1-4-2.41-7.93-2.95-12a9.1,9.1,0,0,1,1.6-6.37,48.53,48.53,0,0,1,8.86-8.13c.88-.64,3.4,0,4.54.87,3.93,3,7.54,6.44,11.36,9.6a15.47,15.47,0,0,0,3.35,1.61l1,.89c-1.87,5-4,10-5.53,15.09C366.16,296.74,366.75,300.15,370.54,302.07Z"/><path class="cls-1" d="M469.24,408.43,465,413l-1.58-2.57c.83-2.62,1.84-5.19,2.44-7.86,1.25-5.63.27-7.57-4.56-10.56a46.07,46.07,0,0,1-5.86-4.22c-3-2.56-4.85-5.57-2.69-9.63,2.11-1.14,4.19-2.33,6.33-3.42,4.16-2.12,5.58-4.87,4.8-9.48l-.42-.57-.21-.27a62.8,62.8,0,0,1-5.44-4.56c-5.63-5.9-11.12-11.92-16.7-17.86a28.71,28.71,0,0,0-2.81-2.33,3.48,3.48,0,0,1-.33-.55l-1.52-1.78c-1.88-2-3.7-4-5.64-5.9-1.44-1.42-2.4-1-2.69,1-2.76.81-5.5,1.66-8.27,2.42-2,.55-3.4,0-4.72-1.78-1.78-2.4-1.53-4.55-.56-7.1,1.3-3.42,2.91-6.95-.35-10.35-.29-.31.4-2,1-2.66,3.36-3.56,7.4-6.6,10.16-10.56,4.64-6.64,8.14-13.95,7.69-22.46,2.64-2.13,2.41,1.54,3.82,1.9l.17.17,1.48,2.2c6.85,12.45,3,23.29-5,33.59-1.67,2.16-2.71,4.79-4.18,7.11s-.73,4.16,1.63,4.89c10.49,3.28,16.89,11.71,24.29,18.92,2.14,2.09,4.32,4.13,6.48,6.19,8.67,8.27,11.73,18.54,10.45,30.21-.31,2.82-1.58,5.54-1.92,8.36C469.81,398.41,469.61,403.43,469.24,408.43Z"/><path class="cls-2" d="M286.38,331.05c2.95-.92,6.65-2.78,8.64,0,1.36,1.9.49,5.61.17,8.45-.43,3.77-1.55,7.45-1.9,11.22-.28,3-1.58,4.17-4.4,3.92s-4.76.84-6.8,2.63c-3.73,3.26-8.29,3.68-13,2.89-2.74-.46-3.06-2.78-3.79-4.81l0-2c.3-3.07,1.05-6.17.78-9.18-.33-3.58-2-4.14-4.86-2a9.82,9.82,0,0,1-8.7,2,10.58,10.58,0,0,0-6.21.86c-5.16,2.29-6.59,1.79-7.82-3.55-2.2-9.51-8.69-12.86-17.94-9.52-2.65.95-5.54,1.21-8.32,1.79,5.2-3.28,10.79-6.64,16.95-5.2,4.68,1.09,8.24-.5,12.19-1.74,2.33-.74,4.64-1.54,7.05-2.35L245,320.5c2.51.22,5.15,0,7.51.75,7.24,2.21,14.37,4.77,21.54,7.2l-6-.58c5.89,4.6,5.74,4.72,4,11a122.08,122.08,0,0,0-2.74,13.83c-.45,2.88,1.25,4.13,4,3.11a11.92,11.92,0,0,0,2.86-1.89c4.72-3.66,6.08-9.07,7.55-14.45C284.48,336.64,285.48,333.86,286.38,331.05Z"/><path class="cls-2" d="M246.68,411.44c-1.48-1-3-2-4.41-3.12a15.4,15.4,0,0,1-1.79-1.9,11.14,11.14,0,0,0,2.08-1.36c.86-.88,2.16-1.9,2.2-2.9.11-3.45-.25-6.91-.4-10.36a6.37,6.37,0,0,1,.09-2.66c3.14-7.33,2.85-8-4.55-9.94,2-2.29,3.56-3,9.48-3.41a13.06,13.06,0,0,0,7.85-3c3.9-3.16,5.25-2.82,7.57,1.88,2.7,5.47,5.26,11,7.6,16.68,1.13,2.7,3,3.62,5.62,3.73h0l1.6,1.26a2.17,2.17,0,0,0,.35.15,52.74,52.74,0,0,1,4.6,4.08,28.65,28.65,0,0,1,2.67,4.16l-1.18,1c-1.1-.81-2.25-1.56-3.28-2.45-2.45-2.1-4.91-2.67-7.92-1-3.42,1.93-7.15,3.31-10.52,5.32-1.69,1-2.9,2.83-4.26,4.36a35.17,35.17,0,0,1-2.56,3.2c-3.68,3.23-5.35,2.89-7.84-1.31a6.75,6.75,0,0,0-1.5-1.35l0-.13a1.34,1.34,0,0,0,.07-.66c1.07-.41,2.12-.91,3.22-1.23,3.68-1.08,7.54-1.89,8.06-6.73q.62-5.69,1.24-11.36c-.36-3.36-.71-6.73-1.07-10.07-1.79,1.33-3.12,2.95-4.8,3.46-5.63,1.69-8.82,5.44-8.35,11.28.28,3.51,1.34,7,2.05,10.44-.14,1.39-.27,2.77-.41,4.15l-.65.37ZM264.63,378l-1.13,0c0,7.75-.05,15.51.07,23.26,0,.91,1,1.8,1.51,2.69.85-1,2.23-1.78,2.49-2.88C269.47,393,267.81,385.4,264.63,378Z"/><path class="cls-2" d="M360,493c5.29-3.25,10.43-6.77,15.91-9.62,2.38-1.24,5.46-1.4,8.24-1.51,1.86-.08,2.21,1.34,1.12,2.91-1.53,2.17-3.11,4.32-4.53,6.56-1.81,2.83-.83,5.28,2.4,6.42,1.08.38,2.53.62,3.08,1.43,2.7,4,6.54,4.19,10.85,4.42,2.15.12,4.35,2.22,6.25,3.77,5.79,4.73,11.29,9.84,17.23,14.38,2.76,2.11,6.26,3.26,9.42,4.85l-1.85,0-1.39-.36c-12.87-3.27-24.34-9.44-35.21-16.86-1.9-1.3-3.73-2.68-5.59-4s-3-.77-3.32,1.41c-.22,1.59-.22,3.2-.31,4.8-.24-2.05-.41-4.11-.72-6.14a30.15,30.15,0,0,0-1.3-6.4c-1.81-4.54-2.68-4.79-7.55-4.28a50.29,50.29,0,0,1-8.93.21C362.49,494.85,361.27,493.71,360,493Z"/><path class="cls-1" d="M286.38,331.05c-.9,2.81-1.9,5.59-2.67,8.43-1.47,5.38-2.83,10.79-7.55,14.45a11.92,11.92,0,0,1-2.86,1.89c-2.72,1-4.42-.23-4-3.11a122.08,122.08,0,0,1,2.74-13.83c1.77-6.29,1.92-6.41-4-11l6,.58,6.42-.22c.85-3.73,1.69-7.45,2.44-10.78l7.94,6.78-.17.11-.82.77c-.16.13-.32.25-.47.39a.3.3,0,0,0-.27.27,6.19,6.19,0,0,0-.28.58.57.57,0,0,0-.24.57l-.06.13c-.17.24-.34.48-.5.73l-.13.06-.66.55Z"/><path class="cls-2" d="M435.64,523.66a38.08,38.08,0,0,1-1.16-4.37c-.87-5.89-1.31-11.88-2.56-17.69-1-4.78-3.48-9-8.19-11.36-.33-.16-.46-.71-.43-2.1l7.42,1.13a25.05,25.05,0,0,1-1.76-4.13,14.13,14.13,0,0,1,.07-3.49,25.68,25.68,0,0,1,3,1.59,37.69,37.69,0,0,1,3,2.61l.11.16,2.56,4.22c.17.5.35,1,.53,1.52s.45.87.68,1.31c1.6,5.63.9,11.21-.31,16.79Q437.12,516.75,435.64,523.66Z"/><path class="cls-1" d="M245,320.5l3.36,3.88c-2.41.81-4.72,1.61-7.05,2.35-3.95,1.24-7.51,2.83-12.19,1.74-6.16-1.44-11.75,1.92-16.95,5.2a26.75,26.75,0,0,1-4.34,1.74c-.46.11-1.2-1-1.82-1.51l4.6-3,.65-.44.22-.16.53-.42a.6.6,0,0,1,.28-.24l1.27-.75c.35-.4.7-.8,1.05-1.22l0,0,1.79-.8c.25,0,.39-.08.4-.34a1,1,0,0,1,.38-.3.32.32,0,0,0,.46-.28l1.21-.51,9.7-3.94a1.42,1.42,0,0,1,.45-.08l3.91-.67,1.49-.32,7.43-.15Z"/><path class="cls-1" d="M319,263.53c.28.84.55,1.67.84,2.56-.33,0-.61.05-.74-.06-3.67-3-6.3-7.29-12.12-7.55-2.42-.11-4.54-3.61-7.1-5s-5.28-2-8-2.9c-1.17-.39-2.4-.63-3.6-1-.83-.22-2.12-.91-2.39-.62-.58.6-.62,1.72-.82,2.4h-4.66l1.07-1.74.25-.16-.06-.3c.68-2.71,2.55-3.57,5.18-3.5,11.38.31,20.52,5.29,28.15,13.44v.19l.19.07.51.47,1.63,1.6a1.34,1.34,0,0,1,.41.51v.19l.19.05a1.3,1.3,0,0,1,.46.47l0,.18.17,0Z"/><path class="cls-2" d="M247,422.92c2.94,0,3.13,2.68,4.28,4.4,1.7,2.53,3.42,5.06,4.94,7.69a3.11,3.11,0,0,1,.11,2.72c-3.94,5.12-8,10.11-11.92,14.94-.12-1-.34-2.68-.56-4.36l.06-3.27c0-1.19.07-2.39.11-3.58Q245.49,432.19,247,422.92Z"/><path class="cls-2" d="M385.87,607.45c-.19-3.45-.43-6.9-.56-10.36q-1.19-31.17-2.32-62.33c-.06-1.84,0-3.69,0-5.53,1.17,19.27,2.49,38.53,3.43,57.81C386.7,593.82,386.07,600.65,385.87,607.45Z"/><path class="cls-1" d="M408.56,258.56c4.72-.76,9.42-1.64,14.15-2.21,1.35-.17,2.8.57,4.2.9-4,1.69-7.87,3.94-12,4.91-4.79,1.13-9.83,1.16-14.77,1.54-.48,0-1-.84-1.55-1.29l8.79-3.64Z"/><path class="cls-3" d="M407.34,258.77l-8.79,3.64a21.08,21.08,0,0,0-4.18,1.57c-5.91,3.8-11.72,7.74-17.56,11.63l-.29-.3c1.1-1.41,1.94-3.19,3.35-4.16,7.28-5,14.87-9.54,23.47-12A20.25,20.25,0,0,1,407.34,258.77Z"/><path class="cls-2" d="M382.91,525.36l-.5-11.64Q382.67,519.54,382.91,525.36Z"/><path class="cls-2" d="M228.63,321.5l-9.7,3.94Z"/><path class="cls-3" d="M372.73,278.17l-1-.89,4.82-2,.29.3Z"/><path class="cls-3" d="M437.72,490.23,435.16,486Z"/><path class="cls-3" d="M357.33,518c.19,3.42.37,6.83.56,10.25C357.71,524.85,357.52,521.44,357.33,518Z"/><path class="cls-2" d="M385.56,616.68l.21-7.64Z"/><path class="cls-2" d="M233,320.75l-3.91.67Z"/><path class="cls-2" d="M241.91,320.28l-7.43.15Z"/><path class="cls-2" d="M317.38,261.45l-1.63-1.6Z"/><path class="cls-3" d="M438.6,284.17l-1.48-2.2C437.61,282.7,438.1,283.44,438.6,284.17Z"/><path class="cls-3" d="M244,441.46c0,1.19-.07,2.39-.11,3.58C243.93,443.85,244,442.65,244,441.46Z"/><path class="cls-2" d="M213.6,328.93l-1.27.75Z"/><path class="cls-3" d="M426.73,526.24l1.39.36Z"/><path class="cls-2" d="M281.72,249.18l.06.3-.25.16a3,3,0,0,1,0-.42Z"/><path class="cls-3" d="M438.93,493.06c-.23-.44-.45-.88-.68-1.31C438.48,492.18,438.7,492.62,438.93,493.06Z"/><path class="cls-2" d="M211.3,330.5l-.65.44Z"/><polygon class="cls-3" points="427.2 470.97 427.26 470.84 427.36 470.97 427.2 470.97"/><path class="cls-2" d="M212.05,329.92l-.53.42Z"/><polygon class="cls-2" points="315.24 259.38 315.05 259.31 315.05 259.12 315.28 259.15 315.24 259.38"/><polygon class="cls-2" points="317.99 262.2 317.8 262.15 317.79 261.96 318.01 261.98 317.99 262.2"/><polygon class="cls-2" points="318.6 262.89 318.43 262.85 318.44 262.67 318.65 262.69 318.6 262.89"/><path class="cls-2" d="M217.72,326a.32.32,0,0,1-.46.28l.15-.28Z"/><path class="cls-2" d="M214.69,327.67l0,0S214.69,327.67,214.69,327.67Z"/><path class="cls-2" d="M216.88,326.53c0,.26-.15.38-.4.34l.1-.29Z"/><path class="cls-3" d="M248.24,411.65a1.34,1.34,0,0,1-.07.66l-.64-.35.65-.37Z"/><path class="cls-3" d="M431.46,466.71a.4.4,0,0,1,.33-.33A.31.31,0,0,1,431.46,466.71Z"/><path class="cls-2" d="M385.72,619.67l0,0Z"/><path class="cls-2" d="M347.21,327.49c4.14-1.7,8.27-3.43,12.43-5.09,1.15-.45,2.37-.73,3.56-1.09l-.59,1.34-.57,4c-1.16.58-2.32,1.13-3.43,1.79a2.5,2.5,0,0,0,.31,1.15c1.16-.09,2.3-.29,3.45-.46.07.1.13.21.19.31-.94,3.43-2,6.83-2.74,10.3-.2.9.52,2,.82,3,.83-.38,1.66-.78,2.5-1.15,1.23-.55,3.42-1.71,3.55-1.53,1.29,2,5.51,2.1,3.94,5.92-.47,1.14-.82,2.33-.36,3,2.37,2.27,4.85,4.45,7,6.91.36.4-.69,2-1.08,3.08A32.58,32.58,0,0,0,373,355c-.85-.77-2.3-1.66-3.22-1.44-2.88.67-3.35-.37-2.71-2.83a25.59,25.59,0,0,0,.35-2.92,15.45,15.45,0,0,0-3.45,1.13,70.64,70.64,0,0,0-7.77,5.72c-1,.92-1.32,2.66-1.94,4a40.47,40.47,0,0,0,4.66-.64c.72-.18,1.26-1,1.95-1.39,1.69-1,3.07-.95,3.67,1.3a17.16,17.16,0,0,0,.91,2.61c1.5,3.34,2.83,3.8,6.21,2.22.62-.29,1.28-.51,1.92-.76,2.12,2.52,4.53,4.85,6.29,7.6,1.92,3,2.14,6.22-1,9a6.23,6.23,0,0,0-1.62,8.1,4.09,4.09,0,0,1-.59,3.59,6.09,6.09,0,0,0-1.14,6.41c.44,1.36.84,3.21.28,4.35-1.83,3.71-.69,7.09.68,10.8l-3.38,1.8c-5.76-1.66-5.77-5,.38-11.13l-2.8-1.15-.38-.37c1.18-1.73,1.62-3.31-.62-4.64-.52-.32-1.19-1.16-1.09-1.61.79-3.69-1.35-5.37-4.23-6.73a2.79,2.79,0,0,1-1.23-1.62c-1-3.2-2.3-5.8-6-6.85-.94-.27-1.42-2.85-1.71-4.44-.11-.64.86-1.48,1.34-2.23a23,23,0,0,0,3.27,2.44,3.43,3.43,0,0,0,2.77.25,13.6,13.6,0,0,0,2.66-2.85l-4.94-6c-2.43,1.3-4,2.12-5.5,3a7,7,0,0,0-2.44,1.52c-1.52,2.13-3.27,2.6-5.71,1.7a13.84,13.84,0,0,0-4.4-.71c-3.15-.06-4.52-1.38-3.67-4.57,2.41,2.14,5,2.93,8.2,1.33-.76-3.24-3.3-3.89-5.79-4.77-1.85-.65-2.43.19-2.81,1.68-1.64,3.4-2.29,6.86-1.42,9.33l11.41,5.31c-1.83,2.11-4.06,3.6-4.65,5.58-1.41,4.74,1.92,9.24,6.88,10.11,1.59.27,3.21.35,4.81.52l1.71,3.66c.72,2,1.34,4.08,2.24,6a2.17,2.17,0,0,0,2,.86c4.24-1.94,4.93.45,5.62,3.92.88,4.42,2.51,5.21,5.95,3.73a8.39,8.39,0,0,1-7.09,5.9c.19-1.13.36-2.19.53-3.26-2.4-.06-7.22,2.91-7.76,5.07a2.94,2.94,0,0,0,.9,2.53c1.16.85,2.85,1,3.95,1.92s1.5,2.22,2.57,3.91c.86-1.51,1.52-2.52,2.05-3.6,1.43-2.95,2.8-5.87,6.61-6.49.63-.1,1-1.32,1.63-1.95.81-.85,1.79-2.37,2.53-2.28a12.66,12.66,0,0,1,4.59,2c.19.12-.23,1.54-.61,2.22-.7,1.28-2.51,2.94-2.18,3.57.7,1.37,2.47,2.19,4.56,3.82.28-2.74.41-4.29.6-5.84.26-2.15,1.53-3.07,3.62-2.59,2.32.52,1.42,2.09,1.12,3.56-.51,2.47-1.29,5-1.9,7.32-1.08,4-4.5,7.5-7.22,11-.43.54-2.64.35-3.47-.26a4.8,4.8,0,0,1-1.73-3.41c0-2.52.76-5,1-7.56a12.43,12.43,0,0,0-.68-3.31c-1.34.43-3.09.49-3.93,1.39-1.45,1.55-2.33,3.62-3.45,5.49l4.14,4.55-14,6.72a20.44,20.44,0,0,1,1.21-4c1-1.7,2.5-3.13,3.23-4.9.46-1.11.38-3.2-.36-3.86a5,5,0,0,0-4.12-.71c-1.47.4-2.61,1.9-4.06,2.57-.87.42-2.05.18-3.09.23.13-.94.22-1.9.41-2.83.07-.3.52-.51.61-.82.43-1.41.8-2.83,1.19-4.25-1.47.06-3.05-.18-4.39.28-1.75.58-3.47,1.53-2.25,4.09a6.91,6.91,0,0,1,.32,2.7l-13.5,2.77c-.19-.41-.37-.83-.55-1.25a57.33,57.33,0,0,0,5.36-3.71,12.8,12.8,0,0,0,3-3.82c.13-.24-1.46-2-2.26-2-2.19,0-5.14-.24-6.41,1-3.27,3.23-5.22,3.68-10,.17l3.25-1.53c-.23-1.24-.46-2.45-.69-3.65,1.44,0,2.87-.08,4.31,0,1.64,0,3.27.2,4.91.21a3.18,3.18,0,0,0,.31-1.15c-1.52-.61-3.07-1.15-4.62-1.7a1.34,1.34,0,0,0-.35,0c-5.74-.76-5.74-.76-5.23-6.87-1.62.26-3.13.47-4.62.74s-3.12.63-5,1a37.85,37.85,0,0,1-.6-4.2,15.07,15.07,0,0,1,.52-3,37.75,37.75,0,0,1,3.27,1.91c.4.29.53.95.87,1.63,4.27-3,2.84-6.83,1.74-10.42a25.81,25.81,0,0,0,4.11-1.79c1.77-1.18,3-2.76,1.33-4.91-1.54-2-.6-3.41.92-4.76,3.95-3.51,4.46-6.88,1.64-11.76-1.78,1-3.54,2-5.39,2.85a3.13,3.13,0,0,1-2.19-.08c-.28-.1-.44-1-.37-1.53q.82-5.75,1.78-11.49a11.75,11.75,0,0,1,.85-2.06,6.22,6.22,0,0,1,1.51,1.07c2.72,3.74,5.8,4.18,9.24,1,1.77-1.61,1.84-3.34-.36-4.87-3.82-2.64-4.18-4.23-1.6-7.9a5,5,0,0,1,2.8-1.52,23.75,23.75,0,0,1,5.22-.82c.72,0,2,.64,2.11,1.21.36,1.43,0,3.05.37,4.46s1.1,3.07,2.11,3.44a5.34,5.34,0,0,0,4.42-.67c.62-.47.25-2.77-.25-4-1-2.44-1.59-4.48-.08-7.15,1.81-3.22.12-5.53-3.62-4.95-8.45,1.3-14.78-3.69-21.74-6.83a3.59,3.59,0,0,1-1.59-2.5c-.44-3.72,3.17-4.49,5.19-6.29.53-.48,2.66.65,4,1.24,2.57,1.17,5.1,2.44,7.59,3.77a40.7,40.7,0,0,1,4.07,2.54c2.14,1.49,4.21,1.49,5.89-.5s.85-3.79-.93-5.41A9.52,9.52,0,0,1,347.21,327.49Zm24.06,41.95c.12,4,1.52,6.11,3.36,5.52,1.38-.43,3.12-1.65,3.5-2.89.53-1.75-3-4.9-4.76-4.45C372.38,367.86,371.64,369.09,371.27,369.44ZM333.7,390.61c3.17-3,2.5-7.24-.88-9.45C333.09,384.16,333.37,387.06,333.7,390.61Zm22.11,13.6c-.32.45-.69.86-.64.92a2.18,2.18,0,0,0,.91.66c.12,0,.61-.5.56-.61A4.48,4.48,0,0,0,355.81,404.21Z"/><path class="cls-2" d="M433.13,279.9c.45,8.51-3.05,15.82-7.69,22.46-2.76,4-6.8,7-10.16,10.56-.63.67-1.32,2.35-1,2.66,3.26,3.4,1.65,6.93.35,10.35-1,2.55-1.22,4.7.56,7.1,1.32,1.79,2.74,2.33,4.72,1.78,2.77-.76,5.51-1.61,8.27-2.42,2.32,4.88,4.71,9.74,2.72,15.37l-1.72,1.18c-2.83.59-3.66,2.45-3.33,5.12.37,3,.65,6.05,1,9.08l1,.19,2.43-4.72.9.18c1,8.17-.86,16.18-1.23,24.43-4-1.14-5-2.7-4.21-6,.55-2.36,1.28-4.68,1.81-7,.89-3.95.24-4.52-3.75-3.47.11-2.26.63-4.59.25-6.77-1.2-6.73-1.34-6.71-7.87-5,.45-.92,1.24-1.84,1.27-2.77,0-1.13-.33-3.08-1-3.29-4.3-1.37-6.09-5.09-8.4-8.33-1.53-2.15-3-4.37-4.37-6.61-1.23-2-2.33-1.8-3.69-.12-1,1.27-2.27,2.37-3.42,3.54-1.83-5.24-1.8-11-6.51-15.38-3.18-3-6-5.93-10.36-6.69-1-.18-3,.63-3.15,1.31-.91,3.84-3.78,4.8-7,5.45l-3.93-2.47c.12-.31.15-.74.38-.92,4.38-3.54,6.27-8.25,6.52-13.74.3.16.82.26.87.48,1.23,5.06,5.45,5.65,9.56,6.95,5.57,1.75,9.65,5.72,12.65,10.74,1,1.62,2,3.19,3,4.78l1.05-.33a18.9,18.9,0,0,0-.19-3.38c-1.05-4.57.08-6.28,4.27-7.88a23.53,23.53,0,0,0,7.15-4.32c4.52-4.07,9.22-8.11,12.92-12.88,3.17-4.08,5.86-8.75,5.93-14.48C429.65,283.05,431.9,281.48,433.13,279.9Z"/><path d="M326.54,451.39a122.08,122.08,0,0,1-11,5.43c-.94.36-3.11-.81-3.86-1.87-3.15-4.44-3-4-8.69-3.44a63.62,63.62,0,0,1-14.83-.61,10.73,10.73,0,0,0-10,3.42,8.75,8.75,0,0,1-1.83,1.56c-2.52,1.51-3.6,1-3.72-2-.12-3.15,0-6.32,0-10.18l-9,5.44c-2.87,1.74-4,1.31-5-1.94-2.22-6.94,0-10.58,7.28-12.1a24.62,24.62,0,0,0,4-1.6c.07-.44.15-.87.23-1.31-1.84-.83-3.67-1.68-5.51-2.49-2.2-1-4.64-1.56-6.52-2.94-1.17-.85-1.71-2.82-2.08-4.39-.18-.75.7-1.75,1.1-2.64.79.36,1.6.69,2.37,1.09,2.12,1.1,4.22,2.26,6.35,3.36,3.36,1.74,6.66,3.64,10.15,5.1a13.7,13.7,0,0,0,5.71.78c3.95-.2,6.43,1.3,6,5.18-.69,5.91.48,9.57,7.2,9.81,1.26.05,2.47,1.19,3.72,1.78,3.12,1.47,5.16.49,5.81-2.89.59-3.07,1-6.17,1.54-9.24.44-2.51,1.35-5.07,4.2-5.24,3.41-.21,5,2.77,6.22,5.29s-.94,3.9-2.6,5.4c-1,.92-2.49,2.31-2.35,3.28s1.77,2.24,3,2.82C318.08,448,321.9,449.47,326.54,451.39Z"/><path d="M417,425.52c2.48,2.93,4.41.76,5.93-1,1.26-1.42,1.92-3.39,2.74-5.17,1.14-2.44,2.64-2.83,5-1.45a18.55,18.55,0,0,0,4.3,1.31c.12-1.54.31-3.09.34-4.63.09-3.68-1.47-7.66,2.35-10.6.41-.32.19-1.95-.22-2.71-.53-1-1.82-1.56-2.29-2.54a10.59,10.59,0,0,1-.45-3.38c1,.1,2.34-.18,3.05.35,3,2.22,6.64,3.71,8.14,7.72.43,1.16,2.41,1.9,3.82,2.52,2.6,1.13,5.42,1.81,7.9,3.14,1,.55,2.13,2.53,1.86,3.46a5.79,5.79,0,0,1-3.22,3c-1.17.49-2.73.17-4.11,0-2.66-.27-3.34,1.09-2.81,3.35a23.1,23.1,0,0,0,1.35,3.93,10.82,10.82,0,0,1-1,10.9c-.88,1.29-3,2.7-4.28,2.47s-2.41-2.33-3.15-3.84c-.52-1.06-.15-2.52-.38-3.76-.72-3.86-2.7-5.06-6.45-4a85.66,85.66,0,0,0-10.17,3.17c-1.68.73-2.75,2.76-4.29,3.95a4.28,4.28,0,0,1-3,.8c-1.63-.29-3.16-1.45-4.78-1.56-3-.21-3.4-1.93-3-4.26.41-2.51,2-2.79,4.12-2a14,14,0,0,0,2.36.41Z"/><path class="cls-1" d="M370.65,401.42l2.8,1.15c-6.15,6.17-6.14,9.47-.38,11.13l-.18,1.27c-3.44,1.48-5.07.69-5.95-3.73-.69-3.47-1.38-5.86-5.62-3.92a2.17,2.17,0,0,1-2-.86c-.9-1.94-1.52-4-2.24-6l4.28,2.13a15.47,15.47,0,0,0,1.52-.86c.87-.6,1.7-1.27,2.55-1.91-.81-.86-1.46-2.1-2.45-2.51a42.71,42.71,0,0,0-5.9-1.6l-1,.06-.71,1c-1.6-.17-3.22-.25-4.81-.52-5-.87-8.29-5.37-6.88-10.11.59-2,2.82-3.47,4.65-5.58L337,375.26c-.87-2.47-.22-5.93,1.42-9.33.14.59.27,1.17.4,1.76-.85,3.19.52,4.51,3.67,4.57a13.84,13.84,0,0,1,4.4.71c2.44.9,4.19.43,5.71-1.7a7,7,0,0,1,2.44-1.52c1.53-.85,3.07-1.67,5.5-3l4.94,6a13.6,13.6,0,0,1-2.66,2.85,3.43,3.43,0,0,1-2.77-.25,23,23,0,0,1-3.27-2.44c-.48.75-1.45,1.59-1.34,2.23.29,1.59.77,4.17,1.71,4.44,3.69,1,5,3.65,6,6.85a2.79,2.79,0,0,0,1.23,1.62c2.88,1.36,5,3,4.23,6.73-.1.45.57,1.29,1.09,1.61,2.24,1.33,1.8,2.91.62,4.64Z"/><path d="M403.49,480.74c.55.77.67,1.1.82,1.11,6.84.82,11.19,5.95,16.38,9.56,3.79,2.65,5.29,6.61,4.55,11.26-.33,2.06-6.69,7.54-8.65,7.09a6.63,6.63,0,0,1-3.76-2.6c-2.63-4.05-1.12-8,1-11.72s1-6-3.38-5.87-8.67,1.09-13,1.2c-5.45.15-6.49-1.44-5.52-6.79.72-3.94,1.75-6.77,6.63-7.86,3.9-.87,7.27-4.12,10.91-6.25a27.06,27.06,0,0,1,3-1.3,10.07,10.07,0,0,1,.47,2.87c-.45,3.68-1.24,7.1-6,7.47C405.79,479,404.76,480,403.49,480.74Z"/><path d="M298.45,373.61c-1.69-2.54-3.42-4.6-4.47-7-.49-1.11.18-2.84.57-4.22s1.42-2.63,1.58-4c.78-6.42,1.68-12.85,1.89-19.31.15-4.68-.74-9.38-1.11-14.08-.12-1.42-.6-3.37.11-4.14s2.71-.66,4.13-.56a77.56,77.56,0,0,1,9.38,1.05c1.34.25,2.53,1.32,3.79,2a14.36,14.36,0,0,1-2.18,3.19c-3.06,2.6-4.89,5.27-3.19,9.6s-1.64,7.08-3.88,9.78c-3.24,3.91-3.85,7.22-1.28,11.92,1.08,2-.44,5.63-1.36,8.33C301.6,368.66,300,370.85,298.45,373.61Z"/><path d="M429.15,348.94l1.72-1.18a12.9,12.9,0,0,0,2.51-2.17c2-2.93,2.21-3,4.56-.12,4.76,5.8,7.51,12.5,9.35,19.74,1.32,5.18,1.71,5.15,7,3.82a4.21,4.21,0,0,1,2-.19c.93.28,2.17.68,2.52,1.4.28.55-.43,1.81-1,2.52-3.15,4-7.54,2.71-11.56,2.38-2.82-.22-4.73.4-5.66,3.18h0l-2.12,3.44h0c-2.76,2.18-4.49,1.64-4.54-1.86a67.12,67.12,0,0,1,.91-13.67c1.08-5.63-1-10.06-3.9-14.43C430.33,350.87,429.75,349.89,429.15,348.94Z"/><path class="cls-1" d="M369.46,322.09c3.23-.65,6.1-1.61,7-5.45.16-.68,2.16-1.49,3.15-1.31C384,316.09,386.8,319,390,322c4.71,4.4,4.68,10.14,6.51,15.38l-.39.72-2,1.94-.54.51c-2.73,1.11-5.3,1.34-7.91-.6a41.13,41.13,0,0,0-5.73-3c-2.21-2.7-4.39-5.43-6.63-8.11a22.21,22.21,0,0,0-2.14-2v0l-.86-1.67a.33.33,0,0,0-.15-.34C370,324,369.7,323,369.46,322.09Z"/><path class="cls-2" d="M452.78,378.12c-2.16,4.06-.31,7.07,2.69,9.63a46.07,46.07,0,0,0,5.86,4.22c4.83,3,5.81,4.93,4.56,10.56-.6,2.67-1.61,5.24-2.44,7.86-1.27-.94-2.93-1.64-3.69-2.89-.52-.87-.1-2.62.41-3.74.92-2,2.34-3.82,3.34-5.82s-.21-3.14-2-2.82c-6.18,1.1-11-.17-13-7.29l-1,.38c-.43,1.49-1.2,3-1.22,4.49s.67,3.19,1.11,5c-4.68-.92-7.66-4.11-8-8.07-.24-2.63-.55-5.26-.83-7.88h0l2.12-3.44h0a17.72,17.72,0,0,1,4.2-.93C447.48,377.44,450.13,377.86,452.78,378.12Z"/><path d="M265.28,353.34l0,2c-1.61,2.71-.81,4.77,1.64,6.52,5.22,3.73,5.29,4.81.41,10.56a22.32,22.32,0,0,1-3.09-3.82c-1.19-2.38-2.35-3.06-4.82-1.44-4.55,3-8,1.48-9.35-3.9a66.68,66.68,0,0,1-1.67-8.83c-.3-2.84,1.27-4.15,4-3.78,3.25.44,6.53.8,9.76,1.35A14.61,14.61,0,0,1,265.28,353.34Z"/><path d="M280,396.44l-.36-.15L278,395h0c-2.62-4.53-2.61-4.49,2.84-5.7.77-.17,1.41-1,2.1-1.47l5.37-2a26.67,26.67,0,0,1,5,.9c1.39.5,3.31,1.36,3.65,2.46.55,1.84.1,4-.19,6a4.89,4.89,0,0,1-2.94.1c-1.35-.55-2.43-1.78-3.78-2.34-.78-.32-1.87.11-2.82.19.23.83.22,1.9.74,2.44a21.82,21.82,0,0,1,6,10.3c.81,3.39-1.85,8-5.72,8.59a81,81,0,0,1,.85-8.84c1-4.83-1.57-8.63-6.69-9.34A13.89,13.89,0,0,0,280,396.44Z"/><path d="M386.54,472c-1.63-1.44-3.15-2.27-3.83-3.55a4.64,4.64,0,0,1,.21-3.71,90.91,90.91,0,0,1,5.47-9.42,5.56,5.56,0,0,0,0-6.72,8.34,8.34,0,0,1-1.26-2.83,2.38,2.38,0,0,1,.68-2c.36-.25,1.53.13,2,.59,3.8,4,3.67,4,6.79-.73.68-1,2.39-1.38,3.63-2,.34,1.56,1.44,3.48.89,4.62-3.53,7.42-7.37,14.7-11.23,22C389.13,469.45,387.88,470.46,386.54,472Z"/><path class="cls-2" d="M351.18,470.59c-2.06-2.29-2.07-4-.5-5.71a67.31,67.31,0,0,1,6.09-6.09c1.72-1.42,3.54-2.52,6.29-1.81,1.88.48,4.19-.61,6.28-1.12,2.57-.63,5.07-1.74,7.66-2,1.5-.13,4.08.69,4.49,1.74.88,2.26-.8,3.84-3.17,4.34a16,16,0,0,1-2.41.25c-2.58.14-4.4.93-3.23,4.46C364.6,464,356.55,462.45,351.18,470.59Z"/><path class="cls-2" d="M288.33,385.9l-5.37,2c-2.62-1-3.7-2.62-2.19-5.35a25.75,25.75,0,0,0,2.11-4.32c.9-2.66,1.43-5.45,2.38-8.09.45-1.23,1.36-2.94,2.36-3.16,1.27-.3,3.68.28,4.12,1.19,2.29,4.72,4.1,9.66,6.21,14.86C294.37,383.7,290.32,381.77,288.33,385.9Z"/><path d="M219.57,350.94c-.58-2.54,2.73-3.52,5.24-4.46a6.64,6.64,0,0,1,5.21,1c2.23,1.53,4.3,3.51,3.13,6.94-.65,1.92-.46,4.13-1.12,6.05-.52,1.51-1.48,3.36-2.75,3.95-.94.43-2.94-.66-4.06-1.57C222,360.18,220.14,356.66,219.57,350.94Z"/><path d="M414.9,464a40.89,40.89,0,0,1,1.65-5.46c1.17-2.53.72-4.19-2-5.14-3.06-1.07-3.43-3-1.88-5.68,1.31-2.28,2.28-4.75,3.55-7,.45-.82,1.36-2,2-1.94s1.67,1.08,2.13,1.9.44,2,.79,3c.76,2.1,1.61,4.17,2.45,6.25.36.92,1.37,2.22,1.07,2.67-2.55,3.84-5.33,7.53-8.07,11.25C416.56,463.88,416.22,463.83,414.9,464Z"/><path class="cls-1" d="M373.54,362.06c-.64.25-1.3.47-1.92.76-3.38,1.58-4.71,1.12-6.21-2.22a17.16,17.16,0,0,1-.91-2.61c-.6-2.25-2-2.28-3.67-1.3-.69.4-1.23,1.21-1.95,1.39a40.47,40.47,0,0,1-4.66.64c.62-1.36.91-3.1,1.94-4a70.64,70.64,0,0,1,7.77-5.72,15.45,15.45,0,0,1,3.45-1.13,25.59,25.59,0,0,1-.35,2.92c-.64,2.46-.17,3.5,2.71,2.83.92-.22,2.37.67,3.22,1.44a32.58,32.58,0,0,1,3.23,3.94Z"/><path d="M365.27,474.55c-.23,1.18-.13,2-.51,2.41-3.16,3.31-6.35,6.59-9.64,9.78-1.61,1.57-3.23,1.18-4.19-.77a41.25,41.25,0,0,1-3.05-7.28c-.79-2.89,4.05-6.39,7.12-5.28,1.58.57,3,1.74,4.65,1.95S363,474.92,365.27,474.55Z"/><path class="cls-1" d="M389.52,359.43q-1.2-2.26-2.38-4.53l7.65.18c2.81.06,4.11,1.4,4,4.3a21.9,21.9,0,0,0,.72,4.42c0,.63,0,1.26,0,1.89q-.18,2.82-.38,5.64a.85.85,0,0,1-.25.25l-1.23,1.12-1.47.85-5-1c-.44-2.17-.87-4.35-1.31-6.53l3.09-2.8Z"/><path d="M291,417.35c2.9-.52,4.81.76,6.29,3.21.76,1.24,2.12,2.11,3,3.32.58.86,1.25,2.23.94,3s-1.86,1.26-2.82,1.2c-4.12-.28-8.25-.68-12.33-1.3-1.2-.19-2.84-1-3.23-2a4.54,4.54,0,0,1,.85-3.74C285.43,418.7,287.67,416.83,291,417.35Z"/><path d="M426.58,397.56c-1.37,1.67-2.63,3.45-4.14,5a48.18,48.18,0,0,1-4.83,3.65c.28-4,.27-7.1.89-10.07.12-.61,2.6-.72,4-1.08,1.12-.28,3.13.18,1.83-2.16l.12-.79-.25-.64-.55-1c-.27-2.32-.54-4.64-.9-7.68,3.69,2.33,6.89,4,9.71,6.25,2,1.55,1.15,3.92-1.38,4.52-2.13.5-4.09,1-4.37,3.65Z"/><path class="cls-2" d="M417,425.52l-.33-.35c-1.41-2.6-2.92-5.16-4.22-7.82-.81-1.65-2.37-3.41,0-5.18,4.45-3.37,7.95-4.2,9.93-2.15,1.8,1.87,2,4,.73,6.33a18.21,18.21,0,0,0-1.86,5.06C420.69,423.87,419.69,425.5,417,425.52Z"/><path class="cls-2" d="M415.1,456.17a9.87,9.87,0,0,1-2.09,1.44c-2.09.77-2.93,2.17-3.23,4.38-.49,3.7-3.36,5.95-7.11,6,.24-1.41.48-2.82.91-5.3l-7.07,4.54-.62-.49c.7-1.36,1.37-2.73,2.1-4.07a43.5,43.5,0,0,1,3.07-5.36,5.56,5.56,0,0,1,3.09-2,39.11,39.11,0,0,1,6.68-.38,40.74,40.74,0,0,1,4.11.37Z"/><path class="cls-1" d="M416.07,355c6.53-1.73,6.67-1.75,7.87,5,.38,2.18-.14,4.51-.25,6.77l-7.82,1.76-1.45-2.73c-.22-1.37-.36-2.76-.67-4.11C413.11,358.91,413.6,356.61,416.07,355Z"/><path class="cls-2" d="M328.65,350.39c-.63,2.8-.69,4.78-1.55,6.31a5.3,5.3,0,0,1-3.57,2.46,42.93,42.93,0,0,1-7.9-.47c-2.1-.21-2.83-1.17-1.79-3.28,2.54-5.13,7.46-6.89,12.35-8.48C326.65,346.79,328,349.49,328.65,350.39Z"/><path class="cls-1" d="M314.87,478.15l7.17-.48c-6,.84-5.68,6.51-7.55,10.24-1.11,2.22-1.64,3-3.88,1.54-1.94-1.22-4.15-2-6.12-3.17a11.5,11.5,0,0,1-3.32-2.88,3.25,3.25,0,0,1-.38-2.85c.32-.59,1.73-.81,2.65-.79,1.6,0,3.24.72,4.78.52s3.06-1.13,4.59-1.74Z"/><path class="cls-2" d="M399.53,363.8a21.9,21.9,0,0,1-.72-4.42c.09-2.9-1.21-4.24-4-4.3l-7.65-.18c-.73-1.91-2.42-4.09-2-5.68.82-2.94-.19-4.75-1.77-6.83-1.29-1.7-2.29-3.62-3.42-5.45a41.13,41.13,0,0,1,5.73,3c2.61,1.94,5.18,1.71,7.91.6-4.27,8.08-3.81,9.18,4.78,12.71a3.66,3.66,0,0,1,1.92,2.7A68.79,68.79,0,0,1,399.53,363.8Z"/><path d="M317.06,309.34c0,4.43-1.54,6.43-4.93,6.4-3.62-.05-7.66-3.94-7.54-7.26.06-1.46,5.73-4.92,8.06-4.91C315.49,303.58,317.06,305.63,317.06,309.34Z"/><path class="cls-2" d="M426.58,397.56l.12-.4c1.47-.11,3.74-.84,4.25-.19,1.23,1.55,2.4,3.84,2.21,5.68-.39,3.67-1.71,7.24-2.64,10.87-3.59-.7-5.77-5-4.75-9.21A53.86,53.86,0,0,0,426.58,397.56Z"/><path d="M348.67,456.15c2.46,0,3.65,1.57,2.4,3.57a65,65,0,0,1-5.78,7.75c-1.66,1.92-3.27,1.79-4.51-.76C338.27,461.55,342.31,456.06,348.67,456.15Z"/><path class="cls-2" d="M406.56,415.85c0,4.15.48,7-.16,9.56a7.85,7.85,0,0,1-3.84,4.57c-2.22,1-3-1.3-3.68-3a4.11,4.11,0,0,1-.43-1.31c-.06-2.28-1-5.5.14-6.63C400.33,417.27,403.5,417,406.56,415.85Z"/><path class="cls-2" d="M414.42,365.76l1.45,2.73c-2.43,4.76-3.37,10.37-8.44,14.59a19.16,19.16,0,0,1-1.65-4,27,27,0,0,1,0-4.84c.06-2.9,1-5.06,4.19-5.9C411.56,367.9,412.94,366.64,414.42,365.76Z"/><path d="M362,326.69l.57-4,7.58,2.23a.33.33,0,0,1,.15.34c.29.56.58,1.11.86,1.67v0c-.06,2.3,0,4.6-.19,6.89-.19,2.61-1.84,3.43-3.69,1.79s-3.2-4-4.76-6.07c-.06-.1-.12-.21-.19-.31Z"/><path class="cls-2" d="M338.59,472.75c1.52,1.3,3.28,2.21,4.17,3.66a64.72,64.72,0,0,1,4.19,8.67c.29.66-.1,1.62-.18,2.45a6,6,0,0,1-2.14-.65c-3.3-2.86-6.57-5.75-9.73-8.76-.61-.59-1.16-2.34-.91-2.55A34,34,0,0,1,338.59,472.75Z"/><path class="cls-2" d="M377.63,479.76,373,482.35c-2.61,1.47-5.13,3.13-7.85,4.35-1.51.67-3.36.6-5.05.87.69-1.56,1-3.65,2.16-4.55,2.24-1.69,5.31-2.31,7.47-4.07C372.42,476.74,374.42,477.6,377.63,479.76Z"/><path class="cls-2" d="M390.48,405.61l3.41,1c0,2,.3,3.86-.1,5.56-.26,1.14-1.5,2.05-2.31,3.06-.83-.69-2.07-1.23-2.39-2.1a47.14,47.14,0,0,1-1.07-5.39c-.26-1.14-.83-2.2-1.14-3.33s-.89-2.72-.45-3.13c.94-.88,2.48-1.13,3.77-1.63a26.67,26.67,0,0,1,1.1,3.64C391.39,403.88,390.88,404.56,390.48,405.61Z"/><path class="cls-2" d="M424.44,392.08l-.12.79a45.12,45.12,0,0,1-6.17-1.34c-2.35-.86-2.41-2.54-1.36-4.76a45.12,45.12,0,0,0,2.08-6.71l4.77,10.36c.18.34.36.68.55,1S424.35,391.87,424.44,392.08Z"/><path class="cls-1" d="M401.28,396.53c-.61,1-1,2.48-1.87,2.75a9.32,9.32,0,0,1-5,.2c-.49-.12-.82-2.53-.51-3.71a25.22,25.22,0,0,1,2.39-4.83Z"/><path class="cls-2" d="M404.92,404.62c-.47,2.49-.7,4.45-1.23,6.32-.64,2.25-2.43,2.35-3.59.83-1-1.29-1.89-3.64-1.34-4.84.73-1.61,2.85-2.65,4.51-3.73C403.45,403.08,404.47,404.22,404.92,404.62Z"/><path class="cls-2" d="M401.28,396.53l-5-5.59a71.74,71.74,0,0,1,5.6-5.16,2.9,2.9,0,0,1,2.77.36,4.43,4.43,0,0,1,1,3c0,.46-1.24,1-2,1.32a5.32,5.32,0,0,1-1.69.22Z"/><path class="cls-2" d="M415.67,395.9a60.27,60.27,0,0,1-.52,7.13c-.15.83-1.43,1.45-2.2,2.16-.86-1.05-2.66-2.46-2.42-3.1a46.76,46.76,0,0,1,3.8-6.87Z"/><path class="cls-2" d="M317.62,396.66c-.5-4.13-1-8.25-1.55-12.67,2.83,1.51,6.05,7.06,5.72,9.33C321.51,395.27,320.33,396.25,317.62,396.66Z"/><path class="cls-2" d="M391.42,380.5c-.37,2.9-.61,5.82-1.19,8.68-.13.64-1.4,1.06-2.15,1.58-.54-.85-1.63-1.77-1.52-2.54.39-2.92,1.17-5.79,1.8-8.67Z"/><path class="cls-2" d="M307.11,389c1.77,1.68,3.85,3.15,5.23,5.11,1.93,2.74-.41,3.68-2.86,4.84-1.22-3.2-2.36-6.19-3.51-9.17Z"/><path class="cls-2" d="M391.22,372.52l5,1c-1,1.89.88,4.9-2.31,5.94-.7-3.36-3.58-2.56-5.78-3C387.13,373.54,389.19,373.05,391.22,372.52Z"/><path class="cls-2" d="M378.15,446.06l9.77,4.63c-4.1,1.28-8.88-.69-10.35-3.45Z"/><path class="cls-2" d="M270.34,418.61,262,417.32a5.87,5.87,0,0,1,8.6.06Z"/><path class="cls-2" d="M309.92,368.19l1.1,12.23-1.31.15c-2.07-3.84-.7-8.14-1.49-12.15Z"/><path class="cls-1" d="M328.14,321.72v-7.08l.95-.23c.6.71,1.2,1.41,1.81,2.11C331.09,318.84,330.59,320.8,328.14,321.72Z"/><path class="cls-1" d="M388.1,376.45c2.2.48,5.08-.32,5.78,3l-2.46,1-3.06-.95C388.27,378.51,388.19,377.48,388.1,376.45Z"/><path class="cls-2" d="M389.52,359.43l3.48,3.76-3.09,2.8Z"/><path class="cls-2" d="M399.14,371.33q.19-2.82.38-5.64C400.5,367.65,402.79,369.69,399.14,371.33Z"/><path class="cls-2" d="M376.06,405.32l.72-.61a3.51,3.51,0,0,1,.51,1c0,.1-.49.47-.66.42S376.28,405.64,376.06,405.32Z"/><path class="cls-2" d="M394.15,340.06l2-1.94Z"/><path class="cls-2" d="M397.66,372.7l1.23-1.12Z"/><path class="cls-2" d="M289.9,325.11l.82-.77Z"/><path class="cls-2" d="M333.81,309.57c.14.41.27.83.41,1.24C334.08,310.4,334,310,333.81,309.57Z"/><path class="cls-2" d="M287.29,328.39l.66-.55Z"/><path class="cls-2" d="M289.16,325.77a.3.3,0,0,1,.27-.27l-.05.22Z"/><path class="cls-2" d="M288.08,327.78c.16-.25.33-.49.5-.73C288.41,327.29,288.24,327.53,288.08,327.78Z"/><path class="cls-2" d="M288.64,326.92a.57.57,0,0,1,.24-.57A.54.54,0,0,1,288.64,326.92Z"/><path class="cls-1" d="M297.78,285.84c9.79-3.08,18.88-3.59,28,1.14C319,290.35,303.71,291.12,297.78,285.84Z"/><path class="cls-1" d="M276.24,282.32q1.13-9,2.24-18.05l.89-.09c1.16,3.08,2,6.27,1,9.63-.88,2.89-2.15,5.65-3.25,8.48Z"/><path class="cls-3" d="M239.33,468.5c1.55-1.5,2.92-3.27,4.69-4.43,4.07-2.67,7.6-.36,11.29,1.45,4.31,2.11,8.72,4.7,13.32,5.31,3.19.42,7-1.78,10.12-3.52,2.18-1.22,3.79-1.68,5.51.1,3.58,3.73,7.45,7.28,10.45,11.45,3.49,4.83,2.64,8.11-2.92,9.89a174.84,174.84,0,0,1-22.57,5.16c-3.42.6-7.05.09-10.57-.07a14.28,14.28,0,0,1-3.19-.94l0-.94c.87-.06,1.74-.15,2.61-.18,3.55-.12,7.13,0,10.65-.44,1.21-.15,2.27-1.6,3.4-2.46-.81-.84-1.59-1.7-2.43-2.5-.49-.47-1.25-.74-1.6-1.28-1.66-2.59-4-2.72-6.71-2.21-2,.38-4,.46-6.67.74,2.61-4.18,1.08-5.24-2.61-5.64s-7.37-1.7-11.1-2.34c-2.25-.39-3.56-.89-2.46-3.51a15.1,15.1,0,0,0,.57-3.4Z"/><path class="cls-1" d="M236.06,478.71c.27,4.37.64,8.68,4.89,11.34-3.42,0-6.46-1.41-7.6-4-.84-1.91.5-4.78.87-7.22Z"/><path class="cls-2" d="M372.73,278.17l4.08-2.56c5.84-3.89,11.65-7.83,17.56-11.63a21.08,21.08,0,0,1,4.18-1.57c.52.45,1.07,1.33,1.55,1.29,4.94-.38,10-.41,14.77-1.54,4.17-1,8-3.22,12-4.91,1.35,1.37,3.49,2.56,3.87,4.16a35,35,0,0,1,.51,9.5c-.12,2.83-1.54,3.31-4.28,2.28-2-.74-4.18-.76-6.15-1.48-2.4-.87-5-1.73-6.89-3.32s-3.3-2.05-4.75-.46c-3.54,3.89-6.85,8-10.18,12-4.35,5.34-4.38,12.25-6.54,18.39-.33.93-.65,1.86-1.05,3-3.67-1.5-3.95-4.74-4.86-7.44-1.56-4.55-6.79-7-10.31-4.5a8.5,8.5,0,0,0-2.35,3.6c-1.24,3-2.27,6-3.38,9-3.8-1.92-4.39-5.33-3.35-8.81C368.74,288.14,370.86,283.19,372.73,278.17Z"/><path class="cls-2" d="M371.49,303.34a.54.54,0,0,1-.38-.42A.38.38,0,0,1,371.49,303.34Z"/><path class="cls-2" d="M372.15,304a.36.36,0,0,1-.3-.37A.29.29,0,0,1,372.15,304Z"/><path class="cls-3" d="M370.19,324.88l-7.58-2.23c.19-.45.39-.89.59-1.34l2.33-1.69,3.93,2.47C369.7,323,370,324,370.19,324.88Z"/><path class="cls-3" d="M452.78,378.12c-2.65-.26-5.3-.68-8-.73a17.72,17.72,0,0,0-4.2.93c.93-2.78,2.84-3.4,5.66-3.18,4,.33,8.41,1.59,11.56-2.38.57-.71,1.28-2,1-2.52-.35-.72-1.59-1.12-2.52-1.4a4.21,4.21,0,0,0-2,.19c-5.29,1.33-5.68,1.36-7-3.82-1.84-7.24-4.59-13.94-9.35-19.74-2.35-2.86-2.55-2.81-4.56.12a12.9,12.9,0,0,1-2.51,2.17c2-5.63-.4-10.49-2.72-15.37.29-2,1.25-2.41,2.69-1,1.94,1.9,3.76,3.93,5.64,5.9l1.52,1.78a3.48,3.48,0,0,0,.33.55c.62,1.57.95,3.34,1.9,4.68,2.84,4,6.09,7.7,8.86,11.74,3.47,5.08,7.45,9,14.19,8.33l.21.27.42.57c.78,4.61-.64,7.36-4.8,9.48C457,375.79,454.89,377,452.78,378.12Z"/><path class="cls-2" d="M463.28,364.38c-6.74.65-10.72-3.25-14.19-8.33-2.77-4-6-7.75-8.86-11.74-1-1.34-1.28-3.11-1.9-4.68a28.71,28.71,0,0,1,2.81,2.33c5.58,5.94,11.07,12,16.7,17.86A62.8,62.8,0,0,0,463.28,364.38Z"/><path class="cls-2" d="M438,339.08l-1.52-1.78Z"/><path class="cls-2" d="M463.91,365.22l-.42-.57Z"/><path class="cls-1" d="M248.59,407.44c-.71-3.47-1.77-6.93-2.05-10.44-.47-5.84,2.72-9.59,8.35-11.28,1.68-.51,3-2.13,4.8-3.46.36,3.34.71,6.71,1.07,10.07-1.18,5-4.47,8-8.76,10.52C250.49,403.73,249.71,405.88,248.59,407.44Z"/><path class="cls-1" d="M264.63,378c3.18,7.41,4.84,15.05,2.94,23.11-.26,1.1-1.64,1.93-2.49,2.88-.53-.89-1.5-1.78-1.51-2.69-.12-7.75-.07-15.51-.07-23.26Z"/><path class="cls-3" d="M248.59,407.44c1.12-1.56,1.9-3.71,3.41-4.59,4.29-2.49,7.58-5.56,8.76-10.52q-.61,5.69-1.24,11.36c-.52,4.84-4.38,5.65-8.06,6.73-1.1.32-2.15.82-3.22,1.23l-.06-.06C248.32,410.21,248.45,408.83,248.59,407.44Z"/><path class="cls-3" d="M278,395l1.59,1.26Z"/><path class="cls-3" d="M355.41,396.78l.71-1,1-.06a42.71,42.71,0,0,1,5.9,1.6c1,.41,1.64,1.65,2.45,2.51-.85.64-1.68,1.31-2.55,1.91a15.47,15.47,0,0,1-1.52.86l-4.28-2.13Z"/><path class="cls-1" d="M371.27,369.44c.37-.35,1.11-1.58,2.1-1.82,1.79-.45,5.29,2.7,4.76,4.45-.38,1.24-2.12,2.46-3.5,2.89C372.79,375.55,371.39,373.43,371.27,369.44Z"/><path class="cls-3" d="M338.78,367.69c-.13-.59-.26-1.17-.4-1.76.38-1.49,1-2.33,2.81-1.68,2.49.88,5,1.53,5.79,4.77C343.8,370.62,341.19,369.83,338.78,367.69Z"/><path class="cls-1" d="M333.7,390.61c-.33-3.55-.61-6.45-.88-9.45C336.2,383.37,336.87,387.6,333.7,390.61Z"/><path class="cls-3" d="M362,326.69l.33,2.48c-1.15.17-2.29.37-3.45.46a2.5,2.5,0,0,1-.31-1.15C359.72,327.82,360.88,327.27,362,326.69Z"/><path class="cls-1" d="M355.81,404.21a4.48,4.48,0,0,1,.83,1c.05.11-.44.65-.56.61a2.18,2.18,0,0,1-.91-.66C355.12,405.07,355.49,404.66,355.81,404.21Z"/><path class="cls-2" d="M357.12,395.69l-1,.06Z"/><path class="cls-2" d="M370.65,401.42l-.38-.37Z"/><path class="cls-3" d="M440.62,378.32l-2.12,3.44Z"/><path class="cls-3" d="M371.2,326.89c-.28-.56-.57-1.11-.86-1.67Z"/><path class="cls-3" d="M424.44,392.08c-.09-.21-.17-.43-.25-.64C424.27,391.65,424.35,391.87,424.44,392.08Z"/></svg>