<svg id="frame5" xmlns="http://www.w3.org/2000/svg" viewBox="0 0 720 720"><defs><style>.cls-1{fill:#957629;}.cls-2{fill:#6c342a;}.cls-3{fill:#310e0e;}</style></defs><title>Frame 5</title><rect width="720" height="720"/><path class="cls-1" d="M360.15,573c0-.61,0-1.22,0-1.83l0-3.72c-.07-1.24-.15-2.47-.23-3.7l-1.11-18.58c-.08-1.92-.15-3.84-.23-5.76q-.58-7.53-1.18-15.07c-.09-1.45-.18-2.9-.26-4.35a23.1,23.1,0,0,0,.17-3.1q-.9-11.24-1.92-22.45c-.13-1.45-.93-3.38,1.52-3.34,4.95.08,8.33-2.95,12.07-5.44a64.4,64.4,0,0,1,9-5.06c1.28-.58,3-.1,4.72-.1a10.08,10.08,0,0,1-.32,1.64,4.45,4.45,0,0,1-.56.87c-3.68,4.52-5.59,9.13-1.86,14.73,1,1.49.94,3.77,1.12,5.71.43,4.71.72,9.43,1.07,14.14q.24,3.95.49,7.89l-.12.27.2.22c1.86,25.61,4,51.23,3,76.93-.87,22.18-2.31,44.34-3.67,66.5-.93,15.23-2.18,30.44-3.19,45.67a24.92,24.92,0,0,0,.66,5H353.1c0-1.49,0-3,0-4.46.19-5.47.4-10.95.6-16.42.05-.46.09-.92.13-1.39a18.23,18.23,0,0,0,.76-3c.91-10.77,1.84-21.54,2.6-32.32.39-5.6.43-11.22.62-16.84l.09-1.33,1.26-23,.12-2q.27-4.57.53-9.13.19-8,.37-15.93Q360.18,583.6,360.15,573Z"/><path class="cls-2" d="M353.71,699.12c-.2,5.47-.41,11-.6,16.42-.05,1.48,0,3,0,4.46H351c.48-3.58,1-7.16,1.43-10.75C352.88,705.88,353.29,702.5,353.71,699.12Z"/><path class="cls-3" d="M245.29,410.08c-7.79-2-13.9-6.76-19.29-12.33-4.72-4.87-8.78-10.37-13.23-15.5a15.12,15.12,0,0,0-4.2-3.54c-12.15-6.34-15.7-16.93-15-29.71a47.78,47.78,0,0,1,1.24,4.66c1.17,7.31,3.24,14.13,8.81,19.52,2.46,2.39,6,3.79,8.88,2.59a63.37,63.37,0,0,1-3.51-7.88c-.85-2.83-1.82-6-1.36-8.75,1.27-7.69,3.14-15.29,5-22.87,1.59-6.44,10.9-11.69,17.33-9.84,2.71.78,5.13,2.21,5.75,5.4.42,2.14,1,4.25,1.28,6.41.28,2.47,1.43,3.86,3.92,4a38.61,38.61,0,0,0,4.16-.12c3.41-.22,6.85-.29,10.22-.78a30.82,30.82,0,0,0,6-1.94,26.77,26.77,0,0,0,2.78-1.4,14.3,14.3,0,0,1,1.19,3.33,48,48,0,0,1,0,5.5c-.21,1.73-.42,3.45-.64,5.17-3.45-3.54-8.21-3.92-12.6-5.11-2.75-.75-4.77,1.16-4.31,4.16a84.14,84.14,0,0,0,2.39,10.77c1,3.41,3.74,5.07,7,3.61,3.89-1.74,6.18-1.31,8,2.66.29.65,2.91,1.13,3.57.59,5.31-4.33,4.8-7.4-1.42-10-.32-.14-.84-.18-.93-.41-.51-1.17-.92-2.38-1.36-3.59l1.37.51c2.12,2.29,13.13,2.31,15.13,0a.66.66,0,0,0,.2-.28c.8-4.86,4.05-4,7.38-3.26,2.35.54,4,0,4.36-2.9.53-4.12,1.45-8.18,2.07-12.28a27.58,27.58,0,0,0,.57-7.21c-.16-1.35-1.67-2.59-2.69-3.77s-2.16-2.17-3.24-3.25c1.71-1.05,1.32-1.88,0-3.14a67.3,67.3,0,0,1-4.8-5.57c2.85-2.34,5.78-4.59,8.51-7.07A8.76,8.76,0,0,0,296,303a9.67,9.67,0,0,1,8.29-6.73c2.46-.35,4.24-.94,3.52-4.16-.48-2.17,1.44-3.52,3.09-2.12,3.5,3,7.77,5.88,9.61,9.79,3.51,7.46,5.74,15.48-1,23-2.78,3.11-2,6.45,1.52,8.69a75.7,75.7,0,0,0,12.73,6.81,26.81,26.81,0,0,0,10.39,1.49c4.77-.16,6.39,1.37,4.79,5.86-.92,2.57-.77,4.73,1.45,6.52l1.08,2.74c-3,3-4.87,3.16-8.26.9l0-6.95c-.5-.86-1.17-2.53-1.48-2.47-4,.82-8.68-.69-11.65,4-1.95,3.1-2.27,4.55.9,6.65,1.36.91,2.8,1.71,4.23,2.58-3.18,4.25-6.59,5-9.62,2.43l-1.48-1.36c-.5.38-1.41.75-1.43,1.15a22.33,22.33,0,0,1-3.15,11.24c-2.7,4.5-5,9.57-5.11,15.19,0,.23-.46.45-1,.93l-8-4.46c-.57,4.49,1.71,7.55,3.09,10.82.13.3,1.44.16,2.19.12,1.94-.11,4.31-1,5.72-.23,1.84,1,3.82,3.28,4.11,5.24.41,2.79-2.57,2.19-4.41,2.36-1.09.1-2.19,0-3.08,0a75.46,75.46,0,0,1,.41,7.62c-.13,2.58.81,3.21,3,2.26,2.07-.88,4-1.06,4.81,1.49s-1.2,3.11-3,3.67c-.28.08-.49.4-.92.78l4.74,2.59-2.4,2.54c2.68,1.82,5.21,3.4,7.56,5.19,1.94,1.48,1.52,3-.56,4-1.14.54-2.43.75-3.61,1.21-2.14.82-4.24,1.73-6.35,2.6,0,.51,0,1,.05,1.53L332.52,445c.1-1.63.2-2.75.23-3.87.09-4.27,2-6.25,6.18-6,1.21.09,3.18.85,3.35,1.63.26,1.12-.56,2.73-1.37,3.79a94.05,94.05,0,0,1-6.44,7.53,6.88,6.88,0,0,1-3.13,1.69c-2.3.6-4.75.69-7,1.4-3.25,1-3.93,3.95-1.2,6,1.44,1.06,3.78,1,5.74,1.21,1.67.17,3.41-.3,5,0,2,.35,2.66-.23,2.84-2.24.12-1.32.79-3.54,1.55-3.69,5.37-1.08,9.94-5.85,16.06-3.61a2.42,2.42,0,0,0,1.92-.47,39.81,39.81,0,0,0,5.72-4.93c2.79-3.28,6.5-3.76,10.34-3.94a3,3,0,0,1,2.4,1.43c.24.62-.56,1.76-1.1,2.53-1.21,1.72-2.88,3.21-3.76,5.08-1.6,3.4-4,4.94-7.8,5.18a10.52,10.52,0,0,0-6,2.1,98.56,98.56,0,0,0-9.05,9.55c-.57.65-.46,1.88-.67,2.84a10.52,10.52,0,0,0,2.87.54,10.76,10.76,0,0,0,2.54-1c3.17-1.19,6.5-3.63,9.49-3.27,7.3.87,12.88-3.9,19.54-4.75.87-.11,1.67-1.47,2.32-2.37,1.95-2.71,3.82-5.48,5.72-8.22-.05,1.37.42,3.07-.22,4-2.5,3.83-5.35,7.42-8.54,11.73,2.15,2.06,4.21,4.8,6.93,6.44,4.38,2.65,6.16,6.32,4,11a59.82,59.82,0,0,1-4.05,6.38c2,.36,3.75,1,5.42.88,5.38-.34,10.74-1,16.12-1.46,4.77-.42,6.72.94,4.12,5.54-2.12,3.75-2.75,7.86-.85,11.9.62,1.33,1.81,2.9,3.07,3.3,3.62,1.15,8.34-1.31,10.58-5a8.55,8.55,0,0,0-1.18-10.26c-2.23-2.43-4.85-4.5-7.14-6.88a12.68,12.68,0,0,1-1.7-3.2c3.59,2.62,7.25,5.15,10.74,7.89,4.22,3.31,6,7.92,6.76,13.11a30.51,30.51,0,0,0,1.76,5.33c.07,2.82,0,5.66.25,8.48a19.9,19.9,0,0,0,1.18,4c-.28,4.67-3.62,6-8.75,3.5.79-2.92-1.9-2.79-3.31-3.7-7.16-4.63-15.08-8.69-15.1-18.93a40.51,40.51,0,0,1,1-7.81c.62-3.24.14-3.66-3.11-2.9-3.46.82-6.71,3.5-10.6,1.27-.4-.23-1.35.61-2.08.81-1.51.41-3.15,1.27-4.56,1-8.81-1.73-9.53-4-3.68-10.77,2.21-2.58,4.21-5.72,2.4-8.73-1.06-1.77-4.4-2.17-6.72-3.18-.1-.05-.26-.1-.33-.05-3.36,2.31-7.47,1.06-10.82,2.09-4,1.23-7.21,4.72-10.8,7.18-1.12.76-2.34,1.35-3.52,2,1.71-2.28,3.49-4.52,5.13-6.85,1.42-2,1.38-3.67-1.46-4.34a36.18,36.18,0,0,0-5.7-1.33c-4.9-.35-7.3,2.75-6.08,7.47.32,1.21.44,2.47.66,3.71a13.76,13.76,0,0,1-2.34-2.83c-2.08-4.56-4-9.19-6.16-14.22-.7.82-1.06,1.21-1.39,1.63-2.95,3.79-5.76,4.4-10.12,2.19-.3-.15-.74-.39-1-.29-3.44,1.59-7.82,1.43-10.05,5.3a43.62,43.62,0,0,1-4.33,1c-2.34.31-4.94,1.14-6.06-2.12,1.09-.89,2.85-1.6,3.16-2.71,1.84-6.57-.4-12.47-3.77-18a3.66,3.66,0,0,0-2.74-1.15c-4.15-.06-8.63-.9-12.36.39-6.26,2.17-13.2,3.31-18.16,8.45-1.71,1.78-3.22,2-3.81-.9a73.73,73.73,0,0,1-1.29-7.8c-.24-2.55-1.39-3.81-4-3.73-.92,0-1.84,0-2.77,0l8.45-8.62.92.26c.26,3.38.51,6.77.78,10.14s2.56,4.4,5.2,2.49a7.08,7.08,0,0,0,2.16-2.63c1.42-3,3.58-3.31,6.61-2.64a42.12,42.12,0,0,0,8.57.59c.61,0,1.76-.85,1.73-1.25a3.46,3.46,0,0,0-1.24-2.18,5.63,5.63,0,0,0-2.28-.74c-7-1.67-7.29-2.07-7.45-9.35l0-1.39c-.11-3.07-1.66-4.64-4.77-4.76a9.18,9.18,0,0,1-3.33-.69c-3.79-1.7-7.54-3.49-11.27-5.31-2.68-1.31-5.24-2.87-8-4-.66-.28-1.82.64-2.75,1,.88,1.71,1.32,4.09,2.72,5,2.46,1.58,5.53,2.16,8.28,3.32a39.47,39.47,0,0,1,4.14,2.34l-.32,1c-2.75.66-5.5,1.36-8.26,2-4.06.9-5.66,3.41-5.35,7.55.27,3.59,2.47,5.82,4.77,8.11-3,1.76-5.86,3.76-9,5.21a67.6,67.6,0,0,1-8.37,2.72c-3.2-1.39-3.66-3.92-2.88-7,.94-.72,2.21-1.26,2.78-2.21,3.09-5.19,6.41-10.12,11.84-13.24a21.05,21.05,0,0,0,3.25-2.66c-2.46-2.79-5-5-6.58-7.71-1-1.71-1.52-5.34-.57-6.18,1.84-1.61,4.84-2,7.43-2.54,1-.2,2.15.81,3.27,1,3.07.46,6.16.76,9.24,1.13.21-.54.41-1.08.61-1.61a41.39,41.39,0,0,0-4.43-3.09c-1.31-.69-3-.67-4.23-1.46s-2.63-2.14-2.76-3.37c-.11-1,1.36-2.46,2.47-3.25a38.61,38.61,0,0,1,5.46-2.94c4.95-2.47,9.9-5.57,14.81.21.45.52,1.77.29,2.69.4-.22-1.16,0-2.8-.74-3.4-3.23-2.76-6.75-5.19-10.09-7.83a17.32,17.32,0,0,1-3.81-3.63c-1.73-2.54-3.11-5.32-4.64-8a.88.88,0,0,0-.2-.51l-.51-.89-.3-.89-.4-1.11-.33-1.61c-1.14-2-1.86-4.91-3.56-5.71-1.26-.58-3.78,1.63-5.78,2.51a29,29,0,0,1-5.54,2.18c-3.49.76-7.06,1.17-10.6,1.73.33.87.52,1,.73,1.06,6.95,1.15,6.95,1.15,6.57,7.67l-.8,2.28c-.46,4-1.18,8-1.3,12-.1,3.44,1,7.1-4.38,8Zm-2.46-48.5c-.45-3.5-.69-6.73-1.37-9.86-.21-1-1.51-2-2.54-2.39-.44-.19-1.79.87-2.18,1.64-3.5,6.86-6.9,13.78-10.26,20.71-1,2.07.13,3.85,2.14,3.3A75.18,75.18,0,0,0,239,371.42a5.87,5.87,0,0,0,2.65-3.35A44.69,44.69,0,0,0,242.83,361.58ZM299,332.75a56.25,56.25,0,0,0,.06,6.23,12.37,12.37,0,0,0,1.4,3.24c1.1-.69,2.81-1.15,3.19-2.12a45.33,45.33,0,0,0,2.85-9.88c.54-3.79,1.81-6.82,5-9,.85-.57,1.3-1.71,1.93-2.59a12.14,12.14,0,0,0-3.27-1.34c-3.88-.39-7.79-.6-11.69-.76-1,0-2.8,0-3,.52-.4,1-.41,2.83.24,3.44C299.47,324,299,328.38,299,332.75Zm-5.1,46.3c1.69.49,4.43,1.72,3.35-1.5a81.11,81.11,0,0,0-5.37-12.66c-.68-1.26-3.12-2-4.83-2.13a4.26,4.26,0,0,0-3.43,2.08,135.81,135.81,0,0,0-4,13,34,34,0,0,0-.58,5.46,33.07,33.07,0,0,0,5.57-.79C287.77,381.54,290.81,380.23,293.89,379.05Zm15.4-25.76c2.23.76,4.32,1.65,6.49,2.18,9.4,2.28,13.3-1.19,12.34-10.86-.37-3.72-1.62-4.45-4.95-3-1.78.77-3.67,1.28-5.45,2.06a7.39,7.39,0,0,0-2.79,1.84C313.1,347.77,311.49,350.22,309.29,353.29Zm-11.28-5c-1,5.2-2,9.6-2.7,14.05-.1.59,1.18,1.92,1.93,2a4,4,0,0,0,2.94-1.19C304.23,358.94,303.73,353.35,298,348.34Zm3.48,93c2.07-3,2.07-10.52-.1-12.11-1.68-1.22-4.06-1.5-6.12-2.19l-.78,1.26C298.83,431.54,301.93,435.48,301.49,441.29Zm7.88-64.87c1.8-3.81,1.34-9.45-.78-11.65C306.91,368.1,307.21,374,309.37,376.42Z"/><path class="cls-1" d="M264.7,352c.22-1.72.43-3.44.64-5.16a68.62,68.62,0,0,1,3.58-7.9c2.29-3.8,2.29-7.1-.49-10.7-1.48-1.92.05-3,2-2.88,1.34.09,2.61,1,4,1.1a21.17,21.17,0,0,0,4.1-.32l1.31-.68c.71-3.35,1.57-6.67,2.1-10.05,1.13-7.37-1-15.07,2.28-22.27.23-.49-.85-2-1.65-2.47-2.95-1.81-5.25-4.3-5.25-7.7a161.53,161.53,0,0,1,1.1-18.12c.3-2.63,2.58-3.16,4.94-1.42,2,1.46,3.55,1.65,5.51-.18.7-.66,2.44-.66,3.55-.37,3.36.88,6.67,2,9.95,3.14a20.11,20.11,0,0,1,3.51,1.81c1.62,1,3.16,2.06,4.77,3a28.83,28.83,0,0,1,3,1.54c7.14,5.51,14.23,11.09,21.34,16.63.05,0,.21-.06.7-.23-.21-1.12-.1-2.55-.73-3.47a105,105,0,0,0-7.19-9.58c-4.09-4.7-8.39-9.22-12.7-13.73-.91-1-2.29-2.27-3.34-2.18-5.43.45-8.76-2.64-12.05-6.19a8.17,8.17,0,0,0-3.5-2c-3.22-1-6.5-1.77-9.5-2.56.64,3,.37,3.27-3.23,2.28a24.17,24.17,0,0,0-2.68-.45l.69-1.23,0-.1c.75-3.35,3.05-4.16,6.19-4.16,9.75,0,17.78,4.25,24.54,10.66A155,155,0,0,1,337,287.11c1.31,2.1,2.56,5.32,5.57,4s1.43-4.47.72-6.73c-1-3.09-2.86-6.25-.22-9.11a99.08,99.08,0,0,1,10.33-9.51c.58-.48,2.69.28,3.67,1,2.93,2.24,5.57,4.87,8.5,7.12a44,44,0,0,0,5.62,3.18c-.26,1.08-.49,2.16-.79,3.22-1,3.75-2.27,7.44-3,11.24-.71,3.51.25,6.61,3.77,8.38.2.23.39.47.59.71.75,5.5-.21,10.31-5.23,13.62a8.21,8.21,0,0,0-1.64,2.12l-1.18.74-2.15,1.44.05.1a36.15,36.15,0,0,0-4,.64c-3.75,1-7.48,2.1-11.21,3.16-2.05-1.71-4.55-3.11-6-5.23-2.65-3.79-4.68-8-7-12.05q-.72-3.06-1.42-6.13l-.63.12-1.55,7.7c-2.61-2.8-4.08-4.83-3.11-8a25.17,25.17,0,0,0,.83-6.49c.16-6.34-1-7.54-7.25-7.67a62.25,62.25,0,0,1-23.8-5.09c-2.55-1.11-4.48-.72-5.41,2.23-2,6.26-4.33,12.42-5.89,18.77-1,4.17-3.31,8.68.25,12.89a69.37,69.37,0,0,0,4.81,5.57c1.32,1.26,1.71,2.09,0,3.14-4,3.56-5.46,8.36-6.64,13.31-2.27,9.55-7.29,16.69-17.14,19.62l-1.37-.51C264.89,353.75,264.8,352.86,264.7,352Z"/><path class="cls-2" d="M371.1,300c-3.52-1.77-4.48-4.87-3.77-8.38.76-3.8,2-7.49,3-11.24.3-1.06.53-2.14.79-3.22l7.17-7c2.36,1.39,3.73-.44,5.5-1.49a126.1,126.1,0,0,1,12.62-6.73c1.21-.55,3.05.35,4.61.48,1.16.1,2.57.47,3.45,0,7.53-4.24,15-8.63,22.41-13a6.72,6.72,0,0,0,1.32-1.51c3.76-.19,5.71,1,6.1,4.42.84,7.19,1.47,14.4,2.18,21.6-.74,1-1.92,1.83-2.15,2.9-2.86,13.24-7.49,25.41-19.05,33.76-.74.53-1.38,2.44-1,3.1,1.67,2.91.41,5.12-1.24,7.29-4.22,5.54-4.25,5.52,1.08,9.72.09.07.16.16.26.23,2.7,2.05,11.05,1.78,13.45-.42,2.76-2.52,3.72-2.36,5.87,1-2.14-.3-3,.41-2.36,2.67.6,2.08,1,4.22,1.47,6.32-1.74-.28-3.83-1.31-5.17-.69-3.54,1.63-6.31,2.36-9-1.51-.52-.76-3.19,0-4.86,0,.41,1.39.39,3.37,1.33,4.07,2.9,2.19,6,4.29,10.11,2.9a36.74,36.74,0,0,1,5.78-1c-5.79,2.09-6.15,6.42-5.06,11.61.39,1.91-.1,4-.19,6-.62-1.95-1.28-3.88-1.85-5.84-1.57-5.39-1.55-5.4-7.19-4.71,1.53-5,1.45-5.05-3.22-6.31a4.78,4.78,0,0,1-2.47-2.11c-3-5.06-5.74-10.25-8.75-15.3-3.39-5.72-2.05-10.47,4.22-12.65,4.07-1.41,5.68-4.26,6.71-8a6,6,0,0,1,2.56-3.55,17.27,17.27,0,0,0,8.25-9c1.72-4,3.33-8.09,4.85-12.18,1.15-3.1.7-5.73-2.15-8-2.65-2.1-5.25-2.24-8.42-1.67-5,.89-9.94,3.07-15.23.8-2.31-1-4,.74-4.93,2.76-4,8.51-7.25,17.18-5.22,26.87.05.26-.24.59-.79,1.85-2.29-2.85-4.23-5.26-6.16-7.68-.84-1.05-1.43-2.59-2.52-3.11-4-1.93-10.64,1.38-12,5.71Z"/><path class="cls-1" d="M433.72,331.43c-2.15-3.35-3.11-3.51-5.87-1-2.4,2.2-10.75,2.47-13.45.42-.1-.07-.17-.16-.26-.23-5.33-4.2-5.3-4.18-1.08-9.72,1.65-2.17,2.91-4.38,1.24-7.29-.37-.66.27-2.57,1-3.1,11.56-8.35,16.19-20.52,19.05-33.76.23-1.07,1.41-1.94,2.15-2.9,3.15,4.85,6,9.72,6.47,15.78.67,8.38-2.76,15.25-6.93,22-2.12,3.42-4.34,6.8-6.32,10.3-1.83,3.25-1.26,5.23,2.39,6.34,5.89,1.79,10.67,5.27,15.23,9.09,2.72,2.28,5,5.11,7.46,7.69,3.74,3.88,7.73,7.55,11.17,11.68,8.61,10.31,9.78,21.81,5.54,34.42-1.61,4.81-1.76,10.13-2.32,15.25-.12,1.08.86,2.27,1.34,3.41-.4.69-.81,1.38-1.24,2.13l-2.48-1.74-5.64-5.36c-.37-2.82,2.37-1.86,3.43-2.88s2.57-2.39,2.5-3.51c-.13-1.82-1-4.66-2.25-5.13-4.27-1.59-8.85-2.32-13.31-3.37-.16-.44-.32-.88-.49-1.31l-.06-.16-.83-1.29.06-12.27,10.07-4.8a7.32,7.32,0,0,0,1.7-.2c3.1-1.06,4.54-3.39,4.72-6.55.17-2.85-.06-5.15-3.49-6.53-2.87-1.16-5.18-3.7-7.76-5.6q-5.87-4.31-11.75-8.58l-.2-.09-8.06-9.6-.16-.17-1.06-1.32A.92.92,0,0,0,433.72,331.43Z"/><path class="cls-2" d="M278.52,326.1a21.17,21.17,0,0,1-4.1.32c-1.35-.14-2.62-1-4-1.1-2-.14-3.51,1-2,2.88,2.78,3.6,2.78,6.9.49,10.7a68.62,68.62,0,0,0-3.58,7.9,48.2,48.2,0,0,0,0-5.51,14.3,14.3,0,0,0-1.19-3.33,26.77,26.77,0,0,1-2.78,1.4,30.82,30.82,0,0,1-6,1.94c-3.37.49-6.81.56-10.22.78a38.61,38.61,0,0,1-4.16.12c-2.49-.1-3.64-1.49-3.92-4-.24-2.16-.86-4.27-1.28-6.41-.62-3.19-3-4.62-5.75-5.4-6.43-1.85-15.74,3.4-17.33,9.84-1.87,7.58-3.74,15.18-5,22.87-.46,2.78.51,5.92,1.36,8.75a63.37,63.37,0,0,0,3.51,7.88c-2.88,1.2-6.42-.2-8.88-2.59-5.57-5.39-7.64-12.21-8.81-19.52a47.78,47.78,0,0,0-1.24-4.66c0-.41-.06-.82-.1-1.23q-.33-4.18-.67-8.37l-.09-2.11a.67.67,0,0,0,.16-.41l9.76-7.81c1,0,2.2.31,3.1-.05,4.71-1.86,9.36-3.88,14-5.87a13.31,13.31,0,0,1,10.76-.21c6.06,2.54,10.8-1.93,16.44-2.89-1.76-1.55-3.58-2.88-5.53-3.08-4.54-.47-9.13-.39-13.71-.54,3.25-.48,6.53-1.52,9.75-1.35,9.67.5,18.66,3.56,27.47,7.58C269.12,324.57,274,325,278.52,326.1Z"/><path class="cls-2" d="M356.12,484.05c1.18-.67,2.4-1.26,3.52-2,3.59-2.46,6.84-5.95,10.8-7.18,3.35-1,7.46.22,10.82-2.09.07-.05.23,0,.33.05,2.32,1,5.66,1.41,6.72,3.18,1.81,3-.19,6.15-2.4,8.73-5.85,6.81-5.13,9,3.68,10.77,1.41.28,3.05-.58,4.56-1,.73-.2,1.68-1,2.08-.81,3.89,2.23,7.14-.45,10.6-1.27,3.25-.76,3.73-.34,3.11,2.9a40.51,40.51,0,0,0-1,7.81c0,10.24,7.94,14.3,15.1,18.93,1.41.91,4.1.78,3.31,3.7a120.68,120.68,0,0,1-37.69-18.54c-1.4-1-2.93-1.86-4.33-2.87-2.46-1.76-3.38-.6-3.4,1.85,0,3.79.12,7.59.2,11.38-.35-4.72-.64-9.44-1.07-14.15-.18-1.94-.12-4.22-1.12-5.71-3.73-5.6-1.82-10.21,1.86-14.73a4.45,4.45,0,0,0,.56-.87,10.08,10.08,0,0,0,.32-1.64c-1.69,0-3.44-.48-4.72.1a64.4,64.4,0,0,0-9,5.06c-3.74,2.49-7.12,5.52-12.07,5.44-2.45,0-1.65,1.89-1.52,3.34q1,11.22,1.92,22.45a23.1,23.1,0,0,1-.17,3.1,10.07,10.07,0,0,1-.55-2c-.54-6.69-1.08-13.37-1.55-20.06-.43-6.16-2.1-6.84-8-4.7a49.08,49.08,0,0,1-14.39,3.1A38,38,0,0,1,309,489.53c-1.64-1.13-3.81-1.48-5.74-2.19,2.66-1.39,4.85-.32,7.06,1.19,9.55,6.49,19.95,8.11,31.06,5.16a4,4,0,0,0,2.37-2.11c.17-.43-1.09-1.5-1.76-2.23-2.15-2.32-4.19-4.75-6.51-6.89s-4.81-4.75-7.7-6c-3.08-1.34-6.73-1.36-10.13-1.95,2.23-3.87,6.61-3.71,10.05-5.3.23-.1.67.14,1,.29,4.36,2.21,7.17,1.6,10.12-2.19.33-.42.69-.81,1.39-1.63,2.16,5,4.08,9.66,6.16,14.22a13.76,13.76,0,0,0,2.34,2.83c.09.38.18.76.28,1.14l2.75,3.85,3-2.15,0-.09,1.33-1.37Z"/><path class="cls-1" d="M317.64,474.49c3.4.59,7.05.61,10.13,1.95,2.89,1.27,5.3,3.81,7.7,6s4.36,4.57,6.51,6.89c.67.73,1.93,1.8,1.76,2.23a4,4,0,0,1-2.37,2.11c-11.11,2.95-21.51,1.33-31.06-5.16-2.21-1.51-4.4-2.58-7.06-1.19l-2.42-.15L292,490.28l-4.38,1.23-1.13.24-3.85.84-1.73.38-6.45,1.28-.56.14c-12.37,3.26-24.29,1.21-36-3.05a44.42,44.42,0,0,0-4.5-1.8c-2.72-.66-2.83-2.07-2.36-4.6,1.53-8.12,6.65-14.35,10.52-21.25.95-1.69,1.82-3.43,2.72-5.15,2-.1,3.15.75,3.31,2.79-6.83,2.12-9.65,7.27-10.53,13.9.54.62,1,1.61,1.65,1.79,2.08.6,4.38.58,6.35,1.4,1.42.59,3.5,2.24,3.41,3.23-.15,1.47-1.73,3.09-3.11,4.1-2.64,1.92-2.82,3.58.29,4.81s6.45,1.67,9.7,2.46c3.41.33,6.87,1.22,10.21.89a147.43,147.43,0,0,0,16.61-3c3.21-.71,6.3-1.94,9.45-2.94,1.9-.42,3.82-.77,5.7-1.28,2.18-.59,2.77-2.25,1.79-4a77,77,0,0,0-5.64-9c-1.71-2.3-3.94-4.21-5.86-6.36-2.28-2.56-2.73-8.18-.67-10.65,2.28-2.75,5.18-1.75,8-.86,6,1.9,9.44,5.87,10.48,12.1a34.55,34.55,0,0,0,1.85,5.44c1.12,3.26,3.72,2.43,6.06,2.12A43.62,43.62,0,0,0,317.64,474.49Z"/><path class="cls-2" d="M466.81,410.2,469.3,412c.43-.75.84-1.44,1.24-2.13l.83,1c.72,1.14,1.46,2.28,2.15,3.44,2.93,4.9,6,9.71,8.71,14.73,2.11,3.93,3.72,8.13,5.56,12.21-2.5,2.05-4.69,5.08-7.55,6-9.62,2.94-19.48,5.12-29.25,7.58-.86-.79-1.68-2.19-2.59-2.25-1.53-.09-3.1.7-4.67,1.05-2.85.62-3.57-.12-3.22-3,.25-1.93.13-3.91.48-5.81a47.52,47.52,0,0,1,1.64-5.38c2.2-.26,4.82.14,6.53-.92,6.1-3.78,8.6-10,9.19-16.8.31-3.5,1.37-5.55,4.76-6.53C465.43,414.47,467.31,413.15,466.81,410.2Z"/><path class="cls-2" d="M266.61,378.74c1.53,2.67,2.91,5.45,4.64,8a17.32,17.32,0,0,0,3.81,3.63c3.34,2.64,6.86,5.07,10.09,7.83.7.6.52,2.24.74,3.4-.92-.11-2.24.12-2.69-.4-4.91-5.78-9.86-2.68-14.81-.21a38.61,38.61,0,0,0-5.46,2.94c-1.11.79-2.58,2.24-2.47,3.25.13,1.23,1.56,2.57,2.76,3.37s2.92.77,4.23,1.46a41.39,41.39,0,0,1,4.43,3.09c-.2.53-.4,1.07-.61,1.61-3.08-.37-6.17-.67-9.24-1.13-1.12-.17-2.29-1.18-3.27-1-2.59.53-5.59.93-7.43,2.54-1,.84-.42,4.47.57,6.18,1.59,2.74,4.12,4.92,6.58,7.71a21.05,21.05,0,0,1-3.25,2.66c-5.43,3.12-8.75,8.05-11.84,13.24-.57.95-1.84,1.49-2.78,2.21l.42-6.95.36-2c.06-1,.13-2,.19-3.05l0-.14A72.7,72.7,0,0,1,243,429.6a85.63,85.63,0,0,1,3.9-11.58c1.78-4,1.8-5.18-1.56-7.94l-5.08-4.64c5.35-.9,4.28-4.56,4.38-8,.12-4,.84-8,1.3-12,.11,4.14.08,8.3.43,12.42.08.88,1.87,2.49,2.34,2.32,4.65-1.75,9-4.2,10-9.6a90.12,90.12,0,0,0,1.14-13c.05-1.37-1-2.77-1.5-4.16-1.25.91-2.56,1.73-3.71,2.74-2.66,2.3-5.24,4.69-7.85,7,.38-6.52.38-6.52-6.57-7.67-.21,0-.4-.19-.73-1.06,3.54-.56,7.11-1,10.6-1.73a29,29,0,0,0,5.54-2.18c2-.88,4.52-3.09,5.78-2.51,1.7.8,2.42,3.71,3.56,5.71-3.42-.48-3.4,2-3.48,4.2-.2,6.12-.28,12.23-.46,18.34-.06,2-.26,4.06-.44,6.88,1.79-.82,3.57-1,4-1.94,1.59-3.2,3.58-6.56,3.82-10C268.61,387.13,267.26,382.91,266.61,378.74Z"/><path class="cls-2" d="M280.8,250.86a24.17,24.17,0,0,1,2.68.45c3.6,1,3.87.75,3.23-2.28,3,.79,6.28,1.56,9.5,2.56a8.17,8.17,0,0,1,3.5,2c3.29,3.55,6.62,6.64,12.05,6.19,1.05-.09,2.43,1.22,3.34,2.18,4.31,4.51,8.61,9,12.7,13.73a105,105,0,0,1,7.19,9.58c.63.92.52,2.35.73,3.47-.49.17-.65.27-.7.23-7.11-5.54-14.2-11.12-21.34-16.63a28.83,28.83,0,0,0-3-1.54c-1.61-1-3.15-2.05-4.77-3a20.11,20.11,0,0,0-3.51-1.81c-3.28-1.14-6.59-2.26-9.95-3.14-1.11-.29-2.85-.29-3.55.37-2,1.83-3.55,1.64-5.51.18-2.36-1.74-4.64-1.21-4.94,1.42a161.53,161.53,0,0,0-1.1,18.12c0,3.4,2.3,5.89,5.25,7.7.8.5,1.88,2,1.65,2.47-3.27,7.2-1.15,14.9-2.28,22.27-.53,3.38-1.39,6.7-2.1,10.05-1.11-5.41-2.37-10.79-3.31-16.23-3-17.14-4.42-34.3.79-51.31C278.07,255.42,279.62,253.19,280.8,250.86Z"/><path class="cls-2" d="M307.25,473.35a34.55,34.55,0,0,1-1.85-5.44c-1-6.23-4.5-10.2-10.48-12.1-2.81-.89-5.71-1.89-8,.86-2.06,2.47-1.61,8.09.67,10.65,1.92,2.15,4.15,4.06,5.86,6.36a77,77,0,0,1,5.64,9c1,1.78.39,3.44-1.79,4-1.88.51-3.8.86-5.71,1.28.25-3.1.57-6.19.73-9.29.3-5.94-4.77-11-9.69-9.91-4.38,1-8.81,1.77-13.23,2.51a3.2,3.2,0,0,1-2.53-.63c-5.25-5.59-12.78-6.43-19.3-9.36-.16-2-1.33-2.89-3.31-2.79-.1-.36-.2-.72-.31-1.08s-.26-.58-.4-.87a2.74,2.74,0,0,0-.07-.5,67.6,67.6,0,0,0,8.37-2.72c3.12-1.45,6-3.45,9-5.21l.7-.23c.93,0,1.85,0,2.77,0,2.58-.08,3.73,1.18,4,3.73a73.73,73.73,0,0,0,1.29,7.8c.59,2.88,2.1,2.68,3.81.9,5-5.14,11.9-6.28,18.16-8.45,3.73-1.29,8.21-.45,12.36-.39a3.66,3.66,0,0,1,2.74,1.15c3.37,5.54,5.61,11.44,3.77,18C310.1,471.75,308.34,472.46,307.25,473.35Z"/><path class="cls-2" d="M434.69,509.77a30.51,30.51,0,0,1-1.76-5.33c-.75-5.19-2.54-9.8-6.76-13.11-3.49-2.74-7.15-5.27-10.74-7.89l-1-.4-1.12-2.57c1.38-.88,3-1.36,3.56-2.41s.93-3.5.31-4c-2-1.61-1.88-3.51-1.78-5.57l.48-1.73a33.17,33.17,0,0,0,4-4.66A28.93,28.93,0,0,1,435,448.89c1.65,3.79,1.15,5.13-2.34,7.34a57.6,57.6,0,0,0-7.9,5.53c-3.6,3.23-3.39,4.83.3,8.35a46.65,46.65,0,0,1,3.14-4c2.33-2.38,4.93-4.5,7.14-7,1.66-1.85,3.32-3.19,5.93-2.76-1.84,1.48-3.75,2.87-5.49,4.46-2.21,2-4.23,4.22-6.42,6.25-3.5,3.23-3.62,4.61-1,8.57,3.26,4.86,6.58,9.7,9.52,14.75,2.22,3.82,2.2,8.16,1.46,12.46q-.79-5.67-1.6-11.33l-.88.19Z"/><path class="cls-1" d="M428.23,247.84a6.72,6.72,0,0,1-1.32,1.51c-7.44,4.39-14.88,8.78-22.41,13-.88.5-2.29.13-3.45,0-1.56-.13-3.4-1-4.61-.48a126.1,126.1,0,0,0-12.62,6.73c-1.77,1.05-3.14,2.88-5.5,1.49a50.67,50.67,0,0,1,19.95-13.92l3.42-1.51.06,0,3-1.41.09,0,1-.58.07,0,2.3-.66,1.49-.15,4-1,1.59-.37,2.58-.89,3.7-.6,4.53-.8Z"/><path class="cls-1" d="M227.72,316.43c4.58.15,9.17.07,13.71.54,1.95.2,3.77,1.53,5.53,3.08-5.64,1-10.38,5.43-16.44,2.89a13.31,13.31,0,0,0-10.76.21c-4.66,2-9.31,4-14,5.87-.9.36-2.06.05-3.1.05V329c.4-.4.79-.81,1.19-1.22,4.87-3,9.6-6.22,14.67-8.81C221.29,317.56,224.63,317.24,227.72,316.43Z"/><path class="cls-1" d="M441.28,456.42c-2.61-.43-4.27.91-5.93,2.76-2.21,2.47-4.81,4.59-7.14,7a46.65,46.65,0,0,0-3.14,4c-3.69-3.52-3.9-5.12-.3-8.35a57.6,57.6,0,0,1,7.9-5.53c3.49-2.21,4-3.55,2.34-7.34,1-1.46,2-2.93,3-4.39l-.06-6.25,4.7,1.14a47.52,47.52,0,0,0-1.64,5.38c-.35,1.9-.23,3.88-.48,5.81-.35,2.84.37,3.58,3.22,3,1.57-.35,3.14-1.14,4.67-1.05.91.06,1.73,1.46,2.59,2.25l-2.29.32-.17-.07-.06.18-2.68.48-1.85.27Z"/><path class="cls-1" d="M487.79,441.2c-1.84-4.08-3.45-8.28-5.56-12.21-2.69-5-5.78-9.83-8.71-14.73-.69-1.16-1.43-2.3-2.15-3.44,5.88,6,11.19,12.39,14.32,20.34a44.5,44.5,0,0,0,3.3,6.4C490.08,439.38,489.92,440.56,487.79,441.2Z"/><path class="cls-1" d="M434.69,509.77l2.22-18,.88-.19q.81,5.66,1.6,11.33c-.26,2-.51,4-.77,6s-.71,3.72-1.06,5.57l-.48,4.1c-.19.74-.37,1.47-.56,2.2-.13.51-.26,1-.4,1.51a19.9,19.9,0,0,1-1.18-4C434.7,515.43,434.76,512.59,434.69,509.77Z"/><path class="cls-2" d="M357.82,645.6c-.19,5.62-.23,11.24-.62,16.84-.76,10.78-1.69,21.55-2.6,32.32a18.23,18.23,0,0,1-.76,3c.38-6.87.68-13.75,1.16-20.62.69-10,1.51-19.93,2.3-29.9A7,7,0,0,1,357.82,645.6Z"/><path class="cls-2" d="M359.17,621.26l-1.26,23Z"/><path class="cls-2" d="M360.15,573q0,10.62,0,21.24Q360.18,583.6,360.15,573Z"/><path class="cls-2" d="M358.79,545.15l1.11,18.58Z"/><path class="cls-2" d="M357.38,524.32q.58,7.53,1.18,15.07Q358,531.85,357.38,524.32Z"/><path class="cls-2" d="M292,490.28l8.82-3.09Z"/><path class="cls-3" d="M192.81,339.4q.34,4.19.67,8.37C191.31,345.13,191.86,342.28,192.81,339.4Z"/><path class="cls-2" d="M359.82,610.15q-.26,4.56-.53,9.13Q359.56,614.71,359.82,610.15Z"/><path class="cls-3" d="M437.56,514.45c.35-1.85.71-3.71,1.06-5.57C438.27,510.74,437.91,512.6,437.56,514.45Z"/><path class="cls-2" d="M360.13,567.43l0,3.72Z"/><path class="cls-2" d="M401.69,254.71l-3.42,1.51Z"/><path class="cls-2" d="M426.08,248.18l-4.53.8Z"/><path class="cls-2" d="M443.94,455.92l1.85-.27Z"/><path class="cls-2" d="M413.68,250.84l-4,1Z"/><path class="cls-3" d="M436.52,520.75c.19-.73.37-1.46.56-2.2C436.89,519.29,436.71,520,436.52,520.75Z"/><path class="cls-2" d="M404.76,253.26l-3,1.41Z"/><path class="cls-2" d="M408.23,252l-2.3.66Z"/><path class="cls-2" d="M280.92,493l1.73-.38Z"/><path class="cls-2" d="M417.85,249.58l-2.58.89Z"/><path class="cls-2" d="M203.84,327.79c-.4.41-.79.82-1.19,1.22Z"/><path class="cls-2" d="M286.5,491.75l1.13-.24Z"/><path class="cls-3" d="M241.39,440.2l-.36,2Z"/><path class="cls-2" d="M273.91,494.39l.56-.14Z"/><polygon class="cls-2" points="448.47 455.17 448.53 454.99 448.7 455.06 448.66 455.26 448.47 455.17"/><path class="cls-2" d="M382.72,526l-.2-.22.12-.27A.41.41,0,0,1,382.72,526Z"/><path class="cls-2" d="M281.53,249.53l0,.1Z"/><path class="cls-3" d="M243.56,456.59l.4.87C243.83,457.17,243.7,456.88,243.56,456.59Z"/><path class="cls-3" d="M192.88,336.88a.67.67,0,0,1-.16.41l-.06-.26Z"/><path class="cls-3" d="M241.6,437l0,.14Z"/><path class="cls-2" d="M405.86,252.66l-1,.58Z"/><path class="cls-2" d="M325.58,362c3,2.56,6.44,1.82,9.62-2.43-1.43-.87-2.87-1.67-4.23-2.58-3.17-2.1-2.85-3.55-.9-6.65,3-4.72,7.63-3.21,11.65-4,.31-.06,1,1.61,1.48,2.47-.81,1-1.93,1.82-2.38,2.93-.88,2.19-1.39,4.53-2.06,6.85,3.08,1.61,3-1.74,4.41-2.83,3.39,2.26,5.24,2.06,8.26-.9,2.92,1.45,3,3.43,1.19,5.88-1.26,1.7-2.31,3.39-.84,5.68.4.63-.09,2.38-.75,3s-2.4,1.44-3.28,1.12c-3.5-1.25-6.85-2.9-10.43-4.48-.14,1.72-.86,4-.37,6,.94,3.86-.31,5.51-3.85,5.36v8.17c0,2.58,1.4,3.71,3.76,4.67,2.18.89,4,2.76,5.8,4.38.92.83,1.27,2.76,2.19,3,5,1.35,5.4,4.66,5.14,9.13-.14,2.31,1.77,4.73,2.87,7.37-1.61,1.4-3.34,3.11-5.29,4.53-.81.59-2.5,1.08-3,.65a4.08,4.08,0,0,1-1.26-3.2,22.09,22.09,0,0,1,1.71-4.74c-3.61-2.52-6.7.18-10.52.79a8.67,8.67,0,0,0,1.43,1.12c2.73,1.14,4.9,2.43,4.09,6.15-.39,1.8,4,4.33,5.79,3.3,3.49-2,6.86-3.68,10.89-.47a13.93,13.93,0,0,0-.59-4c-.59-1.85-.16-3,1.73-3.87,2.71-1.2,5.3-2.65,8.28-4.17a13.15,13.15,0,0,0,2.14,2.74,8.89,8.89,0,0,0,3,.92c-.07-1.07.3-2.59-.27-3.14-2.48-2.42-2.3-4.67-.3-7.21a40.38,40.38,0,0,0,2.41-3.9l-3.39-.62a18.46,18.46,0,0,0,.74-4.18c-.14-2.41-.64-4.79-1.09-7.9-1.07-.81-3.58-1.91-4.89-3.83-2.2-3.22-2.23-6.85-.13-10.48,1.81-3.14-1.8-9.68-5.33-10.12-3-.38-3.91-1.69-2.35-4.27a22.17,22.17,0,0,1,4.17-4.56c1.6-1.49,2.9-1,3.7,1,.73,1.82,1,4.34,2.33,5.29,3.42,2.4,3.39,6,4.48,9.29.43,1.28,1.87,3.05,2.92,3.1a5.78,5.78,0,0,0,4.37-2.1c.53-.76-.47-2.88-1.22-4.13a6.74,6.74,0,0,0-2.73-2c-3.81-2.05-4-3.27-.72-5.86,1-.78,2-1.5,3-2.25.71,2.36,1.36,4.73,2.14,7.07,1,2.88,2.87,5.75,2.81,8.6s-3.14,5.35-.33,8.39c.19.21-.46,1.06-.44,1.6.05,1.12-.06,2.48.53,3.27.74,1,2.12,1.53,3.23,2.26a14.32,14.32,0,0,0,1.44-2.84c.65-2.57,1.09-5.18,1.62-7.78l5.69.37c-.74,3.09-1.45,6.19-2.23,9.28a4.55,4.55,0,0,1-.9,2.1c-1.68,1.66-3.49,3.19-5.37,4.87l-1.64-2.47-1.26,0c-.16,1.68-.26,3.37-.48,5.05-.32,2.48,0,5.46-1.23,7.33-3.07,4.55-3.47,6.83-.28,11.13-1.2.29-2.58.31-3.56.95a31.21,31.21,0,0,0-4.86,4,18.52,18.52,0,0,0-5.13,9.87c1-.2,1.44-.15,1.64-.34,2.75-2.66,4.12-7.23,9.24-6.58a.34.34,0,0,0,.25-.21c-.15-3.57,3.36-4.23,5-6.35.29-2.16.57-4.32.86-6.48l1.32.06q.81,3.92,1.63,7.83a10.21,10.21,0,0,0-1,2.92,14.37,14.37,0,0,0,.64,3.44c.87-.7,2.18-1.25,2.51-2.16.45-1.24.16-2.76.19-4.16,1.42-.42,3.45-.39,4.14-1.34,2-2.72,4-1.79,6.3-.88-.19.42-.34.86-.57,1.26-1.28,2.19-1.49,4.67,1.08,5.45,1.14.35,3.42-1.65,4.53-3.08.88-1.15.77-3.07,1.1-4.64,2.36,1.84,2.95,9.72.71,12.56a6.14,6.14,0,0,1-3.53,2.35c-2.81.32-4.33,1.88-5.47,4.17-.93,1.87-1.88,3.71-3,5.92-2.31-4.51-1.51-10.36,1.39-11.65,1.76-.78,3-1.77,2.09-3.59-.75-1.52-2.19-2.71-3.32-4.05-.89,1.3-2.09,2.48-2.59,3.91-.75,2.15-.24,5.39-1.61,6.53-3.62,3-4.93,7.1-7.11,10.82-1.11,1.91-.95,3.22.95,4.32l3.57,2.07c.41.6.81,1.2,1.22,1.79-1.9,2.74-3.77,5.51-5.72,8.22-.65.9-1.45,2.26-2.32,2.37-6.66.85-12.24,5.62-19.54,4.75-3-.36-6.32,2.08-9.49,3.27a10.76,10.76,0,0,1-2.54,1,10.52,10.52,0,0,1-2.87-.54c.21-1,.1-2.19.67-2.84a98.56,98.56,0,0,1,9.05-9.55,10.52,10.52,0,0,1,6-2.1c3.79-.24,6.2-1.78,7.8-5.18.88-1.87,2.55-3.36,3.76-5.08.54-.77,1.34-1.91,1.1-2.53a3,3,0,0,0-2.4-1.43c-3.84.18-7.55.66-10.34,3.94a39.81,39.81,0,0,1-5.72,4.93,2.42,2.42,0,0,1-1.92.47c-6.12-2.24-10.69,2.53-16.06,3.61-.76.15-1.43,2.37-1.55,3.69-.18,2-.8,2.59-2.84,2.24-1.63-.28-3.37.19-5,0-2-.19-4.3-.15-5.74-1.21-2.73-2-2.05-4.92,1.2-6,2.26-.71,4.71-.8,7-1.4a6.88,6.88,0,0,0,3.13-1.69,94.05,94.05,0,0,0,6.44-7.53c.81-1.06,1.63-2.67,1.37-3.79-.17-.78-2.14-1.54-3.35-1.63-4.19-.28-6.09,1.7-6.18,6,0,1.12-.13,2.24-.23,3.87l-15.76-6.47c0-.51,0-1-.05-1.53,2.11-.87,4.21-1.78,6.35-2.6,1.18-.46,2.47-.67,3.61-1.21,2.08-1,2.5-2.5.56-4-2.35-1.79-4.88-3.37-7.56-5.19l2.4-2.54-4.74-2.59c.43-.38.64-.7.92-.78,1.84-.56,3.85-1.13,3-3.67s-2.74-2.37-4.81-1.49c-2.23.95-3.17.32-3-2.26A75.46,75.46,0,0,0,313,403c.89,0,2,.08,3.08,0,1.84-.17,4.82.43,4.41-2.36-.29-2-2.27-4.21-4.11-5.24-1.41-.8-3.78.12-5.72.23-.75,0-2.06.18-2.19-.12-1.38-3.27-3.66-6.33-3.09-10.82l8,4.46c.51-.48,1-.7,1-.93.07-5.62,2.41-10.69,5.11-15.19a22.33,22.33,0,0,0,3.15-11.24c0-.4.93-.77,1.43-1.15v13.49c2.76-.39,3.21-1.89,2.82-4C326.43,367.44,326,364.72,325.58,362Zm43.65,70.8c-3.8.6-6.31,2.71-8.1,6.85,1.28-.41,2.1-.42,2.45-.83a6.78,6.78,0,0,1,8.34-2c.46.18,1.12-.14,1.69-.23l1.95-.46c3.76,4.06,4.93,3.76,7.14-1.17a21.38,21.38,0,0,1,4.1-5.39c1.6-1.72,1.44-2.9-.75-3.52-4.37-1.22-6.48-1.82-8.22,3.2a8.69,8.69,0,0,1-1.62,2.18,16.9,16.9,0,0,0-.44-3,18.27,18.27,0,0,0-1.43-2.78,10.65,10.65,0,0,0-2.45,2.09A54,54,0,0,0,369.23,432.82Zm-12.83,9.36c1.7-2.45,3.19-4.66,4.75-6.82s.48-3.5-1.64-3.25c-1.83.21-4.24,1.12-5.14,2.53C352.84,437.05,354,439.62,356.4,442.18Zm7.54-14.07c-.56-3.39-2.15-4.57-4.72-4.29s-6.5,4.8-6.5,7.49C356.56,430.62,358.75,425.05,363.94,428.11ZM326.2,412.33l1.07.64c1.88-1.33,3.34-2.87,3-5.28l-1.22-.64Zm48.49-15.69.73-.16c-.5-1.84-.9-3.71-1.57-5.49-.12-.33-1.3-.28-2-.4-.06.6-.37,1.35-.12,1.77C372.62,393.85,373.69,395.22,374.69,396.64Z"/><path class="cls-1" d="M376.94,356.05c-1,.75-2.06,1.47-3,2.25-3.27,2.59-3.09,3.81.72,5.86a6.74,6.74,0,0,1,2.73,2c.75,1.25,1.75,3.37,1.22,4.13a5.78,5.78,0,0,1-4.37,2.1c-1.05,0-2.49-1.82-2.92-3.1-1.09-3.3-1.06-6.89-4.48-9.29-1.35-.95-1.6-3.47-2.33-5.29-.8-2-2.1-2.48-3.7-1a22.17,22.17,0,0,0-4.17,4.56c-1.56,2.58-.69,3.89,2.35,4.27,3.53.44,7.14,7,5.33,10.12-2.1,3.63-2.07,7.26.13,10.48,1.31,1.92,3.82,3,4.89,3.83.45,3.11.95,5.49,1.09,7.9a18.46,18.46,0,0,1-.74,4.18l3.39.62a40.38,40.38,0,0,1-2.41,3.9c-2,2.54-2.18,4.79.3,7.21.57.55.2,2.07.27,3.14a8.89,8.89,0,0,1-3-.92,13.15,13.15,0,0,1-2.14-2.74c-3,1.52-5.57,3-8.28,4.17-1.89.84-2.32,2-1.73,3.87a13.93,13.93,0,0,1,.59,4c-4-3.21-7.4-1.56-10.89.47-1.76,1-6.18-1.5-5.79-3.3.81-3.72-1.36-5-4.09-6.15a8.67,8.67,0,0,1-1.43-1.12c3.82-.61,6.91-3.31,10.52-.79a22.09,22.09,0,0,0-1.71,4.74,4.08,4.08,0,0,0,1.26,3.2c.54.43,2.23-.06,3-.65,1.95-1.42,3.68-3.13,5.29-4.53-1.1-2.64-3-5.06-2.87-7.37.26-4.47-.12-7.78-5.14-9.13-.92-.26-1.27-2.19-2.19-3-1.8-1.62-3.62-3.49-5.8-4.38-2.36-1-3.76-2.09-3.76-4.67v-8.17c3.54.15,4.79-1.5,3.85-5.36-.49-2,.23-4.29.37-6,3.58,1.58,6.93,3.23,10.43,4.48.88.32,2.5-.37,3.28-1.12s1.15-2.38.75-3c-1.47-2.29-.42-4,.84-5.68,1.84-2.45,1.73-4.43-1.19-5.88l-1.08-2.74c.33-3,.46-6,1-8.95a67.36,67.36,0,0,1,3.08-11.32c.36-.93,2.86-1.22,4.41-1.35.33,0,1.22,2,1.15,3-.17,2.51-.75,5-1.17,7.47,2.53.41,5.06.93,7.61,1.18,2,.2,3,.63,2.29,3-.27.85.45,2.89,1,3,4.56.76,5.59,4.63,7.38,7.85ZM356.79,393.5c-.41.35-1.43.82-1.65,1.54a2.51,2.51,0,0,0,.92,2.18c1.38.93,2.95,2,4.5,2.12s3.06-1,4.59-1.54c-.8-.94-1.43-2.26-2.45-2.74C361.09,394.3,359.21,394.1,356.79,393.5Z"/><path class="cls-2" d="M377.1,356c-1.79-3.22-2.82-7.09-7.38-7.85-.5-.08-1.22-2.12-1-3,.73-2.38-.28-2.81-2.29-3-2.55-.25-5.08-.77-7.61-1.18.42-2.49,1-5,1.17-7.47.07-1-.82-3-1.15-3-1.55.13-4.05.42-4.41,1.35a67.36,67.36,0,0,0-3.08,11.32c-.59,2.93-.72,6-1,8.95-2.22-1.79-2.37-3.95-1.45-6.52,1.6-4.49,0-6-4.79-5.86a26.81,26.81,0,0,1-10.39-1.49A75.7,75.7,0,0,1,321,331.43c-3.56-2.24-4.3-5.58-1.52-8.69,6.73-7.53,4.5-15.55,1-23-1.84-3.91-6.11-6.8-9.61-9.79-1.65-1.4-3.57-.05-3.09,2.12.72,3.22-1.06,3.81-3.52,4.16A9.67,9.67,0,0,0,296,303a8.76,8.76,0,0,1-2.11,3.49c-2.73,2.48-5.66,4.73-8.51,7.07-3.57-4.21-1.28-8.72-.26-12.89,1.56-6.35,3.92-12.51,5.89-18.77.93-3,2.86-3.34,5.41-2.23a62.25,62.25,0,0,0,23.8,5.09c6.25.13,7.41,1.33,7.25,7.67a25.17,25.17,0,0,1-.83,6.49c-1,3.19.5,5.22,3.11,8l1.55-7.7.63-.12,1.41,6.13c-2.47.67-2.13,2.51-2,4.42a46.61,46.61,0,0,1-.09,4.87l-2-3.52c-2.54,3.14-2.58,6.31-.39,8.18-.14,4.52,4.18,9.21,9.27,10.34,1.87.41,4,.88,5.37,2,2.9,2.39,4.7,1,6.64-1.12,2.24-2.48-.15-3.58-1.42-5-.83-.95-1.64-1.92-2.45-2.89,3.73-1.06,7.46-2.16,11.21-3.16a36.15,36.15,0,0,1,4-.64c.36,3.77.82,7.54,1,11.32.12,2.23,1,3.34,3.05,4.41,2.41,1.25,5.74,3.27,6.1,5.4.74,4.34,3,7,6,9.72S380.5,353.58,377.1,356Z"/><path d="M388.86,449.07c-.41-.59-.81-1.19-1.22-1.79-.44-1.16-1.26-2.34-1.23-3.49a16.89,16.89,0,0,1,1.14-5.33c.21-.56,1.5-.73,2.29-1.07.48,1.33.89,2.7,1.47,4a32.54,32.54,0,0,0,1.76,3.08,17.1,17.1,0,0,0,2.21-2.3c.9-1.34,1.5-2.87,2.38-4.21s1.79-2.28,3.25-4.12c.69,4,1.21,6.81,1.62,9.62a2.72,2.72,0,0,1-.48,1.61c-2.94,5.15-6,10.25-8.85,15.44a28.19,28.19,0,0,0-2.31,5.76c-1,3.5,2.65,8.57,5.74,7.57,4.18-1.36,8.82-2.86,11.87-5.76,3.61-3.43,5.84-8.37,8.47-12.77,1-1.74.33-3.13-1.84-3.45l-2.95-.28c-.1-1.48-.72-3.18-.21-4.4,1.76-4.21,3.91-8.25,6.08-12.68a10.24,10.24,0,0,1,1.59,2c1.72,4.28,3.41,8.57,4.94,12.91a3.53,3.53,0,0,1-.64,2.49c-2.41,3.77-5,7.43-7.33,11.24-.6,1-.53,2.39-.77,3.61l-.48,1.73c-.71,1-2.05,2.05-2,3,.17,3.57-1.6,4.87-4.78,5.69-2.15.56-2.07,2.46-.21,3.5a41.92,41.92,0,0,0,6,2.33l1,.4a12.68,12.68,0,0,0,1.7,3.2c2.29,2.38,4.91,4.45,7.14,6.88a8.55,8.55,0,0,1,1.18,10.26c-2.24,3.7-7,6.16-10.58,5-1.26-.4-2.45-2-3.07-3.3-1.9-4-1.27-8.15.85-11.9,2.6-4.6.65-6-4.12-5.54-5.38.48-10.74,1.12-16.12,1.46-1.67.11-3.39-.52-5.42-.88a59.82,59.82,0,0,0,4.05-6.38c2.15-4.65.37-8.32-4-11-2.72-1.64-4.78-4.38-6.93-6.44,3.19-4.31,6-7.9,8.54-11.73C389.28,452.14,388.81,450.44,388.86,449.07Z"/><path d="M261.54,447.93l-.7.23c-2.3-2.29-4.5-4.52-4.77-8.11-.31-4.14,1.29-6.65,5.35-7.55,2.76-.61,5.51-1.31,8.26-2l.32-1a39.47,39.47,0,0,0-4.14-2.34c-2.75-1.16-5.82-1.74-8.28-3.32-1.4-.89-1.84-3.27-2.72-5,.93-.37,2.09-1.29,2.75-1,2.74,1.15,5.3,2.71,8,4,3.73,1.82,7.48,3.61,11.27,5.31a9.18,9.18,0,0,0,3.33.69c3.11.12,4.66,1.69,4.77,4.76l0,1.39c.16,7.28.49,7.68,7.45,9.35a5.63,5.63,0,0,1,2.28.74,3.46,3.46,0,0,1,1.24,2.18c0,.4-1.12,1.26-1.73,1.25a42.12,42.12,0,0,1-8.57-.59c-3-.67-5.19-.39-6.61,2.64a7.08,7.08,0,0,1-2.16,2.63c-2.64,1.91-4.94.77-5.2-2.49s-.52-6.76-.78-10.14l-.92-.26Z"/><path class="cls-2" d="M266.35,355.15c9.85-2.93,14.87-10.07,17.14-19.62,1.18-4.95,2.68-9.75,6.64-13.31,1.08,1.08,2.24,2.1,3.24,3.25s2.53,2.42,2.69,3.77a27.58,27.58,0,0,1-.57,7.21c-.62,4.1-1.54,8.16-2.07,12.28-.37,2.88-2,3.44-4.36,2.9-3.33-.76-6.58-1.6-7.38,3.26a.66.66,0,0,1-.2.28C279.48,357.46,268.47,357.44,266.35,355.15Zm22-15.65c-2.43,4.05-7.72,5.28-8.43,10.75C286.39,350,291,344.53,288.33,339.5Z"/><path d="M264.7,352c.1.9.19,1.79.28,2.68.44,1.21.85,2.42,1.36,3.59.09.23.61.27.93.41,6.22,2.6,6.73,5.67,1.42,10-.66.54-3.28.06-3.57-.59-1.78-4-4.07-4.4-8-2.66-3.24,1.46-6-.2-7-3.61A84.14,84.14,0,0,1,247.79,351c-.46-3,1.56-4.91,4.31-4.16C256.49,348,261.25,348.42,264.7,352Z"/><path class="cls-1" d="M246.69,383.17c2.61-2.35,5.19-4.74,7.85-7,1.15-1,2.46-1.83,3.71-2.74.53,1.39,1.55,2.79,1.5,4.16a90.12,90.12,0,0,1-1.14,13c-1,5.4-5.3,7.85-10,9.6-.47.17-2.26-1.44-2.34-2.32-.35-4.12-.32-8.28-.43-12.42Z"/><path class="cls-2" d="M242.83,361.58a44.69,44.69,0,0,1-1.18,6.49,5.87,5.87,0,0,1-2.65,3.35A75.18,75.18,0,0,1,228.62,375c-2,.55-3.14-1.23-2.14-3.3,3.36-6.93,6.76-13.85,10.26-20.71.39-.77,1.74-1.83,2.18-1.64,1,.43,2.33,1.42,2.54,2.39C242.14,354.85,242.38,358.08,242.83,361.58Z"/><path d="M299,332.75c0-4.37.48-8.79-3.25-12.27-.65-.61-.64-2.45-.24-3.44.2-.51,2-.57,3-.52,3.9.16,7.81.37,11.69.76a12.14,12.14,0,0,1,3.27,1.34c-.63.88-1.08,2-1.93,2.59-3.23,2.19-4.5,5.22-5,9a45.33,45.33,0,0,1-2.85,9.88c-.38,1-2.09,1.43-3.19,2.12a12.37,12.37,0,0,1-1.4-3.24A56.25,56.25,0,0,1,299,332.75Z"/><path class="cls-2" d="M293.89,379.05c-3.08,1.18-6.12,2.49-9.26,3.48a33.07,33.07,0,0,1-5.57.79,34,34,0,0,1,.58-5.46,135.81,135.81,0,0,1,4-13,4.26,4.26,0,0,1,3.43-2.08c1.71.14,4.15.87,4.83,2.13a81.11,81.11,0,0,1,5.37,12.66C298.32,380.77,295.58,379.54,293.89,379.05Zm-3.95-.52c1.48-1.22,3.29-2.22,3.16-2.7-.36-1.36-1.52-2.51-2.37-3.74a19.28,19.28,0,0,0-2.56,3.63C288,376.19,289.07,377.21,289.94,378.53Z"/><path class="cls-2" d="M309.29,353.29c2.2-3.07,3.81-5.52,5.64-7.79a7.39,7.39,0,0,1,2.79-1.84c1.78-.78,3.67-1.29,5.45-2.06,3.33-1.44,4.58-.71,4.95,3,1,9.67-2.94,13.14-12.34,10.86C313.61,354.94,311.52,354.05,309.29,353.29Z"/><path class="cls-1" d="M266.61,378.74c.65,4.17,2,8.39,1.72,12.5-.24,3.41-2.23,6.77-3.82,10-.45.89-2.23,1.12-4,1.94.18-2.82.38-4.85.44-6.88.18-6.11.26-12.22.46-18.34.08-2.2.06-4.68,3.48-4.2l.33,1.61c.14.37.27.74.4,1.11l.3.89.51.89A.88.88,0,0,1,266.61,378.74Z"/><path d="M349,483.85c-.1-.38-.19-.76-.28-1.14-.22-1.24-.34-2.5-.66-3.71-1.22-4.72,1.18-7.82,6.08-7.47a36.18,36.18,0,0,1,5.7,1.33c2.84.67,2.88,2.33,1.46,4.34-1.64,2.33-3.42,4.57-5.13,6.85l-.06,0-1.33,1.37,0,.09Z"/><path d="M298,348.34c5.72,5,6.22,10.6,2.17,14.86a4,4,0,0,1-2.94,1.19c-.75-.08-2-1.41-1.93-2C296,357.94,297,353.54,298,348.34Z"/><path class="cls-2" d="M301.49,441.29c.44-5.81-2.66-9.75-7-13l.78-1.26c2.06.69,4.44,1,6.12,2.19C303.56,430.77,303.56,438.28,301.49,441.29Z"/><path class="cls-1" d="M325.58,362c.44,2.7.85,5.42,1.34,8.12.39,2.12-.06,3.62-2.82,4V360.66Z"/><path class="cls-1" d="M343.17,355.75c-1.37,1.09-1.33,4.44-4.41,2.83.67-2.32,1.18-4.66,2.06-6.85.45-1.11,1.57-2,2.38-2.93Z"/><path class="cls-2" d="M309.37,376.42c-2.16-2.43-2.46-8.32-.78-11.65C310.71,367,311.17,372.61,309.37,376.42Z"/><path class="cls-2" d="M266.41,378.23l-.51-.89Z"/><path class="cls-2" d="M265.6,376.45c-.13-.37-.26-.74-.4-1.11C265.34,375.71,265.47,376.08,265.6,376.45Z"/><path class="cls-3" d="M377.1,356c3.4-2.38,3.61-3.71.59-6.43s-5.24-5.38-6-9.72c-.36-2.13-3.69-4.15-6.1-5.4-2.09-1.07-2.93-2.18-3.05-4.41-.2-3.78-.66-7.55-1-11.32l-.05-.1,2.15-1.44,1.18-.74c2.46,0,3.85,1.32,4.79,3.57a19.88,19.88,0,0,0,2.74,3.77l6.79,8.79c1.11,2.86,2.22,5.64,1,8.89-.38,1,.28,2.76,1,3.75a71.92,71.92,0,0,0,5.23,5.69c1.31,2.16,2.7,4.29,3.9,6.52.5.94,1.19,2.55.79,3.08-2.44,3.13-.94,6.14-.13,9.2-2.8,0-3.6,1.49-3.15,4,0,1,.09,2,.13,2.95-.53,2.6-1,5.21-1.62,7.78a14.32,14.32,0,0,1-1.44,2.84c-1.11-.73-2.49-1.26-3.23-2.26-.59-.79-.48-2.15-.53-3.27,0-.54.63-1.39.44-1.6-2.81-3,.27-5.65.33-8.39s-1.85-5.72-2.81-8.6c-.78-2.34-1.43-4.71-2.14-7.07Z"/><path class="cls-3" d="M346.29,322.48c.81,1,1.62,1.94,2.45,2.89,1.27,1.46,3.66,2.56,1.42,5-1.94,2.15-3.74,3.51-6.64,1.12-1.4-1.16-3.5-1.63-5.37-2-5.09-1.13-9.41-5.82-9.27-10.34l2.36-4.66a46.61,46.61,0,0,0,.09-4.87c-.17-1.91-.51-3.75,2-4.42,2.29,4,4.32,8.26,7,12.05C341.74,319.37,344.24,320.77,346.29,322.48Z"/><path class="cls-2" d="M372.35,323.74a19.88,19.88,0,0,1-2.74-3.77c-.94-2.25-2.33-3.54-4.79-3.57a8.21,8.21,0,0,1,1.64-2.12c5-3.31,6-8.12,5.23-13.62l.28-.24a40.84,40.84,0,0,1,2.88,5.77c.6,1.83,1.54,2.24,3.32,2.76a54.27,54.27,0,0,1,10.63,4.5c5.83,3.2,7.31,9.86,11,14.8.42.56-.31,2-.51,3-1.27-1.75-2.51-3.52-3.81-5.24-2.67-3.52-5.19-7.18-8.14-10.45a15.78,15.78,0,0,0-5.51-3.44c-3.3-1.43-5-.31-6.05,3.21a6.26,6.26,0,0,1-2,3.35C371.73,320.08,371.55,321.69,372.35,323.74Z"/><path class="cls-2" d="M363.64,317.14l-2.15,1.44Z"/><path class="cls-2" d="M371.69,300.66c-.2-.24-.39-.48-.59-.71l.38-.3.49.77Z"/><path class="cls-3" d="M372,300.42l-.49-.77c1.37-4.33,8-7.64,12-5.71,1.09.52,1.68,2.06,2.52,3.11,1.93,2.42,3.87,4.83,6.16,7.68.55-1.26.84-1.59.79-1.85-2-9.69,1.23-18.36,5.22-26.87.95-2,2.62-3.75,4.93-2.76,5.29,2.27,10.23.09,15.23-.8,3.17-.57,5.77-.43,8.42,1.67,2.85,2.27,3.3,4.9,2.15,8-1.52,4.09-3.13,8.16-4.85,12.18a17.27,17.27,0,0,1-8.25,9,6,6,0,0,0-2.56,3.55c-1,3.78-2.64,6.63-6.71,8-6.27,2.18-7.61,6.93-4.22,12.65,3,5.05,5.77,10.24,8.75,15.3a4.78,4.78,0,0,0,2.47,2.11c4.67,1.26,4.75,1.28,3.23,6.31l-.17.06-1.72,1.44c-.56,1.1-1.11,2.2-1.66,3.3-.89,1.31-1.49,3.14-2.72,3.84-3.1,1.76-3.94,4.55-4.49,7.65-.05,2.1-.11,4.2-.16,6.3-1.29,1.93-1.74,3.74.75,5.11l0-.07c-.57.68-1.11,1.9-1.73,1.94-4.19.31-5.3,4.53-8.3,6.28L393.2,394l-6.28,3.65c-1.39,1.46-2.84,2.92.09,4.29l1.13,2.37.63,6.37c.78,1,1.43,2.43,2.39,2.67.73.18,2-1.08,2.74-2,.57-.74.42-2,1-2.83a20.9,20.9,0,0,1,2.69-2.89,6.3,6.3,0,0,0,1,1.76c1.13,1,2.39,1.82,3.59,2.72.66-1.24,1.66-2.42,1.89-3.73a31.58,31.58,0,0,0,.05-5.59l-5.64,2.54-5.54.35-2.32-.15q1.53-3.27,3-6.56l.81.31,1.88.61h2.55c4.75-1.66,4.09-5.65,3.74-9.63,4,.77,5.22-1.1,5.31-4.5,0-.92,1.08-1.84,1.74-2.71,1.14-1.5,2.61-2.82,3.48-4.46,2-3.72,3.67-7.6,5.49-11.41l7.16-3.36c.09-2,.58-4.09.19-6-1.09-5.19-.73-9.52,5.06-11.61.59-1.25,1.19-2.51,1.78-3.77-.48-2.1-.87-4.24-1.47-6.32-.65-2.26.22-3,2.36-2.67a.92.92,0,0,1,.52.06l1.06,1.32.16.17c1,4.61,3.48,8,8.06,9.6l.2.09c2,6.45,3.86,12.94,6.11,19.29.31.87,2.68,1.65,3.88,1.4,2.28-.46,4.19-.83,6.05,1s1.1,3.76.54,5.73l-10.07,4.8c-1.83-1.44-3.83-3.28-6.12-1.3-2.91,2.52-5.36,5.47-4.59,9.85a4.22,4.22,0,0,1-.07,2.69c-2,3.16-.22,4.79,2.17,6.48a47.76,47.76,0,0,1,4,3.8c1.05,1,2.19,1.84,3.29,2.75l1.21-.42c-.18-2.15-.49-4.3-.5-6.45a44.63,44.63,0,0,1,.54-5.13l.83,1.29.06.16c.17.43.33.87.49,1.3,1.08,4.17,3.46,5.66,7.52,5a8.92,8.92,0,0,1,3,.53,21.13,21.13,0,0,1-1.49,3.52c-.38.59-1.39.75-2,1.22-1.46,1-1.66,2.19-.05,3.25a29.2,29.2,0,0,0,2.72,1.42l5.64,5.36c.49,2.94-1.39,4.26-3.71,4.93-3.39,1-4.45,3-4.76,6.53-.59,6.8-3.09,13-9.19,16.8-1.71,1.06-4.33.66-6.53.92l-4.7-1.15c-.44-2.9-1.38-5.84-1.2-8.7.35-5.25.63-5.23-4.49-5.46a17.66,17.66,0,0,1,2.81-1.88c4.57-1.92,6.83-.45,7,4.44a22.82,22.82,0,0,0,.21,3.8c.47,2.14,1.22,5.2,3.82,4.19,2.15-.83,4.8-3.65,4.93-5.74.28-4.38-.91-8.86-1.6-13.29-.48-3.16.17-3.8,3.24-2.88,4.22,1.26,6.51.37,7.13-2.78.56-2.86-1.24-4.57-5.45-5.17-.46-.07-.94,0-1.38-.16-3.73-1-8-1.14-8.83-6.28-.15-.89-1.17-1.68-1.89-2.43-2.8-2.94-4.16-2.77-6.29.73a38.3,38.3,0,0,1-3-2.86c-1.83-2.17-3.61-1.88-5.14.15a29.43,29.43,0,0,0-2.23,4.24c-.66,1.3-1.4,2.56-2,3.89-1.84,4.05-6.22,4-9.43,5.88-4.35,2.49-4.54,3.17-1.86,7.6,1.35,2.23,2.35,4.67,3.51,7-5.88.53-6.4,1.17-5.08,6.41-4.24,3.14-7.71,6.75-6.18,12.61.32,1.23,1.59,2.94,2.59,3.07a5.37,5.37,0,0,0,4-1.8c.9-1,1-2.75,1.38-4.18.83-3.27,1.6-6.56,2.39-9.83,1.85-.07,4.61.62,5.39-.33,3.24-3.92,7.77-3.46,11.9-4.41l-3.14,2.48c-.81.63-2.05,1.07-2.35,1.88a55,55,0,0,0-2.71,9.08c-.42,2.34-.08,4.81-.08,7.22l.95,1c3.7-4.66,7.54-3.08,11.42-1.28a4.72,4.72,0,0,0,1.69.07c-1,1.46-2,2.93-3,4.39a28.93,28.93,0,0,0-15.22,13.21,33.17,33.17,0,0,1-4,4.66c.24-1.22.17-2.62.77-3.61,2.34-3.81,4.92-7.47,7.33-11.24a3.53,3.53,0,0,0,.64-2.49c-1.53-4.34-3.22-8.63-4.94-12.91a10.24,10.24,0,0,0-1.59-2c-2.17,4.43-4.32,8.47-6.08,12.68-.51,1.22.11,2.92.21,4.4a54.87,54.87,0,0,0-7.17.52c-1.61.32-3.56,1-4.49,2.23a89.52,89.52,0,0,0-5.68,9.06c-.55.9-1,1.87-1.47,2.81l.72.69,8.7-5.75c.08,1.14.09,1.57.14,2,.09.95.2,1.9.3,2.86,1.17-.27,2.77-.16,3.42-.89,1.41-1.57,2.28-3.62,3.49-5.4.94-1.39,2.16-2.59,3.07-4a34.53,34.53,0,0,0,1.92-3.85c2.17.32,2.88,1.71,1.84,3.45-2.63,4.4-4.86,9.34-8.47,12.77-3.05,2.9-7.69,4.4-11.87,5.76-3.09,1-6.76-4.07-5.74-7.57a28.19,28.19,0,0,1,2.31-5.76c2.87-5.19,5.91-10.29,8.85-15.44a2.72,2.72,0,0,0,.48-1.61c-.41-2.81-.93-5.61-1.62-9.62-1.46,1.84-2.46,2.91-3.25,4.12s-1.48,2.87-2.38,4.21a17.1,17.1,0,0,1-2.21,2.3,32.54,32.54,0,0,1-1.76-3.08c-.58-1.29-1-2.66-1.47-4-.79.34-2.08.51-2.29,1.07a16.89,16.89,0,0,0-1.14,5.33c0,1.15.79,2.33,1.23,3.49l-3.57-2.07c-1.9-1.1-2.06-2.41-.95-4.32,2.18-3.72,3.49-7.85,7.11-10.82,1.37-1.14.86-4.38,1.61-6.53.5-1.43,1.7-2.61,2.59-3.91,1.13,1.34,2.57,2.53,3.32,4.05.89,1.82-.33,2.81-2.09,3.59-2.9,1.29-3.7,7.14-1.39,11.65,1.12-2.21,2.07-4.05,3-5.92,1.14-2.29,2.66-3.85,5.47-4.17a6.14,6.14,0,0,0,3.53-2.35c2.24-2.84,1.65-10.72-.71-12.56l-6.14,1c-2.26-.91-4.33-1.84-6.3.88-.69.95-2.72.92-4.13,1.34l-2.32,0q-.82-3.92-1.63-7.83l-1.32-.06c-.29,2.16-.57,4.32-.86,6.48l-2.62-1.38c-3.19-4.3-2.79-6.58.28-11.13,1.26-1.87.91-4.85,1.23-7.33.22-1.68.32-3.37.48-5.05l1.26,0,1.64,2.47c1.88-1.68,3.69-3.21,5.37-4.87a4.55,4.55,0,0,0,.9-2.1c.78-3.09,1.49-6.19,2.23-9.28l.26-.08a26.11,26.11,0,0,0,2.66-3.53,11.1,11.1,0,0,0,.64-3.22l.19-.05c2.75-.62,5.83-1.83,5-5-1.62-5.92-2.42-11.49,1.7-16.93-1.34-.72-2.23-1.2-3.13-1.67-6.1-3.18-7-5.43-4.34-11.41l.15-.09.63-.75,1.92-3c.2-1,.93-2.43.51-3-3.67-4.94-5.15-11.6-11-14.8a54.27,54.27,0,0,0-10.63-4.5c-1.78-.52-2.72-.93-3.32-2.76A40.84,40.84,0,0,0,372,300.42Zm56.13,78.77c1.64,2.11,3.88,1.82,4.24-1s-.7-5.63-1.14-8.46l.33-4.34c1.38-3.67,1.08-7.3,0-11.7-.91,1.15-1.53,1.6-1.67,2.16-1.56,6.51-3.2,13-4.41,19.59-.2,1.06,1.63,2.48,2.52,3.74ZM420,375.13a44.17,44.17,0,0,0-1.92,4.54c-.29,1.08,0,2.34-.38,3.37-1.55,4.11-.56,6.42,3.56,7.44a10,10,0,0,0,3-.17,8.25,8.25,0,0,0-.54-2.8c-2-3.09-3.6-6.2-2.69-10.05C421.06,377.13,420.67,376.68,420,375.13Zm-4,17.95-1.55-.72c-1.56,2.25-3.45,4.35-4.47,6.82-.3.73,1.74,2.59,2.95,3.66.28.24,2.19-.54,2.26-1C415.63,398.93,415.76,396,416,393.08ZM428.75,383c-1.41,1.32-2.85,2.31-2.72,2.61a12.16,12.16,0,0,0,3.05,4.71c.45.35,2.63-1.5,4-2.34Z"/><path class="cls-1" d="M425.8,361.8l-7.17,3.36c-2.64-.33-3.53-2.27-4.13-4.49-.42-1.54-.86-3.08-1.28-4.62.55-1.1,1.1-2.2,1.66-3.3l1.72-1.44.17-.06c5.63-.69,5.61-.68,7.18,4.71C424.52,357.92,425.18,359.85,425.8,361.8Z"/><path class="cls-1" d="M432.83,340.42c-.59,1.26-1.19,2.52-1.78,3.77a36.74,36.74,0,0,0-5.78,1c-4.11,1.39-7.21-.71-10.11-2.9-.94-.7-.92-2.68-1.33-4.07,1.67,0,4.34-.76,4.86,0,2.66,3.87,5.43,3.14,9,1.51C429,339.11,431.09,340.14,432.83,340.42Z"/><path class="cls-2" d="M460.3,370.13c.56-2,1.3-3.88-.54-5.73s-3.77-1.5-6.05-1c-1.2.25-3.57-.53-3.88-1.4-2.25-6.35-4.12-12.84-6.11-19.29q5.88,4.29,11.75,8.58c2.58,1.9,4.89,4.44,7.76,5.6,3.43,1.38,3.66,3.68,3.49,6.53-.18,3.16-1.62,5.49-4.72,6.55A7.32,7.32,0,0,1,460.3,370.13Z"/><path class="cls-2" d="M450.17,387.2a44.63,44.63,0,0,0-.54,5.13c0,2.15.32,4.3.5,6.45l-1.21.42c-1.1-.91-2.24-1.79-3.29-2.75a47.76,47.76,0,0,0-4-3.8c-2.39-1.69-4.16-3.32-2.17-6.48a4.22,4.22,0,0,0,.07-2.69c-.77-4.38,1.68-7.33,4.59-9.85,2.29-2,4.29-.14,6.12,1.3Z"/><path class="cls-2" d="M461.18,404.85a29.2,29.2,0,0,1-2.72-1.42c-1.61-1.06-1.41-2.22.05-3.25.65-.47,1.66-.63,2-1.22a21.13,21.13,0,0,0,1.49-3.52,8.92,8.92,0,0,0-3-.53c-4.06.7-6.44-.79-7.52-5,4.46,1.06,9,1.79,13.31,3.38,1.27.47,2.12,3.31,2.25,5.13.07,1.12-1.44,2.5-2.5,3.51S460.81,402,461.18,404.85Z"/><path class="cls-2" d="M443.52,342.58c-4.58-1.6-7-5-8.06-9.6Z"/><path class="cls-2" d="M435.3,332.81l-1.06-1.32Z"/><path class="cls-2" d="M451.06,388.65l-.06-.16Z"/><path class="cls-3" d="M349,483.85l5.74,1.7-3,2.15Z"/><path class="cls-3" d="M354.73,485.46l1.33-1.37Z"/><path class="cls-3" d="M247.58,461.33c6.52,2.93,14,3.77,19.3,9.36a3.2,3.2,0,0,0,2.53.63c4.42-.74,8.85-1.54,13.23-2.51,4.92-1.08,10,4,9.69,9.91-.16,3.1-.48,6.19-.73,9.29-3.14,1-6.23,2.23-9.44,2.94a147.43,147.43,0,0,1-16.61,3c-3.34.33-6.8-.56-10.21-.89a17.56,17.56,0,0,1,3.9-1.49c3.19-.41,6.47-.3,9.63-.87,1.21-.22,2.36-1.62,3.19-2.73.27-.35-.34-1.77-.92-2.29-3.18-2.87-6.65-5-11.26-3.58a11.43,11.43,0,0,1-3.4-.13c.4-1.68.69-2.84,1-4.13-2-.33-4.05-.18-5.59-1-4.8-2.47-9.82-1.78-14.84-1.6C237.93,468.6,240.75,463.45,247.58,461.33Z"/><path class="cls-2" d="M237.05,475.23c5-.18,10-.87,14.84,1.6,1.54.79,3.55.64,5.59,1-.31,1.29-.6,2.45-1,4.13a11.43,11.43,0,0,0,3.4.13c4.61-1.38,8.08.71,11.26,3.58.58.52,1.19,1.94.92,2.29-.83,1.11-2,2.51-3.19,2.73-3.16.57-6.44.46-9.63.87a17.56,17.56,0,0,0-3.9,1.49c-3.25-.79-6.62-1.25-9.7-2.46s-2.93-2.89-.29-4.81c1.38-1,3-2.63,3.11-4.1.09-1-2-2.64-3.41-3.23-2-.82-4.27-.8-6.35-1.4C238,476.84,237.59,475.85,237.05,475.23Z"/><path class="cls-3" d="M414.39,483a41.92,41.92,0,0,1-6-2.33c-1.86-1-1.94-2.94.21-3.5,3.18-.82,4.95-2.12,4.78-5.69-.05-1,1.29-2,2-3-.1,2.06-.22,4,1.78,5.57.62.5.32,2.9-.31,4s-2.18,1.53-3.56,2.41Z"/><path class="cls-2" d="M432.24,424.08c5.12.23,4.84.21,4.49,5.46-.18,2.86.76,5.8,1.2,8.7l.06,6.26a4.72,4.72,0,0,1-1.69-.07c-3.88-1.8-7.72-3.38-11.42,1.28l-.95-1c0-2.41-.34-4.88.08-7.22a55,55,0,0,1,2.71-9.08c.3-.81,1.54-1.25,2.35-1.88l3.14-2.48Z"/><path class="cls-1" d="M376.21,431.41a8.69,8.69,0,0,0,1.62-2.18c1.74-5,3.85-4.42,8.22-3.2,2.19.62,2.35,1.8.75,3.52a21.38,21.38,0,0,0-4.1,5.39c-2.21,4.93-3.38,5.23-7.14,1.18l.24-1.43.21-1.75C376.07,432.43,376.14,431.92,376.21,431.41Z"/><path class="cls-1" d="M380.24,414.32l2.62,1.38c-1.68,2.12-5.19,2.78-5,6.35a.34.34,0,0,1-.25.21c-5.12-.65-6.49,3.92-9.24,6.58-.2.19-.63.14-1.64.34a18.52,18.52,0,0,1,5.13-9.87,31.21,31.21,0,0,1,4.86-4C377.66,414.63,379,414.61,380.24,414.32Z"/><path class="cls-3" d="M356.4,442.18c-2.4-2.56-3.56-5.13-2-7.54.9-1.41,3.31-2.32,5.14-2.53,2.12-.25,3.26,1,1.64,3.25S358.1,439.73,356.4,442.18Z"/><path class="cls-3" d="M375.8,434.69l-.24,1.43-1.95.45-4.38-3.75a54,54,0,0,1,2.66-5.13,10.65,10.65,0,0,1,2.45-2.09,18.27,18.27,0,0,1,1.43,2.78,16.9,16.9,0,0,1,.44,3c-.07.51-.14,1-.2,1.54Z"/><path class="cls-1" d="M399.42,414.93l6.14-1c-.33,1.57-.22,3.49-1.1,4.64-1.11,1.43-3.39,3.43-4.53,3.08-2.57-.78-2.36-3.26-1.08-5.45C399.08,415.79,399.23,415.35,399.42,414.93Z"/><path class="cls-1" d="M363.94,428.11c-5.19-3.06-7.38,2.51-11.22,3.2,0-2.69,4-7.22,6.5-7.49S363.38,424.72,363.94,428.11Z"/><path class="cls-1" d="M369.23,432.82l4.38,3.75c-.57.09-1.23.41-1.69.23a6.78,6.78,0,0,0-8.34,2c-.35.41-1.17.42-2.45.83C362.92,435.53,365.43,433.42,369.23,432.82Z"/><path class="cls-1" d="M386.67,417.11l2.32,0c0,1.4.25,2.92-.2,4.16-.33.91-1.64,1.46-2.51,2.16a14.37,14.37,0,0,1-.64-3.44A10.21,10.21,0,0,1,386.67,417.11Z"/><path class="cls-1" d="M393.89,376.91l-.26.08-5.69-.37c0-1-.09-2-.13-3C390.37,373.74,393.59,372.6,393.89,376.91Z"/><path class="cls-1" d="M326.2,412.33l2.88-5.28,1.22.64c.31,2.41-1.15,3.95-3,5.28Z"/><path class="cls-1" d="M374.69,396.64c-1-1.42-2.07-2.79-2.95-4.28-.25-.42.06-1.17.12-1.77.69.12,1.87.07,2,.4.67,1.78,1.07,3.65,1.57,5.49Z"/><path class="cls-3" d="M356.79,393.5c2.42.6,4.3.8,5.91,1.56,1,.48,1.65,1.8,2.45,2.74-1.53.56-3.1,1.64-4.59,1.54s-3.12-1.19-4.5-2.12a2.51,2.51,0,0,1-.92-2.18C355.36,394.32,356.38,393.85,356.79,393.5Z"/><path class="cls-1" d="M331.24,314.49l-2.36,4.66c-2.19-1.87-2.15-5,.39-8.18Z"/><path class="cls-2" d="M415.13,451.85a34.53,34.53,0,0,1-1.92,3.85c-.91,1.41-2.13,2.61-3.07,4-1.21,1.78-2.08,3.83-3.49,5.4-.65.73-2.25.62-3.42.89-.1-1-.21-1.91-.3-2.86-.05-.43-.06-.86-.14-2l-8.7,5.75-.72-.69c.49-.94.92-1.91,1.47-2.81a89.52,89.52,0,0,1,5.68-9.06c.93-1.21,2.88-1.91,4.49-2.23a54.87,54.87,0,0,1,7.17-.52Z"/><path class="cls-1" d="M288.33,339.5c2.66,5-1.94,10.52-8.43,10.75C280.61,344.78,285.9,343.55,288.33,339.5Z"/><path class="cls-1" d="M289.94,378.53c-.87-1.32-2-2.34-1.77-2.81a19.28,19.28,0,0,1,2.56-3.63c.85,1.23,2,2.38,2.37,3.74C293.23,376.31,291.42,377.31,289.94,378.53Z"/><path class="cls-1" d="M399.27,331.24l-1.92,3-.63.75-.15.09-8.11,5.24c-1.33-4.92-6.06-5.43-9.32-7.8l-6.79-8.79c-.8-2.05-.62-3.66,1.44-5.07a6.26,6.26,0,0,0,2-3.35c1-3.52,2.75-4.64,6.05-3.21a15.78,15.78,0,0,1,5.51,3.44c2.95,3.27,5.47,6.93,8.14,10.45C396.76,327.72,398,329.49,399.27,331.24Z"/><path class="cls-2" d="M379.14,332.53c3.26,2.37,8,2.88,9.32,7.8l8.11-5.24c-2.61,6-1.76,8.23,4.34,11.41.9.47,1.79.95,3.13,1.67-4.12,5.44-3.32,11-1.7,16.93.87,3.18-2.21,4.39-5,5,.54-2,1.4-4.05,1.54-6.11.18-2.61-.38-5.26-.35-7.9.06-4.71-.31-5.33-4.89-6.68-1.1-.32-2.23-.58-3.3-1-2.44-1-3.75-.17-4,2.44a71.92,71.92,0,0,1-5.23-5.69c-.75-1-1.41-2.75-1-3.75C381.36,338.17,380.25,335.39,379.14,332.53Z"/><path class="cls-1" d="M386.4,350.86c.23-2.61,1.54-3.4,4-2.44,1.07.42,2.2.68,3.3,1,4.58,1.35,4.95,2,4.89,6.68,0,2.64.53,5.29.35,7.9-.14,2.06-1,4.08-1.54,6.11l-.19.06-6.23-.51c-.81-3.06-2.31-6.07.13-9.2.4-.53-.29-2.14-.79-3.08C389.1,355.15,387.71,353,386.4,350.86Z"/><path class="cls-2" d="M391,369.66l6.23.51a11.09,11.09,0,0,1-.64,3.21,26.11,26.11,0,0,1-2.66,3.53c-.3-4.31-3.52-3.17-6.08-3.25C387.36,371.15,388.16,369.62,391,369.66Z"/><path d="M432.21,424.09c-4.13,1-8.66.49-11.9,4.41-.78.95-3.54.26-5.39.33l-4.15.13c-1.32-5.24-.8-5.88,5.08-6.41a2.91,2.91,0,0,1,.22.51c1,2.62,3,3.43,5.1,1.49,1.76-1.65,2.74-4.12,4.27-6.07,1.28-1.63,2.85-3,4.29-4.55l.16.23,1.28,1.34,3.75,1.39c2.67.18,2.86-1.85,2.36-3.41-1.28-4-.62-7.59,1.19-11.28,1.16-2.37.35-4.49-2.34-5.52l-.16-.05c2.13-3.5,3.49-3.67,6.29-.73.72.75,1.74,1.54,1.89,2.43.86,5.14,5.1,5.31,8.83,6.28.44.11.92.09,1.38.16,4.21.6,6,2.31,5.45,5.17-.62,3.15-2.91,4-7.13,2.78-3.07-.92-3.72-.28-3.24,2.88.69,4.43,1.88,8.91,1.6,13.29-.13,2.09-2.78,4.91-4.93,5.74-2.6,1-3.35-2.05-3.82-4.19a22.82,22.82,0,0,1-.21-3.8c-.2-4.89-2.46-6.36-7-4.44a17.66,17.66,0,0,0-2.81,1.88Z"/><path class="cls-2" d="M416.07,423.06a2.91,2.91,0,0,0-.22-.51c-1.16-2.35-2.16-4.79-3.51-7-2.68-4.43-2.49-5.11,1.86-7.6,3.21-1.84,7.59-1.83,9.43-5.88.6-1.33,1.34-2.59,2-3.89a29.43,29.43,0,0,1,2.23-4.24c1.53-2,3.31-2.32,5.14-.15a38.3,38.3,0,0,0,3,2.86l.16.05c-.41,2.41-.87,4.82-1.23,7.24a40.88,40.88,0,0,0-.65,6.11c0,2.29.43,4.57.67,6.86l-3.75-1.39-1.28-1.34-.16-.23c-1.34-2.41-3-2.07-4.21-.1a72.26,72.26,0,0,0-3.63,7.06C420.62,423.51,418.85,424.61,416.07,423.06Zm5.43-11L418,408c-1.36,1.54-3.11,2.92-3.86,4.72-.28.67,1.79,2.32,2.79,3.52Z"/><path class="cls-2" d="M413.22,356.05c.42,1.54.86,3.08,1.28,4.62.6,2.22,1.49,4.16,4.13,4.49-1.81,3.81-3.5,7.69-5.48,11.41-.87,1.64-2.34,3-3.48,4.46-.66.87-1.72,1.79-1.74,2.71-.09,3.4-1.33,5.27-5.31,4.5.35,4,1,8-3.74,9.63,3.05-6.52,2.9-7.24-2.28-10.77,3-1.75,4.11-6,8.3-6.28.62,0,1.16-1.26,1.73-1.94.59-3.31,1.26-6.61,1.65-9.94.05-.38-1.47-.93-2.27-1.4.55-3.1,1.39-5.89,4.49-7.65C411.73,359.19,412.33,357.36,413.22,356.05Z"/><path class="cls-2" d="M410.77,429l4.15-.13c-.79,3.27-1.56,6.56-2.39,9.83-.36,1.43-.48,3.16-1.38,4.18a5.37,5.37,0,0,1-4,1.8c-1-.13-2.27-1.84-2.59-3.07C403.06,435.71,406.53,432.1,410.77,429Z"/><path class="cls-2" d="M420,375.13c.68,1.55,1.07,2,1,2.33-.91,3.85.73,7,2.69,10.05a8.25,8.25,0,0,1,.54,2.8,10,10,0,0,1-3,.17c-4.12-1-5.11-3.33-3.56-7.44.38-1,.09-2.29.38-3.37A44.17,44.17,0,0,1,420,375.13Z"/><path class="cls-2" d="M428,379.18c-.89-1.26-2.72-2.68-2.52-3.74,1.21-6.58,2.85-13.08,4.41-19.59.14-.56.76-1,1.67-2.16,1.05,4.4,1.35,8,0,11.7L430.3,364l-1.1.09Z"/><path class="cls-1" d="M396.6,387.1c5.18,3.53,5.33,4.25,2.28,10.77h-2.55l-1.88-.61-.81-.31c-.15-1-.29-2-.44-3C394.33,391.68,395.47,389.39,396.6,387.1Z"/><path class="cls-1" d="M398.46,403.32l5.64-2.54a31.58,31.58,0,0,1-.05,5.59c-.23,1.31-1.23,2.49-1.89,3.73-1.2-.9-2.46-1.73-3.59-2.72a6.3,6.3,0,0,1-1-1.76C397.85,404.85,398.16,404.09,398.46,403.32Z"/><path class="cls-2" d="M416,393.08c-.23,2.92-.36,5.85-.81,8.74-.07.48-2,1.26-2.26,1-1.21-1.07-3.25-2.93-2.95-3.66,1-2.47,2.91-4.57,4.47-6.82Z"/><path d="M428.75,383l4.34,5c-1.38.84-3.56,2.69-4,2.34a12.16,12.16,0,0,1-3.05-4.71C425.9,385.31,427.34,384.32,428.75,383Z"/><path class="cls-2" d="M398.46,403.32c-.3.77-.61,1.53-.91,2.3a20.9,20.9,0,0,0-2.69,2.89c-.54.8-.39,2.09-1,2.83-.7.9-2,2.16-2.74,2-1-.24-1.61-1.72-2.39-2.67l2.37.39c.67-2.79,1.23-5.08,1.78-7.37Z"/><path class="cls-1" d="M428,379.18l1.2-15.09,1.1-.09,1.23,1.39-.33,4.34q-1.56,4.74-3.1,9.46Z"/><path class="cls-1" d="M392.92,403.67c-.55,2.29-1.11,4.58-1.78,7.37l-2.37-.39-.63-6.38,2.46-.75Z"/><path class="cls-2" d="M390.6,403.52l-2.46.75c-.38-.78-.76-1.57-1.13-2.36l2.91-2.73-3-1.56L393.2,394c.15,1,.29,2,.44,3Q392.13,400.25,390.6,403.52Z"/><path class="cls-1" d="M406,367.54c.8.47,2.32,1,2.27,1.4-.39,3.33-1.06,6.63-1.65,9.94l0,.07-.75-5.11C405.9,371.74,406,369.64,406,367.54Z"/><path class="cls-2" d="M428.1,379.19q1.54-4.72,3.1-9.46c.44,2.83,1.49,5.73,1.14,8.46S429.74,381.3,428.1,379.19Z"/><path class="cls-1" d="M386.92,397.62l3,1.56L387,401.91C384.08,400.54,385.53,399.08,386.92,397.62Z"/><path class="cls-2" d="M405.85,373.84l.75,5.11C404.11,377.58,404.56,375.77,405.85,373.84Z"/><path class="cls-2" d="M394.45,397.27l1.88.61Z"/><path class="cls-2" d="M416.6,351.31l-1.72,1.44Z"/><path class="cls-2" d="M396.72,335l.63-.75Z"/><path class="cls-2" d="M375.8,434.69,376,433Z"/><path class="cls-3" d="M434.92,416.89c-.24-2.29-.65-4.57-.67-6.86a40.88,40.88,0,0,1,.65-6.11c.36-2.42.82-4.83,1.23-7.24,2.69,1,3.5,3.15,2.34,5.52-1.81,3.69-2.47,7.26-1.19,11.28C437.78,415,437.59,417.07,434.92,416.89Z"/><path class="cls-3" d="M416.07,423.06c2.78,1.55,4.55.45,5.82-2.17a72.26,72.26,0,0,1,3.63-7.06c1.25-2,2.87-2.31,4.21.1-1.44,1.51-3,2.92-4.29,4.55-1.53,1.95-2.51,4.42-4.27,6.07C419.1,426.49,417.07,425.68,416.07,423.06Z"/><path class="cls-3" d="M429.89,414.16l1.28,1.34Z"/><path class="cls-1" d="M421.5,412,417,416.23c-1-1.2-3.07-2.85-2.79-3.52.75-1.8,2.5-3.18,3.86-4.72Z"/></svg>