<?xml version="1.0" standalone="no"?>
<!DOCTYPE svg PUBLIC "-//W3C//DTD SVG 20010904//EN"
 "http://www.w3.org/TR/2001/REC-SVG-20010904/DTD/svg10.dtd">
<svg version="1.0" xmlns="http://www.w3.org/2000/svg"
 width="450.000000pt" height="253.000000pt" viewBox="0 0 450.000000 253.000000"
 preserveAspectRatio="xMidYMid meet">
<metadata>
Created by potrace 1.16, written by Peter Selinger 2001-2019
</metadata>
<g transform="translate(0.000000,253.000000) scale(0.100000,-0.100000)"
fill="#000000" stroke="none">
<path d="M0 1265 l0 -1265 2250 0 2250 0 0 1265 0 1265 -2250 0 -2250 0 0
-1265z m2773 634 c42 -12 77 -25 77 -30 0 -5 3 -8 8 -8 4 1 10 0 15 -1 4 -1
10 -3 15 -4 29 -7 52 -19 52 -27 0 -5 3 -8 8 -7 13 4 52 -13 52 -23 0 -5 7 -9
15 -9 7 0 19 -8 24 -17 6 -10 11 -14 11 -10 0 4 7 2 15 -5 56 -48 80 -75 79
-88 0 -8 -2 -23 -2 -32 -2 -19 -42 -61 -51 -53 -2 3 5 14 17 25 22 21 29 39
15 41 -51 4 -166 3 -169 -3 -2 -3 -17 -5 -32 -3 -15 1 -32 -2 -39 -7 -7 -6
-14 -5 -18 3 -6 8 -10 7 -16 -2 -5 -8 -9 -9 -9 -3 0 6 -13 9 -30 6 -17 -2 -38
2 -47 9 -9 8 -14 9 -10 2 5 -7 0 -9 -14 -6 -16 4 -18 8 -7 14 9 6 6 9 -12 9
-14 0 -45 2 -70 3 -25 2 -52 0 -61 -4 -9 -5 -20 -5 -24 -1 -3 4 -14 7 -23 7
-29 1 -92 28 -92 40 0 6 7 20 15 31 20 26 19 38 -8 65 -23 23 -37 86 -17 74 6
-3 10 -1 10 5 0 6 4 9 9 6 5 -4 11 -1 13 5 5 15 102 28 168 23 30 -3 90 -14
133 -25z m-551 -23 c6 -8 8 -7 8 2 0 9 15 12 53 11 106 -4 114 -32 22 -77 -56
-28 -65 -37 -71 -66 -6 -36 -23 -45 -79 -46 -16 0 -37 -4 -45 -9 -8 -6 -18 -7
-23 -4 -5 3 -4 9 3 13 7 4 9 13 6 19 -11 18 -44 13 -66 -11 -11 -12 -20 -17
-20 -11 0 6 7 16 15 23 25 20 18 40 -14 40 -21 0 -28 5 -27 18 1 12 -6 17 -22
16 -17 0 -21 4 -16 18 4 12 0 18 -11 18 -11 0 -15 5 -11 15 7 18 -26 34 -62
30 -13 -1 -20 1 -15 6 19 19 363 15 375 -5z m-368 -62 c7 -30 6 -30 -29 -26
-19 2 -38 8 -40 13 -3 4 -12 6 -20 3 -8 -4 -13 -10 -10 -14 3 -4 -2 -13 -10
-20 -8 -7 -15 -21 -15 -31 0 -18 -37 -46 -47 -35 -8 8 -33 -13 -33 -27 0 -7 4
-7 12 1 17 17 39 15 32 -2 -9 -23 73 10 113 45 39 33 40 34 40 15 0 -8 -11
-17 -25 -21 -19 -5 -22 -8 -12 -20 7 -8 22 -15 33 -15 20 0 20 0 1 -14 -13
-10 -34 -13 -65 -9 -31 4 -55 0 -75 -10 -16 -9 -23 -16 -15 -17 11 0 10 -3 -4
-13 -11 -9 -15 -19 -10 -27 4 -7 10 -8 14 -2 3 5 21 13 40 17 26 5 32 4 28 -6
-2 -8 -10 -13 -16 -11 -25 5 -10 -38 19 -53 17 -9 30 -17 30 -18 0 -1 -20 -1
-44 1 -25 2 -53 -1 -63 -7 -14 -8 -9 -9 25 -8 l43 3 -5 -66 c-2 -36 -5 -67 -5
-69 -1 -2 -9 3 -18 10 -11 10 -14 10 -9 2 4 -8 2 -13 -8 -13 -8 0 -16 -5 -18
-11 -2 -7 -12 -7 -32 0 -28 11 -51 6 -41 -9 3 -5 0 -12 -6 -16 -7 -4 -9 -3 -5
4 3 6 -1 18 -10 26 -8 9 -12 16 -7 16 4 0 7 14 7 30 -2 47 -3 52 -12 46 -11
-7 2 101 18 150 7 21 24 56 37 76 12 21 23 41 23 45 0 15 74 88 89 88 10 0 16
9 16 25 0 17 7 26 25 30 31 7 55 -14 64 -56z m543 -1 c-4 -3 -2 -12 5 -20 9
-11 7 -12 -8 -7 -17 5 -18 4 -2 -8 15 -13 15 -16 -4 -38 -11 -14 -17 -19 -13
-12 3 6 0 15 -9 18 -12 5 -11 11 6 40 11 19 23 34 26 34 3 0 2 -3 -1 -7z
m-507 -107 c0 -3 -4 -8 -10 -11 -5 -3 -10 -1 -10 4 0 6 5 11 10 11 6 0 10 -2
10 -4z m20 -41 c0 -2 -9 -9 -20 -15 -12 -6 -20 -7 -20 -1 0 5 8 12 18 14 9 3
18 5 20 6 1 0 2 -1 2 -4z"/>
<path d="M2460 1870 c-9 -6 -10 -10 -3 -10 6 0 15 5 18 10 8 12 4 12 -15 0z"/>
<path d="M2715 1741 c11 -4 40 -15 65 -24 25 -8 53 -18 64 -23 18 -7 18 -6 1
20 -14 20 -20 24 -26 14 -5 -7 -9 -8 -9 -3 0 6 -10 11 -22 12 -13 1 -39 4 -58
7 -24 4 -29 3 -15 -3z"/>
<path d="M2025 1870 c-8 -13 25 -13 45 0 12 8 9 10 -12 10 -15 0 -30 -4 -33
-10z"/>
<path d="M2098 1873 c7 -3 16 -2 19 1 4 3 -2 6 -13 5 -11 0 -14 -3 -6 -6z"/>
<path d="M2248 1873 c7 -3 16 -2 19 1 4 3 -2 6 -13 5 -11 0 -14 -3 -6 -6z"/>
<path d="M2148 1833 c7 -3 16 -2 19 1 4 3 -2 6 -13 5 -11 0 -14 -3 -6 -6z"/>
<path d="M1613 1528 c-20 -26 -24 -42 -5 -21 11 12 23 19 27 15 5 -4 5 -1 1 6
-4 6 -9 12 -10 12 -2 0 -8 -6 -13 -12z"/>
</g>
</svg>
