<?xml version="1.0" standalone="no"?>
<!DOCTYPE svg PUBLIC "-//W3C//DTD SVG 20010904//EN"
 "http://www.w3.org/TR/2001/REC-SVG-20010904/DTD/svg10.dtd">
<svg version="1.0" xmlns="http://www.w3.org/2000/svg"
 width="450.000000pt" height="253.000000pt" viewBox="0 0 450.000000 253.000000"
 preserveAspectRatio="xMidYMid meet">
<metadata>
Created by potrace 1.16, written by Peter Selinger 2001-2019
</metadata>
<g transform="translate(0.000000,253.000000) scale(0.100000,-0.100000)"
fill="#000000" stroke="none">
<path d="M0 1265 l0 -1265 2250 0 2250 0 0 1265 0 1265 -2250 0 -2250 0 0
-1265z m2812 626 c32 -12 60 -22 63 -22 2 0 40 -18 82 -40 94 -49 174 -109
193 -144 18 -34 3 -98 -25 -104 -20 -3 -20 -3 -1 17 32 36 15 49 -61 50 -37 1
-78 4 -91 6 -13 3 -20 1 -17 -5 4 -5 11 -6 17 -3 6 4 8 3 5 -3 -7 -12 -37 -11
-57 2 -20 12 -40 15 -40 6 0 -11 -51 -8 -69 3 -10 6 -12 5 -7 -2 4 -7 -8 -5
-30 4 -19 8 -33 11 -31 7 3 -5 -3 -9 -14 -9 -13 0 -18 5 -14 15 5 12 3 12 -12
0 -11 -9 -14 -10 -9 -1 11 18 -21 27 -50 13 -14 -6 -23 -8 -21 -4 3 5 -10 8
-29 8 -26 0 -33 -4 -29 -14 4 -10 -1 -9 -15 4 -11 10 -20 15 -20 11 0 -4 -6
-4 -12 1 -7 4 -22 9 -33 10 -28 5 -36 25 -18 45 22 25 19 67 -6 85 -21 14 -21
16 -4 29 17 13 16 14 -12 12 -20 -2 -34 -11 -42 -28 l-13 -25 0 29 c0 16 3 26
7 23 3 -4 13 -1 22 7 56 50 280 59 393 17z m-714 0 c73 -1 111 -5 107 -11 -4
-6 6 -10 22 -10 22 0 25 2 13 10 -11 7 -2 10 33 10 26 0 47 -4 47 -9 0 -5 8
-7 19 -4 10 3 22 -1 26 -8 10 -15 -30 -46 -70 -55 -50 -10 -73 -30 -68 -58 6
-28 -25 -51 -55 -42 -10 4 -34 -3 -55 -13 -24 -12 -39 -15 -44 -8 -3 5 -2 7 3
4 6 -3 15 3 22 13 19 31 -23 38 -60 10 -29 -21 -29 -21 -19 -1 6 11 19 24 28
30 14 8 11 11 -19 16 -23 4 -40 14 -43 25 -4 13 -13 17 -31 14 -22 -4 -25 -2
-19 17 5 16 4 19 -6 14 -9 -6 -11 -2 -7 13 6 23 -6 31 -50 34 -15 0 -4 4 23 7
28 3 59 5 70 4 11 -1 71 -2 133 -2z m-260 -23 c7 -7 12 -21 12 -33 0 -12 5
-26 11 -32 9 -9 7 -11 -7 -8 -11 2 -27 4 -38 4 -13 1 -16 6 -11 19 5 14 4 15
-6 5 -18 -18 -30 -16 -23 2 4 9 0 15 -10 15 -20 0 -10 27 12 33 31 8 48 7 60
-5z m-118 -79 c-14 -24 -4 -40 11 -19 8 11 9 9 4 -10 -8 -27 -31 -50 -52 -50
-7 0 -17 -9 -22 -19 -9 -16 -8 -18 9 -14 11 3 20 1 20 -5 0 -9 39 3 114 33 13
6 17 5 12 -3 -11 -19 14 -24 39 -8 35 23 38 20 9 -9 -22 -22 -34 -26 -77 -24
-64 3 -100 -8 -93 -27 3 -8 2 -14 -2 -14 -4 0 -12 -11 -18 -24 -9 -20 -9 -23
7 -19 11 3 17 9 14 13 -5 8 43 20 74 20 14 -1 13 -3 -3 -15 -10 -8 -23 -12
-27 -9 -12 7 -11 -3 1 -26 5 -10 21 -21 35 -24 45 -11 26 -21 -37 -19 -61 1
-62 1 -25 -10 20 -6 38 -16 38 -24 1 -7 2 -19 3 -25 1 -7 -4 -32 -11 -56 -7
-23 -10 -50 -7 -60 2 -9 -2 -3 -10 13 -12 24 -15 26 -16 10 -1 -11 -3 -15 -6
-10 -5 12 -81 12 -92 0 -4 -5 -2 -5 4 -2 7 4 15 0 18 -8 7 -20 -23 -33 -34
-15 -5 7 -4 24 1 37 5 12 5 23 0 23 -5 0 -11 11 -13 24 -4 19 -1 23 11 19 11
-4 11 -1 -3 9 -16 13 -18 23 -12 76 4 34 14 79 22 99 26 61 109 193 122 193 1
0 -2 -9 -8 -21z m680 -16 c0 -49 0 -48 -18 -45 -14 3 -14 2 -1 -15 12 -16 12
-17 -2 -6 -9 7 -19 11 -22 8 -4 -3 -5 -2 -2 2 3 3 1 11 -4 17 -13 15 15 73 34
73 10 0 15 -11 15 -34z m30 23 c0 -3 -4 -8 -10 -11 -5 -3 -10 -1 -10 4 0 6 5
11 10 11 6 0 10 -2 10 -4z m-573 -62 c-2 -3 -15 -7 -28 -9 -23 -4 -23 -4 -5
10 16 12 45 11 33 -1z m1243 -148 c0 -2 -8 -10 -17 -17 -16 -13 -17 -12 -4 4
13 16 21 21 21 13z m-100 -40 c0 -2 -7 -7 -16 -10 -8 -3 -12 -2 -9 4 6 10 25
14 25 6z m-95 -36 c3 -5 1 -10 -4 -10 -6 0 -11 5 -11 10 0 6 2 10 4 10 3 0 8
-4 11 -10z m-65 -6 c0 -8 -19 -13 -24 -6 -3 5 1 9 9 9 8 0 15 -2 15 -3z"/>
<path d="M2708 1753 c7 -3 16 -2 19 1 4 3 -2 6 -13 5 -11 0 -14 -3 -6 -6z"/>
<path d="M2741 1746 c2 -3 22 -11 44 -19 22 -8 48 -18 58 -22 21 -9 23 11 2
31 -9 9 -15 11 -15 4 0 -7 -6 -8 -19 0 -19 9 -79 15 -70 6z"/>
<path d="M2020 1870 c0 -13 40 -13 60 0 11 7 5 10 -22 10 -21 0 -38 -4 -38
-10z"/>
<path d="M2135 1841 c-6 -10 82 -7 92 3 4 3 -14 6 -40 6 -25 0 -48 -4 -52 -9z"/>
<path d="M1611 1517 c-13 -21 -12 -21 5 -5 10 10 16 20 13 22 -3 3 -11 -5 -18
-17z"/>
<path d="M1710 1465 c-10 -12 -10 -15 2 -15 8 0 15 7 15 15 0 8 -1 15 -2 15
-2 0 -8 -7 -15 -15z"/>
</g>
</svg>
