<?xml version="1.0" standalone="no"?>
<!DOCTYPE svg PUBLIC "-//W3C//DTD SVG 20010904//EN"
 "http://www.w3.org/TR/2001/REC-SVG-20010904/DTD/svg10.dtd">
<svg version="1.0" xmlns="http://www.w3.org/2000/svg"
 width="450.000000pt" height="253.000000pt" viewBox="0 0 450.000000 253.000000"
 preserveAspectRatio="xMidYMid meet">
<metadata>
Created by potrace 1.16, written by Peter Selinger 2001-2019
</metadata>
<g transform="translate(0.000000,253.000000) scale(0.100000,-0.100000)"
fill="#000000" stroke="none">
<path d="M0 1265 l0 -1265 2250 0 2250 0 0 1265 0 1265 -2250 0 -2250 0 0
-1265z m2100 606 c-63 -8 -64 -31 -2 -31 27 0 52 3 56 7 4 4 62 8 131 9 97 2
125 -1 129 -12 6 -15 3 -18 -83 -61 -36 -17 -69 -30 -73 -27 -4 3 -8 0 -8 -5
0 -6 5 -11 11 -11 6 0 9 -12 7 -27 -2 -22 -9 -29 -32 -31 -23 -3 -28 0 -23 13
6 15 5 15 -15 0 -28 -19 -38 -19 -38 -1 0 8 -12 17 -27 20 -35 8 -96 38 -105
51 -4 5 3 15 15 22 21 12 20 13 -8 7 -16 -4 -32 -7 -35 -8 -3 0 -6 2 -7 7 -7
18 -2 27 14 27 14 0 15 2 4 13 -11 10 -14 10 -18 0 -8 -22 -32 -15 -26 7 4 15
-1 21 -23 25 -16 4 -33 8 -39 10 -5 2 46 3 115 3 74 -1 106 -4 80 -7z m560 -2
c0 -7 10 -9 25 -5 14 4 25 2 25 -4 0 -5 14 -10 30 -10 17 0 30 -4 30 -10 0 -5
7 -7 15 -4 8 4 15 1 15 -5 0 -6 11 -11 24 -11 14 0 31 -7 39 -15 8 -8 17 -11
21 -8 3 4 6 1 6 -5 0 -7 3 -11 8 -11 21 4 42 -2 42 -12 0 -5 -6 -7 -12 -3 -8
4 -10 3 -5 -2 8 -9 13 -10 40 -13 8 0 27 -12 42 -25 16 -14 34 -22 39 -19 6 3
8 3 4 -2 -5 -5 1 -15 12 -22 11 -8 18 -19 14 -24 -3 -5 0 -8 8 -7 8 2 14 -8
15 -27 1 -16 0 -23 -3 -15 -4 12 -21 16 -75 16 -50 1 -74 5 -80 15 -5 8 -9 9
-9 3 0 -7 -11 -11 -25 -10 -14 0 -25 4 -25 9 0 4 -5 7 -11 7 -5 0 -7 -5 -3
-12 4 -7 3 -8 -5 -4 -9 6 -9 11 1 24 12 14 10 14 -9 3 -20 -10 -23 -9 -24 6
-1 10 -1 21 0 25 0 5 -3 7 -8 5 -5 -1 -23 10 -40 26 -40 35 -48 34 -21 -3 12
-17 16 -28 8 -25 -47 16 -158 26 -158 14 0 -5 11 -9 25 -9 17 0 23 -4 19 -14
-7 -18 -50 -26 -65 -12 -9 8 -10 8 -5 0 4 -8 -6 -12 -32 -12 -27 0 -32 2 -17
8 11 4 25 5 30 3 6 -2 2 2 -9 11 -14 11 -22 12 -36 3 -10 -6 -17 -14 -14 -18
2 -4 -8 -4 -23 0 -36 10 -38 21 -8 53 26 28 21 39 -22 52 -26 8 -30 28 -8 46
8 7 15 9 15 5 0 -4 6 -3 13 3 10 9 91 18 107 12 24 -8 39 -6 44 6 4 10 -2 14
-20 14 -14 0 -23 4 -20 8 8 13 76 13 76 1z m-810 -19 c10 0 22 -5 26 -12 4 -7
3 -8 -5 -4 -8 5 -10 0 -7 -19 3 -15 3 -25 0 -22 -4 3 -18 1 -33 -4 l-26 -9 25
21 c27 22 22 22 -22 0 -16 -8 -28 -18 -28 -23 0 -5 -5 -6 -12 -2 -6 4 -8 3 -5
-3 10 -15 -42 -63 -68 -63 -14 0 -25 -2 -25 -4 0 -2 -3 -11 -6 -20 -4 -10 -1
-16 9 -16 8 0 17 -7 21 -15 4 -11 -2 -15 -19 -16 -38 -2 -43 -3 -52 -13 -5 -6
-2 -6 7 -1 13 8 13 7 1 -8 -12 -15 -11 -17 3 -17 9 0 16 7 16 15 0 17 16 20
25 6 3 -5 0 -13 -6 -17 -8 -4 -7 -9 2 -15 11 -7 11 -9 -2 -9 -19 0 -65 -38
-62 -51 2 -5 -2 -9 -8 -9 -5 0 -8 -4 -4 -9 7 -12 65 20 65 36 0 16 60 36 61
20 1 -7 3 -21 4 -32 2 -17 -3 -21 -26 -19 -17 1 -35 -6 -45 -17 -14 -16 -15
-19 -2 -19 8 0 18 3 22 7 4 4 17 8 30 9 27 1 29 -12 13 -79 -8 -37 -13 -44
-18 -30 -7 17 -8 17 -9 -2 l-1 -20 -9 20 c-7 17 -9 17 -9 3 -1 -10 -5 -18 -11
-18 -5 0 -7 7 -3 16 5 14 2 14 -30 1 -34 -15 -35 -15 -40 9 -2 13 -1 21 3 19
4 -3 8 7 8 21 0 17 -5 24 -14 20 -16 -6 -19 20 -4 29 6 3 10 11 10 16 0 6 -4
8 -9 5 -8 -5 -6 16 5 52 2 7 4 16 4 20 4 35 125 209 152 218 10 3 16 9 13 14
-3 4 5 6 17 2 21 -5 22 -4 8 14 -8 10 -11 16 -6 12 4 -4 18 2 29 13 12 11 23
15 25 9 2 -5 12 -10 22 -10z m-55 -185 c-16 -7 -36 -10 -45 -7 -10 5 -6 8 15
13 49 11 62 8 30 -6z m964 -12 c9 -2 22 -5 29 -6 7 -2 18 -9 25 -17 10 -10 9
-11 -3 -4 -8 5 -23 9 -32 10 -10 1 -24 2 -31 3 -7 0 -18 11 -26 24 -13 20 -13
21 3 7 10 -8 25 -16 35 -17z m-1005 -61 c3 -5 -1 -9 -9 -9 -8 0 -12 4 -9 9 3
4 7 8 9 8 2 0 6 -4 9 -8z m1336 -6 c0 -2 -8 -10 -17 -17 -16 -13 -17 -12 -4 4
13 16 21 21 21 13z m-1305 -76 c3 -6 -1 -7 -9 -4 -18 7 -21 14 -7 14 6 0 13
-4 16 -10z"/>
<path d="M2186 1841 c-4 -6 -16 -11 -26 -11 -10 0 -21 -4 -24 -8 -3 -5 17 -8
43 -8 26 -1 53 -4 59 -8 7 -4 15 -1 18 8 3 9 11 13 17 9 5 -3 7 -2 4 4 -3 5
-20 8 -38 5 -19 -3 -34 0 -39 8 -5 9 -9 9 -14 1z"/>
<path d="M2298 1823 c6 -2 18 -2 25 0 6 3 1 5 -13 5 -14 0 -19 -2 -12 -5z"/>
<path d="M1695 1460 c-3 -5 -1 -10 4 -10 6 0 11 5 11 10 0 6 -2 10 -4 10 -3 0
-8 -4 -11 -10z"/>
<path d="M1670 1426 c-9 -12 -8 -15 9 -13 12 1 21 7 21 14 0 17 -15 16 -30 -1z"/>
</g>
</svg>
