<?xml version="1.0" standalone="no"?>
<!DOCTYPE svg PUBLIC "-//W3C//DTD SVG 20010904//EN"
 "http://www.w3.org/TR/2001/REC-SVG-20010904/DTD/svg10.dtd">
<svg version="1.0" xmlns="http://www.w3.org/2000/svg"
 width="450.000000pt" height="253.000000pt" viewBox="0 0 450.000000 253.000000"
 preserveAspectRatio="xMidYMid meet">
<metadata>
Created by potrace 1.16, written by Peter Selinger 2001-2019
</metadata>
<g transform="translate(0.000000,253.000000) scale(0.100000,-0.100000)"
fill="#000000" stroke="none">
<path d="M0 1265 l0 -1265 2250 0 2250 0 0 1265 0 1265 -2250 0 -2250 0 0
-1265z m2627 1133 c18 -7 33 -15 33 -18 0 -4 26 -5 58 -2 110 9 158 5 205 -16
66 -29 150 -112 198 -195 48 -84 64 -97 146 -118 59 -16 63 -16 79 2 48 53
144 48 289 -18 142 -64 140 -62 169 -90 36 -34 49 -68 47 -128 -3 -64 -14 -80
-132 -195 -105 -104 -127 -118 -239 -151 -41 -12 -77 -24 -79 -25 -2 -2 12
-27 32 -56 20 -29 42 -75 50 -103 32 -114 13 -256 -39 -292 -14 -10 -34 -25
-43 -33 -27 -24 -82 -49 -131 -60 -133 -29 -370 7 -507 78 -31 15 -33 15 -55
-5 -13 -11 -33 -24 -46 -28 -23 -7 -36 -28 -46 -76 -3 -15 -29 -49 -57 -77
-69 -68 -176 -114 -272 -117 -115 -4 -175 38 -219 152 -44 113 -49 144 -38
220 14 105 10 113 -64 114 -187 4 -250 20 -401 102 -33 19 -95 85 -95 104 0 6
-5 13 -10 15 -6 2 -11 32 -12 68 -1 59 2 71 33 120 40 62 92 111 149 140 21
11 41 24 45 29 3 6 28 22 56 38 47 25 49 28 32 40 -58 42 -135 132 -162 188
-53 109 -57 245 -8 245 10 0 16 4 12 9 -3 6 27 20 67 33 105 32 276 35 373 6
40 -12 105 -22 153 -23 l82 -3 46 44 c91 85 205 117 301 82z"/>
<path d="M2705 1900 c-8 -13 5 -13 25 0 13 8 13 10 -2 10 -9 0 -20 -4 -23 -10z"/>
<path d="M2884 1889 c3 -15 36 -21 36 -7 0 6 -6 8 -14 5 -8 -3 -17 -2 -20 4
-2 5 -3 4 -2 -2z"/>
<path d="M2640 1866 c0 -14 5 -28 11 -32 6 -3 9 -17 6 -30 -5 -28 3 -36 22
-24 11 6 11 16 0 59 -13 53 -39 70 -39 27z"/>
<path d="M2422 1775 c-11 -24 -10 -25 18 -25 20 0 30 5 30 15 0 8 6 15 13 15
18 0 -15 20 -34 20 -9 0 -21 -11 -27 -25z"/>
<path d="M2621 1766 c-8 -10 -9 -16 -1 -21 7 -4 5 -11 -5 -21 -30 -30 -8 -107
37 -130 23 -12 27 -18 18 -28 -8 -10 -7 -15 5 -19 10 -5 13 -15 9 -35 -5 -27
-4 -28 33 -28 40 0 56 11 48 36 -7 24 7 37 60 57 43 16 50 23 53 48 2 17 11
38 19 47 14 16 14 18 -1 24 -24 9 -76 -15 -76 -37 0 -9 -13 -27 -29 -38 -24
-18 -34 -19 -60 -10 -17 6 -31 17 -31 25 0 8 -11 19 -24 25 -38 18 -41 49 -5
62 36 14 37 23 4 31 -14 4 -25 11 -25 16 0 14 -16 12 -29 -4z"/>
<path d="M2340 1742 c0 -4 7 -17 15 -28 8 -10 15 -27 15 -37 0 -10 7 -20 15
-23 8 -4 15 -12 15 -20 0 -22 26 -16 43 10 15 22 15 24 -2 29 -10 2 -24 18
-32 36 -8 17 -18 29 -24 27 -5 -2 -18 1 -27 6 -10 5 -18 5 -18 0z"/>
<path d="M2526 1708 c3 -5 10 -6 15 -3 13 9 11 12 -6 12 -8 0 -12 -4 -9 -9z"/>
<path d="M1551 1616 c-6 -7 -8 -16 -4 -19 3 -4 0 -7 -7 -7 -7 0 -10 -3 -7 -7
4 -3 -3 -21 -14 -39 -11 -19 -18 -38 -15 -42 3 -5 -3 -18 -13 -29 -11 -11 -16
-25 -13 -30 14 -20 43 -9 78 29 27 30 32 42 25 57 -7 12 -6 26 3 43 12 22 11
28 -5 41 -14 13 -20 13 -28 3z"/>
<path d="M2566 1593 c-4 -4 -23 -6 -42 -4 -25 2 -34 -2 -34 -12 0 -8 7 -17 15
-21 8 -3 12 -12 9 -19 -6 -16 48 -43 65 -32 6 3 11 -1 11 -9 0 -10 -6 -13 -15
-10 -16 6 -45 -12 -45 -27 0 -12 62 -11 94 1 26 9 36 43 17 54 -11 7 -2 48 13
59 7 6 4 7 -6 4 -9 -3 -18 -2 -20 4 -4 12 -52 21 -62 12z"/>
<path d="M2410 1566 c0 -8 5 -18 10 -21 6 -3 10 1 10 9 0 8 -4 18 -10 21 -5 3
-10 -1 -10 -9z"/>
<path d="M2295 1480 c3 -5 10 -10 16 -10 5 0 9 5 9 10 0 6 -7 10 -16 10 -8 0
-12 -4 -9 -10z"/>
<path d="M2430 1480 c-9 -6 -10 -10 -3 -10 6 0 15 5 18 10 8 12 4 12 -15 0z"/>
<path d="M2335 1453 c-11 -2 -26 -6 -33 -8 -7 -3 -16 -5 -20 -6 -20 -3 -42
-21 -42 -35 0 -14 2 -14 16 0 11 12 26 14 57 10 23 -4 47 -11 54 -16 20 -16
-7 -48 -39 -48 -15 0 -30 -4 -33 -10 -8 -12 11 -13 51 -1 29 8 32 6 46 -23 17
-34 14 -72 -6 -95 -21 -26 -26 -49 -10 -55 8 -3 14 1 14 9 0 8 14 22 30 30 17
9 29 19 26 23 -2 4 8 22 23 40 24 30 34 34 90 39 60 6 62 7 39 19 -35 18 -40
38 -17 62 23 25 19 27 -46 27 -47 0 -50 -1 -47 -24 3 -21 1 -23 -25 -17 l-28
6 30 -26 c29 -25 29 -25 5 -19 -35 10 -70 33 -70 47 0 6 -7 16 -16 23 -14 9
-14 16 -5 33 12 23 5 26 -44 15z"/>
<path d="M2075 1440 c-2 -3 0 -12 5 -20 6 -10 3 -21 -7 -33 -12 -13 -14 -20
-5 -29 8 -8 17 -3 35 16 13 14 31 26 39 26 8 0 25 9 37 19 l23 20 -34 5 c-41
6 -88 4 -93 -4z m8 -65 c-3 -9 -8 -14 -10 -11 -3 3 -2 9 2 15 9 16 15 13 8 -4z"/>
<path d="M2736 1388 c-11 -43 -7 -56 14 -51 11 3 20 9 20 13 0 4 11 5 25 2 14
-2 25 -8 25 -13 0 -5 7 -6 15 -3 24 10 17 34 -12 44 -16 6 -36 15 -45 20 -26
15 -35 12 -42 -12z"/>
<path d="M2637 1373 c-13 -12 -7 -41 9 -47 23 -9 26 -3 15 28 -11 28 -14 30
-24 19z"/>
<path d="M2736 1218 c-3 -17 -4 -33 -1 -36 3 -3 5 1 5 9 0 8 10 15 22 16 22 2
40 21 32 35 -3 4 -16 8 -28 8 -18 0 -25 -7 -30 -32z"/>
<path d="M2670 1171 c0 -5 9 -7 20 -4 11 3 20 7 20 9 0 2 -9 4 -20 4 -11 0
-20 -4 -20 -9z"/>
<path d="M2620 1160 c0 -5 7 -10 16 -10 8 0 12 5 9 10 -3 6 -10 10 -16 10 -5
0 -9 -4 -9 -10z"/>
<path d="M3343 1138 c3 -10 1 -16 -4 -12 -5 3 -9 2 -10 -3 0 -4 -2 -17 -4 -28
-5 -26 21 -63 35 -49 16 16 21 54 10 75 -7 12 -6 20 2 25 7 5 8 3 3 -6 -5 -9
-4 -11 4 -6 16 11 4 25 -20 23 -14 -1 -19 -7 -16 -19z"/>
<path d="M2090 1121 c0 -6 5 -13 10 -16 6 -3 10 1 10 9 0 9 -4 16 -10 16 -5 0
-10 -4 -10 -9z"/>
<path d="M2391 1096 c-10 -11 -9 -14 1 -12 14 2 23 15 15 22 -2 2 -10 -2 -16
-10z"/>
</g>
</svg>
