<?xml version="1.0" standalone="no"?>
<!DOCTYPE svg PUBLIC "-//W3C//DTD SVG 20010904//EN"
 "http://www.w3.org/TR/2001/REC-SVG-20010904/DTD/svg10.dtd">
<svg version="1.0" xmlns="http://www.w3.org/2000/svg"
 width="450.000000pt" height="253.000000pt" viewBox="0 0 450.000000 253.000000"
 preserveAspectRatio="xMidYMid meet">
<metadata>
Created by potrace 1.16, written by Peter Selinger 2001-2019
</metadata>
<g transform="translate(0.000000,253.000000) scale(0.100000,-0.100000)"
fill="#000000" stroke="none">
<path d="M0 1265 l0 -1265 2250 0 2250 0 0 1265 0 1265 -2250 0 -2250 0 0
-1265z m2534 656 c3 -4 17 -6 30 -4 49 10 271 -70 262 -93 -3 -7 0 -16 6 -20
6 -4 8 -3 4 4 -13 21 11 21 50 0 21 -11 42 -26 46 -32 4 -6 8 -7 8 -2 0 5 11
-1 25 -14 17 -16 25 -34 24 -54 0 -25 -2 -27 -8 -12 -5 14 -10 16 -15 7 -4 -6
-3 -18 4 -26 9 -11 6 -17 -17 -32 -15 -9 -30 -20 -33 -23 -3 -3 -16 -6 -30 -8
l-25 -2 28 15 c15 9 27 20 27 25 0 6 5 10 11 10 5 0 7 -4 4 -10 -3 -5 -4 -10
-1 -10 3 0 10 10 17 22 9 17 9 20 -3 15 -11 -4 -14 1 -11 21 3 24 2 24 -6 7
-7 -15 -10 -16 -10 -4 -1 11 -12 15 -38 16 -58 1 -88 9 -85 24 2 10 0 10 -12
0 -10 -9 -16 -9 -21 -1 -4 6 -14 9 -22 6 -8 -3 -12 -2 -10 2 3 4 -36 8 -87 9
-69 1 -85 -1 -66 -8 24 -10 24 -11 5 -22 -27 -15 -47 -18 -39 -5 4 6 -2 5 -15
-1 -13 -7 -21 -8 -21 -2 0 6 -7 7 -17 4 -10 -4 -14 -2 -10 4 3 5 0 10 -8 10
-8 0 -12 -3 -10 -7 2 -4 -7 -5 -20 -2 -29 5 -30 11 -11 37 12 17 12 21 -2 31
-13 10 -14 16 -2 43 7 17 15 29 18 26 3 -2 11 0 19 6 7 6 13 8 13 4 0 -4 8 -1
17 6 9 8 14 9 10 2 -8 -12 30 -6 49 8 6 5 15 5 19 1 5 -4 5 -1 1 6 -4 7 -12
10 -17 6 -5 -3 -15 -1 -22 4 -7 5 -21 12 -32 15 -19 4 -18 5 2 6 12 0 24 -3
27 -8z m-140 -27 c26 -25 19 -40 -36 -83 -29 -22 -59 -45 -65 -51 -7 -6 -14
-9 -16 -8 -1 2 -21 -12 -44 -29 -35 -28 -70 -46 -50 -26 7 7 -31 37 -48 38 -5
1 -17 4 -25 7 -8 4 -24 8 -35 10 -26 4 -33 38 -8 38 10 0 32 7 48 16 17 9 57
17 90 18 71 2 92 11 74 32 -9 11 -8 14 5 14 9 0 16 5 16 11 0 6 7 9 15 5 8 -3
15 -1 15 5 0 6 9 8 20 4 11 -4 20 -2 20 4 0 15 6 14 24 -5z m-274 -11 c0 -5
-10 -9 -22 -10 -73 -5 -79 -7 -61 -21 10 -7 27 -12 38 -11 11 1 27 1 35 0 29
-2 -16 -33 -54 -36 -20 -2 -41 -7 -46 -10 -6 -3 -7 1 -4 9 3 9 12 16 20 16 8
0 14 4 14 9 0 12 -31 25 -52 22 -10 -1 -18 2 -18 8 0 5 -8 12 -17 15 -10 3 7
4 37 2 30 -2 64 0 75 5 26 10 55 11 55 2z m-300 -28 c-9 -10 -9 -15 -1 -15 6
0 11 -9 11 -20 0 -18 3 -19 20 -10 14 8 20 8 20 0 0 -6 -13 -13 -29 -16 -18
-4 -40 -21 -57 -45 -16 -21 -36 -41 -44 -44 -8 -3 -24 -17 -34 -32 -11 -14
-14 -23 -8 -19 7 4 12 2 12 -3 0 -6 -15 -11 -32 -11 -18 0 -28 -4 -23 -8 10
-6 11 -20 5 -39 -1 -5 -2 -11 -1 -15 0 -5 -5 -8 -13 -8 -8 0 -18 -10 -21 -21
-4 -12 -19 -33 -34 -46 l-26 -24 40 23 c22 12 48 33 58 45 10 13 26 23 36 23
9 0 23 6 31 13 8 6 2 -3 -14 -20 -24 -26 -26 -33 -13 -33 9 0 17 -4 17 -10 0
-5 -16 -10 -36 -10 -19 0 -33 -4 -29 -9 3 -5 1 -12 -5 -16 -6 -4 -8 -10 -5
-15 3 -5 19 -1 35 8 16 9 31 14 35 11 3 -3 0 -30 -7 -60 -6 -30 -11 -61 -10
-69 1 -10 -1 -11 -4 -2 -3 6 -17 12 -30 12 -17 0 -23 4 -18 12 4 7 3 8 -5 4
-6 -4 -19 -2 -27 5 -12 10 -13 9 -8 -5 4 -11 1 -16 -10 -16 -11 0 -16 9 -16
28 0 15 -4 42 -10 61 -7 26 -6 49 6 90 9 31 20 61 24 66 4 6 20 33 35 60 39
70 111 152 154 175 44 23 47 24 31 5z m420 -1 c0 -9 -8 -10 -29 -4 -16 4 -33
5 -37 2 -4 -4 -5 -2 -2 3 9 15 68 13 68 -1z m-370 -14 c-20 -13 -33 -13 -25 0
3 6 14 10 23 10 15 0 15 -2 2 -10z m403 -136 c-2 -7 -11 -10 -19 -7 -17 6 -17
10 -1 27 14 16 28 1 20 -20z m-183 -68 c0 -2 -7 -6 -15 -10 -8 -3 -15 -1 -15
4 0 6 7 10 15 10 8 0 15 -2 15 -4z m640 -74 c0 -13 -12 -22 -22 -16 -10 6 -1
24 13 24 5 0 9 -4 9 -8z"/>
<path d="M2593 1885 c0 -8 3 -13 5 -10 3 3 10 0 17 -5 8 -7 12 -5 12 5 0 8 -3
13 -5 10 -3 -3 -10 0 -17 5 -8 7 -12 5 -12 -5z"/>
<path d="M2960 1730 c-9 -6 -10 -10 -3 -10 6 0 15 5 18 10 8 12 4 12 -15 0z"/>
<path d="M1675 1699 c-4 -6 -5 -12 -2 -15 2 -3 7 2 10 11 7 17 1 20 -8 4z"/>
</g>
</svg>
