<?xml version="1.0" standalone="no"?>
<!DOCTYPE svg PUBLIC "-//W3C//DTD SVG 20010904//EN"
 "http://www.w3.org/TR/2001/REC-SVG-20010904/DTD/svg10.dtd">
<svg version="1.0" xmlns="http://www.w3.org/2000/svg"
 width="450.000000pt" height="253.000000pt" viewBox="0 0 450.000000 253.000000"
 preserveAspectRatio="xMidYMid meet">
<metadata>
Created by potrace 1.16, written by Peter Selinger 2001-2019
</metadata>
<g transform="translate(0.000000,253.000000) scale(0.100000,-0.100000)"
fill="#000000" stroke="none">
<path d="M0 1265 l0 -1265 2250 0 2250 0 0 1265 0 1265 -2250 0 -2250 0 0
-1265z m2253 618 c-7 -2 -21 -2 -30 0 -10 3 -4 5 12 5 17 0 24 -2 18 -5z m137
-15 c30 -6 47 -13 38 -16 -10 -2 -18 -7 -18 -11 0 -11 -76 -52 -84 -44 -3 3
-6 1 -6 -6 0 -8 -6 -11 -16 -7 -8 3 -13 2 -10 -3 5 -8 -7 -20 -83 -75 -32 -24
-59 -26 -46 -5 4 5 0 9 -7 9 -7 1 -31 9 -53 20 -22 11 -47 19 -56 20 -9 0 -16
7 -16 15 0 9 6 14 14 11 8 -3 12 -2 8 3 -3 5 1 12 7 15 7 3 -9 3 -37 0 l-50
-6 19 21 c11 12 17 23 15 25 -15 13 -68 34 -73 29 -3 -4 -6 -1 -6 5 0 8 28 12
92 12 90 0 117 -7 46 -12 -51 -3 -30 -28 23 -28 22 0 39 -4 39 -8 0 -10 5 -11
77 -14 28 -2 49 0 46 5 -2 4 6 7 19 7 17 0 19 3 9 9 -9 6 -10 11 -2 15 6 4 11
12 11 17 0 6 -5 7 -12 3 -6 -4 -8 -3 -4 4 7 11 22 10 116 -10z m124 14 c3 -5
-1 -9 -9 -9 -8 0 -12 4 -9 9 3 4 7 8 9 8 2 0 6 -4 9 -8z m70 -8 c3 -7 -2 -10
-15 -7 -22 6 -26 20 -4 20 8 0 16 -6 19 -13z m126 -10 c30 -9 68 -22 83 -30
16 -8 35 -14 43 -14 9 0 12 -5 8 -12 -4 -7 -3 -8 4 -4 6 4 36 -9 67 -29 30
-19 59 -35 64 -35 15 0 101 -82 101 -96 0 -13 -11 -14 -57 -9 -32 3 -76 7 -98
9 -61 5 -91 15 -113 39 -42 45 -66 59 -56 33 4 -10 0 -13 -13 -11 -10 2 -39 6
-65 8 -54 4 -55 -9 -3 -19 19 -3 35 -10 35 -15 0 -4 -14 -3 -31 3 -24 8 -37 8
-52 -1 -15 -10 -18 -10 -12 1 3 7 0 6 -7 -3 -11 -14 -15 -14 -26 -3 -13 14
-42 8 -54 -10 -5 -7 -8 -5 -8 4 0 13 -1 13 -10 0 -5 -8 -10 -10 -10 -4 0 6 -7
11 -15 12 -8 1 -22 3 -30 4 -21 2 -19 20 6 47 23 24 22 25 -23 52 -20 11 -22
18 -10 37 10 16 35 20 117 23 58 2 63 4 55 20 -6 10 -10 20 -10 23 0 7 50 -2
120 -20z m-235 6 c3 -5 1 -10 -4 -10 -6 0 -11 5 -11 10 0 6 2 10 4 10 3 0 8
-4 11 -10z m-651 -24 c-12 -9 -14 -15 -5 -20 7 -5 -4 -22 -32 -49 -24 -23 -46
-48 -48 -56 -3 -8 -18 -14 -36 -14 -19 0 -35 -7 -43 -20 -11 -18 -10 -19 8
-15 16 4 19 2 15 -10 -4 -10 -2 -13 5 -8 7 4 12 2 12 -3 0 -6 -7 -11 -16 -11
-10 0 -14 -6 -10 -15 3 -8 1 -15 -5 -15 -6 0 -7 -5 -3 -12 4 -7 3 -8 -4 -4 -7
4 -12 2 -12 -4 0 -6 -11 -21 -25 -34 -13 -13 -21 -26 -17 -30 4 -4 1 -6 -7 -4
-8 2 -17 -5 -19 -14 -6 -29 13 -21 64 26 26 25 50 44 53 44 3 -1 14 2 23 6 10
4 23 6 30 3 7 -3 3 -6 -8 -6 -27 -1 -38 -26 -23 -53 10 -18 8 -19 -26 -17 -24
3 -39 -1 -45 -11 -14 -21 -12 -34 3 -23 6 5 27 10 46 12 31 3 33 1 27 -21 -3
-12 -9 -47 -12 -77 -7 -53 -7 -53 -21 -27 -8 15 -18 24 -23 21 -6 -4 -10 -2
-10 3 0 6 7 13 16 16 8 3 12 10 9 16 -4 6 -14 2 -26 -9 -25 -24 -68 -46 -74
-39 -3 3 -2 24 4 47 5 24 5 41 0 41 -5 0 -9 -6 -9 -12 0 -10 -2 -10 -9 0 -12
19 15 143 40 188 49 85 137 187 155 180 8 -3 11 1 8 9 -3 8 6 19 23 28 32 17
53 11 27 -7z m406 2 c0 -6 -11 -8 -25 -6 -14 3 -25 2 -25 -2 0 -4 -7 -7 -15
-7 -18 0 -20 14 -2 20 25 8 67 5 67 -5z m-360 -7 c0 -12 -20 -25 -27 -18 -7 7
6 27 18 27 5 0 9 -4 9 -9z m114 -9 c3 -5 -1 -9 -9 -9 -8 0 -12 4 -9 9 3 4 7 8
9 8 2 0 6 -4 9 -8z m-120 -30 c2 -4 -7 -8 -22 -9 -24 -2 -24 -1 -7 7 11 5 21
9 22 9 1 1 4 -3 7 -7z m406 -91 c0 -10 -9 -21 -20 -24 -22 -6 -27 12 -8 31 17
17 28 15 28 -7z m517 -52 c11 -4 24 -13 29 -20 5 -9 2 -10 -12 -5 -10 4 -23 8
-29 9 -5 1 -16 8 -24 15 -11 11 -15 11 -22 0 -7 -10 -9 -8 -9 5 0 19 7 18 67
-4z m-994 4 c-7 -2 -19 -2 -25 0 -7 3 -2 5 12 5 14 0 19 -2 13 -5z m1269 -85
c-7 -7 -12 -8 -12 -2 0 14 12 26 19 19 2 -3 -1 -11 -7 -17z m-1282 -72 c-7 -7
-13 -7 -20 0 -6 6 -3 10 10 10 13 0 16 -4 10 -10z m-63 -553 c-3 -10 -5 -4 -5
12 0 17 2 24 5 18 2 -7 2 -21 0 -30z m10 -70 c-3 -10 -5 -4 -5 12 0 17 2 24 5
18 2 -7 2 -21 0 -30z m0 -55 c-3 -7 -5 -2 -5 12 0 14 2 19 5 13 2 -7 2 -19 0
-25z m10 -95 c-3 -10 -5 -4 -5 12 0 17 2 24 5 18 2 -7 2 -21 0 -30z"/>
<path d="M1630 1615 c-14 -16 -10 -18 14 -9 9 3 16 10 16 15 0 14 -16 11 -30
-6z"/>
</g>
</svg>
