<?xml version="1.0" standalone="no"?>
<!DOCTYPE svg PUBLIC "-//W3C//DTD SVG 20010904//EN"
 "http://www.w3.org/TR/2001/REC-SVG-20010904/DTD/svg10.dtd">
<svg version="1.0" xmlns="http://www.w3.org/2000/svg"
 width="450.000000pt" height="253.000000pt" viewBox="0 0 450.000000 253.000000"
 preserveAspectRatio="xMidYMid meet">
<metadata>
Created by potrace 1.16, written by Peter Selinger 2001-2019
</metadata>
<g transform="translate(0.000000,253.000000) scale(0.100000,-0.100000)"
fill="#000000" stroke="none">
<path d="M0 1265 l0 -1265 2250 0 2250 0 0 1265 0 1265 -2250 0 -2250 0 0
-1265z m3043 704 c94 -22 208 -86 265 -147 57 -61 102 -144 102 -188 0 -26
-76 -138 -107 -157 -6 -4 -18 -14 -26 -21 -7 -8 -51 -34 -97 -58 -45 -23 -97
-51 -114 -60 -33 -18 -71 -24 -62 -9 3 5 0 13 -7 19 -12 10 -17 12 -38 12 -5
0 -8 4 -5 9 3 5 -9 7 -27 4 -17 -2 -37 -4 -44 -5 -7 -1 -10 -5 -8 -9 3 -4 -2
-9 -10 -13 -8 -3 -15 -1 -15 5 0 6 -5 7 -12 3 -8 -5 -9 -2 -5 9 8 21 3 21 -17
1 -10 -10 -16 -11 -16 -4 0 7 -6 10 -14 7 -19 -8 -56 21 -50 38 4 10 0 13 -15
10 -12 -2 -19 0 -16 5 3 5 1 11 -5 15 -5 3 -10 1 -10 -4 0 -6 -5 -11 -10 -11
-6 0 -9 6 -8 13 2 6 -3 11 -10 9 -8 -1 -12 3 -9 10 2 7 0 21 -5 31 -5 11 -5
17 2 17 5 0 10 -6 11 -12 0 -9 2 -9 6 1 5 11 7 11 14 0 6 -10 9 -10 9 -2 0 9
12 7 38 -7 21 -11 53 -21 72 -23 30 -4 35 -8 36 -30 1 -15 -2 -24 -7 -22 -4 3
-5 13 -2 24 4 16 0 18 -33 15 -22 -1 -42 2 -46 9 -5 9 -8 8 -8 -3 0 -13 -1
-13 -10 0 -9 14 -10 13 -10 -17 0 -8 4 -9 36 -12 8 0 13 -5 9 -10 -3 -5 -1
-12 4 -15 5 -4 13 -1 17 5 5 8 3 9 -7 4 -8 -5 -10 -4 -6 0 10 11 37 15 37 6 0
-4 -4 -12 -10 -19 -7 -8 -7 -9 1 -3 6 5 18 7 25 4 8 -3 18 5 23 18 9 21 10 22
11 4 0 -17 2 -17 10 -5 5 8 10 10 10 4 0 -7 15 -10 38 -9 20 1 37 3 37 5 0 1
12 3 28 4 15 1 27 -1 27 -4 0 -6 65 -40 75 -40 3 0 4 6 3 13 -2 6 22 24 51 40
30 15 57 31 60 35 4 4 15 9 26 10 27 5 48 23 38 33 -10 10 -85 22 -140 22 -37
1 -41 3 -30 16 6 9 7 13 3 9 -5 -4 -15 -3 -23 3 -7 6 -13 9 -13 6 0 -3 -16 -1
-35 3 -19 4 -37 4 -40 0 -2 -4 -22 -7 -44 -6 -22 1 -37 -2 -35 -6 6 -9 -32 -5
-42 4 -3 4 -12 4 -20 1 -8 -3 -14 1 -14 8 0 11 -3 11 -10 -1 -6 -10 -10 -11
-10 -2 0 7 -13 12 -30 12 -45 0 -130 20 -130 31 0 6 -4 7 -10 4 -5 -3 -10 -4
-10 -1 0 2 -3 12 -7 22 -4 11 -3 15 5 10 16 -10 -3 50 -22 70 -14 14 -14 18
-1 45 9 16 13 35 9 41 -4 7 -3 8 4 4 7 -4 13 0 13 11 1 10 3 28 4 40 1 12 -2
20 -7 17 -4 -3 -5 -11 -1 -17 4 -8 1 -7 -9 1 -13 10 -17 10 -21 0 -2 -7 -7
-10 -11 -7 -12 11 101 89 160 110 105 37 197 42 297 18z m-637 -60 c11 -9 14
-9 14 0 0 14 88 12 96 -1 3 -4 16 -5 30 -2 17 4 26 1 30 -10 8 -21 5 -24 -26
-28 -14 -2 -29 -6 -35 -9 -5 -4 -45 -14 -87 -23 -42 -9 -82 -24 -90 -33 -9
-12 -9 -15 0 -9 15 9 15 5 2 -30 -9 -24 -14 -26 -45 -21 -19 3 -37 1 -40 -4
-4 -5 -11 -9 -16 -9 -6 0 -8 4 -5 9 3 5 -19 27 -49 50 -58 44 -69 36 -31 -21
10 -15 15 -32 11 -38 -9 -14 -25 -3 -25 19 0 10 -11 31 -25 47 -14 16 -25 32
-25 36 0 4 -9 9 -19 13 -11 3 -22 14 -25 23 -2 9 -4 -1 -3 -23 2 -35 -1 -40
-20 -39 -13 1 -20 -2 -18 -7 3 -4 1 -10 -4 -13 -5 -4 -12 8 -16 24 -9 42 15
78 49 75 32 -4 48 -14 41 -26 -4 -5 2 -9 12 -9 12 0 19 8 20 20 1 15 -4 20
-23 20 -36 0 -29 18 9 22 90 10 300 8 313 -3z m-336 -119 c0 -5 -2 -10 -4 -10
-3 0 -8 5 -11 10 -3 6 -1 10 4 10 6 0 11 -4 11 -10z m36 -56 c-3 -9 -15 -18
-25 -21 -12 -3 -17 -11 -14 -19 4 -10 9 -11 17 -5 15 13 31 2 38 -25 4 -15 1
-20 -13 -19 -10 1 -22 4 -25 8 -4 4 -16 7 -26 7 -11 0 -17 4 -13 9 3 6 -16 9
-45 8 -27 -1 -50 -2 -50 -1 0 0 10 9 22 20 13 12 18 13 13 4 -7 -12 -6 -13 6
-4 8 6 34 16 58 23 30 9 40 16 33 23 -6 6 -8 17 -5 24 4 11 8 11 20 -2 8 -8
12 -22 9 -30z m-164 -93 c2 -28 5 -31 25 -27 13 4 34 9 48 12 17 4 25 2 25 -7
0 -7 -3 -9 -7 -6 -3 4 -12 2 -20 -5 -7 -6 -27 -11 -43 -10 -16 0 -33 -4 -36
-10 -4 -6 1 -8 14 -4 12 4 24 2 29 -6 14 -22 9 -33 -16 -38 -13 -3 -26 -10
-28 -16 -2 -7 6 -10 23 -6 30 5 28 -4 -9 -45 -23 -25 -16 -43 8 -23 24 20 26
8 6 -36 -17 -38 -51 -67 -51 -43 0 6 -4 7 -10 4 -6 -4 -10 28 -10 89 0 53 4
96 9 96 5 0 8 6 8 13 -1 14 26 108 30 104 1 -2 3 -18 5 -36z m132 -19 c3 -5
-1 -9 -9 -9 -8 0 -15 4 -15 9 0 4 4 8 9 8 6 0 12 -4 15 -8z m790 -88 c3 -8 2
-12 -4 -9 -6 3 -10 10 -10 16 0 14 7 11 14 -7z m59 -11 c-7 -2 -19 -2 -25 0
-7 3 -2 5 12 5 14 0 19 -2 13 -5z m17 -67 c0 -3 -4 -8 -10 -11 -5 -3 -10 -1
-10 4 0 6 5 11 10 11 6 0 10 -2 10 -4z m-13 -32 c-3 -3 -12 -4 -19 -1 -8 3 -5
6 6 6 11 1 17 -2 13 -5z m-30 -79 c0 -8 -7 -15 -15 -15 -12 0 -12 3 -2 15 7 8
13 15 15 15 1 0 2 -7 2 -15z m-107 -12 c26 -17 41 -35 36 -41 -7 -6 -75 32
-80 45 -7 18 15 16 44 -4z"/>
<path d="M3317 1573 c3 -7 6 -13 8 -13 2 0 5 6 8 13 3 8 -1 14 -8 14 -7 0 -11
-6 -8 -14z"/>
<path d="M1930 1560 c0 -5 5 -10 11 -10 5 0 7 5 4 10 -3 6 -8 10 -11 10 -2 0
-4 -4 -4 -10z"/>
</g>
</svg>
