<?xml version="1.0" standalone="no"?>
<!DOCTYPE svg PUBLIC "-//W3C//DTD SVG 20010904//EN"
 "http://www.w3.org/TR/2001/REC-SVG-20010904/DTD/svg10.dtd">
<svg version="1.0" xmlns="http://www.w3.org/2000/svg"
 width="450.000000pt" height="253.000000pt" viewBox="0 0 450.000000 253.000000"
 preserveAspectRatio="xMidYMid meet">
<metadata>
Created by potrace 1.16, written by Peter Selinger 2001-2019
</metadata>
<g transform="translate(0.000000,253.000000) scale(0.100000,-0.100000)"
fill="#000000" stroke="none">
<path d="M0 1265 l0 -1265 2250 0 2250 0 0 1265 0 1265 -761 0 -761 0 32 -34
c17 -18 37 -42 43 -53 38 -64 66 -125 82 -173 10 -30 29 -78 42 -107 13 -28
23 -58 23 -66 0 -8 12 -17 28 -20 15 -3 56 -16 92 -30 l65 -25 35 26 c29 22
46 27 95 27 52 0 76 -7 175 -54 112 -53 170 -92 170 -117 0 -6 7 -17 15 -24
11 -9 12 -17 6 -23 -5 -5 -7 -22 -4 -37 8 -41 -16 -76 -120 -176 -106 -103
-139 -123 -249 -156 -43 -13 -77 -25 -75 -28 27 -50 78 -164 82 -185 30 -139
-6 -301 -71 -326 -13 -4 -24 -14 -24 -22 0 -20 -82 -39 -147 -34 -173 15 -403
77 -427 115 -3 6 -26 -9 -50 -32 -35 -33 -45 -50 -49 -84 -10 -81 -105 -163
-225 -192 -41 -11 -42 -12 -43 -53 -1 -72 -10 -181 -15 -186 -3 -3 -3 48 0
112 4 118 4 118 -18 115 -37 -5 -101 57 -159 150 -85 138 -96 192 -51 257 27
40 29 83 4 76 -38 -10 -213 -2 -280 13 -136 29 -269 87 -290 126 -25 47 -4
110 90 258 42 67 143 169 198 199 39 21 39 26 7 47 -98 64 -168 162 -194 271
-12 53 -9 140 5 140 5 1 18 6 30 12 35 20 223 53 298 53 66 -1 170 -19 195
-35 6 -3 31 -3 56 1 37 5 45 10 45 28 0 32 60 139 107 192 24 26 43 49 43 51
0 1 -574 3 -1275 3 l-1275 0 0 -1265z m2468 -876 c-1 -17 -4 -25 -8 -18 -7 10
-2 49 5 49 2 0 3 -14 3 -31z m-11 -121 c-3 -7 -5 -2 -5 12 0 14 2 19 5 13 2
-7 2 -19 0 -25z"/>
<path d="M2180 2251 c0 -14 38 -33 50 -26 6 3 10 1 10 -6 0 -7 3 -9 7 -5 4 3
12 -3 18 -15 11 -19 13 -19 18 -5 5 11 3 15 -5 10 -6 -4 -8 -3 -5 4 4 5 16 8
27 5 11 -3 20 0 20 6 0 6 -4 12 -10 12 -15 2 -30 6 -32 9 -2 1 -12 4 -23 6
-11 1 -32 5 -47 9 -16 3 -28 1 -28 -4z"/>
<path d="M2127 1953 c-21 -27 -22 -36 -3 -39 9 -1 12 5 9 20 l-5 21 15 -21
c29 -38 106 -18 90 23 -3 7 -10 13 -15 13 -6 0 -7 -5 -2 -13 5 -7 2 -6 -6 3
-22 23 -63 20 -83 -7z m43 -3 c0 -5 -5 -10 -11 -10 -5 0 -7 5 -4 10 3 6 8 10
11 10 2 0 4 -4 4 -10z"/>
<path d="M2883 1945 c-4 -5 -3 -7 2 -3 4 4 13 4 19 -1 7 -6 16 -4 24 5 11 12
8 13 -13 12 -15 -2 -29 -7 -32 -13z"/>
<path d="M1930 1935 c0 -18 19 -40 26 -32 4 4 0 15 -9 24 -9 10 -17 13 -17 8z"/>
<path d="M1880 1919 c0 -5 5 -7 10 -4 6 3 10 8 10 11 0 2 -4 4 -10 4 -5 0 -10
-5 -10 -11z"/>
<path d="M2875 1918 c-5 -14 -2 -34 10 -60 4 -10 2 -32 -4 -49 -23 -67 -11
-96 35 -85 21 6 23 10 14 21 -6 7 -20 12 -31 10 -11 -2 -17 0 -14 6 4 5 22 9
41 9 28 0 36 -5 44 -25 11 -29 26 -34 64 -19 17 7 17 5 -3 -15 -14 -14 -20
-29 -16 -42 5 -14 0 -21 -20 -29 -37 -14 -43 -13 -50 10 -4 11 -11 18 -16 15
-5 -3 -7 0 -4 7 3 7 -4 19 -16 26 -17 11 -20 11 -14 0 3 -7 0 -5 -8 5 -20 25
-36 21 -43 -10 -4 -16 -14 -34 -23 -41 -15 -11 -15 -12 0 -7 9 4 16 0 16 -9 0
-17 -26 -10 -45 13 -8 9 -11 11 -8 4 4 -6 3 -14 -2 -17 -5 -3 -8 9 -8 27 1 25
-3 32 -16 31 -10 -1 -15 2 -12 7 3 5 2 9 -3 10 -4 0 -17 3 -28 5 -11 2 -28 5
-38 6 -18 2 -18 3 0 16 10 7 28 11 40 9 25 -5 47 16 56 51 6 25 8 25 -46 13
-23 -6 -55 -13 -71 -16 -26 -5 -27 -7 -11 -19 24 -17 10 -39 -18 -30 -12 4
-34 15 -48 25 -22 15 -28 16 -32 5 -7 -18 1 -26 25 -26 14 0 18 -8 19 -37 0
-35 1 -36 10 -14 9 23 11 24 27 8 14 -15 15 -20 4 -38 -9 -14 -9 -19 -2 -14 8
5 11 0 8 -15 -2 -18 -30 -45 -45 -45 -1 0 -4 -12 -8 -28 -6 -23 -4 -27 14 -27
23 0 42 35 33 59 -4 10 -1 13 12 8 12 -5 22 1 34 23 21 36 33 37 69 5 28 -25
18 -34 -18 -15 -15 9 -19 7 -19 -5 0 -9 13 -22 30 -29 23 -9 27 -15 18 -24 -9
-9 -9 -12 0 -12 7 0 12 -13 12 -29 0 -20 6 -31 18 -34 19 -4 17 -6 -41 -27
-16 -6 -31 -19 -34 -30 -6 -23 -13 -25 -36 -7 -13 10 -14 15 -4 28 7 9 19 18
27 21 10 4 6 9 -15 17 -16 6 -41 17 -55 24 -19 10 -32 11 -48 4 -33 -15 -27
-30 9 -23 26 5 30 4 20 -8 -7 -8 -23 -17 -37 -20 -22 -6 -24 -9 -13 -22 7 -8
18 -13 25 -10 20 8 47 -23 34 -39 -7 -9 -5 -19 9 -36 15 -19 17 -29 9 -58 -6
-20 -19 -51 -30 -69 -15 -25 -18 -36 -9 -45 6 -6 11 -19 11 -29 0 -12 7 -18
21 -18 11 0 17 4 14 10 -3 5 -8 26 -10 45 -5 34 -4 36 23 33 24 -3 27 0 24 25
-3 19 1 27 12 27 9 0 25 9 36 20 11 11 22 20 25 20 3 0 10 0 15 0 6 0 10 7 10
15 0 8 6 15 13 15 67 2 137 16 158 31 23 16 28 17 39 4 9 -11 17 -11 36 -3 15
7 21 15 15 22 -5 6 -12 28 -16 49 -7 37 -8 37 -44 31 -57 -9 -58 -10 -71 -63
-15 -62 -47 -71 -42 -11 0 3 4 14 8 24 5 14 4 17 -4 12 -20 -12 -19 50 1 96
11 26 15 28 69 26 42 -2 62 2 76 15 11 10 25 17 32 15 7 -2 17 11 24 27 12 34
49 75 69 75 7 0 6 4 -4 10 -22 13 -21 115 1 116 8 1 26 6 40 13 24 11 24 11 1
7 -20 -4 -22 -1 -19 19 5 21 2 23 -29 18 -31 -5 -38 0 -34 29 0 3 -7 5 -17 4
-12 -2 -16 -11 -14 -27 2 -19 1 -21 -7 -9 -6 8 -11 11 -11 6 0 -5 -8 -2 -17 5
-15 12 -16 12 -10 -3 3 -9 1 -19 -6 -22 -7 -2 0 -5 16 -5 36 -1 35 -25 -3 -41
-16 -7 -27 -16 -24 -21 3 -5 2 -9 -3 -10 -4 0 -17 -2 -27 -4 -11 -2 -26 0 -34
4 -11 6 -11 10 2 20 17 15 22 46 6 36 -6 -3 -7 1 -4 9 4 10 1 16 -7 16 -8 1
-4 6 9 13 12 7 19 16 16 20 -12 12 -26 8 -18 -5 4 -7 -3 -3 -15 10 -24 24 -49
29 -56 10z m215 -34 c0 -13 14 -18 47 -17 6 0 14 -8 16 -18 4 -13 1 -17 -6
-12 -7 4 -14 8 -17 8 -27 4 -49 20 -52 40 -3 13 -1 22 3 19 5 -3 9 -12 9 -20z
m-10 -133 c0 -6 -4 -13 -10 -16 -5 -3 -10 1 -10 9 0 9 5 16 10 16 6 0 10 -4
10 -9z m-200 -145 c0 -3 -4 -8 -10 -11 -5 -3 -10 -1 -10 4 0 6 5 11 10 11 6 0
10 -2 10 -4z m-42 -181 c-3 -43 -18 -62 -39 -49 -6 4 -6 10 0 17 5 7 9 14 9
17 0 8 25 60 29 60 2 0 2 -20 1 -45z"/>
<path d="M2053 1895 c0 -6 6 -12 12 -12 6 0 12 6 12 12 0 6 -6 12 -12 12 -6 0
-12 -6 -12 -12z"/>
<path d="M3276 1810 c-11 -3 -15 -9 -10 -13 10 -6 42 9 34 16 -3 3 -14 1 -24
-3z"/>
<path d="M2005 1750 c-3 -11 -9 -19 -13 -19 -20 3 -32 -3 -32 -16 0 -8 -7 -15
-15 -15 -8 0 -15 -8 -15 -19 0 -22 -25 -45 -39 -36 -7 3 -8 0 -5 -9 4 -9 1
-16 -6 -16 -9 0 -8 -6 3 -18 10 -10 17 -24 17 -30 0 -7 10 -12 22 -12 12 0 18
-3 15 -6 -3 -4 -2 -15 4 -25 8 -16 4 -21 -22 -31 -30 -13 -31 -15 -33 -83 -2
-39 -6 -79 -10 -91 -7 -19 -1 -23 61 -43 96 -30 114 -33 140 -16 12 8 29 12
37 9 9 -3 16 -1 16 6 0 6 -5 8 -12 4 -7 -4 -8 -3 -4 5 4 6 15 9 24 7 15 -5 17
4 19 70 1 62 5 80 23 99 18 19 19 23 5 35 -21 17 -17 108 5 103 9 -2 24 5 34
16 19 21 19 21 -1 21 -11 0 -23 -3 -26 -7 -11 -10 -100 -12 -119 -2 -10 5 -18
19 -18 30 0 11 4 18 8 15 4 -2 9 5 9 17 1 13 -10 33 -28 49 -36 33 -36 33 -44
8z m142 -354 c0 -8 -6 -12 -15 -9 -11 5 -11 7 0 14 7 5 13 9 14 9 0 0 1 -6 1
-14z"/>
<path d="M2470 1645 c0 -8 8 -15 18 -15 10 0 24 -6 31 -12 8 -7 6 -1 -4 15
-19 29 -45 36 -45 12z"/>
<path d="M2560 1650 c0 -5 5 -10 10 -10 6 0 10 5 10 10 0 6 -4 10 -10 10 -5 0
-10 -4 -10 -10z"/>
<path d="M2410 1620 c-9 -6 -10 -10 -3 -10 6 0 15 5 18 10 8 12 4 12 -15 0z"/>
<path d="M1840 1610 c0 -5 5 -10 10 -10 6 0 10 5 10 10 0 6 -4 10 -10 10 -5 0
-10 -4 -10 -10z"/>
<path d="M2456 1581 c-7 -11 22 -23 35 -15 5 3 9 9 9 15 0 12 -37 12 -44 0z"/>
<path d="M2662 1568 c2 -12 11 -24 21 -26 14 -3 18 1 15 20 -2 12 -11 24 -21
26 -14 3 -18 -1 -15 -20z"/>
<path d="M2935 1540 c3 -5 11 -10 16 -10 6 0 7 5 4 10 -3 6 -11 10 -16 10 -6
0 -7 -4 -4 -10z"/>
<path d="M2363 1533 c-20 -8 -15 -30 7 -36 14 -3 29 3 45 19 l24 24 -32 -1
c-18 0 -38 -3 -44 -6z"/>
<path d="M2387 1468 c-21 -7 -26 -15 -22 -28 4 -11 0 -22 -10 -27 -14 -8 -13
-11 5 -28 11 -10 30 -19 42 -19 23 -2 78 -49 78 -66 0 -13 37 -13 45 -1 3 6
-13 28 -35 51 -22 23 -38 46 -34 51 4 6 11 5 20 -2 9 -7 14 -8 12 -2 -2 6 8
20 21 32 25 22 23 24 -29 34 -14 3 -34 7 -45 10 -11 2 -33 0 -48 -5z m87 -33
c-4 -8 -8 -15 -10 -15 -2 0 -4 7 -4 15 0 8 4 15 10 15 5 0 7 -7 4 -15z"/>
<path d="M2510 1382 c0 -18 19 -24 37 -13 10 6 13 11 6 11 -6 0 -18 3 -27 6
-9 3 -16 1 -16 -4z"/>
<path d="M2922 1301 c-21 -13 -5 -81 19 -81 22 0 59 34 59 53 0 31 -47 48 -78
28z"/>
<path d="M3160 1270 c0 -5 5 -10 11 -10 5 0 7 5 4 10 -3 6 -8 10 -11 10 -2 0
-4 -4 -4 -10z"/>
<path d="M3040 1250 c0 -5 5 -10 10 -10 6 0 10 5 10 10 0 6 -4 10 -10 10 -5 0
-10 -4 -10 -10z"/>
<path d="M2860 1218 c-12 -8 -12 -9 2 -5 9 3 19 1 22 -6 3 -9 5 -9 5 0 1 18
-13 23 -29 11z"/>
<path d="M2277 1213 c-12 -11 -8 -23 8 -23 8 0 15 7 15 15 0 16 -12 20 -23 8z"/>
<path d="M2725 1091 c-8 -13 10 -22 29 -15 9 3 16 1 16 -5 0 -6 6 -11 13 -11
6 1 1 10 -12 20 -26 22 -37 25 -46 11z"/>
</g>
</svg>
