<?xml version="1.0" standalone="no"?>
<!DOCTYPE svg PUBLIC "-//W3C//DTD SVG 20010904//EN"
 "http://www.w3.org/TR/2001/REC-SVG-20010904/DTD/svg10.dtd">
<svg version="1.0" xmlns="http://www.w3.org/2000/svg"
 width="450.000000pt" height="253.000000pt" viewBox="0 0 450.000000 253.000000"
 preserveAspectRatio="xMidYMid meet">
<metadata>
Created by potrace 1.16, written by Peter Selinger 2001-2019
</metadata>
<g transform="translate(0.000000,253.000000) scale(0.100000,-0.100000)"
fill="#000000" stroke="none">
<path d="M0 1265 l0 -1265 2250 0 2250 0 0 1265 0 1265 -2250 0 -2250 0 0
-1265z m2436 606 c-12 -8 -24 -20 -29 -27 -9 -15 -77 -58 -96 -61 -8 -1 -18
-9 -23 -17 -5 -9 -14 -16 -19 -16 -6 0 -7 5 -3 12 4 7 3 8 -4 4 -9 -5 -9 -13
-2 -26 15 -29 12 -46 -10 -47 -24 -2 -27 12 -4 21 8 3 12 11 9 16 -4 6 -23 -3
-48 -22 -36 -29 -39 -30 -24 -8 9 13 17 29 17 35 0 5 -4 4 -9 -4 -5 -8 -17
-16 -25 -17 -9 -1 -13 2 -10 8 3 5 -2 9 -12 7 -27 -3 -84 21 -84 34 0 7 -5 5
-10 -3 -8 -13 -10 -13 -10 2 0 12 11 19 38 24 20 4 43 11 49 16 7 6 39 11 71
13 32 1 67 7 77 13 18 10 18 11 3 12 -28 0 -21 19 10 27 l27 7 -25 7 c-14 4
18 6 71 5 87 -1 94 -2 75 -15z m248 3 c33 -9 88 -28 123 -44 35 -16 66 -29 70
-29 3 1 9 -3 12 -8 3 -4 24 -17 45 -28 64 -32 152 -120 104 -102 -7 2 -12 9
-11 14 1 5 -7 15 -19 22 -11 7 -17 8 -14 3 3 -5 -4 -18 -16 -28 -12 -11 -18
-13 -14 -6 6 10 1 11 -21 7 -50 -11 -86 -4 -116 22 -14 13 -18 13 -12 3 5 -8
-7 -3 -26 11 -51 38 -60 42 -57 27 2 -10 -13 -12 -71 -9 -55 2 -72 0 -66 -9 4
-6 16 -10 26 -7 11 3 17 1 13 -4 -3 -5 -12 -9 -20 -9 -8 0 -14 -4 -14 -10 0
-5 -5 -10 -11 -10 -5 0 -8 4 -4 9 3 5 0 13 -6 17 -7 4 -9 3 -6 -2 3 -6 2 -16
-4 -24 -7 -13 -9 -13 -10 0 -1 8 -1 20 0 25 1 6 -4 3 -11 -5 -17 -20 -53 -27
-42 -8 5 9 2 8 -11 -2 -17 -14 -18 -13 -12 5 7 20 7 20 -8 1 -11 -14 -15 -16
-15 -5 0 11 -2 12 -9 0 -18 -28 -19 8 -1 43 l18 37 -24 11 c-27 13 -30 25 -10
51 14 18 45 21 150 15 26 -1 41 3 44 12 3 9 -1 11 -12 7 -9 -4 -16 -2 -16 4 0
6 -11 8 -29 4 -16 -3 -32 -2 -35 3 -9 15 84 13 148 -4z m-595 1 c-3 -2 -19 -5
-37 -7 -29 -2 -47 -18 -21 -18 5 0 8 -4 4 -10 -3 -5 -12 -7 -20 -4 -8 4 -13 9
-11 13 3 4 -5 8 -17 9 -12 1 -35 6 -52 11 -23 7 -9 9 64 10 52 1 92 -1 90 -4z
m-267 -27 c-14 -14 -16 -32 -3 -24 5 4 7 -3 4 -14 -3 -12 -8 -19 -11 -16 -7 8
-62 -54 -62 -70 0 -8 -9 -14 -20 -14 -26 0 -48 -49 -28 -62 9 -5 5 -8 -12 -8
-14 0 -36 -9 -50 -20 -25 -19 -9 -23 20 -5 13 8 13 7 0 -11 -8 -10 -23 -30
-35 -43 -12 -15 -14 -22 -5 -17 13 7 13 6 0 -6 -8 -7 -22 -22 -30 -33 -15 -19
-15 -19 15 -1 17 10 40 29 53 42 29 31 56 32 47 3 -5 -16 -4 -19 5 -14 8 5 11
3 8 -6 -3 -8 -16 -14 -29 -14 -31 0 -49 -12 -49 -32 0 -11 5 -13 18 -8 9 4 28
10 41 13 23 5 23 3 17 -34 -14 -80 -18 -94 -27 -94 -5 0 -8 6 -7 13 2 6 -4 11
-12 9 -10 -1 -9 2 4 13 11 8 17 17 15 20 -3 3 -15 -4 -26 -14 -11 -11 -31 -21
-44 -23 -21 -3 -24 1 -27 35 -2 20 -7 37 -11 37 -17 0 -20 44 -7 94 8 28 30
80 51 115 43 72 165 201 191 201 14 0 15 -3 6 -12z m412 0 c-3 -4 -9 -8 -15
-8 -5 0 -9 4 -9 8 0 5 7 9 15 9 8 0 12 -4 9 -9z m-364 -13 c0 -8 -7 -15 -15
-15 -16 0 -20 12 -8 23 11 12 23 8 23 -8z m245 -5 c3 -5 1 -10 -5 -10 -6 0 -9
-4 -6 -8 3 -5 -12 -9 -32 -10 -20 -1 -47 -4 -59 -6 -28 -6 -21 15 10 30 28 15
84 17 92 4z m-245 -36 c0 -2 -9 -4 -21 -4 -11 0 -18 4 -14 10 5 8 35 3 35 -6z
m817 -100 c-3 -3 -12 -4 -19 -1 -8 3 -5 6 6 6 11 1 17 -2 13 -5z m336 -47 c-3
-4 -6 -7 -7 -5 -1 2 -8 12 -16 22 -14 18 -14 18 7 6 12 -8 19 -18 16 -23z
m-1236 17 c-3 -3 -12 -4 -19 -1 -8 3 -5 6 6 6 11 1 17 -2 13 -5z m-40 -10 c-3
-3 -12 -4 -19 -1 -8 3 -5 6 6 6 11 1 17 -2 13 -5z m1283 -49 c0 -2 -10 -9 -22
-15 -22 -11 -22 -10 -4 4 21 17 26 19 26 11z m-1323 -517 c-3 -7 -5 -2 -5 12
0 14 2 19 5 13 2 -7 2 -19 0 -25z m8 -72 c0 -19 -3 -32 -7 -29 -14 8 -8 63 6
63 1 0 1 -15 1 -34z m14 -225 c2 -101 -8 -46 -13 69 -3 87 -2 99 4 50 4 -36 8
-89 9 -119z"/>
<path d="M2159 1753 c-13 -16 -12 -17 4 -4 9 7 17 15 17 17 0 8 -8 3 -21 -13z"/>
<path d="M2646 1852 c-3 -5 0 -9 7 -10 7 0 22 -3 35 -6 12 -2 22 0 22 6 0 5
-7 8 -15 5 -8 -4 -17 -2 -20 3 -8 12 -22 13 -29 2z"/>
<path d="M2720 1834 c0 -2 10 -8 21 -15 17 -8 20 -8 17 2 -4 11 -38 23 -38 13z"/>
<path d="M2960 1720 c0 -5 5 -10 11 -10 5 0 7 5 4 10 -3 6 -8 10 -11 10 -2 0
-4 -4 -4 -10z"/>
<path d="M1659 1684 c-12 -14 -11 -16 5 -13 11 2 21 10 24 17 5 17 -13 15 -29
-4z"/>
</g>
</svg>
