<?xml version="1.0" standalone="no"?>
<!DOCTYPE svg PUBLIC "-//W3C//DTD SVG 20010904//EN"
 "http://www.w3.org/TR/2001/REC-SVG-20010904/DTD/svg10.dtd">
<svg version="1.0" xmlns="http://www.w3.org/2000/svg"
 width="450.000000pt" height="253.000000pt" viewBox="0 0 450.000000 253.000000"
 preserveAspectRatio="xMidYMid meet">
<metadata>
Created by potrace 1.16, written by Peter Selinger 2001-2019
</metadata>
<g transform="translate(0.000000,253.000000) scale(0.100000,-0.100000)"
fill="#000000" stroke="none">
<path d="M0 1265 l0 -1265 2250 0 2250 0 0 1265 0 1265 -892 0 c-490 0 -889
-3 -886 -6 4 -3 42 -7 85 -9 43 -2 91 -8 107 -15 109 -41 180 -170 193 -350
l6 -90 50 -15 c57 -17 87 -19 87 -7 0 5 15 17 33 27 50 26 174 17 242 -18 28
-14 73 -35 100 -47 106 -47 155 -110 155 -200 0 -62 -21 -95 -122 -199 -97
-98 -149 -134 -230 -155 -97 -26 -106 -34 -64 -61 53 -35 99 -163 112 -312 l6
-82 -31 -31 c-17 -17 -31 -36 -31 -41 0 -5 -8 -9 -19 -9 -10 0 -24 -6 -30 -14
-6 -8 -33 -17 -59 -22 -26 -4 -54 -9 -62 -12 -42 -14 -199 -12 -292 3 -98 15
-228 54 -255 76 -6 6 -20 9 -30 7 -15 -3 -20 -21 -29 -118 l-11 -115 -2 98 c0
53 -5 97 -10 97 -23 0 -61 -43 -61 -70 0 -47 -99 -140 -173 -163 -78 -25 -123
-24 -203 4 -85 30 -134 76 -175 167 -17 37 -35 69 -39 72 -17 11 -36 170 -21
170 6 0 11 7 11 16 0 12 -4 14 -12 7 -18 -14 -64 -24 -72 -16 -3 3 1 14 10 24
16 18 8 21 -130 44 -21 3 -46 10 -55 14 -9 5 -43 21 -76 37 -67 31 -155 113
-155 142 0 11 -7 25 -15 32 -8 7 -12 16 -9 21 2 5 -2 22 -11 38 -42 82 8 178
152 292 7 5 15 9 18 9 3 0 19 10 35 22 l30 21 -58 57 c-76 76 -108 124 -137
206 -42 120 -29 217 34 247 64 29 114 37 236 37 102 0 130 -4 190 -25 57 -20
89 -25 176 -25 l105 0 29 38 c16 22 43 49 60 60 16 12 50 38 75 57 25 19 70
42 100 51 30 9 66 20 80 25 14 4 -557 8 -1267 8 l-1293 1 0 -1265z m2626 -661
c-4 -14 -9 -24 -12 -21 -3 2 -2 17 2 31 3 15 9 25 11 22 3 -3 2 -17 -1 -32z
m-11 -121 c-4 -35 -9 -63 -11 -60 -2 2 -1 37 2 78 4 41 9 68 12 61 2 -8 1 -43
-3 -79z m-8 -125 c-2 -13 -4 -5 -4 17 -1 22 1 32 4 23 2 -10 2 -28 0 -40z"/>
<path d="M2271 2042 c1 -4 1 -14 0 -21 -1 -12 -4 -12 -13 -3 -16 16 -41 15
-35 0 2 -7 8 -13 13 -13 5 0 15 -4 22 -8 7 -5 12 -4 12 2 0 6 7 11 15 11 8 0
15 -4 15 -8 0 -7 24 -8 78 -3 6 1 12 4 12 9 0 4 -19 6 -41 4 -32 -3 -40 -1
-34 8 5 9 4 11 -3 6 -7 -4 -12 -3 -12 2 0 6 -7 12 -15 16 -8 3 -14 2 -14 -2z"/>
<path d="M2445 1870 c-5 -15 8 -60 18 -60 1 0 1 18 -1 40 -5 45 -8 49 -17 20z"/>
<path d="M2305 1851 c-3 -5 -2 -12 3 -15 5 -3 9 1 9 9 0 17 -3 19 -12 6z"/>
<path d="M2403 1789 c-2 -23 3 -25 10 -4 4 8 3 16 -1 19 -4 3 -9 -4 -9 -15z"/>
<path d="M2430 1771 c-7 -11 -17 -18 -21 -15 -11 6 -17 -6 -24 -56 -4 -25 -9
-48 -11 -51 -2 -4 5 -5 15 -2 15 4 20 -1 23 -19 2 -15 16 -30 42 -43 39 -20
66 -55 32 -42 -18 7 -23 -17 -6 -28 6 -4 3 -16 -8 -33 -9 -14 -12 -23 -5 -19
6 4 14 1 16 -5 3 -7 6 -8 6 -3 1 6 21 9 47 6 36 -2 45 0 39 10 -6 9 -3 11 8 6
20 -7 22 6 6 36 -10 18 -8 23 11 36 12 8 32 17 43 18 27 4 47 22 47 42 0 9 7
25 15 35 20 26 19 34 -2 32 -10 0 -24 -11 -31 -23 -7 -13 -20 -23 -28 -23 -8
0 -12 -4 -9 -10 3 -5 1 -19 -5 -31 -10 -18 -17 -20 -53 -14 -52 9 -83 27 -124
73 -36 40 -42 66 -17 76 8 3 14 14 12 23 -1 10 1 24 5 31 13 20 -7 14 -23 -7z"/>
<path d="M2336 1703 c9 -7 21 -10 26 -7 14 9 -1 23 -23 21 -19 -1 -19 -2 -3
-14z"/>
<path d="M2159 1692 c6 -11 9 -28 7 -39 -4 -16 1 -19 32 -16 34 2 72 23 43 23
-8 0 -23 10 -35 23 -12 12 -29 23 -39 25 -15 3 -17 0 -8 -16z"/>
<path d="M1836 1692 c13 -4 20 -14 18 -25 -1 -9 1 -15 6 -12 17 11 3 40 -21
42 -22 2 -22 1 -3 -5z"/>
<path d="M1793 1657 c-13 -5 -23 -14 -23 -19 0 -5 -4 -6 -10 -3 -5 3 -10 1
-10 -5 0 -6 -4 -8 -10 -5 -6 3 -7 -1 -4 -9 3 -9 11 -16 18 -16 6 0 5 -4 -3 -9
-8 -5 -23 -8 -33 -6 -10 2 -18 0 -18 -6 0 -5 18 -9 39 -9 44 0 58 -12 36 -30
-18 -15 -11 -30 15 -30 28 0 60 52 60 97 0 57 -15 70 -57 50z m41 -23 c3 -8 2
-12 -4 -9 -6 3 -10 10 -10 16 0 14 7 11 14 -7z"/>
<path d="M1503 1608 c-7 -8 -9 -25 -6 -39 3 -13 2 -21 -2 -17 -12 11 -45 -11
-45 -30 0 -14 2 -15 10 -2 15 24 25 -17 11 -48 l-13 -27 20 21 c28 29 42 59
42 88 0 14 5 28 10 31 6 3 10 11 10 16 0 6 -4 8 -9 5 -5 -4 -11 -1 -13 5 -2 7
-8 6 -15 -3z"/>
<path d="M2380 1573 c0 -11 -8 -27 -17 -34 -10 -9 -14 -9 -10 -2 5 7 -1 17
-13 23 -21 11 -40 6 -40 -11 0 -6 4 -8 9 -5 5 3 15 -2 22 -11 8 -9 9 -14 4
-11 -6 4 -17 3 -24 -1 -8 -6 4 -11 34 -16 27 -3 51 -3 54 2 3 5 14 12 24 16
18 7 24 27 7 27 -5 0 -18 10 -30 22 -20 22 -20 22 -20 1z"/>
<path d="M2158 1484 c-5 -4 -8 -15 -8 -25 0 -21 -31 -33 -62 -24 -16 6 -20 4
-15 -8 4 -11 1 -15 -14 -12 -10 2 -19 0 -19 -6 0 -10 20 -13 64 -10 16 2 33
-3 37 -11 7 -10 9 -9 9 4 0 9 12 29 27 43 21 19 24 25 11 25 -9 0 -18 7 -20
16 -2 9 -6 12 -10 8z"/>
<path d="M2354 1450 c-21 -8 -40 -28 -33 -34 2 -2 14 -7 26 -10 26 -8 72 32
51 46 -15 9 -17 9 -44 -2z"/>
<path d="M1904 1421 c14 -15 13 -18 -4 -29 -11 -7 -19 -18 -17 -25 5 -25 21
-24 44 4 14 16 28 27 32 25 3 -2 17 2 31 10 16 8 19 14 10 14 -8 1 -36 5 -63
9 -43 7 -46 6 -33 -8z"/>
<path d="M2235 1380 c3 -5 11 -10 16 -10 6 0 7 5 4 10 -3 6 -11 10 -16 10 -6
0 -7 -4 -4 -10z"/>
<path d="M2296 1333 c1 -26 7 -39 20 -44 30 -12 46 -10 38 4 -6 10 -4 10 7 0
19 -19 29 -16 29 8 0 35 -19 61 -37 50 -11 -6 -24 -4 -37 5 -20 12 -21 11 -20
-23z"/>
<path d="M2574 1349 c2 -13 56 -22 56 -10 0 15 -13 20 -31 11 -11 -7 -19 -6
-22 0 -3 6 -4 5 -3 -1z"/>
<path d="M2131 1329 c-15 -6 -21 -13 -15 -18 16 -16 50 -16 69 -1 17 14 18 14
5 -10 -12 -22 -12 -24 2 -12 13 11 16 9 16 -12 0 -22 -3 -24 -19 -15 -13 6
-19 6 -19 -1 0 -9 21 -15 43 -11 4 0 7 -4 7 -11 0 -6 3 -9 6 -6 3 4 1 17 -6
30 -11 22 -10 22 4 4 18 -22 21 -46 6 -46 -17 0 -50 -39 -50 -60 0 -25 8 -25
42 3 23 19 75 125 63 128 -3 1 -20 2 -37 3 -26 1 -34 6 -36 24 -4 24 -30 30
-51 10 -11 -10 -13 -10 -7 0 8 14 9 14 -23 1z"/>
<path d="M2450 1338 c-2 -5 -3 -11 -4 -15 -1 -5 -4 -13 -8 -18 -4 -6 -3 -17 2
-25 16 -25 31 1 21 35 -5 17 -10 27 -11 23z"/>
<path d="M2527 1301 c3 -12 9 -21 14 -21 14 0 11 16 -5 29 -12 10 -13 8 -9 -8z"/>
<path d="M2580 1202 c0 -15 -40 -52 -56 -52 -9 0 -14 8 -13 18 3 30 -1 38 -11
22 -7 -11 -10 -11 -10 -2 0 19 -47 -29 -52 -53 -2 -12 -11 -19 -21 -19 -9 1
-17 -3 -17 -8 0 -16 114 -3 140 15 14 9 31 17 40 17 9 0 26 7 38 16 22 15 22
17 6 35 -17 19 -44 26 -44 11z"/>
<path d="M3297 1199 c-9 -6 -15 -14 -12 -19 3 -5 1 -11 -5 -15 -6 -4 -8 -10
-5 -15 3 -5 0 -12 -6 -16 -7 -4 -9 -3 -5 4 3 6 2 13 -2 16 -12 7 -9 -22 5 -55
12 -27 77 -89 94 -89 7 0 9 10 5 26 -5 19 -4 24 6 18 10 -6 9 -3 -1 9 -11 14
-11 17 0 17 11 0 11 2 1 9 -7 4 -14 18 -15 29 -1 12 -5 22 -10 22 -6 0 -5 5 0
13 6 8 5 21 -3 37 -8 15 -14 19 -14 10 0 -9 5 -21 12 -28 8 -8 9 -12 1 -12 -6
0 -15 11 -20 24 -6 20 -11 23 -26 15z"/>
<path d="M2670 1180 c8 -6 24 -15 35 -21 16 -8 15 -6 -4 10 -13 12 -28 21 -35
21 -6 0 -4 -5 4 -10z"/>
<path d="M3057 1119 c7 -7 15 -10 18 -7 3 3 -2 9 -12 12 -14 6 -15 5 -6 -5z"/>
<path d="M3090 1099 c0 -5 12 -15 28 -22 15 -6 32 -19 39 -27 6 -8 15 -12 19
-7 4 4 17 -1 28 -10 l21 -18 -19 23 c-11 12 -25 21 -31 18 -6 -2 -17 5 -24 15
-6 11 -16 17 -21 14 -6 -3 -10 -2 -10 3 0 6 -7 12 -15 16 -8 3 -15 1 -15 -5z"/>
<path d="M2213 1067 c-30 -13 -30 -37 -1 -32 28 6 39 17 30 31 -5 8 -14 8 -29
1z"/>
<path d="M2253 979 c7 -11 13 -15 15 -9 2 6 9 7 15 4 8 -5 8 -2 0 6 -7 8 -19
15 -27 16 -12 2 -13 -1 -3 -17z"/>
</g>
</svg>
