<?xml version="1.0" standalone="no"?>
<!DOCTYPE svg PUBLIC "-//W3C//DTD SVG 20010904//EN"
 "http://www.w3.org/TR/2001/REC-SVG-20010904/DTD/svg10.dtd">
<svg version="1.0" xmlns="http://www.w3.org/2000/svg"
 width="450.000000pt" height="253.000000pt" viewBox="0 0 450.000000 253.000000"
 preserveAspectRatio="xMidYMid meet">
<metadata>
Created by potrace 1.16, written by Peter Selinger 2001-2019
</metadata>
<g transform="translate(0.000000,253.000000) scale(0.100000,-0.100000)"
fill="#000000" stroke="none">
<path d="M0 1265 l0 -1265 2250 0 2250 0 0 1265 0 1265 -2250 0 -2250 0 0
-1265z m3055 701 c28 -7 91 -32 140 -55 83 -40 94 -48 140 -112 92 -129 96
-172 24 -266 -60 -79 -72 -89 -164 -137 -38 -21 -94 -51 -122 -67 -29 -17 -58
-27 -64 -23 -8 4 -8 9 0 17 16 16 -58 38 -77 24 -9 -7 -11 -6 -6 7 10 25 -32
20 -50 -6 -9 -12 -16 -18 -16 -12 0 6 -15 11 -34 11 -50 0 -99 22 -93 43 4 14
-1 17 -24 16 -15 -1 -27 0 -27 3 2 26 -3 33 -16 22 -11 -9 -16 -9 -22 0 -4 7
-3 9 4 5 15 -9 26 12 13 28 -9 11 -2 13 36 12 27 0 55 -6 63 -11 8 -5 35 -11
60 -12 119 -4 117 -4 93 -13 -29 -12 -29 -15 3 -17 15 0 30 -6 34 -13 5 -8 10
-9 14 -2 8 13 46 3 69 -19 22 -20 57 -31 57 -17 0 5 4 7 9 4 5 -4 7 2 4 13 -3
13 2 20 19 24 14 4 41 18 62 32 21 14 34 20 30 13 -4 -7 2 -5 13 5 11 9 23 14
26 10 4 -3 7 -1 7 6 0 7 -9 15 -20 18 -11 3 -20 10 -20 15 0 5 5 6 10 3 6 -3
10 -1 10 4 0 17 -21 13 -37 -6 -8 -10 -12 -13 -9 -7 3 7 -1 25 -9 40 -9 19
-15 23 -15 12 0 -9 5 -20 10 -23 6 -4 8 -11 4 -16 -4 -6 -10 -6 -18 0 -7 6
-16 8 -20 3 -4 -4 -27 -7 -51 -7 -35 -1 -42 2 -33 12 5 7 15 10 22 6 6 -4 5 1
-3 10 -15 18 -26 23 -16 7 9 -15 -8 -12 -33 6 -12 8 -22 10 -22 5 0 -7 -8 -7
-22 -2 -26 9 -78 8 -95 -2 -7 -4 -25 -5 -40 -3 -15 2 -48 7 -73 11 -66 9 -140
35 -141 48 -1 7 -2 19 -3 27 -1 8 3 22 9 30 5 8 6 12 1 8 -5 -4 -18 4 -28 18
-18 22 -19 28 -7 57 7 18 18 40 25 51 7 10 10 25 7 33 -3 7 3 24 13 36 17 20
17 20 -8 -2 -15 -13 -32 -21 -38 -19 -22 7 89 79 161 102 86 29 203 34 284 12z
m-646 -60 c8 -5 16 -4 20 2 4 8 25 9 59 5 34 -4 49 -10 45 -17 -4 -6 1 -5 10
3 14 11 20 11 32 1 9 -7 12 -16 8 -20 -4 -4 -55 -20 -113 -35 -113 -29 -132
-38 -123 -61 9 -23 -14 -41 -50 -39 -17 1 -37 -2 -43 -7 -8 -5 -13 -1 -17 12
-3 11 -12 20 -21 20 -9 0 -16 5 -16 10 0 6 -8 14 -17 17 -10 4 -24 14 -31 22
-10 13 -11 11 -5 -14 3 -16 13 -35 21 -41 9 -7 13 -18 9 -28 -8 -20 -27 -12
-27 10 0 8 -13 33 -30 56 -16 22 -30 37 -30 32 0 -5 -4 -3 -9 5 -17 27 -31 7
-16 -23 13 -25 13 -27 0 -22 -8 3 -22 9 -30 12 -8 3 -15 1 -15 -6 0 -7 -6 -6
-16 4 -25 25 2 70 46 76 19 3 34 10 33 16 -1 5 15 11 35 12 20 2 37 4 39 5 7
7 240 1 252 -7z m181 -66 c0 -5 -5 -10 -11 -10 -5 0 -7 5 -4 10 3 6 8 10 11
10 2 0 4 -4 4 -10z m-470 -93 c0 -5 -10 -18 -22 -28 l-21 -19 21 0 c22 0 35
-14 39 -42 2 -14 -2 -15 -27 -8 -17 5 -34 9 -38 10 -4 1 -6 5 -5 9 3 13 -96
11 -104 -2 -4 -7 -8 -22 -8 -35 -1 -19 3 -22 20 -17 42 13 103 17 109 7 3 -5
-1 -12 -9 -16 -8 -3 -17 -1 -20 4 -4 6 -18 4 -36 -5 -25 -14 -27 -18 -17 -35
7 -11 16 -20 21 -20 4 0 6 -4 2 -9 -3 -6 -15 -8 -27 -6 -11 3 -28 0 -37 -5
-13 -7 -10 -9 13 -10 l30 0 -27 -28 c-32 -33 -34 -46 -7 -37 27 9 26 -13 -4
-57 -13 -19 -26 -41 -29 -49 -4 -10 -6 -9 -6 4 -1 9 -5 17 -11 17 -5 0 -7 -8
-4 -17 3 -10 -1 -7 -9 6 -8 14 -13 30 -12 35 2 6 6 44 10 85 3 41 13 93 20
115 8 23 15 48 15 57 0 9 11 24 25 33 14 9 37 24 52 34 15 9 24 12 20 5 -6 -9
-1 -10 23 -1 21 7 29 15 26 25 -9 22 3 36 20 22 8 -6 14 -16 14 -22z m736
-228 c4 -8 9 -8 17 0 14 14 64 14 72 0 4 -6 1 -9 -6 -8 -8 2 -25 -3 -38 -10
-18 -10 -22 -10 -16 0 6 9 3 11 -8 6 -9 -3 -19 -2 -22 4 -4 5 -11 7 -16 4 -5
-4 -9 -1 -9 4 0 14 17 14 26 0z m-136 -129 c0 -5 -2 -10 -4 -10 -3 0 -8 5 -11
10 -3 6 -1 10 4 10 6 0 11 -4 11 -10z m185 -60 c-5 -8 -11 -8 -17 -2 -6 6 -7
16 -3 22 5 8 11 8 17 2 6 -6 7 -16 3 -22z m-132 9 c12 -7 31 -21 41 -31 19
-20 19 -20 -5 -13 -13 4 -35 18 -49 31 -27 26 -22 31 13 13z m152 -49 c3 -5 1
-10 -4 -10 -6 0 -11 5 -11 10 0 6 2 10 4 10 3 0 8 -4 11 -10z m42 4 c-3 -3
-12 -4 -19 -1 -8 3 -5 6 6 6 11 1 17 -2 13 -5z"/>
<path d="M3247 1563 c5 -12 3 -14 -8 -7 -8 4 -20 9 -26 10 -16 3 -26 -13 -14
-20 5 -4 13 -1 16 4 5 8 13 6 26 -6 10 -9 19 -15 20 -13 0 2 2 12 4 21 2 9 -3
19 -10 22 -10 3 -12 0 -8 -11z"/>
<path d="M2685 1459 c-11 -16 -1 -19 13 -3 7 8 8 14 3 14 -5 0 -13 -5 -16 -11z"/>
<path d="M2696 1433 c-4 -10 -1 -11 13 -3 14 7 21 6 23 -2 3 -8 6 -7 10 3 4
11 -1 15 -18 15 -13 0 -26 -6 -28 -13z"/>
<path d="M2753 1426 c-4 -5 -1 -6 5 -2 7 4 12 3 12 -2 0 -11 37 -9 50 4 6 6
-3 10 -26 9 -20 0 -38 -4 -41 -9z"/>
<path d="M2848 1428 c5 -5 16 -8 23 -6 8 3 3 7 -10 11 -17 4 -21 3 -13 -5z"/>
<path d="M2866 1399 c4 -7 44 0 44 7 0 2 -11 3 -24 2 -14 -1 -23 -5 -20 -9z"/>
<path d="M2090 1870 c0 -11 4 -20 9 -20 5 0 11 9 14 20 3 13 0 20 -9 20 -8 0
-14 -9 -14 -20z"/>
</g>
</svg>
