<?xml version="1.0" standalone="no"?>
<!DOCTYPE svg PUBLIC "-//W3C//DTD SVG 20010904//EN"
 "http://www.w3.org/TR/2001/REC-SVG-20010904/DTD/svg10.dtd">
<svg version="1.0" xmlns="http://www.w3.org/2000/svg"
 width="450.000000pt" height="253.000000pt" viewBox="0 0 450.000000 253.000000"
 preserveAspectRatio="xMidYMid meet">
<metadata>
Created by potrace 1.16, written by Peter Selinger 2001-2019
</metadata>
<g transform="translate(0.000000,253.000000) scale(0.100000,-0.100000)"
fill="#000000" stroke="none">
<path d="M0 1265 l0 -1265 2250 0 2250 0 0 1265 0 1265 -902 -1 c-497 0 -894
-4 -883 -8 11 -5 53 -9 94 -10 92 -2 143 -23 195 -81 60 -67 85 -131 98 -258
12 -123 12 -122 100 -138 32 -5 43 -2 70 21 30 26 37 27 113 23 71 -4 93 -10
181 -52 54 -26 114 -57 132 -69 43 -28 75 -89 79 -151 4 -65 -22 -107 -129
-212 -97 -94 -146 -128 -208 -144 -59 -14 -100 -31 -100 -39 0 -4 12 -18 26
-32 55 -51 95 -166 109 -316 l7 -71 -39 -39 c-56 -54 -86 -69 -183 -88 -137
-28 -360 -5 -491 50 -89 38 -119 42 -119 19 -1 -45 -13 -169 -17 -174 -2 -3
-3 30 -2 73 1 42 -1 77 -4 77 -4 0 -11 0 -17 0 -20 0 -50 -41 -50 -68 0 -28
-69 -110 -111 -133 -36 -19 -113 -39 -151 -39 -46 0 -161 42 -204 75 -17 13
-49 57 -69 97 -21 40 -45 86 -53 102 -9 17 -15 58 -16 103 -1 40 -2 73 -4 73
-2 0 -17 -7 -33 -16 -36 -18 -48 -11 -31 16 10 17 7 20 -46 30 -114 22 -144
31 -209 63 -74 36 -163 115 -163 145 0 11 -6 25 -14 32 -8 6 -13 17 -10 24 3
7 -2 26 -11 42 -43 83 17 187 164 287 l75 50 -40 36 c-64 58 -119 134 -149
208 -33 82 -43 169 -24 204 7 13 12 27 11 31 -1 4 24 20 56 35 55 27 63 28
207 28 131 0 158 -3 213 -23 47 -17 88 -23 164 -25 l102 -2 25 35 c29 41 127
118 191 150 25 13 72 31 105 41 58 17 22 17 -1237 18 l-1298 1 0 -1265z m2627
-627 c-3 -8 -6 -5 -6 6 -1 11 2 17 5 13 3 -3 4 -12 1 -19z m-10 -95 c-3 -10
-5 -4 -5 12 0 17 2 24 5 18 2 -7 2 -21 0 -30z m-10 -125 c-3 -8 -6 -5 -6 6 -1
11 2 17 5 13 3 -3 4 -12 1 -19z m0 -55 c-3 -10 -5 -4 -5 12 0 17 2 24 5 18 2
-7 2 -21 0 -30z"/>
<path d="M2265 2040 c-4 -6 -16 -10 -28 -10 l-22 -1 24 -19 c17 -15 27 -18 37
-9 8 6 20 7 31 2 26 -12 76 -10 80 4 3 8 -6 10 -26 7 -16 -3 -32 0 -36 6 -3 6
-11 8 -16 5 -5 -4 -9 -2 -9 3 0 14 -28 23 -35 12z m15 -24 c-6 -8 -18 -12 -27
-9 -12 5 -12 7 -1 14 7 5 19 9 27 9 11 0 11 -3 1 -14z"/>
<path d="M2445 1870 c-3 -11 -2 -27 3 -37 8 -13 10 -9 10 20 0 42 -4 46 -13
17z"/>
<path d="M2399 1788 c-1 -7 -3 -20 -4 -28 0 -8 -5 -32 -9 -53 -6 -28 -5 -42 7
-55 8 -9 17 -26 21 -38 3 -11 22 -27 42 -34 41 -16 74 -48 37 -36 -18 6 -22 3
-20 -14 1 -11 5 -20 9 -20 5 0 3 -9 -4 -20 -7 -10 -8 -23 -4 -27 5 -4 11 -3
13 4 3 9 12 9 29 2 31 -11 55 -11 73 0 12 8 13 14 3 35 -10 22 -8 28 9 45 l21
20 -38 6 c-22 4 -49 11 -62 18 -31 15 -87 67 -101 94 -9 19 -8 24 9 33 22 12
27 46 8 53 -10 4 -10 6 0 6 7 1 10 6 7 11 -10 17 -25 11 -25 -10 0 -11 -5 -20
-11 -20 -6 0 -8 9 -4 20 3 11 4 20 1 20 -3 0 -7 -6 -7 -12z"/>
<path d="M2334 1705 c24 -18 39 -20 34 -2 -3 6 -15 13 -29 15 -23 2 -23 2 -5
-13z"/>
<path d="M2167 1704 c-8 -8 4 -44 15 -44 5 0 7 -4 4 -9 -7 -10 22 -19 47 -13
21 4 23 22 2 22 -8 0 -15 3 -15 8 -1 10 -47 42 -53 36z"/>
<path d="M1818 1693 c7 -3 16 -2 19 1 4 3 -2 6 -13 5 -11 0 -14 -3 -6 -6z"/>
<path d="M1854 1671 c2 -17 7 -35 11 -39 4 -4 4 4 0 17 -6 18 -4 22 6 15 11
-6 10 -3 -1 12 -8 10 -16 21 -17 23 -2 2 -1 -10 1 -28z"/>
<path d="M2670 1650 c-31 -31 -48 -74 -32 -84 14 -8 52 23 52 43 0 9 7 26 15
37 33 44 8 46 -35 4z"/>
<path d="M1803 1659 c-18 -3 -39 -12 -47 -18 -11 -9 -15 -9 -20 1 -6 12 -3 -8
5 -42 3 -11 -3 -14 -25 -12 -15 2 -26 0 -23 -5 3 -5 25 -10 49 -12 54 -3 59
-8 29 -30 l-24 -19 21 -6 c26 -9 65 2 57 15 -4 5 -1 9 5 9 6 0 8 5 5 10 -3 6
-1 10 4 10 12 0 15 79 3 96 -4 6 -20 8 -39 3z m34 -24 c0 -8 -4 -12 -9 -9 -5
3 -6 10 -3 15 9 13 12 11 12 -6z"/>
<path d="M1499 1598 c-1 -7 -1 -17 0 -22 2 -10 -31 -36 -40 -31 -3 2 -6 -2 -6
-10 0 -10 6 -11 25 -4 20 8 23 7 15 -3 -6 -7 -14 -24 -18 -38 -6 -22 -4 -21
18 8 16 22 24 44 23 67 -1 18 2 31 6 29 3 -2 9 0 13 6 3 5 -3 10 -14 10 -12 0
-22 -6 -22 -12z"/>
<path d="M2383 1578 c3 -9 0 -23 -6 -33 -11 -14 -24 -19 -62 -25 -5 -1 -1 -5
10 -10 29 -13 83 -12 91 2 5 7 3 8 -6 3 -9 -5 -11 -4 -6 3 4 7 13 12 20 12 8
0 19 6 25 14 10 12 9 13 -7 9 -12 -3 -28 4 -42 19 -16 15 -21 18 -17 6z"/>
<path d="M2297 1554 c3 -8 8 -14 12 -15 3 0 14 -2 24 -4 9 -2 17 1 17 6 0 6 6
7 13 3 9 -5 9 -4 -1 7 -17 19 -72 21 -65 3z"/>
<path d="M2147 1465 c4 -20 0 -25 -22 -31 -21 -5 -32 -2 -43 12 -14 18 -14 18
-8 1 4 -14 0 -20 -14 -24 -11 -3 -20 -10 -20 -15 0 -5 4 -7 9 -3 5 3 12 1 16
-5 3 -5 11 -10 16 -10 6 0 8 4 4 9 -3 5 -1 13 5 16 6 4 9 1 8 -6 -6 -25 40
-13 71 19 21 20 27 32 18 32 -8 0 -17 7 -21 15 -9 24 -24 17 -19 -10z"/>
<path d="M2342 1444 c-29 -20 -28 -30 5 -39 21 -5 32 -2 45 15 31 38 -5 56
-50 24z"/>
<path d="M1910 1429 c-21 -6 -21 -7 -5 -8 18 -1 16 -5 -13 -31 -18 -17 -31
-30 -30 -31 28 -8 47 -5 63 11 11 10 36 25 55 32 l35 14 -40 10 c-22 6 -51 7
-65 3z"/>
<path d="M2228 1393 c6 -2 9 -10 6 -15 -4 -7 -2 -8 5 -4 13 9 5 26 -12 25 -9
0 -8 -2 1 -6z"/>
<path d="M2275 1370 c-4 -6 -1 -9 7 -8 8 2 14 -9 16 -32 4 -41 15 -50 60 -50
29 0 32 3 32 28 0 35 -31 67 -48 50 -8 -8 -17 -7 -36 5 -16 11 -27 13 -31 7z"/>
<path d="M2601 1353 c-1 -17 16 -25 25 -12 4 7 3 9 -4 5 -5 -3 -13 0 -15 6 -4
9 -6 10 -6 1z"/>
<path d="M2164 1340 c-40 -9 -56 -19 -48 -31 4 -7 59 -6 59 1 0 1 8 3 18 5 26
5 30 11 15 22 -7 5 -27 7 -44 3z"/>
<path d="M2442 1315 c-9 -20 -10 -31 -2 -39 17 -17 30 6 22 38 l-8 28 -12 -27z"/>
<path d="M2529 1303 c-13 -16 -12 -17 4 -4 9 7 17 15 17 17 0 8 -8 3 -21 -13z"/>
<path d="M2176 1293 c-6 -14 -5 -15 5 -6 7 7 10 15 7 18 -3 3 -9 -2 -12 -12z"/>
<path d="M2200 1301 c0 -6 5 -13 10 -16 6 -3 10 -11 10 -17 0 -6 -7 -5 -17 3
-14 12 -16 12 -8 0 6 -11 4 -13 -8 -8 -10 3 -17 2 -17 -2 0 -14 30 -22 30 -8
0 7 5 4 11 -6 11 -18 29 -14 29 6 0 7 -4 6 -11 -3 -7 -10 -9 -11 -7 -2 4 16
21 18 26 4 3 -10 -17 -33 -50 -56 -16 -12 -19 -20 -13 -43 7 -28 7 -28 18 -5
5 12 16 22 24 22 7 0 18 12 24 28 6 15 17 40 25 56 17 36 18 33 -6 39 -11 3
-20 1 -20 -3 0 -5 -8 -7 -17 -5 -10 1 -17 8 -15 14 1 6 -2 11 -8 11 -5 0 -10
-4 -10 -9z"/>
<path d="M2875 1220 c3 -5 8 -10 11 -10 2 0 4 5 4 10 0 6 -5 10 -11 10 -5 0
-7 -4 -4 -10z"/>
<path d="M2579 1203 c-1 -5 -1 -11 0 -15 0 -4 -10 -15 -24 -24 -26 -17 -50
-10 -41 12 3 8 -1 17 -9 20 -17 7 -62 -34 -67 -61 -2 -11 -11 -19 -21 -19 -9
1 -15 -2 -12 -6 8 -14 114 -2 138 15 12 8 28 15 37 15 9 0 26 7 38 16 22 15
22 17 6 35 -17 19 -43 26 -45 12z"/>
<path d="M3295 1180 c-10 -11 -14 -20 -10 -20 4 0 1 -8 -9 -19 -12 -14 -14
-24 -7 -42 10 -27 61 -89 61 -75 0 5 7 3 16 -4 8 -8 14 -9 13 -4 -1 5 -1 11 1
14 10 26 8 56 -5 70 -8 9 -12 20 -8 23 3 4 1 7 -5 7 -10 0 -10 9 0 49 5 23
-26 24 -47 1z"/>
<path d="M2674 1181 c4 -6 16 -16 28 -22 15 -8 18 -8 14 0 -4 6 -16 16 -28 22
-15 8 -18 8 -14 0z"/>
<path d="M3090 1101 c24 -20 40 -26 40 -16 0 2 -15 12 -32 20 l-33 16 25 -20z"/>
<path d="M2049 1083 c-13 -16 -12 -17 4 -4 16 13 21 21 13 21 -2 0 -10 -8 -17
-17z"/>
<path d="M2190 1060 c-14 -11 -19 -20 -12 -21 6 -1 18 -2 25 -3 22 -4 46 14
41 29 -8 20 -24 19 -54 -5z"/>
<path d="M3152 1064 c10 -10 20 -16 22 -13 3 3 -5 11 -17 18 -21 13 -21 12 -5
-5z"/>
<path d="M3195 1030 c3 -5 8 -10 11 -10 2 0 4 5 4 10 0 6 -5 10 -11 10 -5 0
-7 -4 -4 -10z"/>
<path d="M2266 1003 c-6 -14 -5 -15 5 -6 7 7 10 15 7 18 -3 3 -9 -2 -12 -12z"/>
<path d="M2538 906 c-20 -15 -23 -26 -8 -26 5 0 14 9 20 20 12 23 11 24 -12 6z"/>
</g>
</svg>
