<?xml version="1.0" standalone="no"?>
<!DOCTYPE svg PUBLIC "-//W3C//DTD SVG 20010904//EN"
 "http://www.w3.org/TR/2001/REC-SVG-20010904/DTD/svg10.dtd">
<svg version="1.0" xmlns="http://www.w3.org/2000/svg"
 width="450.000000pt" height="253.000000pt" viewBox="0 0 450.000000 253.000000"
 preserveAspectRatio="xMidYMid meet">
<metadata>
Created by potrace 1.16, written by Peter Selinger 2001-2019
</metadata>
<g transform="translate(0.000000,253.000000) scale(0.100000,-0.100000)"
fill="#000000" stroke="none">
<path d="M0 1265 l0 -1265 2250 0 2250 0 0 1265 0 1265 -2250 0 -2250 0 0
-1265z m2643 608 c-7 -3 -13 -9 -13 -14 0 -6 7 -6 18 -1 9 5 24 8 32 7 35 -3
91 -18 96 -26 3 -5 9 -7 14 -4 5 3 11 1 15 -5 3 -5 15 -10 26 -10 10 0 19 -4
19 -10 0 -5 3 -9 8 -8 12 3 92 -34 92 -42 0 -5 9 -11 19 -15 20 -6 82 -51 114
-82 20 -19 23 -63 5 -81 -21 -21 -32 -13 -13 8 14 16 16 23 7 32 -9 9 -12 9
-12 0 0 -13 -35 -11 -47 3 -5 4 -2 5 6 0 10 -6 12 -4 6 4 -5 9 -11 9 -17 3 -6
-6 -22 -7 -38 -2 -18 5 -32 4 -39 -3 -8 -8 -11 -8 -11 1 0 7 -5 12 -11 12 -5
0 -8 -4 -5 -9 7 -11 -13 -9 -32 2 -7 5 -9 13 -6 19 5 7 0 9 -15 5 -14 -3 -26
1 -35 15 -9 12 -19 17 -27 13 -7 -5 -10 -4 -6 2 4 6 0 16 -8 23 -12 10 -15 10
-15 0 0 -13 -16 -12 -112 6 -26 4 -38 3 -38 -5 0 -6 11 -11 24 -11 13 0 41 -7
62 -16 38 -16 69 -25 92 -26 6 -1 12 -5 12 -10 0 -4 7 -8 15 -8 8 0 15 -4 15
-9 0 -8 -21 -8 -40 -1 -3 1 -8 2 -12 1 -5 0 -8 5 -8 12 0 8 -4 7 -10 -3 -8
-12 -10 -12 -10 -1 0 8 -7 11 -20 8 -11 -3 -18 -1 -14 4 5 8 -10 13 -29 10 -5
-1 -6 3 -3 8 9 14 -15 19 -45 10 -17 -4 -31 -3 -39 4 -8 9 -10 8 -5 -4 5 -12
0 -16 -19 -15 -14 1 -28 5 -32 9 -4 3 4 4 16 2 12 -2 20 -1 16 2 -12 13 -54
11 -50 -2 6 -16 -39 -13 -59 3 -12 10 -16 10 -19 0 -3 -8 -6 -7 -11 4 -3 10 4
27 19 43 13 14 24 31 24 37 0 6 -3 9 -6 5 -11 -10 -64 22 -58 36 8 21 59 38
118 39 31 1 56 7 56 12 0 6 5 4 11 -4 9 -13 10 -13 6 0 -2 8 -10 15 -18 16
-29 2 -34 5 -21 12 7 5 27 6 45 4 17 -3 26 -7 20 -9z m-598 -3 c3 -6 -1 -7 -9
-4 -16 6 -23 -11 -8 -20 5 -3 27 -6 50 -7 22 -2 40 -8 39 -13 -1 -7 35 -11
104 -11 79 0 106 3 106 13 0 7 -7 12 -16 11 -9 -1 -20 0 -26 1 -5 1 -28 1 -50
0 -22 -1 -37 2 -33 6 5 4 31 9 60 10 28 2 54 8 58 15 5 7 13 8 21 3 8 -5 23
-9 34 -10 40 -2 45 -4 45 -18 0 -16 -77 -59 -91 -51 -5 4 -9 1 -9 -6 0 -8 -4
-8 -15 1 -13 11 -19 7 -17 -11 1 -4 -7 -5 -17 -2 -14 3 -20 -2 -23 -21 -3 -15
-1 -24 6 -23 6 1 11 -7 11 -18 0 -13 -8 -21 -22 -23 -13 -2 -23 1 -23 7 0 6 5
11 12 11 6 0 8 3 5 7 -4 4 -21 -4 -38 -16 -17 -13 -33 -20 -37 -16 -4 3 -1 10
7 14 9 6 6 10 -11 16 -12 4 -26 7 -31 6 -4 -1 -25 8 -46 18 -21 11 -41 17 -45
14 -3 -4 -6 0 -6 9 0 8 10 20 23 27 19 9 15 10 -28 7 -27 -2 -44 -2 -37 1 10
4 10 8 1 19 -6 8 -16 11 -22 7 -6 -4 -7 -1 -2 6 5 9 10 10 18 2 14 -14 40 -14
35 0 -2 7 -28 20 -58 29 l-55 18 67 1 c37 1 70 -3 73 -9z m455 3 c-8 -3 -28
-12 -44 -20 -21 -11 -27 -11 -24 -2 2 7 12 13 22 15 10 1 20 5 24 8 3 3 12 6
21 5 14 0 14 -1 1 -6z m-674 -18 c-15 -11 -16 -17 -7 -28 9 -11 8 -17 -2 -26
-8 -6 -16 -8 -19 -5 -4 3 -20 -15 -38 -40 -22 -33 -38 -46 -55 -46 -15 0 -29
-9 -36 -22 -10 -18 -9 -20 5 -15 10 4 16 1 16 -7 0 -8 6 -17 13 -19 6 -3 0 -6
-15 -6 -15 -1 -34 -8 -42 -17 -17 -17 -21 -28 -7 -20 5 3 14 0 20 -7 8 -11 5
-17 -14 -27 -14 -7 -25 -18 -25 -24 0 -5 -10 -21 -22 -34 l-23 -25 32 17 c17
9 38 25 46 36 7 11 30 26 50 35 45 19 57 19 31 1 -10 -8 -16 -18 -12 -21 4 -4
3 -16 -3 -27 -8 -14 -17 -18 -34 -14 -18 5 -27 1 -35 -13 -13 -26 -13 -34 3
-24 6 4 20 9 29 10 10 2 23 4 30 5 14 3 15 -62 3 -111 -5 -20 -8 -22 -16 -10
-5 8 -9 9 -9 2 0 -12 -36 -7 -56 8 -5 5 -19 6 -30 3 -18 -5 -21 -1 -19 25 1
17 -2 31 -7 31 -14 0 -9 65 11 121 39 114 151 269 185 256 9 -4 13 0 11 11 -1
9 7 22 19 29 29 17 45 15 22 -2z m34 -20 c-7 -9 -15 -13 -17 -11 -7 7 7 26 19
26 6 0 6 -6 -2 -15z m997 -207 c-3 -8 -6 -5 -6 6 -1 11 2 17 5 13 3 -3 4 -12
1 -19z m-1182 -7 c3 -5 1 -12 -5 -16 -5 -3 -10 1 -10 9 0 18 6 21 15 7z m1372
-66 c4 -4 3 -5 -4 -1 -6 3 -14 2 -18 -4 -4 -6 -11 -8 -16 -4 -5 3 -7 9 -4 14
6 10 31 7 42 -5z"/>
<path d="M2511 1684 c0 -11 3 -14 6 -6 3 7 2 16 -1 19 -3 4 -6 -2 -5 -13z"/>
<path d="M2090 1800 c-9 -6 -10 -10 -3 -10 6 0 15 5 18 10 8 12 4 12 -15 0z"/>
<path d="M1681 1434 c-14 -32 -14 -35 4 -27 9 3 13 8 11 11 -3 3 -1 11 5 18 6
7 6 15 1 18 -5 3 -14 -6 -21 -20z"/>
</g>
</svg>
