<?xml version="1.0" standalone="no"?>
<!DOCTYPE svg PUBLIC "-//W3C//DTD SVG 20010904//EN"
 "http://www.w3.org/TR/2001/REC-SVG-20010904/DTD/svg10.dtd">
<svg version="1.0" xmlns="http://www.w3.org/2000/svg"
 width="450.000000pt" height="253.000000pt" viewBox="0 0 450.000000 253.000000"
 preserveAspectRatio="xMidYMid meet">
<metadata>
Created by potrace 1.16, written by Peter Selinger 2001-2019
</metadata>
<g transform="translate(0.000000,253.000000) scale(0.100000,-0.100000)"
fill="#000000" stroke="none">
<path d="M0 1265 l0 -1265 2250 0 2250 0 0 1265 0 1265 -787 -1 c-744 0 -787
-1 -763 -17 54 -37 90 -80 119 -142 17 -36 31 -75 31 -87 0 -12 4 -33 10 -47
5 -15 11 -59 12 -100 l3 -73 62 -17 c62 -16 63 -16 88 6 35 31 56 35 142 27
60 -6 93 -17 185 -62 120 -59 168 -95 168 -128 0 -11 6 -22 13 -25 19 -7 10
-121 -13 -159 -29 -46 -202 -211 -246 -233 -21 -10 -52 -22 -69 -25 -16 -3
-47 -13 -69 -22 l-38 -16 29 -29 c32 -31 81 -116 89 -152 28 -142 36 -219 25
-246 -7 -17 -21 -32 -32 -35 -10 -3 -19 -12 -19 -21 0 -9 -8 -16 -17 -16 -9 0
-24 -7 -33 -15 -23 -21 -116 -44 -207 -51 -137 -11 -347 26 -452 80 -33 17
-67 21 -75 8 -3 -5 -8 -44 -11 -87 -8 -106 -19 -112 -13 -7 3 45 2 81 -2 80
-20 -9 -90 -98 -96 -123 -6 -29 -119 -155 -138 -155 -5 0 -17 -6 -25 -14 -25
-21 -128 -56 -167 -56 -102 0 -188 54 -218 137 -10 26 -29 77 -43 112 -20 52
-24 80 -24 158 1 52 3 98 6 103 3 4 -4 6 -15 3 -25 -7 -28 22 -3 35 12 7 -3
13 -58 22 -129 22 -249 70 -335 135 -46 35 -104 165 -104 234 0 37 54 133 92
166 42 36 97 75 105 75 4 1 19 10 32 20 l23 20 -72 76 c-76 80 -116 152 -142
254 -15 59 -9 141 10 148 6 2 9 9 6 15 -7 20 86 55 171 64 109 11 237 0 309
-28 47 -17 83 -22 167 -23 l107 -2 22 33 c36 52 133 132 207 169 l68 34 -1257
0 -1258 0 0 -1265z m2527 -610 c0 -50 -3 -54 -11 -12 -2 14 -7 31 -10 36 -4 5
0 12 6 14 7 3 13 6 14 6 1 1 1 -19 1 -44z m100 -37 c-3 -8 -6 -5 -6 6 -1 11 2
17 5 13 3 -3 4 -12 1 -19z m-10 -70 c-3 -7 -5 -2 -5 12 0 14 2 19 5 13 2 -7 2
-19 0 -25z m0 -50 c-3 -7 -5 -2 -5 12 0 14 2 19 5 13 2 -7 2 -19 0 -25z m0
-40 c-3 -8 -6 -5 -6 6 -1 11 2 17 5 13 3 -3 4 -12 1 -19z m-10 -55 c-3 -10 -5
-4 -5 12 0 17 2 24 5 18 2 -7 2 -21 0 -30z"/>
<path d="M2240 2016 c0 -2 8 -10 18 -17 15 -13 16 -12 3 4 -13 16 -21 21 -21
13z"/>
<path d="M2301 2010 c-9 -5 -4 -9 13 -12 14 -3 26 -2 26 2 0 12 -26 19 -39 10z"/>
<path d="M2453 1862 c-10 -7 -10 -12 1 -27 13 -19 14 -18 13 8 -1 15 -2 27 -2
27 0 0 -6 -4 -12 -8z"/>
<path d="M2425 1770 c-25 -17 -30 -26 -31 -67 -2 -41 3 -54 33 -91 21 -25 41
-41 49 -38 8 3 18 -4 24 -14 10 -18 7 -23 -10 -22 -3 0 -5 -20 -6 -44 l-1 -44
54 0 c34 0 52 4 48 10 -3 6 3 10 14 10 12 0 21 5 21 10 0 6 -4 10 -10 10 -17
0 -11 48 7 59 14 8 10 11 -22 17 -22 5 -43 9 -47 10 -5 1 -13 2 -18 3 -16 2
-110 102 -110 117 0 7 8 17 17 22 9 6 17 23 18 41 1 17 1 31 1 31 -1 0 -14 -9
-31 -20z"/>
<path d="M2330 1716 c0 -2 7 -7 16 -10 8 -3 12 -2 9 4 -6 10 -25 14 -25 6z"/>
<path d="M2173 1678 c4 -20 31 -45 47 -42 8 1 18 3 23 3 4 1 7 6 7 12 0 5 -4
8 -10 4 -5 -3 -18 3 -30 15 -22 22 -41 27 -37 8z"/>
<path d="M2710 1659 c0 -5 -4 -8 -9 -5 -17 11 -61 -39 -59 -67 1 -15 6 -27 11
-27 20 0 47 22 47 38 0 10 7 27 15 38 17 23 19 34 5 34 -5 0 -10 -5 -10 -11z"/>
<path d="M1764 1645 c-12 -8 -24 -11 -28 -8 -3 3 -6 -1 -6 -9 0 -9 13 -27 30
-41 25 -22 27 -27 15 -37 -24 -20 -17 -36 15 -36 21 0 30 5 30 16 0 9 4 20 10
26 16 16 16 84 0 94 -9 6 -17 5 -22 -3 -6 -9 -8 -9 -8 1 0 16 -11 15 -36 -3z"/>
<path d="M1497 1613 c-3 -16 -1 -30 5 -32 5 -2 -3 -12 -19 -22 -15 -10 -22
-19 -14 -19 13 0 12 -23 -4 -65 -6 -14 1 -11 24 12 36 36 51 103 29 131 -11
13 -11 14 1 7 10 -5 12 -4 7 3 -12 20 -23 13 -29 -15z"/>
<path d="M1700 1586 c0 -2 11 -6 25 -8 13 -3 22 -1 19 3 -5 9 -44 13 -44 5z"/>
<path d="M2315 1550 c-10 -16 17 -23 31 -8 12 12 11 14 -6 15 -11 1 -22 -2
-25 -7z"/>
<path d="M2384 1546 c-3 -8 -11 -13 -18 -10 -15 6 -40 -21 -32 -34 12 -19 116
6 116 28 0 6 -44 30 -56 30 -2 0 -7 -6 -10 -14z"/>
<path d="M2141 1429 c-28 -15 -31 -19 -18 -25 12 -4 26 3 44 20 30 30 22 31
-26 5z"/>
<path d="M2347 1430 c-31 -25 -34 -35 -11 -44 17 -7 58 17 47 27 -3 4 2 7 11
7 21 0 16 24 -5 28 -9 1 -27 -7 -42 -18z"/>
<path d="M1911 1414 c11 -14 10 -18 -6 -30 -10 -8 -15 -17 -11 -21 7 -7 55 44
56 60 0 4 -12 7 -26 7 -23 0 -25 -2 -13 -16z"/>
<path d="M2070 1412 c0 -5 7 -9 15 -9 8 0 15 4 15 9 0 4 -7 8 -15 8 -8 0 -15
-4 -15 -8z"/>
<path d="M2226 1375 c4 -8 11 -15 16 -15 6 0 5 6 -2 15 -7 8 -14 15 -16 15 -2
0 -1 -7 2 -15z"/>
<path d="M2570 1345 c0 -2 7 -8 15 -15 12 -10 15 -10 15 2 0 8 -7 15 -15 15
-8 0 -15 -1 -15 -2z"/>
<path d="M2328 1334 c10 -5 9 -9 -4 -19 -28 -20 -10 -45 31 -45 35 0 36 1 33
33 -3 29 -6 32 -38 34 -19 1 -29 0 -22 -3z"/>
<path d="M2610 1328 c0 -6 3 -8 6 -5 4 3 16 2 28 -4 20 -10 20 -10 2 5 -24 19
-36 20 -36 4z"/>
<path d="M2557 1305 c-8 -8 -18 -11 -22 -7 -5 4 -5 1 -1 -6 6 -11 12 -10 27 4
10 9 19 19 19 21 0 7 -9 2 -23 -12z"/>
<path d="M2445 1280 c-3 -5 -1 -10 4 -10 6 0 11 5 11 10 0 6 -2 10 -4 10 -3 0
-8 -4 -11 -10z"/>
<path d="M2250 1266 c0 -2 7 -9 15 -16 9 -7 15 -8 15 -2 0 5 -7 12 -15 16 -8
3 -15 4 -15 2z"/>
<path d="M3320 1208 c0 -5 -5 -6 -10 -3 -6 4 -13 -7 -16 -25 -4 -17 -11 -33
-17 -37 -6 -4 -7 -1 -2 7 5 8 4 11 -3 7 -5 -4 -8 -16 -5 -27 3 -11 9 -17 14
-14 5 3 6 -1 3 -9 -3 -8 7 -29 22 -48 16 -19 29 -35 30 -37 5 -9 45 -9 50 0
11 17 11 52 0 59 -5 4 -9 20 -10 37 0 17 -4 28 -7 26 -4 -2 -10 3 -13 12 -8
22 -8 26 3 20 5 -4 4 4 -2 17 -10 23 -37 33 -37 15z"/>
<path d="M2219 1182 c-14 -9 -24 -23 -21 -30 3 -9 9 -7 21 7 10 12 21 18 25
14 3 -3 6 1 6 10 0 20 2 20 -31 -1z"/>
<path d="M2590 1170 c-37 -52 -96 -62 -84 -14 3 13 2 24 -3 24 -15 0 -53 -39
-53 -54 0 -32 81 -28 116 5 14 13 29 23 32 23 4 -1 6 3 4 9 -2 6 5 4 14 -4 10
-8 15 -9 11 -2 -4 6 -2 13 4 15 7 2 6 8 -4 16 -13 11 -19 8 -37 -18z"/>
<path d="M2685 1170 c3 -5 8 -10 11 -10 2 0 4 5 4 10 0 6 -5 10 -11 10 -5 0
-7 -4 -4 -10z"/>
<path d="M3090 1115 c0 -10 23 -30 43 -38 25 -10 21 -1 -13 23 -16 12 -30 18
-30 15z"/>
<path d="M3160 1066 c0 -2 8 -10 18 -17 15 -13 16 -12 3 4 -13 16 -21 21 -21
13z"/>
<path d="M2216 1045 c-11 -8 -15 -15 -9 -15 19 0 43 12 43 21 0 13 -12 11 -34
-6z"/>
</g>
</svg>
