<?xml version="1.0" standalone="no"?>
<!DOCTYPE svg PUBLIC "-//W3C//DTD SVG 20010904//EN"
 "http://www.w3.org/TR/2001/REC-SVG-20010904/DTD/svg10.dtd">
<svg version="1.0" xmlns="http://www.w3.org/2000/svg"
 width="450.000000pt" height="253.000000pt" viewBox="0 0 450.000000 253.000000"
 preserveAspectRatio="xMidYMid meet">
<metadata>
Created by potrace 1.16, written by Peter Selinger 2001-2019
</metadata>
<g transform="translate(0.000000,253.000000) scale(0.100000,-0.100000)"
fill="#000000" stroke="none">
<path d="M0 1265 l0 -1265 2250 0 2250 0 0 1265 0 1265 -2250 0 -2250 0 0
-1265z m2777 616 c125 -40 291 -129 275 -146 -4 -5 -1 -5 6 -1 14 9 68 -41 81
-76 10 -28 -20 -78 -47 -78 -14 1 -13 4 6 20 16 13 19 21 11 26 -19 12 -158 7
-173 -5 -10 -8 -16 -9 -21 -1 -3 6 -12 7 -18 3 -18 -11 -40 -9 -55 4 -6 6 -24
10 -38 7 -14 -3 -23 -1 -20 4 3 5 -1 9 -9 9 -8 0 -11 -5 -8 -11 4 -6 -3 -2
-15 8 -15 13 -22 15 -22 6 0 -10 -3 -10 -14 -1 -10 8 -16 9 -21 1 -3 -6 -12
-7 -18 -3 -7 4 -39 8 -72 8 -42 1 -59 5 -57 14 1 7 -2 10 -8 6 -6 -3 -8 -11
-5 -16 8 -12 3 -11 -36 6 -19 8 -28 14 -20 15 19 0 8 11 -16 14 -10 2 -16 7
-14 12 2 5 6 15 8 21 3 7 9 10 14 7 16 -9 5 19 -18 53 -24 33 -29 53 -15 53 5
0 16 6 27 13 14 11 15 16 5 22 -9 5 -11 4 -6 -3 4 -7 1 -12 -8 -12 -35 0 -23
20 21 35 64 20 216 14 300 -14z m-639 -3 c63 -1 102 -6 102 -12 0 -6 4 -5 9 3
9 14 84 11 124 -4 16 -7 16 -9 3 -24 -9 -10 -42 -30 -75 -46 -51 -24 -60 -32
-66 -61 -6 -34 -13 -38 -64 -36 -13 1 -36 -5 -52 -14 -28 -14 -29 -14 -26 8 3
31 -35 36 -62 9 -16 -16 -21 -17 -21 -6 0 8 9 20 19 27 24 15 10 38 -18 31
-21 -5 -37 33 -17 41 6 2 -4 2 -23 -1 -29 -5 -33 -4 -28 10 3 9 1 17 -6 20 -7
2 -12 12 -12 23 0 14 -9 20 -35 23 l-35 5 40 6 c22 3 63 4 90 3 28 -2 96 -4
153 -5z m-302 -16 c6 -4 14 -22 17 -40 l7 -33 -43 2 c-24 2 -49 -1 -56 -5 -10
-7 -11 -4 -2 12 8 14 8 23 1 27 -6 4 -9 2 -8 -3 2 -5 -8 -19 -22 -31 -19 -16
-21 -19 -6 -14 16 5 18 3 12 -13 -5 -10 -11 -27 -13 -36 -3 -10 -12 -19 -19
-19 -8 -1 -19 -2 -26 -3 -6 0 -13 -7 -16 -15 -3 -10 0 -12 12 -8 10 4 16 1 16
-8 0 -19 -1 -19 56 6 46 19 49 19 62 2 12 -17 14 -17 45 0 l32 19 -24 -26
c-21 -22 -31 -26 -65 -22 -41 5 -132 -13 -109 -21 13 -5 11 -9 -27 -50 -8 -9
-15 -21 -15 -27 -1 -6 -6 -10 -13 -9 -6 2 -16 -6 -22 -17 -17 -32 5 -24 43 15
35 36 74 48 63 19 -3 -8 -2 -12 4 -9 6 3 10 -3 10 -14 0 -16 -6 -21 -29 -21
-16 0 -31 -6 -34 -12 -3 -10 8 -12 41 -9 l45 3 -7 -43 c-4 -24 -7 -52 -7 -62
0 -30 -93 -58 -103 -31 -3 7 -11 11 -19 9 -8 -4 -19 9 -30 33 -33 75 -7 187
75 314 73 114 137 165 174 140z m13 -125 c-2 -1 -13 -9 -24 -17 -19 -14 -19
-14 -6 3 7 9 18 17 24 17 6 0 8 -1 6 -3z m-96 -148 c-7 -7 -20 -8 -34 -3 -23
8 -23 8 6 14 35 7 43 4 28 -11z m222 -19 c3 -5 1 -10 -4 -10 -6 0 -11 5 -11
10 0 6 2 10 4 10 3 0 8 -4 11 -10z m-210 -48 c-3 -3 -11 0 -18 7 -9 10 -8 11
6 5 10 -3 15 -9 12 -12z m-35 -177 c0 -8 -4 -15 -10 -15 -5 0 -7 7 -4 15 4 8
8 15 10 15 2 0 4 -7 4 -15z m17 -430 c0 -8 -4 -12 -9 -9 -5 3 -6 10 -3 15 9
13 12 11 12 -6z m9 -191 c1 -9 0 -13 -4 -10 -3 4 -7 14 -8 22 -1 9 0 13 4 10
3 -4 7 -14 8 -22z m9 -84 c2 -12 1 -20 -2 -16 -4 4 -8 16 -10 28 -4 28 6 18
12 -12z"/>
<path d="M2530 1879 c0 -5 5 -7 10 -4 6 3 10 8 10 11 0 2 -4 4 -10 4 -5 0 -10
-5 -10 -11z"/>
<path d="M2560 1879 c0 -5 5 -7 10 -4 6 3 10 8 10 11 0 2 -4 4 -10 4 -5 0 -10
-5 -10 -11z"/>
<path d="M2714 1723 c10 -3 42 -13 71 -23 40 -14 52 -15 52 -5 0 7 -6 11 -13
8 -7 -3 -23 2 -36 11 -12 9 -38 15 -58 15 -19 -1 -27 -3 -16 -6z"/>
<path d="M2036 1861 c-3 -5 5 -8 19 -8 14 0 22 3 19 8 -3 5 -11 9 -19 9 -8 0
-16 -4 -19 -9z"/>
<path d="M2110 1850 c-9 -6 -10 -10 -3 -10 6 0 15 5 18 10 8 12 4 12 -15 0z"/>
<path d="M2150 1827 c0 -7 9 -13 20 -13 11 0 20 1 20 3 0 1 -9 7 -20 13 -15 8
-20 8 -20 -3z"/>
<path d="M2232 1824 c-7 -8 -8 -14 -3 -14 10 0 25 19 20 25 -2 1 -10 -3 -17
-11z"/>
<path d="M1627 1616 c-4 -10 -1 -13 8 -9 8 3 12 9 9 14 -7 12 -11 11 -17 -5z"/>
<path d="M1713 1478 c-22 -28 -24 -38 -8 -32 9 4 13 9 11 12 -3 3 -1 11 5 19
6 7 9 13 6 13 -2 0 -9 -6 -14 -12z"/>
</g>
</svg>
