<?xml version="1.0" standalone="no"?>
<!DOCTYPE svg PUBLIC "-//W3C//DTD SVG 20010904//EN"
 "http://www.w3.org/TR/2001/REC-SVG-20010904/DTD/svg10.dtd">
<svg version="1.0" xmlns="http://www.w3.org/2000/svg"
 width="450.000000pt" height="253.000000pt" viewBox="0 0 450.000000 253.000000"
 preserveAspectRatio="xMidYMid meet">
<metadata>
Created by potrace 1.16, written by Peter Selinger 2001-2019
</metadata>
<g transform="translate(0.000000,253.000000) scale(0.100000,-0.100000)"
fill="#000000" stroke="none">
<path d="M0 1265 l0 -1265 2250 0 2250 0 0 1265 0 1265 -2250 0 -2250 0 0
-1265z m2983 681 c57 -18 147 -66 147 -78 0 -4 6 -8 13 -8 14 0 117 -103 169
-168 25 -32 25 -36 13 -67 -8 -18 -12 -35 -9 -38 6 -6 -61 -57 -108 -82 -37
-19 -38 -19 -55 -1 -10 10 -12 16 -5 12 7 -4 12 -2 12 6 0 9 3 9 10 -2 9 -13
14 -8 11 12 0 4 7 5 17 3 25 -4 68 20 53 30 -9 5 -6 12 11 23 13 9 27 16 31
14 5 -1 7 3 5 10 -6 16 -66 29 -74 16 -3 -5 -12 -7 -20 -4 -8 3 -14 0 -14 -6
0 -7 -4 -7 -14 1 -11 10 -17 7 -30 -10 -13 -19 -19 -21 -38 -12 -13 7 -65 11
-116 11 -79 -1 -97 2 -121 20 -21 15 -31 18 -40 9 -11 -11 -12 -9 -15 15 -1
15 -36 20 -36 5 0 -8 -3 -8 -8 -2 -11 17 -75 15 -88 -3 -8 -11 -13 -12 -18 -3
-4 6 -11 9 -16 6 -5 -3 -12 0 -16 6 -4 8 -3 9 4 5 7 -4 12 -3 12 2 0 11 -56
52 -71 52 -10 0 -8 25 6 62 4 9 -2 14 -15 15 -11 1 -18 -2 -15 -8 4 -5 3 -9
-2 -10 -4 0 -16 -2 -25 -4 -10 -2 -21 2 -25 7 -3 7 -1 8 5 4 17 -10 15 -1 -4
15 -13 11 -15 9 -12 -17 2 -20 -1 -29 -12 -29 -8 -1 -14 -7 -12 -14 1 -8 -2
-10 -10 -4 -7 4 -21 6 -31 4 -15 -2 -17 1 -8 16 18 33 142 144 153 137 7 -4 5
-10 -6 -16 -9 -5 -13 -14 -9 -21 11 -18 12 -38 2 -31 -5 3 -6 10 -3 16 4 7 2
8 -4 4 -12 -7 -5 -36 9 -36 5 0 12 0 17 0 4 0 8 5 8 10 1 6 3 13 4 18 1 4 1
12 0 17 -10 47 -9 51 23 68 70 38 119 47 222 43 55 -3 122 -12 148 -20z m-712
-35 c0 10 2 11 6 1 2 -6 8 -10 13 -7 4 3 10 -2 14 -10 6 -16 2 -20 -36 -29
-18 -4 -25 -11 -22 -20 3 -8 13 -12 23 -9 11 3 21 -2 25 -12 3 -10 2 -14 -5
-10 -5 4 -18 4 -27 0 -14 -7 -13 -9 8 -14 17 -5 26 -15 28 -33 3 -24 -1 -27
-30 -32 -18 -3 -40 -5 -48 -4 -8 0 -24 -3 -35 -7 -12 -4 -15 -4 -8 2 8 5 9 14
3 23 -7 12 -15 13 -40 3 -25 -9 -29 -9 -21 1 13 15 -5 36 -31 36 -10 0 -17 6
-15 12 1 7 -9 14 -23 16 -21 4 -23 2 -10 -13 11 -14 11 -16 -1 -13 -26 6 -51
48 -28 48 5 0 7 -5 3 -11 -4 -7 -1 -10 7 -7 8 3 12 12 10 19 -2 8 -4 20 -4 27
0 15 -35 25 -68 20 -20 -2 -24 -8 -22 -32 1 -16 12 -40 25 -53 l23 -24 -29 11
c-16 6 -36 8 -43 6 -8 -4 -11 -1 -8 5 4 6 -1 9 -11 7 -16 -2 -18 2 -16 27 2
17 8 35 14 42 15 19 141 35 248 31 55 -1 100 1 100 6 0 5 7 3 15 -4 12 -10 15
-10 16 1z m131 -12 c15 -8 19 -8 14 0 -4 6 -3 11 3 11 17 0 24 -22 10 -31 -12
-8 -12 -10 -1 -18 10 -6 5 -11 -19 -20 -17 -6 -41 -11 -53 -10 -19 1 -18 2 3
8 28 8 41 31 17 31 -9 0 -16 5 -16 11 0 5 5 7 12 3 7 -4 8 -3 4 5 -6 8 -12 9
-20 2 -9 -8 -13 -7 -13 4 0 18 30 20 59 4z m81 -13 c3 -8 3 -17 0 -20 -9 -9
-34 15 -27 25 8 13 21 11 27 -5z m-627 -128 c4 -7 4 -10 -1 -6 -4 4 -16 -3
-25 -15 -10 -12 -21 -19 -24 -16 -5 5 29 49 39 49 2 0 7 -6 11 -12z m109 2 c4
-6 11 -7 17 -4 7 5 8 2 3 -5 -5 -9 -10 -10 -18 -2 -13 13 -30 15 -22 2 3 -5
-4 -13 -15 -16 -17 -5 -19 -10 -9 -21 6 -8 20 -14 31 -14 17 0 18 -3 8 -15
-10 -12 -7 -13 20 -5 30 9 60 4 60 -9 -1 -28 -51 -36 -95 -14 -34 17 -110 16
-124 -1 -11 -13 -11 -16 0 -16 9 0 10 -3 3 -8 -6 -4 -13 -17 -16 -29 -5 -18
-2 -21 21 -20 21 2 26 -2 26 -23 0 -17 -7 -26 -25 -31 -15 -4 -18 -7 -8 -8 29
-2 29 -18 1 -52 -27 -31 -27 -32 -5 -27 25 7 29 -10 10 -45 -18 -31 -29 -37
-50 -26 -10 5 -18 6 -18 2 0 -4 -5 -2 -11 4 -12 12 -21 163 -10 178 5 5 11 23
15 39 5 21 10 26 15 17 11 -18 18 -3 16 35 -1 21 4 35 16 43 15 9 19 8 19 -3
0 -11 10 -9 45 7 24 11 42 23 40 26 -6 5 35 51 46 51 4 0 11 -5 14 -10z m115
-21 c0 -23 -16 -25 -24 -3 -10 25 -7 34 9 28 8 -4 15 -15 15 -25z m-60 2 c0
-11 -19 -25 -38 -27 -9 -2 -8 4 5 16 20 21 33 25 33 11z m838 -126 c-3 -3 -9
2 -12 12 -6 14 -5 15 5 6 7 -7 10 -15 7 -18z m-943 -5 c-11 -5 -38 -9 -60 -9
-31 0 -36 2 -20 9 11 5 38 9 60 9 31 0 36 -2 20 -9z m1338 -5 c-3 -9 -8 -14
-10 -11 -3 3 -2 9 2 15 9 16 15 13 8 -4z m-43 -40 c0 -8 -2 -15 -4 -15 -2 0
-6 7 -10 15 -3 8 -1 15 4 15 6 0 10 -7 10 -15z m-50 -81 c0 -7 -62 -32 -94
-38 -14 -3 -26 0 -26 5 0 8 15 13 33 10 4 0 7 7 8 17 0 11 2 13 6 4 4 -10 9
-8 20 7 11 17 18 19 34 11 10 -6 19 -13 19 -16z m-132 -56 c-3 -7 -15 -15 -28
-16 -21 -3 -22 -2 -11 12 16 19 44 21 39 4z"/>
<path d="M2520 1831 c0 -7 -5 -9 -12 -5 -7 5 -8 3 -3 -5 5 -9 10 -10 18 -2 6
6 8 14 4 18 -4 3 -7 1 -7 -6z"/>
<path d="M2665 1660 c3 -5 8 -10 11 -10 2 0 4 5 4 10 0 6 -5 10 -11 10 -5 0
-7 -4 -4 -10z"/>
</g>
</svg>
