<?xml version="1.0" standalone="no"?>
<!DOCTYPE svg PUBLIC "-//W3C//DTD SVG 20010904//EN"
 "http://www.w3.org/TR/2001/REC-SVG-20010904/DTD/svg10.dtd">
<svg version="1.0" xmlns="http://www.w3.org/2000/svg"
 width="450.000000pt" height="253.000000pt" viewBox="0 0 450.000000 253.000000"
 preserveAspectRatio="xMidYMid meet">
<metadata>
Created by potrace 1.16, written by Peter Selinger 2001-2019
</metadata>
<g transform="translate(0.000000,253.000000) scale(0.100000,-0.100000)"
fill="#000000" stroke="none">
<path d="M0 1265 l0 -1265 2250 0 2250 0 0 1265 0 1265 -2250 0 -2250 0 0
-1265z m2685 1214 c22 -5 83 -11 135 -13 72 -2 103 -7 125 -21 56 -36 113
-102 134 -159 20 -55 43 -162 43 -203 0 -18 11 -24 64 -39 64 -17 65 -17 84 4
36 38 122 49 205 25 11 -3 62 -25 113 -49 51 -24 96 -44 99 -44 12 0 83 -74
83 -86 0 -6 7 -17 15 -24 8 -7 12 -17 8 -23 -4 -7 -6 -26 -4 -43 4 -47 -24
-92 -111 -183 -104 -108 -146 -136 -249 -168 l-89 -26 33 -41 c75 -91 97 -168
100 -335 0 -48 -3 -55 -41 -91 -23 -22 -48 -40 -56 -40 -8 0 -16 -5 -18 -11
-10 -31 -245 -49 -378 -29 -114 17 -150 27 -241 67 l-56 24 -49 -28 c-42 -25
-50 -35 -54 -66 -4 -31 -16 -47 -63 -87 -63 -53 -130 -80 -203 -80 -50 0 -146
34 -191 67 -41 30 -133 203 -133 249 0 19 -5 34 -11 34 -6 0 -9 12 -7 28 3 26
1 27 -36 24 -35 -3 -38 -1 -33 17 6 24 -1 26 -95 35 -117 12 -264 85 -313 155
-14 21 -25 42 -25 48 0 6 -7 16 -15 23 -8 7 -12 16 -9 21 2 5 -2 22 -11 38
-21 41 -19 74 6 123 21 42 115 148 130 148 5 0 33 17 64 38 l55 37 -53 50
c-122 117 -196 300 -153 383 9 18 13 32 9 32 -22 0 81 51 123 60 63 15 246 15
304 1 25 -7 53 -14 64 -16 10 -2 23 -8 30 -13 6 -4 58 -7 115 -7 102 1 104 2
130 31 31 36 122 104 170 129 37 19 140 43 186 44 17 0 48 -4 70 -10z m-54
-1649 c-8 -21 -9 -17 -6 20 3 55 7 63 12 30 2 -14 0 -37 -6 -50z"/>
<path d="M2317 2029 c7 -7 15 -10 18 -7 3 3 -2 9 -12 12 -14 6 -15 5 -6 -5z"/>
<path d="M2470 1867 c0 -15 29 -57 30 -42 0 6 -3 20 -6 33 -7 24 -24 31 -24 9z"/>
<path d="M2447 1788 c-10 -11 -17 -27 -15 -37 2 -10 -3 -25 -10 -34 -11 -13
-11 -21 2 -44 8 -15 19 -37 24 -48 6 -12 26 -29 46 -40 35 -19 49 -38 24 -32
-7 1 -11 -5 -9 -13 2 -8 3 -27 2 -42 -1 -27 1 -28 44 -28 26 0 45 5 45 11 0 6
7 9 15 5 18 -6 18 -5 5 28 -8 22 -6 28 10 38 30 19 25 26 -27 34 -34 5 -57 16
-82 40 -19 19 -37 34 -42 34 -4 0 -12 14 -18 31 -9 27 -8 32 9 36 15 4 19 11
15 24 -4 12 -1 21 9 25 9 3 16 14 16 23 0 12 -2 13 -9 3 -10 -16 -21 -18 -30
-5 -3 5 -14 1 -24 -9z"/>
<path d="M2205 1720 c-11 -18 6 -69 25 -75 11 -3 30 -1 42 6 22 12 22 13 3 18
-26 8 -65 42 -59 53 3 4 3 8 0 8 -3 0 -8 -5 -11 -10z"/>
<path d="M2702 1662 c-19 -15 -49 -92 -36 -92 16 0 54 26 54 37 0 8 7 27 15
43 18 35 4 40 -33 12z"/>
<path d="M1869 1653 c-12 -16 -12 -17 2 -6 9 7 20 9 24 5 5 -4 5 -1 1 6 -9 16
-11 15 -27 -5z"/>
<path d="M1816 1624 c-9 -8 -14 -19 -11 -24 3 -4 -2 -11 -11 -14 -10 -4 -13
-2 -8 6 5 7 3 8 -7 2 -8 -5 -17 -9 -21 -9 -20 0 -18 -15 3 -17 13 0 30 -2 38
-2 8 -1 16 -7 19 -15 3 -8 0 -11 -5 -8 -5 3 -10 0 -10 -8 0 -9 10 -15 24 -15
19 0 23 4 19 18 -6 18 6 44 19 43 15 -2 14 29 -2 44 -18 19 -28 19 -47 -1z
m51 -29 c0 -8 -4 -12 -9 -9 -5 3 -6 10 -3 15 9 13 12 11 12 -6z"/>
<path d="M1500 1595 c-6 -8 -9 -19 -5 -25 3 -5 -1 -13 -9 -16 -19 -7 -20 -31
-2 -63 l13 -23 8 23 c7 24 16 119 10 119 -1 0 -8 -7 -15 -15z"/>
<path d="M2410 1574 c0 -10 -4 -12 -12 -7 -18 11 -58 15 -76 8 -13 -5 -10 -11
13 -31 17 -14 24 -23 18 -19 -7 3 -13 1 -13 -5 0 -7 16 -11 44 -9 26 2 51 -3
60 -10 9 -8 19 -11 23 -7 3 3 1 6 -5 6 -7 0 -12 7 -12 15 0 8 7 15 15 15 22 0
18 21 -4 27 -11 3 -22 11 -25 19 -7 19 -26 18 -26 -2z"/>
<path d="M2197 1471 c5 -19 -19 -31 -63 -31 -28 0 -51 -27 -37 -41 7 -7 13 -7
17 -1 4 6 22 8 41 5 23 -4 35 -2 35 6 0 7 12 23 26 36 21 19 23 25 10 25 -9 0
-16 5 -16 10 0 6 -4 10 -9 10 -5 0 -7 -8 -4 -19z"/>
<path d="M2374 1453 c-16 -16 -15 -18 12 -25 22 -6 32 -4 41 9 25 33 -21 47
-53 16z"/>
<path d="M1943 1420 c3 -11 2 -20 -3 -20 -14 0 -21 -33 -10 -44 8 -8 11 -7 8
3 -2 7 16 24 41 37 25 13 47 27 50 31 3 3 1 3 -6 -1 -6 -3 -14 -2 -18 4 -3 5
-20 10 -37 10 -25 0 -29 -3 -25 -20z"/>
<path d="M2329 1368 c18 -16 20 -23 10 -34 -18 -22 2 -37 50 -40 39 -2 39 -1
30 23 -5 14 -7 34 -4 44 5 16 1 19 -32 20 -21 0 -46 2 -57 4 -16 3 -16 1 3
-17z"/>
<path d="M2591 1383 c-2 -22 3 -28 17 -25 8 2 12 0 9 -5 -3 -5 2 -9 11 -9 9
-1 25 -4 35 -9 9 -4 17 -3 17 1 0 10 -47 34 -66 34 -7 0 -15 6 -17 13 -4 10
-6 10 -6 0z"/>
<path d="M2170 1342 l-35 -16 30 -4 c17 -1 37 -6 45 -9 8 -3 18 -5 23 -5 4 1
7 -6 7 -15 0 -10 7 -27 15 -37 13 -18 12 -22 -15 -46 -18 -17 -28 -33 -25 -42
5 -12 12 -9 36 13 29 27 84 118 76 125 -2 2 -15 5 -30 6 -14 1 -33 13 -43 25
-20 27 -36 28 -84 5z"/>
<path d="M2477 1343 c-6 -14 -2 -38 7 -43 5 -3 10 7 10 23 2 25 -8 37 -17 20z"/>
<path d="M2570 1330 c-8 -5 -12 -12 -9 -15 4 -3 12 1 19 10 14 17 11 19 -10 5z"/>
<path d="M2595 1197 c-11 -17 -29 -33 -39 -35 -16 -3 -18 0 -12 22 5 20 3 26
-10 26 -22 0 -42 -22 -46 -51 -2 -18 -9 -24 -25 -23 -13 0 -23 -5 -23 -13 0
-8 3 -12 8 -10 4 3 27 6 52 8 25 1 59 11 76 21 17 10 39 18 47 18 9 0 21 8 26
19 8 14 6 22 -8 35 -23 21 -22 21 -46 -17z"/>
<path d="M3286 1160 l-25 -38 22 -43 c16 -29 32 -45 51 -50 27 -8 28 -7 22 24
-3 18 -8 45 -11 61 -2 15 -9 34 -15 41 -8 10 -7 16 7 24 10 6 16 11 13 11 -34
8 -41 4 -64 -30z"/>
<path d="M2880 1096 c0 -3 9 -10 20 -16 11 -6 20 -8 20 -6 0 3 -9 10 -20 16
-11 6 -20 8 -20 6z"/>
<path d="M2244 1074 c-4 -10 -9 -22 -11 -27 -2 -4 7 -11 21 -17 14 -5 26 -14
26 -19 0 -6 9 -15 19 -21 21 -11 22 -5 7 39 -7 19 -13 22 -37 17 -27 -5 -29
-4 -18 15 6 11 8 23 5 26 -3 3 -9 -3 -12 -13z"/>
<path d="M2020 1055 c0 -9 6 -12 15 -9 8 4 15 10 15 15 0 5 -7 9 -15 9 -8 0
-15 -7 -15 -15z"/>
<path d="M2556 941 c-33 -37 -13 -48 24 -13 30 28 32 32 14 32 -12 0 -29 -9
-38 -19z"/>
</g>
</svg>
