<?xml version="1.0" standalone="no"?>
<!DOCTYPE svg PUBLIC "-//W3C//DTD SVG 20010904//EN"
 "http://www.w3.org/TR/2001/REC-SVG-20010904/DTD/svg10.dtd">
<svg version="1.0" xmlns="http://www.w3.org/2000/svg"
 width="450.000000pt" height="253.000000pt" viewBox="0 0 450.000000 253.000000"
 preserveAspectRatio="xMidYMid meet">
<metadata>
Created by potrace 1.16, written by Peter Selinger 2001-2019
</metadata>
<g transform="translate(0.000000,253.000000) scale(0.100000,-0.100000)"
fill="#000000" stroke="none">
<path d="M0 1265 l0 -1265 2250 0 2250 0 0 1265 0 1265 -2250 0 -2250 0 0
-1265z m3042 687 c117 -41 242 -140 313 -245 25 -37 34 -97 15 -97 -5 0 -12
-11 -16 -25 -8 -33 -67 -85 -145 -128 -80 -44 -106 -52 -106 -33 0 8 6 12 15
8 9 -3 13 -1 10 4 -3 5 4 18 15 29 11 12 17 14 13 5 -6 -13 -6 -13 6 0 7 9 20
15 28 15 8 -1 24 6 34 14 16 14 18 14 11 1 -8 -13 -6 -13 8 -1 9 7 14 17 11
22 -3 5 0 9 5 9 6 0 11 4 11 8 0 5 -19 8 -42 8 -28 0 -43 4 -46 14 -3 13 -2
13 8 0 9 -11 11 -12 8 -1 -6 20 -111 27 -271 17 -33 -2 -50 1 -54 10 -2 7 -12
15 -20 18 -13 5 -14 4 -3 -9 7 -9 10 -18 6 -22 -3 -3 -6 -1 -6 6 0 8 -6 11
-16 7 -8 -3 -13 -2 -10 2 3 5 -25 9 -61 10 -36 1 -72 7 -81 14 -12 10 -14 10
-8 1 4 -7 2 -13 -3 -13 -6 0 -11 4 -11 10 0 5 -6 7 -13 4 -8 -3 -13 4 -14 17
-1 12 -8 26 -15 30 -10 7 -10 9 1 9 11 0 11 3 0 17 -12 14 -12 16 1 9 8 -4 5
1 -7 10 -24 17 -30 48 -12 59 5 4 8 12 6 18 -2 7 -1 19 4 28 4 9 10 28 13 42
4 21 1 25 -12 19 -29 -11 -64 -55 -50 -63 7 -4 17 -5 23 -1 5 3 3 -2 -4 -12
-14 -17 -16 -17 -28 0 -7 9 -10 21 -7 25 3 5 0 9 -5 9 -6 0 -11 -4 -11 -10 0
-5 -5 -10 -12 -10 -6 0 1 13 17 30 16 16 30 28 33 25 2 -2 13 4 23 14 29 27
116 72 168 87 65 19 211 12 283 -14z m-701 -42 c-12 -7 -9 -10 12 -15 15 -4
27 -11 27 -17 0 -5 -4 -6 -10 -3 -5 3 -22 -1 -38 -9 -23 -12 -32 -12 -43 -3
-11 10 -11 9 -1 -4 13 -17 47 -15 58 3 3 5 15 1 25 -8 17 -15 19 -16 14 -2 -5
13 -2 15 13 11 11 -2 23 0 26 5 3 6 -2 8 -13 5 -12 -3 -20 2 -23 15 -5 17 0
19 36 16 22 -1 49 -5 59 -9 10 -4 17 -3 17 4 0 9 6 9 22 0 20 -11 21 -12 4
-25 -24 -17 -154 -46 -168 -38 -7 4 -8 2 -4 -4 4 -7 1 -12 -7 -12 -8 0 -20 -7
-27 -15 -7 -8 -8 -15 -3 -15 6 0 8 -11 6 -24 -4 -17 -13 -25 -34 -28 -17 -3
-32 -1 -35 4 -3 4 -16 1 -29 -8 -23 -15 -24 -15 -20 4 4 25 -22 37 -43 20 -13
-11 -14 -11 -8 0 10 16 -13 45 -30 38 -8 -3 -13 -2 -12 2 2 4 -10 20 -24 36
-15 15 -26 33 -25 39 1 7 -16 14 -38 18 -36 5 -37 6 -15 12 54 14 353 21 331
7z m-367 -44 c-1 -9 2 -16 6 -16 4 0 10 -9 13 -20 5 -20 -2 -24 -37 -20 -10 1
-15 -3 -12 -8 4 -6 1 -14 -6 -18 -7 -4 -10 -4 -6 1 4 4 3 14 -2 20 -13 15 -8
48 9 69 17 20 37 15 35 -8z m43 -4 c-9 -2 -14 -8 -11 -14 4 -7 2 -8 -4 -4 -17
11 -3 36 16 28 16 -6 15 -7 -1 -10z m78 -81 c1 -9 6 -14 10 -13 15 6 26 -27
16 -45 -8 -15 -10 -16 -14 -3 -3 8 -8 24 -13 35 -4 11 -6 24 -5 28 0 4 -6 10
-14 13 -8 3 -12 10 -9 15 3 5 -2 12 -11 15 -13 5 -14 8 -3 15 13 8 38 -26 43
-60z m415 -12 c0 -6 -4 -7 -10 -4 -5 3 -10 1 -10 -4 0 -6 -7 -11 -15 -11 -7 0
-19 -8 -25 -17 -9 -16 -10 -15 -8 7 4 36 68 63 68 29z m-450 -21 c0 -12 -26
-38 -33 -32 -2 3 -7 -4 -10 -15 -4 -17 -1 -19 22 -15 18 4 32 0 40 -10 10 -12
10 -16 2 -16 -7 0 -9 -4 -6 -10 10 -16 -26 -12 -92 12 -73 27 -110 18 -110
-27 0 -24 2 -26 31 -20 17 4 38 9 48 11 9 3 19 0 22 -5 8 -12 -49 -25 -65 -15
-7 4 -9 3 -6 -3 3 -5 8 -21 11 -35 3 -20 0 -27 -17 -32 -20 -6 -20 -7 -5 -16
16 -10 15 -13 -8 -47 -13 -20 -21 -39 -18 -42 4 -3 9 0 11 7 3 6 11 12 18 12
12 0 12 -5 1 -31 -7 -17 -21 -40 -30 -51 -18 -20 -18 -20 -36 -2 -13 14 -19
36 -21 79 -3 105 0 131 23 161 13 16 21 38 19 52 -2 17 1 23 11 20 7 -3 33 8
57 23 36 22 48 25 62 16 15 -9 23 -7 43 12 21 20 24 27 13 40 -11 14 -10 14 6
2 9 -7 17 -18 17 -23z m-50 8 c0 -2 -8 -10 -17 -17 -16 -13 -17 -12 -4 4 13
16 21 21 21 13z m1051 -361 c0 -5 -9 -11 -21 -13 -20 -3 -27 8 -13 22 10 9 34
3 34 -9z m-318 -22 c30 -16 31 -18 9 -21 -23 -4 -52 13 -52 29 0 13 7 11 43
-8z m-946 -715 c-2 -13 -4 -5 -4 17 -1 22 1 32 4 23 2 -10 2 -28 0 -40z"/>
<path d="M3303 1605 c0 -7 8 -10 19 -7 20 5 17 15 -6 18 -7 1 -13 -4 -13 -11z"/>
<path d="M3205 1580 c3 -5 8 -10 11 -10 2 0 4 5 4 10 0 6 -5 10 -11 10 -5 0
-7 -4 -4 -10z"/>
<path d="M2218 1903 c6 -2 18 -2 25 0 6 3 1 5 -13 5 -14 0 -19 -2 -12 -5z"/>
<path d="M2208 1803 c7 -3 16 -2 19 1 4 3 -2 6 -13 5 -11 0 -14 -3 -6 -6z"/>
</g>
</svg>
