<?xml version="1.0" standalone="no"?>
<!DOCTYPE svg PUBLIC "-//W3C//DTD SVG 20010904//EN"
 "http://www.w3.org/TR/2001/REC-SVG-20010904/DTD/svg10.dtd">
<svg version="1.0" xmlns="http://www.w3.org/2000/svg"
 width="450.000000pt" height="253.000000pt" viewBox="0 0 450.000000 253.000000"
 preserveAspectRatio="xMidYMid meet">
<metadata>
Created by potrace 1.16, written by Peter Selinger 2001-2019
</metadata>
<g transform="translate(0.000000,253.000000) scale(0.100000,-0.100000)"
fill="#000000" stroke="none">
<path d="M0 1265 l0 -1265 2250 0 2250 0 0 1265 0 1265 -2250 0 -2250 0 0
-1265z m3105 690 c88 -30 183 -67 212 -83 21 -12 46 -72 81 -193 20 -70 7
-123 -41 -171 -18 -18 -39 -46 -47 -62 -8 -16 -46 -50 -85 -75 -38 -25 -74
-51 -80 -57 -23 -24 -64 -42 -86 -38 -22 4 -22 3 -4 -5 22 -11 22 -11 -20 -16
-21 -3 -25 -1 -15 5 13 8 13 11 1 22 -11 11 -13 11 -6 -1 5 -9 3 -12 -6 -9 -8
3 -14 11 -14 18 0 7 -9 14 -20 16 -46 7 -71 6 -89 -1 -51 -22 -246 91 -246
142 0 8 -4 11 -10 8 -5 -3 -7 0 -4 8 7 18 52 28 58 13 2 -6 5 -3 5 6 1 9 6 20
13 24 6 4 8 3 5 -3 -3 -5 0 -10 8 -10 8 0 16 6 19 14 3 7 2 12 -2 11 -16 -4
-52 14 -46 23 4 6 10 6 18 0 9 -8 13 -7 13 4 0 8 -4 12 -8 10 -3 -3 -12 2 -19
10 -7 8 -16 12 -21 9 -5 -3 -22 4 -37 15 -23 16 -27 25 -24 54 2 19 -1 38 -7
41 -18 12 -12 48 14 91 26 42 32 75 14 75 -6 0 3 18 20 39 32 40 60 53 171 80
98 23 185 19 285 -14z m-664 -46 c16 -8 20 -8 14 1 -5 8 12 9 67 5 122 -10
115 -33 -20 -64 -135 -32 -142 -35 -142 -71 0 -31 -6 -34 -77 -43 -18 -2 -33
1 -33 6 0 5 -12 21 -26 34 -30 28 -54 18 -33 -14 8 -14 9 -25 2 -38 -9 -16
-12 -15 -18 14 -7 33 -51 88 -66 84 -5 -2 -9 2 -9 7 0 6 -5 10 -11 10 -6 0 3
-18 20 -39 36 -45 38 -61 11 -81 -26 -19 -25 -30 2 -27 15 1 24 -5 29 -23 4
-14 7 -19 8 -12 1 17 21 15 21 -2 0 -17 -53 -12 -58 5 -3 6 -9 5 -18 -2 -11
-9 -14 -7 -14 9 0 11 -6 23 -12 26 -9 3 -6 10 9 24 12 10 21 27 20 38 -2 24
-39 54 -66 54 -25 0 -27 17 -6 47 17 25 63 39 78 24 14 -14 27 -14 27 -2 0 5
-10 13 -22 17 -21 7 -20 9 12 14 67 12 289 11 311 -1z m-384 -191 c0 -7 2 -20
4 -28 3 -11 -3 -14 -19 -12 -13 2 -32 -4 -43 -14 -10 -9 -19 -14 -19 -9 0 6
64 69 76 75 0 0 1 -6 1 -12z m-55 -90 c-4 -18 -2 -20 14 -13 49 21 129 17 94
-5 -8 -5 -22 -4 -33 2 -14 7 -17 7 -13 -1 4 -7 -1 -11 -13 -11 -24 0 -24 0
-11 -34 9 -24 8 -26 -20 -26 -17 0 -30 -4 -30 -10 0 -5 7 -10 15 -10 8 0 15
-7 15 -15 0 -8 -4 -15 -10 -15 -11 0 -34 -39 -27 -46 3 -3 12 2 21 11 15 15
16 15 16 -6 0 -25 -37 -89 -51 -89 -6 0 -7 5 -3 12 4 7 3 8 -4 4 -15 -9 -3
-38 12 -29 8 4 8 2 -1 -7 -32 -35 -36 12 -17 189 8 74 27 119 51 121 0 0 -1
-10 -5 -22z m993 -377 c-3 -3 -10 1 -15 9 -9 14 -15 6 -11 -14 1 -5 -5 -4 -13
4 -12 9 -16 9 -16 1 0 -7 -5 -9 -11 -5 -8 4 -7 9 2 15 7 4 16 6 20 3 4 -2 11
0 14 6 5 8 11 7 21 -1 8 -6 12 -14 9 -18z"/>
<path d="M2940 1519 c0 -5 5 -7 10 -4 6 3 10 8 10 11 0 2 -4 4 -10 4 -5 0 -10
-5 -10 -11z"/>
<path d="M2963 1476 c-58 -12 -55 -28 5 -26 69 3 71 1 25 -18 -41 -17 -41 -17
-17 -29 16 -7 22 -7 17 -1 -3 7 -1 8 5 4 7 -4 12 -13 12 -21 0 -8 4 -16 9 -19
5 -4 7 4 5 16 -2 13 -2 17 2 11 4 -10 9 -10 19 1 10 9 31 12 69 9 31 -2 56 0
56 4 0 5 15 16 33 25 42 20 44 42 3 45 -123 8 -207 7 -243 -1z"/>
<path d="M2895 1460 c-3 -5 -1 -10 4 -10 6 0 11 5 11 10 0 6 -2 10 -4 10 -3 0
-8 -4 -11 -10z"/>
<path d="M2170 1804 c0 -8 5 -12 10 -9 6 4 8 11 5 16 -9 14 -15 11 -15 -7z"/>
</g>
</svg>
