<?xml version="1.0" standalone="no"?>
<!DOCTYPE svg PUBLIC "-//W3C//DTD SVG 20010904//EN"
 "http://www.w3.org/TR/2001/REC-SVG-20010904/DTD/svg10.dtd">
<svg version="1.0" xmlns="http://www.w3.org/2000/svg"
 width="450.000000pt" height="253.000000pt" viewBox="0 0 450.000000 253.000000"
 preserveAspectRatio="xMidYMid meet">
<metadata>
Created by potrace 1.16, written by Peter Selinger 2001-2019
</metadata>
<g transform="translate(0.000000,253.000000) scale(0.100000,-0.100000)"
fill="#000000" stroke="none">
<path d="M0 1265 l0 -1265 2250 0 2250 0 0 1265 0 1265 -2250 0 -2250 0 0
-1265z m2598 1140 c24 -10 77 -17 138 -18 88 -2 106 -6 157 -32 70 -36 138
-98 198 -180 50 -68 76 -95 95 -95 7 0 49 -12 92 -26 l80 -25 26 24 c52 48
139 46 241 -5 33 -17 83 -39 110 -50 28 -11 62 -31 78 -46 32 -31 70 -92 57
-92 -5 0 -6 -15 -3 -33 8 -50 -18 -90 -126 -196 -89 -87 -169 -141 -211 -141
-12 0 -98 -29 -109 -36 -2 -2 5 -15 16 -31 34 -51 53 -104 65 -178 10 -62 9
-84 -5 -142 -17 -69 -17 -70 -109 -148 -10 -8 -23 -15 -30 -15 -6 0 -20 -7
-30 -16 -14 -14 -41 -17 -145 -17 -145 0 -254 22 -355 72 -54 28 -59 28 -70
12 -7 -10 -29 -26 -49 -35 -30 -14 -38 -24 -43 -55 -8 -53 -117 -182 -156
-186 -19 -2 -108 -40 -105 -44 2 -3 -29 -6 -68 -6 -77 0 -83 3 -147 65 -53 51
-114 208 -107 272 3 26 13 60 21 77 9 16 16 43 16 58 l0 28 -129 3 c-103 2
-147 7 -216 27 -140 41 -240 101 -273 164 -17 33 -11 125 12 169 26 49 156
174 211 202 28 14 67 36 88 50 l39 25 -23 15 c-96 63 -180 181 -198 277 -11
56 4 129 28 137 9 3 23 10 31 15 93 57 315 70 471 28 69 -19 148 -16 161 7 12
22 81 85 117 107 50 31 105 35 159 14z"/>
<path d="M2756 1965 c-9 -26 -7 -32 5 -12 6 10 9 21 6 23 -2 3 -7 -2 -11 -11z"/>
<path d="M2774 1943 c6 -11 -4 -17 -25 -15 -6 1 -5 -15 7 -82 6 -32 5 -38 -7
-32 -8 4 -6 1 3 -6 15 -13 15 -15 -4 -27 -12 -7 -17 -16 -12 -20 15 -10 13
-41 -2 -41 -14 0 -18 -20 -16 -70 1 -14 12 -33 27 -43 14 -10 23 -23 19 -28
-3 -5 6 -14 20 -21 20 -9 23 -14 14 -25 -13 -16 -13 -15 30 -36 32 -16 42 -11
20 11 -8 8 -8 12 -1 12 6 0 13 9 16 20 3 11 13 23 24 26 57 18 83 35 83 55 0
12 9 36 19 53 12 19 17 37 12 45 -5 7 -7 23 -4 35 3 20 3 20 -6 -2 -6 -12 -21
-26 -34 -31 -31 -12 -51 -37 -43 -56 4 -12 -4 -20 -30 -31 -43 -18 -70 -15
-66 8 1 10 -7 18 -23 22 -14 4 -25 11 -25 17 0 6 6 7 13 4 6 -4 3 1 -7 9 -22
18 -22 17 18 34 22 10 26 15 17 26 -12 15 -1 59 19 71 5 3 8 10 5 15 -3 5 9
14 27 19 18 5 25 10 15 10 -10 1 -27 -4 -38 -9 -32 -17 -43 -1 -18 26 21 23
21 24 3 30 -10 4 -28 14 -38 23 -11 9 -16 10 -12 4z"/>
<path d="M2904 1879 c0 -10 2 -16 5 -13 2 2 15 -3 29 -12 13 -9 22 -11 18 -6
-3 6 0 12 8 14 13 3 12 6 -1 23 -14 18 -15 19 -9 1 5 -14 3 -16 -6 -9 -26 20
-44 21 -44 2z"/>
<path d="M2999 1883 c-8 -10 -9 -14 -2 -10 6 4 14 3 18 -2 4 -7 15 -6 31 1 18
8 21 14 12 20 -21 13 -45 9 -59 -9z"/>
<path d="M2927 1822 c-25 -3 -27 -6 -15 -20 11 -13 11 -14 -1 -8 -10 7 -12 3
-6 -15 6 -20 5 -22 -6 -11 -20 18 -46 14 -52 -8 -7 -27 48 -53 75 -36 13 8 14
12 5 18 -9 6 -7 11 6 19 10 6 14 15 10 22 -4 7 0 6 10 -2 12 -9 17 -10 17 -2
0 7 5 9 13 5 8 -6 8 -3 -1 9 -8 9 -11 20 -8 25 5 9 -1 10 -47 4z"/>
<path d="M2573 1808 c-31 -7 -43 -14 -43 -27 0 -41 -52 -48 -92 -13 -10 8 -18
10 -18 5 0 -6 7 -16 15 -23 8 -7 15 -19 15 -27 0 -8 4 -12 9 -9 15 9 33 -22
26 -44 -4 -14 -2 -20 7 -18 8 2 12 -5 10 -20 -3 -20 -1 -21 22 -11 14 7 33 23
41 36 14 21 14 23 0 23 -9 0 -25 9 -37 20 -17 16 -19 22 -8 35 7 8 26 15 42
15 16 0 35 6 42 13 14 14 28 58 18 56 -4 -1 -26 -5 -49 -11z"/>
<path d="M1780 1730 c-9 -6 -10 -10 -3 -10 6 0 15 5 18 10 8 12 4 12 -15 0z"/>
<path d="M1671 1660 c-65 -54 -72 -66 -43 -73 12 -3 13 -5 2 -6 -16 -2 -51
-44 -54 -64 -1 -7 -14 -29 -30 -50 -35 -45 -29 -71 14 -65 28 4 29 3 14 -13
-9 -10 -21 -17 -26 -16 -6 1 -13 -4 -15 -10 -8 -23 15 -14 46 17 17 17 30 33
30 36 -1 12 9 22 42 45 19 13 50 40 67 60 l31 35 -31 -4 c-28 -4 -30 -3 -22
19 4 13 8 32 9 42 1 9 20 31 43 48 23 17 40 35 36 40 -13 22 -56 6 -113 -41z"/>
<path d="M2639 1618 c12 -16 11 -18 -3 -18 -10 0 -26 5 -37 11 -19 10 -19 9
-9 -10 6 -12 14 -21 18 -21 14 0 43 -77 36 -94 -5 -13 0 -16 26 -16 45 0 33
-25 -14 -27 -51 -2 -66 -9 -66 -33 0 -17 -4 -19 -27 -14 -60 14 -77 36 -51 62
19 19 -12 24 -57 8 -47 -17 -52 -40 -10 -44 34 -4 49 -21 34 -38 -7 -9 -6 -15
4 -21 7 -4 19 -22 26 -39 12 -31 9 -46 -24 -103 -14 -26 -11 -46 7 -35 5 3 8
14 5 24 -4 16 -1 17 18 10 26 -10 35 -4 35 22 0 10 8 22 18 25 9 4 28 17 41
29 15 14 43 25 80 29 31 4 49 10 41 13 -8 3 -25 9 -38 13 l-22 9 25 51 c15 28
39 62 53 75 25 22 26 25 10 35 -21 12 -23 39 -5 58 7 8 7 11 1 8 -7 -4 -18 0
-25 9 -7 8 -24 14 -39 12 -15 -1 -36 4 -46 12 -18 14 -18 14 -5 -2z"/>
<path d="M2527 1583 c-15 -15 -7 -43 13 -43 21 0 24 8 14 34 -7 17 -16 20 -27
9z"/>
<path d="M2455 1550 c-3 -5 -2 -10 4 -10 5 0 13 5 16 10 3 6 2 10 -4 10 -5 0
-13 -4 -16 -10z"/>
<path d="M2165 1521 c-3 -5 -1 -12 5 -16 5 -3 10 -3 10 1 0 3 7 1 15 -6 18
-15 45 -6 45 15 0 17 -64 22 -75 6z"/>
<path d="M2420 1491 c0 -5 9 -7 20 -4 11 3 20 7 20 9 0 2 -9 4 -20 4 -11 0
-20 -4 -20 -9z"/>
<path d="M2188 1443 c-7 -9 -7 -13 1 -13 6 0 9 -13 7 -30 -4 -33 4 -36 37 -18
12 6 35 11 51 10 23 -2 27 1 22 14 -3 9 -1 23 5 30 13 15 9 16 -69 19 -25 1
-47 -4 -54 -12z"/>
<path d="M2346 1434 c-15 -38 -7 -46 22 -22 19 15 25 26 18 30 -18 12 -33 9
-40 -8z"/>
<path d="M2825 1399 c-23 -50 -10 -69 29 -43 23 14 31 15 50 4 23 -12 46 -7
46 9 0 5 -9 19 -21 32 -11 13 -17 18 -14 11 6 -11 3 -11 -14 -3 -61 32 -57 32
-76 -10z"/>
<path d="M2727 1394 c-14 -14 -7 -32 18 -48 20 -13 25 -14 25 -2 0 19 -34 59
-43 50z"/>
<path d="M2375 1360 c3 -5 21 -10 38 -9 31 1 31 1 7 9 -36 11 -52 11 -45 0z"/>
<path d="M2360 1306 c0 -2 7 -7 16 -10 8 -3 12 -2 9 4 -6 10 -25 14 -25 6z"/>
<path d="M2838 1272 c-10 -2 -18 -8 -18 -13 0 -17 31 -22 47 -7 12 12 12 16 1
20 -7 2 -21 3 -30 0z"/>
<path d="M2205 1141 c-3 -5 -1 -12 4 -15 5 -3 11 1 15 9 6 16 -9 21 -19 6z"/>
<path d="M3015 1129 c-4 -6 -5 -12 -2 -15 2 -3 7 2 10 11 7 17 1 20 -8 4z"/>
<path d="M2487 1124 c-11 -11 3 -24 18 -18 8 4 12 10 9 15 -6 11 -18 12 -27 3z"/>
</g>
</svg>
