<?xml version="1.0" standalone="no"?>
<!DOCTYPE svg PUBLIC "-//W3C//DTD SVG 20010904//EN"
 "http://www.w3.org/TR/2001/REC-SVG-20010904/DTD/svg10.dtd">
<svg version="1.0" xmlns="http://www.w3.org/2000/svg"
 width="450.000000pt" height="253.000000pt" viewBox="0 0 450.000000 253.000000"
 preserveAspectRatio="xMidYMid meet">
<metadata>
Created by potrace 1.16, written by Peter Selinger 2001-2019
</metadata>
<g transform="translate(0.000000,253.000000) scale(0.100000,-0.100000)"
fill="#000000" stroke="none">
<path d="M0 1265 l0 -1265 2250 0 2250 0 0 1265 0 1265 -2250 0 -2250 0 0
-1265z m2035 607 c-2 -2 2 -10 8 -17 9 -10 15 -10 26 -1 12 8 13 8 7 -1 -8
-14 25 -19 38 -6 4 4 37 8 74 9 94 3 94 3 87 14 -4 6 6 10 22 9 25 0 26 -1 8
-10 -16 -7 -12 -8 18 -6 20 2 37 -1 37 -6 0 -4 5 -5 11 -2 5 4 22 4 35 1 22
-6 24 -9 13 -23 -19 -22 -151 -83 -163 -76 -6 4 -5 -1 2 -10 31 -38 -5 -80
-49 -56 -11 6 -20 5 -24 -1 -11 -17 -35 -12 -28 7 5 12 2 15 -10 10 -9 -3 -17
-2 -17 4 0 6 -6 9 -12 6 -7 -2 -24 4 -37 14 -13 11 -32 19 -42 19 -11 0 -18 3
-18 8 4 22 -4 29 -27 26 -20 -2 -23 0 -13 12 9 11 8 15 -5 20 -10 4 -15 13
-12 21 4 9 -6 19 -27 28 -31 15 -31 15 35 13 37 -2 65 -4 63 -6z m472 2 c-3
-3 -12 -4 -19 -1 -8 3 -5 6 6 6 11 1 17 -2 13 -5z m153 -3 c0 -4 8 -8 18 -8
17 1 64 -10 92 -20 8 -4 21 -5 29 -4 7 1 10 -2 7 -7 -7 -11 18 -24 52 -26 13
-1 27 -8 32 -16 6 -8 10 -11 10 -6 0 5 10 1 22 -10 14 -12 19 -14 13 -4 -4 8
2 5 14 -7 21 -22 35 -28 56 -23 6 1 7 -2 3 -6 -8 -7 21 -33 34 -30 11 2 37
-38 31 -47 -2 -4 1 -6 9 -5 8 2 14 -8 15 -27 2 -27 2 -28 -7 -8 -7 19 -14 21
-32 14 -34 -12 -137 -2 -172 17 -17 9 -34 15 -38 14 -5 -1 -27 19 -51 44 -27
29 -44 40 -44 30 0 -9 4 -16 9 -16 4 0 8 -5 8 -11 0 -8 -14 -9 -42 -5 -24 4
-65 8 -93 10 l-50 4 39 -12 c25 -8 35 -15 28 -20 -7 -4 -10 -10 -8 -14 2 -4
-7 -7 -20 -7 -16 0 -22 4 -19 13 3 8 0 12 -7 9 -7 -2 -12 -10 -10 -16 1 -6 -7
-11 -18 -11 -11 0 -20 5 -20 11 0 5 5 7 10 4 6 -3 10 -1 10 5 0 7 -7 10 -15 7
-8 -4 -17 -2 -20 3 -9 15 -22 12 -22 -5 0 -8 4 -12 8 -9 4 2 10 0 14 -6 3 -5
-3 -10 -14 -10 -12 0 -21 5 -21 10 0 7 -7 7 -21 -1 -15 -8 -19 -8 -15 0 4 6 2
11 -3 11 -18 0 -12 16 14 43 l26 25 -23 16 c-12 9 -28 16 -35 16 -24 0 -13 25
20 44 31 18 110 23 162 10 16 -4 15 -1 -7 18 l-27 23 35 2 c18 2 34 -1 34 -6z
m-820 -11 c0 -5 7 -10 15 -10 8 0 15 -3 16 -7 8 -58 8 -58 -35 -56 -45 2 -77
-4 -74 -15 6 -18 -36 -62 -58 -62 -14 0 -27 -7 -30 -15 -4 -8 -10 -12 -15 -9
-13 8 51 94 79 107 12 6 22 14 22 19 0 5 5 6 10 3 6 -3 10 2 10 13 0 10 10 24
23 30 29 14 37 14 37 2z m245 -150 c3 -5 1 -10 -4 -10 -6 0 -11 5 -11 10 0 6
2 10 4 10 3 0 8 -4 11 -10z m-395 -47 c0 -6 6 -14 13 -17 6 -3 3 -5 -8 -4 -33
3 -72 -11 -72 -26 0 -8 9 -13 22 -12 14 0 21 6 18 14 -3 6 0 12 6 12 20 0 12
-28 -15 -49 -33 -26 -68 -70 -61 -78 8 -8 67 30 67 43 0 11 25 26 34 21 2 -1
13 7 25 17 18 16 24 17 34 6 9 -10 9 -11 -1 -6 -12 7 -16 1 -26 -45 -5 -22
-11 -26 -33 -23 -16 1 -32 -4 -40 -14 -17 -23 -16 -37 2 -22 8 7 28 14 43 15
33 3 36 -7 19 -77 -9 -40 -13 -46 -26 -35 -8 7 -12 7 -8 1 3 -6 -1 -11 -9 -11
-9 0 -13 6 -9 15 5 12 3 13 -10 2 -9 -7 -18 -10 -22 -6 -3 3 -14 -1 -23 -9
-15 -13 -17 -13 -18 0 -4 31 -3 41 2 63 4 18 2 22 -9 18 -12 -4 -14 2 -9 37 7
49 28 117 49 157 10 20 21 28 40 26 14 0 25 -6 25 -13z m127 6 c-19 -11 -103
-22 -93 -12 6 7 65 21 91 22 19 0 19 0 2 -10z m913 -1 c0 -4 6 -8 13 -8 6 -1
25 -7 42 -14 25 -10 26 -13 12 -19 -11 -4 -16 -3 -12 3 4 7 -3 9 -19 6 -15 -3
-24 -1 -21 4 3 5 -6 12 -20 16 -27 7 -34 21 -10 21 8 0 15 -4 15 -9z m127 -23
c0 -8 -4 -12 -9 -9 -5 3 -6 10 -3 15 9 13 12 11 12 -6z m-1090 -131 c-3 -3
-12 -4 -19 -1 -8 3 -5 6 6 6 11 1 17 -2 13 -5z"/>
<path d="M2131 1833 c7 -12 15 -20 18 -17 3 2 -3 12 -13 22 -17 16 -18 16 -5
-5z"/>
<path d="M2172 1828 c-20 -8 -12 -10 45 -12 24 0 43 3 43 7 0 5 6 5 13 1 6 -4
9 -4 5 1 -9 10 -83 12 -106 3z"/>
<path d="M1825 1810 c-3 -5 -2 -10 4 -10 5 0 13 5 16 10 3 6 2 10 -4 10 -5 0
-13 -4 -16 -10z"/>
<path d="M1686 1445 c-9 -14 -14 -30 -11 -35 10 -16 25 -1 25 25 0 13 6 26 13
28 7 4 8 6 1 6 -7 1 -19 -10 -28 -24z"/>
</g>
</svg>
