<?xml version="1.0" standalone="no"?>
<!DOCTYPE svg PUBLIC "-//W3C//DTD SVG 20010904//EN"
 "http://www.w3.org/TR/2001/REC-SVG-20010904/DTD/svg10.dtd">
<svg version="1.0" xmlns="http://www.w3.org/2000/svg"
 width="450.000000pt" height="253.000000pt" viewBox="0 0 450.000000 253.000000"
 preserveAspectRatio="xMidYMid meet">
<metadata>
Created by potrace 1.16, written by Peter Selinger 2001-2019
</metadata>
<g transform="translate(0.000000,253.000000) scale(0.100000,-0.100000)"
fill="#000000" stroke="none">
<path d="M0 1265 l0 -1265 2250 0 2250 0 0 1265 0 1265 -2250 0 -2250 0 0
-1265z m3014 793 c-5 -7 -2 -8 6 -3 7 5 68 7 134 5 177 -4 186 -4 186 -12 0
-5 5 -8 11 -8 5 0 7 6 3 13 -5 8 -2 7 9 -2 10 -7 32 -21 49 -30 18 -9 48 -36
67 -61 18 -25 36 -45 40 -46 52 -4 77 -21 149 -97 9 -10 28 -20 42 -23 72 -14
194 -113 162 -133 -7 -4 -22 -27 -35 -50 -12 -24 -33 -49 -47 -56 -43 -20 -94
-47 -130 -68 -48 -27 -114 -45 -143 -40 -21 4 -24 2 -20 -19 3 -14 -4 -40 -15
-60 -16 -29 -18 -38 -8 -49 19 -21 46 -116 53 -182 7 -74 -11 -140 -48 -172
-16 -13 -29 -27 -29 -32 0 -4 -14 -14 -31 -22 -28 -12 -41 -11 -118 8 -47 12
-122 29 -165 37 -44 8 -100 24 -124 34 -74 33 -172 121 -172 154 0 2 12 1 26
-2 l27 -5 -22 22 c-11 11 -21 27 -21 34 0 9 3 8 9 -2 6 -9 14 -10 25 -4 14 8
14 10 -2 23 -23 20 -60 24 -78 9 -9 -7 -35 -10 -69 -7 -73 6 -94 27 -161 161
-58 115 -73 175 -56 228 6 19 14 52 16 74 9 69 24 116 42 136 13 15 14 19 3
19 -33 -1 -89 -19 -104 -34 -9 -9 -20 -16 -25 -16 -5 0 -11 -9 -15 -19 -6 -19
-35 -35 -65 -36 -9 0 -14 -8 -12 -20 7 -62 7 -68 -11 -71 -10 -1 -21 4 -24 12
-3 8 -9 14 -15 14 -5 0 -6 -4 -3 -10 13 -21 -13 -9 -39 19 -20 21 -24 31 -15
36 7 5 17 1 25 -10 20 -27 28 -11 15 27 -8 23 -9 34 -1 36 7 3 5 11 -6 23 -9
10 -21 16 -27 12 -7 -4 -8 7 -4 32 10 62 45 85 131 87 89 2 158 -1 216 -7 40
-5 43 -4 27 9 -17 13 -17 16 -3 44 9 17 20 34 26 37 6 4 7 11 4 17 -4 7 -2 8
5 4 6 -4 8 -13 4 -19 -4 -7 0 -6 10 2 9 7 14 18 10 25 -5 8 -3 8 8 0 17 -12
23 -12 69 4 19 6 73 14 120 17 109 7 126 10 122 25 -1 6 2 9 8 5 6 -3 7 -11 4
-17z m-680 -453 c4 -11 -1 -15 -19 -15 -14 0 -25 -4 -25 -9 0 -11 25 -21 51
-21 10 0 19 -4 19 -10 0 -13 -40 -22 -76 -18 -26 3 -29 7 -26 33 1 17 5 36 7
43 6 17 62 15 69 -3z m-64 -102 c-11 -8 -20 -21 -20 -30 0 -14 3 -13 21 3 20
18 20 18 14 -6 -3 -14 -7 -42 -8 -62 -1 -20 -7 -41 -11 -45 -5 -5 -6 -2 -1 7
5 8 -3 3 -18 -12 -14 -16 -29 -28 -33 -28 -8 0 2 96 12 112 5 7 10 24 12 38 5
42 10 49 32 43 l21 -6 -21 -14z m-46 -234 c-2 -4 0 -10 6 -14 6 -4 7 -12 3
-18 -4 -7 -8 -14 -9 -17 0 -3 -6 -16 -12 -30 -11 -25 -11 -25 -8 5 3 17 5 48
5 70 1 28 4 36 10 25 6 -8 8 -17 5 -21z m-12 -156 c-4 -55 -13 -54 -11 0 1 26
5 45 8 42 3 -3 4 -22 3 -42z m102 -461 c-1 -32 -3 -132 -5 -224 -1 -91 -5
-172 -10 -179 -4 -7 -7 97 -8 231 0 134 3 248 6 254 11 17 19 -24 17 -82z m-9
-432 c3 -5 1 -10 -4 -10 -6 0 -11 5 -11 10 0 6 2 10 4 10 3 0 8 -4 11 -10z m0
-69 c3 -5 2 -12 -3 -15 -5 -3 -9 1 -9 9 0 17 3 19 12 6z"/>
<path d="M3425 1930 c10 -11 20 -20 23 -20 3 0 -3 9 -13 20 -10 11 -20 20 -23
20 -3 0 3 -9 13 -20z"/>
<path d="M3095 1915 c-5 -2 -23 -6 -38 -9 -15 -4 -25 -11 -22 -17 12 -18 69
-37 86 -28 12 6 25 2 43 -12 27 -21 26 -45 -1 -35 -8 3 -12 2 -9 -2 2 -4 1
-14 -5 -22 -5 -10 -9 -11 -9 -3 0 9 -9 8 -34 -2 -18 -8 -36 -11 -40 -8 -15 15
-4 -9 12 -25 9 -11 24 -28 32 -38 8 -11 21 -27 27 -35 10 -13 9 -20 -8 -38
-20 -21 -21 -21 -52 -4 -17 10 -38 24 -46 31 -11 11 -18 9 -37 -9 -13 -12 -21
-25 -18 -28 3 -3 -13 -10 -36 -16 l-42 -10 22 -27 c14 -18 26 -25 38 -21 15 6
16 5 2 -13 -8 -10 -33 -37 -54 -58 -38 -38 -40 -38 -47 -18 -14 37 -20 25 -18
-35 3 -65 29 -104 55 -82 8 7 13 18 10 25 -5 13 14 24 45 24 10 0 19 6 19 14
0 9 -8 12 -24 9 -39 -8 -40 29 -2 66 26 25 35 29 45 19 11 -11 12 -10 6 2 -6
11 -3 10 12 -3 11 -9 23 -14 26 -10 4 3 7 1 7 -6 0 -7 -14 -31 -31 -52 -30
-38 -30 -39 -8 -39 12 0 33 10 46 22 l23 22 15 -21 c13 -18 20 -20 48 -12 36
10 68 46 59 68 -3 9 -1 12 6 7 7 -4 12 -1 12 8 0 19 -23 33 -28 17 -5 -14 -32
5 -32 23 0 7 3 7 8 -1 5 -9 12 -6 21 10 8 12 10 19 6 15 -9 -8 -60 16 -71 33
-5 9 2 10 26 6 25 -6 30 -4 22 6 -11 13 10 41 22 29 4 -3 4 1 0 11 -5 14 0 17
24 17 17 0 34 -4 37 -10 3 -5 12 -10 18 -10 7 0 3 7 -8 16 -19 14 -33 70 -14
59 5 -4 9 1 9 10 0 11 -5 15 -14 12 -10 -4 -12 0 -9 14 3 11 9 22 14 24 4 3 5
13 2 22 -5 14 0 13 29 -5 55 -34 91 -26 50 11 -10 10 -21 14 -25 11 -4 -4 -18
1 -33 11 -18 11 -23 20 -16 27 16 16 3 38 -23 38 -12 0 -42 7 -65 15 -43 15
-47 16 -65 10z m152 -50 c4 -4 2 -5 -4 -1 -8 4 -13 1 -13 -8 0 -14 -3 -14 -20
-4 -12 8 -15 15 -8 19 13 8 35 6 45 -6z m-17 -61 c0 -2 -7 -4 -15 -4 -8 0 -15
4 -15 10 0 5 7 7 15 4 8 -4 15 -8 15 -10z m-40 -64 c8 -5 11 -10 5 -11 -5 0
-20 -2 -32 -3 -12 -1 -20 1 -17 5 2 4 -4 10 -13 12 -10 3 -5 5 12 6 17 0 37
-4 45 -9z m-109 -164 c-14 -8 -32 -12 -40 -10 -9 3 -5 0 9 -7 87 -39 89 -41
86 -71 -4 -34 -11 -44 -21 -29 -3 6 -1 11 4 11 6 0 11 5 11 10 0 6 -3 9 -7 9
-27 -4 -45 4 -53 25 -7 18 -14 23 -29 19 -12 -3 -21 -1 -21 6 0 6 -8 11 -17
11 -11 0 -4 8 17 19 19 11 46 20 60 20 l25 0 -24 -13z"/>
<path d="M3450 1891 c-8 -6 -17 -8 -21 -5 -4 2 -10 0 -14 -6 -4 -6 -11 -8 -16
-5 -5 4 -9 -4 -9 -17 0 -17 3 -19 9 -9 7 11 9 11 14 0 3 -9 6 -6 6 7 1 11 8
21 16 22 8 1 22 3 30 4 8 1 12 5 9 10 -6 10 -6 10 -24 -1z"/>
<path d="M3062 1842 c-8 -5 -10 -16 -6 -27 7 -17 8 -16 16 4 5 13 12 19 19 15
8 -4 9 -3 5 4 -8 14 -16 15 -34 4z"/>
<path d="M3490 1830 c0 -5 5 -10 11 -10 5 0 7 5 4 10 -3 6 -8 10 -11 10 -2 0
-4 -4 -4 -10z"/>
<path d="M2318 1735 c-3 -14 -1 -28 4 -31 12 -8 15 -4 20 25 4 33 -18 38 -24
6z"/>
<path d="M3347 1714 c-2 -2 -12 -5 -24 -7 -11 -1 -28 -11 -38 -20 -17 -17 -17
-19 1 -32 17 -12 21 -10 37 16 11 16 24 26 30 22 6 -3 7 -1 3 5 -4 7 -2 12 3
12 14 0 14 -17 0 -25 -6 -4 -8 -14 -4 -23 3 -9 3 -13 -1 -9 -9 8 -55 -53 -48
-64 4 -8 84 -8 84 -1 0 2 -7 10 -15 18 -8 9 -15 21 -15 27 0 7 4 6 10 -3 7
-11 10 -11 10 -2 0 8 5 10 13 6 9 -6 9 -5 0 7 -9 11 -7 19 7 36 9 12 21 19 24
15 4 -3 5 0 1 8 -5 13 -68 24 -78 14z"/>
<path d="M3253 1573 c-15 -5 -17 -23 -4 -23 5 0 11 7 15 15 3 8 4 15 3 14 -1
0 -8 -3 -14 -6z"/>
<path d="M2828 1563 c7 -3 16 -2 19 1 4 3 -2 6 -13 5 -11 0 -14 -3 -6 -6z"/>
<path d="M2836 1531 c-3 -5 0 -14 8 -20 10 -8 16 -8 25 3 9 11 8 15 -5 20 -20
8 -22 8 -28 -3z"/>
<path d="M3060 1358 c0 -18 12 -34 30 -42 15 -6 -21 -3 -49 5 -9 2 -17 -5 -19
-16 -11 -55 -65 -69 -104 -28 -12 13 -25 23 -30 23 -16 0 -7 -27 17 -50 19
-18 22 -26 13 -32 -9 -5 -8 -8 5 -8 26 0 30 -1 52 -12 19 -9 19 -8 2 6 -18 14
-17 15 5 22 13 4 33 7 45 5 13 -1 30 5 39 14 10 9 25 14 35 12 11 -3 19 -2 19
2 0 10 41 8 58 -2 15 -10 15 -5 1 26 -6 13 -28 35 -50 48 -21 13 -39 27 -39
32 0 13 -30 8 -30 -5z"/>
<path d="M3270 1349 c0 -4 10 -11 21 -14 17 -6 19 -9 8 -17 -11 -7 -10 -8 5
-6 24 4 34 28 11 28 -9 0 -14 4 -11 8 2 4 -4 8 -15 8 -10 0 -19 -4 -19 -7z"/>
<path d="M3240 1257 c0 -19 16 -31 24 -18 3 5 -1 14 -9 21 -12 10 -15 10 -15
-3z"/>
<path d="M3150 1210 c0 -6 7 -10 15 -10 8 0 15 2 15 4 0 2 -7 6 -15 10 -8 3
-15 1 -15 -4z"/>
</g>
</svg>
