<?xml version="1.0" standalone="no"?>
<!DOCTYPE svg PUBLIC "-//W3C//DTD SVG 20010904//EN"
 "http://www.w3.org/TR/2001/REC-SVG-20010904/DTD/svg10.dtd">
<svg version="1.0" xmlns="http://www.w3.org/2000/svg"
 width="450.000000pt" height="253.000000pt" viewBox="0 0 450.000000 253.000000"
 preserveAspectRatio="xMidYMid meet">
<metadata>
Created by potrace 1.16, written by Peter Selinger 2001-2019
</metadata>
<g transform="translate(0.000000,253.000000) scale(0.100000,-0.100000)"
fill="#000000" stroke="none">
<path d="M0 1265 l0 -1265 2250 0 2250 0 0 1265 0 1265 -2250 0 -2250 0 0
-1265z m2998 700 c71 -17 121 -41 196 -92 73 -51 101 -79 154 -156 l46 -68
-27 -50 c-37 -65 -74 -104 -117 -124 -19 -9 -55 -27 -79 -40 -24 -14 -47 -23
-49 -20 -3 3 0 5 7 5 7 0 11 7 8 14 -4 10 -1 13 9 9 9 -3 14 1 14 12 0 9 4 14
9 10 5 -3 12 -1 16 5 4 6 11 8 16 5 5 -4 9 -1 9 6 0 7 3 9 6 6 7 -7 63 29 76
47 12 18 0 22 -54 20 -29 -1 -47 0 -40 3 6 3 10 8 8 11 -2 4 11 8 30 8 19 0
34 -3 34 -7 0 -11 64 17 68 29 4 13 -21 27 -63 36 -24 5 -26 4 -12 -4 9 -6 17
-16 17 -22 0 -6 -3 -8 -7 -5 -3 4 -13 1 -21 -6 -9 -6 -13 -7 -9 -1 3 6 0 11
-8 11 -8 0 -12 -3 -10 -7 3 -4 -7 -6 -21 -4 -14 1 -27 -3 -30 -10 -2 -6 -16
-13 -30 -14 -14 -1 -23 1 -21 6 3 4 -42 7 -99 7 -57 0 -104 -4 -104 -8 0 -5
-4 -6 -8 -3 -5 3 -27 6 -50 7 -23 2 -42 5 -42 8 0 4 -29 7 -65 7 -97 2 -110 8
-111 45 -1 20 -11 40 -28 56 -20 18 -25 31 -22 51 2 15 5 31 5 35 1 5 6 5 13
1 7 -4 8 -3 4 5 -4 6 -12 9 -17 6 -5 -4 -9 -2 -9 4 0 5 7 14 17 19 11 7 14 16
9 28 -7 18 -8 18 -20 2 -8 -12 -16 -14 -23 -7 -6 6 -10 5 -10 -5 0 -8 3 -13 7
-11 4 2 7 -1 8 -8 1 -7 3 -24 6 -40 2 -15 0 -25 -5 -21 -5 3 -7 9 -4 14 3 5
-1 20 -10 33 -8 13 -12 27 -8 30 3 4 0 7 -8 7 -17 0 57 51 126 87 102 53 206
65 323 38z m-763 -55 c-3 -5 0 -8 7 -5 32 10 87 14 93 6 3 -5 19 -8 35 -6 22
3 29 1 23 -8 -5 -9 -3 -9 8 -1 8 6 32 12 54 12 30 1 36 -1 25 -9 -11 -7 -4 -8
23 -3 31 5 37 3 37 -11 0 -13 -6 -16 -25 -13 -13 3 -22 1 -19 -3 2 -4 -15 -13
-38 -20 -115 -31 -137 -41 -136 -57 4 -47 -1 -52 -45 -52 -24 0 -48 -5 -55
-12 -9 -9 -12 -7 -12 10 0 20 -10 27 -33 23 -4 -1 -10 6 -13 14 -4 8 -12 15
-19 15 -7 0 -18 7 -25 15 -7 8 -18 15 -24 14 -7 0 -7 -2 1 -5 7 -3 10 -11 7
-18 -3 -7 2 -19 11 -26 16 -13 21 -50 6 -50 -5 0 -14 13 -19 30 -12 34 -69 93
-82 85 -5 -3 -11 -1 -14 4 -4 5 5 8 19 7 13 -2 22 1 19 6 -3 5 -12 7 -20 4 -8
-3 -14 -1 -14 5 0 6 -4 7 -10 4 -15 -9 -6 -46 15 -61 10 -8 15 -17 11 -21 -4
-4 -11 -1 -16 6 -7 13 -22 17 -67 20 -17 1 -8 52 12 67 16 12 39 9 88 -11 12
-5 17 -2 17 10 0 12 -6 16 -20 12 -22 -6 -38 8 -17 15 6 3 46 6 87 7 41 1 76
3 77 5 8 7 53 4 48 -4z m244 -149 c-13 -11 -26 -17 -29 -14 -6 6 30 33 43 33
5 0 -1 -9 -14 -19z m-452 0 c21 18 46 2 39 -24 -7 -28 20 -71 40 -63 8 3 11 0
7 -9 -3 -8 -9 -12 -14 -9 -5 3 -9 0 -9 -5 0 -15 -43 -14 -59 2 -11 9 -12 9 -7
0 5 -9 2 -11 -8 -7 -9 3 -14 9 -11 13 2 4 -1 8 -8 9 -7 0 -29 2 -51 5 -43 4
-79 -19 -54 -34 10 -7 10 -9 1 -9 -7 0 -13 -5 -13 -10 0 -6 10 -8 23 -5 45 10
97 13 97 5 0 -4 -18 -11 -41 -15 -38 -7 -40 -9 -34 -33 4 -15 12 -30 18 -35 7
-4 0 -5 -15 -3 -17 3 -34 -2 -46 -12 -10 -9 -12 -13 -5 -9 6 5 19 7 28 5 13
-2 11 -10 -11 -41 -14 -21 -23 -41 -20 -44 3 -4 6 -1 6 5 0 7 7 12 15 12 18 0
19 -14 4 -43 -18 -34 -77 -62 -65 -31 3 8 1 14 -4 14 -5 0 -10 -8 -13 -17 -2
-10 -2 25 0 77 5 106 16 162 37 180 8 6 12 18 10 25 -4 9 10 20 39 33 25 11
55 34 68 51 15 20 26 28 33 21 6 -6 14 -6 23 1z m-119 -25 c-7 -8 -15 -12 -17
-11 -5 6 10 25 20 25 5 0 4 -6 -3 -14z m77 -186 c-3 -5 -12 -10 -18 -10 -7 0
-6 4 3 10 19 12 23 12 15 0z m1085 -160 c0 -5 -6 -10 -14 -10 -8 0 -22 -3 -32
-7 -16 -6 -17 -5 -4 10 16 18 50 23 50 7z m-296 -36 c20 -13 19 -14 -10 -14
-19 0 -38 8 -50 21 l-19 22 29 -7 c16 -4 39 -14 50 -22z"/>
<path d="M2735 1860 c3 -5 12 -7 20 -3 21 7 19 13 -6 13 -11 0 -18 -4 -14 -10z"/>
<path d="M2340 1862 c0 -12 2 -12 17 -1 15 12 16 12 10 -6 -7 -19 -6 -19 7 -2
14 18 32 24 21 7 -3 -6 1 -7 9 -4 29 11 17 21 -24 21 -29 0 -40 -4 -40 -15z"/>
<path d="M2208 1803 c7 -3 16 -2 19 1 4 3 -2 6 -13 5 -11 0 -14 -3 -6 -6z"/>
<path d="M1994 1752 c3 -5 0 -13 -6 -15 -10 -4 -10 -8 1 -15 10 -7 20 -6 32 1
17 10 17 22 1 22 -4 0 -13 4 -21 9 -9 6 -12 5 -7 -2z"/>
<path d="M2025 1710 c-8 -13 15 -24 27 -12 6 6 4 11 -6 15 -8 3 -18 2 -21 -3z"/>
<path d="M1870 1590 c0 -5 7 -7 15 -4 8 4 15 8 15 10 0 2 -7 4 -15 4 -8 0 -15
-4 -15 -10z"/>
</g>
</svg>
