<?xml version="1.0" standalone="no"?>
<!DOCTYPE svg PUBLIC "-//W3C//DTD SVG 20010904//EN"
 "http://www.w3.org/TR/2001/REC-SVG-20010904/DTD/svg10.dtd">
<svg version="1.0" xmlns="http://www.w3.org/2000/svg"
 width="450.000000pt" height="253.000000pt" viewBox="0 0 450.000000 253.000000"
 preserveAspectRatio="xMidYMid meet">
<metadata>
Created by potrace 1.16, written by Peter Selinger 2001-2019
</metadata>
<g transform="translate(0.000000,253.000000) scale(0.100000,-0.100000)"
fill="#000000" stroke="none">
<path d="M0 1265 l0 -1265 2250 0 2250 0 0 1265 0 1265 -2250 0 -2250 0 0
-1265z m3026 694 c87 -27 115 -41 184 -93 64 -47 101 -86 135 -138 13 -20 29
-39 35 -43 12 -8 14 -75 1 -75 -5 0 -16 -15 -25 -32 -9 -18 -24 -43 -35 -55
-22 -26 -218 -133 -206 -112 13 22 48 59 56 59 4 0 20 5 36 12 15 6 31 11 36
10 7 -2 11 14 8 31 -1 5 2 6 6 4 5 -2 17 -1 28 4 15 7 11 8 -17 6 -21 -2 -38
0 -38 4 0 4 -8 6 -17 5 -11 0 -18 6 -17 16 1 10 -4 14 -12 11 -8 -3 -12 -9 -9
-13 3 -5 1 -12 -5 -15 -6 -4 -9 -1 -8 6 2 7 -6 13 -18 14 -11 0 -28 6 -36 12
-8 7 -17 11 -20 8 -2 -3 -25 -6 -49 -6 -24 -1 -54 -6 -66 -10 -14 -5 -23 -5
-23 1 0 6 -9 6 -25 0 -24 -9 -29 -4 -27 21 1 3 -6 6 -13 6 -11 0 -12 -4 -4
-13 7 -8 6 -14 -2 -20 -8 -5 -9 -3 -4 6 5 9 2 10 -14 5 -22 -7 -30 10 -8 18 7
3 5 6 -5 6 -10 1 -18 -5 -18 -11 0 -9 -3 -9 -9 1 -5 8 -20 16 -33 18 -18 2
-20 1 -8 -7 12 -8 9 -9 -10 -6 -14 3 -26 5 -27 7 -2 1 -6 2 -10 3 -5 1 -14 5
-22 10 -10 6 -12 5 -7 -2 9 -15 -65 -6 -79 10 -7 8 -6 9 3 4 6 -4 12 -3 12 1
0 5 -6 15 -12 22 -11 11 -10 12 0 6 8 -4 2 11 -12 33 -26 42 -26 37 2 122 12
37 10 41 -16 38 -17 -2 -26 -8 -24 -17 3 -12 0 -12 -12 -2 -16 14 -12 36 5 26
5 -4 9 -2 9 3 0 15 129 88 185 105 73 23 180 21 261 -4z m-780 -47 c-3 -5 18
-4 46 2 41 9 52 8 62 -5 7 -10 21 -13 41 -9 17 3 47 3 68 -1 22 -4 47 -5 57
-2 21 6 35 -12 18 -23 -7 -5 -58 -20 -113 -34 -99 -26 -100 -27 -100 -57 0
-17 -2 -33 -5 -36 -3 -2 -28 -7 -57 -9 -40 -4 -50 -2 -46 9 3 7 0 13 -6 13
-14 0 -73 40 -84 58 -14 21 -39 15 -32 -8 4 -11 2 -20 -4 -20 -6 0 -11 6 -11
14 0 8 -6 16 -12 19 -10 3 -10 8 1 18 9 9 11 9 7 2 -4 -7 -2 -13 4 -13 7 0 9
6 6 13 -3 6 -9 20 -12 30 -4 10 -16 17 -30 17 -13 0 -24 4 -24 10 0 5 37 11
83 13 45 1 97 4 115 5 18 1 31 -2 28 -6z m-256 -39 c0 -10 3 -27 5 -38 4 -15
-1 -23 -20 -32 -14 -6 -23 -7 -19 -2 3 5 -1 9 -9 9 -11 0 -13 7 -10 23 6 24
31 57 45 57 4 0 8 -8 8 -17z m524 -103 c-3 -3 -11 -5 -17 -5 -7 -1 -11 -5 -10
-11 1 -5 -7 -10 -17 -10 -15 0 -16 4 -9 18 6 11 19 17 34 16 13 -1 22 -5 19
-8z m-444 -27 c0 -7 -11 -18 -25 -25 -27 -12 -23 -32 6 -25 22 6 43 -17 35
-38 -4 -11 -14 -14 -38 -10 -18 3 -35 9 -38 13 -3 4 -10 8 -16 9 -6 1 -24 4
-39 7 -38 7 -62 -8 -62 -39 0 -20 3 -24 17 -20 41 13 100 14 100 1 0 -8 -10
-12 -22 -11 -28 3 -78 -15 -60 -22 6 -3 12 -13 12 -23 0 -18 22 -22 36 -7 4 4
12 7 18 7 6 0 3 -7 -7 -15 -10 -7 -30 -11 -43 -9 -14 3 -33 0 -42 -5 -15 -9
-14 -10 6 -11 l23 0 -19 -27 c-10 -16 -23 -35 -27 -43 -8 -13 -6 -13 8 -1 31
25 32 -15 0 -57 -28 -39 -52 -45 -54 -14 0 14 -2 13 -8 -3 -13 -31 -12 130 0
181 6 24 17 49 25 55 8 6 14 24 14 40 0 19 5 29 14 29 8 0 30 9 49 20 20 12
42 18 51 14 21 -8 68 16 62 31 -2 7 2 12 10 12 8 0 14 -6 14 -14z m60 -4 c0
-11 -4 -17 -10 -14 -5 3 -10 13 -10 21 0 8 5 14 10 14 6 0 10 -9 10 -21z m546
-252 c4 -4 0 -7 -9 -7 -9 0 -18 4 -21 9 -7 10 20 9 30 -2z m397 -103 c-5 -14
-29 -14 -52 0 -19 12 4 24 34 18 15 -2 22 -9 18 -18z m-317 -20 c42 -20 53
-36 22 -30 -13 3 -31 5 -40 5 -10 1 -18 7 -18 15 0 8 -6 17 -12 19 -10 4 -10
6 0 6 8 1 29 -6 48 -15z"/>
<path d="M2656 1627 c3 -10 9 -15 12 -12 3 3 0 11 -7 18 -10 9 -11 8 -5 -6z"/>
<path d="M3320 1605 c-7 -8 -17 -12 -23 -8 -6 3 -7 1 -3 -5 4 -8 -3 -10 -24
-7 -17 2 -28 0 -25 -5 3 -5 12 -7 20 -3 10 3 15 -1 15 -13 0 -16 2 -16 16 4 8
12 20 20 25 17 5 -4 12 1 15 10 9 22 -1 29 -16 10z"/>
<path d="M3119 1593 c-12 -16 -12 -17 2 -6 12 10 18 10 29 0 12 -10 12 -9 1 6
-7 9 -15 17 -16 17 -1 0 -9 -8 -16 -17z"/>
<path d="M2354 1864 c-18 -15 -18 -15 2 -5 15 7 25 7 34 -2 9 -8 11 -9 6 0 -3
6 0 14 6 16 7 3 4 6 -8 6 -11 1 -29 -6 -40 -15z"/>
</g>
</svg>
