<?xml version="1.0" standalone="no"?>
<!DOCTYPE svg PUBLIC "-//W3C//DTD SVG 20010904//EN"
 "http://www.w3.org/TR/2001/REC-SVG-20010904/DTD/svg10.dtd">
<svg version="1.0" xmlns="http://www.w3.org/2000/svg"
 width="450.000000pt" height="253.000000pt" viewBox="0 0 450.000000 253.000000"
 preserveAspectRatio="xMidYMid meet">
<metadata>
Created by potrace 1.16, written by Peter Selinger 2001-2019
</metadata>
<g transform="translate(0.000000,253.000000) scale(0.100000,-0.100000)"
fill="#000000" stroke="none">
<path d="M0 1265 l0 -1265 2250 0 2250 0 0 1265 0 1265 -2250 0 -2250 0 0
-1265z m2662 1139 c25 -13 48 -15 107 -10 163 14 262 -48 352 -219 23 -44 49
-87 58 -97 9 -9 44 -23 78 -32 62 -15 63 -15 87 8 51 51 145 44 293 -24 134
-61 156 -75 180 -111 13 -19 27 -39 32 -45 5 -6 5 -17 0 -25 -4 -8 -6 -23 -3
-35 9 -37 -24 -95 -94 -163 -131 -128 -159 -150 -220 -166 -31 -9 -74 -23 -95
-32 -35 -15 -37 -17 -22 -37 67 -92 96 -214 78 -322 -13 -73 -33 -111 -67
-124 -13 -5 -26 -16 -29 -24 -4 -9 -15 -16 -26 -16 -11 0 -22 -4 -25 -9 -10
-15 -128 -33 -212 -33 -132 1 -261 31 -373 85 -38 19 -44 19 -52 5 -5 -9 -21
-19 -36 -23 -39 -9 -53 -24 -53 -54 0 -15 -8 -38 -17 -51 -10 -14 -20 -45 -24
-70 l-6 -45 -2 40 -1 39 -37 -36 c-80 -76 -231 -115 -334 -85 -65 19 -99 52
-133 128 -44 101 -54 149 -46 225 4 38 3 72 -2 75 -5 3 -6 13 -3 21 5 12 0 16
-17 15 -173 -3 -330 34 -435 105 -48 33 -93 83 -93 104 0 8 -4 14 -9 14 -16 0
-25 109 -12 151 14 46 116 156 171 184 19 10 37 21 40 24 3 4 27 19 53 35 l48
27 -71 66 c-78 73 -135 172 -146 257 -8 54 12 137 30 130 7 -3 19 2 26 11 7 8
42 24 77 35 108 33 350 24 415 -16 6 -4 50 -7 97 -6 l87 1 49 46 c78 72 134
95 227 95 53 0 89 -5 110 -16z"/>
<path d="M2617 1919 c7 -7 15 -10 18 -7 3 3 -2 9 -12 12 -14 6 -15 5 -6 -5z"/>
<path d="M2678 1903 c12 -2 30 -2 40 0 9 3 -1 5 -23 4 -22 0 -30 -2 -17 -4z"/>
<path d="M2610 1885 c0 -7 6 -31 14 -53 15 -41 8 -62 -22 -62 -8 0 -12 -6 -9
-14 3 -7 -1 -23 -9 -35 -8 -11 -12 -21 -8 -21 5 0 3 -5 -4 -12 -8 -8 -6 -18 9
-40 11 -15 17 -28 12 -28 -4 0 6 -9 23 -19 36 -22 51 -41 33 -41 -8 0 -7 -5 2
-16 8 -9 12 -27 11 -38 -2 -19 2 -22 33 -23 39 -1 50 9 50 47 0 20 8 27 44 41
44 16 75 45 65 60 -3 5 0 18 6 29 9 16 8 25 -1 36 -11 14 -13 13 -21 0 -5 -9
-16 -16 -24 -16 -8 0 -17 -13 -20 -29 -6 -30 -37 -53 -64 -48 -38 8 -60 19
-60 32 0 8 -8 16 -18 20 -11 3 -24 17 -30 31 -14 29 -15 47 -4 41 4 -3 18 0
32 5 l25 9 -24 13 c-19 11 -21 14 -7 19 20 8 21 39 1 78 -9 16 -14 33 -11 38
3 4 -1 8 -9 8 -8 0 -15 -6 -15 -12z"/>
<path d="M2864 1885 c10 -8 24 -11 29 -8 6 4 2 10 -9 14 -31 12 -40 9 -20 -6z"/>
<path d="M2400 1775 c0 -30 13 -32 39 -6 19 19 19 19 -2 25 -34 9 -37 8 -37
-19z"/>
<path d="M2330 1706 c9 -18 28 -45 42 -60 l25 -27 16 24 c15 23 15 25 -2 30
-9 2 -24 17 -32 33 -9 20 -22 30 -40 31 l-26 1 17 -32z"/>
<path d="M2480 1719 c0 -5 -6 -7 -12 -3 -7 4 -9 3 -5 -1 13 -15 36 -14 30 1
-6 17 -13 18 -13 3z"/>
<path d="M1535 1600 c-9 -16 -12 -30 -8 -30 5 0 -1 -7 -11 -15 -11 -8 -17 -15
-13 -15 4 0 3 -8 -2 -18 -7 -12 -7 -23 0 -30 5 -7 6 -10 2 -7 -9 7 -36 -35
-28 -43 4 -4 10 -1 12 6 4 10 8 10 21 0 10 -7 14 -9 11 -5 -4 4 6 20 20 35 20
20 27 36 26 62 -1 19 3 38 9 42 7 5 4 13 -9 23 -11 9 -14 13 -6 9 9 -5 12 -3
7 4 -10 17 -14 15 -31 -18z"/>
<path d="M2535 1590 c-3 -5 -21 -6 -41 -3 -31 5 -36 3 -32 -13 1 -10 14 -21
28 -24 23 -5 23 -7 5 -13 -18 -8 -18 -9 5 -21 14 -7 34 -12 46 -11 12 1 21 -4
21 -12 0 -8 -6 -12 -14 -8 -17 6 -53 -11 -53 -25 0 -17 80 -12 86 5 4 8 12 15
19 15 22 0 29 22 12 32 -12 6 -14 14 -8 31 6 15 4 26 -4 34 -17 16 -63 24 -70
13z"/>
<path d="M1863 1573 c-17 -6 -17 -20 0 -20 8 0 14 6 14 14 0 7 -1 13 -1 12 -1
0 -7 -3 -13 -6z"/>
<path d="M1894 1573 c4 -7 16 -18 28 -24 16 -9 19 -8 13 2 -6 9 -3 11 8 6 24
-9 21 0 -4 14 -15 8 -19 8 -15 0 10 -15 -7 -14 -23 2 -11 9 -12 9 -7 0z"/>
<path d="M2388 1553 c5 -21 7 -23 10 -9 2 10 0 22 -6 28 -6 6 -7 0 -4 -19z"/>
<path d="M1980 1539 c0 -5 -4 -7 -10 -4 -6 3 -7 -1 -4 -9 9 -24 33 -20 27 4
-6 21 -13 27 -13 9z"/>
<path d="M2275 1480 c3 -5 8 -10 11 -10 2 0 4 5 4 10 0 6 -5 10 -11 10 -5 0
-7 -4 -4 -10z"/>
<path d="M2400 1480 c-8 -5 -12 -11 -9 -14 2 -3 11 -1 19 4 8 5 12 11 9 14 -2
3 -11 1 -19 -4z"/>
<path d="M2318 1455 c-3 -3 -14 -7 -24 -9 -34 -7 -72 -24 -79 -36 -12 -19 4
-24 23 -7 10 10 22 14 25 10 4 -3 7 -2 7 4 0 14 68 -8 75 -25 7 -18 -19 -42
-52 -48 -39 -7 -42 -14 -5 -14 17 0 38 7 46 16 15 14 20 11 17 -8 0 -5 4 -8 9
-8 6 0 10 -8 10 -18 0 -10 3 -22 7 -26 11 -10 12 -37 2 -30 -5 3 -9 -4 -9 -14
0 -11 -6 -25 -14 -31 -20 -17 -27 -51 -11 -51 8 0 18 6 22 14 4 7 18 18 31 25
12 6 22 21 22 31 0 11 4 20 8 20 4 0 15 13 24 28 17 28 20 29 85 25 l68 -3
-32 21 c-35 22 -44 56 -18 65 35 14 13 29 -45 30 -33 1 -60 -2 -60 -7 0 -5 5
-9 10 -9 6 0 10 -7 10 -15 0 -10 -10 -15 -27 -15 l-28 0 30 -25 30 -26 -38 15
c-47 19 -87 46 -67 46 9 0 7 7 -8 20 -18 17 -20 25 -12 40 9 17 7 20 -8 20
-10 0 -21 -2 -24 -5z"/>
<path d="M2077 1442 c-34 -3 -37 -5 -25 -19 11 -13 9 -18 -10 -31 -12 -8 -22
-21 -22 -28 0 -21 48 -13 72 13 12 13 32 23 45 23 13 0 23 5 23 10 0 6 0 13 0
18 0 11 -40 17 -83 14z"/>
<path d="M2711 1379 c-14 -31 -11 -41 14 -45 7 -1 11 4 9 11 -7 17 12 29 22
14 5 -8 3 -9 -7 -4 -8 5 -11 4 -6 0 4 -5 15 -10 25 -11 9 -1 25 -5 34 -9 12
-5 20 -2 24 9 8 21 6 24 -36 31 -19 3 -42 12 -50 20 -14 12 -17 10 -29 -16z"/>
<path d="M2607 1364 c-3 -4 -1 -16 4 -27 9 -15 13 -17 19 -7 14 23 -5 51 -23
34z"/>
<path d="M2722 1241 c-8 -4 -13 -11 -13 -15 1 -3 -1 -17 -5 -31 -5 -19 -10
-23 -19 -15 -6 5 -16 6 -21 2 -4 -4 -2 1 6 12 13 16 12 18 -5 14 -11 -2 -20
-11 -20 -20 0 -28 -21 -43 -39 -29 -8 7 -17 8 -20 3 -6 -11 16 -22 42 -22 19
0 140 58 148 71 7 12 -14 39 -30 39 -6 0 -17 -4 -24 -9z"/>
<path d="M2658 1223 c7 -3 16 -2 19 1 4 3 -2 6 -13 5 -11 0 -14 -3 -6 -6z"/>
<path d="M2975 1220 c-3 -5 1 -10 10 -10 9 0 13 5 10 10 -3 6 -8 10 -10 10 -2
0 -7 -4 -10 -10z"/>
<path d="M3331 1134 c-14 -33 -14 -55 4 -78 11 -15 16 -16 28 -5 7 7 11 24 9
37 -4 19 -2 23 9 17 8 -5 5 2 -6 15 -11 13 -14 20 -7 16 6 -4 12 -5 12 -2 0 3
-8 10 -19 15 -15 8 -20 6 -30 -15z"/>
<path d="M2050 1121 c0 -5 8 -11 18 -13 11 -3 19 0 19 8 0 8 -9 14 -19 14 -10
0 -18 -4 -18 -9z"/>
<path d="M2346 1091 c-3 -5 3 -11 13 -14 12 -3 22 1 25 9 6 16 -29 20 -38 5z"/>
</g>
</svg>
