<?xml version="1.0" standalone="no"?>
<!DOCTYPE svg PUBLIC "-//W3C//DTD SVG 20010904//EN"
 "http://www.w3.org/TR/2001/REC-SVG-20010904/DTD/svg10.dtd">
<svg version="1.0" xmlns="http://www.w3.org/2000/svg"
 width="450.000000pt" height="253.000000pt" viewBox="0 0 450.000000 253.000000"
 preserveAspectRatio="xMidYMid meet">
<metadata>
Created by potrace 1.16, written by Peter Selinger 2001-2019
</metadata>
<g transform="translate(0.000000,253.000000) scale(0.100000,-0.100000)"
fill="#000000" stroke="none">
<path d="M0 1265 l0 -1265 2250 0 2250 0 0 1265 0 1265 -2250 0 -2250 0 0
-1265z m3232 720 c211 -42 287 -78 307 -146 17 -55 2 -73 -34 -39 -28 27 -42
22 -26 -9 6 -11 29 -25 51 -31 21 -6 53 -22 70 -37 40 -33 85 -104 72 -112 -5
-3 -17 -22 -27 -41 -19 -40 -52 -69 -76 -70 -22 0 -44 -26 -30 -35 20 -12 61
-112 61 -147 0 -20 -7 -41 -15 -48 -8 -7 -15 -18 -15 -24 0 -7 -14 -23 -32
-36 -32 -24 -84 -31 -255 -34 -39 0 -69 -4 -66 -8 9 -16 -170 -12 -199 3 -38
20 -19 36 44 38 35 1 65 6 68 11 3 4 20 12 39 17 19 5 36 14 38 20 4 10 -41
28 -62 24 -5 0 -1 6 10 15 20 15 19 16 -5 12 -14 -2 -28 -10 -32 -18 -4 -10
-7 -5 -8 15 -2 17 -2 33 -1 38 1 10 -81 9 -98 -2 -11 -7 -4 -12 25 -20 21 -6
45 -15 52 -20 20 -12 -28 -23 -70 -14 -30 6 -32 5 -20 -10 12 -14 10 -17 -12
-23 -14 -3 -43 -3 -64 1 -20 4 -62 9 -92 11 -82 6 -166 65 -201 141 -21 46
-24 63 -10 63 11 0 2 39 -12 58 -14 18 -20 46 -19 107 0 98 2 126 10 121 4 -3
13 8 19 24 9 25 9 28 -8 25 -27 -5 -24 0 16 23 21 13 37 32 41 49 13 55 23 60
184 103 135 36 222 37 382 5z m-772 -86 c0 -7 7 -8 18 -4 9 4 22 7 27 6 95 -8
122 -14 133 -25 11 -11 9 -15 -15 -23 -15 -6 -59 -16 -98 -23 -114 -19 -131
-27 -141 -62 -7 -24 -15 -31 -39 -34 -17 -2 -40 -6 -52 -9 -15 -3 -23 -1 -23
8 0 15 -40 61 -46 54 -3 -2 1 -16 7 -31 9 -18 9 -32 2 -48 -10 -22 -11 -20
-18 16 -8 42 -42 89 -57 80 -5 -3 -2 -14 8 -25 10 -12 15 -29 12 -49 -3 -18 1
-35 9 -41 7 -6 10 -16 6 -23 -4 -6 1 -5 10 3 15 12 17 11 17 -13 0 -14 -1 -26
-3 -26 -2 0 -27 7 -57 16 -38 11 -49 18 -39 25 9 5 1 6 -22 3 -20 -4 -39 -2
-43 4 -7 12 37 43 65 45 28 2 37 44 13 62 -11 8 -28 12 -39 9 -16 -4 -21 0
-22 17 -4 43 34 77 102 92 45 10 285 7 285 -4z m-416 -244 c-4 -8 -1 -15 5
-15 6 0 8 -6 5 -14 -5 -12 0 -13 31 -5 21 6 48 8 62 4 20 -5 23 -8 13 -20 -7
-8 -16 -12 -21 -10 -4 3 -20 3 -34 -1 -20 -5 -23 -9 -14 -20 6 -8 25 -14 41
-14 42 0 25 -19 -25 -27 -23 -3 -36 -8 -29 -11 9 -3 5 -12 -12 -29 -14 -14
-23 -29 -21 -33 3 -5 -1 -11 -7 -13 -10 -4 -10 -6 0 -6 7 -1 15 6 18 14 4 8
10 15 14 15 13 0 -13 -87 -32 -110 -27 -30 -49 -16 -43 29 2 20 8 63 11 96 4
33 8 62 9 65 1 3 5 28 10 55 4 28 9 53 12 58 8 13 13 7 7 -8z m80 -239 c-3
-15 -8 -25 -11 -23 -2 3 -1 17 3 31 3 15 8 25 11 23 2 -3 1 -17 -3 -31z m-127
-223 c-3 -10 -5 -2 -5 17 0 19 2 27 5 18 2 -10 2 -26 0 -35z m0 -55 c-3 -8 -6
-5 -6 6 -1 11 2 17 5 13 3 -3 4 -12 1 -19z m-10 -230 c-3 -8 -6 -5 -6 6 -1 11
2 17 5 13 3 -3 4 -12 1 -19z"/>
<path d="M3259 1797 c7 -9 10 -17 6 -17 -4 0 9 -16 28 -36 19 -20 38 -50 41
-66 7 -35 28 -33 36 3 5 20 7 21 13 7 4 -11 12 -15 22 -12 8 3 12 10 9 15 -3
5 -10 7 -15 4 -5 -4 -17 7 -27 24 -9 17 -21 31 -25 31 -5 0 -5 -6 -1 -12 5
-10 4 -10 -6 -1 -11 10 -11 15 1 29 12 15 12 17 0 9 -11 -6 -13 -4 -8 8 5 13
1 17 -16 17 -12 0 -33 3 -47 7 -22 6 -24 5 -11 -10z m103 -112 c-6 -34 -13
-32 -10 4 1 16 5 28 9 26 3 -3 4 -16 1 -30z"/>
<path d="M3350 1630 c-8 -5 -12 -12 -9 -15 4 -3 12 1 19 10 14 17 11 19 -10 5z"/>
<path d="M3290 1619 c0 -4 -9 -9 -20 -12 -14 -3 -20 -14 -20 -31 0 -14 -4 -26
-10 -26 -5 0 -10 -16 -10 -35 0 -19 5 -35 11 -35 7 0 9 -12 5 -34 -5 -28 -3
-34 15 -39 17 -5 19 -9 10 -26 -17 -30 -14 -37 18 -39 23 -2 72 26 109 62 1 2
-11 3 -27 2 -22 -1 -27 -4 -19 -14 8 -9 7 -11 -6 -6 -9 3 -16 13 -16 21 0 8
-4 12 -9 8 -10 -5 -5 58 5 79 3 6 -4 0 -16 -14 l-21 -25 15 31 c14 29 14 33
-3 48 -17 15 -17 19 -3 51 9 19 19 32 24 29 4 -3 8 -1 8 5 0 5 -9 9 -20 8 -11
-1 -20 -4 -20 -8z"/>
<path d="M3316 1592 c-3 -5 1 -9 9 -9 8 0 12 4 9 9 -3 4 -7 8 -9 8 -2 0 -6 -4
-9 -8z"/>
<path d="M3361 1499 c5 -10 16 -19 24 -19 20 0 8 27 -16 33 -16 4 -17 2 -8
-14z"/>
<path d="M3344 1491 c4 -5 0 -12 -6 -14 -10 -4 -10 -6 0 -6 8 -1 10 -6 6 -13
-6 -10 -5 -10 8 -1 8 7 19 9 24 5 5 -4 0 3 -10 16 -19 22 -32 30 -22 13z"/>
<path d="M3246 1391 c-4 -7 -5 -15 -2 -18 9 -9 19 4 14 18 -4 11 -6 11 -12 0z"/>
<path d="M3104 1360 c16 -5 36 -6 43 -1 9 5 -2 8 -29 8 -39 1 -41 1 -14 -7z"/>
<path d="M2160 1880 c0 -5 5 -10 11 -10 5 0 7 5 4 10 -3 6 -8 10 -11 10 -2 0
-4 -4 -4 -10z"/>
</g>
</svg>
