<?xml version="1.0" standalone="no"?>
<!DOCTYPE svg PUBLIC "-//W3C//DTD SVG 20010904//EN"
 "http://www.w3.org/TR/2001/REC-SVG-20010904/DTD/svg10.dtd">
<svg version="1.0" xmlns="http://www.w3.org/2000/svg"
 width="450.000000pt" height="253.000000pt" viewBox="0 0 450.000000 253.000000"
 preserveAspectRatio="xMidYMid meet">
<metadata>
Created by potrace 1.16, written by Peter Selinger 2001-2019
</metadata>
<g transform="translate(0.000000,253.000000) scale(0.100000,-0.100000)"
fill="#000000" stroke="none">
<path d="M0 1265 l0 -1265 2250 0 2250 0 0 1265 0 1265 -2250 0 -2250 0 0
-1265z m2571 631 c41 -2 103 -14 139 -26 92 -32 191 -80 184 -91 -3 -5 1 -6 9
-3 19 7 108 -55 127 -88 13 -25 13 -31 0 -54 -8 -14 -31 -32 -50 -40 -22 -8
-28 -9 -16 -1 42 27 71 58 58 64 -6 2 -9 9 -6 14 3 6 -18 10 -53 9 -32 0 -69
2 -83 4 -14 2 -28 5 -32 5 -4 1 -14 8 -22 17 -9 8 -16 10 -16 4 0 -14 -25 0
-69 40 -40 36 -54 40 -22 6 28 -30 11 -38 -49 -25 -45 10 -84 4 -74 -12 3 -5
9 -7 14 -4 5 3 11 1 15 -4 3 -6 -3 -8 -15 -6 -11 2 -20 -2 -20 -8 0 -7 -4 -6
-10 3 -8 13 -10 13 -10 1 0 -11 -4 -10 -14 4 -8 11 -19 16 -30 12 -9 -4 -16
-1 -17 6 0 9 -2 9 -6 -1 -2 -6 -9 -10 -14 -6 -5 3 -9 0 -9 -7 0 -7 10 -9 25
-7 14 3 25 1 25 -3 0 -5 -6 -9 -14 -9 -8 0 -22 -3 -32 -7 -11 -4 -15 -3 -10 5
3 6 2 13 -4 17 -5 3 -10 -1 -10 -10 0 -15 -2 -15 -15 -1 -18 17 -20 30 -3 20
7 -5 8 -3 4 5 -5 7 0 21 10 32 15 17 16 22 4 29 -8 5 -17 7 -21 4 -13 -7 -16
20 -6 44 6 12 15 23 21 24 13 1 29 5 36 8 18 7 40 7 40 0 0 -13 49 -8 62 7 6
8 7 13 2 12 -5 -2 -31 1 -59 6 -27 5 -54 8 -58 6 -5 -1 -6 3 -2 9 3 6 10 8 14
6 4 -3 41 -7 82 -10z m-328 -13 c-7 -2 -21 -2 -30 0 -10 3 -4 5 12 5 17 0 24
-2 18 -5z m167 -20 c0 -20 -65 -82 -86 -83 -16 -1 -55 -39 -53 -52 3 -28 -2
-38 -20 -38 -11 0 -21 6 -24 13 -3 9 -10 7 -25 -6 -20 -18 -48 -15 -36 4 3 5
9 7 14 4 5 -3 11 -1 15 4 3 6 -5 8 -20 5 -13 -2 -42 3 -62 13 -21 9 -49 19
-63 23 l-24 5 24 23 25 23 -43 -7 c-43 -7 -58 6 -26 24 14 8 14 10 -1 22 -8 7
-18 10 -22 6 -3 -3 0 -6 8 -6 11 0 11 -2 -1 -10 -23 -15 -29 -12 -23 9 4 16
-2 22 -28 30 -27 7 -13 9 71 9 87 0 99 -2 68 -10 -44 -12 -42 -37 2 -30 18 3
41 -3 56 -13 15 -9 23 -11 19 -4 -6 8 -4 10 6 3 28 -17 113 0 105 22 -5 13 6
18 27 15 15 -2 6 18 -10 23 -10 2 15 4 54 3 68 -2 73 -4 73 -24z m30 23 c0 -3
-4 -8 -10 -11 -5 -3 -10 -1 -10 4 0 6 5 11 10 11 6 0 10 -2 10 -4z m-602 -34
c-12 -14 -19 -52 -9 -52 3 0 13 5 21 10 10 6 11 10 3 10 -7 0 -13 7 -13 16 0
9 6 14 13 12 11 -4 12 -14 8 -48 0 -5 -13 -10 -28 -10 -16 0 -39 -10 -53 -21
-14 -11 -18 -18 -10 -14 10 4 9 2 -2 -8 -10 -8 -15 -16 -13 -19 3 -3 -13 -12
-35 -21 -22 -8 -38 -11 -35 -6 4 5 2 9 -4 9 -6 0 -15 -10 -22 -21 -10 -20 -9
-21 16 -15 17 4 24 3 20 -4 -4 -6 5 -10 22 -11 25 -1 24 -2 -12 -13 -76 -24
-85 -28 -85 -38 0 -6 7 -8 15 -4 22 8 19 -20 -5 -44 -12 -12 -26 -18 -33 -13
-7 4 -7 0 2 -10 7 -9 9 -17 3 -17 -5 0 -12 -7 -16 -15 -10 -27 15 -16 56 25
40 38 68 51 68 30 0 -5 -5 -10 -11 -10 -5 0 -7 -5 -4 -10 4 -6 11 -8 16 -5 5
4 9 -1 9 -10 0 -11 -8 -16 -22 -15 -37 3 -50 1 -43 -9 3 -5 1 -12 -5 -16 -5
-3 -10 -11 -10 -17 0 -6 11 -3 25 6 47 31 58 22 50 -36 -9 -60 -23 -106 -24
-75 -1 10 -5 16 -10 13 -11 -7 -9 13 4 33 5 9 -5 6 -27 -7 -56 -35 -85 -24
-71 27 3 12 1 21 -5 21 -19 0 -22 47 -6 99 17 60 60 137 112 201 53 66 61 72
74 64 7 -4 10 -4 6 1 -12 13 38 52 68 52 11 0 11 -3 2 -15z m346 -3 c-3 -5
-14 -9 -26 -9 -17 0 -18 3 -8 14 12 15 44 10 34 -5z m66 3 c0 -10 -36 -9 -46
1 -4 4 5 7 19 7 15 0 27 -4 27 -8z m-153 -148 c-3 -3 -12 -4 -19 -1 -8 3 -5 6
6 6 11 1 17 -2 13 -5z m-302 -44 c-3 -5 -12 -7 -20 -3 -21 7 -19 13 6 13 11 0
18 -4 14 -10z m-98 -342 c-3 -8 -6 -5 -6 6 -1 11 2 17 5 13 3 -3 4 -12 1 -19z
m0 -40 c-3 -8 -6 -5 -6 6 -1 11 2 17 5 13 3 -3 4 -12 1 -19z m28 -458 c4 -63
5 -113 2 -110 -7 7 -16 115 -21 265 -4 112 -3 118 4 45 4 -47 11 -137 15 -200z"/>
<path d="M2666 1852 c-3 -5 1 -9 9 -9 8 0 12 4 9 9 -3 4 -7 8 -9 8 -2 0 -6 -4
-9 -8z"/>
<path d="M2936 1717 c3 -10 9 -15 12 -12 3 3 0 11 -7 18 -10 9 -11 8 -5 -6z"/>
<path d="M2985 1700 c3 -5 11 -10 16 -10 6 0 7 5 4 10 -3 6 -11 10 -16 10 -6
0 -7 -4 -4 -10z"/>
<path d="M2236 1718 c3 -5 10 -6 15 -3 13 9 11 12 -6 12 -8 0 -12 -4 -9 -9z"/>
</g>
</svg>
