<?xml version="1.0" standalone="no"?>
<!DOCTYPE svg PUBLIC "-//W3C//DTD SVG 20010904//EN"
 "http://www.w3.org/TR/2001/REC-SVG-20010904/DTD/svg10.dtd">
<svg version="1.0" xmlns="http://www.w3.org/2000/svg"
 width="450.000000pt" height="253.000000pt" viewBox="0 0 450.000000 253.000000"
 preserveAspectRatio="xMidYMid meet">
<metadata>
Created by potrace 1.16, written by Peter Selinger 2001-2019
</metadata>
<g transform="translate(0.000000,253.000000) scale(0.100000,-0.100000)"
fill="#000000" stroke="none">
<path d="M0 1265 l0 -1265 2250 0 2250 0 0 1265 0 1265 -2250 0 -2250 0 0
-1265z m3378 746 c90 -24 117 -41 145 -95 47 -91 87 -134 141 -151 51 -17 92
-47 126 -96 19 -25 19 -27 -2 -68 -22 -44 -74 -91 -101 -91 -8 0 -22 -6 -29
-14 -21 -21 -90 -54 -128 -61 -27 -5 -39 -15 -51 -40 -14 -30 -14 -35 2 -56
69 -97 96 -261 51 -316 -13 -16 -25 -36 -29 -45 -3 -10 -14 -18 -24 -18 -10 0
-21 -4 -24 -10 -8 -13 -72 -13 -80 0 -3 5 -13 6 -22 3 -11 -4 -14 -3 -9 5 5 8
2 10 -8 6 -8 -3 -30 -1 -48 5 -18 6 -58 13 -88 16 -171 19 -259 59 -341 157
-53 64 -63 87 -26 64 23 -15 54 -22 127 -31 25 -2 68 -9 97 -13 29 -5 58 -5
65 -1 20 13 7 17 -62 21 -62 3 -65 4 -64 28 0 16 5 24 14 22 8 -2 21 5 28 15
12 14 13 14 9 2 -4 -14 3 -16 44 -16 27 0 47 2 44 5 -2 3 0 11 6 19 6 7 8 13
4 13 -4 0 -2 7 5 15 7 8 16 13 20 10 19 -12 19 15 1 32 -30 27 -81 55 -81 44
0 -5 9 -13 20 -16 35 -11 23 -28 -15 -21 -32 6 -35 5 -49 -29 -9 -20 -22 -35
-32 -35 -9 0 -23 -8 -30 -17 -12 -16 -12 -15 -8 7 4 19 3 22 -5 10 -5 -8 -22
-15 -38 -16 -15 -1 -32 -3 -36 -3 -5 -1 -5 -6 -2 -12 5 -7 -13 -10 -56 -8
-108 4 -135 19 -193 109 -20 30 -49 101 -51 122 0 3 -3 10 -7 14 -5 4 -8 18
-8 31 0 12 -5 23 -11 23 -5 0 -8 4 -5 8 3 4 7 35 10 68 10 106 18 143 32 155
8 6 14 17 14 25 0 7 7 20 16 29 9 9 14 19 10 22 -3 3 -49 -2 -101 -12 -53 -10
-94 -19 -92 -22 2 -2 -10 -19 -28 -38 -23 -26 -40 -35 -62 -35 -17 0 -33 6
-36 13 -2 6 -6 -7 -8 -30 -3 -24 -1 -43 3 -43 5 0 3 -9 -4 -20 -16 -25 -23
-25 -50 2 -13 13 -23 17 -25 11 -4 -10 -32 0 -72 25 -3 1 4 9 15 16 13 10 23
11 32 4 7 -6 16 -8 19 -4 4 4 3 10 -2 14 -15 11 -14 42 1 42 8 0 14 4 14 9 0
11 -30 25 -47 22 -15 -2 -29 42 -14 47 6 2 9 7 6 12 -3 5 9 19 27 32 31 22 43
23 193 25 88 1 182 -2 208 -6 33 -6 45 -5 37 3 -18 18 -11 35 28 60 46 31 138
56 221 61 35 2 66 7 69 10 14 13 329 -5 400 -24z m-1149 -386 c45 0 51 -20 9
-29 -31 -7 -32 -8 -14 -21 11 -8 28 -15 38 -15 10 0 18 -4 18 -10 0 -11 -65
-24 -85 -16 -8 3 -15 1 -15 -4 0 -6 7 -10 16 -10 13 0 12 -5 -5 -26 -27 -34
-27 -57 -1 -25 l20 23 -7 -48 c-3 -27 -10 -50 -15 -52 -4 -2 -8 -10 -8 -18 0
-8 -4 -14 -10 -14 -5 0 -10 -7 -10 -16 0 -8 -4 -13 -9 -10 -5 4 -11 0 -14 -6
-7 -19 -1 72 7 107 14 64 17 82 23 142 4 42 9 60 17 55 6 -4 26 -7 45 -7z m24
-200 c-3 -9 -8 -14 -10 -11 -3 3 -2 9 2 15 9 16 15 13 8 -4z m-116 -227 c-3
-8 -6 -5 -6 6 -1 11 2 17 5 13 3 -3 4 -12 1 -19z m-10 -130 c-3 -8 -6 -5 -6 6
-1 11 2 17 5 13 3 -3 4 -12 1 -19z"/>
<path d="M3408 1903 c6 -2 18 -2 25 0 6 3 1 5 -13 5 -14 0 -19 -2 -12 -5z"/>
<path d="M3130 1891 c0 -5 14 -19 31 -31 18 -14 28 -28 25 -37 -3 -8 -1 -11 4
-8 5 3 18 1 27 -4 17 -10 17 -10 -1 -11 -12 0 -16 -5 -12 -15 3 -8 1 -15 -4
-15 -6 0 -10 -5 -10 -11 0 -8 4 -9 13 0 8 6 17 8 21 4 4 -4 4 1 0 11 -5 13 -4
17 3 13 6 -4 13 -2 15 5 4 11 41 -1 89 -28 4 -2 13 4 20 14 7 9 10 14 6 11 -5
-4 -20 4 -34 17 -14 13 -29 21 -34 19 -4 -3 -11 0 -15 6 -5 8 -3 9 7 4 8 -5 5
1 -5 13 -11 12 -30 22 -43 22 -13 0 -26 7 -29 15 -4 8 -10 15 -16 15 -5 0 -7
-4 -4 -9 7 -10 -20 -9 -30 2 -10 10 -24 9 -24 -2z m125 -41 c3 -6 -1 -7 -9 -4
-18 7 -21 14 -7 14 6 0 13 -4 16 -10z"/>
<path d="M3167 1786 c-3 -8 -2 -18 3 -21 13 -8 24 15 12 27 -6 6 -11 4 -15 -6z"/>
<path d="M2272 1740 c2 -24 9 -45 16 -48 18 -6 15 63 -4 79 -14 11 -15 8 -12
-31z"/>
<path d="M3380 1770 c0 -5 5 -10 10 -10 6 0 10 5 10 10 0 6 -4 10 -10 10 -5 0
-10 -4 -10 -10z"/>
<path d="M3207 1739 c-11 -6 -24 -12 -30 -13 -20 -3 -52 -24 -46 -30 3 -3 16
-8 30 -10 13 -2 24 -5 24 -6 0 -1 14 -4 30 -6 17 -2 26 -1 20 3 -14 11 -19 47
-6 38 6 -3 11 -1 11 4 0 6 -5 11 -11 11 -5 0 -7 5 -4 10 8 12 5 12 -18 -1z"/>
<path d="M3390 1740 c0 -6 -4 -9 -9 -6 -13 8 -42 -4 -35 -15 3 -5 -2 -6 -11
-3 -17 7 -55 -22 -55 -41 0 -22 29 -25 35 -4 4 10 9 19 13 20 4 0 15 2 26 4
15 3 13 -2 -10 -26 -15 -16 -24 -29 -20 -29 4 0 0 -7 -8 -16 -9 -8 -16 -26
-16 -38 0 -18 5 -23 23 -22 31 1 49 26 34 45 -10 12 -9 13 2 6 11 -6 13 -4 7
11 -4 10 -4 15 0 11 4 -4 12 -2 19 3 8 7 12 5 12 -5 0 -8 -5 -11 -10 -8 -6 4
-8 -1 -4 -11 5 -12 3 -15 -6 -10 -8 5 -8 3 1 -7 11 -12 15 -11 26 3 7 10 17
14 21 10 5 -4 4 0 -1 8 -16 29 -13 40 14 40 20 0 23 3 13 9 -8 5 -20 7 -27 4
-6 -2 -15 0 -19 6 -3 6 0 9 8 5 28 -10 30 18 3 42 -14 14 -26 20 -26 14z"/>
<path d="M3055 1640 c-3 -6 -15 -10 -26 -10 -10 0 -19 -4 -19 -10 0 -5 -10
-10 -21 -10 -20 0 -20 -1 -6 -22 16 -25 45 -26 63 -3 5 7 25 15 44 17 19 2 35
10 38 18 3 8 1 12 -3 8 -4 -4 -20 -1 -36 7 -18 10 -30 11 -34 5z"/>
<path d="M3154 1641 c4 -5 0 -11 -6 -14 -10 -4 -10 -7 -1 -16 7 -6 11 -8 8 -4
-3 3 2 15 12 25 15 17 15 18 -1 18 -9 0 -15 -4 -12 -9z"/>
<path d="M3099 1577 c-15 -9 -13 -13 15 -27 31 -16 70 -15 60 1 -3 5 -16 9
-30 9 -14 0 -23 4 -19 9 9 15 -8 20 -26 8z"/>
<path d="M3255 1581 c-3 -5 -2 -12 3 -15 5 -3 9 1 9 9 0 17 -3 19 -12 6z"/>
<path d="M3286 1532 c-2 -4 4 -8 14 -8 10 0 16 4 14 8 -3 4 -9 8 -14 8 -5 0
-11 -4 -14 -8z"/>
<path d="M3063 1498 c-20 -32 -33 -61 -28 -66 2 -3 7 3 11 12 3 9 12 16 20 16
8 0 23 8 34 17 14 13 16 19 7 25 -18 11 -35 10 -44 -4z"/>
<path d="M3102 1456 l-22 -11 21 -13 c12 -8 18 -9 14 -2 -4 7 2 9 19 6 18 -3
23 -1 20 9 -8 20 -27 24 -52 11z"/>
<path d="M3250 1364 c0 -5 7 -19 15 -30 8 -10 15 -14 15 -8 0 5 -7 19 -15 30
-8 10 -15 14 -15 8z"/>
<path d="M2942 1299 c2 -6 8 -10 13 -10 5 0 11 4 13 10 2 6 -4 11 -13 11 -9 0
-15 -5 -13 -11z"/>
<path d="M3250 1285 c0 -11 4 -26 9 -33 7 -11 9 -11 14 1 3 8 -1 23 -8 34 -14
17 -14 17 -15 -2z"/>
</g>
</svg>
