<?xml version="1.0" standalone="no"?>
<!DOCTYPE svg PUBLIC "-//W3C//DTD SVG 20010904//EN"
 "http://www.w3.org/TR/2001/REC-SVG-20010904/DTD/svg10.dtd">
<svg version="1.0" xmlns="http://www.w3.org/2000/svg"
 width="450.000000pt" height="253.000000pt" viewBox="0 0 450.000000 253.000000"
 preserveAspectRatio="xMidYMid meet">
<metadata>
Created by potrace 1.16, written by Peter Selinger 2001-2019
</metadata>
<g transform="translate(0.000000,253.000000) scale(0.100000,-0.100000)"
fill="#000000" stroke="none">
<path d="M0 1265 l0 -1265 2250 0 2250 0 0 1265 0 1265 -2250 0 -2250 0 0
-1265z m3332 965 c45 -12 96 -58 123 -110 16 -31 14 -34 -27 -44 -16 -3 -28
-11 -28 -16 0 -5 -11 -21 -26 -35 -23 -23 -23 -26 -7 -31 10 -3 35 -14 57 -25
27 -15 41 -18 49 -10 14 14 70 15 62 1 -4 -6 -10 -8 -15 -5 -5 3 -11 1 -14 -4
-4 -5 9 -9 28 -8 26 2 32 5 24 15 -8 9 -5 12 10 12 35 0 73 -19 119 -59 28
-25 61 -43 92 -51 32 -7 58 -22 78 -43 54 -59 55 -61 38 -93 -8 -16 -15 -34
-15 -40 0 -15 -60 -74 -75 -74 -7 0 -34 -17 -61 -38 -67 -53 -175 -102 -224
-102 -28 0 -40 -4 -40 -14 0 -8 5 -18 10 -21 11 -7 3 -53 -13 -72 -5 -7 -6
-13 -1 -13 5 0 3 -4 -5 -9 -11 -7 -12 -13 -3 -23 20 -24 42 -130 43 -204 1
-80 -15 -121 -65 -169 -58 -56 -96 -65 -166 -37 -14 5 -29 10 -35 10 -5 1 -28
5 -50 11 -22 5 -69 15 -105 22 -66 12 -119 34 -133 56 -4 6 -21 14 -37 18 -17
4 -30 10 -30 14 0 4 -15 12 -32 19 -18 7 -66 41 -106 76 -41 36 -80 62 -87 60
-8 -3 -29 2 -47 11 -27 13 -43 36 -92 137 -52 106 -60 129 -59 177 1 100 11
249 18 260 14 23 -17 10 -43 -18 -36 -39 -81 -46 -83 -13 0 13 -3 12 -12 -7
-9 -19 -8 -26 6 -35 9 -7 21 -24 26 -38 8 -22 7 -27 -10 -31 -10 -3 -19 -1
-19 4 0 6 -6 9 -12 8 -25 -3 -35 1 -35 16 0 9 5 14 11 12 6 -3 10 -10 8 -16
-1 -7 3 -9 9 -6 7 5 7 11 1 17 -6 6 -8 17 -5 24 3 8 0 14 -6 14 -6 0 -11 5
-11 11 0 5 5 7 12 3 7 -5 8 -3 3 6 -6 10 -11 9 -22 -5 -9 -13 -10 -21 -3 -25
7 -4 5 -11 -5 -20 -24 -20 -20 22 7 55 16 21 19 31 11 44 -6 9 -17 15 -23 13
-15 -3 -4 71 11 76 5 2 17 11 26 20 13 13 41 18 132 20 124 4 148 12 129 41
-18 30 25 107 73 132 22 11 49 29 59 39 11 11 26 20 33 21 39 3 65 7 92 13 17
3 41 9 55 11 14 3 57 14 95 26 134 40 272 56 337 39z m-974 -627 c2 -8 -5 -13
-17 -13 -12 0 -21 -4 -21 -9 0 -11 25 -21 51 -21 10 0 19 -7 19 -15 0 -11 -12
-15 -45 -15 l-45 0 0 44 c0 40 2 43 27 42 14 -1 28 -7 31 -13z m-48 -103 c-12
-23 -30 -27 -30 -7 0 17 10 27 27 27 11 0 11 -5 3 -20z m15 -38 c-1 -15 -4
-33 -8 -39 -4 -6 -2 -15 4 -18 12 -8 12 -8 27 20 9 16 11 16 12 4 0 -22 -47
-72 -54 -56 -3 8 -12 4 -25 -12 l-21 -23 0 44 c0 24 7 53 15 64 8 10 15 15 15
9 0 -5 7 1 16 13 19 28 21 28 19 -6z m26 -772 c1 -5 2 -17 2 -25 0 -131 -5
-215 -11 -215 -4 0 -8 56 -7 125 0 69 3 125 8 125 4 0 8 -4 8 -10z m-8 -356
c-1 -58 -4 -108 -7 -111 -3 -4 -6 44 -6 105 0 62 3 112 8 112 4 0 6 -48 5
-106z m-6 -186 c-3 -8 -6 -5 -6 6 -1 11 2 17 5 13 3 -3 4 -12 1 -19z"/>
<path d="M3030 1890 c-21 -13 -1 -31 28 -24 15 4 30 10 35 15 4 5 4 7 1 5 -3
-3 -16 -1 -28 4 -13 4 -28 5 -36 0z"/>
<path d="M3183 1861 c10 -12 8 -13 -12 -8 l-23 6 22 -24 c23 -25 50 -25 30 0
-7 9 -6 16 3 24 8 6 16 8 19 5 3 -3 8 -1 11 3 3 5 -10 9 -28 9 -29 0 -32 -3
-22 -15z"/>
<path d="M3650 1870 c0 -6 -6 -8 -12 -4 -7 4 -9 3 -5 -1 4 -5 23 -10 41 -10
27 -2 33 1 28 14 -4 10 -7 11 -10 3 -2 -8 -9 -9 -23 -2 -13 8 -19 7 -19 0z"/>
<path d="M3264 1828 c-19 -22 -19 -22 0 -8 12 9 17 10 12 3 -10 -17 9 -49 34
-56 11 -3 18 -1 14 4 -3 5 0 9 6 9 7 0 6 5 -2 14 -10 11 -17 11 -28 3 -10 -8
-9 -4 2 9 14 16 15 23 6 32 -17 17 -22 15 -44 -10z"/>
<path d="M3030 1811 c0 -5 -3 -16 -6 -25 -4 -10 -1 -16 7 -16 8 0 14 11 14 25
0 14 -3 25 -7 25 -5 0 -8 -4 -8 -9z"/>
<path d="M3146 1794 c-11 -10 -16 -11 -16 -3 0 8 -6 7 -18 -4 -10 -10 -26 -17
-35 -17 -15 0 -15 -3 -5 -22 7 -13 21 -29 31 -36 21 -16 23 -65 3 -81 -12 -10
-20 -10 -38 0 -13 7 -26 12 -30 11 -5 -1 -8 5 -8 14 0 8 -5 12 -10 9 -6 -3
-13 1 -17 11 -5 14 -8 14 -24 -7 -10 -13 -19 -31 -19 -40 0 -12 -9 -16 -37
-15 -33 1 -38 -2 -35 -19 1 -11 3 -28 4 -37 2 -13 5 -14 15 -6 10 8 13 5 13
-11 0 -11 -18 -39 -39 -60 -39 -39 -39 -39 -44 -14 -3 15 1 27 9 30 19 7 18
29 -1 37 -17 6 -73 -3 -79 -13 -2 -3 -6 -18 -10 -33 -6 -24 -3 -28 16 -28 15
0 27 -9 35 -26 11 -24 11 -26 -10 -19 -73 22 -75 21 -37 -22 19 -23 40 -40 45
-39 6 2 21 -6 35 -16 15 -12 26 -15 28 -9 2 6 10 11 18 11 8 0 14 6 13 13 -4
29 3 37 31 37 21 0 28 4 24 14 -3 8 -12 12 -20 9 -8 -3 -21 -3 -29 0 -11 5
-12 12 -4 36 14 40 48 55 84 37 11 -6 23 -9 28 -8 13 4 7 -13 -18 -51 l-26
-37 24 0 c14 0 30 7 37 15 17 20 32 19 52 -5 15 -16 22 -18 48 -9 33 12 42 22
45 53 4 36 5 37 15 31 6 -3 10 5 10 18 0 20 -4 24 -19 20 -10 -3 -22 1 -26 8
-5 8 -4 10 3 5 8 -5 12 1 12 15 0 12 -3 19 -6 16 -11 -11 -63 25 -57 40 7 17
33 17 33 -1 0 -8 8 -17 18 -21 14 -5 15 -4 5 6 -20 20 -16 38 7 34 13 -3 18 0
14 7 -11 18 26 39 47 27 22 -11 26 -31 5 -23 -8 3 -16 -3 -19 -16 -3 -12 -10
-19 -16 -15 -17 10 -13 -1 6 -16 9 -8 14 -9 10 -3 -3 6 5 16 18 22 30 14 32
31 7 58 -18 20 -18 54 2 66 7 5 5 8 -5 8 -12 0 -15 7 -11 25 2 14 9 22 15 18
6 -3 7 -1 3 5 -4 7 -14 12 -22 12 -8 0 -14 4 -14 8 0 15 -49 12 -64 -4z m24
-54 c12 -7 11 -10 -5 -16 -12 -5 -20 -3 -23 5 -3 8 -8 9 -16 2 -9 -8 -13 -6
-13 4 0 17 34 20 57 5z m-120 -174 c-6 -8 -18 -12 -27 -9 -12 5 -12 7 -1 14 7
5 19 9 27 9 11 0 11 -3 1 -14z m46 -42 c13 -9 21 -20 18 -25 -11 -18 -47 -8
-74 21 l-28 30 30 -5 c16 -3 40 -13 54 -21z m49 -14 c3 -5 1 -10 -4 -10 -6 0
-11 5 -11 10 0 6 2 10 4 10 3 0 8 -4 11 -10z m-345 -10 c0 -5 -4 -10 -10 -10
-5 0 -10 5 -10 10 0 6 5 10 10 10 6 0 10 -4 10 -10z m340 -31 c0 -5 -4 -7 -10
-4 -5 3 -10 1 -10 -6 0 -7 -3 -10 -6 -6 -8 7 4 27 17 27 5 0 9 -5 9 -11z m23
-14 c-7 -21 -13 -19 -13 6 0 11 4 18 10 14 5 -3 7 -12 3 -20z"/>
<path d="M2863 1783 c-18 -2 -33 -7 -33 -9 0 -13 29 -32 60 -39 30 -7 32 -5
27 14 -3 12 -1 19 4 15 5 -3 9 2 9 10 0 16 -5 17 -67 9z"/>
<path d="M2756 1741 c-3 -5 10 -11 29 -13 36 -4 47 5 19 16 -22 9 -42 7 -48
-3z"/>
<path d="M3295 1696 c-22 -23 -26 -36 -11 -30 8 3 17 13 20 21 8 20 4 24 -9 9z"/>
<path d="M3345 1680 c-3 -5 1 -10 10 -10 9 0 13 5 10 10 -3 6 -8 10 -10 10 -2
0 -7 -4 -10 -10z"/>
<path d="M2647 1653 c-13 -12 -6 -38 18 -68 25 -30 25 -30 25 -6 0 14 7 33 16
42 16 17 15 19 -10 29 -32 12 -40 12 -49 3z"/>
<path d="M2829 1618 c-1 -7 -1 -16 0 -21 1 -4 -10 -12 -23 -17 -33 -12 -46
-35 -15 -25 13 4 28 14 32 22 7 12 12 12 25 1 16 -12 16 -11 1 7 -9 11 -14 26
-12 33 3 6 2 12 -1 12 -3 0 -7 -6 -7 -12z"/>
<path d="M2722 1598 c-14 -14 -16 -38 -3 -38 6 0 13 5 16 10 4 6 11 8 16 5 14
-9 11 11 -4 24 -10 8 -17 7 -25 -1z"/>
<path d="M3040 1339 c0 -12 8 -23 20 -26 11 -3 20 -9 20 -14 0 -12 -27 -11
-51 1 -15 9 -21 7 -26 -7 -4 -10 -15 -27 -26 -38 -18 -20 -18 -20 3 -23 12 -2
34 1 48 6 15 6 55 10 90 9 34 -1 62 1 62 5 0 11 -113 108 -127 108 -7 0 -13
-9 -13 -21z"/>
<path d="M2803 1343 c-7 -2 -13 -17 -13 -31 0 -20 7 -30 29 -40 16 -7 38 -21
49 -31 15 -12 31 -16 54 -12 30 5 30 6 8 9 -27 4 -122 91 -114 104 6 9 5 9
-13 1z"/>
<path d="M3286 1342 c-3 -6 -1 -14 5 -17 14 -9 20 -2 10 14 -6 8 -11 9 -15 3z"/>
<path d="M2760 1262 c0 -5 9 -17 21 -28 13 -12 18 -26 15 -40 -5 -18 3 -25 57
-48 34 -14 69 -26 78 -26 18 0 45 27 37 36 -5 4 -90 22 -125 26 -7 1 -11 3 -8
6 10 10 -39 82 -57 82 -10 0 -18 -4 -18 -8z"/>
<path d="M3220 1230 c0 -11 5 -20 10 -20 6 0 10 9 10 20 0 11 -4 20 -10 20 -5
0 -10 -9 -10 -20z"/>
<path d="M2734 1205 c11 -8 22 -12 25 -9 6 6 -19 24 -34 24 -5 -1 -1 -7 9 -15z"/>
</g>
</svg>
