<?xml version="1.0" standalone="no"?>
<!DOCTYPE svg PUBLIC "-//W3C//DTD SVG 20010904//EN"
 "http://www.w3.org/TR/2001/REC-SVG-20010904/DTD/svg10.dtd">
<svg version="1.0" xmlns="http://www.w3.org/2000/svg"
 width="450.000000pt" height="253.000000pt" viewBox="0 0 450.000000 253.000000"
 preserveAspectRatio="xMidYMid meet">
<metadata>
Created by potrace 1.16, written by Peter Selinger 2001-2019
</metadata>
<g transform="translate(0.000000,253.000000) scale(0.100000,-0.100000)"
fill="#000000" stroke="none">
<path d="M0 1265 l0 -1265 2250 0 2250 0 0 1265 0 1265 -2250 0 -2250 0 0
-1265z m3355 756 c95 -27 125 -43 145 -75 36 -60 143 -162 182 -175 75 -25
168 -117 138 -136 -6 -4 -16 -21 -24 -39 -15 -35 -54 -68 -96 -81 -14 -4 -34
-15 -45 -25 -11 -10 -53 -30 -93 -43 -40 -13 -73 -27 -72 -31 0 -3 -7 -20 -15
-36 -14 -27 -14 -33 -1 -52 8 -13 27 -54 41 -92 40 -106 35 -195 -14 -251 -14
-17 -29 -30 -32 -30 -4 0 -17 -9 -28 -19 -21 -19 -23 -19 -70 -2 -27 9 -63 19
-80 21 -17 2 -35 6 -40 9 -10 7 -51 13 -133 21 -102 9 -188 59 -263 152 -52
64 -57 79 -16 59 16 -9 47 -18 70 -22 32 -5 42 -3 47 10 3 9 10 13 15 10 5 -3
9 -2 8 3 -3 13 16 54 25 54 4 0 13 -7 20 -17 15 -20 31 -3 22 24 -5 13 -3 13
9 -2 8 -11 15 -15 15 -9 0 5 12 9 28 8 37 -2 52 4 52 22 0 11 7 13 25 9 19 -5
23 -3 19 9 -6 14 -95 85 -108 85 -13 0 9 -32 28 -41 17 -7 13 -8 -19 -6 -32 1
-40 -2 -43 -17 -6 -27 -34 -54 -55 -51 -10 2 -14 -1 -10 -8 4 -6 0 -8 -10 -4
-8 3 -18 0 -21 -8 -5 -14 -46 -17 -46 -3 0 4 -7 8 -15 8 -8 0 -15 -4 -15 -9 0
-15 -53 -20 -105 -9 -64 13 -111 44 -131 88 -38 82 -45 98 -67 165 l-24 70 17
95 c10 60 26 113 44 143 30 54 31 53 -71 32 -50 -11 -80 -23 -98 -41 -14 -13
-25 -28 -25 -33 0 -12 -48 -31 -64 -25 -8 3 -19 -3 -25 -15 -14 -25 -14 -44
-1 -36 6 3 10 2 10 -4 0 -5 -5 -13 -10 -16 -6 -4 -8 -11 -5 -16 10 -15 -22
-10 -38 6 -12 11 -16 12 -20 2 -3 -9 -9 -7 -24 6 -11 9 -27 17 -35 17 -14 0
-17 16 -8 40 1 3 2 7 2 10 0 3 8 7 20 7 13 1 18 -3 14 -13 -3 -8 -1 -14 5 -14
6 0 7 -5 3 -12 -4 -7 -3 -8 4 -4 8 4 8 15 2 31 -5 13 -6 25 -2 28 4 2 1 2 -7
0 -11 -3 -10 2 4 17 16 18 16 20 2 20 -10 0 -17 5 -17 10 0 6 -7 10 -15 10
-30 0 -17 48 22 77 35 27 40 28 172 30 75 0 162 -2 193 -6 48 -6 55 -5 45 7
-9 11 -4 21 24 47 38 34 151 69 216 67 18 -1 43 3 55 8 32 12 364 5 413 -9z
m-1124 -398 c13 3 31 2 39 -1 22 -10 24 -34 3 -32 -10 1 -24 2 -32 1 -27 -2
10 -31 40 -31 16 0 29 -5 29 -11 0 -6 -7 -9 -15 -6 -8 4 -17 2 -20 -3 -4 -6
-21 -10 -38 -10 -20 0 -27 -3 -19 -8 9 -7 8 -14 -8 -32 -25 -29 -26 -39 -2
-17 26 24 33 21 22 -8 -5 -14 -9 -29 -7 -33 1 -4 -9 -25 -22 -47 -14 -22 -24
-43 -23 -47 1 -5 -2 -8 -7 -8 -19 0 -21 39 -7 106 19 90 30 164 27 189 -1 15
0 17 7 6 6 -8 19 -12 33 -8z m184 -13 c3 -5 1 -10 -4 -10 -6 0 -11 5 -11 10 0
6 2 10 4 10 3 0 8 -4 11 -10z m-161 -221 c-3 -5 -10 -7 -15 -3 -5 3 -7 10 -3
15 3 5 10 7 15 3 5 -3 7 -10 3 -15z m-90 -129 c1 -17 -1 -33 -6 -36 -4 -3 -7
13 -6 35 2 47 9 47 12 1z m874 -25 c-3 -3 -9 2 -12 12 -6 14 -5 15 5 6 7 -7
10 -15 7 -18z m-881 -47 c-3 -8 -6 -5 -6 6 -1 11 2 17 5 13 3 -3 4 -12 1 -19z
m788 3 c-9 -8 -36 -10 -30 -2 2 4 11 8 20 8 8 0 13 -3 10 -6z m-689 -651 c-2
-116 -6 -213 -10 -217 -4 -4 -6 93 -6 215 1 122 5 220 10 217 5 -3 7 -100 6
-215z m-9 -252 c-3 -8 -6 -5 -6 6 -1 11 2 17 5 13 3 -3 4 -12 1 -19z"/>
<path d="M3415 1910 c3 -5 8 -10 11 -10 2 0 4 5 4 10 0 6 -5 10 -11 10 -5 0
-7 -4 -4 -10z"/>
<path d="M3110 1892 c0 -4 9 -13 21 -20 16 -10 24 -10 35 -1 7 6 11 16 8 21
-4 6 -10 5 -15 -3 -6 -10 -9 -11 -9 -1 0 6 -9 12 -20 12 -11 0 -20 -3 -20 -8z"/>
<path d="M3181 1877 c-8 -8 -2 -19 21 -39 18 -15 39 -28 46 -28 8 0 27 -9 43
-21 28 -19 69 -19 69 1 0 8 -48 25 -62 22 -5 -1 -8 2 -8 7 0 5 -13 7 -30 6
-16 -1 -29 0 -28 4 0 3 0 13 -1 21 -1 13 -2 13 -11 0 -5 -8 -10 -10 -10 -4 0
5 5 15 11 21 7 7 5 12 -9 16 -11 2 -25 0 -31 -6z"/>
<path d="M3240 1851 c0 -6 4 -13 10 -16 6 -3 7 1 4 9 -7 18 -14 21 -14 7z"/>
<path d="M2283 1744 c-1 -33 2 -44 12 -44 19 0 20 63 3 78 -10 8 -13 0 -15
-34z"/>
<path d="M3135 1770 c-8 -13 9 -20 24 -11 10 6 9 10 -3 14 -8 3 -18 2 -21 -3z"/>
<path d="M3372 1743 c-6 -3 -9 -10 -6 -15 4 -7 2 -8 -4 -4 -26 16 -92 -40 -76
-65 9 -15 27 -10 20 6 -3 8 -2 14 2 14 19 -3 33 2 28 10 -4 5 2 8 11 6 10 -2
20 -4 22 -4 2 -1 -8 -12 -22 -25 -34 -31 -56 -102 -37 -119 10 -9 11 -9 6 1
-5 8 1 12 18 12 26 0 51 31 43 53 -2 7 2 20 11 29 14 17 16 17 29 0 10 -12 13
-13 11 -2 -4 21 -22 39 -32 32 -5 -3 -6 0 -2 7 5 7 14 10 21 7 17 -6 13 20 -5
37 -10 9 -11 9 -6 0 4 -7 3 -13 -3 -13 -5 0 -11 8 -13 18 -2 11 -9 17 -16 15z"/>
<path d="M3126 1722 c-3 -2 -2 -10 1 -18 6 -16 39 -19 48 -4 9 15 28 12 22 -4
-3 -8 5 -18 19 -25 33 -15 38 -14 22 3 -7 8 -17 12 -22 9 -4 -3 0 6 9 21 l18
27 -57 -2 c-30 -1 -58 -4 -60 -7z"/>
<path d="M3007 1643 c-4 -3 -7 -14 -7 -23 0 -13 -7 -16 -30 -12 -31 4 -39 -8
-17 -26 16 -13 79 -23 71 -11 -3 5 2 9 10 9 8 0 18 4 21 10 4 6 -1 7 -12 4
-15 -5 -16 -4 -3 5 8 6 25 11 38 11 12 0 22 4 22 9 0 12 -37 24 -50 16 -5 -3
-10 -1 -10 4 0 12 -23 15 -33 4z"/>
<path d="M3256 1574 c-4 -10 -1 -14 6 -12 15 5 23 28 10 28 -5 0 -13 -7 -16
-16z"/>
<path d="M3095 1571 c-19 -8 -19 -8 3 -15 13 -4 26 -5 29 -2 3 3 12 -2 20 -12
12 -16 13 -15 6 3 -11 33 -25 39 -58 26z"/>
<path d="M3000 1539 c-12 -9 -12 -10 4 -5 13 5 17 2 13 -8 -4 -10 -1 -13 9 -9
11 4 12 9 3 19 -14 17 -10 16 -29 3z"/>
<path d="M3057 1488 c-8 -28 -1 -35 21 -22 22 14 22 38 1 42 -10 2 -19 -6 -22
-20z"/>
<path d="M3100 1450 c-11 -7 -12 -12 -4 -20 15 -15 64 -2 64 16 0 16 -37 19
-60 4z"/>
<path d="M3021 1436 l-24 -13 25 0 c14 0 25 5 25 13 0 8 -1 14 -1 14 -1 -1
-12 -7 -25 -14z"/>
<path d="M2916 1314 c-3 -9 -4 -19 -1 -22 3 -3 5 1 6 9 0 8 4 6 9 -6 6 -13 9
-15 9 -5 0 8 -3 21 -8 28 -6 11 -10 10 -15 -4z"/>
<path d="M3252 1270 c0 -14 2 -19 5 -12 2 6 2 18 0 25 -3 6 -5 1 -5 -13z"/>
<path d="M3068 1228 c-9 -5 -6 -7 9 -5 12 2 25 6 28 8 8 9 -23 6 -37 -3z"/>
<path d="M3045 1160 l-30 -6 35 -6 c19 -3 39 -1 45 5 7 7 6 8 -2 3 -6 -3 -13
-3 -15 2 -1 4 -16 5 -33 2z"/>
</g>
</svg>
