<?xml version="1.0" standalone="no"?>
<!DOCTYPE svg PUBLIC "-//W3C//DTD SVG 20010904//EN"
 "http://www.w3.org/TR/2001/REC-SVG-20010904/DTD/svg10.dtd">
<svg version="1.0" xmlns="http://www.w3.org/2000/svg"
 width="450.000000pt" height="253.000000pt" viewBox="0 0 450.000000 253.000000"
 preserveAspectRatio="xMidYMid meet">
<metadata>
Created by potrace 1.16, written by Peter Selinger 2001-2019
</metadata>
<g transform="translate(0.000000,253.000000) scale(0.100000,-0.100000)"
fill="#000000" stroke="none">
<path d="M0 1265 l0 -1265 2250 0 2250 0 0 1265 0 1265 -2250 0 -2250 0 0
-1265z m2598 1116 c29 -14 55 -18 126 -16 131 4 242 -42 314 -131 18 -22 52
-65 77 -96 27 -35 54 -58 65 -58 11 0 53 -11 95 -25 l75 -24 26 24 c41 38 123
44 200 15 15 -6 74 -34 131 -61 98 -48 143 -85 143 -115 0 -8 4 -14 8 -14 5 0
7 -26 4 -57 -5 -68 -18 -87 -129 -197 -92 -90 -136 -118 -223 -141 -36 -9 -73
-21 -83 -26 -17 -10 -17 -11 1 -37 11 -15 31 -57 46 -94 44 -112 32 -261 -25
-316 -55 -52 -80 -72 -90 -72 -5 0 -21 -8 -36 -17 -37 -25 -239 -24 -348 1
-93 21 -173 51 -197 73 -16 15 -20 14 -39 -11 -11 -14 -26 -26 -33 -26 -24 0
-56 -40 -56 -70 0 -23 -14 -45 -62 -94 -140 -143 -348 -170 -436 -56 -10 14
-34 63 -52 110 -36 93 -43 175 -17 227 7 15 14 43 15 61 2 29 0 32 -20 27 -13
-3 -79 -1 -148 4 -117 10 -191 26 -250 52 -14 7 -41 19 -60 28 -50 23 -132 92
-126 107 3 7 -2 15 -11 18 -13 5 -15 17 -10 67 4 33 12 70 18 82 24 43 91 120
132 151 48 37 144 96 155 96 4 0 18 9 30 18 l24 18 -24 16 c-54 36 -129 122
-159 183 -32 66 -48 149 -34 182 5 10 7 24 6 31 -1 6 5 12 14 12 9 0 25 9 37
20 12 11 29 20 38 20 9 0 20 4 26 10 5 5 43 14 84 21 84 13 209 6 294 -16 31
-8 84 -16 119 -17 62 -3 63 -3 112 45 87 84 175 108 253 68z"/>
<path d="M2713 1981 c0 -11 5 -18 9 -15 4 3 5 11 1 19 -7 21 -12 19 -10 -4z"/>
<path d="M2723 1953 c-10 -3 -10 -10 -2 -25 6 -11 8 -25 6 -33 -3 -7 -1 -30 4
-51 5 -22 11 -46 13 -54 2 -8 6 -14 9 -12 4 1 11 2 16 2 14 0 23 52 12 63 -18
18 -12 36 17 51 15 8 25 16 22 16 -3 1 -16 3 -29 6 -14 2 -30 9 -36 14 -7 5
-16 6 -20 2 -5 -4 -5 -1 -1 6 6 10 11 10 22 1 12 -10 13 -9 8 5 -6 16 -18 19
-41 9z"/>
<path d="M2960 1891 c-25 -8 -25 -8 7 -15 40 -9 83 1 62 15 -16 10 -34 10 -69
0z"/>
<path d="M2885 1881 c-6 -11 33 -26 43 -16 4 3 0 10 -8 15 -19 12 -27 12 -35
1z"/>
<path d="M2537 1805 c-46 -12 -72 -25 -48 -25 9 0 9 -5 1 -20 -8 -16 -17 -19
-38 -14 -15 4 -34 13 -43 20 -27 24 -29 15 -4 -12 14 -15 22 -31 18 -37 -3 -5
-1 -7 4 -4 16 10 36 -20 30 -43 -3 -10 -2 -19 2 -18 26 3 33 -3 21 -17 -24
-28 19 -17 46 13 24 25 24 27 8 31 -61 11 -62 71 -1 71 22 1 37 8 49 24 25 35
11 45 -45 31z"/>
<path d="M2884 1807 c-4 -7 -4 -9 1 -5 4 4 16 3 27 -3 11 -6 22 -9 24 -6 2 2
-7 9 -21 15 -18 9 -26 8 -31 -1z"/>
<path d="M2706 1771 c-8 -13 3 -38 20 -45 8 -3 26 -1 40 4 21 8 23 12 12 24
-7 8 -16 12 -20 10 -4 -2 -9 0 -13 6 -8 12 -32 13 -39 1z"/>
<path d="M2830 1756 c0 -17 8 -27 28 -34 42 -14 55 7 21 35 -35 29 -49 29 -49
-1z"/>
<path d="M2885 1770 c-3 -6 1 -7 9 -4 18 7 21 14 7 14 -6 0 -13 -4 -16 -10z"/>
<path d="M1755 1730 c4 -6 11 -8 16 -5 14 9 11 15 -7 15 -8 0 -12 -5 -9 -10z"/>
<path d="M2930 1713 c-40 -28 -47 -37 -43 -53 6 -23 -61 -54 -88 -40 -10 6
-19 17 -19 25 0 7 -8 16 -18 20 -11 3 -24 17 -31 31 -14 32 -35 26 -39 -10 -6
-46 7 -76 34 -86 17 -7 24 -16 21 -25 -4 -8 2 -16 14 -20 14 -5 18 -12 13 -29
-4 -19 -1 -25 22 -30 30 -8 44 5 44 41 0 14 11 27 30 37 17 8 27 10 23 3 -3
-6 8 -1 25 12 21 14 32 31 32 46 0 13 7 31 16 40 12 11 13 19 5 29 -6 7 -8 16
-4 19 13 14 -14 6 -37 -10z"/>
<path d="M1666 1675 c-21 -19 -41 -35 -45 -35 -8 0 -47 -64 -41 -66 3 -1 -2
-10 -10 -20 -24 -30 -75 -132 -69 -138 3 -3 18 -7 32 -8 26 -2 33 -23 9 -23
-11 0 -40 -24 -31 -26 2 0 11 -2 20 -4 11 -2 23 10 33 34 9 20 35 56 56 80 22
25 40 48 40 53 0 4 9 8 19 8 11 0 23 5 26 11 5 7 -5 8 -29 4 -29 -6 -36 -4
-36 9 0 9 5 16 10 16 6 0 10 12 10 28 0 20 10 34 38 53 20 15 47 30 60 33 31
10 18 26 -22 26 -23 0 -43 -10 -70 -35z"/>
<path d="M2623 1602 c-68 -3 -77 -11 -38 -32 13 -7 22 -18 18 -23 -3 -6 2 -16
13 -24 15 -11 16 -17 7 -32 -10 -16 -9 -20 3 -25 33 -13 81 -6 99 14 17 18 17
21 2 38 -9 10 -14 27 -11 38 9 34 -23 49 -93 46z"/>
<path d="M2490 1570 c-9 -16 -8 -22 5 -26 21 -9 37 8 29 29 -8 23 -21 21 -34
-3z"/>
<path d="M2147 1523 c-16 -15 -5 -24 26 -21 17 2 31 7 30 12 -3 12 -47 19 -56
9z"/>
<path d="M2385 1490 c-3 -5 3 -10 14 -10 11 0 23 5 26 10 3 6 -3 10 -14 10
-11 0 -23 -4 -26 -10z"/>
<path d="M2446 1473 c-4 -5 -21 -12 -37 -18 -40 -14 -37 -29 8 -35 33 -4 38
-9 38 -30 1 -14 9 -37 18 -50 24 -34 21 -70 -8 -110 -19 -26 -22 -36 -13 -47
10 -12 13 -10 22 9 6 13 20 23 31 23 11 0 20 7 21 15 2 34 4 40 14 40 6 0 24
10 39 21 16 12 49 24 73 26 50 6 76 23 35 23 -35 0 -44 23 -25 63 l15 32 -36
-1 c-69 -2 -71 -3 -71 -30 0 -22 -3 -24 -22 -19 -57 17 -73 30 -73 59 0 29
-14 43 -29 29z m94 -108 c14 -8 19 -14 10 -14 -8 0 -24 6 -34 14 -25 19 -9 19
24 0z"/>
<path d="M2176 1444 c-16 -6 -24 -13 -18 -15 9 -3 8 -12 -2 -31 -12 -23 -12
-29 0 -39 11 -9 19 -6 39 15 20 21 29 25 56 19 28 -5 31 -4 26 12 -4 10 -2 24
4 31 9 11 8 14 -2 15 -53 5 -78 4 -103 -7z"/>
<path d="M2315 1419 c-10 -31 -1 -32 25 -4 23 25 23 25 2 25 -12 0 -23 -8 -27
-21z"/>
<path d="M2806 1406 c-3 -13 -9 -32 -13 -42 -4 -12 -3 -15 5 -10 7 4 12 2 12
-4 0 -6 5 -8 10 -5 6 4 7 12 3 18 -4 7 2 5 12 -3 11 -9 16 -10 11 -2 -10 16 5
15 28 -1 14 -10 24 -11 41 -3 l23 10 -21 19 c-12 10 -34 21 -50 24 -15 3 -30
10 -33 14 -10 16 -22 9 -28 -15z"/>
<path d="M2700 1372 c0 -21 18 -42 37 -42 11 0 10 6 -2 30 -17 33 -35 40 -35
12z"/>
<path d="M2365 1350 c3 -5 13 -10 21 -10 8 0 12 5 9 10 -3 6 -13 10 -21 10 -8
0 -12 -4 -9 -10z"/>
<path d="M2807 1263 c-4 -3 -2 -12 4 -19 12 -15 49 -2 49 16 0 11 -43 14 -53
3z"/>
<path d="M3060 1240 c0 -5 5 -10 11 -10 5 0 7 5 4 10 -3 6 -8 10 -11 10 -2 0
-4 -4 -4 -10z"/>
<path d="M2175 1130 c4 -6 11 -8 16 -5 14 9 11 15 -7 15 -8 0 -12 -5 -9 -10z"/>
<path d="M2467 1123 c-13 -12 -7 -22 12 -20 15 1 17 4 9 14 -12 15 -13 15 -21
6z"/>
<path d="M3355 1120 c3 -6 1 -10 -4 -10 -6 0 -11 -14 -11 -31 0 -34 24 -36 26
-2 1 11 4 25 8 31 3 5 -1 13 -10 16 -8 3 -12 2 -9 -4z"/>
</g>
</svg>
