<?xml version="1.0" standalone="no"?>
<!DOCTYPE svg PUBLIC "-//W3C//DTD SVG 20010904//EN"
 "http://www.w3.org/TR/2001/REC-SVG-20010904/DTD/svg10.dtd">
<svg version="1.0" xmlns="http://www.w3.org/2000/svg"
 width="450.000000pt" height="253.000000pt" viewBox="0 0 450.000000 253.000000"
 preserveAspectRatio="xMidYMid meet">
<metadata>
Created by potrace 1.16, written by Peter Selinger 2001-2019
</metadata>
<g transform="translate(0.000000,253.000000) scale(0.100000,-0.100000)"
fill="#000000" stroke="none">
<path d="M0 1265 l0 -1265 2250 0 2250 0 0 1265 0 1265 -782 0 -782 0 34 -25
c43 -32 95 -105 119 -169 17 -46 45 -216 43 -258 0 -10 2 -17 6 -16 4 1 30 -6
58 -15 l52 -18 38 26 c36 24 46 26 119 23 82 -4 78 -3 262 -89 109 -52 150
-129 129 -242 -12 -65 -257 -297 -314 -297 -16 0 -51 -10 -120 -35 -8 -3 1
-18 25 -43 21 -20 44 -51 52 -67 7 -17 18 -38 23 -48 9 -18 33 -140 44 -224 5
-38 3 -46 -25 -74 -17 -17 -31 -34 -31 -38 0 -3 -12 -12 -28 -18 -15 -7 -34
-16 -42 -21 -32 -20 -152 -42 -226 -42 -152 0 -365 43 -420 85 -24 18 -58 19
-72 3 -5 -7 -15 -53 -20 -103 l-11 -90 3 93 c3 87 -6 125 -21 85 -3 -10 -21
-35 -40 -56 -19 -21 -33 -48 -33 -63 0 -18 -18 -43 -62 -87 -77 -77 -93 -87
-188 -121 -87 -32 -149 -30 -215 7 -52 29 -86 82 -125 196 -33 94 -35 124 -16
246 5 30 -4 45 -25 45 -23 0 -25 19 -3 34 13 10 -3 16 -88 33 -98 19 -259 81
-283 108 -5 6 -21 18 -35 27 -14 9 -34 33 -45 54 -11 22 -23 41 -26 44 -7 6
-18 54 -25 115 -5 35 0 50 32 101 20 33 52 71 71 84 19 14 49 36 68 50 19 14
46 34 61 44 l27 19 -54 51 c-92 87 -135 158 -165 271 -18 67 -17 102 3 151 13
31 26 44 57 57 113 45 302 46 433 1 61 -20 100 -27 179 -28 l100 -2 27 37 c38
52 120 120 197 163 l65 36 -1252 0 -1253 0 0 -1265z m2508 -591 c-3 -14 -5
-12 -10 9 -3 19 -2 25 4 19 6 -6 8 -18 6 -28z m109 -186 c-2 -13 -4 -3 -4 22
0 25 2 35 4 23 2 -13 2 -33 0 -45z m-10 -135 c-3 -10 -5 -4 -5 12 0 17 2 24 5
18 2 -7 2 -21 0 -30z"/>
<path d="M2316 2002 c-3 -5 1 -9 9 -9 8 0 12 4 9 9 -3 4 -7 8 -9 8 -2 0 -6 -4
-9 -8z"/>
<path d="M2422 1762 c-21 -17 -22 -17 -3 -29 17 -11 21 -9 30 17 11 34 5 37
-27 12z"/>
<path d="M2402 1698 c-2 -18 -4 -34 -7 -36 -2 -2 5 -13 16 -25 10 -11 19 -26
19 -32 0 -6 17 -20 37 -31 37 -20 55 -44 31 -44 -9 0 -13 -14 -13 -43 l1 -42
49 3 c28 2 52 8 53 13 2 5 8 7 13 3 18 -11 29 7 14 22 -19 20 -19 38 1 55 14
12 14 14 -3 20 -10 4 -30 8 -44 8 -14 1 -39 11 -56 24 -47 34 -103 106 -96
122 3 8 1 15 -4 15 -5 0 -10 -14 -11 -32z"/>
<path d="M2710 1660 c0 -5 -6 -10 -13 -10 -7 0 -20 -9 -30 -20 -19 -22 -23
-60 -6 -60 22 0 49 22 49 40 0 10 5 22 10 25 6 3 10 13 10 21 0 8 -4 14 -10
14 -5 0 -10 -4 -10 -10z"/>
<path d="M1806 1644 c-4 -12 -10 -13 -19 -6 -8 7 -21 6 -41 -2 l-30 -12 42
-34 c38 -30 54 -53 35 -48 -5 0 -16 -2 -25 -6 -25 -11 -12 -26 23 -26 24 0 29
4 29 25 0 14 4 25 9 25 15 0 8 53 -9 68 -8 8 -10 11 -4 8 6 -3 11 1 11 9 0 20
-13 19 -21 -1z"/>
<path d="M1500 1635 c-5 -25 -5 -41 2 -61 5 -16 3 -21 -9 -20 -10 1 -17 -8
-18 -21 -1 -13 3 -23 8 -23 6 0 2 -9 -8 -20 -10 -11 -13 -20 -8 -20 10 0 25
24 28 45 0 6 6 9 11 8 6 -1 11 5 12 13 1 8 3 21 4 29 1 8 5 15 11 15 5 0 7 5
5 11 -2 6 -8 10 -13 9 -6 -1 -13 9 -17 22 -3 13 -7 19 -8 13z"/>
<path d="M2394 1562 c9 -16 -14 -39 -48 -48 -36 -9 -24 -18 26 -20 25 -1 48 5
60 15 21 18 23 31 6 31 -6 0 -20 8 -31 18 -11 9 -17 11 -13 4z"/>
<path d="M2136 1425 c-38 -23 -39 -40 -1 -25 22 8 64 51 49 49 -5 0 -26 -11
-48 -24z"/>
<path d="M2341 1421 c-25 -21 -21 -41 8 -41 20 0 64 43 54 53 -12 13 -40 7
-62 -12z"/>
<path d="M1913 1414 c10 -11 57 -13 57 -3 0 5 -14 9 -32 9 -17 0 -28 -3 -25
-6z"/>
<path d="M1902 1378 c-7 -7 -12 -16 -12 -21 0 -5 7 -1 16 8 9 9 14 18 12 20
-2 3 -10 -1 -16 -7z"/>
<path d="M2218 1368 c5 -5 16 -8 23 -6 8 3 3 7 -10 11 -17 4 -21 3 -13 -5z"/>
<path d="M2338 1324 c-35 -18 -43 -51 -14 -58 22 -5 64 -1 73 8 8 7 -9 55 -21
59 -6 3 -23 -1 -38 -9z"/>
<path d="M2275 1262 c-12 -9 -16 -42 -5 -42 9 0 24 39 18 45 -2 2 -8 1 -13 -3z"/>
<path d="M2233 1186 c-4 -8 -19 -19 -33 -25 -14 -5 -19 -10 -12 -10 7 -1 10
-5 7 -11 -13 -21 13 -9 31 14 10 14 21 23 26 20 4 -3 8 -1 8 5 0 17 -18 22
-27 7z"/>
<path d="M3296 1161 c-17 -40 -17 -40 9 -80 14 -23 32 -41 41 -41 8 0 13 -4
10 -9 -4 -5 1 -8 10 -7 8 1 19 8 23 15 11 17 1 64 -15 74 -8 4 -14 15 -14 23
0 17 -29 64 -39 64 -4 0 -15 -18 -25 -39z"/>
<path d="M2607 1178 c-9 -25 -7 -32 7 -34 9 -1 12 4 9 12 -3 8 0 14 7 14 6 0
8 5 5 10 -8 14 -22 13 -28 -2z"/>
<path d="M2489 1165 c-32 -17 -45 -45 -27 -57 17 -10 81 -4 85 9 2 6 -4 10
-14 9 -14 -1 -18 6 -16 27 1 15 1 27 0 27 -1 -1 -14 -7 -28 -15z"/>
<path d="M2680 1159 c-12 -8 -10 -9 7 -4 12 3 24 1 28 -5 3 -5 12 -10 18 -10
7 0 3 7 -7 15 -23 18 -26 18 -46 4z"/>
<path d="M2220 1034 c0 -8 5 -12 10 -9 6 3 10 10 10 16 0 5 -4 9 -10 9 -5 0
-10 -7 -10 -16z"/>
</g>
</svg>
