<?xml version="1.0" standalone="no"?>
<!DOCTYPE svg PUBLIC "-//W3C//DTD SVG 20010904//EN"
 "http://www.w3.org/TR/2001/REC-SVG-20010904/DTD/svg10.dtd">
<svg version="1.0" xmlns="http://www.w3.org/2000/svg"
 width="450.000000pt" height="253.000000pt" viewBox="0 0 450.000000 253.000000"
 preserveAspectRatio="xMidYMid meet">
<metadata>
Created by potrace 1.16, written by Peter Selinger 2001-2019
</metadata>
<g transform="translate(0.000000,253.000000) scale(0.100000,-0.100000)"
fill="#000000" stroke="none">
<path d="M0 1265 l0 -1265 2250 0 2250 0 0 1265 0 1265 -747 0 -747 0 26 -27
c43 -48 86 -135 128 -261 22 -67 40 -130 40 -141 0 -13 9 -20 28 -24 15 -3 58
-16 96 -30 l70 -26 28 24 c33 28 84 40 131 31 46 -9 268 -119 287 -142 31 -40
37 -60 32 -119 l-5 -60 -91 -91 c-112 -112 -165 -150 -217 -159 -22 -4 -53
-13 -67 -21 -15 -8 -35 -14 -45 -14 -10 0 -17 -3 -15 -7 96 -189 114 -287 77
-425 -9 -36 -88 -128 -109 -128 -6 0 -19 -5 -29 -12 -24 -15 -210 4 -322 32
-80 21 -183 62 -193 79 -4 5 -16 0 -29 -13 -12 -12 -30 -27 -40 -32 -11 -7
-18 -25 -21 -54 -7 -97 -117 -193 -236 -207 -45 -5 -50 -8 -51 -32 -2 -24 -2
-24 -6 -3 -2 12 -8 20 -12 18 -4 -3 -29 14 -54 38 -26 23 -49 40 -52 38 -3 -3
-5 1 -5 8 0 7 -22 47 -49 90 -75 117 -85 178 -40 241 10 15 19 39 19 53 0 24
-3 26 -27 19 -30 -9 -159 -8 -220 0 -53 8 -197 54 -261 83 -84 40 -91 89 -29
204 78 145 98 177 127 206 18 16 39 37 48 48 9 10 36 31 58 45 l41 27 -18 23
c-11 13 -19 20 -19 16 0 -14 -99 77 -119 108 -35 58 -62 158 -59 220 3 57 4
59 38 74 57 24 158 43 266 50 86 5 112 3 171 -15 92 -28 123 -21 139 34 18 61
61 135 104 179 22 23 40 44 40 48 0 4 -576 7 -1280 7 l-1280 0 0 -1265z m2467
-842 c-2 -16 -4 -5 -4 22 0 28 2 40 4 28 2 -13 2 -35 0 -50z"/>
<path d="M2214 2242 c3 -6 19 -13 34 -16 62 -13 82 -14 77 -6 -3 5 -22 12 -43
15 -20 4 -45 9 -56 12 -11 3 -16 1 -12 -5z"/>
<path d="M2250 1982 c0 -8 -9 -11 -25 -8 -14 3 -25 0 -25 -6 0 -6 -9 -8 -21
-5 -17 5 -18 3 -7 -10 11 -14 10 -15 -9 -9 -17 5 -21 3 -18 -11 2 -10 4 -20 4
-23 1 -3 6 2 12 10 9 13 10 13 6 0 -2 -8 -9 -14 -15 -13 -5 1 -16 -5 -24 -15
-12 -16 -11 -16 5 -3 16 13 19 13 17 0 -5 -32 0 -43 12 -31 8 8 15 8 23 2 8
-7 20 -4 38 10 14 11 34 20 46 20 13 0 26 11 36 30 21 41 19 51 -10 46 -16 -3
-28 1 -35 12 -5 10 -10 12 -10 4z m-60 -75 c0 -2 -10 -12 -22 -23 l-23 -19 19
23 c18 21 26 27 26 19z"/>
<path d="M2900 1956 c0 -9 30 -14 35 -6 4 6 -3 10 -14 10 -12 0 -21 -2 -21 -4z"/>
<path d="M1938 1929 c-23 -25 -23 -32 1 -24 11 3 22 1 26 -4 7 -12 55 -11 55
1 0 4 -4 8 -10 8 -5 0 -10 5 -10 11 0 5 6 7 13 3 8 -5 9 -4 2 4 -20 21 -59 22
-77 1z"/>
<path d="M2890 1921 c-6 -11 -6 -22 -1 -25 15 -9 18 -66 5 -83 -16 -22 -6 -45
16 -38 24 8 70 -11 70 -29 0 -21 34 -38 47 -25 8 8 13 7 18 -2 5 -8 4 -10 -3
-5 -12 7 -17 -10 -13 -50 1 -16 -6 -23 -26 -27 -16 -3 -35 -8 -45 -12 -13 -5
-16 -1 -13 30 3 32 2 35 -13 23 -9 -7 -13 -8 -9 -2 3 6 -8 18 -27 27 l-34 16
-9 -46 c-4 -26 -14 -48 -22 -51 -10 -3 -12 0 -7 13 5 15 4 16 -9 5 -9 -7 -18
-10 -22 -6 -3 3 -1 6 6 6 10 0 9 7 -4 26 -11 18 -13 24 -4 19 11 -6 11 -5 3 4
-6 7 -18 13 -25 14 -8 2 -19 5 -24 9 -6 3 -25 5 -43 4 -17 -1 -32 2 -32 6 0
12 51 30 71 25 17 -5 41 25 46 57 3 15 -1 17 -19 11 -13 -3 -48 -13 -78 -20
-30 -7 -47 -13 -38 -14 21 -1 29 -13 19 -30 -7 -10 -18 -9 -54 7 -25 11 -48
18 -51 14 -12 -11 -5 -21 17 -24 17 -2 22 -9 22 -31 -1 -25 1 -26 11 -12 18
25 43 -5 38 -47 -6 -51 2 -65 26 -43 11 10 20 24 20 30 0 33 38 22 70 -19 14
-18 13 -18 -20 -11 -31 7 -33 6 -21 -8 7 -9 22 -19 32 -22 15 -5 17 -10 9 -20
-8 -9 -7 -14 5 -18 8 -4 12 -13 9 -22 -4 -8 -1 -22 6 -30 15 -18 15 -18 -25
-31 -16 -5 -35 -19 -41 -31 -10 -21 -12 -21 -30 -8 -18 15 -18 16 11 40 l30
25 -25 0 c-14 0 -40 9 -57 20 -35 21 -58 18 -73 -10 -9 -17 -7 -18 20 -10 38
11 31 -3 -10 -20 -28 -11 -29 -14 -13 -25 9 -7 22 -11 28 -8 20 7 39 -25 26
-41 -9 -11 -8 -17 4 -29 8 -9 15 -30 15 -47 0 -30 -24 -90 -42 -101 -9 -6 17
-65 33 -75 16 -9 17 -2 10 48 -7 45 -7 46 15 37 28 -10 37 1 28 37 -6 24 -5
26 15 21 15 -4 26 1 34 14 6 10 19 19 28 19 9 0 19 9 22 20 4 17 14 20 70 20
49 0 70 5 90 20 31 24 43 25 55 4 9 -15 11 -15 31 -2 13 10 18 19 12 22 -5 4
-8 13 -5 20 3 8 1 17 -5 21 -6 3 -11 15 -11 25 0 15 -7 18 -45 17 -42 -2 -45
-4 -60 -43 -9 -23 -14 -48 -13 -55 2 -7 -4 -14 -13 -16 -20 -5 -30 27 -16 53
7 13 7 19 -1 22 -17 5 -15 64 4 100 13 28 19 31 42 25 44 -12 77 -6 116 21 20
14 37 27 36 30 -2 28 3 38 23 45 28 11 51 37 40 44 -5 3 -8 35 -7 72 2 36 -1
63 -5 60 -5 -2 -14 2 -21 11 -12 13 -8 14 23 11 20 -2 34 -1 32 4 -3 4 1 10 7
13 7 3 3 3 -9 0 -28 -6 -65 4 -58 16 3 5 -3 8 -14 7 -11 0 -17 -5 -15 -9 3 -4
-9 -6 -26 -4 -25 3 -28 1 -19 -10 6 -8 8 -14 3 -15 -5 0 1 -4 14 -9 30 -13 28
-25 -10 -44 -18 -8 -28 -16 -23 -16 20 -1 -20 -20 -42 -20 -26 0 -41 19 -23
30 7 4 9 16 5 29 -4 13 -11 18 -18 14 -7 -4 -4 4 5 17 9 14 22 24 29 22 10 -2
10 0 -1 12 -13 17 -25 22 -16 7 3 -5 -1 -12 -10 -15 -28 -11 -38 -6 -19 7 14
11 15 16 5 22 -9 6 -11 4 -5 -5 5 -8 3 -11 -6 -8 -8 3 -13 11 -11 17 3 17 -6
13 -18 -8z m200 -176 c-7 -8 -14 -15 -15 -15 -2 0 -5 7 -9 15 -4 10 1 15 16
15 17 0 18 -2 8 -15z m-357 -52 c-7 -2 -19 -2 -25 0 -7 3 -2 5 12 5 14 0 19
-2 13 -5z m157 -89 c0 -2 -7 -4 -15 -4 -8 0 -15 4 -15 10 0 5 7 7 15 4 8 -4
15 -8 15 -10z m-43 -184 c-1 -22 -5 -41 -9 -41 -39 -8 -45 21 -13 58 11 12 21
23 22 23 2 0 2 -18 0 -40z"/>
<path d="M2120 1921 c0 -7 -4 -10 -8 -7 -4 2 -9 -5 -9 -16 -2 -21 -2 -21 14 1
8 12 12 25 9 28 -3 4 -6 1 -6 -6z"/>
<path d="M2041 1903 c-1 -16 16 -26 24 -13 4 6 12 7 18 4 8 -4 7 -2 -1 7 -11
12 -14 12 -21 0 -7 -11 -9 -11 -14 0 -3 9 -6 10 -6 2z"/>
<path d="M3147 1839 c6 -20 23 -27 23 -8 0 6 5 7 13 2 6 -4 18 -8 25 -9 10 -2
11 1 1 12 -6 8 -14 12 -16 10 -3 -3 -15 -1 -28 4 -20 7 -22 6 -18 -11z"/>
<path d="M3290 1810 c-23 -7 -23 -8 -3 -9 12 -1 25 4 28 9 3 6 5 10 3 9 -2 -1
-14 -5 -28 -9z"/>
<path d="M2041 1736 c-7 -9 -20 -16 -28 -16 -8 0 -12 -4 -8 -9 3 -5 -4 -12
-15 -16 -18 -6 -24 -17 -21 -37 0 -5 -4 -8 -11 -8 -6 0 -8 -3 -5 -7 4 -3 -1
-12 -11 -19 -14 -11 -15 -15 -3 -23 8 -5 25 -7 38 -5 15 3 23 -1 24 -11 1 -8
2 -21 3 -27 1 -7 -2 -19 -7 -26 -7 -9 -6 -11 5 -7 9 4 15 0 15 -10 0 -10 -12
-18 -29 -22 -37 -7 -40 -14 -39 -85 0 -33 -4 -68 -9 -78 -12 -23 9 -47 48 -55
15 -4 44 -11 65 -17 28 -9 41 -8 49 0 7 7 20 12 31 12 10 0 15 5 12 10 -4 6
-10 8 -15 5 -15 -9 -20 12 -5 25 7 6 11 19 8 28 -4 13 -2 12 11 -3 16 -19 16
-19 6 8 -5 15 -8 27 -5 27 3 0 35 -59 35 -67 0 -6 -25 2 -31 11 -4 4 -9 4 -12
-1 -3 -5 3 -17 14 -26 10 -9 19 -12 19 -6 0 6 6 9 13 6 8 -3 14 3 14 15 1 10
-4 21 -11 24 -13 5 -15 32 -3 51 5 7 3 21 -3 32 -8 16 -5 26 16 50 24 29 24
31 9 55 -12 18 -14 30 -6 44 6 11 8 22 5 25 -3 3 8 12 24 21 16 8 32 23 36 31
8 22 7 33 -2 19 -9 -15 -139 -27 -147 -14 -11 18 -14 51 -4 45 5 -4 9 -2 9 4
0 6 -13 17 -29 26 -16 8 -31 20 -33 26 -2 7 -8 5 -17 -5z m-4 -199 c-3 -7 -6
-4 -6 6 -1 10 -5 16 -9 13 -4 -2 -9 5 -9 16 -2 21 -2 21 13 -1 9 -12 13 -27
11 -34z m63 34 c0 -6 -4 -12 -8 -15 -5 -3 -9 1 -9 9 0 8 4 15 9 15 4 0 8 -4 8
-9z"/>
<path d="M2890 1735 c7 -8 18 -15 25 -15 7 0 15 7 19 15 4 11 -2 15 -26 15
-26 0 -29 -2 -18 -15z"/>
<path d="M2570 1650 c0 -5 5 -10 10 -10 6 0 10 5 10 10 0 6 -4 10 -10 10 -5 0
-10 -4 -10 -10z"/>
<path d="M2430 1630 c-14 -11 -20 -20 -14 -20 14 0 50 27 44 33 -3 3 -16 -3
-30 -13z"/>
<path d="M2490 1641 c0 -5 9 -11 19 -14 14 -3 18 -1 14 9 -6 15 -33 19 -33 5z"/>
<path d="M2619 1598 c-25 -20 -31 -48 -13 -55 24 -9 49 22 38 47 -8 18 -12 19
-25 8z"/>
<path d="M2475 1580 c-3 -5 -4 -10 -1 -10 2 0 11 -3 19 -6 8 -3 17 2 20 10 7
18 -27 23 -38 6z"/>
<path d="M2676 1581 c-9 -14 4 -41 19 -41 15 0 24 19 18 38 -5 14 -29 16 -37
3z"/>
<path d="M2945 1540 c4 -6 11 -8 16 -5 14 9 11 15 -7 15 -8 0 -12 -5 -9 -10z"/>
<path d="M2374 1529 c-6 -11 13 -39 27 -39 4 0 20 11 34 24 l25 24 -40 0 c-22
0 -42 -4 -46 -9z"/>
<path d="M2401 1473 c-18 -4 -22 -10 -18 -30 3 -16 -1 -27 -10 -30 -11 -4 -10
-9 7 -25 11 -11 26 -17 33 -15 15 5 47 -10 47 -24 0 -14 50 -59 66 -59 25 0
15 25 -26 68 -23 23 -36 42 -30 42 16 0 23 4 47 26 30 27 29 31 -6 36 -20 3
-27 0 -24 -8 2 -7 -1 -15 -8 -20 -7 -4 -10 -3 -6 4 4 5 4 17 1 26 -6 16 -25
18 -73 9z"/>
<path d="M2526 1381 c-10 -15 10 -22 36 -12 12 6 18 10 11 10 -6 1 -18 4 -26
7 -8 3 -18 1 -21 -5z"/>
<path d="M2952 1312 c-28 -4 -37 -24 -24 -49 7 -12 7 -25 1 -36 -9 -15 -7 -16
16 -7 14 5 25 6 25 2 0 -4 9 7 20 24 30 47 14 75 -38 66z"/>
<path d="M3045 1250 c-3 -5 -2 -10 4 -10 5 0 13 5 16 10 3 6 2 10 -4 10 -5 0
-13 -4 -16 -10z"/>
<path d="M2297 1216 c-4 -10 -5 -21 -2 -24 9 -9 17 6 13 25 -3 17 -4 17 -11
-1z"/>
<path d="M2866 1212 c-6 -10 30 -9 40 1 4 4 -2 7 -14 7 -11 0 -23 -4 -26 -8z"/>
<path d="M2735 1101 c-3 -5 9 -14 25 -20 17 -5 30 -6 30 -2 0 12 -49 31 -55
22z"/>
</g>
</svg>
