<?xml version="1.0" standalone="no"?>
<!DOCTYPE svg PUBLIC "-//W3C//DTD SVG 20010904//EN"
 "http://www.w3.org/TR/2001/REC-SVG-20010904/DTD/svg10.dtd">
<svg version="1.0" xmlns="http://www.w3.org/2000/svg"
 width="450.000000pt" height="253.000000pt" viewBox="0 0 450.000000 253.000000"
 preserveAspectRatio="xMidYMid meet">
<metadata>
Created by potrace 1.16, written by Peter Selinger 2001-2019
</metadata>
<g transform="translate(0.000000,253.000000) scale(0.100000,-0.100000)"
fill="#000000" stroke="none">
<path d="M0 1265 l0 -1265 2250 0 2250 0 0 1265 0 1265 -2250 0 -2250 0 0
-1265z m2953 684 c91 -26 170 -73 246 -148 103 -101 124 -132 115 -176 -9 -50
-49 -86 -147 -134 -93 -45 -147 -60 -127 -36 7 8 16 12 21 9 5 -3 9 -1 9 4 0
8 22 18 60 27 3 0 14 6 25 12 20 11 27 13 44 13 5 0 11 9 14 21 4 13 10 18 18
13 7 -4 18 1 26 11 7 11 13 15 13 9 1 -11 29 37 30 50 0 4 -15 6 -34 4 -19 -2
-32 0 -30 4 3 4 -2 8 -11 8 -9 0 -13 -4 -10 -10 3 -5 0 -10 -7 -11 -7 0 -26
-2 -43 -4 l-30 -4 32 14 c33 15 52 35 34 35 -6 0 -11 -5 -11 -11 0 -5 -5 -7
-10 -4 -6 4 -17 2 -24 -4 -8 -7 -28 -13 -45 -16 -17 -2 -36 -7 -42 -11 -8 -5
-9 -3 -4 5 5 10 3 11 -11 4 -11 -5 -30 -8 -44 -7 -14 1 -74 5 -135 8 -60 3
-132 8 -158 11 -30 3 -46 1 -42 -5 4 -6 11 -8 16 -5 5 4 9 1 9 -4 0 -6 -12
-11 -26 -11 -17 0 -23 4 -18 12 5 8 2 9 -12 4 -10 -4 -15 -4 -12 0 4 3 1 13
-7 21 -8 8 -15 23 -15 33 0 10 -12 27 -26 38 -26 18 -26 20 -10 44 9 13 13 28
9 32 -5 4 -9 17 -9 29 -1 12 -2 32 -3 45 -2 33 -18 27 -24 -10 -3 -22 1 -39
12 -52 15 -18 15 -19 -1 -13 -10 4 -18 2 -18 -2 0 -13 -30 -7 -40 8 -5 9 -7 4
-7 -14 0 -19 2 -23 8 -14 6 10 8 8 7 -6 -1 -12 -9 -21 -19 -21 -10 0 -15 5
-11 11 3 5 -1 4 -10 -3 -22 -17 -58 -23 -58 -10 0 22 148 171 161 162 5 -3 9
-1 9 3 0 9 70 42 115 54 52 13 192 7 258 -12z m-692 -43 c14 8 49 -6 49 -21 0
-15 -22 -25 -56 -25 -13 0 -24 -4 -24 -10 0 -5 9 -10 21 -10 11 0 27 -7 35
-15 12 -12 12 -15 2 -15 -11 0 -11 -2 0 -9 8 -4 11 -20 9 -37 -3 -27 -7 -29
-50 -30 -26 -1 -54 -7 -62 -14 -13 -11 -14 -10 -10 2 8 20 -20 42 -42 34 -10
-4 -14 -4 -10 0 10 11 -13 34 -34 34 -17 0 -23 10 -21 31 1 3 -10 4 -23 1 -14
-2 -25 -9 -25 -15 0 -6 -3 -7 -6 -4 -4 4 -1 14 6 23 9 10 10 18 4 22 -6 4 -13
15 -17 25 -9 24 -84 21 -79 -3 2 -8 5 -23 7 -33 2 -9 7 -22 11 -28 4 -7 -6 -9
-32 -5 -22 2 -33 2 -26 0 16 -7 16 -21 -1 -21 -9 0 -14 16 -16 48 l-2 47 55
17 c43 14 81 16 185 13 85 -2 131 0 132 7 0 5 3 4 6 -3 2 -6 9 -10 14 -6z
m116 -2 c-3 -3 -12 -4 -19 -1 -8 3 -5 6 6 6 11 1 17 -2 13 -5z m49 -27 c1 -27
-11 -34 -83 -50 -19 -4 -21 -2 -14 11 5 8 16 17 25 18 9 1 13 -2 10 -8 -4 -7
-2 -8 4 -4 17 11 15 24 -5 28 -14 3 -11 7 12 20 39 20 50 17 51 -15z m44 -11
c-14 -14 -24 0 -16 21 6 15 8 15 16 3 6 -9 5 -19 0 -24z m-600 -117 c0 -4 -4
-11 -10 -14 -5 -3 -10 -1 -10 5 0 7 -5 6 -14 -2 -10 -9 -11 -15 -2 -20 13 -9
3 -10 -18 -2 -24 9 -2 40 28 40 14 0 26 -3 26 -7z m78 3 c15 10 15 10 4 -2 -7
-8 -17 -15 -22 -15 -19 0 -13 -20 9 -31 20 -10 20 -12 5 -25 -9 -7 -34 -12
-59 -10 -56 3 -80 -10 -83 -45 -1 -15 -8 -32 -15 -37 -7 -5 1 -6 21 -2 31 6
32 5 32 -24 0 -25 -4 -31 -22 -31 l-23 -1 23 -12 22 -13 -25 -34 c-28 -38 -34
-60 -9 -35 25 24 29 10 10 -34 -16 -34 -22 -38 -49 -36 -18 1 -35 -2 -38 -8
-4 -5 -6 37 -5 94 2 108 21 193 37 168 6 -10 9 -7 9 12 0 31 24 67 34 51 4 -7
13 -8 24 -3 9 5 29 14 43 21 15 7 33 23 40 37 7 14 15 20 17 14 3 -9 8 -8 20
1z m122 -7 c0 -8 -4 -15 -9 -15 -5 0 -11 7 -15 15 -3 9 0 15 9 15 8 0 15 -7
15 -15z m-60 -3 c0 -4 -9 -13 -20 -20 -23 -14 -26 -8 -7 13 13 16 27 19 27 7z
m20 -67 c0 -16 -15 -35 -27 -35 -10 0 -13 7 -8 23 5 18 4 19 -5 5 -5 -9 -16
-15 -23 -14 -16 2 -16 20 1 23 8 1 16 4 18 6 5 5 44 -3 44 -8z m-125 -65 c-44
-11 -65 -11 -65 0 0 6 21 9 48 9 42 -1 44 -2 17 -9z m1115 -182 c0 -4 -7 -8
-15 -8 -8 0 -15 4 -15 8 0 5 7 9 15 9 8 0 15 -4 15 -9z m-1293 -230 c-3 -8 -6
-5 -6 6 -1 11 2 17 5 13 3 -3 4 -12 1 -19z m8 -27 c3 -5 2 -12 -3 -15 -5 -3
-9 1 -9 9 0 17 3 19 12 6z"/>
<path d="M2773 1649 c7 -11 13 -15 15 -9 2 6 9 7 15 4 8 -5 8 -2 0 6 -7 8 -19
15 -27 16 -12 2 -13 -1 -3 -17z"/>
</g>
</svg>
