<?xml version="1.0" standalone="no"?>
<!DOCTYPE svg PUBLIC "-//W3C//DTD SVG 20010904//EN"
 "http://www.w3.org/TR/2001/REC-SVG-20010904/DTD/svg10.dtd">
<svg version="1.0" xmlns="http://www.w3.org/2000/svg"
 width="450.000000pt" height="253.000000pt" viewBox="0 0 450.000000 253.000000"
 preserveAspectRatio="xMidYMid meet">
<metadata>
Created by potrace 1.16, written by Peter Selinger 2001-2019
</metadata>
<g transform="translate(0.000000,253.000000) scale(0.100000,-0.100000)"
fill="#000000" stroke="none">
<path d="M0 1265 l0 -1265 2250 0 2250 0 0 1265 0 1265 -2250 0 -2250 0 0
-1265z m3060 694 c121 -41 276 -170 327 -270 26 -51 21 -69 -48 -156 -44 -55
-78 -79 -184 -124 -16 -7 -33 -15 -37 -17 -20 -9 -4 9 39 44 26 21 44 33 40
27 -10 -16 50 16 75 40 26 24 19 29 -46 35 -38 3 -53 8 -50 17 4 9 -3 11 -21
7 -17 -3 -30 1 -36 9 -7 11 -9 11 -9 1 0 -8 -5 -10 -12 -5 -18 12 -152 10
-160 -2 -5 -6 -8 -5 -8 3 0 10 -4 10 -19 0 -15 -9 -25 -9 -46 0 -14 7 -35 12
-45 12 -12 0 -20 7 -21 18 0 14 -2 14 -9 -3 -6 -13 -9 -15 -9 -5 -1 12 -3 13
-10 1 -6 -9 -11 -10 -15 -3 -4 6 -13 9 -21 5 -8 -3 -15 0 -15 5 0 6 -9 9 -20
7 -12 -2 -21 3 -25 16 -4 10 -13 19 -21 19 -8 0 -14 3 -15 8 -3 27 -9 44 -24
58 -17 17 -15 37 7 91 6 15 12 36 12 46 1 10 8 22 16 27 8 5 10 10 5 10 -6 0
-15 -4 -20 -9 -12 -11 -85 -42 -85 -36 0 3 30 25 68 49 65 43 141 78 192 89
41 9 212 -1 250 -14z m-685 -49 c-3 -5 3 -10 14 -10 12 0 21 5 21 10 0 6 19
10 45 8 25 -2 45 -7 45 -11 0 -4 12 -6 27 -5 18 2 28 -2 31 -13 4 -21 -115
-52 -137 -35 -11 8 -13 8 -8 0 6 -11 0 -15 -58 -33 -13 -5 -20 -17 -21 -39 -2
-42 -5 -44 -53 -44 -22 0 -44 -5 -48 -11 -5 -8 -9 -4 -13 11 -3 13 -8 23 -12
23 -5 -1 -17 8 -28 19 -12 12 -25 18 -30 15 -6 -4 -10 0 -10 7 0 7 -10 19 -21
27 -20 12 -20 10 5 -34 25 -46 35 -92 17 -81 -5 3 -12 18 -16 33 -3 15 -15 33
-26 41 -10 7 -19 18 -19 24 0 17 -49 58 -56 47 -11 -18 6 -59 24 -59 14 0 15
-2 2 -10 -9 -5 -17 -5 -21 1 -3 5 -19 13 -35 18 -37 9 -44 43 -13 65 12 8 27
12 33 8 6 -3 18 -7 26 -7 8 0 14 -6 13 -12 -3 -15 -1 -15 21 -7 23 9 20 34 -3
34 -11 0 -22 4 -26 9 -6 12 52 17 218 19 77 1 116 -2 112 -8z m-287 -168 c3
-17 -2 -25 -17 -29 -12 -3 -21 -10 -21 -15 0 -5 9 -7 19 -3 14 4 23 0 31 -15
6 -12 16 -18 23 -13 7 4 6 -1 -2 -11 -17 -20 -59 -16 -108 9 -53 28 -87 17
-95 -28 -5 -27 -4 -28 21 -21 39 11 97 13 112 3 10 -6 1 -9 -26 -11 -22 -1
-49 -3 -60 -4 -11 -1 -28 -2 -37 -3 -10 -1 -18 -6 -18 -11 0 -7 6 -8 17 -2 20
12 48 -11 39 -33 -6 -17 19 -21 29 -5 3 6 12 10 18 10 7 0 3 -7 -8 -16 -11 -8
-29 -13 -40 -10 -11 2 -29 0 -40 -4 -17 -8 -16 -9 8 -9 l28 -1 -27 -35 c-15
-20 -24 -38 -20 -42 3 -4 13 2 20 13 14 18 14 18 12 -8 -2 -15 -14 -40 -28
-57 l-26 -30 -21 23 c-18 19 -20 32 -17 98 2 51 10 90 25 120 11 24 21 51 22
59 0 17 106 71 114 59 11 -17 45 13 39 33 -5 14 -2 18 13 15 10 -2 19 -13 21
-26z m580 -137 c-3 -3 -9 2 -12 12 -6 14 -5 15 5 6 7 -7 10 -15 7 -18z m7
-125 c3 -5 -1 -10 -9 -10 -9 0 -16 5 -16 10 0 6 4 10 9 10 6 0 13 -4 16 -10z
m389 -118 c-21 -11 -27 -11 -39 2 -16 15 -20 30 -7 23 4 -3 16 -1 27 3 10 4
25 2 31 -4 9 -8 6 -14 -12 -24z m-1182 -1 c14 -17 15 -20 1 -25 -23 -9 -30 -7
-13 4 8 5 10 10 4 10 -7 0 -14 7 -18 15 -8 21 6 19 26 -4z m919 -27 l34 -26
-38 5 c-39 6 -67 22 -67 38 0 18 37 8 71 -17z"/>
<path d="M3257 1629 c7 -7 15 -10 18 -7 3 3 -2 9 -12 12 -14 6 -15 5 -6 -5z"/>
<path d="M3305 1610 c20 -22 8 -28 -14 -7 -9 8 -12 8 -7 0 3 -6 1 -13 -6 -15
-9 -3 -9 -6 0 -12 7 -4 12 -3 12 2 0 5 14 7 30 4 36 -5 39 10 8 32 -31 22 -45
20 -23 -4z"/>
<path d="M2818 1593 c7 -3 16 -2 19 1 4 3 -2 6 -13 5 -11 0 -14 -3 -6 -6z"/>
<path d="M3219 1583 c-11 -15 -11 -16 1 -6 11 10 18 9 34 -5 21 -17 21 -17 2
6 -23 26 -20 26 -37 5z"/>
<path d="M2381 1875 c-22 -11 -22 -12 -4 -17 24 -6 61 17 40 25 -7 3 -23 -1
-36 -8z"/>
<path d="M2510 1879 c0 -5 5 -7 10 -4 6 3 10 8 10 11 0 2 -4 4 -10 4 -5 0 -10
-5 -10 -11z"/>
</g>
</svg>
