<?xml version="1.0" standalone="no"?>
<!DOCTYPE svg PUBLIC "-//W3C//DTD SVG 20010904//EN"
 "http://www.w3.org/TR/2001/REC-SVG-20010904/DTD/svg10.dtd">
<svg version="1.0" xmlns="http://www.w3.org/2000/svg"
 width="450.000000pt" height="253.000000pt" viewBox="0 0 450.000000 253.000000"
 preserveAspectRatio="xMidYMid meet">
<metadata>
Created by potrace 1.16, written by Peter Selinger 2001-2019
</metadata>
<g transform="translate(0.000000,253.000000) scale(0.100000,-0.100000)"
fill="#000000" stroke="none">
<path d="M0 1265 l0 -1265 2250 0 2250 0 0 1265 0 1265 -2250 0 -2250 0 0
-1265z m2544 604 c-28 -11 -44 -10 -44 2 0 5 4 8 8 5 4 -2 14 -1 22 4 8 5 18
6 24 3 5 -4 1 -10 -10 -14z m-519 -9 c4 -8 3 -11 -1 -8 -9 9 -46 -11 -40 -21
3 -4 -1 -8 -9 -8 -10 0 -12 4 -5 12 12 14 3 25 -22 25 -10 0 -18 5 -18 10 0
16 89 7 95 -10z m115 11 c-14 -4 -39 -6 -57 -6 -31 2 -58 -24 -28 -26 18 -2
53 -6 61 -8 4 0 1 -8 -6 -16 -7 -9 -15 -13 -18 -10 -3 3 -10 1 -16 -4 -15 -13
-72 1 -70 17 1 6 2 17 3 22 0 6 7 9 14 8 6 -2 12 4 11 12 -1 13 12 16 65 17
41 1 57 -1 41 -6z m561 -10 c89 -22 232 -84 222 -96 -5 -4 3 -4 16 0 16 5 21
4 17 -4 -4 -6 -2 -11 4 -11 16 0 112 -68 128 -91 17 -25 8 -84 -14 -93 -13 -5
-13 -3 0 15 21 30 2 61 -30 49 -12 -5 -24 -6 -27 -3 -3 2 -33 6 -67 7 -38 1
-65 7 -70 15 -4 8 -14 11 -21 8 -8 -2 -31 12 -51 31 -21 20 -38 30 -38 24 0
-10 -20 -12 -77 -8 -43 3 -69 3 -58 0 32 -9 41 -24 11 -18 -18 3 -25 1 -21 -6
3 -6 -3 -10 -15 -10 -12 0 -18 -4 -15 -10 10 -16 -1 -11 -16 7 -12 15 -12 16
1 8 8 -4 12 -4 7 0 -13 15 -39 15 -33 0 3 -8 -2 -12 -11 -11 -9 2 -20 11 -24
22 -6 14 -8 15 -9 4 -2 -8 -2 -19 -1 -23 1 -5 -4 -5 -11 0 -14 8 -19 10 -43
12 -13 1 -13 5 2 29 10 15 22 30 27 34 12 8 10 10 -26 26 -31 13 -36 33 -13
52 8 7 15 9 15 5 0 -4 7 -2 15 5 8 6 45 12 84 13 39 0 68 4 65 9 -3 4 -14 8
-24 8 -10 0 -22 5 -25 10 -10 16 45 12 126 -9z m-865 -6 c-22 -17 -20 -28 3
-15 28 14 29 13 28 -18 -1 -24 -6 -29 -33 -30 -24 -2 -33 3 -42 22 -10 22 -8
27 8 39 11 8 27 14 36 14 15 0 15 -1 0 -12z m478 3 c-6 -10 -4 -10 8 0 12 9
28 11 55 5 45 -9 60 -9 92 2 16 5 21 4 17 -4 -4 -6 -13 -11 -20 -11 -16 0
-166 -77 -187 -96 -9 -8 -15 -26 -13 -39 1 -14 -1 -25 -4 -26 -4 0 -15 -2 -24
-4 -10 -2 -18 2 -18 7 0 6 8 17 18 24 16 13 16 14 -3 8 -11 -4 -30 -16 -42
-27 -13 -11 -26 -17 -30 -12 -5 4 -2 10 5 12 6 3 10 9 7 13 -3 5 -13 6 -22 3
-10 -4 -14 -2 -10 4 4 6 -3 10 -16 9 -12 -1 -25 2 -28 7 -6 8 -28 14 -55 16
-6 1 -11 8 -11 16 0 13 16 18 43 14 3 0 15 6 28 14 12 9 46 15 77 16 61 0 85
4 95 14 7 7 -7 9 -53 10 -13 0 -23 4 -23 8 0 5 17 9 38 9 20 0 44 5 52 10 21
14 33 12 24 -2z m-523 -60 c6 -11 1 -23 -19 -41 -15 -14 -33 -33 -40 -41 -6
-8 -19 -13 -27 -10 -16 7 -45 -12 -45 -28 0 -6 7 -8 15 -4 9 3 15 0 15 -9 0
-9 7 -12 18 -9 10 3 10 1 -3 -5 -32 -15 -59 -24 -67 -23 -5 1 -8 -5 -8 -13 0
-8 6 -12 14 -9 7 3 16 -1 19 -9 4 -10 -4 -19 -24 -27 -16 -7 -27 -15 -25 -19
2 -3 -5 -15 -15 -25 -19 -19 -19 -19 -19 2 0 12 4 30 9 40 5 9 18 38 30 64 29
63 108 169 123 166 7 -2 12 2 11 9 -3 16 28 9 38 -9z m969 -131 c0 3 7 0 15
-7 8 -7 15 -9 15 -4 0 4 5 3 12 -4 7 -7 20 -12 29 -12 10 0 20 -4 23 -9 3 -5
-7 -8 -23 -7 -16 0 -27 4 -25 8 3 5 -4 8 -16 8 -14 0 -19 -4 -15 -12 4 -7 0
-5 -9 6 -8 10 -19 15 -25 11 -6 -3 -11 -1 -11 4 0 6 -9 11 -19 11 -11 0 -22 4
-25 9 -11 17 7 20 40 6 19 -8 34 -11 34 -8z m-990 -1 c0 -2 -9 -6 -20 -9 -11
-3 -18 -1 -14 4 5 9 34 13 34 5z m-20 -76 c0 -5 -5 -10 -11 -10 -5 0 -7 5 -4
10 3 6 8 10 11 10 2 0 4 -4 4 -10z m-35 -47 c0 -23 -4 -27 -23 -25 -23 3 -51
-21 -52 -43 0 -6 3 -6 8 0 4 6 19 12 34 13 15 1 33 3 40 4 14 3 17 -18 7 -49
-5 -12 -9 -40 -11 -63 -1 -22 -5 -37 -9 -33 -15 15 -16 68 -3 95 13 24 12 27
-1 21 -9 -3 -14 -8 -11 -10 2 -3 -4 -13 -15 -24 -19 -19 -27 -45 -10 -34 5 3
12 1 16 -5 3 -5 -1 -11 -9 -11 -9 -1 -22 -2 -28 -3 -7 -1 -16 3 -20 9 -5 6 -8
6 -8 -2 0 -7 -9 -13 -19 -13 -16 0 -18 6 -15 33 3 17 7 38 9 45 2 6 0 12 -5
12 -6 0 -10 -6 -10 -12 0 -10 -3 -9 -9 1 -10 16 -2 53 10 45 10 -6 58 25 95
63 29 29 40 25 39 -14z"/>
<path d="M1825 1810 c-8 -13 5 -13 25 0 13 8 13 10 -2 10 -9 0 -20 -4 -23 -10z"/>
</g>
</svg>
