<?xml version="1.0" standalone="no"?>
<!DOCTYPE svg PUBLIC "-//W3C//DTD SVG 20010904//EN"
 "http://www.w3.org/TR/2001/REC-SVG-20010904/DTD/svg10.dtd">
<svg version="1.0" xmlns="http://www.w3.org/2000/svg"
 width="450.000000pt" height="253.000000pt" viewBox="0 0 450.000000 253.000000"
 preserveAspectRatio="xMidYMid meet">
<metadata>
Created by potrace 1.16, written by Peter Selinger 2001-2019
</metadata>
<g transform="translate(0.000000,253.000000) scale(0.100000,-0.100000)"
fill="#000000" stroke="none">
<path d="M0 1265 l0 -1265 2250 0 2250 0 0 1265 0 1265 -2250 0 -2250 0 0
-1265z m3000 689 c65 -18 170 -78 222 -127 55 -52 138 -154 138 -170 0 -8 -7
-27 -14 -43 -8 -15 -13 -31 -10 -35 9 -15 -83 -78 -171 -119 -50 -23 -98 -46
-107 -51 -23 -12 -68 -12 -68 0 0 10 50 25 58 17 3 -3 12 2 21 12 20 22 87 70
78 56 -3 -6 0 -11 7 -11 8 0 12 7 8 15 -3 10 -1 13 6 8 7 -4 12 -3 12 3 0 6 7
8 15 5 10 -4 15 0 15 12 0 16 2 17 11 4 8 -12 10 -10 5 10 -4 22 -3 23 8 8 8
-11 17 -14 27 -7 12 8 12 10 -1 19 -8 5 -20 10 -27 10 -6 0 -14 4 -17 8 -2 4
8 7 22 6 15 -1 35 3 44 7 10 6 19 5 23 -1 9 -15 25 -2 19 14 -8 20 -53 26 -63
9 -7 -13 -9 -13 -14 1 -5 11 -3 15 5 10 7 -4 8 -3 4 5 -10 15 -26 4 -26 -17 0
-10 -3 -13 -8 -7 -10 14 -45 12 -50 -3 -2 -6 -8 -9 -13 -6 -6 3 -15 1 -22 -4
-7 -5 -29 -7 -49 -5 -29 4 -35 9 -31 22 4 11 1 10 -10 -4 -13 -15 -16 -16 -17
-5 0 13 -1 13 -10 0 -8 -12 -10 -12 -10 -1 0 11 -3 11 -14 1 -19 -15 -92 -8
-88 9 1 7 -2 10 -7 6 -6 -3 -8 -12 -5 -20 8 -20 -26 -12 -44 11 -12 16 -14 16
-9 2 3 -10 1 -20 -5 -24 -7 -4 -8 -3 -4 5 8 13 -33 32 -49 22 -16 -9 -29 -8
-50 6 -23 15 -39 17 -30 3 3 -5 -1 -10 -10 -10 -10 0 -13 5 -9 12 4 6 3 8 -4
4 -5 -3 -12 -3 -15 1 -2 5 -2 3 -1 -4 2 -6 -3 -14 -11 -17 -8 -3 -12 0 -9 8 3
7 -6 21 -18 32 -23 19 -23 19 -6 -1 16 -20 16 -21 -1 -21 -16 0 -19 7 -16 40
1 26 -3 44 -11 51 -11 8 -12 22 -5 63 7 45 6 52 -7 47 -12 -4 -13 -3 -2 10 7
8 9 15 5 15 -4 0 3 9 16 20 13 10 21 19 16 20 -23 1 -109 -68 -101 -81 3 -5
-3 -6 -12 -2 -13 5 -15 3 -9 -7 5 -9 4 -11 -3 -6 -7 4 -12 2 -12 -3 0 -6 6
-11 13 -11 8 0 14 -7 14 -15 0 -10 -4 -12 -12 -5 -15 12 -55 -15 -55 -38 0
-15 -2 -15 -10 -2 -5 8 -10 18 -10 22 0 15 126 131 153 140 15 6 27 14 27 20
0 5 5 6 10 3 6 -3 10 -1 10 4 0 6 7 11 15 11 8 0 15 4 15 8 0 9 88 37 140 46
40 7 151 -4 210 -20z m-740 -44 c-52 -6 -53 -7 -15 -10 22 -1 45 -2 52 -1 6 1
14 -3 18 -9 3 -5 1 -11 -4 -11 -6 -1 -15 -3 -21 -4 -5 -1 -17 -3 -25 -4 -27
-2 -16 -19 17 -26 l32 -7 -30 -13 c-20 -9 -23 -14 -11 -14 10 -1 27 4 38 9 29
16 23 -3 -8 -23 -25 -16 -26 -17 -5 -12 21 6 23 4 17 -17 -4 -12 -8 -24 -9
-25 -6 -7 -66 -9 -66 -2 0 5 -12 1 -27 -8 -15 -10 -24 -13 -21 -8 4 6 4 15 0
21 -8 11 -64 48 -73 49 -13 0 -84 67 -84 78 0 7 -16 14 -35 17 -52 8 -12 16
90 19 47 1 87 4 89 7 2 2 34 3 70 2 l66 -1 -55 -7z m250 -26 c0 -8 -6 -14 -14
-14 -8 0 -14 8 -13 19 1 21 27 17 27 -5z m-63 -13 c1 -13 -10 -21 -34 -29
l-36 -11 22 20 c25 23 27 34 6 25 -8 -3 -15 -1 -15 3 0 26 55 18 57 -8z m-499
-6 c-3 -14 -2 -25 2 -25 4 0 10 -6 13 -14 4 -10 -4 -15 -27 -18 -30 -3 -32 -1
-34 29 -2 21 3 35 15 42 28 16 36 13 31 -14z m112 -55 c0 -5 -4 -10 -10 -10
-5 0 -10 5 -10 10 0 6 5 10 10 10 6 0 10 -4 10 -10z m36 -73 c3 -24 -13 -21
-19 4 -3 12 -1 19 5 17 6 -2 12 -12 14 -21z m-236 4 c0 -5 -7 -12 -16 -15 -14
-5 -15 -4 -4 9 14 17 20 19 20 6z m155 -21 c3 -5 1 -10 -4 -10 -6 0 -11 5 -11
10 0 6 2 10 4 10 3 0 8 -4 11 -10z m-31 -23 c-2 -15 2 -17 30 -11 19 3 36 1
40 -4 10 -17 -5 -42 -26 -42 -10 0 -17 4 -14 9 4 5 -3 7 -14 4 -11 -3 -26 -1
-33 5 -6 6 -30 13 -53 16 -32 5 -46 2 -65 -13 -15 -13 -19 -20 -10 -21 11 0
11 -3 1 -15 -7 -8 -9 -15 -5 -15 4 0 2 -7 -5 -15 -7 -8 -8 -15 -3 -15 5 0 16
9 26 20 13 16 28 20 69 19 29 -1 41 -4 26 -6 -16 -2 -28 -9 -28 -14 0 -6 -4
-7 -10 -4 -17 10 -33 -5 -20 -20 18 -21 1 -45 -34 -46 -17 0 -24 -3 -16 -6 8
-2 21 -7 29 -9 11 -4 11 -7 -1 -22 -28 -32 -33 -46 -15 -39 31 12 17 -55 -20
-91 -7 -7 -13 -10 -13 -6 0 3 -7 1 -15 -6 -10 -8 -15 -9 -15 -2 0 6 -8 9 -17
5 -15 -5 -15 -3 2 11 11 10 15 15 8 12 -8 -4 -12 13 -15 57 -5 95 5 157 28
174 11 8 19 26 19 41 0 17 5 27 15 27 8 0 33 9 55 20 51 27 104 28 99 2z m710
-308 c-6 -11 -24 -2 -24 11 0 5 7 7 15 4 8 -4 12 -10 9 -15z"/>
<path d="M2871 1604 c0 -11 3 -14 6 -6 3 7 2 16 -1 19 -3 4 -6 -2 -5 -13z"/>
</g>
</svg>
