<?xml version="1.0" standalone="no"?>
<!DOCTYPE svg PUBLIC "-//W3C//DTD SVG 20010904//EN"
 "http://www.w3.org/TR/2001/REC-SVG-20010904/DTD/svg10.dtd">
<svg version="1.0" xmlns="http://www.w3.org/2000/svg"
 width="450.000000pt" height="253.000000pt" viewBox="0 0 450.000000 253.000000"
 preserveAspectRatio="xMidYMid meet">
<metadata>
Created by potrace 1.16, written by Peter Selinger 2001-2019
</metadata>
<g transform="translate(0.000000,253.000000) scale(0.100000,-0.100000)"
fill="#000000" stroke="none">
<path d="M0 1265 l0 -1265 2250 0 2250 0 0 1265 0 1265 -2250 0 -2250 0 0
-1265z m2603 1162 c18 -7 74 -15 125 -16 74 -2 103 -7 148 -28 67 -31 152
-112 218 -209 52 -77 60 -83 151 -109 33 -9 73 -21 89 -26 24 -7 34 -5 51 11
29 27 78 40 128 34 54 -7 108 -23 127 -39 8 -6 45 -24 81 -39 61 -26 129 -76
129 -96 0 -5 7 -16 16 -25 12 -11 14 -19 6 -27 -6 -6 -8 -17 -5 -24 3 -8 2
-30 -1 -49 -5 -27 -31 -59 -111 -138 -109 -109 -145 -132 -262 -167 -40 -11
-73 -24 -73 -27 0 -2 8 -17 18 -31 46 -67 64 -133 65 -232 0 -110 -15 -154
-65 -193 -18 -15 -42 -34 -53 -44 -11 -10 -24 -17 -29 -15 -5 2 -17 -5 -27
-14 -29 -26 -216 -23 -334 5 -92 22 -110 28 -180 62 l-40 20 -18 -22 c-9 -12
-32 -29 -50 -38 -24 -12 -33 -24 -38 -51 -3 -19 -11 -45 -17 -56 -13 -24 -131
-134 -141 -132 -3 1 -33 -8 -66 -21 -37 -14 -76 -21 -105 -20 -25 2 -51 0 -57
-4 -6 -4 -13 0 -17 8 -3 8 -11 15 -19 15 -24 0 -75 64 -105 135 -51 118 -57
148 -43 210 7 30 17 57 22 60 5 4 9 18 9 32 0 15 8 36 18 47 11 13 12 17 2 10
-26 -19 -72 -23 -195 -13 -130 10 -195 25 -294 70 -72 33 -151 93 -151 115 0
8 -4 14 -9 14 -11 0 -12 71 -1 85 4 6 10 23 14 40 9 38 110 161 148 181 15 8
28 18 28 23 0 5 12 14 28 20 15 6 54 28 86 48 l60 36 -25 16 c-13 9 -49 41
-80 73 -72 71 -122 170 -122 236 1 70 8 97 26 100 9 2 17 7 17 12 0 5 19 15
43 21 23 7 48 17 56 23 7 6 73 12 145 14 104 3 147 0 212 -15 98 -23 173 -22
191 4 52 78 107 122 171 139 61 16 67 16 105 1z"/>
<path d="M2750 1986 c0 -8 4 -17 9 -21 6 -3 9 4 8 15 -1 23 -17 28 -17 6z"/>
<path d="M2769 1945 c-13 -13 -13 -26 -4 -83 11 -61 10 -68 -6 -76 -26 -12 -6
-65 24 -64 33 2 50 18 36 34 -8 10 -7 21 4 44 11 21 12 30 4 30 -7 0 -6 4 3
10 10 6 11 10 3 10 -18 0 -16 20 4 43 16 17 16 20 2 30 -9 7 -16 16 -17 20 -1
15 -12 21 -12 7 0 -9 -3 -10 -13 -2 -10 9 -17 8 -28 -3z"/>
<path d="M2938 1903 c-24 -6 -23 -30 3 -43 17 -9 25 -8 42 7 11 10 17 12 13 6
-5 -9 0 -13 16 -14 13 0 31 -2 40 -4 11 -2 15 2 11 11 -3 8 1 14 8 14 11 0 11
3 -1 10 -8 6 -31 8 -51 4 -22 -3 -40 -1 -44 5 -6 11 -9 12 -37 4z"/>
<path d="M2937 1826 c-3 -7 0 -20 6 -27 7 -7 2 -5 -10 5 -21 17 -23 17 -23 3
0 -10 5 -17 12 -17 9 0 9 -3 0 -12 -7 -7 -16 -8 -24 -2 -7 6 -29 7 -48 3 -32
-6 -33 -6 -6 -8 21 -1 27 -5 22 -17 -8 -20 52 -47 69 -30 10 8 9 13 -2 21 -11
8 -8 13 17 22 26 10 31 9 40 -7 8 -16 5 -23 -17 -37 -36 -23 -54 -45 -48 -60
2 -8 -11 -19 -32 -28 -47 -20 -50 -19 -65 13 -8 15 -21 26 -31 26 -13 -1 -15
2 -8 10 12 14 1 31 -19 30 -8 -1 -21 -2 -27 -3 -7 0 -13 -10 -13 -22 0 -15 -5
-19 -16 -15 -8 3 -12 2 -9 -4 6 -10 -9 -15 -30 -10 -5 1 -1 -8 9 -19 21 -23
39 -19 29 6 -4 11 -3 14 5 9 7 -4 12 -14 12 -22 0 -8 12 -19 26 -24 17 -7 24
-15 20 -25 -4 -10 3 -19 19 -25 26 -10 34 -30 13 -30 -16 0 0 -13 35 -28 18
-8 26 -8 22 -1 -10 15 15 69 31 69 28 0 84 42 84 64 0 12 7 32 16 44 8 12 16
39 18 60 2 37 -19 86 -34 77 -5 -3 -15 1 -23 10 -12 12 -16 12 -20 1z"/>
<path d="M2965 1830 c3 -5 8 -10 11 -10 2 0 4 5 4 10 0 6 -5 10 -11 10 -5 0
-7 -4 -4 -10z"/>
<path d="M2618 1814 c-3 -3 -20 -7 -37 -9 -17 -2 -39 -9 -49 -14 -16 -10 -16
-10 1 -11 15 0 16 -3 6 -21 -8 -15 -17 -19 -32 -15 -66 18 -72 19 -59 5 6 -7
12 -22 12 -32 0 -16 3 -17 15 -7 12 10 16 9 21 -4 3 -9 4 -26 1 -37 -4 -14 -2
-19 8 -15 19 7 27 -5 13 -21 -6 -7 -9 -16 -6 -19 10 -10 53 18 65 41 10 22 9
25 -10 25 -11 0 -17 3 -14 7 4 3 0 11 -9 17 -25 19 -7 45 34 48 30 2 38 8 49
36 11 28 7 42 -9 26z"/>
<path d="M1775 1730 c-3 -5 3 -10 15 -10 12 0 18 5 15 10 -3 6 -10 10 -15 10
-5 0 -12 -4 -15 -10z"/>
<path d="M1704 1679 c-22 -17 -51 -40 -65 -51 -17 -14 -24 -28 -21 -43 2 -12
-4 -29 -13 -39 -9 -9 -18 -22 -19 -29 -2 -13 -38 -75 -54 -93 -7 -7 -4 -16 9
-25 17 -12 17 -14 2 -31 -14 -16 -14 -18 1 -24 9 -4 25 1 35 10 10 9 29 16 43
16 14 0 45 9 69 20 l44 20 -37 0 c-21 0 -38 4 -38 10 0 5 26 36 58 68 67 68
73 82 32 77 -28 -4 -29 -3 -23 28 3 18 21 48 39 67 19 20 34 39 34 43 0 19
-61 4 -96 -24z"/>
<path d="M2328 1633 c7 -3 16 -2 19 1 4 3 -2 6 -13 5 -11 0 -14 -3 -6 -6z"/>
<path d="M2601 1601 c8 -12 22 -24 32 -27 10 -3 16 -11 14 -17 -2 -7 2 -20 11
-29 11 -13 12 -21 3 -31 -15 -18 -4 -27 33 -27 29 -1 29 -2 11 -13 -11 -6 -33
-12 -50 -13 -52 -2 -55 -3 -55 -28 0 -24 -2 -24 -32 -14 -55 18 -63 29 -38 50
26 21 25 23 -11 31 -18 5 -31 2 -39 -8 -7 -8 -20 -15 -30 -15 -10 0 -24 -8
-31 -17 -8 -10 -9 -14 -2 -10 6 4 14 3 18 -2 3 -5 14 -8 25 -6 27 5 46 -20 30
-40 -10 -12 -10 -15 2 -15 17 0 38 -41 38 -74 0 -13 -8 -34 -17 -47 -10 -13
-24 -34 -31 -47 -11 -20 -10 -22 8 -22 17 0 25 14 22 41 -1 3 5 6 13 6 8 0 12
-5 8 -10 -3 -5 3 -7 13 -5 11 2 19 12 20 23 2 40 4 46 14 40 5 -3 21 5 36 18
25 24 144 54 164 42 5 -3 2 8 -6 25 -9 16 -19 32 -24 35 -14 9 -23 -15 -11
-29 12 -14 5 -26 -12 -21 -48 14 -47 11 -20 67 14 29 37 63 52 76 25 22 25 23
7 37 -13 10 -17 21 -12 39 7 29 -19 49 -57 44 -12 -1 -28 2 -36 6 -10 7 -12 6
-6 -4 8 -13 -7 -12 -48 5 -17 7 -18 6 -6 -14z"/>
<path d="M2533 1574 c-8 -21 13 -42 28 -27 13 13 5 43 -11 43 -6 0 -13 -7 -17
-16z"/>
<path d="M2465 1550 c-3 -5 -2 -10 4 -10 5 0 13 5 16 10 3 6 2 10 -4 10 -5 0
-13 -4 -16 -10z"/>
<path d="M2230 1532 c-59 -5 -69 -13 -35 -28 42 -18 53 -17 65 7 14 25 14 25
-30 21z"/>
<path d="M2435 1495 c-19 -15 -19 -15 8 -12 15 2 28 7 28 12 1 16 -16 16 -36
0z"/>
<path d="M2208 1453 c-10 -2 -18 -9 -18 -14 0 -5 8 -9 18 -9 14 0 15 -2 2 -10
-8 -5 -11 -10 -6 -10 5 0 3 -7 -4 -15 -10 -12 -10 -18 0 -29 11 -15 39 -11 51
7 4 5 19 10 33 10 30 0 31 1 41 45 l7 32 -54 -1 c-29 -1 -61 -3 -70 -6z"/>
<path d="M2363 1443 c-13 -5 -19 -53 -7 -53 10 0 42 45 37 52 -5 9 -12 9 -30
1z"/>
<path d="M2751 1434 c0 -11 3 -14 6 -6 3 7 2 16 -1 19 -3 4 -6 -2 -5 -13z"/>
<path d="M2828 1393 c-19 -57 -6 -67 40 -34 25 17 31 18 43 6 8 -8 23 -12 35
-9 20 5 21 7 7 36 -16 32 -19 33 -74 42 -36 6 -36 6 -51 -41z"/>
<path d="M2395 1360 c7 -12 45 -13 63 -2 8 6 -3 9 -28 10 -25 1 -39 -2 -35 -8z"/>
<path d="M2350 1335 c0 -8 7 -15 15 -15 8 0 15 -9 15 -20 0 -13 5 -18 15 -14
12 5 11 11 -8 34 -25 32 -37 37 -37 15z"/>
<path d="M2833 1273 c-9 -3 -10 -10 -3 -23 10 -19 44 -20 63 -1 22 22 -22 40
-60 24z"/>
<path d="M3095 1250 c-3 -5 -1 -10 4 -10 6 0 11 5 11 10 0 6 -2 10 -4 10 -3 0
-8 -4 -11 -10z"/>
<path d="M2956 1232 c-3 -5 1 -9 9 -9 8 0 12 4 9 9 -3 4 -7 8 -9 8 -2 0 -6 -4
-9 -8z"/>
<path d="M2497 1129 c3 -10 13 -17 23 -16 14 1 15 5 7 17 -13 22 -35 21 -30
-1z"/>
<path d="M3349 1127 c0 -1 -2 -18 -4 -37 -3 -30 -2 -33 9 -18 7 10 15 17 17
15 2 -1 3 0 2 2 -2 2 2 10 8 18 6 7 10 13 8 14 -25 5 -39 7 -40 6z m31 -13 c0
-8 -19 -13 -24 -6 -3 5 1 9 9 9 8 0 15 -2 15 -3z"/>
</g>
</svg>
