<?xml version="1.0" standalone="no"?>
<!DOCTYPE svg PUBLIC "-//W3C//DTD SVG 20010904//EN"
 "http://www.w3.org/TR/2001/REC-SVG-20010904/DTD/svg10.dtd">
<svg version="1.0" xmlns="http://www.w3.org/2000/svg"
 width="450.000000pt" height="253.000000pt" viewBox="0 0 450.000000 253.000000"
 preserveAspectRatio="xMidYMid meet">
<metadata>
Created by potrace 1.16, written by Peter Selinger 2001-2019
</metadata>
<g transform="translate(0.000000,253.000000) scale(0.100000,-0.100000)"
fill="#000000" stroke="none">
<path d="M0 1265 l0 -1265 2250 0 2250 0 0 1265 0 1265 -2250 0 -2250 0 0
-1265z m2771 650 c107 -21 273 -105 344 -172 11 -10 28 -22 38 -26 10 -4 16
-11 13 -16 -3 -5 1 -11 9 -15 17 -6 21 -71 5 -81 -6 -4 -8 -11 -5 -16 4 -5 -5
-14 -20 -21 -20 -9 -28 -9 -38 1 -6 7 -7 11 -2 10 17 -5 55 21 55 36 0 8 -8
15 -17 16 -10 0 -27 2 -38 4 -53 10 -80 9 -77 -4 1 -7 -2 -10 -8 -6 -6 3 -8
11 -5 16 4 5 1 9 -4 9 -6 0 -11 -3 -11 -8 0 -4 -9 -13 -21 -20 -12 -8 -19 -9
-15 -4 3 5 -29 9 -77 9 -87 1 -112 4 -124 18 -4 4 -2 5 5 1 18 -10 15 -1 -5
15 -11 10 -14 10 -9 2 4 -7 2 -13 -3 -13 -6 0 -11 4 -11 9 0 5 -7 12 -16 15
-12 5 -14 3 -8 -7 5 -7 2 -5 -7 5 -9 9 -19 15 -21 12 -13 -12 -98 -24 -98 -13
0 4 -9 6 -21 4 -11 -2 -35 6 -52 18 -18 12 -34 23 -36 24 -2 2 0 13 6 26 23
47 23 57 -2 79 l-25 22 22 24 c13 14 16 21 8 16 -15 -9 -35 -14 -57 -16 -18
-2 -16 -24 3 -54 15 -23 15 -26 -1 -44 -9 -10 -24 -16 -32 -13 -12 5 -14 1 -9
-18 6 -20 5 -21 -4 -7 -6 9 -19 15 -30 13 -11 -2 -20 0 -20 6 0 5 5 9 11 9 5
0 8 4 5 8 -8 13 33 74 45 66 7 -4 9 0 5 14 -7 22 -5 23 94 56 67 22 185 27
261 11z m-657 -27 c-3 -4 2 -8 11 -8 9 0 13 4 10 10 -8 13 165 2 182 -11 6 -6
21 -8 32 -4 11 3 23 0 27 -6 9 -15 -20 -36 -90 -64 -46 -18 -51 -23 -48 -48 3
-22 -2 -29 -24 -37 -18 -7 -30 -7 -39 0 -8 7 -14 7 -17 1 -1 -5 -16 -13 -32
-17 -24 -6 -28 -4 -23 9 10 27 -16 39 -44 20 -13 -9 -27 -22 -31 -27 -5 -8 -8
-8 -8 0 0 6 9 19 20 29 24 22 17 35 -20 35 -24 0 -27 3 -23 21 5 19 3 21 -26
17 -22 -3 -28 -1 -21 6 15 15 12 23 -11 29 -12 3 -18 10 -15 15 7 12 -15 21
-52 23 -24 1 -23 3 8 9 46 10 240 9 234 -2z m-271 -20 c9 -7 21 -28 26 -46 9
-31 9 -32 -17 -28 -15 2 -40 5 -56 5 -22 1 -26 4 -17 14 8 10 7 17 -2 26 -9
10 -8 15 7 27 24 17 37 18 59 2z m-88 -119 c-1 -13 -3 -30 -4 -37 -1 -9 -8
-11 -20 -7 -21 6 -61 -13 -61 -29 0 -5 8 -2 18 7 20 19 34 13 25 -9 -4 -12 0
-11 23 1 16 8 34 15 40 15 6 0 21 12 35 26 33 35 56 47 56 29 0 -8 -4 -12 -8
-9 -12 7 -39 -25 -33 -41 6 -14 21 -12 64 13 25 14 25 14 3 -3 -13 -10 -23
-24 -23 -31 0 -17 5 -17 32 -3 11 6 22 8 25 6 3 -3 -9 -13 -26 -22 -17 -9 -31
-11 -31 -5 0 17 -133 12 -156 -6 -10 -8 -12 -12 -4 -8 13 7 13 6 0 -10 -8 -10
-15 -24 -16 -32 -2 -11 2 -11 19 1 13 9 42 15 72 14 l50 -1 -45 -11 c-25 -5
-47 -12 -49 -14 -8 -6 32 -43 46 -43 7 0 13 -4 13 -10 0 -5 -24 -11 -52 -11
-46 -1 -49 -2 -19 -8 26 -5 36 -12 42 -32 3 -15 3 -33 -2 -40 -4 -7 -6 -16 -3
-20 2 -4 0 -10 -6 -14 -5 -3 -10 -18 -11 -33 0 -15 -3 -21 -6 -14 -6 15 -33
16 -33 1 0 -12 -42 -2 -51 13 -3 5 -10 10 -15 10 -25 0 -34 19 -37 78 -6 95
13 159 78 265 43 71 47 75 60 61 7 -7 11 -23 10 -37z m630 -19 c-3 -5 -12 -10
-18 -10 -7 0 -6 4 3 10 19 12 23 12 15 0z m-395 -156 c0 -8 -5 -12 -10 -9 -6
4 -8 11 -5 16 9 14 15 11 15 -7z m-363 -216 c2 -18 0 -20 -7 -8 -12 18 -13 30
-2 30 4 0 9 -10 9 -22z"/>
<path d="M2423 1815 c0 -8 4 -12 9 -9 5 3 6 10 3 15 -9 13 -12 11 -12 -6z"/>
<path d="M2790 1745 c89 -29 80 -28 80 -13 0 6 -3 9 -6 5 -4 -3 -13 0 -21 8
-8 8 -29 15 -46 15 -18 0 -43 2 -57 5 -14 3 9 -6 50 -20z"/>
<path d="M2158 1883 c7 -3 16 -2 19 1 4 3 -2 6 -13 5 -11 0 -14 -3 -6 -6z"/>
<path d="M2045 1869 c-4 -5 3 -8 14 -6 28 4 34 12 11 14 -11 1 -22 -2 -25 -8z"/>
<path d="M2228 1873 c7 -3 16 -2 19 1 4 3 -2 6 -13 5 -11 0 -14 -3 -6 -6z"/>
<path d="M2150 1839 c0 -5 5 -7 10 -4 6 3 10 8 10 11 0 2 -4 4 -10 4 -5 0 -10
-5 -10 -11z"/>
<path d="M1733 1478 c-25 -32 -26 -40 -4 -29 11 7 21 18 21 26 0 18 -5 19 -17
3z"/>
</g>
</svg>
