<?xml version="1.0" standalone="no"?>
<!DOCTYPE svg PUBLIC "-//W3C//DTD SVG 20010904//EN"
 "http://www.w3.org/TR/2001/REC-SVG-20010904/DTD/svg10.dtd">
<svg version="1.0" xmlns="http://www.w3.org/2000/svg"
 width="450.000000pt" height="253.000000pt" viewBox="0 0 450.000000 253.000000"
 preserveAspectRatio="xMidYMid meet">
<metadata>
Created by potrace 1.16, written by Peter Selinger 2001-2019
</metadata>
<g transform="translate(0.000000,253.000000) scale(0.100000,-0.100000)"
fill="#000000" stroke="none">
<path d="M0 1265 l0 -1265 2250 0 2250 0 0 1265 0 1265 -2250 0 -2250 0 0
-1265z m2982 677 c31 -10 83 -34 115 -53 55 -33 193 -155 193 -172 0 -4 9 -21
21 -36 19 -26 20 -32 8 -67 -8 -22 -23 -47 -34 -56 -39 -33 -168 -99 -182 -94
-8 3 -11 1 -8 -4 3 -6 0 -10 -7 -11 -7 0 -21 -2 -30 -4 -10 -2 -18 -2 -18 0 0
7 75 50 83 47 5 -1 23 6 40 17 18 11 37 20 42 22 34 7 56 24 51 41 -3 15 -2
17 9 8 11 -9 13 -7 9 16 -5 25 -3 26 12 13 15 -12 17 -12 12 1 -3 11 -20 15
-66 15 -35 0 -62 4 -62 10 0 6 -5 2 -11 -7 -5 -10 -19 -18 -30 -18 -12 0 -17
4 -13 11 3 6 -6 3 -22 -7 -15 -11 -25 -13 -21 -6 5 8 2 12 -8 12 -10 0 -13 -5
-9 -12 5 -7 3 -8 -6 -3 -18 11 -76 14 -92 4 -7 -4 -17 -4 -23 1 -6 5 -22 10
-35 12 -14 2 -31 7 -39 12 -9 6 -12 5 -8 -1 13 -20 -74 -8 -91 13 -12 15 -14
16 -9 2 3 -10 1 -20 -5 -24 -6 -4 -8 -3 -5 3 4 6 0 16 -7 22 -11 10 -17 8 -25
-6 -6 -10 -11 -12 -11 -5 0 15 -30 16 -30 1 0 -5 6 -7 13 -3 6 4 5 -1 -5 -11
-16 -18 -39 -13 -37 8 0 9 2 9 6 0 2 -7 9 -13 14 -13 4 0 6 7 2 16 -3 9 -13
14 -24 11 -11 -3 -17 -1 -14 3 3 5 -1 15 -9 23 -8 8 -13 17 -10 20 3 3 -6 13
-21 23 -18 12 -23 20 -16 27 6 6 11 22 10 37 0 14 -3 19 -6 13 -2 -7 -11 -13
-18 -13 -8 0 -17 -5 -21 -12 -5 -7 -3 -8 6 -3 9 6 11 4 6 -4 -6 -9 -12 -9 -25
3 -16 14 -19 14 -39 -4 -12 -12 -22 -18 -22 -14 0 3 -11 -1 -25 -10 -46 -30
-30 13 28 75 66 72 166 132 247 150 58 13 210 3 272 -19z m-675 -51 c9 -13 6
-18 -19 -28 -17 -8 -28 -16 -25 -20 4 -3 13 0 21 6 12 10 14 8 9 -11 -4 -18
-3 -20 6 -8 9 12 11 9 11 -15 0 -58 -10 -74 -49 -80 -20 -3 -49 -10 -64 -15
-25 -8 -27 -6 -22 10 5 15 0 21 -19 26 -14 3 -26 10 -26 14 0 5 -10 12 -22 16
-28 8 -55 34 -37 34 7 0 10 2 8 5 -8 7 -49 -7 -44 -15 3 -5 1 -11 -4 -14 -17
-11 -22 12 -6 27 13 13 13 16 0 27 -8 7 -15 19 -15 27 0 10 -10 13 -37 11 -39
-3 -42 -9 -32 -63 3 -16 -2 -20 -30 -19 -29 0 -34 3 -37 26 -2 25 14 49 40 55
67 17 112 21 236 21 120 -1 147 -4 157 -17z m128 0 c3 -5 1 -12 -5 -16 -6 -4
-8 -10 -5 -15 3 -5 -10 -13 -28 -19 -52 -18 -77 -21 -77 -10 0 9 14 13 36 10
6 -1 17 6 24 14 10 13 9 15 -11 15 -29 0 -14 17 21 23 14 2 28 5 32 6 4 0 9
-3 13 -8z m44 -18 c-10 -11 -14 -11 -20 -1 -14 21 -10 26 11 21 16 -4 18 -8 9
-20z m-538 -116 c-6 -8 -8 -17 -4 -20 3 -4 1 -7 -5 -7 -7 0 -12 -7 -12 -15 0
-8 9 -15 20 -15 11 0 20 -4 20 -9 0 -14 -27 -21 -80 -21 -30 0 -52 -5 -60 -15
-7 -8 -9 -15 -6 -15 4 0 2 -9 -4 -19 -9 -18 -8 -19 22 -10 35 10 115 13 106 4
-8 -8 -49 -17 -75 -17 -20 0 -20 -2 -7 -34 l14 -34 -32 -1 c-31 0 -32 -1 -11
-11 l22 -11 -31 -40 c-26 -32 -28 -38 -11 -28 12 6 24 11 27 11 13 0 5 -28
-19 -62 -24 -35 -37 -41 -62 -25 -7 5 -13 -1 -15 -15 -3 -13 -5 -3 -6 22 -4
82 -3 165 2 180 13 47 19 59 32 64 8 3 14 16 14 29 0 14 7 30 15 37 11 9 15 9
15 1 0 -8 8 -6 23 4 13 8 26 13 29 9 3 -3 23 13 44 35 37 39 58 55 35 28z
m132 -23 c-6 -17 -6 -17 -22 14 -12 22 -11 23 8 13 12 -7 18 -17 14 -27z m437
32 c0 -2 -8 -10 -17 -17 -16 -13 -17 -12 -4 4 13 16 21 21 21 13z m-666 -20
c-7 -19 -34 -29 -34 -12 0 7 3 16 7 19 12 13 32 7 27 -7z m165 -20 c-2 -2 -15
-6 -29 -10 -25 -6 -25 -6 -2 5 12 7 22 17 23 23 0 6 3 5 6 -2 3 -7 3 -15 2
-16z m19 -65 c-3 -12 -13 -15 -38 -13 -50 4 -59 19 -19 30 41 11 61 5 57 -17z
m987 -221 c-3 -5 -1 -10 5 -10 6 0 8 -4 5 -10 -3 -5 -16 -10 -27 -10 -20 0
-21 1 -3 20 19 21 30 27 20 10z"/>
<path d="M2550 1847 c0 -23 5 -34 15 -34 12 0 12 3 2 16 -7 9 -8 12 -1 8 7 -4
12 2 12 18 0 15 -6 25 -14 25 -9 0 -14 -12 -14 -33z"/>
<path d="M2525 1841 c-3 -5 -1 -12 5 -16 5 -3 10 1 10 9 0 18 -6 21 -15 7z"/>
<path d="M2950 1630 c-8 -5 -12 -12 -9 -15 4 -3 12 1 19 10 14 17 11 19 -10 5z"/>
</g>
</svg>
