<?xml version="1.0" standalone="no"?>
<!DOCTYPE svg PUBLIC "-//W3C//DTD SVG 20010904//EN"
 "http://www.w3.org/TR/2001/REC-SVG-20010904/DTD/svg10.dtd">
<svg version="1.0" xmlns="http://www.w3.org/2000/svg"
 width="450.000000pt" height="253.000000pt" viewBox="0 0 450.000000 253.000000"
 preserveAspectRatio="xMidYMid meet">
<metadata>
Created by potrace 1.16, written by Peter Selinger 2001-2019
</metadata>
<g transform="translate(0.000000,253.000000) scale(0.100000,-0.100000)"
fill="#000000" stroke="none">
<path d="M0 1265 l0 -1265 2250 0 2250 0 0 1265 0 1265 -2250 0 -2250 0 0
-1265z m3051 699 c147 -44 279 -146 332 -258 23 -49 26 -64 18 -88 -16 -45
-97 -142 -139 -165 -92 -52 -237 -123 -251 -123 -13 0 -14 2 -2 9 11 7 9 11
-8 20 -11 7 -21 9 -21 6 0 -4 -14 4 -32 16 -17 13 -28 17 -24 10 6 -10 3 -11
-13 -6 l-21 6 21 -38 c11 -21 15 -31 7 -23 -7 9 -21 14 -30 12 -10 -2 -18 2
-18 8 0 6 4 9 9 5 5 -3 12 -1 15 4 4 5 2 12 -4 16 -6 4 -8 10 -5 15 3 5 -3 7
-13 5 -11 -2 -19 3 -19 10 0 8 5 11 11 7 18 -11 39 -11 78 -3 26 6 45 5 62 -5
15 -7 26 -11 26 -9 0 3 12 0 26 -6 33 -12 62 -4 60 17 -1 17 0 18 86 59 39 18
55 31 51 41 -3 8 -10 11 -16 7 -6 -4 -8 0 -4 11 4 9 3 15 -1 12 -19 -11 -71
-15 -77 -6 -4 6 -10 8 -15 5 -5 -3 -20 1 -34 10 -25 16 -126 28 -126 15 0 -4
-12 -8 -27 -7 -33 0 -78 -9 -94 -19 -7 -4 -9 -3 -6 3 4 6 0 14 -9 17 -10 4
-13 2 -9 -7 4 -6 0 -4 -8 6 -15 18 -23 21 -102 32 -25 4 -52 14 -60 22 -8 7
-18 13 -22 13 -4 -1 -9 4 -12 11 -2 8 1 9 10 3 11 -6 12 -5 3 7 -5 8 -10 21
-10 29 1 8 -9 24 -22 37 l-22 22 19 38 c11 21 21 47 23 58 3 17 -2 20 -32 17
l-35 -4 55 42 c58 44 121 76 180 90 61 14 193 11 251 -6z m-671 -54 c-11 -7
-5 -10 25 -10 29 0 36 3 25 10 -13 8 -12 10 3 10 9 0 17 -4 17 -10 0 -5 5 -10
11 -10 5 0 7 6 3 13 -6 8 -3 8 9 -1 9 -8 22 -10 28 -6 9 5 10 2 6 -10 -4 -9
-3 -15 2 -11 5 3 11 2 14 -2 2 -5 2 -3 1 4 -4 18 28 25 44 9 12 -12 10 -15
-19 -25 -85 -27 -157 -39 -169 -27 -8 8 -10 7 -5 -6 5 -12 2 -18 -6 -18 -8 0
-27 -9 -44 -21 -24 -16 -26 -19 -7 -14 18 5 22 2 22 -14 0 -21 -13 -26 -58
-22 -13 1 -31 -4 -40 -11 -9 -7 -13 -8 -10 -3 11 17 -21 47 -64 61 -10 4 -18
15 -18 25 0 11 -5 16 -14 13 -12 -5 -28 16 -30 41 -1 6 -11 11 -24 13 -20 3
-22 0 -18 -25 5 -25 4 -26 -8 -10 -23 30 -9 54 31 55 20 1 37 3 39 5 2 1 63 4
136 5 93 2 128 0 118 -8z m-343 -35 c0 -8 -4 -12 -9 -9 -10 7 -10 1 1 -29 9
-23 7 -25 -20 -23 -36 1 -48 29 -23 57 20 22 51 25 51 4z m80 -50 c14 -23 16
-35 5 -35 -4 0 -16 14 -26 30 -12 22 -14 30 -4 28 7 -2 18 -12 25 -23z m464
-18 c-10 -9 -11 -8 -5 6 3 10 9 15 12 12 3 -3 0 -11 -7 -18z m-87 -42 c-4 -8
-11 -12 -16 -9 -6 4 -5 10 3 15 19 12 19 11 13 -6z m-394 -16 c0 -5 -9 -18
-20 -29 -27 -27 -27 -44 0 -30 21 11 22 10 35 -37 3 -9 -3 -10 -21 -2 -14 5
-29 7 -34 4 -4 -3 -11 2 -14 11 -3 9 -12 14 -19 11 -6 -2 -21 3 -31 12 -11 9
-16 11 -13 5 4 -7 -4 -14 -21 -17 l-27 -5 24 19 c19 16 62 25 94 20 4 0 7 4 7
10 0 5 5 7 11 3 9 -5 10 1 5 19 -5 21 -3 25 9 21 8 -4 15 -10 15 -15z m60 2
c0 -6 -4 -13 -10 -16 -5 -3 -10 1 -10 9 0 9 5 16 10 16 6 0 10 -4 10 -9z
m-211 -136 c39 12 110 14 117 3 4 -6 3 -8 -3 -5 -5 3 -28 1 -51 -5 -38 -10
-41 -12 -35 -39 5 -25 2 -29 -15 -29 -12 0 -24 -4 -27 -10 -3 -5 3 -10 15 -10
20 0 20 -1 -4 -37 -27 -39 -27 -56 -1 -29 23 22 25 20 15 -13 -11 -40 -29 -71
-41 -71 -6 0 -8 -4 -5 -9 4 -5 -3 -7 -13 -4 -11 3 -17 11 -15 18 3 7 1 16 -5
20 -25 15 -3 202 25 218 8 4 15 22 16 40 1 30 2 29 5 -6 4 -31 8 -37 22 -32z
m1161 -85 c0 -5 -2 -10 -4 -10 -3 0 -8 5 -11 10 -3 6 -1 10 4 10 6 0 11 -4 11
-10z m-397 -43 c9 -1 17 -5 17 -10 0 -4 4 -6 9 -2 5 3 12 1 15 -4 4 -5 -2 -8
-11 -6 -10 1 -24 -3 -32 -9 -11 -8 -13 -8 -8 1 4 6 3 14 -2 17 -5 4 -8 -5 -7
-19 3 -20 0 -23 -15 -15 -40 22 -47 60 -10 53 14 -2 34 -5 44 -6z m55 -88 c-9
-6 -6 -9 12 -9 16 0 21 -3 14 -10 -11 -11 -64 2 -64 15 0 4 5 3 10 0 6 -3 10
1 10 9 0 10 6 13 16 9 13 -5 13 -7 2 -14z m94 -14 c3 3 11 -2 19 -12 8 -9 9
-14 2 -10 -6 4 -15 2 -18 -3 -5 -8 -13 -6 -24 4 -10 9 -21 13 -24 10 -4 -4 1
-13 11 -21 15 -13 15 -13 -5 -3 -27 13 -28 14 -7 35 11 11 20 13 28 5 7 -5 15
-8 18 -5z m-55 -58 l33 -22 -27 -3 c-15 -2 -29 1 -31 7 -2 6 -10 11 -18 11 -8
0 -14 2 -14 4 0 2 -3 12 -7 22 -5 14 -3 16 13 10 10 -4 34 -17 51 -29z"/>
<path d="M2635 1870 c-3 -6 1 -7 9 -4 18 7 21 14 7 14 -6 0 -13 -4 -16 -10z"/>
<path d="M3278 1582 c-8 -9 -8 -13 -1 -9 6 4 13 3 15 -2 1 -5 8 -3 15 4 10 10
9 14 -2 19 -7 2 -19 -3 -27 -12z"/>
<path d="M2368 1877 c-30 -12 -35 -22 -16 -33 7 -4 8 -3 4 4 -5 8 2 12 19 12
18 0 24 -4 19 -12 -6 -10 -5 -10 8 -1 8 7 18 10 22 6 4 -4 4 1 0 12 -7 17 -6
18 8 7 13 -10 18 -10 24 -1 4 8 3 9 -4 5 -7 -4 -12 -2 -12 3 0 14 -36 12 -72
-2z"/>
<path d="M1938 1603 c-10 -2 -18 -9 -18 -14 0 -6 8 -5 20 1 11 6 20 13 20 15
0 3 -1 4 -2 4 -2 -1 -11 -3 -20 -6z"/>
</g>
</svg>
