<?xml version="1.0" standalone="no"?>
<!DOCTYPE svg PUBLIC "-//W3C//DTD SVG 20010904//EN"
 "http://www.w3.org/TR/2001/REC-SVG-20010904/DTD/svg10.dtd">
<svg version="1.0" xmlns="http://www.w3.org/2000/svg"
 width="450.000000pt" height="253.000000pt" viewBox="0 0 450.000000 253.000000"
 preserveAspectRatio="xMidYMid meet">
<metadata>
Created by potrace 1.16, written by Peter Selinger 2001-2019
</metadata>
<g transform="translate(0.000000,253.000000) scale(0.100000,-0.100000)"
fill="#000000" stroke="none">
<path d="M0 1265 l0 -1265 2250 0 2250 0 0 1265 0 1265 -2250 0 -2250 0 0
-1265z m2813 1223 c97 -20 222 -132 272 -243 33 -72 99 -165 116 -165 10 0 53
-12 97 -26 l79 -26 28 26 c25 23 36 26 99 26 67 -1 79 -5 196 -63 146 -73 177
-105 175 -185 -2 -58 -21 -96 -73 -144 -22 -21 -46 -45 -54 -55 -14 -19 -70
-65 -122 -99 -17 -11 -65 -31 -106 -44 -41 -13 -78 -25 -82 -27 -5 -2 1 -21
11 -41 65 -123 65 -122 65 -237 0 -94 -4 -116 -22 -152 -12 -24 -35 -50 -50
-60 -15 -9 -32 -23 -39 -31 -6 -7 -18 -15 -26 -16 -8 -1 -22 -8 -31 -15 -38
-32 -334 5 -443 55 -17 8 -34 14 -38 14 -4 0 -20 9 -35 20 l-29 21 -11 -21
c-6 -11 -28 -29 -49 -39 -34 -18 -39 -25 -43 -65 -7 -59 -64 -127 -141 -167
-32 -16 -56 -33 -53 -37 4 -8 -12 -10 -118 -14 l-69 -3 -48 45 c-66 62 -129
195 -129 272 0 34 7 68 20 93 11 22 20 49 20 61 0 21 -4 22 -87 22 -179 0
-349 40 -474 111 -74 42 -101 105 -65 156 7 11 17 31 21 45 14 44 106 158 164
202 31 24 62 49 69 56 7 6 18 12 23 12 6 0 17 7 25 15 8 8 23 19 32 25 15 9
15 12 -8 28 -62 43 -149 141 -175 197 -32 69 -39 111 -31 169 7 45 15 51 116
88 87 32 271 36 380 10 73 -18 164 -23 174 -11 1 2 19 33 39 69 19 36 46 74
59 85 35 30 92 71 108 78 20 8 203 -2 263 -15z m-316 -1940 c-3 -8 -6 -5 -6 6
-1 11 2 17 5 13 3 -3 4 -12 1 -19z m0 -70 c-3 -8 -6 -5 -6 6 -1 11 2 17 5 13
3 -3 4 -12 1 -19z"/>
<path d="M2824 1953 c3 -6 -1 -17 -9 -23 -15 -13 -14 -25 4 -59 7 -12 11 -32
8 -42 -3 -10 -1 -19 3 -19 5 0 2 -12 -6 -27 -7 -16 -14 -33 -14 -39 0 -19 43
-25 60 -9 13 13 12 15 -3 15 -9 0 -17 5 -17 11 0 5 -4 7 -10 4 -5 -3 -10 -1
-10 6 0 8 10 9 31 5 17 -3 38 -6 46 -6 13 0 13 -3 2 -17 -7 -10 -9 -15 -5 -11
5 4 14 0 21 -9 17 -23 69 -10 56 15 -8 14 -4 17 25 18 40 2 46 -19 12 -37 -34
-17 -54 -42 -50 -60 4 -21 -54 -52 -80 -43 -15 4 -17 9 -7 20 6 8 8 14 3 14
-5 0 -20 10 -34 21 -21 17 -22 20 -5 15 20 -6 20 -6 1 9 -12 9 -29 12 -40 9
-26 -8 -24 -5 -26 -29 -5 -49 1 -66 28 -76 15 -6 22 -13 15 -16 -6 -2 -23 3
-36 11 -13 9 -28 13 -32 9 -5 -5 -3 0 4 10 10 12 11 21 4 28 -7 7 -15 5 -24
-8 -28 -36 -46 -45 -69 -33 -38 20 -34 2 4 -21 25 -14 34 -25 27 -32 -6 -6 -5
-15 5 -24 10 -11 12 -19 4 -27 -12 -16 -3 -26 23 -26 16 0 17 -3 7 -14 -6 -8
-17 -13 -24 -10 -23 9 -66 -14 -66 -36 0 -23 2 -23 -39 -9 -37 13 -39 26 -8
54 12 11 21 19 19 19 -1 -1 -19 2 -38 6 -19 4 -34 4 -34 -1 0 -5 -16 -15 -35
-23 -19 -8 -35 -20 -35 -26 0 -6 4 -9 9 -6 5 4 21 2 36 -4 22 -8 26 -15 21
-34 -4 -16 1 -29 14 -41 21 -19 27 -64 11 -81 -5 -5 -18 -25 -29 -44 l-19 -36
22 -11 c22 -10 23 -8 20 18 -4 29 8 39 20 19 5 -8 11 -7 21 1 7 6 12 15 9 19
-8 13 6 40 21 40 8 0 14 6 14 14 0 8 5 18 12 22 7 5 8 3 3 -5 -5 -9 -2 -10 11
-3 55 30 99 43 125 40 16 -3 28 -2 26 1 -2 3 -9 21 -16 39 -7 17 -17 32 -23
32 -5 0 -6 -4 -3 -10 3 -5 2 -10 -3 -10 -6 0 -8 -8 -5 -19 3 -11 -2 -21 -13
-25 -23 -9 -41 9 -27 26 5 7 22 43 38 81 15 37 31 67 36 67 4 0 5 10 1 22 -5
20 -3 21 60 14 60 -6 69 -4 107 21 24 16 41 34 41 46 0 10 10 33 22 49 26 38
31 94 11 125 -14 20 -14 23 0 23 8 0 17 6 20 14 4 10 0 12 -15 8 -13 -3 -19
-1 -15 5 3 5 0 19 -8 30 -18 25 -71 20 -78 -8 -3 -10 -2 -18 2 -17 3 1 21 -2
40 -6 l34 -8 -34 -16 c-19 -8 -37 -15 -40 -14 -4 1 -6 -6 -5 -16 1 -13 -9 -18
-41 -20 -32 -2 -43 0 -43 11 0 8 7 17 15 21 8 3 15 10 15 16 0 6 -4 8 -10 5
-5 -3 -12 5 -16 19 -7 30 13 55 40 48 12 -3 17 -1 12 6 -3 6 -15 9 -27 7 -15
-3 -21 3 -25 24 -5 23 -11 28 -30 27 -14 0 -22 -6 -20 -13z"/>
<path d="M3067 1886 c-12 -9 -14 -16 -8 -21 6 -3 11 -3 11 1 0 3 7 1 15 -6 8
-7 15 -11 16 -9 10 54 2 62 -34 35z"/>
<path d="M2890 1860 c-9 -6 -10 -10 -3 -10 6 0 15 5 18 10 8 12 4 12 -15 0z"/>
<path d="M3095 1830 c3 -5 8 -10 11 -10 2 0 4 5 4 10 0 6 -5 10 -11 10 -5 0
-7 -4 -4 -10z"/>
<path d="M2660 1810 c-14 -4 -38 -11 -54 -15 -19 -4 -25 -9 -18 -14 9 -5 9
-12 -2 -26 -14 -19 -15 -19 -53 0 -57 29 -60 30 -35 5 16 -15 22 -30 19 -46
-3 -19 -2 -22 9 -13 18 15 37 1 31 -22 -3 -12 0 -19 9 -19 17 0 17 -5 4 -31
-14 -26 9 -26 36 1 42 43 46 50 26 50 -10 0 -27 9 -37 20 -18 20 -18 21 1 35
10 8 33 15 50 15 32 0 44 14 49 53 2 19 1 19 -35 7z"/>
<path d="M1910 1756 c0 -2 7 -7 16 -10 8 -3 12 -2 9 4 -6 10 -25 14 -25 6z"/>
<path d="M1875 1730 c-9 -10 -20 -19 -24 -18 -20 2 -22 -4 -8 -19 14 -17 13
-18 -19 -20 -19 -1 -32 3 -29 8 13 20 -10 7 -40 -24 -25 -26 -31 -40 -30 -72
2 -31 6 -40 21 -41 10 -1 25 -2 32 -3 16 -1 10 -25 -6 -27 -7 -1 -18 -2 -26
-3 -8 0 -27 -12 -42 -24 -26 -23 -27 -25 -11 -48 23 -33 22 -36 -22 -59 -68
-34 -67 -53 1 -52 64 2 78 4 72 14 -5 7 11 12 19 6 2 -2 11 5 20 14 10 9 44
27 77 39 33 12 60 23 60 25 0 2 -20 2 -46 0 -31 -2 -42 0 -35 7 16 16 13 30
-4 23 -21 -8 -19 -1 8 26 13 13 24 26 25 31 1 4 2 8 3 10 6 20 5 38 -2 43 -5
3 -7 9 -4 13 2 5 -7 13 -20 19 -16 7 -23 17 -19 27 3 8 10 12 15 9 5 -3 9 1 9
8 0 7 9 24 20 38 11 14 20 33 20 43 0 11 4 15 12 11 7 -4 8 -3 4 4 -9 16 -10
15 -31 -8z"/>
<path d="M2690 1630 c0 -5 5 -10 11 -10 5 0 7 5 4 10 -3 6 -8 10 -11 10 -2 0
-4 -4 -4 -10z"/>
<path d="M2527 1573 c-15 -29 -16 -33 -2 -33 18 0 28 21 23 47 -3 14 -8 11
-21 -14z"/>
<path d="M2587 1577 c-3 -7 1 -20 7 -29 11 -15 13 -15 24 3 7 11 10 24 7 29
-9 14 -32 12 -38 -3z"/>
<path d="M2296 1531 c-45 -5 -48 -7 -32 -21 26 -20 38 -19 65 7 13 13 22 22
20 21 -2 0 -26 -4 -53 -7z"/>
<path d="M2490 1500 c-11 -7 -7 -10 18 -10 17 0 32 5 32 10 0 13 -30 13 -50 0z"/>
<path d="M2925 1480 c-4 -6 -15 -8 -25 -5 -23 7 -31 -5 -34 -54 -1 -22 -8 -47
-15 -55 -20 -24 6 -21 47 4 26 16 37 18 48 9 7 -6 20 -9 27 -6 22 8 0 117 -24
117 -10 0 -21 -5 -24 -10z"/>
<path d="M2305 1460 c-11 -4 -26 -5 -34 -2 -11 4 -11 1 -2 -16 8 -15 9 -28 2
-41 -15 -26 -1 -34 23 -14 20 17 20 17 7 0 -13 -17 -12 -17 20 -12 19 3 40 12
48 20 12 12 12 16 0 31 -8 10 -9 15 -3 11 7 -4 17 -1 23 7 9 11 7 15 -9 19
-11 3 -20 0 -20 -6 0 -8 -3 -8 -8 -2 -9 13 -22 14 -47 5z"/>
<path d="M2780 1451 c0 -6 4 -12 8 -15 5 -3 9 1 9 9 0 8 -4 15 -9 15 -4 0 -8
-4 -8 -9z"/>
<path d="M2401 1431 c-6 -10 -8 -21 -5 -24 9 -9 55 24 48 34 -9 15 -33 10 -43
-10z"/>
<path d="M2440 1372 c0 -15 22 -20 50 -11 14 4 18 8 10 8 -8 1 -25 4 -37 7
-13 4 -23 2 -23 -4z"/>
<path d="M2382 1350 c7 -11 18 -20 25 -20 7 0 13 -6 13 -14 0 -15 29 -30 39
-20 7 7 -64 74 -79 74 -6 0 -5 -8 2 -20z"/>
<path d="M2873 1290 c-18 -7 -20 -14 -14 -37 9 -32 36 -37 64 -12 39 36 3 71
-50 49z"/>
<path d="M2796 1202 c-3 -5 1 -9 9 -9 8 0 15 4 15 9 0 4 -4 8 -9 8 -6 0 -12
-4 -15 -8z"/>
<path d="M2560 1151 c0 -7 -4 -9 -10 -6 -6 3 -7 -1 -4 -9 3 -9 15 -16 26 -16
18 0 19 2 7 18 -7 9 -15 19 -16 21 -2 2 -3 -1 -3 -8z"/>
<path d="M3367 1097 c-3 -8 1 -14 8 -14 7 0 11 6 8 14 -3 7 -6 13 -8 13 -2 0
-5 -6 -8 -13z"/>
</g>
</svg>
