<?xml version="1.0" standalone="no"?>
<!DOCTYPE svg PUBLIC "-//W3C//DTD SVG 20010904//EN"
 "http://www.w3.org/TR/2001/REC-SVG-20010904/DTD/svg10.dtd">
<svg version="1.0" xmlns="http://www.w3.org/2000/svg"
 width="450.000000pt" height="253.000000pt" viewBox="0 0 450.000000 253.000000"
 preserveAspectRatio="xMidYMid meet">
<metadata>
Created by potrace 1.16, written by Peter Selinger 2001-2019
</metadata>
<g transform="translate(0.000000,253.000000) scale(0.100000,-0.100000)"
fill="#000000" stroke="none">
<path d="M0 1265 l0 -1265 2250 0 2250 0 0 1265 0 1265 -2250 0 -2250 0 0
-1265z m2585 606 c4 -9 0 -11 -12 -6 -31 13 -72 8 -85 -10 -5 -6 -8 -5 -8 3 0
6 -5 12 -11 12 -5 0 -7 -5 -3 -12 4 -7 3 -8 -5 -4 -6 4 -24 0 -39 -10 -51 -35
-87 -51 -104 -48 -10 1 -21 -3 -25 -8 -3 -7 -1 -8 5 -4 7 4 12 3 12 -2 0 -5
-9 -12 -21 -15 -15 -4 -19 -2 -15 9 8 21 -2 17 -14 -7 -8 -14 -8 -24 -1 -33
17 -21 10 -54 -12 -48 -11 3 -16 10 -13 19 4 10 -4 9 -28 -7 -19 -11 -37 -17
-40 -11 -3 5 -1 11 6 13 8 3 6 7 -5 11 -10 4 -17 2 -17 -6 0 -8 -3 -8 -8 -1
-9 14 -76 44 -97 44 -9 0 -13 5 -10 10 3 6 0 10 -7 10 -10 0 -9 3 2 9 8 6 17
8 21 5 4 -2 10 0 14 6 8 13 -30 13 -54 1 -9 -5 -23 -6 -29 -2 -9 5 -5 12 13
21 14 7 25 17 25 21 0 6 -63 32 -82 34 -3 0 -10 3 -14 8 -4 4 31 7 77 7 55 0
79 -3 69 -9 -8 -6 -17 -8 -21 -5 -4 2 -10 0 -14 -6 -7 -12 6 -17 55 -24 19 -2
37 -5 39 -5 2 -1 -3 -9 -10 -18 -12 -16 -12 -17 1 -7 8 7 43 11 77 10 38 -1
59 3 56 9 -2 5 3 1 13 -10 13 -15 15 -16 11 -3 -3 9 -1 19 6 22 7 3 -5 5 -25
3 -21 -1 -43 4 -50 11 -9 9 -16 8 -30 -5 -10 -9 -18 -11 -18 -5 0 18 32 29 65
22 40 -8 82 -1 63 11 -9 6 -6 9 10 9 13 0 21 -4 18 -8 -3 -5 1 -9 9 -9 8 0 12
4 9 9 -3 4 12 5 33 1 21 -3 49 -5 63 -4 14 1 37 3 53 4 15 1 27 5 27 9 0 14
69 4 75 -11z m140 -10 c36 -16 60 -24 68 -23 4 1 7 -2 7 -8 0 -5 9 -10 19 -10
27 0 112 -46 103 -55 -4 -5 1 -5 11 -2 9 4 17 3 17 -1 0 -4 17 -16 38 -27 58
-31 102 -75 102 -102 0 -30 -17 -63 -32 -63 -7 0 -7 4 1 13 6 8 7 18 3 22 -4
5 -1 5 6 1 6 -4 12 -3 12 2 0 17 -13 22 -27 10 -10 -8 -12 -8 -8 3 4 11 -12
14 -85 14 -49 0 -90 3 -90 8 0 4 -8 11 -17 14 -10 4 -33 22 -50 40 -36 36 -49
42 -39 17 6 -14 0 -16 -41 -10 -27 3 -58 8 -70 10 -13 3 -23 1 -23 -5 0 -5 9
-9 20 -9 11 0 20 -5 20 -12 0 -6 -3 -9 -6 -5 -3 3 -23 -1 -44 -8 -21 -7 -40
-11 -43 -9 -9 10 -44 12 -57 4 -8 -5 -25 -3 -42 6 -15 8 -28 11 -28 8 0 -4 -3
-5 -6 -2 -6 7 24 58 40 70 6 4 -2 10 -17 13 -37 10 -52 38 -29 57 17 14 48 19
131 22 30 1 46 6 48 16 4 13 3 13 -6 0 -6 -8 -11 -12 -11 -8 0 3 -2 13 -6 21
-4 12 4 13 53 5 32 -4 67 -12 78 -17z m-904 -10 c-7 -5 -11 -13 -8 -18 4 -6
-9 -27 -28 -48 -19 -21 -35 -44 -35 -52 0 -14 -48 -38 -58 -28 -7 6 -32 -15
-32 -27 0 -5 10 -6 21 -3 16 5 19 4 14 -5 -4 -7 -1 -16 6 -21 10 -6 7 -9 -12
-9 -15 0 -32 -7 -39 -15 -9 -10 -9 -15 -1 -15 6 0 11 5 11 11 0 5 4 8 9 5 11
-7 -10 -55 -22 -53 -5 1 -14 -7 -20 -18 -7 -11 -14 -22 -17 -25 -3 -3 -12 -14
-20 -24 -14 -18 -14 -19 5 -9 11 6 33 23 48 37 53 49 90 59 68 17 -9 -16 -9
-19 2 -15 8 3 14 -1 14 -9 0 -9 -11 -14 -31 -13 -17 1 -36 -6 -43 -14 -16 -20
-16 -35 0 -23 17 15 66 22 73 11 8 -13 -19 -148 -28 -142 -5 3 -6 10 -3 15 4
5 -12 9 -35 9 -27 0 -39 4 -34 11 4 8 0 8 -15 0 -22 -12 -23 -11 -26 29 -1 14
-5 33 -10 43 -11 25 3 99 29 157 37 80 122 190 159 203 9 4 17 13 17 20 0 8
10 19 23 24 25 12 39 7 18 -6z m40 -24 c-13 -13 -26 -3 -16 12 3 6 11 8 17 5
6 -4 6 -10 -1 -17z m124 3 c3 -5 -1 -10 -9 -10 -9 0 -16 5 -16 10 0 6 4 10 9
10 6 0 13 -4 16 -10z m-101 -32 c-3 -4 -20 -8 -37 -7 -24 0 -27 2 -14 8 24 9
57 9 51 -1z m856 -124 c25 -9 49 -19 55 -24 5 -4 17 -10 25 -13 8 -2 2 -3 -13
-1 -20 3 -26 0 -22 -9 4 -6 -2 -2 -13 10 -16 18 -39 27 -84 32 -5 1 -8 6 -8
11 0 13 7 13 60 -6z m-951 -8 c-2 -2 -17 -6 -34 -10 -22 -5 -26 -4 -15 4 14 9
59 15 49 6z m-35 -78 c-3 -4 -9 -8 -15 -8 -5 0 -9 4 -9 8 0 5 7 9 15 9 8 0 12
-4 9 -9z m36 -72 c0 -11 -19 -15 -25 -6 -3 5 1 10 9 10 9 0 16 -2 16 -4z"/>
<path d="M2296 1823 c-6 -14 -5 -15 5 -6 7 7 10 15 7 18 -3 3 -9 -2 -12 -12z"/>
<path d="M1689 1448 c-7 -13 -17 -26 -23 -30 -15 -10 -2 -20 18 -12 9 3 13 10
10 15 -2 5 0 18 6 29 6 11 8 20 6 20 -3 0 -11 -10 -17 -22z"/>
</g>
</svg>
