<?xml version="1.0" standalone="no"?>
<!DOCTYPE svg PUBLIC "-//W3C//DTD SVG 20010904//EN"
 "http://www.w3.org/TR/2001/REC-SVG-20010904/DTD/svg10.dtd">
<svg version="1.0" xmlns="http://www.w3.org/2000/svg"
 width="450.000000pt" height="253.000000pt" viewBox="0 0 450.000000 253.000000"
 preserveAspectRatio="xMidYMid meet">
<metadata>
Created by potrace 1.16, written by Peter Selinger 2001-2019
</metadata>
<g transform="translate(0.000000,253.000000) scale(0.100000,-0.100000)"
fill="#000000" stroke="none">
<path d="M0 1265 l0 -1265 2250 0 2250 0 0 1265 0 1265 -2250 0 -2250 0 0
-1265z m2763 635 c82 -20 248 -96 285 -130 11 -11 25 -20 29 -20 4 0 22 -17
40 -37 48 -53 44 -94 -11 -123 -23 -12 -33 -15 -24 -7 10 8 15 16 12 19 -3 4
0 9 7 14 8 5 10 3 4 -6 -5 -9 -4 -11 4 -6 6 4 9 11 6 16 -3 5 -1 11 5 15 6 4
8 11 4 16 -3 5 -10 7 -15 3 -5 -3 -7 -10 -4 -15 3 -5 -1 -6 -9 -3 -9 3 -14 9
-12 13 6 10 -108 7 -116 -3 -11 -16 -40 -16 -34 -1 3 9 0 12 -9 8 -8 -3 -12
-10 -8 -17 4 -6 -1 -4 -11 4 -18 14 -116 17 -139 3 -6 -4 -7 -1 -2 7 6 10 4
12 -10 6 -16 -6 -16 -4 -4 11 7 10 9 15 5 11 -5 -4 -16 -3 -23 4 -11 9 -17 9
-24 -3 -5 -8 -9 -9 -9 -3 0 13 -69 24 -76 13 -2 -4 -21 -5 -41 -3 -21 2 -48 5
-60 6 -13 1 -23 6 -23 10 0 4 -3 7 -7 7 -5 -1 -16 -1 -25 0 -17 1 -17 3 -1 36
9 19 20 35 25 35 4 0 8 5 8 11 0 5 -5 7 -10 4 -6 -3 -13 1 -16 9 -3 9 -12 16
-20 16 -8 0 -14 7 -14 15 0 8 5 15 10 15 6 0 10 4 10 9 0 4 -17 7 -37 5 -38
-3 -38 -3 17 22 57 27 150 43 210 36 19 -2 70 -12 113 -22z m-432 -19 c19 -4
34 -13 34 -20 0 -8 -30 -30 -67 -50 -49 -26 -68 -42 -68 -56 0 -34 -13 -43
-64 -50 -27 -3 -56 -11 -64 -18 -13 -10 -14 -8 -9 14 9 34 -15 46 -46 24 -31
-22 -47 -18 -18 4 l24 19 -22 12 c-12 6 -28 9 -36 7 -8 -4 -11 1 -8 13 4 15 0
18 -21 16 -14 -2 -27 3 -30 10 -3 8 0 14 7 14 7 1 3 6 -9 13 -12 7 -19 17 -17
24 3 7 -10 16 -29 22 -39 11 389 13 443 2z m-505 -21 c7 0 17 -15 22 -32 7
-28 6 -34 -9 -36 -10 -2 -26 1 -36 6 -11 6 -24 7 -34 1 -12 -6 -19 -4 -23 7
-3 8 -2 12 3 9 5 -3 12 -1 15 4 4 5 2 12 -4 16 -6 4 -8 11 -4 16 9 15 48 28
52 18 2 -5 10 -9 18 -9z m564 -45 c-8 -10 -8 -15 1 -21 8 -5 9 -3 4 6 -6 9 -4
11 4 6 9 -6 8 -13 -6 -29 -10 -11 -13 -18 -7 -14 6 3 11 0 11 -8 0 -8 -5 -11
-10 -8 -7 4 -8 -1 -3 -13 6 -17 4 -16 -16 3 -17 18 -20 25 -10 35 7 7 12 22
12 33 0 25 9 37 22 29 5 -3 4 -11 -2 -19z m-653 -34 c0 -9 -4 -22 -10 -28 -6
-9 -6 -13 2 -13 22 0 1 -18 -28 -25 -16 -3 -36 -13 -43 -22 -11 -14 -10 -15
10 -9 16 5 22 3 22 -8 0 -13 5 -13 39 1 21 8 53 28 72 44 19 16 39 29 44 29 6
-1 -3 -11 -18 -24 -25 -20 -26 -24 -13 -35 13 -11 20 -11 41 3 13 9 28 16 32
16 4 0 -5 -9 -22 -20 -16 -11 -25 -20 -20 -20 6 0 3 -5 -5 -10 -8 -5 -34 -6
-57 -3 -48 6 -114 -14 -91 -28 7 -5 8 -9 2 -9 -6 0 -16 -11 -22 -25 -13 -29
-10 -31 11 -10 8 8 35 17 59 20 l43 6 -30 -14 c-16 -8 -34 -12 -38 -9 -5 2 -4
-5 2 -16 6 -11 24 -26 41 -34 16 -7 30 -15 30 -18 0 -3 -28 -4 -62 -3 -58 2
-60 1 -28 -9 61 -18 66 -20 54 -25 -6 -2 -10 -17 -8 -34 2 -18 0 -28 -6 -24
-6 4 -10 -6 -10 -22 0 -22 -7 -31 -31 -42 -27 -12 -33 -12 -40 0 -7 11 -9 11
-9 1 0 -7 -4 -11 -9 -8 -5 3 -14 -1 -21 -9 -13 -15 -30 -12 -30 6 0 6 6 7 13
4 6 -4 4 0 -5 8 -13 10 -15 16 -6 25 9 9 9 12 0 12 -18 0 -8 175 12 223 9 20
20 37 24 37 5 0 9 6 9 13 0 6 16 37 36 68 34 54 63 72 64 40z m183 -51 c0 -5
-5 -10 -11 -10 -5 0 -7 5 -4 10 3 6 8 10 11 10 2 0 4 -4 4 -10z m-30 -74 c0
-2 -7 -6 -15 -10 -8 -3 -15 -1 -15 4 0 6 7 10 15 10 8 0 15 -2 15 -4z m1167
-81 c-4 -8 -12 -15 -19 -14 -10 0 -10 2 0 6 6 2 12 12 12 21 0 8 3 13 6 9 4
-3 4 -13 1 -22z m-1090 -7 c-3 -8 -6 -5 -6 6 -1 11 2 17 5 13 3 -3 4 -12 1
-19z m-213 -774 c3 -8 2 -12 -4 -9 -6 3 -10 10 -10 16 0 14 7 11 14 -7z m1
-34 c3 -5 1 -10 -4 -10 -6 0 -11 5 -11 10 0 6 2 10 4 10 3 0 8 -4 11 -10z m6
-82 c-3 -21 -6 -26 -9 -15 -3 17 3 47 11 47 2 0 1 -15 -2 -32z m6 -79 c2 -47
-5 -48 -11 -1 -3 25 1 42 8 42 1 0 2 -18 3 -41z"/>
<path d="M2597 1904 c-4 -4 -4 -10 -1 -15 6 -10 34 0 34 12 0 10 -24 12 -33 3z"/>
<path d="M2540 1896 c0 -9 30 -14 35 -6 4 6 -3 10 -14 10 -12 0 -21 -2 -21 -4z"/>
<path d="M2750 1729 c103 -35 115 -36 98 -10 -6 11 -19 19 -27 19 -9 0 -43 5
-76 11 -90 16 -89 13 5 -20z"/>
<path d="M2030 1870 c-12 -8 -12 -10 5 -10 11 0 27 5 35 10 12 8 12 10 -5 10
-11 0 -27 -5 -35 -10z"/>
<path d="M2143 1838 c-2 -5 7 -8 21 -8 14 0 27 3 29 8 3 4 -6 7 -20 7 -14 0
-27 -3 -30 -7z"/>
<path d="M1705 1460 c-3 -5 -1 -10 4 -10 6 0 11 5 11 10 0 6 -2 10 -4 10 -3 0
-8 -4 -11 -10z"/>
</g>
</svg>
