<?xml version="1.0" standalone="no"?>
<!DOCTYPE svg PUBLIC "-//W3C//DTD SVG 20010904//EN"
 "http://www.w3.org/TR/2001/REC-SVG-20010904/DTD/svg10.dtd">
<svg version="1.0" xmlns="http://www.w3.org/2000/svg"
 width="450.000000pt" height="253.000000pt" viewBox="0 0 450.000000 253.000000"
 preserveAspectRatio="xMidYMid meet">
<metadata>
Created by potrace 1.16, written by Peter Selinger 2001-2019
</metadata>
<g transform="translate(0.000000,253.000000) scale(0.100000,-0.100000)"
fill="#000000" stroke="none">
<path d="M0 1265 l0 -1265 2250 0 2250 0 0 1265 0 1265 -2250 0 -2250 0 0
-1265z m3379 741 c89 -23 131 -46 131 -72 0 -7 4 -14 10 -16 5 -1 11 -16 13
-33 2 -16 15 -48 29 -71 21 -32 36 -44 72 -54 58 -16 103 -49 132 -97 16 -27
20 -41 12 -51 -6 -7 -18 -27 -27 -45 -11 -22 -35 -42 -76 -64 -85 -45 -125
-63 -154 -69 -45 -11 -54 -33 -27 -68 29 -40 77 -126 70 -126 -4 0 -2 -6 3
-12 6 -7 11 -46 12 -86 2 -65 0 -76 -23 -103 -14 -17 -26 -35 -26 -40 0 -5 -9
-9 -19 -9 -11 0 -22 -4 -25 -8 -3 -5 -27 -5 -53 0 -26 5 -57 9 -68 9 -11 0
-36 4 -55 9 -19 5 -80 11 -135 15 -130 7 -218 46 -300 131 -61 64 -69 82 -26
59 42 -21 233 -43 283 -33 39 9 23 14 -45 15 -43 0 -73 5 -75 12 -2 6 -9 8
-15 4 -6 -4 -8 -1 -5 8 3 8 1 23 -4 34 -7 17 -8 16 -4 -5 4 -22 4 -23 -8 -8
-10 14 -15 15 -26 5 -10 -9 -11 -9 -6 1 5 7 1 12 -9 12 -9 0 -13 -4 -10 -10
16 -26 -175 2 -216 31 -39 27 -102 136 -96 166 2 13 -2 28 -9 34 -8 6 -12 15
-9 19 3 5 1 11 -4 14 -5 3 -7 54 -5 112 3 86 8 113 25 140 11 19 17 34 13 34
-4 0 3 11 16 25 13 14 19 25 14 26 -12 2 -56 -1 -74 -5 -95 -18 -139 -30 -135
-37 3 -4 -4 -13 -15 -19 -11 -6 -20 -17 -20 -25 0 -14 -30 -28 -67 -29 -13 -1
-23 4 -23 11 0 7 -3 13 -7 13 -5 0 -9 -24 -11 -53 -4 -59 -14 -76 -36 -58 -8
7 -19 10 -24 7 -5 -3 -20 3 -33 13 -13 10 -27 19 -31 20 -5 0 -8 3 -8 6 0 3 0
9 0 14 0 5 17 16 38 24 20 9 32 16 25 16 -7 1 -10 8 -7 16 8 20 -20 46 -43 39
-15 -5 -15 -4 -3 5 10 7 11 11 3 11 -22 0 -14 36 13 63 36 36 68 40 262 34
184 -6 197 -8 214 -25 16 -16 25 -15 32 4 5 13 4 14 -7 5 -11 -8 -18 -6 -33
10 -19 21 -18 21 17 54 38 35 140 64 248 71 29 2 56 6 59 8 2 3 71 3 152 1
112 -4 170 -11 239 -29z m-1130 -385 c17 -11 4 -34 -15 -27 -8 3 -21 3 -29 0
-24 -10 2 -34 36 -34 67 0 13 -28 -60 -31 -16 -1 -19 -3 -9 -6 9 -2 15 -10 12
-18 -3 -7 -1 -16 5 -20 8 -4 8 -12 1 -26 -6 -10 -8 -19 -4 -19 3 0 1 -7 -6
-15 -7 -9 -10 -18 -7 -22 11 -10 -14 -33 -34 -33 -13 0 -19 -8 -20 -22 -1 -19
-2 -20 -6 -4 -3 10 0 23 6 29 7 7 7 14 0 24 -8 9 -8 17 -1 26 9 11 20 73 26
145 3 36 11 48 41 55 33 8 49 7 64 -2z m-17 -196 c-2 -14 -8 -22 -13 -19 -5 3
-5 14 1 25 14 26 18 24 12 -6z m-15 -772 c-2 -27 -3 -5 -3 47 0 52 1 74 3 48
2 -27 2 -69 0 -95z"/>
<path d="M3400 1900 c-11 -7 -5 -10 23 -10 23 0 36 4 32 10 -8 13 -35 13 -55
0z"/>
<path d="M3164 1871 c10 -11 23 -18 28 -15 4 3 7 0 6 -6 -2 -6 8 -19 22 -28
20 -14 23 -14 13 -2 -8 11 -9 20 -1 30 8 13 9 12 5 -1 -6 -18 31 -59 54 -63 8
-1 20 -5 27 -9 7 -5 12 -3 12 3 0 6 6 8 13 4 6 -4 3 2 -7 14 -15 17 -22 19
-33 10 -8 -6 -13 -7 -12 -2 1 5 1 16 0 24 -1 13 -2 13 -11 0 -8 -13 -10 -12
-10 4 0 11 -3 16 -7 13 -3 -4 -11 0 -17 8 -6 9 -25 18 -41 21 -17 2 -36 7 -44
10 -10 3 -9 -1 3 -15z"/>
<path d="M2256 1748 c2 -41 13 -70 24 -63 5 3 8 20 7 38 -4 58 -33 81 -31 25z"/>
<path d="M3379 1762 c17 -32 14 -47 -6 -31 -15 12 -16 12 -9 -6 6 -16 5 -18
-5 -7 -21 20 -46 14 -68 -17 -18 -24 -19 -31 -7 -40 11 -10 16 -8 21 8 3 12
11 21 16 21 5 0 9 5 9 11 0 5 -5 7 -12 3 -7 -4 -8 -3 -4 4 5 9 12 8 26 0 18
-12 18 -14 4 -36 -9 -14 -12 -27 -7 -31 19 -12 23 -43 9 -63 l-15 -21 2 21 c0
11 5 18 9 16 11 -7 10 8 -1 25 -5 8 -16 11 -24 8 -16 -6 -29 -55 -16 -63 5 -3
9 0 9 7 0 7 6 5 13 -6 13 -17 15 -17 30 5 10 14 14 35 10 59 -3 27 -2 32 6 21
9 -13 12 -13 23 -1 8 8 8 11 1 7 -7 -4 -9 1 -6 15 4 16 8 17 14 7 7 -10 9 -10
9 2 0 26 -20 89 -31 96 -8 4 -7 0 0 -14z"/>
<path d="M3203 1738 c-23 -47 -22 -56 3 -61 26 -5 33 7 9 17 -8 3 -15 11 -15
18 0 9 3 9 10 -2 6 -10 9 -5 8 18 -1 18 -2 32 -3 32 -1 0 -6 -10 -12 -22z"/>
<path d="M3425 1709 c-4 -6 -5 -12 -2 -15 2 -3 7 2 10 11 7 17 1 20 -8 4z"/>
<path d="M3026 1615 c-16 -12 -17 -17 -6 -30 17 -20 32 -19 28 2 -3 17 1 19
37 22 8 0 15 6 15 11 0 15 -52 11 -74 -5z"/>
<path d="M3245 1581 c-6 -11 9 -23 19 -14 9 9 7 23 -3 23 -6 0 -12 -4 -16 -9z"/>
<path d="M3090 1569 c-12 -8 -10 -9 10 -7 15 2 24 -2 23 -9 -3 -15 18 -22 42
-12 19 7 19 8 -1 8 -12 1 -27 8 -34 16 -15 18 -20 18 -40 4z"/>
<path d="M3060 1506 c0 -16 6 -26 15 -26 8 0 15 5 15 11 0 6 -7 17 -15 25 -13
14 -15 13 -15 -10z"/>
<path d="M3249 1480 c0 -3 -2 -23 -4 -45 -4 -39 -4 -39 10 -15 l15 25 -4 -27
c-3 -20 -1 -25 9 -22 8 3 11 13 7 22 -9 25 -32 68 -33 62z"/>
<path d="M3080 1450 c0 -10 16 -15 35 -10 6 1 16 3 23 3 6 0 12 4 12 9 0 4
-16 8 -35 8 -19 0 -35 -4 -35 -10z"/>
<path d="M3090 1381 c0 -6 12 -17 28 -25 15 -8 21 -15 14 -16 -7 0 -10 -4 -7
-10 4 -7 -2 -7 -19 0 -21 8 -27 6 -36 -10 -9 -16 -7 -22 5 -27 9 -3 21 -15 25
-27 l9 -21 0 22 c1 16 6 21 20 18 14 -3 18 1 14 11 -3 9 2 14 17 14 11 0 19 4
15 9 -11 19 -85 72 -85 62z"/>
<path d="M3350 1369 c0 -5 -4 -7 -10 -4 -5 3 -10 -3 -10 -14 0 -11 -6 -19 -12
-17 -7 1 -10 1 -5 -1 4 -3 5 -9 1 -14 -3 -5 6 -4 20 3 17 7 26 19 26 35 0 12
-2 23 -5 23 -3 0 -5 -5 -5 -11z"/>
<path d="M3266 1348 c3 -5 10 -6 15 -3 13 9 11 12 -6 12 -8 0 -12 -4 -9 -9z"/>
<path d="M3250 1284 c0 -43 13 -57 26 -29 10 20 8 27 -7 41 -18 16 -19 16 -19
-12z"/>
<path d="M3066 1272 c-3 -5 1 -9 9 -9 8 0 12 4 9 9 -3 4 -7 8 -9 8 -2 0 -6 -4
-9 -8z"/>
<path d="M2160 1475 c-7 -9 -11 -18 -8 -20 3 -3 11 1 18 10 7 9 11 18 8 20 -3
3 -11 -1 -18 -10z"/>
</g>
</svg>
