<?xml version="1.0" standalone="no"?>
<!DOCTYPE svg PUBLIC "-//W3C//DTD SVG 20010904//EN"
 "http://www.w3.org/TR/2001/REC-SVG-20010904/DTD/svg10.dtd">
<svg version="1.0" xmlns="http://www.w3.org/2000/svg"
 width="450.000000pt" height="253.000000pt" viewBox="0 0 450.000000 253.000000"
 preserveAspectRatio="xMidYMid meet">
<metadata>
Created by potrace 1.16, written by Peter Selinger 2001-2019
</metadata>
<g transform="translate(0.000000,253.000000) scale(0.100000,-0.100000)"
fill="#000000" stroke="none">
<path d="M0 1265 l0 -1265 2250 0 2250 0 0 1265 0 1265 -724 0 -725 0 34 -56
c35 -57 53 -102 75 -184 7 -25 21 -72 31 -105 10 -33 19 -71 21 -85 2 -18 11
-26 33 -31 17 -4 58 -18 92 -31 l62 -23 26 25 c19 18 39 25 85 28 57 4 67 1
178 -53 183 -89 203 -117 176 -245 -7 -33 -193 -212 -247 -238 -23 -11 -77
-31 -119 -43 -76 -24 -77 -24 -59 -44 10 -11 22 -31 26 -45 4 -14 15 -43 25
-65 60 -134 31 -364 -50 -390 -11 -3 -20 -13 -20 -21 0 -8 -9 -14 -19 -14 -11
0 -23 -4 -26 -10 -9 -14 -50 -13 -174 6 -126 18 -194 36 -280 75 l-64 29 -33
-25 c-28 -21 -34 -33 -34 -63 0 -20 -7 -48 -15 -62 -8 -14 -19 -35 -24 -46
-13 -28 -56 -58 -117 -82 -56 -22 -142 -34 -150 -21 -3 5 -11 6 -17 3 -7 -4
-9 -4 -5 1 4 4 -13 30 -37 57 -25 28 -67 84 -95 125 -44 66 -50 81 -50 126 0
35 7 62 20 82 24 37 26 75 4 75 -11 0 -15 6 -11 20 4 15 -1 22 -17 26 -15 3
-30 24 -47 62 -33 74 -33 151 0 186 21 22 21 25 6 34 -15 8 -16 16 -8 48 5 22
13 39 18 39 15 0 86 51 80 57 -14 14 -12 47 2 52 9 4 13 9 9 13 -3 4 4 18 16
32 13 14 19 23 14 19 -10 -9 -36 9 -36 24 0 6 6 6 14 -1 10 -8 16 -9 21 -1 3
5 1 10 -6 10 -17 0 0 18 33 34 12 7 22 18 20 25 -1 7 2 10 7 7 10 -6 51 31 51
45 0 8 -29 39 -36 39 -3 0 -2 -6 3 -12 4 -7 -5 -5 -20 5 -15 10 -27 13 -27 7
0 -6 -5 -8 -10 -5 -6 4 -8 10 -5 15 3 5 0 12 -6 16 -8 4 -9 3 -5 -5 6 -8 0
-10 -18 -5 -17 4 -26 2 -26 -6 0 -6 -4 -8 -10 -5 -5 3 -10 -1 -10 -10 0 -9
-12 -18 -28 -21 -28 -6 -29 -8 -26 -57 2 -29 7 -72 11 -97 10 -64 10 -74 1
-87 -6 -7 -4 -14 3 -19 7 -4 9 -3 5 4 -3 6 -2 13 4 17 5 3 10 -2 11 -12 0 -11
3 -13 6 -5 3 7 1 18 -4 25 -4 7 0 5 9 -6 14 -15 15 -21 5 -32 -7 -7 -13 -9
-15 -5 -2 4 -11 6 -20 3 -22 -5 -104 31 -94 43 4 4 -2 2 -12 -6 -18 -14 -19
-13 -13 3 4 11 3 16 -3 12 -5 -3 -20 3 -32 14 -29 27 -40 26 -32 -3 6 -25 -20
-61 -37 -51 -5 4 -9 2 -9 -4 0 -5 5 -13 10 -16 5 -3 10 -2 10 2 0 5 11 9 24 9
14 0 22 -4 20 -8 -3 -5 -9 -6 -14 -3 -4 3 -11 -2 -14 -11 -3 -8 -2 -13 3 -10
5 3 14 -1 21 -9 7 -8 17 -12 23 -8 6 3 7 1 3 -6 -6 -9 -11 -9 -21 -1 -18 15
-32 -7 -16 -23 9 -9 10 -7 5 8 -7 19 -6 19 12 3 19 -17 22 -18 49 -18 8 0 15
-5 15 -10 0 -6 -3 -9 -7 -8 -5 1 -21 -4 -36 -10 -18 -8 -26 -16 -21 -24 5 -9
2 -8 -9 1 -16 13 -17 12 -8 -12 9 -22 8 -25 -6 -20 -11 4 -14 3 -9 -6 4 -6 4
-11 -1 -10 -29 5 -34 -2 -28 -40 3 -22 1 -42 -4 -46 -6 -3 -10 -22 -9 -43 1
-43 53 -109 73 -92 7 6 24 6 43 1 17 -5 33 -7 36 -4 3 3 14 -9 25 -27 17 -28
18 -35 5 -47 -7 -8 -19 -11 -26 -7 -6 4 -34 8 -62 9 -54 2 -196 45 -256 77
-86 47 -89 87 -21 225 27 54 57 115 66 137 18 38 187 218 202 215 23 -4 32 2
26 18 -4 11 -3 14 5 9 7 -4 12 -14 12 -22 0 -8 5 -12 10 -9 6 4 8 10 5 15 -3
4 3 7 13 6 12 -1 16 5 14 18 -3 18 -2 18 15 6 16 -13 16 -13 -1 8 -15 17 -22
19 -33 11 -16 -14 -17 2 0 21 10 12 9 12 -6 1 -11 -9 -16 -22 -12 -35 3 -12 2
-15 -1 -8 -3 6 -9 10 -13 8 -4 -3 -7 4 -7 14 0 10 5 16 10 13 5 -4 7 1 3 11
-4 11 -3 15 4 10 6 -3 5 3 -3 15 -15 24 -55 28 -83 7 -10 -7 -27 -11 -38 -8
-17 4 -19 2 -12 -14 9 -20 15 -104 7 -104 -14 0 -94 76 -107 100 -26 50 -55
190 -49 234 8 53 22 60 179 91 148 30 194 31 275 4 82 -27 103 -18 119 47 7
26 20 59 30 73 10 14 21 36 25 48 4 12 17 31 29 41 12 10 33 30 46 45 l24 27
-1296 0 -1297 0 0 -1265z m2280 641 c0 -3 -4 -8 -10 -11 -5 -3 -10 -1 -10 4 0
6 5 11 10 11 6 0 10 -2 10 -4z m-94 -36 c0 -12 -4 -16 -9 -11 -5 5 -6 14 -3
20 10 15 12 14 12 -9z m87 -57 c-4 -10 -2 -14 4 -10 5 3 10 -1 10 -9 0 -13 -2
-13 -15 0 -8 8 -11 19 -8 25 11 17 16 13 9 -6z m61 -40 c11 -14 14 -23 8 -19
-11 6 -17 -11 -13 -36 0 -4 -9 -6 -20 -5 -16 1 -17 4 -7 12 14 11 22 35 12 35
-4 0 -12 -7 -19 -17 -10 -13 -13 -14 -20 -2 -5 8 -5 11 -1 7 13 -11 44 25 33
40 -5 6 -6 12 -1 12 5 0 18 -12 28 -27z m-204 -333 c0 -5 -2 -10 -4 -10 -3 0
-8 5 -11 10 -3 6 -1 10 4 10 6 0 11 -4 11 -10z m-53 -16 c0 -7 -4 -11 -9 -8
-4 3 -8 -1 -8 -8 0 -10 -3 -9 -9 2 -11 17 -7 27 12 27 7 0 14 -6 14 -13z m199
-230 c-3 -9 -6 -20 -6 -25 0 -5 -9 -9 -20 -9 -25 0 -26 25 -2 39 25 15 35 13
28 -5z"/>
<path d="M2313 2213 c9 -2 25 -2 35 0 9 3 1 5 -18 5 -19 0 -27 -2 -17 -5z"/>
<path d="M2907 1923 c-4 -9 -3 -18 6 -58 4 -16 3 -45 -2 -64 -10 -31 -9 -33
12 -27 12 3 25 6 30 6 4 0 7 7 7 15 0 8 5 15 10 15 6 0 10 12 10 28 -1 24 -2
25 -11 8 -15 -25 -32 0 -18 26 8 15 6 18 -13 19 -22 0 -22 1 -3 9 19 8 19 9
-3 9 -13 1 -20 5 -17 11 3 6 4 10 1 10 -3 0 -7 -3 -9 -7z"/>
<path d="M3080 1890 c0 -12 5 -17 13 -14 8 3 20 -3 28 -13 13 -16 12 -17 -3
-5 -9 8 -22 11 -28 7 -5 -3 -13 1 -16 9 -3 9 -11 16 -17 16 -6 0 -7 -3 -4 -7
4 -3 2 -12 -5 -20 -8 -10 -8 -12 4 -8 8 3 20 -1 27 -9 10 -12 6 -16 -23 -27
-19 -7 -33 -16 -30 -21 3 -4 -9 -11 -26 -15 -26 -5 -29 -8 -16 -15 9 -5 16
-15 16 -21 0 -23 22 -37 41 -26 15 8 17 6 12 -8 -4 -10 -11 -21 -17 -25 -6 -4
-5 -12 3 -22 11 -13 9 -17 -14 -26 -33 -13 -58 -13 -50 0 8 14 -13 50 -30 50
-7 0 -21 7 -29 16 -17 17 -36 11 -36 -11 0 -7 -7 -21 -15 -29 -13 -12 -20 -13
-35 -4 -10 6 -17 19 -15 28 2 13 -3 16 -21 14 -13 -1 -24 2 -24 7 0 6 -3 8 -7
6 -5 -3 -17 -1 -28 3 -25 9 -55 -27 -60 -72 -4 -30 -22 -51 -36 -42 -4 2 -12
-9 -17 -25 -8 -23 -7 -31 4 -35 20 -8 17 -23 -6 -29 -22 -6 -28 -27 -7 -27 7
0 18 5 25 12 9 9 12 8 12 -4 0 -9 -11 -19 -25 -22 -32 -8 -33 -36 -2 -36 12 0
30 -9 39 -19 15 -18 15 -19 -5 -25 -20 -5 -20 -6 -4 -24 24 -26 21 -70 -8
-121 -26 -45 -32 -66 -15 -56 6 4 10 -7 10 -24 0 -24 4 -31 19 -31 27 0 32 12
15 35 -9 12 -14 14 -14 5 0 -7 -3 -10 -6 -7 -4 4 -2 12 3 19 6 7 9 21 7 31 -2
14 2 17 14 12 33 -13 37 -10 34 23 -2 25 2 32 16 32 9 0 23 9 30 20 6 11 18
17 26 14 8 -3 16 3 19 15 4 17 14 21 49 22 72 2 99 7 125 24 18 12 28 13 37 6
15 -13 76 -3 76 11 0 5 -4 6 -10 3 -5 -3 -10 3 -10 14 0 11 -6 24 -13 28 -8 4
-16 15 -19 24 -9 25 -92 17 -93 -9 -2 -25 -31 -82 -42 -82 -15 0 -18 26 -3 35
6 3 10 15 10 26 0 11 -3 18 -7 16 -12 -8 -8 76 4 98 9 16 21 19 67 17 40 -2
58 2 62 11 3 8 11 14 19 15 8 1 22 3 30 4 9 1 11 5 6 12 -13 15 19 51 44 51
13 0 19 7 19 18 -1 9 3 17 8 17 7 0 7 4 0 13 -12 15 -9 94 6 127 6 14 11 18
11 10 1 -9 -3 -21 -9 -28 -7 -9 -7 -9 2 -2 8 6 16 6 26 -2 10 -9 15 -9 22 1 5
10 9 10 13 2 3 -7 4 -7 3 1 -2 7 -9 12 -15 11 -6 -2 -11 3 -11 10 0 8 -4 7
-11 -3 -8 -12 -9 -7 -6 18 3 29 -7 45 -15 22 -5 -14 -48 0 -48 16 0 8 -10 14
-25 14 -18 0 -25 -5 -25 -20z m-303 -215 c4 -4 3 -5 -4 -1 -6 3 -14 2 -17 -3
-4 -5 2 -12 13 -16 10 -3 21 -15 24 -26 5 -18 2 -19 -24 -14 -18 4 -29 3 -29
-4 0 -6 4 -11 8 -11 5 0 17 -6 27 -14 16 -11 17 -17 7 -29 -11 -12 -10 -15 5
-13 13 1 17 -5 15 -21 -2 -12 2 -24 8 -28 7 -5 -5 -15 -29 -26 -28 -12 -41
-24 -41 -38 0 -14 -5 -19 -15 -15 -21 8 -19 28 5 49 27 25 25 35 -8 35 -36 0
-78 28 -63 43 6 6 11 21 11 33 0 12 6 24 14 27 8 3 24 23 36 45 21 38 40 47
57 27z m76 -28 c4 3 7 1 7 -5 0 -21 -16 -21 -30 1 -12 19 -11 21 2 10 8 -7 18
-10 21 -6z m11 -209 c-7 -49 -12 -58 -29 -58 -18 0 -13 28 13 68 19 29 21 28
16 -10z"/>
<path d="M2695 1580 c-4 -6 -1 -17 5 -25 14 -17 35 -21 25 -5 -3 6 -1 10 6 10
8 0 8 4 -1 15 -15 18 -26 19 -35 5z"/>
<path d="M2740 1801 c-25 -9 -52 -15 -60 -13 -9 3 -7 -2 4 -10 46 -35 -18 -45
-71 -11 -14 10 -23 11 -28 4 -3 -6 5 -15 19 -21 14 -5 26 -16 26 -24 0 -15 58
-28 66 -14 3 4 -1 8 -8 9 -7 0 1 7 17 15 17 7 40 11 52 9 24 -6 30 1 43 45 10
35 4 37 -60 11z"/>
<path d="M2900 1741 c0 -18 26 -31 38 -19 19 19 14 28 -13 28 -14 0 -25 -4
-25 -9z"/>
<path d="M2055 1711 c-3 -5 -1 -12 5 -16 5 -3 10 1 10 9 0 18 -6 21 -15 7z"/>
<path d="M2460 1643 c-31 -13 -55 -53 -30 -53 5 0 7 -7 3 -16 -5 -14 -3 -15
15 -5 13 7 19 17 16 26 -4 9 4 23 17 35 24 19 13 26 -21 13z"/>
<path d="M2520 1634 c0 -8 4 -13 9 -9 5 3 12 1 16 -5 3 -5 11 -10 17 -10 7 0
2 9 -10 20 -26 24 -32 25 -32 4z"/>
<path d="M2505 1570 c14 -16 20 -17 27 -8 13 22 9 28 -19 28 -26 0 -26 0 -8
-20z"/>
<path d="M2440 1541 c-39 -7 -53 -36 -21 -46 13 -4 28 2 45 18 26 24 33 38 19
36 -5 -1 -24 -4 -43 -8z"/>
<path d="M2965 1540 c4 -6 11 -8 16 -5 14 9 11 15 -7 15 -8 0 -12 -5 -9 -10z"/>
<path d="M2431 1468 c-18 -6 -20 -13 -15 -35 l7 -27 -27 18 c-15 9 -30 15 -33
12 -10 -9 55 -66 78 -69 12 -2 27 -11 34 -20 7 -9 17 -17 24 -17 6 0 11 -9 11
-19 0 -17 18 -31 41 -31 5 0 9 8 9 18 0 18 -17 43 -57 86 -13 14 -14 17 -3 14
13 -4 60 40 60 56 0 9 -48 7 -53 -1 -2 -5 -2 -2 -1 5 2 6 0 12 -4 13 -4 0 -17
2 -28 3 -12 1 -31 -1 -43 -6z"/>
<path d="M2545 1380 c-4 -6 7 -10 24 -10 17 0 31 5 31 10 0 6 -11 10 -24 10
-14 0 -28 -4 -31 -10z"/>
<path d="M2953 1313 c-16 -6 -17 -35 -1 -51 8 -8 8 -15 -1 -26 -11 -13 -8 -14
21 -6 18 6 34 10 35 10 2 0 2 3 1 8 0 4 3 16 7 26 13 29 -27 54 -62 39z"/>
<path d="M3180 1274 c0 -8 5 -12 10 -9 6 4 8 11 5 16 -9 14 -15 11 -15 -7z"/>
<path d="M3056 1263 c-11 -11 -6 -23 9 -23 8 0 15 4 15 9 0 13 -16 22 -24 14z"/>
<path d="M2320 1221 c-7 -13 -7 -22 0 -26 13 -8 30 3 30 20 0 23 -18 27 -30 6z"/>
<path d="M2882 1227 c-9 -10 -6 -13 13 -12 13 0 27 5 32 10 4 6 4 7 -1 3 -5
-4 -15 -3 -21 2 -9 7 -16 6 -23 -3z"/>
<path d="M2095 1200 c3 -5 8 -10 11 -10 2 0 4 5 4 10 0 6 -5 10 -11 10 -5 0
-7 -4 -4 -10z"/>
<path d="M2535 1180 c-3 -5 -2 -10 4 -10 5 0 13 5 16 10 3 6 2 10 -4 10 -5 0
-13 -4 -16 -10z"/>
<path d="M2770 1101 c0 -8 41 -23 47 -17 2 1 -8 8 -22 14 -14 6 -25 8 -25 3z"/>
</g>
</svg>
