<?xml version="1.0" standalone="no"?>
<!DOCTYPE svg PUBLIC "-//W3C//DTD SVG 20010904//EN"
 "http://www.w3.org/TR/2001/REC-SVG-20010904/DTD/svg10.dtd">
<svg version="1.0" xmlns="http://www.w3.org/2000/svg"
 width="450.000000pt" height="253.000000pt" viewBox="0 0 450.000000 253.000000"
 preserveAspectRatio="xMidYMid meet">
<metadata>
Created by potrace 1.16, written by Peter Selinger 2001-2019
</metadata>
<g transform="translate(0.000000,253.000000) scale(0.100000,-0.100000)"
fill="#000000" stroke="none">
<path d="M0 1265 l0 -1265 2250 0 2250 0 0 1265 0 1265 -2250 0 -2250 0 0
-1265z m3216 720 c140 -28 163 -35 241 -73 42 -21 57 -35 73 -70 17 -35 18
-47 9 -58 -10 -13 -14 -12 -29 1 -9 8 -25 15 -35 15 -17 0 -17 -2 -5 -14 8 -7
35 -21 60 -30 25 -10 60 -32 78 -49 39 -37 68 -90 53 -95 -6 -2 -20 -24 -31
-49 -15 -35 -28 -48 -60 -60 -46 -18 -48 -23 -20 -48 26 -24 55 -115 46 -148
-10 -43 -77 -104 -122 -111 -86 -14 -158 -15 -173 -3 -8 7 -12 7 -8 1 4 -6
-21 -15 -66 -23 -65 -11 -94 -11 -212 5 -11 1 -24 3 -28 3 -5 1 -5 6 -1 12 4
8 9 7 15 -2 7 -11 9 -10 9 4 0 17 7 19 71 21 19 1 48 10 64 20 16 11 35 19 42
19 7 0 13 7 13 16 0 14 2 14 11 1 9 -13 10 -13 6 0 -2 8 -9 16 -15 16 -7 1
-16 2 -22 3 -5 0 -10 7 -10 15 0 7 -8 20 -17 27 -16 13 -17 12 -5 -3 12 -15
11 -17 -8 -15 -20 1 -40 41 -26 54 3 4 6 -2 6 -12 0 -18 1 -18 16 1 8 10 13
13 9 7 -9 -18 0 -16 16 3 12 15 9 16 -26 10 -22 -3 -41 -5 -43 -6 -2 0 -1 -4
2 -8 2 -4 -10 -6 -29 -4 -18 2 -42 -1 -52 -7 -16 -9 -14 -11 15 -17 17 -3 32
-10 32 -15 0 -5 3 -8 8 -7 4 2 7 -1 7 -7 0 -5 -3 -9 -7 -7 -5 1 -8 -2 -8 -8 0
-6 -9 -6 -26 0 -34 13 -41 13 -26 -2 26 -26 9 -30 -104 -24 -136 8 -177 26
-242 104 -52 62 -59 87 -32 102 20 11 20 13 5 36 -9 14 -13 30 -9 37 4 7 4 9
-1 5 -15 -14 -31 38 -33 107 0 55 4 77 23 112 14 23 22 50 19 58 -4 8 -2 15 3
15 6 0 17 18 25 39 18 46 45 62 149 90 41 11 85 24 99 29 51 19 175 13 306
-13z m-702 -85 c65 -5 104 -14 114 -24 14 -13 13 -16 -9 -24 -13 -6 -55 -15
-94 -22 -129 -21 -125 -20 -139 -55 -8 -18 -24 -36 -38 -41 -33 -11 -78 -11
-78 0 0 13 -41 56 -53 56 -5 0 -2 -11 6 -24 9 -13 13 -33 10 -45 -6 -24 -23
-18 -23 8 0 18 -49 90 -62 91 -3 0 -4 -9 -1 -20 3 -11 9 -20 13 -20 15 0 22
-41 10 -55 -17 -20 21 -70 39 -52 9 9 11 6 8 -10 -5 -33 -11 -36 -51 -19 -20
8 -36 13 -36 10 0 -2 -10 2 -22 10 -32 20 -63 6 -63 -28 -1 -20 3 -25 17 -21
10 3 27 8 38 11 25 7 60 -4 60 -18 0 -6 -11 -8 -25 -6 -14 3 -25 1 -25 -3 0
-5 -7 -9 -16 -9 -30 0 -8 -25 27 -30 33 -5 33 -6 12 -18 -12 -6 -34 -12 -50
-13 -15 0 -22 -3 -15 -6 9 -3 5 -13 -13 -35 -30 -36 -33 -59 -4 -32 20 18 20
18 15 -9 -8 -46 -17 -67 -28 -67 -5 0 -7 -7 -4 -16 3 -8 2 -12 -4 -9 -6 3 -10
1 -10 -4 0 -6 -7 -11 -16 -11 -14 0 -16 12 -11 88 3 48 13 121 22 162 14 60
25 82 56 115 21 22 39 43 39 47 0 4 7 5 15 2 23 -9 18 19 -6 35 -18 11 -23 11
-30 0 -6 -11 -11 -11 -20 -2 -19 19 7 82 37 89 13 3 24 10 24 14 0 5 12 11 28
13 51 8 257 6 356 -3z m110 -78 c3 -5 -1 -9 -9 -9 -8 0 -12 4 -9 9 3 4 7 8 9
8 2 0 6 -4 9 -8z m-510 -411 c-4 -17 -9 -30 -11 -27 -3 2 -2 19 2 36 4 17 9
30 11 27 2 -2 1 -18 -2 -36z"/>
<path d="M2670 1870 c0 -5 7 -7 15 -4 8 4 15 8 15 10 0 2 -7 4 -15 4 -8 0 -15
-4 -15 -10z"/>
<path d="M3260 1792 c0 -13 25 -33 33 -27 4 3 5 2 2 -1 -2 -4 8 -23 24 -43 16
-20 30 -40 31 -46 1 -5 4 -12 7 -15 4 -3 3 1 -1 8 -4 6 -3 12 2 12 5 0 8 10 6
23 -1 12 -3 27 -3 32 -1 6 -10 20 -21 33 -19 23 -80 42 -80 24z m90 -52 c0 -5
-2 -10 -4 -10 -3 0 -8 5 -11 10 -3 6 -1 10 4 10 6 0 11 -4 11 -10z"/>
<path d="M3374 1687 c7 -40 -2 -61 -20 -46 -11 9 -14 7 -14 -12 0 -17 -3 -20
-9 -11 -6 10 -17 8 -54 -10 -38 -20 -44 -26 -36 -41 6 -10 6 -17 1 -17 -5 0
-3 -18 4 -40 8 -23 12 -61 9 -89 -4 -42 -1 -52 15 -64 20 -14 84 -11 75 3 -3
4 2 11 11 14 9 3 14 12 11 20 -3 7 0 19 6 25 6 6 8 11 5 11 -4 0 -15 -8 -24
-17 -15 -16 -17 -16 -12 -2 4 9 1 22 -5 28 -8 8 -5 9 11 6 17 -3 22 1 23 18 1
16 3 17 6 5 5 -20 30 -31 30 -12 0 7 -5 10 -10 7 -6 -4 -8 0 -4 10 3 8 -1 21
-8 27 -8 7 -13 16 -10 20 3 5 -5 6 -17 2 -16 -4 -19 -2 -13 9 7 11 5 11 -10
-1 -10 -8 -16 -10 -12 -4 4 7 0 14 -7 17 -8 3 -14 15 -13 26 1 15 5 18 19 10
10 -5 19 -6 20 -2 0 4 2 13 3 18 2 6 3 16 4 23 0 7 6 10 11 7 6 -3 13 1 16 9
3 9 9 14 13 12 13 -8 6 43 -7 56 -11 11 -12 8 -8 -15z m-34 -99 c0 -6 -6 -5
-15 2 -8 7 -15 14 -15 16 0 2 7 1 15 -2 8 -4 15 -11 15 -16z m36 -90 c3 -4 -1
-5 -10 -4 -8 1 -18 5 -22 8 -3 4 1 5 10 4 8 -1 18 -5 22 -8z"/>
<path d="M2104 1729 c-4 -7 -3 -9 4 -5 5 3 13 0 15 -6 4 -9 6 -10 6 -1 1 17
-16 25 -25 12z"/>
</g>
</svg>
