<?xml version="1.0" standalone="no"?>
<!DOCTYPE svg PUBLIC "-//W3C//DTD SVG 20010904//EN"
 "http://www.w3.org/TR/2001/REC-SVG-20010904/DTD/svg10.dtd">
<svg version="1.0" xmlns="http://www.w3.org/2000/svg"
 width="450.000000pt" height="253.000000pt" viewBox="0 0 450.000000 253.000000"
 preserveAspectRatio="xMidYMid meet">
<metadata>
Created by potrace 1.16, written by Peter Selinger 2001-2019
</metadata>
<g transform="translate(0.000000,253.000000) scale(0.100000,-0.100000)"
fill="#000000" stroke="none">
<path d="M0 1265 l0 -1265 2250 0 2250 0 0 1265 0 1265 -2250 0 -2250 0 0
-1265z m2517 619 c-3 -3 -12 -4 -19 -1 -8 3 -5 6 6 6 11 1 17 -2 13 -5z m125
-5 c90 -18 203 -60 192 -71 -3 -3 1 -6 8 -5 34 1 48 -4 48 -19 0 -8 4 -13 9
-9 23 13 181 -104 181 -135 0 -10 -26 -9 -45 1 -5 3 -37 7 -70 8 -76 2 -90 4
-107 19 -8 6 -18 9 -21 5 -4 -3 -27 13 -52 36 -45 41 -72 56 -42 23 22 -24 21
-31 0 -26 -48 12 -143 20 -143 12 0 -4 9 -8 21 -8 11 0 17 -5 14 -10 -4 -6
-11 -8 -16 -5 -5 4 -9 0 -9 -7 0 -9 -3 -9 -10 2 -6 10 -10 11 -10 3 0 -7 -9
-13 -20 -13 -11 0 -20 -6 -20 -12 0 -9 -3 -9 -9 1 -5 8 -16 11 -24 8 -8 -3
-23 1 -34 9 -10 9 -13 13 -6 10 6 -4 15 -2 18 4 5 8 12 7 23 -2 15 -12 16 -11
3 5 -10 13 -17 15 -27 6 -8 -6 -14 -8 -14 -4 0 4 -7 2 -15 -5 -12 -10 -15 -10
-15 4 0 9 9 24 20 33 22 19 11 43 -21 43 -27 0 -33 19 -13 41 14 16 31 19 103
19 80 0 84 1 63 16 -12 8 -27 12 -32 9 -6 -3 -10 -2 -10 4 0 5 -8 12 -17 14
-38 10 49 6 99 -4z m-543 -4 c-3 -2 -19 -5 -36 -7 -52 -4 -28 -28 27 -28 31 0
50 -5 53 -13 4 -10 23 -14 64 -13 61 2 87 11 77 27 -3 6 -12 3 -20 -8 -13 -17
-14 -17 -7 1 5 15 3 18 -10 13 -9 -3 -19 -2 -21 2 -7 11 61 21 167 25 82 2 86
2 55 -11 -18 -8 -35 -18 -38 -22 -7 -12 -137 -81 -141 -76 -3 2 -3 -14 -1 -36
3 -22 0 -39 -6 -39 -6 0 -19 -3 -29 -7 -17 -6 -17 -5 1 15 29 33 12 38 -27 8
-22 -17 -38 -23 -42 -17 -3 6 0 11 7 12 7 0 -8 7 -34 15 -27 8 -48 19 -48 24
0 5 -15 10 -32 12 l-33 3 24 24 23 23 -53 -6 c-35 -5 -49 -4 -40 2 16 11 5 36
-11 26 -7 -5 -9 0 -6 14 5 18 0 24 -25 31 -25 7 -10 9 67 10 55 1 97 -1 95 -4z
m-268 -19 c-6 -7 -9 -20 -6 -28 4 -9 -11 -28 -40 -52 -25 -21 -45 -44 -45 -52
0 -8 -4 -13 -9 -9 -5 3 -13 0 -16 -6 -4 -5 -13 -8 -21 -5 -7 3 -20 -2 -29 -10
-19 -19 -9 -40 11 -23 11 9 14 8 14 -4 0 -8 6 -18 13 -20 6 -3 0 -6 -16 -6
-23 -1 -27 -4 -22 -23 4 -17 -4 -32 -32 -58 -20 -19 -33 -28 -28 -20 5 10 5
12 -2 5 -15 -14 -26 -55 -16 -55 5 0 28 18 51 40 22 22 47 40 55 40 7 0 18 5
24 11 6 6 19 9 29 6 17 -4 17 -5 -1 -6 -11 0 -26 -11 -34 -22 -11 -19 -11 -21
2 -16 11 4 13 0 10 -14 -4 -16 -13 -20 -37 -17 -17 2 -31 -1 -31 -7 0 -5 -4
-17 -9 -25 -7 -12 -6 -13 5 -2 7 6 28 12 47 12 30 0 33 -2 26 -22 -4 -13 -7
-29 -7 -35 0 -7 -4 -13 -8 -13 -4 0 -5 -17 -4 -37 2 -21 1 -32 -2 -25 -2 6 -8
10 -12 8 -4 -3 -6 8 -5 24 1 23 -2 27 -15 23 -9 -3 -22 -13 -28 -21 -7 -9 -13
-12 -13 -7 0 4 -9 0 -20 -10 -28 -25 -34 -14 -22 40 9 43 8 46 -8 42 -20 -5
-20 2 1 98 13 56 98 193 148 238 17 15 33 27 35 27 3 0 16 11 30 25 27 27 58
36 37 11z m377 0 c-2 -1 -12 -8 -22 -16 -13 -10 -17 -10 -12 -2 4 6 2 12 -3
12 -6 0 -11 -8 -12 -17 0 -12 -2 -13 -6 -5 -8 19 15 41 38 35 11 -3 18 -6 17
-7z m-341 -18 c-2 -7 -1 -22 3 -34 7 -18 5 -20 -23 -15 -19 3 -25 6 -14 9 13
3 15 10 11 28 -5 18 -2 24 11 24 9 0 15 -6 12 -12z m868 -168 c3 -5 1 -10 -4
-10 -6 0 -11 5 -11 10 0 6 2 10 4 10 3 0 8 -4 11 -10z m-948 -6 c-3 -3 -12 -4
-19 -1 -8 3 -5 6 6 6 11 1 17 -2 13 -5z m-40 -10 c-3 -3 -12 -4 -19 -1 -8 3
-5 6 6 6 11 1 17 -2 13 -5z m1048 -3 c3 -6 -4 -8 -16 -6 -30 6 -37 15 -11 15
11 0 23 -4 27 -9z m275 -52 c-7 -11 -14 -18 -17 -15 -3 3 0 12 7 21 18 21 23
19 10 -6z m-1349 -631 c1 -32 0 -60 -3 -63 -2 -3 -6 25 -7 62 -1 37 0 65 3 63
2 -3 6 -31 7 -62z m16 -310 c-3 -8 -6 -5 -6 6 -1 11 2 17 5 13 3 -3 4 -12 1
-19z"/>
<path d="M2548 1693 c7 -3 16 -2 19 1 4 3 -2 6 -13 5 -11 0 -14 -3 -6 -6z"/>
<path d="M1982 1838 c5 -15 28 -23 28 -10 0 5 -7 13 -16 16 -10 4 -14 1 -12
-6z"/>
<path d="M1637 1634 c4 -12 3 -15 -5 -10 -8 5 -12 -1 -12 -15 0 -18 2 -19 15
-9 17 14 20 36 5 45 -6 4 -7 -1 -3 -11z"/>
</g>
</svg>
