<?xml version="1.0" standalone="no"?>
<!DOCTYPE svg PUBLIC "-//W3C//DTD SVG 20010904//EN"
 "http://www.w3.org/TR/2001/REC-SVG-20010904/DTD/svg10.dtd">
<svg version="1.0" xmlns="http://www.w3.org/2000/svg"
 width="450.000000pt" height="253.000000pt" viewBox="0 0 450.000000 253.000000"
 preserveAspectRatio="xMidYMid meet">
<metadata>
Created by potrace 1.16, written by Peter Selinger 2001-2019
</metadata>
<g transform="translate(0.000000,253.000000) scale(0.100000,-0.100000)"
fill="#000000" stroke="none">
<path d="M0 1265 l0 -1265 2250 0 2250 0 0 1265 0 1265 -887 0 c-487 0 -884
-3 -881 -6 3 -3 37 -5 74 -5 54 0 80 -5 119 -24 54 -27 106 -69 109 -88 1 -7
9 -23 18 -37 33 -50 57 -159 62 -272 1 -31 6 -39 27 -47 18 -6 31 -5 39 2 10
9 11 9 5 -2 -6 -11 -3 -13 13 -9 12 4 20 2 16 -3 -3 -5 1 -9 9 -9 17 0 50 34
41 43 -3 3 3 3 15 0 12 -3 21 -1 21 4 0 5 21 9 48 8 26 -1 50 4 54 9 5 7 8 7
8 -1 0 -7 5 -13 11 -13 5 0 7 6 3 12 -6 10 -5 10 8 1 8 -7 18 -10 21 -6 4 3 7
1 7 -5 0 -7 3 -11 8 -10 4 0 30 -9 57 -21 28 -13 66 -30 85 -38 71 -31 139
-85 150 -119 6 -18 16 -35 23 -37 9 -3 9 -8 1 -17 -8 -7 -9 -24 -4 -46 7 -30
3 -42 -24 -83 -41 -61 -177 -194 -230 -225 -23 -13 -61 -29 -86 -35 -97 -25
-118 -41 -81 -60 30 -17 78 -101 97 -171 9 -36 18 -106 20 -157 l3 -92 -29
-18 c-17 -9 -30 -23 -30 -30 0 -7 -8 -13 -17 -13 -9 0 -24 -6 -32 -14 -22 -18
-121 -39 -216 -44 -142 -8 -358 34 -446 86 -41 24 -59 10 -60 -45 -1 -26 -5
-73 -9 -103 -8 -52 -8 -50 -7 28 2 69 0 82 -14 82 -32 0 -69 -40 -69 -74 0
-27 -11 -43 -63 -93 -68 -66 -133 -93 -221 -93 -68 0 -166 43 -213 93 -21 23
-37 43 -35 45 2 1 -15 38 -36 80 -31 62 -40 94 -46 155 -6 66 -5 77 9 77 8 0
15 7 15 16 0 12 -3 14 -12 6 -7 -6 -16 -11 -20 -11 -4 -1 -15 -4 -24 -8 -24
-9 -38 11 -20 29 13 14 4 18 -87 35 -97 19 -237 74 -237 93 0 5 -8 11 -17 14
-22 8 -73 78 -73 100 0 9 -7 19 -16 23 -8 3 -14 15 -13 27 2 11 -3 31 -9 43
-17 30 -18 83 -3 111 7 12 9 28 5 34 -4 7 -3 8 4 4 7 -4 21 9 36 31 31 48 79
93 100 93 9 0 16 7 16 16 0 8 4 13 9 9 5 -3 22 6 38 19 l28 24 -41 38 c-82 79
-139 168 -158 247 -3 15 -10 27 -14 27 -4 0 -7 19 -7 43 1 23 -2 47 -4 52 -8
15 -10 38 -4 31 9 -9 33 22 33 43 0 11 5 23 12 27 7 5 8 3 3 -7 -8 -12 -6 -12
8 0 9 7 15 16 13 20 -2 3 10 6 27 6 18 0 32 5 32 12 0 6 4 15 9 20 5 4 6 3 2
-4 -8 -14 10 -28 18 -14 3 5 31 8 61 6 36 -2 52 1 48 8 -3 5 -1 7 4 4 6 -4 36
-8 67 -10 49 -3 54 -2 44 12 -11 14 -10 14 7 0 16 -13 65 -28 107 -33 3 -1 10
-4 14 -8 4 -4 13 -3 20 3 8 7 14 6 20 -2 5 -8 3 -10 -7 -5 -8 4 -5 0 5 -8 23
-18 40 -21 31 -5 -4 6 3 5 14 -3 18 -11 23 -11 31 2 6 9 10 10 10 3 0 -7 15
-11 39 -10 23 1 37 6 34 12 -3 6 0 4 8 -2 7 -7 21 -13 32 -13 12 0 16 4 11 13
-6 9 -4 9 8 -1 14 -11 17 -10 23 7 3 12 3 26 -1 33 -5 10 -4 10 5 2 10 -9 25
1 67 42 30 29 58 54 62 55 23 5 31 12 25 22 -3 5 -1 7 5 3 6 -3 17 0 25 8 8 8
17 12 21 9 3 -4 6 -2 6 3 0 5 8 11 18 12 9 1 40 8 67 16 44 13 -102 14 -1237
15 l-1288 1 0 -1265z m2961 1228 c13 -16 12 -17 -3 -4 -17 13 -22 21 -14 21 2
0 10 -8 17 -17z m-1190 -120 c13 -16 12 -17 -3 -4 -17 13 -22 21 -14 21 2 0
10 -8 17 -17z m186 -40 c0 -9 -4 -10 -14 -2 -7 6 -13 12 -13 14 0 1 6 2 13 2
8 0 14 -6 14 -14z m1204 -130 c13 -16 12 -17 -3 -4 -17 13 -22 21 -14 21 2 0
10 -8 17 -17z m60 -20 c13 -16 12 -17 -3 -4 -17 13 -22 21 -14 21 2 0 10 -8
17 -17z m-20 -20 c13 -16 12 -17 -3 -4 -17 13 -22 21 -14 21 2 0 10 -8 17 -17z
m-10 -20 c13 -16 12 -17 -3 -4 -17 13 -22 21 -14 21 2 0 10 -8 17 -17z m-20
-20 c13 -16 12 -17 -3 -4 -17 13 -22 21 -14 21 2 0 10 -8 17 -17z m104 -3 c10
-11 16 -20 13 -20 -3 0 -13 9 -23 20 -10 11 -16 20 -13 20 3 0 13 -9 23 -20z
m61 -4 c0 -14 -3 -23 -7 -20 -6 3 -6 22 0 42 3 10 7 -2 7 -22z m-704 -1440
c-6 -49 -13 -46 -10 3 1 22 5 38 8 36 3 -2 4 -20 2 -39z m-125 2 c1 -30 1 -31
-6 -8 -7 21 -5 40 2 40 2 0 3 -15 4 -32z m110 -170 c-2 -18 -4 -6 -4 27 0 33
2 48 4 33 2 -15 2 -42 0 -60z m-2 -47 c3 -5 2 -12 -3 -15 -5 -3 -9 1 -9 9 0
17 3 19 12 6z m-8 -108 c-2 -16 -4 -3 -4 27 0 30 2 43 4 28 2 -16 2 -40 0 -55z
m-10 -75 c-3 -8 -6 -5 -6 6 -1 11 2 17 5 13 3 -3 4 -12 1 -19z"/>
<path d="M2447 1865 c-4 -8 -3 -16 1 -19 4 -3 9 4 9 15 2 23 -3 25 -10 4z"/>
<path d="M2406 1813 c-3 -3 0 -13 7 -21 9 -13 9 -14 0 -8 -8 4 -13 2 -14 -6 0
-7 -3 -22 -5 -33 -16 -68 -16 -95 -2 -95 9 0 18 -12 21 -29 5 -22 15 -32 46
-45 23 -9 41 -20 41 -26 0 -5 -7 -7 -15 -4 -17 7 -21 -21 -5 -31 8 -5 8 -11 0
-20 -15 -18 7 -33 55 -36 29 -2 39 1 37 10 -2 8 3 11 13 8 18 -7 19 6 4 35
-10 18 -8 25 10 39 l22 18 -38 8 c-21 4 -40 7 -43 8 -13 2 -67 43 -92 70 -30
33 -36 60 -14 68 24 10 25 61 0 80 -12 9 -24 13 -28 10z m34 -37 c0 -2 -8 -10
-17 -17 -16 -13 -17 -12 -4 4 13 16 21 21 21 13z"/>
<path d="M2340 1711 c0 -5 7 -11 14 -14 10 -4 13 -1 9 9 -6 15 -23 19 -23 5z"/>
<path d="M2176 1675 c9 -23 36 -34 59 -24 15 6 16 8 4 8 -9 1 -22 8 -29 16
-16 20 -41 20 -34 0z"/>
<path d="M2695 1670 c3 -5 2 -10 -3 -10 -20 0 -52 -39 -52 -63 0 -25 2 -26 25
-15 14 6 25 18 25 27 0 9 7 25 15 35 19 25 19 36 -1 36 -8 0 -12 -4 -9 -10z"/>
<path d="M1767 1646 c-7 -7 -19 -15 -26 -17 -11 -4 -10 -8 3 -21 22 -23 21
-25 -20 -20 -23 3 -34 1 -31 -6 4 -5 25 -10 48 -10 49 -1 72 -17 39 -27 -28
-9 -20 -30 11 -30 21 0 24 5 23 32 0 18 3 30 8 27 4 -3 5 -10 2 -16 -4 -7 -2
-8 4 -4 9 5 9 13 2 26 -15 28 -12 37 5 14 14 -18 14 -18 9 3 -3 11 -16 24 -27
27 -19 5 -20 8 -7 16 8 5 13 10 10 11 -3 0 -13 2 -23 4 -9 2 -23 -2 -30 -9z"/>
<path d="M1830 1646 c0 -2 8 -10 18 -17 15 -13 16 -12 3 4 -13 16 -21 21 -21
13z"/>
<path d="M1698 1633 c7 -3 16 -2 19 1 4 3 -2 6 -13 5 -11 0 -14 -3 -6 -6z"/>
<path d="M1497 1596 c-3 -8 -1 -17 6 -19 7 -2 -3 -11 -20 -21 -18 -9 -33 -19
-33 -23 0 -3 3 -3 7 0 3 4 18 -3 31 -15 14 -13 22 -17 18 -10 -4 6 -4 12 1 12
4 0 9 12 9 28 1 15 3 33 5 41 5 19 -17 25 -24 7z"/>
<path d="M2377 1583 c-4 -3 0 -15 10 -25 9 -10 14 -18 12 -19 -2 0 -12 -2 -22
-4 -11 -2 -16 -1 -13 2 3 4 -1 14 -9 23 -16 18 -60 16 -72 -3 -4 -6 0 -8 11
-4 11 4 15 3 10 -4 -4 -6 0 -15 7 -20 10 -6 11 -9 2 -9 -7 0 -13 -4 -13 -10 0
-19 93 -11 120 11 18 14 21 22 12 26 -7 3 -21 14 -31 24 -10 11 -21 16 -24 12z"/>
<path d="M2157 1483 c-4 -3 -7 -14 -7 -24 0 -12 -10 -21 -27 -25 -16 -3 -35
-8 -43 -11 -8 -4 -18 -5 -23 -5 -4 1 -2 -7 5 -17 9 -14 17 -17 28 -11 9 5 26
6 38 3 16 -4 22 -1 22 10 0 8 12 25 28 36 26 19 26 20 5 21 -16 0 -21 4 -17
15 6 16 2 20 -9 8z"/>
<path d="M2221 1464 c0 -11 3 -14 6 -6 3 7 2 16 -1 19 -3 4 -6 -2 -5 -13z"/>
<path d="M2460 1460 c0 -5 5 -10 10 -10 6 0 10 5 10 10 0 6 -4 10 -10 10 -5 0
-10 -4 -10 -10z"/>
<path d="M2347 1444 c-32 -17 -31 -37 1 -42 28 -4 70 37 51 49 -18 11 -19 11
-52 -7z"/>
<path d="M1916 1415 c4 -8 2 -15 -4 -15 -13 0 -24 -29 -16 -42 4 -6 12 -1 20
13 7 13 16 24 21 25 4 0 24 4 43 9 34 8 34 9 10 16 -46 13 -80 11 -74 -6z"/>
<path d="M2346 1355 c-3 -8 -11 -15 -18 -15 -9 0 -9 3 2 10 12 7 11 9 -6 8
-13 -1 -21 -10 -22 -26 -3 -34 -12 -44 -33 -39 -12 3 -17 1 -13 -6 3 -7 -8 3
-24 21 -31 35 -64 40 -107 15 -22 -13 -13 -19 32 -26 12 -2 26 -6 29 -10 15
-15 26 -6 13 11 -13 15 -12 16 3 3 10 -7 16 -16 14 -20 -3 -4 4 -17 14 -31 18
-24 18 -24 -14 -49 -17 -14 -31 -33 -30 -41 2 -31 6 -34 14 -12 5 12 16 22 24
22 9 0 27 26 42 60 17 39 32 59 40 56 7 -3 15 0 18 7 2 7 5 4 5 -7 1 -12 6
-16 17 -12 9 3 22 6 30 6 19 0 18 54 -2 74 -19 20 -20 20 -28 1z"/>
<path d="M2544 1348 c-4 -7 -4 -10 1 -6 4 4 15 2 23 -4 16 -14 62 -19 62 -7 0
4 -4 11 -10 14 -5 3 -10 2 -10 -3 0 -14 -29 -10 -34 5 -7 16 -23 17 -32 1z"/>
<path d="M2442 1310 c-14 -23 -8 -40 14 -40 15 0 17 14 6 42 -7 17 -8 16 -20
-2z"/>
<path d="M2520 1305 c0 -8 3 -15 8 -16 4 0 15 -2 25 -4 18 -3 18 -3 1 16 -21
23 -34 24 -34 4z"/>
<path d="M2203 1255 c0 -8 4 -12 9 -9 5 3 6 10 3 15 -9 13 -12 11 -12 -6z"/>
<path d="M2575 1180 c-31 -46 -73 -52 -62 -9 3 11 0 19 -8 19 -16 0 -68 -40
-61 -47 3 -3 0 -15 -6 -27 -10 -19 -10 -20 5 -7 11 8 17 9 17 2 0 -14 54 -3
105 22 62 31 66 36 52 58 -16 25 -18 24 -42 -11z"/>
<path d="M3302 1194 c-12 -8 -20 -19 -17 -24 3 -4 -2 -13 -10 -20 -21 -18 -19
-30 14 -82 22 -34 35 -45 52 -44 19 1 25 8 30 38 3 20 3 35 -1 33 -6 -4 -24
26 -30 50 -1 6 -7 19 -13 30 -10 19 -9 19 9 5 18 -14 18 -14 4 5 -8 11 -15 21
-15 22 -1 2 -11 -4 -23 -13z"/>
<path d="M3104 1091 c11 -11 23 -21 28 -21 14 0 -1 19 -25 31 -22 12 -22 12
-3 -10z"/>
<path d="M2040 1080 c0 -5 5 -10 11 -10 5 0 7 5 4 10 -3 6 -8 10 -11 10 -2 0
-4 -4 -4 -10z"/>
<path d="M2190 1052 l-23 -18 37 4 c22 3 36 10 36 18 0 19 -24 17 -50 -4z"/>
<path d="M3180 1040 c14 -10 27 -17 29 -14 6 5 -31 33 -44 33 -5 1 1 -8 15
-19z"/>
</g>
</svg>
