<?xml version="1.0" standalone="no"?>
<!DOCTYPE svg PUBLIC "-//W3C//DTD SVG 20010904//EN"
 "http://www.w3.org/TR/2001/REC-SVG-20010904/DTD/svg10.dtd">
<svg version="1.0" xmlns="http://www.w3.org/2000/svg"
 width="450.000000pt" height="253.000000pt" viewBox="0 0 450.000000 253.000000"
 preserveAspectRatio="xMidYMid meet">
<metadata>
Created by potrace 1.16, written by Peter Selinger 2001-2019
</metadata>
<g transform="translate(0.000000,253.000000) scale(0.100000,-0.100000)"
fill="#000000" stroke="none">
<path d="M0 1265 l0 -1265 2250 0 2250 0 0 1265 0 1265 -2250 0 -2250 0 0
-1265z m2700 1180 c8 -5 48 -8 90 -7 43 2 96 -4 123 -12 56 -17 117 -55 117
-73 0 -7 4 -13 10 -13 20 0 84 -139 94 -203 1 -9 5 -20 9 -23 4 -4 7 -15 7
-25 0 -22 19 -33 87 -49 52 -12 53 -11 76 16 23 26 29 28 99 27 67 -1 88 -7
194 -53 129 -56 180 -89 194 -125 5 -13 13 -26 18 -29 12 -7 3 -105 -14 -138
-31 -60 -227 -241 -278 -257 -17 -5 -58 -17 -91 -27 -33 -9 -62 -19 -64 -20
-2 -2 12 -22 30 -46 49 -63 56 -78 74 -164 21 -103 12 -204 -21 -236 -50 -49
-63 -60 -76 -62 -7 -1 -20 -6 -28 -11 -54 -35 -263 -46 -395 -20 -89 17 -185
48 -228 73 -27 16 -29 16 -41 0 -7 -10 -23 -18 -34 -18 -14 0 -27 -11 -38 -31
-8 -17 -11 -28 -5 -25 21 13 11 -10 -16 -41 -88 -95 -162 -137 -269 -149 -76
-9 -181 32 -229 90 -19 24 -35 46 -35 50 0 4 -12 33 -27 64 -16 35 -28 81 -31
119 -4 55 -2 62 18 73 32 17 11 34 -25 20 -34 -13 -57 -6 -49 14 6 16 -15 21
-127 30 -65 5 -77 8 -174 49 -89 38 -163 102 -179 155 -4 12 -12 22 -17 22 -6
0 -8 9 -4 19 3 11 1 22 -4 25 -6 4 -9 33 -7 65 3 62 18 90 81 153 51 51 68 64
135 103 36 21 66 39 68 40 1 1 -31 35 -71 76 -116 115 -167 249 -136 352 12
42 16 45 83 72 66 27 81 29 206 29 112 0 147 -3 208 -22 56 -18 91 -22 158
-20 l85 3 57 53 c57 53 134 97 195 113 39 10 178 6 197 -6z m-88 -1632 c-5
-59 -10 -63 -11 -10 -1 26 3 47 7 47 4 0 6 -17 4 -37z"/>
<path d="M2353 2030 c-36 -14 -27 -19 33 -18 49 1 54 3 38 15 -20 15 -39 16
-71 3z"/>
<path d="M2510 2006 c0 -2 9 -6 20 -9 11 -3 18 -1 14 4 -5 9 -34 13 -34 5z"/>
<path d="M2542 1891 c-11 -6 -11 -17 -3 -47 12 -42 7 -55 -12 -34 -9 10 -9 11
1 6 6 -4 12 -5 12 -2 0 3 -9 10 -21 16 -19 11 -20 10 -9 -9 7 -13 7 -28 2 -38
-5 -10 -14 -40 -21 -67 -10 -41 -10 -51 4 -66 8 -9 15 -21 15 -27 0 -5 17 -22
38 -38 20 -15 29 -25 18 -21 -18 6 -18 5 -2 -19 10 -15 14 -34 10 -49 -5 -23
-3 -24 40 -24 25 1 46 5 46 10 0 4 7 8 15 8 13 0 13 3 3 19 -10 16 -9 23 6 40
10 11 23 18 29 14 6 -4 7 -1 2 7 -6 10 -4 12 8 7 10 -3 17 -2 17 3 0 6 5 9 12
7 10 -2 19 12 50 75 12 25 10 28 -14 28 -28 0 -51 -14 -54 -32 -1 -7 -7 -25
-13 -40 -18 -47 -88 -34 -153 30 -44 42 -49 69 -13 78 27 7 32 18 14 30 -8 4
-7 9 2 14 10 7 10 20 -2 69 -11 45 -17 58 -27 52z"/>
<path d="M2331 1784 c0 -11 3 -14 6 -6 3 7 2 16 -1 19 -3 4 -6 -2 -5 -13z"/>
<path d="M2269 1718 c-3 -32 4 -52 24 -69 12 -10 24 -13 25 -8 2 5 10 9 17 9
8 0 17 5 21 12 5 7 2 9 -8 5 -10 -3 -27 7 -47 30 -17 19 -32 29 -32 21z"/>
<path d="M1933 1701 c3 -13 -15 -51 -24 -51 -6 0 -7 -5 -3 -12 4 -7 3 -8 -5
-4 -14 9 -73 -48 -63 -60 4 -5 -1 -2 -10 5 -13 10 -18 10 -18 2 0 -7 -4 -10
-9 -6 -5 3 -12 1 -16 -4 -3 -6 3 -8 14 -6 21 4 64 -22 56 -35 -6 -9 18 -20 46
-20 12 0 20 9 24 28 3 15 10 42 14 60 7 25 6 32 -5 32 -8 0 -14 5 -14 11 0 5
4 7 10 4 6 -4 7 1 3 11 -4 11 -3 15 5 10 6 -3 14 -1 18 5 4 8 3 9 -4 5 -15 -9
-16 6 -2 20 7 7 6 11 -4 11 -8 0 -14 -3 -13 -6z"/>
<path d="M1522 1618 c-7 -7 -12 -18 -12 -25 0 -7 -6 -13 -12 -13 -10 0 -10 -2
0 -9 11 -7 11 -9 -2 -14 -11 -4 -15 -15 -12 -31 2 -13 -2 -35 -9 -49 -11 -22
-11 -24 6 -20 21 6 62 57 53 66 -3 2 2 22 10 42 19 45 19 46 4 43 -7 -2 -12 3
-10 10 3 15 -1 15 -16 0z"/>
<path d="M2413 1583 c-38 -5 -40 -9 -16 -35 13 -14 13 -18 2 -18 -25 -1 13
-18 55 -24 44 -7 56 -13 56 -27 0 -6 -12 -8 -29 -4 -20 4 -34 1 -46 -12 -18
-17 -17 -18 15 -27 30 -9 35 -7 60 25 21 25 26 37 18 46 -7 9 -7 17 2 28 10
12 8 18 -11 35 -23 19 -40 21 -106 13z"/>
<path d="M2306 1547 c3 -10 9 -15 12 -12 3 3 0 11 -7 18 -10 9 -11 8 -5 -6z"/>
<path d="M2324 1479 c-3 -6 -15 -9 -25 -6 -12 3 -19 0 -19 -8 0 -16 35 -9 51
11 6 8 9 14 6 14 -3 0 -9 -5 -13 -11z"/>
<path d="M2172 1432 c-27 -30 -24 -36 12 -23 17 7 26 7 26 1 0 -6 11 -10 25
-10 14 0 25 4 25 9 0 5 3 17 7 27 5 15 2 16 -30 11 -20 -3 -37 -2 -39 2 -2 4
-13 -3 -26 -17z"/>
<path d="M1984 1439 c-11 -4 -13 -8 -6 -8 23 -2 12 -31 -18 -50 -16 -10 -27
-21 -23 -24 13 -13 64 -7 70 9 3 8 26 24 50 36 24 11 40 25 36 29 -12 12 -86
17 -109 8z"/>
<path d="M2376 1392 c18 -12 25 -42 9 -42 -9 0 -12 -6 -8 -16 5 -13 2 -15 -18
-9 -13 4 -33 16 -45 26 -22 21 -44 25 -44 8 0 -5 -4 -8 -9 -4 -5 3 -12 1 -16
-5 -3 -5 -15 -10 -26 -10 -10 0 -19 -5 -19 -11 0 -7 15 -9 40 -6 29 3 40 1 40
-9 0 -8 3 -14 8 -14 4 0 12 -12 19 -26 11 -23 9 -29 -15 -53 -29 -29 -37 -57
-17 -65 12 -4 78 74 100 118 9 18 20 21 71 21 l61 0 -20 27 c-11 15 -17 34
-14 42 4 10 -1 20 -13 26 -21 11 -101 14 -84 2z"/>
<path d="M2635 1370 c-13 -41 -13 -69 1 -63 7 2 10 12 7 20 -4 11 -2 14 5 9 7
-4 12 -3 12 3 0 9 33 7 72 -5 12 -4 16 -1 13 8 -7 18 -34 34 -72 42 -26 6 -32
4 -38 -14z"/>
<path d="M2534 1345 c-8 -19 2 -45 16 -45 5 0 10 14 10 30 0 31 -16 41 -26 15z"/>
<path d="M2661 1221 c-25 -46 -68 -69 -58 -31 7 26 -9 35 -29 16 -15 -15 -37
-76 -30 -83 5 -5 68 17 124 45 49 24 51 27 39 46 -19 28 -34 31 -46 7z"/>
<path d="M3331 1189 c-1 -9 -9 -27 -19 -40 -25 -32 -21 -63 13 -99 34 -35 42
-28 46 42 2 32 -2 53 -13 65 -8 10 -18 25 -21 33 -5 13 -6 12 -6 -1z"/>
<path d="M3350 1186 c0 -8 4 -17 9 -20 5 -4 7 3 4 14 -6 23 -13 26 -13 6z"/>
<path d="M3030 1160 c0 -5 5 -10 11 -10 5 0 7 5 4 10 -3 6 -8 10 -11 10 -2 0
-4 -4 -4 -10z"/>
<path d="M2500 1135 c0 -9 6 -12 15 -9 8 4 12 10 9 15 -8 14 -24 10 -24 -6z"/>
<path d="M3107 1109 c7 -7 15 -10 18 -7 3 3 -2 9 -12 12 -14 6 -15 5 -6 -5z"/>
<path d="M2282 1088 c-19 -19 -14 -38 9 -38 11 0 18 -4 15 -9 -3 -5 3 -11 14
-14 25 -6 34 7 21 30 -6 10 -11 13 -11 7 0 -7 -11 -9 -26 -6 -18 3 -22 7 -13
13 7 4 17 5 22 2 5 -3 8 0 5 7 -6 19 -22 22 -36 8z"/>
<path d="M2055 1079 c-4 -6 -5 -12 -2 -15 2 -3 7 2 10 11 7 17 1 20 -8 4z"/>
<path d="M2923 1075 c0 -8 4 -12 9 -9 5 3 6 10 3 15 -9 13 -12 11 -12 -6z"/>
<path d="M2570 950 c-11 -11 -20 -24 -20 -29 0 -21 16 -17 38 10 27 33 12 49
-18 19z"/>
</g>
</svg>
