<?xml version="1.0" standalone="no"?>
<!DOCTYPE svg PUBLIC "-//W3C//DTD SVG 20010904//EN"
 "http://www.w3.org/TR/2001/REC-SVG-20010904/DTD/svg10.dtd">
<svg version="1.0" xmlns="http://www.w3.org/2000/svg"
 width="450.000000pt" height="253.000000pt" viewBox="0 0 450.000000 253.000000"
 preserveAspectRatio="xMidYMid meet">
<metadata>
Created by potrace 1.16, written by Peter Selinger 2001-2019
</metadata>
<g transform="translate(0.000000,253.000000) scale(0.100000,-0.100000)"
fill="#000000" stroke="none">
<path d="M0 1265 l0 -1265 2250 0 2250 0 0 1265 0 1265 -2250 0 -2250 0 0
-1265z m2057 601 c7 -1 16 -6 20 -10 4 -4 3 -7 -2 -6 -5 1 -21 2 -34 1 -30 -1
-22 -11 11 -15 13 -1 30 -6 37 -11 10 -5 12 -4 7 3 -5 8 2 12 21 13 24 0 25 1
8 8 -15 6 -6 9 33 12 28 2 53 1 55 -4 4 -12 57 -19 57 -7 0 6 5 8 11 5 6 -4
32 -8 59 -9 81 -2 82 -32 3 -60 -26 -9 -56 -21 -65 -27 -10 -5 -25 -9 -33 -9
-8 0 -15 -4 -15 -10 0 -5 8 -10 17 -10 13 0 14 -3 5 -12 -7 -7 -12 -19 -12
-28 0 -11 -7 -16 -22 -14 -13 1 -27 3 -31 3 -5 1 -5 7 0 14 4 7 -4 5 -18 -5
-15 -9 -31 -13 -39 -8 -9 6 -8 10 6 20 18 11 18 11 1 6 -11 -3 -24 -3 -30 1
-7 4 -14 8 -17 8 -3 1 -20 9 -38 18 -18 10 -37 15 -41 12 -5 -3 -7 4 -4 14 3
11 12 22 22 25 9 3 -1 4 -21 1 -21 -2 -40 0 -43 5 -5 9 24 25 40 21 6 -1 4 3
-2 10 -7 7 -20 14 -28 15 -13 2 -14 0 -4 -12 10 -12 9 -13 -4 -9 -8 4 -17 15
-20 26 -3 11 -14 19 -29 20 l-23 1 25 8 c21 7 69 6 137 -4z m635 -1 c182 -42
429 -190 428 -256 -1 -29 -17 -52 -50 -68 l-25 -12 25 20 c23 18 39 68 19 55
-5 -3 -9 0 -9 5 0 6 -5 11 -11 11 -6 0 -8 -8 -5 -17 5 -16 4 -16 -6 -3 -9 11
-33 15 -80 15 -38 0 -68 4 -68 8 0 5 -5 5 -10 2 -6 -4 -8 -10 -5 -15 3 -5 0
-12 -6 -16 -7 -4 -9 -3 -5 4 4 6 -1 11 -11 11 -42 1 -79 7 -93 16 -8 5 -27 8
-42 6 -17 -1 -28 2 -28 9 0 7 -7 9 -16 6 -12 -4 -15 -2 -10 9 3 9 0 15 -10 15
-8 0 -13 -4 -10 -9 3 -5 -3 -11 -14 -14 -13 -3 -18 -1 -13 6 4 7 0 6 -10 -1
-17 -14 -124 -15 -142 -1 -10 7 -16 9 -35 9 -16 0 -12 30 5 36 8 4 12 10 9 15
-3 5 2 12 10 15 12 5 8 13 -19 37 l-34 30 21 19 c12 10 24 18 29 18 4 0 5 9 2
19 -3 13 1 21 14 24 39 10 145 6 205 -8z m-837 -47 c0 -18 -4 -32 -8 -30 -4 1
-17 2 -29 2 -20 1 -20 2 7 15 25 11 26 14 9 14 -22 1 -94 -71 -94 -94 0 -8 -9
-16 -19 -20 -10 -3 -21 -15 -24 -26 -5 -19 -2 -21 21 -16 100 20 108 20 87 4
-11 -8 -27 -14 -35 -12 -29 6 -124 -21 -128 -36 -3 -11 -2 -11 7 1 10 14 13
11 15 -18 1 -8 -16 -32 -37 -54 -40 -42 -44 -59 -8 -36 12 7 19 18 17 25 -3 7
1 10 10 6 7 -3 14 -1 14 5 0 11 65 52 82 52 7 0 1 -10 -12 -22 -13 -12 -19
-23 -13 -25 6 -2 9 -12 6 -22 -3 -12 -11 -17 -27 -14 -13 3 -29 -3 -39 -15
-17 -19 -17 -19 25 -12 53 10 62 5 53 -29 -11 -41 -13 -54 -14 -77 -1 -15 -8
-22 -23 -22 -13 0 -27 -1 -33 -2 -23 -5 -35 1 -35 18 0 14 -2 15 -10 2 -14
-23 -45 -21 -47 4 -11 132 7 205 74 304 52 77 129 160 158 172 31 12 51 -4 50
-42z m605 33 c0 -10 -24 -21 -43 -21 -7 0 -3 7 7 15 22 17 36 19 36 6z m-596
-129 c2 -4 -4 -8 -14 -8 -10 0 -16 4 -14 8 3 4 9 8 14 8 5 0 11 -4 14 -8z
m205 -15 c-2 -1 -11 -8 -21 -15 -12 -10 -18 -10 -24 -1 -4 7 -3 9 4 5 6 -3 13
-2 17 4 3 5 11 10 17 10 6 0 9 -1 7 -3z m45 -35 c3 -5 -1 -9 -9 -9 -8 0 -12 4
-9 9 3 4 7 8 9 8 2 0 6 -4 9 -8z m-260 -17 c-22 -17 -48 -20 -39 -5 4 6 11 8
16 5 5 -4 9 -1 9 4 0 6 8 11 17 11 15 0 14 -2 -3 -15z m-136 -336 c-3 -8 -7
-3 -11 10 -4 17 -3 21 5 13 5 -5 8 -16 6 -23z m-11 -61 c-3 -7 -5 -2 -5 12 0
14 2 19 5 13 2 -7 2 -19 0 -25z m9 -121 c1 -23 4 -69 8 -102 3 -33 8 -98 11
-145 3 -47 8 -101 10 -120 8 -70 17 -275 12 -270 -3 3 -8 34 -11 70 -3 36 -7
83 -10 105 -8 65 -15 153 -21 265 -11 196 -13 251 -7 245 4 -3 7 -25 8 -48z
m50 -698 c2 -24 2 -40 -1 -37 -3 3 -8 24 -10 48 -2 24 -2 40 1 37 3 -3 8 -25
10 -48z m1 -86 c-3 -10 -5 -4 -5 12 0 17 2 24 5 18 2 -7 2 -21 0 -30z"/>
<path d="M2160 1825 c-11 -13 -15 -13 -22 -3 -8 10 -9 10 -6 -1 3 -8 18 -15
36 -16 34 -2 40 6 18 24 -10 9 -16 8 -26 -4z"/>
<path d="M2223 1823 c-24 -9 -13 -19 17 -18 16 1 31 3 32 6 2 2 1 3 -1 2 -2
-1 -11 1 -20 6 -9 5 -22 6 -28 4z"/>
<path d="M2513 1855 c0 -9 18 -14 60 -17 32 -2 61 0 64 5 2 4 -4 7 -14 8 -10
1 -34 2 -53 3 -20 1 -41 5 -46 9 -6 3 -11 0 -11 -8z"/>
<path d="M2782 1704 c5 -19 3 -20 -36 -13 -22 5 -54 8 -71 8 -24 -1 -21 -3 20
-14 27 -8 51 -19 53 -24 2 -5 9 -8 16 -5 6 2 32 -6 58 -20 32 -17 49 -21 59
-14 11 7 11 11 1 15 -6 2 -10 9 -7 14 4 5 -1 6 -10 3 -10 -4 -28 7 -52 32 -27
29 -35 34 -31 18z"/>
<path d="M2770 1646 c0 -2 7 -9 15 -16 9 -7 15 -8 15 -2 0 5 -7 12 -15 16 -8
3 -15 4 -15 2z"/>
<path d="M1820 1840 c-8 -5 -10 -10 -5 -10 6 0 17 5 25 10 8 5 11 10 5 10 -5
0 -17 -5 -25 -10z"/>
<path d="M1661 1686 c-10 -12 -8 -13 8 -9 12 3 18 9 15 14 -7 12 -10 11 -23
-5z"/>
<path d="M1680 1435 c-7 -14 -10 -28 -7 -32 4 -3 7 -1 7 6 0 7 5 9 13 5 6 -4
9 -4 5 1 -4 4 -3 16 3 26 5 11 6 19 1 19 -5 0 -15 -11 -22 -25z"/>
<path d="M1582 1425 c0 -16 2 -22 5 -12 2 9 2 23 0 30 -3 6 -5 -1 -5 -18z"/>
</g>
</svg>
