<?xml version="1.0" standalone="no"?>
<!DOCTYPE svg PUBLIC "-//W3C//DTD SVG 20010904//EN"
 "http://www.w3.org/TR/2001/REC-SVG-20010904/DTD/svg10.dtd">
<svg version="1.0" xmlns="http://www.w3.org/2000/svg"
 width="450.000000pt" height="253.000000pt" viewBox="0 0 450.000000 253.000000"
 preserveAspectRatio="xMidYMid meet">
<metadata>
Created by potrace 1.16, written by Peter Selinger 2001-2019
</metadata>
<g transform="translate(0.000000,253.000000) scale(0.100000,-0.100000)"
fill="#000000" stroke="none">
<path d="M0 1265 l0 -1265 2250 0 2250 0 0 1265 0 1265 -2250 0 -2250 0 0
-1265z m3240 725 c196 -36 271 -68 295 -127 8 -20 15 -42 15 -49 0 -17 -32
-18 -48 -2 -7 7 -12 8 -12 2 0 -21 26 -41 75 -59 55 -19 96 -52 124 -100 18
-30 18 -32 0 -54 -11 -13 -19 -29 -19 -36 0 -19 -55 -62 -88 -69 -38 -9 -58
-41 -37 -62 26 -26 55 -91 61 -137 5 -34 1 -50 -17 -79 -38 -57 -66 -69 -159
-66 -44 2 -80 -1 -80 -6 0 -5 -8 -2 -18 7 -10 10 -22 13 -28 8 -15 -14 -62
-22 -66 -10 -2 5 -11 7 -21 4 -9 -4 -14 -11 -11 -16 7 -12 -121 -4 -174 10
-21 6 -46 18 -57 27 -20 15 -20 15 3 11 12 -3 20 -1 16 4 -3 5 28 9 71 9 48 0
74 4 70 10 -3 5 3 10 14 10 11 0 31 5 45 12 24 10 24 12 8 24 -13 9 -20 10
-31 1 -12 -10 -13 -9 -6 2 6 11 4 13 -7 8 -9 -3 -15 -1 -14 6 3 22 17 37 28
31 6 -4 8 -2 4 4 -7 12 -46 12 -46 0 0 -4 -9 -8 -21 -8 -13 0 -18 -4 -13 -12
4 -6 3 -8 -4 -5 -5 4 -8 16 -5 27 3 11 9 17 14 15 10 -7 50 31 42 39 -3 3 -14
1 -24 -5 -11 -5 -19 -7 -19 -4 0 4 -6 3 -12 -2 -16 -9 -20 -10 -59 -12 -18 0
-28 -5 -24 -11 4 -6 11 -8 16 -5 5 4 9 -1 9 -9 0 -9 3 -15 8 -15 20 3 32 -2
27 -12 -4 -6 -24 -9 -45 -6 -33 4 -37 2 -32 -15 5 -19 1 -20 -85 -14 -116 7
-138 13 -193 51 -31 22 -55 51 -78 94 -31 61 -35 94 -7 71 8 -6 3 10 -10 37
-13 26 -25 57 -27 68 -2 11 -7 23 -13 27 -6 5 -4 8 5 8 13 0 13 1 0 10 -8 5
-10 10 -5 10 6 0 11 23 13 52 2 32 10 60 20 72 9 11 11 16 3 11 -9 -5 -7 1 4
19 10 14 14 26 9 26 -5 0 6 13 23 29 22 20 30 35 27 48 -4 14 3 27 22 42 26
20 51 29 189 63 86 22 231 21 355 -2z m-658 -95 c47 -7 78 -28 60 -39 -5 -3
-47 -13 -93 -21 -146 -27 -155 -31 -165 -67 -9 -30 -14 -33 -57 -38 -27 -4
-47 -2 -47 4 0 12 -31 46 -42 46 -5 0 -4 -9 2 -19 6 -12 7 -28 1 -43 -8 -21
-9 -20 -20 19 -6 23 -20 48 -31 56 -11 8 -18 16 -15 19 3 2 -2 5 -10 5 -11 0
-12 -4 -4 -13 16 -20 -9 -28 -28 -9 -13 13 -18 14 -24 3 -7 -10 -9 -10 -10 2
0 10 -3 8 -9 -5 -6 -15 -9 -16 -9 -4 -2 29 21 79 35 80 31 3 35 4 42 15 4 7
18 14 32 16 38 7 338 1 392 -7z m-390 -147 c-4 -23 -7 -26 -18 -17 -20 17 -18
48 4 46 14 -1 17 -7 14 -29z m-29 -27 c-2 -6 4 -11 12 -11 8 0 17 -11 21 -25
5 -19 9 -23 19 -15 16 13 27 -11 14 -31 -8 -12 -10 -12 -19 1 -8 12 -10 12
-10 1 0 -11 -3 -11 -15 -1 -8 6 -19 9 -25 5 -5 -3 -10 -1 -10 5 0 6 -4 8 -10
5 -5 -3 -7 0 -4 8 4 12 -3 15 -28 14 -18 -1 -36 -6 -40 -12 -5 -7 -8 -7 -8 0
0 13 10 26 39 50 14 11 21 15 18 8 -4 -6 -3 -14 3 -18 5 -3 10 -1 10 5 0 6 5
8 12 4 8 -5 9 -2 5 10 -5 12 -3 16 5 13 7 -2 12 -10 11 -16z m-93 -90 c0 -17
4 -18 36 -11 42 10 86 -1 63 -15 -20 -13 -49 -13 -42 -1 4 6 0 5 -9 -1 -8 -7
-17 -11 -20 -8 -2 3 -5 -2 -5 -10 0 -8 6 -15 14 -15 7 0 13 -8 13 -17 0 -13 3
-14 12 -5 14 14 38 16 38 4 0 -5 -6 -9 -12 -10 -40 -5 -100 -20 -85 -21 22 -1
22 -7 -3 -38 -25 -32 -15 -51 10 -21 11 13 19 17 20 11 0 -7 -4 -13 -10 -13
-5 0 -9 -3 -9 -7 4 -21 -15 -92 -23 -87 -5 3 -12 -3 -15 -15 -7 -28 -21 -27
-28 2 -5 19 14 177 28 232 3 11 6 30 6 43 1 27 21 30 21 3z m270 -21 c0 -5 -2
-10 -4 -10 -3 0 -8 5 -11 10 -3 6 -1 10 4 10 6 0 11 -4 11 -10z m-204 -217
c-10 -10 -19 5 -10 18 6 11 8 11 12 0 2 -7 1 -15 -2 -18z"/>
<path d="M3244 1819 c-12 -21 21 -55 49 -50 5 1 7 -7 6 -16 -2 -10 3 -35 10
-56 13 -39 9 -73 -9 -62 -5 3 -19 -4 -30 -15 -17 -17 -18 -24 -9 -42 6 -11 14
-17 18 -12 7 11 26 12 37 2 19 -20 33 -7 27 24 -4 22 -3 29 5 24 11 -6 16 5
13 26 0 4 8 12 19 18 25 13 26 30 3 31 -16 0 -16 1 1 8 17 7 18 8 1 24 -14 15
-20 15 -33 5 -13 -11 -14 -11 -7 2 12 19 7 49 -11 68 -18 18 -82 33 -90 21z"/>
<path d="M3390 1657 c-8 -7 -16 -19 -18 -27 -2 -13 0 -12 10 1 7 9 20 18 28
21 7 2 10 7 4 10 -5 4 -16 1 -24 -5z"/>
<path d="M3236 1530 c-21 -25 -25 -39 -22 -77 2 -25 9 -49 16 -53 7 -4 9 -14
5 -21 -4 -8 2 -4 12 8 24 30 44 17 39 -25 -3 -26 0 -32 15 -32 11 0 19 5 19
11 0 5 6 7 13 3 9 -6 9 -5 0 7 -10 13 -9 20 7 37 18 19 18 21 2 25 -15 4 -15
5 -1 6 11 1 17 10 17 24 0 12 3 31 6 42 5 15 0 23 -19 32 -19 8 -23 8 -18 0 3
-7 -5 -3 -18 9 -40 35 -46 35 -73 4z"/>
<path d="M2178 1873 c7 -3 16 -2 19 1 4 3 -2 6 -13 5 -11 0 -14 -3 -6 -6z"/>
</g>
</svg>
