<?xml version="1.0" standalone="no"?>
<!DOCTYPE svg PUBLIC "-//W3C//DTD SVG 20010904//EN"
 "http://www.w3.org/TR/2001/REC-SVG-20010904/DTD/svg10.dtd">
<svg version="1.0" xmlns="http://www.w3.org/2000/svg"
 width="450.000000pt" height="253.000000pt" viewBox="0 0 450.000000 253.000000"
 preserveAspectRatio="xMidYMid meet">
<metadata>
Created by potrace 1.16, written by Peter Selinger 2001-2019
</metadata>
<g transform="translate(0.000000,253.000000) scale(0.100000,-0.100000)"
fill="#000000" stroke="none">
<path d="M0 1265 l0 -1265 2250 0 2250 0 0 1265 0 1265 -2250 0 -2250 0 0
-1265z m3081 694 c35 -11 100 -38 144 -60 71 -35 84 -46 118 -98 81 -127 86
-183 22 -261 -25 -30 -45 -58 -45 -61 0 -3 -19 -19 -42 -35 -24 -16 -45 -32
-48 -35 -3 -3 -25 -16 -50 -27 -25 -12 -70 -37 -102 -56 -50 -30 -58 -33 -75
-21 -14 11 -15 14 -3 15 8 0 2 7 -14 15 -15 8 -32 13 -36 10 -4 -3 -13 2 -20
10 -11 13 -16 13 -44 -4 -20 -12 -38 -16 -51 -11 -29 11 -49 -7 -29 -27 23
-23 9 -27 -25 -7 -29 17 -34 38 -7 28 8 -3 16 -1 19 4 3 4 -10 14 -29 21 -18
7 -34 19 -34 26 0 8 -6 12 -14 9 -7 -3 -20 6 -29 19 -15 23 -14 25 14 46 23
17 28 26 19 36 -8 9 -8 15 0 20 6 4 9 1 8 -7 -2 -8 6 -12 22 -11 14 1 18 -1 8
-3 -9 -3 -19 -12 -22 -20 -3 -8 -2 -12 3 -9 5 3 12 1 15 -4 3 -4 51 -8 106 -7
55 0 100 -2 100 -6 0 -8 -15 -12 -37 -9 -7 1 -13 -3 -13 -9 0 -5 12 -10 26
-10 24 0 25 -2 13 -17 -12 -16 -12 -17 1 -6 18 13 42 12 61 -3 30 -24 43 -28
37 -12 -4 8 -1 15 7 15 7 0 10 -8 7 -19 -3 -13 1 -18 17 -18 12 0 21 6 21 16
0 8 -4 12 -10 9 -5 -3 -10 -3 -10 2 1 8 67 42 93 47 6 2 29 11 50 20 34 15 40
25 36 64 -1 7 -26 7 -64 -1 -11 -3 -26 1 -34 7 -12 8 -13 8 -7 -2 6 -10 -5
-12 -48 -11 -30 1 -53 6 -50 11 3 5 13 7 21 3 13 -4 14 -3 4 9 -7 8 -19 12
-27 9 -8 -3 -14 0 -14 5 0 11 -31 9 -49 -3 -5 -3 -12 -1 -16 5 -3 5 -11 10
-16 10 -6 0 -7 -6 -3 -12 5 -8 0 -7 -11 2 -11 9 -16 10 -11 3 4 -8 1 -13 -9
-13 -9 0 -13 5 -10 10 4 6 1 9 -7 8 -7 -2 -16 -10 -20 -18 -5 -11 -7 -10 -7 5
-1 17 -3 17 -11 5 -9 -13 -10 -13 -10 0 0 13 -1 13 -10 0 -5 -8 -10 -10 -10
-5 0 6 -8 11 -17 12 -23 2 -75 13 -135 28 -16 4 -28 14 -28 24 0 12 -2 13 -9
3 -6 -10 -10 -9 -14 7 -3 12 -1 24 4 27 6 3 5 11 -2 20 -6 8 -8 14 -3 14 5 0
-2 7 -14 16 -30 21 -28 41 13 104 5 8 10 30 11 48 2 31 1 32 -11 15 -8 -10
-15 -13 -15 -7 0 5 12 22 28 37 82 79 294 111 433 66z m-671 -50 c0 -8 4 -8
14 0 16 13 106 12 106 -1 0 -5 11 -6 24 -2 26 6 45 -11 29 -27 -5 -5 -59 -22
-119 -36 -101 -25 -135 -40 -115 -53 10 -6 -2 -41 -14 -42 -6 0 -18 -4 -27 -9
-11 -6 -18 -5 -21 4 -3 9 -9 9 -27 -1 -21 -13 -22 -12 -18 6 4 13 1 19 -6 16
-6 -2 -26 10 -44 27 -39 37 -54 30 -29 -12 18 -33 22 -59 8 -59 -5 0 -11 12
-14 28 -6 28 -68 102 -86 102 -17 0 -13 -32 7 -46 22 -17 -1 -18 -29 -1 -17 9
-23 9 -26 0 -8 -21 -31 9 -25 32 7 28 33 57 48 51 7 -3 15 1 18 9 6 16 50 21
224 23 84 1 122 -1 122 -9z m-296 -145 c9 -22 -1 -51 -19 -58 -8 -3 -15 -11
-15 -18 0 -9 3 -8 10 2 7 12 13 13 27 3 10 -6 17 -17 15 -23 -2 -8 4 -10 15
-6 17 6 17 5 0 -8 -14 -11 -26 -12 -52 -3 -19 5 -32 13 -30 17 3 4 -4 10 -15
13 -11 3 -18 2 -16 -2 3 -4 -11 -5 -30 -3 -19 2 -34 6 -34 8 0 9 63 35 74 31
17 -7 61 18 48 27 -12 7 -5 36 8 36 4 0 11 -7 14 -16z m-150 -125 c-3 -24 -1
-30 11 -25 34 13 115 18 115 8 0 -6 -5 -14 -12 -18 -7 -5 -8 -3 -3 6 8 12 -6
10 -64 -12 l-24 -9 22 -22 c27 -29 26 -34 -1 -32 -36 3 -58 -8 -29 -15 l24 -5
-28 -33 c-17 -21 -22 -32 -13 -32 8 0 19 5 26 12 20 20 -3 -46 -28 -80 -40
-54 -50 -33 -47 92 2 87 6 118 20 139 9 14 17 36 17 47 0 12 4 19 9 16 5 -3 7
-20 5 -37z m783 -111 c-3 -8 -6 -5 -6 6 -1 11 2 17 5 13 3 -3 4 -12 1 -19z
m118 -2 c16 -3 32 -2 35 3 3 5 16 4 30 -1 l25 -10 -35 -13 c-24 -8 -39 -9 -48
-2 -7 5 -15 7 -19 4 -9 -10 -44 13 -38 24 4 5 10 7 14 5 4 -3 20 -7 36 -10z
m389 -18 c-3 -4 -12 -8 -20 -8 -8 0 -14 4 -14 8 0 4 9 8 19 8 11 0 17 -4 15
-8z m-584 -37 c0 -14 2 -14 10 -1 5 8 10 11 10 5 0 -5 5 -3 10 5 6 9 10 10 10
3 0 -6 -4 -15 -10 -18 -14 -9 -54 -16 -46 -8 3 3 1 11 -4 18 -7 8 -5 12 5 12
8 0 15 -7 15 -16z m256 -123 c4 -6 3 -8 -3 -5 -6 4 -16 0 -23 -8 -7 -8 -17
-15 -22 -15 -6 0 0 9 13 20 29 23 26 23 35 8z m34 -56 c0 -4 -12 -8 -27 -9
-24 -1 -25 -1 -8 7 26 11 35 12 35 2z"/>
<path d="M3260 1560 c0 -5 5 -10 11 -10 5 0 7 5 4 10 -3 6 -8 10 -11 10 -2 0
-4 -4 -4 -10z"/>
<path d="M3190 1551 c0 -5 9 -7 20 -4 11 3 20 7 20 9 0 2 -9 4 -20 4 -11 0
-20 -4 -20 -9z"/>
<path d="M2770 1430 c-13 -8 -12 -10 3 -10 9 0 17 5 17 10 0 12 -1 12 -20 0z"/>
<path d="M2876 1432 c-3 -5 1 -9 9 -9 8 0 12 4 9 9 -3 4 -7 8 -9 8 -2 0 -6 -4
-9 -8z"/>
<path d="M2070 1889 c0 -5 5 -9 10 -9 6 0 10 -6 10 -14 0 -8 8 -14 19 -13 28
2 19 30 -12 38 -15 4 -27 3 -27 -2z"/>
</g>
</svg>
