<?xml version="1.0" standalone="no"?>
<!DOCTYPE svg PUBLIC "-//W3C//DTD SVG 20010904//EN"
 "http://www.w3.org/TR/2001/REC-SVG-20010904/DTD/svg10.dtd">
<svg version="1.0" xmlns="http://www.w3.org/2000/svg"
 width="450.000000pt" height="253.000000pt" viewBox="0 0 450.000000 253.000000"
 preserveAspectRatio="xMidYMid meet">
<metadata>
Created by potrace 1.16, written by Peter Selinger 2001-2019
</metadata>
<g transform="translate(0.000000,253.000000) scale(0.100000,-0.100000)"
fill="#000000" stroke="none">
<path d="M0 1265 l0 -1265 2250 0 2250 0 0 1265 0 1265 -782 0 c-771 0 -782
-1 -751 -19 35 -22 132 -166 151 -226 16 -48 21 -62 58 -142 20 -42 35 -62 47
-63 10 0 31 -7 46 -14 15 -8 49 -20 75 -27 44 -11 49 -10 72 12 22 21 36 24
97 24 67 0 80 -4 182 -54 105 -52 165 -93 165 -115 0 -5 7 -18 17 -28 9 -11
11 -18 5 -18 -7 0 -12 -17 -12 -41 0 -57 -10 -73 -121 -179 -107 -103 -126
-116 -240 -151 l-75 -23 33 -68 c61 -124 74 -280 31 -379 -11 -26 -31 -52 -44
-60 -14 -7 -30 -21 -35 -31 -5 -10 -18 -18 -29 -18 -10 0 -22 -5 -26 -11 -7
-12 -114 -7 -230 10 -83 12 -227 58 -269 87 l-33 22 -46 -42 c-34 -31 -46 -49
-46 -71 0 -42 -57 -124 -109 -157 -25 -15 -69 -36 -98 -45 l-53 -17 -2 -95 -2
-96 -3 93 -4 93 -33 -2 c-57 -5 -127 67 -201 206 -45 86 -51 152 -17 209 12
20 22 48 22 61 0 21 -3 22 -37 15 -75 -16 -270 9 -388 49 -154 54 -190 83
-187 151 2 28 50 138 71 160 8 8 27 35 42 60 16 25 43 58 61 73 18 15 56 48
83 72 28 25 56 45 63 45 14 0 17 30 3 30 -23 0 -145 129 -171 180 -29 57 -58
146 -54 168 1 6 2 24 3 40 1 22 9 30 44 44 130 53 336 67 452 33 63 -19 79
-20 133 -10 21 4 32 12 32 23 0 9 11 37 25 61 14 23 25 47 25 52 0 9 52 70 94
110 19 19 -14 19 -1257 19 l-1277 0 0 -1265z m2467 -897 c-3 -8 -6 -5 -6 6 -1
11 2 17 5 13 3 -3 4 -12 1 -19z"/>
<path d="M2237 2239 c7 -7 15 -10 18 -7 3 3 -2 9 -12 12 -14 6 -15 5 -6 -5z"/>
<path d="M2900 1930 c0 -5 -6 -9 -12 -7 -9 1 -13 -17 -14 -63 0 -36 -4 -79 -8
-96 -6 -27 -4 -32 15 -37 24 -7 39 -1 39 14 0 5 -12 9 -27 9 -26 1 -27 2 -10
14 10 8 28 11 40 8 19 -5 20 -3 9 10 -14 17 -6 51 11 41 6 -4 7 -1 2 7 -4 7
-2 16 6 22 11 8 10 9 -3 4 -13 -4 -20 2 -24 19 -3 14 -10 22 -15 19 -5 -3 -6
2 -3 10 8 21 21 20 27 -1 4 -17 5 -17 6 -1 0 10 -8 22 -19 28 -14 7 -20 7 -20
0z"/>
<path d="M2950 1910 c0 -4 14 -10 30 -13 30 -7 42 -27 16 -27 -8 0 -17 -3 -19
-7 -3 -5 12 -8 34 -8 48 0 52 -14 10 -36 -18 -9 -31 -21 -29 -26 2 -4 -7 -9
-20 -11 -18 -3 -22 -8 -16 -25 7 -23 34 -48 45 -41 4 2 9 -3 13 -11 3 -8 1
-15 -5 -15 -6 0 -8 -9 -4 -19 6 -21 -1 -28 -46 -41 -27 -8 -29 -7 -24 10 6 18
-28 60 -47 60 -5 0 -7 4 -4 8 3 5 -5 8 -17 7 -16 -1 -25 -12 -35 -42 -11 -33
-18 -41 -36 -39 -16 1 -22 6 -18 15 3 8 -3 20 -13 27 -10 8 -13 14 -7 14 7 0
12 3 12 8 0 4 -16 7 -35 8 -30 1 -33 -1 -22 -15 10 -14 10 -14 -4 -4 -9 7 -20
9 -25 5 -5 -4 -6 -3 -2 2 11 13 -12 37 -26 29 -6 -4 -5 1 3 11 10 12 24 16 44
13 26 -3 31 0 44 31 8 19 12 36 10 38 -3 3 -32 -3 -66 -12 -48 -14 -58 -20
-50 -30 6 -7 8 -18 4 -24 -8 -13 -40 -4 -76 21 -25 17 -39 16 -39 -3 0 -5 12
-13 26 -18 23 -9 26 -15 20 -40 -3 -17 -1 -30 4 -30 6 0 10 7 10 15 0 17 25
20 35 5 3 -5 1 -19 -5 -30 -8 -15 -8 -18 3 -14 10 4 13 -3 9 -27 -4 -30 -3
-31 18 -19 12 7 25 20 27 30 8 29 29 31 54 4 25 -27 18 -45 -11 -26 -17 10
-20 10 -20 -3 0 -9 11 -21 25 -27 14 -6 24 -17 21 -24 -3 -7 2 -15 10 -18 10
-4 13 -13 8 -31 -5 -19 -2 -25 11 -25 26 0 8 -18 -26 -25 -18 -4 -35 -16 -41
-31 -13 -28 -30 -31 -49 -8 -12 14 -9 20 16 40 29 23 29 24 7 24 -12 0 -38 7
-58 15 -23 9 -42 11 -57 5 -21 -8 -10 -15 21 -11 25 4 11 -20 -20 -31 -29 -10
-30 -12 -13 -24 10 -7 21 -11 25 -9 13 8 32 -23 26 -43 -4 -11 0 -24 9 -32 22
-18 18 -63 -10 -117 -15 -28 -22 -49 -15 -51 5 -2 10 -12 10 -23 0 -10 5 -19
11 -19 5 0 7 -5 3 -12 -4 -7 -3 -8 4 -4 7 4 10 24 7 48 -5 49 2 63 21 47 11
-9 15 -8 20 4 3 9 3 20 0 25 -7 12 18 34 28 25 3 -4 13 3 22 15 8 12 24 22 35
22 10 0 19 7 19 15 0 15 9 17 91 20 28 1 60 10 81 23 31 20 37 20 48 7 24 -29
50 24 28 60 -3 6 -4 18 -2 28 2 16 -2 17 -29 11 -18 -4 -41 -7 -52 -8 -15 -1
-22 -12 -30 -51 -8 -34 -17 -51 -28 -53 -15 -3 -18 3 -16 36 2 22 -2 46 -8 54
-12 14 -6 65 8 74 5 3 9 14 9 25 0 11 4 18 9 15 21 -13 103 -8 140 8 31 15 40
25 46 52 3 19 10 34 14 34 14 0 51 37 44 44 -4 4 -6 25 -4 46 1 23 -2 40 -8
40 -6 0 -8 7 -4 16 3 9 15 14 29 12 23 -3 26 4 16 31 -3 7 1 17 9 23 9 6 0 7
-28 3 -24 -4 -43 -3 -43 2 0 6 -7 10 -15 10 -8 0 -15 -4 -15 -9 0 -5 -8 -5
-17 1 -29 15 -93 30 -93 21z m157 -57 c0 -9 -4 -10 -14 -2 -7 6 -13 12 -13 14
0 1 6 2 13 2 8 0 14 -6 14 -14z m-27 -103 c0 -11 -33 -30 -52 -30 -10 0 -9 3
2 10 13 9 13 11 0 20 -11 7 -7 10 18 10 17 0 32 -4 32 -10z m-210 -150 c0 -5
-4 -10 -9 -10 -6 0 -13 5 -16 10 -3 6 1 10 9 10 9 0 16 -4 16 -10z m-42 -186
c-2 -33 -21 -55 -35 -41 -6 6 24 77 33 77 2 0 4 -16 2 -36z"/>
<path d="M1976 1745 c-10 -8 -23 -12 -27 -9 -5 3 -9 -2 -9 -10 0 -9 -5 -16
-10 -16 -6 0 -15 -11 -20 -24 -5 -14 -19 -30 -31 -36 -15 -8 -19 -9 -15 -1 4
6 3 11 -2 11 -6 0 -12 -7 -16 -15 -3 -8 -12 -15 -20 -15 -8 0 -17 -4 -21 -9
-3 -6 7 -6 26 -1 27 8 29 7 18 -6 -10 -12 -10 -15 2 -12 9 2 13 -4 12 -19 -2
-15 2 -21 11 -17 13 5 56 -31 56 -46 0 -3 -19 -12 -42 -21 -27 -9 -42 -20 -40
-29 9 -41 2 -113 -12 -129 -15 -16 -14 -18 6 -29 13 -6 48 -14 78 -17 107 -11
115 -11 112 5 -10 41 -10 50 -3 45 5 -2 16 6 24 18 12 19 13 24 2 24 -8 0 -11
-5 -8 -10 4 -6 1 -7 -7 -2 -10 6 -9 11 6 22 10 7 34 27 52 43 l33 30 -26 0
c-14 0 -25 5 -25 11 0 5 5 7 11 4 6 -4 5 2 -3 14 -11 18 -10 22 7 35 11 8 24
12 30 9 5 -4 7 -3 3 2 -4 4 2 15 14 25 l21 17 -21 5 c-12 4 -20 2 -17 -2 11
-18 -81 -4 -102 15 -20 19 -41 101 -23 90 9 -6 18 35 12 53 -5 15 -12 15 -36
-3z"/>
<path d="M2796 1658 c3 -5 10 -6 15 -3 13 9 11 12 -6 12 -8 0 -12 -4 -9 -9z"/>
<path d="M2456 1645 c-4 -10 1 -15 16 -15 17 0 18 2 8 15 -7 8 -14 15 -15 15
-2 0 -5 -7 -9 -15z"/>
<path d="M2545 1650 c3 -5 8 -10 11 -10 2 0 4 5 4 10 0 6 -5 10 -11 10 -5 0
-7 -4 -4 -10z"/>
<path d="M2399 1623 c-13 -16 -12 -17 4 -4 16 13 21 21 13 21 -2 0 -10 -8 -17
-17z"/>
<path d="M2573 1574 c-11 -36 -4 -41 31 -28 22 8 20 51 -2 56 -13 4 -21 -3
-29 -28z"/>
<path d="M2444 1575 c25 -19 36 -19 36 0 0 10 -10 15 -27 15 -27 -1 -27 -1 -9
-15z"/>
<path d="M2648 1578 c-7 -19 2 -38 17 -38 18 0 26 15 19 34 -7 19 -30 21 -36
4z"/>
<path d="M2388 1540 c-15 -4 -29 -6 -31 -4 -2 3 -10 -2 -16 -10 -10 -12 -8
-17 9 -26 17 -9 26 -7 50 12 44 35 41 44 -12 28z"/>
<path d="M2358 1463 c-12 -3 -16 -14 -15 -40 3 -35 24 -57 50 -51 14 3 79 -47
71 -54 -2 -3 5 -13 16 -23 18 -16 20 -16 26 -2 7 19 -32 73 -58 82 -14 5 -15
11 -8 31 5 13 7 24 4 24 -4 0 -1 6 5 14 9 11 8 15 -5 20 -17 7 -59 6 -86 -1z"/>
<path d="M2464 1435 c-4 -14 -5 -28 -3 -30 8 -7 50 35 44 45 -12 19 -35 10
-41 -15z"/>
<path d="M2504 1379 c-8 -14 23 -22 42 -11 14 8 13 10 -10 14 -15 3 -29 1 -32
-3z"/>
<path d="M2034 1329 c-4 -7 -3 -9 4 -5 5 3 13 0 15 -6 4 -9 6 -10 6 -1 1 17
-16 25 -25 12z"/>
<path d="M2921 1303 c-20 -4 -22 -9 -17 -35 3 -17 6 -37 6 -45 0 -11 5 -11 29
1 16 9 31 13 34 9 3 -3 9 7 13 22 5 21 2 31 -11 42 -11 7 -21 12 -24 12 -3 -1
-17 -4 -30 -6z"/>
<path d="M3041 1244 c0 -11 3 -14 6 -6 3 7 2 16 -1 19 -3 4 -6 -2 -5 -13z"/>
<path d="M2843 1214 c-18 -18 0 -26 22 -10 14 10 15 14 4 18 -8 3 -20 0 -26
-8z"/>
<path d="M2257 1204 c-8 -8 1 -24 14 -24 5 0 9 7 9 15 0 15 -12 20 -23 9z"/>
</g>
</svg>
