<?xml version="1.0" standalone="no"?>
<!DOCTYPE svg PUBLIC "-//W3C//DTD SVG 20010904//EN"
 "http://www.w3.org/TR/2001/REC-SVG-20010904/DTD/svg10.dtd">
<svg version="1.0" xmlns="http://www.w3.org/2000/svg"
 width="450.000000pt" height="253.000000pt" viewBox="0 0 450.000000 253.000000"
 preserveAspectRatio="xMidYMid meet">
<metadata>
Created by potrace 1.16, written by Peter Selinger 2001-2019
</metadata>
<g transform="translate(0.000000,253.000000) scale(0.100000,-0.100000)"
fill="#000000" stroke="none">
<path d="M0 1265 l0 -1265 2250 0 2250 0 0 1265 0 1265 -2250 0 -2250 0 0
-1265z m3382 747 c81 -23 115 -44 131 -80 6 -15 36 -55 66 -90 41 -46 65 -65
95 -73 49 -13 99 -51 127 -95 19 -31 19 -35 5 -50 -9 -8 -16 -22 -16 -29 0
-22 -71 -85 -96 -85 -13 0 -26 -5 -29 -10 -9 -15 -131 -70 -155 -70 -12 0 -18
-4 -15 -10 3 -5 3 -10 -2 -10 -4 0 -14 -12 -20 -27 -10 -22 -10 -30 1 -42 17
-21 62 -137 71 -184 22 -117 -62 -239 -152 -222 -18 3 -33 9 -33 13 0 4 -19 8
-43 9 -23 2 -51 7 -62 12 -11 5 -62 13 -113 19 -77 9 -105 17 -160 47 -37 21
-78 51 -92 67 -14 17 -37 43 -52 59 -16 16 -28 34 -28 39 0 13 2 13 36 -4 16
-8 53 -17 82 -21 43 -5 52 -3 52 10 0 9 -4 13 -10 10 -5 -3 -10 -4 -10 -2 0 3
15 14 33 25 25 14 39 17 53 10 18 -9 18 -8 2 5 -10 8 -15 16 -12 20 3 3 -8 4
-25 3 -17 -1 -31 1 -31 4 0 4 -20 2 -44 -4 -25 -6 -42 -14 -39 -20 4 -5 -29
-7 -83 -3 l-89 5 -45 49 c-36 40 -52 71 -82 157 -21 59 -36 111 -34 114 2 4 7
41 11 82 4 48 15 92 30 121 13 26 21 49 18 53 -4 3 1 6 10 6 10 0 17 5 17 10
0 13 -38 13 -76 1 -16 -5 -51 -12 -78 -16 -35 -5 -45 -9 -35 -16 11 -7 11 -9
1 -9 -7 0 -26 -14 -41 -31 -32 -35 -87 -46 -94 -20 -3 9 -3 3 -2 -12 1 -15 -2
-30 -7 -33 -5 -3 -6 -10 -2 -15 3 -5 9 -7 14 -4 4 3 3 -6 -3 -20 -14 -30 -17
-30 -51 -4 -16 12 -26 16 -26 8 0 -8 -5 -7 -17 3 -10 9 -26 14 -35 13 -11 -2
-15 2 -11 11 3 8 9 14 14 14 5 0 9 10 9 23 0 18 2 19 10 7 5 -8 10 -25 10 -37
0 -16 5 -21 15 -17 12 5 12 9 -2 30 -9 15 -11 24 -4 24 6 0 11 5 11 11 0 5 -4
7 -10 4 -5 -3 -10 -2 -10 4 0 5 6 11 12 13 15 5 -13 38 -31 38 -6 0 -12 5 -12
10 -1 6 -2 16 -3 23 -3 19 13 47 29 47 7 0 15 6 18 13 3 9 48 12 183 12 98 0
195 -3 214 -7 19 -4 29 -4 23 -1 -23 9 -13 42 20 67 34 26 188 71 212 63 6 -3
27 -1 46 4 19 4 111 7 204 4 130 -2 186 -8 237 -23z m-1181 -404 c1 -16 3 -18
6 -7 5 19 37 31 59 22 20 -8 17 -35 -3 -32 -10 1 -24 1 -32 0 -24 -2 20 -30
47 -31 12 0 22 -4 22 -9 0 -11 -34 -20 -80 -22 -19 -1 -27 -3 -18 -6 10 -2 15
-10 11 -19 -3 -8 0 -14 5 -14 7 0 8 -10 2 -30 -5 -16 -6 -30 -3 -30 3 0 1 -6
-4 -12 -6 -7 -9 -21 -7 -31 1 -11 0 -17 -3 -14 -8 8 -43 -26 -44 -43 0 -10 -3
-8 -8 5 -9 23 -6 66 9 140 6 28 13 65 17 81 3 16 6 39 6 52 1 12 5 22 9 22 4
0 9 -10 9 -22z m52 -193 c-3 -9 -8 -14 -10 -11 -3 3 -2 9 2 15 9 16 15 13 8
-4z m-103 -202 c-11 -17 -11 -17 -6 0 3 10 7 35 8 55 l1 37 4 -37 c2 -21 -1
-46 -7 -55z m-5 -152 c3 -5 2 -12 -3 -15 -5 -3 -9 1 -9 9 0 17 3 19 12 6z
m104 -491 c-1 -132 -4 -238 -8 -236 -4 3 -6 103 -5 223 2 251 2 253 9 253 3 0
5 -108 4 -240z"/>
<path d="M3131 1878 c5 -10 14 -18 20 -18 14 0 39 -26 39 -40 0 -6 4 -9 9 -5
5 3 13 0 17 -6 4 -7 3 -9 -3 -6 -6 4 -10 -5 -9 -22 1 -29 16 -33 16 -5 0 8 3
13 8 12 4 0 15 2 26 7 10 4 21 4 25 -2 9 -15 61 -25 61 -13 0 6 5 8 12 4 6 -4
8 -3 5 3 -3 5 -24 18 -47 28 -28 13 -39 23 -35 33 5 12 3 13 -10 2 -13 -11
-16 -11 -13 1 2 8 -7 15 -19 17 -13 2 -23 8 -23 14 0 6 -11 8 -25 6 -14 -3
-25 -2 -25 1 0 4 -9 7 -19 7 -16 0 -17 -4 -10 -18z"/>
<path d="M3160 1774 c0 -9 4 -13 9 -10 5 4 12 0 14 -6 4 -10 6 -10 6 0 1 6 2
15 4 19 1 3 -6 7 -15 9 -10 1 -18 -4 -18 -12z"/>
<path d="M2277 1748 c-6 -39 10 -79 23 -57 9 14 2 69 -10 82 -4 5 -10 -6 -13
-25z"/>
<path d="M3190 1730 c-8 -5 -25 -10 -38 -10 -35 0 -25 -35 10 -35 15 -1 30 -4
34 -8 14 -14 32 -7 36 16 8 43 -9 58 -42 37z"/>
<path d="M3348 1726 c-16 -5 -28 -14 -28 -19 0 -4 -4 -6 -9 -3 -4 3 -16 -3
-25 -13 -15 -16 -15 -20 -1 -31 12 -10 19 -7 41 20 19 22 29 28 35 19 4 -7 -4
-24 -22 -43 -32 -33 -45 -68 -34 -86 6 -9 10 -9 16 1 7 12 9 12 9 0 0 -10 6
-10 26 4 14 9 28 14 31 11 4 -3 12 -1 19 5 8 7 10 19 4 40 -5 16 -6 28 -2 25
4 -2 16 0 27 5 l20 8 -20 1 c-19 1 -19 1 -3 14 17 12 17 14 -2 31 -11 10 -23
15 -27 12 -3 -4 -11 -3 -17 1 -6 5 -23 4 -38 -2z m41 -113 c-6 -7 -15 -10 -20
-7 -13 8 -3 21 15 21 12 0 13 -4 5 -14z"/>
<path d="M3022 1639 c-13 -5 -20 -14 -17 -19 4 -7 -3 -9 -19 -6 -14 3 -26 1
-26 -4 0 -23 15 -40 35 -40 30 0 56 10 51 19 -3 4 10 8 27 9 38 3 53 15 35 29
-21 16 -61 22 -86 12z"/>
<path d="M3150 1640 c0 -5 5 -10 10 -10 6 0 10 5 10 10 0 6 -4 10 -10 10 -5 0
-10 -4 -10 -10z"/>
<path d="M3138 1613 c7 -3 16 -2 19 1 4 3 -2 6 -13 5 -11 0 -14 -3 -6 -6z"/>
<path d="M3250 1581 c0 -17 18 -21 24 -6 3 9 0 15 -9 15 -8 0 -15 -4 -15 -9z"/>
<path d="M3085 1571 c-3 -5 -1 -12 5 -16 5 -3 10 -3 10 1 0 3 6 1 14 -5 8 -7
30 -11 50 -9 38 2 40 10 3 15 -12 2 -26 8 -31 13 -13 13 -43 13 -51 1z"/>
<path d="M3000 1541 c0 -6 4 -13 10 -16 6 -3 7 1 4 9 -7 18 -14 21 -14 7z"/>
<path d="M3055 1490 c-4 -12 -16 -29 -28 -40 -11 -11 -18 -22 -15 -25 9 -9 38
7 38 21 0 8 9 14 21 14 11 0 18 -4 14 -9 -3 -6 3 -15 14 -21 13 -7 22 -7 26 0
4 6 11 8 16 5 5 -4 9 1 9 11 0 12 -6 15 -25 12 -29 -6 -42 7 -26 26 13 15 5
26 -20 26 -10 0 -21 -9 -24 -20z"/>
<path d="M3090 1371 c0 -6 9 -15 20 -21 29 -15 15 -32 -16 -20 -33 13 -30 14
-48 -22 -20 -39 -20 -38 7 -38 12 0 35 -7 51 -15 26 -14 28 -14 22 2 -4 10 -4
15 -1 11 4 -3 16 3 27 14 15 14 23 17 31 9 6 -6 15 -11 20 -11 10 0 -71 77
-95 91 -12 6 -18 6 -18 0z"/>
<path d="M3250 1276 c0 -8 5 -18 10 -21 6 -3 10 1 10 9 0 8 -4 18 -10 21 -5 3
-10 -1 -10 -9z"/>
<path d="M3062 1240 c13 -20 28 -27 28 -12 0 4 -9 13 -20 20 -19 12 -20 11 -8
-8z"/>
<path d="M3100 1230 c0 -5 5 -10 11 -10 5 0 7 5 4 10 -3 6 -8 10 -11 10 -2 0
-4 -4 -4 -10z"/>
<path d="M3170 1230 c0 -6 7 -10 15 -10 8 0 15 2 15 4 0 2 -7 6 -15 10 -8 3
-15 1 -15 -4z"/>
<path d="M2995 1172 c6 -6 33 -15 62 -20 41 -7 53 -6 57 4 4 11 -7 14 -43 14
-27 0 -58 3 -68 6 -12 5 -15 4 -8 -4z"/>
<path d="M2186 1474 c-10 -25 1 -29 14 -5 6 12 7 21 1 21 -5 0 -12 -7 -15 -16z"/>
</g>
</svg>
