<?xml version="1.0" standalone="no"?>
<!DOCTYPE svg PUBLIC "-//W3C//DTD SVG 20010904//EN"
 "http://www.w3.org/TR/2001/REC-SVG-20010904/DTD/svg10.dtd">
<svg version="1.0" xmlns="http://www.w3.org/2000/svg"
 width="450.000000pt" height="253.000000pt" viewBox="0 0 450.000000 253.000000"
 preserveAspectRatio="xMidYMid meet">
<metadata>
Created by potrace 1.16, written by Peter Selinger 2001-2019
</metadata>
<g transform="translate(0.000000,253.000000) scale(0.100000,-0.100000)"
fill="#000000" stroke="none">
<path d="M0 1265 l0 -1265 2250 0 2250 0 0 1265 0 1265 -2250 0 -2250 0 0
-1265z m2841 1220 c12 -11 19 -14 14 -6 -5 9 1 7 19 -4 19 -13 26 -14 26 -4 0
8 6 5 16 -7 8 -10 13 -12 9 -4 -4 10 -2 9 8 -2 8 -10 17 -15 20 -11 4 3 7 0 7
-8 0 -11 2 -11 10 1 9 13 10 13 10 -1 0 -21 56 -73 69 -64 6 3 9 11 6 16 -10
15 2 10 16 -8 10 -12 10 -14 1 -9 -7 4 -15 0 -19 -10 -4 -10 -2 -19 5 -22 7
-2 10 -7 7 -12 -3 -4 3 -28 14 -52 10 -24 21 -65 24 -90 3 -26 10 -55 16 -66
6 -11 6 -24 0 -33 -12 -19 -11 -29 2 -29 5 0 7 6 3 13 -4 6 1 5 12 -4 10 -9
25 -14 33 -11 8 3 11 0 7 -6 -4 -7 3 -9 19 -6 14 2 25 1 25 -4 0 -19 30 -7 31
12 0 12 3 15 6 8 3 -9 11 -7 30 8 14 11 29 17 34 14 5 -3 9 -1 9 4 0 5 12 7
26 4 21 -4 25 -2 19 8 -5 9 0 7 15 -3 19 -13 27 -14 39 -4 10 8 12 8 8 1 -4
-8 5 -14 26 -18 17 -3 35 -5 38 -3 3 1 13 -6 23 -16 10 -9 22 -15 27 -12 5 4
9 1 9 -5 0 -7 7 -10 15 -6 8 3 15 1 15 -4 0 -8 41 -26 49 -21 2 2 7 -1 10 -6
3 -4 25 -21 49 -37 39 -26 66 -58 67 -78 0 -4 9 -14 20 -22 11 -9 14 -16 8
-16 -8 0 -13 -14 -13 -36 0 -21 4 -33 10 -29 23 14 -38 -74 -93 -135 -95 -106
-185 -178 -237 -189 -25 -6 -62 -16 -84 -24 l-38 -13 24 -29 c70 -84 108 -203
108 -336 0 -57 -2 -62 -40 -99 -23 -22 -47 -40 -54 -40 -8 0 -19 -6 -25 -14
-20 -24 -163 -39 -300 -33 -131 6 -233 30 -333 77 -43 20 -49 20 -63 7 -8 -9
-15 -22 -16 -29 0 -10 -2 -10 -6 0 -7 17 -16 15 -42 -9 -14 -13 -20 -27 -16
-40 8 -23 -5 -41 -66 -97 -81 -74 -193 -90 -306 -45 -90 36 -117 62 -160 155
-20 43 -39 78 -43 78 -3 0 -7 17 -8 37 -2 20 -8 44 -15 52 -7 8 -12 24 -12 35
0 18 -5 21 -39 18 -31 -3 -38 -1 -33 11 9 24 -14 37 -63 37 -51 0 -110 16
-190 53 -82 37 -135 80 -159 130 -12 25 -29 48 -38 51 -11 5 -13 10 -6 17 11
11 6 49 -6 49 -4 0 -8 18 -9 39 -2 30 5 53 30 93 18 29 36 54 40 56 4 2 8 8 8
13 0 6 -4 8 -9 4 -5 -3 -12 -1 -15 4 -3 4 4 8 17 7 12 0 21 4 20 11 -2 7 3 10
10 7 7 -2 22 6 33 18 l19 23 -22 -18 c-16 -14 -23 -15 -29 -6 -4 7 -3 10 3 6
6 -4 16 0 23 8 9 11 16 12 26 4 10 -8 16 -5 26 10 7 12 18 21 25 21 7 0 22 8
32 17 20 16 18 18 -47 87 -37 39 -75 87 -84 106 -52 112 -61 140 -62 182 -1
27 -4 48 -8 48 -5 0 2 10 13 21 13 13 17 24 11 28 -7 4 -6 12 2 23 7 10 16 15
19 11 4 -3 15 1 24 9 17 14 44 26 83 35 13 3 74 10 118 12 7 1 11 5 8 10 -4 5
2 8 11 6 10 -2 18 -4 18 -5 0 -4 44 -10 85 -13 25 -1 50 -5 55 -9 6 -3 18 -4
28 -3 9 2 17 -1 17 -6 0 -6 5 -7 10 -4 6 3 10 1 10 -4 0 -6 8 -11 18 -11 10 0
22 -3 26 -7 12 -12 47 -10 42 3 -5 12 7 12 36 0 10 -5 38 -6 63 -4 25 3 45 2
45 -2 0 -4 7 -7 15 -7 8 0 15 6 15 14 0 7 5 13 11 13 7 0 9 10 7 25 -3 14 -1
23 6 22 6 -1 10 4 8 11 -1 8 2 11 8 7 8 -5 7 -12 -2 -23 -11 -15 -11 -15 3 -5
9 7 20 9 24 5 5 -4 5 1 1 12 -5 15 -2 17 14 13 23 -6 36 8 19 19 -8 5 -9 3 -4
-7 5 -8 4 -10 0 -6 -5 4 -10 15 -11 24 -2 11 0 13 8 5 9 -9 15 -9 25 -1 7 7
13 8 13 5 0 -4 7 -1 15 6 41 37 45 39 45 26 0 -9 3 -9 8 -2 6 9 32 23 55 29 4
2 8 3 10 5 14 12 187 19 187 8 0 -11 23 -6 32 7 5 6 8 3 8 -6 0 -10 8 -15 23
-13 12 1 37 3 55 3 18 1 31 5 27 10 -3 6 -14 8 -25 6 -11 -2 -22 0 -24 4 -10
16 44 4 65 -14z m209 -71 c0 -2 -9 0 -20 6 -11 6 -20 13 -20 16 0 2 9 0 20 -6
11 -6 20 -13 20 -16z m-39 -1 c13 -16 12 -17 -3 -4 -17 13 -22 21 -14 21 2 0
10 -8 17 -17z m266 -328 c0 -8 -4 -12 -9 -9 -5 3 -6 10 -3 15 9 13 12 11 12
-6z m-72 -14 c3 -5 2 -12 -3 -15 -5 -3 -9 1 -9 9 0 17 3 19 12 6z m-568 -1208
c-3 -10 -5 -2 -5 17 0 19 2 27 5 18 2 -10 2 -26 0 -35z m-6 -65 c-4 -35 -6
-38 -9 -15 -3 26 3 57 10 57 2 0 1 -19 -1 -42z m-14 -130 c-3 -8 -6 -5 -6 6
-1 11 2 17 5 13 3 -3 4 -12 1 -19z m0 -40 c-3 -8 -6 -5 -6 6 -1 11 2 17 5 13
3 -3 4 -12 1 -19z"/>
<path d="M2300 2031 c0 -6 5 -12 10 -12 20 -3 25 -4 40 -14 13 -8 13 -7 1 8
-8 10 -16 15 -19 12 -3 -3 -11 0 -19 6 -9 9 -13 8 -13 0z"/>
<path d="M2463 1874 c-3 -8 -1 -25 4 -37 8 -18 10 -16 11 16 1 39 -5 48 -15
21z"/>
<path d="M2419 1810 c-1 -8 -2 -34 -4 -56 -1 -23 -5 -53 -9 -68 -3 -14 -3 -26
2 -26 4 0 16 -14 26 -31 10 -17 34 -37 52 -45 32 -14 50 -42 19 -30 -9 3 -15
0 -15 -8 0 -8 5 -16 11 -18 7 -2 7 -12 0 -31 l-11 -27 50 0 c28 0 50 5 50 10
0 5 3 9 8 9 19 -3 22 3 11 22 -9 17 -7 25 11 44 l21 22 -45 6 c-46 7 -61 16
-122 74 -37 34 -43 60 -18 70 8 3 13 12 9 21 -3 8 2 23 11 33 16 17 15 18 -15
9 -17 -5 -29 -5 -27 -1 3 4 1 13 -5 21 -7 13 -9 13 -10 0z"/>
<path d="M2344 1708 c-4 -7 -3 -8 4 -4 6 4 22 1 34 -5 21 -11 22 -11 9 4 -16
20 -37 22 -47 5z"/>
<path d="M2197 1680 c3 -11 14 -25 24 -30 19 -11 49 -4 49 12 0 5 -4 7 -9 4
-4 -3 -16 3 -26 14 -24 26 -45 26 -38 0z"/>
<path d="M1857 1678 c6 -7 13 -20 16 -28 4 -10 6 -8 6 6 1 12 -6 25 -15 28
-13 5 -14 3 -7 -6z"/>
<path d="M2705 1667 c-34 -18 -47 -36 -49 -66 -2 -23 2 -27 16 -23 22 5 29 15
45 62 14 41 14 42 -12 27z"/>
<path d="M1814 1643 c-11 -8 -20 -19 -20 -26 -1 -7 -2 -18 -3 -24 0 -7 -4 -12
-8 -12 -19 3 -34 -2 -29 -9 3 -5 21 -8 41 -7 24 2 39 -3 46 -14 8 -13 9 -11 3
8 -4 14 -2 21 3 18 13 -8 4 43 -11 63 -10 13 -9 13 7 1 9 -7 17 -23 18 -35 0
-11 3 -15 6 -8 3 7 1 20 -3 30 -4 9 -7 20 -6 23 2 11 -25 6 -44 -8z"/>
<path d="M1496 1591 c-13 -15 -14 -20 -4 -24 8 -3 3 -9 -14 -17 -16 -7 -28
-17 -28 -22 0 -5 5 -6 10 -3 6 4 13 -7 16 -25 l7 -31 15 23 c17 24 33 106 22
113 -4 3 -15 -4 -24 -14z"/>
<path d="M2400 1576 c0 -7 -8 -20 -17 -27 -16 -13 -17 -12 -4 4 7 9 12 17 10
18 -69 9 -89 9 -89 1 0 -14 26 -33 33 -25 4 3 7 2 7 -3 0 -6 -5 -15 -10 -20
-8 -8 5 -11 42 -12 39 -1 60 3 78 17 l25 20 -28 10 c-15 6 -27 15 -27 21 0 5
-4 10 -10 10 -5 0 -10 -6 -10 -14z"/>
<path d="M1820 1543 c0 -15 -2 -16 -10 -3 -8 13 -10 12 -10 -2 0 -11 8 -18 19
-18 14 0 18 5 14 20 -7 25 -13 26 -13 3z"/>
<path d="M2180 1471 c0 -24 -7 -28 -49 -36 -18 -3 -40 -12 -48 -20 -13 -13 -9
-15 27 -15 30 0 39 3 34 13 -6 8 -3 8 9 -2 15 -11 18 -10 27 13 5 14 16 26 25
26 21 0 19 13 -5 28 -17 11 -20 10 -20 -7z"/>
<path d="M2360 1452 l-24 -19 22 -7 c31 -10 64 2 60 22 -5 24 -31 26 -58 4z"/>
<path d="M1940 1432 c0 -8 -5 -10 -12 -6 -8 5 -7 0 2 -11 9 -11 10 -16 3 -11
-8 4 -13 1 -13 -9 0 -9 -4 -14 -9 -11 -5 3 -12 -1 -15 -10 -4 -11 -2 -15 8
-11 8 3 17 1 20 -6 2 -7 5 -5 5 4 1 9 19 24 41 34 23 10 44 23 47 29 3 6 3 8
-1 4 -5 -4 -19 -3 -32 2 -17 7 -24 6 -24 -3 0 -8 -4 -7 -10 3 -7 11 -10 11
-10 2z"/>
<path d="M2318 1366 c21 -27 21 -30 5 -42 -17 -11 -16 -13 10 -23 16 -6 41
-10 57 -9 27 2 27 2 14 35 -8 18 -15 36 -17 40 -1 5 -16 8 -33 9 -17 1 -37 5
-45 10 -7 4 -4 -5 9 -20z"/>
<path d="M2570 1364 c0 -8 5 -12 10 -9 6 3 10 10 10 16 0 5 -4 9 -10 9 -5 0
-10 -7 -10 -16z"/>
<path d="M2600 1362 c0 -8 61 -34 67 -29 1 2 -13 11 -32 20 -19 9 -35 13 -35
9z"/>
<path d="M2162 1345 c-37 -20 -39 -28 -4 -23 17 2 32 0 32 -5 0 -6 3 -8 6 -4
9 9 39 -23 39 -42 0 -9 6 -15 13 -13 22 4 13 -18 -20 -47 -21 -18 -29 -33 -25
-44 5 -14 10 -13 34 11 34 33 76 109 68 122 -3 6 -18 10 -32 10 -16 0 -27 7
-30 20 -3 11 -8 21 -12 21 -27 6 -49 4 -69 -6z"/>
<path d="M2468 1344 c-12 -11 -10 -42 3 -49 14 -10 16 -4 10 28 -3 16 -9 25
-13 21z"/>
<path d="M2543 1315 c0 -8 4 -12 9 -9 4 3 8 9 8 15 0 5 -4 9 -8 9 -5 0 -9 -7
-9 -15z"/>
<path d="M2583 1195 c-12 -24 -23 -35 -38 -35 -18 0 -21 5 -17 25 2 14 0 25
-7 25 -20 0 -51 -34 -51 -57 0 -16 -6 -23 -19 -23 -11 0 -22 -4 -25 -8 -6 -10
60 -10 69 0 4 4 13 4 20 2 17 -7 119 49 123 67 1 8 -7 20 -18 27 -18 11 -22 9
-37 -23z"/>
<path d="M3287 1170 c-28 -31 -34 -54 -17 -65 6 -4 8 -10 5 -15 -7 -12 24 -48
56 -65 l27 -14 -3 47 c-3 56 -14 102 -25 102 -4 0 -11 7 -14 16 -5 14 -4 15 8
5 14 -12 32 0 19 13 -13 13 -30 5 -56 -24z"/>
<path d="M3090 1105 c0 -2 10 -10 23 -16 20 -11 21 -11 8 4 -13 16 -31 23 -31
12z"/>
<path d="M2020 1059 c0 -11 5 -17 10 -14 6 3 10 13 10 21 0 8 -4 14 -10 14 -5
0 -10 -9 -10 -21z"/>
<path d="M2217 1066 c-16 -13 -16 -15 8 -30 14 -9 25 -23 25 -31 0 -8 8 -15
18 -15 10 0 24 -6 32 -12 12 -11 12 -10 1 5 -11 14 -11 17 0 17 12 0 12 2 1 9
-8 4 -13 11 -12 15 1 4 0 12 -3 19 -3 9 -8 9 -21 -2 -9 -8 -19 -11 -23 -7 -3
3 -1 6 4 6 13 0 10 33 -3 37 -5 1 -17 -4 -27 -11z"/>
<path d="M2557 942 c-15 -9 -27 -22 -27 -29 0 -19 6 -16 35 13 32 32 29 38 -8
16z"/>
</g>
</svg>
