<?xml version="1.0" standalone="no"?>
<!DOCTYPE svg PUBLIC "-//W3C//DTD SVG 20010904//EN"
 "http://www.w3.org/TR/2001/REC-SVG-20010904/DTD/svg10.dtd">
<svg version="1.0" xmlns="http://www.w3.org/2000/svg"
 width="450.000000pt" height="253.000000pt" viewBox="0 0 450.000000 253.000000"
 preserveAspectRatio="xMidYMid meet">
<metadata>
Created by potrace 1.16, written by Peter Selinger 2001-2019
</metadata>
<g transform="translate(0.000000,253.000000) scale(0.100000,-0.100000)"
fill="#000000" stroke="none">
<path d="M0 1265 l0 -1265 2250 0 2250 0 0 1265 0 1265 -2250 0 -2250 0 0
-1265z m3310 769 c81 -10 151 -45 183 -91 18 -27 36 -43 49 -43 11 0 43 -24
72 -54 29 -31 65 -58 82 -62 47 -11 121 -62 143 -99 11 -19 16 -35 12 -37 -4
-2 -16 -21 -27 -43 -15 -29 -36 -48 -80 -72 -32 -17 -80 -43 -107 -58 -26 -14
-67 -28 -92 -32 -28 -3 -45 -11 -45 -19 0 -7 -9 -29 -19 -47 l-19 -34 28 -59
c61 -128 60 -242 -1 -312 -38 -43 -81 -67 -107 -59 -109 31 -181 47 -250 57
-100 13 -102 14 -178 64 -80 52 -172 171 -107 138 10 -5 35 -12 55 -15 36 -5
37 -5 26 19 -8 18 -14 21 -20 12 -6 -10 -8 -10 -8 -1 0 7 -7 10 -15 7 -8 -4
-15 -1 -15 6 0 6 4 9 9 5 5 -3 12 -1 16 5 4 6 11 8 16 4 16 -10 59 5 59 20 0
17 43 15 64 -3 12 -10 19 -9 34 6 24 24 40 27 61 11 9 -7 13 -9 9 -4 -12 15
20 38 44 31 16 -4 6 10 -35 49 -31 31 -62 56 -67 56 -17 0 -11 -18 13 -41 l22
-21 -36 6 c-33 6 -36 4 -50 -26 -15 -35 -58 -50 -83 -29 -7 6 -16 8 -20 4 -4
-4 2 -14 13 -23 20 -14 17 -15 -37 -14 -31 1 -63 -3 -69 -9 -8 -5 -39 -7 -77
-3 -80 9 -98 27 -158 156 -49 105 -69 172 -57 192 4 7 11 42 14 78 7 72 28
133 59 169 l21 24 -25 -6 c-14 -4 -53 -12 -88 -18 -35 -6 -61 -13 -59 -15 2
-3 -11 -21 -30 -40 -22 -23 -43 -36 -59 -36 -28 0 -40 -19 -29 -45 19 -43 16
-54 -13 -47 -15 3 -34 6 -42 6 -25 1 -60 39 -58 65 2 15 7 22 16 18 10 -3 12
0 8 10 -3 9 1 18 9 22 12 4 13 9 4 19 -6 8 -17 14 -24 14 -8 0 -15 6 -18 13
-5 16 12 67 23 67 5 0 16 8 26 18 16 15 39 17 198 16 100 0 175 1 169 3 -22 8
-14 30 20 59 72 64 397 98 647 68z m-1050 -414 c23 12 50 3 50 -17 0 -10 -6
-12 -19 -8 -23 7 -39 -14 -20 -26 8 -5 27 -9 44 -9 46 0 13 -24 -38 -26 -55
-3 -54 -3 -37 -14 12 -7 12 -12 2 -22 -6 -6 -12 -19 -12 -27 0 -11 6 -9 20 9
l20 25 -10 -29 c-6 -16 -9 -35 -6 -43 3 -7 1 -13 -5 -13 -5 0 -7 -11 -3 -25 5
-20 2 -25 -13 -25 -10 0 -25 -6 -32 -12 -11 -11 -12 -5 -8 32 4 36 25 147 35
183 1 4 2 19 3 35 0 15 3 21 6 15 3 -9 10 -10 23 -3z m31 -207 c-12 -20 -14
-14 -5 12 4 9 9 14 11 11 3 -2 0 -13 -6 -23z m-3 -899 c-1 -19 -5 -37 -9 -40
-4 -2 -6 4 -4 13 2 10 4 28 4 41 1 12 3 22 6 22 3 0 5 -16 3 -36z"/>
<path d="M3425 1920 c-3 -5 1 -10 10 -10 9 0 13 5 10 10 -3 6 -8 10 -10 10 -2
0 -7 -4 -10 -10z"/>
<path d="M3072 1893 c3 -14 14 -18 55 -18 28 0 49 -3 47 -7 -5 -8 42 -45 69
-54 12 -4 36 -18 54 -31 17 -13 34 -20 37 -14 10 16 -5 39 -30 45 -14 4 -23
10 -20 14 2 4 -4 9 -15 9 -11 1 -17 -2 -14 -7 3 -6 -1 -7 -10 -4 -10 4 -12 10
-7 18 5 6 9 19 9 28 0 14 -3 15 -14 7 -10 -9 -13 -8 -13 2 -1 8 -7 3 -16 -11
-13 -21 -14 -22 -9 -4 4 15 0 24 -12 29 -31 12 -65 16 -59 7 3 -5 -1 -9 -9 -9
-8 0 -12 4 -9 9 3 4 -4 8 -16 8 -15 0 -20 -5 -18 -17z m165 -37 c-5 -16 -27
-19 -27 -3 0 7 7 14 15 14 9 0 14 -5 12 -11z"/>
<path d="M3396 1865 c-19 -19 -22 -32 -3 -17 6 6 15 11 20 11 8 1 11 11 4 17
-3 3 -12 -2 -21 -11z"/>
<path d="M3200 1786 c0 -2 6 -9 14 -15 11 -9 16 -9 22 0 4 8 3 9 -4 5 -7 -4
-12 -2 -12 3 0 6 -4 11 -10 11 -5 0 -10 -2 -10 -4z"/>
<path d="M3124 1769 c-8 -13 35 -17 51 -5 14 10 12 12 -15 11 -18 0 -34 -3
-36 -6z"/>
<path d="M2303 1738 c3 -40 22 -47 25 -9 1 18 -3 31 -13 35 -11 4 -14 -2 -12
-26z"/>
<path d="M3153 1723 c-61 -8 -37 -29 55 -50 37 -9 41 -8 30 5 -7 8 -12 23 -10
34 3 19 -3 20 -75 11z m54 -29 c-3 -3 -12 -4 -19 -1 -8 3 -5 6 6 6 11 1 17 -2
13 -5z"/>
<path d="M3321 1715 c-33 -18 -47 -45 -30 -56 9 -5 24 2 45 22 21 21 31 25 31
14 0 -8 -4 -15 -9 -15 -4 0 -8 -5 -8 -12 0 -6 -9 -21 -20 -33 -22 -23 -33 -61
-24 -77 3 -5 16 -2 29 6 17 11 25 12 34 3 7 -7 12 -7 11 -2 -2 6 -1 12 0 15 1
3 2 19 3 37 1 21 -1 28 -9 22 -7 -5 -11 -3 -11 6 0 8 3 12 7 10 4 -2 16 3 28
11 18 12 20 19 12 35 -6 11 -15 17 -20 14 -5 -3 -11 -1 -15 5 -8 13 -24 11
-54 -5z"/>
<path d="M2263 1695 c0 -8 4 -15 9 -15 4 0 8 4 8 9 0 6 -4 12 -8 15 -5 3 -9
-1 -9 -9z"/>
<path d="M3001 1651 c-8 -5 -11 -16 -8 -26 5 -11 2 -16 -11 -14 -9 1 -28 1
-41 0 -22 -1 -23 -2 -9 -23 20 -31 75 -34 104 -7 19 18 38 26 69 28 21 2 -16
24 -40 24 -15 0 -29 6 -32 13 -6 16 -13 17 -32 5z"/>
<path d="M3251 1576 c-8 -9 -11 -19 -7 -23 9 -9 29 13 24 27 -2 8 -8 7 -17 -4z"/>
<path d="M3080 1573 l-24 -5 29 -12 c17 -7 34 -13 39 -14 5 0 13 -6 17 -14 7
-10 9 -9 9 5 0 9 5 17 11 17 5 0 8 -4 5 -8 -3 -5 1 -9 8 -9 7 0 13 6 13 14 0
7 -8 13 -18 13 -10 0 -21 5 -24 10 -6 10 -21 11 -65 3z"/>
<path d="M2963 1525 c-20 -22 -15 -30 6 -11 17 16 20 16 50 -1 29 -17 42 -43
21 -43 -5 0 -10 -9 -10 -21 0 -11 -4 -18 -9 -15 -5 3 -11 -1 -15 -9 -8 -21 10
-19 34 5 11 11 23 20 28 20 4 0 12 8 18 18 16 24 -5 53 -34 47 -11 -2 -23 3
-26 11 -7 18 -47 18 -63 -1z"/>
<path d="M3196 1512 c-3 -6 0 -13 6 -15 10 -4 10 -6 0 -6 -7 -1 -23 4 -35 10
-21 10 -21 10 -3 -5 11 -9 14 -16 7 -16 -7 0 -10 -4 -7 -8 2 -4 1 -14 -5 -22
-6 -11 -9 -12 -9 -2 0 9 -5 10 -16 4 -9 -5 -25 -7 -35 -5 -23 6 -25 -13 -3
-25 25 -14 68 -2 88 26 11 14 14 22 8 18 -7 -4 -12 -2 -12 3 0 6 6 11 14 11
19 0 27 13 17 29 -6 8 -11 9 -15 3z"/>
<path d="M2910 1437 c0 -8 7 -17 15 -21 8 -3 15 -2 15 3 0 5 -7 14 -15 21 -12
10 -15 10 -15 -3z"/>
<path d="M2955 1420 c-3 -5 1 -10 9 -10 9 0 16 5 16 10 0 6 -4 10 -9 10 -6 0
-13 -4 -16 -10z"/>
<path d="M3270 1356 c0 -2 7 -7 16 -10 8 -3 12 -2 9 4 -6 10 -25 14 -25 6z"/>
<path d="M3050 1210 c-9 -6 -10 -10 -3 -10 6 0 15 5 18 10 8 12 4 12 -15 0z"/>
<path d="M2990 1140 c0 -7 48 -20 78 -20 25 0 9 8 -36 18 -23 6 -42 6 -42 2z"/>
</g>
</svg>
