<?xml version="1.0" standalone="no"?>
<!DOCTYPE svg PUBLIC "-//W3C//DTD SVG 20010904//EN"
 "http://www.w3.org/TR/2001/REC-SVG-20010904/DTD/svg10.dtd">
<svg version="1.0" xmlns="http://www.w3.org/2000/svg"
 width="450.000000pt" height="253.000000pt" viewBox="0 0 450.000000 253.000000"
 preserveAspectRatio="xMidYMid meet">
<metadata>
Created by potrace 1.16, written by Peter Selinger 2001-2019
</metadata>
<g transform="translate(0.000000,253.000000) scale(0.100000,-0.100000)"
fill="#000000" stroke="none">
<path d="M0 1265 l0 -1265 2250 0 2250 0 0 1265 0 1265 -827 -1 c-686 0 -820
-3 -781 -13 118 -32 196 -155 218 -345 l13 -111 50 -15 c65 -19 62 -20 102 11
32 24 41 26 117 22 65 -3 96 -9 143 -32 33 -15 76 -35 95 -44 53 -24 121 -82
132 -114 5 -15 13 -28 17 -28 13 0 2 -109 -14 -140 -20 -39 -169 -188 -228
-228 -24 -17 -73 -38 -109 -47 -95 -24 -99 -28 -60 -67 19 -17 43 -49 53 -71
31 -59 59 -184 60 -260 1 -67 0 -70 -36 -103 -21 -19 -42 -34 -48 -34 -6 0
-18 -7 -27 -15 -27 -25 -118 -40 -245 -40 -183 0 -278 17 -390 71 -72 34 -85
32 -86 -13 0 -21 -4 -56 -9 -78 -8 -37 -9 -36 -7 21 l2 61 -24 -21 c-67 -60
-81 -76 -81 -99 0 -34 -101 -133 -167 -163 -99 -45 -134 -49 -211 -25 -88 27
-123 58 -165 151 -28 60 -68 174 -67 188 0 1 0 34 0 72 0 63 -2 70 -20 70 -22
0 -26 20 -8 38 9 9 8 12 -8 13 -61 2 -193 37 -248 66 -104 55 -137 85 -165
148 -62 137 -64 168 -15 250 40 67 51 78 148 141 l68 45 -49 47 c-73 69 -112
124 -144 205 -47 119 -36 229 25 259 73 37 100 41 234 41 121 -1 145 -4 203
-26 54 -20 83 -25 165 -25 l99 0 45 47 c91 92 174 148 262 176 37 11 -148 13
-1234 14 l-1278 1 0 -1265z m2638 -509 c-1 -19 -5 -33 -8 -31 -7 4 -1 65 6 65
3 0 4 -15 2 -34z m-11 -133 c-3 -10 -5 -4 -5 12 0 17 2 24 5 18 2 -7 2 -21 0
-30z m-10 -115 c-2 -13 -4 -3 -4 22 0 25 2 35 4 23 2 -13 2 -33 0 -45z m-10
-100 c-3 -8 -6 -5 -6 6 -1 11 2 17 5 13 3 -3 4 -12 1 -19z m0 -70 c-3 -8 -6
-5 -6 6 -1 11 2 17 5 13 3 -3 4 -12 1 -19z"/>
<path d="M2748 2523 c7 -3 16 -2 19 1 4 3 -2 6 -13 5 -11 0 -14 -3 -6 -6z"/>
<path d="M2808 2523 c7 -3 16 -2 19 1 4 3 -2 6 -13 5 -11 0 -14 -3 -6 -6z"/>
<path d="M2280 2021 c0 -12 39 -25 47 -17 4 3 -1 6 -11 6 -9 0 -14 5 -11 10 3
6 -1 10 -9 10 -9 0 -16 -4 -16 -9z"/>
<path d="M2436 1782 c-4 -4 -13 -7 -19 -7 -7 -1 -11 -6 -9 -13 1 -7 -3 -12 -9
-12 -6 0 -3 -7 6 -16 18 -18 50 -11 42 10 -3 7 -1 18 5 24 6 6 6 12 0 16 -5 3
-12 2 -16 -2z"/>
<path d="M2388 1695 c-3 -25 1 -40 14 -52 10 -8 15 -19 12 -24 -6 -10 37 -40
63 -43 23 -4 30 -36 8 -36 -13 0 -14 -4 -5 -20 8 -14 8 -26 0 -41 -7 -11 -9
-23 -6 -27 3 -3 6 -1 6 4 0 5 22 7 50 6 31 -3 50 0 50 7 0 6 7 8 15 5 18 -7
19 -3 3 31 -9 19 -9 28 0 37 19 19 14 25 -24 33 -21 3 -49 14 -63 22 -32 20
-91 84 -91 99 0 6 -6 17 -14 23 -11 9 -15 5 -18 -24z"/>
<path d="M2321 1716 c2 -2 14 -9 26 -15 19 -10 22 -9 17 4 -4 8 -15 15 -27 15
-11 0 -18 -2 -16 -4z"/>
<path d="M2186 1677 c7 -19 39 -36 53 -27 9 5 5 9 -13 14 -14 3 -26 11 -26 16
0 6 -4 10 -10 10 -5 0 -7 -6 -4 -13z"/>
<path d="M2711 1671 c-1 -8 -4 -12 -7 -8 -10 10 -64 -49 -64 -72 0 -11 3 -21
8 -21 17 0 52 32 52 49 0 9 5 22 11 28 6 6 9 17 6 25 -4 10 -6 10 -6 -1z"/>
<path d="M1757 1644 c-23 -12 -26 -18 -17 -34 11 -21 5 -24 -34 -20 -10 1 -15
-3 -12 -9 4 -5 25 -9 47 -9 49 0 60 -9 34 -28 -17 -13 -18 -16 -5 -24 23 -15
50 -12 50 5 0 8 4 15 8 15 5 0 9 6 10 13 5 39 9 54 17 66 5 10 4 12 -3 7 -8
-5 -12 0 -12 13 0 26 -41 28 -83 5z"/>
<path d="M1507 1603 c-10 -9 -9 -23 1 -23 5 0 9 7 9 15 0 17 -1 18 -10 8z"/>
<path d="M1490 1556 c0 -2 8 -10 18 -17 15 -13 16 -12 3 4 -13 16 -21 21 -21
13z"/>
<path d="M2308 1554 c6 -3 10 -9 8 -13 -3 -4 3 -7 12 -6 29 2 24 20 -5 22 -15
1 -22 0 -15 -3z"/>
<path d="M2377 1538 c-10 -11 -25 -17 -32 -14 -7 2 -19 -2 -25 -10 -11 -12 -6
-14 29 -14 45 0 109 27 95 40 -20 18 -50 17 -67 -2z"/>
<path d="M1490 1520 c6 -11 13 -20 16 -20 2 0 0 9 -6 20 -6 11 -13 20 -16 20
-2 0 0 -9 6 -20z"/>
<path d="M2163 1468 c7 -19 -18 -38 -50 -38 -26 0 -47 -16 -38 -29 4 -8 11 -9
18 -3 7 5 21 8 31 6 11 -1 30 8 43 22 22 24 22 26 6 42 -16 16 -16 16 -10 0z"/>
<path d="M2337 1432 c-23 -25 -21 -32 6 -32 22 0 57 27 57 43 0 15 -48 6 -63
-11z"/>
<path d="M1917 1410 c4 -13 0 -20 -10 -20 -8 0 -17 -7 -21 -15 -8 -23 13 -18
46 10 16 14 34 23 39 19 5 -3 9 -1 9 4 0 12 -24 22 -50 22 -13 0 -17 -5 -13
-20z"/>
<path d="M2338 1353 c-9 -2 -21 -17 -27 -34 -11 -32 -11 -31 47 -34 29 -1 32
2 32 27 0 29 -23 47 -52 41z"/>
<path d="M2165 1321 c-3 -5 -2 -12 3 -15 5 -3 9 1 9 9 0 17 -3 19 -12 6z"/>
<path d="M2135 1310 c3 -5 8 -10 11 -10 2 0 4 5 4 10 0 6 -5 10 -11 10 -5 0
-7 -4 -4 -10z"/>
<path d="M2440 1291 c0 -6 5 -13 10 -16 6 -3 10 1 10 9 0 9 -4 16 -10 16 -5 0
-10 -4 -10 -9z"/>
<path d="M2243 1268 c-1 -10 2 -20 8 -23 12 -8 -8 -45 -25 -45 -19 0 -46 -34
-38 -47 10 -16 58 28 76 70 8 20 12 38 8 41 -3 3 1 6 8 6 19 0 3 13 -18 15
-11 1 -19 -6 -19 -17z"/>
<path d="M2577 1175 c-14 -29 -22 -35 -48 -35 -28 0 -31 2 -25 25 7 29 -5 32
-34 8 -20 -17 -27 -58 -12 -66 16 -9 82 6 100 23 11 11 23 16 26 13 3 -4 6 2
6 12 0 10 3 15 7 12 3 -4 12 -2 20 4 10 9 10 15 2 25 -17 21 -24 17 -42 -21z"/>
<path d="M3324 1186 c5 -16 4 -17 -9 -6 -13 11 -19 7 -17 -12 1 -3 -5 -12 -13
-18 -8 -7 -15 -20 -15 -29 0 -19 59 -95 68 -87 3 3 12 -2 20 -12 9 -11 9 -8
-2 10 -13 22 -13 26 -2 22 8 -3 17 0 22 7 4 7 3 10 -3 6 -6 -4 -13 2 -16 13
-3 11 -1 18 4 14 17 -10 9 5 -13 27 -13 12 -16 18 -8 14 12 -6 13 -5 3 6 -7 7
-13 17 -13 22 0 4 6 5 13 1 7 -5 7 -1 -3 12 -22 29 -24 30 -16 10z"/>
<path d="M2691 1164 c13 -16 29 -19 29 -5 0 5 -9 11 -21 14 -16 4 -18 3 -8 -9z"/>
<path d="M1940 1100 c0 -5 5 -10 10 -10 6 0 10 5 10 10 0 6 -4 10 -10 10 -5 0
-10 -4 -10 -10z"/>
<path d="M2207 1056 c-17 -13 -16 -14 3 -19 11 -3 20 -1 20 5 0 5 5 6 11 2 7
-4 10 -1 7 6 -6 19 -20 21 -41 6z"/>
</g>
</svg>
