<?xml version="1.0" standalone="no"?>
<!DOCTYPE svg PUBLIC "-//W3C//DTD SVG 20010904//EN"
 "http://www.w3.org/TR/2001/REC-SVG-20010904/DTD/svg10.dtd">
<svg version="1.0" xmlns="http://www.w3.org/2000/svg"
 width="450.000000pt" height="253.000000pt" viewBox="0 0 450.000000 253.000000"
 preserveAspectRatio="xMidYMid meet">
<metadata>
Created by potrace 1.16, written by Peter Selinger 2001-2019
</metadata>
<g transform="translate(0.000000,253.000000) scale(0.100000,-0.100000)"
fill="#000000" stroke="none">
<path d="M0 1265 l0 -1265 2250 0 2250 0 0 1265 0 1265 -2250 0 -2250 0 0
-1265z m3111 685 c144 -53 212 -91 224 -126 5 -16 19 -43 31 -60 24 -35 44
-99 44 -144 0 -31 -21 -68 -66 -120 -12 -14 -37 -42 -55 -63 -17 -21 -50 -47
-71 -58 -22 -11 -67 -40 -100 -64 -47 -35 -64 -43 -78 -35 -9 5 -21 6 -25 2
-4 -4 -5 1 -3 12 2 11 -3 20 -12 21 -8 2 -19 4 -25 5 -24 6 -76 -1 -71 -9 3
-4 -22 -2 -55 6 -62 14 -139 55 -139 74 0 5 -4 8 -9 5 -12 -8 -61 50 -61 71 0
11 8 14 30 11 17 -3 30 -1 30 4 0 4 9 0 20 -9 20 -18 67 -26 75 -13 3 4 -2 13
-10 20 -8 7 -15 8 -15 3 0 -6 -12 -8 -26 -5 -17 3 -22 7 -13 12 7 5 18 6 25 3
6 -2 15 1 19 7 6 9 10 9 16 -1 7 -11 9 -9 9 5 0 11 3 16 7 13 3 -4 13 -1 21 6
9 6 13 7 10 2 -4 -7 3 -11 18 -11 13 0 24 4 24 8 0 5 10 3 23 -4 28 -15 56
-17 64 -5 3 6 1 7 -5 3 -6 -3 -13 -2 -17 3 -3 6 6 8 22 5 16 -3 30 -10 32 -15
1 -6 9 -2 16 8 18 24 11 31 -25 27 -21 -3 -29 0 -24 7 3 6 -4 4 -17 -4 -13 -8
-39 -14 -56 -13 -18 2 -33 -2 -33 -8 0 -7 -3 -8 -8 -1 -12 17 -46 31 -84 34
-20 1 -58 10 -85 20 -36 13 -47 22 -45 35 2 10 -1 15 -6 12 -5 -3 -9 9 -10 27
0 18 -7 36 -16 41 -13 9 -12 15 2 50 9 23 21 51 28 64 7 13 11 37 10 53 -3 40
32 65 133 95 116 35 226 33 332 -6z m-684 -42 c9 -7 13 -7 13 1 0 11 133 6
153 -6 23 -14 -10 -31 -113 -58 -112 -29 -114 -31 -122 -63 -5 -18 -14 -35
-21 -37 -30 -9 -96 -12 -94 -4 2 10 -75 81 -81 74 -3 -3 3 -21 14 -40 13 -25
15 -38 7 -46 -8 -8 -14 -2 -22 23 -15 42 -47 81 -61 73 -5 -3 -10 1 -10 10 0
9 -5 13 -11 10 -7 -5 -5 -15 6 -31 12 -19 13 -24 2 -24 -8 0 -17 3 -21 8 -4 4
-17 7 -28 7 -28 0 -33 36 -8 62 15 17 25 19 52 14 20 -5 32 -13 30 -21 -3 -11
0 -11 12 -1 17 15 12 31 -9 31 -32 0 -21 16 13 18 20 2 38 4 39 6 9 9 249 4
260 -6z m208 -47 c3 -5 1 -12 -5 -16 -5 -3 -10 1 -10 9 0 18 6 21 15 7z m-505
-105 c0 -13 -7 -29 -15 -36 -20 -17 -19 -28 2 -26 11 0 19 -7 21 -21 3 -18 -1
-22 -27 -21 -24 1 -31 6 -31 21 0 14 -3 17 -13 9 -7 -6 -26 -7 -47 -3 l-35 7
25 14 c14 8 36 16 49 17 13 1 31 9 40 18 14 13 14 15 -2 15 -15 0 -16 2 -5 15
20 22 38 18 38 -9z m44 -91 c-6 -16 -24 -21 -24 -7 0 11 11 22 21 22 5 0 6 -7
3 -15z m-192 -44 c-4 -10 -1 -13 11 -8 39 15 86 18 104 7 16 -10 16 -11 1 -6
-10 3 -18 0 -18 -6 0 -7 -4 -7 -14 1 -10 9 -16 9 -21 1 -4 -6 -13 -9 -20 -6
-8 3 -12 -2 -10 -12 2 -9 4 -18 5 -19 10 -13 1 -29 -19 -33 -13 -3 -26 -12
-28 -20 -3 -11 -2 -11 4 -3 5 7 14 9 22 4 11 -7 10 -15 -8 -39 -25 -35 -28
-50 -5 -28 8 9 21 16 27 15 8 0 8 -2 -1 -6 -6 -2 -10 -9 -7 -14 8 -11 -23 -69
-36 -69 -6 0 -7 -6 -3 -12 4 -7 -2 -5 -13 5 -20 17 -20 17 -16 -6 3 -14 1 -27
-5 -31 -18 -11 -3 185 21 262 15 49 24 67 28 55 3 -10 4 -24 1 -32z m1021
-326 c-3 -9 -8 -14 -10 -11 -3 3 -2 9 2 15 9 16 15 13 8 -4z m-19 -24 c3 -4
-6 -7 -19 -7 -33 2 -40 11 -10 14 13 1 26 -2 29 -7z"/>
<path d="M3066 1508 c3 -5 10 -6 15 -3 13 9 11 12 -6 12 -8 0 -12 -4 -9 -9z"/>
<path d="M3137 1504 c-3 -4 -48 -7 -99 -9 -51 -1 -101 -5 -110 -9 -10 -3 -26
-9 -35 -13 -10 -3 -24 -5 -30 -4 -7 1 -13 -3 -13 -8 0 -5 26 -10 58 -9 102 1
112 -2 67 -17 -36 -12 -37 -13 -12 -14 16 -1 26 -5 22 -11 -3 -5 1 -10 10 -10
8 0 29 -16 46 -35 17 -19 36 -35 43 -34 7 0 7 2 -2 6 -6 2 -9 10 -6 15 4 7 2
8 -4 4 -7 -4 -12 -3 -12 3 0 5 -3 17 -7 27 -4 12 -3 15 5 10 7 -4 12 -3 12 3
0 6 14 9 30 7 17 -2 30 1 30 6 0 5 5 6 10 3 6 -4 32 4 59 17 38 18 49 27 46
43 -2 11 -4 24 -4 28 -1 11 -54 5 -63 -7 -4 -6 -12 -5 -21 2 -7 7 -17 9 -20 6z
m93 -12 c0 -5 -7 -9 -15 -9 -8 0 -12 4 -9 9 3 4 9 8 15 8 5 0 9 -4 9 -8z"/>
<path d="M3036 1298 c3 -4 9 -8 15 -8 5 0 9 4 9 8 0 5 -7 9 -15 9 -8 0 -12 -4
-9 -9z"/>
<path d="M1978 1593 c7 -3 16 -2 19 1 4 3 -2 6 -13 5 -11 0 -14 -3 -6 -6z"/>
</g>
</svg>
