<?xml version="1.0" standalone="no"?>
<!DOCTYPE svg PUBLIC "-//W3C//DTD SVG 20010904//EN"
 "http://www.w3.org/TR/2001/REC-SVG-20010904/DTD/svg10.dtd">
<svg version="1.0" xmlns="http://www.w3.org/2000/svg"
 width="450.000000pt" height="253.000000pt" viewBox="0 0 450.000000 253.000000"
 preserveAspectRatio="xMidYMid meet">
<metadata>
Created by potrace 1.16, written by Peter Selinger 2001-2019
</metadata>
<g transform="translate(0.000000,253.000000) scale(0.100000,-0.100000)"
fill="#000000" stroke="none">
<path d="M0 1265 l0 -1265 2250 0 2250 0 0 1265 0 1265 -2250 0 -2250 0 0
-1265z m2208 618 c-10 -2 -26 -2 -35 0 -10 3 -2 5 17 5 19 0 27 -2 18 -5z m65
0 c-7 -2 -21 -2 -30 0 -10 3 -4 5 12 5 17 0 24 -2 18 -5z m42 -4 c-7 12 1 13
46 7 29 -4 56 -9 58 -12 11 -11 -41 -62 -90 -86 -41 -21 -54 -33 -55 -50 -2
-45 -4 -48 -30 -48 -24 0 -25 2 -13 17 10 12 3 10 -25 -6 l-38 -24 7 22 c3 12
3 21 -2 20 -4 -1 -11 0 -15 1 -5 1 -16 3 -25 4 -10 1 -31 9 -48 18 -16 8 -36
13 -43 10 -11 -3 -12 0 -2 17 6 12 15 19 21 16 5 -4 9 -1 9 5 0 8 -15 9 -47 5
-35 -5 -44 -4 -33 4 8 6 11 11 6 11 -6 0 -1 7 10 16 10 8 13 13 7 9 -7 -3 -13
-2 -13 3 0 5 -21 16 -47 25 l-48 16 100 -1 c55 -1 83 -3 63 -5 -61 -7 -42 -33
23 -33 31 0 38 -16 17 -40 -7 -8 -4 -7 7 2 13 11 43 18 84 20 38 2 66 8 68 15
3 8 -7 10 -31 7 -20 -2 -36 0 -36 5 0 5 14 8 30 7 17 -1 30 1 30 5 0 4 8 6 18
5 10 0 16 5 14 13 -3 12 -1 12 14 0 15 -12 16 -12 9 0z m345 1 c110 -29 145
-41 148 -50 2 -6 12 -10 23 -10 10 0 19 -5 19 -11 0 -5 5 -7 10 -4 6 3 10 2
10 -3 0 -9 52 -35 65 -33 12 2 105 -84 105 -97 0 -5 -9 -12 -20 -15 -18 -4
-20 -2 -14 16 6 18 4 20 -7 11 -8 -5 -43 -10 -79 -9 -72 2 -123 21 -170 65
-16 15 -32 25 -34 22 -3 -2 5 -13 17 -23 22 -19 21 -19 -55 -13 -58 5 -78 4
-78 -5 0 -7 -5 -9 -12 -5 -7 4 -8 3 -4 -5 5 -8 12 -9 20 -2 8 7 17 6 26 -1 12
-8 12 -9 -3 -4 -11 3 -20 0 -24 -9 -4 -13 -8 -13 -20 -3 -21 17 -43 19 -43 3
0 -8 -11 -12 -29 -11 -16 0 -27 4 -24 9 2 4 8 5 12 3 4 -3 13 0 21 5 11 7 10
8 -8 6 -12 -2 -28 -9 -34 -15 -34 -34 -58 2 -32 48 18 30 18 30 -4 46 -27 19
-28 28 -3 53 15 15 30 17 94 14 71 -4 103 6 76 23 -8 4 -9 3 -5 -4 4 -7 3 -12
-3 -12 -5 0 -12 4 -16 9 -3 6 -14 8 -25 6 -11 -2 -22 0 -25 6 -8 12 79 11 125
-1z m-830 -20 c0 -5 -5 -10 -10 -10 -7 0 -7 -6 -1 -19 6 -10 7 -22 3 -26 -4
-4 3 -5 15 -2 13 3 25 1 28 -3 3 -4 -9 -7 -26 -6 -22 2 -38 -6 -60 -28 -16
-16 -29 -35 -29 -42 0 -6 -11 -15 -25 -18 -22 -6 -29 -18 -23 -43 0 -5 11 -7
22 -6 14 2 16 0 6 -4 -74 -30 -73 -30 -95 -32 -8 0 -15 -9 -15 -18 0 -13 3
-14 12 -5 7 7 19 12 27 11 11 0 12 -2 3 -6 -6 -2 -10 -9 -7 -13 3 -5 -3 -14
-14 -19 -24 -13 -66 -70 -57 -78 3 -3 27 12 53 33 54 45 104 74 84 50 -7 -8
-11 -25 -9 -38 2 -19 -2 -23 -26 -23 -21 -1 -31 -7 -38 -24 -7 -20 -6 -22 9
-16 10 4 28 10 41 12 26 6 28 -8 11 -72 -6 -22 -10 -48 -10 -59 0 -18 0 -18
-14 0 -9 13 -10 24 -4 36 5 10 7 18 4 18 -12 0 -20 -6 -17 -13 1 -5 -2 -6 -8
-2 -5 3 -12 0 -15 -7 -3 -7 -19 -14 -35 -15 -30 -2 -30 -2 -24 38 5 30 3 39
-6 37 -16 -4 -19 33 -7 91 12 59 84 181 149 251 28 30 47 48 42 40 -4 -8 5 -3
21 13 29 28 45 34 45 17z m354 -6 c3 -8 2 -12 -4 -9 -6 3 -10 2 -10 -4 0 -6
-7 -8 -16 -4 -15 6 -15 8 2 20 22 16 21 16 28 -3z m-319 -25 c-8 -12 -35 -12
-35 0 0 11 22 20 33 14 4 -2 5 -9 2 -14z m125 7 c0 -3 -4 -8 -10 -11 -5 -3
-10 -1 -10 4 0 6 5 11 10 11 6 0 10 -2 10 -4z m100 -130 c0 -2 -7 -7 -16 -10
-8 -3 -12 -2 -9 4 6 10 25 14 25 6z m951 -69 c-6 -8 -8 -16 -5 -19 2 -3 -2 -8
-11 -11 -20 -8 -19 2 2 25 19 21 31 25 14 5z m-956 -7 c-3 -5 -12 -10 -18 -10
-7 0 -6 4 3 10 19 12 23 12 15 0z m905 -40 c-8 -5 -19 -10 -25 -10 -5 0 -3 5
5 10 8 5 20 10 25 10 6 0 3 -5 -5 -10z m-1215 -80 c3 -5 1 -10 -4 -10 -6 0
-11 5 -11 10 0 6 2 10 4 10 3 0 8 -4 11 -10z m-51 -616 c3 -8 2 -12 -4 -9 -6
3 -10 10 -10 16 0 14 7 11 14 -7z m3 -81 c2 -25 1 -44 -2 -41 -3 3 -7 26 -9
52 -3 26 -2 45 1 42 3 -3 8 -27 10 -53z"/>
<path d="M1661 1686 c-10 -12 -8 -13 8 -9 12 3 21 9 21 14 0 14 -16 11 -29 -5z"/>
</g>
</svg>
