<?xml version="1.0" standalone="no"?>
<!DOCTYPE svg PUBLIC "-//W3C//DTD SVG 20010904//EN"
 "http://www.w3.org/TR/2001/REC-SVG-20010904/DTD/svg10.dtd">
<svg version="1.0" xmlns="http://www.w3.org/2000/svg"
 width="450.000000pt" height="253.000000pt" viewBox="0 0 450.000000 253.000000"
 preserveAspectRatio="xMidYMid meet">
<metadata>
Created by potrace 1.16, written by Peter Selinger 2001-2019
</metadata>
<g transform="translate(0.000000,253.000000) scale(0.100000,-0.100000)"
fill="#000000" stroke="none">
<path d="M0 1265 l0 -1265 2250 0 2250 0 0 1265 0 1265 -702 0 c-667 0 -700
-1 -685 -17 23 -27 65 -147 81 -238 8 -44 19 -97 25 -118 5 -22 7 -49 5 -62
-3 -18 1 -23 21 -24 45 -3 54 -4 53 -10 -2 -19 4 -22 19 -10 11 9 14 10 10 2
-5 -8 2 -14 20 -18 15 -4 35 -10 44 -15 11 -6 20 -3 29 10 30 41 133 51 196
18 16 -8 58 -29 94 -47 36 -17 76 -37 90 -44 40 -20 75 -82 75 -136 0 -54 1
-53 -90 -144 -128 -129 -155 -146 -295 -188 -62 -18 -71 -23 -52 -30 26 -10
42 -47 41 -92 -1 -18 7 -52 16 -77 20 -49 26 -178 12 -242 -9 -44 -85 -128
-133 -147 -33 -13 -65 -11 -209 15 -106 19 -179 40 -237 70 -45 23 -49 24 -73
8 -21 -14 -25 -24 -25 -68 0 -98 -54 -153 -178 -182 l-54 -13 -62 67 c-176
187 -185 199 -186 265 0 24 7 44 20 57 22 22 26 56 8 63 -19 6 -5 17 25 19 19
2 24 6 18 18 -5 8 -6 21 -4 28 6 15 -19 16 -35 0 -13 -13 -15 -9 -12 45 1 21
-4 45 -10 53 -7 7 -9 14 -4 14 5 0 2 4 -6 10 -9 6 -17 5 -22 -3 -6 -9 -8 -9
-8 1 0 10 -4 9 -16 -3 -22 -22 -28 -12 -29 44 0 43 2 47 18 37 9 -6 17 -13 17
-16 0 -3 11 -7 25 -8 41 -3 33 34 -12 55 -34 16 -38 22 -41 61 -3 36 0 44 20
52 41 18 89 58 78 65 -5 3 -10 12 -10 18 0 23 89 106 138 129 26 13 30 53 6
62 -27 10 4 39 38 34 15 -3 29 1 32 8 7 17 -48 54 -65 44 -7 -5 -18 -5 -24 -1
-21 17 -66 19 -72 4 -5 -12 -7 -12 -14 -1 -7 10 -9 11 -9 0 0 -7 -4 -11 -8 -8
-5 3 -16 -8 -26 -25 -9 -16 -21 -29 -27 -29 -5 0 -9 -6 -9 -13 0 -7 -11 -28
-25 -47 -14 -19 -23 -41 -19 -50 3 -8 8 -30 10 -49 3 -18 11 -43 19 -54 8 -12
15 -24 15 -27 0 -10 -44 -9 -57 1 -16 14 -64 19 -57 7 3 -5 12 -7 20 -4 8 3
14 -1 14 -10 0 -8 4 -13 8 -10 5 3 9 -1 9 -9 0 -8 -2 -13 -5 -11 -2 3 -13 -4
-24 -14 -13 -12 -18 -25 -14 -37 6 -15 9 -15 17 -3 9 13 10 13 6 0 -2 -8 -10
-14 -16 -12 -6 1 -11 -5 -11 -13 0 -8 -6 -12 -14 -9 -11 4 -14 -1 -12 -20 2
-14 0 -23 -4 -21 -4 3 -10 -5 -13 -16 -6 -23 15 -53 28 -41 4 4 3 -3 -4 -15
-6 -12 -20 -25 -31 -28 -24 -8 -25 -18 -4 -39 8 -9 12 -20 9 -26 -12 -20 5
-48 29 -46 13 0 22 6 19 12 -2 7 1 15 7 19 6 3 10 3 9 -2 -3 -18 1 -36 7 -30
4 4 16 -12 27 -34 11 -22 18 -42 16 -44 -15 -14 -68 -11 -112 6 -121 47 -165
71 -176 95 -17 37 -13 102 10 164 10 30 21 64 24 74 2 11 9 24 14 29 6 6 7 23
4 38 -4 19 2 40 16 64 11 20 21 41 21 47 0 5 9 22 20 37 l19 28 -30 29 c-56
53 -69 79 -80 166 -11 84 -12 110 -6 161 5 40 25 49 202 91 122 29 127 29 175
17 27 -7 54 -10 60 -6 5 3 13 24 16 47 4 22 22 62 40 89 19 27 34 51 34 54 0
4 20 26 45 49 25 24 45 46 45 50 0 3 -592 6 -1315 6 l-1315 0 0 -1265z m2210
201 c0 -2 -7 -7 -16 -10 -8 -3 -12 -2 -9 4 6 10 25 14 25 6z m133 -289 c3 -8
-1 -14 -8 -14 -7 0 -11 6 -8 14 3 7 6 13 8 13 2 0 5 -6 8 -13z"/>
<path d="M2765 1910 c3 -5 13 -10 21 -10 8 0 14 5 14 10 0 6 -9 10 -21 10 -11
0 -17 -4 -14 -10z"/>
<path d="M2980 1911 c0 -5 -9 -8 -19 -6 -17 3 -19 -2 -18 -48 1 -29 -2 -60 -6
-69 -7 -13 -4 -16 10 -13 10 2 21 4 24 4 4 1 9 10 12 22 4 14 10 18 19 13 9
-5 9 -3 -2 10 -19 25 -22 49 -6 61 11 9 11 12 0 23 -8 7 -14 8 -14 3z"/>
<path d="M3022 1900 c2 -8 11 -16 19 -16 8 -1 21 -2 29 -3 11 -1 11 -4 2 -13
-18 -18 -15 -27 7 -21 30 8 33 -13 3 -28 -15 -8 -31 -20 -35 -26 -4 -7 -15
-13 -22 -13 -17 0 -20 -16 -5 -25 6 -4 8 -11 5 -16 -4 -5 5 -13 19 -19 27 -10
33 -24 16 -35 -8 -5 -8 -11 0 -20 9 -10 7 -16 -9 -24 -29 -16 -41 -13 -41 8 0
23 -38 53 -54 43 -6 -3 -3 6 7 21 22 34 22 37 -8 35 -28 -3 -35 -18 -8 -18 9
0 13 -3 9 -7 -7 -8 -11 -9 -37 -12 -5 0 -15 -14 -20 -31 -9 -25 -13 -28 -29
-18 -14 9 -16 17 -9 35 5 15 5 22 0 19 -5 -4 -11 0 -14 6 -3 10 -8 9 -22 -2
-14 -11 -17 -11 -11 -1 7 10 2 12 -22 6 -18 -3 -33 -2 -37 4 -4 7 7 11 28 11
31 0 37 4 50 38 8 20 14 38 13 39 -1 1 -20 -2 -41 -7 -22 -5 -53 -12 -69 -15
-22 -5 -26 -9 -17 -18 6 -6 11 -17 11 -25 0 -14 -23 -10 -71 12 -21 10 -29 10
-43 0 -15 -11 -14 -13 14 -19 18 -4 41 -16 51 -26 10 -10 26 -19 34 -19 16 0
20 -16 6 -24 -4 -3 -11 -19 -14 -36 -4 -16 -12 -30 -19 -30 -7 0 -21 -14 -30
-30 -16 -28 -16 -30 1 -30 31 0 32 -13 1 -26 -16 -7 -30 -18 -30 -24 0 -13 16
-13 42 1 16 9 19 8 16 -2 -3 -8 -15 -16 -29 -19 -22 -5 -25 -11 -20 -39 0 -5
10 -7 20 -4 12 3 28 -4 42 -18 13 -13 16 -20 7 -17 -8 4 -21 3 -28 -2 -10 -6
-9 -13 4 -31 9 -13 16 -32 16 -42 0 -21 -28 -79 -43 -88 -13 -9 -5 -25 67
-132 37 -55 41 -58 74 -54 19 3 43 14 54 24 19 20 19 20 -24 35 -24 9 -55 19
-70 22 -30 7 -47 31 -59 84 -7 33 -6 34 19 27 15 -4 35 -14 45 -22 23 -21 21
-4 -3 27 -25 32 -25 50 -1 45 11 -2 25 3 32 11 6 8 20 14 31 14 11 0 16 5 13
10 -15 23 17 40 76 40 45 0 64 5 79 20 17 17 21 18 35 4 23 -23 85 -2 78 27
-3 11 -16 28 -29 38 -13 10 -24 24 -24 31 0 6 -5 8 -11 4 -7 -4 -25 -7 -41 -8
-26 -1 -32 -7 -47 -50 -18 -52 -41 -73 -41 -37 0 12 4 21 9 21 12 0 31 51 27
75 -2 11 0 28 5 37 6 11 5 18 -4 21 -9 4 -8 8 3 16 18 13 42 10 38 -4 -2 -5
-6 -9 -10 -7 -16 5 -8 -16 8 -22 21 -8 37 3 30 21 -4 10 -2 13 8 10 8 -3 22 3
31 13 13 15 22 17 36 10 18 -10 35 -7 76 12 23 11 21 38 -3 38 -8 0 -14 4 -14
9 0 5 8 8 18 7 11 0 17 6 17 19 1 11 4 25 8 32 4 6 3 14 -3 18 -19 11 5 89 25
81 6 -2 18 0 26 5 11 8 10 13 -10 30 -13 11 -31 17 -40 14 -8 -3 -12 -3 -9 1
9 9 -35 44 -62 49 -11 2 -20 -2 -20 -8 0 -7 -4 -6 -10 3 -8 12 -10 12 -10 1 0
-11 -3 -11 -15 -1 -12 10 -15 10 -15 0 0 -9 -4 -9 -17 1 -14 12 -16 12 -11 -1z
m-210 -264 c14 -20 8 -26 -17 -20 -34 8 -32 -12 3 -30 23 -12 25 -15 10 -21
-24 -10 -13 -24 13 -18 16 5 20 2 18 -13 -2 -10 0 -24 3 -30 5 -7 -8 -17 -32
-27 -29 -11 -40 -21 -40 -36 0 -24 -15 -28 -23 -7 -3 8 3 26 14 40 l19 24 -29
7 c-54 12 -57 40 -12 115 5 8 12 23 15 33 5 15 9 16 28 6 13 -7 26 -17 30 -23z
m75 -201 c-2 -30 -21 -54 -34 -41 -5 5 26 76 33 76 2 0 3 -16 1 -35z"/>
<path d="M2730 1581 c0 -6 0 -14 0 -18 0 -5 11 -11 24 -14 22 -6 24 -4 17 15
-9 22 -41 36 -41 17z"/>
<path d="M2635 1811 c-3 -5 -1 -12 5 -16 5 -3 10 1 10 9 0 18 -6 21 -15 7z"/>
<path d="M2560 1795 c0 -8 7 -15 16 -15 14 0 14 3 4 15 -7 8 -14 15 -16 15 -2
0 -4 -7 -4 -15z"/>
<path d="M2485 1651 c-44 -7 -52 -21 -35 -65 7 -20 16 -26 32 -24 30 4 40 19
25 37 -7 8 -7 12 -2 9 6 -3 24 7 40 23 l30 29 -25 -1 c-14 -1 -43 -5 -65 -8z"/>
<path d="M2635 1650 c-3 -5 -1 -10 4 -10 6 0 11 5 11 10 0 6 -2 10 -4 10 -3 0
-8 -4 -11 -10z"/>
<path d="M2561 1616 c-13 -20 -19 -41 -14 -52 4 -12 3 -15 -6 -10 -17 11 -64
-10 -79 -35 -11 -17 -10 -21 10 -28 23 -9 23 -9 -5 -16 -27 -7 -27 -8 -11 -26
10 -11 14 -22 10 -27 -4 -4 -14 1 -21 11 -10 15 -18 16 -32 9 -16 -10 -16 -11
8 -21 15 -5 29 -17 32 -25 4 -9 12 -16 18 -16 14 0 79 -65 79 -79 0 -6 9 -15
19 -20 15 -9 20 -7 25 12 8 32 8 32 -18 60 -28 30 -25 62 8 88 20 16 20 17
-19 28 -22 6 -46 11 -52 11 -37 0 8 54 60 73 20 7 23 37 5 55 -9 9 -8 12 4 12
9 0 18 -6 21 -12 2 -7 7 -11 10 -8 3 3 -3 15 -13 28 l-18 22 -21 -34z"/>
<path d="M2586 1393 c-3 -4 -6 -10 -6 -15 0 -13 43 -6 47 7 3 11 -31 18 -41 8z"/>
<path d="M2971 1321 c-12 -8 -12 -13 3 -35 16 -26 14 -52 -4 -41 -5 3 -12 0
-16 -6 -4 -8 5 -9 32 -5 22 3 39 5 40 6 1 0 1 19 0 43 -1 34 -5 42 -21 45 -11
1 -26 -2 -34 -7z"/>
<path d="M3074 1266 c-8 -22 -2 -27 16 -16 12 7 12 12 3 21 -10 10 -14 9 -19
-5z"/>
<path d="M2905 1230 c-3 -5 0 -10 9 -10 8 0 23 -3 33 -7 17 -6 17 -6 1 10 -19
19 -34 22 -43 7z"/>
<path d="M2576 1184 c-5 -14 -4 -15 9 -4 17 14 19 20 6 20 -5 0 -12 -7 -15
-16z"/>
<path d="M2535 1160 c3 -5 8 -10 11 -10 2 0 4 5 4 10 0 6 -5 10 -11 10 -5 0
-7 -4 -4 -10z"/>
<path d="M2454 1115 c-3 -14 -4 -29 0 -32 3 -4 6 3 6 15 0 12 3 21 8 20 4 -2
8 1 10 7 2 5 -1 11 -7 13 -6 2 -13 -8 -17 -23z"/>
<path d="M2473 1085 c0 -8 4 -12 9 -9 5 3 6 10 3 15 -9 13 -12 11 -12 -6z"/>
</g>
</svg>
