<?xml version="1.0" standalone="no"?>
<!DOCTYPE svg PUBLIC "-//W3C//DTD SVG 20010904//EN"
 "http://www.w3.org/TR/2001/REC-SVG-20010904/DTD/svg10.dtd">
<svg version="1.0" xmlns="http://www.w3.org/2000/svg"
 width="450.000000pt" height="253.000000pt" viewBox="0 0 450.000000 253.000000"
 preserveAspectRatio="xMidYMid meet">
<metadata>
Created by potrace 1.16, written by Peter Selinger 2001-2019
</metadata>
<g transform="translate(0.000000,253.000000) scale(0.100000,-0.100000)"
fill="#000000" stroke="none">
<path d="M0 1265 l0 -1265 2250 0 2250 0 0 1265 0 1265 -797 0 -797 0 57 -36
c31 -19 57 -38 57 -40 0 -3 -6 -2 -12 2 -7 4 -2 -4 12 -17 14 -13 32 -39 39
-56 7 -18 16 -31 20 -29 4 3 8 -3 9 -12 2 -25 10 -67 12 -67 5 0 17 -109 19
-177 1 -35 3 -37 48 -46 26 -6 52 -8 57 -5 5 3 6 1 2 -5 -4 -7 -1 -12 7 -12
15 0 50 34 42 41 -2 3 35 6 83 8 97 2 130 -6 252 -67 139 -69 168 -103 177
-205 5 -66 -12 -97 -112 -199 -100 -102 -159 -144 -223 -159 -55 -13 -102 -31
-102 -40 0 -3 12 -16 26 -30 56 -52 97 -167 109 -307 8 -86 -1 -116 -35 -127
-11 -3 -20 -13 -20 -21 0 -8 -9 -14 -20 -14 -10 0 -23 -7 -28 -15 -4 -9 -21
-18 -38 -21 -16 -2 -42 -9 -59 -14 -79 -24 -370 -11 -425 19 -9 5 -31 12 -50
16 -19 4 -56 18 -82 32 -25 14 -52 23 -60 21 -8 -3 -17 -37 -25 -94 l-12 -89
3 77 c2 43 2 78 0 78 -12 0 -104 -108 -104 -123 0 -10 -27 -48 -60 -84 -62
-69 -130 -108 -224 -132 -105 -26 -233 46 -266 149 -8 25 -24 69 -37 98 -19
44 -23 70 -23 158 0 75 -3 103 -11 98 -16 -9 -30 18 -17 33 6 7 9 13 7 14 -2
0 -11 2 -19 4 -178 35 -272 71 -348 133 -44 36 -92 115 -92 151 0 11 -5 21
-12 23 -8 3 -12 25 -12 60 0 45 5 62 27 91 15 20 27 38 27 42 0 14 119 115
136 115 10 1 54 36 54 43 0 3 -27 32 -60 65 -33 34 -60 64 -60 68 0 4 -7 15
-15 24 -25 27 -75 160 -82 217 -14 127 71 183 282 183 99 0 228 -24 258 -48 6
-5 59 -10 117 -10 l105 0 71 73 c40 40 87 81 105 91 19 9 36 20 39 23 3 4 28
17 55 29 l50 21 -1262 1 -1263 0 0 -1265z m2528 -582 c1 -24 0 -25 -9 -10 -5
9 -7 22 -4 27 9 15 10 13 13 -17z m107 7 c3 -5 1 -10 -4 -10 -6 0 -11 5 -11
10 0 6 2 10 4 10 3 0 8 -4 11 -10z m-108 -55 c0 -8 -4 -12 -9 -9 -5 3 -6 10
-3 15 9 13 12 11 12 -6z m90 -97 c-3 -8 -6 -5 -6 6 -1 11 2 17 5 13 3 -3 4
-12 1 -19z m-10 -140 c-3 -7 -5 -2 -5 12 0 14 2 19 5 13 2 -7 2 -19 0 -25z"/>
<path d="M2282 2033 c5 -19 3 -21 -17 -13 -18 7 -25 5 -29 -7 -4 -11 -2 -14 9
-9 8 3 15 0 15 -7 0 -8 3 -8 8 -2 6 9 27 12 35 5 8 -7 57 -5 57 3 0 5 -6 7
-14 4 -9 -4 -16 3 -20 16 -3 12 -8 18 -12 14 -4 -4 -14 -1 -22 6 -13 10 -15 9
-10 -10z"/>
<path d="M2420 1767 c-20 -18 -25 -31 -25 -69 0 -26 6 -53 13 -59 6 -7 12 -19
12 -26 0 -14 39 -38 57 -35 7 2 17 -7 23 -18 9 -16 8 -20 -6 -20 -12 0 -15 -6
-11 -21 3 -12 2 -31 -3 -44 -8 -22 -7 -22 38 -20 46 2 92 13 92 22 0 2 -5 13
-11 24 -7 15 -7 24 1 34 17 20 5 32 -39 40 -37 6 -121 71 -121 93 0 6 -4 12
-9 14 -5 2 -12 17 -15 33 -4 17 -4 25 0 18 9 -20 32 -4 26 19 -3 14 -1 19 6
14 8 -5 10 -2 6 8 -7 19 -4 20 -34 -7z"/>
<path d="M2336 1708 c3 -4 9 -8 15 -8 5 0 9 4 9 8 0 5 -7 9 -15 9 -8 0 -12 -4
-9 -9z"/>
<path d="M1845 1701 c-3 -5 -2 -12 3 -15 5 -3 9 1 9 9 0 17 -3 19 -12 6z"/>
<path d="M2180 1682 c0 -5 7 -15 15 -22 8 -7 12 -17 8 -24 -4 -6 1 -4 12 4 10
8 20 14 22 12 3 -2 5 -2 6 0 1 2 0 2 -2 1 -2 -1 -17 7 -32 18 -16 11 -29 16
-29 11z"/>
<path d="M1770 1653 c-37 -15 -49 -42 -27 -58 9 -7 14 -15 10 -18 -3 -4 1 -7
10 -7 22 0 22 -16 1 -28 -25 -14 -10 -27 31 -30 20 -2 34 1 31 6 -3 6 0 15 8
21 14 12 21 64 14 114 -2 17 -40 17 -78 0z"/>
<path d="M2667 1639 c-20 -20 -26 -35 -22 -49 5 -16 10 -17 31 -8 13 6 24 19
24 29 0 10 5 21 10 24 6 3 10 14 10 23 0 13 -2 14 -9 3 -5 -7 -10 -9 -12 -3
-2 5 -17 -3 -32 -19z"/>
<path d="M1720 1580 c0 -5 5 -10 10 -10 6 0 10 5 10 10 0 6 -4 10 -10 10 -5 0
-10 -4 -10 -10z"/>
<path d="M1507 1545 c-4 -8 -3 -16 1 -19 4 -3 9 4 9 15 2 23 -3 25 -10 4z"/>
<path d="M2313 1550 c2 -8 10 -14 16 -12 6 1 11 -7 11 -18 0 -18 6 -20 40 -18
22 1 40 6 40 10 0 4 7 8 15 8 23 0 18 16 -10 28 -36 16 -45 15 -38 -5 6 -16 3
-15 -18 2 -13 11 -18 13 -11 4 6 -9 9 -19 5 -23 -4 -4 -13 4 -20 16 -8 15 -12
18 -13 8 0 -13 -1 -13 -11 0 -9 13 -10 13 -6 0z"/>
<path d="M2153 1439 c-5 -5 -20 -11 -32 -12 -11 -1 -21 -4 -21 -8 0 -4 -10 -5
-22 -2 -13 3 -20 3 -17 -1 4 -4 24 -8 45 -11 30 -2 44 2 63 21 16 16 19 24 9
24 -8 0 -19 -5 -25 -11z"/>
<path d="M2342 1434 c-26 -18 -28 -30 -6 -38 18 -7 63 23 64 42 0 17 -31 15
-58 -4z"/>
<path d="M1907 1423 c8 -3 11 -14 7 -29 -4 -15 -2 -24 5 -24 6 0 11 7 11 15 0
13 17 20 45 16 6 -1 1 6 -9 14 -11 8 -31 15 -45 14 -14 0 -20 -3 -14 -6z"/>
<path d="M1874 1368 c-10 -13 -15 -20 -10 -16 5 4 15 3 22 -3 16 -13 28 5 16
26 -7 14 -11 13 -28 -7z"/>
<path d="M2226 1377 c3 -8 11 -14 19 -14 20 0 19 4 -5 17 -15 8 -18 8 -14 -3z"/>
<path d="M2333 1342 c-6 -4 -16 -19 -22 -34 -8 -22 -7 -28 7 -32 9 -3 26 -4
37 -1 11 2 23 4 28 4 12 1 8 46 -5 59 -14 14 -28 15 -45 4z"/>
<path d="M2610 1341 c0 -5 7 -12 16 -15 14 -5 15 -4 4 9 -14 17 -20 19 -20 6z"/>
<path d="M2256 1272 c-3 -5 1 -15 8 -21 11 -10 14 -9 12 3 -3 21 -13 29 -20
18z"/>
<path d="M3309 1192 c-20 -24 -39 -60 -39 -72 0 -20 45 -80 65 -87 36 -12 44
-11 38 5 -5 11 -3 13 8 7 12 -8 12 -6 0 8 -7 9 -11 17 -8 17 3 0 -3 21 -14 46
-11 25 -18 52 -15 59 2 7 -1 18 -8 24 -10 8 -17 6 -27 -7z"/>
<path d="M2218 1182 c-37 -17 -44 -32 -20 -40 7 -2 12 4 12 13 0 9 3 14 8 12
4 -3 16 4 26 14 23 22 22 22 -26 1z"/>
<path d="M2593 1186 c6 -15 -26 -49 -55 -59 -21 -8 -38 18 -30 46 5 20 4 20
-26 -2 -32 -22 -38 -37 -24 -56 8 -11 83 -14 75 -2 -2 4 2 7 10 7 8 0 20 7 27
15 7 8 16 12 21 9 5 -3 8 0 7 8 -2 7 3 12 10 10 8 -1 11 2 6 9 -5 9 -2 10 11
5 15 -5 16 -4 5 9 -16 19 -44 20 -37 1z"/>
<path d="M2847 1179 c7 -7 15 -10 18 -7 3 3 -2 9 -12 12 -14 6 -15 5 -6 -5z"/>
<path d="M2700 1160 c14 -10 27 -16 30 -13 6 6 -30 33 -44 33 -6 0 0 -9 14
-20z"/>
<path d="M1950 1100 c-9 -6 -10 -10 -3 -10 6 0 15 5 18 10 8 12 4 12 -15 0z"/>
<path d="M2212 1054 c-17 -18 -15 -25 6 -22 16 3 32 16 32 29 0 11 -26 6 -38
-7z"/>
</g>
</svg>
