<?xml version="1.0" standalone="no"?>
<!DOCTYPE svg PUBLIC "-//W3C//DTD SVG 20010904//EN"
 "http://www.w3.org/TR/2001/REC-SVG-20010904/DTD/svg10.dtd">
<svg version="1.0" xmlns="http://www.w3.org/2000/svg"
 width="450.000000pt" height="253.000000pt" viewBox="0 0 450.000000 253.000000"
 preserveAspectRatio="xMidYMid meet">
<metadata>
Created by potrace 1.16, written by Peter Selinger 2001-2019
</metadata>
<g transform="translate(0.000000,253.000000) scale(0.100000,-0.100000)"
fill="#000000" stroke="none">
<path d="M0 1265 l0 -1265 2250 0 2250 0 0 1265 0 1265 -882 0 c-485 0 -879
-2 -877 -4 2 -2 23 -6 47 -10 113 -15 229 -118 309 -273 81 -158 83 -161 123
-166 19 -3 63 -15 98 -27 l64 -22 27 26 c24 23 35 26 96 26 63 0 80 -5 180
-52 146 -69 182 -102 192 -178 8 -57 -8 -94 -65 -151 -32 -32 -70 -72 -87 -89
-50 -53 -112 -90 -193 -117 -42 -13 -81 -28 -85 -32 -8 -8 11 -54 51 -126 13
-23 17 -57 17 -150 0 -106 -3 -125 -23 -162 -12 -24 -35 -51 -50 -60 -15 -10
-31 -23 -35 -30 -4 -7 -17 -13 -27 -13 -10 0 -22 -5 -26 -11 -5 -9 -44 -10
-133 -6 -142 6 -248 31 -351 81 l-65 31 -25 -25 c-14 -14 -35 -32 -47 -40 -16
-10 -23 -26 -25 -53 -3 -59 -72 -133 -161 -175 -83 -40 -200 -57 -226 -35 -9
7 -28 24 -43 36 -27 23 -116 177 -103 177 4 0 2 7 -6 16 -19 24 -19 133 2 169
9 17 19 44 22 61 l6 32 -37 -9 c-70 -16 -268 9 -387 48 -103 34 -187 83 -202
120 -23 54 -2 118 80 236 43 63 114 125 220 194 45 29 47 32 29 45 -81 56
-147 128 -177 190 -19 38 -31 68 -27 68 3 0 1 5 -6 12 -14 14 -16 104 -2 113
5 3 7 11 4 18 -4 12 52 41 131 68 59 21 315 19 380 -2 28 -9 66 -15 85 -13 19
1 42 3 50 4 8 0 25 23 38 49 31 66 73 118 135 164 29 21 54 41 56 43 2 2 -575
4 -1282 4 l-1287 0 0 -1265z"/>
<path d="M2708 2523 c7 -3 16 -2 19 1 4 3 -2 6 -13 5 -11 0 -14 -3 -6 -6z"/>
<path d="M2839 1934 c-13 -13 -14 -24 -7 -60 7 -34 7 -49 -4 -61 -9 -12 -9
-15 0 -9 6 4 12 2 12 -3 0 -6 -4 -11 -9 -11 -14 0 -10 -51 5 -57 23 -9 16 -21
-10 -19 -26 3 -36 -14 -36 -67 0 -21 6 -30 20 -34 11 -3 20 -9 20 -15 0 -5 -7
-5 -17 1 -21 11 -63 45 -46 36 8 -4 11 -1 7 8 -4 11 -13 7 -36 -15 -29 -27
-32 -28 -54 -13 -24 15 -31 10 -16 -11 4 -6 16 -15 26 -21 11 -6 21 -19 22
-29 1 -11 5 -36 8 -56 6 -34 4 -37 -23 -43 -20 -4 -31 -14 -35 -31 -6 -23 -8
-23 -38 -11 -17 7 -32 20 -34 30 -1 9 1 15 4 13 4 -2 16 2 26 10 15 10 16 14
5 17 -8 2 -30 9 -50 16 -45 14 -66 14 -75 0 -5 -8 3 -10 25 -7 40 6 40 -10 1
-24 -36 -12 -35 -32 2 -36 27 -3 44 -27 28 -37 -6 -4 2 -22 16 -40 l26 -35
-31 -62 c-22 -46 -27 -64 -18 -70 21 -13 27 -9 27 18 0 21 3 24 13 15 16 -13
37 4 37 31 0 10 6 18 13 18 8 0 22 9 32 20 29 32 93 60 137 60 40 0 40 1 24
19 -9 10 -20 35 -23 55 -3 20 -10 36 -14 36 -5 0 -7 -11 -3 -24 3 -13 1 -27
-6 -31 -8 -5 -8 -10 0 -20 8 -10 6 -15 -9 -20 -32 -10 -41 2 -26 33 32 61 65
142 65 157 0 14 10 16 68 12 60 -4 71 -2 104 22 24 16 38 34 38 48 0 12 11 33
23 47 25 27 37 109 17 121 -29 18 13 39 46 23 18 -9 18 -8 2 5 -20 16 -24 37
-7 37 5 0 7 -5 3 -12 -4 -6 -3 -8 4 -5 18 12 7 42 -14 39 -22 -4 -34 -4 -92 2
-23 3 -40 1 -37 -4 3 -5 -2 -13 -11 -18 -14 -8 -12 -9 10 -9 15 0 35 -8 44
-18 10 -10 12 -15 5 -11 -18 10 -63 -22 -56 -40 3 -8 2 -14 -3 -13 -5 1 -20 1
-33 0 -18 -1 -21 -4 -12 -14 6 -8 8 -16 5 -20 -10 -10 36 -28 56 -22 22 7 27
24 8 26 -14 1 29 16 50 18 21 2 13 -28 -10 -40 -34 -18 -54 -42 -50 -61 3 -17
-7 -24 -66 -43 -21 -6 -23 -4 -18 12 4 13 -2 30 -16 48 -21 27 -21 28 -3 41
14 11 16 16 6 28 -7 8 -19 12 -27 9 -8 -3 -14 -1 -14 5 0 5 13 9 30 8 24 -2
27 0 17 12 -9 11 -7 17 8 28 12 9 14 14 5 14 -10 0 -9 5 3 18 14 15 15 19 2
19 -8 0 -11 -5 -8 -10 3 -6 1 -7 -5 -3 -7 4 -10 17 -8 29 3 12 5 24 5 27 1 3
6 -2 11 -10 6 -9 10 -11 10 -3 0 7 7 10 17 6 11 -4 14 -3 9 6 -5 7 -14 10 -21
7 -15 -5 -38 17 -28 27 3 4 -2 7 -13 7 -11 0 -27 -7 -35 -16z m251 -80 c0 -7
-8 -10 -20 -7 -22 6 -19 20 5 20 8 0 15 -6 15 -13z m-210 -180 c0 -2 -9 0 -20
6 -11 6 -20 13 -20 16 0 2 9 0 20 -6 11 -6 20 -13 20 -16z"/>
<path d="M3245 1820 c3 -5 11 -10 16 -10 6 0 7 5 4 10 -3 6 -11 10 -16 10 -6
0 -7 -4 -4 -10z"/>
<path d="M2647 1803 c-26 -8 -45 -18 -42 -23 8 -13 -5 -40 -20 -40 -7 0 -28
11 -48 24 -19 13 -38 22 -41 19 -3 -4 3 -12 14 -20 14 -10 20 -26 20 -51 1
-36 1 -37 14 -13 13 24 14 24 25 3 7 -14 8 -23 1 -27 -16 -10 -12 -25 6 -18
12 4 14 0 8 -21 -9 -36 11 -34 47 5 25 27 31 30 46 18 15 -13 15 -12 3 8 -8
11 -21 20 -29 19 -9 -1 -27 8 -40 21 l-24 22 29 11 c16 6 39 9 51 7 23 -4 33
9 38 51 4 25 6 25 -58 5z"/>
<path d="M1900 1735 c-13 -14 -30 -25 -37 -25 -8 0 -13 -7 -11 -16 2 -11 -5
-18 -19 -20 -13 -2 -23 1 -23 8 0 6 -14 -1 -31 -18 -26 -25 -30 -35 -27 -74 3
-41 6 -45 31 -46 40 -1 44 -12 11 -25 -16 -6 -39 -15 -51 -19 -21 -9 -26 -41
-9 -69 10 -16 -3 -51 -19 -51 -15 0 -45 -27 -45 -40 0 -10 47 -19 56 -11 3 3
14 7 25 7 10 1 20 2 22 4 3 2 38 10 59 12 9 1 14 6 12 10 -3 5 -10 5 -16 2 -7
-4 -8 -2 -4 5 4 6 12 9 17 6 5 -4 9 -1 9 5 0 6 5 8 10 5 6 -3 10 -2 10 3 0 6
15 13 33 16 19 3 41 12 51 19 14 10 9 12 -31 8 -43 -3 -46 -2 -34 13 11 14 11
16 -3 16 -20 0 -17 21 7 38 9 7 15 18 12 23 -4 5 -2 9 3 9 10 0 11 31 2 40 -3
3 -13 17 -23 33 -14 22 -15 27 -3 27 7 0 13 6 13 13 -2 26 16 97 24 98 5 1 13
2 18 3 20 2 23 16 4 16 -11 0 -30 -11 -43 -25z"/>
<path d="M2706 1698 c3 -4 11 -5 19 -1 21 7 19 12 -4 10 -11 0 -18 -5 -15 -9z"/>
<path d="M2400 1641 c0 -6 9 -9 19 -8 11 0 17 5 15 9 -7 11 -34 10 -34 -1z"/>
<path d="M2700 1628 c0 -4 4 -8 9 -8 6 0 12 4 15 8 3 5 -1 9 -9 9 -8 0 -15 -4
-15 -9z"/>
<path d="M2539 1574 c-11 -30 -7 -39 14 -31 16 6 20 57 6 57 -5 0 -14 -12 -20
-26z"/>
<path d="M2610 1585 c-9 -11 -11 -22 -4 -32 14 -23 29 -20 32 6 5 32 -11 46
-28 26z"/>
<path d="M2313 1533 c-48 -5 -54 -14 -19 -32 21 -11 26 -10 49 13 14 14 23 25
19 24 -4 -1 -26 -3 -49 -5z"/>
<path d="M2947 1484 c-4 -4 -19 -7 -34 -8 -26 -1 -29 -5 -40 -61 -6 -33 -10
-61 -8 -63 2 -2 22 7 44 20 27 15 44 19 49 13 6 -9 14 -11 39 -6 4 0 -2 8 -13
17 -10 8 -13 12 -6 9 10 -5 12 3 9 37 -4 41 -22 60 -40 42z"/>
<path d="M2298 1462 c-20 -4 -24 -17 -8 -27 6 -3 6 -15 0 -30 -10 -27 6 -47
20 -25 6 10 9 9 11 -4 4 -15 7 -15 39 1 28 14 35 24 34 45 -1 15 3 25 7 22 5
-3 9 -1 9 5 0 19 -53 25 -112 13z"/>
<path d="M2420 1435 c-17 -21 -3 -37 20 -23 11 7 22 18 24 25 7 18 -29 16 -44
-2z"/>
<path d="M2380 1375 c0 -10 72 -85 82 -85 14 0 9 19 -11 39 -26 26 -71 55 -71
46z"/>
<path d="M2459 1367 c7 -9 23 -12 43 -9 32 5 32 6 8 13 -44 12 -64 11 -51 -4z"/>
<path d="M2877 1289 c-12 -7 -15 -15 -8 -26 4 -9 6 -24 4 -33 -7 -26 37 -20
65 9 25 28 26 33 10 49 -15 15 -47 15 -71 1z"/>
<path d="M3137 1259 c7 -7 15 -10 18 -7 3 3 -2 9 -12 12 -14 6 -15 5 -6 -5z"/>
<path d="M3007 1239 c7 -7 15 -10 18 -7 3 3 -2 9 -12 12 -14 6 -15 5 -6 -5z"/>
<path d="M2799 1204 c-10 -12 -8 -14 9 -11 28 4 36 13 18 20 -8 3 -20 -1 -27
-9z"/>
<path d="M2216 1201 c-4 -7 -5 -15 -2 -18 9 -9 19 4 14 18 -4 11 -6 11 -12 0z"/>
<path d="M2550 1154 c0 -2 7 -10 16 -18 19 -20 41 -22 25 -3 -6 8 -8 17 -5 20
4 3 -3 5 -15 4 -11 -1 -21 -2 -21 -3z"/>
</g>
</svg>
