<?xml version="1.0" standalone="no"?>
<!DOCTYPE svg PUBLIC "-//W3C//DTD SVG 20010904//EN"
 "http://www.w3.org/TR/2001/REC-SVG-20010904/DTD/svg10.dtd">
<svg version="1.0" xmlns="http://www.w3.org/2000/svg"
 width="450.000000pt" height="253.000000pt" viewBox="0 0 450.000000 253.000000"
 preserveAspectRatio="xMidYMid meet">
<metadata>
Created by potrace 1.16, written by Peter Selinger 2001-2019
</metadata>
<g transform="translate(0.000000,253.000000) scale(0.100000,-0.100000)"
fill="#000000" stroke="none">
<path d="M0 1265 l0 -1265 2250 0 2250 0 0 1265 0 1265 -2250 0 -2250 0 0
-1265z m3325 774 c59 -11 135 -43 135 -57 1 -17 57 -73 79 -77 34 -6 66 -29
96 -69 20 -26 41 -39 82 -51 41 -12 68 -29 104 -65 l49 -49 -32 -55 c-23 -39
-42 -60 -67 -71 -20 -9 -47 -22 -61 -30 -74 -41 -139 -67 -174 -70 -34 -2 -39
-6 -42 -30 -2 -15 -10 -38 -19 -52 -11 -16 -13 -28 -7 -36 23 -27 59 -146 61
-200 3 -71 -13 -122 -52 -167 -54 -62 -67 -64 -179 -35 -54 14 -135 32 -180
40 -112 20 -222 88 -271 168 -19 30 -17 31 33 17 30 -8 33 -7 18 4 -29 22 -20
43 15 37 4 0 7 3 7 8 0 14 52 10 83 -6 27 -13 27 -13 15 7 -7 11 -19 18 -25
15 -7 -2 -13 0 -13 5 0 11 11 13 52 10 16 -1 35 6 44 15 9 9 23 14 32 10 8 -3
21 0 29 7 11 9 19 9 35 -1 27 -17 33 -8 14 21 -18 27 -98 88 -115 88 -16 0
-13 -21 6 -42 16 -18 16 -19 -10 -9 -23 9 -29 8 -34 -7 -20 -56 -58 -68 -111
-34 -29 19 -41 8 -19 -16 10 -10 17 -22 17 -25 0 -13 -60 -7 -61 6 0 9 -2 9
-6 -1 -2 -6 -9 -10 -14 -6 -5 3 -9 0 -9 -6 0 -6 -4 -8 -10 -5 -5 3 -10 2 -10
-3 0 -11 -23 -13 -79 -6 -67 8 -114 68 -181 229 -38 91 -39 101 -24 150 8 27
14 63 14 81 0 38 26 110 48 137 18 20 11 21 -59 6 -42 -9 -60 -20 -92 -55 -26
-29 -47 -43 -61 -41 -17 2 -21 -3 -20 -28 0 -16 3 -37 6 -45 2 -8 3 -12 1 -9
-2 4 -12 5 -23 2 -17 -4 -44 25 -45 50 0 4 -7 12 -15 17 -12 8 -12 10 4 10 20
0 20 0 0 16 -10 8 -13 13 -6 9 22 -11 13 25 -12 50 -30 30 -25 57 18 88 29 21
41 22 192 22 151 -1 161 0 151 17 -9 14 -6 22 12 42 41 44 127 67 296 80 160
13 303 11 390 -5z m-1060 -339 c3 -11 11 -20 16 -20 5 0 9 -10 9 -22 -1 -23
-1 -23 -16 -3 -8 11 -20 19 -25 18 -5 -2 -8 8 -7 22 3 30 14 33 23 5z m25 -82
c23 3 30 0 30 -12 0 -10 -9 -16 -25 -16 -14 0 -25 -4 -25 -9 0 -12 26 -21 63
-21 24 0 28 -3 19 -12 -7 -7 -25 -13 -40 -14 -15 -1 -36 -3 -47 -4 -11 -1 -14
-4 -8 -7 10 -3 9 -11 -2 -34 -17 -32 -10 -39 12 -11 12 15 13 12 8 -23 -4 -22
-8 -51 -11 -63 -3 -17 -1 -21 7 -16 7 4 9 3 6 -4 -4 -5 -15 -9 -24 -8 -10 2
-25 -7 -35 -18 -17 -21 -18 -20 -13 19 5 38 16 81 36 149 5 16 9 50 10 75 0
25 3 41 5 35 2 -6 18 -8 34 -6z m11 -221 c-10 -9 -11 -8 -5 6 3 10 9 15 12 12
3 -3 0 -11 -7 -18z m-94 -204 c-3 -10 -5 -2 -5 17 0 19 2 27 5 18 2 -10 2 -26
0 -35z m98 -483 c3 -5 1 -10 -4 -10 -6 0 -11 5 -11 10 0 6 2 10 4 10 3 0 8 -4
11 -10z m-2 -176 c-2 -87 -5 -159 -7 -162 -3 -2 -5 68 -5 157 -1 88 3 161 7
161 4 0 6 -70 5 -156z"/>
<path d="M3422 1926 c7 -8 15 -12 17 -11 5 6 -10 25 -20 25 -5 0 -4 -6 3 -14z"/>
<path d="M3058 1899 c-21 -13 6 -31 52 -34 25 -1 49 -10 63 -23 12 -11 41 -25
65 -31 23 -7 42 -15 42 -20 0 -11 46 -31 54 -24 10 10 7 35 -4 28 -5 -3 -10
-1 -10 5 0 6 -4 8 -10 5 -5 -3 -10 -1 -10 4 0 6 -3 10 -7 10 -24 -4 -35 3 -29
17 6 14 4 15 -9 4 -14 -12 -15 -10 -11 13 2 15 0 29 -5 33 -16 10 -23 -4 -10
-20 7 -8 8 -17 3 -20 -13 -7 -22 4 -22 26 0 16 -13 22 -47 21 -7 -1 -10 3 -7
9 7 11 -80 8 -98 -3z"/>
<path d="M3373 1864 c-3 -7 -3 -19 0 -26 3 -7 6 -2 7 12 0 22 2 23 11 7 9 -15
13 -16 27 -5 10 8 13 9 9 1 -4 -6 -4 -14 1 -17 4 -2 9 6 10 19 1 20 -3 24 -29
23 -17 -1 -33 -7 -36 -14z"/>
<path d="M3071 1841 c-9 -6 -10 -11 -2 -15 6 -4 11 -2 11 4 0 6 5 8 12 4 7 -4
8 -3 4 4 -8 14 -7 14 -25 3z"/>
<path d="M3456 1832 c-3 -5 1 -9 9 -9 8 0 12 4 9 9 -3 4 -7 8 -9 8 -2 0 -6 -4
-9 -8z"/>
<path d="M3179 1815 c-1 -5 0 -14 1 -20 1 -5 -2 -7 -6 -3 -4 4 -14 2 -22 -5
-13 -10 -14 -9 -7 3 8 13 5 13 -15 -1 -14 -9 -35 -15 -47 -14 l-21 2 20 -28
c11 -14 27 -26 36 -24 10 1 11 0 5 -2 -7 -3 -13 -7 -13 -10 0 -12 65 -61 70
-53 3 4 22 2 42 -5 l37 -12 -16 23 c-8 14 -12 32 -8 41 8 22 6 29 -6 26 -12
-4 -11 1 2 31 7 14 17 23 23 19 6 -3 7 -2 3 2 -4 5 -13 10 -20 11 -30 5 -43
10 -49 19 -5 7 -8 7 -9 0z m16 -75 c16 -6 15 -8 -11 -12 -18 -2 -42 3 -59 14
l-30 17 40 -6 c22 -3 49 -9 60 -13z"/>
<path d="M2313 1763 c0 -15 -2 -34 -4 -42 -2 -8 4 -17 14 -19 13 -3 17 3 17
25 0 15 -7 36 -14 46 -13 16 -14 15 -13 -10z"/>
<path d="M3384 1709 c-3 -6 -13 -9 -22 -8 -39 3 -72 -2 -72 -12 0 -5 5 -7 12
-3 7 5 8 3 4 -5 -5 -7 -15 -10 -24 -6 -13 5 -12 2 3 -15 l19 -21 19 31 c10 16
20 30 22 30 1 0 5 -11 7 -25 3 -13 2 -22 -2 -20 -4 2 -17 -14 -29 -35 -24 -43
-19 -51 29 -47 20 1 26 8 27 27 4 50 7 58 18 53 8 -2 12 5 11 19 -1 16 4 23
16 22 10 -1 16 2 13 6 -8 13 -45 19 -51 9z m-14 -79 c0 -5 -2 -10 -4 -10 -3 0
-8 5 -11 10 -3 6 -1 10 4 10 6 0 11 -4 11 -10z"/>
<path d="M2996 1659 c-10 -10 -16 -24 -14 -31 4 -9 -5 -13 -28 -14 -19 0 -37
-4 -40 -7 -10 -10 16 -37 36 -37 10 0 23 -7 30 -15 10 -12 10 -15 -2 -15 -16
0 -48 -35 -48 -52 0 -7 6 -4 13 6 15 20 67 31 67 14 0 -6 6 -8 14 -5 20 8 14
-24 -13 -61 -13 -18 -21 -35 -18 -38 6 -7 54 13 62 26 4 7 15 4 31 -9 21 -16
30 -18 50 -9 31 15 58 54 42 64 -7 5 -8 3 -3 -6 6 -9 4 -11 -5 -5 -8 5 -11 4
-7 -1 3 -6 -10 -10 -31 -9 -29 0 -37 4 -37 18 0 10 -5 21 -11 25 -6 4 -13 15
-17 24 -3 10 -12 15 -21 12 -8 -3 -17 0 -21 5 -3 6 -12 8 -18 5 -7 -4 0 5 15
20 15 14 37 26 48 26 12 0 30 5 41 11 16 8 25 7 42 -8 21 -17 21 -17 7 1 -13
16 -12 20 3 31 16 11 16 13 1 26 -15 12 -19 11 -31 -8 -14 -21 -17 -21 -48 -9
-18 8 -37 11 -41 8 -4 -4 -4 -2 0 5 4 7 -1 16 -11 21 -13 7 -23 4 -37 -9z"/>
<path d="M3083 1578 c-31 -15 -29 -22 12 -37 29 -10 35 -16 29 -33 -4 -14 -2
-18 5 -14 6 4 14 0 17 -9 4 -10 10 -12 18 -7 6 5 18 8 26 7 10 -2 17 5 17 17
2 17 -3 19 -25 15 -22 -4 -24 -3 -12 6 22 17 23 37 2 37 -10 0 -27 7 -38 15
-22 17 -22 17 -51 3z"/>
<path d="M3253 1574 c-15 -16 -16 -24 -4 -24 8 0 24 30 19 35 -2 2 -9 -3 -15
-11z"/>
<path d="M2863 1522 c1 -12 6 -18 15 -15 7 3 10 9 5 12 -4 3 -11 10 -15 15 -4
4 -6 -1 -5 -12z"/>
<path d="M2881 1455 c-23 -22 -30 -35 -21 -40 6 -4 10 -15 7 -25 -3 -12 3 -22
19 -29 22 -10 24 -8 24 14 0 14 6 25 13 26 6 1 20 2 29 3 10 0 17 5 15 11 -1
5 -10 8 -20 7 -24 -4 -47 16 -40 34 3 7 9 11 14 8 5 -3 6 2 3 10 -3 9 -7 16
-8 15 0 -1 -16 -16 -35 -34z"/>
<path d="M3100 1470 c0 -5 7 -7 15 -4 8 4 15 8 15 10 0 2 -7 4 -15 4 -8 0 -15
-4 -15 -10z"/>
<path d="M3270 1349 c0 -5 4 -9 9 -9 5 0 13 -10 17 -22 6 -21 7 -21 21 -2 7
10 16 18 18 17 3 -2 4 0 3 4 -2 4 -7 8 -13 9 -5 0 -12 2 -15 3 -17 8 -40 8
-40 0z"/>
<path d="M2831 1286 c-8 -10 -9 -16 -1 -21 5 -3 10 -5 11 -3 4 18 7 38 4 38
-1 0 -8 -6 -14 -14z"/>
<path d="M3245 1259 c-4 -6 -3 -15 3 -21 6 -6 11 -4 15 6 7 18 -9 31 -18 15z"/>
<path d="M3121 1224 c0 -11 3 -14 6 -6 3 7 2 16 -1 19 -3 4 -6 -2 -5 -13z"/>
<path d="M3160 1210 c-12 -8 -10 -10 8 -10 13 0 20 4 17 10 -7 12 -6 12 -25 0z"/>
<path d="M3000 1116 c0 -9 30 -14 35 -6 4 6 -3 10 -14 10 -12 0 -21 -2 -21 -4z"/>
</g>
</svg>
