<?xml version="1.0" standalone="no"?>
<!DOCTYPE svg PUBLIC "-//W3C//DTD SVG 20010904//EN"
 "http://www.w3.org/TR/2001/REC-SVG-20010904/DTD/svg10.dtd">
<svg version="1.0" xmlns="http://www.w3.org/2000/svg"
 width="450.000000pt" height="253.000000pt" viewBox="0 0 450.000000 253.000000"
 preserveAspectRatio="xMidYMid meet">
<metadata>
Created by potrace 1.16, written by Peter Selinger 2001-2019
</metadata>
<g transform="translate(0.000000,253.000000) scale(0.100000,-0.100000)"
fill="#000000" stroke="none">
<path d="M0 1265 l0 -1265 2250 0 2250 0 0 1265 0 1265 -822 0 c-822 -1 -823
-1 -774 -20 27 -11 54 -16 60 -13 6 3 8 3 4 -1 -4 -5 8 -23 26 -41 18 -18 36
-39 40 -46 3 -8 15 -28 25 -45 17 -27 35 -92 47 -164 3 -14 5 -51 6 -82 1 -55
3 -58 32 -67 57 -18 106 -24 106 -12 0 22 59 41 130 41 62 0 84 -6 181 -47
117 -50 199 -110 199 -144 0 -11 6 -22 13 -25 9 -3 13 -22 11 -60 -3 -69 -22
-99 -137 -215 -89 -89 -146 -125 -249 -155 -32 -9 -58 -18 -58 -19 0 -1 15
-18 33 -37 45 -49 75 -114 92 -203 16 -80 19 -172 9 -200 -4 -9 -17 -21 -30
-26 -13 -4 -24 -15 -24 -24 0 -8 -8 -15 -17 -15 -9 0 -24 -6 -32 -14 -27 -23
-146 -46 -239 -46 -152 0 -350 40 -419 85 -34 23 -63 19 -64 -7 -1 -57 -10
-142 -15 -147 -3 -3 -4 26 -2 65 l3 72 -47 -40 c-35 -29 -48 -47 -48 -66 0
-36 -94 -135 -160 -168 -28 -14 -77 -30 -109 -36 -53 -10 -66 -9 -123 12 -35
12 -73 30 -86 39 -13 9 -48 67 -78 130 -55 115 -60 137 -63 278 -1 26 -4 30
-21 26 -22 -6 -28 15 -9 34 12 12 -7 18 -86 28 -140 17 -295 107 -330 191 -10
24 -22 44 -28 44 -5 0 -6 7 -3 16 3 8 -1 28 -9 44 -45 88 29 218 172 301 29
17 55 35 58 39 3 5 -11 21 -30 37 -87 68 -172 216 -189 328 -6 42 22 142 40
138 5 -1 16 4 24 11 47 41 310 54 410 21 30 -10 60 -21 65 -26 6 -4 59 -8 118
-8 l107 0 28 35 c27 35 146 131 191 154 13 7 47 20 75 30 50 18 22 19 -1226
19 l-1278 1 0 -1265z m2607 -917 c-3 -7 -5 -2 -5 12 0 14 2 19 5 13 2 -7 2
-19 0 -25z"/>
<path d="M2748 2523 c6 -2 18 -2 25 0 6 3 1 5 -13 5 -14 0 -19 -2 -12 -5z"/>
<path d="M2803 2523 c9 -2 25 -2 35 0 9 3 1 5 -18 5 -19 0 -27 -2 -17 -5z"/>
<path d="M2280 2042 c0 -20 31 -42 58 -41 27 2 27 2 2 6 -13 3 -32 14 -42 26
-10 11 -18 15 -18 9z"/>
<path d="M2230 2019 c0 -13 33 -20 44 -9 8 8 6 9 -8 4 -12 -5 -17 -4 -13 3 3
5 0 10 -8 10 -8 0 -15 -4 -15 -8z"/>
<path d="M2447 1883 c-10 -10 -8 -33 2 -33 6 0 9 9 8 20 -1 23 -1 22 -10 13z"/>
<path d="M2450 1831 c0 -6 4 -12 8 -15 5 -3 9 1 9 9 0 8 -4 15 -9 15 -4 0 -8
-4 -8 -9z"/>
<path d="M2415 1771 c3 -2 -3 -10 -13 -18 -9 -8 -11 -12 -4 -8 6 3 12 1 12 -4
0 -6 -4 -11 -9 -11 -18 0 -18 -61 1 -85 10 -13 18 -28 18 -34 0 -12 60 -46 60
-34 0 11 20 -20 20 -31 0 -4 -6 -6 -12 -3 -9 3 -13 -9 -14 -42 l0 -46 46 1
c57 2 97 21 81 37 -15 15 -14 37 5 58 14 16 12 18 -28 24 -61 10 -113 47 -152
107 -16 25 -16 27 1 36 24 14 25 58 1 58 -9 0 -15 -2 -13 -5z"/>
<path d="M2330 1715 c0 -2 10 -10 23 -16 20 -11 21 -11 8 4 -13 16 -31 23 -31
12z"/>
<path d="M2160 1701 c0 -5 5 -13 11 -16 6 -4 8 -14 4 -23 -3 -9 -3 -13 1 -9 4
4 12 0 18 -8 10 -12 14 -12 36 0 17 10 20 14 9 15 -9 0 -22 7 -29 16 -18 21
-50 37 -50 25z"/>
<path d="M2702 1663 c-7 -10 -10 -12 -7 -5 3 6 2 12 -3 12 -6 0 -13 -7 -16
-16 -3 -8 -11 -12 -17 -8 -8 4 -9 3 -5 -4 4 -7 3 -12 -2 -12 -5 0 -12 -13 -14
-29 -4 -28 -1 -30 45 -22 4 0 7 9 7 19 0 10 7 28 16 40 18 27 15 50 -4 25z"/>
<path d="M1755 1646 c-11 -8 -26 -11 -34 -8 -9 3 -6 -4 8 -19 l22 -24 -33 -6
c-39 -7 -22 -17 36 -21 39 -3 39 -4 21 -21 -15 -16 -16 -20 -4 -28 8 -5 19 -9
25 -9 13 0 50 50 46 63 -1 4 3 7 9 7 8 0 8 4 0 14 -8 10 -9 16 -2 21 7 4 7 12
-2 25 -14 24 -64 27 -92 6z m90 -16 c3 -6 -1 -7 -9 -4 -18 7 -21 14 -7 14 6 0
13 -4 16 -10z"/>
<path d="M2385 1561 c4 -15 -1 -24 -23 -35 -16 -8 -32 -13 -36 -11 -3 3 -4 2
-1 -2 10 -12 48 -14 82 -2 44 14 50 27 19 39 -14 5 -26 14 -26 20 0 5 -5 10
-11 10 -6 0 -8 -8 -4 -19z"/>
<path d="M1496 1551 c-4 -5 -2 -12 3 -15 5 -4 12 -2 15 3 4 5 2 12 -3 15 -5 4
-12 2 -15 -3z"/>
<path d="M2154 1461 c9 -14 -16 -28 -58 -34 -39 -5 -75 -27 -40 -24 12 1 18
-4 16 -13 -3 -12 0 -11 15 2 12 11 23 14 32 8 10 -6 23 1 43 22 22 24 26 33
16 39 -17 11 -31 11 -24 0z"/>
<path d="M2336 1434 c-23 -22 -20 -34 7 -34 22 0 57 27 57 43 0 14 -49 7 -64
-9z"/>
<path d="M1904 1429 c-17 -7 -17 -8 -1 -8 22 -1 22 -6 -4 -32 -15 -15 -18 -24
-10 -32 7 -7 16 -3 31 16 12 15 29 27 38 27 9 0 23 4 29 8 18 11 -59 30 -83
21z"/>
<path d="M2329 1353 c-19 -5 -32 -40 -18 -49 5 -3 7 -9 4 -14 -7 -12 28 -18
53 -9 26 10 29 41 6 63 -16 16 -17 17 -45 9z"/>
<path d="M2610 1340 c0 -6 7 -10 15 -10 8 0 15 2 15 4 0 2 -7 6 -15 10 -8 3
-15 1 -15 -4z"/>
<path d="M2163 1328 c-30 -8 -46 -28 -23 -28 6 0 10 4 10 8 0 4 12 9 27 10 29
2 39 8 26 15 -4 2 -23 0 -40 -5z"/>
<path d="M2445 1290 c4 -6 11 -8 16 -5 14 9 11 15 -7 15 -8 0 -12 -5 -9 -10z"/>
<path d="M2256 1279 c5 -8 -17 -14 -39 -10 -5 1 -6 -3 -3 -8 3 -5 16 -7 28 -3
17 4 20 2 15 -11 -9 -24 -2 -21 16 7 15 22 15 24 -3 29 -11 3 -18 1 -14 -4z"/>
<path d="M2220 1199 c-45 -27 -43 -26 -36 -44 5 -14 9 -13 35 6 16 12 32 30
34 40 3 11 4 19 4 19 -1 0 -18 -10 -37 -21z"/>
<path d="M2589 1208 c0 -2 -2 -11 -4 -22 -6 -30 -38 -54 -62 -45 -15 6 -20 14
-16 28 7 28 -12 27 -42 -4 -27 -26 -32 -50 -12 -57 24 -9 86 4 102 22 10 11
24 16 33 13 9 -4 13 -2 9 3 -3 6 3 17 13 24 14 10 16 17 8 27 -9 11 -27 18
-29 11z"/>
<path d="M2689 1168 c12 -11 25 -18 28 -15 9 9 -5 24 -28 30 l-21 6 21 -21z"/>
<path d="M3295 1168 c-4 -16 -11 -28 -16 -28 -11 0 10 -56 27 -71 7 -6 11 -16
7 -23 -3 -6 -3 -8 2 -4 4 4 14 3 22 -4 11 -9 13 -8 11 3 -2 8 2 13 8 12 16 -3
10 31 -12 63 -10 16 -24 40 -30 54 l-11 25 -8 -27z m44 -60 c16 -16 18 -25 10
-40 -11 -21 -29 -15 -28 10 0 14 2 13 9 -3 8 -19 9 -19 9 2 1 28 -15 38 -27
17 -8 -15 -10 -15 -15 0 -4 9 -1 15 6 13 7 -1 10 5 8 13 -11 46 -12 55 -2 32
6 -12 19 -32 30 -44z"/>
<path d="M1945 1100 c-3 -5 -1 -10 4 -10 6 0 11 5 11 10 0 6 -2 10 -4 10 -3 0
-8 -4 -11 -10z"/>
<path d="M2200 1055 l-23 -25 24 0 c33 0 53 15 46 34 -9 22 -20 20 -47 -9z"/>
</g>
</svg>
