<?xml version="1.0" standalone="no"?>
<!DOCTYPE svg PUBLIC "-//W3C//DTD SVG 20010904//EN"
 "http://www.w3.org/TR/2001/REC-SVG-20010904/DTD/svg10.dtd">
<svg version="1.0" xmlns="http://www.w3.org/2000/svg"
 width="450.000000pt" height="253.000000pt" viewBox="0 0 450.000000 253.000000"
 preserveAspectRatio="xMidYMid meet">
<metadata>
Created by potrace 1.16, written by Peter Selinger 2001-2019
</metadata>
<g transform="translate(0.000000,253.000000) scale(0.100000,-0.100000)"
fill="#000000" stroke="none">
<path d="M0 1265 l0 -1265 2250 0 2250 0 0 1265 0 1265 -2250 0 -2250 0 0
-1265z m2953 706 c18 -5 56 -17 85 -25 89 -26 213 -122 288 -220 46 -62 54
-95 29 -116 -8 -7 -15 -20 -15 -29 0 -27 -48 -65 -143 -116 -72 -38 -88 -43
-85 -28 3 16 75 60 103 63 19 2 58 41 49 49 -17 15 -64 22 -64 10 0 -7 -2 -10
-5 -7 -14 14 8 34 35 32 17 -1 30 3 30 8 0 6 6 5 15 -2 13 -11 14 -10 9 3 -3
8 -12 18 -20 21 -10 4 -12 2 -8 -6 5 -8 2 -9 -10 -5 -11 4 -15 3 -10 -4 4 -7
0 -9 -13 -5 -11 4 -33 0 -48 -8 -16 -8 -33 -12 -39 -9 -8 6 -80 11 -169 13
-10 0 -16 4 -13 8 3 5 -1 9 -8 9 -8 0 -12 -6 -9 -14 4 -9 0 -11 -13 -6 -13 5
-15 3 -9 -7 5 -8 4 -11 -2 -7 -5 3 -31 7 -56 8 -31 2 -46 7 -43 14 2 7 -2 12
-10 12 -7 0 -10 -5 -7 -10 4 -6 1 -7 -8 -2 -7 5 -32 8 -56 6 -44 -3 -52 5 -30
29 10 12 9 12 -5 1 -14 -10 -18 -9 -27 6 -6 10 -11 13 -11 8 0 -6 5 -16 12
-23 9 -9 7 -12 -10 -12 -15 0 -20 5 -16 15 4 8 1 15 -6 15 -6 0 -8 5 -4 12 5
8 2 9 -11 5 -14 -6 -17 -3 -13 18 4 16 0 29 -10 34 -11 6 -13 16 -8 37 4 16 7
39 7 51 -1 12 3 24 8 28 5 3 7 14 4 25 -5 18 -6 19 -29 2 -24 -17 -34 -49 -11
-36 7 4 9 3 4 -2 -5 -5 -13 -10 -18 -10 -5 -1 -12 -2 -15 -3 -4 0 0 -9 7 -18
11 -15 11 -16 -1 -5 -19 17 -35 15 -21 -2 9 -11 9 -16 0 -22 -7 -4 -9 -3 -5 4
3 6 2 13 -4 17 -5 3 -10 1 -10 -4 0 -6 -9 -11 -20 -11 -11 0 -23 -7 -26 -15
-8 -19 -34 -20 -34 -1 0 18 20 34 50 40 41 7 57 16 57 31 0 11 -4 12 -14 4
-10 -9 -13 -8 -13 3 0 8 18 25 41 38 22 14 46 30 52 35 24 20 123 65 162 73
60 13 152 14 188 3z m-738 -61 c3 -5 13 -10 21 -10 8 0 13 4 10 8 -2 4 5 9 17
9 17 2 19 0 7 -7 -11 -7 -8 -10 15 -10 23 0 27 3 15 10 -13 8 -13 10 2 10 9 0
23 -7 31 -15 15 -14 105 -14 129 1 7 4 8 2 4 -4 -4 -7 3 -10 20 -9 15 1 29 -4
32 -12 3 -10 -1 -12 -17 -8 -11 3 -19 1 -16 -3 3 -5 -9 -13 -27 -18 -18 -5
-59 -17 -90 -27 -55 -16 -57 -18 -52 -45 7 -34 -1 -40 -71 -49 -39 -5 -52 -4
-48 4 5 14 -65 60 -84 56 -7 -1 -13 5 -13 14 0 8 -4 15 -10 15 -5 0 -10 -12
-10 -26 0 -23 -2 -24 -15 -10 -9 8 -15 18 -15 22 1 4 -4 10 -12 15 -10 6 -10
11 0 21 9 9 12 9 12 -2 0 -7 3 -10 6 -7 4 4 2 12 -4 19 -6 7 -10 18 -11 23 0
6 -8 12 -18 13 -52 10 -23 20 63 21 54 1 100 4 103 7 7 7 20 5 26 -6z m-245
-35 c10 -12 10 -15 -1 -16 -10 0 -11 -2 -1 -6 6 -2 12 -15 12 -27 0 -19 -5
-23 -25 -21 -14 2 -23 -1 -20 -5 3 -5 1 -11 -4 -14 -20 -13 -28 52 -11 85 13
23 33 25 50 4z m40 -9 c0 -3 -4 -8 -10 -11 -5 -3 -10 -1 -10 4 0 6 5 11 10 11
6 0 10 -2 10 -4z m99 -114 c5 -10 6 -24 1 -31 -6 -11 -11 -9 -19 8 -7 12 -9
26 -6 31 9 14 13 13 24 -8z m-229 -12 c-6 -11 -13 -20 -16 -20 -2 0 0 9 6 20
6 11 13 20 16 20 2 0 0 -9 -6 -20z m115 8 c3 -3 -1 -8 -9 -11 -8 -3 -17 0 -19
8 -5 13 16 15 28 3z m55 -8 c0 -13 -9 -22 -25 -26 -14 -3 -25 -12 -25 -20 0
-16 9 -18 29 -5 18 12 45 -14 37 -34 -7 -20 -56 -19 -85 1 -23 16 -91 21 -112
9 -6 -4 -8 -13 -5 -20 2 -7 -1 -18 -7 -24 -9 -9 -1 -10 33 -5 49 8 51 8 94 6
16 -1 27 -4 24 -7 -5 -5 -66 -16 -99 -18 -10 -1 -14 -8 -11 -19 2 -10 8 -15
13 -12 5 3 9 0 9 -5 0 -6 -6 -11 -12 -11 -9 0 -8 -4 2 -10 11 -7 7 -10 -20
-11 -19 -1 -27 -3 -17 -6 21 -6 22 -26 2 -43 -8 -7 -15 -17 -15 -22 0 -6 7 -8
15 -4 28 10 13 -44 -24 -83 -14 -16 -64 -24 -55 -10 2 4 0 10 -6 14 -23 14 6
245 30 245 6 0 10 11 10 25 0 16 7 28 18 31 9 4 33 13 52 22 19 9 49 16 65 17
39 1 65 14 65 31 0 8 5 14 10 14 6 0 10 -9 10 -20z m1210 -194 c0 -2 -7 -7
-16 -10 -8 -3 -12 -2 -9 4 6 10 25 14 25 6z m-160 -115 c0 -5 -7 -12 -16 -15
-14 -5 -15 -4 -4 9 14 17 20 19 20 6z m-45 -22 c10 -15 -1 -22 -24 -14 -12 3
-19 11 -16 16 8 12 32 11 40 -2z m-335 -24 c18 -10 20 -14 8 -15 -23 0 -48 11
-48 21 0 12 11 11 40 -6z"/>
<path d="M3293 1614 c0 -8 4 -14 9 -14 5 0 6 -6 2 -12 -5 -9 -2 -9 9 1 22 17
21 27 -1 33 -11 3 -19 0 -19 -8z"/>
<path d="M2315 1865 c-38 -8 -45 -13 -29 -17 12 -3 28 -2 35 3 8 4 24 6 36 2
13 -3 23 -1 23 5 0 18 -13 19 -65 7z"/>
<path d="M2325 1840 c-3 -5 1 -10 9 -10 9 0 16 5 16 10 0 6 -4 10 -9 10 -6 0
-13 -4 -16 -10z"/>
</g>
</svg>
