<?xml version="1.0" standalone="no"?>
<!DOCTYPE svg PUBLIC "-//W3C//DTD SVG 20010904//EN"
 "http://www.w3.org/TR/2001/REC-SVG-20010904/DTD/svg10.dtd">
<svg version="1.0" xmlns="http://www.w3.org/2000/svg"
 width="450.000000pt" height="253.000000pt" viewBox="0 0 450.000000 253.000000"
 preserveAspectRatio="xMidYMid meet">
<metadata>
Created by potrace 1.16, written by Peter Selinger 2001-2019
</metadata>
<g transform="translate(0.000000,253.000000) scale(0.100000,-0.100000)"
fill="#000000" stroke="none">
<path d="M0 1265 l0 -1265 2250 0 2250 0 0 1265 0 1265 -2250 0 -2250 0 0
-1265z m3136 786 c22 -1 49 -4 60 -5 10 -2 25 2 33 8 11 8 13 8 8 -1 -5 -8 3
-11 25 -9 18 2 39 -2 47 -8 12 -9 13 -8 6 3 -6 11 -5 12 6 5 8 -4 19 -9 24
-10 6 -1 36 -12 68 -24 46 -17 62 -29 80 -61 12 -21 35 -44 50 -50 16 -7 46
-33 68 -59 28 -33 52 -51 82 -59 53 -16 125 -69 133 -98 3 -13 10 -23 14 -23
8 0 -15 -51 -41 -87 -8 -12 -39 -33 -69 -48 -30 -14 -77 -37 -105 -52 -27 -14
-67 -28 -87 -31 -21 -2 -39 -9 -39 -13 -4 -24 -20 -63 -30 -69 -5 -3 3 -28 16
-55 27 -58 55 -160 55 -202 0 -69 -54 -155 -112 -180 -27 -12 -36 -11 -75 4
-10 3 -22 7 -28 8 -5 1 -12 3 -15 4 -7 3 -41 11 -65 15 -129 20 -175 29 -203
38 -50 15 -147 83 -173 120 -13 18 -29 39 -36 46 -22 23 -14 31 15 16 27 -14
102 -20 89 -7 -4 3 -1 13 6 21 9 13 9 14 0 8 -7 -4 -13 -3 -13 2 0 5 12 14 27
21 21 10 28 10 31 1 3 -9 6 -9 12 -1 9 15 42 3 33 -13 -3 -6 -3 -8 2 -4 4 4
16 3 26 -2 12 -7 20 -7 24 0 3 6 -5 14 -19 20 -14 5 -26 13 -26 16 0 4 3 5 6
1 4 -3 19 0 34 8 15 8 30 11 34 8 3 -3 15 2 26 12 10 9 26 15 35 12 20 -8 19
-1 -5 33 -22 31 -88 76 -97 66 -9 -9 17 -36 35 -36 20 0 7 -13 -18 -17 -10 -1
-22 2 -25 7 -9 15 -25 2 -25 -19 0 -10 -9 -26 -20 -36 -11 -10 -20 -24 -20
-32 0 -8 -5 -11 -10 -8 -6 4 -7 12 -4 18 5 8 3 8 -7 0 -19 -19 -39 -16 -33 5
5 14 4 14 -5 2 -5 -8 -25 -16 -43 -18 -18 -1 -38 -3 -45 -4 -7 -1 -10 -5 -7
-10 7 -10 -48 -10 -104 1 -56 11 -86 41 -127 126 -62 131 -78 190 -67 243 6
26 13 68 16 94 6 50 18 78 50 115 11 13 17 25 15 28 -3 3 -40 -2 -83 -10 -43
-8 -80 -15 -84 -15 -3 0 -3 -2 0 -5 10 -11 -57 -69 -86 -75 -21 -4 -32 -13
-37 -32 -4 -15 -3 -28 2 -30 4 -2 4 -10 -1 -18 -8 -12 -13 -13 -30 -2 -11 6
-25 12 -30 12 -6 0 -8 -6 -5 -12 4 -7 -4 -1 -18 14 -18 19 -28 23 -36 15 -14
-14 -14 -2 -1 24 14 26 30 24 30 -4 0 -16 6 -23 20 -23 18 0 18 2 5 23 -9 13
-12 23 -7 23 13 0 8 42 -8 68 -8 12 -20 22 -26 22 -7 0 -15 7 -18 16 -9 25 47
71 97 79 46 8 258 9 295 1 17 -4 22 0 22 14 0 22 58 82 71 74 5 -3 9 -1 9 4 0
5 6 9 13 9 31 1 71 13 77 23 4 7 11 12 16 13 5 1 8 6 6 10 -1 5 2 6 8 2 6 -3
8 -11 5 -16 -4 -5 6 -9 20 -9 14 0 24 4 20 9 -3 5 -1 13 5 16 6 4 9 1 8 -6 -2
-7 5 -15 16 -17 13 -3 16 0 11 10 -6 10 -5 10 5 1 8 -7 21 -8 34 -3 27 10 28
10 82 10 33 0 43 3 38 13 -6 9 -4 9 7 1 8 -6 32 -12 55 -13z m-906 -431 c0 -7
6 -7 18 -1 11 6 24 6 35 0 20 -11 23 -31 5 -28 -32 4 -38 -1 -27 -19 8 -13 20
-17 40 -14 16 2 29 0 29 -6 0 -13 -65 -25 -90 -17 -14 4 -20 2 -20 -9 0 -10 6
-13 18 -9 16 6 16 5 1 -13 -18 -21 -32 -54 -23 -54 3 0 15 10 25 23 l20 22
-16 -39 c-18 -45 -18 -49 -5 -41 6 4 5 -4 -1 -19 -7 -14 -16 -23 -20 -20 -5 3
-14 -6 -21 -20 -6 -14 -14 -26 -18 -26 -8 0 -3 86 6 110 12 30 31 132 30 160
-1 17 2 30 7 30 4 0 7 -5 7 -10z m-53 -432 c-3 -7 -5 -2 -5 12 0 14 2 19 5 13
2 -7 2 -19 0 -25z m104 -604 c-1 -76 -4 -140 -6 -143 -3 -2 -5 62 -5 144 0 82
3 146 6 142 3 -3 5 -68 5 -143z m-4 -176 c-3 -8 -6 -5 -6 6 -1 11 2 17 5 13 3
-3 4 -12 1 -19z"/>
<path d="M3428 1913 c6 -2 18 -2 25 0 6 3 1 5 -13 5 -14 0 -19 -2 -12 -5z"/>
<path d="M3080 1895 c0 -16 33 -37 53 -33 22 4 57 -13 57 -28 0 -8 3 -13 8
-10 4 2 30 -7 57 -20 64 -32 85 -36 85 -19 0 16 -17 28 -42 32 -27 4 -88 39
-81 47 3 3 -5 6 -18 6 -17 0 -20 3 -11 9 18 11 -8 22 -65 27 -33 3 -43 0 -43
-11z"/>
<path d="M3230 1880 c0 -8 10 -22 23 -30 23 -15 54 -23 42 -12 -4 4 -12 7 -18
7 -7 1 -11 7 -9 14 1 7 -2 10 -7 7 -5 -4 -14 2 -20 11 -8 14 -10 15 -11 3z"/>
<path d="M3395 1859 c-4 -6 -5 -12 -2 -15 2 -3 7 2 10 11 7 17 1 20 -8 4z"/>
<path d="M3470 1829 c0 -5 -4 -7 -10 -4 -14 9 -12 -1 3 -13 10 -8 13 -6 14 9
1 10 0 19 -3 19 -2 0 -4 -5 -4 -11z"/>
<path d="M3196 1792 c-8 -7 27 -31 36 -26 5 3 8 9 8 13 0 10 -37 21 -44 13z"/>
<path d="M2295 1747 c0 -23 6 -42 13 -45 7 -2 12 5 12 17 0 12 5 21 10 21 17
0 11 14 -13 31 -22 16 -22 16 -22 -24z"/>
<path d="M3106 1775 c-21 -9 -25 -14 -15 -20 8 -5 14 -4 17 3 2 7 9 9 15 5 14
-8 75 -8 82 0 3 4 2 5 -1 3 -3 -2 -20 1 -37 9 -26 10 -38 10 -61 0z"/>
<path d="M3195 1734 c-13 -10 -32 -14 -53 -10 -29 4 -31 3 -22 -14 13 -25 21
-29 65 -35 21 -2 49 -12 64 -21 l26 -17 -19 21 c-10 12 -19 35 -18 51 0 23 -3
29 -15 24 -11 -4 -14 -2 -9 5 9 16 5 15 -19 -4z"/>
<path d="M3321 1715 c-31 -17 -46 -44 -33 -57 7 -7 19 -4 39 11 18 15 29 18
31 11 3 -7 1 -15 -4 -19 -59 -43 -68 -126 -11 -96 19 10 26 10 21 2 -5 -9 -4
-9 6 0 11 10 11 15 -1 29 -8 10 -9 15 -2 11 7 -5 12 -1 12 10 0 35 6 58 20 72
11 12 10 17 -5 28 -22 16 -41 15 -73 -2z"/>
<path d="M3006 1651 c-10 -11 -15 -25 -11 -31 5 -8 -2 -10 -24 -7 -33 6 -44
-3 -35 -26 9 -25 73 -29 105 -7 15 11 35 20 46 20 10 0 24 4 32 9 10 6 3 12
-25 21 -22 7 -43 19 -47 26 -11 19 -21 18 -41 -5z"/>
<path d="M3140 1640 c0 -5 7 -10 16 -10 8 0 12 5 9 10 -3 6 -10 10 -16 10 -5
0 -9 -4 -9 -10z"/>
<path d="M3092 1578 c-13 -13 -16 -29 -4 -26 4 1 17 -3 29 -10 22 -12 56 -12
61 1 5 17 1 19 -15 6 -10 -8 -14 -9 -10 -2 4 7 -2 18 -15 27 -27 19 -31 19
-46 4z"/>
<path d="M3255 1576 c-11 -8 -14 -15 -8 -19 6 -4 16 0 23 8 17 21 8 28 -15 11z"/>
<path d="M2970 1531 c0 -5 9 -7 20 -4 11 3 20 0 20 -6 0 -6 6 -11 14 -11 34 0
25 -43 -18 -82 -18 -17 -18 -18 -1 -18 10 0 29 10 42 22 22 21 24 21 37 3 13
-19 56 -29 56 -13 0 4 7 8 15 8 8 0 15 5 15 11 0 5 4 7 10 4 6 -4 7 1 3 11 -4
12 -3 15 6 10 7 -5 10 -2 9 6 -2 7 2 12 7 11 6 -1 12 8 12 19 2 20 1 20 -13 2
-15 -18 -15 -18 -10 -1 4 11 2 16 -5 12 -6 -4 -8 -13 -5 -21 3 -7 1 -16 -4
-19 -6 -4 -10 1 -10 10 0 22 -24 29 -51 15 -19 -11 -24 -10 -35 5 -7 9 -17 14
-23 10 -6 -3 -21 1 -33 9 -25 17 -58 21 -58 7z m192 -49 c3 -10 0 -19 -6 -20
-6 0 -24 -3 -39 -7 -25 -5 -27 -4 -18 14 18 33 56 41 63 13z"/>
<path d="M2955 1420 c-3 -5 -1 -10 4 -10 6 0 11 5 11 10 0 6 -2 10 -4 10 -3 0
-8 -4 -11 -10z"/>
<path d="M3250 1259 c0 -5 5 -7 10 -4 6 3 10 8 10 11 0 2 -4 4 -10 4 -5 0 -10
-5 -10 -11z"/>
<path d="M2986 1151 c14 -13 68 -28 82 -24 21 8 13 19 -15 21 -16 1 -39 4 -52
7 -14 2 -20 1 -15 -4z"/>
</g>
</svg>
