<?xml version="1.0" standalone="no"?>
<!DOCTYPE svg PUBLIC "-//W3C//DTD SVG 20010904//EN"
 "http://www.w3.org/TR/2001/REC-SVG-20010904/DTD/svg10.dtd">
<svg version="1.0" xmlns="http://www.w3.org/2000/svg"
 width="450.000000pt" height="253.000000pt" viewBox="0 0 450.000000 253.000000"
 preserveAspectRatio="xMidYMid meet">
<metadata>
Created by potrace 1.16, written by Peter Selinger 2001-2019
</metadata>
<g transform="translate(0.000000,253.000000) scale(0.100000,-0.100000)"
fill="#000000" stroke="none">
<path d="M0 1265 l0 -1265 2250 0 2250 0 0 1265 0 1265 -2250 0 -2250 0 0
-1265z m2613 1108 c24 -12 31 -12 45 -1 9 7 13 8 9 2 -9 -16 22 -27 39 -13 7
6 31 9 53 8 22 -2 43 0 47 4 4 4 13 2 20 -4 23 -19 71 -28 84 -16 10 9 11 9 6
0 -4 -8 8 -22 32 -37 21 -13 58 -44 82 -67 25 -24 48 -43 52 -42 4 2 5 -3 2
-11 -3 -8 5 -23 17 -35 13 -12 19 -21 15 -21 -4 0 0 -8 10 -17 10 -10 19 -17
22 -15 2 2 10 -5 17 -15 7 -10 17 -15 20 -11 4 4 20 1 35 -7 15 -8 48 -19 74
-26 44 -11 49 -10 72 12 23 21 35 24 108 24 73 0 90 -4 143 -32 34 -17 64 -29
67 -26 3 4 6 1 6 -5 0 -7 4 -12 9 -12 5 0 32 -10 59 -22 44 -19 88 -63 86 -85
0 -5 9 -16 20 -25 12 -10 16 -17 9 -18 -8 0 -13 -15 -13 -41 0 -55 -10 -71
-109 -172 -103 -106 -151 -140 -216 -156 -62 -14 -125 -41 -125 -53 0 -4 4 -8
9 -8 4 0 23 -30 41 -67 57 -116 52 -290 -10 -350 -58 -55 -81 -73 -94 -73 -8
0 -19 -6 -25 -14 -18 -22 -205 -35 -283 -21 -139 27 -223 53 -267 84 l-28 20
-22 -30 c-12 -16 -26 -27 -30 -24 -12 7 -63 -43 -56 -55 9 -15 -20 -63 -73
-118 -27 -28 -47 -53 -43 -55 3 -2 1 -2 -6 -1 -6 2 -42 -10 -80 -26 -49 -21
-90 -30 -141 -33 -40 -2 -72 0 -72 4 0 4 -13 12 -29 19 -45 18 -68 49 -108
146 -30 72 -37 101 -36 154 0 39 6 76 14 90 8 14 15 37 14 53 l0 27 -122 5
c-211 10 -367 66 -456 165 -45 50 -46 51 -41 111 2 33 11 75 18 92 16 39 130
156 171 177 17 8 32 18 35 21 3 3 21 14 40 24 19 9 42 23 50 30 8 8 18 14 23
14 14 2 7 12 -38 51 -75 65 -96 92 -127 160 -16 36 -33 72 -36 80 -19 40 1
147 29 155 11 4 19 11 19 16 0 6 5 7 10 4 6 -3 10 -2 10 2 0 5 11 10 26 11 14
1 35 7 47 13 50 27 265 23 392 -8 34 -8 175 -10 170 -3 -6 10 84 84 120 98 62
23 136 22 188 -5z"/>
<path d="M2706 1962 c-3 -5 1 -9 9 -9 8 0 12 4 9 9 -3 4 -7 8 -9 8 -2 0 -6 -4
-9 -8z"/>
<path d="M2700 1931 c0 -7 4 -9 10 -6 6 4 7 -2 1 -17 -5 -13 -5 -33 0 -45 4
-12 6 -31 4 -42 -2 -12 1 -21 6 -21 6 0 7 -5 4 -10 -4 -6 -10 -8 -15 -5 -11 7
-20 -19 -13 -44 3 -12 1 -21 -5 -21 -14 0 -22 -38 -15 -73 4 -17 17 -36 34
-46 20 -13 25 -21 18 -28 -8 -8 -5 -13 10 -18 16 -5 20 -12 15 -31 -4 -16 -2
-24 7 -24 8 0 24 -3 37 -6 13 -4 22 -3 21 2 -7 29 24 66 71 86 43 18 50 25 50
48 0 15 7 33 15 40 13 11 15 34 6 68 -1 4 -61 -38 -79 -55 -7 -6 -11 -18 -10
-24 4 -19 -63 -49 -84 -38 -10 6 -18 16 -18 24 0 7 -9 17 -20 20 -11 3 -20 10
-20 15 0 5 -2 14 -5 22 -3 8 7 18 27 27 l33 13 -29 12 c-25 12 -26 14 -9 18
25 7 35 51 17 77 -15 20 -8 31 29 44 24 9 14 23 -20 30 -16 3 -38 8 -50 12
-15 5 -23 3 -23 -4z"/>
<path d="M2870 1884 c0 -15 38 -39 48 -29 10 9 -12 38 -31 41 -9 1 -17 -4 -17
-12z"/>
<path d="M2955 1891 c-6 -11 4 -18 23 -15 6 1 18 2 25 3 6 2 3 6 -8 11 -27 12
-33 12 -40 1z"/>
<path d="M2792 1855 c-16 -19 -11 -19 24 0 23 12 25 15 9 15 -11 -1 -26 -7
-33 -15z"/>
<path d="M2568 1817 c-7 -8 -20 -12 -30 -9 -21 5 -44 -11 -50 -36 -8 -28 49
-29 75 -2 10 12 16 24 13 27 -3 3 -1 12 5 20 15 17 4 17 -13 0z"/>
<path d="M2877 1804 c10 -7 26 -14 36 -14 10 0 16 -4 13 -8 -2 -4 4 -8 14 -8
17 0 17 2 -3 22 -12 12 -34 22 -50 22 -25 0 -26 -2 -10 -14z"/>
<path d="M2867 1780 c3 -11 12 -20 19 -20 20 0 17 18 -5 29 -16 9 -18 8 -14
-9z"/>
<path d="M2818 1774 c-13 -13 6 -43 33 -53 25 -9 29 -7 29 8 0 29 -45 62 -62
45z"/>
<path d="M2400 1747 c0 -2 9 -14 20 -27 11 -13 20 -34 20 -47 0 -13 5 -22 13
-20 6 1 11 -6 11 -15 -2 -25 21 -22 46 4 20 22 28 44 12 34 -16 -9 -54 25 -49
44 3 14 -3 19 -25 24 -35 7 -48 8 -48 3z"/>
<path d="M1730 1736 c0 -9 30 -14 35 -6 4 6 -3 10 -14 10 -12 0 -21 -2 -21 -4z"/>
<path d="M1662 1676 c-16 -19 -39 -37 -51 -41 -13 -4 -32 -30 -51 -70 -17 -35
-30 -67 -30 -71 0 -3 -9 -17 -19 -31 -23 -29 -17 -54 11 -50 24 4 107 68 108
83 0 6 7 17 16 25 14 12 13 14 -7 21 -21 8 -21 9 -4 28 10 11 15 26 12 34 -7
18 43 60 91 77 44 15 40 29 -7 29 -32 0 -44 -6 -69 -34z"/>
<path d="M2550 1596 c0 -7 7 -19 15 -26 8 -7 15 -18 15 -25 0 -7 10 -20 23
-29 15 -12 18 -18 10 -22 -7 -3 -13 -12 -13 -20 0 -24 93 -19 116 7 18 20 18
22 1 34 -20 14 -22 45 -4 64 7 8 7 11 1 8 -7 -4 -17 -1 -23 7 -11 13 -74 16
-87 4 -3 -4 -17 -3 -30 2 -18 7 -24 6 -24 -4z"/>
<path d="M2476 1573 c-9 -22 24 -50 35 -31 8 13 -7 48 -20 48 -5 0 -12 -8 -15
-17z"/>
<path d="M2118 1519 c-7 -5 -11 -9 -8 -10 37 -8 70 -8 70 -1 0 13 -46 21 -62
11z"/>
<path d="M2380 1492 c0 -5 7 -9 15 -9 8 0 15 4 15 9 0 4 -7 8 -15 8 -8 0 -15
-4 -15 -8z"/>
<path d="M2375 1453 c-27 -9 -56 -17 -62 -19 -7 -2 -13 -13 -13 -25 l0 -22 23
20 c16 14 32 19 57 16 53 -6 63 -11 57 -32 -2 -11 4 -32 14 -48 24 -36 24 -80
-1 -118 -24 -36 -25 -45 -5 -45 8 0 15 7 15 15 0 14 11 19 38 16 7 -1 12 9 12
24 0 14 4 25 9 25 4 0 21 12 37 28 20 18 40 27 64 28 19 0 53 3 75 7 22 3 41
6 43 7 1 0 -2 8 -7 19 -6 10 -7 21 -4 25 3 3 1 6 -6 6 -7 0 -9 5 -6 10 9 15
-2 12 -20 -6 -12 -13 -13 -19 -4 -30 17 -21 6 -27 -25 -13 -20 9 -25 18 -21
36 2 14 9 31 15 38 8 10 2 14 -27 18 -55 9 -83 -1 -83 -28 0 -22 -2 -23 -37
-13 -52 14 -64 26 -57 54 7 29 -6 30 -81 7z m155 -93 c8 -5 11 -10 5 -10 -5 0
-17 5 -25 10 -8 5 -10 10 -5 10 6 0 17 -5 25 -10z"/>
<path d="M2198 1455 c-3 -4 -16 -7 -58 -14 -3 -1 1 -5 9 -10 12 -8 12 -13 -1
-33 -22 -33 -1 -54 25 -24 13 15 29 20 59 20 25 -1 35 2 27 7 -11 6 -11 11 -1
21 14 14 16 32 2 23 -5 -3 -10 -2 -10 2 0 9 -44 16 -52 8z"/>
<path d="M2705 1430 c-3 -5 -1 -10 4 -10 6 0 11 5 11 10 0 6 -2 10 -4 10 -3 0
-8 -4 -11 -10z"/>
<path d="M2802 1418 c-13 -17 -32 -88 -23 -88 15 0 61 25 61 34 0 4 10 1 23
-7 26 -17 49 -9 53 17 2 15 -12 22 -56 31 -12 2 -28 9 -35 15 -9 7 -15 7 -23
-2z"/>
<path d="M2345 1350 c7 -12 45 -14 45 -2 0 4 -11 9 -26 10 -14 1 -23 -2 -19
-8z"/>
<path d="M2803 1263 c-22 -8 -14 -23 12 -21 14 1 24 7 22 12 -4 12 -18 16 -34
9z"/>
<path d="M3387 1153 c6 -16 5 -17 -12 -3 -16 13 -18 13 -13 0 2 -8 14 -15 25
-16 15 -1 19 4 16 17 -3 11 -9 19 -14 19 -5 0 -5 -8 -2 -17z"/>
<path d="M3333 1123 c-10 -34 -3 -83 13 -83 3 0 3 8 0 17 -6 16 -6 16 12 0 18
-17 20 -17 33 0 13 16 12 17 -3 4 -10 -7 -18 -12 -19 -10 -5 22 -3 56 3 53 3
-2 9 0 13 6 6 9 -8 14 -28 11 -5 -1 -6 2 -3 7 2 4 1 13 -2 19 -5 7 -12 -3 -19
-24z"/>
</g>
</svg>
