<?xml version="1.0" standalone="no"?>
<!DOCTYPE svg PUBLIC "-//W3C//DTD SVG 20010904//EN"
 "http://www.w3.org/TR/2001/REC-SVG-20010904/DTD/svg10.dtd">
<svg version="1.0" xmlns="http://www.w3.org/2000/svg"
 width="450.000000pt" height="253.000000pt" viewBox="0 0 450.000000 253.000000"
 preserveAspectRatio="xMidYMid meet">
<metadata>
Created by potrace 1.16, written by Peter Selinger 2001-2019
</metadata>
<g transform="translate(0.000000,253.000000) scale(0.100000,-0.100000)"
fill="#000000" stroke="none">
<path d="M0 1265 l0 -1265 2250 0 2250 0 0 1265 0 1265 -792 0 c-775 0 -792
-1 -763 -18 109 -67 171 -216 177 -420 1 -29 4 -31 63 -47 l61 -17 39 26 c74
51 184 33 365 -60 81 -42 108 -64 121 -103 6 -17 14 -31 18 -31 14 0 -1 -125
-19 -155 -31 -50 -202 -209 -250 -232 -25 -12 -73 -30 -107 -40 -35 -10 -63
-20 -63 -23 0 -3 13 -18 30 -33 45 -42 86 -140 105 -249 20 -116 15 -164 -21
-180 -13 -6 -24 -17 -24 -25 0 -7 -6 -13 -14 -13 -8 0 -22 -7 -30 -16 -21 -20
-184 -54 -261 -54 -140 1 -316 39 -413 90 -54 28 -68 18 -76 -54 -3 -26 -8
-51 -12 -55 -4 -3 -4 20 0 52 l6 59 -49 -54 c-28 -29 -53 -66 -57 -83 -11 -49
-118 -149 -198 -186 -82 -38 -137 -46 -204 -29 -85 20 -122 61 -171 190 -41
108 -42 113 -39 210 3 90 1 100 -14 100 -23 0 -23 26 -2 38 12 7 -1 12 -52 21
-190 34 -346 113 -389 197 -11 22 -23 41 -27 42 -5 2 -8 13 -8 25 0 12 -6 40
-14 61 -31 90 35 184 206 297 21 13 38 26 38 30 0 3 -28 35 -62 71 -35 36 -72
78 -83 94 -59 85 -90 228 -66 302 23 68 127 97 316 90 93 -4 132 -10 175 -28
43 -17 79 -23 166 -25 l110 -3 24 35 c33 48 145 137 217 173 l58 29 -1257 0
-1258 1 0 -1265z m2637 -477 c-3 -8 -6 -5 -6 6 -1 11 2 17 5 13 3 -3 4 -12 1
-19z"/>
<path d="M2830 1816 c0 -2 7 -7 16 -10 8 -3 12 -2 9 4 -6 10 -25 14 -25 6z"/>
<path d="M2424 1762 c-27 -17 -47 -112 -24 -112 6 0 16 -13 21 -30 7 -20 22
-33 45 -42 34 -12 55 -38 30 -38 -8 0 -13 -15 -14 -45 l0 -44 49 2 c27 1 49 5
49 9 0 4 9 8 20 8 11 0 20 5 20 10 0 6 -4 10 -10 10 -14 0 -13 47 1 56 15 9
-9 24 -39 24 -40 0 -96 44 -150 118 l-23 32 26 0 c26 0 28 4 17 32 -4 10 -12
14 -18 10z"/>
<path d="M2200 1660 c0 -5 5 -10 11 -10 5 0 7 5 4 10 -3 6 -8 10 -11 10 -2 0
-4 -4 -4 -10z"/>
<path d="M2710 1654 c0 -8 -4 -13 -9 -10 -12 8 -51 -28 -51 -48 0 -17 17 -21
36 -8 9 6 44 68 44 79 0 1 -4 3 -10 3 -5 0 -10 -7 -10 -16z"/>
<path d="M1757 1644 c-15 -8 -32 -12 -37 -9 -5 3 -7 -1 -4 -9 8 -21 53 -48 69
-42 8 3 17 0 21 -6 5 -7 2 -8 -6 -3 -8 5 -11 4 -6 -3 9 -15 33 -5 33 13 0 8
-5 11 -11 8 -6 -4 -5 0 2 9 10 13 10 17 -3 22 -8 3 -14 11 -13 17 4 18 -15 19
-45 3z"/>
<path d="M1708 1583 c6 -2 18 -2 25 0 6 3 1 5 -13 5 -14 0 -19 -2 -12 -5z"/>
<path d="M2394 1555 c4 -10 -5 -22 -27 -35 l-32 -20 32 0 c32 0 83 18 83 29 0
3 -14 14 -31 24 -27 15 -30 15 -25 2z"/>
<path d="M1503 1542 c-8 -14 -8 -19 1 -19 7 0 13 9 13 19 1 10 1 18 0 18 -1 0
-7 -8 -14 -18z"/>
<path d="M1775 1540 c-9 -15 3 -29 25 -27 20 1 29 17 9 17 -5 0 -7 5 -4 10 3
6 -1 10 -9 10 -8 0 -18 -4 -21 -10z"/>
<path d="M2146 1429 c-14 -11 -30 -18 -36 -14 -5 3 -17 2 -26 -3 -11 -6 -5 -9
24 -10 30 -1 44 4 62 23 28 30 13 33 -24 4z"/>
<path d="M2346 1429 c-14 -11 -26 -25 -26 -30 0 -15 50 -10 56 6 4 8 12 15 20
15 19 0 18 16 -2 24 -21 8 -18 9 -48 -15z"/>
<path d="M1916 1421 c9 -9 34 -9 34 -1 0 5 -9 8 -20 7 -10 -1 -17 -3 -14 -6z"/>
<path d="M2314 1309 c-8 -17 -11 -28 -5 -25 6 4 11 2 11 -3 0 -15 67 -14 73 2
2 6 1 22 -4 35 -13 34 -55 30 -75 -9z"/>
<path d="M2640 1320 c0 -5 5 -10 11 -10 5 0 7 5 4 10 -3 6 -8 10 -11 10 -2 0
-4 -4 -4 -10z"/>
<path d="M2440 1274 c0 -8 5 -12 10 -9 6 3 10 10 10 16 0 5 -4 9 -10 9 -5 0
-10 -7 -10 -16z"/>
<path d="M2256 1261 c-3 -5 2 -15 11 -22 12 -10 14 -10 9 -1 -4 7 -2 12 4 12
6 0 8 5 5 10 -8 12 -22 13 -29 1z"/>
<path d="M2229 1179 c-23 -19 -23 -20 -2 -10 12 6 25 16 28 21 10 16 -1 12
-26 -11z"/>
<path d="M3304 1183 c-4 -10 -7 -21 -6 -25 1 -3 -5 -11 -12 -17 -11 -9 -11
-17 -2 -36 6 -14 16 -23 23 -20 7 2 15 -1 19 -7 4 -7 3 -8 -4 -4 -8 5 -10 2
-6 -9 5 -11 10 -13 19 -5 10 8 13 6 11 -7 0 -9 7 -19 17 -21 14 -3 17 2 15 27
-1 16 -6 27 -10 25 -7 -5 -12 18 -9 39 0 4 -3 7 -9 7 -5 0 -10 16 -10 35 0 38
-22 49 -36 18z"/>
<path d="M2600 1171 c-7 -15 -7 -19 5 -17 8 1 18 6 22 11 4 4 2 5 -4 1 -7 -4
-13 -3 -13 3 0 5 6 12 13 14 9 4 9 6 0 6 -7 1 -17 -8 -23 -18z"/>
<path d="M2478 1159 c-23 -17 -26 -24 -18 -40 8 -15 17 -18 38 -12 15 3 32 6
39 6 13 0 7 12 -5 12 -21 1 -31 17 -22 36 14 24 2 24 -32 -2z"/>
<path d="M2716 1157 c3 -10 9 -15 12 -12 3 3 0 11 -7 18 -10 9 -11 8 -5 -6z"/>
<path d="M2221 1049 l-23 -19 25 0 c29 0 39 10 29 27 -5 8 -15 5 -31 -8z"/>
</g>
</svg>
