<?xml version="1.0" standalone="no"?>
<!DOCTYPE svg PUBLIC "-//W3C//DTD SVG 20010904//EN"
 "http://www.w3.org/TR/2001/REC-SVG-20010904/DTD/svg10.dtd">
<svg version="1.0" xmlns="http://www.w3.org/2000/svg"
 width="450.000000pt" height="253.000000pt" viewBox="0 0 450.000000 253.000000"
 preserveAspectRatio="xMidYMid meet">
<metadata>
Created by potrace 1.16, written by Peter Selinger 2001-2019
</metadata>
<g transform="translate(0.000000,253.000000) scale(0.100000,-0.100000)"
fill="#000000" stroke="none">
<path d="M0 1265 l0 -1265 2250 0 2250 0 0 1265 0 1265 -2250 0 -2250 0 0
-1265z m2949 666 c35 -11 89 -37 121 -56 71 -43 191 -160 209 -203 17 -42 5
-89 -29 -111 -22 -14 -24 -14 -13 0 7 9 10 19 6 22 -3 4 1 7 11 7 12 0 16 7
14 23 -2 12 -5 20 -8 18 -3 -2 -15 1 -27 7 -15 8 -24 9 -28 2 -5 -8 -12 -7
-22 2 -12 10 -18 9 -29 -7 -8 -10 -14 -13 -14 -6 0 7 -5 9 -10 6 -6 -4 -32 -8
-58 -10 -26 -2 -49 -4 -52 -5 -3 -1 -34 -1 -68 -1 -50 0 -67 4 -78 18 -7 10
-14 14 -14 9 0 -5 -8 -2 -17 5 -9 8 -14 9 -11 4 4 -6 -2 -16 -12 -23 -22 -14
-28 -7 -25 30 1 20 -1 25 -9 18 -10 -8 -28 -7 -96 5 -8 1 -21 -3 -29 -9 -11
-8 -13 -8 -8 0 6 10 -8 22 -35 29 -5 2 -9 3 -10 5 -2 1 -11 3 -22 5 -30 6 -39
20 -27 44 6 11 9 32 5 46 -4 16 -2 25 6 25 6 0 3 11 -9 26 -12 15 -21 30 -21
35 0 12 71 47 117 59 63 15 220 5 292 -19z m-805 -32 c-3 -5 -18 -7 -34 -5
-21 2 -27 0 -23 -11 3 -8 12 -12 20 -9 8 3 18 6 23 6 5 0 16 7 24 16 15 14 16
14 16 -1 0 -15 1 -15 16 -1 19 19 28 21 18 4 -6 -10 -4 -10 7 0 7 6 17 12 22
12 4 0 5 -6 1 -12 -6 -10 -4 -10 8 0 16 13 48 7 48 -10 0 -5 6 -6 13 -2 8 5 9
4 2 -4 -8 -9 -37 -14 -108 -21 -5 -1 -5 -6 -2 -12 4 -6 13 -8 21 -5 7 3 16 1
20 -5 3 -6 12 -8 20 -5 8 3 14 2 15 -2 0 -4 2 -14 5 -22 17 -65 17 -67 -13
-73 -15 -3 -33 -1 -39 4 -6 5 -19 2 -32 -7 -20 -14 -22 -14 -22 5 0 15 -4 19
-17 14 -12 -5 -14 -3 -8 8 4 8 5 11 0 7 -4 -4 -20 -1 -34 6 -14 8 -34 17 -43
20 -25 8 -22 24 5 30 12 2 4 4 -19 3 -37 -2 -40 0 -38 21 2 20 0 21 -14 10
-13 -11 -14 -11 -8 1 10 16 -9 30 -44 32 -20 1 -18 3 10 9 47 10 191 9 184 -1z
m301 -19 c3 -5 2 -10 -4 -10 -5 0 -13 5 -16 10 -3 6 -2 10 4 10 5 0 13 -4 16
-10z m-540 -13 c6 0 11 -7 11 -16 1 -9 4 -24 9 -33 6 -15 2 -18 -18 -18 -14 0
-31 8 -36 18 -6 9 -11 13 -11 7 0 -5 -4 -3 -9 4 -14 22 6 54 27 46 9 -4 22 -8
27 -8z m490 3 c-12 -5 -15 -9 -5 -9 23 -1 -3 -22 -33 -25 -14 -1 -36 -10 -50
-19 -23 -15 -25 -15 -22 1 1 9 9 16 18 14 8 -1 18 2 22 7 3 6 13 7 22 4 12 -5
14 -3 8 7 -5 9 -4 11 3 6 7 -4 12 -3 12 3 0 5 -6 12 -12 14 -7 3 3 5 22 6 28
0 31 -2 15 -9z m110 0 c-3 -6 1 -13 9 -16 9 -3 16 -10 16 -16 0 -5 -4 -6 -10
-3 -6 3 -7 -1 -4 -9 3 -9 10 -14 14 -11 5 3 7 -3 5 -12 -2 -10 -4 -25 -5 -33
-1 -10 -3 -11 -7 -2 -2 6 -9 12 -14 12 -6 0 -8 -4 -5 -9 4 -5 3 -17 0 -26 -6
-14 -8 -14 -27 2 -12 11 -17 12 -12 4 6 -11 4 -13 -8 -8 -9 3 -23 0 -31 -8
-13 -13 -15 -12 -22 7 -5 16 -1 26 15 39 11 9 21 21 21 26 0 9 58 73 66 73 3
0 2 -5 -1 -10z m-705 -140 c-24 -16 -31 -11 -19 11 8 16 14 18 22 10 9 -9 8
-14 -3 -21z m245 20 c3 -5 1 -10 -4 -10 -6 0 -11 5 -11 10 0 6 2 10 4 10 3 0
8 -4 11 -10z m-122 -51 c14 0 15 -3 5 -22 -9 -19 -9 -20 3 -11 20 16 68 23 75
12 8 -12 -23 -44 -33 -35 -3 4 2 14 13 23 14 12 12 11 -12 -2 -26 -14 -37 -15
-64 -5 -62 21 -131 11 -136 -21 -5 -31 -10 -43 -19 -50 -6 -4 -2 -8 8 -8 9 0
17 7 17 15 0 9 10 15 23 16 12 0 36 3 52 5 23 3 26 2 15 -6 -8 -5 -22 -10 -31
-10 -19 0 -33 -26 -19 -35 15 -9 0 -35 -20 -35 -11 0 -22 -5 -26 -12 -4 -6 -3
-8 4 -5 5 4 17 4 26 1 13 -5 12 -11 -10 -40 -25 -32 -22 -48 4 -22 24 24 13
-50 -12 -79 l-24 -28 -22 20 c-12 11 -25 18 -28 15 -9 -7 -21 64 -21 120 1 53
22 116 38 113 6 -2 11 7 11 20 0 13 7 32 15 43 12 15 16 16 24 5 6 -10 13 -11
30 -2 11 7 21 9 21 6 0 -4 7 1 16 10 11 11 25 14 38 10 12 -4 29 -7 39 -6z
m781 -27 c3 -5 -1 -9 -9 -9 -8 0 -12 4 -9 9 3 4 7 8 9 8 2 0 6 -4 9 -8z m70
-20 c3 -5 -1 -9 -9 -9 -8 0 -12 4 -9 9 3 4 7 8 9 8 2 0 6 -4 9 -8z m436 -107
c0 -2 -9 -9 -19 -15 -14 -7 -22 -7 -27 2 -4 6 -3 8 2 5 6 -3 16 -2 24 4 17 10
20 11 20 4z m-100 -56 c-21 -13 -83 -29 -89 -23 -9 9 23 24 42 20 9 -2 17 0
17 4 0 9 32 19 40 13 2 -2 -2 -8 -10 -14z m-125 -49 c-3 -5 -14 -10 -23 -10
-15 0 -15 2 -2 10 20 13 33 13 25 0z"/>
<path d="M2803 1645 c0 -8 4 -12 9 -9 4 3 8 9 8 15 0 5 -4 9 -8 9 -5 0 -9 -7
-9 -15z"/>
</g>
</svg>
