<?xml version="1.0" standalone="no"?>
<!DOCTYPE svg PUBLIC "-//W3C//DTD SVG 20010904//EN"
 "http://www.w3.org/TR/2001/REC-SVG-20010904/DTD/svg10.dtd">
<svg version="1.0" xmlns="http://www.w3.org/2000/svg"
 width="450.000000pt" height="253.000000pt" viewBox="0 0 450.000000 253.000000"
 preserveAspectRatio="xMidYMid meet">
<metadata>
Created by potrace 1.16, written by Peter Selinger 2001-2019
</metadata>
<g transform="translate(0.000000,253.000000) scale(0.100000,-0.100000)"
fill="#000000" stroke="none">
<path d="M0 1265 l0 -1265 1170 0 1170 0 1 235 c0 129 1 245 1 258 0 12 -1 63
-2 112 -3 119 -2 122 14 122 16 0 16 -47 0 -519 l-6 -208 1076 0 1076 0 0
1265 0 1265 -2250 0 -2250 0 0 -1265z m3296 1143 c48 -35 103 -109 105 -142 2
-41 -3 -62 -25 -91 -13 -16 -26 -48 -30 -69 -4 -21 -14 -49 -22 -62 -15 -22
-14 -23 28 -34 24 -7 55 -18 70 -26 24 -13 31 -12 63 7 26 16 46 20 78 16 58
-7 73 -14 141 -64 32 -24 68 -43 80 -43 28 0 88 -45 109 -82 12 -22 13 -34 5
-60 -21 -63 -33 -82 -73 -109 -22 -16 -68 -49 -101 -74 -76 -56 -134 -85 -173
-85 -46 0 -85 -18 -73 -33 20 -24 21 -68 2 -101 -10 -19 -15 -38 -11 -42 16
-18 41 -132 41 -185 0 -77 -17 -128 -55 -166 -18 -18 -30 -35 -27 -37 3 -3 -4
-8 -14 -12 -10 -3 -29 -11 -42 -17 -19 -9 -42 -7 -110 11 -130 33 -232 54
-282 57 -100 7 -109 12 -259 140 -55 47 -104 81 -119 82 -25 3 -72 47 -72 67
0 5 -21 52 -47 105 l-47 96 0 127 c-1 69 -5 130 -9 134 -9 10 -77 16 -77 8 0
-3 9 -17 20 -31 11 -14 20 -31 20 -38 0 -15 -28 -14 -38 1 -4 5 -13 9 -19 10
-26 2 -29 4 -30 27 l-1 22 10 -22 c19 -39 29 -25 23 29 -6 52 -20 82 -34 73
-4 -2 -7 4 -5 13 10 71 52 100 149 103 59 2 74 6 95 26 18 19 24 33 21 61 -3
45 26 115 65 160 76 87 83 92 112 92 16 0 37 9 47 20 10 11 26 20 36 20 15 0
166 73 224 108 34 21 108 40 158 41 40 1 57 -5 93 -31z m-942 -816 c-24 -6
-10 -27 21 -32 45 -8 35 -25 -17 -28 l-47 -3 14 35 c9 20 12 36 8 36 -5 0 -1
4 7 10 9 6 17 5 22 -3 4 -7 1 -13 -8 -15z m-38 -99 c-10 -10 -19 5 -10 18 6
11 8 11 12 0 2 -7 1 -15 -2 -18z m28 -37 c-1 -19 -5 -39 -8 -45 -4 -5 -2 -12
4 -16 6 -3 14 4 19 17 9 22 10 22 10 2 1 -23 -43 -59 -59 -49 -6 4 -14 -4 -19
-17 -11 -27 -13 -19 -11 42 2 45 15 74 30 65 5 -3 11 4 15 15 10 31 21 23 19
-14z m-49 -206 c1 -10 -2 -17 -6 -14 -4 2 -7 13 -6 24 2 23 10 17 12 -10z"/>
<path d="M3027 1933 c-4 -3 -2 -12 4 -20 9 -10 7 -13 -10 -13 -19 0 -21 -4
-15 -22 4 -13 6 -42 5 -65 -1 -32 3 -43 14 -43 9 0 15 9 15 26 0 14 4 23 8 20
4 -2 8 3 8 13 0 12 -6 17 -18 13 -10 -2 -18 0 -18 5 0 13 49 35 61 28 16 -11
10 12 -8 26 -15 12 -16 12 -8 -1 5 -10 1 -8 -13 4 -12 10 -19 23 -16 27 6 11
0 12 -9 2z"/>
<path d="M3696 1907 c3 -10 9 -15 12 -12 3 3 0 11 -7 18 -10 9 -11 8 -5 -6z"/>
<path d="M2678 1903 c7 -3 16 -2 19 1 4 3 -2 6 -13 5 -11 0 -14 -3 -6 -6z"/>
<path d="M3100 1889 c6 -10 13 -19 16 -19 3 0 2 5 -2 12 -4 6 -3 8 4 4 6 -3
13 -2 17 4 3 5 3 10 -2 11 -4 0 -16 2 -25 4 -15 3 -16 0 -8 -16z"/>
<path d="M3727 1889 c12 -12 55 -20 48 -10 -2 5 -16 11 -31 14 -15 2 -22 1
-17 -4z"/>
<path d="M3157 1882 c-20 -2 -27 -8 -23 -18 3 -9 1 -12 -4 -9 -6 3 -10 1 -10
-4 0 -6 -3 -10 -7 -8 -9 2 -13 -6 -13 -25 0 -9 4 -8 10 2 5 8 10 11 10 5 0 -5
5 -3 10 5 7 11 12 12 21 3 8 -8 6 -13 -10 -18 -11 -3 -28 -13 -36 -22 -9 -8
-23 -16 -33 -17 -9 -2 -15 -7 -13 -12 2 -5 6 -16 9 -24 3 -8 14 -21 24 -28 27
-19 21 -77 -7 -77 -11 0 -20 7 -20 15 0 19 -34 40 -54 32 -10 -4 -12 -1 -6 7
5 9 2 12 -9 9 -10 -1 -25 -16 -34 -33 -9 -16 -18 -32 -19 -34 -4 -7 -33 21
-33 33 0 6 7 2 15 -8 8 -11 15 -15 15 -9 0 7 -5 15 -10 18 -6 4 -8 10 -5 15 3
5 1 11 -4 14 -5 4 -13 1 -17 -5 -5 -8 -13 -4 -26 12 -15 20 -17 21 -11 4 6
-20 6 -20 -15 -1 -23 20 -29 32 -12 21 6 -4 18 -1 27 7 12 9 15 9 9 1 -4 -7
-4 -13 1 -13 19 1 32 18 38 49 6 33 5 33 -27 25 -30 -6 -56 -11 -82 -13 -5 -1
-2 -9 7 -19 11 -12 13 -22 7 -32 -6 -9 -10 -10 -10 -3 0 6 -14 16 -32 22 -25
9 -35 8 -46 -2 -11 -12 -8 -15 25 -20 83 -13 93 -19 88 -49 -4 -16 -2 -19 7
-10 14 14 38 -2 38 -25 0 -8 5 -11 12 -7 7 4 8 3 4 -4 -4 -7 -13 -12 -21 -12
-18 0 -28 -17 -18 -32 4 -7 7 -22 8 -32 0 -11 6 -21 14 -24 9 -3 11 0 6 8 -5
9 -4 11 3 6 20 -12 14 -28 -27 -65 -38 -36 -40 -36 -44 -14 -3 14 1 23 8 23 7
0 16 7 19 16 3 8 10 12 16 9 6 -3 7 1 4 10 -4 9 -13 13 -23 11 -9 -3 -21 -2
-27 2 -12 8 -28 45 -15 38 4 -3 13 6 20 20 27 60 1 82 -29 24 -12 -23 -27 -43
-35 -47 -24 -8 -17 -23 10 -23 34 0 32 -18 -2 -22 -20 -2 -29 -10 -35 -33 -7
-29 6 -50 24 -39 5 3 11 -3 15 -13 4 -10 11 -22 17 -26 11 -9 -28 -2 -57 9 -8
3 -17 -2 -21 -13 -4 -9 -4 -14 0 -10 4 4 18 -3 31 -15 17 -16 23 -32 23 -64 0
-34 4 -44 20 -49 11 -3 20 -11 20 -16 0 -6 4 -8 10 -4 5 3 19 -4 30 -15 12
-12 29 -21 38 -21 105 1 124 3 128 16 3 7 14 12 25 10 10 -2 19 2 19 8 0 9 2
9 8 1 7 -12 77 -12 89 0 4 4 -6 19 -21 34 -19 18 -30 23 -33 14 -3 -6 -10 -9
-16 -5 -7 4 -8 0 -3 -13 6 -15 5 -16 -5 -7 -10 10 -9 15 1 28 17 20 -3 45 -36
45 -31 0 -32 -32 -1 -54 l22 -17 -25 7 c-41 11 -55 10 -55 -6 0 -24 -42 -52
-72 -48 -18 2 -35 15 -50 37 -25 37 -30 56 -10 44 18 -11 36 -12 42 -3 3 5 0
12 -6 16 -8 5 -9 3 -4 -6 6 -9 4 -11 -4 -5 -23 13 4 27 32 16 18 -7 28 -7 33
0 7 12 -15 41 -26 34 -5 -3 -11 -2 -14 3 -2 4 12 7 32 6 20 -1 42 1 47 4 6 4
17 7 25 9 8 1 20 10 27 19 12 16 14 16 30 -3 11 -12 26 -18 38 -16 11 2 26 5
33 5 6 1 12 5 12 10 0 5 4 7 9 4 4 -3 15 2 23 12 12 15 14 32 9 90 -1 6 -6 11
-12 10 -6 -2 -14 3 -16 10 -3 6 1 12 9 12 7 1 2 7 -12 15 l-25 15 35 -2 c44
-4 85 31 86 72 0 16 -4 28 -10 27 -22 -4 -16 34 11 59 17 16 21 25 11 21 -25
-9 -32 10 -9 23 16 8 22 7 30 -7 9 -17 11 -16 31 2 l22 20 -26 21 c-13 12 -22
25 -19 28 4 3 0 6 -8 6 -11 0 -11 2 1 10 20 13 4 13 -20 0 -15 -8 -23 -5 -40
12 -22 23 -30 26 -73 20z m-22 -150 c-3 -3 -11 0 -18 7 -9 10 -8 11 6 5 10 -3
15 -9 12 -12z m-226 -49 c14 11 14 10 2 -6 -10 -13 -17 -15 -27 -6 -8 6 -14
14 -14 17 0 3 5 1 12 -6 9 -9 15 -9 27 1z m136 -113 c-3 -5 -13 -10 -21 -10
-8 0 -14 5 -14 10 0 6 9 10 21 10 11 0 17 -4 14 -10z m40 -50 c2 0 5 -7 9 -15
11 -30 -41 -17 -64 16 l-22 30 37 -15 c21 -9 39 -16 40 -16z m-305 -20 c0 -5
-4 -10 -10 -10 -5 0 -10 5 -10 10 0 6 5 10 10 10 6 0 10 -4 10 -10z m160 -54
c0 -20 -27 -40 -33 -24 -2 7 -2 19 1 26 6 16 32 15 32 -2z m45 -16 c-14 -26
-35 -41 -35 -24 0 6 42 53 48 54 1 0 -4 -13 -13 -30z"/>
<path d="M3000 1736 c0 -2 7 -7 16 -10 8 -3 12 -2 9 4 -6 10 -25 14 -25 6z"/>
<path d="M2522 1709 c-17 -27 -5 -40 14 -15 8 11 14 23 14 28 0 15 -15 8 -28
-13z"/>
<path d="M2607 1673 c-4 -3 -7 -17 -7 -29 0 -13 -4 -26 -10 -29 -15 -9 12 -45
34 -45 16 0 17 -3 8 -12 -16 -16 -15 -38 2 -38 7 0 19 7 26 15 7 8 20 15 29
15 9 0 26 8 39 18 l23 18 -21 19 c-19 17 -23 17 -31 5 -22 -37 -28 -44 -35
-37 -4 4 2 21 14 37 12 16 22 32 22 34 0 6 -67 36 -80 36 -3 0 -10 -3 -13 -7z"/>
<path d="M2830 1575 c0 -16 16 -20 24 -6 3 5 -1 11 -9 15 -9 3 -15 0 -15 -9z"/>
<path d="M2628 1451 c-3 -34 0 -41 20 -50 29 -14 52 -14 52 -1 0 6 -6 10 -14
10 -22 0 -28 17 -14 39 14 22 12 26 -18 35 -19 6 -22 2 -26 -33z"/>
<path d="M2627 1375 c-7 -16 57 -82 74 -77 5 1 8 -1 8 -5 -4 -26 4 -35 12 -14
13 34 5 52 -39 81 -49 33 -49 33 -55 15z"/>
<path d="M3274 1323 c2 -10 6 -17 9 -15 4 1 12 2 18 2 6 0 4 7 -5 15 -19 20
-25 19 -22 -2z"/>
<path d="M2730 1274 c0 -3 11 -21 24 -41 25 -37 25 -63 -1 -63 -9 0 -13 6 -10
14 4 9 -2 17 -14 21 -11 4 -19 15 -19 28 0 21 -1 21 -13 -3 -7 -14 -18 -26
-25 -26 -26 -3 -26 -7 2 -13 17 -3 29 -10 27 -15 -3 -12 69 -47 81 -40 4 3 7
0 6 -7 -3 -12 29 -24 85 -32 24 -3 38 2 56 19 l24 23 -24 10 c-26 10 -78 25
-94 25 -5 1 -22 22 -37 47 -15 26 -36 49 -47 52 -12 3 -21 3 -21 1z"/>
<path d="M3110 1176 c0 -2 7 -7 16 -10 8 -3 12 -2 9 4 -6 10 -25 14 -25 6z"/>
</g>
</svg>
