<?xml version="1.0" standalone="no"?>
<!DOCTYPE svg PUBLIC "-//W3C//DTD SVG 20010904//EN"
 "http://www.w3.org/TR/2001/REC-SVG-20010904/DTD/svg10.dtd">
<svg version="1.0" xmlns="http://www.w3.org/2000/svg"
 width="450.000000pt" height="253.000000pt" viewBox="0 0 450.000000 253.000000"
 preserveAspectRatio="xMidYMid meet">
<metadata>
Created by potrace 1.16, written by Peter Selinger 2001-2019
</metadata>
<g transform="translate(0.000000,253.000000) scale(0.100000,-0.100000)"
fill="#000000" stroke="none">
<path d="M0 1265 l0 -1265 2250 0 2250 0 0 1265 0 1265 -2250 0 -2250 0 0
-1265z m2950 662 c89 -33 151 -73 241 -155 70 -65 100 -112 91 -144 -3 -13 -7
-16 -12 -8 -13 20 -97 30 -155 17 -48 -11 -118 -20 -145 -19 -97 3 -143 10
-158 25 -9 9 -13 17 -10 17 4 0 14 -7 22 -16 9 -8 16 -11 16 -5 0 6 -10 16
-22 22 -31 17 -108 20 -108 5 0 -7 -3 -8 -8 -1 -4 6 -14 10 -22 10 -8 -1 -22
2 -31 6 -9 5 -21 3 -26 -2 -8 -8 -13 -7 -18 2 -6 8 -4 10 6 5 8 -4 5 0 -5 8
-11 9 -24 16 -29 16 -4 0 -15 7 -23 15 -14 13 -14 17 0 31 22 21 20 34 -3 29
-14 -2 -18 1 -14 11 3 7 8 12 13 9 8 -5 5 64 -3 72 -11 11 -46 -8 -40 -22 3
-8 10 -12 17 -8 7 4 7 1 -1 -7 -8 -8 -9 -18 -4 -24 11 -13 2 -66 -11 -66 -5 0
-6 6 -2 13 4 7 3 9 -2 4 -5 -5 -10 -13 -10 -18 -1 -5 -2 -11 -3 -14 0 -3 -10
-1 -21 5 -11 6 -20 7 -20 2 0 -4 -9 -8 -21 -9 -32 -3 -35 25 -5 56 14 15 26
30 26 34 0 12 63 67 76 67 8 0 14 4 14 9 0 8 20 18 50 26 3 1 16 6 30 12 43
18 63 21 160 19 75 -2 111 -8 170 -29z m-790 -29 c0 -10 2 -10 8 -1 5 8 13 9
22 3 8 -6 29 -9 45 -9 30 2 30 2 -5 9 l-35 7 42 2 c23 0 45 -4 48 -9 5 -8 11
-8 20 0 10 8 15 8 21 -1 5 -8 3 -9 -5 -5 -8 5 -12 3 -10 -5 3 -24 -1 -43 -8
-36 -3 4 -12 2 -19 -4 -8 -7 -14 -7 -19 1 -3 5 -20 10 -36 10 -17 0 -28 -4
-25 -9 3 -5 15 -7 26 -4 11 3 26 0 33 -6 8 -6 16 -8 19 -5 4 3 21 7 40 8 23 2
32 7 30 18 -2 16 24 28 45 21 9 -3 10 -10 3 -23 -9 -16 -31 -29 -65 -36 -20
-4 -65 -24 -65 -28 0 -3 5 -8 12 -12 7 -5 8 -3 3 6 -5 9 -4 11 3 6 17 -10 -7
-56 -32 -61 -68 -13 -96 -13 -96 0 0 17 -25 26 -47 18 -10 -3 -15 -3 -11 2 11
12 -11 35 -32 35 -10 0 -20 7 -24 15 -3 8 -12 15 -21 15 -8 0 -15 7 -15 15 0
8 -7 15 -15 15 -9 0 -12 6 -9 15 4 8 1 16 -5 16 -6 1 -15 3 -21 4 -5 1 -18 4
-27 5 -36 5 55 17 140 19 63 1 87 -2 87 -11z m284 -24 c4 -10 1 -14 -6 -12
-15 5 -23 28 -10 28 5 0 13 -7 16 -16z m-544 -9 c7 -8 9 -15 5 -15 -4 0 0 -11
8 -23 15 -24 15 -24 -24 -24 -21 0 -40 3 -40 6 -5 22 -6 57 -2 64 7 12 40 8
53 -8z m-96 -132 c-13 -13 -34 -18 -34 -7 0 3 5 14 10 25 9 15 13 17 24 7 11
-10 11 -15 0 -25z m106 7 c0 -5 -2 -10 -4 -10 -3 0 -8 5 -11 10 -3 6 -1 10 4
10 6 0 11 -4 11 -10z m19 -46 c2 -2 -2 -10 -8 -18 -9 -11 -25 -13 -60 -9 -33
4 -56 1 -77 -10 -23 -13 -25 -16 -10 -17 19 0 19 0 1 -13 -10 -8 -15 -19 -11
-25 4 -7 2 -12 -5 -12 -7 0 -9 -3 -5 -7 4 -5 13 0 20 10 8 10 33 20 62 24 42
5 46 4 34 -9 -8 -8 -26 -14 -40 -13 -18 1 -26 -3 -26 -16 0 -10 3 -17 6 -16 3
1 6 -1 8 -5 6 -20 0 -28 -22 -28 -14 0 -27 -4 -30 -9 -3 -5 0 -9 7 -8 46 1 49
-2 22 -30 -30 -33 -33 -48 -5 -33 17 9 19 7 16 -24 -1 -22 -11 -42 -27 -55
-21 -17 -27 -18 -45 -6 -21 14 -34 11 -34 -7 0 -5 4 -7 9 -3 5 3 13 0 17 -6 5
-8 3 -9 -6 -4 -10 6 -12 4 -6 -10 6 -15 4 -16 -10 -5 -9 8 -14 23 -11 37 2 13
1 23 -3 23 -4 0 -7 7 -7 15 0 8 3 15 7 15 4 0 7 7 7 15 0 8 -4 12 -9 9 -25
-16 6 146 32 168 11 9 20 25 20 36 0 24 29 51 38 35 5 -7 18 -5 42 7 31 16 94
19 109 4z m71 -19 c0 -13 -14 -35 -22 -35 -6 0 -8 7 -4 15 4 13 1 12 -20 -1
-18 -13 -28 -14 -36 -6 -9 9 -3 15 22 26 29 12 60 12 60 1z m651 -12 c13 -16
12 -17 -3 -4 -10 7 -18 15 -18 17 0 8 8 3 21 -13z m139 -18 c14 -18 13 -19 -1
-8 -9 7 -19 10 -23 6 -4 -4 -4 1 0 10 3 10 7 17 8 15 1 -2 8 -12 16 -23z m469
-76 c-9 -5 -15 -4 -18 2 -2 6 3 15 10 20 9 5 15 4 18 -2 2 -6 -3 -15 -10 -20z
m-108 -55 c-41 -19 -76 -32 -79 -30 -2 3 -11 -1 -19 -9 -8 -8 -24 -15 -36 -15
-22 1 -22 1 -2 13 11 6 23 12 28 13 4 1 8 2 10 3 1 2 11 4 22 6 11 2 45 15 75
29 30 14 60 25 65 25 6 0 -23 -16 -64 -35z m-171 -76 c0 -4 -7 -8 -15 -8 -8 0
-15 4 -15 8 0 5 7 9 15 9 8 0 15 -4 15 -9z"/>
<path d="M2868 1823 c7 -3 16 -2 19 1 4 3 -2 6 -13 5 -11 0 -14 -3 -6 -6z"/>
<path d="M2108 1883 c7 -3 16 -2 19 1 4 3 -2 6 -13 5 -11 0 -14 -3 -6 -6z"/>
</g>
</svg>
