<?xml version="1.0" standalone="no"?>
<!DOCTYPE svg PUBLIC "-//W3C//DTD SVG 20010904//EN"
 "http://www.w3.org/TR/2001/REC-SVG-20010904/DTD/svg10.dtd">
<svg version="1.0" xmlns="http://www.w3.org/2000/svg"
 width="450.000000pt" height="253.000000pt" viewBox="0 0 450.000000 253.000000"
 preserveAspectRatio="xMidYMid meet">
<metadata>
Created by potrace 1.16, written by Peter Selinger 2001-2019
</metadata>
<g transform="translate(0.000000,253.000000) scale(0.100000,-0.100000)"
fill="#000000" stroke="none">
<path d="M0 1265 l0 -1265 2250 0 2250 0 0 1265 0 1265 -2250 0 -2250 0 0
-1265z m2972 671 c74 -27 99 -40 142 -70 56 -39 163 -146 181 -180 28 -51 13
-100 -43 -143 -24 -18 -49 -33 -55 -33 -7 0 3 10 21 21 17 12 32 29 32 39 0
10 9 20 21 23 31 8 21 42 -13 43 -15 1 -34 6 -42 13 -11 9 -17 9 -28 -2 -7 -8
-24 -12 -37 -10 -14 2 -30 -4 -38 -14 -8 -10 -12 -12 -8 -5 3 6 1 12 -4 12 -6
0 -11 -4 -11 -9 0 -4 -22 -8 -50 -8 -34 0 -47 3 -43 11 4 7 1 7 -8 -1 -19 -16
-145 -9 -167 9 -13 11 -14 11 -8 0 7 -12 4 -12 -15 -1 -31 17 -48 19 -55 8 -7
-12 -24 -2 -24 14 0 8 3 8 9 -2 6 -9 11 -10 15 -2 8 12 5 13 -36 15 -15 1 -30
5 -34 9 -4 4 -13 -1 -20 -11 -12 -15 -13 -15 -8 5 5 18 -2 25 -41 42 -38 17
-46 24 -40 38 11 26 12 103 2 110 -4 3 0 14 10 25 18 21 18 21 -13 5 -41 -21
-62 -45 -37 -43 10 0 18 -6 18 -14 0 -8 -7 -14 -15 -12 -8 2 -11 0 -7 -5 5 -4
13 -9 18 -9 19 -3 19 -4 8 -17 -10 -10 -17 -8 -36 11 -19 19 -27 21 -38 12 -8
-6 -11 -18 -8 -26 5 -13 8 -13 23 1 10 9 21 12 24 7 3 -5 -1 -15 -9 -22 -8 -7
-12 -17 -8 -24 4 -6 -1 -5 -10 3 -15 12 -21 9 -18 -11 0 -5 -2 -7 -7 -7 -4 1
-9 0 -12 -1 -3 -1 -15 -3 -27 -4 -16 -2 -20 2 -17 18 2 11 13 29 24 40 10 12
36 40 57 64 20 23 41 42 45 42 5 0 25 10 46 23 33 21 78 37 137 51 46 11 193
-5 257 -28z m-664 -43 c9 -9 8 -15 -7 -23 -11 -5 -26 -10 -35 -10 -8 0 -18 -6
-22 -12 -4 -7 -4 -10 1 -6 11 10 55 -46 55 -71 0 -24 -22 -35 -87 -44 -32 -4
-43 -2 -43 8 0 16 -35 29 -50 20 -6 -4 -10 -3 -9 2 4 22 -3 33 -21 33 -18 0
-25 11 -21 34 1 4 -9 6 -22 2 -24 -6 -32 3 -35 38 -1 14 -25 26 -57 27 l-30 1
30 8 c50 13 340 8 353 -7z m116 -10 c3 -7 0 -13 -7 -13 -8 0 -7 -3 2 -9 11 -7
6 -12 -20 -19 -40 -11 -46 -8 -29 13 10 12 10 15 -2 15 -8 0 -15 6 -15 13 0
17 65 17 71 0z m-495 -43 l19 -40 -32 5 c-17 2 -38 4 -47 4 -20 1 -14 50 9 68
20 16 28 10 51 -37z m539 39 c-2 -6 -8 -10 -13 -10 -5 0 -11 4 -13 10 -2 6 4
11 13 11 9 0 15 -5 13 -11z m-178 -50 c0 -5 5 -7 10 -4 6 3 10 1 10 -4 0 -16
-16 -13 -30 4 -9 10 -9 15 -1 15 6 0 11 -5 11 -11z m-454 -61 c-5 -34 -36 -53
-36 -22 0 10 6 14 14 11 10 -4 13 -1 9 9 -3 7 -1 14 5 14 6 0 9 -6 8 -12z
m224 -36 c0 -15 -2 -15 -10 -2 -13 20 -13 33 0 25 6 -3 10 -14 10 -23z m-59 0
c-5 -10 -19 -18 -30 -19 -12 -1 -19 3 -15 8 3 6 12 8 20 5 8 -3 14 1 14 9 0 8
5 15 10 15 7 0 7 -6 1 -18z m-68 -35 c10 -4 16 -11 12 -16 -3 -6 5 -7 22 -2
36 10 53 4 53 -20 0 -12 -7 -19 -20 -19 -11 0 -20 5 -20 11 0 8 -4 8 -14 0
-11 -9 -17 -9 -27 2 -28 27 -162 16 -144 -13 3 -4 1 -20 -5 -35 -7 -19 -7 -26
1 -23 6 2 10 8 9 13 -1 6 9 13 22 17 33 9 88 9 88 0 0 -7 -9 -9 -65 -15 -22
-2 -23 -4 -11 -22 18 -28 9 -45 -22 -46 -27 0 -27 0 -4 -10 l24 -9 -21 -34
c-26 -41 -26 -45 -1 -39 18 5 19 3 9 -26 -6 -17 -19 -37 -29 -44 -9 -6 -19
-16 -21 -22 -6 -15 -26 -14 -26 1 0 11 4 11 16 2 11 -8 10 -5 -2 9 -11 12 -24
19 -31 17 -10 -4 -13 16 -14 80 0 86 18 163 37 159 6 -2 11 0 12 5 5 51 26 83
40 60 4 -7 9 -7 13 1 4 6 15 11 25 11 10 0 26 9 37 19 14 15 21 16 29 7 6 -7
18 -15 28 -19z m1226 -200 c-13 -10 -74 -35 -77 -32 -3 2 2 11 11 19 8 8 17
13 20 10 3 -3 14 -1 24 4 15 9 34 8 22 -1z m-89 -37 c0 -5 -5 -10 -11 -10 -5
0 -7 5 -4 10 3 6 8 10 11 10 2 0 4 -4 4 -10z m-65 -30 c-3 -5 -11 -10 -16 -10
-6 0 -7 5 -4 10 3 6 11 10 16 10 6 0 7 -4 4 -10z m-1272 -80 c-3 -12 -8 -19
-11 -16 -5 6 5 36 12 36 2 0 2 -9 -1 -20z"/>
<path d="M2489 1773 c-13 -16 -12 -17 4 -4 9 7 17 15 17 17 0 8 -8 3 -21 -13z"/>
<path d="M2453 1773 c4 -3 -1 -16 -10 -27 -18 -21 -18 -21 4 -2 20 16 23 36 6
36 -4 0 -3 -3 0 -7z"/>
<path d="M2781 1663 c-1 -17 16 -25 25 -12 4 7 3 9 -4 5 -5 -3 -13 0 -15 6 -4
9 -6 10 -6 1z"/>
<path d="M3016 1632 c-3 -5 1 -9 9 -9 8 0 12 4 9 9 -3 4 -7 8 -9 8 -2 0 -6 -4
-9 -8z"/>
</g>
</svg>
