<?xml version="1.0" standalone="no"?>
<!DOCTYPE svg PUBLIC "-//W3C//DTD SVG 20010904//EN"
 "http://www.w3.org/TR/2001/REC-SVG-20010904/DTD/svg10.dtd">
<svg version="1.0" xmlns="http://www.w3.org/2000/svg"
 width="450.000000pt" height="253.000000pt" viewBox="0 0 450.000000 253.000000"
 preserveAspectRatio="xMidYMid meet">
<metadata>
Created by potrace 1.16, written by Peter Selinger 2001-2019
</metadata>
<g transform="translate(0.000000,253.000000) scale(0.100000,-0.100000)"
fill="#000000" stroke="none">
<path d="M0 1265 l0 -1265 2250 0 2250 0 0 1265 0 1265 -2250 0 -2250 0 0
-1265z m2541 619 c13 -12 19 -12 25 -3 4 7 3 10 -4 5 -6 -3 -13 -3 -16 2 -9
15 97 12 174 -5 81 -17 280 -105 280 -123 0 -6 4 -9 9 -6 11 7 82 -49 97 -75
5 -11 13 -17 17 -13 3 3 9 -6 13 -20 7 -31 1 -42 -18 -30 -17 11 -158 11 -158
0 0 -5 -7 -3 -15 4 -12 10 -15 10 -15 0 0 -9 -4 -9 -17 1 -15 12 -16 12 -10
-4 6 -15 4 -16 -16 -3 -12 7 -38 12 -57 11 -19 -2 -41 2 -49 8 -12 10 -14 8
-8 -8 7 -19 6 -19 -7 -1 -8 10 -26 19 -40 20 -14 0 -26 5 -26 10 0 5 -3 6 -6
3 -4 -3 -15 -2 -25 3 -12 7 -20 7 -24 0 -5 -8 -11 -8 -19 -1 -7 6 -16 8 -20 4
-14 -14 -36 -11 -37 5 0 11 -2 12 -6 4 -2 -6 -9 -10 -14 -6 -5 3 -9 -1 -9 -8
-1 -8 -4 -7 -10 4 -6 9 -18 14 -27 12 -25 -6 -55 20 -47 40 3 9 10 16 16 16 5
0 6 5 3 10 -3 6 -2 10 4 10 19 0 -1 31 -25 41 -33 12 -30 24 13 54 21 14 33
25 27 25 -5 0 -15 -5 -22 -12 -7 -7 -12 -9 -12 -6 0 4 -13 3 -30 -2 -16 -5
-30 -7 -30 -5 0 6 97 50 119 54 3 1 12 -6 22 -15z m-471 -15 c0 -5 5 -7 12 -3
6 4 8 3 5 -3 -4 -6 -19 -8 -34 -5 -16 3 -24 1 -20 -4 12 -13 67 -13 67 0 0 14
102 15 112 1 5 -7 8 -7 8 0 0 6 27 10 68 9 94 -3 92 -2 92 -23 0 -13 -18 -26
-59 -45 -32 -14 -66 -26 -74 -26 -19 0 -31 -16 -19 -24 15 -9 2 -54 -16 -58
-23 -6 -43 2 -36 13 9 15 -4 10 -45 -15 -27 -17 -38 -20 -38 -11 0 8 4 12 9 9
14 -9 9 13 -7 26 -12 10 -21 10 -40 2 -20 -9 -23 -9 -18 3 3 8 10 12 17 8 6
-4 5 1 -3 10 -7 9 -24 17 -37 17 -28 0 -31 12 -7 35 15 16 14 17 -19 12 -27
-3 -35 -1 -32 8 3 7 -2 15 -10 18 -9 4 -16 12 -16 20 0 7 -17 18 -37 24 -33 9
-24 11 70 12 69 1 107 -3 107 -10z m-242 -11 c18 -18 14 -38 -8 -38 -11 0 -20
-4 -20 -9 0 -5 10 -7 22 -3 15 3 19 2 14 -7 -4 -6 -17 -11 -29 -10 -38 3 -58
-1 -52 -10 3 -6 0 -13 -8 -18 -7 -4 -18 -20 -24 -35 -9 -19 -18 -26 -33 -23
-13 2 -24 -3 -31 -16 -10 -19 -9 -20 10 -9 17 9 21 8 21 -5 0 -8 5 -15 10 -15
21 0 85 31 107 52 13 12 23 17 23 11 0 -6 -6 -13 -14 -16 -9 -4 -12 -14 -9
-26 l5 -21 39 22 c21 12 42 19 46 15 3 -4 0 -7 -9 -7 -8 0 -23 -9 -33 -20 -14
-16 -28 -19 -69 -17 -72 5 -103 -8 -111 -44 -4 -16 -13 -29 -21 -29 -9 0 -12
-5 -8 -11 4 -7 -4 -20 -17 -31 -18 -15 -19 -18 -6 -14 10 3 24 6 29 6 6 0 8 3
5 7 -11 10 24 43 44 43 11 0 21 -10 25 -25 3 -14 9 -23 14 -20 4 2 16 -2 26
-11 18 -14 18 -15 -6 -8 -14 3 -27 6 -30 6 -38 1 -59 -4 -63 -14 -3 -9 7 -13
33 -12 46 2 54 -15 34 -71 -7 -20 -11 -46 -9 -56 2 -11 0 -19 -6 -19 -5 0 -9
4 -9 9 0 5 -13 4 -29 -2 -25 -9 -33 -8 -50 8 -12 10 -21 14 -21 8 0 -5 -6 -10
-14 -10 -29 0 -28 174 3 242 38 85 95 175 108 170 7 -2 12 1 10 8 -1 7 4 11
11 10 6 -2 11 0 11 5 -3 20 3 23 18 11 11 -10 14 -10 9 -1 -4 7 -2 12 6 12 9
0 9 3 -2 10 -13 9 -12 12 4 25 24 18 38 19 54 3z m62 -212 c0 -2 -7 -7 -16
-10 -8 -3 -12 -2 -9 4 6 10 25 14 25 6z m980 -36 c0 -5 -2 -10 -4 -10 -3 0 -8
5 -11 10 -3 6 -1 10 4 10 6 0 11 -4 11 -10z m260 -23 c0 -6 -3 -8 -6 -4 -4 3
-15 -4 -25 -16 -10 -12 -18 -16 -19 -9 0 6 5 12 11 12 5 0 7 5 4 10 -3 6 -1
10 5 10 7 0 9 7 6 16 -5 14 -4 15 9 4 8 -7 15 -17 15 -23z m-1377 2 c-8 -8
-19 -8 -40 -1 -28 10 -28 10 12 11 28 1 36 -2 28 -10z m-166 -261 c-3 -8 -6
-5 -6 6 -1 11 2 17 5 13 3 -3 4 -12 1 -19z m156 -418 c3 -11 1 -23 -4 -26 -5
-3 -9 6 -9 20 0 31 6 34 13 6z m3 -67 c0 -16 3 -68 7 -118 5 -81 5 -84 -3 -25
-16 112 -20 170 -12 170 4 0 7 -12 8 -27z m22 -298 c-3 -3 -9 2 -12 12 -6 14
-5 15 5 6 7 -7 10 -15 7 -18z"/>
<path d="M2705 1711 c33 -10 72 -24 88 -30 15 -6 27 -7 27 -3 0 4 5 0 10 -8 8
-13 10 -12 10 3 0 9 -7 17 -16 17 -9 0 -12 5 -8 12 4 6 3 8 -3 5 -6 -4 -33 -2
-59 3 -95 20 -108 20 -49 1z"/>
<path d="M2144 1828 c-3 -4 -12 -5 -22 -2 -16 5 -16 5 0 -6 17 -11 102 -9 113
2 4 3 -15 8 -40 10 -26 2 -49 0 -51 -4z"/>
<path d="M1700 1459 c-7 -11 -10 -23 -7 -25 2 -2 9 7 15 21 14 30 7 33 -8 4z"/>
</g>
</svg>
