<?xml version="1.0" standalone="no"?>
<!DOCTYPE svg PUBLIC "-//W3C//DTD SVG 20010904//EN"
 "http://www.w3.org/TR/2001/REC-SVG-20010904/DTD/svg10.dtd">
<svg version="1.0" xmlns="http://www.w3.org/2000/svg"
 width="450.000000pt" height="253.000000pt" viewBox="0 0 450.000000 253.000000"
 preserveAspectRatio="xMidYMid meet">
<metadata>
Created by potrace 1.16, written by Peter Selinger 2001-2019
</metadata>
<g transform="translate(0.000000,253.000000) scale(0.100000,-0.100000)"
fill="#000000" stroke="none">
<path d="M0 1265 l0 -1265 2250 0 2250 0 0 1265 0 1265 -635 0 c-349 0 -635
-2 -635 -5 0 -5 12 -20 54 -68 42 -50 60 -139 40 -204 -8 -25 -16 -68 -19 -97
-7 -69 -10 -84 -18 -92 -16 -16 -3 -27 43 -39 42 -11 68 -20 89 -32 22 -11 28
-11 37 2 15 20 56 34 95 33 42 -1 90 -21 147 -60 24 -17 59 -34 78 -40 39 -10
114 -72 114 -93 0 -7 6 -15 13 -18 10 -4 10 -7 0 -18 -7 -7 -13 -24 -13 -37 0
-29 -44 -89 -81 -107 -15 -8 -44 -30 -65 -50 -20 -20 -47 -41 -59 -48 -12 -6
-40 -22 -62 -34 -21 -12 -57 -24 -78 -28 -22 -3 -50 -11 -61 -17 -21 -10 -21
-11 -4 -46 16 -33 17 -41 4 -71 -12 -29 -12 -39 2 -80 9 -25 17 -83 19 -128 5
-103 -13 -163 -61 -199 -19 -15 -31 -30 -28 -35 3 -5 -4 -9 -15 -9 -11 0 -23
-5 -27 -11 -8 -13 -84 -5 -162 18 -30 8 -64 16 -75 18 -48 6 -103 18 -119 27
-15 7 -18 4 -18 -15 0 -19 -7 -26 -31 -31 -17 -3 -35 -3 -40 0 -6 3 -16 1 -22
-5 -34 -27 -122 36 -307 222 -26 26 -54 47 -62 47 -21 0 -52 39 -67 85 -8 22
-17 42 -20 45 -18 14 -61 156 -61 200 0 15 -7 20 -24 20 -30 0 -36 8 -26 34 4
14 9 16 14 8 4 -7 14 -12 22 -12 21 0 18 69 -3 89 -18 16 -20 24 -25 91 -2 19
-11 42 -20 51 -27 24 -22 45 18 84 24 23 45 35 64 35 29 0 29 1 113 144 9 17
17 39 17 49 0 15 16 51 49 107 5 8 15 28 22 44 8 16 27 37 43 45 16 9 43 28
59 43 16 15 39 30 51 34 24 8 88 51 164 112 l54 42 -1491 0 -1491 0 0 -1265z
m2375 335 c4 -6 -5 -10 -19 -10 -14 0 -26 5 -26 10 0 6 9 10 19 10 11 0 23 -4
26 -10z m-35 -95 c0 -8 -4 -15 -10 -15 -5 0 -7 7 -4 15 4 8 8 15 10 15 2 0 4
-7 4 -15z m13 -37 c-14 -18 -11 -71 5 -76 6 -2 12 3 12 12 0 8 5 18 10 21 15
9 12 -18 -3 -39 -15 -21 -65 -25 -77 -7 -9 16 -1 61 12 61 5 0 6 5 2 12 -4 7
-3 8 5 4 6 -4 14 0 17 8 3 9 11 16 16 16 7 0 7 -4 1 -12z m37 -758 c0 -5 -5
-10 -11 -10 -5 0 -7 5 -4 10 3 6 8 10 11 10 2 0 4 -4 4 -10z m-4 -55 c-1 -13
-5 -28 -10 -32 -5 -6 -3 35 3 55 4 11 8 -3 7 -23z m-9 -142 c-2 -16 -4 -5 -4
22 0 28 2 40 4 28 2 -13 2 -35 0 -50z m-10 -235 c-2 -13 -4 -5 -4 17 -1 22 1
32 4 23 2 -10 2 -28 0 -40z m0 -60 c-3 -7 -5 -2 -5 12 0 14 2 19 5 13 2 -7 2
-19 0 -25z"/>
<path d="M3153 2494 c-3 -8 0 -21 6 -27 9 -9 11 -8 5 7 -5 13 -4 17 4 12 8 -5
10 -2 6 8 -8 20 -13 20 -21 0z"/>
<path d="M2700 1939 c0 -5 5 -7 10 -4 6 3 10 8 10 11 0 2 -4 4 -10 4 -5 0 -10
-5 -10 -11z"/>
<path d="M2656 1905 c-16 -18 -25 -21 -53 -15 -24 6 -35 4 -41 -5 -7 -14 -10
-15 -38 -15 -8 0 -13 -4 -10 -9 3 -5 -1 -11 -9 -15 -8 -3 -15 -14 -15 -24 0
-10 -5 -23 -11 -29 -6 -6 -15 -29 -20 -52 -8 -34 -6 -48 11 -82 22 -42 40 -46
33 -7 -3 14 5 37 21 58 14 19 30 45 35 56 5 12 19 24 31 27 17 4 21 12 18 38
-2 23 1 32 13 34 20 3 72 52 62 58 -4 3 -17 -5 -27 -18z"/>
<path d="M2835 1900 c-8 -13 8 -18 30 -9 11 4 18 8 15 9 -23 7 -41 7 -45 0z"/>
<path d="M3030 1903 c0 -6 -8 -10 -17 -8 -16 2 -18 -6 -19 -61 0 -60 1 -63 24
-66 14 -2 30 -12 36 -23 6 -11 18 -25 28 -32 22 -17 19 -77 -4 -81 -10 -2 -22
8 -30 25 -8 16 -21 28 -32 28 -11 0 -21 6 -24 13 -7 21 -21 13 -38 -23 -9 -19
-21 -35 -26 -35 -5 0 -7 4 -3 9 3 5 1 12 -5 16 -14 9 -13 55 2 55 6 0 9 3 6 6
-4 3 -18 -2 -32 -11 -14 -9 -29 -17 -33 -18 -4 -1 -7 -6 -5 -10 1 -5 -2 -6 -8
-2 -13 8 6 36 23 32 8 -2 51 93 44 99 -1 1 -20 -4 -42 -12 -22 -7 -57 -12 -77
-11 -21 2 -38 2 -38 1 0 -2 10 -12 22 -24 27 -25 19 -34 -18 -20 -30 12 -74 6
-74 -10 0 -6 16 -10 35 -10 23 0 38 -6 42 -16 3 -9 13 -14 23 -11 12 3 17 -1
16 -15 -1 -10 -5 -22 -11 -26 -5 -4 -20 -25 -31 -47 -22 -41 -44 -57 -44 -32
0 7 -9 22 -21 33 -20 18 -21 18 -32 -1 -7 -11 -15 -29 -18 -40 -6 -18 -7 -18
-14 -3 -5 12 1 28 19 49 l27 32 -23 16 c-13 9 -26 15 -30 14 -3 -1 -9 4 -12
13 -3 8 -2 12 4 9 6 -3 10 -1 10 4 0 18 -25 12 -40 -8 -7 -11 -17 -18 -22 -15
-4 3 -8 -8 -8 -24 0 -16 -7 -35 -15 -42 -15 -12 -21 -51 -9 -62 3 -4 18 -2 34
2 33 10 46 2 24 -14 -8 -6 -16 -21 -17 -34 0 -12 -7 -22 -14 -22 -18 0 -16
-19 2 -26 8 -4 15 -16 14 -28 0 -21 0 -21 -11 2 -6 12 -16 21 -22 19 -20 -7
-12 -52 13 -76 15 -14 25 -29 23 -33 -1 -4 1 -7 5 -6 14 2 43 -14 43 -24 0 -6
14 -24 31 -40 l31 -30 -23 -24 c-15 -16 -26 -21 -33 -14 -14 11 -30 1 -34 -22
-3 -16 3 -20 24 -17 4 0 11 -5 16 -13 6 -9 8 -8 6 7 -2 15 3 19 21 20 13 0 26
-7 28 -15 4 -13 3 -13 -6 0 -9 13 -12 13 -23 1 -7 -8 -8 -11 -3 -8 6 3 20 -8
30 -24 11 -16 26 -29 33 -29 7 0 10 -4 7 -10 -3 -5 -2 -10 4 -10 5 0 13 5 16
10 3 6 11 10 16 10 6 0 7 -5 3 -12 -5 -8 -2 -9 9 -5 10 3 17 3 17 -2 0 -5 20
-9 44 -9 33 -1 50 5 70 23 22 21 23 25 10 36 -14 12 -14 14 3 20 17 7 16 8 -2
8 -12 1 -26 -4 -32 -10 -8 -8 -17 -8 -32 0 -14 8 -27 8 -38 2 -13 -6 -22 -5
-31 5 -7 8 -11 14 -8 14 2 0 -2 20 -10 45 -11 39 -11 45 1 45 8 0 15 -4 15
-10 0 -5 6 -10 14 -10 7 0 19 -7 26 -15 7 -8 18 -15 25 -15 11 0 10 6 -1 30
-9 17 -20 30 -25 30 -6 0 -7 5 -4 10 4 6 11 8 16 4 6 -3 17 -3 26 0 13 5 13 9
2 23 -12 14 -11 15 7 9 33 -10 56 2 44 24 -8 15 -4 18 33 24 23 4 52 14 65 22
18 12 26 12 45 2 34 -18 49 -18 65 0 7 9 11 11 7 5 -4 -8 0 -13 10 -13 18 0
22 9 30 64 4 32 2 41 -15 53 -16 11 -18 18 -10 28 9 11 5 17 -20 30 -18 9 -29
19 -26 22 3 3 11 1 18 -4 21 -17 77 -21 82 -6 3 7 13 13 21 13 9 0 13 5 10 10
-3 6 -1 10 5 10 13 0 5 51 -9 59 -13 8 -9 35 9 57 9 11 10 15 3 10 -9 -5 -13
-1 -13 13 0 11 5 23 10 26 6 4 8 11 5 16 -10 15 7 10 28 -8 12 -10 17 -12 12
-4 -5 9 -3 12 6 9 8 -3 13 -11 11 -17 -1 -8 4 -7 18 1 20 13 20 13 1 16 -11 2
-24 16 -29 32 -6 15 -16 28 -24 27 -35 -1 -48 5 -60 27 -11 20 -16 22 -38 13
-38 -15 -49 -16 -57 -5 -3 7 -1 8 5 4 18 -11 14 0 -5 15 -10 8 -14 9 -10 2 9
-15 -54 -13 -65 2 -5 6 -8 6 -8 -2z m55 -23 c-3 -5 -1 -10 5 -10 7 0 23 -9 37
-20 l26 -20 -37 -15 c-20 -8 -36 -19 -36 -24 0 -12 -35 -20 -49 -11 -7 3 -9
14 -5 24 5 13 9 14 23 4 13 -10 14 -10 4 2 -19 21 -16 28 12 28 13 0 22 -4 19
-9 -3 -5 0 -9 5 -9 6 0 11 5 11 11 0 5 5 7 10 4 6 -3 10 -1 10 4 0 11 -16 16
-35 11 -5 -1 -17 -3 -25 -3 -8 0 -20 -4 -27 -9 -7 -5 -14 -5 -17 1 -7 11 33
43 45 35 4 -2 10 0 14 6 3 5 8 10 11 10 3 0 2 -4 -1 -10z m60 -150 c3 -6 -1
-7 -9 -4 -18 7 -21 14 -7 14 6 0 13 -4 16 -10z m-271 -112 c-3 -5 -12 -7 -20
-4 -8 3 -14 -1 -14 -9 0 -8 5 -15 10 -15 6 0 10 -7 10 -15 0 -8 -5 -15 -10
-15 -6 0 -13 7 -16 15 -4 8 -12 15 -19 15 -11 0 -11 6 -2 33 7 17 17 35 22 39
12 10 47 -30 39 -44z m-46 -79 c-16 -10 -35 0 -41 22 -5 18 -4 18 24 2 18 -11
24 -20 17 -24z m212 32 c0 -5 -9 -11 -20 -14 -13 -3 -20 0 -20 9 0 8 9 14 20
14 11 0 20 -4 20 -9z m-320 -11 c0 -5 11 -10 25 -10 14 0 25 -4 25 -10 0 -5
-11 -10 -25 -10 -20 0 -25 -5 -25 -24 0 -14 -5 -28 -10 -31 -14 -9 -2 -25 19
-25 9 0 27 -11 39 -25 12 -14 18 -25 13 -25 -6 0 -13 5 -17 11 -6 10 -39 9
-92 -4 -16 -4 -25 -1 -29 10 -4 9 -1 19 5 21 23 7 12 33 -18 43 -16 6 -30 14
-30 19 0 10 51 43 67 43 7 0 14 6 17 14 6 15 36 18 36 3z m154 -63 c-10 -6
-29 -21 -41 -33 -13 -13 -23 -19 -23 -14 0 16 47 79 54 73 3 -4 6 0 6 8 1 9 4
8 12 -5 8 -15 7 -21 -8 -29z m206 6 c0 -9 -12 -12 -33 -10 -27 2 -33 6 -31 22
1 11 3 21 3 22 4 7 61 -24 61 -34z m65 7 c3 -5 -1 -10 -9 -10 -9 0 -16 5 -16
10 0 6 4 10 9 10 6 0 13 -4 16 -10z m-382 -13 c3 -8 -1 -14 -9 -14 -15 0 -18
9 -7 20 9 9 10 9 16 -6z m347 3 c0 -5 -2 -10 -4 -10 -3 0 -8 5 -11 10 -3 6 -1
10 4 10 6 0 11 -4 11 -10z m-126 -64 c-17 -35 -37 -46 -49 -26 -3 6 1 10 9 10
8 0 23 13 32 30 24 40 29 31 8 -14z m-64 5 c0 -10 -6 -24 -14 -31 -12 -9 -15
-8 -13 9 1 12 5 21 10 21 4 0 5 5 2 10 -3 6 -1 10 4 10 6 0 11 -8 11 -19z
m-178 -67 c22 -38 14 -117 -11 -112 -10 2 -16 14 -17 32 -1 16 -8 33 -18 38
-9 5 -28 20 -43 34 l-28 26 26 -7 c17 -4 30 -1 39 10 17 21 31 15 52 -21z m6
-188 c-2 -11 -12 -22 -22 -24 -14 -3 -17 0 -13 11 3 9 0 21 -8 27 -7 6 -12 19
-10 28 2 9 4 22 5 27 0 6 12 -3 26 -19 14 -16 24 -38 22 -50z"/>
<path d="M2724 1813 c3 -20 15 -27 28 -16 7 6 28 9 47 7 25 -2 31 0 22 9 -16
16 -99 16 -97 0z"/>
<path d="M2995 1730 c10 -11 22 -17 28 -13 6 4 3 12 -8 20 -28 20 -41 16 -20
-7z"/>
<path d="M2690 1670 c19 -13 30 -13 30 0 0 6 -10 10 -22 10 -19 0 -20 -2 -8
-10z"/>
<path d="M2717 1654 c-9 -9 4 -35 14 -28 5 3 9 12 9 20 0 14 -12 19 -23 8z"/>
<path d="M3016 1341 c-8 -12 3 -41 15 -41 5 0 9 -7 9 -16 0 -11 -6 -14 -22 -9
-38 12 -43 11 -40 -7 2 -11 -3 -18 -13 -18 -29 0 -16 -27 14 -28 22 0 28 3 25
13 -4 10 1 13 20 9 21 -4 27 0 32 23 4 16 11 33 16 40 6 7 1 17 -14 27 -26 18
-35 20 -42 7z"/>
<path d="M3086 1295 c-8 -23 -8 -53 2 -58 4 -3 17 3 29 13 l22 17 -23 22 c-21
20 -24 20 -30 6z"/>
<path d="M2541 1264 c0 -11 3 -14 6 -6 3 7 2 16 -1 19 -3 4 -6 -2 -5 -13z"/>
</g>
</svg>
