<?xml version="1.0" standalone="no"?>
<!DOCTYPE svg PUBLIC "-//W3C//DTD SVG 20010904//EN"
 "http://www.w3.org/TR/2001/REC-SVG-20010904/DTD/svg10.dtd">
<svg version="1.0" xmlns="http://www.w3.org/2000/svg"
 width="450.000000pt" height="253.000000pt" viewBox="0 0 450.000000 253.000000"
 preserveAspectRatio="xMidYMid meet">
<metadata>
Created by potrace 1.16, written by Peter Selinger 2001-2019
</metadata>
<g transform="translate(0.000000,253.000000) scale(0.100000,-0.100000)"
fill="#000000" stroke="none">
<path d="M0 1265 l0 -1265 2250 0 2250 0 0 1265 0 1265 -2250 0 -2250 0 0
-1265z m2710 1176 c52 -5 110 -13 127 -19 48 -15 116 -54 134 -77 9 -11 31
-36 48 -55 18 -19 50 -65 73 -102 22 -38 45 -68 51 -68 6 0 7 -3 4 -7 -9 -9
24 -32 47 -33 10 0 54 -12 98 -27 l79 -27 15 22 c8 12 31 26 50 31 61 17 131
2 250 -55 127 -61 159 -84 168 -119 4 -14 10 -25 15 -25 11 0 4 -73 -11 -115
-14 -39 -198 -217 -251 -244 -23 -11 -75 -30 -114 -42 -40 -12 -73 -24 -73
-27 0 -3 6 -13 13 -21 7 -9 26 -44 40 -78 35 -79 43 -173 22 -254 -18 -71 -38
-102 -83 -123 -18 -9 -30 -21 -27 -26 3 -6 -4 -10 -16 -10 -12 0 -31 -8 -41
-17 -32 -28 -227 -23 -343 9 -104 29 -162 52 -186 74 -16 14 -18 14 -29 -5 -6
-11 -24 -27 -39 -36 -40 -20 -61 -43 -55 -59 9 -22 -23 -74 -78 -127 -64 -62
-183 -111 -261 -107 -86 4 -130 41 -186 157 -40 84 -46 104 -46 162 0 37 5 72
12 80 7 8 16 33 21 56 l10 42 -71 -3 c-214 -8 -440 57 -537 154 -33 33 -39 46
-38 77 2 52 37 135 76 177 18 20 32 39 32 43 1 10 112 93 165 124 22 13 46 29
53 36 7 7 20 13 28 13 23 0 16 18 -13 34 -43 22 -139 128 -161 177 -39 87 -44
108 -38 151 3 24 6 50 7 58 1 16 23 30 104 62 71 29 275 36 377 15 68 -15 121
-20 175 -18 13 1 25 11 31 29 14 39 90 114 142 140 34 16 56 21 90 17 25 -3
88 -9 140 -14z"/>
<path d="M2795 1944 c-15 -17 -22 -33 -18 -47 3 -12 6 -38 8 -58 1 -20 5 -41
9 -47 3 -6 -1 -17 -9 -25 -15 -16 -11 -47 7 -47 5 0 19 5 30 11 20 11 20 13 5
24 -16 12 -16 13 -1 19 9 3 14 13 11 20 -3 8 1 20 8 26 8 7 12 16 9 21 -3 5 5
13 18 18 16 7 18 10 6 10 -9 1 -20 -4 -24 -10 -4 -8 -9 -7 -15 2 -5 8 -2 20 8
31 14 16 14 18 -3 25 -34 13 -43 27 -25 40 9 7 12 13 8 13 -4 0 -19 -12 -32
-26z"/>
<path d="M2935 1890 c-3 -5 -3 -14 0 -20 10 -16 32 -12 39 7 4 10 4 14 0 10
-4 -4 -13 -2 -20 4 -8 7 -14 7 -19 -1z"/>
<path d="M3035 1891 c-3 -6 4 -15 16 -21 15 -8 19 -9 15 -1 -4 6 -2 11 3 11 6
0 11 5 11 10 0 13 -37 13 -45 1z"/>
<path d="M2945 1820 c-4 -6 -11 -7 -17 -4 -6 4 -8 -1 -3 -15 3 -12 3 -21 -2
-20 -4 1 -21 1 -37 0 -22 -1 -26 -4 -18 -13 6 -7 10 -17 10 -23 -1 -5 10 -15
23 -22 19 -10 27 -9 42 5 18 16 18 17 -5 23 -23 5 -23 5 5 12 27 7 35 21 17
32 -5 3 -7 12 -3 20 6 17 -3 20 -12 5z"/>
<path d="M2967 1817 c-5 -14 10 -37 24 -37 10 0 5 28 -8 41 -7 7 -12 6 -16 -4z"/>
<path d="M2600 1807 c-33 -9 -45 -17 -45 -31 0 -34 -29 -42 -70 -17 -40 24
-63 20 -27 -4 12 -9 19 -23 17 -34 -3 -15 1 -18 17 -13 19 5 21 2 15 -29 -3
-19 -3 -28 0 -21 4 10 8 10 19 1 11 -9 12 -15 3 -26 -7 -7 -10 -16 -7 -19 9
-9 58 19 58 33 0 20 30 28 42 12 8 -12 9 -11 5 1 -2 8 -18 16 -35 18 -18 2
-30 8 -27 13 4 5 0 9 -9 9 -8 0 -16 6 -18 12 -7 21 22 41 57 40 23 -1 35 4 41
16 8 18 15 53 11 51 -1 0 -22 -6 -47 -12z"/>
<path d="M2977 1722 c-21 -10 -35 -21 -31 -25 4 -4 2 -7 -5 -7 -7 0 -10 -7 -7
-18 5 -14 -3 -22 -29 -35 -44 -21 -64 -21 -72 -1 -9 24 -74 84 -84 78 -5 -3
-9 -25 -9 -49 0 -38 4 -46 28 -57 16 -9 26 -20 24 -31 -2 -12 4 -17 19 -17 17
0 20 -4 15 -24 -5 -19 -1 -25 17 -30 33 -9 41 -7 29 7 -13 15 18 57 43 57 29
0 75 42 75 69 0 13 10 35 22 48 12 13 16 23 10 23 -6 0 -9 7 -6 15 7 18 9 18
-39 -3z"/>
<path d="M1794 1704 c-12 -17 -19 -21 -24 -14 -10 15 -52 -10 -98 -58 -29 -30
-31 -37 -18 -44 14 -8 14 -11 -2 -28 -9 -11 -24 -29 -33 -39 -10 -10 -23 -35
-30 -55 -7 -20 -17 -36 -22 -36 -4 0 -5 -4 -2 -10 3 -5 1 -10 -5 -10 -7 0 -9
-7 -6 -16 4 -9 1 -23 -5 -30 -6 -7 -8 -18 -4 -24 8 -13 55 -13 55 0 0 6 16 10
35 10 20 0 61 14 97 33 l62 32 -35 5 c-39 6 -43 21 -14 53 52 56 62 97 24 97
-31 0 -25 51 11 85 16 16 28 31 25 33 -2 3 0 13 6 23 15 28 2 23 -17 -7z"/>
<path d="M2610 1611 c0 -6 11 -18 26 -27 14 -9 23 -23 20 -30 -3 -8 2 -17 11
-22 12 -7 13 -13 4 -30 -9 -17 -8 -22 9 -27 11 -3 24 -3 30 0 5 3 10 -1 10 -9
0 -9 -3 -16 -7 -17 -5 0 -25 -1 -46 -3 -43 -3 -48 -6 -50 -35 -1 -22 -15 -22
-67 3 -25 12 -27 18 -15 47 4 10 -5 20 -30 32 -35 16 -55 16 -55 -2 0 -5 12
-6 28 -4 26 4 26 4 8 -11 -11 -9 -26 -16 -33 -16 -29 0 -12 -29 20 -32 27 -2
32 -7 32 -28 0 -14 10 -35 23 -48 23 -24 23 -52 -2 -97 -5 -11 -9 -23 -8 -27
1 -5 -3 -8 -8 -8 -5 0 -10 -7 -10 -16 0 -9 6 -14 13 -11 6 2 12 10 12 18 0 8
10 15 23 17 14 2 22 10 22 23 0 10 5 19 11 19 5 0 7 5 3 12 -5 7 -3 8 5 3 8
-4 24 1 39 12 15 11 57 26 95 33 37 8 67 16 67 19 0 3 -9 17 -19 30 -12 16
-20 20 -25 12 -4 -7 -2 -18 4 -26 10 -13 8 -15 -18 -15 -17 0 -33 3 -35 8 -3
4 6 29 18 57 13 27 21 54 18 59 -4 5 -2 6 3 3 5 -3 21 3 34 14 24 19 24 20 6
34 -11 9 -17 22 -13 34 8 33 -25 55 -75 48 -23 -3 -50 -1 -60 4 -12 6 -18 6
-18 0z"/>
<path d="M2483 1576 c3 -7 0 -19 -6 -26 -9 -10 -9 -11 3 -8 18 5 26 48 10 48
-7 0 -10 -6 -7 -14z"/>
<path d="M2545 1580 c-3 -6 -3 -19 0 -31 6 -19 8 -20 26 -3 14 13 16 20 8 31
-14 16 -26 17 -34 3z"/>
<path d="M2200 1520 c-10 -6 -8 -10 8 -19 30 -16 50 -14 61 7 8 14 4 17 -23
19 -18 1 -38 -2 -46 -7z"/>
<path d="M2285 1464 c-6 -1 -22 -5 -36 -8 -15 -3 -29 -13 -33 -21 -3 -9 -2
-13 4 -10 5 3 8 -7 5 -25 -2 -16 1 -33 7 -36 6 -4 8 -2 5 3 -9 14 15 23 59 23
27 0 34 4 34 19 0 11 3 26 6 34 5 14 -27 27 -51 21z"/>
<path d="M2370 1430 c-15 -28 -9 -34 16 -16 14 11 16 17 7 26 -8 9 -14 7 -23
-10z"/>
<path d="M2761 1434 c0 -11 3 -14 6 -6 3 7 2 16 -1 19 -3 4 -6 -2 -5 -13z"/>
<path d="M2852 1433 c-7 -13 -7 -25 1 -38 9 -18 9 -19 -6 -6 -16 13 -17 11
-15 -18 3 -37 3 -37 45 -12 27 17 33 18 44 5 25 -30 46 20 24 56 -3 6 -19 10
-34 10 -15 0 -32 5 -38 11 -8 8 -14 6 -21 -8z"/>
<path d="M2405 1360 c3 -5 18 -10 33 -9 24 0 25 1 7 9 -28 12 -47 12 -40 0z"/>
<path d="M2386 1311 c-3 -5 1 -11 9 -15 8 -3 15 -1 15 4 0 13 -18 22 -24 11z"/>
<path d="M2835 1271 c-8 -13 24 -29 46 -24 31 8 23 33 -10 33 -17 0 -32 -4
-36 -9z"/>
<path d="M2227 1139 c7 -7 15 -10 18 -7 3 3 -2 9 -12 12 -14 6 -15 5 -6 -5z"/>
<path d="M2515 1131 c-3 -5 -2 -12 3 -15 5 -3 9 1 9 9 0 17 -3 19 -12 6z"/>
<path d="M3359 1118 c-6 -23 -7 -48 -1 -48 4 0 9 11 10 25 1 14 0 25 -3 25 -3
0 -5 -1 -6 -2z"/>
</g>
</svg>
