<?xml version="1.0" standalone="no"?>
<!DOCTYPE svg PUBLIC "-//W3C//DTD SVG 20010904//EN"
 "http://www.w3.org/TR/2001/REC-SVG-20010904/DTD/svg10.dtd">
<svg version="1.0" xmlns="http://www.w3.org/2000/svg"
 width="450.000000pt" height="253.000000pt" viewBox="0 0 450.000000 253.000000"
 preserveAspectRatio="xMidYMid meet">
<metadata>
Created by potrace 1.16, written by Peter Selinger 2001-2019
</metadata>
<g transform="translate(0.000000,253.000000) scale(0.100000,-0.100000)"
fill="#000000" stroke="none">
<path d="M0 1265 l0 -1265 2250 0 2250 0 0 1265 0 1265 -2250 0 -2250 0 0
-1265z m2615 1119 c25 -9 83 -16 155 -18 104 -2 120 -5 170 -31 52 -26 160
-125 160 -146 0 -5 5 -15 11 -22 5 -7 19 -27 30 -45 22 -38 79 -67 151 -77 39
-6 51 -3 78 17 26 19 43 23 98 22 56 -1 81 -8 154 -42 47 -23 104 -48 125 -57
41 -17 93 -62 93 -80 0 -6 5 -16 12 -23 15 -15 11 -83 -7 -125 -8 -18 -44 -61
-80 -96 -36 -35 -65 -68 -65 -72 0 -5 -7 -9 -15 -9 -8 0 -19 -8 -24 -17 -12
-24 -99 -67 -188 -94 l-72 -22 29 -42 c56 -81 72 -140 68 -240 -3 -66 -10
-101 -25 -130 -20 -38 -90 -95 -118 -95 -7 0 -15 -6 -18 -14 -6 -14 -40 -21
-162 -32 -104 -9 -257 21 -377 73 l-57 25 -27 -21 c-15 -11 -31 -21 -37 -21
-21 0 -47 -34 -47 -60 0 -18 -15 -44 -41 -74 -28 -32 -39 -52 -34 -64 5 -13 4
-14 -6 -5 -9 9 -18 8 -38 -6 -48 -34 -169 -71 -231 -71 -117 0 -168 46 -225
200 -28 78 -28 76 -9 238 l7 52 -64 1 c-183 4 -274 24 -389 86 -102 55 -149
119 -150 204 0 44 6 64 28 100 51 80 91 116 201 185 l109 68 -72 67 c-115 107
-172 251 -136 340 14 34 74 68 155 89 76 19 252 14 347 -10 92 -23 203 -27
215 -7 10 15 80 69 112 87 62 32 142 38 206 14z m-140 -1803 c3 -5 2 -12 -3
-15 -5 -3 -9 1 -9 9 0 17 3 19 12 6z"/>
<path d="M2667 1889 c1 -28 8 -59 13 -70 12 -22 6 -39 -15 -39 -8 0 -17 -5
-20 -11 -10 -15 24 -49 43 -42 47 14 47 15 22 25 -23 9 -24 10 -7 22 23 17 22
32 -7 89 -15 28 -20 46 -12 45 6 -2 13 2 14 7 1 6 -1 10 -5 10 -5 0 -13 3 -19
7 -8 5 -10 -8 -7 -43z"/>
<path d="M2723 1903 c0 -14 12 -15 42 -4 17 7 16 9 -11 13 -21 3 -31 0 -31 -9z"/>
<path d="M2897 1888 c-15 -11 -12 -13 23 -16 40 -2 54 10 24 22 -22 8 -28 8
-47 -6z"/>
<path d="M2835 1880 c-17 -8 -17 -9 7 -7 15 1 24 5 22 9 -3 4 -6 8 -7 7 -1 0
-11 -4 -22 -9z"/>
<path d="M2450 1775 c-10 -25 -48 -42 -75 -31 -20 7 -19 -11 1 -22 9 -5 17
-21 17 -35 1 -15 7 -27 14 -27 7 0 18 -10 24 -22 l12 -22 20 25 c15 18 16 25
6 27 -8 2 -22 14 -32 28 -23 31 -9 54 32 54 18 0 30 8 38 25 10 24 9 25 -18
25 -22 0 -32 -6 -39 -25z"/>
<path d="M2781 1767 c2 -1 12 -9 22 -16 15 -12 17 -12 11 3 -3 9 -13 16 -22
16 -8 0 -13 -1 -11 -3z"/>
<path d="M2555 1733 c3 -4 -4 -12 -16 -19 -22 -11 -22 -11 4 -16 21 -4 26 -2
24 13 -2 10 -6 21 -10 24 -4 3 -5 2 -2 -2z"/>
<path d="M2634 1706 c-17 -27 -17 -29 1 -59 10 -18 32 -44 49 -59 23 -21 26
-26 11 -22 -18 5 -18 4 2 -13 16 -12 21 -25 17 -39 -5 -19 -1 -22 29 -26 20
-2 35 -1 35 2 -1 3 2 12 5 20 3 8 7 24 9 34 2 13 19 25 53 36 40 13 51 22 53
41 2 13 8 34 14 47 10 19 9 25 -2 32 -19 12 -30 12 -30 1 0 -5 -9 -13 -20 -16
-11 -3 -20 -15 -20 -26 0 -22 -56 -60 -77 -52 -20 8 -67 56 -91 94 l-20 32
-18 -27z"/>
<path d="M1667 1703 c-10 -9 -9 -23 2 -23 5 0 11 7 15 15 5 15 -5 20 -17 8z"/>
<path d="M1705 1700 c-3 -6 1 -7 9 -4 18 7 21 14 7 14 -6 0 -13 -4 -16 -10z"/>
<path d="M1572 1625 c-11 -8 -23 -28 -27 -44 -3 -16 -12 -32 -19 -34 -8 -3
-13 -17 -13 -32 0 -14 -10 -36 -21 -48 -13 -14 -18 -27 -13 -35 11 -18 47 -2
89 39 28 27 33 37 28 62 -4 21 -1 36 10 49 12 12 13 18 4 18 -7 0 -10 7 -7 15
9 21 -7 26 -31 10z"/>
<path d="M2587 1598 c-11 -5 -32 -7 -48 -4 -34 7 -41 -17 -9 -34 10 -6 17 -17
14 -24 -3 -9 3 -17 15 -21 25 -8 27 -18 6 -35 -23 -19 0 -30 50 -23 55 7 73
25 56 56 -7 13 -11 32 -9 42 4 26 -50 58 -75 43z"/>
<path d="M2440 1566 c0 -8 5 -18 10 -21 6 -3 10 3 10 14 0 12 -4 21 -10 21 -5
0 -10 -6 -10 -14z"/>
<path d="M2046 1512 c-2 -4 4 -8 14 -8 10 0 16 4 14 8 -3 4 -9 8 -14 8 -5 0
-11 -4 -14 -8z"/>
<path d="M2320 1486 c0 -9 30 -14 35 -6 4 6 -3 10 -14 10 -12 0 -21 -2 -21 -4z"/>
<path d="M2352 1454 c-18 -8 -42 -16 -54 -18 -24 -3 -47 -31 -35 -42 4 -4 17
3 28 15 12 13 24 19 28 14 3 -4 19 -9 35 -10 16 -1 34 -7 40 -13 16 -17 -29
-50 -68 -50 -26 -1 -28 -2 -13 -11 21 -12 57 -2 74 20 10 14 12 12 18 -12 4
-15 12 -27 17 -27 17 0 2 -77 -21 -106 -12 -16 -18 -31 -13 -36 12 -12 81 33
82 53 0 9 17 32 39 52 35 32 42 34 92 30 l54 -3 -32 17 c-36 18 -41 37 -17 71
14 21 14 22 -6 22 -12 0 -29 4 -38 9 -25 13 -56 -12 -49 -39 4 -16 2 -20 -10
-16 -8 3 -27 9 -41 12 -41 10 -63 33 -56 60 7 28 -5 30 -54 8z m128 -95 l25
-20 -25 6 c-14 4 -32 13 -40 21 -24 23 10 17 40 -7z"/>
<path d="M2110 1440 c-8 -5 -11 -12 -7 -16 4 -4 0 -18 -8 -31 -30 -45 6 -59
45 -18 18 19 30 24 52 20 20 -4 27 -2 23 5 -4 6 -2 17 4 24 9 11 6 15 -11 20
-34 9 -81 7 -98 -4z"/>
<path d="M2760 1395 c-6 -15 -13 -31 -15 -35 -3 -4 1 -13 9 -19 10 -9 17 -7
27 6 12 15 12 16 -1 8 -12 -6 -12 -5 -4 4 9 10 18 9 41 -3 31 -15 78 -11 67 6
-7 11 -55 32 -68 29 -5 -1 -17 6 -27 15 -17 16 -19 15 -29 -11z"/>
<path d="M2650 1355 c0 -8 2 -15 4 -15 2 0 11 -3 19 -6 12 -4 14 0 10 15 -6
24 -33 29 -33 6z"/>
<path d="M2758 1254 c-9 -9 3 -44 16 -44 22 0 39 18 33 34 -6 15 -38 22 -49
10z"/>
<path d="M3018 1223 c7 -3 16 -2 19 1 4 3 -2 6 -13 5 -11 0 -14 -3 -6 -6z"/>
<path d="M2645 1170 c-3 -5 1 -10 10 -10 9 0 13 5 10 10 -3 6 -8 10 -10 10 -2
0 -7 -4 -10 -10z"/>
<path d="M3350 1150 c-8 -5 -12 -10 -8 -10 4 0 1 -12 -7 -26 -10 -20 -11 -32
-3 -50 13 -28 37 -32 40 -6 2 32 4 37 11 50 5 7 4 12 -2 12 -6 0 -11 8 -11 18
0 15 2 15 11 2 9 -12 10 -12 7 -1 -5 19 -19 23 -38 11z"/>
<path d="M2115 1120 c3 -5 10 -10 16 -10 5 0 9 5 9 10 0 6 -7 10 -16 10 -8 0
-12 -4 -9 -10z"/>
<path d="M2407 1113 c-11 -11 -8 -20 8 -20 8 0 15 6 15 14 0 14 -12 17 -23 6z"/>
</g>
</svg>
