<?xml version="1.0" standalone="no"?>
<!DOCTYPE svg PUBLIC "-//W3C//DTD SVG 20010904//EN"
 "http://www.w3.org/TR/2001/REC-SVG-20010904/DTD/svg10.dtd">
<svg version="1.0" xmlns="http://www.w3.org/2000/svg"
 width="450.000000pt" height="253.000000pt" viewBox="0 0 450.000000 253.000000"
 preserveAspectRatio="xMidYMid meet">
<metadata>
Created by potrace 1.16, written by Peter Selinger 2001-2019
</metadata>
<g transform="translate(0.000000,253.000000) scale(0.100000,-0.100000)"
fill="#000000" stroke="none">
<path d="M0 1265 l0 -1265 2250 0 2250 0 0 1265 0 1265 -2250 0 -2250 0 0
-1265z m3240 749 c79 -8 189 -34 231 -55 36 -18 79 -75 79 -105 0 -8 -7 -17
-15 -20 -27 -11 20 -61 73 -78 46 -16 107 -67 130 -111 17 -32 -29 -112 -76
-132 -39 -16 -47 -21 -99 -54 l-33 -21 33 -51 c46 -73 60 -112 61 -169 1 -37
-3 -52 -16 -59 -10 -6 -18 -16 -18 -24 0 -20 -73 -55 -101 -49 -13 3 -40 8
-59 11 -19 3 -37 7 -39 9 -2 2 -13 -1 -24 -7 -14 -8 -18 -8 -13 0 4 7 -1 11
-13 11 -11 0 -22 -4 -26 -9 -3 -6 -14 -8 -25 -5 -11 2 -29 6 -40 8 -11 3 -20
1 -20 -4 0 -11 -120 -4 -182 11 -27 6 -48 16 -48 21 0 6 -7 8 -15 4 -8 -3 -15
-1 -15 3 0 5 -12 14 -27 19 -18 7 -22 11 -10 11 9 1 25 6 35 12 13 8 39 8 90
2 45 -6 75 -6 79 0 3 5 9 3 14 -4 7 -11 9 -10 9 4 0 9 6 17 14 17 8 0 16 7 19
14 4 11 1 13 -10 9 -13 -5 -71 -7 -112 -4 -7 1 -11 7 -8 14 8 20 -15 32 -64
32 -36 1 -46 -2 -41 -13 4 -12 -9 -13 -84 -7 -114 9 -104 7 -140 30 -63 40
-139 164 -116 187 8 8 9 15 1 25 -9 9 -8 18 2 31 7 9 9 14 5 10 -18 -16 -34
41 -31 113 2 56 8 83 25 112 12 21 20 41 16 44 -3 4 6 19 20 35 l27 27 -29 -9
c-16 -5 -73 -17 -127 -26 -54 -9 -96 -19 -93 -21 2 -3 -3 -13 -12 -22 -10 -10
-21 -25 -27 -35 -7 -11 -25 -18 -52 -19 -37 -2 -43 0 -44 18 -1 35 -19 -22
-22 -69 -2 -35 -5 -41 -22 -38 -11 1 -29 3 -40 4 -11 1 -30 10 -43 19 -13 10
-30 15 -38 12 -24 -9 -16 24 11 45 14 11 25 25 25 31 0 6 7 11 15 11 21 0 19
13 -6 29 -18 11 -23 11 -30 0 -13 -22 -22 16 -12 48 16 47 65 66 183 71 123 4
328 -12 343 -27 6 -6 18 -11 26 -11 12 0 11 3 -3 13 -52 38 47 101 194 123 19
2 62 9 95 14 56 8 136 6 265 -6z m-1083 -391 c30 13 74 1 66 -18 -3 -10 -12
-13 -24 -10 -10 4 -26 2 -36 -3 -15 -9 -14 -11 5 -23 30 -19 28 -38 -3 -34
-15 1 -25 -3 -25 -11 0 -7 -9 -29 -21 -49 -17 -29 -18 -34 -5 -29 9 3 16 12
16 19 0 7 6 15 14 18 13 5 13 1 0 -28 -8 -19 -14 -42 -14 -51 0 -9 -8 -23 -17
-30 -10 -7 -18 -18 -18 -25 0 -7 -6 -14 -14 -17 -10 -3 -12 6 -8 44 3 27 9 74
12 104 4 30 10 71 16 90 5 19 9 49 10 65 l1 30 11 -26 c10 -22 15 -25 34 -16z
m218 -13 c3 -5 1 -10 -4 -10 -6 0 -11 5 -11 10 0 6 2 10 4 10 3 0 8 -4 11 -10z
m-145 -60 c-19 -13 -30 -13 -30 0 0 6 10 10 23 10 18 0 19 -2 7 -10z m-33
-122 c-3 -7 -5 -2 -5 12 0 14 2 19 5 13 2 -7 2 -19 0 -25z m-20 -570 c-2 -18
-4 -6 -4 27 0 33 2 48 4 33 2 -15 2 -42 0 -60z"/>
<path d="M3210 1845 c0 -8 5 -15 12 -15 6 0 8 -3 5 -7 -12 -11 52 -50 80 -49
16 1 33 -5 38 -11 6 -8 15 -9 24 -4 11 7 10 12 -8 27 -12 11 -25 19 -29 19 -4
1 -17 6 -29 13 -13 7 -23 9 -24 5 0 -4 -5 3 -10 16 -8 20 -11 22 -26 10 -12
-10 -14 -10 -9 -1 4 7 1 12 -8 12 -9 0 -16 -7 -16 -15z"/>
<path d="M2232 1780 c3 -8 2 -27 -3 -42 -5 -20 -3 -31 12 -44 15 -13 19 -14
20 -3 3 33 -4 65 -18 84 -8 11 -13 13 -11 5z"/>
<path d="M3313 1731 c-19 -8 -33 -22 -33 -32 0 -10 -3 -24 -6 -33 -11 -28 14
-17 28 12 9 19 21 27 38 27 18 0 26 6 28 21 3 24 -10 25 -55 5z"/>
<path d="M3372 1710 c-7 -12 -16 -19 -20 -16 -11 7 -67 -85 -67 -109 0 -13 5
-19 15 -16 8 2 25 4 37 4 17 1 20 4 12 18 -6 11 -5 20 1 24 5 3 10 1 10 -6 0
-7 3 -9 7 -6 3 4 -4 19 -18 34 l-24 27 29 -18 c16 -10 26 -13 22 -8 -3 6 -2
13 3 16 6 4 13 76 6 76 0 0 -6 -9 -13 -20z m8 -34 c0 -23 -16 -27 -31 -8 -13
16 -13 16 5 2 18 -14 19 -13 13 3 -3 9 -2 17 3 17 6 0 10 -6 10 -14z m-42 -72
c0 -17 -3 -22 -8 -13 -5 6 -6 19 -3 28 3 12 0 11 -11 -3 -9 -11 -16 -15 -16
-10 0 14 22 34 30 29 4 -3 8 -16 8 -31z"/>
<path d="M3240 1590 c0 -5 5 -10 10 -10 6 0 10 5 10 10 0 6 -4 10 -10 10 -5 0
-10 -4 -10 -10z"/>
<path d="M3272 1534 c-7 -8 -10 -14 -7 -14 3 0 -4 -10 -15 -22 -26 -28 -23
-69 7 -84 13 -6 22 -13 20 -15 -1 -2 2 -1 7 3 6 4 19 0 30 -10 11 -9 16 -11
12 -4 -6 11 19 18 47 13 5 -1 6 3 2 9 -3 6 -12 7 -18 3 -8 -5 -8 -2 0 9 7 8
10 18 6 21 -3 4 -1 12 5 20 7 8 7 18 2 27 -7 11 -10 11 -11 3 -1 -7 -2 -17 -3
-23 -2 -18 -19 -16 -22 3 -1 9 2 15 7 11 19 -11 8 23 -13 41 -29 24 -40 26
-56 9z m46 -129 c-3 -3 -9 2 -12 12 -6 14 -5 15 5 6 7 -7 10 -15 7 -18z"/>
<path d="M3346 1378 c3 -5 10 -6 15 -3 13 9 11 12 -6 12 -8 0 -12 -4 -9 -9z"/>
<path d="M3141 1331 c-9 -6 -4 -10 18 -13 24 -4 28 -2 20 9 -13 15 -19 16 -38
4z"/>
<path d="M3251 1294 c0 -11 3 -14 6 -6 3 7 2 16 -1 19 -3 4 -6 -2 -5 -13z"/>
<path d="M3120 1291 c0 -5 7 -11 15 -15 8 -3 15 -1 15 3 0 5 -7 11 -15 15 -8
3 -15 1 -15 -3z"/>
<path d="M3090 1270 c-9 -6 -10 -10 -3 -10 6 0 15 5 18 10 8 12 4 12 -15 0z"/>
<path d="M2110 1530 c0 -5 5 -10 11 -10 5 0 7 5 4 10 -3 6 -8 10 -11 10 -2 0
-4 -4 -4 -10z"/>
</g>
</svg>
