<?xml version="1.0" standalone="no"?>
<!DOCTYPE svg PUBLIC "-//W3C//DTD SVG 20010904//EN"
 "http://www.w3.org/TR/2001/REC-SVG-20010904/DTD/svg10.dtd">
<svg version="1.0" xmlns="http://www.w3.org/2000/svg"
 width="450.000000pt" height="253.000000pt" viewBox="0 0 450.000000 253.000000"
 preserveAspectRatio="xMidYMid meet">
<metadata>
Created by potrace 1.16, written by Peter Selinger 2001-2019
</metadata>
<g transform="translate(0.000000,253.000000) scale(0.100000,-0.100000)"
fill="#000000" stroke="none">
<path d="M0 1265 l0 -1265 2250 0 2250 0 0 1265 0 1265 -2250 0 -2250 0 0
-1265z m3221 740 c198 -28 275 -59 308 -121 23 -43 20 -79 -7 -69 -13 5 -13 3
0 -16 8 -12 38 -31 66 -42 52 -20 98 -56 126 -99 14 -22 13 -28 -10 -77 -22
-45 -33 -56 -77 -76 -29 -13 -63 -33 -76 -43 l-23 -19 35 -49 c60 -85 72 -160
32 -214 -49 -66 -64 -71 -217 -68 -83 2 -138 7 -138 13 0 6 -4 4 -9 -4 -16
-25 -165 -10 -239 24 -60 28 -75 41 -49 42 6 1 35 3 62 6 28 2 59 1 70 -3 10
-4 31 -1 45 7 14 7 33 13 43 13 10 0 16 4 13 8 -3 5 -25 7 -50 6 -25 -1 -48 1
-50 5 -8 13 10 32 32 34 14 1 18 5 12 13 -6 6 -7 13 -4 16 2 3 -2 8 -11 12
-11 4 -14 2 -9 -7 4 -6 4 -9 -1 -5 -4 4 -14 3 -20 -2 -9 -8 -14 -5 -18 10 -3
12 -1 18 5 14 5 -3 18 3 28 14 16 17 17 21 4 26 -9 3 -12 1 -9 -4 3 -6 -3 -10
-14 -10 -11 0 -23 -5 -26 -11 -4 -6 -13 -8 -20 -5 -21 8 -26 -6 -9 -25 9 -10
21 -16 27 -12 6 4 7 1 2 -7 -5 -8 -20 -10 -47 -6 -36 6 -38 5 -28 -13 12 -24
-9 -31 -55 -19 -16 4 -52 8 -80 9 -66 2 -87 11 -138 58 -57 53 -93 124 -79
157 7 15 8 25 1 29 -5 4 -7 11 -4 16 4 5 1 9 -5 9 -6 0 -8 5 -5 10 3 6 2 10
-2 10 -8 0 -14 26 -14 55 0 92 5 124 23 152 12 20 17 42 14 55 -3 13 -3 17 0
11 3 -7 10 -13 15 -13 6 0 7 5 4 10 -3 6 -1 10 4 10 6 0 11 7 11 15 0 8 9 19
20 25 22 12 27 31 8 27 -26 -5 -12 38 19 59 26 18 149 49 263 67 56 9 152 6
251 -8z m-731 -102 c0 -5 35 -9 77 -10 75 -2 107 -14 87 -32 -5 -5 -58 -19
-119 -30 -87 -17 -114 -26 -127 -44 -10 -12 -18 -27 -18 -33 0 -15 -24 -24
-64 -24 -25 0 -36 7 -50 31 -10 17 -20 28 -23 26 -2 -3 1 -14 8 -24 8 -14 9
-28 2 -49 l-10 -29 -7 41 c-8 45 -50 104 -59 81 -3 -8 3 -21 14 -30 15 -13 17
-22 9 -42 -8 -20 -6 -29 9 -44 11 -11 21 -17 24 -15 9 9 15 -23 7 -36 -6 -10
-14 -10 -39 3 -22 11 -31 12 -31 4 0 -7 -7 -3 -15 7 -9 12 -26 19 -44 18 -22
0 -28 3 -24 14 9 24 44 38 55 23 8 -11 9 -10 5 3 -4 10 1 18 13 21 35 9 4 66
-38 70 -11 0 -19 6 -18 12 10 53 35 71 84 61 26 -5 26 -5 -3 8 l-30 14 30 5
c53 7 295 7 295 0z m-358 -282 c41 11 83 2 68 -16 -6 -7 -18 -11 -28 -9 -9 2
-24 0 -32 -6 -13 -9 -13 -11 0 -20 8 -5 26 -10 40 -10 23 -1 23 -2 7 -11 -20
-12 -38 -16 -77 -19 -19 -2 -20 -4 -7 -7 17 -4 17 -6 2 -30 -13 -20 -14 -28
-4 -37 9 -8 10 -8 6 0 -4 7 0 15 9 18 12 5 15 2 9 -11 -4 -10 -13 -31 -19 -48
-6 -16 -17 -34 -24 -38 -11 -7 -11 -11 0 -25 8 -10 9 -13 1 -9 -6 4 -15 2 -19
-5 -16 -26 -19 26 -8 118 15 112 38 209 42 177 3 -19 7 -20 34 -12z m38 -227
c0 -8 -4 -12 -10 -9 -5 3 -10 13 -10 21 0 8 5 12 10 9 6 -3 10 -13 10 -21z"/>
<path d="M3224 1836 c1 -8 12 -28 24 -44 18 -23 28 -28 52 -24 37 5 40 -14 6
-30 -27 -12 -40 -34 -30 -50 3 -5 11 -2 18 8 10 12 15 14 20 5 10 -15 -13 -43
-27 -34 -6 3 -7 1 -3 -5 4 -6 1 -20 -6 -31 -9 -15 -9 -25 1 -48 12 -27 13 -27
27 -8 9 12 14 14 14 5 0 -7 3 -10 6 -7 4 3 15 2 25 -4 17 -9 18 -7 9 17 -9 22
-8 25 6 20 27 -10 36 4 19 31 -10 14 -12 22 -6 19 10 -7 16 7 11 29 -8 38 -8
45 1 40 5 -4 9 -15 9 -25 0 -10 5 -22 10 -25 6 -3 10 -12 10 -18 0 -7 -4 -6
-11 3 -9 13 -10 12 -5 -3 4 -13 2 -16 -7 -11 -6 4 -8 3 -4 -1 14 -16 34 -13
34 4 2 26 -26 80 -47 91 -11 6 -17 16 -14 24 3 7 -6 23 -20 34 -14 11 -26 25
-26 32 0 7 -8 10 -19 7 -10 -2 -26 0 -36 6 -14 7 -16 7 -10 -4 6 -11 5 -12 -6
-1 -17 16 -28 15 -25 -2z m151 -206 c10 -11 16 -20 13 -20 -3 0 -13 9 -23 20
-10 11 -16 20 -13 20 3 0 13 -9 23 -20z"/>
<path d="M3233 1603 c-18 -7 -16 -23 2 -23 8 0 15 7 15 15 0 8 -1 15 -2 14 -2
0 -9 -3 -15 -6z"/>
<path d="M3265 1546 c-48 -54 -61 -112 -34 -147 11 -13 17 -16 13 -7 -6 18 10
19 35 4 11 -7 12 -6 6 5 -8 12 -6 12 9 0 13 -11 14 -16 4 -22 -8 -5 -9 -9 -2
-9 7 0 9 -11 6 -25 -8 -42 26 -19 38 26 6 21 13 39 16 39 3 0 2 -10 -1 -22 -5
-18 -4 -20 4 -8 10 13 15 8 12 -12 0 -4 6 -5 14 -1 14 5 14 7 1 17 -21 16 -26
74 -6 61 6 -3 10 -3 11 2 0 4 2 19 5 32 4 21 3 22 -13 10 -11 -9 -14 -10 -9
-1 4 7 1 12 -9 12 -9 0 -14 4 -11 8 3 5 -8 8 -23 7 -20 -1 -28 2 -24 11 7 18
-29 35 -42 20z"/>
<path d="M3380 1410 c6 -11 13 -20 16 -20 2 0 0 9 -6 20 -6 11 -13 20 -16 20
-2 0 0 -9 6 -20z"/>
<path d="M3345 1351 c-3 -5 -2 -12 3 -15 5 -3 9 1 9 9 0 17 -3 19 -12 6z"/>
<path d="M3129 1317 c0 -1 -2 -10 -4 -20 -3 -13 3 -17 26 -15 16 1 29 5 29 8
0 4 -49 30 -51 27z"/>
</g>
</svg>
