<?xml version="1.0" standalone="no"?>
<!DOCTYPE svg PUBLIC "-//W3C//DTD SVG 20010904//EN"
 "http://www.w3.org/TR/2001/REC-SVG-20010904/DTD/svg10.dtd">
<svg version="1.0" xmlns="http://www.w3.org/2000/svg"
 width="450.000000pt" height="253.000000pt" viewBox="0 0 450.000000 253.000000"
 preserveAspectRatio="xMidYMid meet">
<metadata>
Created by potrace 1.16, written by Peter Selinger 2001-2019
</metadata>
<g transform="translate(0.000000,253.000000) scale(0.100000,-0.100000)"
fill="#000000" stroke="none">
<path d="M0 1265 l0 -1265 2250 0 2250 0 0 1265 0 1265 -2250 0 -2250 0 0
-1265z m3247 1213 c54 -37 66 -49 92 -98 28 -54 34 -105 16 -143 -8 -18 -22
-62 -29 -97 -8 -36 -18 -74 -21 -85 -5 -18 3 -24 65 -48 66 -26 110 -29 110
-6 0 5 27 9 60 9 61 0 114 -16 140 -42 20 -18 97 -58 115 -58 18 0 69 -43 96
-82 16 -22 19 -32 10 -41 -6 -6 -11 -22 -11 -37 -1 -31 -35 -75 -88 -109 -22
-14 -65 -45 -96 -69 -67 -51 -130 -81 -169 -82 -40 0 -71 -18 -58 -33 18 -23
18 -71 0 -104 -10 -18 -15 -33 -10 -33 5 0 12 -15 15 -32 3 -18 9 -44 12 -58
27 -112 6 -233 -46 -272 -17 -12 -30 -28 -30 -35 0 -7 -7 -13 -15 -13 -8 0
-23 -5 -33 -11 -16 -10 -87 1 -222 36 -21 6 -106 19 -112 17 -4 -1 -36 -4 -72
-7 -93 -8 -119 5 -242 120 -71 67 -134 115 -150 115 -23 0 -64 39 -64 60 0 9
-3 20 -7 24 -5 4 -8 11 -9 14 0 4 -7 23 -16 42 -56 125 -68 151 -68 155 0 3 0
16 0 30 0 23 -4 25 -41 25 -22 0 -38 -4 -35 -8 7 -11 -11 -38 -20 -29 -4 4 -2
18 4 32 7 14 12 41 12 60 0 35 17 42 42 17 9 -9 8 -12 -6 -12 -27 0 -13 -25
17 -28 23 -3 26 1 32 40 7 51 -14 121 -38 126 -21 4 -22 -21 -2 -38 21 -17 19
-35 -5 -37 -12 -1 -20 5 -21 15 -1 9 -3 28 -6 42 -2 14 -4 35 -4 47 1 12 -9
29 -20 37 -25 17 -20 41 17 81 20 22 36 28 85 32 54 4 64 9 94 41 27 29 35 46
35 77 1 22 3 50 6 62 5 28 43 93 55 93 5 0 11 11 15 24 7 31 40 61 85 80 20 8
39 22 42 31 4 8 13 15 21 15 19 0 116 52 197 106 126 83 198 94 276 42z m-894
-1005 c-5 -10 -8 -25 -7 -33 1 -8 2 -21 3 -27 2 -20 21 -15 22 5 1 16 2 16 6
-1 6 -24 -41 -69 -56 -54 -8 8 -11 7 -11 -3 -1 -11 -4 -11 -14 3 -18 23 -6 68
26 102 27 29 42 32 31 8z m-68 -372 c3 -5 2 -12 -3 -15 -5 -3 -9 1 -9 9 0 17
3 19 12 6z m91 -486 c-2 -41 -6 -78 -9 -82 -4 -3 -5 27 -3 68 5 91 5 89 10 89
2 0 3 -34 2 -75z m-7 -267 c-1 -95 -4 -163 -7 -150 -4 13 -6 53 -5 90 0 37 2
104 2 150 1 45 3 82 6 82 3 0 5 -78 4 -172z"/>
<path d="M2662 1920 c-3 -8 -7 -18 -8 -21 -2 -3 8 -4 22 -1 14 2 22 7 20 10
-3 3 1 10 9 16 13 9 11 11 -11 11 -15 0 -29 -7 -32 -15z"/>
<path d="M3102 1913 c-6 -3 -10 -8 -7 -13 3 -5 -8 -3 -23 2 -17 7 -37 8 -48 3
-10 -4 -22 -7 -26 -7 -12 3 -9 -16 3 -24 7 -4 9 -24 6 -55 -6 -45 -4 -49 15
-49 12 0 18 5 16 13 -3 6 6 22 18 35 13 12 24 18 24 12 0 -5 7 -10 15 -10 25
0 17 -19 -16 -39 -18 -11 -26 -21 -20 -26 6 -3 9 -10 6 -15 -3 -5 5 -16 17
-24 23 -16 32 -66 14 -78 -22 -15 -38 -8 -33 12 4 15 -2 24 -24 35 -16 9 -29
13 -29 9 0 -4 -6 -1 -14 5 -16 13 -26 3 -46 -46 -13 -35 -24 -41 -36 -21 -4 6
-3 8 4 4 15 -9 21 15 9 38 -7 15 -6 22 7 31 8 7 13 15 9 18 -10 11 -25 8 -18
-3 3 -5 -1 -10 -9 -10 -20 0 -20 11 -1 57 8 20 13 38 11 40 -2 3 -21 0 -43 -6
-21 -6 -53 -11 -70 -11 -39 0 -41 -5 -10 -32 l22 -19 -25 5 c-14 3 -34 8 -45
11 -11 3 -29 -1 -40 -9 -19 -15 -19 -15 9 -16 32 0 91 -33 100 -55 3 -8 16
-15 30 -15 15 0 25 -7 29 -20 3 -11 1 -18 -4 -14 -5 3 -9 0 -9 -6 0 -6 -4 -8
-10 -5 -5 3 -10 -1 -10 -9 0 -9 5 -16 10 -16 6 0 10 -8 10 -17 0 -32 -38 18
-42 55 -5 42 -18 43 -41 1 -11 -19 -28 -44 -40 -56 l-20 -23 31 0 c18 0 32 -4
32 -10 0 -5 -11 -10 -25 -10 -24 0 -28 -5 -41 -48 -6 -22 -5 -26 11 -28 9 -1
27 -14 41 -27 l25 -25 -38 13 c-24 8 -44 10 -55 4 -26 -14 -55 -11 -55 6 0 8
6 15 14 15 24 0 -3 37 -32 44 -37 9 -28 24 38 59 57 31 64 40 48 66 -12 19
-39 7 -51 -24 -11 -29 -20 -32 -20 -7 0 11 9 29 20 42 26 30 26 33 -10 49 -25
10 -29 17 -24 34 6 22 6 22 -11 0 -9 -13 -23 -23 -31 -23 -8 0 -14 -10 -14
-25 0 -14 -9 -30 -19 -37 -15 -9 -17 -16 -9 -34 9 -18 16 -22 38 -17 15 3 31
0 34 -6 4 -6 0 -11 -9 -11 -11 0 -15 -5 -11 -15 3 -8 2 -15 -3 -15 -5 0 -7
-22 -5 -50 3 -39 0 -50 -11 -50 -8 0 -15 -3 -15 -6 0 -12 25 -51 49 -75 14
-14 37 -38 50 -53 13 -14 31 -26 40 -26 40 -1 68 -90 29 -96 -14 -2 -16 1 -8
16 8 15 6 20 -10 25 -15 5 -19 12 -15 26 9 28 -13 24 -26 -5 -7 -14 -17 -22
-24 -20 -7 3 -16 1 -19 -4 -4 -6 5 -9 19 -7 14 1 28 -2 31 -7 3 -4 10 -5 16
-2 6 4 8 2 5 -3 -4 -6 0 -16 8 -23 12 -10 13 -16 3 -29 -7 -9 -8 -13 -4 -9 5
4 22 -2 37 -13 16 -11 30 -19 30 -17 1 2 2 15 3 31 1 15 6 27 11 27 6 -1 9
-10 7 -20 -2 -11 2 -20 8 -20 6 0 9 -4 6 -8 -10 -16 83 -7 96 10 7 9 22 18 33
21 18 4 18 5 -2 6 -13 0 -23 5 -23 9 0 5 -15 10 -32 11 -18 2 -42 3 -52 4 -13
1 -27 19 -43 54 -16 34 -29 50 -38 47 -12 -5 -35 22 -32 36 3 10 -29 47 -55
64 -35 23 -36 39 -3 26 19 -7 26 -6 34 8 9 15 13 14 37 -10 23 -22 27 -35 26
-67 -3 -36 0 -42 30 -57 18 -9 40 -22 48 -29 24 -19 46 -24 61 -13 12 8 12 9
-1 6 -9 -3 -28 13 -48 40 -18 24 -27 40 -20 36 25 -16 48 -14 68 6 12 12 26
18 33 13 7 -4 21 -9 32 -11 19 -2 19 -2 1 11 -13 9 -15 16 -8 21 6 4 9 13 5
21 -3 10 2 15 16 15 12 0 29 9 38 20 10 11 22 20 28 20 6 0 16 -9 23 -20 13
-21 47 -27 57 -9 4 6 13 8 20 5 32 -12 68 81 41 103 -16 13 -61 7 -59 -7 2 -8
-5 -9 -20 -4 -12 4 -36 7 -52 6 -26 -1 -31 3 -31 23 0 27 -1 27 35 8 16 -8 32
-11 36 -7 5 4 5 1 1 -5 -10 -18 14 -16 38 2 10 8 22 12 26 10 4 -2 5 7 2 20
-4 21 -1 24 22 19 18 -3 26 0 26 10 0 7 8 16 19 19 23 6 35 59 15 70 -19 11
-18 41 1 57 12 10 13 15 4 20 -6 4 -8 13 -5 19 9 14 43 15 51 1 3 -5 14 -2 25
7 18 16 18 17 -7 36 -16 13 -23 26 -20 39 4 12 1 18 -6 15 -7 -3 -11 -10 -9
-16 2 -9 -3 -9 -17 -2 -10 6 -21 8 -24 4 -3 -3 -9 6 -12 20 -6 21 -14 25 -52
30 -25 3 -48 9 -52 14 -3 6 -12 8 -19 6z m15 -54 c-9 -6 -25 -9 -35 -8 -9 1
-25 -1 -35 -6 -20 -9 -32 -1 -22 14 3 6 30 11 58 11 41 -1 48 -3 34 -11z m38
-37 c-12 -12 -33 -10 -28 3 2 8 11 11 19 8 8 -3 12 -8 9 -11z m-317 -283 c-15
-9 -38 7 -38 27 0 12 5 11 26 -2 18 -13 22 -19 12 -25z m207 31 c-3 -5 -15
-10 -26 -10 -11 0 -17 5 -14 10 3 6 15 10 26 10 11 0 17 -4 14 -10z m-155 -68
c-8 -3 -27 -18 -42 -33 -24 -23 -28 -25 -28 -9 0 10 7 20 15 24 8 3 15 13 15
21 0 9 4 14 9 10 5 -3 13 0 16 6 5 8 10 7 19 -1 8 -10 7 -14 -4 -18z m-125 -2
c3 -5 1 -10 -4 -10 -6 0 -11 5 -11 10 0 6 2 10 4 10 3 0 8 -4 11 -10z m224
-65 c-12 -19 -25 -35 -30 -35 -14 0 -11 8 13 40 30 41 42 38 17 -5z m-59 6 c0
-10 -6 -21 -14 -24 -9 -4 -13 0 -11 11 2 9 4 20 4 25 2 16 21 6 21 -12z m21
-95 c-6 -7 -9 -16 -6 -20 3 -3 -1 -1 -8 5 -9 9 -9 12 1 16 6 3 9 10 6 15 -4 7
-2 8 5 4 8 -6 9 -12 2 -20z m-74 -12 c-3 -3 -12 -4 -19 -1 -8 3 -5 6 6 6 11 1
17 -2 13 -5z m-108 -181 c-1 -5 0 -10 1 -13 7 -19 7 -39 -1 -34 -5 3 -7 10 -4
15 4 5 -1 12 -10 15 -13 6 -14 8 -3 15 16 11 18 11 17 2z"/>
<path d="M2855 1891 c3 -6 14 -9 25 -8 24 2 15 17 -11 17 -11 0 -18 -4 -14 -9z"/>
<path d="M2544 1823 c-27 -37 -48 -71 -47 -75 2 -4 -2 -19 -7 -33 -7 -18 -7
-33 0 -46 16 -28 28 -23 36 15 3 19 15 42 25 52 10 9 19 23 19 31 0 7 11 18
25 23 19 7 25 17 25 40 0 20 5 30 15 30 20 0 19 16 -1 24 -31 12 -41 5 -90
-61z"/>
<path d="M2740 1811 c0 -14 5 -18 20 -14 11 3 20 7 20 9 0 2 -9 8 -20 14 -17
9 -20 8 -20 -9z"/>
<path d="M2810 1810 c0 -5 7 -10 16 -10 8 0 12 5 9 10 -3 6 -10 10 -16 10 -5
0 -9 -4 -9 -10z"/>
<path d="M3002 1729 c2 -6 8 -10 13 -10 5 0 11 4 13 10 2 6 -4 11 -13 11 -9 0
-15 -5 -13 -11z"/>
<path d="M2700 1676 c0 -2 7 -6 15 -10 8 -3 15 -1 15 4 0 6 -7 10 -15 10 -8 0
-15 -2 -15 -4z"/>
<path d="M2730 1645 c-10 -12 -10 -15 4 -15 9 0 16 7 16 15 0 8 -2 15 -4 15
-2 0 -9 -7 -16 -15z"/>
<path d="M3023 1334 c-4 -11 2 -23 17 -34 17 -13 19 -18 8 -22 -7 -3 -22 0
-33 8 -25 18 -35 18 -35 -2 0 -9 -7 -22 -17 -29 -20 -15 -11 -47 12 -39 9 4
15 1 16 -7 0 -8 4 -4 9 9 5 12 17 22 25 22 9 0 13 -5 10 -10 -4 -6 -11 -7 -17
-4 -7 5 -8 2 -3 -6 6 -10 14 -7 31 13 20 24 24 25 32 11 8 -15 13 -15 41 -3
37 17 39 28 5 52 -28 21 -34 19 -37 -11 0 -11 -4 -19 -8 -17 -3 3 -4 16 -1 30
8 43 -40 77 -55 39z"/>
<path d="M3265 1328 c5 -23 25 -49 25 -32 0 5 4 3 9 -4 7 -11 9 -10 14 3 5 11
3 14 -5 9 -7 -5 -9 -2 -5 8 3 10 -3 19 -18 26 -21 10 -23 9 -20 -10z m23 -23
c-3 -3 -9 2 -12 12 -6 14 -5 15 5 6 7 -7 10 -15 7 -18z"/>
<path d="M2925 1220 c3 -5 8 -10 11 -10 2 0 4 5 4 10 0 6 -5 10 -11 10 -5 0
-7 -4 -4 -10z"/>
<path d="M3077 1208 c-2 -7 -1 -22 4 -33 6 -16 8 -14 8 13 1 33 -4 41 -12 20z"/>
<path d="M2910 1180 c-7 -5 -2 -9 14 -12 15 -3 29 -2 31 2 7 11 -30 19 -45 10z"/>
<path d="M3107 1169 c7 -7 15 -10 18 -7 3 3 -2 9 -12 12 -14 6 -15 5 -6 -5z"/>
</g>
</svg>
