<?xml version="1.0" standalone="no"?>
<!DOCTYPE svg PUBLIC "-//W3C//DTD SVG 20010904//EN"
 "http://www.w3.org/TR/2001/REC-SVG-20010904/DTD/svg10.dtd">
<svg version="1.0" xmlns="http://www.w3.org/2000/svg"
 width="450.000000pt" height="253.000000pt" viewBox="0 0 450.000000 253.000000"
 preserveAspectRatio="xMidYMid meet">
<metadata>
Created by potrace 1.16, written by Peter Selinger 2001-2019
</metadata>
<g transform="translate(0.000000,253.000000) scale(0.100000,-0.100000)"
fill="#000000" stroke="none">
<path d="M0 1265 l0 -1265 2250 0 2250 0 0 1265 0 1265 -2250 0 -2250 0 0
-1265z m2681 1234 c30 -6 90 -11 134 -12 67 -2 88 -7 125 -29 103 -60 152
-163 163 -342 4 -57 18 -71 82 -79 38 -6 48 -3 71 18 29 27 39 29 124 26 64
-3 109 -17 205 -65 39 -20 74 -36 78 -36 16 0 87 -74 87 -91 0 -9 7 -20 16
-23 9 -3 12 -11 8 -18 -4 -7 -7 -27 -6 -45 4 -55 -22 -97 -125 -201 -108 -108
-133 -125 -232 -153 -35 -10 -69 -23 -74 -28 -5 -5 3 -20 18 -37 63 -68 88
-135 105 -282 10 -89 -2 -139 -36 -154 -13 -6 -24 -15 -24 -19 0 -12 -61 -39
-115 -51 -68 -16 -253 -16 -348 -1 -89 15 -188 46 -235 75 -20 12 -37 17 -43
11 -5 -5 -11 -49 -14 -98 -7 -107 -17 -128 -15 -30 2 105 2 104 -20 98 -28 -7
-43 -29 -42 -62 1 -38 -86 -124 -147 -146 -89 -31 -228 -5 -308 59 -38 31
-133 211 -133 253 0 14 -6 23 -16 23 -10 0 -15 8 -14 23 4 45 2 47 -36 31 -41
-17 -54 -12 -36 16 13 21 15 20 -97 35 -63 8 -189 63 -238 103 -23 18 -52 53
-63 78 -12 24 -26 46 -31 50 -5 3 -7 9 -4 14 3 4 -2 24 -10 44 -22 51 -19 80
15 139 33 58 74 99 164 160 l58 40 -42 40 c-71 68 -120 142 -151 229 -16 45
-29 94 -29 108 0 35 32 110 48 110 6 0 12 4 12 10 0 23 115 45 235 45 99 0
133 -4 195 -24 57 -18 99 -23 174 -24 l99 0 31 35 c72 82 192 152 301 174 78
16 74 16 136 3z m-50 -1790 c-5 -13 -10 -19 -10 -12 -1 15 10 45 15 40 3 -2 0
-15 -5 -28z m-4 -91 c-3 -7 -5 -2 -5 12 0 14 2 19 5 13 2 -7 2 -19 0 -25z
m-10 -80 c-3 -8 -6 -5 -6 6 -1 11 2 17 5 13 3 -3 4 -12 1 -19z m-2 -79 c-3
-12 -7 -24 -10 -27 -3 -3 -3 5 -1 19 6 30 5 29 10 29 3 0 3 -10 1 -21z"/>
<path d="M2266 2033 c-4 -5 -16 -8 -27 -8 -41 0 -16 -20 27 -22 26 -1 59 -4
74 -7 15 -2 33 0 41 5 10 6 9 8 -6 8 -40 -1 -79 8 -83 20 -4 13 -15 14 -26 4z"/>
<path d="M2443 1878 c-6 -7 -10 -21 -10 -30 0 -21 27 -33 27 -13 0 8 -5 15
-10 15 -7 0 -7 6 0 20 12 22 8 27 -7 8z"/>
<path d="M2400 1810 c-1 -8 -2 -21 -1 -29 2 -7 -1 -11 -6 -8 -4 3 -8 -9 -8
-26 0 -30 -2 -32 -34 -29 -31 3 -34 2 -21 -13 7 -9 19 -14 26 -11 8 3 22 -13
36 -41 21 -43 72 -88 89 -78 4 3 9 -1 12 -9 4 -9 -3 -16 -15 -20 -18 -4 -19
-7 -8 -21 10 -12 10 -22 2 -39 -10 -22 -9 -23 36 -21 69 3 82 11 79 52 -2 33
1 36 43 53 32 13 46 24 51 44 4 15 13 34 20 42 17 21 5 28 -22 13 -36 -19 -47
-33 -51 -65 -3 -27 -6 -29 -42 -26 -51 4 -90 25 -137 73 -44 45 -46 53 -21 71
11 7 19 20 20 28 0 8 3 25 6 37 4 20 2 21 -19 13 -19 -7 -25 -5 -28 8 -4 13
-5 14 -7 2z"/>
<path d="M2165 1720 c-8 -13 5 -57 21 -71 16 -13 64 -4 64 12 0 6 -4 8 -9 5
-4 -3 -16 3 -26 14 -10 11 -25 20 -33 20 -8 0 -12 6 -8 15 6 17 0 20 -9 5z"/>
<path d="M1852 1704 c-7 -8 -18 -11 -24 -8 -7 4 -8 2 -4 -5 4 -6 11 -9 16 -6
5 3 12 0 16 -6 5 -8 3 -9 -6 -4 -9 6 -12 4 -8 -7 4 -8 2 -21 -3 -29 -7 -11
-10 -12 -21 -1 -7 8 -8 12 -3 10 6 -2 11 2 12 7 3 14 -37 6 -54 -11 -8 -8 -18
-14 -22 -14 -5 0 -6 -11 -4 -24 4 -22 1 -25 -28 -29 -33 -4 -33 -4 6 -6 53 -2
74 -15 49 -30 -16 -9 -16 -12 -5 -20 7 -5 21 -7 30 -6 9 2 19 4 24 4 4 1 6 4
5 9 -2 12 14 42 21 38 6 -4 11 32 11 82 0 14 4 20 11 16 8 -4 8 -1 1 12 -5 11
-7 25 -5 32 6 16 1 15 -15 -4z"/>
<path d="M1501 1601 c-8 -5 -11 -16 -8 -24 3 -9 -4 -19 -19 -26 -25 -11 -34
-33 -11 -28 8 1 11 -8 10 -27 -2 -28 -2 -28 16 -10 10 10 19 21 19 24 0 3 0 7
1 10 4 9 11 90 8 90 -1 0 -8 -4 -16 -9z"/>
<path d="M2375 1580 c9 -14 -22 -24 -38 -13 -6 5 -18 8 -24 7 -7 -1 -18 -2
-24 -3 -6 0 -3 -8 5 -17 10 -9 24 -13 36 -9 11 4 20 2 20 -4 0 -6 -3 -10 -7
-10 -19 3 -33 -2 -33 -11 0 -16 78 -12 113 7 l32 16 -25 11 c-14 6 -29 16 -33
23 -4 7 -13 13 -18 13 -6 0 -7 -5 -4 -10z"/>
<path d="M2150 1470 c0 -22 -33 -40 -63 -34 -10 2 -20 -3 -24 -11 -3 -8 -10
-12 -17 -9 -6 3 -3 -1 7 -9 13 -11 27 -13 47 -7 16 5 32 4 38 -2 6 -6 12 -1
16 16 3 13 15 28 27 31 l21 7 -21 19 c-26 24 -31 24 -31 -1z"/>
<path d="M2329 1444 c-10 -13 -10 -17 0 -24 24 -14 70 7 71 33 0 14 -58 7 -71
-9z"/>
<path d="M1905 1421 c4 -14 -1 -25 -20 -37 -14 -9 -25 -20 -25 -23 0 -16 37
-7 67 15 17 13 38 24 47 24 8 0 18 5 21 10 7 12 -36 30 -71 30 -21 0 -24 -4
-19 -19z"/>
<path d="M2240 1391 c14 -11 31 -21 38 -21 6 0 12 -5 12 -11 0 -5 5 -7 11 -3
7 4 6 -3 -2 -17 -7 -13 -12 -26 -11 -29 1 -3 -8 -5 -18 -4 -11 0 -20 -3 -20
-8 0 -5 -10 -3 -22 3 -14 8 -18 14 -11 16 10 4 9 8 -1 19 -18 18 -64 17 -96
-1 l-25 -14 35 -8 c19 -4 43 -7 52 -7 9 1 29 -12 45 -29 15 -17 22 -26 14 -22
-11 6 -13 4 -7 -10 6 -16 4 -16 -11 -4 -13 11 -15 11 -9 1 5 -9 -1 -23 -18
-41 -17 -17 -24 -34 -20 -44 5 -13 11 -11 38 16 17 18 42 53 55 78 l22 46 57
-5 c47 -3 55 -2 45 9 -7 7 -13 23 -13 35 0 27 -19 44 -45 40 -11 -2 -29 1 -40
7 -11 6 -24 10 -28 9 -4 -1 -18 3 -30 9 -19 9 -19 8 3 -10z"/>
<path d="M2542 1358 c3 -7 21 -13 42 -14 20 -1 44 -8 52 -15 8 -6 17 -10 20
-7 3 3 -11 15 -31 26 -21 13 -35 17 -35 10 0 -9 -3 -9 -12 0 -16 16 -41 16
-36 0z"/>
<path d="M2440 1329 c-12 -22 -7 -49 9 -49 6 0 10 16 9 35 -1 41 -3 42 -18 14z"/>
<path d="M2176 1277 c5 -27 11 -32 27 -19 8 7 18 8 23 4 5 -4 1 2 -9 14 -22
27 -46 27 -41 1z m28 -8 c-3 -5 -10 -7 -15 -3 -5 3 -7 10 -3 15 3 5 10 7 15 3
5 -3 7 -10 3 -15z"/>
<path d="M2558 1193 c-16 -34 -42 -37 -46 -5 -2 12 -9 22 -16 22 -18 0 -56
-43 -56 -63 0 -11 -8 -17 -21 -17 -12 0 -19 -5 -17 -12 3 -8 19 -12 43 -9 60
5 76 9 95 26 9 8 23 15 31 15 9 0 23 6 33 13 15 11 17 17 7 35 -16 30 -37 28
-53 -5z"/>
<path d="M3280 1190 c-8 -5 -11 -10 -7 -10 5 0 0 -13 -9 -29 -17 -29 -17 -31
7 -75 13 -25 28 -47 34 -48 30 -4 41 -3 47 6 10 14 -2 66 -25 103 -10 18 -16
40 -13 48 6 17 -12 20 -34 5z"/>
<path d="M2940 1168 c12 -13 24 -22 28 -21 4 1 13 -4 21 -10 12 -9 13 -9 7 1
-4 7 -2 12 6 13 12 0 -58 37 -75 38 -4 1 2 -9 13 -21z"/>
<path d="M2899 1147 c6 -8 9 -16 6 -19 -3 -2 2 -5 10 -5 13 0 13 3 -2 19 -19
21 -31 25 -14 5z"/>
<path d="M2030 1085 c-12 -13 -19 -28 -15 -34 9 -16 25 -4 25 19 0 10 8 20 18
22 11 2 13 6 6 10 -6 4 -21 -3 -34 -17z"/>
<path d="M2860 1095 c7 -9 15 -13 18 -10 3 3 12 -1 21 -8 14 -11 14 -10 2 5
-7 10 -17 15 -22 12 -5 -3 -9 0 -9 5 0 6 -5 11 -11 11 -8 0 -7 -5 1 -15z"/>
<path d="M2197 1072 c-23 -25 -21 -32 7 -32 18 0 24 -5 22 -17 -1 -10 13 -32
31 -49 l32 -31 18 20 c10 11 12 17 6 13 -7 -4 -13 -2 -13 3 0 12 -68 104 -79
109 -4 1 -15 -6 -24 -16z"/>
<path d="M2396 985 c-11 -8 -15 -15 -9 -15 6 0 16 7 23 15 16 19 11 19 -14 0z"/>
<path d="M2323 953 c-22 -8 -15 -32 7 -28 11 2 20 -2 20 -8 0 -7 5 -4 11 6 5
9 15 17 22 17 7 0 6 -4 -3 -10 -8 -5 -11 -10 -6 -10 5 0 2 -8 -5 -17 -7 -10
-9 -15 -5 -11 5 4 16 2 25 -5 14 -10 14 -10 4 3 -8 10 -9 21 -3 30 9 14 11 13
14 -9 0 -5 5 -13 10 -18 6 -5 6 -2 1 6 -6 11 -4 13 9 8 10 -4 19 -1 23 9 3 8
12 13 19 10 11 -4 11 -2 1 14 -6 11 -13 16 -15 10 -2 -6 -9 -7 -15 -3 -14 8
-96 12 -114 6z m115 -27 c3 -15 1 -16 -17 -7 -30 17 -36 32 -9 28 13 -2 25
-12 26 -21z"/>
<path d="M2540 932 c-13 -10 -21 -24 -19 -30 3 -8 17 -1 39 17 39 33 20 45
-20 13z"/>
<path d="M2260 830 c0 -24 15 -27 24 -4 9 22 8 24 -9 24 -8 0 -15 -9 -15 -20z"/>
</g>
</svg>
