<?xml version="1.0" standalone="no"?>
<!DOCTYPE svg PUBLIC "-//W3C//DTD SVG 20010904//EN"
 "http://www.w3.org/TR/2001/REC-SVG-20010904/DTD/svg10.dtd">
<svg version="1.0" xmlns="http://www.w3.org/2000/svg"
 width="450.000000pt" height="253.000000pt" viewBox="0 0 450.000000 253.000000"
 preserveAspectRatio="xMidYMid meet">
<metadata>
Created by potrace 1.16, written by Peter Selinger 2001-2019
</metadata>
<g transform="translate(0.000000,253.000000) scale(0.100000,-0.100000)"
fill="#000000" stroke="none">
<path d="M0 1265 l0 -1265 2250 0 2250 0 0 1265 0 1265 -2250 0 -2250 0 0
-1265z m2667 1163 c15 -6 75 -12 133 -13 125 -2 160 -15 228 -83 54 -54 68
-79 106 -179 15 -39 33 -76 39 -81 7 -5 38 -16 70 -25 57 -15 58 -15 83 8 44
41 122 43 227 7 26 -9 47 -20 47 -24 0 -4 7 -8 15 -8 8 0 30 -9 50 -20 20 -11
42 -20 49 -20 16 0 106 -78 106 -92 0 -6 8 -17 18 -24 13 -11 14 -15 4 -22 -7
-5 -10 -16 -6 -25 3 -10 3 -33 -1 -53 -5 -28 -29 -59 -113 -143 -59 -58 -118
-113 -132 -122 -14 -9 -63 -28 -110 -43 -47 -15 -87 -29 -89 -31 -1 -2 8 -19
22 -37 42 -56 64 -110 75 -183 18 -122 -4 -221 -54 -244 -13 -6 -27 -18 -30
-26 -4 -8 -14 -15 -23 -15 -9 0 -22 -5 -28 -11 -16 -16 -142 -39 -218 -39
-122 0 -329 50 -400 96 -16 10 -25 12 -30 4 -3 -5 -21 -17 -40 -24 -18 -8 -38
-23 -43 -33 -13 -24 -34 -152 -27 -163 3 -5 1 -11 -4 -14 -5 -4 -8 13 -7 38 2
50 -8 50 -54 1 -31 -34 -112 -71 -191 -87 -53 -11 -65 -10 -127 10 -87 28
-120 62 -167 171 -32 75 -35 93 -33 155 3 59 6 71 20 71 10 0 23 6 30 14 11
11 8 13 -17 9 -16 -3 -37 -7 -45 -9 -8 -2 -15 3 -15 11 0 20 -27 28 -105 29
-111 2 -248 46 -324 105 -49 38 -85 77 -86 92 0 6 -7 17 -15 24 -8 7 -12 16
-9 21 3 5 0 26 -6 45 -30 90 69 225 223 304 26 14 55 32 63 41 13 15 12 18
-10 33 -42 27 -120 116 -142 162 -49 98 -71 213 -44 229 6 3 10 15 10 26 0 10
5 19 12 19 6 0 19 6 27 14 54 47 312 64 436 30 33 -9 103 -19 156 -21 85 -4
99 -2 110 14 27 36 112 97 168 119 63 26 170 32 218 12z m-80 -1720 c-3 -8 -6
-5 -6 6 -1 11 2 17 5 13 3 -3 4 -12 1 -19z m-93 -24 c3 -8 2 -12 -4 -9 -6 3
-10 10 -10 16 0 14 7 11 14 -7z"/>
<path d="M2430 2036 c0 -2 7 -7 16 -10 8 -3 12 -2 9 4 -6 10 -25 14 -25 6z"/>
<path d="M2400 2019 c0 -5 5 -7 10 -4 6 3 10 8 10 11 0 2 -4 4 -10 4 -5 0 -10
-5 -10 -11z"/>
<path d="M2560 2010 c-11 -7 -11 -10 -2 -10 8 0 10 -5 6 -12 -4 -7 -3 -9 1 -5
7 6 17 37 12 37 -1 0 -9 -5 -17 -10z"/>
<path d="M2580 1874 c0 -14 5 -34 10 -45 9 -16 6 -24 -15 -43 -14 -13 -25 -31
-25 -40 0 -9 -7 -19 -15 -22 -11 -5 -12 -10 -4 -26 8 -16 8 -19 -1 -13 -7 4
-1 -11 12 -34 12 -24 35 -49 51 -57 33 -18 36 -34 5 -27 -23 6 -23 6 2 -16 17
-16 24 -31 22 -50 -3 -26 -1 -28 35 -27 43 1 66 17 57 39 -8 22 14 57 35 57
27 0 71 38 71 61 0 11 7 28 16 37 15 15 15 16 -2 22 -20 7 -77 -17 -69 -30 8
-12 -15 -58 -32 -65 -19 -7 -93 13 -93 25 0 6 -13 22 -30 37 -35 31 -38 52
-10 76 12 10 20 12 20 5 0 -6 3 -8 6 -5 4 4 1 13 -5 21 -7 9 -8 17 -2 20 10 6
10 24 -1 41 -3 6 -9 27 -13 48 -8 42 -25 50 -25 11z"/>
<path d="M2820 1890 c18 -12 40 -13 40 -2 0 4 -12 9 -27 10 -22 1 -24 0 -13
-8z"/>
<path d="M2565 1821 c-3 -5 -2 -12 3 -15 5 -3 9 1 9 9 0 17 -3 19 -12 6z"/>
<path d="M2379 1797 c0 -1 -2 -10 -4 -20 -3 -15 -1 -16 13 -5 9 7 18 13 20 14
2 1 -4 4 -13 7 -8 4 -15 5 -16 4z"/>
<path d="M2317 1734 c-16 -16 -6 -67 17 -89 23 -22 24 -22 40 -3 19 22 20 28
3 28 -11 0 -36 29 -47 58 -3 7 -9 10 -13 6z"/>
<path d="M2457 1715 c2 -8 13 -13 23 -12 23 1 17 13 -9 20 -13 3 -18 1 -14 -8z"/>
<path d="M1983 1684 c4 -7 -5 -24 -20 -38 -19 -19 -23 -30 -16 -37 8 -8 13 -5
18 10 3 11 13 28 22 37 13 12 13 18 3 27 -9 8 -11 8 -7 1z"/>
<path d="M1530 1605 c-6 -8 -13 -21 -14 -30 -1 -9 -7 -20 -12 -23 -5 -4 -11
-20 -12 -36 -1 -16 -9 -37 -17 -47 -14 -15 -14 -17 -1 -22 9 -4 20 1 25 11 6
9 11 13 11 8 0 -22 40 45 40 69 0 14 4 34 9 43 13 24 -12 47 -29 27z"/>
<path d="M2504 1588 c-3 -5 -24 -8 -45 -6 -39 4 -55 -14 -24 -26 9 -3 15 -14
13 -23 -2 -10 2 -18 7 -18 6 0 16 -4 23 -9 7 -4 24 -5 38 -2 18 5 24 2 24 -10
0 -10 5 -14 15 -10 8 3 15 0 15 -7 0 -7 5 -4 11 7 9 14 8 20 -1 26 -7 4 -9 13
-6 19 4 6 5 20 1 30 -7 23 -61 45 -71 29z"/>
<path d="M1846 1582 c-3 -5 1 -9 9 -9 8 0 12 4 9 9 -3 4 -7 8 -9 8 -2 0 -6 -4
-9 -8z"/>
<path d="M1900 1580 c0 -6 -6 -8 -12 -4 -9 5 -9 3 1 -9 7 -9 18 -14 25 -10 6
3 8 3 4 -2 -10 -11 10 -45 27 -45 8 0 15 3 16 8 0 4 2 17 3 30 2 12 -4 28 -13
35 -12 9 -13 9 -7 0 9 -16 1 -16 -25 -3 -13 8 -19 7 -19 0z"/>
<path d="M2367 1479 c-9 -6 -22 -7 -29 -3 -7 4 -8 3 -4 -4 9 -14 26 -15 46 -2
20 13 9 21 -13 9z"/>
<path d="M2230 1469 c0 -5 5 -7 10 -4 6 3 10 8 10 11 0 2 -4 4 -10 4 -5 0 -10
-5 -10 -11z"/>
<path d="M2477 1469 c-9 -6 -15 -14 -12 -20 8 -12 56 -11 75 1 13 9 13 11 0
20 -19 12 -40 12 -63 -1z"/>
<path d="M2280 1451 c-8 -6 -17 -8 -21 -5 -13 8 -72 -24 -75 -40 -3 -20 -3
-20 32 -1 17 9 30 11 32 5 2 -6 17 -10 33 -10 16 0 29 -4 29 -10 0 -5 8 -10
17 -10 14 0 13 3 -5 16 -17 12 -20 19 -12 34 5 10 10 21 10 24 0 9 -23 7 -40
-3z"/>
<path d="M2044 1442 c-27 -3 -30 -6 -26 -27 3 -19 -1 -27 -22 -35 -14 -5 -26
-12 -26 -15 0 -4 5 -3 10 0 6 3 10 1 10 -4 0 -20 36 -11 60 14 13 14 33 25 44
25 12 0 27 10 35 23 7 12 10 19 7 15 -4 -3 -20 -3 -34 1 -15 3 -41 5 -58 3z"/>
<path d="M2426 1409 c3 -5 0 -9 -6 -9 -7 0 -5 -7 4 -16 28 -27 13 -42 -21 -21
-7 5 -13 4 -13 0 0 -5 12 -16 28 -25 20 -13 23 -18 9 -18 -9 0 -35 11 -57 25
-41 26 -70 32 -70 15 0 -5 -16 -12 -36 -16 -24 -4 -32 -10 -26 -16 7 -7 21 -7
43 1 37 13 45 7 55 -46 4 -24 0 -42 -16 -68 -28 -45 -14 -69 19 -36 12 12 25
21 30 21 4 0 19 23 32 50 26 54 25 54 124 51 l40 -1 -27 15 c-30 17 -38 57
-16 72 8 4 0 10 -22 15 -58 14 -80 16 -74 7z"/>
<path d="M2683 1393 c4 -3 0 -17 -9 -31 -8 -13 -13 -27 -9 -30 3 -4 10 0 15 8
6 8 10 11 10 7 0 -4 8 -4 17 2 12 6 26 5 45 -5 33 -17 55 -10 38 11 -6 8 -25
17 -41 20 -16 4 -31 11 -34 16 -4 5 -13 9 -22 9 -9 0 -13 -3 -10 -7z"/>
<path d="M2570 1340 c0 -11 5 -20 11 -20 5 0 7 -5 3 -12 -4 -7 -3 -8 4 -4 18
11 15 56 -3 56 -8 0 -15 -9 -15 -20z"/>
<path d="M2698 1242 c-10 -2 -18 -12 -18 -22 0 -19 -26 -46 -33 -33 -2 4 -3
16 -2 26 2 9 -2 17 -7 17 -16 0 -37 -32 -38 -58 0 -19 -5 -22 -26 -20 -15 2
-29 -3 -31 -9 -7 -20 43 -14 124 14 70 24 88 39 77 67 -7 17 -23 24 -46 18z"/>
<path d="M2950 1210 c0 -5 5 -10 11 -10 5 0 7 5 4 10 -3 6 -8 10 -11 10 -2 0
-4 -4 -4 -10z"/>
<path d="M3332 1153 c-12 -13 -22 -37 -22 -52 0 -28 34 -70 47 -58 11 12 21
97 10 90 -6 -4 -8 2 -5 15 9 32 -4 34 -30 5z"/>
<path d="M2328 1096 c-18 -13 -14 -26 8 -26 7 0 12 9 11 20 -1 11 -1 20 -2 20
0 0 -8 -7 -17 -14z"/>
<path d="M2576 944 c-9 -23 -2 -28 13 -10 7 8 8 17 3 20 -6 3 -13 -1 -16 -10z"/>
</g>
</svg>
