<?xml version="1.0" standalone="no"?>
<!DOCTYPE svg PUBLIC "-//W3C//DTD SVG 20010904//EN"
 "http://www.w3.org/TR/2001/REC-SVG-20010904/DTD/svg10.dtd">
<svg version="1.0" xmlns="http://www.w3.org/2000/svg"
 width="450.000000pt" height="253.000000pt" viewBox="0 0 450.000000 253.000000"
 preserveAspectRatio="xMidYMid meet">
<metadata>
Created by potrace 1.16, written by Peter Selinger 2001-2019
</metadata>
<g transform="translate(0.000000,253.000000) scale(0.100000,-0.100000)"
fill="#000000" stroke="none">
<path d="M0 1265 l0 -1265 2250 0 2250 0 0 1265 0 1265 -2250 0 -2250 0 0
-1265z m2618 613 c23 1 42 -3 42 -8 0 -6 3 -9 8 -8 16 3 112 -15 112 -21 0 -4
25 -15 55 -25 30 -9 55 -22 55 -27 0 -6 4 -8 9 -5 10 6 111 -58 154 -98 15
-14 27 -22 27 -18 0 4 5 0 10 -8 14 -22 12 -47 -5 -47 -8 0 -12 4 -9 9 3 4 1
8 -5 8 -5 0 -12 -4 -16 -10 -3 -5 -11 -7 -18 -5 -7 2 -30 6 -52 10 -89 12
-100 15 -110 28 -5 7 -18 11 -27 9 -10 -2 -18 1 -18 7 0 11 -72 82 -78 76 -2
-2 1 -13 8 -24 9 -19 8 -21 -13 -21 -13 0 -27 3 -30 6 -4 4 -35 9 -69 11 -44
2 -58 0 -48 -7 8 -5 26 -10 40 -10 l25 -1 -24 -20 c-23 -19 -25 -19 -44 -2
-11 10 -18 13 -14 8 3 -6 -3 -17 -15 -24 -15 -9 -18 -9 -13 0 6 9 1 10 -19 7
-14 -3 -26 -2 -26 3 0 4 -11 6 -24 3 -36 -6 -42 14 -12 45 14 15 26 30 26 33
0 4 -16 12 -36 18 -28 9 -34 16 -32 33 2 13 10 21 17 19 8 -2 18 2 22 9 9 14
119 19 119 5 0 -5 3 -6 7 -3 3 4 11 3 17 -3 8 -6 12 -3 12 10 0 11 -2 17 -5
15 -2 -3 -11 1 -19 8 -13 10 -14 9 -8 -1 7 -11 4 -12 -12 -3 -12 6 -24 16 -28
23 -5 7 -3 8 7 2 8 -5 33 -8 57 -6z m-573 -8 c-23 -4 -30 -8 -17 -9 13 0 20
-5 17 -11 -4 -6 11 -10 38 -10 30 0 47 -5 50 -14 4 -10 20 -14 54 -12 26 1 53
-1 59 -6 6 -4 11 -2 11 7 0 15 -23 19 -92 16 -27 -1 -28 0 -10 10 10 7 44 14
75 15 30 2 72 5 93 7 20 2 37 0 37 -5 0 -5 5 -6 10 -3 15 9 50 -4 50 -19 0
-13 -77 -53 -92 -48 -5 1 -8 -3 -8 -9 0 -6 -7 -8 -16 -5 -10 4 -13 2 -8 -6 5
-8 2 -9 -10 -5 -10 4 -15 3 -11 -3 3 -6 -1 -10 -11 -10 -13 0 -14 -3 -4 -15
20 -24 3 -55 -32 -55 -27 0 -29 2 -17 17 13 16 13 16 -11 0 -30 -21 -40 -21
-40 -3 0 8 -13 17 -29 21 -16 3 -35 13 -42 21 -6 8 -22 14 -35 14 -15 0 -24 6
-24 15 0 8 6 15 14 15 8 0 18 5 21 11 5 7 -7 8 -39 4 -40 -6 -45 -5 -40 9 3 9
14 16 23 16 14 0 14 2 1 10 -10 6 -16 6 -18 0 -7 -19 -30 -10 -25 8 3 14 -4
21 -29 29 -28 9 -20 11 57 11 68 -1 80 -3 50 -8z m-179 -51 c-1 -15 -3 -26 -5
-24 -2 3 -16 -2 -32 -10 -17 -9 -30 -11 -34 -5 -6 10 -35 3 -33 -8 1 -4 -4
-19 -10 -34 -9 -21 -18 -28 -40 -28 -17 0 -37 -9 -48 -22 -19 -21 -19 -21 3
-16 15 4 23 0 26 -14 5 -17 2 -19 -19 -15 -26 5 -33 -7 -9 -17 13 -5 13 -9 3
-28 -18 -31 -35 -48 -48 -48 -6 0 -8 -4 -5 -10 3 -5 -3 -15 -15 -22 -11 -7
-20 -16 -20 -20 0 -11 34 4 43 19 4 7 15 13 22 13 8 0 15 6 15 13 0 6 20 21
45 33 25 11 45 17 45 13 0 -4 -7 -10 -15 -13 -10 -4 -15 -16 -13 -33 3 -25 0
-28 -26 -28 -19 0 -34 -8 -44 -24 l-16 -24 31 17 c57 29 75 4 53 -75 -10 -35
-43 -58 -55 -38 -3 4 -12 6 -20 2 -8 -3 -15 0 -15 6 0 9 -5 9 -20 1 -21 -11
-25 -4 -20 49 1 14 -2 21 -9 17 -17 -11 -13 45 9 115 33 107 127 233 180 243
14 2 27 5 30 5 3 1 -1 5 -9 10 -11 7 -9 13 7 29 29 29 69 11 68 -29z m604 37
c0 -2 -9 -6 -20 -9 -11 -3 -18 -1 -14 4 5 9 34 13 34 5z m277 -207 l14 -24 -7
24 c-4 17 -2 22 7 19 8 -3 14 -10 14 -15 0 -6 4 -15 9 -20 5 -5 6 -3 2 5 -4 7
-1 12 8 12 9 0 16 -4 16 -9 0 -5 15 -8 33 -6 17 1 24 0 14 -2 -9 -3 -14 -9
-11 -15 5 -7 2 -8 -7 -2 -22 14 -80 14 -73 1 3 -7 -6 1 -19 17 -18 20 -26 24
-30 15 -4 -9 -6 -8 -6 5 -1 16 -3 17 -18 5 -16 -13 -17 -12 -5 3 17 22 41 17
59 -13z m-954 14 c-7 -2 -21 -2 -30 0 -10 3 -4 5 12 5 17 0 24 -2 18 -5z m807
-3 c0 -5 -5 -10 -11 -10 -5 0 -7 5 -4 10 3 6 8 10 11 10 2 0 4 -4 4 -10z m490
-74 c0 -8 -7 -16 -15 -20 -12 -4 -13 -2 -2 14 14 24 17 25 17 6z"/>
<path d="M2502 1695 c3 -3 19 -10 36 -14 23 -7 29 -6 26 3 -2 6 -19 13 -36 14
-18 2 -29 0 -26 -3z"/>
<path d="M2285 1820 c-3 -6 1 -7 9 -4 18 7 21 14 7 14 -6 0 -13 -4 -16 -10z"/>
<path d="M1817 1803 c6 -16 8 -16 23 1 9 12 8 15 -8 13 -12 0 -18 -6 -15 -14z"/>
<path d="M1795 1790 c3 -5 8 -10 11 -10 2 0 4 5 4 10 0 6 -5 10 -11 10 -5 0
-7 -4 -4 -10z"/>
<path d="M1635 1610 c-3 -6 1 -7 9 -4 18 7 21 14 7 14 -6 0 -13 -4 -16 -10z"/>
<path d="M1678 1430 c-17 -29 -17 -30 1 -20 10 5 21 19 24 30 8 30 -5 24 -25
-10z"/>
</g>
</svg>
