<?xml version="1.0" standalone="no"?>
<!DOCTYPE svg PUBLIC "-//W3C//DTD SVG 20010904//EN"
 "http://www.w3.org/TR/2001/REC-SVG-20010904/DTD/svg10.dtd">
<svg version="1.0" xmlns="http://www.w3.org/2000/svg"
 width="450.000000pt" height="253.000000pt" viewBox="0 0 450.000000 253.000000"
 preserveAspectRatio="xMidYMid meet">
<metadata>
Created by potrace 1.16, written by Peter Selinger 2001-2019
</metadata>
<g transform="translate(0.000000,253.000000) scale(0.100000,-0.100000)"
fill="#000000" stroke="none">
<path d="M0 1265 l0 -1265 2250 0 2250 0 0 1265 0 1265 -2250 0 -2250 0 0
-1265z m2972 704 c127 -26 294 -139 371 -251 40 -58 46 -88 22 -108 -8 -7 -15
-18 -15 -25 0 -28 -54 -75 -133 -118 -45 -25 -93 -48 -107 -52 l-25 -8 25 22
c14 13 19 20 13 16 -7 -3 -13 -2 -13 3 0 5 20 15 45 22 25 7 45 17 45 22 0 5
4 7 9 3 5 -3 12 -1 16 5 4 6 11 8 16 5 13 -9 11 9 -3 25 -11 12 -10 12 4 1 14
-10 18 -9 27 6 6 11 11 13 11 5 0 -7 5 -10 10 -7 8 5 7 12 -2 23 -7 9 -8 13
-3 10 14 -9 60 27 52 39 -9 14 -63 9 -84 -8 -9 -8 -14 -9 -10 -2 5 7 1 10 -10
8 -10 -1 -24 3 -32 9 -8 6 -12 7 -10 1 9 -17 -24 -40 -58 -41 -17 0 -29 4 -26
9 3 5 -9 6 -26 4 -17 -3 -31 -1 -31 4 0 6 -9 5 -21 -2 -13 -6 -19 -7 -15 -1 7
12 -42 10 -63 -2 -9 -6 -12 -5 -8 0 9 16 -50 35 -62 20 -11 -13 -69 -14 -89
-3 -6 4 -13 3 -16 -1 -7 -11 -56 -3 -75 12 -11 8 -13 8 -8 0 4 -7 -3 -10 -21
-8 -14 1 -28 8 -30 13 -2 6 -7 9 -12 6 -4 -2 -7 3 -7 13 0 54 -4 72 -15 69
-19 -3 -13 81 7 103 14 16 14 19 1 32 -11 12 -12 18 -3 27 6 6 7 11 2 11 -6 0
-21 -12 -34 -25 -13 -14 -29 -25 -37 -25 -8 0 -14 -4 -14 -10 0 -5 -4 -10 -10
-10 -36 0 52 69 161 126 77 40 193 53 291 33z m-737 -59 c-14 -6 -2 -8 40 -8
48 0 54 2 30 8 l-30 8 33 1 c23 1 32 -3 32 -14 0 -13 9 -15 58 -9 31 3 59 8
61 10 2 2 11 -4 19 -13 11 -10 17 -12 20 -4 5 16 32 14 32 -3 0 -13 -53 -33
-152 -57 -42 -10 -87 -39 -61 -39 6 0 8 -11 6 -24 -3 -14 -12 -25 -22 -25 -9
0 -35 -2 -58 -5 -31 -4 -42 -2 -40 7 1 7 6 15 11 18 4 4 -4 7 -18 7 -15 0 -36
8 -46 17 -11 10 -20 14 -20 9 -1 -5 -9 0 -18 11 -19 22 -42 30 -42 16 0 -5 5
-11 12 -13 8 -3 7 -6 -3 -10 -9 -4 -19 3 -26 19 -10 20 -9 24 2 19 8 -3 17 -1
20 4 4 6 2 10 -3 10 -5 0 -12 9 -15 20 -4 14 -14 20 -34 20 -19 0 -24 3 -15 9
8 4 48 9 90 10 42 1 78 4 81 7 2 2 20 4 40 3 29 0 32 -2 16 -9z m-259 -52 c2
-7 6 -23 10 -36 5 -17 3 -21 -9 -16 -8 3 -18 1 -22 -5 -3 -6 -12 -11 -18 -11
-7 0 -6 4 3 10 13 8 12 10 -2 10 -23 0 -24 37 -1 62 17 19 34 13 39 -14z m501
-109 c-30 -29 -46 -26 -33 7 6 15 46 35 58 28 4 -3 -7 -18 -25 -35z m-357 -11
c0 -17 -3 -18 -15 -8 -8 7 -15 19 -15 26 0 8 6 11 15 8 8 -4 15 -15 15 -26z
m-60 11 c0 -4 -10 -16 -23 -26 -40 -32 -42 -44 -5 -41 27 2 34 -1 36 -17 2
-15 -3 -21 -18 -22 -11 -1 -20 2 -20 7 0 5 -6 7 -13 4 -7 -2 -27 2 -43 11 -37
19 -64 19 -91 0 -14 -10 -19 -22 -16 -35 6 -23 5 -23 54 -11 21 5 42 5 49 1 7
-4 -3 -10 -25 -14 -35 -7 -37 -9 -32 -36 5 -25 2 -30 -23 -39 -34 -11 -41 -22
-10 -14 24 6 28 -18 5 -37 -8 -7 -15 -19 -15 -27 0 -13 3 -13 15 -3 23 19 19
-7 -8 -54 -16 -29 -29 -40 -48 -40 l-26 -2 -2 86 c-1 96 11 159 33 176 9 6 16
23 16 38 0 18 5 26 13 23 6 -2 29 7 50 20 28 17 47 22 67 18 21 -5 29 -2 35
12 5 10 8 20 7 23 0 3 8 6 19 6 10 0 19 -3 19 -7z m1181 -178 c7 11 9 11 9 1
0 -8 5 -10 13 -6 6 4 9 3 4 -1 -4 -5 -16 -10 -27 -12 -16 -2 -20 3 -19 25 2
25 2 26 6 3 4 -19 7 -21 14 -10z m-171 -171 c0 -12 -28 -20 -46 -13 -15 6 -15
7 1 19 17 13 45 9 45 -6z m-336 -21 c14 -7 23 -15 20 -20 -6 -10 -64 10 -64
22 0 12 14 11 44 -2z"/>
<path d="M2646 1629 c9 -10 21 -16 25 -13 13 8 11 14 -3 12 -7 -2 -12 2 -11 8
1 6 -5 11 -13 11 -12 0 -11 -4 2 -18z"/>
<path d="M2325 1865 c-20 -10 -23 -14 -10 -12 11 1 26 -2 34 -7 10 -7 12 -6 6
4 -6 10 -4 12 8 7 10 -3 17 -2 17 2 0 5 9 7 20 4 11 -3 20 -1 20 3 0 15 -63
14 -95 -1z"/>
<path d="M2195 1822 c-2 -2 -1 -10 2 -18 4 -10 10 -11 24 -3 18 9 23 5 20 -14
-1 -5 3 -6 8 -3 18 12 0 41 -25 41 -14 0 -27 -2 -29 -3z"/>
<path d="M2275 1819 c-3 -4 2 -6 10 -5 21 3 28 13 10 13 -9 0 -18 -4 -20 -8z"/>
</g>
</svg>
