<?xml version="1.0" standalone="no"?>
<!DOCTYPE svg PUBLIC "-//W3C//DTD SVG 20010904//EN"
 "http://www.w3.org/TR/2001/REC-SVG-20010904/DTD/svg10.dtd">
<svg version="1.0" xmlns="http://www.w3.org/2000/svg"
 width="450.000000pt" height="253.000000pt" viewBox="0 0 450.000000 253.000000"
 preserveAspectRatio="xMidYMid meet">
<metadata>
Created by potrace 1.16, written by Peter Selinger 2001-2019
</metadata>
<g transform="translate(0.000000,253.000000) scale(0.100000,-0.100000)"
fill="#000000" stroke="none">
<path d="M0 1265 l0 -1265 2250 0 2250 0 0 1265 0 1265 -780 0 -781 0 38 -32
c94 -81 131 -172 149 -365 l6 -71 58 -16 58 -17 39 27 c35 23 45 25 118 22 82
-4 101 -10 240 -80 125 -63 155 -104 155 -215 1 -47 -24 -90 -89 -155 -31 -32
-60 -62 -66 -68 -28 -28 -104 -84 -130 -96 -16 -7 -55 -20 -85 -29 -30 -9 -61
-18 -68 -20 -8 -3 1 -18 26 -43 49 -49 76 -107 96 -207 30 -150 26 -207 -14
-220 -10 -3 -20 -15 -24 -27 -3 -12 -8 -19 -12 -15 -4 4 -15 0 -24 -8 -28 -25
-173 -55 -263 -55 -163 0 -340 37 -430 89 -48 27 -60 9 -73 -110 l-12 -104 0
103 c1 56 -2 105 -4 108 -3 2 -11 -8 -17 -24 -6 -15 -25 -40 -41 -56 -19 -17
-30 -38 -30 -55 0 -14 -9 -34 -19 -43 -11 -9 -18 -25 -17 -35 2 -10 1 -12 -1
-5 -7 20 -19 14 -48 -24 -20 -26 -54 -49 -114 -78 -73 -34 -96 -40 -151 -40
-77 0 -136 26 -172 76 -29 40 -38 60 -73 160 -26 72 -27 85 -20 178 6 97 6
100 -14 100 -25 0 -27 18 -5 35 14 10 3 14 -62 25 -195 32 -350 115 -396 212
-53 113 -58 150 -28 214 32 64 91 126 169 175 39 24 71 47 71 50 0 4 -17 22
-37 40 -99 85 -160 191 -185 318 -10 45 -8 62 7 107 10 29 21 52 24 51 3 0 20
6 36 15 51 27 232 42 330 27 33 -6 87 -19 120 -31 44 -15 87 -22 160 -23 l101
-2 28 39 c34 48 144 137 211 171 l50 26 -1252 1 -1253 0 0 -1265z m2505 -614
c3 -5 2 -12 -3 -15 -5 -3 -9 1 -9 9 0 17 3 19 12 6z m122 -23 c-3 -8 -6 -5 -6
6 -1 11 2 17 5 13 3 -3 4 -12 1 -19z m-5 -100 c-2 -46 -6 -85 -9 -88 -5 -6 -1
151 4 163 8 15 9 5 5 -75z m-10 -135 c-6 -65 -10 -70 -11 -15 0 28 3 52 7 52
4 0 6 -17 4 -37z"/>
<path d="M2300 2031 c0 -6 4 -13 10 -16 6 -3 7 1 4 9 -7 18 -14 21 -14 7z"/>
<path d="M2356 1998 c3 -5 10 -6 15 -3 13 9 11 12 -6 12 -8 0 -12 -4 -9 -9z"/>
<path d="M2830 1815 c0 -7 30 -13 34 -7 3 4 -4 9 -15 9 -10 1 -19 0 -19 -2z"/>
<path d="M2423 1763 c-13 -8 -23 -21 -23 -27 0 -6 5 -4 10 4 8 13 10 13 10 -1
0 -28 25 -17 27 13 1 15 1 28 0 27 -1 0 -12 -7 -24 -16z"/>
<path d="M2402 1713 c1 -4 -2 -19 -6 -31 -6 -18 -3 -27 13 -39 12 -8 19 -18
16 -23 -9 -15 37 -51 57 -44 10 3 18 1 18 -5 0 -5 3 -16 6 -25 4 -10 1 -16 -7
-16 -9 0 -15 -14 -16 -40 l-1 -40 48 0 c27 0 52 5 55 11 4 6 14 8 22 5 11 -5
13 -2 8 11 -16 39 -16 51 -1 66 15 14 12 16 -28 22 -25 4 -58 17 -74 29 -36
26 -92 90 -92 104 0 6 -5 14 -10 17 -6 4 -9 3 -8 -2z"/>
<path d="M2710 1660 c0 -5 -6 -10 -13 -10 -20 0 -47 -38 -47 -65 0 -14 3 -25
8 -25 12 0 46 42 60 74 15 34 15 36 2 36 -5 0 -10 -4 -10 -10z"/>
<path d="M1756 1644 c-6 -6 -17 -9 -24 -6 -7 2 -11 -2 -10 -9 3 -16 70 -69 79
-64 3 2 6 -2 6 -9 0 -8 -5 -12 -11 -10 -17 6 -40 -12 -32 -25 12 -19 47 -13
53 9 3 11 10 17 17 13 6 -4 4 2 -4 12 -8 10 -10 16 -4 12 7 -4 11 4 10 23 -1
17 -4 30 -7 30 -4 0 -10 7 -13 16 -5 14 -4 15 8 5 11 -9 16 -9 22 0 4 8 3 9
-4 5 -7 -4 -12 -3 -12 2 0 13 -61 10 -74 -4z"/>
<path d="M1496 1533 c-6 -14 -5 -15 5 -6 7 7 10 15 7 18 -3 3 -9 -2 -12 -12z"/>
<path d="M2395 1540 c-10 -17 -49 -29 -56 -18 -3 5 -9 2 -12 -7 -4 -9 -3 -13
3 -10 6 3 10 2 10 -3 0 -12 63 -7 90 8 20 11 27 30 11 30 -5 0 -16 3 -24 6 -8
3 -18 0 -22 -6z"/>
<path d="M2153 1433 c-33 -17 -43 -33 -20 -33 6 0 23 12 36 25 27 29 27 29
-16 8z"/>
<path d="M2342 1419 c-22 -20 -22 -39 1 -39 12 1 67 45 67 55 0 14 -49 3 -68
-16z"/>
<path d="M1908 1418 c12 -12 62 -17 62 -6 0 5 -7 8 -15 4 -8 -3 -15 -2 -15 2
0 4 -9 8 -20 8 -11 0 -16 -4 -12 -8z"/>
<path d="M1900 1375 c-7 -9 -10 -18 -7 -21 3 -3 10 4 17 15 13 25 8 27 -10 6z"/>
<path d="M2326 1324 c-9 -8 -16 -24 -16 -35 0 -18 9 -21 55 -21 31 0 34 3 29
29 -3 15 -7 30 -10 35 -8 13 -42 9 -58 -8z"/>
<path d="M2250 1191 c0 -7 -4 -9 -10 -6 -5 3 -10 1 -10 -4 0 -6 -7 -11 -15
-11 -8 0 -12 -6 -9 -14 4 -11 11 -8 31 10 14 13 23 27 20 31 -4 3 -7 1 -7 -6z"/>
<path d="M2607 1183 c-11 -11 -8 -20 9 -27 8 -3 12 -2 9 4 -3 6 -1 10 5 10 6
0 8 5 5 10 -7 12 -19 13 -28 3z"/>
<path d="M3298 1163 c-17 -41 -16 -44 10 -85 22 -34 62 -58 62 -36 0 5 5 6 10
3 9 -6 -30 111 -45 136 -11 17 -25 9 -37 -18z"/>
<path d="M2476 1155 c-28 -26 -33 -44 -13 -47 41 -5 67 -2 67 7 0 5 4 4 9 -3
6 -10 10 -10 20 1 9 12 6 14 -20 11 -30 -4 -31 -3 -25 26 7 36 -3 38 -38 5z"/>
<path d="M2710 1155 c7 -8 20 -15 29 -15 13 1 13 3 -3 15 -26 19 -42 19 -26 0z"/>
<path d="M2223 1046 c-10 -11 -9 -15 2 -20 8 -3 17 -1 20 5 4 5 12 6 18 2 7
-4 6 0 -2 10 -16 20 -22 21 -38 3z"/>
</g>
</svg>
