<?xml version="1.0" standalone="no"?>
<!DOCTYPE svg PUBLIC "-//W3C//DTD SVG 20010904//EN"
 "http://www.w3.org/TR/2001/REC-SVG-20010904/DTD/svg10.dtd">
<svg version="1.0" xmlns="http://www.w3.org/2000/svg"
 width="450.000000pt" height="253.000000pt" viewBox="0 0 450.000000 253.000000"
 preserveAspectRatio="xMidYMid meet">
<metadata>
Created by potrace 1.16, written by Peter Selinger 2001-2019
</metadata>
<g transform="translate(0.000000,253.000000) scale(0.100000,-0.100000)"
fill="#000000" stroke="none">
<path d="M0 1265 l0 -1265 2250 0 2250 0 0 1265 0 1265 -2250 0 -2250 0 0
-1265z m2854 655 c44 -12 97 -30 120 -42 62 -32 159 -103 215 -159 53 -53 61
-77 40 -122 -11 -24 -70 -60 -99 -61 -8 0 -19 -5 -23 -11 -5 -6 -7 -4 -4 5 2
8 9 15 16 15 6 0 16 7 21 15 9 13 10 13 10 0 1 -12 4 -11 15 4 8 11 19 15 27
10 10 -6 10 -4 -1 9 -12 15 -11 17 6 17 11 0 20 7 20 16 0 11 -9 14 -31 12
-19 -2 -36 3 -43 12 -9 11 -12 12 -13 2 0 -8 -5 -10 -12 -5 -19 11 -39 13 -32
2 3 -5 10 -6 16 -3 7 4 8 2 4 -4 -4 -7 -20 -10 -37 -7 -23 4 -29 2 -23 -7 6
-9 3 -9 -9 1 -14 11 -17 11 -18 0 0 -10 -2 -11 -6 -2 -3 8 -10 10 -21 4 -19
-9 -87 -4 -122 9 -3 1 -13 2 -22 1 -10 -1 -18 3 -18 9 0 6 -4 8 -10 5 -21 -13
-47 -13 -47 1 0 11 3 11 15 1 13 -10 14 -9 2 10 -8 12 -17 20 -21 17 -4 -2
-10 0 -14 6 -4 6 -11 7 -18 3 -19 -11 -148 -12 -140 0 4 6 0 8 -10 4 -10 -3
-17 -3 -17 2 0 5 -13 14 -30 21 -33 14 -36 20 -18 38 20 20 18 79 -3 98 -18
16 -18 18 -1 30 15 12 15 12 -6 7 -24 -6 -52 -43 -32 -43 5 0 10 -8 10 -17 0
-14 -2 -15 -9 -5 -5 9 -8 4 -7 -16 1 -21 5 -28 16 -24 13 5 13 4 0 -10 -8 -9
-19 -13 -23 -8 -10 9 -67 -20 -67 -33 0 -5 5 -5 12 -1 7 4 8 3 4 -5 -6 -9 -11
-9 -21 -1 -10 8 -14 7 -18 -2 -3 -7 -6 -3 -6 8 -1 21 27 77 59 119 18 24 97
66 154 81 68 19 185 16 270 -6z m-735 -32 c11 -11 12 -10 6 2 -8 13 -7 13 8 1
9 -7 17 -9 17 -4 0 13 33 12 42 -1 5 -8 11 -7 20 2 6 6 21 12 33 11 20 0 20 0
0 -9 -17 -8 -17 -9 7 -7 15 1 24 5 21 10 -7 11 70 -3 78 -15 3 -5 18 -6 32 -2
56 13 15 -33 -43 -50 -64 -19 -77 -29 -78 -59 -1 -37 -2 -38 -58 -43 -26 -3
-54 -10 -62 -17 -13 -10 -14 -8 -8 11 5 14 3 22 -4 22 -7 0 -23 9 -37 20 -14
11 -37 20 -50 20 -14 0 -21 4 -18 10 3 6 0 10 -7 11 -7 0 -4 5 7 10 17 8 16 9
-8 5 -20 -2 -30 2 -35 13 -3 9 -12 20 -19 24 -7 5 -11 12 -8 18 4 5 -13 10
-37 10 -40 1 -41 2 -13 9 51 13 200 11 214 -2z m-250 -17 c7 -5 15 -23 17 -40
3 -30 2 -31 -35 -31 -36 0 -39 3 -43 30 -6 41 27 63 61 41z m-99 -121 c5 0 10
3 13 8 2 4 2 0 -1 -8 -2 -8 -5 -20 -6 -27 -4 -21 -15 -26 -31 -13 -8 7 -15 9
-15 5 0 -5 -3 -6 -6 -3 -3 4 3 21 12 40 14 25 19 29 22 16 2 -10 7 -18 12 -18z
m320 2 c0 -4 -10 -13 -22 -21 -23 -14 -23 -14 -4 8 20 22 26 25 26 13z m367
-5 c0 -8 -6 -14 -14 -14 -9 0 -10 4 -2 14 6 7 12 13 14 13 1 0 2 -6 2 -13z
m-594 -49 c3 -10 9 -10 25 -1 19 11 19 10 9 -16 -9 -25 -14 -28 -36 -22 -44
12 -101 5 -119 -14 -12 -13 -13 -16 -2 -9 12 6 13 5 4 -7 -6 -8 -14 -23 -18
-33 -6 -19 -6 -19 12 -3 11 10 34 17 58 16 l39 -1 -34 -14 -33 -15 23 -25 c13
-14 20 -25 14 -24 -23 5 -55 -1 -55 -9 0 -5 10 -11 23 -13 14 -2 23 -11 25
-27 5 -34 -18 -109 -35 -115 -9 -4 -12 -2 -7 7 4 6 -5 1 -21 -13 -16 -14 -25
-18 -21 -10 4 8 -1 5 -11 -8 -15 -18 -21 -20 -31 -10 -9 9 -12 9 -13 -2 -1 -8
-5 -1 -9 15 -4 17 -6 77 -5 135 1 81 5 114 20 143 10 20 23 37 27 37 5 0 6 5
2 12 -4 6 -3 8 4 4 6 -3 13 -2 17 4 3 5 13 10 21 10 8 0 12 -4 9 -10 -9 -14 4
-11 50 10 48 22 62 24 68 8z m103 -30 c5 -8 2 -9 -9 -5 -9 3 -19 1 -23 -5 -4
-6 -3 -8 4 -4 6 3 13 2 17 -4 7 -11 0 -12 -32 -4 -27 7 -30 21 -5 27 31 8 41
7 48 -5z m784 8 c0 -2 -8 -10 -17 -17 -16 -13 -17 -12 -4 4 13 16 21 21 21 13z
m317 -161 c0 -8 -3 -13 -5 -10 -3 3 -10 1 -16 -4 -6 -4 -26 -13 -43 -19 -27
-9 -33 -8 -33 3 0 8 7 11 20 8 11 -3 20 0 20 6 0 6 7 8 17 4 12 -5 14 -3 8 7
-5 8 -4 11 3 6 6 -3 13 -2 17 4 9 14 12 13 12 -5z m-111 -43 c-3 -5 -15 -12
-26 -15 -11 -3 -18 -1 -14 4 3 5 12 9 20 9 8 0 14 5 14 12 0 6 3 9 6 5 3 -3 3
-10 0 -15z"/>
<path d="M2735 1802 c6 -5 42 -17 82 -27 40 -9 77 -23 84 -31 6 -8 17 -14 23
-14 8 0 8 3 0 8 -6 4 -13 15 -17 25 -4 9 -17 21 -29 26 -35 13 -155 24 -143
13z"/>
<path d="M2063 1873 c9 -2 23 -2 30 0 6 3 -1 5 -18 5 -16 0 -22 -2 -12 -5z"/>
<path d="M2198 1843 c7 -3 16 -2 19 1 4 3 -2 6 -13 5 -11 0 -14 -3 -6 -6z"/>
<path d="M1747 1465 c-20 -27 -16 -31 14 -15 10 6 19 17 19 25 0 22 -13 18
-33 -10z"/>
<path d="M1678 1355 c5 -29 8 -31 15 -11 3 8 0 19 -7 25 -10 9 -12 6 -8 -14z"/>
</g>
</svg>
