<?xml version="1.0" standalone="no"?>
<!DOCTYPE svg PUBLIC "-//W3C//DTD SVG 20010904//EN"
 "http://www.w3.org/TR/2001/REC-SVG-20010904/DTD/svg10.dtd">
<svg version="1.0" xmlns="http://www.w3.org/2000/svg"
 width="450.000000pt" height="253.000000pt" viewBox="0 0 450.000000 253.000000"
 preserveAspectRatio="xMidYMid meet">
<metadata>
Created by potrace 1.16, written by Peter Selinger 2001-2019
</metadata>
<g transform="translate(0.000000,253.000000) scale(0.100000,-0.100000)"
fill="#000000" stroke="none">
<path d="M0 1265 l0 -1265 2250 0 2250 0 0 1265 0 1265 -2250 0 -2250 0 0
-1265z m2623 1108 c21 -13 45 -19 63 -16 16 2 37 4 47 4 10 0 15 5 11 11 -5 7
-2 8 6 3 7 -5 36 -9 64 -11 54 -3 126 -24 126 -36 0 -5 6 -8 13 -8 22 0 97
-77 153 -154 48 -69 82 -96 124 -99 11 -1 20 -4 20 -7 0 -4 6 -7 13 -7 6 -1
26 -6 44 -11 27 -9 34 -7 51 13 12 13 37 27 56 31 40 7 128 -2 154 -16 35 -19
169 -80 177 -80 15 0 95 -71 95 -84 0 -8 7 -19 15 -26 8 -7 12 -17 8 -24 -4
-6 -6 -24 -4 -39 4 -45 -22 -87 -107 -171 -96 -95 -163 -143 -216 -157 -52
-13 -126 -40 -126 -46 0 -3 15 -30 33 -61 41 -69 47 -90 54 -169 7 -96 -12
-170 -56 -211 -61 -57 -67 -62 -81 -62 -7 0 -21 -6 -29 -14 -21 -18 -153 -37
-216 -31 -144 14 -241 36 -316 74 l-56 28 -25 -21 c-14 -12 -39 -29 -57 -38
-24 -13 -31 -24 -31 -47 0 -22 -13 -45 -45 -81 -25 -28 -45 -58 -46 -68 0 -9
-3 -12 -5 -5 -4 8 -15 6 -38 -8 -61 -36 -149 -61 -213 -61 -118 1 -169 52
-230 231 -15 44 -14 105 3 217 l6 41 -129 7 c-229 12 -401 89 -461 205 -23 44
-22 123 2 169 33 63 106 139 161 167 22 11 42 23 45 26 3 3 31 20 63 38 l58
33 -48 41 c-26 23 -60 56 -76 72 -35 38 -86 139 -93 187 -7 40 4 153 13 144 3
-3 18 1 32 8 85 45 137 57 246 60 93 2 203 -12 259 -34 37 -14 164 -10 170 6
8 21 109 92 146 102 53 15 134 7 173 -15z"/>
<path d="M2673 1985 c0 -8 4 -15 9 -15 4 0 8 7 8 15 0 8 -4 15 -8 15 -5 0 -9
-7 -9 -15z"/>
<path d="M2686 1929 c-9 -34 -14 -132 -6 -118 4 6 12 3 21 -7 8 -10 9 -15 3
-11 -14 8 -58 -28 -51 -41 3 -4 1 -27 -4 -49 -9 -33 -8 -47 5 -72 9 -17 23
-31 30 -31 8 0 16 -6 19 -13 7 -19 -36 -16 -50 3 -12 17 -34 19 -66 5 -9 -4
-29 -5 -42 -3 -28 6 -32 -4 -10 -26 8 -8 15 -21 15 -29 0 -8 12 -18 26 -21 24
-6 25 -8 10 -25 -22 -25 -21 -28 18 -33 19 -2 32 0 29 5 -3 5 3 6 14 3 13 -4
26 0 37 13 15 17 15 20 1 34 -31 32 -12 68 25 45 16 -10 19 -19 14 -40 -5 -26
-4 -28 29 -28 35 0 47 12 47 49 0 12 18 25 55 40 48 20 55 26 55 51 0 16 6 35
13 42 17 17 11 38 -11 38 -23 -1 -62 -34 -62 -53 0 -19 -43 -47 -73 -47 -17 0
-26 7 -30 21 -3 11 -15 23 -26 26 -11 3 -23 14 -26 24 -4 10 -14 26 -23 35
-15 15 -14 16 14 10 19 -4 36 -2 48 7 18 13 18 14 -7 21 -28 7 -37 26 -13 26
8 0 16 8 19 18 4 17 -20 71 -38 84 -10 8 6 12 37 9 10 -1 25 2 34 7 15 9 15
10 -6 17 -15 5 -25 2 -31 -6 -7 -12 -9 -11 -10 1 -1 8 -1 19 0 23 1 5 -3 6 -8
3 -5 -4 -11 0 -14 6 -2 7 -8 1 -11 -13z m18 -15 c3 -8 2 -12 -4 -9 -6 3 -10
10 -10 16 0 14 7 11 14 -7z m-74 -419 c14 -19 14 -19 -2 -6 -10 7 -18 18 -18
24 0 6 1 8 3 6 1 -2 9 -13 17 -24z"/>
<path d="M2925 1891 c-9 -15 14 -24 43 -16 20 5 23 8 11 16 -18 11 -46 12 -54
0z"/>
<path d="M2840 1880 c0 -5 5 -10 11 -10 5 0 7 5 4 10 -3 6 -8 10 -11 10 -2 0
-4 -4 -4 -10z"/>
<path d="M2468 1794 c-12 -12 5 -41 23 -40 18 1 38 21 39 39 0 8 -54 10 -62 1z"/>
<path d="M2802 1771 c-9 -5 -7 -12 7 -25 22 -20 35 -9 17 16 -7 9 -17 13 -24
9z"/>
<path d="M2383 1721 c15 -18 27 -39 27 -46 0 -8 9 -16 19 -20 12 -3 18 -12 15
-20 -4 -10 0 -12 15 -8 31 8 34 33 5 55 -16 14 -24 27 -21 39 4 14 0 19 -16
19 -12 0 -33 3 -47 7 l-25 7 28 -33z"/>
<path d="M1738 1733 c7 -3 16 -2 19 1 4 3 -2 6 -13 5 -11 0 -14 -3 -6 -6z"/>
<path d="M2564 1733 c4 -7 -2 -14 -15 -18 -25 -8 -19 -16 15 -19 22 -3 24 -1
14 12 -7 8 -11 17 -10 19 2 3 0 8 -4 11 -4 4 -4 2 0 -5z"/>
<path d="M1672 1703 c-6 -2 -10 -9 -7 -13 7 -11 35 -2 35 11 0 10 -8 10 -28 2z"/>
<path d="M1715 1700 c-3 -5 -2 -10 4 -10 5 0 13 5 16 10 3 6 2 10 -4 10 -5 0
-13 -4 -16 -10z"/>
<path d="M1567 1602 c-10 -10 -17 -22 -17 -27 0 -4 -12 -33 -27 -64 -25 -51
-36 -91 -26 -91 14 0 72 37 91 58 18 19 22 32 18 53 -3 17 0 34 8 42 11 10 11
16 1 30 -16 22 -28 21 -48 -1z"/>
<path d="M2447 1571 c-3 -12 1 -22 9 -25 9 -3 14 2 14 14 0 26 -17 34 -23 11z"/>
<path d="M2055 1510 c-3 -5 17 -9 45 -8 27 0 52 4 55 8 3 4 -17 8 -45 8 -27 1
-52 -3 -55 -8z"/>
<path d="M2335 1480 c3 -5 12 -7 20 -3 21 7 19 13 -6 13 -11 0 -18 -4 -14 -10z"/>
<path d="M2388 1464 c-4 -3 -14 -7 -25 -9 -10 -1 -17 -7 -16 -12 1 -6 -13 -8
-32 -6 -26 2 -37 -1 -45 -16 -14 -28 3 -34 30 -11 12 11 27 17 33 13 5 -3 22
-6 38 -5 15 0 30 -6 33 -14 8 -20 -29 -54 -60 -54 -14 0 -23 -4 -19 -9 5 -9
35 -3 75 13 11 5 20 -3 29 -26 17 -42 15 -66 -10 -100 -20 -29 -25 -58 -9 -58
5 0 13 7 18 16 5 8 17 17 28 18 10 2 21 11 23 22 4 20 68 83 85 85 6 1 31 1
56 1 l45 -1 -27 17 c-37 22 -42 39 -19 70 19 27 19 27 -3 28 -11 1 -30 4 -41
7 -33 8 -56 -10 -49 -38 7 -30 11 -29 -51 -6 -45 17 -50 22 -50 50 0 29 -20
43 -37 25z m127 -122 c-6 -7 -59 23 -63 36 -2 7 12 2 31 -10 19 -13 33 -25 32
-26z"/>
<path d="M2147 1449 c-9 -5 -22 -7 -28 -3 -8 5 -9 2 -1 -12 8 -15 6 -24 -10
-41 -20 -22 -18 -43 6 -43 7 0 21 9 31 20 10 11 24 20 31 20 7 0 15 6 17 13 4
10 6 10 6 0 1 -7 8 -13 17 -13 8 0 12 5 9 10 -4 6 -2 17 4 24 9 11 6 15 -13
20 -13 3 -30 8 -38 11 -7 2 -21 0 -31 -6z"/>
<path d="M2763 1389 c-7 -19 -9 -38 -4 -47 7 -12 11 -12 29 6 18 18 23 19 46
6 31 -15 60 -8 52 13 -3 8 -6 17 -6 19 0 3 -4 2 -10 -1 -5 -3 -10 -1 -10 6 0
6 -8 9 -20 6 -10 -3 -27 1 -37 9 -25 19 -27 18 -40 -17z"/>
<path d="M2660 1362 c0 -19 27 -38 39 -27 7 8 -12 38 -27 43 -7 2 -12 -5 -12
-16z"/>
<path d="M2768 1254 c-3 -3 -4 -13 -1 -23 4 -16 8 -17 29 -7 31 14 31 36 1 36
-13 0 -26 -3 -29 -6z"/>
<path d="M2660 1170 c0 -5 5 -10 10 -10 6 0 10 5 10 10 0 6 -4 10 -10 10 -5 0
-10 -4 -10 -10z"/>
<path d="M3352 1148 c-6 -6 -8 -17 -5 -26 4 -8 2 -13 -3 -9 -6 3 -10 -7 -9
-24 0 -16 4 -29 8 -29 5 0 5 -4 2 -10 -3 -5 -1 -10 4 -10 6 0 11 5 11 11 0 5
5 7 12 3 8 -5 9 2 5 24 -4 21 -3 32 5 32 6 0 3 10 -8 22 -15 19 -16 20 -1 9 9
-7 17 -9 17 -3 0 15 -26 22 -38 10z"/>
<path d="M2135 1120 c3 -5 8 -10 11 -10 2 0 4 5 4 10 0 6 -5 10 -11 10 -5 0
-7 -4 -4 -10z"/>
<path d="M2417 1114 c-13 -13 -7 -24 14 -24 11 0 19 5 17 12 -5 14 -22 21 -31
12z"/>
</g>
</svg>
