<?xml version="1.0" standalone="no"?>
<!DOCTYPE svg PUBLIC "-//W3C//DTD SVG 20010904//EN"
 "http://www.w3.org/TR/2001/REC-SVG-20010904/DTD/svg10.dtd">
<svg version="1.0" xmlns="http://www.w3.org/2000/svg"
 width="450.000000pt" height="253.000000pt" viewBox="0 0 450.000000 253.000000"
 preserveAspectRatio="xMidYMid meet">
<metadata>
Created by potrace 1.16, written by Peter Selinger 2001-2019
</metadata>
<g transform="translate(0.000000,253.000000) scale(0.100000,-0.100000)"
fill="#000000" stroke="none">
<path d="M0 1265 l0 -1265 2250 0 2250 0 0 1265 0 1265 -2250 0 -2250 0 0
-1265z m2746 635 c81 -21 218 -82 289 -128 64 -43 113 -100 107 -128 -2 -13
-9 -24 -15 -24 -6 0 -7 -3 -4 -7 8 -7 -11 -33 -24 -33 -15 0 -10 15 11 38 12
12 17 22 13 23 -4 1 -35 3 -67 4 -33 2 -70 6 -82 9 -13 4 -26 1 -30 -6 -5 -7
-3 -8 6 -3 8 5 11 4 7 -1 -6 -11 -53 -11 -63 -1 -4 4 -13 -1 -21 -11 -8 -9
-11 -11 -8 -4 5 10 -5 13 -42 11 -34 -2 -57 3 -78 17 -21 14 -27 15 -20 4 8
-13 6 -13 -8 -2 -9 8 -21 11 -27 7 -5 -3 -10 -1 -10 4 0 7 -29 10 -77 9 -80
-2 -127 7 -118 22 3 4 -4 6 -15 3 -25 -7 -25 -2 0 45 12 21 16 38 10 40 -6 2
-7 9 -3 15 3 7 2 9 -2 4 -5 -4 -17 0 -27 10 -18 16 -18 17 4 42 13 15 15 20 5
12 -12 -9 -21 -11 -28 -4 -9 9 40 37 86 46 52 11 159 5 231 -13z m-691 -19
l40 -9 -38 -1 c-21 0 -36 -5 -33 -10 6 -9 33 -6 66 6 8 4 21 5 29 4 7 -1 11 1
8 6 -7 11 35 9 53 -2 9 -6 11 -4 5 5 -6 9 -4 11 5 5 16 -10 70 -15 70 -6 0 8
78 3 100 -6 8 -3 19 -5 24 -4 28 7 -28 -36 -86 -65 -37 -19 -67 -38 -67 -42 5
-33 -4 -54 -27 -62 -17 -7 -31 -7 -38 -1 -7 6 -20 4 -36 -4 -34 -19 -42 -18
-35 4 9 30 -24 35 -58 10 -18 -13 -28 -16 -25 -8 3 8 15 19 27 26 23 11 23 11
3 22 -11 6 -30 11 -41 11 -12 0 -20 3 -20 8 4 22 -3 30 -22 25 -18 -5 -20 -3
-14 16 4 15 3 21 -7 19 -7 -2 -13 6 -13 17 0 15 -8 21 -30 24 -26 3 -28 4 -10
11 26 11 119 11 170 1z m-210 -24 c1 -1 5 -18 8 -38 5 -34 4 -36 -16 -31 -12
3 -28 10 -36 16 -11 8 -13 8 -8 0 4 -7 -2 -10 -16 -7 -20 4 -25 -2 -37 -37 -7
-23 -22 -46 -32 -51 -10 -5 -18 -19 -18 -30 0 -16 3 -18 19 -9 11 5 28 10 39
10 10 0 29 12 43 26 13 14 31 30 41 35 13 7 15 5 11 -11 -3 -11 -8 -18 -12
-16 -13 9 -28 -9 -22 -26 6 -16 9 -16 35 -3 40 21 42 19 9 -9 -24 -20 -36 -23
-74 -19 -31 4 -55 0 -75 -10 -16 -9 -23 -16 -16 -17 10 0 9 -4 -2 -16 -9 -8
-14 -20 -11 -25 4 -5 1 -9 -6 -9 -7 0 -9 -3 -5 -7 4 -5 13 -1 19 8 14 19 77
36 77 21 0 -14 -27 -23 -47 -15 -10 4 -5 -6 12 -25 16 -18 34 -32 41 -32 7 0
15 -3 17 -7 3 -5 -19 -6 -49 -5 -34 3 -54 0 -54 -7 0 -6 16 -11 36 -11 l37 0
-6 -47 c-3 -26 -9 -49 -15 -51 -5 -1 -7 -14 -4 -29 4 -19 1 -24 -9 -21 -8 3
-13 12 -11 19 1 9 -2 8 -11 -3 -15 -19 -44 -18 -56 1 -6 9 -11 8 -22 -5 -8 -9
-13 -19 -11 -21 1 -2 -2 -11 -7 -21 -8 -13 -9 -9 -4 17 4 21 2 32 -4 28 -5 -3
-10 12 -12 36 -2 23 -4 53 -5 67 -4 44 15 122 41 174 52 102 111 179 134 174
6 -2 14 3 17 11 3 8 0 11 -7 7 -16 -10 -13 0 6 19 11 12 25 15 46 11 17 -3 31
-7 32 -9z m551 -69 c-1 -7 -6 -19 -10 -27 -7 -11 -6 -12 5 -6 12 7 12 6 0 -9
-13 -16 -15 -16 -24 -1 -6 12 -4 22 9 36 20 22 23 23 20 7z m-511 -138 c-3 -5
-11 -10 -16 -10 -6 0 -7 5 -4 10 3 6 11 10 16 10 6 0 7 -4 4 -10z m-271 -456
c3 -8 2 -12 -4 -9 -6 3 -10 10 -10 16 0 14 7 11 14 -7z m131 -234 c3 -5 1 -10
-4 -10 -6 0 -11 5 -11 10 0 6 2 10 4 10 3 0 8 -4 11 -10z m2 -147 c-3 -10 -5
-2 -5 17 0 19 2 27 5 18 2 -10 2 -26 0 -35z m10 -155 c-3 -7 -5 -2 -5 12 0 14
2 19 5 13 2 -7 2 -19 0 -25z m10 -100 c-2 -13 -4 -5 -4 17 -1 22 1 32 4 23 2
-10 2 -28 0 -40z"/>
<path d="M2508 1883 c7 -3 16 -2 19 1 4 3 -2 6 -13 5 -11 0 -14 -3 -6 -6z"/>
<path d="M2674 1743 c4 -5 11 -8 14 -9 17 -2 69 -16 87 -24 11 -5 35 -13 54
-19 31 -10 32 -9 20 7 -34 45 -43 52 -49 42 -5 -8 -20 -8 -51 -1 -53 12 -85
14 -75 4z"/>
<path d="M2145 1830 c3 -5 11 -10 16 -10 6 0 7 5 4 10 -3 6 -11 10 -16 10 -6
0 -7 -4 -4 -10z"/>
<path d="M1660 1695 c-7 -9 -11 -18 -8 -20 3 -3 11 1 18 10 7 9 11 18 8 20 -3
3 -11 -1 -18 -10z"/>
</g>
</svg>
