<?xml version="1.0" standalone="no"?>
<!DOCTYPE svg PUBLIC "-//W3C//DTD SVG 20010904//EN"
 "http://www.w3.org/TR/2001/REC-SVG-20010904/DTD/svg10.dtd">
<svg version="1.0" xmlns="http://www.w3.org/2000/svg"
 width="450.000000pt" height="253.000000pt" viewBox="0 0 450.000000 253.000000"
 preserveAspectRatio="xMidYMid meet">
<metadata>
Created by potrace 1.16, written by Peter Selinger 2001-2019
</metadata>
<g transform="translate(0.000000,253.000000) scale(0.100000,-0.100000)"
fill="#000000" stroke="none">
<path d="M0 1265 l0 -1265 2250 0 2250 0 0 1265 0 1265 -2250 0 -2250 0 0
-1265z m3020 701 c114 -36 211 -94 285 -172 84 -89 113 -164 76 -198 -12 -11
-21 -24 -21 -30 -1 -25 -59 -76 -130 -114 -98 -52 -120 -59 -120 -35 0 11 17
27 45 42 25 13 45 27 45 30 0 4 12 7 28 6 15 -1 36 8 49 20 19 18 20 22 5 21
-89 0 -123 5 -116 17 5 7 0 6 -11 -3 -10 -8 -16 -10 -12 -3 5 7 -11 13 -51 17
-77 9 -172 4 -172 -9 0 -6 -3 -7 -8 0 -4 6 -16 11 -27 12 -90 11 -151 19 -190
27 -11 2 -28 -1 -37 -6 -14 -6 -16 -5 -12 7 4 8 2 15 -3 15 -5 0 -10 8 -11 18
-4 35 -8 48 -26 75 -15 23 -17 32 -8 52 7 15 8 25 2 25 -6 0 -10 7 -10 16 0 8
-4 13 -9 9 -5 -3 -13 0 -17 6 -4 7 -3 9 4 5 6 -3 13 -2 16 3 3 5 15 7 25 4 15
-4 19 0 16 14 -1 10 -9 16 -16 14 -54 -14 -54 -14 -24 13 34 30 153 91 205
105 53 14 180 12 230 -3z m-650 -55 c0 -6 9 -11 21 -11 11 0 17 5 14 10 -4 6
5 10 20 10 14 0 24 -4 21 -8 -3 -4 8 -7 25 -6 16 1 32 -3 36 -9 4 -6 1 -7 -8
-2 -12 8 -12 6 0 -8 8 -10 12 -19 10 -21 -10 -9 -83 -25 -92 -19 -5 3 -13 0
-17 -8 -7 -10 -12 -10 -26 2 -16 12 -17 12 -11 -3 6 -16 -2 -22 -25 -20 -3 1
-9 -5 -12 -13 -3 -8 -2 -15 3 -15 4 0 6 -11 3 -25 -4 -24 -25 -32 -70 -26 -8
1 -20 -3 -28 -10 -11 -9 -14 -7 -14 10 0 19 -5 23 -27 20 -3 0 -10 6 -15 15
-5 9 -16 16 -23 16 -8 0 -15 4 -15 10 0 5 -10 15 -22 21 -18 9 -21 9 -11 -1 6
-7 9 -18 7 -24 -3 -7 4 -20 15 -30 11 -10 17 -24 14 -32 -6 -17 -23 -8 -23 12
0 17 -61 97 -68 89 -3 -3 -12 4 -19 15 -24 34 -34 12 -12 -27 11 -19 18 -38
14 -41 -3 -3 -5 -1 -5 5 0 20 -33 24 -51 7 -11 -10 -19 -15 -20 -13 -13 65 7
112 45 105 11 -3 27 -5 35 -5 7 -1 11 -7 8 -15 -3 -8 2 -16 12 -19 12 -3 17 3
19 19 1 19 -3 24 -23 24 -40 0 -29 18 13 22 114 9 302 9 302 -1z m181 -34 c-5
-5 -17 -7 -26 -3 -14 5 -15 9 -5 21 10 12 16 13 27 4 9 -8 10 -16 4 -22z m-60
-117 c-21 -19 -41 -26 -41 -16 0 12 33 36 48 36 14 -1 12 -5 -7 -20z m-451 -9
c0 -4 -6 -8 -13 -8 -8 0 -14 6 -14 13 0 7 6 10 14 7 7 -3 13 -8 13 -12z m38
-9 c2 -14 -3 -25 -15 -29 -10 -4 -24 -15 -32 -26 -10 -15 -22 -18 -55 -14 -52
6 -73 -5 -73 -39 0 -22 3 -25 21 -19 48 15 113 17 121 4 6 -9 3 -11 -9 -6 -9
4 -32 0 -51 -7 -18 -8 -36 -12 -39 -8 -3 3 -6 1 -6 -5 0 -5 3 -13 7 -17 4 -3
8 -14 9 -24 2 -12 -4 -17 -22 -19 -15 0 -30 -5 -36 -11 -6 -6 0 -8 16 -5 33 7
33 -1 0 -44 -27 -35 -23 -44 8 -16 18 16 19 16 15 -7 -8 -44 -29 -78 -54 -89
-15 -7 -22 -7 -18 -1 3 5 -1 10 -9 10 -25 0 -15 185 12 241 12 23 19 46 16 50
-2 5 15 17 40 29 25 11 47 24 51 29 3 5 17 8 31 5 31 -6 55 11 47 33 -4 11 -2
14 8 11 8 -2 15 -14 17 -26z m22 -68 c0 -8 7 -11 18 -7 11 4 10 0 -5 -11 -16
-12 -33 -15 -58 -10 -42 8 -44 18 -8 38 30 15 53 11 53 -10z m580 -189 c0 -10
-9 -14 -24 -13 -19 2 -22 5 -14 15 14 18 38 16 38 -2z m279 -78 c0 -9 -2 -8
-6 1 -2 6 -10 9 -15 6 -7 -4 -8 -2 -4 5 9 13 26 5 25 -12z m130 -4 c6 6 11 8
11 3 0 -14 -25 -32 -63 -43 -20 -6 -35 -7 -32 -3 3 5 -5 16 -17 26 -15 11 -17
14 -5 11 9 -4 17 -3 17 2 0 5 18 5 39 1 25 -4 44 -3 50 3z m-202 -24 c2 -16
-1 -19 -9 -11 -5 5 -7 15 -4 21 10 15 12 14 13 -10z m-80 -45 c13 -12 11 -14
-14 -14 -33 0 -73 25 -73 45 0 12 6 12 36 -1 21 -9 43 -22 51 -30z"/>
<path d="M2596 1807 c3 -10 9 -15 12 -12 3 3 0 11 -7 18 -10 9 -11 8 -5 -6z"/>
<path d="M3320 1604 c8 -10 10 -15 3 -11 -6 4 -14 3 -17 -1 -3 -5 5 -9 17 -8
27 1 29 29 2 35 -17 3 -18 2 -5 -15z"/>
<path d="M3254 1582 c4 -3 14 -7 22 -8 9 -1 13 0 10 4 -4 3 -14 7 -22 8 -9 1
-13 0 -10 -4z"/>
<path d="M2370 1875 c0 -10 5 -13 12 -9 8 5 9 1 5 -12 -6 -17 -6 -17 6 -2 8
10 18 13 27 8 9 -5 20 -3 28 6 7 8 9 14 5 14 -4 1 -25 3 -45 6 -31 5 -38 2
-38 -11z"/>
<path d="M2346 1863 c-6 -14 -5 -15 5 -6 7 7 10 15 7 18 -3 3 -9 -2 -12 -12z"/>
<path d="M1908 1593 c7 -3 16 -2 19 1 4 3 -2 6 -13 5 -11 0 -14 -3 -6 -6z"/>
</g>
</svg>
