<?xml version="1.0" standalone="no"?>
<!DOCTYPE svg PUBLIC "-//W3C//DTD SVG 20010904//EN"
 "http://www.w3.org/TR/2001/REC-SVG-20010904/DTD/svg10.dtd">
<svg version="1.0" xmlns="http://www.w3.org/2000/svg"
 width="450.000000pt" height="253.000000pt" viewBox="0 0 450.000000 253.000000"
 preserveAspectRatio="xMidYMid meet">
<metadata>
Created by potrace 1.16, written by Peter Selinger 2001-2019
</metadata>
<g transform="translate(0.000000,253.000000) scale(0.100000,-0.100000)"
fill="#000000" stroke="none">
<path d="M0 1265 l0 -1265 2250 0 2250 0 0 1265 0 1265 -2250 0 -2250 0 0
-1265z m3037 701 c73 -19 195 -87 249 -138 59 -55 128 -171 119 -199 -27 -85
-138 -183 -259 -229 -20 -7 -23 -6 -19 10 6 21 25 40 45 44 7 1 30 10 51 19
28 12 37 22 36 39 0 13 -3 17 -6 11 -2 -7 -9 -13 -14 -13 -6 0 -7 5 -4 10 4 6
-5 10 -22 9 -51 -3 -65 0 -57 14 5 7 0 6 -11 -3 -11 -9 -16 -10 -11 -2 4 6 2
12 -3 12 -6 0 -11 -5 -11 -10 0 -6 -9 -3 -20 8 -15 14 -32 17 -77 15 -114 -5
-149 -9 -161 -17 -8 -4 -10 -2 -6 7 2 7 -1 14 -8 14 -67 5 -185 27 -201 38
-13 9 -21 26 -22 47 -1 37 -12 61 -25 53 -4 -2 -10 7 -13 21 -3 15 1 28 8 30
11 5 20 22 30 60 2 6 -1 18 -6 25 -7 12 -10 12 -21 0 -11 -12 -10 -12 2 -6 13
8 13 6 2 -8 -8 -9 -11 -21 -8 -26 10 -16 -11 -22 -23 -7 -8 10 -9 16 -1 21 16
10 12 25 -5 19 -31 -12 -13 5 53 47 64 43 111 66 177 88 45 14 183 13 242 -3z
m-653 -53 c10 -11 37 -12 30 -2 -3 6 15 8 45 7 28 -2 51 -7 51 -11 0 -5 8 -6
18 -3 20 7 47 -8 39 -21 -4 -6 -37 -18 -74 -27 -153 -40 -161 -44 -159 -78 1
-26 -4 -33 -24 -38 -14 -4 -33 -3 -42 2 -10 5 -19 4 -23 -2 -8 -13 -26 -13
-22 1 1 6 -7 16 -17 22 -28 17 -44 29 -66 51 -19 19 -19 18 -14 -8 6 -33 -11
-34 -32 -1 -9 14 -21 25 -27 25 -5 0 -16 8 -23 18 -11 15 -12 14 -10 -12 2
-15 9 -32 16 -36 7 -5 8 -10 2 -14 -5 -3 -15 1 -22 9 -15 18 -40 20 -41 3 0
-10 -2 -10 -6 0 -4 9 -8 10 -18 2 -11 -9 -11 -3 -3 30 12 45 38 66 66 51 9 -5
22 -10 27 -11 6 -1 9 -6 8 -11 -2 -5 3 -9 10 -9 7 0 13 9 14 20 1 16 -4 20
-28 20 -46 0 -26 16 22 18 23 1 45 4 47 7 8 8 248 6 256 -2z m-296 -167 c3
-21 -1 -29 -17 -33 -11 -3 -18 -10 -15 -15 3 -5 12 -7 20 -4 8 3 20 -3 26 -14
10 -15 15 -17 28 -7 8 6 6 2 -4 -11 -24 -27 -35 -27 -92 -1 -46 20 -93 22
-106 4 -4 -5 -8 -21 -8 -34 0 -18 4 -22 18 -16 32 12 109 18 115 8 4 -6 -12
-13 -39 -16 -53 -6 -61 -11 -44 -32 7 -8 9 -15 5 -15 -4 0 -1 -8 6 -17 13 -16
12 -17 -3 -4 -10 7 -18 9 -18 3 0 -5 -7 -9 -16 -8 -9 0 -18 -5 -20 -12 -1 -7
0 -8 2 -3 3 6 12 7 20 4 11 -4 11 -10 -4 -32 -35 -50 -36 -54 -14 -42 31 16
32 14 15 -29 -9 -22 -26 -46 -39 -54 -20 -14 -24 -14 -35 0 -26 32 2 264 32
264 7 0 9 10 5 24 -5 19 -1 25 19 30 14 4 25 11 25 17 0 6 4 8 9 4 5 -3 15 0
23 7 7 7 21 13 31 14 9 0 27 2 40 3 l22 1 -25 20 c-15 12 -18 18 -7 14 10 -4
17 -1 17 6 0 24 25 3 28 -24z m62 -1 c0 -14 -4 -25 -9 -25 -5 0 -11 11 -13 25
-4 17 -1 25 8 25 8 0 14 -11 14 -25z m579 -272 c4 -3 -4 -2 -16 1 -18 6 -22 4
-17 -7 4 -11 -1 -13 -20 -10 -19 4 -25 11 -24 28 2 23 3 23 37 9 19 -8 37 -17
40 -21z m254 -83 c4 0 5 5 1 12 -5 7 -3 8 6 3 7 -4 29 -10 49 -12 50 -6 60
-20 25 -34 -16 -6 -38 -16 -49 -22 -18 -9 -19 -9 -5 8 11 14 12 19 2 22 -6 3
-9 9 -6 15 4 6 -1 8 -13 4 -13 -4 -25 0 -34 11 -11 15 -11 16 1 6 8 -7 18 -13
23 -13z m-186 -54 c15 -13 25 -28 21 -31 -11 -11 -78 24 -78 40 0 22 25 18 57
-9z"/>
<path d="M3275 1582 c-4 -11 -2 -12 7 -5 7 6 21 9 30 8 10 -2 20 0 22 4 2 3
-9 7 -24 7 -17 1 -31 -4 -35 -14z"/>
<path d="M2380 1868 c0 -4 4 -8 9 -8 6 0 12 4 15 8 3 5 -1 9 -9 9 -8 0 -15 -4
-15 -9z"/>
<path d="M1928 1593 c7 -3 16 -2 19 1 4 3 -2 6 -13 5 -11 0 -14 -3 -6 -6z"/>
</g>
</svg>
