<?xml version="1.0" standalone="no"?>
<!DOCTYPE svg PUBLIC "-//W3C//DTD SVG 20010904//EN"
 "http://www.w3.org/TR/2001/REC-SVG-20010904/DTD/svg10.dtd">
<svg version="1.0" xmlns="http://www.w3.org/2000/svg"
 width="450.000000pt" height="253.000000pt" viewBox="0 0 450.000000 253.000000"
 preserveAspectRatio="xMidYMid meet">
<metadata>
Created by potrace 1.16, written by Peter Selinger 2001-2019
</metadata>
<g transform="translate(0.000000,253.000000) scale(0.100000,-0.100000)"
fill="#000000" stroke="none">
<path d="M0 1265 l0 -1265 2250 0 2250 0 0 1265 0 1265 -2250 0 -2250 0 0
-1265z m2640 1116 c19 -9 49 -16 65 -14 117 8 167 3 224 -22 65 -29 134 -95
174 -166 44 -78 76 -104 155 -129 l73 -23 30 29 c28 27 36 29 98 28 68 -1 91
-9 286 -101 95 -44 137 -148 94 -233 -33 -66 -251 -260 -292 -260 -7 0 -44
-10 -81 -23 l-67 -23 21 -26 c90 -116 107 -341 30 -416 -49 -46 -70 -62 -82
-62 -6 0 -19 -6 -27 -13 -19 -16 -129 -37 -193 -37 -38 0 -161 18 -243 35 -38
8 -110 37 -142 56 -31 19 -32 19 -45 0 -7 -10 -29 -26 -49 -34 -31 -13 -37
-21 -43 -56 -5 -33 -18 -54 -64 -100 -47 -47 -74 -64 -140 -90 -123 -47 -215
-40 -293 21 -22 18 -52 79 -79 162 -20 60 -22 81 -16 158 4 48 9 94 12 102 4
10 -21 15 -118 20 -151 9 -191 17 -284 60 -73 34 -174 117 -174 142 0 8 -4 14
-9 14 -5 0 -9 31 -10 68 -1 61 2 73 30 115 35 53 117 131 163 154 17 9 33 19
36 22 3 4 19 13 37 20 17 7 40 22 50 33 15 18 16 22 3 26 -29 10 -127 113
-153 160 -34 64 -59 153 -52 190 7 43 24 86 31 79 4 -3 13 0 20 8 8 7 44 24
81 36 86 29 261 31 363 4 36 -10 100 -20 144 -22 76 -4 79 -4 110 25 111 104
221 132 326 83z m-160 -1723 c11 -22 10 -22 -4 -4 -13 16 -16 16 -16 5 0 -9 3
-19 7 -23 4 -3 8 -23 9 -42 1 -24 -1 -31 -7 -23 -7 11 -9 11 -9 -1 0 -9 6 -22
13 -30 10 -12 9 -12 -4 -2 -17 13 -34 56 -18 46 5 -3 9 -1 9 5 0 5 -4 12 -9
16 -13 8 0 75 14 75 2 0 9 -10 15 -22z"/>
<path d="M2662 1918 c-12 -25 -12 -109 0 -102 5 3 8 -2 8 -10 0 -9 -9 -21 -20
-28 -11 -7 -20 -22 -20 -33 0 -11 -6 -31 -13 -45 -16 -31 5 -80 45 -103 18
-10 26 -21 22 -31 -3 -9 -1 -16 6 -16 6 0 11 -10 10 -22 -4 -39 -1 -43 33 -43
36 0 61 23 46 41 -10 13 13 44 33 44 5 0 25 7 44 16 27 13 34 22 34 45 0 15 5
31 10 34 6 3 10 12 10 20 0 15 -31 29 -39 17 -3 -5 -14 -11 -23 -15 -10 -3
-18 -15 -18 -25 0 -25 -34 -55 -62 -54 -24 0 -100 65 -111 94 -4 12 1 18 23
23 33 7 51 25 26 25 -9 0 -16 7 -16 15 0 8 4 15 9 15 12 0 8 39 -8 67 -6 13
-12 39 -13 58 -1 19 -2 35 -3 35 -1 0 -7 -10 -13 -22z"/>
<path d="M2707 1905 c15 -11 28 -12 45 -6 21 9 21 10 3 11 -11 1 -31 4 -45 6
l-25 5 22 -16z"/>
<path d="M2892 1893 c-21 -8 -3 -23 29 -23 31 0 39 14 13 24 -18 7 -23 7 -42
-1z"/>
<path d="M2815 1880 c-3 -5 1 -10 9 -10 8 0 18 5 21 10 3 6 -1 10 -9 10 -8 0
-18 -4 -21 -10z"/>
<path d="M2433 1788 c-6 -7 -13 -21 -16 -30 -4 -10 -17 -18 -29 -18 -30 0 -70
28 -62 42 4 7 2 8 -5 4 -13 -9 -8 -16 42 -70 15 -16 28 -36 28 -45 1 -9 2 -23
3 -31 2 -25 42 -24 60 2 14 20 14 23 2 26 -20 4 -49 51 -42 68 3 8 19 14 35
14 29 0 58 29 44 44 -11 11 -50 7 -60 -6z"/>
<path d="M2780 1766 c0 -2 7 -9 15 -16 13 -11 14 -10 9 4 -5 14 -24 23 -24 12z"/>
<path d="M2525 1710 c-3 -5 3 -10 15 -10 12 0 18 5 15 10 -3 6 -10 10 -15 10
-5 0 -12 -4 -15 -10z"/>
<path d="M1549 1600 c-7 -14 -12 -30 -11 -36 1 -7 -5 -15 -14 -18 -9 -3 -14
-12 -11 -20 3 -7 -3 -28 -14 -45 -18 -30 -25 -61 -13 -61 14 0 51 25 77 52 19
20 28 38 26 56 -2 15 3 37 9 50 9 16 10 22 1 22 -6 0 -9 6 -6 13 9 24 -32 13
-44 -13z"/>
<path d="M2500 1588 c0 -4 7 -14 16 -22 8 -9 12 -20 9 -26 -3 -6 2 -13 12 -17
28 -10 34 -26 17 -44 -21 -23 -5 -30 50 -23 54 8 74 31 54 64 -10 16 -10 24 0
41 9 14 10 19 2 14 -7 -4 -16 -1 -21 6 -9 14 -139 21 -139 7z"/>
<path d="M2424 1564 c2 -10 8 -20 15 -22 8 -3 12 3 9 14 -4 23 -27 31 -24 8z"/>
<path d="M1942 1555 c3 -3 16 -8 28 -10 12 -2 20 -1 16 2 -4 4 -16 8 -28 10
-12 2 -19 1 -16 -2z"/>
<path d="M2035 1510 c-3 -6 1 -7 9 -4 18 7 21 14 7 14 -6 0 -13 -4 -16 -10z"/>
<path d="M2310 1480 c0 -5 4 -10 9 -10 6 0 13 5 16 10 3 6 -1 10 -9 10 -9 0
-16 -4 -16 -10z"/>
<path d="M2348 1456 c-21 -5 -38 -13 -38 -17 0 -4 -9 -6 -19 -4 -11 2 -27 -5
-37 -16 -23 -25 -10 -37 16 -14 11 10 23 15 26 12 4 -3 16 -2 27 4 14 8 18 8
13 0 -5 -7 2 -11 17 -11 14 0 27 -7 31 -15 6 -18 -30 -45 -61 -45 -13 0 -23
-4 -23 -10 0 -12 21 -13 52 -1 24 9 40 13 36 9 -2 -2 5 -14 14 -27 20 -28 14
-73 -15 -113 -26 -35 -18 -59 10 -31 12 12 30 24 42 28 12 3 21 14 21 23 0 10
8 25 18 34 9 9 23 24 30 32 9 11 31 16 75 16 l62 1 -32 14 c-38 16 -44 46 -15
78 16 19 16 20 -1 14 -9 -4 -28 -2 -41 4 -17 8 -29 8 -45 0 -18 -10 -19 -15
-10 -33 10 -19 9 -20 -17 -14 -15 4 -43 14 -62 22 -29 12 -33 18 -28 38 8 31
0 35 -46 22z m124 -96 c28 -17 30 -20 12 -20 -12 0 -32 9 -45 20 -31 25 -9 26
33 0z"/>
<path d="M2095 1431 c1 -9 -6 -26 -17 -38 -11 -12 -17 -26 -13 -32 9 -16 45
-13 51 4 3 8 14 17 25 20 11 4 17 11 14 16 -4 5 6 4 22 -2 15 -5 24 -7 20 -3
-4 4 0 15 9 25 14 16 13 18 -14 23 -49 11 -100 4 -97 -13z"/>
<path d="M2751 1399 c-6 -16 -5 -29 3 -38 9 -12 8 -13 -3 -6 -10 5 -12 4 -7
-3 10 -17 26 -15 26 3 0 19 2 19 42 -4 28 -17 36 -18 51 -7 16 13 14 15 -23
35 -22 11 -40 18 -40 14 0 -3 -9 2 -20 12 -19 17 -20 17 -29 -6z"/>
<path d="M2640 1356 c0 -21 21 -31 30 -15 5 7 6 17 4 21 -9 14 -34 9 -34 -6z"/>
<path d="M2755 1245 c-3 -8 -7 -22 -10 -31 -4 -13 0 -15 17 -10 13 3 26 6 29
6 14 0 19 34 7 42 -20 12 -38 9 -43 -7z"/>
<path d="M3010 1219 c0 -5 5 -7 10 -4 6 3 10 8 10 11 0 2 -4 4 -10 4 -5 0 -10
-5 -10 -11z"/>
<path d="M2689 1173 c-13 -16 -12 -17 4 -4 16 13 21 21 13 21 -2 0 -10 -8 -17
-17z"/>
<path d="M2632 1168 c3 -7 13 -15 24 -17 16 -3 17 -1 5 13 -16 19 -34 21 -29
4z"/>
<path d="M3344 1156 c-3 -8 -3 -20 1 -26 4 -6 1 -9 -7 -8 -8 2 -14 -8 -16 -26
-3 -22 0 -27 12 -23 10 4 13 1 10 -7 -3 -8 -2 -16 3 -19 11 -7 28 14 29 36 3
43 5 48 14 42 5 -3 7 0 5 7 -3 7 -14 19 -25 26 -17 10 -21 10 -26 -2z m32 -23
c-7 -7 -26 7 -26 19 0 6 6 6 15 -2 9 -7 13 -15 11 -17z"/>
<path d="M2111 1131 c-10 -6 -10 -10 -1 -16 13 -8 24 -1 19 14 -3 6 -10 7 -18
2z"/>
<path d="M2390 1105 c-10 -12 -9 -16 3 -21 17 -6 37 2 37 16 0 15 -29 19 -40
5z"/>
<path d="M2933 1095 c0 -8 4 -15 9 -15 4 0 8 7 8 15 0 8 -4 15 -8 15 -5 0 -9
-7 -9 -15z"/>
<path d="M2454 626 c1 -8 5 -18 8 -22 4 -3 5 1 4 10 -1 8 -5 18 -8 22 -4 3 -5
-1 -4 -10z"/>
</g>
</svg>
