<?xml version="1.0" standalone="no"?>
<!DOCTYPE svg PUBLIC "-//W3C//DTD SVG 20010904//EN"
 "http://www.w3.org/TR/2001/REC-SVG-20010904/DTD/svg10.dtd">
<svg version="1.0" xmlns="http://www.w3.org/2000/svg"
 width="450.000000pt" height="253.000000pt" viewBox="0 0 450.000000 253.000000"
 preserveAspectRatio="xMidYMid meet">
<metadata>
Created by potrace 1.16, written by Peter Selinger 2001-2019
</metadata>
<g transform="translate(0.000000,253.000000) scale(0.100000,-0.100000)"
fill="#000000" stroke="none">
<path d="M0 1265 l0 -1265 2250 0 2250 0 0 1265 0 1265 -2250 0 -2250 0 0
-1265z m3020 686 c110 -35 227 -123 313 -235 40 -53 45 -72 22 -102 -8 -10
-15 -25 -15 -32 0 -25 -63 -74 -152 -119 -47 -25 -95 -43 -105 -40 -16 4 -15
6 4 12 13 4 20 12 16 19 -3 6 -2 8 2 3 11 -10 46 23 38 37 -4 7 -2 7 7 -1 9
-8 21 -7 49 4 20 8 38 19 41 23 3 4 20 15 38 24 17 9 32 19 32 22 0 3 -4 2
-10 -1 -5 -3 -10 -2 -10 4 0 5 9 13 20 16 11 3 20 14 20 22 0 9 -3 14 -6 10
-3 -3 -17 -2 -31 4 -16 6 -22 6 -18 -1 3 -6 -1 -10 -10 -10 -9 0 -14 3 -12 8
3 4 -18 7 -46 7 -48 -1 -52 -3 -50 -23 2 -13 -1 -21 -6 -18 -5 4 -12 0 -14 -6
-4 -8 -6 -7 -6 4 -1 9 -5 20 -11 23 -6 4 -7 -1 -3 -12 5 -14 3 -16 -7 -6 -10
9 -18 9 -34 1 -19 -10 -19 -9 -8 5 11 13 11 15 0 13 -7 -1 -19 -6 -27 -10 -9
-6 -12 -5 -7 2 7 12 -65 9 -86 -4 -6 -4 -8 -3 -4 4 3 6 2 13 -4 17 -5 3 -10 1
-10 -5 0 -7 -6 -8 -17 -2 -10 5 -51 10 -91 10 -56 2 -71 -1 -66 -11 5 -8 2 -8
-9 2 -13 10 -17 10 -17 1 0 -9 -7 -8 -24 3 -13 9 -27 13 -30 10 -13 -14 -38
-11 -32 2 3 8 -4 21 -16 29 -11 8 -17 19 -14 25 4 6 -2 20 -13 32 -17 19 -18
25 -7 48 6 14 11 42 11 61 -1 19 2 46 7 60 8 21 4 19 -25 -12 -19 -21 -37 -35
-41 -31 -3 3 -6 1 -6 -5 0 -5 6 -13 13 -16 8 -4 7 -5 -3 -5 -29 2 -40 -1 -40
-12 0 -5 5 -7 10 -4 12 8 12 -13 -1 -40 -9 -19 -9 -19 -6 1 4 18 2 20 -18 10
-13 -6 -21 -14 -19 -17 2 -4 -5 -9 -16 -12 -11 -3 -23 0 -27 6 -7 12 44 60 57
52 4 -2 13 9 20 25 15 36 133 111 213 136 28 9 57 17 62 19 31 9 178 -5 235
-24z m-696 -39 c3 -5 -9 -7 -27 -6 l-32 3 30 -8 c39 -11 118 -13 112 -3 -3 4
8 7 23 7 16 0 27 -2 25 -4 -2 -2 3 -10 11 -19 8 -8 12 -18 7 -23 -14 -13 -123
-38 -123 -28 0 5 7 12 15 14 51 16 51 17 28 26 -27 10 -123 0 -123 -14 0 -5
11 -7 24 -5 14 3 31 1 38 -4 9 -7 7 -8 -7 -4 -20 6 -20 6 -1 -9 17 -13 17 -15
3 -21 -11 -4 -15 -15 -12 -35 3 -24 -1 -32 -20 -39 -13 -5 -32 -8 -42 -8 -10
1 -27 -2 -38 -5 -15 -5 -23 -1 -30 16 -6 12 -14 20 -18 17 -5 -3 -13 3 -18 13
-6 9 -18 17 -28 17 -11 0 -21 7 -25 15 -3 8 -10 15 -15 15 -12 0 -1 -41 16
-58 7 -7 13 -20 13 -29 0 -24 -23 -9 -33 23 -6 16 -16 33 -24 37 -7 5 -11 12
-8 18 4 5 1 9 -4 9 -6 0 -11 5 -11 11 0 6 7 9 15 5 16 -6 20 5 8 18 -5 4 -8
13 -8 19 0 7 -18 14 -40 17 -60 8 -22 16 85 19 52 2 97 5 99 7 8 8 130 4 135
-4z m194 -30 c3 -9 -2 -13 -14 -10 -9 1 -19 9 -22 16 -3 9 2 13 14 10 9 -1 19
-9 22 -16z m-552 -17 c1 -11 4 -31 9 -44 5 -17 4 -22 -6 -18 -8 2 -23 -3 -33
-12 -11 -9 -16 -11 -13 -4 4 6 3 14 -3 18 -14 9 -13 58 2 73 18 18 43 10 44
-13z m-78 -123 c-10 -2 -18 -8 -18 -13 0 -5 -5 -9 -10 -9 -7 0 -7 6 0 20 7 13
16 17 28 12 16 -6 16 -7 0 -10z m158 5 c4 -4 -1 -9 -10 -13 -9 -3 -13 -10 -10
-15 3 -5 -5 -9 -17 -9 -18 0 -19 3 -9 15 6 8 9 18 6 23 -6 10 30 9 40 -1z
m-71 -37 c14 -5 24 -14 21 -18 -3 -5 9 -8 27 -8 26 1 33 -3 35 -21 3 -19 -1
-23 -23 -23 -15 0 -42 7 -60 16 -19 9 -51 14 -76 12 -39 -3 -44 -6 -46 -28 -1
-26 -1 -26 74 -23 42 1 73 -1 69 -5 -4 -3 -19 -7 -34 -8 -69 -5 -80 -15 -58
-49 9 -14 13 -25 9 -24 -4 1 -21 1 -38 0 -29 -2 -29 -3 -7 -12 l24 -9 -21 -26
c-24 -31 -28 -52 -6 -34 13 10 15 9 15 -9 0 -32 -40 -81 -66 -81 -12 0 -25 -6
-28 -12 -3 -7 -5 41 -3 107 2 101 5 126 22 150 11 17 20 38 20 48 0 13 16 24
54 38 30 10 56 21 59 24 7 7 6 7 37 -5z m660 -69 c3 -5 2 -12 -3 -15 -5 -3 -9
1 -9 9 0 17 3 19 12 6z m547 -30 c8 11 9 11 6 1 -4 -16 -22 -18 -24 -2 -2 7
-1 6 3 -1 4 -8 8 -7 15 2z m57 -37 c5 4 12 3 15 -2 10 -16 -33 -10 -46 6 -12
15 -11 16 4 4 9 -8 22 -11 27 -8z m-184 -164 c6 -10 5 -11 -32 -15 -25 -2 -31
10 -10 18 20 9 35 8 42 -3z m-351 -16 c9 -3 16 -10 16 -15 0 -14 -26 -10 -40
6 -13 16 -3 20 24 9z"/>
</g>
</svg>
