<?xml version="1.0" standalone="no"?>
<!DOCTYPE svg PUBLIC "-//W3C//DTD SVG 20010904//EN"
 "http://www.w3.org/TR/2001/REC-SVG-20010904/DTD/svg10.dtd">
<svg version="1.0" xmlns="http://www.w3.org/2000/svg"
 width="450.000000pt" height="253.000000pt" viewBox="0 0 450.000000 253.000000"
 preserveAspectRatio="xMidYMid meet">
<metadata>
Created by potrace 1.16, written by Peter Selinger 2001-2019
</metadata>
<g transform="translate(0.000000,253.000000) scale(0.100000,-0.100000)"
fill="#000000" stroke="none">
<path d="M0 1265 l0 -1265 2250 0 2250 0 0 1265 0 1265 -717 0 c-681 0 -715
-1 -701 -17 20 -23 68 -125 68 -144 0 -8 4 -19 9 -24 4 -6 14 -39 21 -75 7
-36 17 -73 22 -83 5 -10 12 -37 14 -60 3 -23 7 -44 10 -46 3 -3 42 -17 87 -33
l82 -27 39 27 c60 41 116 35 242 -28 56 -27 106 -50 111 -50 11 0 63 -57 79
-85 11 -19 10 -58 -2 -115 -7 -32 -197 -215 -249 -240 -22 -10 -73 -29 -113
-41 l-72 -23 20 -21 c12 -12 22 -37 24 -56 2 -19 12 -52 21 -74 22 -51 32
-214 16 -271 -12 -44 -90 -134 -116 -134 -8 0 -17 -5 -21 -11 -7 -12 -106 -6
-194 11 -25 5 -61 11 -80 14 -54 7 -140 35 -191 63 l-47 25 -31 -28 c-26 -23
-31 -35 -31 -73 -1 -70 -34 -120 -103 -154 -31 -16 -75 -31 -99 -34 -24 -3
-48 -10 -54 -15 -8 -6 -34 16 -80 69 -38 42 -81 90 -95 105 -65 67 -89 172
-51 226 26 36 29 72 6 72 -13 0 -14 3 -4 14 6 8 17 13 25 10 16 -6 29 12 20
27 -5 7 -13 5 -25 -6 -17 -16 -21 -14 -59 24 -23 23 -41 49 -41 59 0 10 -3 22
-7 25 -3 4 -7 33 -7 65 -1 44 3 60 17 72 17 14 17 18 4 43 -18 35 -11 66 17
77 12 4 28 15 34 23 11 13 5 19 -47 42 -34 15 -65 33 -71 40 -10 13 -60 9 -60
-5 0 -4 11 -5 25 -2 20 3 24 1 19 -12 -3 -9 -11 -13 -17 -9 -7 4 -8 0 -4 -11
4 -10 7 -20 7 -22 0 -2 17 -4 38 -4 20 0 32 -4 27 -8 -10 -6 -13 -20 -17 -69
-1 -7 -5 -10 -9 -7 -4 2 -20 -11 -36 -31 -15 -19 -34 -35 -40 -35 -7 0 -13 -5
-13 -11 0 -5 -4 -8 -9 -5 -5 3 -11 -5 -13 -18 -4 -18 -1 -23 11 -21 9 2 20 4
24 4 5 1 5 7 1 14 -4 6 -4 9 1 5 4 -4 16 -3 26 3 15 7 17 6 13 -6 -3 -8 -10
-12 -15 -9 -5 3 -9 0 -9 -5 0 -6 -7 -11 -16 -11 -9 0 -12 -5 -8 -12 4 -6 3 -8
-4 -4 -12 7 -42 -19 -42 -37 0 -49 62 -144 79 -120 3 5 11 8 16 8 19 -2 65
-28 65 -37 0 -5 4 -7 8 -4 4 2 7 -7 6 -22 -1 -24 -24 -47 -24 -24 0 6 -23 10
-52 10 -53 -1 -135 26 -238 76 -84 41 -91 100 -26 229 25 48 46 100 48 115 2
15 8 33 13 39 6 7 19 24 30 39 11 15 37 46 57 69 21 23 34 45 30 49 -4 4 5 5
21 1 18 -5 27 -3 27 5 0 6 5 8 11 4 7 -4 10 4 8 22 -4 38 -17 54 -41 54 -15 0
-19 -5 -15 -19 4 -16 -22 -51 -38 -51 -9 0 -72 66 -86 90 -32 53 -60 190 -52
250 5 40 23 52 113 75 88 22 243 45 270 39 14 -3 47 -13 73 -21 58 -18 72 -10
82 47 4 21 20 59 36 85 16 25 29 49 29 54 0 4 12 19 28 33 15 14 35 35 44 47
l18 21 -1300 0 -1300 0 0 -1265z m2300 -86 c0 -11 -29 -19 -34 -10 -3 5 -3 10
-1 13 8 7 35 5 35 -3z m155 -528 c3 -5 1 -12 -5 -16 -5 -3 -10 1 -10 9 0 18 6
21 15 7z m-2 -70 c2 -10 1 -25 -4 -32 -6 -10 -9 -4 -9 19 0 36 5 42 13 13z
m-10 -171 c3 -11 1 -20 -4 -20 -5 0 -9 9 -9 20 0 11 2 20 4 20 2 0 6 -9 9 -20z
m-6 -52 c-3 -8 -6 -5 -6 6 -1 11 2 17 5 13 3 -3 4 -12 1 -19z"/>
<path d="M2385 1950 c-11 -4 -23 -6 -27 -4 -4 3 -13 -4 -20 -13 -7 -10 -25
-24 -40 -30 -23 -11 -28 -25 -18 -53 1 -3 2 -8 1 -12 0 -5 4 -8 10 -8 5 0 8
-4 5 -9 -4 -5 0 -12 6 -14 8 -3 6 -6 -4 -6 -12 -1 -15 -6 -11 -18 4 -10 2 -14
-4 -10 -6 4 -9 -9 -6 -36 5 -55 11 -70 24 -61 8 4 7 9 -2 16 -11 8 -11 9 1 5
8 -2 15 -14 15 -27 0 -13 5 -25 11 -27 7 -2 10 5 7 21 -4 19 3 33 30 58 45 42
106 92 118 96 14 5 11 50 -3 55 -17 5 8 37 28 37 8 0 14 4 14 10 0 5 -7 6 -17
3 -11 -4 -14 -3 -9 5 4 8 2 10 -8 6 -8 -3 -24 0 -36 6 -18 10 -21 10 -14 -2 4
-8 0 -7 -12 3 -12 11 -26 14 -39 9z m-65 -175 c11 -13 10 -14 -4 -9 -9 3 -16
10 -16 15 0 13 6 11 20 -6z m-1 -29 c8 -10 9 -16 1 -21 -6 -4 -9 -1 -8 6 2 6
-3 14 -10 16 -8 3 -10 -2 -6 -14 5 -14 4 -15 -4 -3 -19 26 6 42 27 16z"/>
<path d="M2920 1903 c0 -12 5 -25 10 -28 6 -3 7 -18 3 -33 -3 -15 -6 -32 -6
-39 0 -7 -5 -13 -11 -13 -6 0 -7 -3 0 -10 12 -12 56 -1 51 14 -2 6 2 17 10 24
7 7 13 23 12 35 -1 20 -2 20 -9 -3 -8 -25 -11 -22 -15 15 -1 11 -3 26 -3 33
-1 6 -7 12 -13 12 -5 0 -7 -6 -4 -12 4 -7 -1 -4 -9 6 -16 19 -16 19 -16 -1z"/>
<path d="M3016 1911 c-4 -5 -15 -8 -26 -6 -11 2 -20 0 -20 -4 0 -16 12 -19 40
-11 21 6 32 4 41 -6 6 -8 7 -14 2 -14 -5 0 -10 -6 -10 -14 0 -8 6 -12 14 -9 7
3 21 2 31 -2 14 -6 10 -11 -21 -25 -21 -9 -38 -21 -37 -26 1 -5 -9 -11 -22
-14 -16 -4 -19 -8 -10 -14 7 -4 11 -14 8 -22 -7 -18 24 -35 45 -23 14 7 16 5
12 -11 -3 -11 -10 -23 -15 -26 -5 -3 -4 -12 3 -20 9 -11 6 -16 -16 -24 -33
-13 -45 -13 -46 0 -1 6 -2 15 -3 21 0 5 -12 19 -26 29 -21 17 -23 21 -10 29
17 12 8 24 -20 26 -15 1 -17 -1 -9 -11 12 -14 3 -38 -11 -29 -8 5 -28 -14 -29
-30 -3 -25 -13 -45 -22 -39 -5 3 -7 10 -4 15 4 5 1 9 -4 9 -6 0 -11 6 -11 14
0 8 -6 17 -12 19 -10 4 -10 6 -1 6 7 1 10 7 7 15 -4 11 -12 13 -30 6 -29 -11
-30 -5 -6 35 31 50 34 67 14 62 -9 -3 -38 -10 -64 -17 -43 -11 -47 -15 -42
-36 8 -30 -8 -31 -61 -4 -30 15 -41 17 -47 7 -5 -8 2 -15 22 -20 18 -4 30 -14
30 -24 0 -9 3 -13 6 -10 4 3 15 2 25 -4 13 -7 17 -17 14 -32 -3 -12 -7 -32 -8
-44 -1 -15 -8 -23 -19 -23 -24 0 -45 -50 -26 -62 7 -4 17 -8 21 -8 10 0 26 42
20 53 -2 4 1 6 8 5 7 -2 21 14 31 35 20 41 24 43 52 22 10 -8 22 -12 27 -10 4
3 5 -4 2 -15 -6 -22 -18 -26 -28 -10 -7 12 -25 4 -25 -11 0 -5 11 -15 25 -21
15 -7 24 -17 21 -25 -3 -7 1 -13 10 -13 12 0 15 -6 10 -24 -4 -18 -2 -25 11
-28 11 -2 -1 -11 -30 -23 -38 -15 -47 -24 -47 -43 0 -21 -2 -22 -15 -12 -8 7
-15 18 -15 25 0 7 7 18 15 25 19 16 19 30 0 30 -9 0 -29 7 -45 15 -34 18 -93
4 -72 -17 8 -8 15 -8 27 2 12 10 15 10 15 -3 0 -9 -10 -17 -22 -19 -33 -4 -37
-38 -4 -38 14 0 37 -11 52 -24 l28 -23 -32 5 c-34 5 -42 -8 -17 -28 8 -7 15
-26 15 -42 0 -29 -25 -88 -42 -99 -10 -6 28 -79 41 -79 14 0 21 13 12 24 -4 6
-10 23 -13 38 -4 24 -2 26 24 26 16 -1 33 -8 38 -17 5 -9 10 -12 10 -8 0 4 -7
19 -16 32 -9 14 -14 31 -11 39 3 7 0 20 -6 27 -7 7 -3 6 9 -4 11 -9 26 -17 32
-17 16 0 15 20 0 21 -7 0 -3 4 10 9 12 5 30 7 40 4 12 -4 13 -3 4 3 -25 18 17
37 89 41 56 4 72 8 84 25 14 20 15 20 34 3 15 -14 24 -15 40 -6 20 10 30 50
12 50 -5 0 -12 11 -15 25 -6 22 -11 25 -46 21 -39 -3 -54 -10 -56 -24 -3 -21
-36 -82 -44 -82 -15 0 -12 31 6 51 12 13 13 25 6 51 -5 18 -7 42 -5 53 2 11 5
26 5 33 2 14 54 17 63 3 8 -14 67 9 62 23 -6 15 35 15 45 1 5 -6 8 -5 8 3 0 6
5 12 11 12 5 0 7 -6 3 -12 -6 -10 -5 -10 8 -1 8 7 19 9 23 5 5 -4 5 -1 1 6 -4
6 -16 12 -27 12 -10 0 -19 3 -19 6 0 14 42 42 58 39 13 -2 17 4 17 25 0 16 -3
31 -7 35 -5 6 0 74 7 83 1 2 15 5 31 8 33 6 45 14 21 14 -9 0 -17 4 -17 8 0
17 -105 67 -134 64 -16 -1 -34 2 -41 8 -9 7 -15 7 -19 1z m99 -161 c4 -6 -7
-10 -27 -10 -25 0 -29 3 -18 10 19 13 37 13 45 0z m-335 -4 c0 -23 -14 -34
-33 -27 -12 5 -29 6 -37 3 -9 -2 -7 2 5 12 18 14 65 23 65 12z m135 -136 c3
-5 2 -10 -4 -10 -5 0 -13 5 -16 10 -3 6 -2 10 4 10 5 0 13 -4 16 -10z m-45
-170 c-5 -16 -6 -30 -3 -30 3 0 0 -7 -7 -15 -7 -8 -16 -13 -20 -10 -10 6 0 55
11 55 5 0 9 7 9 15 0 8 4 15 9 15 6 0 6 -12 1 -30z"/>
<path d="M2151 1834 c0 -11 3 -14 6 -6 3 7 2 16 -1 19 -3 4 -6 -2 -5 -13z"/>
<path d="M2610 1650 c0 -5 5 -10 11 -10 5 0 7 5 4 10 -3 6 -8 10 -11 10 -2 0
-4 -4 -4 -10z"/>
<path d="M2465 1640 c-4 -6 -11 -7 -17 -4 -6 4 -8 2 -4 -4 3 -6 2 -13 -2 -16
-13 -8 -7 -51 6 -50 28 2 32 5 32 20 0 10 -5 14 -16 10 -8 -3 -12 -2 -9 4 3 6
12 10 19 10 7 0 21 9 31 20 18 20 17 20 -8 20 -14 0 -29 -5 -32 -10z"/>
<path d="M2540 1628 c0 -6 3 -8 7 -5 3 4 13 1 22 -6 14 -11 14 -10 2 6 -15 20
-31 22 -31 5z"/>
<path d="M2522 1594 c-11 -12 -11 -17 1 -29 13 -13 17 -13 28 1 10 12 10 18
-2 29 -12 11 -16 11 -27 -1z"/>
<path d="M2710 1580 c-13 -9 -12 -12 4 -25 33 -25 44 -17 30 19 -7 19 -13 20
-34 6z"/>
<path d="M2453 1543 c-26 -5 -31 -38 -8 -47 8 -3 15 -1 15 5 0 5 11 15 25 21
46 21 29 33 -32 21z"/>
<path d="M2443 1473 c-8 -3 -10 -15 -6 -34 6 -32 -7 -38 -31 -14 -8 8 -21 15
-28 15 -7 0 5 -12 27 -25 22 -14 36 -25 30 -25 -5 0 6 -8 25 -18 19 -10 34
-23 32 -31 -1 -7 2 -9 8 -6 6 4 16 -6 22 -23 15 -39 44 -48 51 -16 2 15 -3 30
-14 40 -11 10 -19 22 -19 29 0 7 -10 17 -22 24 l-23 12 23 -5 c15 -3 22 0 20
9 -2 8 6 21 17 29 17 13 18 17 5 25 -9 7 -18 7 -24 1 -14 -14 -26 -12 -26 3 0
13 -44 20 -67 10z"/>
<path d="M2566 1392 c-13 -12 -5 -22 19 -22 14 0 25 4 25 9 0 10 -36 21 -44
13z"/>
<path d="M2950 1296 c0 -14 5 -28 10 -31 25 -16 -12 -42 -52 -36 -9 1 -19 -3
-23 -9 -8 -13 11 -13 74 1 45 9 52 14 59 42 11 40 -1 57 -39 57 -24 0 -29 -4
-29 -24z"/>
<path d="M3060 1249 c0 -5 5 -7 10 -4 6 3 10 8 10 11 0 2 -4 4 -10 4 -5 0 -10
-5 -10 -11z"/>
<path d="M2750 1113 c1 -25 50 -55 50 -31 0 6 6 4 13 -6 12 -16 15 -17 20 -3
4 11 -5 20 -34 31 -45 18 -49 19 -49 9z"/>
</g>
</svg>
