<?xml version="1.0" standalone="no"?>
<!DOCTYPE svg PUBLIC "-//W3C//DTD SVG 20010904//EN"
 "http://www.w3.org/TR/2001/REC-SVG-20010904/DTD/svg10.dtd">
<svg version="1.0" xmlns="http://www.w3.org/2000/svg"
 width="450.000000pt" height="253.000000pt" viewBox="0 0 450.000000 253.000000"
 preserveAspectRatio="xMidYMid meet">
<metadata>
Created by potrace 1.16, written by Peter Selinger 2001-2019
</metadata>
<g transform="translate(0.000000,253.000000) scale(0.100000,-0.100000)"
fill="#000000" stroke="none">
<path d="M0 1265 l0 -1265 2250 0 2250 0 0 1265 0 1265 -2250 0 -2250 0 0
-1265z m3172 745 c140 -18 149 -20 218 -41 87 -26 125 -50 145 -93 19 -39 14
-66 -11 -66 -32 0 -6 -25 52 -48 67 -27 110 -63 130 -109 12 -29 11 -35 -12
-76 -27 -49 -61 -77 -94 -77 -11 0 -20 -5 -20 -10 0 -6 -11 -16 -25 -22 -23
-10 -35 -38 -17 -38 18 0 72 -107 77 -155 5 -43 3 -55 -19 -84 -14 -18 -35
-40 -46 -48 -26 -18 -106 -28 -115 -14 -3 7 -15 7 -30 1 -15 -6 -27 -6 -30 0
-3 5 -13 6 -22 3 -11 -4 -14 -2 -9 5 7 12 -5 10 -61 -7 -23 -7 -33 -6 -37 2
-3 8 -7 9 -13 2 -20 -24 -136 -21 -208 6 -69 25 -89 39 -57 39 12 0 22 4 22 9
0 6 32 8 76 5 52 -4 74 -2 69 5 -3 6 2 11 12 11 11 0 28 6 38 14 17 12 17 13
-8 18 -15 3 -27 1 -27 -3 0 -5 -11 -9 -25 -9 -23 0 -26 4 -24 28 0 4 6 6 14 4
7 -1 17 3 21 9 5 8 3 9 -6 4 -9 -5 -11 -4 -6 3 4 7 18 12 32 12 14 0 22 4 19
10 -9 15 -48 12 -71 -5 -27 -21 -34 -19 -34 11 0 14 4 23 10 19 5 -3 18 3 30
15 15 15 16 20 6 20 -8 0 -18 -5 -22 -11 -4 -8 -9 -7 -15 2 -7 11 -9 11 -9 1
0 -7 -5 -10 -12 -6 -7 4 -8 3 -4 -5 5 -8 -1 -10 -22 -6 -20 3 -29 1 -29 -9 0
-8 6 -12 15 -8 10 3 13 1 8 -6 -6 -10 4 -16 25 -14 3 1 6 -5 6 -12 0 -9 -12
-11 -44 -6 -41 7 -56 -1 -31 -16 25 -16 -26 -20 -122 -9 -86 9 -105 15 -149
45 -27 19 -48 37 -45 41 2 4 -1 11 -7 15 -12 7 -38 65 -44 96 -2 10 0 16 6 13
5 -4 9 5 9 19 0 14 -5 26 -11 26 -5 0 -7 4 -4 10 3 5 -1 20 -9 32 -10 15 -15
47 -14 93 1 56 6 78 28 115 15 25 27 50 28 55 5 27 14 45 22 45 5 0 7 13 4 29
-5 23 -1 32 23 48 38 26 78 41 136 49 26 3 67 12 90 19 56 16 149 18 249 5z
m-689 -112 c3 -10 7 -10 20 0 9 8 21 11 28 7 6 -4 34 -9 62 -11 89 -7 89 -41
0 -55 -137 -20 -168 -29 -185 -51 -10 -13 -18 -28 -18 -35 0 -22 -100 -40
-100 -18 0 6 -10 19 -22 29 -20 18 -21 18 -14 0 9 -22 9 -22 7 -51 -2 -36 -21
-27 -21 10 0 21 -9 42 -25 60 -32 34 -43 35 -20 1 11 -17 14 -35 10 -55 -4
-18 -3 -29 4 -29 6 0 11 -7 11 -16 0 -8 5 -12 11 -8 14 8 29 -14 22 -33 -7
-17 -21 -16 -56 2 -15 8 -25 10 -22 5 4 -6 2 -10 -4 -10 -5 0 -14 7 -18 15 -5
8 -21 16 -36 17 -31 3 -34 10 -11 32 19 19 49 22 38 4 -4 -7 2 -4 14 6 12 11
22 24 22 30 0 6 -7 2 -15 -8 -8 -11 -15 -15 -15 -9 0 6 7 16 15 23 14 12 13
15 -5 32 -17 16 -24 17 -35 8 -13 -11 -15 -6 -15 28 0 46 10 57 58 61 14 1 14
3 3 10 -21 13 20 18 176 20 97 1 132 -2 136 -11z m-357 -276 c39 10 77 2 71
-15 -2 -7 -18 -11 -35 -9 -30 3 -51 -11 -33 -23 6 -3 9 -11 7 -18 -1 -7 -1 -9
1 -4 6 10 53 9 53 -2 0 -11 -34 -20 -75 -22 -23 0 -26 -2 -12 -8 17 -6 17 -8
-3 -30 -22 -27 -19 -41 5 -21 19 15 19 9 1 -35 -8 -18 -11 -36 -8 -40 9 -9
-39 -44 -53 -39 -6 3 -10 17 -8 32 9 92 14 125 30 192 9 42 19 65 21 53 3 -19
6 -20 38 -11z"/>
<path d="M3235 1830 c-12 -19 36 -62 61 -56 16 4 36 -6 75 -42 30 -26 48 -40
42 -31 -7 9 -11 19 -8 22 3 4 2 5 -2 2 -8 -6 -43 24 -43 37 0 13 -42 47 -58
48 -7 0 -11 4 -8 8 3 5 -5 8 -17 7 -12 -1 -25 2 -28 8 -4 5 -9 4 -14 -3z"/>
<path d="M3322 1738 c-19 -19 -14 -30 8 -18 11 6 20 15 20 20 0 14 -14 12 -28
-2z"/>
<path d="M3347 1714 c-3 -3 -3 -12 0 -20 3 -8 2 -14 -3 -12 -20 6 -56 -24 -51
-43 3 -10 0 -17 -7 -16 -6 1 -12 -14 -13 -38 -1 -22 1 -31 4 -21 4 15 7 16 14
5 6 -10 9 -6 9 14 0 19 4 26 12 21 7 -4 8 -3 4 5 -4 6 -2 18 4 26 6 8 9 18 6
23 -3 6 5 13 19 16 26 7 35 26 13 26 -9 0 -8 4 2 10 8 5 10 10 4 10 -6 0 -13
-3 -17 -6z"/>
<path d="M3413 1665 c0 -8 4 -12 9 -9 5 3 6 10 3 15 -9 13 -12 11 -12 -6z"/>
<path d="M3226 1601 c-4 -5 -2 -12 3 -15 5 -4 12 -2 15 3 4 5 2 12 -3 15 -5 4
-12 2 -15 -3z"/>
<path d="M3232 1506 c-12 -22 -22 -51 -22 -64 0 -31 37 -45 68 -26 12 8 22 10
22 5 0 -4 11 -8 24 -8 19 0 22 2 13 12 -9 9 -14 10 -19 1 -5 -7 -8 -4 -8 7 0
10 -4 16 -9 13 -11 -7 -6 37 7 61 9 14 10 11 8 -19 -2 -21 1 -38 5 -38 5 0 9
7 9 16 0 9 5 12 12 8 7 -4 8 -3 4 5 -4 6 -12 9 -17 6 -5 -4 -9 -1 -9 4 0 6 5
11 12 11 6 0 1 11 -11 24 -34 36 -64 31 -89 -18z m73 25 c3 -5 2 -12 -3 -15
-5 -3 -9 1 -9 9 0 17 3 19 12 6z"/>
</g>
</svg>
