<?xml version="1.0" standalone="no"?>
<!DOCTYPE svg PUBLIC "-//W3C//DTD SVG 20010904//EN"
 "http://www.w3.org/TR/2001/REC-SVG-20010904/DTD/svg10.dtd">
<svg version="1.0" xmlns="http://www.w3.org/2000/svg"
 width="450.000000pt" height="253.000000pt" viewBox="0 0 450.000000 253.000000"
 preserveAspectRatio="xMidYMid meet">
<metadata>
Created by potrace 1.16, written by Peter Selinger 2001-2019
</metadata>
<g transform="translate(0.000000,253.000000) scale(0.100000,-0.100000)"
fill="#000000" stroke="none">
<path d="M0 1265 l0 -1265 2250 0 2250 0 0 1265 0 1265 -2250 0 -2250 0 0
-1265z m2845 683 c116 -17 238 -82 347 -188 l91 -87 -6 -43 c-6 -44 -30 -80
-44 -66 -4 4 0 13 10 20 25 19 23 50 -3 43 -12 -3 -18 -1 -14 5 5 7 -2 9 -19
6 -15 -3 -24 -1 -21 3 3 5 -8 9 -25 9 -16 0 -33 -5 -36 -10 -4 -6 -11 -8 -16
-5 -5 4 -9 3 -9 -2 0 -4 -17 -8 -37 -7 -21 0 -42 -1 -47 -4 -14 -8 -104 -7
-99 1 3 6 -19 9 -43 6 -4 0 -11 5 -15 13 -7 10 -9 10 -9 1 0 -15 -36 -17 -45
-3 -4 6 -10 8 -15 5 -5 -3 -11 -1 -15 5 -4 6 -11 8 -16 5 -5 -3 -6 0 -3 8 4
11 -5 14 -41 12 -25 -2 -49 -6 -53 -10 -4 -5 -2 -5 5 -1 6 3 14 3 17 -2 3 -5
-11 -8 -30 -7 -38 1 -60 24 -50 51 4 9 2 12 -5 8 -6 -3 -21 -1 -34 6 -22 12
-23 14 -9 35 11 17 12 25 4 30 -7 4 -9 18 -6 32 4 13 3 29 -1 36 -12 20 -12
37 0 37 8 0 8 3 -1 9 -24 14 107 55 188 58 19 1 67 -3 105 -9z m-685 -50 c16
-10 24 -10 41 1 18 11 23 11 30 -1 7 -10 9 -10 9 0 0 6 7 12 15 12 8 0 15 -5
15 -11 0 -6 7 -9 15 -5 8 3 15 1 15 -4 0 -6 28 -9 67 -8 44 2 68 -1 70 -9 3
-7 -3 -9 -16 -6 -15 4 -21 1 -21 -10 0 -9 -13 -19 -32 -23 -37 -9 -33 -8 -69
-18 -14 -4 -33 -8 -42 -10 -9 -1 -19 -5 -23 -9 -4 -3 3 -5 15 -2 11 2 21 -1
21 -6 0 -6 4 -8 9 -5 4 3 6 -6 3 -19 -5 -27 -37 -41 -71 -32 -10 2 -26 0 -35
-5 -11 -6 -16 -5 -16 5 0 17 -27 30 -41 21 -5 -3 -8 0 -7 8 2 7 -11 17 -29 22
-34 10 -46 36 -17 36 8 0 12 5 9 10 -4 7 -13 7 -25 0 -15 -8 -24 -6 -40 10
-11 11 -20 24 -20 30 0 5 -17 13 -37 17 l-38 7 35 7 c63 12 189 10 210 -3z
m365 -18 c-3 -5 -14 -10 -23 -10 -15 -1 -15 -2 -2 -13 9 -7 16 -20 17 -29 1
-35 3 -39 14 -32 6 3 4 -5 -5 -18 -9 -14 -13 -28 -9 -33 5 -4 2 -5 -4 -1 -7 4
-13 3 -13 -2 0 -14 -98 -12 -103 2 -6 14 20 50 74 108 33 34 70 53 54 28z
m-630 -8 c6 -4 12 -16 13 -27 2 -11 9 -26 14 -33 6 -7 8 -15 4 -19 -3 -3 -6
-2 -6 3 0 6 -18 10 -40 9 -35 -1 -40 2 -40 21 0 47 25 68 55 46z m-101 -107
c-4 -9 0 -15 7 -15 10 -1 9 -4 -3 -14 -10 -7 -16 -15 -13 -17 2 -3 -4 -5 -14
-5 -17 0 -17 2 2 33 20 35 30 44 21 18z m109 -20 c-3 -9 -8 -14 -10 -11 -3 3
-2 9 2 15 9 16 15 13 8 -4z m134 0 c0 -8 -4 -12 -9 -9 -5 3 -6 10 -3 15 9 13
12 11 12 -6z m-152 -45 c3 -5 13 -6 21 -3 13 5 15 1 9 -15 -7 -24 4 -29 22
-11 17 17 64 3 57 -16 -4 -8 -13 -15 -21 -15 -13 0 -13 3 -3 15 15 19 1 19
-23 1 -16 -12 -22 -12 -45 0 -35 18 -102 17 -126 -1 -11 -9 -14 -15 -7 -15 9
0 8 -5 -3 -16 -9 -8 -14 -19 -11 -24 3 -5 -1 -11 -7 -13 -8 -3 -7 -6 4 -6 9
-1 21 5 25 13 7 12 93 34 93 23 0 -3 -16 -12 -35 -21 -36 -17 -43 -30 -25 -41
15 -9 2 -25 -20 -25 -10 0 -22 -5 -25 -10 -4 -6 -3 -10 2 -9 4 1 16 1 27 0 17
-1 16 -4 -8 -35 -29 -39 -34 -55 -11 -36 22 18 38 0 29 -33 -3 -15 -10 -25
-14 -22 -4 3 -11 -2 -14 -11 -3 -8 -10 -13 -15 -9 -5 3 -13 1 -16 -5 -9 -15
-37 9 -28 24 3 6 -3 3 -14 -7 -19 -16 -20 -16 -18 5 1 13 -2 31 -7 42 -7 13
-7 16 1 12 7 -5 9 4 5 26 -4 18 -7 35 -7 38 0 3 3 25 7 50 9 49 23 73 37 64 5
-3 9 -2 10 3 4 44 27 82 39 63 4 -6 20 -3 46 10 44 22 60 24 69 10z m1259
-168 c3 -5 -8 -19 -24 -31 -17 -12 -30 -18 -30 -13 0 5 11 15 25 22 13 7 22
17 19 22 -3 4 -3 8 0 8 3 0 7 -4 10 -8z m46 4 c0 -2 -7 -7 -16 -10 -8 -3 -12
-2 -9 4 6 10 25 14 25 6z m-120 -56 c-8 -6 -21 -8 -27 -5 -7 2 -13 0 -13 -5 0
-6 -7 -10 -16 -10 -25 0 -6 19 29 28 36 10 49 6 27 -8z m-100 -40 c-20 -13
-33 -13 -25 0 3 6 14 10 23 10 15 0 15 -2 2 -10z"/>
<path d="M2616 1677 c3 -10 9 -15 12 -12 3 3 0 11 -7 18 -10 9 -11 8 -5 -6z"/>
<path d="M2641 1674 c0 -11 3 -14 6 -6 3 7 2 16 -1 19 -3 4 -6 -2 -5 -13z"/>
<path d="M2120 1893 c-48 -9 -47 -24 2 -21 36 2 44 6 36 16 -6 6 -11 11 -12
11 0 -1 -12 -4 -26 -6z"/>
<path d="M2190 1860 l-25 -6 23 -8 c13 -4 26 -5 29 -2 4 3 11 1 18 -4 8 -6 16
-5 26 3 8 6 13 11 11 10 -2 0 -16 2 -30 6 -15 4 -38 5 -52 1z"/>
<path d="M2300 1860 c-11 -7 -11 -10 -2 -10 7 0 10 -4 7 -10 -4 -6 2 -7 16 -1
13 4 25 13 27 19 4 14 -27 15 -48 2z"/>
<path d="M1740 1550 c-9 -6 -10 -10 -3 -10 6 0 15 5 18 10 8 12 4 12 -15 0z"/>
</g>
</svg>
