<?xml version="1.0" standalone="no"?>
<!DOCTYPE svg PUBLIC "-//W3C//DTD SVG 20010904//EN"
 "http://www.w3.org/TR/2001/REC-SVG-20010904/DTD/svg10.dtd">
<svg version="1.0" xmlns="http://www.w3.org/2000/svg"
 width="450.000000pt" height="253.000000pt" viewBox="0 0 450.000000 253.000000"
 preserveAspectRatio="xMidYMid meet">
<metadata>
Created by potrace 1.16, written by Peter Selinger 2001-2019
</metadata>
<g transform="translate(0.000000,253.000000) scale(0.100000,-0.100000)"
fill="#000000" stroke="none">
<path d="M0 1265 l0 -1265 2250 0 2250 0 0 1265 0 1265 -2250 0 -2250 0 0
-1265z m3129 730 c124 -22 262 -62 313 -90 47 -26 90 -67 87 -81 -1 -5 1 -17
6 -27 4 -11 3 -23 -3 -29 -8 -8 -2 -17 21 -32 17 -12 44 -42 60 -68 27 -44 28
-48 13 -64 -9 -9 -23 -31 -31 -50 -8 -19 -25 -39 -38 -45 l-23 -10 28 -57 c33
-64 33 -103 0 -149 -38 -53 -60 -66 -111 -67 -27 0 -47 -4 -45 -8 3 -5 0 -8
-5 -8 -6 0 -11 5 -11 10 0 6 -5 10 -11 10 -5 0 -7 -4 -4 -10 3 -5 -2 -11 -12
-11 -10 -1 -25 -2 -33 -3 -8 0 -18 6 -22 14 -5 12 -7 11 -7 -3 -1 -10 -5 -16
-10 -13 -4 3 -23 1 -42 -5 -19 -5 -42 -12 -53 -14 -10 -3 -21 -7 -24 -10 -3
-3 -14 3 -24 12 -18 16 -18 16 -12 0 5 -14 2 -16 -12 -10 -11 3 -22 11 -26 17
-5 8 -8 7 -8 -1 0 -7 -11 -12 -25 -11 -14 1 -25 5 -25 9 0 3 -11 5 -26 3 -20
-2 -23 0 -14 11 8 10 7 14 -2 18 -7 3 -3 4 9 4 16 -1 19 -4 12 -14 -8 -9 -5
-11 9 -10 12 0 18 6 15 14 -6 17 9 17 26 1 11 -10 13 -10 7 0 -5 8 1 12 18 12
14 0 29 8 35 18 5 9 12 16 15 15 11 -3 66 22 66 30 0 5 -11 7 -25 5 -13 -3
-22 -2 -20 3 3 4 0 11 -6 15 -7 4 -9 3 -6 -3 12 -20 -18 -34 -39 -19 -16 13
-21 12 -36 -1 -10 -8 -24 -13 -33 -9 -9 3 -13 2 -10 -4 9 -15 -34 -16 -150 -6
-85 8 -145 23 -145 37 0 6 -4 7 -10 4 -5 -3 -10 -1 -10 4 0 6 -7 11 -15 11 -8
0 -20 10 -26 23 -7 12 -21 30 -32 40 -11 9 -16 17 -12 17 4 0 0 9 -9 19 -17
18 -17 20 4 41 20 20 21 23 5 47 -9 13 -14 27 -12 30 3 2 -1 12 -9 22 -9 10
-17 45 -19 83 -3 57 0 75 22 120 26 51 28 58 31 86 1 7 6 11 10 8 4 -2 14 -1
22 5 13 7 12 9 -2 9 -44 0 4 48 68 68 205 64 256 70 383 47z m-664 -90 c115
-6 160 -16 160 -35 0 -10 -32 -21 -105 -35 -135 -27 -137 -28 -145 -63 -6 -30
-26 -42 -72 -42 -14 0 -37 15 -57 37 -37 41 -59 39 -32 -2 9 -14 14 -30 11
-35 -8 -13 -25 -3 -25 16 0 13 -8 24 -57 76 -21 23 -28 16 -13 -12 12 -22 5
-43 -8 -25 -10 15 -32 17 -46 5 -10 -7 -13 0 -14 29 -2 36 2 41 39 63 33 20
57 25 127 27 48 1 88 4 90 6 2 2 13 2 25 0 12 -2 67 -7 122 -10z m-298 -141
c3 -9 0 -26 -7 -37 -10 -17 -10 -22 5 -33 9 -7 14 -17 11 -22 -3 -6 2 -8 12
-5 12 3 19 -1 19 -11 0 -10 -8 -16 -21 -15 -35 2 -71 15 -69 26 1 5 -14 8 -32
7 -19 -2 -37 1 -40 6 -8 13 33 33 56 27 10 -3 17 -2 14 3 -3 4 5 10 18 14 13
4 18 9 12 13 -9 7 -11 19 -6 38 3 12 22 4 28 -11z m-132 -123 c-2 -28 0 -29
29 -23 46 9 71 8 71 -3 0 -5 -8 -10 -17 -9 -10 0 -18 -3 -18 -8 0 -4 -7 -8
-16 -8 -14 0 -14 -3 -4 -15 7 -8 23 -15 37 -15 35 0 19 -18 -23 -26 -19 -3
-33 -9 -30 -11 3 -3 -6 -20 -19 -38 -14 -17 -25 -36 -25 -41 0 -5 4 -3 9 5 15
24 30 3 21 -28 -4 -16 -6 -32 -2 -35 3 -3 0 -6 -6 -6 -21 0 -27 -2 -38 -11
-27 -22 -25 147 2 226 8 22 14 48 14 58 0 9 4 17 8 17 5 0 8 -13 7 -29z m285
-41 c0 -5 -2 -10 -4 -10 -3 0 -8 5 -11 10 -3 6 -1 10 4 10 6 0 11 -4 11 -10z
m-250 -130 c0 -5 -4 -10 -10 -10 -5 0 -10 5 -10 10 0 6 5 10 10 10 6 0 10 -4
10 -10z m31 -64 c-11 -27 -21 -36 -17 -13 5 21 18 48 23 44 2 -2 -1 -16 -6
-31z m-105 -163 c-1 -23 -2 -43 -3 -43 -1 0 -7 10 -14 21 -8 15 -8 19 0 15 13
-9 14 -4 2 27 -7 17 -6 24 3 24 7 0 12 -16 12 -44z m980 -33 c0 -12 -4 -16 -9
-11 -5 5 -6 14 -3 20 10 15 12 14 12 -9z"/>
<path d="M3460 1776 c0 -2 9 -6 20 -9 11 -3 18 -1 14 4 -5 9 -34 13 -34 5z"/>
<path d="M3299 1751 c7 -11 19 -21 27 -21 8 0 12 -4 9 -10 -10 -16 1 -12 15 6
8 8 9 14 4 13 -23 -4 -44 2 -41 12 1 6 -4 14 -11 16 -11 4 -12 1 -3 -16z"/>
<path d="M3283 1604 c-18 -8 -33 -16 -33 -19 0 -2 6 -28 13 -57 8 -29 13 -73
12 -98 -1 -31 3 -49 14 -57 22 -17 31 -16 32 5 0 15 1 14 8 -3 7 -17 9 -16 16
10 5 17 9 38 10 48 3 25 11 31 19 12 4 -11 2 -14 -6 -9 -7 4 -8 3 -4 -4 10
-16 14 -15 26 8 12 22 -2 60 -22 60 -7 0 -7 -4 1 -13 8 -10 7 -14 -3 -14 -9 0
-13 9 -11 25 2 17 -6 32 -23 47 -19 17 -22 24 -12 30 9 6 11 4 5 -6 -6 -11 -5
-12 5 -2 12 11 11 16 -6 29 -10 8 -13 12 -5 8 9 -5 12 -3 7 4 -4 7 -8 12 -9
11 -1 0 -17 -7 -34 -15z m47 -170 c0 -8 -19 -13 -24 -6 -3 5 1 9 9 9 8 0 15
-2 15 -3z m-19 -37 c-6 -8 -7 -18 -3 -22 4 -5 1 -5 -6 -1 -10 6 -10 11 -1 22
6 8 14 14 16 14 3 0 0 -6 -6 -13z"/>
<path d="M3106 1381 c-4 -6 -25 -11 -46 -11 -35 0 -66 -15 -37 -18 30 -3 87
-28 87 -38 0 -7 6 -14 14 -17 10 -4 14 0 13 13 -1 10 -6 18 -11 17 -6 -1 -12
8 -14 21 -2 14 1 21 9 20 6 -2 13 3 15 10 1 8 0 8 -3 1 -4 -8 -7 -8 -13 1 -5
9 -9 9 -14 1z"/>
<path d="M3336 1218 c3 -5 10 -6 15 -3 13 9 11 12 -6 12 -8 0 -12 -4 -9 -9z"/>
<path d="M2150 1880 c8 -5 20 -10 25 -10 6 0 3 5 -5 10 -8 5 -19 10 -25 10 -5
0 -3 -5 5 -10z"/>
</g>
</svg>
