<?xml version="1.0" standalone="no"?>
<!DOCTYPE svg PUBLIC "-//W3C//DTD SVG 20010904//EN"
 "http://www.w3.org/TR/2001/REC-SVG-20010904/DTD/svg10.dtd">
<svg version="1.0" xmlns="http://www.w3.org/2000/svg"
 width="450.000000pt" height="253.000000pt" viewBox="0 0 450.000000 253.000000"
 preserveAspectRatio="xMidYMid meet">
<metadata>
Created by potrace 1.16, written by Peter Selinger 2001-2019
</metadata>
<g transform="translate(0.000000,253.000000) scale(0.100000,-0.100000)"
fill="#000000" stroke="none">
<path d="M0 1265 l0 -1265 2250 0 2250 0 0 1265 0 1265 -2250 0 -2250 0 0
-1265z m2985 690 c115 -34 221 -111 327 -237 l42 -50 -13 -46 c-15 -55 -45
-84 -152 -141 -69 -37 -77 -39 -81 -23 -6 21 38 67 46 48 3 -7 8 -6 15 4 9 13
11 12 12 -5 l0 -20 9 20 c6 13 9 15 9 5 1 -13 2 -13 11 0 5 8 10 11 10 7 0 -5
14 2 31 14 23 16 28 24 17 30 -10 7 -10 9 0 9 7 0 10 5 7 10 -4 6 -3 10 2 9
28 -5 44 3 41 19 -2 9 -10 16 -16 14 -7 -1 -12 2 -12 8 0 5 -5 10 -11 10 -5 0
-7 -6 -4 -12 4 -7 1 -6 -7 2 -19 21 -37 23 -45 4 -5 -13 -7 -13 -14 -2 -7 10
-9 10 -9 -2 0 -13 -1 -13 -10 0 -7 11 -10 11 -10 2 0 -7 -4 -10 -10 -7 -5 3
-10 2 -10 -3 0 -6 -10 -8 -22 -4 -14 3 -19 1 -14 -6 4 -7 -1 -9 -16 -6 -13 3
-36 5 -53 4 -78 -5 -117 -4 -122 3 -2 4 -9 5 -14 2 -5 -4 -9 0 -9 7 0 9 -3 9
-10 -2 -7 -11 -10 -11 -10 -2 0 10 -5 10 -20 2 -13 -7 -26 -7 -37 -2 -9 6 -29
6 -45 1 -22 -6 -30 -4 -35 7 -4 12 -8 12 -19 -3 -12 -16 -12 -16 -7 7 5 24 5
24 -9 6 -17 -22 -54 -31 -63 -16 -4 6 -12 7 -18 4 -7 -4 -9 -4 -5 1 4 4 2 15
-4 24 -7 9 -1 6 13 -6 14 -13 29 -23 33 -23 4 0 -7 12 -25 28 -18 15 -38 26
-44 24 -6 -2 -5 2 2 8 9 10 5 18 -15 35 -20 17 -24 26 -16 36 6 8 11 21 11 29
0 8 2 21 4 29 2 7 -1 15 -7 18 -6 2 -11 -9 -11 -27 0 -17 -6 -36 -13 -43 -10
-10 -12 -9 -7 4 4 12 -5 22 -29 35 -19 10 -34 22 -34 26 0 4 15 19 34 33 36
27 69 25 59 -3 -4 -15 -3 -15 6 -2 6 8 11 25 11 37 0 15 10 28 29 38 33 17
103 41 141 48 40 8 161 -2 215 -18z m-782 -48 c-4 -7 2 -5 12 3 11 9 16 10 11
3 -4 -7 -2 -13 3 -13 6 0 11 4 11 8 0 5 7 9 15 9 8 0 12 -4 9 -9 -3 -4 0 -8 5
-8 6 0 11 6 11 13 0 8 4 7 10 -3 5 -8 10 -10 10 -5 0 6 5 3 10 -6 8 -13 19
-14 66 -8 61 8 96 3 72 -12 -10 -7 -9 -9 3 -9 9 0 20 7 23 16 5 14 26 11 26
-4 0 -9 -68 -36 -142 -56 -56 -16 -57 -17 -52 -46 6 -25 3 -31 -19 -39 -13 -5
-33 -8 -43 -7 -11 2 -27 -1 -36 -6 -13 -6 -18 -5 -18 6 0 13 -27 31 -42 28 -5
-1 -8 5 -8 13 0 8 -4 16 -10 16 -5 1 -15 2 -20 3 -6 0 -15 7 -20 15 -11 19
-43 24 -36 6 3 -8 1 -17 -4 -20 -6 -4 -10 1 -10 9 0 8 -8 20 -17 26 -16 10
-15 10 4 5 12 -3 24 -1 28 5 6 9 -7 14 -27 11 -5 0 -8 4 -8 9 0 5 6 10 13 10
22 0 -17 20 -40 20 -13 0 -23 4 -23 10 0 5 44 11 99 12 54 2 108 4 120 5 14 1
19 -2 14 -10z m-262 -29 c1 -7 1 -17 0 -22 -1 -4 4 -14 10 -22 15 -19 7 -26
-31 -29 -26 -2 -30 1 -30 22 0 13 5 33 10 44 12 21 39 26 41 7z m550 -105 c7
-10 10 -15 5 -11 -5 4 -21 1 -37 -8 -26 -13 -29 -13 -29 1 0 9 10 20 23 25 12
5 23 9 23 9 1 1 8 -7 15 -16z m-401 -35 c0 -23 -16 -16 -23 11 -3 14 -1 18 9
14 8 -3 14 -14 14 -25z m-225 13 c3 -6 -4 -15 -15 -21 -20 -11 -21 -10 -10 9
12 23 16 25 25 12z m79 -26 l-6 -26 36 17 c20 10 36 21 36 26 0 4 5 8 10 8 21
0 9 -30 -14 -36 -14 -3 -27 -13 -30 -21 -5 -11 0 -13 22 -9 34 7 57 -6 48 -29
-5 -14 -13 -16 -44 -10 -20 3 -41 11 -46 16 -16 15 -102 11 -116 -6 -10 -12
-10 -15 1 -15 11 0 11 -2 1 -8 -7 -5 -14 -18 -17 -31 -2 -12 0 -19 6 -16 5 4
7 10 4 15 -7 11 31 20 80 19 30 0 35 -2 20 -8 -11 -5 -23 -7 -27 -4 -5 2 -8
-1 -8 -7 0 -6 -4 -9 -9 -5 -5 3 -13 0 -17 -6 -4 -6 1 -16 10 -21 17 -9 17 -11
-1 -23 -10 -7 -27 -15 -38 -18 -18 -4 -18 -5 3 -6 27 -1 27 -9 2 -41 -21 -27
-27 -51 -8 -32 34 34 26 -18 -10 -63 -15 -19 -22 -21 -38 -12 -28 15 -44 40
-34 52 5 6 5 16 1 23 -12 20 -1 102 19 147 10 22 21 50 25 63 4 12 12 22 18
21 21 -4 92 31 107 51 19 26 22 25 14 -5z m1156 -280 c0 -8 -2 -15 -4 -15 -2
0 -6 7 -10 15 -3 8 -1 15 4 15 6 0 10 -7 10 -15z m-54 -28 c4 -4 3 -7 -2 -8
-5 0 -17 -2 -26 -4 -10 -2 -15 2 -12 10 5 13 28 14 40 2z m-1289 -49 c-3 -8
-6 -5 -6 6 -1 11 2 17 5 13 3 -3 4 -12 1 -19z"/>
<path d="M2526 1834 c-3 -8 -11 -12 -17 -8 -8 5 -9 3 -5 -5 6 -9 13 -8 27 5
21 19 23 24 10 24 -5 0 -12 -7 -15 -16z"/>
<path d="M2690 1629 c0 -5 5 -7 10 -4 6 3 10 8 10 11 0 2 -4 4 -10 4 -5 0 -10
-5 -10 -11z"/>
<path d="M3127 1486 c-10 -8 -14 -17 -9 -20 6 -3 13 1 16 10 3 8 11 12 17 8 8
-4 9 -3 5 4 -9 14 -7 15 -29 -2z"/>
<path d="M2293 1872 c-42 -3 -54 -14 -31 -28 7 -5 8 -3 3 7 -8 12 -6 12 8 0 9
-7 17 -10 17 -5 0 5 4 3 9 -4 5 -9 19 -11 43 -7 36 7 66 21 58 28 -9 8 -65 13
-107 9z"/>
</g>
</svg>
