<?xml version="1.0" standalone="no"?>
<!DOCTYPE svg PUBLIC "-//W3C//DTD SVG 20010904//EN"
 "http://www.w3.org/TR/2001/REC-SVG-20010904/DTD/svg10.dtd">
<svg version="1.0" xmlns="http://www.w3.org/2000/svg"
 width="450.000000pt" height="253.000000pt" viewBox="0 0 450.000000 253.000000"
 preserveAspectRatio="xMidYMid meet">
<metadata>
Created by potrace 1.16, written by Peter Selinger 2001-2019
</metadata>
<g transform="translate(0.000000,253.000000) scale(0.100000,-0.100000)"
fill="#000000" stroke="none">
<path d="M0 1265 l0 -1265 2250 0 2250 0 0 1265 0 1265 -2250 0 -2250 0 0
-1265z m2717 1221 c180 -11 272 -83 407 -320 33 -57 55 -86 67 -86 10 0 54
-12 98 -26 l80 -26 34 26 c29 22 44 26 100 26 60 0 76 -5 192 -61 118 -58 165
-93 165 -125 0 -8 4 -14 9 -14 10 0 3 -85 -10 -120 -20 -53 -220 -233 -279
-251 -19 -6 -61 -19 -92 -31 l-57 -20 19 -36 c56 -111 63 -136 64 -227 1 -107
-19 -172 -67 -210 -18 -14 -38 -31 -46 -37 -51 -43 -84 -50 -198 -44 -131 6
-252 34 -345 80 l-66 33 -12 -22 c-7 -12 -27 -29 -46 -38 -26 -13 -34 -23 -34
-42 0 -54 -67 -141 -143 -184 -49 -28 -53 -33 -51 -63 l3 -33 -7 30 c-4 17 -9
29 -12 29 -123 -37 -194 -25 -253 41 -10 11 -37 58 -60 105 -51 105 -60 178
-29 237 11 21 22 50 25 64 l4 27 -81 -1 c-174 -1 -314 27 -443 90 -90 44 -125
83 -118 135 11 86 99 221 184 283 23 17 61 44 84 61 23 17 55 38 70 46 l29 14
-38 29 c-120 92 -199 218 -197 315 2 84 3 90 20 90 9 0 24 6 32 14 9 7 43 22
76 32 81 25 313 26 395 2 47 -14 146 -19 153 -7 1 2 13 26 27 52 50 97 165
181 235 173 22 -3 73 -7 112 -10z"/>
<path d="M2835 1941 c3 -15 -1 -18 -17 -13 -19 5 -20 2 -13 -29 14 -60 13 -99
-1 -114 -10 -10 -12 -20 -4 -39 11 -29 41 -34 60 -11 12 15 11 16 -12 19 -22
2 -20 26 2 26 15 0 20 5 17 14 -3 8 -3 17 1 20 9 10 10 46 0 40 -12 -8 -10 13
4 35 9 15 8 22 -5 36 -10 9 -15 21 -12 26 4 5 -1 9 -9 9 -9 0 -13 -7 -11 -19z"/>
<path d="M2897 1909 c7 -7 15 -10 18 -7 3 3 -2 9 -12 12 -14 6 -15 5 -6 -5z"/>
<path d="M2953 1893 c4 -3 1 -13 -5 -22 -7 -9 -9 -13 -4 -9 4 4 19 3 32 -2 14
-6 26 -6 29 0 9 14 22 12 28 -4 4 -10 1 -13 -7 -10 -8 3 -17 0 -22 -7 -4 -7
-3 -10 4 -5 6 3 14 2 17 -4 5 -8 11 -7 21 1 13 10 12 14 -2 30 -10 11 -12 19
-6 19 6 0 14 -5 17 -10 4 -6 11 -7 17 -4 6 4 8 3 5 -3 -3 -5 0 -10 8 -10 8 0
13 2 10 5 -2 3 0 12 5 21 6 13 4 17 -11 18 -10 1 -21 -2 -24 -7 -3 -6 -16 -5
-31 0 -28 11 -91 14 -81 3z"/>
<path d="M2958 1805 c-7 -17 -19 -25 -36 -25 -18 0 -23 -4 -18 -16 3 -9 6 -19
6 -22 0 -4 9 -13 20 -19 15 -10 22 -10 35 4 11 11 13 18 5 23 -6 4 -1 11 14
18 18 8 28 8 41 -2 19 -14 19 -14 -38 -57 -18 -14 -27 -28 -24 -39 3 -13 -6
-22 -36 -34 -42 -17 -62 -13 -53 10 4 9 -4 18 -20 24 -18 7 -24 15 -20 26 3 8
2 12 -3 9 -5 -3 -12 -1 -15 4 -13 20 -42 -1 -44 -31 -4 -44 6 -65 30 -72 12
-3 19 -8 16 -11 -3 -4 -17 -1 -30 6 -12 7 -31 12 -41 10 -10 -1 -30 5 -45 15
-25 16 -26 16 -13 1 18 -22 8 -32 -17 -18 -28 15 -32 14 -25 -5 3 -8 17 -20
30 -25 20 -7 23 -12 14 -23 -9 -11 -8 -15 5 -20 11 -4 14 -13 10 -31 -5 -21
-3 -25 16 -26 17 -1 19 -2 5 -6 -9 -2 -15 -8 -13 -11 2 -4 -8 -8 -22 -9 -27
-1 -55 -29 -46 -44 7 -13 -21 -11 -51 3 -31 14 -32 32 -4 52 21 15 21 15 -12
24 -24 6 -36 5 -41 -4 -4 -6 -19 -14 -32 -18 -34 -8 -40 -31 -8 -34 38 -3 59
-26 42 -46 -7 -9 -8 -16 -3 -16 5 0 16 -12 24 -27 18 -30 12 -72 -14 -102 -8
-9 -19 -26 -25 -37 -10 -18 -9 -21 6 -20 9 0 22 12 29 26 7 14 12 20 13 13 0
-6 8 -10 18 -9 16 3 18 7 21 49 0 10 5 15 11 12 5 -3 19 6 32 20 12 14 29 25
38 25 9 0 21 5 27 11 6 6 33 11 60 12 36 1 49 6 46 15 -3 6 -9 12 -14 12 -5 0
-12 18 -15 40 -4 22 -10 40 -15 40 -13 0 -11 25 5 57 8 15 18 36 21 47 5 16
12 18 60 12 45 -5 63 -2 100 16 27 14 45 30 45 41 0 10 8 32 17 50 19 35 20
38 28 83 11 57 -73 101 -97 49z m-181 -408 c-3 -37 -6 -42 -27 -42 -14 0 -24
7 -26 18 -1 9 1 17 5 17 3 0 12 14 18 31 16 42 33 28 30 -24z"/>
<path d="M2675 1815 c-5 -2 -29 -9 -53 -15 -23 -6 -40 -15 -38 -19 3 -4 -1
-16 -8 -26 -13 -18 -15 -18 -55 2 -22 11 -41 17 -41 13 0 -4 7 -10 15 -14 9
-3 15 -19 16 -38 0 -18 3 -27 6 -20 2 6 12 12 20 12 11 0 14 -7 11 -25 -4 -17
-1 -25 9 -25 9 0 12 -7 7 -25 -8 -34 7 -31 45 8 28 27 30 33 14 36 -10 2 -26
13 -35 24 -25 28 -7 47 43 47 28 0 39 4 39 15 0 8 4 15 8 15 4 0 8 9 8 20 0
11 0 20 -1 19 0 0 -4 -2 -10 -4z"/>
<path d="M1843 1717 c-16 -9 -20 -16 -13 -27 5 -8 7 -17 5 -20 -2 -4 2 -7 9
-7 8 0 12 6 9 14 -3 7 0 13 6 13 6 0 8 7 4 17 -5 12 -3 14 7 8 9 -5 11 -4 6 3
-8 14 -6 14 -33 -1z"/>
<path d="M1754 1665 c-37 -36 -60 -75 -44 -75 6 0 8 -10 4 -24 -5 -22 -2 -25
28 -28 l33 -3 -57 -28 c-59 -29 -74 -51 -51 -78 12 -14 7 -21 -33 -52 -40 -31
-43 -37 -27 -45 36 -19 114 -3 163 33 25 18 58 37 73 40 15 4 29 11 32 15 3 5
-7 5 -22 1 -39 -11 -53 -4 -53 29 0 28 21 55 34 43 4 -4 4 1 0 11 -6 15 -4 17
6 11 8 -5 11 -4 6 3 -3 6 0 16 7 23 11 11 10 16 -5 31 -10 10 -23 17 -30 16
-6 -2 -13 9 -14 25 -2 15 1 25 7 22 5 -4 9 -1 9 5 0 6 5 8 13 4 9 -6 9 -5 0 8
-7 8 -9 18 -5 23 4 4 -3 6 -15 3 -12 -3 -23 -1 -25 6 -2 6 -17 -3 -34 -19z"/>
<path d="M2380 1640 c0 -6 7 -10 15 -10 8 0 15 2 15 4 0 2 -7 6 -15 10 -8 3
-15 1 -15 -4z"/>
<path d="M2736 1632 c-3 -5 1 -9 9 -9 8 0 12 4 9 9 -3 4 -7 8 -9 8 -2 0 -6 -4
-9 -8z"/>
<path d="M2517 1568 c-7 -25 -3 -33 12 -23 13 8 15 45 2 45 -5 0 -11 -10 -14
-22z"/>
<path d="M2583 1574 c-8 -20 8 -36 26 -25 15 10 8 41 -9 41 -6 0 -13 -7 -17
-16z"/>
<path d="M2236 1521 c-3 -5 7 -14 23 -21 26 -10 32 -9 50 9 l21 21 -44 0 c-25
0 -47 -4 -50 -9z"/>
<path d="M2480 1500 c0 -5 11 -10 25 -10 14 0 25 5 25 10 0 6 -11 10 -25 10
-14 0 -25 -4 -25 -10z"/>
<path d="M2924 1479 c-3 -6 -17 -9 -30 -6 -16 3 -25 -1 -28 -12 -9 -28 -18
-111 -12 -111 13 0 56 24 56 32 0 14 30 9 36 -7 5 -12 10 -13 20 -5 7 7 11 17
8 23 -2 7 -6 28 -8 47 -2 19 -4 38 -5 43 -2 11 -29 8 -37 -4z"/>
<path d="M2288 1462 c-22 -3 -27 -8 -26 -30 0 -15 -1 -33 -3 -41 -3 -12 6 -14
41 -12 50 3 70 15 70 40 0 9 5 22 12 29 9 9 7 12 -12 13 -14 0 -32 1 -40 3 -8
1 -27 0 -42 -2z"/>
<path d="M2400 1435 c-6 -8 -9 -19 -5 -24 8 -13 45 9 45 26 0 18 -25 16 -40
-2z"/>
<path d="M2445 1360 c3 -6 18 -8 32 -6 40 8 40 16 -1 16 -22 0 -35 -4 -31 -10z"/>
<path d="M2386 1346 c3 -8 12 -17 20 -20 8 -3 14 -12 14 -21 0 -8 7 -15 15
-15 21 0 19 8 -12 41 -30 31 -46 38 -37 15z"/>
<path d="M2871 1288 c-24 -7 -31 -12 -21 -18 7 -4 10 -15 7 -23 -13 -33 43
-29 71 6 21 24 -15 46 -57 35z"/>
<path d="M3120 1250 c0 -5 7 -7 15 -4 8 4 15 8 15 10 0 2 -7 4 -15 4 -8 0 -15
-4 -15 -10z"/>
<path d="M2990 1240 c0 -5 5 -10 11 -10 5 0 7 5 4 10 -3 6 -8 10 -11 10 -2 0
-4 -4 -4 -10z"/>
<path d="M2540 1140 c0 -13 18 -22 24 -11 3 5 -1 11 -9 15 -8 3 -15 1 -15 -4z"/>
</g>
</svg>
