<?xml version="1.0" standalone="no"?>
<!DOCTYPE svg PUBLIC "-//W3C//DTD SVG 20010904//EN"
 "http://www.w3.org/TR/2001/REC-SVG-20010904/DTD/svg10.dtd">
<svg version="1.0" xmlns="http://www.w3.org/2000/svg"
 width="450.000000pt" height="253.000000pt" viewBox="0 0 450.000000 253.000000"
 preserveAspectRatio="xMidYMid meet">
<metadata>
Created by potrace 1.16, written by Peter Selinger 2001-2019
</metadata>
<g transform="translate(0.000000,253.000000) scale(0.100000,-0.100000)"
fill="#000000" stroke="none">
<path d="M0 1265 l0 -1265 2250 0 2250 0 0 1265 0 1265 -856 0 c-470 0 -853
-4 -850 -8 3 -5 18 -7 35 -4 54 8 134 -24 167 -65 60 -74 109 -190 113 -263 0
-8 1 -41 2 -73 l2 -57 50 -15 c63 -19 84 -19 94 -1 15 25 56 38 117 37 79 -1
156 -27 292 -98 44 -24 94 -76 94 -98 0 -8 6 -18 13 -22 11 -6 12 -24 7 -75
-7 -67 -8 -69 -77 -141 -144 -152 -169 -169 -290 -206 -40 -12 -73 -23 -73
-25 0 -2 15 -19 33 -38 44 -48 73 -109 91 -200 23 -111 21 -193 -4 -218 -11
-11 -24 -20 -30 -20 -5 0 -10 -7 -10 -15 0 -8 -8 -15 -17 -15 -9 0 -24 -6 -32
-14 -26 -23 -145 -46 -240 -46 -151 0 -349 40 -418 85 -12 8 -31 15 -42 15
-17 0 -20 -10 -26 -100 -9 -120 -21 -142 -17 -28 l4 80 -24 -12 c-42 -23 -68
-53 -68 -81 0 -38 -95 -131 -170 -166 -103 -49 -239 -30 -313 43 -20 20 -53
77 -80 137 -41 93 -46 110 -49 190 -3 86 -3 88 -25 82 -25 -6 -32 12 -12 32 8
8 -9 14 -63 23 -93 16 -131 27 -192 57 -65 33 -146 94 -146 110 0 7 -4 13 -10
13 -5 0 -10 8 -10 18 0 10 -7 27 -15 38 -8 12 -12 24 -10 26 3 3 -2 21 -10 41
-22 53 -19 86 14 142 29 50 135 155 157 155 3 0 19 10 36 21 l30 22 -55 51
c-131 124 -198 309 -151 421 8 20 18 34 21 31 4 -3 13 0 22 7 31 26 104 38
230 38 106 0 138 -4 201 -24 60 -20 94 -24 172 -23 l97 1 43 46 c66 68 171
139 246 165 l67 23 -1282 0 -1283 1 0 -1265z m2521 -580 c6 16 7 13 6 -12 -2
-24 -5 -29 -14 -21 -7 6 -12 20 -12 32 1 20 2 20 7 1 l5 -20 8 20z m105 -63
c-3 -42 -9 -124 -12 -182 -4 -58 -9 -107 -12 -110 -5 -5 6 231 13 266 2 10 4
38 4 62 1 23 4 42 7 42 4 0 4 -35 0 -78z m-106 -268 c0 -8 -19 -13 -24 -6 -3
5 1 9 9 9 8 0 15 -2 15 -3z m-13 -44 c-2 -11 -6 -22 -9 -26 -4 -3 -5 2 -3 13
2 10 4 21 4 26 1 4 3 7 6 7 3 0 4 -9 2 -20z m-3 -76 c4 -10 2 -13 -6 -8 -8 5
-9 1 -4 -12 5 -14 4 -16 -4 -8 -6 6 -8 18 -4 27 8 21 10 21 18 1z"/>
<path d="M2743 2523 c9 -2 23 -2 30 0 6 3 -1 5 -18 5 -16 0 -22 -2 -12 -5z"/>
<path d="M2277 2031 c-3 -13 0 -18 12 -16 9 1 21 -2 28 -7 7 -5 20 -8 30 -5
15 4 15 5 -3 6 -11 0 -30 10 -41 20 -20 19 -21 19 -26 2z"/>
<path d="M2230 2019 c0 -5 10 -14 23 -20 19 -11 20 -10 10 3 -7 8 -11 17 -8
20 3 2 -2 5 -10 5 -8 0 -15 -4 -15 -8z"/>
<path d="M2375 2000 c3 -5 8 -10 11 -10 2 0 4 5 4 10 0 6 -5 10 -11 10 -5 0
-7 -4 -4 -10z"/>
<path d="M2442 1867 c-7 -8 -7 -17 2 -29 12 -16 13 -14 14 12 1 34 -1 35 -16
17z"/>
<path d="M2400 1755 c-10 -12 -10 -15 1 -15 10 0 11 -3 3 -8 -16 -9 -21 -63
-9 -82 6 -8 15 -24 20 -35 6 -11 24 -24 40 -30 30 -10 45 -22 45 -39 0 -4 -6
-6 -13 -3 -10 4 -13 -7 -13 -42 l0 -46 47 1 c25 1 56 7 68 13 18 10 19 14 8
31 -9 16 -9 24 1 40 11 18 9 21 -13 30 -15 6 -34 10 -44 10 -29 0 -131 104
-131 133 0 3 9 7 19 10 14 3 18 11 14 26 -6 25 -25 27 -43 6z"/>
<path d="M2330 1716 c0 -2 7 -9 15 -16 12 -10 15 -10 15 4 0 9 -7 16 -15 16
-8 0 -15 -2 -15 -4z"/>
<path d="M2165 1693 c5 -10 8 -26 9 -35 0 -9 4 -14 9 -11 5 3 12 1 16 -5 4 -7
15 -5 31 5 14 8 18 12 9 10 -9 -3 -22 3 -30 14 -7 10 -19 19 -27 19 -7 0 -10
5 -7 10 3 6 1 10 -5 10 -8 0 -9 -7 -5 -17z"/>
<path d="M2705 1670 c-3 -5 -1 -10 4 -10 6 0 11 5 11 10 0 6 -2 10 -4 10 -3 0
-8 -4 -11 -10z"/>
<path d="M1790 1653 c-25 -8 -53 -15 -62 -15 -14 1 -13 -3 5 -21 l22 -22 -33
-3 c-47 -5 -29 -22 24 -22 46 0 57 -12 27 -29 -16 -9 -16 -12 -3 -21 24 -16
36 -12 55 17 24 36 29 82 10 89 -8 4 -12 11 -9 16 4 6 10 5 15 -3 5 -8 9 -9 9
-4 0 28 -16 32 -60 18z"/>
<path d="M2663 1644 c-14 -14 -21 -34 -21 -54 1 -17 4 -27 7 -22 3 5 12 11 19
13 21 7 42 62 28 75 -8 7 -18 4 -33 -12z"/>
<path d="M1507 1583 c3 -7 6 -13 8 -13 2 0 5 6 8 13 3 8 -1 14 -8 14 -7 0 -11
-6 -8 -14z"/>
<path d="M2387 1560 c4 -16 -2 -23 -31 -35 -20 -8 -36 -17 -36 -19 0 -9 88 2
109 13 23 13 20 31 -5 31 -8 0 -17 7 -20 15 -9 22 -23 18 -17 -5z"/>
<path d="M1490 1540 c-8 -14 -8 -20 0 -20 6 0 8 -5 4 -12 -4 -7 -3 -8 5 -4 7
5 9 16 5 28 -4 15 -3 18 6 13 9 -5 11 -4 6 3 -10 16 -14 15 -26 -8z"/>
<path d="M2154 1461 c9 -15 -22 -34 -48 -29 -13 3 -30 0 -38 -6 -13 -10 -13
-13 -2 -24 8 -7 14 -9 14 -3 0 5 14 7 31 4 24 -3 36 1 56 23 19 21 22 29 11
35 -17 11 -31 11 -24 0z"/>
<path d="M2347 1444 c-34 -18 -36 -44 -4 -44 21 0 57 27 57 42 0 14 -28 15
-53 2z"/>
<path d="M1900 1430 c0 -5 4 -11 10 -15 5 -3 0 -15 -11 -26 -14 -14 -18 -24
-11 -31 13 -13 32 -2 32 18 0 8 5 12 10 9 6 -3 10 -2 10 3 0 5 15 13 33 17
l32 7 -25 9 c-35 14 -80 19 -80 9z"/>
<path d="M2235 1380 c3 -5 8 -10 11 -10 2 0 4 5 4 10 0 6 -5 10 -11 10 -5 0
-7 -4 -4 -10z"/>
<path d="M2329 1353 c-10 -2 -19 -12 -22 -22 -8 -31 11 -51 48 -51 30 0 35 3
35 23 -1 24 -22 58 -36 56 -5 -1 -16 -3 -25 -6z"/>
<path d="M2617 1339 c7 -7 15 -10 18 -7 3 3 -2 9 -12 12 -14 6 -15 5 -6 -5z"/>
<path d="M2188 1335 c-4 -4 -41 -13 -62 -14 -6 -1 -6 -5 0 -11 6 -6 23 -5 48
4 21 7 34 16 29 19 -6 4 -12 4 -15 2z"/>
<path d="M2445 1290 c3 -5 11 -10 16 -10 6 0 7 5 4 10 -3 6 -11 10 -16 10 -6
0 -7 -4 -4 -10z"/>
<path d="M2270 1281 c0 -5 -8 -8 -19 -6 -16 3 -17 0 -7 -20 12 -25 20 -24 36
5 7 13 7 21 0 25 -5 3 -10 2 -10 -4z"/>
<path d="M2213 1197 c-17 -12 -31 -30 -30 -39 1 -10 4 -18 7 -18 11 1 56 46
63 63 8 22 -1 21 -40 -6z"/>
<path d="M2581 1179 c-6 -18 -11 -33 -11 -35 0 -1 9 0 20 3 21 6 35 36 25 53
-11 18 -23 11 -34 -21z"/>
<path d="M2464 1167 c-12 -12 -24 -31 -26 -43 -5 -19 -2 -21 39 -17 49 4 83
18 83 34 0 6 -6 6 -17 1 -27 -14 -41 -4 -35 23 6 31 -15 32 -44 2z"/>
<path d="M2659 1179 c-12 -8 -12 -9 1 -7 8 1 25 -3 38 -10 12 -7 22 -9 22 -4
0 15 -46 31 -61 21z"/>
<path d="M3288 1156 c-16 -40 -18 -56 -7 -56 5 0 9 -5 9 -11 0 -17 40 -64 41
-48 0 9 3 8 7 -3 5 -13 11 -15 22 -8 10 7 11 10 3 10 -7 0 -13 5 -13 11 0 5 3
8 8 6 4 -3 7 5 7 17 0 23 -23 30 -36 13 -3 -5 -9 -1 -12 8 -4 9 -3 13 3 10 14
-9 12 8 -2 24 -7 8 -8 11 -3 8 6 -3 17 -2 25 4 13 7 12 9 -2 9 -10 0 -18 5
-18 11 0 5 4 7 10 4 5 -3 7 0 4 8 -9 24 -32 15 -46 -17z m26 -82 c3 -8 2 -12
-4 -9 -6 3 -10 10 -10 16 0 14 7 11 14 -7z"/>
<path d="M3336 1117 c3 -10 9 -15 12 -12 3 3 0 11 -7 18 -10 9 -11 8 -5 -6z"/>
<path d="M1945 1100 c-3 -5 -1 -10 4 -10 6 0 11 5 11 10 0 6 -2 10 -4 10 -3 0
-8 -4 -11 -10z"/>
<path d="M2200 1055 l-23 -25 25 0 c41 0 56 9 51 31 -7 26 -25 24 -53 -6z"/>
</g>
</svg>
