<?xml version="1.0" standalone="no"?>
<!DOCTYPE svg PUBLIC "-//W3C//DTD SVG 20010904//EN"
 "http://www.w3.org/TR/2001/REC-SVG-20010904/DTD/svg10.dtd">
<svg version="1.0" xmlns="http://www.w3.org/2000/svg"
 width="450.000000pt" height="253.000000pt" viewBox="0 0 450.000000 253.000000"
 preserveAspectRatio="xMidYMid meet">
<metadata>
Created by potrace 1.16, written by Peter Selinger 2001-2019
</metadata>
<g transform="translate(0.000000,253.000000) scale(0.100000,-0.100000)"
fill="#000000" stroke="none">
<path d="M0 1265 l0 -1265 2250 0 2250 0 0 1265 0 1265 -730 0 c-412 0 -730
-4 -730 -9 0 -5 6 -14 14 -20 23 -19 74 -126 97 -204 34 -115 55 -177 60 -172
3 2 5 -8 5 -23 -1 -22 3 -26 20 -24 12 1 27 -4 33 -12 7 -9 29 -18 50 -22 20
-4 44 -11 54 -16 13 -7 25 -3 48 16 16 14 45 28 64 32 44 8 131 -14 171 -43
17 -13 38 -23 47 -23 10 0 17 -4 17 -10 0 -5 8 -10 18 -10 32 0 110 -59 123
-93 14 -36 12 -112 -3 -142 -18 -35 -201 -204 -243 -224 -22 -11 -71 -30 -110
-42 -38 -12 -71 -22 -73 -24 -1 -1 14 -34 33 -74 43 -88 57 -145 57 -236 0
-102 -15 -147 -67 -200 -25 -25 -51 -45 -59 -45 -8 0 -18 -5 -22 -11 -12 -20
-221 3 -344 37 -63 18 -138 50 -160 69 -13 11 -21 8 -53 -20 -32 -28 -39 -41
-43 -80 -7 -72 -46 -124 -124 -162 -36 -17 -85 -33 -110 -35 -25 -2 -51 -8
-58 -15 -8 -8 -14 -59 -18 -150 -4 -76 -10 -141 -13 -146 -8 -8 -6 98 4 228
l7 90 -31 23 c-36 26 -95 104 -140 183 -38 68 -43 141 -11 182 11 14 20 37 20
52 0 25 -2 27 -32 21 -60 -12 -103 -13 -115 -3 -9 6 -18 6 -26 -2 -8 -6 -16
-9 -18 -7 -2 2 -24 7 -49 11 -97 14 -282 91 -299 124 -20 36 -12 86 24 152 19
35 48 91 64 125 20 40 60 91 120 154 50 52 91 97 91 100 0 3 27 5 60 4 54 -1
59 1 48 15 -12 14 -11 15 6 1 11 -8 30 -15 43 -15 12 -1 23 -4 23 -8 0 -38 -1
-42 -8 -26 -6 13 -10 9 -23 -17 -9 -18 -12 -32 -6 -31 5 1 12 -4 15 -12 3 -9
0 -11 -8 -6 -9 6 -11 4 -5 -5 6 -10 10 -10 19 2 6 8 18 17 26 21 12 4 12 6 -2
6 -14 1 -15 5 -5 30 6 17 14 28 19 25 4 -3 5 3 1 12 -4 11 -3 15 4 11 6 -4 13
-2 15 5 2 6 19 13 38 14 18 2 40 10 49 20 9 9 10 14 4 10 -9 -5 -11 -2 -7 8 3
8 14 13 24 11 25 -5 35 35 13 55 -12 11 -14 12 -8 1 6 -10 4 -12 -6 -5 -8 4
-20 9 -27 10 -8 2 -20 11 -28 21 -13 16 -14 16 -8 0 5 -13 2 -16 -10 -11 -9 3
-13 11 -9 18 4 6 0 6 -9 -2 -12 -9 -18 -10 -23 -2 -5 8 -12 7 -24 -4 -10 -9
-21 -13 -26 -9 -4 5 -5 2 -1 -5 4 -7 13 -9 19 -5 20 12 36 12 44 0 3 -7 3 -9
-2 -5 -4 4 -14 0 -22 -10 -8 -9 -12 -12 -9 -5 4 7 -1 11 -11 11 -10 0 -22 0
-28 2 -20 5 -36 0 -30 -10 4 -6 12 -7 18 -3 7 3 4 -3 -6 -14 -9 -11 -14 -23
-10 -28 5 -4 2 -5 -4 -1 -8 4 -13 2 -13 -5 0 -7 -3 -9 -7 -6 -3 4 1 15 11 26
14 16 15 19 2 24 -8 3 -17 1 -20 -6 -3 -9 -5 -9 -5 1 -1 6 -10 12 -22 12 -11
0 -29 5 -40 11 -15 8 -24 7 -36 -2 -8 -7 -30 -12 -48 -11 -30 2 -33 0 -28 -20
3 -13 12 -30 19 -39 8 -9 11 -19 7 -22 -3 -4 1 -7 11 -7 9 0 15 -4 11 -10 -3
-5 -13 -6 -22 -3 -13 5 -15 2 -9 -12 12 -33 -78 50 -103 94 -34 62 -62 177
-55 229 7 47 24 60 99 81 133 35 300 42 375 14 75 -27 99 -19 116 37 20 69 62
140 112 193 l46 47 -1292 0 -1292 0 0 -1265z m2227 506 c0 -11 -5 -18 -9 -15
-4 3 -5 11 -1 19 7 21 12 19 10 -4z m220 -1428 c-3 -10 -5 -4 -5 12 0 17 2 24
5 18 2 -7 2 -21 0 -30z m0 -75 c-3 -8 -6 -5 -6 6 -1 11 2 17 5 13 3 -3 4 -12
1 -19z"/>
<path d="M2282 2225 c10 -10 58 -16 58 -7 0 4 -14 9 -32 10 -18 2 -29 0 -26
-3z"/>
<path d="M2920 1948 c0 -4 4 -8 9 -8 6 0 12 4 15 8 3 5 -1 9 -9 9 -8 0 -15 -4
-15 -9z"/>
<path d="M2420 1919 c0 -5 5 -7 10 -4 6 3 10 8 10 11 0 2 -4 4 -10 4 -5 0 -10
-5 -10 -11z"/>
<path d="M2897 1924 c-3 -3 0 -21 6 -40 7 -24 7 -44 0 -69 -6 -19 -8 -37 -4
-40 14 -8 51 7 51 21 0 8 5 14 11 14 11 0 9 28 -6 64 -6 15 -5 17 5 11 9 -5
11 -4 6 4 -4 6 -13 8 -19 4 -18 -11 -37 -12 -37 -3 0 5 7 10 15 12 13 2 12 5
-4 15 -10 6 -21 10 -24 7z"/>
<path d="M3076 1898 c5 -8 2 -9 -9 -5 -11 4 -20 -1 -27 -13 -13 -24 -13 -33 0
-25 6 4 17 1 26 -5 12 -11 12 -14 -3 -26 -10 -7 -26 -14 -35 -14 -11 0 -15 -5
-12 -15 5 -11 -2 -15 -27 -15 -23 0 -30 -3 -21 -9 8 -4 19 -19 26 -32 13 -25
16 -25 51 -14 14 5 16 4 6 -3 -7 -5 -14 -24 -16 -43 -2 -26 -8 -35 -31 -43
-26 -8 -38 -2 -34 19 2 10 -28 35 -41 35 -7 0 -21 8 -31 17 -24 22 -38 8 -41
-44 -1 -29 -6 -40 -17 -38 -8 1 -15 8 -15 16 0 8 -6 20 -13 27 -7 8 -10 17 -7
22 6 10 -29 22 -75 24 -19 2 -36 7 -37 12 -2 5 1 9 6 9 5 0 13 3 17 7 4 4 17
5 29 2 16 -4 26 1 38 20 23 34 22 59 0 52 -67 -19 -109 -29 -116 -28 -4 1 -2
-7 5 -18 20 -31 1 -36 -47 -12 -54 26 -55 26 -55 7 0 -9 9 -15 21 -15 12 0 23
-8 26 -19 3 -11 16 -22 29 -25 24 -6 31 -20 16 -30 -10 -6 -7 -64 3 -74 7 -7
29 17 50 53 10 17 13 17 40 2 17 -9 26 -16 21 -17 -5 0 -2 -7 5 -16 12 -15 10
-16 -19 -10 -38 9 -42 -5 -7 -24 14 -8 24 -19 21 -26 -3 -7 2 -15 9 -18 9 -3
12 -12 8 -22 -4 -10 0 -22 10 -29 14 -10 11 -14 -23 -25 -28 -9 -42 -21 -46
-36 -5 -20 -9 -22 -25 -14 -16 9 -17 14 -6 30 6 11 17 20 24 20 23 0 2 26 -22
28 -14 1 -36 9 -49 17 -19 13 -28 13 -50 4 -35 -17 -33 -33 4 -25 17 3 30 1
30 -4 0 -6 -8 -10 -17 -10 -10 0 -24 -4 -32 -9 -12 -8 -12 -12 -2 -25 7 -8 18
-13 25 -10 8 3 20 -1 27 -9 8 -7 23 -19 34 -25 17 -10 16 -11 -12 -6 -37 7
-40 3 -17 -32 20 -30 14 -82 -15 -123 -23 -32 -27 -51 -11 -51 6 0 10 -9 10
-20 0 -21 25 -38 38 -26 3 4 2 15 -4 24 -12 21 -3 84 10 64 4 -7 14 -11 22 -8
9 4 18 -3 24 -17 5 -12 9 -15 9 -7 0 8 -6 24 -14 34 -20 27 -20 70 0 62 9 -3
25 4 38 15 12 11 29 26 37 33 8 8 48 16 89 18 53 4 78 10 86 22 15 19 45 21
45 2 0 -10 7 -11 35 -2 26 8 31 13 19 19 -8 4 -12 13 -8 18 3 6 -3 19 -15 30
-12 11 -19 24 -16 29 3 4 -13 7 -36 6 -36 -2 -43 -6 -55 -35 -8 -18 -14 -42
-14 -52 0 -22 -18 -35 -31 -22 -6 6 -6 19 2 36 7 15 8 33 4 44 -11 24 -9 61 4
95 8 22 16 27 33 24 13 -3 28 -5 33 -6 6 0 2 -7 -8 -14 -14 -11 -15 -15 -3
-19 8 -3 16 2 19 11 2 9 27 26 56 37 39 15 51 24 51 41 0 24 24 49 49 49 13 0
16 13 16 72 1 40 5 76 9 80 5 4 6 1 2 -7 -5 -10 -2 -9 7 2 10 13 17 14 25 6 8
-8 10 -5 8 8 -2 11 -6 18 -9 17 -25 -10 -47 -11 -41 -2 3 5 9 7 13 5 4 -3 12
4 19 15 7 10 8 19 3 19 -6 0 -12 -4 -15 -9 -9 -14 -45 -1 -48 18 -3 14 -4 14
-11 -2 -5 -13 -1 -20 16 -27 12 -5 16 -9 9 -9 -7 -1 -10 -7 -7 -13 4 -7 -2 -2
-13 12 -11 13 -19 27 -16 31 2 4 -3 10 -12 13 -10 4 -13 2 -8 -6z m24 -153 c0
-18 -24 -20 -38 -2 -8 10 -5 13 14 15 15 1 24 -3 24 -13z m-235 -283 c-5 -4
-11 -16 -13 -27 -6 -47 -13 -65 -22 -60 -12 7 -13 48 -2 59 4 4 8 12 8 17 3
18 4 19 22 19 9 0 13 -4 7 -8z"/>
<path d="M2195 1810 c3 -5 8 -10 11 -10 2 0 4 5 4 10 0 6 -5 10 -11 10 -5 0
-7 -4 -4 -10z"/>
<path d="M2038 1718 c-15 -18 -26 -35 -25 -38 1 -3 -6 -18 -16 -33 -9 -15 -13
-27 -7 -27 5 0 10 5 10 10 0 7 6 7 19 1 10 -6 20 -8 23 -6 3 3 5 -2 5 -10 0
-11 -4 -12 -11 -5 -5 5 -15 10 -20 10 -6 0 0 -7 12 -16 23 -16 31 -40 10 -28
-10 6 -10 4 0 -7 18 -20 15 -33 -5 -18 -16 13 -17 12 -4 -3 7 -10 11 -24 8
-33 -4 -8 -1 -17 5 -21 7 -5 8 -2 3 6 -5 9 -4 11 3 6 16 -10 15 -14 -9 -27
-17 -9 -20 -8 -14 3 3 7 -3 2 -14 -10 -16 -19 -19 -28 -10 -44 6 -12 7 -24 1
-31 -5 -7 -12 -31 -15 -54 -5 -38 -2 -44 27 -66 27 -21 41 -24 101 -23 77 2
95 -1 95 -16 0 -6 -7 -4 -16 3 -15 12 -16 11 -9 -11 4 -14 9 -27 11 -29 6 -7
24 11 24 25 0 19 9 18 34 -3 13 -11 11 -6 -5 12 -34 39 -50 86 -54 158 -3 48
0 61 17 77 17 16 19 22 8 35 -14 17 -6 85 10 85 6 0 20 10 31 21 17 17 19 23
8 30 -9 6 -3 7 16 3 27 -7 29 -6 17 9 -10 11 -20 13 -35 8 -24 -9 -84 10 -128
41 -15 10 -36 19 -48 21 -11 2 -24 7 -28 12 -5 4 -2 5 5 1 6 -4 12 -2 12 3 0
20 -16 11 -42 -21z m55 -140 c-4 -7 -8 -17 -8 -22 0 -5 -6 -11 -12 -13 -7 -3
-13 0 -13 6 0 6 0 14 0 19 0 4 4 7 9 7 5 0 13 3 17 8 12 11 16 8 7 -5z m-49
-156 c3 -5 -1 -9 -9 -9 -8 0 -12 4 -9 9 3 4 7 8 9 8 2 0 6 -4 9 -8z"/>
<path d="M2894 1733 c2 -10 6 -17 10 -17 35 8 47 14 41 23 -3 6 -17 11 -30 11
-16 0 -22 -5 -21 -17z"/>
<path d="M2585 1650 c3 -5 8 -10 11 -10 2 0 4 5 4 10 0 6 -5 10 -11 10 -5 0
-7 -4 -4 -10z"/>
<path d="M2424 1625 c-16 -14 -23 -25 -15 -25 8 0 11 -6 7 -16 -4 -11 -1 -14
12 -12 9 2 16 10 14 17 -2 8 6 20 18 28 11 8 20 18 20 24 0 17 -26 9 -56 -16z"/>
<path d="M2505 1641 c-3 -5 -1 -12 5 -16 5 -3 10 -3 10 1 0 3 7 1 15 -6 19
-16 20 -3 1 16 -17 16 -23 17 -31 5z"/>
<path d="M2514 1602 c4 -7 1 -12 -9 -12 -12 0 -15 -5 -11 -16 3 -9 6 -18 6
-21 0 -3 7 0 15 7 18 15 19 36 3 46 -7 4 -8 3 -4 -4z"/>
<path d="M2608 1579 c-6 -40 18 -51 44 -19 14 17 16 26 7 36 -21 25 -46 17
-51 -17z"/>
<path d="M2685 1580 c-7 -12 12 -40 26 -40 5 0 9 11 9 25 0 25 -23 35 -35 15z"/>
<path d="M2422 1540 c-43 -10 -46 -14 -27 -34 22 -21 25 -20 58 9 40 38 36 41
-31 25z"/>
<path d="M2425 1473 c-31 -8 -40 -20 -25 -38 10 -13 9 -15 -8 -15 -12 0 -24 5
-27 10 -3 6 -12 10 -18 10 -7 0 5 -16 25 -35 20 -19 46 -35 58 -35 13 0 24 -8
27 -20 3 -11 11 -20 18 -20 7 0 20 -11 29 -25 10 -15 22 -22 31 -19 21 8 19
28 -5 49 -11 10 -20 24 -20 30 0 7 -7 15 -15 19 -8 3 -15 11 -14 18 0 10 2 10
6 1 7 -18 23 -16 23 2 0 8 9 19 20 25 11 6 20 15 20 20 0 17 -42 11 -56 -7
-13 -17 -14 -17 -8 1 10 28 -14 40 -61 29z"/>
<path d="M2530 1380 c0 -5 14 -10 31 -10 17 0 28 4 24 10 -3 6 -17 10 -31 10
-13 0 -24 -4 -24 -10z"/>
<path d="M2943 1313 c-16 -6 -17 -53 -3 -53 7 0 7 -6 0 -20 -9 -17 -8 -20 14
-20 31 0 56 24 56 54 0 37 -30 55 -67 39z"/>
<path d="M3180 1281 c0 -6 4 -13 10 -16 6 -3 7 1 4 9 -7 18 -14 21 -14 7z"/>
<path d="M3050 1250 c0 -5 7 -10 16 -10 8 0 12 5 9 10 -3 6 -10 10 -16 10 -5
0 -9 -4 -9 -10z"/>
<path d="M2303 1215 c-3 -9 -3 -18 0 -21 9 -9 27 6 27 22 0 19 -19 18 -27 -1z"/>
<path d="M2875 1220 c-3 -5 1 -10 9 -10 9 0 16 5 16 10 0 6 -4 10 -9 10 -6 0
-13 -4 -16 -10z"/>
<path d="M2520 1175 c-10 -12 -10 -15 4 -15 9 0 16 7 16 15 0 8 -2 15 -4 15
-2 0 -9 -7 -16 -15z"/>
<path d="M2750 1096 c0 -8 5 -18 12 -22 7 -4 8 -3 4 5 -6 8 0 10 21 6 l28 -6
-25 15 c-32 19 -40 20 -40 2z"/>
</g>
</svg>
