<?xml version="1.0" standalone="no"?>
<!DOCTYPE svg PUBLIC "-//W3C//DTD SVG 20010904//EN"
 "http://www.w3.org/TR/2001/REC-SVG-20010904/DTD/svg10.dtd">
<svg version="1.0" xmlns="http://www.w3.org/2000/svg"
 width="450.000000pt" height="253.000000pt" viewBox="0 0 450.000000 253.000000"
 preserveAspectRatio="xMidYMid meet">
<metadata>
Created by potrace 1.16, written by Peter Selinger 2001-2019
</metadata>
<g transform="translate(0.000000,253.000000) scale(0.100000,-0.100000)"
fill="#000000" stroke="none">
<path d="M0 1265 l0 -1265 2250 0 2250 0 0 1265 0 1265 -689 0 -688 0 29 -61
c16 -34 33 -84 38 -112 5 -29 16 -93 25 -144 9 -51 14 -106 10 -123 -6 -27 -4
-30 18 -28 14 1 36 -3 49 -10 13 -6 43 -18 68 -26 43 -15 46 -14 68 7 18 17
38 22 90 25 60 3 73 0 122 -28 30 -17 71 -38 90 -46 89 -41 103 -50 130 -91
16 -23 25 -45 20 -48 -5 -3 -9 -21 -8 -40 1 -37 -40 -108 -74 -126 -10 -5 -38
-30 -63 -54 -58 -58 -140 -110 -189 -119 -21 -4 -54 -15 -73 -24 -30 -14 -32
-18 -18 -28 21 -15 36 -79 23 -92 -6 -6 -6 -18 2 -32 24 -44 40 -173 30 -241
-5 -35 -10 -67 -10 -71 0 -16 -97 -105 -126 -117 -20 -8 -49 -10 -80 -6 -188
26 -311 58 -372 95 -49 30 -72 14 -73 -53 -2 -91 -10 -109 -60 -139 -25 -16
-70 -33 -100 -38 l-54 -9 -87 87 c-49 48 -93 86 -99 84 -6 -1 -8 1 -5 6 3 5
-13 32 -34 61 -45 60 -50 95 -19 135 16 20 19 34 14 57 -7 31 -6 32 21 25 16
-4 32 -12 35 -18 4 -6 9 -4 12 5 3 8 1 19 -5 25 -7 7 -5 18 6 34 19 30 17 64
-7 85 -17 16 -17 16 -11 0 3 -10 1 -17 -6 -17 -6 0 -8 -5 -4 -12 6 -10 4 -10
-8 0 -13 11 -16 10 -14 -5 0 -10 -7 -19 -19 -21 -16 -4 -17 -2 -7 11 18 21 26
71 11 61 -8 -5 -9 -3 -4 6 6 10 4 12 -8 7 -9 -3 -21 1 -29 11 -12 15 -11 16 5
3 9 -8 17 -9 17 -3 0 24 -51 16 -71 -12 -4 -4 -15 -3 -25 3 -12 6 -14 11 -5
11 7 0 11 6 8 13 -3 8 -2 19 2 26 10 16 90 -3 97 -24 3 -8 13 -11 22 -8 11 3
13 2 5 -4 -8 -6 -6 -15 9 -33 11 -14 17 -20 14 -14 -12 23 32 44 45 22 7 -11
9 -11 9 0 0 8 12 2 30 -15 17 -15 30 -33 30 -39 0 -12 38 -49 44 -43 10 10 9
66 -2 86 -11 19 -9 22 10 25 12 2 23 9 26 16 6 18 -45 15 -56 -4 -6 -11 -11
-13 -16 -5 -4 6 -2 11 3 11 6 0 11 8 11 18 0 11 10 24 23 29 21 10 19 12 -26
32 -68 29 -147 11 -101 -24 18 -13 18 -14 2 -15 -10 0 -18 5 -18 10 0 6 -9 10
-20 10 -12 0 -35 8 -53 17 -18 9 -40 17 -50 18 -26 2 -35 16 -39 60 -2 32 0
40 14 40 9 0 27 10 40 23 14 12 30 22 37 22 9 0 11 8 7 26 -5 19 0 35 19 60
14 19 32 34 39 34 8 0 16 6 19 13 3 8 21 22 41 31 39 19 48 48 19 65 -17 10
-17 12 0 25 9 7 28 11 42 8 18 -3 25 0 25 11 0 48 -148 69 -190 27 -11 -11
-20 -17 -20 -13 0 4 -8 -4 -17 -17 -10 -14 -17 -28 -16 -32 2 -4 -5 -4 -15 -1
-14 6 -15 4 -4 -9 10 -13 10 -18 1 -24 -8 -5 -10 -3 -4 7 5 8 4 10 0 6 -23
-21 -26 -104 -6 -165 17 -49 17 -50 0 -41 -11 6 -20 5 -24 -1 -3 -5 -3 -10 1
-10 3 0 2 -6 -4 -13 -6 -7 -13 -25 -16 -41 -3 -15 -14 -43 -25 -62 -21 -36
-27 -59 -13 -50 4 2 8 -4 8 -14 0 -10 -4 -16 -8 -14 -4 3 -8 -10 -8 -28 0 -21
-3 -28 -9 -20 -6 10 -10 10 -21 -3 -16 -19 -3 -35 28 -38 12 0 24 -7 26 -14 3
-7 18 -13 33 -14 27 0 27 -1 6 -9 -13 -5 -23 -15 -23 -21 0 -9 3 -9 14 0 10 9
17 7 27 -6 13 -16 12 -17 -3 -4 -16 12 -18 11 -18 -7 0 -20 23 -46 32 -37 7 8
3 -29 -5 -42 -4 -7 0 -16 10 -22 44 -26 -15 -8 -80 24 -39 19 -77 35 -84 35
-7 0 -13 4 -13 8 0 4 -16 14 -35 21 -19 7 -40 22 -47 34 -20 37 -14 136 11
207 12 36 24 88 26 115 4 72 15 117 32 137 14 15 12 20 -17 50 -17 18 -38 47
-45 64 -14 32 -20 192 -9 251 7 37 37 55 130 77 32 7 85 21 117 30 47 14 64
15 93 6 20 -7 39 -8 44 -4 5 5 15 33 24 61 8 29 26 68 40 86 14 19 26 38 26
44 0 5 23 29 50 52 28 23 50 46 50 52 0 5 -504 9 -1325 9 l-1325 0 0 -1265z
m2345 -124 c3 -5 2 -12 -3 -15 -5 -3 -9 1 -9 9 0 17 3 19 12 6z m90 -433 c-6
-34 -12 -150 -18 -338 -1 -58 -5 -110 -8 -115 -3 -6 -4 -49 -3 -97 0 -49 -2
-88 -6 -88 -4 0 -6 -11 -5 -25 2 -14 0 -23 -4 -21 -3 2 -5 31 -4 63 1 32 3 84
3 115 1 32 6 58 11 58 6 0 7 6 2 13 -4 6 -8 49 -8 95 -1 45 2 77 7 70 6 -10 8
-9 8 2 0 9 -6 22 -12 29 -10 11 -10 13 0 7 6 -4 12 -3 12 1 0 5 -6 15 -12 22
-7 8 -8 11 -2 8 19 -11 19 141 -1 173 -8 13 -7 13 8 1 10 -8 17 -9 17 -3 0 6
-4 14 -10 17 -5 3 -10 12 -10 18 0 8 3 8 9 -1 6 -10 10 -9 14 7 8 34 19 24 12
-11z"/>
<path d="M2983 1924 c6 -10 -21 -43 -30 -36 -11 8 -14 0 -4 -12 11 -13 10 -43
-4 -85 -4 -15 -2 -19 12 -16 10 2 21 4 24 4 14 2 15 52 3 70 -11 16 -11 21 0
30 15 13 16 35 1 48 -4 4 -5 3 -2 -3z"/>
<path d="M2770 1911 c0 -12 29 -23 41 -15 18 10 9 24 -16 24 -14 0 -25 -4 -25
-9z"/>
<path d="M3017 1913 c-11 -11 -8 -21 9 -27 13 -5 14 -4 6 7 -7 8 -9 17 -5 20
3 4 4 7 1 7 -2 0 -8 -3 -11 -7z"/>
<path d="M3060 1912 c0 -7 -4 -10 -10 -7 -6 3 -7 -1 -3 -10 5 -13 7 -14 14 -3
7 11 9 11 9 0 0 -8 -10 -23 -22 -34 -13 -11 -17 -17 -10 -13 6 3 12 2 12 -3 0
-5 7 -9 15 -9 8 0 15 4 15 9 0 4 7 8 16 8 22 0 12 -23 -12 -26 -10 -2 -25 -12
-33 -23 -7 -12 -19 -21 -26 -21 -11 0 -11 -6 -2 -30 10 -28 15 -32 33 -29 13
2 23 -26 12 -32 -9 -6 -8 -11 1 -23 10 -12 9 -17 -9 -26 -24 -13 -55 -6 -45
10 8 12 -33 53 -45 45 -6 -4 -10 0 -10 8 0 24 -40 8 -51 -19 -11 -29 -25 -31
-39 -4 -8 14 -8 20 0 20 6 0 9 4 6 9 -4 5 0 12 6 14 7 3 1 6 -13 6 -36 1 -39
8 -23 48 9 19 13 37 10 40 -3 3 -24 -1 -48 -9 -55 -18 -84 -17 -80 2 2 8 0 11
-4 7 -14 -14 -13 -38 2 -44 8 -3 14 -12 14 -20 0 -10 -6 -13 -16 -9 -9 3 -22
6 -29 6 -8 0 -20 7 -28 15 -13 13 -19 13 -43 0 l-28 -14 42 -7 c22 -3 49 -15
58 -25 9 -10 20 -16 25 -14 13 9 21 -15 10 -29 -6 -7 -12 -25 -13 -40 -2 -16
-8 -26 -19 -26 -8 0 -21 -11 -27 -25 -16 -34 -16 -33 16 -37 26 -4 26 -4 -13
-21 -31 -14 -36 -20 -25 -27 8 -5 23 -7 34 -4 12 4 16 2 12 -5 -4 -6 -15 -11
-25 -11 -27 0 -46 -26 -25 -34 8 -3 23 -6 33 -6 9 0 25 -9 34 -21 18 -20 18
-21 -2 -14 -27 8 -35 -10 -16 -39 13 -20 14 -32 5 -65 -6 -22 -17 -47 -25 -55
-19 -18 -19 -30 -1 -45 8 -7 18 -26 21 -43 8 -32 34 -70 45 -63 4 2 13 -7 20
-21 11 -20 19 -24 39 -19 14 4 30 12 35 20 6 7 20 15 31 18 16 3 12 8 -20 22
-22 10 -55 18 -72 19 -34 1 -38 7 -63 88 -8 27 3 48 15 28 3 -5 14 -10 25 -10
10 0 21 -7 24 -16 4 -9 9 -14 12 -11 4 3 -3 19 -15 35 -28 39 -27 52 4 52 14
0 28 6 31 14 3 8 12 12 20 9 8 -3 18 5 25 21 11 23 18 26 64 26 38 0 60 6 79
21 26 20 28 20 40 4 10 -14 17 -15 33 -7 11 6 23 9 25 6 3 -2 10 2 17 10 9 11
5 22 -21 52 -30 35 -37 39 -74 36 -40 -3 -41 -4 -54 -52 -8 -28 -19 -50 -25
-50 -23 0 -25 14 -3 37 12 13 23 31 25 41 11 60 12 82 2 82 -5 0 -7 5 -4 10 3
6 18 9 33 9 17 -1 21 -3 10 -6 -10 -2 -18 -8 -18 -13 0 -20 36 -20 49 -1 7 12
20 21 28 21 8 0 12 4 8 9 -3 6 4 15 16 22 19 9 21 9 16 -4 -6 -15 8 -17 30 -4
6 4 14 3 17 -2 9 -14 64 10 69 31 3 10 1 16 -3 13 -5 -3 -11 -1 -15 5 -4 6
-11 7 -17 4 -7 -4 -8 -2 -4 5 4 6 12 8 18 5 7 -5 9 10 6 47 -6 63 8 103 34 96
10 -3 18 -1 18 5 0 5 4 7 9 4 5 -3 11 2 13 12 4 13 -1 18 -15 19 -11 1 -23 6
-26 11 -3 5 -18 12 -33 16 -18 4 -28 13 -28 25 0 15 -8 18 -47 16 -27 -1 -51
3 -55 9 -5 7 -8 7 -8 -2z m47 -29 c0 -9 -4 -10 -14 -2 -7 6 -13 12 -13 14 0 1
6 2 13 2 8 0 14 -6 14 -14z m-333 -181 c3 -5 -1 -9 -9 -9 -8 0 -12 4 -9 9 3 4
7 8 9 8 2 0 6 -4 9 -8z m47 -64 c14 -25 6 -32 -20 -18 -24 12 -26 8 -10 -21 5
-11 14 -17 20 -14 5 4 9 -1 9 -9 0 -9 -4 -16 -10 -16 -5 0 -10 -5 -10 -11 0
-7 10 -9 25 -5 23 6 25 4 22 -26 -2 -25 -8 -33 -32 -41 -32 -11 -47 -26 -39
-39 3 -4 0 -8 -5 -8 -17 0 -13 28 7 42 26 19 24 36 -3 36 -54 0 -72 50 -35 90
12 12 18 22 14 22 -3 0 -1 7 6 15 7 8 9 15 4 15 -5 0 -3 4 5 9 18 12 39 4 52
-21z m79 2 c0 -5 -5 -10 -11 -10 -5 0 -7 5 -4 10 3 6 8 10 11 10 2 0 4 -4 4
-10z m-24 -238 c-15 -15 -16 -15 -16 1 0 9 6 26 13 38 12 20 12 20 15 -2 2
-12 -3 -29 -12 -37z"/>
<path d="M2739 1583 c0 -5 -2 -15 -4 -23 -2 -11 6 -15 26 -15 33 0 33 0 19 26
-10 18 -39 27 -41 12z"/>
<path d="M2576 1805 c-3 -10 -3 -22 3 -28 12 -12 20 4 11 27 -6 19 -7 19 -14
1z"/>
<path d="M2650 1805 c0 -9 6 -12 15 -9 8 4 12 10 9 15 -8 14 -24 10 -24 -6z"/>
<path d="M2941 1744 c0 -11 3 -14 6 -6 3 7 2 16 -1 19 -3 4 -6 -2 -5 -13z"/>
<path d="M2960 1741 c0 -5 5 -13 10 -16 6 -3 10 -2 10 4 0 5 -4 13 -10 16 -5
3 -10 2 -10 -4z"/>
<path d="M2514 1688 c-5 -7 -3 -8 6 -3 9 5 11 4 6 -4 -6 -9 -11 -9 -21 -1 -10
8 -18 4 -34 -16 -24 -30 -27 -72 -8 -98 11 -15 17 -17 35 -7 18 10 21 9 16 -4
-4 -8 -15 -15 -26 -15 -17 0 -18 -3 -8 -15 10 -12 10 -15 -1 -16 -8 0 -5 -4 6
-9 14 -5 26 -2 40 10 11 10 33 24 50 31 32 15 45 47 24 60 -7 4 -10 11 -6 15
4 4 14 -1 22 -12 9 -12 14 -14 15 -6 0 8 -9 25 -20 39 -18 24 -20 24 -20 6 0
-11 -7 -26 -15 -33 -8 -7 -15 -21 -15 -31 0 -28 -17 -23 -22 5 -4 18 2 31 21
47 16 14 21 24 13 27 -7 2 -12 10 -12 17 0 7 -7 16 -16 19 -21 8 -22 8 -30 -6z"/>
<path d="M2650 1644 c0 -8 5 -12 10 -9 6 3 10 10 10 16 0 5 -4 9 -10 9 -5 0
-10 -7 -10 -16z"/>
<path d="M2233 1311 c1 -15 4 -17 14 -9 7 5 10 14 7 19 -10 16 -23 9 -21 -10z"/>
<path d="M2975 1320 c-4 -6 0 -22 9 -35 18 -27 15 -31 -37 -40 -60 -12 -57
-28 5 -22 80 9 84 12 83 60 0 38 -3 42 -27 45 -14 2 -29 -2 -33 -8z"/>
<path d="M3070 1265 c-6 -8 -9 -19 -5 -25 10 -16 45 7 39 25 -8 19 -18 19 -34
0z"/>
<path d="M2576 1188 c-16 -19 -17 -20 -1 -15 9 4 21 7 26 7 5 0 9 7 9 15 0 21
-12 19 -34 -7z"/>
</g>
</svg>
