<?xml version="1.0" standalone="no"?>
<!DOCTYPE svg PUBLIC "-//W3C//DTD SVG 20010904//EN"
 "http://www.w3.org/TR/2001/REC-SVG-20010904/DTD/svg10.dtd">
<svg version="1.0" xmlns="http://www.w3.org/2000/svg"
 width="450.000000pt" height="253.000000pt" viewBox="0 0 450.000000 253.000000"
 preserveAspectRatio="xMidYMid meet">
<metadata>
Created by potrace 1.16, written by Peter Selinger 2001-2019
</metadata>
<g transform="translate(0.000000,253.000000) scale(0.100000,-0.100000)"
fill="#000000" stroke="none">
<path d="M0 1265 l0 -1265 2250 0 2250 0 0 1265 0 1265 -2250 0 -2250 0 0
-1265z m2805 1227 c134 -11 176 -34 238 -133 35 -55 42 -79 52 -174 11 -95 13
-114 19 -124 4 -5 31 -15 60 -22 48 -10 57 -10 71 5 32 31 60 40 132 38 65 -2
84 -7 188 -58 122 -58 185 -104 185 -134 0 -10 8 -21 17 -24 12 -5 13 -10 5
-18 -6 -6 -8 -23 -5 -39 10 -51 -16 -98 -106 -191 -94 -98 -156 -146 -205
-159 -71 -18 -121 -32 -124 -35 -2 -1 13 -23 33 -49 69 -92 94 -168 98 -311
l2 -83 -39 -35 c-21 -20 -43 -36 -48 -36 -5 0 -20 -7 -33 -16 -14 -9 -25 -14
-25 -11 0 3 -24 -1 -52 -9 -91 -24 -200 -19 -423 21 -11 2 -54 17 -95 34 -95
39 -106 39 -102 0 1 -3 -9 -4 -22 -2 -31 6 -68 -32 -60 -62 4 -16 -8 -34 -51
-77 -59 -59 -111 -81 -196 -81 -46 0 -175 47 -210 76 -27 23 -108 173 -129
240 -6 20 -16 37 -22 37 -6 0 -8 13 -6 31 5 33 9 32 -59 13 -26 -7 -32 13 -11
34 9 9 8 12 -5 12 -9 0 -20 1 -24 2 -5 1 -38 7 -74 14 -137 26 -309 137 -309
199 0 12 -7 26 -16 29 -8 3 -13 10 -9 16 3 5 -1 23 -10 39 -41 81 13 183 150
283 l86 63 -40 38 c-57 54 -108 118 -121 152 -40 101 -60 163 -60 185 0 30 32
110 43 110 5 0 15 6 23 14 8 8 49 22 91 32 99 22 241 15 333 -16 49 -17 90
-22 169 -23 l104 -1 31 35 c106 120 265 193 396 184 36 -2 110 -8 165 -13z
m-160 -1591 c3 -5 1 -12 -5 -16 -5 -3 -10 1 -10 9 0 18 6 21 15 7z m-1 -63
c-6 -45 -14 -48 -14 -5 0 21 4 37 9 37 4 0 7 -14 5 -32z"/>
<path d="M2283 2019 c1 -10 8 -19 17 -20 8 0 22 -2 30 -3 8 -2 24 1 35 5 16 7
13 8 -12 6 -27 -3 -30 -1 -21 10 6 8 7 13 2 12 -5 -1 -11 0 -14 1 -26 10 -38
6 -37 -11z"/>
<path d="M2220 2018 c0 -4 7 -8 16 -8 8 0 12 -5 8 -11 -4 -8 0 -7 15 1 12 6
19 16 15 22 -4 7 -9 6 -15 -3 -5 -8 -9 -9 -9 -3 0 6 -7 11 -15 11 -8 0 -15 -4
-15 -9z"/>
<path d="M2437 1851 c3 -12 9 -21 14 -21 14 0 11 16 -5 29 -12 10 -13 8 -9 -8z"/>
<path d="M2401 1768 c-5 -13 -12 -31 -15 -40 -4 -13 -13 -16 -43 -11 -38 5
-38 5 -15 -12 13 -9 29 -14 37 -11 11 4 15 -2 15 -18 0 -13 7 -26 15 -30 8 -3
15 -12 15 -20 0 -15 46 -49 67 -49 7 0 14 -6 17 -14 3 -8 -2 -13 -14 -13 -17
0 -18 -3 -9 -24 8 -16 8 -29 1 -42 -9 -17 -6 -19 41 -19 30 1 52 6 55 13 2 7
8 9 13 6 7 -4 8 7 4 29 -5 27 -3 36 10 41 23 8 9 26 -21 26 -37 0 -85 27 -126
73 -42 44 -47 64 -21 69 12 2 18 14 19 36 1 25 -2 32 -17 32 -11 0 -23 -10
-28 -22z"/>
<path d="M2160 1710 c-7 -14 -7 -20 0 -20 5 0 10 -7 10 -15 0 -22 35 -36 62
-26 13 6 16 10 8 10 -8 1 -24 12 -34 26 -10 13 -23 22 -29 18 -6 -4 -8 0 -4
10 9 24 0 21 -13 -3z"/>
<path d="M1860 1709 c0 -5 -4 -8 -8 -5 -4 2 -14 1 -22 -5 -13 -7 -12 -9 3 -9
19 0 23 -26 7 -50 -8 -12 -11 -13 -22 -2 -11 11 -11 13 1 10 7 -2 15 5 16 16
3 14 1 16 -8 7 -6 -6 -17 -11 -25 -11 -7 0 -20 -7 -29 -15 -8 -8 -19 -13 -24
-10 -5 4 -5 -5 1 -19 8 -23 7 -26 -18 -32 -46 -10 -48 -12 -12 -15 19 -1 43
-2 53 -2 22 0 22 -13 0 -26 -21 -11 -12 -24 19 -26 23 -2 54 42 64 89 3 12 6
26 7 31 2 6 6 15 10 22 4 6 3 14 -3 18 -5 3 -10 11 -10 16 0 6 4 7 10 4 6 -3
7 1 4 9 -7 18 -14 21 -14 5z"/>
<path d="M2676 1665 c-10 -8 -23 -12 -29 -8 -6 3 -7 1 -3 -5 3 -6 2 -13 -4
-17 -5 -3 -10 -19 -10 -35 0 -28 1 -29 25 -18 14 6 25 18 25 27 0 9 7 25 15
35 27 35 16 47 -19 21z"/>
<path d="M1503 1603 c-7 -2 -13 -13 -13 -24 0 -10 -9 -24 -20 -31 -24 -15 -27
-33 -4 -24 13 5 15 1 12 -25 l-5 -31 18 23 c18 24 32 82 17 73 -4 -3 -8 0 -8
6 0 6 7 13 15 16 8 4 15 10 15 15 0 10 -8 10 -27 2z"/>
<path d="M2379 1588 c-1 -5 -3 -12 -4 -18 -1 -5 -3 -16 -4 -24 0 -8 -7 -14
-13 -13 -30 1 -48 -4 -48 -12 0 -5 10 -9 23 -9 12 0 29 -1 37 -3 8 -2 14 2 12
9 -1 8 2 11 8 7 13 -8 50 3 50 16 0 5 -8 13 -17 16 -10 4 -23 14 -30 22 -7 9
-13 13 -14 9z"/>
<path d="M2289 1569 c-11 -7 17 -23 39 -22 32 1 35 3 23 17 -12 15 -43 17 -62
5z"/>
<path d="M2150 1466 c0 -21 -6 -26 -42 -33 -60 -12 -64 -40 -7 -39 33 1 44 6
52 23 5 12 18 24 29 26 19 5 19 6 -1 26 -27 27 -31 26 -31 -3z"/>
<path d="M2215 1470 c4 -6 11 -8 16 -5 14 9 11 15 -7 15 -8 0 -12 -5 -9 -10z"/>
<path d="M2326 1441 c-16 -17 -16 -19 5 -24 28 -8 69 9 69 28 0 22 -53 19 -74
-4z"/>
<path d="M1900 1425 c8 -10 5 -19 -15 -40 -30 -34 -30 -33 -3 -31 12 0 32 11
44 24 13 12 32 22 43 22 19 0 38 17 29 26 -3 2 -28 6 -57 9 -43 3 -51 2 -41
-10z"/>
<path d="M2230 1390 c0 -5 5 -10 10 -10 6 0 10 5 10 10 0 6 -4 10 -10 10 -5 0
-10 -4 -10 -10z"/>
<path d="M2280 1377 c0 -8 7 -20 15 -27 11 -9 12 -17 5 -30 -8 -15 -6 -20 10
-25 11 -3 30 -3 41 0 14 5 19 4 15 -4 -5 -7 -1 -9 9 -5 10 4 14 13 10 23 -8
19 -13 41 -14 60 -1 8 -7 11 -18 6 -27 -10 -63 -13 -58 -4 3 4 1 10 -5 14 -5
3 -10 0 -10 -8z"/>
<path d="M2540 1365 c-10 -12 -10 -15 4 -15 9 0 16 7 16 15 0 8 -2 15 -4 15
-2 0 -9 -7 -16 -15z"/>
<path d="M2136 1341 c-30 -18 -29 -37 2 -33 11 2 23 -2 27 -8 5 -8 10 -8 20 0
9 8 14 6 19 -5 3 -9 10 -14 15 -11 13 9 34 -21 27 -39 -3 -8 -21 -24 -39 -35
-23 -14 -34 -27 -33 -42 1 -28 23 -35 31 -9 3 10 12 22 20 25 7 2 25 28 38 55
19 40 21 53 11 61 -8 8 -14 8 -19 0 -3 -6 -11 -8 -16 -4 -5 3 -6 11 -2 17 5 8
2 8 -9 -1 -13 -10 -15 -9 -14 10 1 30 -42 41 -78 19z"/>
<path d="M2439 1325 c-1 -8 -2 -19 -3 -25 -1 -5 4 -10 9 -10 6 0 10 11 10 25
1 27 -14 35 -16 10z"/>
<path d="M2181 1268 c-1 -20 14 -24 25 -6 4 6 3 8 -4 4 -5 -3 -13 0 -15 6 -3
8 -6 6 -6 -4z"/>
<path d="M2220 1275 c0 -5 5 -17 10 -25 5 -8 10 -10 10 -5 0 6 -5 17 -10 25
-5 8 -10 11 -10 5z"/>
<path d="M2867 1229 c7 -7 15 -10 18 -7 3 3 -2 9 -12 12 -14 6 -15 5 -6 -5z"/>
<path d="M2558 1190 c-21 -38 -48 -40 -48 -4 l0 26 -32 -19 c-18 -10 -35 -30
-38 -43 -4 -15 -13 -24 -22 -24 -9 1 -14 -4 -12 -10 7 -19 84 -7 144 22 30 14
57 30 58 34 2 5 8 5 14 2 5 -4 2 5 -7 20 -22 34 -36 33 -57 -4z"/>
<path d="M3298 1200 c-16 -10 -48 -64 -48 -81 0 -13 50 -83 66 -92 24 -13 44
-1 39 24 -3 13 1 29 8 38 9 12 9 13 0 7 -8 -4 -13 -1 -13 8 0 9 -5 16 -11 16
-5 0 -8 4 -5 9 3 5 -1 14 -9 21 -9 8 -13 21 -9 36 7 27 6 27 -18 14z"/>
<path d="M2650 1196 c0 -2 8 -10 18 -17 15 -13 16 -12 3 4 -13 16 -21 21 -21
13z"/>
<path d="M2933 1179 c9 -6 15 -14 12 -18 -2 -5 7 -8 21 -8 l26 0 -29 18 c-15
10 -32 19 -38 19 -5 -1 -2 -5 8 -11z"/>
<path d="M2917 1129 c7 -7 15 -10 18 -7 3 3 -2 9 -12 12 -14 6 -15 5 -6 -5z"/>
<path d="M3061 1116 c2 -2 15 -9 29 -15 24 -11 24 -11 6 3 -16 13 -49 24 -35
12z"/>
<path d="M2855 1101 c-3 -5 -1 -12 5 -16 5 -3 10 -3 10 1 0 3 8 0 18 -7 14
-11 13 -10 -2 9 -22 25 -23 25 -31 13z"/>
<path d="M2030 1080 c-19 -14 -22 -22 -14 -30 8 -8 14 -9 18 -1 4 6 2 11 -5
11 -6 0 -1 9 12 20 31 25 22 26 -11 0z"/>
<path d="M2199 1071 c-23 -18 -23 -18 -2 -29 11 -6 23 -8 27 -4 4 3 4 -1 0
-11 -4 -11 0 -19 10 -23 9 -3 16 -10 16 -15 0 -19 38 -47 51 -38 12 7 12 12 1
26 -7 10 -20 30 -30 45 -9 16 -22 28 -29 28 -7 0 -10 6 -7 14 9 23 -12 27 -37
7z"/>
<path d="M2320 940 c0 -19 4 -21 26 -16 22 6 25 4 20 -9 -3 -10 -2 -14 5 -10
6 4 8 13 5 21 -3 8 -1 14 3 14 5 0 12 -6 14 -12 4 -10 6 -10 6 -1 1 15 -6 19
-46 28 -29 6 -33 4 -33 -15z"/>
<path d="M2440 941 c0 -6 5 -13 10 -16 6 -3 10 1 10 9 0 9 -4 16 -10 16 -5 0
-10 -4 -10 -9z"/>
<path d="M2540 932 c-13 -10 -21 -23 -19 -30 2 -6 19 1 39 18 24 20 30 30 19
30 -9 0 -27 -8 -39 -18z"/>
<path d="M2416 914 c-3 -8 -11 -12 -17 -8 -8 4 -9 3 -5 -5 6 -8 12 -9 20 -2 9
7 16 7 24 -1 8 -8 9 -5 5 11 -6 25 -18 27 -27 5z"/>
<path d="M2273 852 c-6 -4 -14 -21 -17 -37 l-5 -30 19 25 c11 14 20 31 20 38
0 14 -1 14 -17 4z"/>
</g>
</svg>
