<?xml version="1.0" standalone="no"?>
<!DOCTYPE svg PUBLIC "-//W3C//DTD SVG 20010904//EN"
 "http://www.w3.org/TR/2001/REC-SVG-20010904/DTD/svg10.dtd">
<svg version="1.0" xmlns="http://www.w3.org/2000/svg"
 width="450.000000pt" height="253.000000pt" viewBox="0 0 450.000000 253.000000"
 preserveAspectRatio="xMidYMid meet">
<metadata>
Created by potrace 1.16, written by Peter Selinger 2001-2019
</metadata>
<g transform="translate(0.000000,253.000000) scale(0.100000,-0.100000)"
fill="#000000" stroke="none">
<path d="M0 1265 l0 -1265 2250 0 2250 0 0 1265 0 1265 -2250 0 -2250 0 0
-1265z m3090 675 c112 -48 191 -110 258 -201 57 -79 61 -100 26 -152 -16 -23
-34 -48 -41 -54 -6 -7 -13 -17 -15 -22 -3 -10 -156 -96 -188 -106 -60 -19 19
48 93 79 37 15 67 52 44 53 -54 4 -67 9 -67 25 0 14 -4 16 -23 9 -12 -5 -40
-6 -62 -3 -49 6 -171 5 -210 -2 -16 -3 -47 -1 -69 3 -23 5 -68 12 -101 16 -93
9 -103 15 -96 58 0 4 -4 7 -10 7 -5 0 -8 4 -5 9 3 5 -4 21 -15 35 -11 15 -22
32 -23 39 -1 6 -6 18 -10 26 -6 10 -5 12 2 7 7 -4 12 -2 12 4 0 6 5 8 10 5 6
-3 10 -1 10 5 0 6 -8 10 -17 8 -12 -2 -19 5 -21 20 -2 13 1 21 8 20 7 -2 14 5
15 15 3 17 2 17 -21 2 -13 -8 -24 -12 -24 -8 0 8 103 79 150 103 55 29 117 39
215 36 87 -2 110 -7 175 -36z m-723 -33 c-4 -10 2 -13 19 -9 13 2 21 8 18 13
-3 5 7 9 21 9 16 0 24 -4 20 -11 -5 -7 3 -9 24 -6 17 3 29 1 25 -4 -3 -5 0 -9
6 -9 6 0 8 -5 4 -12 -4 -7 -3 -8 5 -4 6 4 9 11 6 16 -9 15 23 19 35 5 14 -17
17 -15 -69 -39 -57 -17 -71 -14 -71 12 0 14 2 13 13 -2 12 -16 14 -16 14 -2 0
9 -3 16 -6 17 -3 0 -15 2 -26 4 -12 2 -34 -5 -50 -15 l-30 -20 30 3 c17 1 33
7 37 12 7 9 8 7 8 -22 0 -5 -3 -8 -7 -9 -5 0 -15 -3 -23 -6 -8 -4 -23 -9 -32
-12 -18 -5 -25 -26 -9 -26 4 0 6 -11 3 -25 -4 -24 -19 -31 -65 -27 -10 1 -28
-3 -39 -9 -18 -9 -20 -9 -15 4 6 16 -15 41 -26 30 -4 -3 -9 2 -13 11 -3 9 -13
16 -21 16 -7 0 -25 12 -38 28 -13 15 -25 21 -25 15 0 -7 5 -13 10 -13 6 0 10
-8 10 -19 0 -10 7 -24 15 -31 16 -14 21 -50 6 -50 -5 0 -12 14 -16 30 -4 17
-10 30 -14 30 -4 0 -17 14 -30 31 -22 29 -22 31 -4 44 17 13 17 15 1 32 -12
11 -18 13 -19 5 -1 -7 -2 -17 -3 -24 0 -6 -7 -13 -15 -16 -8 -3 -11 0 -7 7 4
6 1 11 -8 11 -8 0 -18 -5 -22 -12 -4 -7 -3 -8 4 -4 7 4 12 1 12 -8 0 -8 3 -22
7 -32 4 -12 3 -15 -6 -10 -6 4 -19 2 -28 -6 -10 -8 -14 -8 -10 -1 5 7 0 13
-12 15 -17 3 -18 6 -7 38 10 33 14 35 49 32 30 -3 36 -1 31 12 -7 17 29 21
225 24 91 2 112 -1 108 -11z m127 -139 c-3 -4 -14 -13 -25 -19 -18 -9 -19 -8
-10 9 5 10 17 19 25 19 8 0 13 -4 10 -9z m-425 -7 c13 -8 7 -52 -7 -50 -20 3
-32 -2 -26 -12 3 -6 15 -9 25 -6 22 6 44 -17 33 -35 -4 -7 3 -4 17 7 l24 20
-19 -22 c-20 -24 -50 -30 -61 -13 -4 6 -10 8 -15 5 -5 -3 -18 -2 -27 4 -26 13
-86 21 -99 13 -6 -4 -13 -20 -16 -35 -5 -27 -4 -28 21 -21 38 10 110 14 115 5
3 -4 -7 -8 -21 -9 -14 -1 -31 -6 -37 -11 -6 -5 -18 -7 -27 -6 -12 2 -15 -3
-11 -19 3 -11 10 -27 16 -35 8 -11 8 -13 -1 -8 -7 4 -25 4 -40 0 l-28 -7 28
-6 28 -5 -25 -34 c-29 -38 -27 -54 3 -27 19 17 19 17 14 -6 -10 -39 -73 -124
-73 -98 0 6 -7 10 -15 10 -25 0 -13 199 14 246 12 19 21 43 21 53 0 11 16 23
50 35 28 10 50 22 50 27 0 6 7 6 18 0 12 -6 23 -5 37 5 10 8 14 14 7 14 -6 0
-9 7 -6 15 7 17 13 18 33 6z m-49 -15 c0 -3 -4 -8 -10 -11 -5 -3 -10 -1 -10 4
0 6 5 11 10 11 6 0 10 -2 10 -4z m-20 -196 c-8 -5 -19 -10 -25 -10 -5 0 -3 5
5 10 8 5 20 10 25 10 6 0 3 -5 -5 -10z m1083 -167 c-3 -7 -13 -13 -23 -13 -10
0 -25 -3 -33 -6 -12 -4 -14 0 -10 15 4 16 12 20 38 18 21 -1 31 -6 28 -14z
m-280 -49 c21 -16 21 -16 -21 -11 -46 6 -72 21 -72 43 0 12 6 12 35 0 20 -9
45 -23 58 -32z"/>
<path d="M3309 1611 c9 -6 10 -11 2 -15 -6 -4 -11 -4 -11 1 0 4 -5 1 -10 -7
-5 -8 -10 -10 -10 -3 0 12 -37 6 -45 -7 -7 -11 99 -7 107 4 11 16 -3 36 -26
36 -15 0 -17 -3 -7 -9z"/>
<path d="M2360 1840 c-9 -6 -10 -10 -3 -10 6 0 15 5 18 10 8 12 4 12 -15 0z"/>
<path d="M1886 1584 c-6 -15 -4 -15 11 -3 10 7 20 15 22 16 2 2 -3 3 -11 3 -9
0 -19 -7 -22 -16z"/>
</g>
</svg>
