<?xml version="1.0" standalone="no"?>
<!DOCTYPE svg PUBLIC "-//W3C//DTD SVG 20010904//EN"
 "http://www.w3.org/TR/2001/REC-SVG-20010904/DTD/svg10.dtd">
<svg version="1.0" xmlns="http://www.w3.org/2000/svg"
 width="450.000000pt" height="253.000000pt" viewBox="0 0 450.000000 253.000000"
 preserveAspectRatio="xMidYMid meet">
<metadata>
Created by potrace 1.16, written by Peter Selinger 2001-2019
</metadata>
<g transform="translate(0.000000,253.000000) scale(0.100000,-0.100000)"
fill="#000000" stroke="none">
<path d="M0 1265 l0 -1265 2250 0 2250 0 0 1265 0 1265 -2250 0 -2250 0 0
-1265z m3063 696 c102 -36 195 -91 247 -148 52 -57 100 -141 100 -175 0 -26
-88 -156 -115 -170 -11 -6 -22 -14 -25 -17 -3 -3 -33 -19 -67 -35 -51 -24 -65
-27 -77 -17 -12 10 -13 16 -3 26 7 7 15 11 20 8 4 -2 7 1 7 6 0 6 6 10 13 9 6
-2 11 3 9 11 -3 12 -1 12 14 0 15 -12 17 -12 12 1 -4 11 2 15 19 17 31 1 50
18 32 28 -8 6 -10 4 -5 -6 6 -10 4 -10 -6 1 -13 15 -32 22 -58 23 -8 0 -21 5
-29 11 -12 9 -13 8 -6 -4 8 -13 7 -13 -9 0 -10 8 -25 15 -34 16 -8 2 -19 9
-23 16 -5 7 -9 9 -9 3 0 -5 -20 -10 -45 -10 -25 0 -45 5 -45 10 0 6 -4 4 -9
-4 -9 -13 -59 -12 -141 3 -14 2 -47 7 -75 11 -27 3 -58 8 -68 11 -21 7 -71 54
-56 54 6 0 7 6 2 13 -4 6 -8 18 -10 26 -1 8 -6 17 -11 20 -17 11 -20 39 -8 57
22 32 37 87 27 97 -5 5 -19 2 -34 -8 -17 -11 -27 -13 -32 -5 -3 6 -3 9 2 8 4
-1 19 4 33 12 14 8 34 13 45 12 13 -2 16 0 8 5 -16 12 -5 27 37 48 110 57 267
72 373 36z m-654 -56 c15 -5 22 -5 18 2 -3 5 0 10 8 10 8 0 12 -4 9 -9 -3 -4
2 -8 11 -8 9 0 13 5 9 11 -4 8 -1 8 12 1 11 -5 33 -9 50 -7 38 3 64 -10 49
-24 -6 -5 -59 -22 -120 -38 -109 -28 -110 -29 -113 -60 -2 -24 -9 -33 -28 -37
-14 -4 -29 -4 -34 -1 -5 3 -19 1 -31 -6 -12 -6 -19 -7 -16 -2 8 13 -3 26 -45
52 -21 12 -38 27 -38 32 0 5 -4 9 -9 9 -14 0 -10 -51 5 -57 8 -3 14 -16 14
-30 0 -13 -4 -21 -10 -18 -5 3 -10 14 -10 24 0 10 -9 26 -20 36 -11 10 -20 24
-20 32 0 12 -13 17 -33 14 -5 -1 -6 3 -3 8 6 10 -23 25 -32 16 -3 -3 0 -5 6
-5 6 0 9 -6 6 -14 -3 -7 2 -21 12 -30 9 -9 13 -20 10 -24 -4 -3 -11 0 -16 8
-5 8 -24 14 -42 15 -29 0 -33 3 -30 25 4 30 20 48 47 50 40 4 54 0 49 -14 -3
-8 -1 -17 5 -21 6 -3 11 -1 11 5 0 6 4 9 8 6 4 -2 9 4 9 15 1 10 -2 19 -8 19
-5 0 -9 4 -9 9 0 6 15 11 33 13 63 6 262 1 286 -7z m-329 -5 c0 -5 -5 -10 -11
-10 -5 0 -7 5 -4 10 3 6 8 10 11 10 2 0 4 -4 4 -10z m30 -149 c0 -3 -7 -15
-15 -25 -12 -16 -18 -17 -27 -8 -9 9 -9 12 3 12 10 1 9 3 -4 11 -9 5 -22 7
-29 3 -7 -5 -8 -3 -4 5 5 7 14 10 21 7 7 -2 16 2 19 11 5 12 9 13 21 3 8 -7
15 -15 15 -19z m-47 -57 c-5 -14 -3 -15 14 -5 24 12 49 -9 40 -33 -5 -12 -13
-13 -39 -5 -18 5 -34 9 -35 9 -1 0 0 7 4 16 5 14 3 15 -15 5 -13 -7 -23 -7
-27 -1 -4 6 -15 6 -30 0 -16 -6 -25 -6 -25 0 0 14 35 30 65 30 16 0 24 4 19
11 -4 8 -1 8 14 0 14 -7 19 -17 15 -27z m-127 -50 c-3 -29 0 -34 13 -29 35 14
108 17 116 6 4 -8 2 -11 -6 -10 -8 1 -31 -1 -51 -5 -39 -8 -49 -22 -24 -32 8
-3 12 -13 9 -25 -3 -10 -9 -17 -13 -14 -5 3 -19 1 -32 -4 l-23 -10 23 0 c27
-1 27 -6 2 -38 -26 -33 -26 -51 0 -28 21 19 21 19 15 -14 -3 -19 -10 -42 -15
-51 -11 -21 -50 -33 -50 -17 0 7 -5 6 -11 -3 -19 -27 -5 191 14 230 9 18 17
44 17 57 0 12 4 23 9 23 5 0 8 -16 7 -36z m104 -89 c0 -2 -9 -9 -20 -15 -12
-6 -20 -7 -20 -1 0 5 8 12 18 14 9 3 18 5 20 6 1 0 2 -1 2 -4z m1074 -24 c-8
-8 -34 -10 -38 -2 -3 4 6 7 19 7 14 0 22 -2 19 -5z m-434 -43 c0 -5 11 -6 25
-2 16 4 25 2 25 -6 0 -7 8 -10 20 -7 11 3 18 1 15 -3 -3 -5 5 -10 17 -13 13
-2 2 -4 -23 -3 -36 1 -45 4 -41 16 5 13 4 13 -10 0 -8 -8 -13 -21 -10 -29 4
-11 1 -11 -17 -2 -12 7 -19 16 -16 22 4 5 2 8 -3 7 -10 -3 -12 1 -12 20 0 5 7
9 15 9 8 0 15 -4 15 -9z m125 -88 c0 -7 13 -15 28 -17 21 -3 27 0 21 8 -4 8
-3 9 4 5 7 -4 12 -3 12 3 0 6 7 8 17 4 14 -5 13 -8 -6 -15 -12 -4 -20 -12 -17
-17 7 -11 -13 -9 -32 2 -7 5 -15 2 -18 -8 -9 -22 -24 1 -18 28 2 11 0 16 -4
13 -7 -7 -8 -11 -11 -37 0 -5 -5 -8 -11 -4 -5 3 -6 13 -3 23 6 14 4 15 -9 4
-13 -10 -16 -9 -21 7 -4 17 0 19 32 17 23 -1 36 -7 36 -16z m211 -1 c3 -6 14
-9 23 -6 9 2 23 -3 30 -11 13 -13 16 -13 28 4 9 12 16 15 24 7 7 -7 2 -16 -18
-29 -22 -14 -87 -43 -100 -44 -1 0 0 7 3 15 4 10 0 16 -12 17 -11 0 -24 2 -31
2 -6 1 -15 5 -20 10 -5 5 -2 6 7 2 8 -4 5 1 -8 11 -13 10 -20 22 -16 26 11 11
82 8 90 -4z m-211 -74 l30 -24 -26 -1 c-21 0 -69 31 -69 45 0 14 39 2 65 -20z
m125 5 c0 -5 -2 -10 -4 -10 -3 0 -8 5 -11 10 -3 6 -1 10 4 10 6 0 11 -4 11
-10z"/>
<path d="M3080 1586 c0 -2 8 -10 18 -17 15 -13 16 -12 3 4 -13 16 -21 21 -21
13z"/>
<path d="M1925 1590 c-3 -6 1 -7 9 -4 18 7 21 14 7 14 -6 0 -13 -4 -16 -10z"/>
</g>
</svg>
