<?xml version="1.0" standalone="no"?>
<!DOCTYPE svg PUBLIC "-//W3C//DTD SVG 20010904//EN"
 "http://www.w3.org/TR/2001/REC-SVG-20010904/DTD/svg10.dtd">
<svg version="1.0" xmlns="http://www.w3.org/2000/svg"
 width="450.000000pt" height="253.000000pt" viewBox="0 0 450.000000 253.000000"
 preserveAspectRatio="xMidYMid meet">
<metadata>
Created by potrace 1.16, written by Peter Selinger 2001-2019
</metadata>
<g transform="translate(0.000000,253.000000) scale(0.100000,-0.100000)"
fill="#000000" stroke="none">
<path d="M0 1265 l0 -1265 2250 0 2250 0 0 1265 0 1265 -2250 0 -2250 0 0
-1265z m2243 618 c-7 -2 -21 -2 -30 0 -10 3 -4 5 12 5 17 0 24 -2 18 -5z m63
-8 c-4 -12 -2 -13 13 -3 13 8 30 8 60 1 27 -7 41 -7 41 -1 0 6 7 8 15 4 8 -3
15 -1 15 4 0 22 198 9 260 -17 16 -7 28 -10 48 -12 7 0 10 -5 7 -11 -3 -5 0
-7 8 -5 16 7 70 -19 60 -28 -3 -4 4 -5 16 -2 11 2 21 -1 21 -6 0 -6 5 -7 10
-4 6 3 10 1 10 -6 0 -7 3 -9 6 -6 4 4 20 -5 36 -18 16 -14 34 -23 39 -19 5 3
9 -2 9 -11 0 -9 4 -14 9 -11 12 8 34 -21 26 -33 -3 -6 0 -9 7 -6 7 3 18 1 25
-3 15 -10 25 -62 11 -62 -5 0 -8 7 -5 14 4 10 1 13 -7 10 -8 -3 -17 -1 -21 5
-3 6 -22 11 -41 11 -24 0 -33 -4 -28 -12 4 -6 3 -8 -4 -4 -6 3 -30 8 -54 10
-23 3 -44 9 -46 15 -2 6 -8 9 -12 6 -5 -3 -28 11 -51 32 -25 22 -40 31 -36 20
6 -16 0 -17 -76 -12 -45 2 -72 1 -60 -3 17 -5 20 -11 13 -22 -9 -13 -10 -13
-10 0 -1 12 -3 11 -11 -2 -5 -10 -15 -18 -22 -18 -7 0 -6 4 3 10 11 7 7 10
-18 10 -18 0 -31 -4 -28 -8 2 -4 -6 -8 -20 -8 -13 0 -24 5 -24 11 0 5 -5 3
-10 -5 -8 -12 -10 -12 -10 -1 0 10 -3 11 -13 2 -30 -24 -37 25 -9 55 18 18 18
19 -10 36 -34 21 -36 42 -5 63 24 15 116 23 135 11 6 -3 13 -2 17 4 5 8 -18
15 -28 8 -2 -2 -10 2 -18 9 -17 14 -79 14 -96 0 -7 -5 -13 -6 -13 -2 0 3 -18
-9 -41 -29 -24 -20 -57 -37 -80 -41 -22 -4 -46 -13 -53 -20 -7 -8 -17 -11 -22
-7 -4 4 2 -7 14 -24 22 -32 19 -47 -13 -53 -19 -3 -19 -2 -2 16 27 31 6 36
-25 6 -33 -31 -56 -38 -54 -14 1 10 -5 15 -16 13 -10 -2 -18 2 -18 9 0 8 -5 7
-17 -2 -9 -8 -14 -9 -10 -3 4 8 -9 18 -34 28 -42 17 -49 43 -10 39 13 -2 20 1
16 7 -4 6 -28 9 -58 5 -52 -5 -52 -5 -30 14 21 17 21 31 1 31 -5 0 -6 -4 -3
-10 3 -5 -1 -10 -9 -10 -9 0 -13 7 -11 20 4 18 -9 26 -37 21 -5 0 -8 4 -8 9 0
6 39 10 98 9 97 -1 102 -2 49 -13 -38 -9 -24 -26 21 -26 20 0 45 -7 55 -14 12
-10 28 -11 52 -6 21 5 38 3 44 -3 8 -8 11 -8 11 1 0 6 7 9 15 6 9 -4 15 0 15
9 0 11 -13 14 -57 12 -33 -1 -62 3 -66 9 -6 7 -7 4 -3 -6 3 -10 1 -18 -4 -18
-14 0 -19 15 -11 29 6 9 25 11 65 7 61 -5 90 0 80 15 -3 5 2 9 11 9 11 0 15
-5 11 -15z m-445 -25 c12 0 16 -8 15 -30 -1 -25 -5 -30 -26 -30 -22 1 -23 2
-7 11 16 10 16 11 0 27 -15 15 -25 10 -24 -12 0 -3 -16 -22 -35 -42 -19 -21
-34 -44 -34 -51 0 -7 -8 -13 -18 -13 -21 0 -48 -42 -38 -58 3 -6 -4 -12 -16
-14 -17 -2 -23 -10 -22 -28 0 -14 -10 -34 -22 -45 -11 -11 -29 -33 -38 -50
-10 -16 -12 -22 -4 -13 8 10 17 15 20 13 3 -3 18 7 34 23 16 16 39 32 52 35
25 6 26 4 11 -25 -8 -15 -8 -19 0 -14 6 4 11 3 11 -2 0 -12 -29 -24 -40 -17
-5 3 -13 -3 -19 -13 -8 -16 -6 -17 25 -14 29 4 34 1 34 -16 0 -35 -23 -123
-30 -112 -3 5 -29 11 -57 12 -28 2 -49 6 -47 10 2 4 0 9 -4 12 -5 3 -7 17 -4
31 2 14 0 25 -6 25 -21 0 7 127 42 190 65 115 195 244 221 219 5 -5 16 -9 26
-9z m439 -74 c0 -2 -7 -7 -16 -10 -8 -3 -12 -2 -9 4 6 10 25 14 25 6z m-210
-66 c0 -5 -5 -10 -11 -10 -5 0 -7 5 -4 10 3 6 8 10 11 10 2 0 4 -4 4 -10z
m655 -40 c6 -1 24 -8 40 -16 17 -8 23 -12 15 -10 -8 2 -25 -1 -37 -5 -16 -6
-22 -5 -20 4 1 7 -3 11 -10 10 -7 -2 -17 6 -23 18 -10 18 -9 19 7 11 10 -6 23
-11 28 -12z m-935 0 c-8 -5 -22 -9 -30 -9 -10 0 -8 3 5 9 27 12 43 12 25 0z
m340 6 c0 -2 -8 -10 -17 -17 -16 -13 -17 -12 -4 4 13 16 21 21 21 13z m875
-36 c3 -5 1 -10 -4 -10 -6 0 -11 5 -11 10 0 6 2 10 4 10 3 0 8 -4 11 -10z
m-935 -5 c0 -2 -9 -9 -20 -15 -12 -6 -20 -7 -20 -1 0 5 8 12 18 14 9 3 18 5
20 6 1 0 2 -1 2 -4z m959 -42 c-8 -9 -16 -10 -22 -4 -13 13 0 31 19 24 11 -4
12 -8 3 -20z"/>
<path d="M2095 1800 c-3 -5 -1 -10 4 -10 6 0 11 5 11 10 0 6 -2 10 -4 10 -3 0
-8 -4 -11 -10z"/>
<path d="M1659 1683 c-6 -7 -7 -13 -2 -13 5 0 17 6 27 13 16 12 17 14 2 14 -9
0 -21 -6 -27 -14z"/>
</g>
</svg>
