<?xml version="1.0" standalone="no"?>
<!DOCTYPE svg PUBLIC "-//W3C//DTD SVG 20010904//EN"
 "http://www.w3.org/TR/2001/REC-SVG-20010904/DTD/svg10.dtd">
<svg version="1.0" xmlns="http://www.w3.org/2000/svg"
 width="450.000000pt" height="253.000000pt" viewBox="0 0 450.000000 253.000000"
 preserveAspectRatio="xMidYMid meet">
<metadata>
Created by potrace 1.16, written by Peter Selinger 2001-2019
</metadata>
<g transform="translate(0.000000,253.000000) scale(0.100000,-0.100000)"
fill="#000000" stroke="none">
<path d="M0 1265 l0 -1265 2250 0 2250 0 0 1265 0 1265 -797 0 c-733 -1 -796
-2 -768 -17 108 -56 163 -171 181 -375 6 -76 7 -77 38 -87 78 -24 97 -24 123
1 22 21 34 23 111 23 77 -1 95 -5 157 -33 163 -76 209 -106 221 -146 4 -12 11
-27 17 -34 15 -19 8 -123 -10 -152 -46 -69 -229 -234 -278 -249 -16 -5 -56
-17 -87 -26 -62 -19 -68 -26 -40 -47 29 -20 72 -91 88 -145 21 -67 44 -217 37
-245 -6 -22 -68 -88 -83 -88 -4 0 -13 -6 -19 -14 -14 -17 -128 -43 -226 -51
-120 -11 -363 36 -443 85 -44 27 -60 25 -68 -7 -5 -20 -9 -23 -13 -11 -5 12
-18 2 -58 -44 -29 -32 -53 -68 -53 -79 0 -28 -116 -138 -181 -170 -92 -46
-138 -55 -204 -40 -68 15 -133 68 -157 128 -66 161 -68 170 -68 279 0 68 -4
103 -10 99 -20 -13 -32 7 -15 25 16 17 13 19 -52 33 -37 8 -84 18 -103 22 -40
8 -200 83 -200 94 0 4 -11 13 -24 19 -24 11 -84 116 -78 136 2 4 -3 15 -10 23
-6 8 -12 38 -12 66 -1 45 4 60 41 112 24 33 60 71 80 85 21 14 40 27 43 30 3
4 22 16 43 29 20 12 37 27 37 33 0 5 -22 30 -50 55 -60 54 -102 114 -136 196
-32 74 -42 173 -23 208 7 13 13 27 14 31 0 15 73 47 134 59 92 18 261 7 336
-21 46 -18 86 -24 173 -27 61 -2 112 1 112 6 0 10 68 81 121 128 37 32 123 79
169 94 14 4 -545 8 -1242 8 l-1268 1 0 -1265z m2650 -385 c0 -5 -2 -10 -4 -10
-3 0 -8 5 -11 10 -3 6 -1 10 4 10 6 0 11 -4 11 -10z m-8 -55 c-2 -19 -6 -35
-8 -35 -2 0 -4 16 -4 35 0 19 4 35 8 35 4 0 6 -16 4 -35z m-25 -322 c-3 -10
-5 -4 -5 12 0 17 2 24 5 18 2 -7 2 -21 0 -30z"/>
<path d="M2414 1779 c-25 -27 -32 -126 -10 -135 9 -3 13 -10 10 -15 -6 -11 44
-59 61 -59 7 0 18 -7 25 -15 10 -12 9 -15 -4 -15 -12 0 -16 -5 -11 -19 3 -10
1 -30 -4 -45 l-10 -26 54 1 c30 1 55 6 55 10 0 5 9 9 20 9 11 0 20 5 20 10 0
6 -4 10 -9 10 -14 0 -23 32 -11 44 19 19 10 34 -26 40 -45 9 -84 33 -117 72
-23 27 -60 100 -41 82 7 -8 44 34 44 50 0 20 -28 20 -46 1z m23 -2 c0 -8 -6
-14 -14 -14 -9 0 -10 4 -2 14 6 7 12 13 14 13 1 0 2 -6 2 -13z"/>
<path d="M2707 1660 c-3 -13 -10 -18 -21 -14 -10 4 -16 1 -16 -9 0 -8 -5 -17
-11 -19 -5 -2 -12 -16 -13 -31 -3 -25 -2 -26 14 -12 9 8 21 15 26 15 12 0 44
79 34 85 -4 3 -10 -4 -13 -15z"/>
<path d="M2210 1655 c7 -9 15 -13 17 -11 7 7 -7 26 -19 26 -6 0 -6 -6 2 -15z"/>
<path d="M1750 1647 c-14 -6 -26 -12 -28 -13 -9 -6 20 -44 33 -44 7 0 15 -5
17 -10 2 -6 13 -12 25 -13 15 -1 19 -5 13 -13 -6 -6 -6 -15 -2 -19 4 -5 1 -5
-6 -1 -7 4 -9 13 -5 19 3 7 -3 4 -15 -7 -25 -22 -20 -36 12 -36 18 0 23 5 22
23 0 12 4 21 11 20 7 -2 10 4 7 12 -4 8 -10 15 -16 15 -5 0 -6 4 -3 10 3 5 1
18 -5 29 -7 14 -7 22 2 27 7 5 8 3 3 -6 -6 -9 -4 -11 4 -6 31 19 -31 31 -69
13z"/>
<path d="M1826 1622 c-2 -4 -1 -14 3 -21 6 -10 10 -9 14 3 6 16 -8 32 -17 18z"/>
<path d="M1505 1610 c-8 -12 2 -30 17 -30 7 0 7 4 -1 13 -6 8 -8 17 -4 20 3 4
4 7 0 7 -3 0 -9 -4 -12 -10z"/>
<path d="M1720 1579 c0 -5 5 -7 10 -4 6 3 10 8 10 11 0 2 -4 4 -10 4 -5 0 -10
-5 -10 -11z"/>
<path d="M2380 1560 c-8 -15 -8 -20 2 -21 7 0 4 -4 -7 -8 -26 -11 -35 -5 -36
22 0 12 -3 17 -5 10 -3 -7 -11 -10 -18 -7 -7 3 -13 -2 -13 -10 0 -8 3 -15 6
-14 19 2 22 -4 10 -18 -11 -14 -10 -16 6 -13 11 2 26 0 33 -5 14 -8 92 21 92
34 0 4 -13 13 -30 20 -16 7 -27 16 -24 21 3 5 3 9 0 9 -3 0 -10 -9 -16 -20z"/>
<path d="M1504 1562 c-9 -5 -8 -10 1 -19 11 -10 13 -9 12 7 -1 11 -1 20 -2 20
0 0 -5 -4 -11 -8z"/>
<path d="M2351 1544 c0 -11 3 -14 6 -6 3 7 2 16 -1 19 -3 4 -6 -2 -5 -13z"/>
<path d="M1492 1516 c1 -14 5 -23 9 -20 7 4 0 44 -7 44 -2 0 -3 -11 -2 -24z"/>
<path d="M2155 1436 c-11 -7 -38 -18 -60 -24 -22 -5 -32 -10 -22 -11 12 -1 16
-5 11 -13 -6 -10 -5 -10 7 -1 8 7 24 10 35 8 13 -3 27 5 42 25 25 32 19 39
-13 16z"/>
<path d="M2343 1433 c-13 -8 -23 -22 -23 -29 0 -19 49 -18 56 1 4 8 12 15 20
15 8 0 11 6 8 15 -8 19 -33 18 -61 -2z"/>
<path d="M1920 1422 c0 -4 12 -9 28 -10 21 -1 23 0 12 8 -18 12 -40 13 -40 2z"/>
<path d="M2327 1338 c-9 -7 -19 -26 -23 -43 -4 -16 -3 -27 1 -23 4 4 18 3 31
-2 14 -6 24 -6 24 -1 0 5 8 7 19 4 16 -4 18 0 13 23 -5 29 -24 54 -39 54 -5 0
-17 -6 -26 -12z"/>
<path d="M2565 1340 c-7 -11 0 -13 27 -11 10 1 26 -3 38 -9 11 -6 20 -7 20 -1
0 5 -14 14 -31 20 -39 14 -46 14 -54 1z"/>
<path d="M2165 1309 c-3 -4 2 -6 10 -5 21 3 28 13 10 13 -9 0 -18 -4 -20 -8z"/>
<path d="M2533 1305 c-3 -9 -3 -19 1 -22 3 -4 6 1 6 11 0 10 5 14 12 10 7 -4
8 -3 4 4 -10 16 -15 15 -23 -3z"/>
<path d="M2430 1285 c0 -2 9 -9 20 -15 16 -9 18 -8 14 5 -5 13 -34 22 -34 10z"/>
<path d="M2219 1261 c9 -16 61 -25 61 -10 0 20 -6 24 -37 24 -25 1 -30 -2 -24
-14z"/>
<path d="M3313 1197 c-5 -6 -15 -29 -22 -50 -12 -35 -11 -41 10 -72 13 -18 27
-31 31 -29 4 3 8 0 8 -6 0 -6 4 -9 9 -6 5 4 12 0 14 -6 3 -8 6 -6 6 5 1 11 6
15 13 11 7 -4 8 -3 4 5 -4 6 -11 9 -15 7 -4 -3 -8 1 -8 9 0 8 4 12 8 10 4 -3
6 3 5 12 -2 9 -8 19 -14 21 -7 2 -10 8 -6 13 3 5 0 9 -7 9 -7 0 -9 3 -6 7 4 3
2 12 -4 19 -6 8 -9 20 -6 29 8 19 -8 29 -20 12z"/>
<path d="M2228 1189 c-20 -11 -24 -29 -7 -29 5 0 7 5 4 10 -3 6 1 10 9 10 9 0
16 5 16 10 0 12 0 12 -22 -1z"/>
<path d="M2607 1193 c-4 -3 -7 -11 -7 -17 0 -6 5 -5 12 2 6 6 9 14 7 17 -3 3
-9 2 -12 -2z"/>
<path d="M2478 1164 c-31 -16 -37 -48 -12 -58 17 -6 94 10 94 21 0 3 -9 3 -20
0 -22 -6 -48 17 -30 28 12 7 14 25 3 25 -5 -1 -20 -8 -35 -16z"/>
<path d="M2690 1173 c0 -4 11 -13 25 -20 14 -6 23 -7 19 -2 -8 13 -44 31 -44
22z"/>
<path d="M2219 1051 c-22 -19 -23 -20 -4 -21 28 0 45 13 36 28 -6 10 -13 8
-32 -7z"/>
</g>
</svg>
