<?xml version="1.0" standalone="no"?>
<!DOCTYPE svg PUBLIC "-//W3C//DTD SVG 20010904//EN"
 "http://www.w3.org/TR/2001/REC-SVG-20010904/DTD/svg10.dtd">
<svg version="1.0" xmlns="http://www.w3.org/2000/svg"
 width="450.000000pt" height="253.000000pt" viewBox="0 0 450.000000 253.000000"
 preserveAspectRatio="xMidYMid meet">
<metadata>
Created by potrace 1.16, written by Peter Selinger 2001-2019
</metadata>
<g transform="translate(0.000000,253.000000) scale(0.100000,-0.100000)"
fill="#000000" stroke="none">
<path d="M0 1265 l0 -1265 2250 0 2250 0 0 1265 0 1265 -2250 0 -2250 0 0
-1265z m2998 681 c79 -21 158 -72 232 -148 111 -114 138 -156 110 -173 -5 -3
-10 -15 -10 -25 0 -23 -28 -52 -42 -44 -6 4 -8 2 -5 -3 9 -14 -19 -37 -78 -63
-27 -12 -67 -30 -87 -40 -21 -10 -38 -16 -38 -14 0 11 35 42 42 38 4 -3 8 0 8
5 0 6 7 11 16 11 27 0 124 60 124 77 0 13 -2 14 -17 2 -16 -12 -17 -12 -6 2 7
9 9 20 5 25 -4 5 4 0 17 -11 l24 -20 -13 25 c-12 22 -12 24 2 12 13 -10 18 -9
28 3 11 13 8 15 -19 15 -18 0 -31 5 -31 13 0 6 -5 4 -11 -6 -10 -18 -11 -18
-32 0 -11 10 -18 13 -14 8 8 -16 -30 -38 -39 -23 -4 6 -3 8 4 4 6 -3 14 -1 18
5 5 9 0 10 -17 5 -13 -4 -32 -9 -41 -10 -10 -1 -21 -5 -24 -9 -7 -7 10 -11 34
-8 17 3 15 -6 -3 -13 -9 -3 -24 3 -35 14 -12 12 -20 15 -20 8 0 -9 -4 -8 -10
2 -5 8 -10 11 -10 5 0 -11 -59 -13 -77 -2 -6 4 -14 3 -18 -3 -4 -6 -11 -7 -17
-4 -6 4 -46 8 -89 9 -42 2 -82 5 -87 8 -4 3 -21 -1 -36 -8 -24 -13 -27 -13
-23 -1 6 15 -17 16 -30 1 -4 -4 -2 -5 6 0 9 5 12 4 8 -3 -22 -35 -112 54 -92
90 5 7 5 10 0 6 -13 -12 -38 21 -30 40 22 52 12 113 -13 86 -8 -8 -9 -14 -2
-14 11 0 10 -59 -1 -66 -3 -2 -15 6 -25 19 -19 21 -19 21 1 7 18 -13 19 -13 5
3 -9 9 -27 18 -42 19 -35 3 -26 21 28 59 40 27 49 29 45 7 0 -5 4 -8 10 -8 5
0 9 9 7 21 -7 49 175 103 296 87 34 -4 85 -14 114 -22z m-734 -51 c11 -5 21
-3 25 4 5 8 12 6 24 -7 15 -17 15 -18 -16 -20 -18 -2 -33 -7 -35 -12 -2 -5 -9
-7 -17 -4 -7 3 -16 0 -20 -6 -3 -6 -3 -10 2 -9 4 1 11 0 16 -1 4 -1 12 -3 19
-4 6 0 12 -10 14 -21 2 -11 8 -21 13 -23 6 -2 11 -14 11 -27 0 -17 -7 -24 -27
-28 -16 -3 -33 -1 -40 4 -7 7 -14 6 -18 -1 -9 -15 -27 -1 -21 17 4 11 2 13 -9
9 -8 -3 -30 3 -47 14 -17 10 -36 16 -41 13 -6 -4 -8 2 -5 14 4 14 1 20 -11 19
-9 -1 -17 3 -18 7 -1 4 -12 17 -25 28 -13 11 -17 17 -9 13 9 -5 12 -3 7 4 -4
7 -24 13 -44 13 l-37 1 30 8 c36 10 252 6 279 -5z m173 -9 c-3 -8 -1 -17 6
-19 18 -7 3 -18 -37 -27 -23 -5 -38 -4 -43 3 -3 5 -2 8 3 5 5 -3 14 0 21 7 10
10 7 14 -14 20 -33 8 -17 19 32 23 29 2 36 -1 32 -12z m63 -7 c0 -5 -7 -9 -15
-9 -8 0 -15 7 -15 15 0 9 6 12 15 9 8 -4 15 -10 15 -15z m-553 -24 c0 -5 3
-20 7 -33 7 -20 5 -22 -28 -20 -33 3 -36 5 -36 35 0 36 25 58 45 40 6 -6 12
-16 12 -22z m103 -40 c0 -2 -5 -7 -12 -11 -7 -4 -8 -3 -4 4 4 7 1 12 -8 12 -9
0 -16 5 -16 10 0 7 6 7 20 0 11 -6 20 -13 20 -15z m453 -34 c4 -1 2 -7 -5 -15
-9 -10 -17 -11 -26 -3 -10 8 -12 7 -10 -2 2 -7 -7 -15 -19 -17 -27 -5 -29 3
-7 27 10 11 26 17 38 14 11 -2 25 -4 29 -4z m-539 -32 c-3 -5 -10 -7 -15 -4
-5 4 -9 1 -9 -6 0 -7 -3 -9 -6 -6 -9 9 16 38 27 31 5 -3 7 -10 3 -15z m121 2
c3 -5 1 -12 -5 -16 -5 -3 -10 1 -10 9 0 18 6 21 15 7z m-242 -16 c-3 -9 -8
-14 -10 -11 -3 3 -2 9 2 15 9 16 15 13 8 -4z m176 2 c-9 -7 -18 -19 -22 -27
-5 -13 -6 -13 -6 1 -1 17 18 39 34 39 5 0 3 -6 -6 -13z m-66 -37 c10 0 17 -5
14 -12 -2 -8 -23 -13 -53 -13 -57 -1 -105 -22 -83 -36 8 -5 9 -9 3 -9 -7 0
-14 -11 -17 -25 -2 -14 0 -24 5 -23 5 2 9 8 8 13 -2 13 28 23 70 24 35 1 35 1
10 -13 -14 -7 -30 -9 -36 -4 -17 13 -24 -3 -12 -26 19 -34 17 -42 -10 -44 -14
-1 -31 -7 -37 -13 -7 -8 -4 -9 12 -5 30 10 36 -7 13 -37 -24 -31 -28 -56 -5
-37 25 21 19 -25 -8 -56 l-24 -27 -26 19 c-24 17 -26 26 -27 82 0 78 17 152
36 152 9 0 14 11 14 29 0 16 7 34 15 41 12 10 15 10 15 -1 0 -10 3 -10 12 -1
7 7 20 12 29 12 9 0 22 7 29 15 9 11 16 13 24 5 5 -5 18 -10 29 -10z m85 -38
c-2 -8 -11 -16 -21 -18 -15 -2 -16 0 -6 12 13 15 9 17 -15 8 -9 -3 -13 -11 -9
-17 3 -6 1 -7 -5 -3 -19 11 -14 26 11 35 28 11 49 3 45 -17z m1002 -241 c0
-10 -30 -24 -37 -17 -3 3 -2 9 2 15 8 13 35 15 35 2z m-360 -21 c0 -5 -2 -10
-4 -10 -3 0 -8 5 -11 10 -3 6 -1 10 4 10 6 0 11 -4 11 -10z"/>
<path d="M2160 1840 c-9 -6 -10 -10 -3 -10 6 0 15 5 18 10 8 12 4 12 -15 0z"/>
<path d="M2252 1821 c-8 -4 -24 -7 -38 -5 -26 3 -33 -11 -9 -20 8 -3 15 -1 15
5 0 6 5 7 10 4 6 -4 7 -11 4 -17 -5 -7 -1 -7 11 0 10 5 20 17 21 26 3 19 3 18
-14 7z"/>
</g>
</svg>
