<?xml version="1.0" standalone="no"?>
<!DOCTYPE svg PUBLIC "-//W3C//DTD SVG 20010904//EN"
 "http://www.w3.org/TR/2001/REC-SVG-20010904/DTD/svg10.dtd">
<svg version="1.0" xmlns="http://www.w3.org/2000/svg"
 width="450.000000pt" height="253.000000pt" viewBox="0 0 450.000000 253.000000"
 preserveAspectRatio="xMidYMid meet">
<metadata>
Created by potrace 1.16, written by Peter Selinger 2001-2019
</metadata>
<g transform="translate(0.000000,253.000000) scale(0.100000,-0.100000)"
fill="#000000" stroke="none">
<path d="M0 1265 l0 -1265 2250 0 2250 0 0 1265 0 1265 -2250 0 -2250 0 0
-1265z m2745 644 c22 -5 50 -12 63 -15 59 -12 192 -75 212 -100 7 -7 16 -11
21 -8 5 3 9 2 9 -3 0 -4 22 -23 48 -42 74 -53 87 -75 73 -122 -7 -21 -16 -39
-22 -39 -6 0 -6 7 1 20 16 30 7 37 -57 39 -31 1 -60 5 -63 9 -3 4 -15 7 -27 6
-13 -1 -23 4 -23 10 0 6 -4 5 -9 -2 -4 -8 -12 -14 -17 -15 -5 -1 -8 -9 -7 -17
2 -10 0 -11 -3 -2 -3 6 -10 10 -14 7 -5 -3 -12 0 -16 6 -5 8 -3 9 7 4 8 -5 11
-4 6 1 -10 11 -78 13 -71 2 3 -5 10 -5 16 -2 7 4 8 2 4 -4 -4 -6 -14 -8 -23
-5 -12 5 -14 3 -8 -8 5 -9 1 -7 -11 3 -15 13 -23 15 -32 6 -8 -8 -10 -5 -6 13
5 19 4 21 -5 9 -8 -12 -11 -12 -11 -1 0 11 -3 11 -15 1 -13 -11 -14 -10 -9 6
7 18 6 18 -17 -1 -17 -14 -20 -15 -10 -3 11 15 10 18 -11 23 -20 5 -83 1 -83
-5 0 -8 -36 -6 -42 2 -4 7 -1 8 8 3 8 -5 11 -4 6 0 -9 11 -48 14 -41 4 9 -14
-25 -3 -47 17 -15 12 -20 14 -15 4 4 -8 1 -7 -7 3 -14 17 -12 57 3 57 16 0 -3
50 -21 55 -29 10 -23 21 22 39 23 9 39 20 36 23 -4 3 -19 1 -34 -6 -35 -14
-78 -23 -69 -13 4 4 11 7 14 7 4 1 23 8 42 17 19 9 42 19 50 21 27 9 164 7
205 -4z m-607 -21 c92 0 171 -3 177 -6 5 -4 19 -7 30 -7 11 0 21 -7 23 -16 3
-14 -55 -46 -133 -73 -14 -5 -16 -9 -7 -15 10 -6 10 -15 2 -35 -8 -23 -15 -27
-48 -25 -21 2 -43 -1 -50 -5 -7 -4 -22 -9 -33 -11 -20 -4 -21 -3 -5 14 17 18
16 20 -4 26 -15 5 -32 0 -52 -15 l-30 -22 12 22 c6 11 18 24 26 27 21 8 -2 23
-35 23 -13 0 -21 3 -18 7 12 12 -13 31 -35 26 -17 -5 -19 -3 -13 17 6 18 4 22
-8 17 -12 -4 -14 -2 -10 10 7 18 -12 32 -47 34 -14 1 -2 5 25 8 28 4 54 5 58
3 5 -2 84 -4 175 -4z m-296 -25 c8 -10 15 -30 16 -45 2 -25 -1 -26 -31 -21
-17 2 -44 5 -59 6 -25 1 -30 12 -5 12 5 0 12 6 15 13 2 6 -1 12 -7 12 -16 0
-1 28 17 33 31 9 39 7 54 -10z m578 -2 c0 -6 -4 -12 -8 -15 -5 -3 -9 1 -9 9 0
8 4 15 9 15 4 0 8 -4 8 -9z m-14 -40 c-4 -5 0 -12 6 -14 8 -3 5 -6 -6 -6 -12
-1 -16 -6 -12 -17 3 -9 6 -20 6 -25 0 -5 5 -9 11 -9 5 0 8 4 5 8 -3 5 1 9 9 9
13 0 12 -4 -2 -19 -9 -10 -22 -18 -30 -18 -8 0 -12 -4 -8 -9 3 -5 0 -13 -7
-17 -7 -4 -10 -4 -6 1 4 4 0 13 -8 20 -15 10 -15 16 -3 48 7 20 17 37 22 37 4
0 5 5 2 10 -3 6 1 10 10 10 9 0 14 -4 11 -9z m-680 -36 c-7 -18 5 -20 22 -3 9
9 12 9 12 1 0 -7 -5 -15 -10 -18 -6 -4 -10 -12 -9 -18 3 -18 -12 -48 -21 -42
-13 8 -60 -13 -60 -26 0 -8 5 -7 16 2 11 9 17 10 23 1 11 -18 77 6 111 41 28
29 63 30 39 1 -6 -7 -15 -11 -20 -8 -10 6 -12 -19 -3 -29 4 -3 15 -2 25 4 23
12 25 2 4 -21 -12 -13 -27 -16 -60 -12 -50 5 -99 -4 -90 -18 3 -5 1 -11 -5
-15 -5 -3 -10 -13 -10 -21 0 -12 4 -12 20 -4 12 6 35 9 53 7 l32 -3 -32 -8
c-18 -5 -33 -11 -33 -14 0 -8 33 -32 59 -43 35 -14 18 -23 -47 -22 -53 1 -52
0 3 -12 15 -3 21 -13 23 -35 1 -16 -2 -30 -7 -30 -4 0 -11 -18 -15 -40 -4 -29
-10 -38 -21 -34 -8 3 -20 2 -27 -2 -7 -5 -26 -9 -43 -9 -22 0 -30 -5 -29 -18
1 -9 -2 -17 -7 -17 -5 0 -9 12 -10 28 -1 15 -3 43 -5 62 -17 154 -6 196 89
341 32 49 44 62 33 34z m189 -143 c-11 -9 -14 -10 -7 -2 16 19 16 35 0 23 -21
-16 -48 -23 -48 -13 0 6 9 10 19 10 11 0 23 5 27 11 4 8 9 8 17 0 8 -8 6 -16
-8 -29z m805 32 c0 -8 -19 -13 -24 -6 -3 5 1 9 9 9 8 0 15 -2 15 -3z m171 -47
c-10 -9 -11 -8 -5 6 3 10 9 15 12 12 3 -3 0 -11 -7 -18z m96 8 c4 -4 3 -5 -4
-2 -6 4 -13 2 -15 -5 -3 -8 -6 -6 -10 4 -7 17 15 19 29 3z m110 -52 c0 -8 -4
-10 -12 -3 -7 5 -16 6 -20 2 -5 -4 -5 -2 -2 4 9 15 34 13 34 -3z"/>
<path d="M2570 1902 c0 -5 7 -9 15 -9 8 0 15 4 15 9 0 4 -7 8 -15 8 -8 0 -15
-4 -15 -8z"/>
<path d="M2745 1746 c28 -7 67 -20 87 -29 24 -10 40 -12 44 -6 3 6 -3 13 -15
16 -12 3 -21 9 -21 12 0 4 -6 8 -12 8 -7 0 -40 3 -73 6 l-60 6 50 -13z"/>
<path d="M2030 1870 c0 -13 20 -13 40 0 12 8 9 10 -12 10 -16 0 -28 -4 -28
-10z"/>
<path d="M2228 1873 c7 -3 16 -2 19 1 4 3 -2 6 -13 5 -11 0 -14 -3 -6 -6z"/>
</g>
</svg>
