<?xml version="1.0" standalone="no"?>
<!DOCTYPE svg PUBLIC "-//W3C//DTD SVG 20010904//EN"
 "http://www.w3.org/TR/2001/REC-SVG-20010904/DTD/svg10.dtd">
<svg version="1.0" xmlns="http://www.w3.org/2000/svg"
 width="450.000000pt" height="253.000000pt" viewBox="0 0 450.000000 253.000000"
 preserveAspectRatio="xMidYMid meet">
<metadata>
Created by potrace 1.16, written by Peter Selinger 2001-2019
</metadata>
<g transform="translate(0.000000,253.000000) scale(0.100000,-0.100000)"
fill="#000000" stroke="none">
<path d="M0 1265 l0 -1265 2250 0 2250 0 0 1265 0 1265 -2250 0 -2250 0 0
-1265z m2725 650 c118 -27 290 -99 279 -116 -3 -5 1 -6 9 -3 8 3 18 0 22 -5 3
-6 11 -8 17 -5 6 4 8 2 4 -4 -3 -6 2 -13 11 -17 43 -14 83 -65 89 -111 3 -22
-40 -83 -51 -73 -3 4 1 14 10 22 34 35 19 43 -72 41 -49 -1 -101 -5 -116 -8
-21 -5 -27 -3 -21 5 5 8 3 9 -7 4 -19 -12 -109 -14 -102 -2 3 6 -7 8 -26 5
-18 -3 -35 0 -38 5 -3 6 -1 7 5 3 6 -3 13 -3 16 2 2 4 -6 8 -19 8 -12 0 -22
-5 -21 -10 2 -6 1 -8 -1 -3 -3 4 -9 4 -15 1 -6 -4 -5 2 1 15 11 19 9 21 -14
21 -15 0 -36 -5 -47 -11 -11 -6 -18 -7 -15 -2 7 11 -29 10 -39 0 -4 -4 -14 -1
-22 6 -11 8 -14 8 -9 0 4 -6 3 -15 -3 -18 -6 -4 -9 -1 -8 6 2 7 -1 13 -7 14
-5 0 -20 6 -32 13 -13 7 -23 10 -23 6 0 -3 -7 -1 -15 6 -10 8 -12 17 -6 24 5
6 11 20 13 31 1 11 8 23 13 27 6 5 5 8 -3 8 -7 0 -10 5 -7 10 3 6 3 10 -2 10
-4 0 -14 4 -22 9 -12 8 -12 12 -2 25 12 14 9 16 -25 11 -33 -4 -36 -3 -19 7
46 27 141 55 194 57 31 1 88 -5 126 -14z m-407 -35 c3 -9 6 -9 11 -1 5 8 13 6
27 -4 19 -15 19 -16 -5 -33 -14 -9 -47 -27 -75 -39 -40 -17 -51 -26 -52 -45 0
-12 -1 -29 -2 -35 -2 -15 -62 -18 -62 -3 0 6 -11 3 -24 -5 -13 -9 -33 -18 -46
-20 -18 -3 -20 -2 -10 10 7 8 17 12 24 9 6 -3 2 2 -8 10 -26 21 -38 20 -64 -4
-24 -23 -31 -7 -7 17 19 19 11 33 -20 33 -17 0 -23 4 -19 14 4 10 -3 16 -23
18 -20 2 -27 8 -25 21 2 10 -2 16 -10 15 -6 -2 -12 6 -13 17 0 15 -9 21 -35
26 l-35 6 35 5 c19 3 125 4 235 3 148 -2 200 -6 203 -15z m-488 -17 c11 -10
20 -30 20 -45 0 -24 -3 -26 -27 -21 -16 3 -40 6 -55 6 -25 0 -26 2 -10 13 12
10 14 16 5 22 -14 9 -5 26 17 35 24 9 29 8 50 -10z m553 -45 c-4 -19 -3 -20 6
-8 9 13 11 12 11 -3 0 -10 4 -15 10 -12 6 3 7 -1 4 -9 -3 -9 -10 -13 -15 -10
-5 3 -6 -2 -3 -10 9 -23 -3 -47 -20 -40 -20 8 -27 30 -17 57 5 12 12 30 15 40
8 25 15 21 9 -5z m-648 -24 c14 -6 14 -8 -1 -31 -9 -14 -11 -22 -5 -19 6 4 11
2 11 -4 0 -6 -7 -13 -15 -16 -8 -4 -13 -9 -10 -14 2 -4 -6 -5 -19 -3 -18 4
-28 -1 -37 -18 -12 -23 -12 -23 13 -7 25 17 26 16 21 -5 -5 -18 -3 -20 8 -9 7
6 21 12 30 12 9 0 36 16 59 35 43 36 60 43 60 24 0 -5 -3 -8 -7 -6 -5 3 -17
-4 -27 -14 -18 -17 -18 -19 -2 -25 10 -4 29 -1 44 5 l27 12 -27 -27 c-23 -24
-34 -27 -78 -25 -63 3 -93 -6 -86 -25 3 -8 1 -14 -4 -14 -6 0 -10 -5 -10 -10
0 -6 22 -8 58 -5 49 5 53 4 32 -6 -14 -7 -28 -13 -32 -13 -12 -2 -21 -16 -10
-16 6 0 13 -9 17 -19 3 -11 12 -18 19 -15 7 3 18 -1 24 -8 8 -10 -2 -12 -51
-10 -34 2 -59 1 -55 -4 4 -4 20 -8 35 -9 27 -1 28 -3 28 -53 1 -29 -3 -52 -7
-52 -4 0 -8 -6 -8 -14 0 -8 -5 -18 -12 -22 -7 -5 -8 -3 -3 7 7 12 6 12 -7 1
-20 -16 -56 -23 -63 -13 -2 5 -18 7 -34 5 -28 -3 -37 13 -18 32 4 4 7 12 7 18
0 6 -5 4 -11 -4 -7 -11 -9 12 -6 80 5 91 22 160 40 160 4 0 5 5 2 10 -3 6 -2
10 3 10 5 0 15 15 22 33 12 30 57 97 65 97 2 0 11 -3 20 -6z m185 -64 c0 -5
-5 -10 -11 -10 -5 0 -7 5 -4 10 3 6 8 10 11 10 2 0 4 -4 4 -10z m-43 -76 c-3
-3 -12 -4 -19 -1 -8 3 -5 6 6 6 11 1 17 -2 13 -5z m-248 -311 c-6 -7 -8 -16
-6 -20 3 -5 -3 -9 -13 -10 -11 -1 -23 3 -26 9 -4 7 -2 8 4 4 7 -4 12 -2 12 3
0 6 -6 11 -12 11 -10 0 -10 2 -1 8 7 4 21 8 32 8 15 0 17 -4 10 -13z m-24
-133 c-3 -5 -1 -19 5 -30 6 -11 8 -20 6 -20 -3 0 -13 14 -22 31 -9 19 -11 28
-4 24 9 -5 10 -1 6 16 -6 20 -5 21 4 6 6 -9 8 -22 5 -27z m10 -89 c3 -5 2 -12
-3 -15 -5 -3 -9 1 -9 9 0 17 3 19 12 6z m133 -156 c-3 -3 -9 2 -12 12 -6 14
-5 15 5 6 7 -7 10 -15 7 -18z m-7 -88 c-10 -9 -11 -8 -5 6 3 10 9 15 12 12 3
-3 0 -11 -7 -18z m16 -39 c2 -17 0 -19 -7 -8 -5 8 -6 18 -4 22 8 12 10 10 11
-14z m20 -270 c-3 -8 -6 -5 -6 6 -1 11 2 17 5 13 3 -3 4 -12 1 -19z m1 -43
c-3 -3 -9 2 -12 12 -6 14 -5 15 5 6 7 -7 10 -15 7 -18z m10 -136 c-3 -20 -5
-19 -9 9 -3 20 -2 29 4 23 5 -5 7 -19 5 -32z"/>
<path d="M2688 1753 c6 -2 18 -2 25 0 6 3 1 5 -13 5 -14 0 -19 -2 -12 -5z"/>
<path d="M2785 1725 c33 -14 63 -21 68 -16 5 5 4 12 -2 15 -6 4 -11 4 -11 1 0
-3 -10 1 -22 9 -12 9 -38 16 -58 16 -34 0 -33 -1 25 -25z"/>
<path d="M2030 1870 c0 -5 6 -10 14 -10 8 0 18 5 21 10 3 6 -3 10 -14 10 -12
0 -21 -4 -21 -10z"/>
<path d="M2140 1840 c0 -5 7 -7 15 -4 8 4 15 8 15 10 0 2 -7 4 -15 4 -8 0 -15
-4 -15 -10z"/>
<path d="M2185 1840 c4 -6 11 -8 16 -5 14 9 11 15 -7 15 -8 0 -12 -5 -9 -10z"/>
</g>
</svg>
