<?xml version="1.0" standalone="no"?>
<!DOCTYPE svg PUBLIC "-//W3C//DTD SVG 20010904//EN"
 "http://www.w3.org/TR/2001/REC-SVG-20010904/DTD/svg10.dtd">
<svg version="1.0" xmlns="http://www.w3.org/2000/svg"
 width="450.000000pt" height="253.000000pt" viewBox="0 0 450.000000 253.000000"
 preserveAspectRatio="xMidYMid meet">
<metadata>
Created by potrace 1.16, written by Peter Selinger 2001-2019
</metadata>
<g transform="translate(0.000000,253.000000) scale(0.100000,-0.100000)"
fill="#000000" stroke="none">
<path d="M0 1265 l0 -1265 2250 0 2250 0 0 1265 0 1265 -2250 0 -2250 0 0
-1265z m3320 832 c8 -3 32 -11 53 -17 51 -16 117 -82 117 -117 0 -20 -31 -15
-56 8 -12 11 -24 16 -28 11 -3 -5 8 -21 24 -35 23 -21 34 -24 57 -18 15 4 34
6 41 5 6 -1 25 -2 42 -3 20 -1 48 -18 91 -56 43 -38 70 -55 89 -55 15 0 43
-11 63 -24 45 -31 99 -90 86 -94 -5 -2 -16 -20 -25 -40 -19 -47 -48 -77 -87
-93 -18 -7 -45 -22 -62 -33 -57 -40 -130 -70 -182 -74 -50 -4 -52 -5 -48 -33
2 -15 -4 -43 -14 -62 -15 -29 -16 -39 -6 -58 18 -35 45 -162 45 -211 -1 -120
-124 -240 -200 -193 -5 3 -20 8 -32 10 -13 3 -50 11 -83 19 -33 8 -89 19 -124
26 -42 7 -84 24 -120 47 -68 44 -153 132 -145 153 3 8 2 11 -1 8 -4 -4 -22 2
-41 13 -19 10 -48 19 -65 19 -70 0 -92 20 -150 136 -29 60 -54 112 -55 117 -1
4 -3 9 -4 12 -1 3 -3 9 -4 14 0 5 -4 13 -8 17 -12 11 -9 73 4 97 6 12 15 59
19 105 4 46 13 90 20 98 17 20 6 27 -31 19 -17 -4 -29 -9 -26 -12 2 -3 -15
-22 -40 -44 -46 -39 -69 -42 -79 -8 -10 30 -21 22 -21 -13 1 -18 5 -32 11 -30
10 4 23 -23 24 -50 1 -10 -5 -18 -12 -18 -17 0 -34 35 -42 87 -8 48 -25 84
-37 77 -5 -3 -8 10 -6 30 1 20 5 36 9 36 3 0 16 9 29 20 18 16 38 20 99 21 85
1 117 0 179 -7 41 -4 58 8 27 20 -17 6 -20 42 -5 51 6 4 8 10 5 14 -2 5 18 19
45 32 27 13 47 26 45 29 -3 5 3 6 118 16 37 3 65 9 63 12 -2 4 17 7 42 7 65 1
142 9 142 15 0 7 231 4 250 -3z m-1036 -395 c2 -4 1 -14 -3 -21 -6 -9 -10 -7
-14 8 -5 20 7 29 17 13z m36 -26 c0 -3 -4 -8 -10 -11 -5 -3 -10 -1 -10 4 0 6
5 11 10 11 6 0 10 -2 10 -4z m21 -73 c13 -14 11 -16 -13 -11 -16 3 -28 2 -28
-1 1 -16 18 -30 43 -33 46 -5 31 -23 -22 -26 l-50 -3 9 31 c5 17 7 37 4 43 -7
19 42 19 57 0z m-51 -97 c0 -16 -18 -31 -27 -22 -8 8 5 36 17 36 5 0 10 -6 10
-14z m24 -24 c-6 -4 -10 -18 -10 -32 0 -14 -4 -32 -9 -40 -5 -8 -4 -15 2 -17
6 -2 9 -12 6 -22 -3 -13 -11 -17 -29 -13 -14 2 -24 0 -24 -7 0 -6 -4 -11 -9
-11 -11 0 -4 62 11 103 7 19 14 24 18 16 6 -8 11 -5 19 10 7 11 17 21 24 21 8
0 9 -3 1 -8z m17 -85 c-10 -9 -11 -8 -5 6 3 10 9 15 12 12 3 -3 0 -11 -7 -18z
m-94 -189 c-2 -13 -4 -3 -4 22 0 25 2 35 4 23 2 -13 2 -33 0 -45z m97 -680
c-3 -112 -8 -205 -10 -208 -3 -2 -4 86 -4 197 1 179 4 213 17 213 2 0 1 -91
-3 -202z m-4 -248 c0 -16 -4 -30 -8 -30 -5 0 -7 14 -4 30 2 17 6 30 8 30 2 0
4 -13 4 -30z"/>
<path d="M3041 1914 c-14 -16 -19 -30 -14 -35 13 -13 75 -14 94 -3 13 8 13 11
-3 27 -10 9 -18 13 -18 9 0 -5 -6 -9 -14 -9 -8 0 -11 8 -8 19 6 26 -11 22 -37
-8z"/>
<path d="M3490 1910 c0 -5 7 -7 15 -4 8 4 15 8 15 10 0 2 -7 4 -15 4 -8 0 -15
-4 -15 -10z"/>
<path d="M3460 1901 c0 -6 -5 -10 -11 -8 -6 1 -14 -5 -16 -13 -4 -12 -3 -12 5
-2 5 8 12 13 16 12 4 -1 12 0 18 2 9 3 9 6 0 12 -7 4 -12 2 -12 -3z"/>
<path d="M3160 1863 c0 -5 9 -18 20 -28 11 -10 20 -16 20 -13 0 3 -9 15 -20
28 -11 13 -20 19 -20 13z"/>
<path d="M3286 1811 c1 -14 2 -30 3 -35 1 -5 4 -6 8 -3 3 4 12 2 20 -5 11 -9
12 -7 7 7 -6 14 -4 16 6 10 9 -6 11 -4 5 4 -4 7 -15 11 -25 8 -18 -5 -21 8 -8
29 4 6 1 11 -6 11 -8 0 -12 -10 -10 -26z"/>
<path d="M2325 1790 c3 -5 8 -10 11 -10 2 0 4 5 4 10 0 6 -5 10 -11 10 -5 0
-7 -4 -4 -10z"/>
<path d="M3114 1785 c-4 -9 -14 -14 -23 -13 -11 2 -15 -3 -13 -17 5 -28 16
-37 36 -29 14 5 15 9 4 15 -15 10 31 13 56 3 25 -10 8 -24 -30 -24 -37 0 -39
-2 -23 -31 5 -11 7 -29 4 -40 -5 -16 -14 -19 -46 -17 -21 2 -39 6 -39 11 0 4
-8 15 -17 25 -17 16 -19 16 -41 -10 -13 -15 -21 -31 -18 -36 3 -5 -12 -8 -32
-8 -33 0 -37 -2 -34 -24 3 -25 20 -42 34 -34 4 3 12 3 17 -1 6 -3 -8 -23 -30
-44 -21 -22 -39 -44 -39 -50 0 -6 -9 -11 -20 -11 -11 0 -19 3 -19 8 4 23 -3
33 -23 30 -11 -2 -23 3 -26 10 -3 10 4 12 32 7 29 -6 36 -4 36 9 0 9 -4 17
-10 17 -5 1 -16 2 -22 3 -24 4 -46 -13 -51 -39 -3 -21 0 -28 18 -35 12 -5 25
-18 28 -30 5 -18 2 -20 -16 -14 -12 3 -28 11 -34 16 -20 16 -16 -17 4 -37 9
-9 27 -21 40 -26 15 -5 21 -14 17 -21 -5 -7 -1 -9 12 -6 10 3 26 7 34 9 8 2
17 13 20 24 3 11 12 21 20 21 8 1 21 2 28 3 6 0 12 6 12 12 0 5 -8 9 -17 8
-51 -5 -58 22 -18 65 27 30 47 33 65 11 7 -9 19 -14 27 -11 19 8 16 0 -12 -42
-25 -37 -25 -37 -4 -40 11 -2 29 4 40 14 18 16 20 16 32 1 14 -18 43 -24 74
-14 26 10 38 36 18 43 -8 4 -12 10 -9 15 3 5 -6 5 -20 -1 -14 -5 -26 -6 -26
-2 0 4 -5 0 -10 -8 -5 -8 -10 -10 -10 -4 0 6 7 17 15 24 8 7 15 10 15 7 0 -3
14 -1 32 4 23 6 34 5 40 -4 5 -7 8 -2 8 16 0 25 -2 27 -27 21 -16 -4 -30 -10
-33 -13 -3 -4 -19 -8 -36 -9 -22 -2 -36 2 -45 16 -13 18 -62 37 -84 33 -5 0
-1 6 9 14 16 12 22 12 28 2 5 -7 8 -8 8 -1 0 12 50 38 57 30 3 -2 -5 -9 -16
-16 -12 -6 -21 -15 -21 -21 0 -6 4 -8 9 -4 5 3 26 -4 45 -16 27 -16 40 -18 50
-10 7 6 15 9 17 6 3 -2 5 5 5 15 0 12 -7 20 -17 20 -22 0 -51 28 -43 41 3 6
10 6 17 1 19 -14 49 -23 42 -12 -3 6 -13 10 -22 10 -13 0 -13 3 -3 15 7 8 19
15 27 15 8 0 11 5 8 10 -10 17 26 24 57 12 25 -9 28 -9 18 4 -7 8 -14 37 -16
65 -2 28 -9 58 -15 65 -12 15 -74 20 -65 6 2 -4 -4 -9 -15 -9 -11 -1 -17 2
-14 8 4 5 4 9 0 9 -3 0 -8 -7 -11 -15z"/>
<path d="M2900 1780 c-33 -8 -40 -40 -8 -40 32 0 46 12 39 31 -4 11 -14 13
-31 9z"/>
<path d="M3364 1716 c3 -14 1 -28 -6 -32 -6 -4 -9 -3 -6 2 3 5 2 18 -2 29 -6
16 -8 14 -8 -11 1 -39 33 -64 41 -32 6 21 -7 68 -19 68 -3 0 -3 -11 0 -24z"/>
<path d="M3391 1714 c0 -11 3 -14 6 -6 3 7 2 16 -1 19 -3 4 -6 -2 -5 -13z"/>
<path d="M3300 1710 c-13 -8 -12 -10 3 -10 10 0 16 -4 12 -10 -3 -5 -12 -7
-20 -4 -10 4 -13 0 -10 -16 7 -35 12 -35 30 0 18 34 10 55 -15 40z"/>
<path d="M3346 1643 c-6 -14 -5 -15 5 -6 7 7 10 15 7 18 -3 3 -9 -2 -12 -12z"/>
<path d="M2690 1641 c0 -5 6 -13 13 -19 15 -13 42 1 33 17 -8 13 -46 15 -46 2z"/>
<path d="M3217 1606 c-4 -10 -1 -13 9 -9 7 3 14 9 14 14 0 14 -17 10 -23 -5z"/>
<path d="M2741 1587 c-14 -17 -5 -26 19 -20 11 3 16 11 13 19 -7 18 -17 18
-32 1z"/>
<path d="M2796 1561 c-4 -5 3 -7 14 -4 23 6 26 13 6 13 -8 0 -17 -4 -20 -9z"/>
<path d="M3170 1473 c0 -6 8 -17 18 -24 16 -13 16 -13 2 6 -8 11 -16 22 -17
24 -2 2 -3 0 -3 -6z"/>
<path d="M3054 1355 c-4 -9 2 -25 12 -36 17 -19 17 -19 -2 -16 -10 1 -25 6
-32 10 -8 6 -15 0 -21 -16 -26 -68 -73 -66 -150 5 -41 38 -51 43 -51 28 0 -11
9 -28 19 -37 76 -71 70 -68 140 -65 36 2 71 8 78 14 8 6 38 12 69 14 31 1 58
4 60 7 7 6 -66 77 -104 101 -7 4 -15 1 -18 -9z"/>
<path d="M3286 1341 c-3 -5 1 -14 8 -20 12 -10 13 -8 9 8 -6 23 -9 25 -17 12z"/>
<path d="M2800 1251 c0 -5 7 -11 15 -15 8 -3 15 -12 15 -20 0 -7 7 -17 16 -20
9 -3 14 -3 12 1 -24 51 -33 63 -45 63 -7 0 -13 -4 -13 -9z"/>
<path d="M3225 1250 c-4 -6 -3 -16 3 -22 6 -6 12 -6 17 2 4 6 3 16 -3 22 -6 6
-12 6 -17 -2z"/>
<path d="M3145 1190 c3 -5 11 -10 16 -10 6 0 7 5 4 10 -3 6 -11 10 -16 10 -6
0 -7 -4 -4 -10z"/>
<path d="M2944 1165 c11 -8 26 -15 33 -15 22 0 14 8 -19 19 -30 10 -31 9 -14
-4z"/>
</g>
</svg>
