<?xml version="1.0" standalone="no"?>
<!DOCTYPE svg PUBLIC "-//W3C//DTD SVG 20010904//EN"
 "http://www.w3.org/TR/2001/REC-SVG-20010904/DTD/svg10.dtd">
<svg version="1.0" xmlns="http://www.w3.org/2000/svg"
 width="450.000000pt" height="253.000000pt" viewBox="0 0 450.000000 253.000000"
 preserveAspectRatio="xMidYMid meet">
<metadata>
Created by potrace 1.16, written by Peter Selinger 2001-2019
</metadata>
<g transform="translate(0.000000,253.000000) scale(0.100000,-0.100000)"
fill="#000000" stroke="none">
<path d="M0 1265 l0 -1265 2250 0 2250 0 0 1265 0 1265 -2250 0 -2250 0 0
-1265z m3373 783 c46 -16 110 -73 122 -110 4 -10 21 -20 43 -24 47 -8 78 -27
123 -75 25 -26 45 -39 63 -39 38 0 84 -26 128 -73 38 -41 46 -57 29 -57 -5 0
-15 -15 -21 -34 -12 -36 -58 -78 -100 -91 -14 -4 -32 -13 -40 -20 -43 -36
-125 -69 -176 -69 -47 -1 -53 -3 -48 -19 6 -20 -13 -78 -30 -89 -6 -4 -5 -12
3 -22 17 -21 50 -131 57 -191 8 -67 -11 -132 -47 -166 -16 -15 -29 -32 -29
-38 0 -6 -9 -11 -19 -11 -11 0 -23 -4 -26 -10 -8 -12 -61 -13 -83 -1 -9 5 -30
11 -47 14 -16 3 -43 10 -60 16 -16 5 -48 12 -70 15 -22 3 -56 8 -75 12 -82 17
-248 140 -222 166 14 14 -2 38 -24 38 -8 0 -13 4 -11 9 1 5 -7 17 -18 25 -19
15 -18 16 10 4 17 -7 33 -17 36 -21 4 -6 14 -5 24 0 15 9 13 12 -16 22 -51 19
-79 23 -79 11 0 -5 -20 -10 -44 -10 -64 0 -95 31 -159 158 -66 132 -78 175
-60 219 7 18 18 68 24 110 6 48 18 89 30 106 l20 28 -23 -5 c-13 -3 -36 -8
-52 -11 -16 -3 -45 -23 -65 -44 -44 -47 -91 -60 -91 -26 0 12 -6 27 -13 33
-11 9 -14 2 -16 -35 -2 -41 0 -45 18 -40 14 3 20 -1 23 -17 8 -42 -11 -60 -35
-33 -13 14 -16 22 -24 81 -3 23 -14 51 -25 63 -23 25 -18 53 15 86 21 21 31
22 185 22 123 0 159 3 147 11 -40 29 -2 72 95 106 41 15 99 28 128 29 29 2 55
5 57 8 2 3 97 6 212 6 165 -1 218 -4 256 -17z m-1095 -360 c-6 -16 -21 -14
-24 4 -1 11 3 15 12 11 8 -3 13 -10 12 -15z m22 -18 c0 -5 -5 -10 -11 -10 -5
0 -7 5 -4 10 3 6 8 10 11 10 2 0 4 -4 4 -10z m-6 -54 c14 3 27 -1 35 -10 12
-14 9 -16 -20 -16 -31 0 -32 -1 -13 -15 10 -8 29 -15 42 -15 12 0 22 -6 22
-14 0 -9 -13 -13 -47 -12 l-48 1 -1 50 c-1 28 0 44 3 38 3 -8 14 -11 27 -7z
m-22 -124 c-14 -22 -17 -23 -20 -8 -5 27 6 46 22 40 13 -5 13 -9 -2 -32z m24
-10 c-6 -11 -10 -84 -5 -97 2 -5 1 -10 -2 -10 -3 0 -12 -5 -20 -11 -34 -27
-45 -23 -41 15 5 61 12 81 26 81 7 0 19 7 26 15 13 16 25 21 16 7z m28 -76
c-3 -9 -10 -16 -15 -16 -5 0 -4 9 3 20 14 22 21 20 12 -4z m-91 -131 c-7 -21
-12 -19 -10 4 0 11 5 18 9 15 4 -3 5 -11 1 -19z m97 -585 c0 -5 -5 -10 -11
-10 -5 0 -7 5 -4 10 3 6 8 10 11 10 2 0 4 -4 4 -10z m-2 -44 c-1 -14 -5 -23
-9 -20 -7 4 0 44 7 44 2 0 3 -11 2 -24z"/>
<path d="M3070 1925 c8 -10 8 -15 -1 -21 -8 -4 -9 -3 -5 4 10 17 -9 15 -24 -3
-20 -24 -2 -35 60 -35 47 0 62 -4 73 -20 8 -11 17 -17 20 -13 4 3 7 1 7 -6 0
-7 4 -10 9 -6 5 3 12 1 16 -5 3 -5 14 -10 23 -10 10 0 1 11 -23 27 -22 15 -43
27 -47 26 -3 -1 -9 4 -11 12 -6 14 21 14 43 0 6 -3 10 0 10 7 0 10 3 9 11 -2
9 -12 10 -13 7 0 -3 8 -15 15 -29 15 -13 1 -35 5 -48 9 -18 6 -22 5 -16 -4 5
-9 4 -11 -3 -6 -7 4 -12 14 -12 22 0 8 -6 15 -12 15 -7 1 -23 3 -36 4 -17 2
-20 -1 -12 -10z m50 -15 c0 -5 -7 -7 -15 -4 -8 4 -15 8 -15 10 0 2 7 4 15 4 8
0 15 -4 15 -10z"/>
<path d="M3440 1916 c0 -2 8 -10 18 -17 15 -13 16 -12 3 4 -13 16 -21 21 -21
13z"/>
<path d="M3371 1847 c1 -17 2 -18 6 -4 2 9 8 15 13 12 5 -3 11 -2 14 3 2 4 -4
9 -15 9 -14 1 -19 -4 -18 -20z"/>
<path d="M3500 1846 c0 -2 8 -10 18 -17 15 -13 16 -12 3 4 -13 16 -21 21 -21
13z"/>
<path d="M3297 1798 c-8 -23 15 -40 31 -22 10 11 10 14 -2 14 -8 0 -16 5 -18
12 -3 8 -7 6 -11 -4z"/>
<path d="M3143 1787 c-4 -6 -1 -7 7 -2 9 5 11 4 6 -4 -4 -6 -11 -9 -14 -7 -4
2 -22 1 -39 -2 -32 -7 -32 -7 -14 -30 16 -22 19 -23 34 -8 16 17 67 22 67 7 0
-11 -25 -21 -56 -21 -28 0 -30 -7 -7 -32 14 -16 14 -22 3 -43 -10 -19 -18 -24
-34 -18 -12 4 -29 7 -38 7 -10 0 -18 6 -18 12 0 18 -31 26 -47 12 -8 -6 -12
-19 -10 -28 3 -12 -4 -16 -36 -17 -48 -2 -52 -6 -37 -32 6 -12 21 -21 35 -21
13 0 27 -5 31 -12 4 -6 3 -8 -3 -5 -9 6 -65 -46 -63 -58 2 -11 -42 -45 -51
-39 -5 3 -7 9 -4 14 3 4 -2 13 -9 19 -17 14 -31 -2 -20 -21 14 -22 12 -46 -4
-41 -11 5 -13 1 -7 -18 9 -29 4 -24 41 -36 29 -10 57 -4 55 11 -3 21 2 26 29
26 29 0 38 9 23 23 -3 4 -12 2 -19 -4 -18 -15 -34 -3 -34 26 0 25 35 65 56 65
11 0 60 -18 73 -27 2 -1 -11 -19 -28 -40 -31 -37 -31 -38 -9 -41 14 -3 29 4
40 19 l19 22 21 -22 c16 -18 27 -22 52 -17 41 8 60 33 41 52 -11 11 -19 12
-39 2 -31 -13 -44 -5 -26 17 12 15 35 16 57 2 6 -4 13 -4 16 0 2 5 2 2 0 -5
-1 -7 1 -11 6 -8 5 3 11 17 13 31 5 22 2 25 -24 25 -16 0 -27 -4 -24 -8 3 -5
0 -9 -7 -10 -7 -1 -24 -4 -40 -8 -20 -5 -32 -1 -45 12 -9 11 -24 20 -32 22 -8
2 -17 8 -18 13 -2 5 -8 7 -13 3 -5 -3 -9 -1 -9 5 0 6 11 13 25 17 14 3 22 10
19 15 -3 5 2 6 10 3 9 -3 16 -1 16 5 0 6 6 8 14 5 8 -3 24 -1 35 5 13 8 22 8
26 1 9 -15 25 -2 18 15 -5 14 8 20 31 16 5 -1 4 5 -4 13 -10 14 -10 16 6 17
27 2 27 2 54 -5 l25 -7 -23 18 c-21 17 -21 20 -7 41 15 21 15 22 -7 22 -13 0
-18 4 -13 8 19 14 34 49 22 51 -49 8 -88 7 -94 -2z"/>
<path d="M3347 1719 c-11 -6 -26 -12 -35 -14 -10 -1 -16 -10 -16 -19 1 -9 -5
-16 -13 -16 -8 0 -11 -5 -8 -10 4 -6 10 -8 15 -5 4 3 11 -1 13 -7 3 -7 6 -3 6
9 2 36 53 70 58 38 0 -6 -3 -9 -7 -8 -4 1 -11 -13 -14 -33 -4 -19 -11 -32 -16
-29 -5 3 -11 1 -15 -5 -3 -5 -1 -10 4 -10 6 0 11 -5 11 -11 0 -5 -5 -7 -12 -3
-6 4 -8 3 -5 -4 6 -9 27 -9 47 -2 3 1 9 2 15 0 5 -1 1 8 -9 19 -12 13 -16 27
-11 38 6 14 8 15 13 4 3 -10 9 -5 19 15 7 16 11 21 8 11 -3 -10 -1 -15 5 -12
6 3 10 15 10 26 0 11 5 17 10 14 6 -4 7 -11 4 -17 -5 -7 -2 -8 5 -3 14 8 1 27
-21 31 -7 1 -20 5 -28 8 -8 3 -23 1 -33 -5z"/>
<path d="M3230 1609 c0 -5 5 -7 10 -4 6 3 10 8 10 11 0 2 -4 4 -10 4 -5 0 -10
-5 -10 -11z"/>
<path d="M3083 1576 c-13 -6 -23 -13 -23 -16 0 -3 18 -15 39 -26 l40 -22 22
21 22 21 -29 9 c-16 5 -33 13 -39 16 -5 4 -20 2 -32 -3z"/>
<path d="M2824 1528 c-4 -6 1 -17 11 -25 19 -13 34 -4 35 22 0 14 -38 16 -46
3z"/>
<path d="M3050 1360 c0 -5 9 -19 20 -30 27 -27 25 -31 -12 -18 -18 7 -33 7
-35 2 -25 -71 -63 -81 -123 -34 -48 38 -55 18 -10 -25 27 -26 37 -29 86 -27
30 1 63 6 72 11 9 5 32 11 50 14 19 3 36 8 39 11 3 2 16 1 29 -4 22 -9 23 -8
12 15 -6 14 -31 41 -56 60 -45 35 -72 44 -72 25z"/>
<path d="M3286 1341 c-3 -5 1 -11 9 -14 9 -4 12 -1 8 9 -6 16 -10 17 -17 5z"/>
<path d="M3236 1245 c-3 -9 0 -15 9 -15 16 0 20 16 6 24 -5 3 -11 -1 -15 -9z"/>
<path d="M2890 1189 c0 -5 5 -7 10 -4 6 3 10 8 10 11 0 2 -4 4 -10 4 -5 0 -10
-5 -10 -11z"/>
</g>
</svg>
