<?xml version="1.0" standalone="no"?>
<!DOCTYPE svg PUBLIC "-//W3C//DTD SVG 20010904//EN"
 "http://www.w3.org/TR/2001/REC-SVG-20010904/DTD/svg10.dtd">
<svg version="1.0" xmlns="http://www.w3.org/2000/svg"
 width="450.000000pt" height="253.000000pt" viewBox="0 0 450.000000 253.000000"
 preserveAspectRatio="xMidYMid meet">
<metadata>
Created by potrace 1.16, written by Peter Selinger 2001-2019
</metadata>
<g transform="translate(0.000000,253.000000) scale(0.100000,-0.100000)"
fill="#000000" stroke="none">
<path d="M0 1265 l0 -1265 2250 0 2250 0 0 1265 0 1265 -2250 0 -2250 0 0
-1265z m3386 792 c41 -18 104 -90 104 -120 0 -10 13 -15 46 -15 51 -1 83 -18
130 -68 20 -21 47 -37 78 -45 48 -12 102 -49 137 -93 l20 -26 -20 -22 c-12
-12 -21 -27 -21 -32 -1 -22 -38 -55 -86 -77 -27 -13 -55 -29 -62 -36 -7 -7
-24 -16 -38 -19 -13 -3 -24 -10 -24 -15 0 -12 -68 -29 -119 -29 -41 0 -43 -1
-37 -24 7 -27 -8 -76 -26 -88 -9 -5 -8 -10 0 -21 22 -26 52 -155 52 -219 0
-67 -27 -144 -54 -154 -8 -3 -18 -14 -21 -25 -4 -11 -10 -17 -15 -14 -4 3 -20
-1 -35 -9 -23 -12 -34 -12 -79 0 -115 32 -163 44 -196 48 -72 10 -115 25 -164
58 -38 25 -99 86 -107 105 -5 13 -16 23 -25 23 -10 0 -14 3 -11 6 13 13 -47
48 -95 55 -28 5 -61 15 -74 24 -29 19 -126 208 -144 282 -11 40 -11 58 -2 77
6 14 16 65 22 113 7 53 17 95 27 105 15 17 14 18 -13 17 -26 0 -80 -17 -61
-18 5 -1 -13 -19 -38 -41 -38 -33 -50 -38 -66 -30 -10 6 -19 17 -19 25 0 8 -4
15 -10 15 -5 0 -10 -11 -10 -25 0 -14 0 -28 0 -32 0 -5 6 -8 13 -8 9 0 35 -50
37 -72 0 0 -9 1 -20 4 -26 7 -50 57 -50 104 0 29 -6 42 -27 57 -23 17 -25 22
-14 36 7 9 10 16 5 16 -5 0 5 12 21 28 l30 27 157 0 c153 -1 157 0 138 17 -21
20 -26 38 -11 38 5 0 11 8 14 19 7 27 154 81 225 82 32 1 82 4 112 9 30 4 129
6 220 6 133 -2 173 -5 206 -19z m-1101 -368 c-10 -15 -25 -10 -19 6 4 8 10 12
15 9 5 -3 7 -10 4 -15z m7 -79 c2 8 12 10 26 6 30 -10 28 -26 -4 -26 -22 0
-25 -2 -14 -15 7 -8 26 -15 42 -15 19 0 28 -4 26 -12 -3 -8 -22 -13 -49 -13
l-44 0 -1 43 c0 24 2 38 6 31 6 -8 9 -8 12 1z m1 -106 c-3 -8 -1 -14 4 -14 6
0 7 -18 3 -45 -8 -50 8 -62 29 -22 l11 22 -6 -24 c-9 -35 -34 -59 -55 -54 -13
4 -21 -2 -29 -21 -5 -14 -11 -26 -13 -26 -1 0 -2 25 -2 56 1 49 5 59 28 76 27
20 35 38 18 38 -5 0 -12 -8 -14 -17 -3 -10 -5 -2 -4 18 1 29 4 35 18 32 10 -3
15 -11 12 -19z m-47 -250 c1 -9 0 -13 -4 -10 -3 4 -7 14 -8 22 -1 9 0 13 4 10
3 -4 7 -14 8 -22z m83 -619 c-1 -42 -6 -75 -11 -75 -6 0 -8 6 -5 14 3 7 0 19
-6 25 -7 7 -7 11 -1 11 6 0 10 21 9 50 -1 28 2 50 7 50 4 0 8 -34 7 -75z m-1
-145 c-1 -40 -5 -57 -12 -53 -8 5 -8 3 -1 -8 6 -8 10 -32 9 -54 -2 -22 -3 -77
-3 -122 -1 -46 -4 -83 -8 -83 -10 0 -10 321 0 337 4 6 4 18 1 27 -3 9 -1 16 4
16 6 0 10 -24 10 -60z m-11 -345 c0 -8 -4 -12 -9 -9 -5 3 -6 10 -3 15 9 13 12
11 12 -6z"/>
<path d="M3405 1960 c3 -5 8 -10 11 -10 2 0 4 5 4 10 0 6 -5 10 -11 10 -5 0
-7 -4 -4 -10z"/>
<path d="M3440 1930 c0 -6 7 -10 15 -10 8 0 15 2 15 4 0 2 -7 6 -15 10 -8 3
-15 1 -15 -4z"/>
<path d="M3065 1921 c3 -5 -4 -12 -15 -16 -23 -7 -26 -20 -7 -32 21 -13 107
-9 107 5 0 6 -4 12 -8 12 -5 0 -19 9 -32 20 -23 20 -56 28 -45 11z"/>
<path d="M3150 1900 c0 -5 5 -10 11 -10 5 0 7 -4 4 -10 -9 -14 21 -53 42 -56
13 -2 11 3 -9 20 -32 25 -36 38 -10 30 14 -5 15 -4 2 5 -8 6 -10 11 -5 11 6 0
3 5 -5 10 -19 13 -30 13 -30 0z"/>
<path d="M3466 1898 c3 -5 10 -6 15 -3 13 9 11 12 -6 12 -8 0 -12 -4 -9 -9z"/>
<path d="M3056 1825 c-9 -26 -7 -32 5 -12 6 10 9 21 6 23 -2 3 -7 -2 -11 -11z"/>
<path d="M3157 1794 c-15 -8 -27 -12 -27 -8 0 4 -6 1 -14 -5 -8 -6 -19 -10
-26 -9 -18 4 -21 -14 -6 -35 8 -11 20 -15 31 -11 13 5 14 9 3 15 -8 6 0 9 24
9 20 0 39 -4 42 -9 7 -11 -17 -21 -50 -21 -28 0 -29 -3 -9 -33 13 -20 13 -25
0 -44 -13 -19 -19 -20 -50 -11 -19 6 -33 14 -30 17 2 4 -8 11 -21 18 -21 10
-27 8 -44 -14 -11 -14 -17 -29 -14 -34 3 -5 -11 -7 -30 -5 -20 3 -38 1 -41 -4
-9 -15 15 -52 29 -47 7 3 18 2 25 -2 9 -6 5 -16 -13 -37 -13 -16 -35 -42 -49
-58 l-24 -30 -12 23 c-10 19 -10 26 3 40 21 23 2 41 -33 32 -24 -6 -50 -60
-30 -62 5 -1 14 -2 21 -3 6 0 15 -13 19 -28 8 -32 9 -31 -25 -18 -32 12 -37
-11 -6 -33 11 -8 17 -17 13 -21 -4 -4 0 -4 8 -1 9 3 21 -1 28 -9 9 -11 18 -13
31 -6 9 5 19 7 22 5 3 -3 4 5 4 18 -1 15 5 22 19 23 11 1 26 2 34 3 22 2 2 16
-22 16 -33 0 -35 44 -3 74 21 20 28 22 40 12 8 -7 19 -10 24 -7 6 3 15 -1 22
-9 9 -11 7 -21 -14 -48 -14 -19 -23 -36 -20 -39 10 -11 45 4 55 24 10 18 10
18 35 -1 13 -10 32 -18 42 -16 9 2 25 4 35 4 11 1 21 10 24 21 3 11 10 17 17
13 6 -4 5 1 -3 10 -10 13 -17 15 -27 6 -11 -9 -14 -8 -14 2 0 11 -2 11 -10 -1
-5 -8 -10 -11 -10 -6 0 5 -7 2 -17 -5 -14 -12 -16 -12 -12 0 3 8 14 19 25 25
10 6 22 15 25 20 4 4 10 3 13 -3 11 -17 33 -13 38 7 4 15 1 18 -21 14 -14 -3
-32 -9 -38 -14 -7 -6 -19 -8 -28 -5 -8 4 -17 1 -21 -5 -5 -7 -2 -8 6 -3 9 6
11 4 5 -4 -5 -9 -17 -3 -42 21 -19 18 -35 32 -36 31 -1 -1 -12 0 -24 3 -30 8
-29 22 2 30 14 3 23 9 20 14 -3 5 31 6 54 1 3 -1 -3 -7 -13 -14 -15 -11 -13
-15 28 -34 27 -14 48 -18 51 -13 4 6 10 8 14 6 3 -3 7 4 7 14 0 10 -3 18 -6
18 -3 -1 -17 5 -32 12 -22 10 -25 16 -17 27 6 7 15 13 20 13 15 0 48 33 43 42
-3 4 0 8 6 8 6 0 8 5 5 11 -4 6 11 1 34 -10 23 -12 41 -17 41 -12 0 5 -9 13
-20 16 -23 7 -25 18 -10 46 9 15 7 19 -6 19 -13 0 -14 3 -4 15 29 34 -19 72
-63 49z m-327 -300 c0 -16 -16 -19 -25 -4 -8 13 4 32 16 25 5 -4 9 -13 9 -21z"/>
<path d="M3304 1789 c-3 -6 -2 -15 3 -20 5 -5 9 -1 10 11 2 22 -2 25 -13 9z"/>
<path d="M2900 1755 c-11 -13 -10 -14 4 -9 9 3 16 10 16 15 0 13 -6 11 -20 -6z"/>
<path d="M2931 1754 c0 -11 3 -14 6 -6 3 7 2 16 -1 19 -3 4 -6 -2 -5 -13z"/>
<path d="M3353 1686 c1 -18 8 -39 16 -46 11 -11 13 -11 9 1 -3 8 4 22 15 31
25 22 15 48 -18 48 -22 0 -25 -4 -22 -34z m14 2 c-3 -8 -6 -5 -6 6 -1 11 2 17
5 13 3 -3 4 -12 1 -19z"/>
<path d="M3289 1698 c-7 -22 -3 -48 8 -48 11 0 11 4 2 23 -11 20 -11 21 4 8
15 -12 17 -11 17 3 0 12 -27 25 -31 14z"/>
<path d="M2716 1642 c-3 -6 -1 -14 5 -17 15 -10 25 3 12 16 -7 7 -13 7 -17 1z"/>
<path d="M3223 1621 c1 -12 7 -21 14 -21 17 0 16 15 -1 30 -12 9 -15 8 -13 -9z"/>
<path d="M3320 1621 c0 -5 5 -13 10 -16 6 -3 10 -2 10 4 0 5 -4 13 -10 16 -5
3 -10 2 -10 -4z"/>
<path d="M2752 1589 c2 -7 10 -15 17 -17 8 -3 12 1 9 9 -2 7 -10 15 -17 17 -8
3 -12 -1 -9 -9z"/>
<path d="M2806 1561 c-4 -5 3 -7 14 -4 23 6 26 13 6 13 -8 0 -17 -4 -20 -9z"/>
<path d="M3050 1350 c0 -11 7 -23 15 -26 8 -4 15 -10 15 -15 0 -5 -12 -4 -26
1 -37 14 -44 13 -44 -11 0 -59 -67 -65 -122 -12 -26 26 -41 34 -48 27 -8 -8 3
-23 33 -51 43 -40 45 -41 107 -37 37 2 70 10 80 19 13 12 19 12 30 2 10 -9 11
-9 6 1 -4 6 -2 12 3 12 6 0 11 -5 11 -11 0 -5 5 -7 10 -4 6 4 8 10 5 14 -2 5
9 7 26 5 26 -3 28 -1 20 15 -12 22 -95 91 -110 91 -6 0 -11 -9 -11 -20z"/>
<path d="M3286 1341 c-3 -5 1 -14 8 -20 12 -10 13 -8 9 8 -6 23 -9 25 -17 12z"/>
<path d="M3236 1252 c-2 -4 -1 -14 5 -22 7 -12 9 -10 9 8 0 23 -5 28 -14 14z"/>
<path d="M2831 1233 c7 -12 15 -20 18 -17 3 2 -3 12 -13 22 -17 16 -18 16 -5
-5z"/>
</g>
</svg>
