<?xml version="1.0" standalone="no"?>
<!DOCTYPE svg PUBLIC "-//W3C//DTD SVG 20010904//EN"
 "http://www.w3.org/TR/2001/REC-SVG-20010904/DTD/svg10.dtd">
<svg version="1.0" xmlns="http://www.w3.org/2000/svg"
 width="450.000000pt" height="253.000000pt" viewBox="0 0 450.000000 253.000000"
 preserveAspectRatio="xMidYMid meet">
<metadata>
Created by potrace 1.16, written by Peter Selinger 2001-2019
</metadata>
<g transform="translate(0.000000,253.000000) scale(0.100000,-0.100000)"
fill="#000000" stroke="none">
<path d="M0 1265 l0 -1265 2250 0 2250 0 0 1265 0 1265 -2250 0 -2250 0 0
-1265z m2619 653 c28 -6 49 -14 47 -17 -2 -3 9 -7 25 -8 47 -3 217 -84 260
-124 48 -44 50 -71 8 -110 -32 -30 -59 -38 -59 -18 0 6 7 8 16 5 14 -5 15 -4
4 9 -8 10 -9 15 -1 15 6 0 11 -5 11 -11 0 -5 4 -8 8 -5 5 3 8 20 7 38 -2 32
-2 32 -61 36 -32 2 -65 9 -73 15 -12 9 -13 9 -7 0 4 -7 2 -13 -3 -13 -6 0 -11
8 -12 18 0 10 -3 12 -6 5 -3 -10 -11 -9 -34 3 -20 10 -35 12 -46 5 -9 -5 -42
-6 -73 -4 -37 4 -60 2 -64 -6 -5 -7 -1 -9 11 -4 13 4 15 3 7 -6 -8 -8 -18 -9
-36 -2 -14 5 -29 7 -34 3 -4 -4 -4 -2 0 5 4 7 13 10 21 6 11 -4 13 -1 9 11 -8
22 -22 20 -42 -5 -10 -11 -24 -21 -32 -22 -8 -2 -21 -6 -27 -10 -26 -16 -33 4
-13 31 19 23 20 28 6 38 -19 14 -20 22 -3 37 24 23 62 36 95 33 25 -3 32 0 32
15 0 23 -30 32 -105 32 -41 -1 -54 2 -40 7 30 13 147 12 204 -2z m-234 -84
c-17 -14 -47 -33 -67 -43 -21 -10 -35 -21 -30 -26 4 -4 -4 -4 -18 0 -23 7 -24
7 -10 -10 8 -11 10 -16 4 -12 -7 4 -14 1 -17 -6 -8 -21 -65 -49 -73 -36 -4 8
-3 9 4 5 7 -4 12 -2 12 3 0 6 -18 14 -39 17 -22 4 -42 13 -45 20 -3 8 -12 11
-21 8 -8 -3 -15 -1 -15 6 0 6 -4 8 -10 5 -5 -3 -10 0 -10 7 0 20 98 51 162 50
55 0 87 15 75 35 -3 5 2 17 10 28 13 16 15 17 10 3 -8 -23 -2 -23 24 3 11 11
27 18 35 15 8 -3 14 0 15 7 0 7 8 -3 17 -21 16 -33 16 -33 -13 -58z m-280 47
c-10 -4 -34 -7 -52 -5 -18 1 -33 0 -33 -1 0 -13 14 -35 22 -35 5 0 6 6 2 13
-6 9 -5 9 8 0 8 -7 18 -10 21 -7 3 4 19 3 34 -1 24 -6 26 -8 10 -16 -10 -6
-25 -12 -35 -14 -9 -2 -26 -7 -38 -10 -12 -4 -25 0 -33 9 -11 13 -9 14 13 10
l26 -4 -23 23 c-12 13 -26 21 -30 19 -5 -2 -20 -1 -35 3 -43 11 -9 20 80 22
46 1 74 -2 63 -6z m-285 -26 c-7 -9 -8 -15 -2 -15 5 0 9 -11 8 -24 0 -13 -4
-22 -7 -20 -4 2 -14 -7 -22 -20 -9 -13 -37 -45 -62 -70 -25 -26 -43 -51 -40
-55 2 -5 -4 -11 -15 -14 -11 -3 -20 -13 -20 -22 0 -22 -37 -84 -65 -108 -19
-18 -19 -18 10 -3 17 8 41 26 54 40 14 14 34 26 45 25 12 0 15 -3 9 -6 -15 -6
-17 -33 -3 -33 6 0 10 -4 10 -10 0 -5 -13 -10 -29 -10 -18 0 -31 -6 -35 -16
-9 -24 0 -29 29 -16 36 16 37 16 31 -15 -3 -16 -8 -41 -12 -58 -3 -16 -6 -38
-6 -47 1 -15 -2 -14 -19 3 -15 15 -31 20 -57 17 -33 -3 -37 0 -40 22 -2 14 -6
32 -9 40 -12 31 -13 46 -2 95 20 93 142 273 213 316 37 23 53 24 36 4z m54
-17 c-3 -4 -12 -8 -20 -8 -8 0 -13 4 -10 8 3 5 12 9 20 9 8 0 13 -4 10 -9z
m-4 -32 c0 -3 -4 -8 -10 -11 -5 -3 -10 -1 -10 4 0 6 5 11 10 11 6 0 10 -2 10
-4z m407 -89 c0 -7 -9 -14 -19 -14 -16 -2 -17 1 -8 13 15 18 27 18 27 1z m278
3 c3 -6 -1 -7 -9 -4 -18 7 -21 14 -7 14 6 0 13 -4 16 -10z m331 -85 c-18 -27
-31 -31 -42 -13 -4 7 -3 8 4 4 7 -4 12 -2 12 4 0 6 4 9 9 5 5 -3 13 4 16 16 4
11 9 18 12 15 3 -3 -2 -17 -11 -31z m-796 1 c0 -2 -7 -6 -15 -10 -8 -3 -15 -1
-15 4 0 6 7 10 15 10 8 0 15 -2 15 -4z m624 -74 c3 -5 -1 -9 -9 -9 -8 0 -12 4
-9 9 3 4 7 8 9 8 2 0 6 -4 9 -8z m-1017 -414 c-3 -7 -5 -2 -5 12 0 14 2 19 5
13 2 -7 2 -19 0 -25z m11 -119 l-3 -64 -5 72 c-3 40 -1 68 3 64 4 -4 7 -37 5
-72z m10 -140 c1 -28 -1 -50 -3 -48 -8 10 -14 99 -6 99 5 0 9 -23 9 -51z m4
-95 c2 -19 1 -37 -2 -39 -3 -2 -7 14 -8 36 -3 49 4 52 10 3z m5 -121 c-3 -10
-5 -4 -5 12 0 17 2 24 5 18 2 -7 2 -21 0 -30z"/>
<path d="M2953 1715 c0 -8 6 -15 13 -15 8 0 11 6 8 15 -4 8 -9 15 -13 15 -4 0
-8 -7 -8 -15z"/>
</g>
</svg>
